<svg xmlns="http://www.w3.org/2000/svg" viewBox="0 0 45.52 45.52"><defs><style>.cls-1{fill:#fff;stroke:#000;stroke-miterlimit:10;stroke-width:2.23px;}.cls-2{fill:#040006;}</style></defs><title>google_black_1</title><g id="Layer_2" data-name="Layer 2"><g id="Layer_1-2" data-name="Layer 1"><circle class="cls-1" cx="22.76" cy="22.76" r="21.65"/><path class="cls-2" d="M26.25,21.18H16.61v3.9h5.5a2.62,2.62,0,0,1-.66,1.68,6.29,6.29,0,1,1-.8-8.81l2.69-2.83A10.18,10.18,0,1,0,22,31.43a9.83,9.83,0,0,0,4.41-8.67A10.26,10.26,0,0,0,26.25,21.18Z"/><polygon class="cls-2" points="39.28 20.94 35.17 20.94 35.17 16.84 32.41 16.84 32.41 20.94 28.31 20.94 28.31 23.7 32.41 23.7 32.41 27.8 35.17 27.8 35.17 23.7 39.28 23.7 39.28 20.94"/></g></g></svg>