<svg xmlns="http://www.w3.org/2000/svg" viewBox="0 0 51.47 51.47"><defs><style>.cls-1{fill:#fff;stroke:#000;stroke-miterlimit:10;stroke-width:2.58px;}.cls-2{fill:#040006;}</style></defs><title>google_black</title><g id="Layer_2" data-name="Layer 2"><g id="Layer_1-2" data-name="Layer 1"><circle class="cls-1" cx="25.73" cy="25.73" r="24.44"/><path class="cls-2" d="M29.67,24H18.79v4.4H25a3,3,0,0,1-.74,1.89,7.1,7.1,0,1,1-.9-9.94l3-3.19a11.5,11.5,0,1,0-1.57,18.41c3.28-2,5-5.65,5-9.79A11.59,11.59,0,0,0,29.67,24Z"/><polygon class="cls-2" points="44.38 23.67 39.75 23.67 39.75 19.04 36.63 19.04 36.63 23.67 32 23.67 32 26.79 36.63 26.79 36.63 31.43 39.75 31.43 39.75 26.79 44.38 26.79 44.38 23.67"/></g></g></svg>