<svg xmlns="http://www.w3.org/2000/svg" viewBox="0 0 51 51"><title>llamativa-negra</title><g id="Layer_2" data-name="Layer 2"><g id="Layer_1-2" data-name="Layer 1"><circle cx="25.5" cy="25.5" r="25" style="stroke:#000;stroke-miterlimit:10"/><path d="M43.85,14.73a5.51,5.51,0,0,1-.51,1.82,4.78,4.78,0,0,1-1.19,1.54,6.29,6.29,0,0,1-1.92,1.11,9.65,9.65,0,0,1-2.7.55,13.77,13.77,0,0,1-3-.09q-1.44-.2-2.87-.46t-2.83-.48A13.26,13.26,0,0,0,26,18.6a11,11,0,0,0-2.35.43,6.77,6.77,0,0,0-2.06,1,5,5,0,0,0-1.44,1.65A4.82,4.82,0,0,0,19.61,24a4,4,0,0,0,.4,1.8,5.94,5.94,0,0,0,.91,1.36,4.8,4.8,0,0,0,1,.85q.46.29.6.26a12.22,12.22,0,0,1-4.64.29,7.91,7.91,0,0,1-3.45-1.31,6,6,0,0,1-2.06-2.5,6.13,6.13,0,0,1-.46-3.23A7.29,7.29,0,0,1,13,18.42a8.08,8.08,0,0,1,2.29-2.35,11.39,11.39,0,0,1,3.3-1.52,16.27,16.27,0,0,1,4.11-.61,19.57,19.57,0,0,1,4,.29q1.94.35,3.8.81l3.6.88a20.62,20.62,0,0,0,3.42.53,11.18,11.18,0,0,0,3.27-.25A8.37,8.37,0,0,0,43.85,14.73ZM25.22,23.48l.25-.69a5.06,5.06,0,0,0,.25-1.11,3.12,3.12,0,0,0-.08-1.15,1.22,1.22,0,0,0-.71-.82l.8,0h.86a8.47,8.47,0,0,1,3.6.78,4.8,4.8,0,0,1,1.91,1.66,3.82,3.82,0,0,1,.6,2,5.15,5.15,0,0,1-.33,1.91l-3.68,9.47-.25.69a5,5,0,0,0-.25,1.11,3.12,3.12,0,0,0,.08,1.15,1.22,1.22,0,0,0,.71.82l-.8,0H27.3a8.46,8.46,0,0,1-3.6-.78,4.79,4.79,0,0,1-1.91-1.66,3.82,3.82,0,0,1-.6-2,5.14,5.14,0,0,1,.33-1.91Z" style="fill:#fff"/></g></g></svg>