<svg xmlns="http://www.w3.org/2000/svg" viewBox="0 0 51 51"><title>moderna</title><g id="Layer_2" data-name="Layer 2"><g id="Layer_1-2" data-name="Layer 1"><path d="M29.38,17.74,24.8,36.33H20l4.71-19.08c-3.71,0-6.63.92-6.63,5.8a3.63,3.63,0,0,0,.46,2c-2.29,0-3.55-.72-3.55-2.8,0-3.84,3.12-7.51,11.31-7.51,1.36,0,5.27.49,8.52.49a12.61,12.61,0,0,0,3.81-.43c-.46,1.21-.5,3.72-3.15,3.72A44.21,44.21,0,0,1,29.38,17.74Z" style="fill:#1d1d1b"/><circle cx="25.5" cy="25.5" r="25" style="fill:none;stroke:#000;stroke-miterlimit:10"/></g></g></svg>