<?xml version="1.0" encoding="UTF-8"?>
<svg width="56px" height="45px" viewBox="0 0 56 45" version="1.1" xmlns="http://www.w3.org/2000/svg" xmlns:xlink="http://www.w3.org/1999/xlink">
    <!-- Generator: Sketch 44.1 (41455) - http://www.bohemiancoding.com/sketch -->
    <title>Add dog</title>
    <desc>Created with Sketch.</desc>
    <defs></defs>
    <g id="Iconos" stroke="none" stroke-width="1" fill="none" fill-rule="evenodd">
        <g id="Iconos-inicio" transform="translate(-47.000000, -48.000000)" fill="#FFFFFF">
            <g id="Add-dog" transform="translate(47.000000, 48.000000)">
                <g id="Group">
                    <path d="M53.1626667,11.8182315 C52.5969855,11.3657769 51.7415652,10.6834133 51.576,10.3765951 C51.4291014,10.1082315 51.2391884,9.62386783 51.0549565,9.15423146 C50.7554783,8.39332237 50.4454493,7.60541328 50.0834783,7.07032237 C49.1907246,5.75550419 47.6633043,4.51023146 45.9386667,3.70350419 C44.1734493,1.5385951 41.2671304,0.830049643 38.7576812,1.99677692 C36.5395942,3.03095873 33.7631304,5.58777692 34.2638841,8.7295951 C34.1510725,8.84495873 34.0455652,8.95132237 33.9295072,9.0715951 C33.5504928,9.46023146 33.1511884,9.86932237 32.7518841,10.2751406 C30.3357681,10.1155951 19.3776232,8.92350419 10.945971,0.362867825 C10.472,-0.119859448 9.7017971,-0.119859448 9.22376812,0.35632237 C8.74655072,0.834140552 8.74411594,1.6105951 9.21808696,2.09168601 C16.7634783,9.75068601 25.9864348,11.9049587 30.4834783,12.513686 C30.0809275,12.8875951 29.7497971,13.1723224 29.5615072,13.2819587 C18.8638841,19.5811406 13.5641739,27.3587769 12.9717101,37.6768678 C9.84707246,37.4003224 7.83837681,35.9922315 5.72173913,33.8592315 C4.46052174,32.5869587 2.40962319,32.5885951 1.14678261,33.8592315 C-0.114434783,35.1315042 -0.114434783,37.200686 1.14678261,38.4713224 C4.94991304,42.3053224 9.32034783,44.2501406 14.1395942,44.2501406 L31.7528116,44.2501406 C32.0750145,44.2501406 32.3850435,44.1208678 32.613913,43.8909587 C33.4425507,43.0555951 33.6689855,41.691686 33.177971,40.4987769 C32.6471884,39.207686 31.446029,38.4369587 29.9648696,38.4369587 L28.779942,38.4369587 C29.3788986,37.5214133 29.9981449,36.3751406 30.3584928,35.1454133 C30.7188406,34.248686 31.4484638,33.5875951 32.1164058,33.1384133 C32.6747826,37.6081406 33.802087,42.969686 33.8670145,43.2797769 C33.9863188,43.8451406 34.4838261,44.2517769 35.0576232,44.2517769 L38.9346087,44.2517769 C40.0473043,44.2517769 40.9368116,43.6618678 41.3158261,42.6775951 C41.7565217,41.5321406 41.3791304,40.0602315 40.4198261,39.1798678 C40.1089855,38.8951406 39.6942609,38.6267769 39.3468986,38.4255042 C39.1634783,35.1814133 39.1642899,30.1921406 39.9028406,28.7284133 L40.1511884,28.2375042 C41.4124058,25.7494133 42.6078841,23.385686 44.0086957,17.4800496 C44.8064928,17.5921406 45.5604638,17.7009587 46.2316522,18.0568678 L46.6025507,18.2548678 C48.0342029,19.0223224 49.5145507,19.8143224 51.1442319,19.5394133 C52.7828406,19.2628678 55.1656812,17.2861406 55.6128696,15.3748678 C55.9269565,14.0273224 54.6454493,13.0029587 53.1626667,11.8182315 Z M37.9826087,27.1190496 L37.7318261,27.6148678 C36.378087,30.2993224 36.8975072,38.361686 36.9616232,39.2723224 C36.9916522,39.711686 37.2529855,40.1003224 37.6474203,40.2917769 C37.963942,40.4455951 38.5434203,40.7745042 38.7804058,40.9929587 C39.0717681,41.259686 39.1042319,41.6957769 39.0668986,41.7775951 C39.066087,41.7775951 39.0303768,41.7947769 38.9354203,41.7947769 L36.0502029,41.7947769 C35.5210435,39.1528678 34.1242899,31.8424133 34.2484638,28.8110496 C34.2793043,28.056686 34.7622029,26.121686 35.0592464,25.0793224 C35.2451014,24.4272315 34.8717681,23.7481406 34.2257391,23.5615951 C33.5805217,23.3717769 32.9052754,23.7497769 32.7202319,24.4018678 C32.6333913,24.7054133 31.8688696,27.4160496 31.8169275,28.7104133 C31.7966377,29.2103224 31.8112464,29.8067769 31.8534493,30.4662315 C31.4427826,30.6724133 30.9331014,30.972686 30.4128696,31.3613224 C30.0297971,30.0080496 29.2344348,28.7627769 28.1493333,27.9274133 C26.3768116,26.562686 24.0248116,26.3565042 21.5267246,27.3407769 C20.9009855,27.588686 20.5925797,28.3013224 20.8368696,28.9321406 C21.0827826,29.5621406 21.7888696,29.8714133 22.4146087,29.6259587 C24.1132754,28.9550496 25.5846957,29.0409587 26.6714203,29.8787769 C27.8985507,30.8229587 28.3311304,32.4323224 28.2142609,33.528686 C27.9391304,36.102686 25.4394203,38.7912315 25.4142609,38.8182315 C25.0798841,39.1749587 24.9865507,39.6969587 25.1797101,40.1477769 C25.3712464,40.5985951 25.8103188,40.890686 26.2972754,40.890686 L29.9656812,40.890686 C30.4558841,40.890686 30.7805217,41.0747769 30.9298551,41.4372315 C30.9809855,41.5615951 31.0012754,41.6851406 31.0012754,41.7955951 L14.1395942,41.7955951 C9.99072464,41.7955951 6.19814493,40.0937769 2.86817391,36.7359587 C2.55652174,36.4209587 2.55652174,35.9095951 2.86898551,35.5945951 C3.18144928,35.2812315 3.68788406,35.2795951 4.00034783,35.5945951 C6.73055072,38.3477769 9.49971014,40.1805042 14.1395942,40.1805042 C14.8018551,40.1805042 15.3431884,39.6470496 15.3569855,38.9785951 C15.5663768,28.8347769 20.3255652,21.5619587 30.7894493,15.4002315 C31.217971,15.1474133 31.8274783,14.6205042 32.6325797,13.845686 C34.1137391,17.3769587 37.8568116,19.9902315 40.6073043,20.7781406 C39.7137391,23.7047769 38.8907826,25.329686 37.9826087,27.1190496 Z M50.7424928,17.1175951 C49.9268406,17.256686 48.8668986,16.6880496 47.746087,16.086686 L47.3638261,15.8821406 C46.3038841,15.3208678 45.2423188,15.1727769 44.3033043,15.0435042 C42.8091594,14.835686 41.995942,14.6745042 41.2898551,13.5478678 C40.9303188,12.9759587 40.1795942,12.8065951 39.6098551,13.1674133 C39.0425507,13.5282315 38.8729275,14.2875042 39.2316522,14.8594133 C39.9296232,15.9713224 40.7728696,16.572686 41.633971,16.9269587 C41.5089855,17.4530496 41.3848116,17.9578678 41.2630725,18.4275042 C39.0709565,17.7901406 35.2937971,15.1834133 34.5365797,11.9458678 C34.810087,11.6660496 35.0965797,11.3739587 35.3984928,11.0655042 C35.9365797,11.6104133 36.6394203,12.0465042 37.4493913,12.3025951 C37.9696232,12.4670496 38.4914783,12.5488678 38.9971014,12.5488678 C39.8508986,12.5488678 40.6568116,12.3173224 41.3247536,11.8615951 C42.6484638,10.9599587 43.9104928,8.80814055 44.0492754,8.56514055 C44.386087,7.97850419 44.1872464,7.22741328 43.6061449,6.88704964 C43.0234203,6.54832237 42.2783768,6.74632237 41.9423768,7.3345951 C41.5885217,7.94823146 40.6405797,9.36532237 39.9612754,9.8275951 C39.5238261,10.1262315 38.8583188,10.1777769 38.1798261,9.96177692 C37.5143188,9.75068601 36.9713623,9.31950419 36.7976812,8.86541328 C35.9382029,6.61050419 38.7317101,4.71395873 39.7770435,4.22632237 C41.1186087,3.60123146 42.6606377,3.88923146 43.7295072,4.90377692 C43.7790145,4.95941328 43.8325797,5.01095873 43.882087,5.07150419 C44.3747246,5.65814055 44.7634783,5.85450419 44.7935072,5.8675951 C46.1472464,6.47304964 47.3865507,7.44504964 48.0731594,8.45632237 C48.2817391,8.76314055 48.5633623,9.48232237 48.7914203,10.0591406 C49.0121739,10.6228678 49.2215652,11.1555042 49.4415072,11.5580496 C49.844058,12.297686 50.7205797,12.999686 51.6506667,13.7425951 C52.1205797,14.1165042 52.8623768,14.709686 53.1569855,15.0590496 C52.7593043,15.9459587 51.3893333,17.0087769 50.7424928,17.1175951 Z M46.3712464,8.86541328 C45.6984348,8.86541328 45.1538551,9.41523146 45.1538551,10.092686 C45.1538551,10.7701406 45.6984348,11.3199587 46.3712464,11.3199587 C47.0432464,11.3199587 47.5886377,10.7701406 47.5886377,10.092686 C47.5886377,9.41523146 47.0432464,8.86541328 46.3712464,8.86541328 Z M7.64684058,17.8171406 L7.64684058,20.3592315 C7.64684058,21.036686 8.19142029,21.5865042 8.86423188,21.5865042 C9.53623188,21.5865042 10.0816232,21.036686 10.0816232,20.3592315 L10.0816232,17.8171406 L12.6032464,17.8171406 C13.2752464,17.8171406 13.8206377,17.2673224 13.8206377,16.5898678 C13.8206377,15.9124133 13.2752464,15.3625951 12.6032464,15.3625951 L10.0816232,15.3625951 L10.0816232,12.8172315 C10.0816232,12.1397769 9.53623188,11.5899587 8.86423188,11.5899587 C8.19142029,11.5899587 7.64684058,12.1397769 7.64684058,12.8172315 L7.64684058,15.3625951 L5.12197101,15.3625951 C4.44997101,15.3625951 3.90457971,15.9124133 3.90457971,16.5898678 C3.90457971,17.2673224 4.44997101,17.8171406 5.12197101,17.8171406 L7.64684058,17.8171406 Z M8.86423188,25.5244133 C13.7508406,25.5244133 17.7276522,21.5169587 17.7276522,16.5898678 C17.7276522,11.6619587 13.7516522,7.65204964 8.86423188,7.65204964 C3.97681159,7.65204964 0,11.6611406 0,16.5898678 C0,21.5169587 3.976,25.5244133 8.86423188,25.5244133 Z M8.86423188,10.1074133 C12.4084638,10.1074133 15.292058,13.0160496 15.292058,16.590686 C15.292058,20.163686 12.4084638,23.070686 8.86423188,23.070686 C5.31918841,23.070686 2.43478261,20.163686 2.43478261,16.590686 C2.43478261,13.0152315 5.31918841,10.1074133 8.86423188,10.1074133 Z" id="Shape"></path>
                </g>
            </g>
        </g>
    </g>
</svg>