<?xml version="1.0" encoding="UTF-8"?>
<svg width="20px" height="23px" viewBox="0 0 20 23" version="1.1" xmlns="http://www.w3.org/2000/svg" xmlns:xlink="http://www.w3.org/1999/xlink">
    <!-- Generator: Sketch 44.1 (41455) - http://www.bohemiancoding.com/sketch -->
    <title>fa-calendar</title>
    <desc>Created with Sketch.</desc>
    <defs></defs>
    <g id="Iconos" stroke="none" stroke-width="1" fill="none" fill-rule="evenodd">
        <g id="Formulario/Registro" transform="translate(-237.000000, -62.000000)" fill-rule="nonzero" fill="#7F7F7F">
            <g id="fa-calendar" transform="translate(237.000000, 62.000000)">
                <g id="Group">
                    <path d="M0,7.36 L0,21.13838 C0,22.16671 0.814090909,23 1.81818182,23 L18.1818182,23 C19.1859091,23 20,22.16671 20,21.13838 L20,7.36 L0,7.36 Z M5,21.62 L1.36363636,21.62 L1.36363636,17.94 L5,17.94 L5,21.62 Z M5,17.02 L1.36363636,17.02 L1.36363636,13.34 L5,13.34 L5,17.02 Z M5,12.42 L1.36363636,12.42 L1.36363636,8.74 L5,8.74 L5,12.42 Z M9.54545455,21.62 L5.90909091,21.62 L5.90909091,17.94 L9.54545455,17.94 L9.54545455,21.62 Z M9.54545455,17.02 L5.90909091,17.02 L5.90909091,13.34 L9.54545455,13.34 L9.54545455,17.02 Z M9.54545455,12.42 L5.90909091,12.42 L5.90909091,8.74 L9.54545455,8.74 L9.54545455,12.42 Z M14.0909091,21.62 L10.4545455,21.62 L10.4545455,17.94 L14.0909091,17.94 L14.0909091,21.62 Z M14.0909091,17.02 L10.4545455,17.02 L10.4545455,13.34 L14.0909091,13.34 L14.0909091,17.02 Z M14.0909091,12.42 L10.4545455,12.42 L10.4545455,8.74 L14.0909091,8.74 L14.0909091,12.42 Z M18.6363636,21.62 L15,21.62 L15,17.94 L18.6363636,17.94 L18.6363636,21.62 Z M18.6363636,17.02 L15,17.02 L15,13.34 L18.6363636,13.34 L18.6363636,17.02 Z M18.6363636,12.42 L15,12.42 L15,8.74 L18.6363636,8.74 L18.6363636,12.42 Z" id="Shape"></path>
                    <path d="M18.1818182,2.76 L15.2272727,2.76 L15.2272727,0.69 C15.2272727,0.30889 14.9218182,0 14.5454545,0 C14.1688636,0 13.8636364,0.30889 13.8636364,0.69 L13.8636364,2.76 L6.13636364,2.76 L6.13636364,0.69 C6.13636364,0.30889 5.83090909,0 5.45454545,0 C5.07795455,0 4.77272727,0.30889 4.77272727,0.69 L4.77272727,2.76 L1.81818182,2.76 C0.814090909,2.76 0,3.59329 0,4.62139 L0,6.21 L0,6.21 L0,6.44 L20,6.44 L20,6.21 L20,6.21 L20,4.62139 C20,3.59329 19.1859091,2.76 18.1818182,2.76 Z M5.45454545,5.98 C4.70159091,5.98 4.09090909,5.36199 4.09090909,4.6 C4.09090909,4.08963 4.36568182,3.64504 4.77272727,3.4063 L4.77272727,4.6 C4.77272727,4.98111 5.07795455,5.29 5.45454545,5.29 C5.83090909,5.29 6.13636364,4.98111 6.13636364,4.6 L6.13636364,3.40607 C6.54363636,3.64481 6.81818182,4.08963 6.81818182,4.6 C6.81818182,5.36199 6.20772727,5.98 5.45454545,5.98 Z M14.5454545,5.98 C13.7925,5.98 13.1818182,5.36199 13.1818182,4.6 C13.1818182,4.08963 13.4565909,3.64504 13.8636364,3.4063 L13.8636364,4.6 C13.8636364,4.98111 14.1688636,5.29 14.5454545,5.29 C14.9218182,5.29 15.2272727,4.98111 15.2272727,4.6 L15.2272727,3.40607 C15.6345455,3.64481 15.9090909,4.08963 15.9090909,4.6 C15.9090909,5.36199 15.2986364,5.98 14.5454545,5.98 Z" id="Shape"></path>
                </g>
            </g>
        </g>
    </g>
</svg>