<?xml version="1.0" encoding="UTF-8"?>
<svg width="25px" height="25px" viewBox="0 0 25 25" version="1.1" xmlns="http://www.w3.org/2000/svg" xmlns:xlink="http://www.w3.org/1999/xlink">
    <!-- Generator: Sketch 44.1 (41455) - http://www.bohemiancoding.com/sketch -->
    <title>good</title>
    <desc>Created with Sketch.</desc>
    <defs></defs>
    <g id="Iconos" stroke="none" stroke-width="1" fill="none" fill-rule="evenodd">
        <g id="Formulario/Registro" transform="translate(-28.000000, -64.000000)">
            <g id="good" transform="translate(28.000000, 64.000000)">
                <path d="M12.5,24.1120165 C18.9912804,24.1120165 24.2535028,18.7779898 24.2535028,12.1981344 C24.2535028,5.61827907 18.9912804,0.284252401 12.5,0.284252401 C6.00871962,0.284252401 0.746497151,5.61827907 0.746497151,12.1981344 C0.746497151,18.7779898 6.00871962,24.1120165 12.5,24.1120165 Z" id="Oval" fill="#B2DA9F"></path>
                <path d="M12.3925769,14.5881481 C12.2895385,14.5881481 12.1857692,14.5562963 12.0995385,14.4911111 L9.74865385,12.7185185 C9.54623077,12.5659259 9.51334615,12.2874074 9.67557692,12.0962963 C9.83780769,11.9051852 10.1337692,11.8748148 10.3361923,12.0274074 L12.3355769,13.5340741 L15.3302692,10.3096296 C15.5012692,10.1259259 15.7979615,10.1066667 15.9938077,10.2681481 C16.1889231,10.4288889 16.2086538,10.7088889 16.0376538,10.8925926 L12.747,14.4362963 C12.6541923,14.5362963 12.5241154,14.5881481 12.3925769,14.5881481 L12.3925769,14.5881481 Z" id="Shape" fill="#FFFFFF"></path>
            </g>
        </g>
    </g>
</svg>