<?xml version="1.0" encoding="UTF-8"?>
<svg width="145px" height="110px" viewBox="0 0 145 110" version="1.1" xmlns="http://www.w3.org/2000/svg" xmlns:xlink="http://www.w3.org/1999/xlink">
    <!-- Generator: Sketch 44.1 (41455) - http://www.bohemiancoding.com/sketch -->
    <title>icono baja</title>
    <desc>Created with Sketch.</desc>
    <defs></defs>
    <g id="Iconos" stroke="none" stroke-width="1" fill="none" fill-rule="evenodd">
        <g id="baja-mascota" transform="translate(-54.000000, -43.000000)" fill="#595C8B">
            <g id="icono-baja" transform="translate(54.000000, 43.000000)">
                <path d="M116.777291,74.1006495 C115.709772,74.1006495 114.589732,73.9577629 113.422882,73.6708557 C112.809772,73.5200309 112.436425,72.9053918 112.588276,72.2975567 C112.738984,71.6885876 113.358945,71.3211649 113.970913,71.4697216 C116.405087,72.0673505 118.550402,71.9221959 120.340638,71.0319897 C124.923551,68.8909588 125.502409,63.7549794 123.731583,60.0036392 C122.807921,58.1721959 122.368354,57.7163196 121.94363,57.2763196 C121.732409,57.0563196 121.493787,56.8079691 121.226622,56.4382784 L119.937606,54.6453918 L122.155992,54.6453918 C125.490992,54.6453918 127.153354,54.5206495 129.836425,53.8186907 C136.131937,52.1879691 141.474102,46.960134 142.031268,41.899 L142.031268,40.1514742 C141.888551,38.9652887 141.477528,37.8777629 140.77422,36.8287938 C134.699063,27.7044639 114.894575,33.815701 112.655638,34.5426082 C111.943197,34.7059072 111.402016,34.8737423 110.828866,35.0506495 C110.236307,35.2354948 109.623197,35.4248763 108.924457,35.5791031 C108.31363,35.7140515 107.699378,35.3307526 107.56237,34.7183814 C107.426504,34.1071443 107.813551,33.5015773 108.428945,33.3654948 C109.035205,33.2316804 109.575244,33.0638454 110.148394,32.8858041 C110.740953,32.7020928 111.354063,32.5115773 112.052803,32.3573505 C115.875323,31.1110619 135.817961,25.2708557 142.676346,35.574567 C143.596583,36.9455979 144.130913,38.3824021 144.307882,39.9620928 L144.314732,40.0868351 L144.309024,42.0747732 C143.683354,48.1304433 137.710953,54.1226082 130.415283,56.0130206 C128.227724,56.584567 126.620165,56.803433 124.563906,56.8771443 C124.892724,57.3591031 125.286622,58.0236392 125.786701,59.0147732 C128.432094,64.6225052 126.513984,70.6543608 121.33737,73.0732268 C119.960441,73.7570412 118.432803,74.1006495 116.777291,74.1006495" id="Fill-1"></path>
                <g id="Group-5" transform="translate(0.000000, 29.153062)">
                    <path d="M49.4072087,49.5900412 C46.390752,49.5900412 43.8675236,47.1144742 42.6230354,44.9961237 C41.8637835,43.8110722 40.7962638,41.3457113 40.2916181,39.2455052 C39.9308307,39.5959175 39.5689016,39.9111753 38.9934685,40.2105567 C36.8298858,41.7823093 32.6305945,44.3769485 28.2908701,44.5504536 L26.0713425,44.5515876 C24.0972874,44.3769485 21.6756732,43.2463299 20.3364213,41.9149897 L19.8580354,41.3638557 C19.2517756,40.6641649 18.6249646,39.9395258 18.0929173,38.8860206 C16.8484291,35.8071546 17.0014213,32.6024124 18.5085079,29.2751959 L18.5998465,29.1118969 C18.7653976,28.8646804 18.9309488,28.5936495 19.0999252,28.3158144 C19.2826024,28.015299 19.4766969,27.6966392 19.6856339,27.3847835 C17.5745709,27.3099381 15.9418937,27.0922062 13.7509094,26.5195258 C6.9130748,24.6665361 -0.000114173229,18.8512784 -0.000114173229,11.3145773 C-0.000114173229,9.17354639 0.834492126,7.05406186 1.66224803,5.90416495 C7.8641378,-2.40593814 21.8492165,-0.321608247 32.4913031,2.88653608 L36.7385472,4.12715464 C37.3436654,4.30406186 37.6896102,4.93457732 37.5115,5.53560825 C37.3333898,6.13663918 36.6997283,6.48364948 36.0934685,6.30334021 L31.8370906,5.05931959 C23.6908307,2.60303093 9.19197244,-0.376041237 3.50842913,7.23890722 C2.92500394,8.05086598 2.28335039,9.68498969 2.28335039,11.3145773 C2.28335039,17.7138557 8.34937402,22.7046804 14.3423268,24.3285979 C17.0162638,25.0271546 18.7163031,25.1518969 22.158626,25.1518969 L24.9147677,25.1518969 L22.2408307,27.8077732 C21.8320906,28.2137526 21.4347677,28.8635464 21.0522874,29.4906598 C20.8844528,29.7673608 20.7189016,30.0383918 20.5544921,30.2878763 C19.3271299,33.0378763 19.2038228,35.5474639 20.1742953,37.9572577 C20.5396496,38.6739588 21.0260276,39.2341649 21.5889016,39.8828247 L22.0204764,40.3874639 C22.9087441,41.2617938 24.8428386,42.1678763 26.1740984,42.2880825 L28.2452008,42.2835464 C31.9820906,42.1338557 35.7840591,39.7410722 37.7147283,38.3292165 L37.8814213,38.2271546 C38.2958701,38.0218969 38.4819724,37.8381856 38.8895709,37.4322062 L39.0197283,37.3017938 L39.1852795,37.2201443 C39.3576811,37.1350928 39.5038228,37.0126186 39.6899252,36.8583918 C39.929689,36.6622062 40.2265394,36.4149897 40.6352795,36.212 L42.2873661,35.3909691 L42.2873661,37.2269485 C42.2873661,38.7544742 43.5957913,42.2914845 44.5731142,43.8156082 C45.3517756,45.1412784 47.2173661,47.322 49.4072087,47.322 C50.0374449,47.322 50.5489409,47.8289072 50.5489409,48.4560206 C50.5489409,49.083134 50.0374449,49.5900412 49.4072087,49.5900412" id="Fill-3"></path>
                </g>
                <path d="M71.5253031,54.3283196 L71.5253031,54.3283196 C73.9229409,53.7613093 76.7772717,52.8540928 76.5489252,50.0190412 C76.5489252,49.6788351 76.434752,49.4520309 76.3205787,49.2252268 C75.5213661,47.9778041 72.8953819,47.9778041 71.6394764,47.8644021 L71.5253031,47.8644021 C70.2693976,47.9778041 67.6434134,47.9778041 66.8442008,49.2252268 C66.7300276,49.4520309 66.6158543,49.7922371 66.6158543,50.0190412 C66.3875079,52.7406907 69.2418386,53.6479072 71.5253031,54.3283196" id="Fill-6"></path>
                <path d="M115.938689,90.5035773 C116.052862,88.3489381 115.824516,85.9674948 115.367823,83.5860515 C115.367823,83.4726495 115.25365,83.2458454 115.25365,83.1324433 C117.308768,82.3386289 122.104043,79.9571856 124.730028,74.8540928 C124.730028,74.8540928 124.844201,74.7406907 124.958374,74.7406907 C125.072547,74.7406907 125.072547,74.8540928 125.072547,74.8540928 C125.87176,79.8437835 124.844201,86.5345052 115.938689,90.5035773 M112.285146,96.5138866 C110.458374,100.596361 106.233965,103.885021 101.210343,105.019041 C97.3284528,105.926258 93.9032559,104.905639 90.0213661,101.730381 C90.3638858,100.709763 90.5922323,99.5757423 90.5922323,98.4417216 L90.5922323,78.3695567 C90.5922323,77.6891443 90.1355394,77.2355361 89.4505,77.2355361 C88.7654606,77.2355361 88.3087677,77.6891443 88.3087677,78.3695567 L88.3087677,98.5551237 C88.3087677,102.977804 84.6552244,106.60667 80.2024685,106.60667 C75.7497126,106.60667 72.0961693,102.977804 72.0961693,98.5551237 L72.0961693,84.2664639 C74.0371142,84.0396598 75.7497126,83.4726495 77.0056181,82.4520309 C77.462311,82.1118247 77.5764843,81.3180103 77.1197913,80.8644021 C76.7772717,80.4107938 75.9780591,80.2973918 75.5213661,80.751 C74.4938071,81.5448144 72.7812087,82.1118247 70.954437,82.1118247 C69.1276654,82.1118247 67.4150669,81.6582165 66.3875079,80.751 C65.930815,80.4107938 65.1316024,80.4107938 64.7890827,80.8644021 C64.446563,81.3180103 64.446563,82.1118247 64.9032559,82.4520309 C66.1591614,83.4726495 67.8717598,84.0396598 69.8127047,84.2664639 L69.8127047,99.2355361 C69.8127047,103.658216 66.1591614,107.287082 61.7064055,107.287082 C57.2536496,107.287082 53.6001063,103.658216 53.6001063,99.2355361 L53.6001063,67.1427526 C53.6001063,64.5345052 54.970185,62.0396598 57.1394764,60.4520309 C60.9071929,63.4004845 65.7024685,64.9881134 71.7536496,64.9881134 C78.2615236,64.9881134 83.5134921,63.1736804 87.3953819,59.5448144 C90.8205787,60.3386289 109.430815,65.4417216 113.198531,84.0396598 C113.769398,87.3283196 114.226091,92.2046082 112.285146,96.5138866 M51.430815,29.7200722 C51.5449882,29.1530619 51.2024685,28.4726495 50.5174291,28.3592474 C49.946563,28.2458454 49.2615236,28.5860515 49.1473504,29.2664639 C49.0331772,29.7200722 47.434752,38.1118247 49.1473504,46.6169794 C46.7497126,46.3901753 42.0686102,45.0293505 41.3835709,38.7922371 C40.3560118,30.0602784 44.1237283,22.5757423 51.7733346,17.8128557 C59.1945945,13.2767732 71.1827835,14.5241959 71.2969567,14.5241959 L71.5253031,14.5241959 L71.6394764,14.5241959 C71.8678228,14.6375979 83.8560118,13.2767732 91.2772717,17.8128557 C98.926878,22.5757423 102.694594,29.9468763 101.667035,38.7922371 C100.981996,44.9159485 96.3008937,46.2767732 93.9032559,46.6169794 C95.6158543,38.1118247 94.0174291,29.8334742 93.9032559,29.2664639 C93.7890827,28.6994536 93.2182165,28.2458454 92.5331772,28.3592474 C91.962311,28.4726495 91.5056181,29.0396598 91.6197913,29.7200722 C91.6197913,29.9468763 94.930815,46.9571856 87.0528622,56.4829588 C83.5134921,60.6788351 78.3756969,62.8334742 71.4111299,62.8334742 C64.5607362,62.8334742 59.4229409,60.6788351 55.8835709,56.4829588 C48.1197913,46.9571856 51.430815,29.8334742 51.430815,29.7200722 M127.356012,74.5138866 C127.241839,73.493268 126.328453,72.6994536 125.300894,72.4726495 C124.273335,72.3592474 123.131602,72.8128557 122.674909,73.8334742 C120.619791,78.0293505 116.623728,80.0705876 114.682783,80.8644021 C109.887508,64.7613093 94.474122,59.0912062 88.9938071,57.6169794 C91.0489252,55.008732 92.4190039,51.9468763 93.3323898,48.8850206 C95.958374,48.6582165 103.037114,47.4107938 103.9505,39.0190412 C104.978059,29.493268 100.867823,21.1015155 92.5331772,15.8850206 C84.5410512,11.008732 72.438689,12.2561546 71.5253031,12.3695567 C70.2693976,12.2561546 58.3953819,11.122134 50.6316024,15.9984227 C42.2969567,21.2149175 38.0725472,29.6066701 39.2142795,39.1324433 C40.1276654,47.5241959 47.2064055,48.7716186 49.8323898,48.9984227 C50.7457756,52.1736804 52.1158543,55.3489381 54.2851457,57.9571856 C54.6276654,58.2973918 54.970185,58.6375979 55.3127047,58.9778041 C52.8008937,60.9056392 51.2024685,63.9674948 51.2024685,67.1427526 L51.2024685,99.3489381 C51.2024685,105.019041 55.8835709,109.668526 61.5922323,109.668526 C65.8166417,109.668526 69.470185,107.17368 71.0686102,103.658216 C72.8953819,106.833474 76.2064055,108.988113 80.2024685,108.988113 C83.970185,108.988113 87.2812087,106.946876 89.1079803,103.998423 C92.3048307,106.493268 95.3875079,107.740691 98.5843583,107.740691 C99.6119173,107.740691 100.639476,107.627289 101.781209,107.400485 C107.48987,106.03966 112.285146,102.297392 114.454437,97.5345052 C115.025303,96.1736804 115.481996,94.6994536 115.710343,93.2252268 C127.584358,88.3489381 128.155224,79.5035773 127.356012,74.5138866" id="Fill-8"></path>
                <path d="M81.5725472,41.8540928 C83.2851457,41.8540928 84.6552244,40.1530619 84.6552244,38.1118247 L84.6552244,37.7716186 C84.5410512,37.7716186 84.426878,37.8850206 84.1985315,37.8850206 C83.3993189,37.8850206 82.7142795,37.2046082 82.7142795,36.4107938 C82.7142795,35.8437835 83.0567992,35.3901753 83.5134921,35.1633711 C82.942626,34.7097629 82.3717598,34.3695567 81.6867205,34.3695567 C79.974122,34.3695567 78.6040433,36.0705876 78.6040433,38.1118247 C78.4898701,40.1530619 79.8599488,41.8540928 81.5725472,41.8540928" id="Fill-10"></path>
                <path d="M61.5922323,41.8540928 C63.3048307,41.8540928 64.6749094,40.1530619 64.6749094,38.1118247 L64.6749094,37.7716186 C64.5607362,37.7716186 64.446563,37.8850206 64.2182165,37.8850206 C63.4190039,37.8850206 62.7339646,37.2046082 62.7339646,36.4107938 C62.7339646,35.8437835 63.0764843,35.3901753 63.5331772,35.1633711 C62.962311,34.7097629 62.3914449,34.3695567 61.7064055,34.3695567 C59.9938071,34.3695567 58.6237283,36.0705876 58.6237283,38.1118247 C58.5095551,40.1530619 59.8796339,41.8540928 61.5922323,41.8540928" id="Fill-12"></path>
                <path d="M80.7733346,49.565433 C81.215185,49.565433 81.5725472,49.9203814 81.5725472,50.3592474 C81.5725472,50.7981134 81.215185,51.1530619 80.7733346,51.1530619 C80.3314843,51.1530619 79.974122,50.7981134 79.974122,50.3592474 C79.974122,49.9203814 80.3314843,49.565433 80.7733346,49.565433" id="Fill-14"></path>
                <path d="M82.6001063,52.4004845 C83.0419567,52.4004845 83.3993189,52.755433 83.3993189,53.194299 C83.3993189,53.6331649 83.0419567,53.9881134 82.6001063,53.9881134 C82.1582559,53.9881134 81.8008937,53.6331649 81.8008937,53.194299 C81.8008937,52.755433 82.1582559,52.4004845 82.6001063,52.4004845" id="Fill-16"></path>
                <path d="M84.8835709,48.7716186 C85.3254213,48.7716186 85.6827835,49.126567 85.6827835,49.565433 C85.6827835,50.004299 85.3254213,50.3592474 84.8835709,50.3592474 C84.4417205,50.3592474 84.0843583,50.004299 84.0843583,49.565433 C84.0843583,49.126567 84.4417205,48.7716186 84.8835709,48.7716186" id="Fill-18"></path>
                <path d="M61.934752,49.565433 C62.3766024,49.565433 62.7339646,49.9203814 62.7339646,50.3592474 C62.7339646,50.7981134 62.3766024,51.1530619 61.934752,51.1530619 C61.4929016,51.1530619 61.1355394,50.7981134 61.1355394,50.3592474 C61.1355394,49.9203814 61.4929016,49.565433 61.934752,49.565433" id="Fill-20"></path>
                <path d="M59.9938071,52.4004845 C60.4356575,52.4004845 60.7930197,52.755433 60.7930197,53.194299 C60.7930197,53.6331649 60.4356575,53.9881134 59.9938071,53.9881134 C59.5519567,53.9881134 59.1945945,53.6331649 59.1945945,53.194299 C59.1945945,52.755433 59.5519567,52.4004845 59.9938071,52.4004845" id="Fill-22"></path>
                <path d="M57.7103425,48.7716186 C58.1521929,48.7716186 58.5095551,49.126567 58.5095551,49.565433 C58.5095551,50.004299 58.1521929,50.3592474 57.7103425,50.3592474 C57.2684921,50.3592474 56.9111299,50.004299 56.9111299,49.565433 C56.9111299,49.126567 57.2684921,48.7716186 57.7103425,48.7716186" id="Fill-24"></path>
                <path d="M81.5725472,31.194299 C84.3127047,31.194299 86.5961693,34.3695567 86.5961693,38.2252268 C86.5961693,42.0808969 84.3127047,45.2561546 81.5725472,45.2561546 C78.8323898,45.2561546 76.5489252,42.0808969 76.5489252,38.2252268 C76.5489252,34.3695567 78.8323898,31.194299 81.5725472,31.194299 M81.5725472,47.4107938 C85.5686102,47.4107938 88.8796339,43.2149175 88.8796339,38.1118247 C88.8796339,33.008732 85.5686102,28.8128557 81.5725472,28.8128557 C77.5764843,28.8128557 74.2654606,33.008732 74.2654606,38.1118247 C74.2654606,43.2149175 77.5764843,47.4107938 81.5725472,47.4107938" id="Fill-26"></path>
                <path d="M71.5823898,1.74503093 C79.7412087,1.74503093 84.0957756,2.86317526 84.4714055,3.31564948 C84.0957756,3.76812371 79.7412087,4.88626804 71.5823898,4.88626804 C63.4235709,4.88626804 59.0701457,3.76812371 58.6922323,3.31564948 C59.0701457,2.86317526 63.4235709,1.74503093 71.5823898,1.74503093 M71.5823898,6.63152577 C79.3541614,6.63152577 87.7184921,5.59389691 87.7184921,3.31564948 C87.7184921,1.03740206 79.3541614,-0.000226804124 71.5823898,-0.000226804124 C63.8106181,-0.000226804124 55.4462874,1.03740206 55.4462874,3.31564948 C55.4462874,5.59389691 63.8106181,6.63152577 71.5823898,6.63152577" id="Fill-28"></path>
            </g>
        </g>
    </g>
</svg>