<?xml version="1.0" encoding="UTF-8"?>
<svg width="39px" height="50px" viewBox="0 0 39 50" version="1.1" xmlns="http://www.w3.org/2000/svg" xmlns:xlink="http://www.w3.org/1999/xlink">
    <!-- Generator: Sketch 44.1 (41455) - http://www.bohemiancoding.com/sketch -->
    <title>lost dog2</title>
    <desc>Created with Sketch.</desc>
    <defs>
        <polygon id="path-1" points="38.9911935 49.583125 38.9911935 0.0695833333 0 0.0695833333 0 49.583125 38.9911935 49.583125"></polygon>
    </defs>
    <g id="Iconos" stroke="none" stroke-width="1" fill="none" fill-rule="evenodd">
        <g id="Iconos-inicio-2" transform="translate(-685.000000, -36.000000)">
            <g id="lost-dog2" transform="translate(685.000000, 36.000000)">
                <g id="Group-3" transform="translate(0.000000, 0.347083)">
                    <mask id="mask-2" fill="white">
                        <use xlink:href="#path-1"></use>
                    </mask>
                    <g id="Clip-2"></g>
                    <path d="M30.0010226,31.2497917 C30.0010226,32.5210417 29.5967645,33.725625 28.9237,34.863125 L28.9237,27.6364583 C29.5967645,28.7739583 30.0010226,29.9785417 30.0010226,31.2497917 L30.0010226,31.2497917 Z M29.4621516,44.498125 C30.0685387,44.631875 30.4052806,45.2339583 30.2031516,45.8364583 C30.0685387,46.3047917 29.6642806,46.639375 29.1254097,46.639375 C29.0583129,46.639375 28.9237,46.639375 28.8561839,46.5722917 L23.8729903,45.1672917 L23.8729903,28.439375 L23.8054742,28.439375 C23.7383774,27.7035417 23.1319903,27.168125 22.3914097,27.168125 C21.6504097,27.168125 21.0444419,27.7035417 20.9773452,28.439375 L20.909829,28.439375 L20.909829,39.2789583 C20.4384742,39.3460417 19.9671194,39.3460417 19.4282484,39.3460417 C18.9568935,39.3460417 18.4855387,39.3460417 18.0141839,39.2789583 L18.0141839,28.439375 L17.9466677,28.439375 C17.879571,27.7035417 17.2731839,27.168125 16.5326032,27.168125 C15.7916032,27.168125 15.1856355,27.7035417 15.1185387,28.439375 L15.1185387,45.1002083 L10.1349258,46.505625 C10.067829,46.505625 9.93279677,46.5722917 9.8657,46.5722917 C9.39434516,46.5722917 8.9900871,46.2377083 8.78837742,45.769375 C8.65334516,45.1672917 8.9900871,44.631875 9.52895806,44.4310417 L12.9634742,43.4277083 L12.9634742,24.224375 C14.9164097,25.3614583 17.138571,25.9639583 19.4957645,25.9639583 C21.8525387,25.9639583 24.0747,25.2947917 26.0276355,24.224375 L26.0276355,43.494375 L29.4621516,44.498125 Z M8.9900871,31.2497917 C8.9900871,29.9785417 9.39434516,28.7739583 10.067829,27.6364583 L10.067829,34.863125 C9.32682903,33.725625 8.9900871,32.5210417 8.9900871,31.2497917 L8.9900871,31.2497917 Z M2.92957097,15.9939583 C2.86205484,15.9272917 2.86205484,15.8602083 2.86205484,15.7264583 C2.99666774,14.990625 4.47824839,13.250625 6.56579677,11.1764583 C6.4987,11.7789583 6.43118387,12.3810417 6.43118387,12.983125 C6.43118387,14.388125 6.6333129,15.7264583 7.03715161,16.9310417 C5.42095806,16.9310417 3.46802258,16.5964583 2.92957097,15.9939583 L2.92957097,15.9939583 Z M24.9503129,4.55229167 C25.5562806,5.020625 26.2297645,5.55604167 26.8357323,6.09145833 C28.5869581,7.898125 29.6642806,10.3735417 29.6642806,13.0502083 C29.6642806,18.6035417 25.0849258,23.1535417 19.4957645,23.1535417 C13.9061839,23.1535417 9.32682903,18.6035417 9.32682903,13.0502083 C9.32682903,10.574375 10.2024419,8.36645833 11.6840226,6.626875 C12.6942484,5.82354167 13.6369581,4.95395833 14.6467645,4.21770833 C16.0612484,3.41479167 17.7445387,3.01354167 19.4957645,3.01354167 C21.4487,2.94645833 23.3341194,3.54895833 24.9503129,4.55229167 L24.9503129,4.55229167 Z M36.0619581,15.7264583 C36.0619581,15.8602083 36.0619581,15.9272917 35.9944419,15.9939583 C35.455571,16.5964583 33.5026355,16.9310417 31.8864419,16.9977083 C32.2907,15.7264583 32.492829,14.388125 32.492829,13.0502083 C32.492829,12.3810417 32.4253129,11.7789583 32.3577968,11.1097917 C34.4457645,13.1839583 35.9944419,14.990625 36.0619581,15.7264583 L36.0619581,15.7264583 Z M30.5398935,19.8747917 L30.6745065,19.8747917 L31.3479903,19.8747917 C32.9641839,19.8747917 36.6004097,19.674375 38.1495065,17.934375 C38.8229903,17.1985417 39.0922161,16.3285417 38.9576032,15.3252083 C38.5533452,12.5147917 32.5599258,7.09520833 28.7886677,3.95020833 C28.1156032,3.28104167 27.4421194,2.67895833 26.6340226,2.210625 C26.6340226,2.210625 26.5665065,2.210625 26.5665065,2.14354167 C24.5464742,0.805625 22.1217645,0.069375 19.4957645,0.069375 C17.138571,0.069375 14.9164097,0.738541667 12.9634742,1.80895833 C11.7511194,2.54520833 10.6737968,3.41479167 9.7310871,4.41854167 C5.82521613,7.76395833 0.370248387,12.715625 0.0335064516,15.3252083 C-0.101106452,16.3285417 0.16853871,17.1985417 0.841603226,17.934375 C2.45779677,19.674375 6.02734516,19.8747917 7.64353871,19.8747917 L8.31660323,19.8747917 L8.45163548,19.8747917 C8.92299032,20.6110417 9.46144194,21.346875 10.067829,22.0160417 L10.067829,23.488125 C7.50850645,25.5622917 6.09444194,28.3727083 6.09444194,31.316875 C6.09444194,34.260625 7.57602258,37.0710417 10.067829,39.1452083 L10.067829,41.4202083 L8.72086129,41.821875 C6.6333129,42.4239583 5.35386129,44.631875 5.95982903,46.7060417 C6.43118387,48.3789583 8.04737742,49.583125 9.79818387,49.583125 C10.1349258,49.583125 10.5391839,49.5164583 10.8759258,49.449375 L15.8591194,48.044375 C17.0714742,47.7097917 17.9466677,46.5722917 17.9466677,45.3010417 L17.9466677,42.223125 C18.4180226,42.2902083 18.8893774,42.2902083 19.3607323,42.2902083 C19.8325065,42.2902083 20.3709581,42.2902083 20.8423129,42.223125 L20.8423129,45.1672917 C20.8423129,46.4385417 21.7179258,47.5760417 22.9302806,47.910625 L27.9134742,49.315625 C28.2502161,49.449375 28.6540548,49.449375 28.9907968,49.449375 C30.7416032,49.449375 32.3577968,48.2452083 32.829571,46.5722917 C33.4355387,44.498125 32.2231839,42.2902083 30.0685387,41.6877083 L28.721571,41.2864583 L28.721571,39.0114583 C31.2804742,36.9372917 32.6945387,34.126875 32.6945387,31.1827083 C32.6945387,28.2389583 31.2133774,25.4285417 28.721571,23.354375 L28.721571,21.8822917 C29.5296677,21.2802083 30.0685387,20.6110417 30.5398935,19.8747917 L30.5398935,19.8747917 Z" id="Fill-1" fill="#595C8B" mask="url(#mask-2)"></path>
                </g>
                <path d="M19.4955968,9.048 C21.0950161,9.048 22.3912419,10.00675 22.3912419,11.18925 C22.3912419,12.37175 21.0950161,13.3300833 19.4955968,13.3300833 C17.8961774,13.3300833 16.5999516,12.37175 16.5999516,11.18925 C16.5999516,10.00675 17.8961774,9.048 19.4955968,9.048" id="Fill-4" fill="#595C8B"></path>
                <path d="M24.0748677,17.010375 L20.2365129,15.739125 L20.2365129,14.8024583 C20.2365129,14.4007917 19.899771,14.0662083 19.4955129,14.0662083 C19.0916742,14.0662083 18.7549323,14.4007917 18.7549323,14.8024583 L18.7549323,15.739125 L14.9161581,17.010375 C14.5123194,17.144125 14.3101903,17.5457917 14.4448032,17.9470417 C14.5794161,18.281625 14.8490613,18.415375 15.1182871,18.415375 C15.1858032,18.415375 15.2529,18.415375 15.3204161,18.3487083 L19.4284161,17.010375 L23.5359968,18.3487083 C23.6035129,18.3487083 23.6706097,18.415375 23.7381258,18.415375 C24.0748677,18.415375 24.3440935,18.2149583 24.4116097,17.9470417 C24.6137387,17.5457917 24.4116097,17.144125 24.0748677,17.010375" id="Fill-6" fill="#595C8B"></path>
                <path d="M23.8055161,6.17083333 C24.6236774,6.17083333 25.2870968,6.83 25.2870968,7.64291667 C25.2870968,8.45583333 24.6236774,9.115 23.8055161,9.115 C22.9873548,9.115 22.3239355,8.45583333 22.3239355,7.64291667 C22.3239355,6.83 22.9873548,6.17083333 23.8055161,6.17083333" id="Fill-8" fill="#595C8B"></path>
                <path d="M15.118371,6.17083333 C15.9365323,6.17083333 16.5999516,6.83 16.5999516,7.64291667 C16.5999516,8.45583333 15.9365323,9.115 15.118371,9.115 C14.3002097,9.115 13.6367903,8.45583333 13.6367903,7.64291667 C13.6367903,6.83 14.3002097,6.17083333 15.118371,6.17083333" id="Fill-10" fill="#595C8B"></path>
            </g>
        </g>
    </g>
</svg>