<?xml version="1.0" encoding="UTF-8"?>
<svg width="34px" height="57px" viewBox="0 0 34 57" version="1.1" xmlns="http://www.w3.org/2000/svg" xmlns:xlink="http://www.w3.org/1999/xlink">
    <!-- Generator: Sketch 44.1 (41455) - http://www.bohemiancoding.com/sketch -->
    <title>Lost Human</title>
    <desc>Created with Sketch.</desc>
    <defs></defs>
    <g id="Iconos" stroke="none" stroke-width="1" fill="none" fill-rule="evenodd">
        <g id="Iconos-inicio" transform="translate(-174.000000, -42.000000)" fill="#FFFFFF">
            <g id="Lost-Human" transform="translate(174.000000, 42.000000)">
                <g id="Group">
                    <g transform="translate(0.000000, 15.434375)" id="Shape">
                        <path d="M17.3470345,8.91849219 C19.7276207,8.91849219 21.658,7.01016094 21.658,4.65605 C21.658,2.30251875 19.7276207,0.3941875 17.3470345,0.3941875 C14.9676207,0.3941875 13.0372414,2.30251875 13.0372414,4.65605 C13.0378276,7.00958125 14.9682069,8.91849219 17.3470345,8.91849219 Z"></path>
                        <path d="M33.1271379,11.9948937 C32.3474828,11.2465172 31.0982759,11.2621687 30.3379655,12.0366312 L27.4514828,14.9779656 L22.284069,11.37115 C21.9505172,11.1386953 21.553069,11.0140625 21.1456552,11.0140625 L13.515,11.0140625 C13.1837931,11.0140625 12.8578621,11.0969578 12.5676897,11.2540531 L6.65931034,14.4556672 L3.67082759,11.3792656 C2.91696552,10.6036437 1.66834483,10.5781375 0.882241379,11.3236156 C0.0967241379,12.0708328 0.0715172414,13.3049875 0.826551724,14.0817687 L4.86141379,18.2352297 C5.47927586,18.8699875 6.44651724,19.0195469 7.22734483,18.5934766 L12.3103448,15.8370625 L12.3103448,39.4662844 C12.3103448,40.5427641 12.9797931,41.4163531 14.0689655,41.4163531 C15.1581379,41.4163531 15.8275862,40.5427641 15.8275862,39.4662844 L15.8275862,24.9265625 L18.1724138,24.9265625 L18.1724138,39.4662844 C18.1724138,40.5427641 18.8412759,41.4163531 19.9304483,41.4163531 C21.0196207,41.4163531 21.6896552,40.5427641 21.6896552,39.4662844 L21.6896552,15.7066328 L26.5727586,19.1273687 C26.9162759,19.3662 27.3055172,19.4832969 27.7017931,19.4832969 C28.2194138,19.4832969 28.7288276,19.2815656 29.1122069,18.8914359 L33.1722759,14.7530469 C33.9302414,13.9803234 33.9097241,12.7455891 33.1271379,11.9948937 Z"></path>
                    </g>
                    <path d="M12.6057971,3.98177846 C12.6057971,3.447296 12.7661959,2.91281354 13.1404597,2.37833107 C13.4612573,1.84384861 13.9959199,1.36281439 14.637515,1.04212492 C15.2791101,0.667987192 16.0276378,0.507642454 16.9365642,0.507642454 C17.7385581,0.507642454 18.4336195,0.667987192 19.0752146,0.935228424 C19.7168097,1.2559179 20.1445398,1.63005563 20.5188037,2.16453809 C20.8396012,2.69902055 21,3.23350301 21,3.82143372 C21,4.30246794 20.8930675,4.73005391 20.7326687,5.05074339 C20.5188037,5.42488111 20.3049386,5.69212234 20.0376073,5.95936357 C19.770276,6.2266048 19.2890797,6.65419077 18.5940183,7.24212148 C18.3801532,7.40246622 18.2732207,7.56281096 18.1662882,7.66970745 C18.0593557,7.77660395 17.9524232,7.93694868 17.8989569,8.04384518 C17.8454906,8.15074167 17.7920244,8.25763816 17.7920244,8.36453465 C17.7385581,8.47143115 17.7385581,8.68522413 17.6316256,8.95246536 C17.5246931,9.54039607 17.2038955,9.8076373 16.6157666,9.8076373 C16.3484353,9.8076373 16.081104,9.70074081 15.867239,9.54039607 C15.6533739,9.32660309 15.5464414,9.05936186 15.5464414,8.68522413 C15.5464414,8.20418992 15.5999077,7.83005219 15.7603065,7.45591447 C15.9207053,7.13522499 16.081104,6.81453551 16.3484353,6.54729428 C16.5623004,6.28005305 16.8830979,5.95936357 17.310828,5.63867409 C17.6850918,5.31798462 17.8989569,5.10419163 18.0593557,4.94384689 C18.2197545,4.78350215 18.326687,4.62315742 18.4336195,4.40936443 C18.540552,4.19557145 18.5940183,3.98177846 18.5940183,3.76798548 C18.5940183,3.34039951 18.4336195,2.96626178 18.1128219,2.6455723 C17.7920244,2.32488283 17.3642943,2.16453809 16.8296317,2.16453809 C16.2415028,2.16453809 15.7603065,2.32488283 15.4929752,2.6455723 C15.2256439,2.96626178 14.9583126,3.39384775 14.7444475,3.98177846 C14.5305825,4.62315742 14.2097849,4.94384689 13.6751223,4.94384689 C13.3543247,4.94384689 13.0869934,4.8369504 12.8731284,4.62315742 C12.7127296,4.46281268 12.6057971,4.24901969 12.6057971,3.98177846 Z M16.6692329,13.1214286 C16.3484353,13.1214286 16.0276378,13.0145321 15.7603065,12.8007391 C15.4929752,12.5869461 15.3860426,12.2662566 15.3860426,11.8921189 C15.3860426,11.5179812 15.4929752,11.25074 15.7603065,10.9834987 C16.0276378,10.7697057 16.2949691,10.609361 16.6692329,10.609361 C17.0434967,10.609361 17.310828,10.7162575 17.5781593,10.9834987 C17.7920244,11.1972917 17.9524232,11.5179812 17.9524232,11.8921189 C17.9524232,12.2662566 17.8454906,12.5869461 17.5781593,12.8007391 C17.310828,13.0145321 16.9900305,13.1214286 16.6692329,13.1214286 Z" id="Shape"></path>
                </g>
            </g>
        </g>
    </g>
</svg>