<?xml version="1.0" encoding="UTF-8"?>
<svg width="53px" height="43px" viewBox="0 0 53 43" version="1.1" xmlns="http://www.w3.org/2000/svg" xmlns:xlink="http://www.w3.org/1999/xlink">
    <!-- Generator: Sketch 44.1 (41455) - http://www.bohemiancoding.com/sketch -->
    <title>lost_dog</title>
    <desc>Created with Sketch.</desc>
    <defs></defs>
    <g id="Iconos" stroke="none" stroke-width="1" fill="none" fill-rule="evenodd">
        <g id="Iconos-inicio" transform="translate(-279.000000, -49.000000)" fill="#FFFFFF">
            <g id="lost_dog" transform="translate(279.000000, 49.000000)">
                <g id="Capa_1">
                    <path d="M28.6507246,12.5160714 C28.2666667,12.9 27.9594203,13.1303571 27.8057971,13.2071429 C17.6666667,19.1196429 12.673913,26.4142857 12.1362319,36.0892857 C9.14057971,35.8589286 7.29710145,34.4767857 5.3,32.4803571 C4.07101449,31.2517857 2.15072464,31.2517857 0.998550725,32.4803571 C-0.230434783,33.7089286 -0.230434783,35.6285714 0.998550725,36.7803571 C4.60869565,40.3892857 8.75652174,42.2321429 13.2884058,42.2321429 L29.9565217,42.2321429 C30.2637681,42.2321429 30.5710145,42.0785714 30.8014493,41.925 C31.5695652,41.1571429 31.8,39.8517857 31.3391304,38.7767857 C30.8014493,37.5482143 29.726087,36.8571429 28.2666667,36.8571429 L27.1144928,36.8571429 C27.6521739,36.0125 28.2666667,34.9375 28.573913,33.7857143 C28.8811594,32.9410714 29.5724638,32.3267857 30.2637681,31.8660714 C30.8014493,36.0892857 31.8768116,41.0803571 31.9536232,41.3875 C32.0304348,41.925 32.5681159,42.3089286 33.1057971,42.3089286 L36.7927536,42.3089286 C37.8681159,42.3089286 38.7130435,41.7714286 39.0202899,40.85 C39.4043478,39.775 39.0971014,38.3928571 38.1753623,37.5482143 C37.8681159,37.3178571 37.484058,37.0107143 37.1768116,36.8571429 C37.0231884,33.7857143 37.0231884,29.1017857 37.7144928,27.7196429 L37.9449275,27.2589286 C39.173913,24.9553571 40.2492754,22.7285714 41.6318841,17.2 C42.4,17.2767857 43.0913043,17.4303571 43.7057971,17.7375 L44.0898551,17.8910714 C45.4724638,18.5821429 46.8550725,19.35 48.3913043,19.1196429 C49.9275362,18.8892857 52.2318841,16.9696429 52.615942,15.2035714 C52.9231884,13.975 51.6942029,12.9767857 50.3115942,11.9017857 C49.773913,11.4410714 48.9289855,10.8267857 48.7753623,10.5196429 C48.6217391,10.2892857 48.4681159,9.82857143 48.3144928,9.36785714 C48.0072464,8.67678571 47.7,7.90892857 47.3927536,7.44821429 C46.5478261,6.21964286 45.0884058,5.06785714 43.4753623,4.3 C41.7855072,2.30357143 39.0202899,1.6125 36.715942,2.6875 C34.642029,3.68571429 31.9536232,6.06607143 32.4913043,8.98392857 C32.4144928,9.06071429 32.2608696,9.21428571 32.184058,9.29107143 C31.8,9.675 31.415942,10.0589286 31.0318841,10.4428571 L28.6507246,12.5160714 Z M35.7173913,26.1839286 L35.4869565,26.6446429 C34.1811594,29.1785714 34.7188406,36.7035714 34.7956522,37.5482143 C34.7956522,37.9321429 35.1028986,38.3160714 35.4101449,38.4696429 C35.7173913,38.6232143 36.2550725,38.9303571 36.4855072,39.1607143 C36.7927536,39.3910714 36.7927536,39.8517857 36.7927536,39.9285714 C36.7927536,39.9285714 36.7927536,39.9285714 36.6391304,39.9285714 L33.873913,39.9285714 C33.3362319,37.4714286 32.0304348,30.5607143 32.184058,27.7196429 C32.184058,27.0285714 32.6449275,25.1857143 32.9521739,24.1875 C33.1057971,23.5732143 32.7985507,22.9589286 32.184058,22.7285714 C31.5695652,22.575 30.9550725,22.8821429 30.7246377,23.4964286 C30.6478261,23.8035714 29.9565217,26.3375 29.8797101,27.5660714 L29.8797101,29.1785714 C29.4956522,29.4089286 29.0347826,29.6392857 28.4971014,30.0232143 C28.1130435,28.7178571 27.3449275,27.5660714 26.3463768,26.7982143 C24.6565217,25.4928571 22.4289855,25.3392857 20.0478261,26.2607143 C19.4333333,26.4910714 19.126087,27.1821429 19.4333333,27.7196429 C19.6637681,28.3339286 20.3550725,28.5642857 20.8927536,28.3339286 C22.5057971,27.7196429 23.8884058,27.7964286 24.8869565,28.5642857 C26.0391304,29.4857143 26.4231884,30.9446429 26.3463768,32.0196429 C26.115942,34.4 23.7347826,36.9339286 23.657971,37.0107143 C23.3507246,37.3178571 23.273913,37.8553571 23.4275362,38.2392857 C23.5811594,38.7 24.042029,38.9303571 24.5028986,38.9303571 L27.9594203,38.9303571 C28.4202899,38.9303571 28.7275362,39.0839286 28.8811594,39.4678571 C28.957971,39.6214286 28.957971,39.6982143 28.957971,39.775 L12.9811594,39.775 C9.06376812,39.775 5.45362319,38.1625 2.30434783,35.0142857 C1.99710145,34.7071429 1.99710145,34.2464286 2.30434783,33.9392857 C2.6115942,33.6321429 3.07246377,33.6321429 3.37971014,33.9392857 C5.99130435,36.55 8.60289855,38.2392857 12.9811594,38.2392857 C13.5956522,38.2392857 14.1333333,37.7017857 14.1333333,37.0875 C14.3637681,27.5660714 18.8188406,20.7321429 28.7275362,14.9732143 C29.1115942,14.7428571 29.726087,14.2053571 30.4942029,13.5142857 C31.8768116,16.8160714 35.4101449,19.2732143 38.0217391,20.0410714 C37.3304348,22.9589286 36.5623188,24.4946429 35.7173913,26.1839286 Z M47.7768116,16.8160714 C47.0086957,16.9696429 46.0101449,16.4321429 44.9347826,15.8178571 L44.5507246,15.6642857 C43.5521739,15.1267857 42.5536232,14.9732143 41.6318841,14.8964286 C40.2492754,14.6660714 39.4811594,14.5125 38.7898551,13.5142857 C38.4826087,12.9767857 37.7144928,12.8232143 37.1768116,13.1303571 C36.6391304,13.4375 36.4855072,14.2053571 36.7927536,14.7428571 C37.484058,15.8178571 38.2521739,16.3553571 39.0971014,16.6625 C38.9434783,17.1232143 38.8666667,17.6607143 38.7130435,18.0446429 C36.6391304,17.4303571 33.0289855,14.9732143 32.3376812,11.9785714 C32.5681159,11.7482143 32.8753623,11.4410714 33.1826087,11.1339286 C33.7202899,11.6714286 34.3347826,12.0553571 35.1028986,12.2857143 C35.5637681,12.4392857 36.1014493,12.5160714 36.5623188,12.5160714 C37.4072464,12.5160714 38.0985507,12.2857143 38.7898551,11.9017857 C40.0188406,11.0571429 41.2478261,9.06071429 41.4014493,8.83035714 C41.7086957,8.29285714 41.5550725,7.60178571 41.0173913,7.21785714 C40.4797101,6.91071429 39.7884058,7.06428571 39.4811594,7.60178571 C39.173913,8.21607143 38.2521739,9.52142857 37.6376812,9.90535714 C37.2536232,10.2125 36.5623188,10.2125 35.9478261,10.0589286 C35.3333333,9.82857143 34.7956522,9.44464286 34.642029,9.06071429 C33.7971014,6.91071429 36.4855072,5.14464286 37.484058,4.68392857 C38.7898551,4.06964286 40.2492754,4.37678571 41.2478261,5.29821429 C41.3246377,5.375 41.3246377,5.375 41.4014493,5.45178571 C41.8623188,5.98928571 42.2463768,6.21964286 42.2463768,6.21964286 C43.5521739,6.75714286 44.7043478,7.67857143 45.3188406,8.67678571 C45.5492754,8.98392857 45.7797101,9.675 46.0101449,10.2125 C46.2405797,10.75 46.3942029,11.2107143 46.6246377,11.5946429 C47.0086957,12.2857143 47.8536232,12.9767857 48.6985507,13.6678571 C49.1594203,14.0517857 49.8507246,14.5892857 50.157971,14.8964286 C49.6971014,15.6642857 48.3913043,16.6625 47.7768116,16.8160714 Z M43.6289855,9.06071429 C43.0144928,9.06071429 42.4768116,9.59821429 42.4768116,10.2125 C42.4768116,10.8267857 43.0144928,11.3642857 43.6289855,11.3642857 C44.2434783,11.3642857 44.7811594,10.8267857 44.7811594,10.2125 C44.7811594,9.59821429 44.3202899,9.06071429 43.6289855,9.06071429 Z" id="Shape"></path>
                    <path d="M6.6057971,4.99107143 C6.6057971,4.22321429 6.83623188,3.45535714 7.37391304,2.6875 C7.83478261,1.91964286 8.60289855,1.22857143 9.52463768,0.767857143 C10.4463768,0.230357143 11.5217391,0 12.8275362,0 C13.9797101,0 14.9782609,0.230357143 15.9,0.614285714 C16.8217391,1.075 17.4362319,1.6125 17.973913,2.38035714 C18.4347826,3.14821429 18.6652174,3.91607143 18.6652174,4.76071429 C18.6652174,5.45178571 18.5115942,6.06607143 18.2811594,6.52678571 C17.973913,7.06428571 17.6666667,7.44821429 17.2826087,7.83214286 C16.8985507,8.21607143 16.2072464,8.83035714 15.2086957,9.675 C14.9014493,9.90535714 14.7478261,10.1357143 14.5942029,10.2892857 C14.4405797,10.4428571 14.2869565,10.6732143 14.2101449,10.8267857 C14.1333333,10.9803571 14.0565217,11.1339286 14.0565217,11.2875 C13.9797101,11.4410714 13.9797101,11.7482143 13.826087,12.1321429 C13.6724638,12.9767857 13.2115942,13.3607143 12.3666667,13.3607143 C11.9826087,13.3607143 11.5985507,13.2071429 11.2913043,12.9767857 C10.984058,12.6696429 10.8304348,12.2857143 10.8304348,11.7482143 C10.8304348,11.0571429 10.9072464,10.5196429 11.1376812,9.98214286 C11.3681159,9.52142857 11.5985507,9.06071429 11.9826087,8.67678571 C12.2898551,8.29285714 12.7507246,7.83214286 13.3652174,7.37142857 C13.9028986,6.91071429 14.2101449,6.60357143 14.4405797,6.37321429 C14.6710145,6.14285714 14.8246377,5.9125 14.9782609,5.60535714 C15.1318841,5.29821429 15.2086957,4.99107143 15.2086957,4.68392857 C15.2086957,4.06964286 14.9782609,3.53214286 14.5173913,3.07142857 C14.0565217,2.61071429 13.442029,2.38035714 12.673913,2.38035714 C11.8289855,2.38035714 11.1376812,2.61071429 10.7536232,3.07142857 C10.3695652,3.53214286 9.98550725,4.14642857 9.67826087,4.99107143 C9.37101449,5.9125 8.91014493,6.37321429 8.14202899,6.37321429 C7.68115942,6.37321429 7.29710145,6.21964286 6.98985507,5.9125 C6.75942029,5.68214286 6.6057971,5.375 6.6057971,4.99107143 Z M12.4434783,18.1214286 C11.9826087,18.1214286 11.5217391,17.9678571 11.1376812,17.6607143 C10.7536232,17.3535714 10.6,16.8928571 10.6,16.3553571 C10.6,15.8178571 10.7536232,15.4339286 11.1376812,15.05 C11.5217391,14.7428571 11.9057971,14.5125 12.4434783,14.5125 C12.9811594,14.5125 13.3652174,14.6660714 13.7492754,15.05 C14.0565217,15.3571429 14.2869565,15.8178571 14.2869565,16.3553571 C14.2869565,16.8928571 14.1333333,17.3535714 13.7492754,17.6607143 C13.3652174,17.9678571 12.9043478,18.1214286 12.4434783,18.1214286 Z" id="Shape"></path>
                </g>
            </g>
        </g>
    </g>
</svg>