<?xml version="1.0" encoding="UTF-8"?>
<svg width="34px" height="49px" viewBox="0 0 34 49" version="1.1" xmlns="http://www.w3.org/2000/svg" xmlns:xlink="http://www.w3.org/1999/xlink">
    <!-- Generator: Sketch 44.1 (41455) - http://www.bohemiancoding.com/sketch -->
    <title>noun_653825_cc</title>
    <desc>Created with Sketch.</desc>
    <defs></defs>
    <g id="Iconos" stroke="none" stroke-width="1" fill="none" fill-rule="evenodd">
        <g id="Iconos-inicio-2" transform="translate(-153.000000, -40.000000)" fill="#595C8B">
            <g id="noun_653825_cc" transform="translate(152.000000, 40.000000)">
                <g id="QR">
                    <g transform="translate(0.206897, 0.000000)">
                        <path d="M33.8448276,40.7941176 C33.8448276,44.8176471 30.5948276,48.0588235 26.5603448,48.0588235 L8.18103448,48.0588235 C4.14655172,48.0588235 0.896551724,44.8176471 0.896551724,40.7941176 L0.896551724,7.26470588 C0.896551724,3.24117647 4.14655172,0 8.18103448,0 L26.5603448,0 C30.5948276,0 33.8448276,3.24117647 33.8448276,7.26470588 L33.8448276,40.7941176 Z M31.4913793,7.26470588 C31.4913793,4.47058824 29.25,2.34705882 26.5603448,2.34705882 L8.18103448,2.34705882 C5.37931034,2.34705882 3.25,4.58235294 3.25,7.26470588 L3.25,40.7941176 C3.25,43.5882353 5.49137931,45.7117647 8.18103448,45.7117647 L26.5603448,45.7117647 C29.362069,45.7117647 31.4913793,43.4764706 31.4913793,40.7941176 L31.4913793,7.26470588 Z" id="Shape"></path>
                        <path d="M33.8448276,40.0117647 C33.8448276,40.6823529 33.2844828,41.1294118 32.7241379,41.1294118 L2.01724138,41.1294118 C1.34482759,41.1294118 0.896551724,40.5705882 0.896551724,40.0117647 L0.896551724,7.26470588 C0.896551724,6.59411765 1.45689655,6.14705882 2.01724138,6.14705882 L32.612069,6.14705882 C33.2844828,6.14705882 33.7327586,6.70588235 33.7327586,7.26470588 L33.7327586,40.0117647 L33.8448276,40.0117647 Z M3.25,38.8941176 L31.6034483,38.8941176 L31.6034483,8.38235294 L3.25,8.38235294 L3.25,38.8941176 Z" id="Shape"></path>
                        <path d="M19.2758621,4.35882353 C19.2758621,5.25294118 18.6034483,5.92352941 17.7068966,5.92352941 C16.8103448,5.92352941 16.137931,5.25294118 16.137931,4.35882353 C16.137931,3.46470588 16.8103448,2.79411765 17.7068966,2.79411765 C18.6034483,2.79411765 19.2758621,3.46470588 19.2758621,4.35882353" id="Shape"></path>
                        <path d="M19.7241379,44.2588235 L15.9137931,44.2588235 C15.2413793,44.2588235 14.7931034,43.7 14.7931034,43.1411765 C14.7931034,42.4705882 15.3534483,42.0235294 15.9137931,42.0235294 L19.7241379,42.0235294 C20.3965517,42.0235294 20.8448276,42.5823529 20.8448276,43.1411765 C20.8448276,43.7 20.3965517,44.2588235 19.7241379,44.2588235" id="Shape"></path>
                        <g id="Group" transform="translate(10.086207, 15.647059)">
                            <path d="M0,15.9823529 L6.94827586,15.9823529 L6.94827586,8.94117647 L0,8.94117647 L0,15.9823529 Z M1.45689655,10.3941176 L5.60344828,10.3941176 L5.60344828,14.5294118 L1.45689655,14.5294118 L1.45689655,10.3941176 Z" id="Shape"></path>
                            <rect id="Rectangle-path" x="2.80172414" y="11.7352941" width="1.34482759" height="1.34117647"></rect>
                            <rect id="Rectangle-path" x="11.2068966" y="14.5294118" width="1.34482759" height="1.34117647"></rect>
                            <rect id="Rectangle-path" x="14.0086207" y="14.5294118" width="1.34482759" height="1.34117647"></rect>
                            <polygon id="Shape" points="14.0086207 10.3941176 12.6637931 10.3941176 12.6637931 8.94117647 8.51724138 8.94117647 8.51724138 15.8705882 9.86206897 15.8705882 9.86206897 11.7352941 11.2068966 11.7352941 11.2068966 13.0764706 15.3534483 13.0764706 15.3534483 8.94117647 14.0086207 8.94117647 14.0086207 10.3941176"></polygon>
                            <path d="M0,7.6 L6.94827586,7.6 L6.94827586,0.670588235 L0,0.670588235 L0,7.6 Z M1.45689655,2.01176471 L5.60344828,2.01176471 L5.60344828,6.14705882 L1.45689655,6.14705882 L1.45689655,2.01176471 Z" id="Shape"></path>
                            <rect id="Rectangle-path" x="2.80172414" y="3.35294118" width="1.34482759" height="1.34117647"></rect>
                            <path d="M8.40517241,0.558823529 L8.40517241,7.48823529 L15.3534483,7.48823529 L15.3534483,0.558823529 L8.40517241,0.558823529 Z M14.0086207,6.14705882 L9.86206897,6.14705882 L9.86206897,2.01176471 L14.0086207,2.01176471 L14.0086207,6.14705882 Z" id="Shape"></path>
                            <rect id="Rectangle-path" x="11.2068966" y="3.35294118" width="1.34482759" height="1.34117647"></rect>
                        </g>
                    </g>
                </g>
            </g>
        </g>
    </g>
</svg>