<?xml version="1.0" encoding="UTF-8"?>
<svg width="22px" height="16px" viewBox="0 0 22 16" version="1.1" xmlns="http://www.w3.org/2000/svg" xmlns:xlink="http://www.w3.org/1999/xlink">
    <!-- Generator: Sketch 44.1 (41455) - http://www.bohemiancoding.com/sketch -->
    <title>ojo</title>
    <desc>Created with Sketch.</desc>
    <defs></defs>
    <g id="Iconos" stroke="none" stroke-width="1" fill="none" fill-rule="evenodd">
        <g id="Formulario/Registro" transform="translate(-191.000000, -66.000000)" fill="#E5E5E5">
            <path d="M202,66 C196.999889,66 192.700111,69.2828889 191,73.9444444 C192.700111,78.6047778 196.999889,81.8888889 202,81.8888889 C207.000111,81.8888889 211.299889,78.6047778 213,73.9444444 C211.299889,69.2828889 207.000111,66 202,66 L202,66 Z M202,79.2403333 C199.199889,79.2403333 196.999889,76.9095556 196.999889,73.9444444 C196.999889,70.9781111 199.199889,68.6473333 202,68.6473333 C204.800111,68.6473333 207.000111,70.9781111 207.000111,73.9444444 C207.000111,76.9095556 204.800111,79.2403333 202,79.2403333 L202,79.2403333 Z M202,70.7666667 C200.299889,70.7666667 198.999444,72.1428889 198.999444,73.9444444 C198.999444,75.7447778 200.299889,77.1222222 202,77.1222222 C203.700111,77.1222222 204.999333,75.7447778 204.999333,73.9444444 C204.999333,72.1428889 203.700111,70.7666667 202,70.7666667 L202,70.7666667 Z" id="ojo"></path>
        </g>
    </g>
</svg>