<?xml version="1.0" encoding="UTF-8"?>
<svg width="51px" height="51px" viewBox="0 0 51 51" version="1.1" xmlns="http://www.w3.org/2000/svg" xmlns:xlink="http://www.w3.org/1999/xlink">
    <!-- Generator: Sketch 44.1 (41455) - http://www.bohemiancoding.com/sketch -->
    <title>profile dog</title>
    <desc>Created with Sketch.</desc>
    <defs></defs>
    <g id="Iconos" stroke="none" stroke-width="1" fill="none" fill-rule="evenodd">
        <g id="Iconos-inicio-2" transform="translate(-435.000000, -42.000000)" fill="#595C8B">
            <g id="profile-dog" transform="translate(436.000000, 43.000000)">
                <g id="Capa_1">
                    <g id="Group">
                        <g transform="translate(8.647059, 7.205882)" id="Shape">
                            <path d="M3.17058824,18.7352941 C3.45882353,19.0235294 3.89117647,19.0235294 4.17941176,19.0235294 C4.61176471,19.0235294 5.04411765,18.8794118 5.62058824,18.3029412 C8.07058824,24.2117647 13.1147059,24.7882353 14.7,24.7882353 L15.4205882,24.7882353 L16.1411765,24.7882353 L16.1411765,24.7882353 C17.7264706,24.7882353 22.7705882,24.3558824 25.2205882,18.3029412 C25.7970588,18.8794118 26.2294118,19.0235294 26.6617647,19.0235294 L26.6617647,19.0235294 C26.95,19.0235294 27.3823529,19.0235294 27.6705882,18.7352941 C29.8323529,17.2941176 30.9852941,13.2588235 30.2647059,9.65588235 C29.2558824,5.04411765 25.7970588,1.87352941 20.6088235,1.00882353 L20.4647059,1.00882353 C18.8794118,0.288235294 17.15,0 15.4205882,0 C14.1235294,0 12.25,0.144117647 10.2323529,1.15294118 C5.04411765,2.16176471 1.58529412,5.33235294 0.576470588,9.8 C-0.144117647,13.2588235 1.00882353,17.15 3.17058824,18.7352941 Z M29.2558824,9.8 C29.9764706,13.4029412 28.6794118,16.7176471 27.0941176,17.7264706 C26.95,17.8705882 26.8058824,17.8705882 26.6617647,17.8705882 L26.6617647,17.8705882 C26.5176471,17.8705882 26.0852941,17.7264706 25.6529412,17.0058824 L25.6529412,17.0058824 L25.5088235,16.7176471 C23.3470588,13.5470588 21.7617647,4.61176471 21.1852941,2.01764706 C27.0941176,3.60294118 28.6794118,7.49411765 29.2558824,9.8 Z M10.8088235,1.87352941 C12.5382353,1.15294118 14.2676471,1.00882353 15.4205882,1.00882353 C17.0058824,1.00882353 18.5911765,1.29705882 20.0323529,2.01764706 C20.3205882,4.03529412 22.05,13.6911765 24.3558824,17.4382353 C22.3382353,23.2029412 17.8705882,23.9235294 15.9970588,23.9235294 L15.9970588,23.9235294 L15.8529412,23.9235294 L15.8529412,20.8970588 C17.8705882,19.7441176 18.7352941,18.8794118 18.4470588,18.1588235 C18.1588235,17.0058824 16.1411765,16.8617647 15.2764706,16.8617647 C13.9794118,16.8617647 12.5382353,17.0058824 12.25,18.0147059 C11.9617647,19.0235294 13.5470588,20.1764706 14.7,20.8970588 L14.7,23.9235294 C14.7,23.9235294 14.7,23.9235294 14.5558824,23.9235294 C12.6823529,23.9235294 8.35882353,23.3470588 6.34117647,17.5823529 C6.91764706,16.7176471 7.35,15.5647059 7.92647059,13.8352941 C9.65588235,9.07941176 10.6647059,3.17058824 10.8088235,1.87352941 Z M1.72941176,9.8 C2.16176471,7.49411765 3.89117647,3.60294118 9.65588235,2.16176471 C9.36764706,3.60294118 8.79117647,6.77352941 8.07058824,9.8 C7.49411765,11.9617647 6.91764706,13.5470588 6.48529412,14.7 L6.48529412,14.8441176 L6.48529412,14.8441176 C6.19705882,15.5647059 5.76470588,16.2852941 5.47647059,16.8617647 L5.33235294,17.0058824 C4.9,17.7264706 4.46764706,17.7264706 4.32352941,17.7264706 C4.17941176,17.7264706 4.03529412,17.7264706 3.89117647,17.5823529 C2.16176471,16.7176471 1.00882353,13.4029412 1.72941176,9.8 Z" stroke="#595C8B"></path>
                            <path d="M12.1058824,13.1147059 C13.2588235,13.1147059 14.1235294,12.25 14.1235294,11.0970588 C14.1235294,9.94411765 13.2588235,9.07941176 12.1058824,9.07941176 C10.9529412,9.07941176 10.0882353,9.94411765 10.0882353,11.0970588 C10.0882353,12.25 11.0970588,13.1147059 12.1058824,13.1147059 Z"></path>
                            <path d="M18.5911765,13.1147059 C19.7441176,13.1147059 20.6088235,12.25 20.6088235,11.0970588 C20.6088235,9.94411765 19.7441176,9.07941176 18.5911765,9.07941176 C17.4382353,9.07941176 16.5735294,9.94411765 16.5735294,11.0970588 C16.5735294,12.25 17.4382353,13.1147059 18.5911765,13.1147059 Z"></path>
                        </g>
                        <path d="M24.0676471,1.58529412 C36.75,1.58529412 47.1264706,11.9617647 47.1264706,24.6441176 C47.1264706,37.3264706 36.75,47.7029412 24.0676471,47.7029412 C11.3852941,47.7029412 1.00882353,37.3264706 1.00882353,24.6441176 C1.00882353,11.8176471 11.3852941,1.58529412 24.0676471,1.58529412 L24.0676471,1.58529412 Z M24.0676471,0.576470588 C10.8088235,0.576470588 0,11.3852941 0,24.6441176 C0,37.9029412 10.8088235,48.7117647 24.0676471,48.7117647 C37.3264706,48.7117647 48.1352941,37.9029412 48.1352941,24.6441176 C48.1352941,11.2411765 37.3264706,0.576470588 24.0676471,0.576470588 L24.0676471,0.576470588 Z" id="Shape" stroke="#595C8B" stroke-width="2"></path>
                        <path d="M23.4911765,48.5676471 C22.9147059,48.5676471 22.3382353,48.5676471 21.6176471,48.4235294 C16.5735294,47.9911765 12.8264706,45.6852941 12.6823529,45.6852941 L12.5382353,45.5411765 L12.5382353,45.3970588 C11.0970588,38.0470588 16.7176471,29.5441176 17.0058824,29.2558824 L17.4382353,28.6794118 L17.8705882,29.2558824 C17.8705882,29.2558824 19.4558824,30.9852941 23.9235294,31.1294118 C27.5264706,31.2735294 29.9764706,29.1117647 30.1205882,29.1117647 L30.5529412,28.6794118 L30.8411765,29.1117647 C37.9029412,39.4882353 36.3176471,44.6764706 36.3176471,44.9647059 L36.3176471,45.1088235 L36.1735294,45.2529412 C33.8676471,46.9823529 28.3911765,48.5676471 23.4911765,48.5676471 Z M13.5470588,44.9647059 C14.4117647,45.3970588 17.7264706,47.1264706 21.9058824,47.5588235 C26.8058824,47.9911765 32.8588235,46.4058824 35.4529412,44.6764706 C35.5970588,43.8117647 36.1735294,38.9117647 30.4088235,30.2647059 C29.5441176,30.9852941 27.0941176,32.2823529 23.9235294,32.1382353 C20.3205882,31.85 18.4470588,30.8411765 17.5823529,30.2647059 C16.4294118,32.1382353 12.5382353,39.0558824 13.5470588,44.9647059 Z" id="Shape" stroke="#595C8B"></path>
                    </g>
                </g>
            </g>
        </g>
    </g>
</svg>