<?xml version="1.0" encoding="UTF-8"?>
<svg width="107px" height="49px" viewBox="0 0 107 49" version="1.1" xmlns="http://www.w3.org/2000/svg" xmlns:xlink="http://www.w3.org/1999/xlink">
    <!-- Generator: Sketch 44.1 (41455) - http://www.bohemiancoding.com/sketch -->
    <title>reunion</title>
    <desc>Created with Sketch.</desc>
    <defs></defs>
    <g id="Iconos" stroke="none" stroke-width="1" fill="none" fill-rule="evenodd">
        <g id="Iconos-inicio-2" transform="translate(-263.000000, -39.000000)">
            <g id="reunion" transform="translate(235.000000, 40.000000)">
                <g id="Capa_1" transform="translate(30.000000, 0.000000)">
                    <polygon id="Shape" fill="#595C8B" points="93.5 23.1 92.9 22.4 94.6 20.2 95.2 20.9"></polygon>
                    <polygon id="Shape" fill="#595C8B" points="97.1 34 96.9 33.2 100.2 32.7 100.4 33.5"></polygon>
                    <g id="Group" stroke="#595C8B" stroke-width="3">
                        <path d="M46,14.2 C49.5,12.4 50.9,8.2 49.1,4.7 C47.4,1.2 43.1,-0.1 39.6,1.6 C36.1,3.4 34.8,7.6 36.5,11 C38.3,14.6 42.5,16 46,14.2 Z" id="Shape"></path>
                        <path d="M38.3,19.6 C38.3,19.6 38.4,14.1 32.6,10.8 C30.9,9.8 27.6,8.4 20.9,9.4 C12,10.7 6.8,16.4 5.6,17.8 C3.3,19.9 2.8,23.4 4.5,26.2 C4.8,26.7 5.2,27.2 5.7,27.6 C5.8,27.7 5.8,27.8 5.8,27.8 L17.9,39.4 L3.7,39.4 C1.7,39.4 0.2,41 0.2,42.9 C0.2,44.9 1.8,46.4 3.7,46.4 L25.9,46.4 C27.3,46.4 28.6,45.6 29.3,44.1 C30.2,42.2 29,40 28.6,39.4 L18.9,23.8 C20.1,23.1 21.6,22.3 23.4,21.9 C27.2,21 30.2,21.2 31.5,21.3 L31.5,42.8 C31.5,44.7 33,46.2 34.9,46.2 C36.8,46.2 38.3,44.7 38.3,42.8 L38.3,19.6 L38.3,19.6 Z" id="Shape"></path>
                    </g>
                </g>
                <g id="noun_703088_cc" transform="translate(67.000000, 29.000000) scale(-1, 1) translate(-67.000000, -29.000000) translate(0.000000, 11.000000)" stroke-width="0.7" stroke="#595C8B" fill="#595C8B">
                    <g id="Group">
                        <path d="M8.58638761,19.3449805 C11.5171555,19.3444181 13.3523303,18.8298042 14.3382516,18.4271119 C14.2094576,19.8595943 14.2263302,21.0339262 14.2415155,22.0243469 C14.2752607,24.2959592 14.2921332,25.4382332 12.6313085,26.8757773 L12.4558336,27.0315675 L12.4091528,27.2677837 C12.2972313,27.8088313 11.3613653,32.627079 12.95245,34.5370555 L13.1577332,34.8193901 L17.1464121,34.8193901 L18.6424479,34.8193901 L23.528186,34.8193901 L23.5186248,34.0893696 C23.4961281,32.5151575 23.0557536,31.4510598 22.207625,30.9988746 C21.3864926,30.5618746 20.4703113,30.8194627 19.9090166,31.0680522 C19.8055314,30.9235104 19.7341041,30.7665953 19.7436653,30.6141796 C19.7650372,30.2761655 20.1553563,29.9983303 20.1744786,29.9853947 C23.891509,27.3363989 24.8628074,24.5934791 25.110272,23.1767444 C27.2075342,23.7515371 30.1264913,24.3769476 32.9177792,24.3769476 C34.0943608,24.3769476 35.1629578,24.2650261 36.1083849,24.0400583 C36.1061353,24.1862874 36.1050104,24.279649 36.1050104,24.2998961 L36.0116488,29.6383818 C36.0032125,30.0326379 35.9745291,33.5404482 37.4638159,35.0617929 C37.927812,35.5359125 38.5104785,35.798 39.1493871,35.798 L43.3748446,35.798 L43.8495267,35.798 L47.4850062,35.798 L47.4850062,35.0899139 C47.4850062,33.524138 47.1171839,32.4324818 46.2302483,31.844191 C45.3748083,31.278397 44.4299436,31.3599479 43.7617892,31.5084266 C42.5891446,27.5782393 44.4271315,21.8454975 45.1965213,19.7403614 C45.303381,19.4906471 45.4074286,19.2386832 45.5075393,18.950162 C45.5075393,18.9495996 45.5092266,18.9619728 45.5092266,18.9630977 C46.1132651,17.2015998 46.536767,14.7376401 46.2049395,11.4452364 C47.0440693,11.3018195 48.6795852,11.0689778 50.5918114,11.0965364 L51.5586105,11.1060975 L51.2509671,10.1871041 C50.9185771,9.19612094 51.0642438,8.95709266 51.0648062,8.95653024 C51.0648062,8.95596782 51.139608,8.89297684 51.4759348,8.89297684 C51.6857173,8.89297684 51.9241832,8.91603604 52.1767095,8.9407825 C52.5034752,8.97284041 52.8493632,9.00546074 53.1603812,8.98915057 L53.5619487,8.96946589 L53.7396733,8.60839258 C54.3335882,7.40425247 55.0338005,5.66018966 54.2587864,4.41386809 C53.685681,3.49262498 52.5119115,3.06462375 50.5636904,3.06462375 C50.2414241,3.06462375 49.892724,3.07643456 49.5209647,3.1006186 C49.019849,2.15294178 47.5052533,0.327328138 43.1976825,0.00337451689 L43.1442526,0 L43.0919476,0.00449935585 C42.9890249,0.0123732286 40.774217,0.233404085 38.9778491,3.78395827 C38.8085609,4.00555155 38.6184631,4.35368921 38.5301632,4.76706753 C38.5059792,4.82555915 38.4817951,4.88123868 38.4581735,4.94197998 C36.9317671,8.77543117 34.8541895,10.8530087 28.2519472,10.8530087 C27.998296,10.8530087 27.7384582,10.8501966 27.4718714,10.8445724 C26.4426437,10.8203884 25.2767481,10.7939547 24.2475205,10.7939547 C20.5136176,10.7939547 17.3989385,11.0487307 15.7083055,13.561621 L15.6723107,13.5177522 C15.4169722,13.7247226 9.36421375,18.5114748 3.72877054,13.1330573 C3.54767147,12.9356481 2.58255964,11.9379159 1.52127408,12.0132801 C1.15963835,12.0369017 0.642774849,12.1926919 0.232208627,12.7989801 C-0.00119545754,13.1431809 -0.176670336,13.746657 0.310947355,14.665088 C1.32330242,16.5739397 5.04989391,19.3449805 8.58638761,19.3449805 Z M45.5592819,32.9999631 C45.9810965,33.2811728 46.1672574,33.8402178 46.2398095,34.4279461 L44.0351251,34.4279461 C44.0446862,33.9909462 44.0008175,33.4386503 43.8095949,32.9139129 C44.2499694,32.7811819 45.037919,32.6523878 45.5592819,32.9999631 Z M19.400027,28.8571812 C19.3032908,28.921297 18.4512253,29.5123999 18.3786732,30.5118193 C18.3291803,31.1889723 18.6424479,31.8357548 19.3094774,32.431357 L19.6997966,32.7845564 L20.1390462,32.5072836 C20.4146317,32.3284342 21.156463,32.0241653 21.5642171,32.242384 C21.8313664,32.3846762 22.0175272,32.8616079 22.1013277,33.4493362 L18.7594312,33.4493362 C18.7515573,32.812115 18.6379486,31.9144935 18.1267093,31.3312645 C17.75495,30.9077626 17.2380865,30.7002298 16.630111,30.7395992 C16.6070518,30.3054113 16.797712,29.546145 17.9523592,28.6389624 C19.7925958,27.1929819 21.6828877,25.8150542 22.5838837,23.4663904 L22.5844461,23.4663904 C22.6260651,23.4663904 22.679495,23.2425475 22.7362993,23.0631357 C22.7987279,22.8764124 22.8560947,22.6930637 22.9044628,22.4956544 C23.1496777,22.5783301 23.4488848,22.6795656 23.7902735,22.7864253 C23.6446068,23.8269013 22.9241474,26.3454158 19.400027,28.8571812 Z M42.8096131,1.4982855 C43.7539154,3.29352848 44.7184648,5.89921794 44.1459217,6.69110457 C43.9057686,7.02293207 43.2471754,6.96837738 42.7364985,6.86489219 C40.4575748,6.40145854 39.9834552,5.71586919 39.8861566,5.44309574 C39.8507242,5.34410991 39.8439751,5.24456167 39.8524114,5.15007519 C40.9266326,2.62256204 42.1858899,1.77499588 42.8096131,1.4982855 Z M39.1510743,6.76196943 C39.7916701,7.40875183 40.885576,7.88624597 42.4642875,8.20682507 C42.8113003,8.27768993 43.1335667,8.31255994 43.4277121,8.31255994 C44.2482821,8.31255994 44.8613193,8.03866165 45.2555754,7.49311475 C46.2881776,6.06513169 45.1757118,3.20579104 44.3579539,1.52246954 C47.8730757,2.12819532 48.3955633,3.90150394 48.415248,3.97405606 L48.5491039,4.55447296 L49.1424564,4.50160553 C51.3499529,4.30813323 52.7211316,4.53422586 53.095703,5.13657712 C53.2903001,5.44984478 53.3651019,6.13205961 52.6963851,7.61234768 C52.5732153,7.60278655 52.4432964,7.59041332 52.3094405,7.57691526 C52.0361047,7.55048154 51.7520828,7.52236057 51.4759348,7.52236057 C51.2110353,7.52236057 50.4084627,7.52236057 49.9540277,8.15395764 C49.6790046,8.53640289 49.6002659,9.04426768 49.7172491,9.7202959 C47.2234811,9.77485059 45.3843694,10.1859792 45.3016938,10.2039767 L44.6965304,10.341207 L44.7741443,10.9581812 C44.8152009,11.2821348 44.8455716,11.59484 44.8720053,11.9030459 C41.0233688,12.0638979 38.5166652,10.0965545 37.5656138,9.17868594 C38.1927115,8.48297304 38.7045133,7.67421383 39.1510743,6.76196943 Z M15.8674702,17.1633553 C16.5069412,12.8580342 18.8612291,12.1628837 24.2475205,12.1628837 C25.1884483,12.1628837 26.1642461,12.1831308 27.4403759,12.2123766 C31.9256713,12.3152994 34.689963,11.5717808 36.5645071,10.1151144 C37.6111698,11.1370306 40.302347,13.285473 44.41982,13.285473 C44.591358,13.285473 44.7673953,13.2798488 44.943995,13.2730998 C45.0502923,18.9895314 42.5913943,21.3713779 42.5503377,21.4101848 C39.7146187,24.185725 39.1938182,31.8948088 39.1735711,32.2215745 L39.1088929,33.2384289 L40.0740047,32.9189747 C41.1757845,32.5505899 41.954173,32.5798357 42.3203081,33.0230223 C42.6133287,33.3762217 42.6768821,34.0381894 42.6661961,34.4296334 L39.1505119,34.4296334 C38.8777385,34.4296334 38.6527707,34.3193992 38.444113,34.1056798 C37.518933,33.1625023 37.3631428,30.5759351 37.3817026,29.661441 L37.4851878,23.741976 C37.5054349,22.7706775 37.5650514,20.815145 37.7152174,19.8837784 L36.363161,19.6655596 C36.2473025,20.3860189 36.1826243,21.6053444 36.1466295,22.6137625 C35.2265112,22.8747252 34.1444161,23.0074562 32.9189041,23.0074562 C28.9082907,23.0074562 24.4657392,21.594096 23.0681268,21.1126649 C23.1198694,19.9934501 22.9815142,18.538471 22.3667897,16.8073438 L21.0765995,17.2651532 C22.0085285,19.8927771 21.6963857,21.7555104 21.4584823,22.5727059 C20.7751426,24.6935898 18.9866487,26.1024506 17.1059179,27.580489 C14.2426403,29.8296045 15.5356427,31.8273185 15.5918847,31.911119 L15.8764689,32.3368705 L16.3635242,32.1883918 C16.5193144,32.1394613 16.6571072,32.1242759 16.7729656,32.1242759 C16.9574392,32.1242759 17.0373027,32.2041395 17.0963568,32.270505 C17.2948909,32.4954728 17.3770041,32.8638576 17.3893773,33.4515859 L17.1464121,33.4515859 L13.8388231,33.4515859 C13.1858541,32.277254 13.385513,29.4831541 13.7060921,27.7852096 C15.6689361,25.9910915 15.6441897,24.2869605 15.6104445,22.0035374 C15.5913222,20.7420305 15.5677006,19.1751298 15.8674702,17.1633553 Z M42.3253699,31.4313751 C42.0615951,31.3442001 41.7545141,31.2862709 41.3906287,31.2862709 C41.1499132,31.2862709 40.8928875,31.3110174 40.6206764,31.358823 C40.8411449,29.2761837 41.4378719,25.7543129 42.6234522,23.5968718 C42.0722811,26.0445214 41.7303301,28.9595415 42.3253699,31.4313751 Z M1.36548388,13.5672452 C1.48696649,13.3883958 1.57414151,13.3822091 1.6112612,13.379397 C1.91328046,13.3574627 2.45545284,13.7657792 2.72653903,14.0666737 L2.76365871,14.1054806 C7.34062845,18.4917901 12.2393021,16.9845059 14.7803134,15.674631 C14.6740161,16.0660749 14.584029,16.4862023 14.5154138,16.9428869 L14.4501731,16.8517749 C14.433863,16.8635857 12.7786624,17.9856126 8.58582519,17.9856126 C8.58582519,17.9856126 8.58582519,17.9856126 8.58526277,17.9856126 C5.90927087,17.9856126 2.93969601,15.9569655 1.8249806,14.4952373 C1.39979147,13.9367548 1.35479791,13.6195502 1.36548388,13.5672452 Z" id="Shape"></path>
                    </g>
                </g>
            </g>
        </g>
    </g>
</svg>