<?xml version="1.0" encoding="UTF-8"?>
<svg width="45px" height="45px" viewBox="0 0 45 45" version="1.1" xmlns="http://www.w3.org/2000/svg" xmlns:xlink="http://www.w3.org/1999/xlink">
    <!-- Generator: Sketch 44.1 (41455) - http://www.bohemiancoding.com/sketch -->
    <title>Shape</title>
    <desc>Created with Sketch.</desc>
    <defs></defs>
    <g id="Iconos" stroke="none" stroke-width="1" fill="none" fill-rule="evenodd">
        <g id="Iconos-inicio-2" transform="translate(-42.000000, -42.000000)" stroke="#595C8B" fill="#595C8B">
            <path d="M84.38366,53.038 L80.63766,56.824 C80.63766,56.824 80.63766,56.825 80.63666,56.825 C80.63666,56.826 80.63566,56.826 80.63566,56.827 L54.97766,82.756 C54.13966,83.603 46.40266,85.995 44.49866,85.995 C44.18466,85.995 43.72666,85.954 43.38466,85.61 C42.98466,85.205 42.53166,84.747 44.09166,79.445 C44.42666,78.306 45.56966,74.537 46.20766,73.893 L75.61366,44.175 C76.36366,43.417 77.36066,43 78.41966,43 C79.47966,43 80.47566,43.418 81.22566,44.175 L84.38366,47.366 C85.13366,48.123 85.54666,49.131 85.54666,50.202 C85.54666,51.274 85.13366,52.281 84.38366,53.038 L84.38366,53.038 Z M45.03066,83.943 C46.24066,83.771 48.44466,83.142 50.33066,82.527 L46.42766,78.582 C45.81466,80.531 45.19966,82.798 45.03066,83.943 L45.03066,83.943 Z M47.14166,76.468 L52.41966,81.802 C53.00166,81.584 53.43966,81.4 53.62166,81.29 L78.53166,56.116 L72.56766,50.089 L47.65766,75.264 C47.53066,75.472 47.34966,75.907 47.14166,76.468 L47.14166,76.468 Z M82.98066,48.784 L79.82266,45.593 C79.07266,44.835 77.76666,44.836 77.01666,45.593 L73.97066,48.671 L79.93466,54.698 L82.98066,51.62 C83.35566,51.241 83.56266,50.738 83.56266,50.202 C83.56266,49.667 83.35566,49.163 82.98066,48.784 L82.98066,48.784 Z M81.36566,58.671 C81.75366,58.279 82.38066,58.279 82.76866,58.671 C83.15666,59.063 83.15666,59.697 82.76866,60.089 L74.06166,68.888 C73.86766,69.084 73.61366,69.182 73.35966,69.182 C73.10566,69.182 72.85166,69.084 72.65866,68.888 C72.27066,68.496 72.27066,67.862 72.65866,67.47 L81.36566,58.671 L81.36566,58.671 Z" id="Shape"></path>
        </g>
    </g>
</svg>