<?xml version="1.0" encoding="UTF-8"?>
<svg width="59px" height="49px" viewBox="0 0 59 49" version="1.1" xmlns="http://www.w3.org/2000/svg" xmlns:xlink="http://www.w3.org/1999/xlink">
    <!-- Generator: Sketch 44.1 (41455) - http://www.bohemiancoding.com/sketch -->
    <title>SYNC</title>
    <desc>Created with Sketch.</desc>
    <defs></defs>
    <g id="Iconos" stroke="none" stroke-width="1" fill="none" fill-rule="evenodd">
        <g id="Iconos-inicio-2" transform="translate(-551.000000, -43.000000)" fill="#595C8B">
            <g id="SYNC" transform="translate(551.000000, 43.000000)">
                <g id="Group" transform="translate(0.009249, 0.426134)">
                    <path d="M29.4068153,0.0858054742 C19.2721024,0.0858054742 10.5565981,6.33224089 6.95923277,15.2018131 C6.61711674,15.9660111 6.71998634,16.8560426 7.22740858,17.5220798 C7.73483082,18.1881171 8.56569037,18.523689 9.39341723,18.3968988 C10.2211441,18.2701085 10.9134198,17.7012245 11.1981448,16.9138471 C14.1117982,9.73018578 21.1496336,4.65822239 29.4068153,4.65822239 C37.9769188,4.65822239 45.2173549,10.1289143 47.9078282,17.7489856 L46.989042,16.8303332 C46.3599909,16.1844037 45.3192567,15.9704746 44.4832615,16.3083382 C44.1697382,16.4350788 43.8953051,16.6426609 43.6688494,16.8929352 C43.5934087,16.9763822 43.52318,17.0711872 43.4601012,17.1643886 C43.2706642,17.4440598 43.1385594,17.7507227 43.0841673,18.083041 C43.0661256,18.1938138 43.064121,18.3043861 43.0634528,18.4170964 C43.0567707,18.4935283 43.0567707,18.5702274 43.0634528,18.6467261 C43.1169095,19.181148 43.3654161,19.6938562 43.752509,20.0664617 L48.617933,24.931157 C48.6633711,24.9966319 48.7122172,25.0588998 48.7640701,25.1190966 C49.2741802,25.7491919 50.1371042,26.072758 50.9357466,25.9333233 C50.956461,25.9333233 50.9778437,25.9333901 50.9985581,25.9333233 C51.0480055,25.9206292 51.0965174,25.9065988 51.1447621,25.8919004 C51.1728268,25.8852193 51.2008916,25.8785382 51.2282881,25.871189 C51.3503697,25.8324385 51.4693776,25.7835328 51.5832403,25.7250063 C51.6039547,25.7183252 51.6253374,25.710976 51.6460518,25.7042949 C51.6888171,25.6782385 51.7305802,25.6501779 51.771274,25.620781 C51.7926567,25.6067507 51.8127029,25.5927204 51.8340856,25.57869 C51.8768509,25.5452845 51.9188812,25.5105427 51.9593746,25.4743311 C51.9800891,25.4609689 52.0014717,25.4469386 52.0221862,25.4329083 C52.0649515,25.3995027 52.1069818,25.3648278 52.147542,25.3284825 C52.1542241,25.3211333 52.1609062,25.3151203 52.1682565,25.3077711 C52.2123582,25.2610033 52.2538539,25.2121644 52.2935455,25.1615884 L57.3886326,20.0672634 C58.3399605,19.2512996 58.3973596,17.6157643 57.5139216,16.7267092 C56.6323546,15.8358502 54.995111,15.8851568 54.1728809,16.8311349 L52.8156165,18.1882685 C50.1047629,7.77262104 40.6440048,0.0866072072 29.4074167,0.0866072072 L29.4068153,0.0858054742 Z M8.17029321,22.6345461 C8.06932696,22.6345461 7.95693435,22.6412272 7.85710405,22.6552575 C7.8363896,22.6553243 7.81500694,22.6551907 7.79429248,22.6552575 C7.74484508,22.6679516 7.69633317,22.6819819 7.64808854,22.6973485 C7.6200238,22.7040296 7.59195906,22.7107107 7.56456253,22.7180599 C7.4424809,22.7568104 7.32340621,22.8057161 7.20961036,22.8642426 C7.18889591,22.8715918 7.16751325,22.8782729 7.1467988,22.884954 C7.10403347,22.9110103 7.06227047,22.939071 7.02150977,22.9684679 C7.00012711,22.9824982 6.98008086,22.9965285 6.9586982,23.0098907 C6.91593288,23.0432963 6.87390259,23.078038 6.83334236,23.1143165 C6.8126279,23.1276787 6.79124524,23.1410409 6.77053079,23.1557393 C6.72776547,23.1891449 6.68573518,23.2238198 6.64524176,23.2601651 C6.63855968,23.2675143 6.6318776,23.2735273 6.62452731,23.2808765 C6.58042557,23.3276443 6.53886303,23.37655 6.49917146,23.4269923 L1.42499957,28.5213374 C0.473671636,29.3373012 0.395357642,30.9728365 1.27886245,31.8618916 C2.16042945,32.7528842 3.81852086,32.7035776 4.64075098,31.7574659 L5.97716726,30.4212442 C8.69583891,40.8269368 18.1767088,48.5021272 29.4062139,48.5021272 C39.5409268,48.5021272 48.2354506,42.2554914 51.8329496,33.3861196 C52.1744221,32.622034 52.0712256,31.732482 51.5638908,31.0668374 C51.056556,30.4011929 50.2261104,30.0657673 49.3987138,30.1922999 C48.5713172,30.3188326 47.8791148,30.8871147 47.5939708,31.673952 C44.6803161,38.8576801 37.6633955,43.9297103 29.4062139,43.9297103 C20.829161,43.9297103 13.5726211,38.4477941 10.8843542,30.8179684 L11.8239885,31.7574659 C12.2958089,32.2419798 12.9894758,32.477088 13.6615596,32.4256435 C13.8856097,32.4082726 14.0999041,32.3641773 14.3089196,32.2795277 C14.4133605,32.2374367 14.5259536,32.1704252 14.6221088,32.1125 C15.1028845,31.8227403 15.4520901,31.3524571 15.624421,30.8179684 C15.6591678,30.7110707 15.6899054,30.6155976 15.707947,30.5047581 C15.7259886,30.3939853 15.7493759,30.2834129 15.7493759,30.1707026 C15.756058,30.0943376 15.756058,30.0175048 15.7493759,29.9410729 C15.6959192,29.4066511 15.4474126,28.893876 15.0603197,28.5213374 L10.1739821,23.656622 C10.128544,23.5911472 10.079698,23.528946 10.027845,23.4687493 C9.5815488,22.9173574 8.87658921,22.6107814 8.16935771,22.6336308 L8.17029321,22.6345461 Z" id="Shape"></path>
                </g>
            </g>
        </g>
    </g>
</svg>