<?xml version="1.0" encoding="utf-8"?>
<!-- Generator: Adobe Illustrator 19.0.1, SVG Export Plug-In . SVG Version: 6.00 Build 0)  -->
<svg version="1.1" id="Capa_1" xmlns="http://www.w3.org/2000/svg" xmlns:xlink="http://www.w3.org/1999/xlink" x="0px" y="0px"
	 viewBox="0 0 300 93.3" style="enable-background:new 0 0 300 93.3;" xml:space="preserve">
<style type="text/css">
	.st0{fill:#030104;}
	.st1{fill:#5981BC;}
	.st2{fill:#FFFFFF;stroke:#030104;stroke-width:6.063;stroke-miterlimit:10;}
	.st3{fill:none;stroke:#030104;stroke-width:6.2782;stroke-miterlimit:10;}
</style>
<path class="st0" d="M5.2,13.9c1.1-0.9,2.5-1.3,4.2-1.3c1.9,0,3.4,0.5,4.4,1.4s1.5,2.4,1.5,4.2C15.1,29.9,15,43.1,15,57.8
	c0,1.2,0,2.9,0.1,5.2c0.1,2.2,0.1,3.8,0.1,4.8c-0.1,1.7-0.5,3-1.2,3.7c-0.8,0.8-2.2,1.3-4.2,1.5c-4.2,0.4-6.3-2.2-6.4-7.7
	c-0.2-8.1-0.2-24,0.1-47.5C3.5,16.1,4.1,14.8,5.2,13.9z"/>
<path class="st0" d="M45.5,34.1c5.1,0.8,9,3,11.6,6.7c2.7,3.7,4,7.9,4,12.6c0,5.8-1.9,10.5-5.8,14.3c-3.9,3.7-8.8,5.6-14.7,5.6
	c-5.4,0-10-1.7-13.8-5.2c-3.8-3.5-5.7-8-5.7-13.5c0-6.2,1.9-11.2,5.8-15c3.9-3.8,9.1-5.7,15.8-5.9C43.9,33.6,44.9,33.8,45.5,34.1z
	 M47.5,46.4c-1.6-1.9-3.6-2.9-6.2-3c-2.8,0.1-5,1.1-6.6,3c-1.6,1.9-2.4,4.6-2.4,8c0,2.5,0.8,4.7,2.5,6.4c1.6,1.7,3.5,2.6,5.6,2.6
	c2.6,0,4.8-1,6.6-2.9c1.8-1.9,2.7-4.4,2.7-7.5C49.8,50.5,49.1,48.3,47.5,46.4z"/>
<path class="st0" d="M90.5,78.8c1.9-1.7,2.9-3.8,2.9-6.4v-4.1c-0.9,1.4-2.3,2.6-4.2,3.5c-1.8,0.9-3.8,1.3-5.8,1.3
	c-5.5,0-10-1.9-13.4-5.6c-3.5-3.7-5.2-8.2-5.2-13.4c0-5.8,1.8-10.7,5.4-14.6c3.6-3.9,8.2-5.9,13.7-5.9c4.3,0,7.6,1.7,10.1,5.2
	l0.2-1.6c0.2-0.9,0.7-1.7,1.7-2.3c1-0.6,2.1-0.9,3.5-0.9c1.6,0,2.9,0.5,3.9,1.4c1,0.9,1.5,2.1,1.5,3.6c-0.1,12.1-0.2,20.4-0.2,25.1
	l0.1,8.6c0.1,5.4-1.8,10-5.8,13.8S90,92.2,84,92.2c-5,0-9-0.8-11.9-2.3c-2.3-1.2-3.5-2.9-3.5-5.2c0-1.5,0.5-2.8,1.5-3.9
	c1-1.1,2.1-1.7,3.4-1.7c0.5,0,1.8,0.4,3.8,1.1c2.3,0.8,4.4,1.2,6.4,1.2C86.3,81.4,88.6,80.5,90.5,78.8z M78.8,60.6
	c1.7,1.7,3.7,2.6,6.2,2.6c2.4,0,4.5-0.8,6.2-2.5c1.7-1.7,2.6-4.1,2.6-7.2s-0.8-5.6-2.5-7.3c-1.7-1.7-3.7-2.5-6-2.5
	c-2.6-0.1-4.8,0.9-6.4,2.7c-1.7,1.9-2.5,4.4-2.5,7.5C76.3,56.6,77.1,58.9,78.8,60.6z"/>
<path class="st0" d="M134.8,34.1c5.1,0.8,9,3,11.6,6.7c2.7,3.7,4,7.9,4,12.6c0,5.8-1.9,10.5-5.8,14.3c-3.9,3.7-8.8,5.6-14.7,5.6
	c-5.4,0-10-1.7-13.8-5.2c-3.8-3.5-5.7-8-5.7-13.5c0-6.2,1.9-11.2,5.8-15c3.9-3.8,9.1-5.7,15.8-5.9C133.2,33.6,134.1,33.8,134.8,34.1
	z M136.8,46.4c-1.6-1.9-3.6-2.9-6.2-3c-2.8,0.1-5,1.1-6.6,3c-1.6,1.9-2.4,4.6-2.4,8c0,2.5,0.8,4.7,2.5,6.4c1.6,1.7,3.5,2.6,5.6,2.6
	c2.6,0,4.8-1,6.6-2.9c1.8-1.9,2.7-4.4,2.7-7.5C139.1,50.5,138.3,48.3,136.8,46.4z"/>
<path class="st1" d="M159.9,71.3c-1.2-1.2-1.8-2.7-1.8-4.6c0-1.9,0.7-3.5,2-4.8c1.3-1.2,3-1.9,4.9-1.9c1.9,0,3.4,0.6,4.7,1.7
	c1.2,1.2,1.9,2.7,1.9,4.7c0,2-0.7,3.6-2,4.8c-1.3,1.2-3,1.8-5.1,1.8C162.6,73.1,161.1,72.5,159.9,71.3z"/>
<path class="st0" d="M190.2,33.7c2.5,0,4.1,1.1,4.7,3.4l0.2,2.7c1.2-1.9,2.9-3.5,4.9-4.6c2.1-1.1,4.4-1.7,6.9-1.7
	c5.5,0,9.8,1.8,13,5.5c3.2,3.7,4.8,8.3,4.8,14c0,5.8-1.8,10.6-5.5,14.5c-3.7,3.8-8.3,5.7-14,5.7c-4.3,0-7.5-1.4-9.7-4.2
	c0,0.4,0,1.3,0,2.9c0,1.5,0,2.7,0,3.4c0,0.6,0,2.1,0.1,4.5c0.1,2.4,0.1,4.3,0.1,5.8c0,3.7-2.1,5.5-6.4,5.5c-3.4,0-5.1-1.7-5.1-5.2
	l0.2-32.4l-0.1-14.8C184.5,35.4,186.4,33.7,190.2,33.7z M211,46.1c-1.7-1.8-3.7-2.7-6.1-2.7c-2.5,0-4.7,0.9-6.6,2.8
	c-1.8,1.9-2.7,4.3-2.7,7.2c0,3.2,0.8,5.7,2.3,7.4c1.5,1.7,3.7,2.6,6.5,2.6c2.6,0,4.8-1,6.5-3c1.7-2,2.6-4.5,2.6-7.6
	C213.6,50.2,212.7,47.9,211,46.1z"/>
<path class="st0" d="M236.6,34.1c2.3,0,3.7,1.1,4.2,3.2l0.5,3.3c0.9-2.1,2.4-3.8,4.3-5c1.9-1.2,3.9-1.9,5.9-1.9
	c3.4,0,5.1,1.7,5.1,5.2c0,1.5-0.4,2.8-1.2,3.9c-0.8,1.1-1.9,1.6-3.3,1.6h-1.2c-2.7,0-4.8,1-6.4,3c-1.6,2-2.4,4.9-2.4,8.9
	c0,0.4,0,2.4,0.1,5.9c0.1,3.5,0.1,5.5,0,6.2c-0.1,3.1-2,4.7-5.7,4.7c-1.8,0-3.2-0.4-4.2-1.2c-0.9-0.8-1.4-2.3-1.4-4.4
	c0-2.2,0-5.6,0.1-10.2c0.1-4.6,0.1-7.9,0.1-9.8c0-0.9,0-2.2,0-4.1c0-1.8,0-3.2,0-4.1C231,35.8,232.9,34.1,236.6,34.1z"/>
<path class="st0" d="M281.5,34.1c5.1,0.8,9,3,11.6,6.7c2.7,3.7,4,7.9,4,12.6c0,5.8-1.9,10.5-5.8,14.3c-3.9,3.7-8.8,5.6-14.7,5.6
	c-5.4,0-10-1.7-13.8-5.2c-3.8-3.5-5.7-8-5.7-13.5c0-6.2,1.9-11.2,5.8-15c3.9-3.8,9.1-5.7,15.8-5.9C279.9,33.6,280.8,33.8,281.5,34.1
	z M283.5,46.4c-1.6-1.9-3.6-2.9-6.2-3c-2.8,0.1-5,1.1-6.6,3c-1.6,1.9-2.4,4.6-2.4,8c0,2.5,0.8,4.7,2.5,6.4c1.6,1.7,3.5,2.6,5.6,2.6
	c2.6,0,4.8-1,6.6-2.9c1.8-1.9,2.7-4.4,2.7-7.5C285.8,50.5,285,48.3,283.5,46.4z"/>
<rect x="146.4" y="2.2" class="st0" width="36.2" height="7.9"/>
<g>
	<polygon class="st2" points="169.6,6.1 182.6,25.4 164.2,53.5 146.3,25.9 158.7,6.4 	"/>
	<line class="st3" x1="164.6" y1="25.7" x2="164.6" y2="53.5"/>
</g>
</svg>
