<?xml version="1.0" standalone="no"?>
<!DOCTYPE svg PUBLIC "-//W3C//DTD SVG 20010904//EN"
 "http://www.w3.org/TR/2001/REC-SVG-20010904/DTD/svg10.dtd">
<svg version="1.0" xmlns="http://www.w3.org/2000/svg"
 width="438.000000pt" height="436.000000pt" viewBox="0 0 438.000000 436.000000"
 preserveAspectRatio="xMidYMid meet">

<g transform="translate(0.000000,436.000000) scale(0.100000,-0.100000)"
fill="#000000" stroke="none">
<path d="M0 2180 l0 -2180 2190 0 2190 0 0 2180 0 2180 -2190 0 -2190 0 0
-2180z m4320 0 l0 -2120 -2130 0 -2130 0 0 2120 0 2120 2130 0 2130 0 0 -2120z"/>
<path d="M2112 3867 c-40 -111 -72 -205 -72 -209 0 -5 68 -8 150 -8 83 0 150
3 150 8 0 13 -145 412 -150 412 -3 0 -38 -91 -78 -203z"/>
<path d="M1415 3742 c3 -9 47 -103 98 -209 l92 -192 108 107 c59 59 107 109
107 112 0 4 -93 50 -206 103 -142 66 -204 91 -199 79z"/>
<path d="M2770 3664 c-107 -51 -199 -95 -205 -97 -5 -3 40 -55 100 -116 l110
-111 99 206 c54 112 97 206 95 208 -2 1 -92 -39 -199 -90z"/>
<path d="M2043 3515 c-124 -34 -255 -129 -323 -235 -112 -175 -112 -415 0
-590 69 -108 200 -202 327 -235 73 -19 213 -19 286 0 178 46 333 192 388 364
29 91 29 241 0 332 -55 172 -210 318 -388 364 -71 19 -221 18 -290 0z"/>
<path d="M1297 3062 c-181 -63 -215 -78 -195 -85 86 -33 413 -145 416 -143 1
2 1 71 0 153 l-3 151 -218 -76z"/>
<path d="M2860 2984 c0 -86 4 -154 8 -152 5 2 104 37 221 77 178 63 209 76
189 84 -12 5 -112 40 -220 78 l-198 68 0 -155z"/>
<path d="M1582 2578 c-11 -24 -54 -114 -96 -200 -42 -86 -76 -159 -76 -162 0
-5 399 180 409 190 6 5 -200 214 -211 214 -4 0 -16 -19 -26 -42z"/>
<path d="M2660 2515 c-57 -57 -102 -106 -99 -109 8 -9 404 -193 408 -190 5 5
-187 398 -196 401 -5 2 -55 -44 -113 -102z"/>
<path d="M2040 2313 c0 -14 145 -413 150 -413 5 0 151 399 150 413 0 4 -67 7
-150 7 -82 0 -150 -3 -150 -7z"/>
<path d="M1270 1535 l0 -315 30 0 31 0 -3 205 c-2 112 0 201 3 197 3 -4 26
-82 50 -174 24 -93 46 -168 50 -168 3 0 25 73 48 163 24 89 47 169 52 177 5 9
9 -69 9 -192 l0 -208 25 0 25 0 0 315 0 315 -28 0 -28 0 -49 -200 c-27 -110
-52 -200 -55 -200 -3 0 -28 90 -55 200 l-49 200 -28 0 -28 0 0 -315z"/>
<path d="M2000 1535 l0 -315 100 0 100 0 0 25 c0 24 -2 25 -70 25 l-70 0 0
290 0 290 -30 0 -30 0 0 -315z"/>
<path d="M1690 1730 c0 -36 3 -40 25 -40 23 0 25 4 25 40 0 36 -2 40 -25 40
-22 0 -25 -4 -25 -40z"/>
<path d="M1690 1415 l0 -195 25 0 25 0 0 195 0 195 -25 0 -25 0 0 -195z"/>
<path d="M2292 1598 c-8 -8 -12 -63 -12 -183 0 -120 4 -175 12 -183 16 -16
180 -16 196 0 17 17 17 349 0 366 -7 7 -44 12 -98 12 -54 0 -91 -5 -98 -12z
m158 -183 l0 -145 -60 0 -60 0 0 145 0 145 60 0 60 0 0 -145z"/>
<path d="M2632 1603 c-7 -3 -19 -18 -27 -33 -18 -35 -21 -266 -4 -303 15 -32
49 -47 109 -47 l50 0 0 -50 0 -50 -55 0 c-48 0 -55 2 -55 20 0 15 -7 20 -25
20 -22 0 -25 -4 -25 -33 0 -49 14 -57 106 -57 119 0 114 -12 114 291 l0 246
-87 0 c-49 0 -94 -2 -101 -4z m106 -49 c21 -6 22 -10 22 -145 l0 -139 -50 0
c-65 0 -70 11 -70 145 0 58 5 115 10 126 11 19 44 24 88 13z"/>
<path d="M2922 1598 c-17 -17 -17 -349 0 -366 16 -16 180 -16 196 0 8 8 12 63
12 183 0 120 -4 175 -12 183 -7 7 -44 12 -98 12 -54 0 -91 -5 -98 -12z m158
-183 l0 -145 -60 0 -60 0 0 145 0 145 60 0 60 0 0 -145z"/>
</g>
</svg>
