<?xml version="1.0" standalone="no"?>
<!DOCTYPE svg PUBLIC "-//W3C//DTD SVG 20010904//EN"
 "http://www.w3.org/TR/2001/REC-SVG-20010904/DTD/svg10.dtd">
<svg version="1.0" xmlns="http://www.w3.org/2000/svg"
 width="438.000000pt" height="436.000000pt" viewBox="0 0 438.000000 436.000000"
 preserveAspectRatio="xMidYMid meet">

<g transform="translate(0.000000,436.000000) scale(0.100000,-0.100000)"
fill="#000000" stroke="none">
<path d="M0 2180 l0 -2180 2190 0 2190 0 0 2180 0 2180 -2190 0 -2190 0 0
-2180z m4320 0 l0 -2120 -2130 0 -2130 0 0 2120 0 2120 2130 0 2130 0 0 -2120z"/>
<path d="M2823 3339 c-74 -10 -135 -43 -192 -105 -76 -83 -96 -142 -96 -294 0
-157 17 -212 90 -285 68 -69 132 -89 260 -83 80 4 101 9 147 35 78 44 111 96
116 183 l4 68 -38 11 c-22 6 -42 11 -45 11 -3 0 -5 -28 -5 -63 0 -110 -61
-187 -146 -187 -58 0 -95 26 -126 90 -26 54 -27 60 -27 230 1 158 3 180 23
232 30 74 60 98 123 98 80 0 119 -54 119 -166 0 -24 2 -44 5 -44 3 0 24 9 45
20 35 18 40 25 40 56 0 68 -44 140 -105 171 -38 20 -126 30 -192 22z"/>
<path d="M1284 2958 l-111 -373 40 -3 c22 -2 43 1 46 7 4 5 15 42 26 80 l19
71 116 0 116 0 19 -77 20 -78 112 -3 c88 -2 112 0 108 10 -2 7 -48 168 -100
358 -53 190 -98 353 -101 363 -5 15 -19 17 -102 17 l-97 0 -111 -372z m181 32
c20 -74 38 -143 41 -152 5 -16 -4 -18 -86 -18 -88 0 -91 1 -85 21 9 27 85 292
86 299 1 9 8 -14 44 -150z"/>
<path d="M1850 2955 l0 -377 243 4 c228 3 244 4 284 25 63 34 94 81 100 151 8
83 -19 141 -83 182 -26 16 -56 30 -66 30 -27 0 -22 17 7 24 13 3 40 20 59 37
88 77 66 223 -42 272 -43 20 -66 22 -274 25 l-228 3 0 -376z m351 286 c26 -27
29 -36 29 -96 0 -69 -17 -118 -45 -129 -9 -3 -39 -6 -66 -6 l-49 0 0 130 0
130 51 0 c43 0 55 -5 80 -29z m14 -334 c57 -57 57 -183 1 -236 -18 -17 -41
-24 -85 -28 l-61 -6 0 152 0 151 56 0 c50 0 60 -4 89 -33z"/>
<path d="M1230 1596 l0 -316 25 0 25 0 0 208 c0 114 4 200 9 192 4 -8 27 -88
51 -177 23 -90 46 -161 50 -158 4 2 27 80 51 172 l44 168 3 -202 2 -203 25 0
25 0 0 315 0 315 -24 0 c-22 0 -26 -10 -65 -167 -71 -285 -56 -279 -116 -43
-50 200 -52 205 -78 208 l-27 3 0 -315z"/>
<path d="M1960 1595 l0 -315 100 0 100 0 0 25 c0 24 -2 25 -70 25 l-70 0 0
290 0 290 -30 0 -30 0 0 -315z"/>
<path d="M1650 1790 c0 -36 3 -40 25 -40 23 0 25 4 25 40 0 36 -2 40 -25 40
-22 0 -25 -4 -25 -40z"/>
<path d="M1650 1475 l0 -195 25 0 25 0 0 195 0 195 -25 0 -25 0 0 -195z"/>
<path d="M2246 1648 c-13 -18 -16 -53 -16 -173 0 -196 -1 -195 120 -195 78 0
91 2 100 19 6 11 10 87 10 176 0 89 -4 165 -10 176 -9 17 -22 19 -100 19 -81
0 -90 -2 -104 -22z m164 -173 l0 -145 -60 0 -60 0 0 145 0 145 60 0 60 0 0
-145z"/>
<path d="M2574 1644 c-23 -22 -24 -29 -24 -169 0 -142 1 -147 25 -170 20 -21
34 -25 85 -25 l60 0 0 -50 0 -50 -55 0 c-48 0 -55 2 -55 20 0 15 -7 20 -24 20
-32 0 -43 -33 -22 -65 15 -23 22 -25 99 -25 51 0 88 5 95 12 9 9 12 82 12 268
l0 256 -86 1 c-79 1 -89 -1 -110 -23z m124 -30 c21 -6 22 -10 22 -145 l0 -139
-48 0 c-26 0 -53 5 -60 12 -17 17 -17 249 0 266 13 13 49 15 86 6z"/>
<path d="M2876 1648 c-13 -18 -16 -53 -16 -173 0 -196 -1 -195 120 -195 78 0
91 2 100 19 6 11 10 87 10 176 0 89 -4 165 -10 176 -9 17 -22 19 -100 19 -81
0 -90 -2 -104 -22z m164 -173 l0 -145 -60 0 -60 0 0 145 0 145 60 0 60 0 0
-145z"/>
</g>
</svg>
