<svg xmlns="http://www.w3.org/2000/svg" viewBox="0 0 71.13 71.03"><defs><style>.cls-1{fill:#fff;}.cls-2{fill:none;}</style></defs><title>gear</title><g id="Layer_2" data-name="Layer 2"><g id="Layer_1-2" data-name="Layer 1"><polygon class="cls-1" points="3.43 26.34 3.43 18.7 10.11 17.8 10.66 16.43 7.04 11.31 11.97 7.25 16.3 10.39 18.88 9.02 19.5 3.43 25.69 3.43 26.62 9.46 28.38 10.39 33.54 6.53 37.87 11.99 34.36 15.72 34.98 18.4 41.38 19.02 41.38 25.41 35.09 26.34 34.16 28.2 37.98 33.67 33.74 37.39 28.58 33.98 26.73 34.19 25.9 41.41 19.29 41.41 18.98 35.12 16.82 33.57 11.66 38.42 6.8 33.36 11.66 28.51 10.4 26.62 3.43 26.34"/><path d="M22.41,31.55a9.13,9.13,0,1,1,9.13-9.13A9.14,9.14,0,0,1,22.41,31.55Zm0-14.59a5.46,5.46,0,1,0,5.47,5.46A5.47,5.47,0,0,0,22.41,17Z"/><path class="cls-1" d="M22.41,32A9.63,9.63,0,1,1,32,22.42,9.64,9.64,0,0,1,22.41,32Zm0-18.25A8.63,8.63,0,1,0,31,22.42,8.64,8.64,0,0,0,22.41,13.79Zm0,14.59a6,6,0,1,1,6-6A6,6,0,0,1,22.41,28.39Zm0-10.93a5,5,0,1,0,5,5A5,5,0,0,0,22.41,17.46Z"/><path d="M25.69,3.43l.93,6,1.75.93,5.16-3.86L37.87,12l-3.51,3.74L35,18.4l6.4.62v6.4l-6.3.93-.93,1.86L38,33.67l-4.23,3.72L28.58,34l-1.86.21-.83,7.22H19.29L19,35.12l-2.17-1.55-5.16,4.85L6.8,33.36l4.86-4.85L10.4,26.62l-7-.28V18.71l6.68-.91.55-1.37L7,11.31,12,7.25l4.33,3.14L18.88,9l.62-5.59h6.19M28.21.5H16.88l-.29,2.61-.4,3.58L13.68,4.88,11.85,3.55,10.1,5,5.18,9.05l-2.1,1.73L4.65,13l1.66,2.35L3,15.8.5,16.15v13l2.81.11,3.31.13L4.73,31.29l-2,2,2,2.07,4.86,5.06,2,2.09,2.11-2,2.54-2.39.17,3.39.14,2.79h12l.3-2.6.44-3.82,2.88,1.9L34,41.06l1.68-1.48,4.23-3.72,2-1.73L40.38,32l-2.2-3.15,3.63-.54,2.5-.37V16.36l-2.65-.26-3.33-.32L40,14l1.73-1.84-1.57-2L35.83,4.71,34.06,2.48l-2.28,1.7-2.7,2L28.59,3,28.21.5Z"/><path class="cls-1" d="M29,44.84H16l-.27-5.57-4.22,4L2,33.31l3.46-3.46L0,29.64V15.71L5.43,15l-3-4.28,9.42-7.78,4,2.87L16.43,0h12.2l.82,5.3,4.7-3.52L42.4,12.18l-3,3.2,5.42.52V28.38l-5.76.85,3.49,5L34,41.69l-4.39-2.9Zm-12-1H28.07l.77-6.78L34,40.44l7.26-6.37-3.9-5.59,6.5-1V16.81l-6.54-.63,3.81-4.05L34,3.17,28.72,7.1,27.78,1H17.33l-.73,6.6L11.87,4.18,3.76,10.87,7.2,15.74,1,16.58V28.68l6.78.27L3.4,33.33l8.17,8.51,5.08-4.77Zm9.36-1.93H18.82l-.32-6.53-1.64-1.17-5.22,4.91L6.1,33.35,11,28.45l-.89-1.33-7.2-.29V18.27l6.82-.93.34-.85L6.37,11.22l5.58-4.6,4.4,3.18,2.07-1.1.64-5.77h7.07l1,6.21,1.25.66,5.3-4L38.53,12l-3.62,3.86.48,2.06,6.49.63v7.29l-6.47,1-.68,1.36,3.9,5.59L33.79,38,28.46,34.5l-1.28.14Zm-6.58-1h5.68l.82-7.18,2.43-.27,5,3.29,3.61-3.17-3.73-5.35,1.18-2.36,6.13-.9V19.47l-6.3-.61-.76-3.28L37.21,12,33.45,7.22l-5,3.76L26.17,9.79l-.9-5.86H19.95l-.6,5.41L16.26,11,12,7.88,7.72,11.4l3.5,5-.76,1.89-6.54.89v6.72l6.75.27,1.63,2.44L7.5,33.37l4.18,4.35,5.1-4.79,2.7,1.93Z"/><polygon class="cls-1" points="16.69 47.51 16.69 37.19 25.71 35.97 26.45 34.11 21.57 27.2 28.22 21.71 34.08 25.95 37.56 24.11 38.4 16.55 46.77 16.55 48.02 24.7 50.39 25.95 57.37 20.74 63.22 28.12 58.48 33.16 59.32 36.77 67.96 37.61 67.96 46.26 59.46 47.51 58.2 50.02 63.36 57.41 57.65 62.43 50.67 57.83 48.16 58.11 47.05 67.87 38.12 67.87 37.7 59.37 34.77 57.27 27.8 63.83 21.24 56.99 27.8 50.44 26.1 47.89 16.69 47.51"/><path d="M42.32,53.9A11.69,11.69,0,1,1,54,42.21,11.7,11.7,0,0,1,42.32,53.9Zm0-19.71a8,8,0,1,0,8,8A8,8,0,0,0,42.32,34.19Z"/><path class="cls-1" d="M42.32,54.4A12.19,12.19,0,1,1,54.51,42.21,12.2,12.2,0,0,1,42.32,54.4Zm0-23.38A11.19,11.19,0,1,0,53.51,42.21,11.2,11.2,0,0,0,42.32,31Zm0,19.71a8.53,8.53,0,1,1,8.53-8.53A8.54,8.54,0,0,1,42.32,50.74Zm0-16.05a7.53,7.53,0,1,0,7.53,7.53A7.53,7.53,0,0,0,42.32,34.69Z"/><polygon class="cls-2" points="57.93 33.02 62.56 28.09 57.28 21.43 50.44 26.54 47.57 25.03 46.34 17.05 38.85 17.05 38.03 24.43 34.04 26.54 28.24 22.35 22.24 27.29 27.02 34.05 26.07 36.42 17.19 37.63 17.19 47.03 26.38 47.4 28.45 50.51 21.94 57 27.82 63.13 34.73 56.63 38.19 59.1 38.6 67.37 46.6 67.37 47.71 57.66 50.8 57.31 57.6 61.81 62.7 57.33 57.62 50.06 59.13 47.06 67.46 45.83 67.46 38.06 58.91 37.24 57.93 33.02"/><path d="M67.4,28.29,57.93,16.37l-7.17,5.36-1.28-8.34H35.57l-1,9-6.48-4.69-10.8,8.91L22,33.28l-8.47,1.15V50.55l9.32.37-6,6L27.69,68.27l7-6.55L35.11,71H49.87l1.06-9.25,7,4.62,9.66-8.48L62.25,50.3,71.13,49V34.74l-9-.87Zm1.07,8.87v9.53L59.79,48l-1,2L64,57.5l-6.34,5.57-7.14-4.71-1.93.22-1.12,9.81H37.65l-.43-8.74-2.4-1.71-7,6.61L20.54,57l6.62-6.61-1.33-2L16.19,48V36.76l9.17-1.25.53-1.33-5-7.07,7.31-6,5.92,4.28,3-1.57L38,16.05H47.2l1.28,8.32,1.87,1L57.46,20l6.43,8.1L59,33.31l.69,3Z"/><path class="cls-1" d="M59,33.31l4.85-5.17L57.46,20l-7.11,5.32-1.87-1L47.2,16.05H38l-.86,7.74-3,1.57L28.2,21.08l-7.31,6,5,7.07-.53,1.33-9.17,1.25V48l9.64.39,1.33,2L20.54,57l7.24,7.54,7-6.61,2.4,1.71.43,8.74h9.85l1.12-9.81,1.93-.22,7.14,4.71L64,57.5,58.78,50l1-2,8.68-1.28V37.16l-8.74-.84Zm8.44,12.51-8.34,1.23-1.5,3,5.07,7.27L57.6,61.81,50.8,57.32l-3.09.34L46.6,67.37h-8l-.41-8.27-3.46-2.47-6.91,6.5L21.94,57l6.51-6.5-2.07-3.1L17.19,47v-9.4l8.88-1.21L27,34l-4.77-6.75,6-4.95L34,26.54l4-2.11.82-7.37h7.49l1.23,8,2.87,1.52,6.84-5.11,5.29,6.66L57.93,33l1,4.22,8.55.83Z"/></g></g></svg>