<?xml version="1.0" encoding="utf-8"?>
<!-- Generator: Adobe Illustrator 21.1.0, SVG Export Plug-In . SVG Version: 6.00 Build 0)  -->
<svg version="1.1"
	 id="Layer_1" xmlns:cc="http://creativecommons.org/ns#" xmlns:dc="http://purl.org/dc/elements/1.1/" xmlns:inkscape="http://www.inkscape.org/namespaces/inkscape" xmlns:rdf="http://www.w3.org/1999/02/22-rdf-syntax-ns#" xmlns:sodipodi="http://sodipodi.sourceforge.net/DTD/sodipodi-0.dtd" xmlns:svg="http://www.w3.org/2000/svg"
	 xmlns="http://www.w3.org/2000/svg" xmlns:xlink="http://www.w3.org/1999/xlink" x="0px" y="0px" viewBox="0 0 900 764.2"
	 style="enable-background:new 0 0 900 764.2;" xml:space="preserve">
<style type="text/css">
	.st0{fill:#F9F7F7;}
</style>
<path class="st0" d="M78.5,12.2C39.8,12.2,8,44.2,8,83.1v445.5c0,38.9,31.8,70.9,70.5,70.9h744.9c38.7,0,70.5-32,70.5-70.9V83.1
	c0-38.9-31.8-70.9-70.5-70.9C823.3,12.2,78.5,12.2,78.5,12.2z M78.5,52.7h744.9c17.1,0,30.2,13.2,30.2,30.4v30.4H48.3V83.1
	C48.3,65.9,61.4,52.7,78.5,52.7z M48.3,255.2h805.3v273.4c0,17.2-13.1,30.4-30.2,30.4H78.5c-17.1,0-30.2-13.2-30.2-30.4V255.2z
	 M675.3,311.9c-34.5,0-62.8,28.6-62.8,63.1c0,34.5,28.3,62.9,62.8,62.9c14.8,0,28.5-5.3,39.3-14c10.8,8.7,24.4,14,39.3,14
	c34.5,0,62.8-28.3,62.8-62.9c0-34.5-28.3-62.9-62.8-62.9c-14.7,0-28.3,5.2-39,13.8C704,317.1,690.1,311.9,675.3,311.9z M115.8,499.5
	H83.5v-44h32.3C115.8,455.5,115.8,499.5,115.8,499.5z M157.9,499.5h-32.3v-44h32.3V499.5z M199.9,499.5h-32.3v-44h32.3V499.5z
	 M243.5,499.5h-32.3v-44h32.3V499.5z M306.8,499.5h-32.3v-44h32.3V499.5z M348.9,499.5h-32.3v-44h32.3V499.5z M390.9,499.5h-32.3
	v-44h32.3V499.5z M434.5,499.5h-32.3v-44h32.3V499.5z M496.3,499.5H464v-44h32.3V499.5z M538.4,499.5H506v-44h32.3V499.5z
	 M580.4,499.5h-32.3v-44h32.3V499.5z M432.5,331.5h-349v-25.6h349V331.5z M288.7,392H83.5v-25.6h205.2V392z"/>
</svg>
