<?xml version="1.0" encoding="utf-8"?>
<!-- Generator: Adobe Illustrator 21.0.0, SVG Export Plug-In . SVG Version: 6.00 Build 0)  -->
<svg version="1.1" id="Layer_1" xmlns="http://www.w3.org/2000/svg" xmlns:xlink="http://www.w3.org/1999/xlink" x="0px" y="0px"
	 viewBox="0 0 25.7 25.7" style="enable-background:new 0 0 25.7 25.7;" xml:space="preserve">
<style type="text/css">
	.st0{opacity:0.1;}
	.st1{fill:#FFFFFF;}
</style>
<path class="st0" d="M2.2,25.7c-0.2,0-0.4,0-0.5-0.1c-0.6-0.1-1.1-0.5-1.4-1C0,24.1-0.1,23.5,0.1,23l1.7-6.8
	c0.1-0.3,0.3-0.6,0.5-0.9L15.9,1.7C17,0.6,18.4,0,20,0c1.5,0,3,0.6,4.1,1.7c2.2,2.2,2.2,5.9,0,8.1L10.4,23.5
	c-0.2,0.2-0.5,0.4-0.9,0.5l-6.8,1.7C2.6,25.7,2.4,25.7,2.2,25.7L2.2,25.7z M9.2,19.3l9.2-9.2l-2.8-2.8l-9.2,9.2L9.2,19.3z M21,7.5
	l0.3-0.3c0.8-0.8,0.8-2,0-2.8C21,4,20.5,3.8,20,3.8c-0.5,0-1,0.2-1.4,0.6l-0.3,0.3L21,7.5z"/>
<path class="st1" d="M16.6,2.3L2.9,16c-0.1,0.1-0.2,0.3-0.3,0.4L1,23.2c-0.2,0.7,0.2,1.4,0.9,1.6c0.1,0,0.2,0,0.3,0
	c0.1,0,0.2,0,0.3,0l6.8-1.7c0.2,0,0.3-0.1,0.4-0.3L23.4,9.2c1.9-1.9,1.9-4.9,0-6.8C21.5,0.5,18.5,0.5,16.6,2.3z M9.2,20.6l-4.1-4.1
	L15.6,6.1l4.1,4.1L9.2,20.6z M22,7.8l-1,1l-4.1-4.1l1-1c1.1-1.1,3-1.1,4.1,0C23.2,4.8,23.2,6.7,22,7.8z"/>
</svg>
