<svg xmlns="http://www.w3.org/2000/svg" viewBox="0 0 391.84 554.18"><title>Asset 17</title><g id="Layer_2" data-name="Layer 2"><g id="Layer_1-2" data-name="Layer 1"><rect width="391.84" height="554.18" style="fill:#fff"/><text transform="translate(134.21 176.76)" style="font-size:9.093790054321289px;font-family:Candara-Bold, Candara"><tspan style="font-weight:700">Lorem ipsum dolor sit amet</tspan><tspan style="font-family:Candara, Candara"><tspan x="0" y="22.55">Consectetur</tspan><tspan x="46.87" y="22.55" style="letter-spacing:0.3832672122052995em"> </tspan><tspan x="52.33" y="22.55">adipiscing</tspan><tspan x="90.54" y="22.55" style="letter-spacing:0.38337460004845036em"> </tspan><tspan x="96" y="22.55">elit.</tspan><tspan x="110.28" y="22.55" style="letter-spacing:0.3832672122052995em"> </tspan><tspan x="115.74" y="22.55">Nulla</tspan><tspan x="135.36" y="22.55" style="letter-spacing:0.38337460004845036em"> </tspan><tspan x="140.82" y="22.55">vestibulum</tspan><tspan x="183.23" y="22.55" style="letter-spacing:0.3832672122052995em"> </tspan><tspan x="188.69" y="22.55">rutrum </tspan><tspan x="0" y="33.83">augue</tspan><tspan x="23.78" y="33.83" style="letter-spacing:0.26181156160171487em"> </tspan><tspan x="28.13" y="33.83">non</tspan><tspan x="43.06" y="33.83" style="letter-spacing:0.26181156160171487em"> </tspan><tspan x="47.41" y="33.83">efficitur.</tspan><tspan x="79.28" y="33.83" style="letter-spacing:0.26181156160171487em"> </tspan><tspan x="83.63" y="33.83">Vestibulum</tspan><tspan x="126.71" y="33.83" style="letter-spacing:0.26181156160171487em"> </tspan><tspan x="131.06" y="33.83">pellentesque</tspan><tspan x="180.88" y="33.83" style="letter-spacing:0.26181156160171487em"> </tspan><tspan x="185.23" y="33.83">aliquam </tspan><tspan x="0" y="45.1">suscipit.</tspan><tspan x="31.17" y="45.1" style="letter-spacing:0.05380130941856404em"> </tspan><tspan x="33.63" y="45.1">Duis</tspan><tspan x="50.13" y="45.1" style="letter-spacing:0.05380130941856404em"> </tspan><tspan x="52.59" y="45.1">nec</tspan><tspan x="66.29" y="45.1" style="letter-spacing:0.05380130941856404em"> </tspan><tspan x="68.75" y="45.1">lorem</tspan><tspan x="91.25" y="45.1" style="letter-spacing:0.05380130941856404em"> </tspan><tspan x="93.71" y="45.1">eu</tspan><tspan x="103.25" y="45.1" style="letter-spacing:0.05380130941856404em"> </tspan><tspan x="105.71" y="45.1">orci</tspan><tspan x="120.1" y="45.1" style="letter-spacing:0.05380130941856404em"> </tspan><tspan x="122.56" y="45.1">hendrerit</tspan><tspan x="158.44" y="45.1" style="letter-spacing:0.05380130941856404em"> </tspan><tspan x="160.9" y="45.1">egestas</tspan><tspan x="190.49" y="45.1" style="letter-spacing:0.05380130941856404em"> </tspan><tspan x="192.95" y="45.1">quis</tspan><tspan x="208.67" y="45.1" style="letter-spacing:0.05380130941856404em"> </tspan><tspan x="211.13" y="45.1">a </tspan><tspan x="0" y="56.38">ligula.</tspan><tspan x="22.68" y="56.38" style="letter-spacing:0.14121501374333675em"> </tspan><tspan x="25.93" y="56.38">Nunc</tspan><tspan x="45.96" y="56.38" style="letter-spacing:0.14110762590018594em"> </tspan><tspan x="49.22" y="56.38">non</tspan><tspan x="64.15" y="56.38" style="letter-spacing:0.14121501374333675em"> </tspan><tspan x="67.4" y="56.38">lobortis</tspan><tspan x="96.97" y="56.38" style="letter-spacing:0.14121501374333675em"> </tspan><tspan x="100.23" y="56.38">tortor,</tspan><tspan x="125.66" y="56.38" style="letter-spacing:0.14110762590018594em"> </tspan><tspan x="128.91" y="56.38">vel</tspan><tspan x="140.03" y="56.38" style="letter-spacing:0.14121501374333675em"> </tspan><tspan x="143.28" y="56.38">consectetur</tspan><tspan x="189.27" y="56.38" style="letter-spacing:0.14121501374333675em"> </tspan><tspan x="192.53" y="56.38">tellus. </tspan><tspan x="0" y="67.66">Fusce</tspan><tspan x="21.9" y="67.66" style="letter-spacing:0.1827741090427066em"> </tspan><tspan x="25.54" y="67.66">posuere</tspan><tspan x="56.91" y="67.66" style="letter-spacing:0.1827741090427066em"> </tspan><tspan x="60.54" y="67.66">neque</tspan><tspan x="84.73" y="67.66" style="letter-spacing:0.18266672119955576em"> </tspan><tspan x="88.36" y="67.66">mi,</tspan><tspan x="100.08" y="67.66" style="letter-spacing:0.1827741090427066em"> </tspan><tspan x="103.71" y="67.66">et</tspan><tspan x="111.64" y="67.66" style="letter-spacing:0.1827741090427066em"> </tspan><tspan x="115.28" y="67.66">consequat</tspan><tspan x="155.52" y="67.66" style="letter-spacing:0.1827741090427066em"> </tspan><tspan x="159.16" y="67.66">quam</tspan><tspan x="180.99" y="67.66" style="letter-spacing:0.1827741090427066em"> </tspan><tspan x="184.63" y="67.66">pulvinar </tspan><tspan x="0" y="78.93">vitae.</tspan><tspan x="21.03" y="78.93" style="letter-spacing:0.22691051257769626em"> </tspan><tspan x="25.07" y="78.93">Phasellus</tspan><tspan x="60.8" y="78.93" style="letter-spacing:0.22680312473454542em"> </tspan><tspan x="64.84" y="78.93">porta</tspan><tspan x="85.92" y="78.93" style="letter-spacing:0.22691051257769626em"> </tspan><tspan x="89.96" y="78.93">egestas</tspan><tspan x="119.54" y="78.93" style="letter-spacing:0.22680312473454542em"> </tspan><tspan x="123.58" y="78.93">condimentum.</tspan><tspan x="179.58" y="78.93" style="letter-spacing:0.22691051257769626em"> </tspan><tspan x="183.62" y="78.93">Vivamus </tspan><tspan x="0" y="90.21">laoreet</tspan><tspan x="27.45" y="90.21" style="letter-spacing:0.19061342159271694em"> </tspan><tspan x="31.15" y="90.21">ipsum</tspan><tspan x="54.31" y="90.21" style="letter-spacing:0.19072080943586775em"> </tspan><tspan x="58.02" y="90.21">nibh,</tspan><tspan x="77.19" y="90.21" style="letter-spacing:0.19061342159271694em"> </tspan><tspan x="80.9" y="90.21">ut</tspan><tspan x="89.03" y="90.21" style="letter-spacing:0.19061342159271694em"> </tspan><tspan x="92.74" y="90.21">commodo</tspan><tspan x="131.98" y="90.21" style="letter-spacing:0.19061342159271694em"> </tspan><tspan x="135.68" y="90.21">odio</tspan><tspan x="152.83" y="90.21" style="letter-spacing:0.19072080943586775em"> </tspan><tspan x="156.54" y="90.21">ullamcorper</tspan><tspan x="202.83" y="90.21" style="letter-spacing:0.19061342159271694em"> </tspan><tspan x="206.54" y="90.21">sit </tspan><tspan x="0" y="101.49">amet.</tspan><tspan x="22.13" y="101.49" style="letter-spacing:0.024377040395237602em"> </tspan><tspan x="24.32" y="101.49">Suspendisse</tspan><tspan x="71.57" y="101.49" style="letter-spacing:0.024377040395237602em"> </tspan><tspan x="73.76" y="101.49">potenti.</tspan><tspan x="104.29" y="101.49" style="letter-spacing:0.024484428238388426em"> </tspan><tspan x="106.48" y="101.49">Vestibulum</tspan><tspan x="149.56" y="101.49" style="letter-spacing:0.024377040395237602em"> </tspan><tspan x="151.75" y="101.49">erat</tspan><tspan x="167.37" y="101.49" style="letter-spacing:0.024377040395237602em"> </tspan><tspan x="169.56" y="101.49">mi,</tspan><tspan x="181.28" y="101.49" style="letter-spacing:0.024377040395237602em"> </tspan><tspan x="183.47" y="101.49">tristique </tspan><tspan x="0" y="112.76">ut</tspan><tspan x="8.13" y="112.76" style="letter-spacing:-0.017826381963037187em"> </tspan><tspan x="9.94" y="112.76">aliquet</tspan><tspan x="36.33" y="112.76" style="letter-spacing:-0.017933769806188014em"> </tspan><tspan x="38.14" y="112.76">eu,</tspan><tspan x="49.97" y="112.76" style="letter-spacing:-0.017826381963037187em"> </tspan><tspan x="51.78" y="112.76">faucibuquis</tspan><tspan x="95.92" y="112.76" style="letter-spacing:-0.017826381963037187em"> </tspan><tspan x="97.73" y="112.76">est</tspan><tspan x="109.47" y="112.76" style="letter-spacing:-0.017826381963037187em"> </tspan><tspan x="111.28" y="112.76">in</tspan><tspan x="118.19" y="112.76" style="letter-spacing:-0.017933769806188014em"> </tspan><tspan x="120" y="112.76">sem</tspan><tspan x="135.92" y="112.76" style="letter-spacing:-0.017826381963037187em"> </tspan><tspan x="137.73" y="112.76">hendrerit</tspan><tspan x="173.61" y="112.76" style="letter-spacing:-0.017826381963037187em"> </tspan><tspan x="175.42" y="112.76">dapibus</tspan><tspan x="205.65" y="112.76" style="letter-spacing:-0.017933769806188014em"> </tspan><tspan x="207.46" y="112.76">ut </tspan><tspan x="0" y="124.04">sollicitudin felis.</tspan><tspan x="0" y="146.59">Maecenas</tspan><tspan x="38.86" y="146.59" style="letter-spacing:0.030068596082231402em"> </tspan><tspan x="41.11" y="146.59">faucibus</tspan><tspan x="73.34" y="146.59" style="letter-spacing:0.030068596082231402em"> </tspan><tspan x="75.59" y="146.59">ac</tspan><tspan x="84.16" y="146.59" style="letter-spacing:0.029961208239080574em"> </tspan><tspan x="86.4" y="146.59">erat</tspan><tspan x="102.02" y="146.59" style="letter-spacing:0.030068596082231402em"> </tspan><tspan x="104.27" y="146.59">eu</tspan><tspan x="113.8" y="146.59" style="letter-spacing:0.030068596082231402em"> </tspan><tspan x="116.05" y="146.59">vehicula.</tspan><tspan x="149.81" y="146.59" style="letter-spacing:0.030068596082231402em"> </tspan><tspan x="152.05" y="146.59">Mauris</tspan><tspan x="178.16" y="146.59" style="letter-spacing:0.030068596082231402em"> </tspan><tspan x="180.41" y="146.59">convallis, </tspan><tspan x="0" y="157.87">dui</tspan><tspan x="11.86" y="157.87" style="letter-spacing:-0.015571237256869833em"> </tspan><tspan x="13.69" y="157.87">ac</tspan><tspan x="22.26" y="157.87" style="letter-spacing:-0.015463849413719007em"> </tspan><tspan x="24.09" y="157.87">mattis</tspan><tspan x="48.31" y="157.87" style="letter-spacing:-0.015571237256869833em"> </tspan><tspan x="50.14" y="157.87">euismod,</tspan><tspan x="85.29" y="157.87" style="letter-spacing:-0.015463849413719007em"> </tspan><tspan x="87.12" y="157.87">velit</tspan><tspan x="103.49" y="157.87" style="letter-spacing:-0.015571237256869833em"> </tspan><tspan x="105.32" y="157.87">orci</tspan><tspan x="119.71" y="157.87" style="letter-spacing:-0.015571237256869833em"> </tspan><tspan x="121.54" y="157.87">interdum</tspan><tspan x="156.92" y="157.87" style="letter-spacing:-0.015463849413719007em"> </tspan><tspan x="158.75" y="157.87">elit,</tspan><tspan x="173.03" y="157.87" style="letter-spacing:-0.015571237256869833em"> </tspan><tspan x="174.86" y="157.87">non</tspan><tspan x="189.79" y="157.87" style="letter-spacing:-0.015571237256869833em"> </tspan><tspan x="191.62" y="157.87">biben</tspan><tspan x="213.3" y="157.87">-</tspan><tspan x="0" y="169.14">dum</tspan><tspan x="17.32" y="169.14" style="letter-spacing:0.07807096197065082em"> </tspan><tspan x="20" y="169.14">leo</tspan><tspan x="31.83" y="169.14" style="letter-spacing:0.07817834981380165em"> </tspan><tspan x="34.51" y="169.14">elit</tspan><tspan x="46.51" y="169.14" style="letter-spacing:0.07807096197065082em"> </tspan><tspan x="49.19" y="169.14">ut</tspan><tspan x="57.32" y="169.14" style="letter-spacing:0.07817834981380165em"> </tspan><tspan x="60.01" y="169.14">augue.</tspan><tspan x="86.08" y="169.14" style="letter-spacing:0.07807096197065082em"> </tspan><tspan x="88.76" y="169.14">Cras</tspan><tspan x="105.25" y="169.14" style="letter-spacing:0.07817834981380165em"> </tspan><tspan x="107.93" y="169.14">vehicula</tspan><tspan x="139.4" y="169.14" style="letter-spacing:0.07807096197065082em"> </tspan><tspan x="142.08" y="169.14">et</tspan><tspan x="150.01" y="169.14" style="letter-spacing:0.07817834981380165em"> </tspan><tspan x="152.69" y="169.14">justo</tspan><tspan x="171.7" y="169.14" style="letter-spacing:0.07807096197065082em"> </tspan><tspan x="174.38" y="169.14">id</tspan><tspan x="181.36" y="169.14" style="letter-spacing:0.07817834981380165em"> </tspan><tspan x="184.04" y="169.14">sollicitu</tspan><tspan x="213.3" y="169.14">-</tspan><tspan x="0" y="180.42">din. Aliquam non mi urna. Morbi ipsum nisl, sagittis et ex </tspan><tspan x="0" y="191.7">in,</tspan><tspan x="9.2" y="191.7" style="letter-spacing:0.3603936016141735em"> </tspan><tspan x="14.44" y="191.7">placerat</tspan><tspan x="45.77" y="191.7" style="letter-spacing:0.36050098945732434em"> </tspan><tspan x="51.02" y="191.7">scelerisque</tspan><tspan x="93.96" y="191.7" style="letter-spacing:0.3603936016141735em"> </tspan><tspan x="99.21" y="191.7">nibh.</tspan><tspan x="118.38" y="191.7" style="letter-spacing:0.36050098945732434em"> </tspan><tspan x="123.63" y="191.7">Sed</tspan><tspan x="137.95" y="191.7" style="letter-spacing:0.3603936016141735em"> </tspan><tspan x="143.2" y="191.7">consequat</tspan><tspan x="183.44" y="191.7" style="letter-spacing:0.36050098945732434em"> </tspan><tspan x="188.69" y="191.7">rutrum </tspan><tspan x="0" y="202.97">metus</tspan><tspan x="24.06" y="202.97" style="letter-spacing:0.1961975894365599em"> </tspan><tspan x="27.81" y="202.97">sit</tspan><tspan x="36.87" y="202.97" style="letter-spacing:0.19630497727971072em"> </tspan><tspan x="40.62" y="202.97">amet</tspan><tspan x="60.46" y="202.97" style="letter-spacing:0.1961975894365599em"> </tspan><tspan x="64.22" y="202.97">mollis.</tspan><tspan x="88.99" y="202.97" style="letter-spacing:0.19630497727971072em"> </tspan><tspan x="92.75" y="202.97">Aliquam</tspan><tspan x="124.25" y="202.97" style="letter-spacing:0.1961975894365599em"> </tspan><tspan x="128.01" y="202.97">blandit</tspan><tspan x="154.78" y="202.97" style="letter-spacing:0.19630497727971072em"> </tspan><tspan x="158.54" y="202.97">dui</tspan><tspan x="170.39" y="202.97" style="letter-spacing:0.1961975894365599em"> </tspan><tspan x="174.15" y="202.97">dolor,</tspan><tspan x="196.91" y="202.97" style="letter-spacing:0.1961975894365599em"> </tspan><tspan x="200.66" y="202.97">non </tspan><tspan x="0" y="214.25">sollicitudin</tspan><tspan x="41.17" y="214.25" style="letter-spacing:0.17461263296324378em"> </tspan><tspan x="44.73" y="214.25">lorem</tspan><tspan x="67.22" y="214.25" style="letter-spacing:0.17472002080639462em"> </tspan><tspan x="70.79" y="214.25">dapibus</tspan><tspan x="101.02" y="214.25" style="letter-spacing:0.17461263296324378em"> </tspan><tspan x="104.58" y="214.25">eget.</tspan><tspan x="124.37" y="214.25" style="letter-spacing:0.17472002080639462em"> </tspan><tspan x="127.93" y="214.25">Phasellus</tspan><tspan x="163.67" y="214.25" style="letter-spacing:0.17461263296324378em"> </tspan><tspan x="167.23" y="214.25">varius</tspan><tspan x="189.95" y="214.25" style="letter-spacing:0.17461263296324378em"> </tspan><tspan x="193.5" y="214.25">libero </tspan><tspan x="0" y="225.53">metus,</tspan><tspan x="26.35" y="225.53" style="letter-spacing:0.7181025071495764em"> </tspan><tspan x="34.85" y="225.53">sit</tspan><tspan x="43.9" y="225.53" style="letter-spacing:0.7179951193064256em"> </tspan><tspan x="52.41" y="225.53">amet</tspan><tspan x="72.25" y="225.53" style="letter-spacing:0.7181025071495764em"> </tspan><tspan x="80.75" y="225.53">rutrum</tspan><tspan x="107.65" y="225.53" style="letter-spacing:0.7181025071495764em"> </tspan><tspan x="116.15" y="225.53">dolor</tspan><tspan x="136.62" y="225.53" style="letter-spacing:0.7179951193064256em"> </tspan><tspan x="145.12" y="225.53">consectetur</tspan><tspan x="191.1" y="225.53" style="letter-spacing:0.7181025071495764em"> </tspan><tspan x="199.61" y="225.53">nec. </tspan><tspan x="0" y="236.8">Suspendisse vel mattis eros.</tspan></tspan><tspan style="font-weight:700"><tspan x="0" y="259.35">Lorem ipsum </tspan></tspan></text><text transform="translate(38.56 237.25)" style="font-size:6.062530040740967px;font-family:Candara, Candara">m pulvinar vitae. Phasellus <tspan x="0" y="7.27">porta egestas condimen</tspan><tspan x="61.83" y="7.27">-</tspan><tspan x="0" y="14.55">tum. Vivamus laoreet ipsum </tspan><tspan x="0" y="21.83">n</tspan></text><text transform="translate(38.56 292.23)" style="font-size:6.062530040740967px;font-family:Candara, Candara"><tspan style="fill:#5980bb">Teléfonos</tspan><tspan x="0" y="7.27">+00 000 00 00 00</tspan><tspan style="fill:#5980bb"><tspan x="0" y="21.83">Correo electrónico</tspan></tspan><tspan x="0" y="29.1">info@yourlogo.net</tspan></text><path d="M334.74,27.54C325.9,22.33,317.25,28.3,307,34c-9.56,5.34-19,10.6-29.51,13.33-6.23,1.62-14,2.76-19.4-1.8-6.09-5.1-8.75-18.52,3.57-19.17a2.73,2.73,0,0,0,2-4.36c-6.27-8.72-20.32-4-26,3.79-13.84,19.06-1.82,33.21,7,39.92,11.59,8.86,32,0,43.58-8C301.73,48.3,316,30.37,331.34,30.82A36,36,0,0,1,334.74,27.54Z" style="fill:#cacaca"/><path d="M383.19,29.58c-13.9-13-34.61-13.7-48.45-2a36,36,0,0,0-3.4,3.28,37.56,37.56,0,0,0-3.53,4.51c-11.85,17.83.83,48.2,25.06,43.2,19.53-4,20.49-37-.4-37.31a2.42,2.42,0,0,0-1.55,4.36c4.74,4.11,8.74,19.15-3.84,16.48-3.91-.83-7.58-5.93-8.79-9.43-4.52-13.08,5.34-26.92,18.87-27.8C368,24.13,378,29.71,384.8,38a56.64,56.64,0,0,1,7,12.71V41.89C388.93,36.45,385.57,31.81,383.19,29.58Z" style="fill:#4070b7"/><path d="M391.84,69.05a7.64,7.64,0,0,1-2.2,1.3.84.84,0,0,0,.53,1.58,13,13,0,0,0,1.68-.59Z" style="fill:#4070b7"/><path d="M312.92,53.78a61.77,61.77,0,0,1-21.29,16.5c-6.74,3.11-15.45,4.75-19.86,11.27a3.94,3.94,0,0,0,1,5.34c8.37,6.92,20.06-1.39,26.31-7.29a68.72,68.72,0,0,0,16.61-24.4C316.38,53.45,314,52.5,312.92,53.78Z" style="fill:#4070b7"/><path d="M315.09,66.55c-7.61,12.35-1.41,37.56,12.6,36.36,10.22-.87,8-10,5.52-11.95a41.35,41.35,0,0,1-14.53-23.66C318.33,65.72,316,65,315.09,66.55Z"/><path d="M391.5,4.12A28.64,28.64,0,0,0,385.92,0H355.4c-1.75,2.5-.39,5.35,1.18,5.89C365.78,9.07,376,8.52,384.19,15a33.52,33.52,0,0,1,7.65,9.25V4.46Z" style="fill:#cacaca"/><path d="M147.14,488.46c-11.59-8.86-32,0-43.58,8-13.45,9.38-27.73,27.31-43.06,26.85a36,36,0,0,1-3.4,3.28c8.83,5.21,17.48-.76,27.69-6.46,9.56-5.34,19-10.6,29.51-13.33,6.23-1.62,14-2.76,19.4,1.8,6.09,5.1,8.75,18.52-3.57,19.17a2.73,2.73,0,0,0-2,4.36c6.27,8.72,20.32,4,26-3.79C168,509.33,155.95,495.18,147.14,488.46Z" style="fill:#cacaca"/><path d="M1.68,482.24a13.05,13.05,0,0,0-1.68.59v2.29a7.64,7.64,0,0,1,2.2-1.3A.84.84,0,0,0,1.68,482.24Z" style="fill:#4070b7"/><path d="M60.5,523.35A37.51,37.51,0,0,0,64,518.84c11.85-17.83-.83-48.2-25.06-43.2-19.53,4-20.49,37,.4,37.31a2.42,2.42,0,0,0,1.55-4.36c-4.74-4.11-8.74-19.15,3.84-16.48,3.91.83,7.58,5.93,8.79,9.43,4.52,13.08-5.34,26.92-18.87,27.8C23.86,530,13.81,524.47,7,516.21A56.6,56.6,0,0,1,0,503.5v8.79c2.91,5.43,6.27,10.08,8.66,12.31,13.9,13,34.61,13.7,48.45,2A36,36,0,0,0,60.5,523.35Z" style="fill:#4070b7"/><path d="M78.92,500.4a61.78,61.78,0,0,1,21.29-16.5c6.74-3.11,15.45-4.75,19.86-11.27a3.94,3.94,0,0,0-1-5.34c-8.37-6.92-20.06,1.39-26.31,7.29A68.72,68.72,0,0,0,76.17,499C75.47,500.73,77.84,501.68,78.92,500.4Z" style="fill:#4070b7"/><path d="M64.15,451.26c-10.22.87-8,10-5.52,11.95a41.35,41.35,0,0,1,14.53,23.66c.35,1.59,2.66,2.27,3.59.75C84.36,475.27,78.15,450.07,64.15,451.26Z"/><path d="M35.26,548.29c-9.2-3.18-19.45-2.63-27.61-9.13A33.53,33.53,0,0,1,0,529.91v19.81l.34.35a28.65,28.65,0,0,0,5.59,4.12H36.45C38.19,551.68,36.83,548.83,35.26,548.29Z" style="fill:#cacaca"/><text transform="translate(264.56 526.52)" style="font-size:7.89546012878418px;fill:#5980bb;font-family:ArialMT, Arial">www.paginaweb.com</text><circle cx="61.48" cy="96.03" r="14.03" style="fill:none;stroke:#000;stroke-miterlimit:10;stroke-width:1.57074px"/><circle cx="61.48" cy="82.2" r="14.02" style="fill:none;stroke:#000;stroke-miterlimit:10;stroke-width:1.57074px"/><circle cx="54.57" cy="89.12" r="14.03" style="fill:none;stroke:#000;stroke-miterlimit:10;stroke-width:1.57074px"/><circle cx="68.4" cy="89.12" r="14.03" style="fill:none;stroke:#000;stroke-miterlimit:10;stroke-width:1.57074px"/><text transform="translate(89.29 95.37)" style="font-size:16.584060668945312px;font-family:Arial-BoldMT, Arial;font-weight:700">YOUR LOGO</text></g></g></svg>