<?xml version="1.0" encoding="utf-8"?>
<!-- Generator: Adobe Illustrator 21.0.0, SVG Export Plug-In . SVG Version: 6.00 Build 0)  -->
<svg version="1.1" id="Layer_1" xmlns="http://www.w3.org/2000/svg" xmlns:xlink="http://www.w3.org/1999/xlink" x="0px" y="0px"
	 viewBox="0 0 25.7 25.7" style="enable-background:new 0 0 25.7 25.7;" xml:space="preserve">
<style type="text/css">
	.st0{opacity:0.1;}
	.st1{fill:#FFFFFF;}
</style>
<g>
	<path class="st0" d="M17.8,24.9c-2.5,0-4.6-2.1-4.6-4.6c0-0.3,0-0.6,0.1-1l-4.5-2.5c-0.8,0.5-1.7,0.8-2.5,0.8
		c-2.5,0-4.6-2.1-4.6-4.6s2.1-4.6,4.6-4.6c0.9,0,1.8,0.3,2.5,0.7l4.6-2.5c-0.1-0.4-0.2-0.9-0.2-1.4c0-2.5,2.1-4.6,4.6-4.6
		c2.5,0,4.6,2.1,4.6,4.6c0,2.5-2.1,4.6-4.6,4.6c-0.8,0-1.5-0.2-2.1-0.5l-4.9,2.7c0,0.3,0.1,0.5,0.1,0.9c0,0.3,0,0.5-0.1,0.8l4.5,2.5
		c0.7-0.4,1.5-0.6,2.4-0.6c2.6,0,4.6,2,4.6,4.6C22.4,22.9,20.5,24.9,17.8,24.9z"/>
	<path class="st1" d="M17.8,24c-2.1,0-3.7-1.7-3.7-3.7c0-0.4,0.1-0.8,0.3-1.3c0-0.1,0-0.2-0.1-0.2l-5.5-3H8.8H8.7
		c-0.7,0.6-1.5,0.9-2.4,0.9c-2.1,0-3.7-1.7-3.7-3.7c0-2.1,1.7-3.7,3.7-3.7c0.8,0,1.7,0.3,2.4,0.8h0.1h0.1l5.5-3.1
		c0.1-0.1,0.1-0.2,0.1-0.3c-0.3-0.5-0.4-1-0.4-1.6c0-2.1,1.7-3.7,3.7-3.7c2.1,0,3.7,1.7,3.7,3.7s-1.7,3.7-3.7,3.7
		c-0.8,0-1.4-0.2-2-0.6h-0.1h-0.1l-5.7,3.2c-0.1,0-0.1,0.1-0.1,0.2C9.9,12.1,10,12.5,10,13c0,0.4-0.1,0.8-0.2,1.1
		c0,0.1,0,0.2,0.1,0.2l5.5,3h0.1h0.1c0.7-0.6,1.4-0.8,2.3-0.8c2.1,0,3.7,1.6,3.7,3.7C21.5,22.4,19.9,24,17.8,24z"/>
</g>
</svg>
