<svg xmlns="http://www.w3.org/2000/svg" viewBox="0 0 256.43 131.27"><title>8.1</title><g id="Layer_2" data-name="Layer 2"><g id="Layer_1-2" data-name="Layer 1"><rect x="0.21" y="0.21" width="256.02" height="130.85" style="fill:#fff;stroke:#272425;stroke-width:0.41500000000000004px"/><circle cx="185.84" cy="110.91" r="6.39" style="fill:none;stroke:#000;stroke-miterlimit:10;stroke-width:0.7159179999999999px"/><circle cx="185.84" cy="104.61" r="6.39" style="fill:none;stroke:#000;stroke-miterlimit:10;stroke-width:0.7159179999999999px"/><circle cx="182.69" cy="107.76" r="6.39" style="fill:none;stroke:#000;stroke-miterlimit:10;stroke-width:0.7159179999999999px"/><circle cx="188.99" cy="107.76" r="6.39" style="fill:none;stroke:#000;stroke-miterlimit:10;stroke-width:0.7159179999999999px"/><text transform="translate(198.51 110.61)" style="font-size:7.558760166168213px;font-family:Arial-BoldMT, Arial;font-weight:700">YOUR LOGO</text><polygon points="98.65 110.22 82.84 110.22 125.97 130.22 141.78 130.22 98.65 110.22" style="fill:#5980bb"/><polygon points="62.86 110.22 47.05 110.22 90.18 130.22 105.99 130.22 62.86 110.22" style="fill:#5980bb"/><polygon points="54.38 130.22 70.2 130.22 27.07 110.22 11.26 110.22 54.38 130.22" style="fill:#5980bb"/><polygon points="135.46 110.22 119.65 110.22 162.77 130.22 178.58 130.22 135.46 110.22" style="fill:#5980bb"/><polygon points="18.56 130.22 34.4 130.22 1.49 114.94 5.15 124.14 18.56 130.22" style="fill:#5980bb"/></g></g></svg>