<svg xmlns="http://www.w3.org/2000/svg" viewBox="0 0 255.12 142"><title>Asset 1</title><g id="Layer_2" data-name="Layer 2"><g id="Layer_1-2" data-name="Layer 1"><rect y="0.13" width="255.12" height="141.73" style="fill:#fff"/><polygon points="209.96 44.37 181.57 0.46 241.89 0.46 209.96 44.37"/><polygon points="184.57 142 214.48 89.16 255.12 141.73 184.57 142" style="fill:#3f81bf"/><polygon points="209.57 43.91 181.18 0 241.5 0 209.57 43.91"/><polygon points="255 17.6 255 0 226.04 0 145.92 142 184.57 142 255 17.6" style="fill:#cacaca"/><text transform="translate(31.3 56.43)" style="font-size:16px;font-family:ArialMT, Arial">Jhon <tspan x="39.14" y="0" style="font-family:Arial-BoldMT, Arial;font-weight:700">Smith</tspan></text><text transform="translate(45.35 86.62)" style="font-size:7px;font-family:ArialMT, Arial">+00 000 00 00 00</text><text transform="translate(45.35 97.4)" style="font-size:7px;font-family:ArialMT, Arial">info@yourlogo.net</text><text transform="translate(45.35 108.41)" style="font-size:7px;font-family:ArialMT, Arial">www.paginaweb.com</text><path d="M38.68,85.21a.24.24,0,0,1-.07.2l-.68.67a.37.37,0,0,1-.12.09l-.15,0h-.1l-.31,0a2.37,2.37,0,0,1-.53-.16,4.57,4.57,0,0,1-.71-.39,5.36,5.36,0,0,1-.85-.71,5.52,5.52,0,0,1-.59-.67,4.62,4.62,0,0,1-.38-.59,3.24,3.24,0,0,1-.21-.49,2.44,2.44,0,0,1-.1-.38,1.21,1.21,0,0,1,0-.25v-.1a.49.49,0,0,1,0-.15.37.37,0,0,1,.09-.12l.68-.68a.23.23,0,0,1,.16-.07.19.19,0,0,1,.12,0,.34.34,0,0,1,.09.09l.54,1a.24.24,0,0,1,0,.18.31.31,0,0,1-.09.16l-.25.25,0,0v0a1,1,0,0,0,.09.25,2.22,2.22,0,0,0,.19.3,3.35,3.35,0,0,0,.36.4,3.5,3.5,0,0,0,.41.37,2.48,2.48,0,0,0,.3.19l.18.07h.1l0,0,.29-.3a.32.32,0,0,1,.21-.08.26.26,0,0,1,.14,0h0l1,.58a.26.26,0,0,1,.13.17" style="fill:#3f81bf"/><path d="M38.24,97.45H34.32a.79.79,0,0,1-.79-.79V94.28a.79.79,0,0,1,.79-.79h3.93a.79.79,0,0,1,.79.79v2.38a.79.79,0,0,1-.79.79m-3.93-3.61a.44.44,0,0,0-.44.44v2.38a.44.44,0,0,0,.44.44h3.93a.44.44,0,0,0,.43-.44V94.28a.43.43,0,0,0-.43-.44Z" style="fill:#3f81bf"/><rect x="33.62" y="96.21" width="2.5" height="0.35" transform="translate(-58.08 53.17) rotate(-45.17)" style="fill:#3f81bf"/><rect x="37.64" y="95.18" width="0.35" height="2.21" transform="translate(-57.02 54.97) rotate(-45.02)" style="fill:#3f81bf"/><polygon points="36.38 96.32 33.72 93.94 33.95 93.68 36.38 95.85 38.69 93.79 38.92 94.06 36.38 96.32" style="fill:#3f81bf"/><path d="M38.87,106.25a2.59,2.59,0,0,0-2.42-2.42h-.35a2.6,2.6,0,0,0-2.42,2.42h0v.34h0A2.6,2.6,0,0,0,36.11,109h.35a2.59,2.59,0,0,0,2.42-2.42h0v-.34Zm-3.56-1.86a2.72,2.72,0,0,0-.41.82h-.52a2.25,2.25,0,0,1,.93-.82Zm-1.11,1.16h.61a4.22,4.22,0,0,0-.09.69H34a2.25,2.25,0,0,1,.17-.69Zm-.17,1h.69a4.17,4.17,0,0,0,.09.69H34.2a2.23,2.23,0,0,1-.17-.69Zm.35,1h.52a2.75,2.75,0,0,0,.41.82,2.26,2.26,0,0,1-.93-.82Zm1.72,1a1.46,1.46,0,0,1-.85-1h.85Zm0-1.36h-.95a3.74,3.74,0,0,1-.09-.69h1Zm0-1h-1a3.77,3.77,0,0,1,.09-.69h.95Zm0-1h-.85a1.46,1.46,0,0,1,.85-1Zm2.07,0h-.52a2.7,2.7,0,0,0-.41-.82,2.24,2.24,0,0,1,.93.82Zm-1.72-1a1.45,1.45,0,0,1,.85,1h-.85Zm0,1.36h.95a3.94,3.94,0,0,1,.09.69h-1Zm0,1h1a3.82,3.82,0,0,1-.09.69h-.95Zm0,2.06v-1h.85a1.46,1.46,0,0,1-.85,1Zm.8-.2a2.77,2.77,0,0,0,.41-.82h.52a2.25,2.25,0,0,1-.93.82Zm1.11-1.17h-.61a4.19,4.19,0,0,0,.09-.69h.69a2.23,2.23,0,0,1-.17.69Zm-.52-1a4.23,4.23,0,0,0-.09-.69h.61a2.25,2.25,0,0,1,.17.69Zm0,0" style="fill:#3f81bf"/></g></g></svg>