<?xml version="1.0" encoding="UTF-8"?>
<svg width="35px" height="35px" viewBox="0 0 35 35" version="1.1" xmlns="http://www.w3.org/2000/svg" xmlns:xlink="http://www.w3.org/1999/xlink">
    <!-- Generator: Sketch 45.1 (43504) - http://www.bohemiancoding.com/sketch -->
    <title>Twitter</title>
    <desc>Created with Sketch.</desc>
    <defs></defs>
    <g id="Iconos" stroke="none" stroke-width="1" fill="none" fill-rule="evenodd">
        <g id="Redes-sociales" transform="translate(-590.000000, -93.000000)">
            <g id="rrss" transform="translate(540.000000, 93.000000)">
                <g id="Twitter" transform="translate(50.000000, 0.000000)">
                    <path d="M17.5,35 C7.835,35 0,27.165 0,17.5 C0,7.835 7.835,0 17.5,0 C27.165,0 35,7.835 35,17.5 C35,27.165 27.165,35 17.5,35 L17.5,35 Z" id="Shape" fill="#00ACED"></path>
                    <path d="M24.69,11.277 C23.905,10.491 22.784,10.001 21.545,10.001 C19.165,10.001 17.234,11.809 17.234,14.04 C17.234,14.357 17.272,14.666 17.346,14.96 C13.764,14.792 10.588,13.184 8.462,10.74 C8.092,11.337 7.879,12.03 7.879,12.771 C7.879,14.172 8.64,15.409 9.796,16.133 C9.09,16.112 8.426,15.931 7.844,15.628 L7.844,15.679 C7.844,17.636 9.329,19.269 11.301,19.639 C10.94,19.732 10.559,19.78 10.166,19.78 C9.888,19.78 9.618,19.756 9.355,19.71 C9.903,21.313 11.495,22.481 13.381,22.514 C11.906,23.597 10.048,24.243 8.028,24.243 C7.68,24.243 7.337,24.224 7,24.187 C8.907,25.332 11.173,26.001 13.607,26.001 C21.535,26.001 25.87,19.845 25.87,14.509 C25.87,14.333 25.865,14.159 25.857,13.985 C26.699,13.415 27.43,12.705 28.008,11.895 C27.235,12.217 26.404,12.433 25.533,12.531 C26.423,12.03 27.106,11.239 27.428,10.297 C26.594,10.759 25.672,11.095 24.69,11.277 Z" id="Path" fill="#FFFFFF"></path>
                </g>
            </g>
        </g>
    </g>
</svg>