<?xml version="1.0" encoding="utf-8"?>
<!-- Generator: Adobe Illustrator 18.1.1, SVG Export Plug-In . SVG Version: 6.00 Build 0)  -->
<svg version="1.1" id="Layer_1" xmlns="http://www.w3.org/2000/svg" xmlns:xlink="http://www.w3.org/1999/xlink" x="0px" y="0px"
	 viewBox="0 0 200 200" enable-background="new 0 0 200 200" xml:space="preserve">
<g>
	<path fill="#FFFFFF" d="M93.7,128.4l0.6,0.1c0.1,0,0.3-0.2,0.4-0.2c12.9,0.3,17.9,13.7,19.2,23.7h40.9l-29.6-47h-19L93.7,128.4z"/>
	<path fill="#5980B7" d="M71.1,157.8c-0.3-0.7-0.6-1.2-0.9-1.9c-0.1,0.9,0.1,1.6,0.5,2.4c0.7,1.2,2,1.8,3.4,1.8h0.6
		C73.2,160,71.7,159.3,71.1,157.8z"/>
	<path fill="#FFFFFF" d="M106.6,97h18l9.2-25c-2-1.5-4-2.2-6-2.2c-4.9,0-8.6,4.5-8.7,4.6c-0.7,0.8-1.7,1.4-2.8,1.5s-2.2-0.3-3-1
		c-3.9-3.6-7.5-5.5-10.5-5.5c-2.8,0-4.8,1.5-5.8,2.8L106.6,97z"/>
	<path fill="#FFFFFF" d="M94.7,136.3L82,137.4c-1.7,0.1-3.4-0.8-4-2.5c-0.1-0.3-11.5-28.6-34.6-35c-1.2,2.5-2.4,6.8-0.2,12.5
		c6.8,2.7,22,11.5,34.3,39.5h3.5h24.9C104.8,147,102.1,136.7,94.7,136.3z"/>
	<path fill="#5980B7" d="M165.5,154.4L131.8,101l10.4-28.6c0.5-1.5,0.2-3.1-0.9-4.2c-2-2-4.4-3.6-6.4-4.6V43.3c0-2.1-1.8-3.8-4-3.8
		s-4,1.7-4,3.8v18.6c-5,0.2-8.6,2.6-11.1,4.6c-3.7-2.9-7.9-4.5-10.9-5V43.3c0-2.1-1.8-3.8-4-3.8s-4,1.7-4,3.8v19.2
		c-5,2.4-7.9,7.3-8,7.5c-0.5,1-0.6,2.2-0.2,3.2l10.6,27.9l-15.1,28.2l0,0c-3.9-8.4-17.3-33.1-42-37.8c-1.4-0.3-2.9,0.3-3.8,1.4
		c-0.3,0.4-7.2,9-3.1,21.3c-0.2,0.4-0.2,0.9-0.2,1.4v40.9c0,2.2,1.8,4,4,4s4-1.8,4-4v-35.1c6,3.4,17.5,12.2,27.3,34.6
		c0.3,0.7,0.6,1.1,0.9,1.8c0.6,1.5,2.1,2.2,3.7,2.2h35.5h51.8c1.5,0,2.8-0.5,3.5-1.8C166.3,156.9,166.3,155.6,165.5,154.4z M97,72.1
		c1-1.3,3-3,5.8-3c3,0,6.6,2,10.5,5.6c0.8,0.7,1.9,1.1,3,1.1s2.1-0.6,2.8-1.4c0,0,3.8-4.5,8.7-4.5c2,0,4,0.5,6,2.1L124.6,97h-18
		L97,72.1z M80.9,152h-3.5c-12.2-28-27.5-36.7-34.3-39.5c-2.3-5.7-1-10.2,0.2-12.6c23.1,6.3,34.5,34.8,34.6,35.1
		c0.6,1.6,2.3,2.7,4,2.6l12.7-1.2c7.4,0.3,10.1,10.7,11.1,15.7H80.9z M114,152c-1.3-10-6.4-23.4-19.2-23.7c-0.1,0-0.3,0.1-0.4,0.1
		l-0.6-0.1l12.4-23.3h19l29.6,47H114z"/>
	<path fill="#CCCCCC" d="M67,75.7c0.5,0.8,1.7,1.2,3.6,1.2c1.3,0,2.9-0.2,3.4-1.1c1.2-2.2-0.8-8.2-3.9-14.1
		C67.5,67.1,65.6,73.2,67,75.7z"/>
	<path fill="#CCCCCC" d="M43.5,75.7c0.5,0.8,1.7,1.2,3.6,1.2c1.3,0,2.9-0.2,3.4-1.1c1.2-2.2-0.8-8.2-3.9-14.1
		C44,67.1,42.1,73.2,43.5,75.7z"/>
	<g>
		<path fill="#5980B7" d="M73.1,52.5c1.2-1,2.1-2.5,2.1-4.1c0-2.9-2.4-5.3-5.3-5.3c-2.9,0-5.3,2.4-5.3,5.3c0,1.7,0.8,3.2,2.1,4.2
			c-2,3.2-10.8,18.4-6.1,26.8c1.3,2.3,4.1,5,10.1,5c6,0,8.7-2.7,9.9-5C84.9,71,75.4,55.9,73.1,52.5z M74,75.9
			c-0.5,0.9-2.1,1.1-3.4,1.1c-2,0-3.2-0.4-3.6-1.2c-1.4-2.5,0.5-8.5,3.1-13.9C73.2,67.6,75.2,73.6,74,75.9z"/>
		<path fill="#5980B7" d="M51.6,48.3c0-2.9-2.4-5.3-5.3-5.3s-5.3,2.4-5.3,5.3c0,1.7,0.8,3.2,2.1,4.2c-2,3.2-10.8,18.4-6.1,26.8
			c1.3,2.3,4.1,5,10.1,5c6,0,8.7-2.7,9.9-5c4.4-8.3-5.1-23.4-7.4-26.9C50.8,51.5,51.6,50,51.6,48.3z M50.5,75.9
			c-0.5,0.9-2.1,1.1-3.4,1.1c-2,0-3.2-0.4-3.6-1.2c-1.4-2.5,0.5-8.5,3.1-13.9C49.7,67.6,51.7,73.6,50.5,75.9z"/>
	</g>
</g>
</svg>
