<?xml version="1.0" encoding="utf-8"?>
<!-- Generator: Adobe Illustrator 18.1.1, SVG Export Plug-In . SVG Version: 6.00 Build 0)  -->
<svg version="1.1" id="Layer_1" xmlns="http://www.w3.org/2000/svg" xmlns:xlink="http://www.w3.org/1999/xlink" x="0px" y="0px"
	 viewBox="0 0 200 200" enable-background="new 0 0 200 200" xml:space="preserve">
<g>
	<path fill="#CCCCCC" d="M169.9,138c-2.4-6-9.6-15.7-30-15.7c-10.5,0-18.4,2.5-23.3,7.5c-1.8,1.8-2.9,3.7-3.7,5.5
		c-0.2,0.9-0.4,1.7-0.8,2.7H169.9z"/>
	<path fill="#5980B7" d="M153.6,92C153.6,92,153.6,92,153.6,92c8,0,19.2-3.3,27.1-19.6l1.4-2.8l-2.8-1.8c-0.3-0.2-7-4.4-15.6-4.4
		c-6.8,0-16,2.6-23.4,14.1C133,66,123.8,63.4,117,63.4c-3.6,0-6.8,0.7-9.4,1.6c-1-1.9-2.1-3.6-3.4-5.2c2.8-4.3,4.9-6.8,5-6.9
		c1.3-1.5,1.2-3.9-0.4-5.2c-1.5-1.3-3.9-1.2-5.2,0.4c-0.3,0.3-2.2,2.5-4.7,6.2c-5.5-4.7-12.3-7.4-19.7-7.4c-7.8,0-14.7,2.5-20.1,7
		c-2.3-3.4-4-5.4-4.3-5.7c-1.3-1.5-3.7-1.7-5.2-0.4c-1.5,1.3-1.7,3.7-0.4,5.2c0.1,0.1,2,2.4,4.6,6.3c-1.1,1.4-2.1,3-3,4.6
		c-1.5-0.3-3.2-0.5-4.9-0.5c-7.9,0-18.9,3.5-26.7,20.2l-1.4,3l2.9,1.7C21,88.4,27.4,92,35.8,92c0,0,0,0,0,0c3.1,0,6.7-0.5,10.4-2.1
		c0.6,7.4,2.3,12.3,3.8,16.4c2,5.7,3.1,8.9,0.1,15.5l-1.4,3c-1.5,2.4-2.4,5-2.4,7.8c0,11.6,14.7,20.6,33.4,20.6
		c10.7,0,20.1-2.9,26.2-7.6c0.4,0.2,0.9,0.3,1.4,0.3h67.8c1.1,0,2.2-0.5,3-1.3s1.3-2,1.2-3.1c0-0.3-3.3-25.4-35.3-27.2V90.3
		C146,91.1,149.7,92,153.6,92z M163.8,70.8c3.4,0,6.4,0.9,8.6,1.8c-4.9,8.2-11.1,12.4-18.7,12.4c0,0,0,0,0,0c-3.2,0-6.1-0.8-8.1-1.6
		C150.2,75.1,156.4,70.8,163.8,70.8z M46.1,81.9c-3.1,2-6.5,3.1-10.3,3.1c0,0,0,0,0,0c-3.2,0-6.1-0.8-8.1-1.6
		c4.8-8.4,10.9-12.6,18.3-12.6c0.7,0,1.4,0.1,2,0.1C46.9,74.3,46.3,78,46.1,81.9z M135.7,86.5L135.7,86.5L135.7,86.5L135.7,86.5z
		 M117,70.8c7.4,0,13.5,4.2,18.3,12.6c-2,0.7-4.9,1.5-8.1,1.5c-5.9,0-11.1-2.5-15.3-7.6c-0.3-1.9-0.8-3.7-1.4-5.5
		C112.4,71.2,114.6,70.8,117,70.8z M100.2,66.8c3.1,5.1,5,11.4,5,18.2c0,7.7-1.9,12.5-3.7,17.1c-1.6,4.2-3.2,8.2-3,13.5
		c-1.3-0.5-2.6-1-4-1.4C88.3,95.9,94.1,78.4,100.2,66.8z M79.3,54.1c5.9,0,11.4,2.4,15.8,6.4c-6.8,11.9-14.2,31.1-8.8,52
		c-2.1-0.2-4.3-0.4-6.5-0.4c-2.6,0-5.1,0.2-7.6,0.5c5.6-21.2-2.1-40.6-9-52.5C67.5,56.3,73,54.1,79.3,54.1z M58.1,66.3
		c6.2,11.7,12.2,29.5,5.8,48.2c-1.6,0.5-3.1,1.1-4.6,1.8c0.4-4.7-0.9-8.4-2.3-12.5c-1.7-4.7-3.5-10-3.5-18.9
		C53.4,77.7,55.1,71.3,58.1,66.3z M79.7,145.9c-15.3,0-26-7-26-13.2s10.7-13.2,26-13.2s26,7,26,13.2S95.1,145.9,79.7,145.9z
		 M108.4,104.7c1.7-4.3,3.7-9.5,4.1-17c5.2,3.5,10.6,4.5,14.9,4.5c3.2,0,5.6-0.5,8.6-1.2v23.4c-11,0.7-19.2,3.9-24.9,9.8
		c-0.1,0.1-0.3,0.3-0.4,0.4c-1-1.5-2.3-2.9-3.8-4.1C104.9,113.9,106.3,110.2,108.4,104.7z M169.9,138h-57.8c0.4-1,0.6-1.8,0.8-2.7
		c0.8-1.8,2-3.7,3.7-5.5c4.9-5,12.7-7.5,23.3-7.5C160.3,122.3,167.5,132,169.9,138z"/>
</g>
</svg>
