<?xml version="1.0" encoding="utf-8"?>
<!-- Generator: Adobe Illustrator 18.1.1, SVG Export Plug-In . SVG Version: 6.00 Build 0)  -->
<svg version="1.1" id="Layer_1" xmlns="http://www.w3.org/2000/svg" xmlns:xlink="http://www.w3.org/1999/xlink" x="0px" y="0px"
	 viewBox="0 0 200 200" enable-background="new 0 0 200 200" xml:space="preserve">
<g>
	<path fill="#FFFFFF" d="M88.2,95H47.6l9,60H78c-1.4-2-2.2-4.3-2.7-6.7c-0.3-0.5-0.3-1.2-0.3-1.9v-8.9l-9.5-1.2
		c-1.7-0.2-3.1-1.4-3.4-3.1c-0.4-1.6,0.3-3.3,1.7-4.2l11.2-7.4C75.6,111.8,80.6,102,88.2,95z"/>
	<path fill="#FFFFFF" d="M110,81H72.9c-0.3,0-0.6,0.1-0.9,0.1S71.4,81,71.1,81H35v6h8.1h59.3h5.8h1.8V81z"/>
	<path fill="#FFFFFF" d="M124.1,95H124c0.7,2,0,4-1.7,5l-6.4,3.8c-0.6,0.4-1.3,0.6-2,0.6c-1.4,0-2.7-0.7-3.4-1.9
		c-1.1-1.9-0.5-4.4,1.4-5.5L115,95h-0.8h-6C95,95,84.9,108,83,120h66.4C147.4,108,137.3,95,124.1,95z M105.6,111.1
		c-0.8,0.7-1.8,1.1-2.7,1.1c-1,0-2-0.4-2.8-1.2l-4.2-4.3c-1.5-1.6-1.5-4,0.1-5.6c1.6-1.5,4-1.5,5.6,0.1l4.2,4.3
		C107.2,107.1,107.2,109.6,105.6,111.1z M142.2,110.2c-0.5,1.7-2.1,2.8-3.8,2.8c-0.4,0-0.8-0.1-1.2-0.2l-6.9-2.1
		c-2.1-0.6-3.2-2.8-2.6-4.9s2.8-3.2,4.9-2.6l6.9,2.1C141.7,105.9,142.8,108.1,142.2,110.2z"/>
	<path fill="#FFFFFF" d="M93.3,155H139c3.6,0,6.8-2,8.7-5H84.5C86.5,153,89.7,155,93.3,155z"/>
	<polygon fill="#CCCCCC" points="150,139.3 119.7,143 150,143 	"/>
	<polygon fill="#CCCCCC" points="83,143 113.2,143 83,138.5 	"/>
	<polygon fill="#FFFFFF" points="152.5,128 79.9,128 77.1,129.8 116.2,134.8 156.7,130.5 	"/>
	<g>
		<path fill="#5980B7" d="M171,129.8l-13.6-8.2l-1.8-1.1l1.8,0.9c-1.3-16.7-15.1-34.4-33.3-34.4h-6H118V76.9c0-2.2-1.6-3.9-3.8-3.9
			H76v-0.6V55.6l22-8l6.9-2.5c2.1-0.8,3.2-3,2.4-5.1c-0.8-2.1-3-3.1-5.1-2.4L70.7,49c-1.6,0.6-2.7,2.1-2.7,3.8V73H31.2
			C29,73,27,74.7,27,76.9v14.4c0,2.2,2,3.7,4.2,3.7h8.5l9.7,64.3c0.3,1.9,1.9,3.7,3.9,3.7h37.7c-5.3-1-9.9-4-12.8-8H56.6l-9-60h40.6
			c5.5-5,12.3-8,19.9-8h-5.8H43.1H35v-6h36.1c-0.1,0-0.3-0.2-0.4-0.3c0.1,0,0.3,0.1,0.4,0.1c0.3,0.1,0.6,0.1,0.9,0.1s0.6,0,0.9-0.1
			c0.1,0,0.3-0.1,0.4-0.1c-0.1,0.1-0.3,0.3-0.4,0.3H110v6h-1.8c-7.6,0-14.4,3.3-19.9,8.1c-7.6,6.7-12.6,16.8-13.4,26.5l1.6-1
			c0.7-0.4,1.4-0.6,2.2-0.6c-0.8,0-1.5,0.2-2.2,0.7l-1.6,1.1L63.7,129c-1.4,0.9-2.1,2.6-1.7,4.2c0.4,1.6,1.7,2.9,3.4,3.1l9.4,1.2
			l0.3,0v8.8c0,0.6,0,1,0.3,1.5c0.6,1.3,1.8,2,3.4,2c-1.5,0-2.9-0.7-3.5-2c0.5,2.4,1.5,4.7,2.9,6.7c2.9,4.2,7.5,7.3,12.8,8
			c0.8,0.1,1.6,0.3,2.4,0.3H139c8.9,0,16.3-6.6,18.1-14.9c-0.6,1.3-2,1.9-3.5,1.9c1.5,0,2.6-0.7,3.2-2c0.3-0.5,0.2-0.9,0.2-1.6v-7.9
			l0.5-0.1l11.9-1.3c1.7-0.2,3.1-1.4,3.5-3.1C173.2,132.4,172.5,130.6,171,129.8z M108.2,95h6h0.8l3.4-1.8c1.9-1.1,4.3-0.5,5.4,1.4
			c0.1,0.2,0.2,0.5,0.2,0.5h0.1c13.1,0,23.3,13,25.2,25H83C84.9,108,95,95,108.2,95z M79.9,128h72.6l4.2,2.5l-40.5,4.3l-39.1-5
			L79.9,128z M139,155H93.3c-3.6,0-6.8-2-8.7-5h63.2C145.8,153,142.6,155,139,155z M150,139.3v3.7h-30.3l-3.1,0.1
			c-0.1,0-0.3-0.1-0.4-0.1c-0.2,0-0.3,0.2-0.5,0.2l-2.5-0.1H83v-4.4l30.1,3.9l2.5,0.3c0.2,0,0.3,0,0.5,0c0.1,0,0.3,0,0.4,0l3.1-0.3
			l30-3.2l3.3-0.4L150,139.3z"/>
		<path fill="#5980B7" d="M101.5,101.3c-1.5-1.6-4-1.6-5.6-0.1c-1.6,1.5-1.6,4-0.1,5.6l4.2,4.3c0.8,0.8,1.8,1.2,2.8,1.2
			c1,0,2-0.4,2.7-1.1c1.6-1.5,1.6-4,0.1-5.6L101.5,101.3z"/>
		<path fill="#5980B7" d="M123.8,94.7c-1.1-1.9-3.5-2.5-5.4-1.4l-3.4,2L112,97c-1.9,1.1-2.5,3.5-1.4,5.4c0.7,1.3,2,2,3.4,2
			c0.7,0,1.3-0.2,2-0.5l6.4-3.7c1.7-1,2.4-3.1,1.7-4.8C123.9,95.1,123.9,94.9,123.8,94.7z"/>
		<path fill="#5980B7" d="M139.6,105.3l-6.9-2.1c-2.1-0.6-4.3,0.5-4.9,2.6s0.5,4.3,2.6,4.9l6.9,2.1c0.4,0.1,0.8,0.2,1.2,0.2
			c1.7,0,3.2-1.1,3.8-2.8C142.8,108.1,141.7,105.9,139.6,105.3z"/>
	</g>
</g>
</svg>
