<?xml version="1.0" encoding="utf-8"?>
<!-- Generator: Adobe Illustrator 18.1.1, SVG Export Plug-In . SVG Version: 6.00 Build 0)  -->
<svg version="1.1" id="Layer_1" xmlns="http://www.w3.org/2000/svg" xmlns:xlink="http://www.w3.org/1999/xlink" x="0px" y="0px"
	 viewBox="0 0 200 200" enable-background="new 0 0 200 200" xml:space="preserve">
<g>
	<path fill="#FFFFFF" d="M100,98.1c-1.3,0-3,0-4-0.1v11c1,0,2.6,0,4,0c1,0,2,0,3,0v-11C102,98.1,101,98.1,100,98.1z"/>
	<path fill="#FFFFFF" d="M89,97.6c-15-1.1-28.2-4.5-36-9.9V94c0.9,2,7,12.5,36,14.7V97.6z"/>
	<path fill="#FFFFFF" d="M111,97.7v11c29-2.1,35.2-13,36-14.9v-6C139,93.4,125,96.7,111,97.7z"/>
	<path fill="#CCCCCC" d="M53.3,76.5c0,1.5,1.2,3.1,3.4,4.7c5.3-2.4,20.7-8.3,46.1-8.3c24,0,36.1,5.3,40.8,8.1
		c2.1-1.6,3.2-3.1,3.2-4.5c0-5.8-18.2-14.1-46.8-14.1S53.3,70.7,53.3,76.5z"/>
	<path fill="#5980B7" d="M153.9,73.6c-3.4-12.3-28.8-18.7-53.8-18.7c-24.9,0-50.1,6.3-53.8,18.5c-0.8,0.7-1.3,1.8-1.3,2.9v18.4
		c0,0.3,0,0.6,0.1,1c0.5,2,5.4,17.5,40.7,20.8c-2.3,3-3.6,6.7-3.6,10.8c0,9.9,8,17.9,17.9,17.9s17.9-8,17.9-17.9
		c0-4-1.4-7.8-3.6-10.8c35.3-3.4,40.1-19.1,40.6-21c0.1-0.3,0.1-0.6,0.1-0.9V76.3C155,75.3,154.6,74.3,153.9,73.6z M110.5,127.3
		c0,5.7-4.7,10.4-10.4,10.4s-10.4-4.7-10.4-10.4c0-5.7,4.7-10.4,10.4-10.4S110.5,121.5,110.5,127.3z M100,109.1c-1.3,0-3,0-4,0V98
		c1,0,2.7,0.1,4,0.1c1,0,2,0,3,0v11C102,109.1,101,109.1,100,109.1z M104.9,90h-9.5c-12.2,0-22.3-2.1-29.5-4.6
		c7.2-2.4,19.6-5.1,37-5.1c16.7,0,26.9,2.4,32.6,4.7C128.2,87.6,117.7,90,104.9,90z M146.9,76.5c0,1.4-1.1,3-3.2,4.5
		c-4.8-2.8-16.9-8.1-40.8-8.1c-25.4,0-40.8,5.8-46.1,8.3c-2.2-1.6-3.4-3.3-3.4-4.7c0-5.8,18.2-14.1,46.8-14.1S146.9,70.7,146.9,76.5
		z M53,94v-6.2c7.8,5.4,21,8.7,36,9.9v11C60,106.5,53.9,96.1,53,94z M111,108.8v-11c14-1.1,28-4.4,36-9.8v6
		C146.2,95.8,140,106.7,111,108.8z"/>
	<path fill="#FFFFFF" d="M100.1,116.9c-5.7,0-10.4,4.7-10.4,10.4c0,5.7,4.7,10.4,10.4,10.4s10.4-4.7,10.4-10.4
		C110.5,121.5,105.8,116.9,100.1,116.9z"/>
</g>
</svg>
