<?xml version="1.0" encoding="utf-8"?>
<!-- Generator: Adobe Illustrator 18.1.1, SVG Export Plug-In . SVG Version: 6.00 Build 0)  -->
<svg version="1.1" id="Layer_1" xmlns="http://www.w3.org/2000/svg" xmlns:xlink="http://www.w3.org/1999/xlink" x="0px" y="0px"
	 viewBox="206 296 200 200" enable-background="new 206 296 200 200" xml:space="preserve">
<g>
	<path fill="#FFFFFF" d="M320.5,353.2c3.5-7.3-4.9-23.3-12.6-34.1c-7.8,10.8-16.4,26.7-13,34c1.1,2.4,4,3.9,8,4.5v-9.8
		c0-2.2,1.8-4,4-4s4,1.8,4,4v10C316,357.4,319.2,355.8,320.5,353.2z"/>
	<rect x="295" y="378" fill="#CCCCCC" width="22" height="19"/>
	<path fill="#CCCCCC" d="M344.4,476l3.5-23.7c-0.7-0.4-1.3-0.8-1.9-1.2c-5.2-3.6-7.9-7.3-9.9-10c-2.7-3.6-3.8-4.9-8.8-4.9
		c-3.7,0-5.2,2.1-7.7,6.1c-2.4,3.8-5.7,9.1-12.8,9.1c-7.2,0-11.2-4.9-14.4-8.8c-2.5-3.1-4.2-4.9-6.2-4.9c-3.1,0-6.4,2.8-10,5.7
		c-3.1,2.6-6.6,5.6-10.6,7.1l2.8,25.4H344.4z"/>
	<path fill="#FFFFFF" d="M350.5,444.5c1.6,1.1,3.2,1.7,4.7,1.7c5.6,0,9.2-8.2,9.2-20.8c0-18.7-8.8-18.5-15.9-18.5l-1.3,0.1h-80.8
		c-11.6,0-18.8,3.1-18.8,19.4c0,17.7,7,17.7,9.6,17.7c1.2,0,2.6-0.2,4-0.6c3.3-0.8,6.4-3.4,9.7-6.1c4.5-3.7,9.1-7.6,15.1-7.6
		c5.9,0,9.5,4.3,12.4,7.8c3,3.6,5,5.9,8.3,5.9c2.5,0,3.6-1.5,6-5.3c2.6-4.2,6.2-9.9,14.5-9.9c9,0,12,3.9,15.1,8.1
		C344.2,438.8,346.4,441.6,350.5,444.5z"/>
	<path fill="#5980B7" d="M348.5,399h-24.5H324v-24.6c0-2.1-1.6-3.4-3.7-3.4H311v-0.3v-4.9c8-0.6,14-3.6,16.7-9.1
		c7.5-15.4-14.1-43.4-16.6-46.5c-0.8-1-1.9-1.3-3.1-1.3c0,0,0,0,0,0c-1.2,0-2.4,0.3-3.1,1.2c-2.5,3.1-24.5,30.8-17.1,46.4
		c2.5,5.2,7.2,8.2,15.2,9.1v5v0.3h-11.5c-2.1,0-3.5,1.4-3.5,3.4V399h-0.3h-21.3c-11.5,0-26.8,2.7-26.8,27.4
		c0,22.4,11,25.7,17.6,25.7c0.1,0,0.2,0,0.4,0l3.1,28.4c0.2,2,1.9,3.7,4,3.7h83.2c2,0,3.7-1.6,4-3.5l3.9-26.2l0,0
		c8.2-0.2,16.8-7.8,16.8-28.7C372.4,398.9,355.7,399,348.5,399z M295,353.1c-3.5-7.3,5.2-23.2,13-34c7.7,10.8,16.1,26.8,12.6,34.1
		c-1.3,2.6-4.5,4.2-9.5,4.6v-10c0-2.2-1.8-4-4-4s-4,1.8-4,4v9.8C299,357,296.1,355.5,295,353.1z M295,378h22v19h-22V378z M344.4,476
		h-76.1l-2.8-25.4c4.1-1.6,7.5-4.5,10.6-7.1c3.5-3,6.9-5.8,10-5.8c2.1,0,3.7,1.9,6.2,4.9c3.2,3.9,7.2,8.8,14.4,8.8
		c7.1,0,10.4-5.3,12.8-9.1c2.5-4,4-6.2,7.7-6.2c5,0,6,1.3,8.8,4.9c2,2.7,4.8,6.3,9.9,9.9c0.6,0.4,1.3,0.9,1.9,1.3L344.4,476z
		 M355.2,446.2c-1.5,0-3.1-0.6-4.7-1.7c-4.2-2.9-6.3-5.7-8.2-8.2c-3.2-4.2-6.2-8.1-15.1-8.1c-8.3,0-11.9,5.7-14.5,9.9
		c-2.4,3.9-3.6,5.3-6,5.3c-3.3,0-5.3-2.2-8.3-5.9c-2.9-3.5-6.5-7.8-12.4-7.8c-6,0-10.6,3.9-15.1,7.6c-3.3,2.8-6.4,5.4-9.7,6.1
		c-1.5,0.3-2.8,0.5-4,0.5c-2.6,0-9.6,0.1-9.6-17.6c0-16.2,7.2-19.4,18.8-19.4h80.8l1.3-0.1c7.1,0,15.9-0.1,15.9,18.6
		C364.4,438.1,360.8,446.2,355.2,446.2z"/>
</g>
</svg>
