<?xml version="1.0" encoding="utf-8"?>
<!-- Generator: Adobe Illustrator 18.1.1, SVG Export Plug-In . SVG Version: 6.00 Build 0)  -->
<svg version="1.1" id="Layer_1" xmlns="http://www.w3.org/2000/svg" xmlns:xlink="http://www.w3.org/1999/xlink" x="0px" y="0px"
	 viewBox="0 0 200 200" enable-background="new 0 0 200 200" xml:space="preserve">
<g>
	<path fill="none" d="M101.6,50.4c-0.5,0-1,0-1.6,0c-15.3,0-29,7-38.1,17.9l14.4,25.3L101.6,50.4z"/>
	<path fill="none" d="M144.2,77c-6.7-12-18.9-22.8-33.6-26L95.3,77H144.2z"/>
	<path fill="none" d="M90.3,148.6l13.4-23.6H57.2C64.2,137,76.2,145.8,90.3,148.6z"/>
	<path fill="none" d="M50.4,100c0,5.6,0.9,11,2.7,16h26.4L56.6,75.9C52.7,83.1,50.4,91.3,50.4,100z"/>
	<path fill="none" d="M142.2,125.8c4.7-7.6,7.5-16.7,7.5-26.3c0-4.6-0.7-8.5-1.9-13.5h-28L142.2,125.8z"/>
	<path fill="none" d="M99.3,149.6c0.2,0,0.5,0,0.7,0c14.5,0,27.6-6.3,36.7-16.2l-14.1-24.9L99.3,149.6z"/>
	<polygon fill="#CCCCCC" points="90,86 81,101.6 89,116 108.7,116 117.7,99.7 110.1,86 	"/>
	<path fill="#5980B7" d="M100,42c-18.9,0-35.7,9.1-46.3,23.1c-0.2,0.2-0.3,0.4-0.4,0.6C46.2,75.3,42,87.1,42,100
		c0,7.8,1.5,15.2,4.3,22c0.1,0.2,0.1,0.3,0.2,0.5c7.8,18.4,24.8,32,45.2,35c0.1,0,0.3,0,0.4,0.1c2.6,0.4,5.2,0.5,7.9,0.5
		c18,0,34.2-8.3,44.8-21.3c0.2-0.2,0.3-0.3,0.4-0.5c8-9.9,12.7-22.5,12.7-36.2C158,68,132,42,100,42z M144.2,77H95.3l15.3-26
		C125.3,54.2,137.6,65,144.2,77z M81,101.6L90,86h20.1l7.6,13.7l-9,16.3H89L81,101.6z M100,50.4c0.5,0,1,0,1.6,0L76.3,93.5
		L61.9,68.3C71,57.3,84.7,50.4,100,50.4z M56.6,75.9L79.4,116H53c-1.7-5-2.7-10.4-2.7-16C50.4,91.3,52.7,83.1,56.6,75.9z
		 M90.3,148.6c-14.1-2.8-26-11.6-33.1-23.6h46.4L90.3,148.6z M100,149.6c-0.2,0-0.5,0-0.7,0l23.2-41.1l14.1,24.9
		C127.6,143.4,114.5,149.6,100,149.6z M142.2,125.8L119.7,86h28c1.2,5,1.9,8.9,1.9,13.5C149.6,109.1,146.9,118.2,142.2,125.8z"/>
</g>
</svg>
