<?xml version="1.0" encoding="utf-8"?>
<!-- Generator: Adobe Illustrator 18.1.1, SVG Export Plug-In . SVG Version: 6.00 Build 0)  -->
<svg version="1.1" id="Layer_1" xmlns="http://www.w3.org/2000/svg" xmlns:xlink="http://www.w3.org/1999/xlink" x="0px" y="0px"
	 viewBox="0 0 200 200" enable-background="new 0 0 200 200" xml:space="preserve">
<g>
	<path fill="#CCCCCC" d="M132.8,128.4c-7.6,9.2-17.9,15.4-29.5,17.9c0.5,0,0.9,0.1,1.4,0.1c8.5,0.6,17.1-1.3,24.5-5.4
		c0.6-0.3,1.2-0.5,1.9-0.5c0.5,0,1,0.1,1.4,0.3l17,6.6l-4.6-18.4c-0.3-1.1-0.1-2.2,0.5-3.1c4-6.3,6.4-13.6,6.9-21.1
		c0.8-11.9-3.1-23.4-10.9-32.4c-1.1-1.2-2.2-2.4-3.4-3.5c3.5,6.3,5.8,13.4,6.6,21C145.9,103.9,141.7,117.5,132.8,128.4z"/>
	<path fill="#FFFFFF" d="M68.5,134.5c1.1-0.4,2.3-0.4,3.3,0.1c7.5,3.9,16.2,5.5,24.7,4.7c11.9-1.1,22.6-6.8,30.2-16
		c7.6-9.2,11.2-20.8,10-32.7c-2.2-23.1-21.3-40.5-44.5-40.5c-1.4,0-2.9,0.1-4.3,0.2c-24.6,2.3-42.6,24.2-40.3,48.8
		c0.7,7.5,3.3,14.7,7.5,20.9c0.6,0.9,0.8,2,0.6,3.1l-4.1,18.5L68.5,134.5z M99.1,72c0,1.9-0.7,3.5-2,4.8c-1.3,1.3-2.9,2-4.8,2
		c-1.8,0-3.4-0.7-4.8-2c-1.3-1.3-2-2.9-2-4.8c0-1.9,0.7-3.5,2-4.8c1.3-1.3,2.9-2,4.8-2c1.9,0,3.5,0.7,4.8,2
		C98.4,68.5,99.1,70.1,99.1,72z M104,121H80v-8h6V91h-6v-8h18v30h6V121z"/>
	<path fill="#5980B7" d="M147.4,67.2c-7-8-16-13.6-26.1-16.2c-8.3-5.5-18.3-8.7-29-8.7c-1.7,0-3.4,0.1-5,0.2
		C58.4,45.2,37.1,71,39.9,99.9c0.8,8.2,3.5,16.2,7.9,23.1l-5.4,24.3c-0.3,1.4,0.2,2.9,1.3,3.9c0.7,0.6,1.6,0.9,2.5,0.9
		c0.5,0,1-0.1,1.5-0.3l22.1-9.3c2.9,1.3,5.9,2.4,8.9,3.2c7.5,5,16.2,8,25.4,8.6c9.4,0.6,18.8-1.3,27.2-5.5l22.4,8.7
		c0.5,0.2,0.9,0.3,1.4,0.3c0.9,0,1.9-0.3,2.6-1c1.1-1,1.6-2.5,1.2-3.9l-6.1-24.2c4.2-7.1,6.7-15.1,7.3-23.3
		C161.2,91.3,156.6,77.8,147.4,67.2z M71.8,134.7c-1-0.5-2.3-0.6-3.3-0.1l-16.8,7l4.1-18.5c0.2-1.1,0-2.2-0.6-3.1
		c-4.2-6.2-6.8-13.4-7.5-20.9C45.4,74.6,63.4,52.7,88,50.3c1.4-0.1,2.9-0.2,4.3-0.2c23.2,0,42.3,17.4,44.5,40.5
		c1.1,11.9-2.4,23.5-10,32.7c-7.6,9.2-18.4,14.9-30.2,16C88,140.2,79.3,138.5,71.8,134.7z M152.4,104.8c-0.5,7.5-2.9,14.8-6.9,21.1
		c-0.6,0.9-0.8,2-0.5,3.1l4.6,18.4l-17-6.6c-0.5-0.2-0.9-0.3-1.4-0.3c-0.7,0-1.3,0.2-1.9,0.5c-7.4,4.1-16,6-24.5,5.4
		c-0.5,0-0.9-0.1-1.4-0.1c11.5-2.5,21.8-8.7,29.5-17.9c9-10.8,13.1-24.5,11.8-38.5c-0.7-7.6-3-14.7-6.6-21c1.2,1.1,2.3,2.3,3.4,3.5
		C149.3,81.4,153.2,92.9,152.4,104.8z"/>
	<polygon fill="#5980B7" points="98,83 80,83 80,91 86,91 86,113 80,113 80,121 104,121 104,113 98,113 	"/>
	<path fill="#5980B7" d="M87.5,67.2c-1.3,1.3-2,2.9-2,4.8c0,1.8,0.7,3.4,2,4.8c1.3,1.3,2.9,2,4.8,2c1.9,0,3.5-0.7,4.8-2
		c1.3-1.3,2-2.9,2-4.8c0-1.9-0.7-3.5-2-4.8c-1.3-1.3-2.9-2-4.8-2C90.4,65.2,88.8,65.8,87.5,67.2z"/>
</g>
</svg>
