<?xml version="1.0" encoding="utf-8"?>
<!-- Generator: Adobe Illustrator 18.1.1, SVG Export Plug-In . SVG Version: 6.00 Build 0)  -->
<svg version="1.1" id="Layer_1" xmlns="http://www.w3.org/2000/svg" xmlns:xlink="http://www.w3.org/1999/xlink" x="0px" y="0px"
	 viewBox="0 0 200 200" enable-background="new 0 0 200 200" xml:space="preserve">
<g>
	<path fill="#CCCCCC" d="M117.5,64.7c2.3,4,4.6,8.4,6.6,13.3c4-2.6,8.3-5,13-7.1c-1.5-7.4-3.7-13.4-5.3-17.1
		C126.5,57.2,121.7,60.9,117.5,64.7z"/>
	<path fill="#CCCCCC" d="M62.5,70.6c3.7,1.7,7.2,3.5,10.4,5.4c2-4.3,4.5-8.6,7.4-12.8c-3.8-3.2-8-6.4-12.6-9.5
		C66.2,57.4,64,63.4,62.5,70.6z"/>
	<path fill="#FFFFFF" d="M129.7,107.2c-0.4,13.6-5.4,26.3-14.7,37.8c22.3-6.9,37.4-21,44.9-41.9c4.7-13.1,5.1-25.7,4.9-32.3
		c-15.4,3.7-28,9-37.8,15.8C128.8,93,129.9,100,129.7,107.2z"/>
	<path fill="#FFFFFF" d="M35.2,70.8c-0.2,6.6,0.2,19.2,4.9,32.3c7.6,21.2,22.9,35.3,45.6,42.2c-8-8.5-17-21.5-18.6-38.2
		c-0.7-7.5,0.1-15.1,2.5-22.7C60.4,78.6,48.9,74.1,35.2,70.8z"/>
	<path fill="#FFFFFF" d="M100.9,147.2c12.7-12,19.4-25.5,19.9-40.1c0.8-23.8-14.9-44.9-21.6-52.7c-17.1,17.6-24.9,35.1-23.3,52
		C78,127.3,94.4,142,100.9,147.2z"/>
	<path fill="#5980B7" d="M173.3,64.8c-0.2-1.2-0.8-2.3-1.8-3c-1-0.7-2.3-1-3.5-0.7c-8.2,1.7-15.7,3.8-22.6,6.4
		c-2.9-13.1-7.7-21.9-7.9-22.4c-0.6-1.1-1.6-1.9-2.8-2.2c-1.2-0.3-2.4-0.1-3.5,0.6c-6.9,4.4-13.1,9-18.6,13.7
		c-5.2-7.4-9.7-11.9-10.1-12.4c-1.7-1.7-4.5-1.7-6.2,0c-3.9,3.8-7.5,7.6-10.6,11.4c-5.2-4.4-10.9-8.6-17.4-12.7
		c-1-0.7-2.3-0.9-3.5-0.6c-1.2,0.3-2.2,1.1-2.8,2.2c-0.3,0.5-5,9.2-7.9,22.2C47.4,64.8,40,62.7,32,61c-1.2-0.3-2.5,0-3.5,0.7
		c-1,0.7-1.7,1.8-1.8,3c-0.1,0.8-2.5,20,5,41c6.9,19.6,24,44.4,65.9,51.2c0.2,0,0.5,0.1,0.7,0.1c0.4,0,0.8-0.1,1.2-0.2
		c0.5,0.2,1.1,0.3,1.7,0.3c0.5,0,1.1-0.1,1.6-0.3c41.5-6.9,58.5-31.6,65.5-51.2C175.7,84.8,173.4,65.6,173.3,64.8z M131.8,53.7
		c1.6,3.8,3.8,9.8,5.3,17.1c-4.7,2.1-9.1,4.5-13,7.1c-1.9-4.8-4.2-9.3-6.6-13.3C121.7,60.9,126.5,57.2,131.8,53.7z M67.8,53.7
		c4.6,3.1,8.8,6.3,12.6,9.5c-3,4.3-5.5,8.6-7.4,12.8c-3.2-1.9-6.7-3.7-10.4-5.4C64,63.4,66.2,57.4,67.8,53.7z M40.1,103.1
		C35.4,90,35,77.4,35.2,70.8c13.7,3.3,25.2,7.8,34.5,13.6c-2.4,7.6-3.2,15.2-2.5,22.7c1.6,16.7,10.6,29.7,18.6,38.2
		C63.1,138.5,47.7,124.3,40.1,103.1z M100.9,147.2c-6.6-5.1-22.9-19.8-25-40.9c-1.6-16.9,6.2-34.3,23.3-52
		c6.7,7.9,22.4,28.9,21.6,52.7C120.3,121.7,113.6,135.1,100.9,147.2z M159.9,103.1c-7.5,21-22.6,35-44.9,41.9
		c9.3-11.5,14.3-24.2,14.7-37.8c0.2-7.3-0.8-14.2-2.6-20.7c9.8-6.8,22.4-12.1,37.8-15.8C165,77.4,164.6,90,159.9,103.1z"/>
</g>
</svg>
