<?xml version="1.0" encoding="utf-8"?>
<!-- Generator: Adobe Illustrator 18.1.1, SVG Export Plug-In . SVG Version: 6.00 Build 0)  -->
<svg version="1.1" id="Layer_1" xmlns="http://www.w3.org/2000/svg" xmlns:xlink="http://www.w3.org/1999/xlink" x="0px" y="0px"
	 viewBox="0 0 200 200" enable-background="new 0 0 200 200" xml:space="preserve">
<g>
	
		<path fill="#CCCCCC" stroke="#5980B7" stroke-width="7.4007" stroke-linecap="round" stroke-linejoin="round" stroke-miterlimit="10" d="
		M100,100"/>
</g>
<g>
	<path fill="#CCCCCC" d="M118.4,80.9c4.8,0,11.4,0.6,14.9,3.7c1.8,1.5,2.7,3.5,2.7,5.7c0,2-0.8,3.8-1.7,5.2l1.9,1.6l11.5-13.3
		l-2.6-2.3c-1.1,0.3-2.4,0.6-3.8,0.6c-2.6,0-4.8-0.9-6.4-2.7c-1.9-2.1-2.8-5-2.7-9.1l-17.3-14.9c0,0-6-5-12.4-4.9
		c5.7,2,9.1,5.7,9.5,10.8c0.5,6.3-0.5,10.7-1.4,13.4l7.1,6.1C117.8,80.9,118.1,80.9,118.4,80.9z"/>
	<polygon fill="#FFFFFF" points="111.2,85.2 106.2,80.9 101.1,86.2 106.6,91.1 	"/>
	<path fill="#FFFFFF" d="M55.3,133.2c-1.7,1.5-2.6,3.6-2.6,5.8c0,2.2,1,4.4,2.7,5.8c1.4,1.2,3.2,1.9,5,1.9c2.5,0,4.9-1.2,6.3-3.3
		c0,0,0.1-0.1,0.1-0.1l18.8-24.6l-8.6-7.8L55.5,133C55.5,133.1,55.4,133.1,55.3,133.2z"/>
	<path fill="#FFFFFF" d="M110.6,116.3c-0.9,0-1.7-0.3-2.4-0.9c-1.5-1.3-1.7-3.7-0.3-5.2l3.7-4.3l-6.2-5.6l-6.3,7.2
		c-0.7,0.8-1.8,1.3-2.8,1.3c-0.9,0-1.7-0.3-2.4-0.9c-1.5-1.3-1.7-3.7-0.3-5.2l6.4-7.3l-6.2-5.6l-4,4.6c-0.7,0.8-1.8,1.3-2.8,1.3
		c-0.9,0-1.7-0.3-2.4-0.9c-1.5-1.3-1.7-3.7-0.3-5.2l4.1-4.7l-6.2-5.6l-6.6,7.6c-0.7,0.8-1.8,1.3-2.8,1.3c-0.9,0-1.7-0.3-2.4-0.9
		c-1.5-1.3-1.7-3.7-0.3-5.2l6.7-7.7L65.2,63.9L52.5,78.5l76.2,69l12.7-14.5l-12.7-11.5l-5.9,6.8c-0.7,0.8-1.8,1.3-2.8,1.3
		c-0.9,0-1.7-0.3-2.4-0.9c-1.5-1.3-1.7-3.7-0.3-5.2l6-6.9l-6.2-5.6l-3.7,4.2C112.7,115.9,111.7,116.3,110.6,116.3z"/>
	<path fill="#5980B7" d="M126.8,93.2c-0.8,0.7-1.3,1.7-1.3,2.8c0,1.1,0.5,2.1,1.3,2.8l7.4,6.4c0.7,0.6,1.5,0.9,2.4,0.9
		c0.1,0,0.2,0,0.3,0c1-0.1,1.9-0.5,2.5-1.3l16.3-18.9c0.6-0.7,1-1.7,0.9-2.7c-0.1-1-0.5-1.9-1.3-2.5l-7.1-6.1
		c-1.1-1-2.8-1.2-4.1-0.5c-0.4,0.2-1.7,0.7-2.9,0.7c-0.7,0-0.9-0.2-1-0.3c-0.2-0.2-1-1.3-0.7-5.4c0.1-1.2-0.4-2.3-1.3-3.1
		l-18.7-16.1c-0.3-0.3-7.9-6.7-16.9-6.7c-5.6,0-10.7,2.5-14.8,7.2c-1,1.1-1.2,2.7-0.5,4c0.7,1.3,2,2.1,3.5,2.1c0,0,0.4,0,0.9,0
		c1.3,0,12.3,0.2,12.7,5.5c0.5,7.1-1.2,10.8-1.5,11.5l-7.4,7.6L67.5,55.7c-0.8-0.7-1.8-1-2.8-1c-1,0.1-2,0.5-2.7,1.3L44.3,76.3
		c-1.4,1.6-1.2,3.9,0.3,5.3L71.5,106l-21.2,21.8c-3.2,2.9-5.1,7-5,11.3c0,4.4,1.9,8.5,5.3,11.4c2.7,2.4,6.2,3.7,9.8,3.7
		c4.9,0,9.5-2.4,12.3-6.3l18.4-24.1l35.4,32c0.7,0.6,1.6,1,2.6,1c0.1,0,0.1,0,0.2,0c1-0.1,2-0.5,2.7-1.3l17.7-20.3
		c1.4-1.6,1.2-3.9-0.3-5.3l-37.2-33.7l5.9-7.8c0.1,0,0.2,0,0.4,0c5.8,0,9.1,1.1,10.1,1.9c0.1,0.1,0.1,0.1,0.1,0.1
		C128.7,91,127.8,92.3,126.8,93.2z M66.8,143.3c0,0-0.1,0.1-0.1,0.1c-1.4,2-3.8,3.3-6.3,3.3c-1.9,0-3.6-0.6-5-1.9
		c-1.7-1.5-2.7-3.6-2.7-5.8c0-2.2,0.9-4.4,2.6-5.8c0.1-0.1,0.1-0.1,0.2-0.2L77,110.9l8.6,7.8L66.8,143.3z M117.6,128.6
		c0.7,0.6,1.6,0.9,2.4,0.9c1,0,2.1-0.4,2.8-1.3l5.9-6.8l12.7,11.5l-12.7,14.5l-76.2-69l12.7-14.5l11.4,10.3l-6.7,7.7
		c-1.3,1.5-1.2,3.9,0.3,5.2c0.7,0.6,1.6,0.9,2.4,0.9c1,0,2.1-0.4,2.8-1.3l6.6-7.6l6.2,5.6l-4.1,4.7c-1.3,1.5-1.2,3.9,0.3,5.2
		c0.7,0.6,1.6,0.9,2.4,0.9c1,0,2.1-0.4,2.8-1.3l4-4.6l6.2,5.6l-6.4,7.3c-1.3,1.5-1.2,3.9,0.3,5.2c0.7,0.6,1.6,0.9,2.4,0.9
		c1,0,2.1-0.4,2.8-1.3l6.3-7.2l6.2,5.6l-3.7,4.3c-1.3,1.5-1.2,3.9,0.3,5.2c0.7,0.6,1.6,0.9,2.4,0.9c1,0,2.1-0.4,2.8-1.3l3.7-4.2
		l6.2,5.6l-6,6.9C115.9,124.9,116.1,127.2,117.6,128.6z M101.1,86.2l5.1-5.2l5,4.3l-4.5,5.9L101.1,86.2z M118.4,80.9
		c-0.3,0-0.6,0-0.9,0l-7.1-6.1c1-2.7,1.9-7,1.4-13.4c-0.4-5.1-3.8-8.9-9.5-10.8c6.4-0.1,12.3,4.8,12.4,4.9l17.3,14.9
		c-0.1,4,0.8,7,2.7,9.1c1.6,1.7,3.8,2.7,6.4,2.7c1.4,0,2.7-0.3,3.8-0.6l2.6,2.3l-11.5,13.3l-1.9-1.6c0.9-1.4,1.7-3.2,1.7-5.2
		c0-2.2-0.9-4.2-2.7-5.7C129.8,81.6,123.3,80.9,118.4,80.9z"/>
</g>
</svg>
