<?xml version="1.0" encoding="utf-8"?>
<!-- Generator: Adobe Illustrator 18.1.1, SVG Export Plug-In . SVG Version: 6.00 Build 0)  -->
<svg version="1.1" id="Layer_1" xmlns="http://www.w3.org/2000/svg" xmlns:xlink="http://www.w3.org/1999/xlink" x="0px" y="0px"
	 viewBox="0 0 200 200" enable-background="new 0 0 200 200" xml:space="preserve">
<g>
	<path fill="#FFFFFF" d="M148.4,141.1c-3,6.5-2.3,13.6-1.5,17.8c8.6-3.8,14.6-12.3,14.6-22.3c0-2.5-0.4-4.8-1-7
		C154.7,132.4,150.6,136.2,148.4,141.1z"/>
	<path fill="#FFFFFF" d="M116.4,149.4c4.3,6.9,12,11.6,20.7,11.6c0.7,0,1.4,0,2.1-0.1c-1.1-5.3-2-14.3,1.9-23
		c3-6.6,8.3-11.8,15.7-15.4c-4.4-6.2-11.6-10.2-19.8-10.2c-1.7,0-3.3,0.2-4.9,0.5C134.6,123.4,133.4,140.1,116.4,149.4z"/>
	<path fill="#FFFFFF" d="M112.8,136.6c0,1.9,0.2,3.7,0.6,5.5c12.7-7.4,12.5-19.9,11.3-26.4C117.6,119.9,112.8,127.7,112.8,136.6z"/>
	<polygon fill="#FFFFFF" points="104.9,67.1 68.8,96 73.8,102.3 109.9,73.4 	"/>
	<path fill="#CCCCCC" d="M140.1,48c0.1-0.9-0.1-1.8-0.7-2.5l-0.8-1c-0.6-0.8-1.6-1.3-2.6-1.3c-0.5,0-1.3,0.1-2.1,0.7l-1.6,1.2l5,6.3
		l1.5-1.2C139.6,49.7,140,48.9,140.1,48z"/>
	<path fill="#CCCCCC" d="M38.7,121.3c-0.1,0.9,0.1,1.8,0.7,2.5l0.8,1c0.6,0.8,1.6,1.3,2.6,1.3c0.5,0,1.3-0.1,2.1-0.7l1.5-1.2l-5-6.3
		l-1.5,1.2C39.3,119.6,38.8,120.4,38.7,121.3z"/>
	<polygon fill="#CCCCCC" points="60.4,108.1 75.3,126.9 80.2,123.1 50.4,85.3 45.5,89.2 48,92.4 48,92.4 	"/>
	
		<rect x="49.5" y="98.5" transform="matrix(0.7848 -0.6198 0.6198 0.7848 -59.7762 56.9955)" fill="#FFFFFF" width="5.3" height="32.1"/>
	
		<rect x="91.8" y="60.2" transform="matrix(-0.6198 -0.7848 0.7848 -0.6198 138.0284 193.4216)" fill="#CCCCCC" width="48.1" height="6.2"/>
	
		<rect x="123.9" y="38.8" transform="matrix(-0.7848 0.6197 -0.6197 -0.7848 259.86 19.4522)" fill="#FFFFFF" width="5.3" height="32.1"/>
	<g>
		<path fill="#5980B7" d="M78.7,108.5l36.1-28.9l9.8,12.5c0.8,1,1.9,1.5,3.1,1.5c0.9,0,1.7-0.3,2.4-0.8l11-8.7
			c0.8-0.6,1.3-1.6,1.5-2.6c0.1-1-0.2-2.1-0.8-2.9l-2.5-3.2l7.2-5.7c1.7-1.3,2-3.8,0.6-5.5l-5-6.3l1.6-1.2c2.4-1.9,3.8-4.5,4.2-7.5
			c0.3-3-0.5-5.9-2.3-8.3l-0.8-1c-2.1-2.7-5.4-4.3-8.8-4.3c-2.5,0-5,0.9-7,2.4l-1.5,1.2l-5-6.4c-1.3-1.7-3.8-2-5.5-0.6l-7.2,5.7
			l-2.5-3.2c-1.3-1.7-3.8-2-5.5-0.6l-11,8.7c-0.8,0.6-1.3,1.6-1.5,2.6c-0.1,1,0.2,2.1,0.8,2.9L100,60.9L64,89.8l-9.8-12.5
			c-1.3-1.7-3.8-2-5.5-0.6l-11,8.7c-0.8,0.6-1.3,1.6-1.5,2.6c-0.1,1,0.2,2.1,0.8,2.9l2.5,3.2l-7.2,5.7c-0.8,0.6-1.3,1.6-1.5,2.6
			c-0.1,1,0.2,2.1,0.8,2.9l5,6.3l-1.5,1.2c-2.4,1.9-3.8,4.5-4.2,7.5c-0.3,3,0.5,5.9,2.3,8.3l0.8,1c2.1,2.7,5.4,4.3,8.8,4.3
			c2.5,0,5-0.9,7-2.4l1.5-1.2l5,6.4c0.8,1,1.9,1.5,3.1,1.5c0.9,0,1.7-0.3,2.4-0.8l7.2-5.7l2.5,3.2c0.8,1,1.9,1.5,3.1,1.5
			c0.9,0,1.7-0.3,2.4-0.8l11-8.7c0.8-0.6,1.3-1.6,1.5-2.6c0.1-1-0.2-2.1-0.8-2.9L78.7,108.5z M133.9,43.9c0.8-0.6,1.5-0.7,2.1-0.7
			c1,0,2,0.5,2.6,1.3l0.8,1c0.6,0.7,0.8,1.6,0.7,2.5c-0.1,0.9-0.5,1.7-1.3,2.3l-1.5,1.2l-5-6.3L133.9,43.9z M118.7,40.6l19.9,25.2
			l-4.1,3.3l-19.9-25.2L118.7,40.6z M98.5,46.3l4.9-3.8l29.8,37.8l-4.9,3.8L98.5,46.3z M104.9,67.1l5,6.3l-36.1,28.9l-5-6.3
			L104.9,67.1z M44.9,125.4c-0.8,0.6-1.5,0.7-2.1,0.7c-1,0-2-0.5-2.6-1.3l-0.8-1c-0.6-0.7-0.8-1.6-0.7-2.5c0.1-0.9,0.5-1.7,1.3-2.3
			l1.5-1.2l5,6.3L44.9,125.4z M60,128.8l-19.9-25.2l4.1-3.3l19.9,25.2L60,128.8z M75.3,126.9l-14.9-18.9L48,92.4c0,0,0,0,0,0
			l-2.5-3.2l4.9-3.8l29.8,37.8L75.3,126.9z"/>
		<path fill="#5980B7" d="M137.1,104.4c-3.9,0-7.6,0.7-11.1,2c0,0,0,0,0,0c0,0,0,0,0,0c-12.3,4.5-21.1,16.4-21.1,30.2
			c0,4.4,0.9,8.6,2.5,12.5c0,0,0,0.1,0,0.1c0,0.1,0.1,0.1,0.1,0.1c4.9,11.5,16.3,19.5,29.6,19.5c17.8,0,32.2-14.4,32.2-32.2
			S154.8,104.4,137.1,104.4z M124.7,115.7c1.2,6.5,1.4,19-11.3,26.4c-0.4-1.8-0.6-3.6-0.6-5.5C112.8,127.7,117.6,119.9,124.7,115.7z
			 M137.1,161c-8.7,0-16.4-4.6-20.7-11.6c17-9.3,18.2-26,15.8-36.6c1.6-0.3,3.2-0.5,4.9-0.5c8.2,0,15.4,4,19.8,10.2
			c-7.4,3.6-12.7,8.7-15.7,15.4c-4,8.7-3.1,17.7-1.9,23C138.5,160.9,137.8,161,137.1,161z M146.9,158.9c-0.9-4.2-1.5-11.3,1.5-17.8
			c2.3-4.9,6.3-8.8,12-11.5c0.7,2.2,1,4.6,1,7C161.4,146.6,155.4,155.1,146.9,158.9z"/>
	</g>
</g>
</svg>
