<?xml version="1.0" encoding="utf-8"?>
<!-- Generator: Adobe Illustrator 18.1.1, SVG Export Plug-In . SVG Version: 6.00 Build 0)  -->
<svg version="1.1" id="Layer_1" xmlns="http://www.w3.org/2000/svg" xmlns:xlink="http://www.w3.org/1999/xlink" x="0px" y="0px"
	 viewBox="0 0 200 200" enable-background="new 0 0 200 200" xml:space="preserve">
<g>
	<path fill="none" d="M94.8,146.2c5.8-5.8,20.2-17.3,39.2-16.9v-27.7l-36.8,18.4c-0.6,0.3-1.1,0.4-1.7,0.4s-1.3-0.1-1.8-0.4
		L55,100.7v28.2C63,129.2,79.2,131.8,94.8,146.2z"/>
	<path fill="#FFFFFF" d="M35.6,82.2L95.5,112l51.6-25.7L94,82c-2.2-0.2-3.8-2.1-3.7-4.3c0.2-2.2,2.1-3.8,4.3-3.7l53.1,4.3l-52.2-26
		L35.6,82.2z"/>
	<path fill="#CCCCCC" d="M170,112.1c0-2.9-2.6-5.3-5.5-5.3s-5.5,2.4-5.5,5.3V127h11V112.1z"/>
	<path fill="#5980B7" d="M166.9,99.3c-0.9-0.2-1.7-0.3-2.6-0.3c0,0,0,0,0,0c1,0,1.7,0.1,2.7,0.3V84.8c1-0.7,1.1-1.7,1.1-2.7
		c0-1.5-0.8-2.9-2.1-3.5L97.2,44.4c-1.1-0.5-2.4-0.5-3.5,0L25,78.6c-1.3,0.7-2.2,2-2.2,3.5c0,1.5,0.8,2.9,2.2,3.5l22.1,11
		c0,0-0.1,0.1-0.1,0.1v36.1c0,1.1,0.6,2.2,1.4,3c0.8,0.8,2,1.1,3.1,1c0.2,0,21.9-1.8,40.7,17.9c0.8,0.8,1.8,1.2,2.9,1.2
		c0.1,0,0.1,0,0.2,0c1.1,0,2.2-0.6,2.9-1.5c0.2-0.2,16.1-19.5,39.5-17c1.1,0.1,2.2-0.2,3-1s1.2-1.8,1.2-3v-36l17-8.5V100
		c0,0,0,0-0.1,0c-4.7,2-7.9,6.7-7.9,12.1v18.5c0,2.2,2,4.3,4.1,4.3h18.5c2.2,0,3.4-2.1,3.4-4.3v-18.5
		C177,105.8,172.8,100.6,166.9,99.3z M134,129.3c-19-0.3-33.4,11.1-39.2,16.9c-15.6-14.5-31.8-17-39.8-17.4v-28.2l38.7,19.2
		c0.6,0.3,1.2,0.4,1.8,0.4s1.1-0.1,1.7-0.4l36.8-18.4V129.3z M95.5,112L35.6,82.2l59.9-29.8l52.2,26l-53.1-4.3
		c-2.2-0.2-4.1,1.5-4.3,3.7c-0.2,2.2,1.5,4.1,3.7,4.3l53.2,4.3L95.5,112z M170,127h-11v-14.9c0-2.9,2.6-5.3,5.5-5.3s5.5,2.4,5.5,5.3
		V127z"/>
</g>
</svg>
