<?xml version="1.0" encoding="utf-8"?>
<!-- Generator: Adobe Illustrator 18.1.1, SVG Export Plug-In . SVG Version: 6.00 Build 0)  -->
<svg version="1.1" id="Layer_1" xmlns="http://www.w3.org/2000/svg" xmlns:xlink="http://www.w3.org/1999/xlink" x="0px" y="0px"
	 viewBox="206 296 200 200" enable-background="new 206 296 200 200" xml:space="preserve">
<g>
	<path fill="#FFFFFF" d="M283.8,416.5c-0.3,1.4-1.2,2.6-2.5,3.1l-10.9,4.2l7.1,28.8l24.6-11.4V361h-7.9L283.8,416.5z"/>
	<path fill="#FFFFFF" d="M334.1,419.7c-1.2-0.5-2.1-1.9-2.4-3.2L321.4,361H310v80.2l27.1,12l5.6-22.7l1.4-6.5L334.1,419.7z"/>
	<polygon fill="#CCCCCC" points="351.9,426.9 342.5,464.7 354.6,468.4 364,430.5 	"/>
	<polygon fill="#CCCCCC" points="272.1,464.7 262.8,426.9 250.7,430.5 260,468.4 	"/>
	<g>
		<path fill="#5980B7" d="M370,423.9l-19.4-5.8c-0.1-0.1-0.2-0.1-0.3-0.2l-11-4.7l-10.6-56.7c-0.4-1.9-2-3.5-3.9-3.5H306h-15.2
			c-1.9,0-3.6,1.6-3.9,3.5L276.3,413l-13.9,5.3c-0.4,0.1-0.7,0.4-1,0.6l-16.7,5.1c-2.1,0.6-3.3,2.7-2.7,4.8l11.3,45.7
			c0.3,1.1,1,2,1.9,2.5c0.6,0.3,1.3,0.5,2,0.5c0.4,0,0.8-0.1,1.2-0.2l19.8-6c2.1-0.6,3.3-2.7,2.7-4.8l-1.5-5.9l26.6-12.5l29.1,12.9
			l-1.3,5.4c-0.5,2.1,0.7,4.2,2.7,4.8l19.8,6c0.4,0.1,0.8,0.2,1.2,0.2c0.7,0,1.4-0.2,2-0.5c1-0.5,1.6-1.5,1.9-2.5l11.3-45.7
			C373.2,426.7,372,424.6,370,423.9z M260,468.4l-9.4-37.8l12.1-3.7l9.4,37.8L260,468.4z M277.4,452.7l-7.1-28.8l10.9-4.1
			c1.3-0.5,2.3-1.9,2.5-3.3l10.4-55.5h7.9v80.2L277.4,452.7z M310,441.2V361h11.4l10.4,55.5c0.2,1.3,1.1,2.5,2.4,3.1l10,4.3
			l-1.4,6.5l-5.6,22.7L310,441.2z M354.6,468.4l-12.1-3.7l9.4-37.8l12.1,3.7L354.6,468.4z"/>
		<path fill="#5980B7" d="M307,334.5c2.2,0,4-1.8,4-4v-12c0-2.2-1.8-4-4-4s-4,1.8-4,4v12C303,332.7,304.8,334.5,307,334.5z"/>
		<path fill="#5980B7" d="M376,383h-12c-2.2,0-4,1.8-4,4s1.8,4,4,4h12c2.2,0,4-1.8,4-4S378.2,383,376,383z"/>
		<path fill="#5980B7" d="M255,387c0-2.2-1.8-4-4-4h-15c-2.2,0-4,1.8-4,4s1.8,4,4,4h15C253.2,391,255,389.2,255,387z"/>
		<path fill="#5980B7" d="M347.8,352.3c1.1,0,2.1-0.4,3-1.2l9.1-9.1c1.6-1.6,1.6-4.3,0-5.9c-1.6-1.6-4.3-1.6-5.9,0l-9.1,9.1
			c-1.6,1.6-1.6,4.3,0,5.9C345.7,351.9,346.7,352.3,347.8,352.3z"/>
		<path fill="#5980B7" d="M264.7,351c0.8,0.8,1.9,1.2,3,1.2s2.1-0.4,3-1.2c1.6-1.6,1.6-4.3,0-5.9l-9.1-9.1c-1.6-1.6-4.3-1.6-5.9,0
			c-1.6,1.6-1.6,4.3,0,5.9L264.7,351z"/>
		<path fill="#5980B7" d="M327,339.3c0.5,0.2,1,0.3,1.5,0.3c1.7,0,3.2-1,3.9-2.6l4.7-12c0.8-2.1-0.2-4.6-2.3-5.4
			c-2.1-0.8-4.6,0.2-5.4,2.3l-4.7,12C323.8,336.1,324.9,338.5,327,339.3z"/>
		<path fill="#5980B7" d="M241.5,366.5l12,4.7c0.5,0.2,1,0.3,1.5,0.3c1.7,0,3.2-1,3.9-2.6c0.8-2.1-0.2-4.6-2.3-5.4l-12-4.7
			c-2.1-0.8-4.6,0.2-5.4,2.3S239.4,365.7,241.5,366.5z"/>
		<path fill="#5980B7" d="M355.9,367.3c0.7,1.6,2.2,2.5,3.8,2.5c0.6,0,1.1-0.1,1.7-0.3l11.8-5.1c2.1-0.9,3.1-3.4,2.2-5.5
			c-0.9-2.1-3.4-3.1-5.5-2.2l-11.8,5.1C355.9,362.7,355,365.1,355.9,367.3z"/>
		<path fill="#5980B7" d="M281.4,337.8c0.7,1.6,2.2,2.5,3.8,2.5c0.6,0,1.1-0.1,1.7-0.3c2.1-0.9,3.1-3.4,2.2-5.5l-5.1-11.8
			c-0.9-2.1-3.4-3.1-5.5-2.2c-2.1,0.9-3.1,3.4-2.2,5.5L281.4,337.8z"/>
	</g>
</g>
</svg>
