<?xml version="1.0" encoding="utf-8"?>
<!-- Generator: Adobe Illustrator 18.1.1, SVG Export Plug-In . SVG Version: 6.00 Build 0)  -->
<svg version="1.1" id="Layer_1" xmlns="http://www.w3.org/2000/svg" xmlns:xlink="http://www.w3.org/1999/xlink" x="0px" y="0px"
	 viewBox="0 0 200 200" enable-background="new 0 0 200 200" xml:space="preserve">
<g>
	<rect x="112" y="105" fill="#FFFFFF" width="40" height="46"/>
	<polygon fill="#FFFFFF" points="82,91 89.9,65.1 69.6,49.2 49.4,65 57.2,91 	"/>
	<path fill="#CCCCCC" d="M71,110.6c-11.5,0-20.9,9.4-20.9,20.9s9.4,20.9,20.9,20.9c11.5,0,20.9-9.4,20.9-20.9S82.6,110.6,71,110.6z"
		/>
	<path fill="#5980B7" d="M71,103.2c-15.6,0-28.3,12.7-28.3,28.3s12.7,28.3,28.3,28.3c15.6,0,28.3-12.7,28.3-28.3
		S86.6,103.2,71,103.2z M71,152.4c-11.5,0-20.9-9.4-20.9-20.9s9.4-20.9,20.9-20.9c11.5,0,20.9,9.4,20.9,20.9S82.6,152.4,71,152.4z"
		/>
	<path fill="#5980B7" d="M159,100.7c0-2-1.7-3.7-3.7-3.7h-47.6c-2,0-3.7,1.7-3.7,3.7v53.6c0,2,1.7,3.7,3.7,3.7h47.6
		c2,0,3.7-1.7,3.7-3.7V100.7z M152,151h-40v-46h40V151z"/>
	<path fill="#5980B7" d="M107.2,86h48c2.2,0,4-1.8,4-4s-1.8-4-4-4h-48c-2.2,0-4,1.8-4,4S105,86,107.2,86z"/>
	<path fill="#5980B7" d="M107.2,72h48c2.2,0,4-1.8,4-4s-1.8-4-4-4h-48c-2.2,0-4,1.8-4,4S105,72,107.2,72z"/>
	<path fill="#5980B7" d="M107.2,57h48c2.2,0,4-1.8,4-4s-1.8-4-4-4h-48c-2.2,0-4,1.8-4,4S105,57,107.2,57z"/>
	<path fill="#5980B7" d="M50.4,96.3c0.5,1.7,2.1,2.7,3.8,2.7H85c1.8,0,3.3-1,3.8-2.7l9.5-31.4c0.5-1.6-0.1-3.2-1.4-4.3L72.1,41
		c-1.4-1.1-3.5-1.1-4.9,0L42.3,60.5c-1.3,1-1.8,2.7-1.4,4.2L50.4,96.3z M69.6,49.3l20.3,15.8L82,91H57.2l-7.9-26L69.6,49.3z"/>
</g>
</svg>
