<?xml version="1.0" encoding="utf-8"?>
<!-- Generator: Adobe Illustrator 18.1.1, SVG Export Plug-In . SVG Version: 6.00 Build 0)  -->
<svg version="1.1" id="Layer_1" xmlns="http://www.w3.org/2000/svg" xmlns:xlink="http://www.w3.org/1999/xlink" x="0px" y="0px"
	 viewBox="0 0 200 200" enable-background="new 0 0 200 200" xml:space="preserve">
<g>
	<path fill="none" d="M75.4,126c0.8,0,1.1-0.2,1.1-0.6c-0.6,0.4-1.4,0.6-2.1,0.6H75.4z"/>
	<path fill="none" d="M74.2,99.5c0.1,0,0.2,0,0.3,0c0,0-0.1,0-0.1,0C74.3,99.5,74.2,99.5,74.2,99.5z"/>
	<path fill="none" d="M75.4,118h-1c0.8,0,1.5,0.2,2.1,0.6C76.5,118.2,76.2,118,75.4,118z"/>
	<path fill="none" d="M66,101.5C66,101.4,66,101.4,66,101.5c0.9-0.5,2-0.9,3-1.2v-0.1C68,100.5,67,100.9,66,101.5L66,101.5z"/>
	<path fill="#FFFFFF" d="M66,101.4c1-0.5,2-1,3-1.3V62.8c0-2.1,2.6-4.8,4.7-4.8h99.5c2.1,0,3.8,2.7,3.8,4.8V116c0,2.1-1.7,3-3.8,3
		H90c0.3,1,0.6,1.9,0.9,2.9c0,0,0,0.1,0,0.1h18.7h27.7H180V55H66V101.4z"/>
	<path fill="#CCCCCC" d="M169,66H77v34.1c0,0,0.3-0.4,0.3-0.4c3.6,1.6,7,6.3,9.6,11.3H169V66z"/>
	<path fill="#FFFFFF" d="M74.5,107.2c-3,0-4.6,1-6.9,2.4c-3.1,1.9-7,4.3-14.7,4.3c-6.9,0-10.5-1.8-13.4-3.3c-1.9-1-3.2-1.6-5.4-1.6
		c-0.7,0-1.6,0.1-2.5,0.2c-0.9,0.1-3.9,2.9-7,10.5c-4.6,11-6,22.4-4.8,25.4c4.4-0.2,7.8-2.5,11.7-5.1c5.1-3.4,10.8-7.3,19.6-7.3
		c8.6,0,15.6,4.1,21.9,7.6c4.7,2.7,9.2,5.2,12.6,4.8c0.8-1.2,1.4-6.9-1.3-17.3C81.2,115.3,76.4,107.9,74.5,107.2z M35.4,129
		c-3,0-5.5-2.5-5.5-5.5s2.5-5.5,5.5-5.5s5.5,2.5,5.5,5.5S38.4,129,35.4,129z M76.6,125.8c-0.1,0.4-0.4,0.2-1.1,0.2h-1H72v2.9
		c0,2.2-1.8,4-4,4s-4-1.8-4-4V126h-0.6h-1c-2.2,0-4-1.8-4-4s1.8-4,4-4h1H64v-1.1c0-2.2,1.8-4,4-4s4,1.8,4,4v1.1h2.4h1
		c0.8,0,1.1,0.7,1.1,1.1c1.1,0.7,1.9,1.9,1.9,3.4S77.7,125.1,76.6,125.8z"/>
	<rect x="113" y="130" fill="#FFFFFF" width="20" height="10"/>
	<path fill="#5980B7" d="M184.3,47H62.7c-2.1,0-4.7,3.1-4.7,5.2v53.3c-1,0.4-3,0.7-5.3,0.7c-5.1,0-7.3-1.2-9.8-2.4
		c-2.3-1.2-4.8-2.5-8.8-2.5c-1.2,0-2.3,0.1-3.6,0.3c-11.3,1.8-19.4,31.3-18.5,42.1c0.6,8.1,5.3,9,7.3,9c7,0,11.9-3.3,16.6-6.4
		c4.6-3.1,8.9-6,15.4-6c6.5,0,12.4,3.4,18.1,6.6c5.3,3,10.3,5.9,15.6,5.9c0.8,0,1.5-0.1,2.2-0.2c3.6-0.6,7.6-4.1,6.7-15.6
		c-0.1-1.8-0.5-4-1-7H105v11h-3.6c-2.2,0-4,1.8-4,4s1.8,4,4,4h45c2.2,0,4-1.8,4-4s-1.8-4-4-4H141v-11h43.3c2.1,0,3.7-1.2,3.7-3.4
		V52.2C188,50.1,186.4,47,184.3,47z M85.7,145.1c-3.4,0.4-7.9-2.1-12.6-4.8c-6.2-3.6-13.3-7.6-21.9-7.6c-8.8,0-14.6,3.9-19.6,7.3
		c-3.9,2.6-7.3,4.9-11.7,5.1c-1.2-3,0.2-14.4,4.8-25.4c3.2-7.6,6.1-10.3,7-10.5c0.9-0.1,1.7-0.2,2.5-0.2c2.2,0,3.5,0.7,5.4,1.6
		c2.9,1.4,6.4,3.3,13.4,3.3c7.7,0,11.6-2.4,14.7-4.3c2.3-1.4,3.9-2.4,6.9-2.4c1.9,0.8,6.6,8.1,9.9,20.6
		C87.1,138.2,86.4,143.9,85.7,145.1z M74.2,99.5c0.1,0,0.1,0,0.2,0c0,0,0.1,0,0.1,0C74.4,99.5,74.3,99.5,74.2,99.5z M86.9,111
		c-2.6-5-6-9.6-9.6-11.3c0,0-0.3,0.4-0.3,0.4V66h92v45H86.9z M133,140h-20v-10h20V140z M180,122h-42.7h-27.7H90.9c0,0,0-0.1,0-0.1
		c-0.3-1-0.6-1.9-0.9-2.9h83.2c2.1,0,3.8-0.9,3.8-3V62.8c0-2.1-1.7-4.8-3.8-4.8H73.7c-2.1,0-4.7,2.7-4.7,4.8v37.3v0.1
		c-1,0.3-2.1,0.7-3,1.2c0,0,0,0,0,0v0V55h114V122z"/>
	<circle fill="#5980B7" cx="35.4" cy="123.6" r="5.5"/>
	<path fill="#5980B7" d="M76.6,119.1c-0.6-0.4-1.4-1.1-2.1-1.1H72v-1.1c0-2.2-1.8-4-4-4s-4,1.8-4,4v1.1h-0.6h-1c-2.2,0-4,1.8-4,4
		s1.8,4,4,4h1H64v2.9c0,2.2,1.8,4,4,4s4-1.8,4-4V126h2.4c0.8,0,1.5,0.2,2.1-0.2c1.1-0.7,1.9-1.9,1.9-3.4S77.7,119.8,76.6,119.1z"/>
</g>
</svg>
