<?xml version="1.0" encoding="utf-8"?>
<!-- Generator: Adobe Illustrator 18.1.1, SVG Export Plug-In . SVG Version: 6.00 Build 0)  -->
<svg version="1.1" id="Layer_1" xmlns="http://www.w3.org/2000/svg" xmlns:xlink="http://www.w3.org/1999/xlink" x="0px" y="0px"
	 viewBox="0 0 200 200" enable-background="new 0 0 200 200" xml:space="preserve">
<g>
	<path fill="#FFFFFF" d="M50.6,92h2.8c2.2,0,3.6,2,3.6,4.3V147h15v-31.6c0-2.1,2.6-4.4,4.8-4.4H95c2.1,0,3,2.3,3,4.4V147h8v-23.7
		c0-2.2,1.9-4.3,4.1-4.3h3.9v-14H95.4c-2.2,0-4-1.7-4-3.9c0-1.4,0.7-2.5,1.7-3.2l8.4-20.1L85.5,66.2L50.6,92z"/>
	<rect x="80" y="119" fill="#CCCCCC" width="11" height="27"/>
	<path fill="#CCCCCC" d="M114,94.3c0-2.2,1.8-4,4-4s4,1.8,4,4V97h13.3l-17.1-38.2l-16,38.2H114v-0.7V94.3z"/>
	<rect x="114" y="127" fill="#FFFFFF" width="9" height="20"/>
	<rect x="145" y="127" fill="#FFFFFF" width="9" height="20"/>
	<path fill="#5980B7" d="M153.2,105.6c6.6-1.9,11.8-8.9,11.8-17.3V70.4c0-2-2-3.7-4-3.7s-4,1.7-4,3.7v17.9c0,3.9-1,7.3-4,9.1V70.3
		c0-2.2-1.8-4-4-4s-4,1.8-4,4v26.4c-2-1.9-3-5-3-8.4V70.4c0-2-2-3.7-4-3.7s-4,1.7-4,3.7v5.7l-12.6-28.7c-0.7-1.5-2-2.4-3.6-2.4
		c-1.6,0-3,1-3.6,2.5l-9.5,22.8L87.8,58.1c-1.4-1-3.3-1-4.7,0L36.2,93c-1.4,1-2,2.7-1.4,4.3s2.1,2.6,3.8,2.6H49v51.3
		c0,2.2,2.2,3.7,4.4,3.7h56.6h8.4c0.7,0,1.3,0,1.9,0h6.9c2.2,0,3.8-2,3.8-4.2v-27.5c0-2.2-1.6-4.3-3.8-4.3H122v-14h19.4
		c0.8,0,1.5-0.1,2.2-0.5c0.6,0.3,1,0.6,1.6,0.8c0,0-0.2,0.1-0.2,0.1V119h-3.7c-2.2,0-4.3,2.1-4.3,4.3v27.5c0,2.2,2.1,4.2,4.3,4.2
		h17.2c2.2,0,3.6-2,3.6-4.2v-27.5c0-2.2-1.4-4.3-3.6-4.3H153v-13.4C154,105.6,153.1,105.6,153.2,105.6z M80,146v-27h11v27H80z
		 M123,127v20h-9v-20H123z M110.1,119c-2.2,0-4.1,2.1-4.1,4.3V147h-8v-31.6c0-2.1-0.9-4.4-3-4.4H76.8c-2.1,0-4.8,2.3-4.8,4.4V147H57
		V96.3c0-2.2-1.3-4.3-3.6-4.3h-2.8l34.6-25.8L101,77.9v0L92.9,98c-1,0.7-1.6,1.8-1.6,3.1c0,2.2,1.9,3.9,4.1,3.9H114v14H110.1z
		 M122,97v-2.7c0-2.2-1.8-4-4-4s-4,1.8-4,4v2V97h-11.9l16-38.2L135.3,97H122z M154,127v20h-9v-20H154z M149.8,98.7
		C149.8,98.7,149.7,98.7,149.8,98.7c-0.4,0-0.8,0-1.2-0.1C148.9,98.7,149.4,98.7,149.8,98.7z M149.8,106.1
		C149.8,106.1,149.8,106.1,149.8,106.1c-1.1,0-2.1-0.1-3.1-0.4C147.7,106,148.8,106.1,149.8,106.1z"/>
</g>
</svg>
