<?xml version="1.0" encoding="utf-8"?>
<!-- Generator: Adobe Illustrator 18.1.1, SVG Export Plug-In . SVG Version: 6.00 Build 0)  -->
<svg version="1.1" id="Layer_1" xmlns="http://www.w3.org/2000/svg" xmlns:xlink="http://www.w3.org/1999/xlink" x="0px" y="0px"
	 viewBox="0 0 200 200" enable-background="new 0 0 200 200" xml:space="preserve">
<g>
	<path fill="#CCCCCC" d="M100,53.2c-25.8,0-46.8,21-46.8,46.8s21,46.8,46.8,46.8c25.8,0,46.8-21,46.8-46.8S125.8,53.2,100,53.2z
		 M109.4,141.6c-0.2,0.1-0.4,0.1-0.6,0.1c-2.9,0.6-5.8,0.9-8.8,0.9c-3,0-6-0.3-8.8-0.9c-0.2,0-0.4-0.1-0.6-0.1
		c-17.8-4-31.4-19.2-33-37.8c-0.2-0.4-0.2-3.3-0.2-3.8c0-23.5,19.1-42.7,42.7-42.7c23.5,0,42.7,19.1,42.7,42.7c0,0.6,0,1.1,0,1.7
		c0.1,0.3,0.1,0.6,0.1,0.9c0,0.5-0.1,0.9-0.2,1.3C140.8,122.4,127.2,137.6,109.4,141.6z"/>
	<path fill="#5980B7" d="M100,45.8c-29.9,0-54.2,24.3-54.2,54.2s24.3,54.2,54.2,54.2c29.9,0,54.2-24.3,54.2-54.2
		S129.9,45.8,100,45.8z M100,146.8c-25.8,0-46.8-21-46.8-46.8s21-46.8,46.8-46.8c25.8,0,46.8,21,46.8,46.8S125.8,146.8,100,146.8z"
		/>
	<path fill="#FFFFFF" d="M66.3,89c-0.9,3-1.4,6.4-1.5,9.6c9.2,0.7,16.5,4.2,21.8,10c7.8,8.6,9,20.5,9,26.2c1.5,0.2,2.9,0.3,4.5,0.3
		c1.5,0,3-0.1,4.5-0.3c0-5.8,1.2-17.5,9-26.1c5.3-5.9,12.6-9.5,21.8-10.2c-0.1-3.2-0.6-6.6-1.5-9.6H66.3z M100,114.2
		c-6.6,0-12-5.4-12-12c0-6.6,5.4-12,12-12c6.6,0,12,5.4,12,12C112,108.8,106.6,114.2,100,114.2z"/>
	<path fill="#FFFFFF" d="M100,97.7c-2.5,0-4.6,2-4.6,4.6s2,4.6,4.6,4.6c2.5,0,4.6-2,4.6-4.6S102.5,97.7,100,97.7z"/>
	<g>
		<path fill="#5980B7" d="M91.4,141.8C91.4,141.8,91.4,141.8,91.4,141.8c-0.1,0-0.1,0-0.2,0C91.2,141.7,91.3,141.8,91.4,141.8z"/>
		<path fill="#5980B7" d="M142.6,101.7c0-0.6,0-1.1,0-1.7c0-23.5-19.1-42.7-42.7-42.7c-23.5,0-42.7,19.1-42.7,42.7
			c0,0.6,0,3.4,0.2,3.8c1.7,18.6,15.3,33.7,33,37.8c0.2,0.1,0.4,0.1,0.6,0.1c0.1,0,0.5,0.1,0.6,0.1c-0.1,0-0.2,0-0.3,0
			c2.8,0.6,5.6,0.9,8.6,0.9c2.9,0,5.8-0.3,8.6-0.9c0,0,0,0,0,0c0.1,0,0.2,0,0.2,0c0.2,0,0.4-0.1,0.6-0.1c17.8-4,31.4-19.2,33-37.8
			c0.2-0.4,0.2-0.8,0.2-1.3C142.7,102.2,142.7,101.9,142.6,101.7z M100,64c12.8,0,24,7,30.2,17H69.8C76,71,87.2,64,100,64z
			 M65.3,106.5c6.7,0.7,11.9,3.2,15.7,7.3c5.4,6,6.8,14.3,7,19.4C76.5,129,67.6,118.9,65.3,106.5z M111.9,133.2
			c0.3-5.1,1.6-13.4,7-19.4c3.8-4.2,9-6.6,15.7-7.3C132.3,118.9,123.5,129,111.9,133.2z M113.5,108.8c-7.8,8.6-9,20.4-9,26.1
			c-1.5,0.2-2.9,0.3-4.5,0.3c-1.5,0-3-0.1-4.5-0.3c0-5.8-1.2-17.5-9-26.1c-5.3-5.9-12.6-9.5-21.8-10.2c0.1-3.2,0.6-6.6,1.5-9.6h67.5
			c0.9,3,1.4,6.4,1.5,9.6C126.1,99.3,118.8,103,113.5,108.8z"/>
		<path fill="#5980B7" d="M100,90.3c-6.6,0-12,5.4-12,12c0,6.6,5.4,12,12,12c6.6,0,12-5.4,12-12C112,95.6,106.6,90.3,100,90.3z
			 M100,106.8c-2.5,0-4.6-2-4.6-4.6s2-4.6,4.6-4.6c2.5,0,4.6,2,4.6,4.6S102.5,106.8,100,106.8z"/>
	</g>
</g>
</svg>
