<?xml version="1.0" encoding="utf-8"?>
<!-- Generator: Adobe Illustrator 18.1.1, SVG Export Plug-In . SVG Version: 6.00 Build 0)  -->
<svg version="1.1" id="Layer_1" xmlns="http://www.w3.org/2000/svg" xmlns:xlink="http://www.w3.org/1999/xlink" x="0px" y="0px"
	 viewBox="206 296 200 200" enable-background="new 206 296 200 200" xml:space="preserve">
<g>
	<path fill="#FFFFFF" d="M292.8,338.3c-2.2,0-4.3,0.5-6.2,1.7c-1.8,1-3,2.4-3.7,4.1l-21.4,52.4c-3.4,8.9-9,21.9-16.6,38.7
		c-2.2,5-2.7,8-2.7,9.5c0,3.4,1.3,4.7,2.4,5.5c2.2,1.5,4.8,2.2,7.9,2.2c2,0,4.7-0.7,6.9-5.8l7.6-20c0.6-1.6,2.2-2.5,3.9-2.5h16.6
		c6.5,0,11.9-0.2,16.1-0.2c0.3-4.1,1.1-8,2.4-11.6c-8.2,0.2-17.7,0.2-28.3,0.2c-1.3,0-2.6-0.7-3.4-1.8c-0.8-1.1-1-2.5-0.5-3.8
		c9.1-25.7,14.3-40.5,15.5-44.2c0.5-1.7,2.1-2.8,3.9-2.8c0,0,0,0,0,0c1.8,0,3.3,1,3.9,2.7c1.3,3.8,4,11.7,8.2,23.7
		c2.7,7.7,4.6,13.2,5.7,16.6c0.8-1.1,1.8-2.2,2.7-3.2c2.8-2.9,6-5.3,9.5-7c-11.9-29.9-18.4-46.1-19.3-48.1
		C302.8,341.9,300.5,338.3,292.8,338.3z"/>
	<path fill="#CCCCCC" d="M370,449.9c-0.4-7-0.5-12.3-0.5-15.9l0.1-20.8l0.1-10.7c0-3.7-1.2-4.9-4.8-4.9c-2.3,0-3.1,0.8-3.5,1.6
		c-0.2,0.5-0.6,1.5-0.9,3.3c-0.3,1.6-1.6,2.8-3.1,3.2c-1.6,0.3-3.2-0.3-4.1-1.7c-3.1-4.5-7.6-6.8-13.7-6.8c-8.2,0-14.8,2.7-20.1,8.2
		c-5.4,5.5-8,12.6-8,21.7c0,7.9,2.4,14.2,7.3,19.3c4.8,5.1,11.1,7.5,19.1,7.5c6.9,0,11.8-2.6,15-7.9c0.8-1.4,2.5-2.2,4.1-1.9
		c1.6,0.3,2.9,1.5,3.3,3.1c0.8,3.6,1.6,5,2.1,5.5c0.2,0.2,0.6,0.8,2.2,0.8C369.9,453.6,370,451.5,370,449.9z M354.2,440.3
		c-3.7,3.8-8.4,5.8-13.9,5.8c-5,0-9.3-1.9-12.7-5.7c-3.3-3.7-5-8.3-5-13.7c0-6.3,1.7-11.4,5-15.3c3.5-4.1,8-6.1,13.6-6.1
		c5,0,9.4,1.9,13.1,5.6c3.6,3.7,5.5,8.7,5.5,14.8C359.7,431.6,357.8,436.5,354.2,440.3z"/>
	<g>
		<path fill="#5980B7" d="M378.1,449.5c-0.4-6.9-0.5-12.1-0.5-15.6l0.1-20.7l0.1-10.8c0-8.2-4.7-12.9-12.8-12.9
			c-5.2,0-8.2,2.3-9.8,4.6c-4.2-3.3-9.4-5-15.6-5c-3,0-5.9,0.3-8.6,0.9c-12-30.1-18.6-46.5-19.4-48.5c-2.1-5.3-7.1-11.5-18.8-11.5
			c-3.7,0-7.2,0.9-10.4,2.8c-3.4,1.9-5.8,4.7-7.2,8.2l-21.4,52.5c-3.4,8.8-8.9,21.7-16.5,38.3c-2.3,5.2-3.4,9.4-3.4,12.9
			c0,6.8,3.3,10.5,6.1,12.4c3.5,2.4,7.7,3.5,12.5,3.5c4.5,0,10.7-1.9,14.5-10.9c0-0.1,0,0,0.1-0.1l6.7-17.6h13.7c6.6,0,12,0,16.3,0
			c-0.2-1.6-0.2-1.6,0-0.1c0.9,7.8,4,14.6,9.2,20.1c6.3,6.7,14.7,10,24.9,10c6.9,0,12.6-2,17-5.9c0.4,0.7,0.8,1.3,1.3,1.9
			c1.4,1.7,4,3.6,8.4,3.6c12.3,0,13.6-8.3,13.6-11.8C378.1,449.7,378.1,449.6,378.1,449.5z M311,403c-1-3.4-3.1-8.8-5.7-16.5
			c-4.2-12.1-6.9-20-8.2-23.8c-0.6-1.7-2.2-2.7-3.9-2.7c0,0,0,0,0,0c-1.8,0-3.4,1.1-3.9,2.8c-1.2,3.6-6.4,18.5-15.5,44.2
			c-0.4,1.3-0.3,2.6,0.5,3.7c0.8,1.1,2,1.7,3.4,1.7c10.5,0,20-0.1,28.3-0.3c-1.3,3.5-2.1,7.4-2.4,11.5c0,0.1,0,0.1,0,0.2
			c-4.3,0-9.6,0.2-16.1,0.2h-16.6c-1.7,0-3.3,0.9-3.9,2.5l-7.6,20.1c-2.2,5.1-4.8,5.7-6.9,5.7c-3.1,0-5.7-0.7-7.9-2.2
			c-1.1-0.8-2.4-2.1-2.4-5.5c0-1.6,0.5-4.5,2.7-9.5c7.6-16.8,13.2-29.8,16.6-38.7l21.4-52.4c0.7-1.8,1.9-3.1,3.7-4.1
			c1.9-1.1,4-1.7,6.2-1.7c7.7,0,10,3.6,11.2,6.4c0.9,2.1,7.3,18.2,19.3,48.1c-3.5,1.7-6.6,4-9.5,7C312.7,400.8,312,401.8,311,403
			C311,403,311,403,311,403z M302.6,404c-5.8,0.1-12.2,0.2-19.1,0.2c4.2-11.8,7.4-21,9.7-27.5c1.2,3.5,2.6,7.6,4.3,12.4
			C299.7,395.6,301.4,400.6,302.6,404z M364.5,453.6c-1.6,0-2-0.5-2.2-0.8c-0.5-0.5-1.3-2-2.1-5.5c-0.3-1.6-1.6-2.9-3.3-3.1
			c-1.6-0.3-3.3,0.5-4.1,1.9c-3.2,5.3-8.1,7.9-15,7.9c-8,0-14.2-2.5-19.1-7.5c-4.9-5.1-7.3-11.5-7.3-19.3c0-9.1,2.6-16.2,8-21.7
			c5.3-5.5,11.9-8.2,20.1-8.2c6.1,0,10.6,2.2,13.7,6.8c0.9,1.3,2.5,2,4.1,1.7c1.6-0.3,2.8-1.6,3.1-3.2c0.4-1.8,0.7-2.7,0.9-3.3
			c0.5-0.9,1.3-1.6,3.5-1.6c3.6,0,4.8,1.2,4.8,4.9l-0.1,10.7l-0.1,20.8c0,3.6,0.2,8.9,0.5,15.9C370,451.5,369.9,453.6,364.5,453.6z"
			/>
		<path fill="#5980B7" d="M341.1,405.2c-5.5,0-10.1,2.1-13.6,6.1c-3.3,3.9-5,9-5,15.3c0,5.4,1.7,10,5,13.7c3.4,3.8,7.7,5.7,12.7,5.7
			c5.5,0,10.2-1.9,13.9-5.8c3.7-3.8,5.5-8.7,5.5-14.7c0-6.1-1.8-11.1-5.5-14.8C350.5,407.1,346.1,405.2,341.1,405.2z M348.4,434.7
			c-2.2,2.2-4.8,3.3-8.1,3.3c-2.7,0-4.9-1-6.8-3.1c-2-2.2-2.9-4.9-2.9-8.3c0-4.4,1-7.7,3.1-10.1c1.9-2.3,4.3-3.3,7.5-3.3
			c2.8,0,5.3,1,7.4,3.2c2.1,2.2,3.2,5.2,3.2,9.1C351.6,429.5,350.6,432.5,348.4,434.7z"/>
	</g>
</g>
</svg>
