<?xml version="1.0" encoding="utf-8"?>
<!-- Generator: Adobe Illustrator 18.1.1, SVG Export Plug-In . SVG Version: 6.00 Build 0)  -->
<svg version="1.1" id="Layer_1" xmlns="http://www.w3.org/2000/svg" xmlns:xlink="http://www.w3.org/1999/xlink" x="0px" y="0px"
	 viewBox="206 296 200 200" enable-background="new 206 296 200 200" xml:space="preserve">
<g>
	<path fill="#FFFFFF" d="M281.5,336.1c-1.2,0.8-5.9,4.6-16.2,21.8l23.2,12.4c4.7-7.4,16.4-25.7,19.5-30.1c0.7-1.1,1.9-2.2,3.4-4.2
		h-29.6C281.6,336,281.6,336.1,281.5,336.1z"/>
	<path fill="#CCCCCC" d="M319.3,368.7l17.8-0.4l7.2-12.9c-1,0.3-2,0.2-2.9-0.3c-1-0.5-1.7-1.5-1.9-2.6c-0.8-4.2-4.5-16.4-11-16.4
		c-8.1,0-11.7,4.7-18.6,15.3l8.9,14.3C319.5,366.6,319.6,367.7,319.3,368.7z"/>
	<path fill="#FFFFFF" d="M371,404.8c-0.1-1.4-1-7.4-10.7-24.9L338,393.8c4,7.8,13.9,27,16.1,31.8c0.5,1.2,1.3,2.9,1.9,5l14.8-25.6
		C370.9,404.9,370.9,404.8,371,404.8z"/>
	<path fill="#CCCCCC" d="M347.6,445.7c4-7,1.8-12.5-3.9-23.8l-16.8,0.6c-1.1,0-2.1-0.4-2.9-1.2l-8.6,15.6l7.6,12.7
		c0.2-1,0.9-1.8,1.7-2.3c1-0.6,2.1-0.7,3.2-0.3c0.1,0,5.8,2,11.4,2C343.5,448.9,346.3,447.8,347.6,445.7z"/>
	<path fill="#FFFFFF" d="M264.2,443.6c1.3,0.7,6.8,3,26.8,3.7l-0.4-26.2c-8.8-0.6-30.3-2-35.6-2.6c-1.3-0.1-3.1-0.4-5.2-1l14.3,25.9
		C264.1,443.5,264.2,443.5,264.2,443.6z"/>
	<path fill="#CCCCCC" d="M250.5,379.4c0.7,0.7,1.1,1.7,1.1,2.7c0,1.1-0.5,2.2-1.4,2.9c-3.3,2.8-12.1,11.9-9,17.5
		c3.9,7.1,9.8,8,22.4,8.9l8.2-14.7c0.5-1,1.5-1.6,2.5-1.8l-9-15.4L250.5,379.4z"/>
	<g>
		<path fill="#5980B7" d="M307.9,377l31.6-1c1.3,0,2.6-0.9,3.2-2.1l13.3-24.1c0.8-1.4,0.6-3.2-0.5-4.3c-1.1-1.2-2.7-1.6-4.2-1
			l-5.5,2.2c-1.9-6.2-6.5-16.9-15.6-18c-0.5-0.1-1.1-0.1-1.7-0.1c-12.8,0-18.6,8.8-25.8,20l-0.5,0.7c-0.4,0.6-0.6,1.3-0.6,2
			c0-0.7,0.2-1.4,0.6-2l0.5-0.7c7.2-11.2,13-20,25.8-20c0.6,0,1.1,0,1.7,0.1c-0.5-0.2-1-0.5-1.5-0.5c-0.5,0-1-0.1-1.5-0.1h-44.9
			c-0.3,0-0.7,0-1,0c-3.7,0-9.8,3.4-25,29.4c-0.5,0.9-0.7,2.1-0.4,3.1c0.3,1,1,1.9,2,2.5l30.1,16c0.6,0.3,1.2,0.5,1.9,0.5
			c1.3,0,2.8-0.7,3.6-1.8c0.1-0.2,6.6-10.2,12.6-19.2v0l4.7,7.9l-4.9,3.1c-1.4,0.9-2.1,2.9-1.6,4.5C304.7,375.7,306.1,377,307.9,377
			C307.8,377,307.8,377,307.9,377z M288.5,370.2L265.3,358c10.3-17.2,15-21.1,16.2-21.8c0.1,0,0.1-0.1,0.2-0.1h29.6
			c-1.5,2-2.6,3.2-3.4,4.2C304.9,344.6,293.2,362.8,288.5,370.2z M310,351.3c6.9-10.6,10.6-15.3,18.6-15.3c6.4,0,10.2,12.1,11,16.4
			c0.2,1.1,0.9,2.1,1.9,2.6c0.9,0.5,1.9,0.6,2.9,0.3l-7.2,12.9l-17.8,0.4c0.3-1,0.2-2.1-0.4-3.1L310,351.3z"/>
		<path fill="#5980B7" d="M365.2,372.3c-0.5-0.9-1.4-1.6-2.5-1.9c-1.1-0.3-2.2-0.1-3.1,0.5l-29,18c-1.8,1.1-2.4,3.4-1.4,5.2
			c0.1,0.2,5.5,10.7,10.4,20.3l-9.3,0.3l-0.3-5.7c-0.1-1.7-1.3-3.1-2.9-3.5c-1.6-0.4-3.3,0.4-4.2,1.9l-15.2,27.7
			c-0.6,1.2-0.6,2.6,0.1,3.7l14.1,23.6c0.7,1.2,1.9,1.8,3.2,1.8c0.2,0,0.5,0,0.7-0.1c1.6-0.3,2.8-1.6,3-3.1l0.9-5.8
			c2.6,0.6,6,1.2,9.5,1.2c7.6,0,11.7-2.8,13.9-5.7c0.4-0.3,0.7-0.6,1-1.1c0.3-0.4,0.6-0.9,0.8-1.4l22.5-38.9c0.4-0.5,0.8-1.1,1-1.8
			C379.7,404.4,379.5,397.3,365.2,372.3z M347.6,445.7c-1.3,2.2-4,3.3-8.3,3.3c-5.6,0-11.3-2-11.4-2c-1.1-0.4-2.2-0.3-3.2,0.3
			c-0.9,0.5-1.5,1.4-1.7,2.3l-7.6-12.7l8.6-15.6c0.7,0.8,1.7,1.2,2.9,1.2l16.8-0.6C349.4,433.1,351.6,438.7,347.6,445.7z
			 M370.9,404.9L356,430.6c-0.6-2.1-1.3-3.8-1.9-5c-2.3-4.8-12.1-24-16.1-31.8l22.3-13.9c9.7,17.5,10.6,23.5,10.7,24.9
			C370.9,404.8,370.9,404.9,370.9,404.9z"/>
		<path fill="#5980B7" d="M294.8,413.3c-0.2,0-12-0.8-22.8-1.5l4.5-8.1l5,2.8c0.6,0.3,1.2,0.6,1.8,0.6c0,0,0,0,0,0
			c2.1,0,3.8-1.8,3.8-3.9c0-0.8-0.3-1.6-0.7-2.3l-15.7-27.1c-0.7-1.2-1.9-1.8-3.2-1.8l-27.5,0c0,0,0,0,0,0c-1.6,0-3,0.9-3.5,2.4
			c-0.5,1.5-0.1,3.1,1.2,4.1l4.6,3.7c-4.5,4.7-11.7,13.8-8.2,22.4c0,0,0,0,0,0c0,0.5,0.2,0.9,0.4,1.4c0.2,0.5,0.5,0.9,0.8,1.4
			l21.7,39.3c0.2,0.6,0.5,1.3,1,1.8c2.1,2.6,8.3,6.1,37.2,6.8c0,0,0.1,0,0.1,0c1.1,0,2.1-0.4,2.8-1.2c0.8-0.8,1.2-1.8,1.2-2.9
			l-0.5-34.1C298.5,415.1,296.9,413.4,294.8,413.3z M250.3,384.9c0.9-0.7,1.4-1.8,1.4-2.9c0-1-0.4-2-1.1-2.7l14.8,0l9,15.4
			c-1,0.2-1.9,0.9-2.5,1.8l-8.2,14.7c-12.6-0.9-18.5-1.9-22.4-8.9C238.1,396.8,246.9,387.7,250.3,384.9z M264.2,443.6
			c0-0.1-0.1-0.1-0.1-0.2l-14.3-25.9c2.1,0.6,3.9,0.8,5.2,1c5.3,0.6,26.8,2,35.6,2.6l0.4,26.2C271,446.5,265.4,444.3,264.2,443.6z"
			/>
	</g>
</g>
</svg>
