<?xml version="1.0" encoding="utf-8"?>
<!-- Generator: Adobe Illustrator 18.1.1, SVG Export Plug-In . SVG Version: 6.00 Build 0)  -->
<svg version="1.1" id="Layer_1" xmlns="http://www.w3.org/2000/svg" xmlns:xlink="http://www.w3.org/1999/xlink" x="0px" y="0px"
	 viewBox="0 0 200 200" enable-background="new 0 0 200 200" xml:space="preserve">
<g>
	<path fill="#FFFFFF" d="M75.5,40.1c-1.2,0.8-5.9,4.6-16.2,21.8l23.2,12.4c4.7-7.4,16.4-25.7,19.5-30.1c0.7-1.1,1.9-2.2,3.4-4.2
		H75.7C75.6,40,75.6,40.1,75.5,40.1z"/>
	<path fill="#CCCCCC" d="M113.3,72.7l17.8-0.4l7.2-12.9c-1,0.3-2,0.2-2.9-0.3c-1-0.5-1.7-1.5-1.9-2.6c-0.8-4.2-4.5-16.4-11-16.4
		c-8.1,0-11.7,4.7-18.6,15.3l8.9,14.3C113.5,70.6,113.6,71.7,113.3,72.7z"/>
	<path fill="#FFFFFF" d="M165,108.8c-0.1-1.4-1-7.4-10.7-24.9L132,97.8c4,7.8,13.9,27,16.1,31.8c0.5,1.2,1.3,2.9,1.9,5l14.8-25.6
		C164.9,108.9,164.9,108.8,165,108.8z"/>
	<path fill="#CCCCCC" d="M141.6,149.7c4-7,1.8-12.5-3.9-23.8l-16.8,0.6c-1.1,0-2.1-0.4-2.9-1.2l-8.6,15.6l7.6,12.7
		c0.2-1,0.9-1.8,1.7-2.3c1-0.6,2.1-0.7,3.2-0.3c0.1,0,5.8,2,11.4,2C137.5,152.9,140.3,151.8,141.6,149.7z"/>
	<path fill="#FFFFFF" d="M58.2,147.6c1.3,0.7,6.8,3,26.8,3.7L84.6,125c-8.8-0.6-30.3-2-35.6-2.6c-1.3-0.1-3.1-0.4-5.2-1l14.3,25.9
		C58.1,147.5,58.2,147.5,58.2,147.6z"/>
	<path fill="#CCCCCC" d="M44.5,83.4c0.7,0.7,1.1,1.7,1.1,2.7c0,1.1-0.5,2.2-1.4,2.9c-3.3,2.8-12.1,11.9-9,17.5
		c3.9,7.1,9.8,8,22.4,8.9l8.2-14.7c0.5-1,1.5-1.6,2.5-1.8l-9-15.4L44.5,83.4z"/>
	<g>
		<path fill="#5980B7" d="M101.9,81l31.6-1c1.3,0,2.6-0.9,3.2-2.1L150,53.9c0.8-1.4,0.6-3.2-0.5-4.3c-1.1-1.2-2.7-1.6-4.2-1
			l-5.5,2.2c-1.9-6.2-6.5-16.9-15.6-18c-0.5-0.1-1.1-0.1-1.7-0.1c-12.8,0-18.6,8.8-25.8,20l-0.5,0.7c-0.4,0.6-0.6,1.3-0.6,2
			c0-0.7,0.2-1.4,0.6-2l0.5-0.7c7.2-11.2,13-20,25.8-20c0.6,0,1.1,0,1.7,0.1c-0.5-0.2-1-0.5-1.5-0.5c-0.5,0-1-0.1-1.5-0.1H76.3
			c-0.3,0-0.7,0-1,0c-3.7,0-9.8,3.4-25,29.4c-0.5,0.9-0.7,2.1-0.4,3.1c0.3,1,1,1.9,2,2.5l30.1,16c0.6,0.3,1.2,0.5,1.9,0.5
			c1.3,0,2.8-0.7,3.6-1.8c0.1-0.2,6.6-10.2,12.6-19.2v0l4.7,7.9l-4.9,3.1c-1.4,0.9-2.1,2.9-1.6,4.5C98.7,79.7,100.1,81,101.9,81
			C101.8,81,101.8,81,101.9,81z M82.5,74.2L59.3,62c10.3-17.2,15-21.1,16.2-21.8c0.1,0,0.1-0.1,0.2-0.1h29.6c-1.5,2-2.6,3.2-3.4,4.2
			C98.9,48.6,87.2,66.8,82.5,74.2z M104,55.3c6.9-10.6,10.6-15.3,18.6-15.3c6.4,0,10.2,12.1,11,16.4c0.2,1.1,0.9,2.1,1.9,2.6
			c0.9,0.5,1.9,0.6,2.9,0.3l-7.2,12.9l-17.8,0.4c0.3-1,0.2-2.1-0.4-3.1L104,55.3z"/>
		<path fill="#5980B7" d="M159.2,76.3c-0.5-0.9-1.4-1.6-2.5-1.9c-1.1-0.3-2.2-0.1-3.1,0.5l-29,18c-1.8,1.1-2.4,3.4-1.4,5.2
			c0.1,0.2,5.5,10.7,10.4,20.3l-9.3,0.3l-0.3-5.7c-0.1-1.7-1.3-3.1-2.9-3.5c-1.6-0.4-3.3,0.4-4.2,1.9l-15.2,27.7
			c-0.6,1.2-0.6,2.6,0.1,3.7l14.1,23.6c0.7,1.2,1.9,1.8,3.2,1.8c0.2,0,0.5,0,0.7-0.1c1.6-0.3,2.8-1.6,3-3.1l0.9-5.8
			c2.6,0.6,6,1.2,9.5,1.2c7.6,0,11.7-2.8,13.9-5.7c0.4-0.3,0.7-0.6,1-1.1c0.3-0.4,0.6-0.9,0.8-1.4l22.5-38.9c0.4-0.5,0.8-1.1,1-1.8
			C173.7,108.4,173.5,101.3,159.2,76.3z M141.6,149.7c-1.3,2.2-4,3.3-8.3,3.3c-5.6,0-11.3-2-11.4-2c-1.1-0.4-2.2-0.3-3.2,0.3
			c-0.9,0.5-1.5,1.4-1.7,2.3l-7.6-12.7l8.6-15.6c0.7,0.8,1.7,1.2,2.9,1.2l16.8-0.6C143.4,137.1,145.6,142.7,141.6,149.7z
			 M164.9,108.9L150,134.6c-0.6-2.1-1.3-3.8-1.9-5c-2.3-4.8-12.1-24-16.1-31.8l22.3-13.9c9.7,17.5,10.6,23.5,10.7,24.9
			C164.9,108.8,164.9,108.9,164.9,108.9z"/>
		<path fill="#5980B7" d="M88.8,117.3c-0.2,0-12-0.8-22.8-1.5l4.5-8.1l5,2.8c0.6,0.3,1.2,0.6,1.8,0.6c0,0,0,0,0,0
			c2.1,0,3.8-1.8,3.8-3.9c0-0.8-0.3-1.6-0.7-2.3L64.7,77.8c-0.7-1.2-1.9-1.8-3.2-1.8L34,76c0,0,0,0,0,0c-1.6,0-3,0.9-3.5,2.4
			c-0.5,1.5-0.1,3.1,1.2,4.1l4.6,3.7c-4.5,4.7-11.7,13.8-8.2,22.4c0,0,0,0,0,0c0,0.5,0.2,0.9,0.4,1.4c0.2,0.5,0.5,0.9,0.8,1.4
			l21.7,39.3c0.2,0.6,0.5,1.3,1,1.8c2.1,2.6,8.3,6.1,37.2,6.8c0,0,0.1,0,0.1,0c1.1,0,2.1-0.4,2.8-1.2c0.8-0.8,1.2-1.8,1.2-2.9
			l-0.5-34.1C92.5,119.1,90.9,117.4,88.8,117.3z M44.3,88.9c0.9-0.7,1.4-1.8,1.4-2.9c0-1-0.4-2-1.1-2.7l14.8,0l9,15.4
			c-1,0.2-1.9,0.9-2.5,1.8l-8.2,14.7c-12.6-0.9-18.5-1.9-22.4-8.9C32.1,100.8,40.9,91.7,44.3,88.9z M58.2,147.6
			c0-0.1-0.1-0.1-0.1-0.2l-14.3-25.9c2.1,0.6,3.9,0.8,5.2,1c5.3,0.6,26.8,2,35.6,2.6l0.4,26.2C65,150.5,59.4,148.3,58.2,147.6z"/>
	</g>
</g>
</svg>
