<?xml version="1.0" encoding="utf-8"?>
<!-- Generator: Adobe Illustrator 18.1.1, SVG Export Plug-In . SVG Version: 6.00 Build 0)  -->
<svg version="1.1" id="Layer_1" xmlns="http://www.w3.org/2000/svg" xmlns:xlink="http://www.w3.org/1999/xlink" x="0px" y="0px"
	 viewBox="0 0 300 300" enable-background="new 0 0 300 300" xml:space="preserve">
<g>
	<path fill="#CCCCCC" d="M83.7,120.2c-0.1-0.2-0.2-0.4-0.3-0.6c-1.4-4-2.2-10.8,0.4-17.1c-3-3.9-6.6-7.3-10.2-8
		c-1.5-0.3-3.8-0.3-7,2.7c-5.2,4.9-4,11.5-2.8,15c2.3,6.9,8,12.7,14,14.6C79.6,124.4,81.5,122.2,83.7,120.2z"/>
	<path fill="#CCCCCC" d="M126.4,84.4c-2.9-4.3-6.5-5.9-10.5-4.7c-3.3,0.9-5.6,2.7-6.9,5.4c-0.9,1.7-1.3,3.8-1.5,5.9
		c8.2,3.5,12.3,13.2,13.2,15.4c3,0.1,5.9,0.4,8.7,1C131.9,100.7,130.9,90.8,126.4,84.4z"/>
	<path fill="#CCCCCC" d="M111,106.9c-1.5-2.8-4-6.4-7.1-7.6c-1.1-0.4-2.9-0.8-5.8,0.6c-7.2,3.7-7.2,10.6-6.6,14.3
		C97.3,110.5,103.9,108,111,106.9z"/>
	<g>
		<path fill="#FFFFFF" d="M68.8,170.6c-1-4-1.6-8.3-1.6-12.6c0-5.8,1-11.4,2.7-16.6c0.8-2.3,1.8-4.6,2.9-6.8
			c-2.2-0.9-4.3-2.2-6.3-3.7c-1.3-1-2.6-2.2-3.8-3.4c-18.4,16.6-10,32.9-3.2,46.2c1.2,2.3,2.3,4.5,3.1,6.4c3.3,7.8,1.1,15-2.6,20.4
			c10.8-0.6,17.1-5.2,20.2-8.3c-5.4-6.1-9.4-13.4-11.4-21.5C68.8,170.6,68.8,170.6,68.8,170.6z"/>
		<path fill="#FFFFFF" d="M118.9,115.9c-23.2,0-42,18.8-42,42c0,2.3,0.2,4.5,0.5,6.7c26.4-2.2,33.9-26.6,34.2-27.7
			c0.5-1.7,1.8-2.9,3.5-3.4c1.7-0.4,3.5,0.1,4.7,1.4c0.6,0.6,10.6,10.8,24.8,12.6c1.6-3.1,3.6-6,5.7-8.7c1.1-1.6,2.2-3,3.4-4.4
			C146.1,123.3,133.4,115.9,118.9,115.9z"/>
		<path fill="#FFFFFF" d="M140.7,156.6c-1.6-0.3-3.1-0.7-4.6-1.1c-7.1-2.1-13.3-5.6-17.9-9.1c-2.3,4.5-6,10.5-11.9,15.9
			c-6.2,5.6-14.7,10.5-26.1,11.9c6.3,15.2,21.3,25.8,38.7,25.8c8.4,0,16.3-2.5,22.9-6.8c-1.6-4-2.7-8.3-3.3-12.7
			C137.5,172.1,138.3,164,140.7,156.6z"/>
	</g>
	<path fill="#FFFFFF" d="M209.8,142.2c-1.2-4-3.1-7.9-6.2-11.1c-9.4,1.4-15.5,10.4-19.1,18.2c-1.5,4.1-2.4,7.8-2.8,10.2l26.8,6.8
		C210,161.3,212.1,151.5,209.8,142.2z"/>
	<path fill="#FFFFFF" d="M148.4,179.1c2.9,22.4,22.1,39.2,44.6,39.2c2,0,3.9-0.1,5.9-0.4c19-2.5,33.7-16.5,38-34.2l-87.2-22.1
		C148.1,167.2,147.6,173.1,148.4,179.1z"/>
	<path fill="#CCCCCC" d="M171.4,155.7c1.6-5.3,5.6-16.5,13.2-24.7c0.5-0.6,1-1.2,1.6-1.7c-1.5,0.1-3,0.2-4.5,0.5
		c-11.8,3-21.4,10.6-27.4,20.6c-0.1,0.3-0.3,0.6-0.4,0.9L171.4,155.7z"/>
	<path fill="#CCCCCC" d="M220,168.6l16.7,3.8c1.6-17.8-8.7-28.2-17.6-33.7C223,151,221,163.9,220,168.6z"/>
	<path fill="#5980B7" d="M261.3,179.7l-13.4-3.4c0.2-3.3,0.1-6.7-0.4-10.1c-2.6-20-15.9-36.5-33.7-43.8c0.3-1.1,0.3-2.2,0.2-3.4
		c-0.7-5-5.3-8.6-10.3-7.9c-4,0.5-7,3.5-7.8,7.2c-0.9,0-1.9-0.1-2.8-0.1c-2.4,0-4.8,0.2-7.2,0.5c-5.7,0.7-11.1,2.3-16,4.6
		c-3,1.1-6,2.6-8.9,4.6c-5.7-8-13.6-14.3-22.8-18c3.7-10.1,1.2-22.9-4.2-30.8c-5.1-7.5-12.6-10.6-20.4-8.4
		c-5.8,1.6-10.2,5.1-12.7,10.2c-1.4,2.8-2.1,6-2.3,9.1c-1.5,0.3-3.1,0.9-4.6,1.7c-1.7,0.9-3.2,1.9-4.5,3c-3.8-4.3-8.5-8.2-14-9.3
		c-3.7-0.7-9.3-0.4-15,5c-6.5,6.1-8.4,15-5.2,24.5c0.5,1.6,1.2,3.1,1.9,4.6c-25,21.8-12.8,45.6-6.2,58.5c1.1,2.1,2.1,4.2,2.8,5.8
		c3.8,9-6.8,16.6-7.3,16.9c-1.6,1.1-2.4,3.1-2,5.1c0.4,1.9,2,3.4,4,3.7c3.2,0.5,6.3,0.7,9.1,0.7c15.8,0,25.2-6.8,29.8-11.4
		c8.7,6.8,19.7,10.8,31.6,10.8c10,0,19.3-2.9,27.2-7.8c9.7,15.9,27.3,26.4,46.9,26.4c2.4,0,4.8-0.2,7.2-0.5
		c23.2-3,41.1-20.1,46.3-41.6l12.4,3.2c0.4,0.1,0.8,0.2,1.2,0.2c2.2,0,4.2-1.5,4.8-3.8C265.6,183.1,264,180.4,261.3,179.7z
		 M184.5,149.3c3.6-7.8,9.7-16.8,19.1-18.2c3.1,3.2,5,7.1,6.2,11.1c2.3,9.3,0.2,19.1-1.3,24.1l-26.8-6.8
		C182.1,157.1,182.9,153.4,184.5,149.3z M236.7,172.4l-16.7-3.8c1-4.7,3-17.6-0.9-30C228,144.2,238.3,154.6,236.7,172.4z
		 M181.8,129.7c1.5-0.2,3-0.4,4.5-0.5c-0.6,0.6-1.1,1.2-1.6,1.7c-7.6,8.3-11.6,19.4-13.2,24.7l-17.4-4.6c0.1-0.3,0.3-0.6,0.4-0.9
		C160.3,140.3,170,132.8,181.8,129.7z M153.7,134.4c-1.2,1.3-2.3,2.8-3.4,4.4c-2.2,2.7-4.1,5.6-5.7,8.7c-14.1-1.8-24.2-12-24.8-12.6
		c-1.2-1.3-3-1.8-4.7-1.4c-1.7,0.4-3,1.7-3.5,3.4c-0.3,1.1-7.8,25.5-34.2,27.7c-0.4-2.2-0.5-4.4-0.5-6.7c0-23.2,18.8-42,42-42
		C133.4,115.9,146.1,123.3,153.7,134.4z M109,85c1.3-2.7,3.6-4.5,6.9-5.4c4-1.1,7.6,0.5,10.5,4.7c4.4,6.4,5.5,16.4,3,23
		c-2.8-0.6-5.7-0.9-8.7-1c-0.8-2.2-5-11.9-13.2-15.4C107.7,88.8,108.2,86.8,109,85z M98.1,99.9c2.8-1.5,4.6-1.1,5.8-0.6
		c3.1,1.2,5.6,4.8,7.1,7.6c-7.1,1.1-13.7,3.6-19.5,7.3C90.9,110.5,90.9,103.6,98.1,99.9z M66.6,97.1c3.2-3,5.5-2.9,7-2.7
		c3.6,0.7,7.2,4.2,10.2,8c-2.6,6.3-1.8,13.1-0.4,17.1c0.1,0.2,0.2,0.4,0.3,0.6c-2.1,2-4.1,4.2-5.9,6.5c-6-1.9-11.7-7.8-14-14.6
		C62.6,108.6,61.4,102,66.6,97.1z M60.1,200.5c3.7-5.4,5.9-12.6,2.6-20.4c-0.8-2-2-4.1-3.1-6.4c-6.8-13.2-15.2-29.5,3.2-46.2
		c1.2,1.3,2.5,2.4,3.8,3.4c2,1.5,4.1,2.7,6.3,3.7c-1.1,2.2-2.1,4.4-2.9,6.8c-1.8,5.2-2.7,10.8-2.7,16.6c0,4.4,0.5,8.6,1.6,12.6
		c0,0,0,0.1,0,0.1c2.1,8.1,6.1,15.4,11.4,21.5C77.2,195.3,70.9,199.8,60.1,200.5z M118.9,199.9c-17.4,0-32.4-10.7-38.7-25.8
		c11.4-1.4,19.9-6.2,26.1-11.9c5.8-5.3,9.6-11.4,11.9-15.9c4.6,3.5,10.8,7,17.9,9.1c1.5,0.4,3.1,0.8,4.6,1.1
		c-2.4,7.5-3.2,15.5-2.1,23.8c0.6,4.4,1.7,8.7,3.3,12.7C135.2,197.4,127.4,199.9,118.9,199.9z M198.9,217.9
		c-1.9,0.3-3.9,0.4-5.9,0.4c-22.5,0-41.7-16.9-44.6-39.2c-0.8-6-0.3-11.9,1.2-17.4l87.2,22.1C232.6,201.4,217.9,215.4,198.9,217.9z"
		/>
</g>
</svg>
