<?xml version="1.0" encoding="utf-8"?>
<!-- Generator: Adobe Illustrator 18.1.1, SVG Export Plug-In . SVG Version: 6.00 Build 0)  -->
<svg version="1.1" id="Layer_1" xmlns="http://www.w3.org/2000/svg" xmlns:xlink="http://www.w3.org/1999/xlink" x="0px" y="0px"
	 viewBox="0 0 200 200" enable-background="new 0 0 200 200" xml:space="preserve">
<g>
	<path fill="#FFFFFF" d="M104,151.7C104,151.7,104,151.7,104,151.7c6-4.4,13.1-8,21-11.8c8.5-4.1,17.2-8.3,22.5-13.2
		c7.4-6.8,12.4-26.2,14.7-38.1c-0.4,0.4-0.8,0.9-1.3,1.5c-0.9,1.1-1.9,3.3-3,5.9c-2.1,4.7-4.9,11-10.1,18.1
		c-0.4,0.6-0.8,1.2-1.4,1.8c-5.2,6.5-10.8,10.3-13.6,11.9c-0.8,0.5-1.4,0.8-1.6,0.9c-1.9,0.8-4.1-0.1-4.9-2s0-4.1,1.8-5
		c0,0,0.4-0.2,0.9-0.5c1.3-0.8,5.1-3.4,11.7-10.3c0.3-0.3,0.5-0.7,0.8-1c0.4-0.8,0.3-1.4,0.1-1.8c-4.6,0.9-12.9,5.9-24.8,15
		c-9.8,7.5-12.4,17.3-12.8,24.7C104,149.2,104,150.5,104,151.7z"/>
	<path fill="#FFFFFF" d="M52.5,126.7c5.3,4.9,14.1,9.1,22.5,13.2c7.9,3.8,15.4,7.4,21.1,11.8c0.4-7.5-1.1-19.6-12.9-28.6
		C71.3,114,63,109,58.4,108.1c-0.2,0.4-0.3,1,0.1,1.8c0.3,0.3,0.5,0.7,0.8,1c6.6,6.9,10.4,9.5,11.8,10.3c0.4,0.2,0.8,0.4,0.8,0.4
		c1.8,0.9,2.7,3.1,1.8,5c-0.8,1.9-3,2.8-4.9,2c-0.2-0.1-0.8-0.3-1.7-0.9c-2.8-1.6-8.4-5.4-13.6-11.9c-0.5-0.6-1-1.2-1.4-1.8
		c-5.2-7.1-8.1-13.4-10.1-18.1c-1.1-2.6-2.1-4.8-3-5.9c-0.4-0.5-0.9-1-1.3-1.5C40.1,100.6,45.2,120,52.5,126.7z"/>
	<g>
		<path fill="#CCCCCC" d="M63.1,62.1c0,22.3,29.3,38.1,36.8,41.7c11.7-7,37-25.6,37-41.7c0-9.8-7.4-17.8-16.6-17.8
			c-8.7,0-15.9,7.3-16.5,16.5c-0.1,2-1.8,3.6-3.8,3.6c-2,0-3.7-1.6-3.8-3.6c-0.6-9.3-7.9-16.5-16.5-16.5
			C70.5,44.3,63.1,52.2,63.1,62.1z"/>
		<g>
			<path fill="#5980B7" d="M98.5,111.6c0.5,0.2,1,0.3,1.5,0.3c0.7,0,1.3-0.2,1.9-0.5c1.7-1,42.6-24.4,42.6-49.4
				c0-14-10.9-25.5-24.2-25.5c-8.5,0-16,4.6-20.3,11.7c-4.3-7-11.9-11.7-20.3-11.7c-13.3,0-24.2,11.4-24.2,25.5
				C55.4,92.5,96.7,110.8,98.5,111.6z M79.6,44.3c8.7,0,15.9,7.3,16.5,16.5c0.1,2,1.8,3.6,3.8,3.6c2,0,3.7-1.6,3.8-3.6
				c0.6-9.3,7.9-16.5,16.5-16.5c9.1,0,16.6,8,16.6,17.8c0,16.2-25.3,34.7-37,41.7c-7.5-3.7-36.8-19.4-36.8-41.7
				C63.1,52.2,70.5,44.3,79.6,44.3z"/>
			<path fill="#5980B7" d="M169.9,80.3c-1.2-1.3-2.8-2-4.5-2c-3.1,0-6.5,2.3-10.3,6.9c-1.5,1.9-2.7,4.4-4.1,7.7
				c-1.2,2.7-2.5,5.8-4.4,9.2c-1.2-1.1-2.7-1.8-4.1-1.8c-0.1,0-0.3,0-0.3,0c-2.8,0.2-8.8,0.6-29.9,16.7c-5.9,4.5-9.7,9.6-12.1,14.7
				c-2.4-5.1-6.2-10.2-12.1-14.7c-21.2-16.2-27.1-16.5-30-16.7c-0.1,0-0.2,0-0.3,0c-1.5,0-2.9,0.6-4.1,1.8c-1.9-3.4-3.2-6.5-4.4-9.2
				c-1.4-3.2-2.5-5.8-4.1-7.7c-3.8-4.7-7.2-6.9-10.3-6.9c-1.7,0-3.3,0.7-4.5,2c-0.8,0.8-1.1,2-1,3.1c0.2,1.5,5.6,37.2,18.2,48.9
				c6.2,5.7,15.4,10.1,24.4,14.4c9.7,4.6,19.6,9.4,24.1,15.1c0.7,0.9,1.8,1.5,3,1.5c0.2,0,0.5,0,0.7-0.1c0.1,0,0.3-0.1,0.4-0.1
				c0.1,0,0.3,0.1,0.4,0.1c0.2,0,0.5,0.1,0.7,0.1c1.2,0,2.3-0.5,3-1.5c4.4-5.7,14.4-10.5,24.1-15.1c9-4.3,18.2-8.8,24.4-14.4
				c12.7-11.7,18-47.4,18.2-48.9C171,82.3,170.7,81.2,169.9,80.3z M96.2,151.7c-5.7-4.4-13.2-8-21.1-11.8
				c-8.5-4.1-17.2-8.3-22.5-13.2c-7.3-6.8-12.4-26.2-14.8-38.1c0.4,0.4,0.8,0.9,1.3,1.5c0.9,1.1,1.9,3.3,3,5.9
				c2.1,4.7,4.9,11,10.1,18.1c0.4,0.6,0.8,1.2,1.4,1.8c5.2,6.5,10.8,10.3,13.6,11.9c0.9,0.6,1.5,0.8,1.7,0.9c1.9,0.8,4.1-0.1,4.9-2
				c0.8-1.9,0-4.1-1.8-5c-0.1,0-0.4-0.2-0.8-0.4c-1.3-0.8-5.1-3.4-11.8-10.3c-0.3-0.3-0.5-0.7-0.8-1c-0.4-0.8-0.3-1.4-0.1-1.8
				c4.6,0.9,12.9,5.9,24.8,15C95.1,132.2,96.6,144.3,96.2,151.7z M147.5,126.7c-5.3,4.9-14.2,9.1-22.7,13.2
				c-7.7,3.7-15,7.3-20.9,11.6c0-1.2,0.1-2.4,0-3.7c0.4-7.4,3.1-17.1,12.9-24.7c11.9-9.1,20.2-14.1,24.8-15c0.2,0.4,0.3,1-0.1,1.8
				c-0.3,0.3-0.5,0.7-0.8,1c-6.6,6.9-10.4,9.5-11.7,10.3c-0.5,0.3-0.8,0.5-0.9,0.5c-1.9,0.9-2.7,3.1-1.8,5s3,2.8,4.9,2
				c0.3-0.1,0.8-0.3,1.6-0.9c2.9-1.7,8.5-5.4,13.6-11.9c0.5-0.6,1-1.2,1.4-1.8c5.2-7.1,8.1-13.4,10.1-18.1c1.1-2.6,2.1-4.8,3-5.9
				c0.4-0.6,0.9-1,1.3-1.5C159.9,100.5,154.8,119.9,147.5,126.7z"/>
		</g>
	</g>
</g>
</svg>
