<?xml version="1.0" encoding="utf-8"?>
<!-- Generator: Adobe Illustrator 18.1.1, SVG Export Plug-In . SVG Version: 6.00 Build 0)  -->
<svg version="1.1" id="Layer_1" xmlns="http://www.w3.org/2000/svg" xmlns:xlink="http://www.w3.org/1999/xlink" x="0px" y="0px"
	 viewBox="206 296 200 200" enable-background="new 206 296 200 200" xml:space="preserve">
<g>
	<path fill="none" d="M340.6,356.2c0.1,0.3,0.2,0.5,0.2,0.8c0.1,0.3,0.2,0.6,0.3,0.9c0.1,0.3,0.1,0.6,0.2,0.8
		c0.1,0.3,0.2,0.6,0.2,0.9c0.1,0.3,0.1,0.6,0.2,0.8c0.1,0.3,0.1,0.6,0.2,1c0,0.3,0.1,0.6,0.1,0.9c0,0.3,0.1,0.7,0.1,1
		c0,0.3,0.1,0.6,0.1,0.9c0,0.3,0.1,0.7,0.1,1c0,0.3,0,0.6,0,0.9c0,0.3,0,0.5,0,0.8c0,0.1,0,0.4,0,0.5c0,0.1,0,0.2,0,0.3
		c0,4.1-0.7,7.9-2,11.6c1.2,0.2,2.4,0.3,3.6,0.3c0.1,0,0.2,0,0.2,0s0.2,0,0.2,0c13.3-0.1,24.1-11.3,24.1-24.6c0-0.2,0,0,0-1H340
		c0.1,1,0.2,0.8,0.3,1C340.4,355.3,340.5,355.9,340.6,356.2z"/>
	<path fill="#CCCCCC" d="M344.2,330.7c-6.5,0-12.4,2.7-16.8,6.9c0,0,0,0.1,0,0.1c0.2,0.2,0.5,0.4,0.7,0.6c0.2,0.2,0.5,0.4,0.7,0.6
		c0.2,0.2,0.5,0.4,0.7,0.6c0.2,0.2,0.4,0.4,0.7,0.6c0.2,0.2,0.4,0.4,0.6,0.6c0.2,0.2,0.4,0.4,0.6,0.6c0.2,0.2,0.4,0.4,0.6,0.6
		c0.2,0.2,0.4,0.4,0.6,0.6c0.2,0.2,0.4,0.4,0.6,0.7c0.2,0.2,0.4,0.4,0.6,0.7c0.2,0.2,0.4,0.5,0.5,0.7c0.2,0.2,0.4,0.5,0.6,0.7
		c0.2,0.2,0.3,0.2,0.5,0.4c0.2,0.2,0.3,0.4,0.5,0.4h31C363.4,337,354.5,330.7,344.2,330.7z"/>
	<path fill="#CCCCCC" d="M249.7,382.9c-0.1-0.1-0.2-0.1-0.3-0.2c-3.3-2.1-6.3-4.8-8.6-7.9c-2.6,1-6,3.6-5.2,10.4
		c0.2,1.8,1.3,3.6,2.7,5.1c3.3-2.9,7.1-5.4,11.2-7.2c0,0,0-0.1,0-0.1C249.5,383,249.7,383,249.7,382.9z"/>
	<path fill="#FFFFFF" d="M268.5,367.3c0-4.9,1-9.6,2.7-13.9c-4.2-2.2-7.4-4.7-9.5-6.7c-7.2,6.8-15,10.1-19.3,11.6
		c1.5,11.9,11.6,21.2,23.9,21.3c0.1,0,0.2,0,0.2,0s0.2,0,0.2,0c1.3,0,2.5-0.1,3.7-0.3C269.2,375.5,268.5,371.5,268.5,367.3z"/>
	<path fill="#FFFFFF" d="M277,390.8c-0.6-0.7-1.1-1.4-1.6-2.1c-2.8-0.7-5.8-1.1-8.8-1.1c-5.5,0-10.7,1.3-15.3,3.6
		C255.7,394,264.8,397.5,277,390.8z"/>
	<path fill="#FFFFFF" d="M283.1,401.5c1.4-0.7,2.9-1.4,4.4-2c-1.6-0.9-3-1.8-4.4-2.9c-7.3,4.5-13.9,6.1-19.6,6.1
		c-9.5,0-16.8-4.4-19.8-6.8c-7.5,6.4-12.7,15.9-12.7,26.5V435h26.3c2.8-14,12.4-26.8,25.3-33.7c0.1,0,0.1,0.1,0.2,0.1
		C282.9,401.4,283,401.6,283.1,401.5z"/>
	<path fill="#CCCCCC" d="M282.9,338.1c-3.4-3.1-8.5-5.5-16.3-5.5c-1.1,0-2.3,0-3.5,0.1c-10.6,0.9-17.9,7.1-20.1,16.7
		c4.4-1.8,10.5-5.3,15.8-11.3c0.8-0.9,1.9-1.4,3-1.4c0.1,0,0.1,0,0.2,0c1.2,0,2.3,0.6,3.1,1.6c0.2,0.3,3.6,4.6,10,7.9
		C277.2,343.2,279.9,340.4,282.9,338.1z"/>
	<path fill="#FFFFFF" d="M344.2,394.3c5.8,0,9.5-2.5,11.6-4.6c-3.6-1.3-7.6-2-11.6-2c-3,0-6,0.4-8.7,1.1c-0.5,0.7-1.1,1.4-1.6,2.1
		C335.1,392.4,338,394.3,344.2,394.3z"/>
	<path fill="#FFFFFF" d="M344.2,402.3c-8.7,0-13.5-3-16.2-5.9c-1.5,1.1-3,2.2-4.7,3.1c1.5,0.6,3,1.3,4.4,2c0.1,0,0.2,0.1,0.3,0.1
		c0.1,0,0.1-0.4,0.2-0.3c12.9,6.8,22.5,19.7,25.3,33.7H378v-12.6c0-12.1-5.8-22.8-15.2-29C359.8,397.1,354.4,402.3,344.2,402.3z"/>
	<path fill="#FFFFFF" d="M305.2,396.2c0.1,0,0.2,0,0.3,0s0.2,0,0.3,0c14.5-0.1,26.4-10.9,28.3-24.9c-13.2-1.9-23.2-12.1-28.3-18.4
		c-4.3,5.8-13.1,14.3-29,17.8C278.4,384.9,290.5,396,305.2,396.2z"/>
	<path fill="#CCCCCC" d="M305.4,338.4c-14.2,0-26,10.3-28.4,23.8c18.6-4.9,24.5-17.7,24.7-18.3c0.6-1.4,1.9-2.3,3.4-2.4
		c0.1,0,0.2,0,0.3,0c1.4,0,2.7,0.7,3.4,1.9c0.1,0.2,10.5,16.5,25.1,19.4C331.8,349,319.8,338.4,305.4,338.4z"/>
	<path fill="#FFFFFF" d="M300.5,411.4l-3.8-6.3c-2.2,0.5-4.3,1.1-6.4,2l5.5,10.1L300.5,411.4z"/>
	<path fill="#FFFFFF" d="M319.3,426.4L309,445.6c-0.7,1.3-2.1,2.1-3.5,2.1s-2.8-0.8-3.5-2.1l-18.9-34.8c-11.2,7.3-18.9,20-18.9,34.3
		V461h82v-15.9c0-14.4-7.3-27-18.5-34.3L319.3,426.4C319.2,426.4,319.3,426.4,319.3,426.4z"/>
	<path fill="#FFFFFF" d="M310.6,411.7l4.5,5.5l5.5-10.1c-1.6-0.6-3.3-1.2-5-1.6L310.6,411.7z"/>
	<polygon fill="#CCCCCC" points="305.4,418.1 299.9,424.9 305.4,435.2 310.9,424.9 	"/>
	<path fill="#5980B7" d="M388.5,350c0-2.2-1.8-4-4-4h-9.2c-3.8-13-16.3-23.4-31.2-23.4c-9.5,0-18,4.2-23.9,10.7
		c-0.2-0.1-0.3-0.1-0.5-0.2c-0.3-0.1-0.6-0.2-0.8-0.3c-0.3-0.1-0.6-0.2-0.8-0.3c-0.3-0.1-0.6-0.2-0.9-0.3c-0.3-0.1-0.6-0.2-0.8-0.3
		c-0.3-0.1-0.6-0.2-0.9-0.3c-0.3-0.1-0.5-0.2-0.8-0.2c-0.3-0.1-0.6-0.1-0.9-0.2c-0.3-0.1-0.6-0.1-0.8-0.2c-0.3-0.1-0.7-0.1-1-0.2
		c-0.3,0-0.5-0.1-0.8-0.1c-0.4-0.1-0.7-0.1-1.1-0.1c-0.2,0-0.5-0.1-0.7-0.1c-0.4,0-0.8-0.1-1.3-0.1c-0.2,0-0.4,0-0.6,0
		c-0.6,0-1.3,0-1.9,0c-5.3,0-10.3,1.1-14.9,3.1c-5.9-6.5-14.5-10.6-24-10.6c-17.8,0-32.3,14.4-32.4,32.2c0.4-16.8,11.7-29,28.2-30.4
		c-16.5,1.4-28,13.6-28.3,30.4c0,0-0.1,0-0.1,0.1c0,0,0,0,0,0c0,1.2,0.6,2.4,1.5,3.2c0.7,0.6,1.6,0.9,2.6,0.9
		c-0.9,0-1.8-0.3-2.5-0.9c-0.9-0.8-1.4-1.9-1.4-3.2c0,0,0,0,0,0.1c0,4.5,0.9,8.7,2.5,12.6c-1.9,0.9-4.1,2.3-5.8,4.6
		c-2.9,3.6-4,8.2-3.3,13.8c0.5,3.9,2.5,7.2,5.1,9.9c0,0-0.3,0.1-0.3,0.1c-5.6,7.2-9.4,16.3-9.4,26.2v17.5c0,2.2,2.6,3.1,4.8,3.1
		h28.6c0.1-2,0.4-5,0.9-8H231v-12.6c0-10.6,5.2-20.1,12.7-26.5c-1-0.8-1.4-1.4-1.4-1.4c-1.5-1.6-1.4-4.2,0.3-5.7
		c0.8-0.8,1.9-1.1,2.9-1.1c-1,0-2,0.3-2.8,1.1c-1.6,1.5-1.7,4.1-0.1,5.7c0,0,0.6,0.6,1.6,1.4c3,2.4,9.8,6.8,19.3,6.8
		c5.7,0,12.3-1.6,19.6-6.1c1.4,1.1,2.9,2,4.4,2.9c-1.5,0.6-3,1.3-4.4,2c-0.1,0-0.2,0.1-0.3,0.1c-0.1,0-0.1,0.1-0.2,0.1c0,0,0,0,0,0
		c-12.9,6.8-22.5,19.3-25.3,34.1c-0.5,2.6-1,5.3-1.1,8c0,0.4-0.3,0.8-0.3,1.2v20.3c0,2.2,2.3,3.6,4.5,3.6h89.9
		c2.2,0,3.7-1.3,3.7-3.6v-20.3c0-0.4,0.2-1.1,0.2-1.5c0-0.1,0.2-0.7,0.2-0.7h28.5c2.2,0,3.1-0.9,3.1-3.1v-17.5
		c0-16.2-8.6-30.2-21.8-37.5c-0.3-0.2-0.5-0.5-0.8-0.6c-0.2-0.1-0.3-0.1-0.5-0.2c-0.7-0.4-1.5-0.7-2.3-1.1
		c-5.1-2.2-10.5-3.4-16.4-3.4c-0.1,0,0,0-0.1,0s-0.1,0-0.2,0c-1.2,0-2.4-0.1-3.6-0.3c1.3-3.6,2-7.5,2-11.6c0-0.1,0-0.2,0-0.3
		c0-0.1,0-0.4,0-0.5c0-0.3,0-0.5,0-0.8c0-0.3,0-0.6,0-0.9c0-0.3,0-0.7-0.1-1c0-0.3,0-0.6-0.1-0.9c0-0.3-0.1-0.7-0.1-1
		c0-0.3-0.1-0.6-0.1-0.9c-0.1-0.3-0.1-0.6-0.2-1c-0.1-0.3-0.1-0.6-0.2-0.8c-0.1-0.3-0.1-0.6-0.2-0.9c-0.1-0.3-0.1-0.6-0.2-0.8
		c-0.1-0.3-0.2-0.6-0.3-0.9c-0.1-0.3-0.2-0.5-0.2-0.8c-0.1-0.3-0.2-0.9-0.3-1.2c-0.1-0.2-0.2,0-0.3-1h28.4c0,1,0,0.8,0,1
		c0,13.3-10.8,24.3-24.1,24.5c5.8,0,11.4,1.3,16.5,3.5c9.4-5.7,15.7-16.2,15.7-28c0-0.2,0,0,0-1h8C386.7,354,388.5,352.2,388.5,350z
		 M305.4,338.4c14.4,0,26.4,10.6,28.5,24.4c-14.6-2.9-25-19.2-25.1-19.4c-0.7-1.2-2-1.9-3.4-1.9c-0.1,0-0.2,0-0.3,0
		c-1.5,0.1-2.8,1-3.4,2.4c-0.3,0.6-6.1,13.4-24.7,18.3C279.4,348.7,291.2,338.4,305.4,338.4z M263.1,332.7c1.2-0.1,2.4-0.1,3.5-0.1
		c7.8,0,12.9,2.3,16.3,5.5c-3,2.3-5.7,5.1-7.9,8.3c-6.4-3.3-9.8-7.6-10-7.9c-0.7-1-1.8-1.6-3.1-1.6c-0.1,0-0.1,0-0.2,0
		c-1.2,0-2.2,0.5-3,1.4c-5.3,6-11.5,9.4-15.8,11.3C245.2,339.8,252.5,333.6,263.1,332.7z M238.3,390.3c-1.4-1.6-2.5-3.3-2.7-5.1
		c-0.8-6.9,2.6-9.4,5.2-10.4c2.4,3.1,5.3,5.8,8.6,7.9c0.1,0.1,0.2,0.2,0.3,0.2c0,0-0.2,0.1-0.2,0.2c0,0,0,0.1,0,0.1l0,0
		C245.4,385,241.6,387.4,238.3,390.3z M251.3,391.2C251.3,391.2,251.3,391.2,251.3,391.2c4.6-2.3,9.8-3.6,15.3-3.6
		c3.1,0,6,0.4,8.8,1.1c-2-2.7-3.6-5.8-4.7-9c-1.3-0.1-2.6-0.2-3.9-0.2c-0.1,0-0.2,0-0.2,0c-0.1,0-0.2,0-0.2,0
		c-12.3-0.1-22.5-9.4-23.9-21.3c4.3-1.4,12.1-4.7,19.3-11.6c2.1,2,5.3,4.5,9.5,6.7c-1.8,4.3-2.7,9-2.7,13.9c0,4.2,0.7,8.2,2,12
		c-1.2,0.2-2.4,0.3-3.7,0.3c1.3,0,2.6,0.1,3.9,0.2c1.2,3.2,2.8,6.2,4.7,9c0.5,0.7,1,1.4,1.6,2.1C264.8,397.5,255.7,394,251.3,391.2z
		 M276.7,370.6c15.9-3.5,24.7-12,29-17.8c5.1,6.3,15.1,16.5,28.3,18.4c-1.9,14-13.9,24.8-28.3,24.9c-0.1,0-0.2,0-0.3,0s-0.2,0-0.3,0
		C290.5,396,278.4,384.9,276.7,370.6z M315.1,417.2l-4.5-5.5l5-6.3c1.7,0.4,3.4,1,5,1.6L315.1,417.2z M296.7,405.1l3.8,6.3l-4.7,5.8
		l-5.5-10.1C292.4,406.3,294.5,405.6,296.7,405.1z M305.4,418.1l5.5,6.8l-5.5,10.3l-5.5-10.3L305.4,418.1z M346,461h-82v-15.9
		c0-14.4,7.7-27,18.9-34.3l18.8,34.8c0.7,1.3,2.1,2.1,3.6,2.1s2.9-0.8,3.6-2.1l10.4-19.2c0,0,0,0,0,0l8.4-15.6l2-3.7l-2.1,3.7
		c11.2,7.3,18.5,20,18.5,34.3V461z M378,422.4V435h-24.5c0.1,1,0.3,1.9,0.4,2.7c-0.1-0.7-0.2-1.2-0.4-1.9
		c-2.8-14.8-12.4-27.2-25.3-34c-0.1,0-0.1-0.1-0.2-0.1c-0.1-0.1-0.2-0.1-0.3-0.1c-1.4-0.7-2.9-1.4-4.4-2c1.6-0.9,3.2-2,4.7-3.1
		c2.7,2.9,7.5,5.9,16.2,5.9c10.1,0,15.8-5.1,18.7-8.9C372.2,399.7,378,410.3,378,422.4z M344.2,387.6c4.1,0,8,0.7,11.6,2
		c-2.1,2.2-5.8,4.6-11.6,4.6c-6.1,0-9-1.9-10.4-3.4c0.6-0.7,1.1-1.4,1.6-2.1C338.2,388,341.1,387.6,344.2,387.6z M335.9,346
		c-0.2,0-0.3-0.2-0.5-0.4c-0.2-0.2-0.3-0.3-0.5-0.6c-0.2-0.2-0.4-0.4-0.6-0.6c-0.2-0.2-0.4-0.4-0.5-0.7c-0.2-0.2-0.4-0.4-0.6-0.7
		c-0.2-0.2-0.4-0.4-0.6-0.7c-0.2-0.2-0.4-0.4-0.6-0.6c-0.2-0.2-0.4-0.4-0.6-0.6c-0.2-0.2-0.4-0.4-0.6-0.6c-0.2-0.2-0.4-0.4-0.6-0.6
		c-0.2-0.2-0.4-0.4-0.7-0.6c-0.2-0.2-0.4-0.4-0.7-0.6c-0.2-0.2-0.5-0.4-0.7-0.5c-0.2-0.2-0.5-0.4-0.7-0.5c0,0,0,0,0,0
		c4.4-4.2,10.3-7,16.8-7c10.3,0,19.2,6.3,22.7,15.3H335.9z"/>
</g>
</svg>
