<?xml version="1.0" encoding="utf-8"?>
<!-- Generator: Adobe Illustrator 18.1.1, SVG Export Plug-In . SVG Version: 6.00 Build 0)  -->
<svg version="1.1" id="Layer_1" xmlns="http://www.w3.org/2000/svg" xmlns:xlink="http://www.w3.org/1999/xlink" x="0px" y="0px"
	 viewBox="0 0 200 200" enable-background="new 0 0 200 200" xml:space="preserve">
<g>
	<path fill="#CCCCCC" d="M87,100v-9.8c3-0.7,6.7-2.1,9.7-4.1l7.1,7.3l7.4-7.5l-7.3-7.4c2.1-3,3.5-6.4,4.2-10.4H119V57h-10.8
		c-0.7-4-2.1-6.9-4.2-9.9l7-6.9l-7.5-7.4l-6.6,7c-3.1-2.1-7-3.5-10-4.3V25H76v10.5c-4,0.7-7.5,2.2-10.6,4.3l-7.1-7l-7.6,7.5l7,6.7
		c-2,3.1-3.5,5.9-4.2,9.9H44v11h9.5c0.7,4,2.2,7.3,4.3,10.4l-7.2,7.3l7.5,7.6l7.5-7.2c3,2,6.3,3.5,10.3,4.2v9.8H87z M62.6,62.9
		c0-10.1,8.2-18.2,18.2-18.2s18.2,8.2,18.2,18.2c0,10.1-8.2,18.2-18.2,18.2S62.6,72.9,62.6,62.9z"/>
	<path fill="#5980B7" d="M86.2,108c4.2,0,7.8-3.3,7.8-7.5v-4.7c0-0.2,0.6-0.3,1-0.5l3.2,3.3c1.5,1.5,3.4,2.2,5.3,2.2
		s3.8-0.7,5.3-2.2l7.5-7.5c1.4-1.4,2.2-3.3,2.2-5.3s-0.8-3.9-2.2-5.3l-3.2-3.7c0.2-0.4,0.4-0.8,0.5-1.8h4.5c4.2,0,7.7-2.4,7.7-6.6
		V57.8c0-4.2-3.6-7.8-7.7-7.8h-4.4c-0.2-1-0.4-0.8-0.6-1.3l3.1-3c2.9-2.9,2.9-7.7,0-10.6l-7.5-7.5c-1.4-1.4-3.3-2.2-5.3-2.2
		s-3.9,0.8-5.3,2.2l-2.8,3c-0.5-0.2-0.4-0.4-1.4-0.6v-4.2c0-4.2-3.7-7.7-7.8-7.7H75.5c-4.2,0-7.5,3.5-7.5,7.7v4.2
		c0,0.2-1,0.4-1.5,0.6l-3-3.2C62.1,26,60.1,25,58.1,25h0c-2,0-3.9,1-5.3,2.4L45.3,35c-2.9,2.9-2.9,7.8,0,10.7l3.1,3
		C48.2,49.1,48,49,47.8,50h-4.4c-4.2,0-7.4,3.6-7.4,7.8v10.7c0,4.2,3.3,6.6,7.4,6.6H48c0.2,1,0.4,1.3,0.5,1.8l-3.2,3.5
		c-2.9,2.9-2.9,7.8,0,10.8l7.5,7.6c1.5,1.5,3.4,2.2,5.3,2.2s3.9-0.7,5.3-2.2l3.3-3.3c0.4,0.2,1.2,0.3,1.2,0.5v4.7
		c0,4.2,3.4,7.5,7.5,7.5H86.2z M65.7,86.1l-7.4,7.3l-7.6-7.5l7.2-7.4c-2.1-3-3.6-6.4-4.3-10.4H44V57h9.5c0.7-4,2.1-6.9,4.2-9.9
		l-7-6.9l7.5-7.4l7.2,7c3.1-2.1,6.6-3.5,10.6-4.3V25h11v10.5c3,0.7,6.9,2.2,10,4.3l6.8-7l7.4,7.5l-7.1,6.7c2,3.1,3.4,5.9,4.1,9.9
		H119v11h-10.9c-0.7,4-2.2,7.3-4.3,10.4l7.2,7.3l-7.5,7.6L96.7,86c-3,2-6.7,3.5-9.7,4.2v9.8H76v-9.8C72,89.5,68.7,88.1,65.7,86.1z"
		/>
	<path fill="#5980B7" d="M99.1,62.9c0-10.1-8.2-18.2-18.2-18.2s-18.2,8.2-18.2,18.2c0,10.1,8.2,18.2,18.2,18.2S99.1,72.9,99.1,62.9z
		 M91.6,62.9c0,5.9-4.8,10.7-10.7,10.7c-5.9,0-10.7-4.8-10.7-10.7s4.8-10.7,10.7-10.7C86.7,52.2,91.6,57,91.6,62.9z"/>
	<path fill="#FFFFFF" d="M52.8,146.3l3.9-3.9l-3.8-3.9c1.1-1.6,1.8-3.5,2.2-5.5H61v-6h-5.8c-0.4-2-1.1-3.4-2.2-4.9l3.7-3.5l-3.9-3.8
		l-3.5,3.7c-1.6-1.1-3.3-1.8-5.3-2.2V111h-5v5.3c-2,0.4-4.2,1.2-5.8,2.2l-3.8-3.6l-4,3.9l3.6,3.2c-1.1,1.6-1.9,2.9-2.2,4.9H22v6h4.8
		c0.4,2,1.2,3.9,2.2,5.5l-3.8,3.8l3.9,4l4.2-3.8c1.6,1,3.6,1.8,5.6,2.2v4.3h5v-4.3c2-0.4,3.6-1.1,5.1-2.2L52.8,146.3z M41,136.1
		c-3.1,0-5.7-2.5-5.7-5.7c0-3.1,2.5-5.7,5.7-5.7c3.1,0,5.7,2.5,5.7,5.7C46.7,133.6,44.1,136.1,41,136.1z"/>
	<path fill="#5980B7" d="M63.9,121.1c0.8-2.6,0.2-5.6-1.8-7.6l-3.9-3.9c-1.5-1.5-3.4-2.2-5.3-2.2c-0.8,0-1.6-0.2-2.3,0
		c-1.2-2.4-3.8-4.4-6.7-4.4h-5.5c-2.9,0-5.5,2-6.7,4.4c-0.7-0.2-1.5-0.2-2.3-0.2c-2,0-3.9,0.9-5.3,2.3l-3.9,4
		c-2.1,2.1-2.7,5.1-1.9,7.7c-2.4,1.2-4.1,3.8-4.1,6.7v5.5c0,2.9,1.7,5.5,4.1,6.7c-0.8,2.6-0.2,5.6,1.9,7.6l3.9,3.9
		c1.5,1.5,3.4,2.2,5.3,2.2c0.8,0,1.6-0.4,2.3-0.6c1.2,2.4,3.8,3.8,6.7,3.8h5.5c2.9,0,5.5-1.4,6.7-3.8c0.8,0.2,1.5,0.5,2.3,0.5
		c1.9,0,3.9-0.7,5.3-2.1l3.9-3.9c1.4-1.4,2.2-3.3,2.2-5.3c0-0.8-0.1-1.6-0.4-2.3c2.4-1.2,4.1-3.8,4.1-6.7v-5.5
		C68,124.9,66.3,122.4,63.9,121.1z M44,149h-5v-4.3c-2-0.4-4.1-1.1-5.6-2.2l-4,3.8l-4-3.9l3.7-3.9c-1.1-1.6-1.9-3.5-2.3-5.5H22v-6
		h4.8c0.4-2,1.1-3.4,2.2-4.9l-3.7-3.5l3.9-3.8l4,3.7c1.6-1.1,3.8-1.8,5.8-2.2V111h5v5.3c2,0.4,3.7,1.2,5.3,2.2l3.6-3.6l3.9,3.9
		l-3.7,3.2c1.1,1.6,1.8,2.9,2.2,4.9H61v6h-5.8c-0.4,2-1.2,3.9-2.2,5.5l3.8,3.8l-3.9,4l-3.7-3.8c-1.6,1-3.1,1.8-5.1,2.2V149z"/>
	<circle fill="#5980B7" cx="41" cy="130.5" r="5.7"/>
	<path fill="#FFFFFF" d="M178.2,78.2l-12,14.7c-1.3,1.6-3.7,1.9-5.3,0.5l-13.1-10.7c-0.8-0.6-1.3-1.5-1.4-2.5c-0.1-1,0.2-2,0.8-2.8
		l12-14.6c-0.4,0-0.8,0-1.2,0c-6.3,0-12.3,2.8-16.3,7.7c-4.8,5.9-6,14-3.2,21.2c0.5,1.3,0.3,2.7-0.6,3.8l-29.4,36
		c-0.9,1.1-2.2,1.6-3.6,1.3c-1.2-0.2-2.5-0.3-3.8-0.3c-6.5,0-12.5,2.8-16.4,7.7c-4.3,5.3-5.7,12.3-4,18.7l11.9-14.6
		c0.6-0.8,1.5-1.3,2.5-1.4c1-0.1,2,0.2,2.8,0.8l13.1,10.7c1.6,1.3,1.8,3.7,0.5,5.3l-11.9,14.6c0.4,0,0.8,0,1.2,0
		c6.3,0,12.3-2.8,16.3-7.7c4.8-5.9,6-14,3.1-21.2c-0.5-1.3-0.3-2.7,0.6-3.8l29.4-36c0.9-1.1,2.2-1.6,3.6-1.3
		c1.2,0.2,2.5,0.3,3.8,0.3c6.5,0,12.4-2.8,16.4-7.7C178.5,91.6,179.9,84.6,178.2,78.2z"/>
	<path fill="#5980B7" d="M182.4,69c-0.6-1.1-1.7-1.7-3-1.8c-1.2-0.1-2.4,0.4-3.2,1.4l-13.5,16.6l-7.3-6L169,62.6
		c0.8-1,1-2.2,0.7-3.4c-0.3-1.2-1.2-2.1-2.4-2.5c-3-1-6.1-1.6-9.3-1.6c-8.6,0-16.7,3.8-22.1,10.4c-6.1,7.4-7.9,17.5-5.1,26.7
		L104.1,125c-1-0.1-1.9-0.1-2.9-0.1c-8.7,0-16.9,3.8-22.3,10.4c-7.5,9.2-8.5,22.3-2.4,32.6c0.6,1.1,1.7,1.7,3,1.8
		c1.2,0.1,2.4-0.4,3.2-1.4l13.5-16.5l7.3,6L90,174.2c-0.8,1-1,2.2-0.7,3.4c0.3,1.2,1.2,2.1,2.4,2.5c3,1,6.1,1.6,9.3,1.6
		c8.6,0,16.7-3.8,22.1-10.4c6.1-7.4,7.9-17.5,5.1-26.6l26.7-32.8c1,0.1,1.9,0.1,2.9,0.1c8.7,0,16.8-3.8,22.3-10.4
		C187.5,92.4,188.5,79.3,182.4,69z M157.7,104.5c-1.3,0-2.5-0.1-3.8-0.3c-1.3-0.2-2.7,0.3-3.6,1.3l-29.4,36
		c-0.9,1.1-1.1,2.5-0.6,3.8c2.9,7.2,1.7,15.3-3.1,21.2c-4,4.9-9.9,7.7-16.3,7.7c-0.4,0-0.8,0-1.2,0l11.9-14.6c1.3-1.6,1.1-4-0.5-5.3
		L98,143.5c-0.8-0.6-1.8-0.9-2.8-0.8c-1,0.1-1.9,0.6-2.5,1.4l-11.9,14.6c-1.7-6.4-0.3-13.4,4-18.7c4-4.9,10-7.7,16.4-7.7
		c1.3,0,2.5,0.1,3.8,0.3c1.4,0.2,2.7-0.3,3.6-1.3l29.4-36c0.9-1.1,1.1-2.5,0.6-3.8c-2.9-7.2-1.7-15.3,3.2-21.2
		c4-4.9,9.9-7.7,16.3-7.7c0.4,0,0.8,0,1.2,0l-12,14.6c-0.6,0.8-0.9,1.8-0.8,2.8c0.1,1,0.6,1.9,1.4,2.5l13.1,10.7
		c1.6,1.3,4,1.1,5.3-0.5l12-14.7c1.7,6.4,0.3,13.4-4,18.7C170.2,101.7,164.2,104.5,157.7,104.5z"/>
</g>
</svg>
