<?xml version="1.0" encoding="utf-8"?>
<!-- Generator: Adobe Illustrator 18.1.1, SVG Export Plug-In . SVG Version: 6.00 Build 0)  -->
<svg version="1.1" id="Layer_1" xmlns="http://www.w3.org/2000/svg" xmlns:xlink="http://www.w3.org/1999/xlink" x="0px" y="0px"
	 viewBox="0 0 200 200" enable-background="new 0 0 200 200" xml:space="preserve">
<g>
	<rect x="30" y="137" fill="#CCCCCC" width="139" height="8"/>
	<path fill="#5980B7" d="M177.1,133.2c-0.5-3.2-2.7-7-9.5-10.6c-0.1-0.1-0.5-0.1-0.6-0.1l-64-26v-4.7c10-5.6,15.2-17.3,12.8-28.1
		c-2.2-10.1-10.2-16.1-21.6-16.1c-13.6,0-20.7,8.6-21.7,17.1c-1,8.1,3.4,17.7,13.8,20.4c1.1,0.3,2.2,0,3.1-0.6
		c0.7-0.5,1.3-1.2,1.5-2.1c0.5-2-0.7-4-2.7-4.5c-6.5-1.6-8.8-7.5-8.2-12.2C80.7,60.5,84.8,55,94.4,55c10.6,0,13.5,6.4,14.4,10.2
		c1.6,7.1-2.5,16.9-11.1,20.8C96.3,86.7,95,88,95,89.5v4.2v2.8l-62.1,26c-8,3.1-9.9,7.8-10.3,10.9c-0.1,0.2-0.3,0.5-0.3,0.7
		c0,0-0.4-0.1-0.4,0v15.3c0,2.1,2.5,2.6,4.5,2.6h146.9c2.1,0,3.6-0.6,3.6-2.6V135v-0.9C177,133.8,177.2,133.5,177.1,133.2z
		 M36.1,129.2c0,0,0.1,0.1,0.1,0.1l63.5-26.4l64.5,26.1c0.7,0.4,1.3-0.1,1.9,0.9H34C34.6,129,35.3,129.5,36.1,129.2z M169,145H30v-8
		h139V145z"/>
</g>
</svg>
