<?xml version="1.0" encoding="utf-8"?>
<!-- Generator: Adobe Illustrator 18.1.1, SVG Export Plug-In . SVG Version: 6.00 Build 0)  -->
<svg version="1.1" id="Layer_1" xmlns="http://www.w3.org/2000/svg" xmlns:xlink="http://www.w3.org/1999/xlink" x="0px" y="0px"
	 viewBox="0 0 200 200" enable-background="new 0 0 200 200" xml:space="preserve">
<g>
	<path fill="none" d="M113.9,142.1c0.1-0.9,0-2.2-1.7-3.8c-1.8-1.7-4.3-2.4-7.3-2.8v17.1C109,149.6,113.5,145.5,113.9,142.1z"/>
	<path fill="none" d="M91.1,138.1c-1.7,1.8-1.7,3.2-1.6,4.1c0.5,3.4,4.5,7.1,7.5,9.8v-16.6C95,135.9,92.6,136.6,91.1,138.1z"/>
	<path fill="#FFFFFF" d="M73.2,56H28c5.5,6,15.3,14.3,28,15.2c1.3,0.1,2.5,0.8,3.2,1.9c0.7,1.1,0.8,2.4,0.3,3.6c0,0-0.5,1.9,0.9,4
		c1.3,2,5.2,5.5,16.8,7.1c8.2,1.1,13.8,1.6,19.8,1.7v-8.2C90,79.8,78.6,74,73.2,56z"/>
	<path fill="#FFFFFF" d="M115.1,88.7c3.7-0.3,7.8-0.6,12.8-0.9c7.9-0.5,13.5-2.5,16.2-5.9c2.2-2.8,1.8-5.6,1.8-5.7
		c-0.2-1.1,0-2.1,0.7-3c0.6-0.9,1.6-1.7,2.7-1.9c11.5-1.8,19.4-9.2,23.8-15.2h-43c-5.9,21-17,25.1-25,25.8v7.6
		C108,89.2,111.4,89,115.1,88.7z"/>
	<path fill="#CCCCCC" d="M101.5,59.4c3.9,0,7-3.1,7-7s-3.2-7-7-7s-7,3.2-7,7S97.6,59.4,101.5,59.4z"/>
	<path fill="#5980B7" d="M183.8,50.2c-0.7-1.2-2-2.2-3.4-2.2h-53.5c-1.8,0-3.4,1.5-3.9,3.3c-4.7,19.2-13,22-18,22.4v-7
		c6-1.6,11.4-7.5,11.4-14.4c0-8.2-6.7-14.9-14.9-14.9c-8.2,0-14.9,6.7-14.9,14.9C86.6,59,91,64.6,97,66.5v6.6
		c-6-1.7-13.2-7.1-16.8-21.8c-0.4-1.8-2.1-3.3-3.9-3.3H19.6c-1.5,0-2.8,1.1-3.5,2.4s-0.6,3,0.1,4.2c0.6,0.9,13.5,20.7,35.2,24.3
		c0.2,1.7,0.7,3.8,2,5.9c3.5,5.7,11.1,9.4,22.6,11c8.5,1.2,14.9,1.7,20.9,1.8v29.7c-4-0.6-7.7-1.8-11-4.9c-2.7-2.5-2.5-4.3-2.4-4.9
		c0.4-3.5,4.9-6.9,6.5-7.9c1.7-1,2.3-3.2,1.2-4.9c-1-1.7-3.2-2.3-4.9-1.3c-0.9,0.6-9.1,5.6-9.9,13.2c-0.3,2.7,0.3,6.8,4.6,10.9
		c2.1,1.9,4.3,3.3,6.5,4.4c-0.5,0.4-1,0.8-1.4,1.3c-2.8,2.9-4,6.3-3.5,9.9c1.2,9.1,13.1,16.7,15.5,18.1c0.7,0.8,1.7,1.2,2.9,1.2
		c0.7,0,1.3-0.2,1.9-0.5c0.4-0.1,0.7-0.2,1.1-0.4c1.6-0.9,15.8-8.8,17.1-18.6c0.3-2.6,0-6.4-3.8-10c-0.7-0.7-1.5-1.3-2.3-1.8
		c1.7-1,3.5-2.2,5.1-3.9c4-4.1,4.5-8.2,4.2-10.8c-0.8-7.4-8.3-12.4-9.2-13c-1.6-1-3.8-0.6-4.8,1s-0.6,3.8,1,4.8
		c1.4,0.9,5.6,4.4,6,7.9c0.2,1.7-0.5,3.4-2.3,5.2c-3,3.1-6.1,4.2-10.1,4.8v-30c3-0.2,6.8-0.4,10.7-0.7c3.6-0.3,7.7-0.6,12.6-0.9
		c10.5-0.7,18-3.7,22.2-9.1c2.2-2.8,3-5.7,3.3-7.9c20.1-4.9,29.8-23.7,30.2-24.5C184.6,53,184.5,51.4,183.8,50.2z M94.4,52.3
		c0-3.9,3.1-7,7-7s7,3.2,7,7s-3.2,7-7,7S94.4,56.2,94.4,52.3z M77.2,87.8c-11.6-1.6-15.5-5.1-16.8-7.1c-1.4-2.1-0.9-4-0.9-4
		c0.5-1.2,0.3-2.4-0.3-3.5c-0.7-1.1-1.9-2-3.2-2.1C43.3,70.3,33.5,62,28,56h45.2C78.6,74,90,79.8,97,81.3v8.2
		C91,89.5,85.3,88.9,77.2,87.8z M89.5,142.2c-0.1-0.9-0.1-2.4,1.6-4.1c1.5-1.5,3.9-2.2,5.9-2.7v16.6C94,149.3,89.9,145.6,89.5,142.2
		z M113.9,142.1c-0.4,3.4-4.9,7.4-8.9,10.4v-17.1c3,0.4,5.5,1.1,7.3,2.8C114,139.9,114.1,141.2,113.9,142.1z M149.2,71.2
		c-1.1,0.2-2,0.9-2.7,1.8c-0.6,0.9-0.9,2-0.7,3.1c0,0.1,0.4,3-1.8,5.8c-2.7,3.4-8.3,5.4-16.2,5.9c-5,0.3-9.1,0.6-12.7,0.9
		c-3.7,0.3-7.1,0.5-10.1,0.7v-7.6c8-0.7,19.1-4.8,25-25.8h43C168.6,62,160.7,69.4,149.2,71.2z"/>
</g>
</svg>
