<?xml version="1.0" encoding="utf-8"?>
<!-- Generator: Adobe Illustrator 18.1.1, SVG Export Plug-In . SVG Version: 6.00 Build 0)  -->
<svg version="1.1" id="Layer_1" xmlns="http://www.w3.org/2000/svg" xmlns:xlink="http://www.w3.org/1999/xlink" x="0px" y="0px"
	 viewBox="206 296 200 200" enable-background="new 206 296 200 200" xml:space="preserve">
<g>
	<path fill="#FFFFFF" d="M358.7,347.1c0-0.1,0-0.3,0-0.4c-1.1,0.2-2.2,0.4-3.3,0.6c1,0,2-0.1,3-0.1
		C358.5,347.1,358.6,347.1,358.7,347.1z"/>
	<path fill="#FFFFFF" d="M310,454.7c15-10.1,26.9-22.6,35.2-37.4L310,437.4V454.7z"/>
	<path fill="#FFFFFF" d="M310,408.8l47.6-26.9c1-5.9,1.5-11.4,1.7-16.3L310,393.8V408.8z"/>
	<path fill="#FFFFFF" d="M340.5,347.9c-13.9-0.8-24.5-5.8-30.5-9.8v27.1L340.5,347.9z"/>
	<path fill="#FFFFFF" d="M302,339.2c-9,6.9-19.7,10.4-31.6,10.4c-7.2,0-13.5-1.3-17.6-2.5c-0.4,7.1-0.6,21.3,3.3,37.8
		c6.8,29.1,22,52.4,46,69.5V339.2z"/>
	<path fill="#CCCCCC" d="M310,428.2l41.2-23.5c1.5-3.9,2.9-8,4-12.1L310,418.1V428.2z"/>
	<path fill="#CCCCCC" d="M310,374.4v10.1l49.4-28.2c-0.1-3.8-0.4-6.9-0.7-9.3c-0.1,0-0.2,0-0.3,0L310,374.4z"/>
	<path fill="#5980B7" d="M366.2,340.8c-0.2-1.1-0.9-2.1-1.9-2.7c-1-0.6-2.1-0.8-3.2-0.5c-5.6,1.5-11.2,2.2-16.5,2.2
		c-22.3,0-35.5-12.7-35.6-12.8c-0.8-0.8-1.9-1.2-3-1.2c-1.1,0-2.2,0.5-3,1.4c-8.5,9.5-19.5,14.2-32.6,14.2c-11,0-19.6-3.5-19.6-3.6
		c-1.2-0.5-2.5-0.4-3.6,0.2c-1.1,0.6-1.9,1.7-2.1,3c-0.1,0.8-2.9,20.4,2.9,45.5c5.4,23.3,19.4,55.9,55.9,79.1
		c0.7,0.4,1.4,0.6,2.2,0.6c0.7,0,1.5-0.2,2.1-0.6c38.5-22.8,52.2-55.6,57-79C370.3,361.3,366.4,341.6,366.2,340.8z M358.7,346.6
		c0,0.1,0,0.3,0,0.4c0.3,2.3,0.5,5.5,0.6,9.3L310,384.5v-10.1l48.4-27.4c-1,0.1-2,0.1-3,0.1C356.5,347,357.6,346.8,358.7,346.6z
		 M310,365.2v-27.1c6,4,16.7,9,30.5,9.8L310,365.2z M256,385c-3.8-16.5-3.7-30.7-3.3-37.8c4.1,1.2,10.4,2.5,17.6,2.5
		c12,0,22.6-3.6,31.6-10.4v115.3C278,437.4,262.8,414.1,256,385z M310,454.7v-17.3l35.2-20.1C336.9,432.1,325,444.6,310,454.7z
		 M351.2,404.6L310,428.2v-10.1l45.2-25.6C354.1,396.7,352.8,400.7,351.2,404.6z M357.6,381.9L310,408.8v-15l49.3-28.2
		C359.1,370.6,358.6,376.1,357.6,381.9z"/>
</g>
</svg>
