<?xml version="1.0" encoding="utf-8"?>
<!-- Generator: Adobe Illustrator 18.1.1, SVG Export Plug-In . SVG Version: 6.00 Build 0)  -->
<svg version="1.1" id="Layer_1" xmlns="http://www.w3.org/2000/svg" xmlns:xlink="http://www.w3.org/1999/xlink" x="0px" y="0px"
	 viewBox="206 296 200 200" enable-background="new 206 296 200 200" xml:space="preserve">
<g>
	<path fill="#CCCCCC" d="M342.9,365.7c5.2,0,9.4-4.2,9.4-9.4s-4.2-9.4-9.4-9.4s-9.4,4.2-9.4,9.4S337.8,365.7,342.9,365.7z"/>
	<path fill="#FFFFFF" d="M259.4,346.6c0-3.5-2.9-6.4-6.4-6.4s-6.4,2.9-6.4,6.4s2.9,6.4,6.4,6.4S259.4,350.1,259.4,346.6z"/>
	<path fill="#FFFFFF" d="M255.8,426.8c-5,0-9.1,4.1-9.1,9.1s4.1,9.1,9.1,9.1s9.1-4.1,9.1-9.1S260.8,426.8,255.8,426.8z"/>
	<path fill="#FFFFFF" d="M322.7,395.1c0-12.3-10-22.3-22.3-22.3c-12.3,0-22.3,10-22.3,22.3s10,22.3,22.3,22.3
		C312.7,417.5,322.7,407.5,322.7,395.1z"/>
	<path fill="#FFFFFF" d="M365.4,439.3c0-6.9-5.6-12.4-12.4-12.4c-6.9,0-12.4,5.6-12.4,12.4s5.6,12.4,12.4,12.4
		C359.8,451.8,365.4,446.2,365.4,439.3z"/>
	<path fill="#5980B7" d="M352.9,418.9c-5.3,0-10.1,2-13.7,5.3l-13.2-12.9c3-4.7,4.7-10.2,4.7-16.2c0-7.1-2.5-13.7-6.6-18.9l8.3-6.7
		c2.9,2.3,6.5,3.7,10.5,3.7c9.3,0,16.9-7.6,16.9-16.9s-7.6-16.9-16.9-16.9S326,347,326,356.3c0,2.5,0.5,4.8,1.5,6.9l-9.2,7.4
		c-5-3.7-11.2-5.9-18-5.9c-6.2,0-11.9,1.9-16.7,5l-17.6-17.2c0.8-1.8,1.3-3.8,1.3-6c0-7.9-6.5-14.4-14.4-14.4s-14.4,6.5-14.4,14.4
		S245.1,361,253,361c2.9,0,5.6-0.9,7.8-2.3l16.8,16.4c-4.7,5.4-7.6,12.4-7.6,20.1c0,7.3,2.6,13.9,6.8,19.2l-10.1,8.5
		c-3-2.5-6.8-4-11-4c-9.5,0-17.1,7.7-17.1,17.1s7.7,17.1,17.1,17.1s17.1-7.7,17.1-17.1c0-2.4-0.5-4.7-1.4-6.7l11.2-9.4
		c5,3.6,11.1,5.7,17.6,5.7c7.9,0,15.1-3,20.5-8l13.5,13.2c-1.2,2.6-1.9,5.6-1.9,8.7c0,11.3,9.2,20.5,20.5,20.5s20.5-9.2,20.5-20.5
		S364.2,418.9,352.9,418.9z M342.9,346.9c5.2,0,9.4,4.2,9.4,9.4s-4.2,9.4-9.4,9.4s-9.4-4.2-9.4-9.4S337.8,346.9,342.9,346.9z
		 M253,353c-3.5,0-6.4-2.9-6.4-6.4s2.9-6.4,6.4-6.4s6.4,2.9,6.4,6.4S256.5,353,253,353z M255.8,445.1c-5,0-9.1-4.1-9.1-9.1
		s4.1-9.1,9.1-9.1s9.1,4.1,9.1,9.1S260.8,445.1,255.8,445.1z M300.4,417.5c-12.3,0-22.3-10-22.3-22.3s10-22.3,22.3-22.3
		c12.3,0,22.3,10,22.3,22.3S312.7,417.5,300.4,417.5z M352.9,451.8c-6.9,0-12.4-5.6-12.4-12.4s5.6-12.4,12.4-12.4
		c6.9,0,12.4,5.6,12.4,12.4S359.8,451.8,352.9,451.8z"/>
</g>
</svg>
