<?xml version="1.0" encoding="utf-8"?>
<!-- Generator: Adobe Illustrator 18.1.1, SVG Export Plug-In . SVG Version: 6.00 Build 0)  -->
<svg version="1.1" id="Layer_1" xmlns="http://www.w3.org/2000/svg" xmlns:xlink="http://www.w3.org/1999/xlink" x="0px" y="0px"
	 viewBox="0 0 200 200" enable-background="new 0 0 200 200" xml:space="preserve">
<g>
	<path fill="#FFFFFF" d="M142,44H43.7C36.6,44,30,49.8,30,56.8v53.8l99-0.2V97.6v-3.8c0-6.3,5.9-10.8,12.2-10.8H154V56.8
		C154,49.8,149.1,44,142,44z M55,91.7c-1.1,0-2.2-0.5-2.8-1.5c-1-1.6-0.6-3.7,1-4.7l48.4-32.2c1.6-1,3.7-0.6,4.7,1
		c1,1.6,0.6,3.7-1,4.7L56.8,91.1C56.3,91.5,55.6,91.7,55,91.7z M129.6,68.4l-48.4,32.2c-0.6,0.4-1.2,0.6-1.9,0.6
		c-1.1,0-2.2-0.5-2.8-1.5c-1-1.6-0.6-3.7,1-4.7l48.4-32.2c1.6-1,3.7-0.6,4.7,1C131.6,65.2,131.2,67.4,129.6,68.4z"/>
	<path fill="#FFFFFF" d="M30,119.8c0,7.1,6.6,13.2,13.7,13.2h32.4h33.5H129v-15.7l-99,0.2V119.8z M92.5,121c2.2,0,4,1.8,4,4
		c0,2.2-1.8,4-4,4c-2.2,0-4-1.8-4-4C88.5,122.7,90.3,121,92.5,121z"/>
	<rect x="79" y="140" fill="#FFFFFF" width="27" height="16"/>
	<path fill="#FFFFFF" d="M141.2,157h22.5c2.5,0,4.3-2.1,4.3-4.6V151h-32v1.4C136,154.9,138.7,157,141.2,157z"/>
	<path fill="#FFFFFF" d="M168,94v-0.2c0-2.5-1.8-3.8-4.3-3.8h-22.5c-2.5,0-5.2,1.4-5.2,3.8V94H168z"/>
	<rect x="136" y="101" fill="#CCCCCC" width="32" height="43"/>
	<g>
		<circle fill="#5980B7" cx="92.5" cy="124.9" r="4"/>
		<path fill="#5980B7" d="M163.7,83h-2H161V56.8C161,46,152.9,37,142,37H43.7C32.8,37,24,46,24,56.8v57.3c0-1.9,1.1-3.4,3-3.4l3,0
			V56.8C30,49.8,36.6,44,43.7,44H142c7.1,0,12,5.8,12,12.8V83h-12.8c-6.3,0-12.2,4.6-12.2,10.8v3.8v12.8l-98.6,0.2l-3.2,0
			c-1.9,0-3.2,1.5-3.2,3.4v5.7c0,10.8,8.8,20.2,19.7,20.2H72v16H61.5c-1.9,0-3.5,1.6-3.5,3.5s1.6,3.5,3.5,3.5h13.3
			c-0.6,0-1.2-0.8-1.6-1.4c0.4,0.5,0.9,0.9,1.5,1.2c0.4,0.2,1,0.2,1.4,0.2h33.5c0.5,0,1.2-0.1,1.6-0.2c0.1,0,0.2,0,0.3-0.1
			c-0.2,0.1-0.4,0.3-0.6,0.3h13.6c1.9,0,3.5-1.6,3.5-3.5s-1.6-3.5-3.5-3.5H113v-16h16v7.2v5.2c0,6.3,5.9,11.6,12.2,11.6h22.5
			c6.3,0,11.3-5.4,11.3-11.6v-5.2V97.6v-3.8C175,87.6,169.9,83,163.7,83z M136,101h32v43h-32V101z M141.2,90h22.5c2.5,0,4.8,2,4.8,4
			h-0.3h-31.5h-0.2C136.5,92,138.7,90,141.2,90z M106,156H79v-16h27V156z M109.6,133H76.1H43.7c-7.1,0-13.7-6.2-13.7-13.2v-2.3
			l99-0.2v15.3v0.4H109.6z M168,152.4c0,2.5-1.8,4.6-4.3,4.6h-22.5c-2.5,0-5.2-2.1-5.2-4.6V151h0.7h31.5H168V152.4z"/>
		<path fill="#5980B7" d="M55,91.7c0.7,0,1.3-0.2,1.9-0.6l48.4-32.2c1.6-1,2-3.2,1-4.7c-1-1.6-3.2-2-4.7-1L53.1,85.4
			c-1.6,1-2,3.2-1,4.7C52.8,91.2,53.9,91.7,55,91.7z"/>
		<path fill="#5980B7" d="M76.5,99.7c0.7,1,1.7,1.5,2.8,1.5c0.7,0,1.3-0.2,1.9-0.6l48.4-32.2c1.6-1,2-3.2,1-4.7c-1-1.6-3.2-2-4.7-1
			L77.4,94.9C75.9,96,75.4,98.1,76.5,99.7z"/>
	</g>
</g>
</svg>
