<?xml version="1.0" encoding="utf-8"?>
<!-- Generator: Adobe Illustrator 18.1.1, SVG Export Plug-In . SVG Version: 6.00 Build 0)  -->
<svg version="1.1" id="Layer_1" xmlns="http://www.w3.org/2000/svg" xmlns:xlink="http://www.w3.org/1999/xlink" x="0px" y="0px"
	 viewBox="0 0 200 200" enable-background="new 0 0 200 200" xml:space="preserve">
<g>
	<path fill="#FFFFFF" d="M162.6,88c-0.7-0.2-1.3-0.7-1.7-1.3L140.1,60H63L47,91.9V110h7.4c1.9,0,3.6,2.5,3.6,4.4v7.6h5.5
		c1.7-10,10.6-18.2,21.4-18.2s19.7,8.2,21.4,18.2h19.1c1.7-10,10.6-18.2,21.4-18.2c10.8,0,19.7,8.2,21.4,18.2h17v-5h-8.8
		c-1.9,0-3.2-1-3.2-3v-12c0-1.9,1.3-4.1,3.2-4.1h8.8v-2.2L162.6,88z M100,84.4c0,2.1-1.7,3.6-3.7,3.6H62.1c-1.2,0-2.4-0.5-3.1-1.5
		c-0.7-1-0.9-2.2-0.4-3.4l6.9-18.7C66.1,63,67.5,62,69,62h27.2c2.1,0,3.7,1.7,3.7,3.7V84.4z M149.4,86c-0.6,1.2-1.9,1.8-3.3,1.9
		L110.3,88c0,0,0,0,0,0c-1,0-1.7-0.3-2.4-1c-0.7-0.7-0.9-1.5-0.9-2.5V65.7c0-2.1,1.2-3.7,3.3-3.7h24c1.3,0,2.5,0.6,3.1,1.7
		l11.9,18.4C150,83.3,150.1,84.8,149.4,86z"/>
	<path fill="#FFFFFF" d="M161.3,126.2c0-8.1-6.6-14.7-14.7-14.7c-8.1,0-14.7,6.6-14.7,14.7s6.6,14.7,14.7,14.7
		C154.8,140.9,161.3,134.3,161.3,126.2z M146.7,133.1c-3.8,0-6.9-3.1-6.9-6.9s3.1-6.9,6.9-6.9c3.8,0,6.9,3.1,6.9,6.9
		S150.5,133.1,146.7,133.1z"/>
	<path fill="#FFFFFF" d="M99.5,126.2c0-8.1-6.6-14.7-14.7-14.7c-8.1,0-14.7,6.6-14.7,14.7s6.6,14.7,14.7,14.7
		C93,140.9,99.5,134.3,99.5,126.2z M84.9,133.1c-3.8,0-6.9-3.1-6.9-6.9s3.1-6.9,6.9-6.9c3.8,0,6.9,3.1,6.9,6.9
		S88.7,133.1,84.9,133.1z"/>
	<polygon fill="#CCCCCC" points="114,69 114,80.7 139.3,80.3 132.2,69 	"/>
	<polygon fill="#CCCCCC" points="67.5,80 93,80 93,69 71.6,69 	"/>
	<rect x="179" y="106" fill="#FFFFFF" width="7" height="4"/>
	<rect x="44" y="118" fill="#FFFFFF" width="6" height="4"/>
	<g>
		<path fill="#5980B7" d="M137.4,63.7c-0.7-1.1-1.9-1.7-3.1-1.7h-24c-2.1,0-3.3,1.7-3.3,3.7v18.7c0,1,0.2,1.8,0.9,2.5
			c0.7,0.7,1.4,1,2.4,1c0,0,0,0,0,0l35.8-0.2c1.4,0,2.6-0.7,3.3-1.9c0.6-1.2,0.6-2.6-0.1-3.8L137.4,63.7z M114,80.7V69h18.2
			l7.1,11.3L114,80.7z"/>
		<path fill="#5980B7" d="M96.3,62H69c-1.6,0-3,1-3.5,2.4l-6.9,18.7c-0.4,1.1-0.3,2.3,0.4,3.3c0.7,1,1.8,1.5,3.1,1.5h34.2
			c2.1,0,3.7-1.5,3.7-3.6V65.7C100,63.7,98.3,62,96.3,62z M93,80H67.5l4.1-11H93V80z"/>
		<path fill="#5980B7" d="M192,93.1c0-1.6-0.8-3-2.3-3.5L166,81.3l-21.2-27.5c-0.7-0.9-1.7-1.8-2.9-1.8H60.7c-0.2,0-0.3,0-0.5,0
			c-0.1,0-0.2,0-0.3,0H15.9c-2.1,0-3.7,1.9-3.7,4s1.7,4,3.7,4h38.7L40.7,87H11.2c-2.1,0-3.7,1.4-3.7,3.5S9.2,94,11.2,94H39v6H24.3
			c-2.1,0-3.7,1.4-3.7,3.5s1.7,3.5,3.7,3.5H39v4.1c-1,0.6-2,1.9-2,3.3v12c0,1.9,1.5,3.6,3.4,3.6h1H43h11.4h9.2
			c1.9,10,10.7,17.6,21.3,17.6s19.4-7.6,21.3-17.6h19.3c1.9,10,10.7,17.6,21.3,17.6s19.4-7.6,21.3-17.6h20.8c2.1,0,3.2-1.5,3.2-3.5
			V93.1z M186,110h-7v-4h7V110z M50,122h-6v-4h6V122z M84.9,140.9c-8.1,0-14.7-6.6-14.7-14.7s6.6-14.7,14.7-14.7
			c8.1,0,14.7,6.6,14.7,14.7S93,140.9,84.9,140.9z M146.7,140.9c-8.1,0-14.7-6.6-14.7-14.7s6.6-14.7,14.7-14.7
			c8.1,0,14.7,6.6,14.7,14.7S154.8,140.9,146.7,140.9z M185,122h-17c-1.7-10-10.6-18.2-21.4-18.2c-10.8,0-19.7,8.2-21.4,18.2h-19.1
			c-1.7-10-10.6-18.2-21.4-18.2S65.2,112,63.5,122H58v-7.6c0-1.9-1.7-4.4-3.6-4.4H47V91.9L63,60h77.2l20.8,26.7c0.4,0.6,1,1,1.7,1.3
			l22.4,7.8V98h-8.8c-1.9,0-3.2,2.2-3.2,4.1v12c0,1.9,1.3,3,3.2,3h8.8V122z"/>
		<circle fill="#5980B7" cx="146.7" cy="126.2" r="6.9"/>
		<circle fill="#5980B7" cx="84.9" cy="126.2" r="6.9"/>
		<path fill="#5980B7" d="M39.3,77c2.1,0,3.7-1.9,3.7-4s-1.7-4-3.7-4H24.3c-2.1,0-3.7,1.9-3.7,4s1.7,4,3.7,4H39.3z"/>
	</g>
</g>
</svg>
