<?xml version="1.0" encoding="utf-8"?>
<!-- Generator: Adobe Illustrator 18.1.1, SVG Export Plug-In . SVG Version: 6.00 Build 0)  -->
<svg version="1.1" id="Layer_1" xmlns="http://www.w3.org/2000/svg" xmlns:xlink="http://www.w3.org/1999/xlink" x="0px" y="0px"
	 viewBox="0 0 200 200" enable-background="new 0 0 200 200" xml:space="preserve">
<g>
	<path fill="none" d="M115.6,161.1c11.7-3.5,21.7-10.9,28.5-20.6c-5.3,1.2-10.5,2.1-15.6,2.8C125.3,149.6,121,155.5,115.6,161.1z"/>
	<path fill="none" d="M126.8,97.5c-1.2-5-2.9-9.8-4.8-14.2c-5.1-0.4-10.7-0.7-16.8-0.8l0,9.4c0,1.5-0.2,2.8-1.2,4V107h15.2
		C120.1,103,123,99.3,126.8,97.5z"/>
	<path fill="none" d="M133.6,96.4c6,0.5,10.8,5.6,12,10.6h8.2c-0.3-7-2.1-13.8-4.9-19.9c-2.7-0.6-9.5-2-19.1-3.1
		C131.3,87.9,132.6,92.1,133.6,96.4z"/>
	<path fill="none" d="M97,145.4c-7,0-12.9-0.4-18.4-0.8c4.1,6.6,9.7,12.7,16.5,18.5c0.6,0.1,0.9,0.1,1.9,0.1V145.4z"/>
	<path fill="none" d="M135,123.1c-0.6,4.4-1.7,8.6-3.2,12.8c5.6-0.9,11.3-2.1,17.1-3.6c2.6-5.6,4.3-11.3,4.8-18.3h-8.4
		C143.8,119,139.9,122.2,135,123.1z"/>
	<path fill="none" d="M104,162.8c7-5.7,12.2-11.9,16.3-18.4c-5.6,0.6-11.3,0.9-16.3,1V162.8z"/>
	<path fill="none" d="M124.1,137c2-4.6,3.4-9.4,4.1-14.3c-4.1-1.4-7.3-4.7-8.7-8.7H104v24.4C110,138.3,117.1,137.8,124.1,137z"/>
	<path fill="none" d="M62.9,118.6c-0.1-1.5-0.2-2.6-0.2-4.6H46.8c0.6,7,2.5,13.8,5.6,19.8c2.1,0.5,7.1,1.5,14.4,2.5
		C64.6,130.7,63.3,124.7,62.9,118.6z"/>
	<path fill="none" d="M110.4,62.7l-4.9,2.9l-0.1,10.1c4.7,0,9.1,0.2,13.2,0.5C115.8,70.8,112.8,66.2,110.4,62.7z"/>
	<path fill="none" d="M95.2,101.9c-1.1,0.7-2.4,1-3.7,1c-0.9,0-1.8-0.2-2.6-0.5c-2-0.8-3.6-2.6-4.1-4.7l-3.5-14.2
		c-1.8,0.2-3.6,0.4-5.4,0.6c-2.9,6.9-5.2,14.8-6.1,22.8H97v-6.1L95.2,101.9z"/>
	<path fill="none" d="M69.7,118.1c0.5,6.7,2.2,13.1,5,19.1c6.4,0.7,14.3,1.2,22.3,1.2V114H69.5C69.5,116,69.6,116.8,69.7,118.1z"/>
	<path fill="none" d="M61.8,96.8c-1.1,0-2.3-0.3-3.3-0.8c-2.1-1.2-3.5-3.4-3.6-5.9l0-2c-1.2,0.3-2.4,0.6-3.6,0.9
		c-0.2,0.1-0.4,0.1-0.6,0.1c-2.3,5.6-3.7,11.9-4,17.9H63c0.3-3,1-7.4,1.8-10.9C63.9,96.6,62.8,96.8,61.8,96.8z"/>
	<path fill="none" d="M81.8,160.1c-4.8-5.2-8.7-10.6-11.7-16.3c-5.1-0.6-9.4-1.3-12.7-1.9C63.5,150.1,72,156.5,81.8,160.1z"/>
	<path fill="none" d="M126.6,76.8c7.3,0.7,13.4,1.7,17.7,2.5c-6.6-9.5-16.1-16.8-27.3-20.5l-0.7,0.4
		C119.5,63.7,123.3,69.7,126.6,76.8z"/>
	<path fill="#FFFFFF" d="M50.5,69.2l11.1,7L61.8,90l5.1-3.1l3-10.9l15.1-6.6l6.5,26.7l6.8-4.3l0.4-30.2l18-10.6
		c2.2-1.3,3-4.2,1.7-6.5c-0.9-1.5-2.5-2.4-4.1-2.4c-0.8,0-1.5,0.2-2.3,0.6l-17.9,9.9l-28-16l-6,3.7l20.4,19.2l-14.2,10l-12.6-3.1
		L50.5,69.2z"/>
	<path fill="#CCCCCC" d="M132.4,116.6c3.7,0,6.7-3,6.7-6.7s-3-6.7-6.7-6.7s-6.7,3-6.7,6.7S128.7,116.6,132.4,116.6z"/>
	<path fill="#5980B7" d="M123.6,53.9c2.7-3.6,3.1-8.6,0.8-12.7c-2.1-3.6-5.9-5.8-10.1-5.8c-1.9,0-3.8,0.5-5.5,1.4c0,0,0,0,0,0
		l-14.5,8L69.5,30.7c-1.1-0.6-2.2-0.9-3.4-0.9c-1.3,0-2.5,0.3-3.6,1l-6,3.7c-1.8,1.1-3,3-3.2,5.1c-0.2,2.1,0.6,4.2,2.1,5.7L68.9,58
		c-1.9,1.2-3.8,2.5-5.6,3.9l-7.9-1.9c-0.5-0.1-1.1-0.2-1.6-0.2c-1.5,0-3,0.5-4.2,1.4l-3.3,2.6c-1.8,1.4-2.8,3.5-2.7,5.7
		c0.1,2.2,1.3,4.3,3.2,5.5l2.8,1.8c-6,9.2-9.6,20.2-9.8,32c-0.3,0.5-0.5,1.2-0.5,1.8c0,0.7,0.2,1.4,0.6,1.9
		c1.3,29.4,23.7,53.4,52.4,57.2c0.5,0.3,1,0.4,1.6,0.4c0.3,0,0.6,0,0.8-0.1c1.9,0.2,3.7,0.3,5.6,0.3c1.4,0,2.8-0.1,4.2-0.2
		c0,0,0,0,0,0c0.2,0,0.4,0,0.6-0.1c31.1-2.5,55.6-28.6,55.6-60.2C160.7,84.6,145.4,63.1,123.6,53.9z M148.9,132.3
		c-5.8,1.5-11.5,2.7-17.1,3.6c1.5-4.1,2.6-8.4,3.2-12.8c4.9-0.9,8.8-4.1,10.3-9.1h8.4C153.2,121,151.5,126.7,148.9,132.3z
		 M69.7,118.1c-0.1-1.4-0.1-2.1-0.1-4.1H97v24.5c-8-0.1-15.9-0.6-22.3-1.2C71.9,131.2,70.2,124.8,69.7,118.1z M76,84.2
		c1.8-0.2,3.6-0.4,5.4-0.6l3.4,14.2c0.5,2.1,2,3.9,4.1,4.7c0.8,0.3,1.7,0.5,2.6,0.5c1.3,0,2.6-0.4,3.7-1l1.8-1.1v6.1H69.9
		C70.7,99,73.1,91.1,76,84.2z M122,83.3c1.9,4.4,3.6,9.2,4.8,14.2c-3.8,1.8-6.7,5.5-7.6,9.5H104V95.9c1-1.1,1.2-2.5,1.2-4l0.1-9.4
		C111.3,82.6,116.9,82.9,122,83.3z M105.4,75.7l0.1-10.1l4.9-2.9c2.5,3.5,5.4,8.1,8.2,13.4C114.4,75.9,110,75.7,105.4,75.7z
		 M125.7,109.9c0-3.7,3-6.7,6.7-6.7s6.7,3,6.7,6.7s-3,6.7-6.7,6.7S125.7,113.6,125.7,109.9z M104,114h15.5c1.3,4,4.5,7.3,8.6,8.7
		c-0.8,4.9-2.1,9.7-4.1,14.3c-7,0.8-14.1,1.3-20.1,1.4V114z M145.7,107c-1.2-5-6.1-10.1-12-10.6c-1-4.3-2.3-8.4-3.8-12.3
		c9.6,1.1,16.4,2.5,19.1,3.1c2.8,6.1,4.6,12.9,4.9,19.9H145.7z M144.4,79.3c-4.3-0.8-10.4-1.7-17.7-2.5c-3.4-7.1-7.1-13.1-10.3-17.6
		l0.7-0.4C128.2,62.5,137.8,69.8,144.4,79.3z M53.8,66.6l12.6,3.1l14.2-10L60.2,40.4l6-3.7l28,16l17.9-9.9c0.7-0.4,1.5-0.6,2.3-0.6
		c1.7,0,3.3,0.9,4.1,2.4c1.3,2.3,0.5,5.1-1.7,6.5l-18,10.6l-0.4,30.2l-6.8,4.3l-6.5-26.7L69.9,76l-3,10.9L61.8,90l-0.3-13.8l-11.1-7
		L53.8,66.6z M50.7,89.1c0.2,0,0.4,0,0.6-0.1c1.2-0.3,2.4-0.6,3.6-0.9l0,2c0,2.4,1.4,4.7,3.6,5.9c1,0.6,2.1,0.8,3.3,0.8
		c1,0,2-0.3,3-0.7C64,99.6,63.3,104,63,107H46.7C47,101,48.4,94.7,50.7,89.1z M62.7,114c0,2,0,3.1,0.2,4.6
		c0.5,6.1,1.8,12.1,3.9,17.8c-7.2-1-12.3-2-14.4-2.5c-3.1-6-5-12.8-5.6-19.8H62.7z M57.3,141.8c3.3,0.6,7.6,1.3,12.7,1.9
		c3,5.7,6.9,11.2,11.7,16.3C72,156.5,63.5,150.1,57.3,141.8z M78.6,144.6c5.5,0.5,11.4,0.8,18.4,0.8v17.8c-1,0-1.3-0.1-1.9-0.1
		C88.2,157.3,82.7,151.2,78.6,144.6z M104,162.8v-17.4c5-0.1,10.6-0.4,16.3-1C116.2,150.9,111,157,104,162.8z M115.6,161.1
		c5.4-5.6,9.7-11.5,12.9-17.8c5.1-0.7,10.4-1.6,15.6-2.8C137.3,150.2,127.3,157.6,115.6,161.1z"/>
</g>
</svg>
