<?xml version="1.0" encoding="UTF-8"?>
<svg width="29px" height="29px" viewBox="0 0 29 29" version="1.1" xmlns="http://www.w3.org/2000/svg" xmlns:xlink="http://www.w3.org/1999/xlink">
    <!-- Generator: Sketch 44.1 (41455) - http://www.bohemiancoding.com/sketch -->
    <title>hover</title>
    <desc>Created with Sketch.</desc>
    <defs>
        <path d="M6.57327384,-5.68434189e-14 C2.95370487,-5.68434189e-14 0,3.01871464 0,6.71794877 C0,10.4171829 2.95370487,13.4358975 6.57327384,13.4358975 C10.1928428,13.4358975 13.1465477,10.4171829 13.1465477,6.71794877 C13.1465477,3.01871464 10.1928428,-5.68434189e-14 6.57327384,-5.68434189e-14 Z M8.79282086,7.2414253 L4.35372683,7.2414253 C4.11469869,7.2414253 3.92689087,7.0494839 3.92689087,6.80519486 C3.92689087,6.56090581 4.11469869,6.36896442 4.35372683,6.36896442 L8.79282086,6.36896442 C9.031849,6.36896442 9.21965682,6.56090581 9.21965682,6.80519486 C9.21965682,7.0494839 9.031849,7.2414253 8.79282086,7.2414253 Z" id="path-1"></path>
    </defs>
    <g id="Iconos" stroke="none" stroke-width="1" fill="none" fill-rule="evenodd">
        <g id="elemento-menú2" transform="translate(-168.000000, -65.000000)">
            <g id="hover" transform="translate(168.000000, 65.000000)">
                <path d="M11,12.6341917 C11,13.2150257 10.552,13.6864272 10,13.6864272 C9.448,13.6864272 9,13.2150257 9,12.6341917 L9,5.26854316 C9,4.68770916 9.448,4.21630766 10,4.21630766 C10.552,4.21630766 11,4.68770916 11,5.26854316 L11,12.6341917 Z M11,15.7908982 C11,16.3717322 10.552,16.8431337 10,16.8431337 C9.448,16.8431337 9,16.3717322 9,15.7908982 C9,15.2100642 9.448,14.7386627 10,14.7386627 C10.552,14.7386627 11,15.2100642 11,15.7908982 L11,15.7908982 Z M18,17.8880035 C18,18.4688375 17.552,18.940239 17,18.940239 L3,18.940239 C2.448,18.940239 2,18.4688375 2,17.8880035 L2,3.15670651 C2,2.57587251 2.448,2.104471 3,2.104471 L17,2.104471 C17.552,2.104471 18,2.57587251 18,3.15670651 L18,17.8880035 Z M18,-5.68434189e-14 L2,-5.68434189e-14 C0.895,-5.68434189e-14 0,0.945959717 0,2.10762771 L0,2.11183665 L0,18.9476047 C0,20.1103249 0.895,21.04471 2,21.04471 L18,21.04471 C19.105,21.04471 20,20.106116 20,18.9433958 L20,2.11183665 C20,0.949116423 19,-5.68434189e-14 18,-5.68434189e-14 L18,-5.68434189e-14 Z" id="important_message-[#1448]-copy" fill="#8084C0"></path>
                <ellipse id="Path" fill="#FFFFFF" cx="19.5" cy="20.3489767" rx="4.31427903" ry="3.69795345"></ellipse>
                <g id="noun_1014230_cc" transform="translate(12.720419, 11.720419)" fill-rule="nonzero">
                    <g id="Shape">
                        <use fill="#8084C0" fill-rule="evenodd" xlink:href="#path-1"></use>
                        <path stroke="#FFFFFF" stroke-width="3" d="M6.57327384,-1.5 C11.028667,-1.5 14.6465477,2.19750863 14.6465477,6.71794877 C14.6465477,11.2383889 11.028667,14.9358975 6.57327384,14.9358975 C2.11788064,14.9358975 -1.5,11.2383889 -1.5,6.71794877 C-1.5,2.19750863 2.11788064,-1.5 6.57327384,-1.5 Z M8.79282086,5.7414253 L4.35372683,5.7414253 C4.95052292,5.7414253 5.42689087,6.22827789 5.42689087,6.80519486 C5.42689087,7.38211182 4.95052292,7.86896442 4.35372683,7.86896442 L8.79282086,7.86896442 C8.19602476,7.86896442 7.71965682,7.38211182 7.71965682,6.80519486 C7.71965682,6.22827789 8.19602476,5.7414253 8.79282086,5.7414253 Z"></path>
                    </g>
                </g>
            </g>
        </g>
    </g>
</svg>