<?xml version="1.0" encoding="UTF-8"?>
<svg width="26px" height="23px" viewBox="0 0 26 23" version="1.1" xmlns="http://www.w3.org/2000/svg" xmlns:xlink="http://www.w3.org/1999/xlink">
    <!-- Generator: Sketch 44.1 (41455) - http://www.bohemiancoding.com/sketch -->
    <title>huella</title>
    <desc>Created with Sketch.</desc>
    <defs></defs>
    <g id="Iconos" stroke="none" stroke-width="1" fill="none" fill-rule="evenodd">
        <g id="elemento-menú2" transform="translate(-309.000000, -65.000000)" fill="#8084C0">
            <g id="Hover" transform="translate(40.000000, 65.000000)">
                <g id="huella" transform="translate(269.000000, 0.000000)">
                    <g id="Group" transform="translate(0.000000, 5.500000)">
                        <path d="M3.068,1.5 C3.848,1.5 4.68,2.5 4.68,3.95 C4.68,5.4 3.796,6.4 3.068,6.4 C2.288,6.4 1.456,5.4 1.456,3.95 C1.456,2.5 2.288,1.5 3.068,1.5 L3.068,1.5 Z M3.068,0.15 C1.404,0.15 0.052,1.85 0.052,3.95 C0.052,6.05 1.404,7.75 3.068,7.75 C4.732,7.75 6.084,6.05 6.084,3.95 C6.084,1.85 4.732,0.15 3.068,0.15 L3.068,0.15 Z" id="Shape"></path>
                        <path d="M22.932,1.5 C23.712,1.5 24.544,2.5 24.544,3.95 C24.544,5.4 23.66,6.4 22.932,6.4 C22.152,6.4 21.32,5.4 21.32,3.95 C21.32,2.5 22.204,1.5 22.932,1.5 L22.932,1.5 Z M22.932,0.15 C21.268,0.15 19.916,1.85 19.916,3.95 C19.916,6.05 21.268,7.75 22.932,7.75 C24.596,7.75 26,6 26,3.9 C26,1.8 24.648,0.15 22.932,0.15 L22.932,0.15 Z" id="Shape"></path>
                    </g>
                    <g id="Group" transform="translate(5.720000, 0.000000)">
                        <path d="M3.224,1.75 C4.004,1.75 4.836,2.75 4.836,4.2 C4.836,5.65 3.952,6.65 3.224,6.65 C2.496,6.65 1.612,5.65 1.612,4.2 C1.612,2.75 2.444,1.75 3.224,1.75 L3.224,1.75 Z M3.224,0.4 C1.56,0.4 0.208,2.1 0.208,4.2 C0.208,6.3 1.56,8 3.224,8 C4.888,8 6.24,6.3 6.24,4.2 C6.24,2.1 4.888,0.4 3.224,0.4 L3.224,0.4 Z" id="Shape"></path>
                        <path d="M11.336,1.75 C12.116,1.75 12.948,2.75 12.948,4.2 C12.948,5.65 12.064,6.65 11.336,6.65 C10.608,6.65 9.724,5.65 9.724,4.2 C9.724,2.75 10.556,1.75 11.336,1.75 L11.336,1.75 Z M11.336,0.4 C9.672,0.4 8.32,2.1 8.32,4.2 C8.32,6.3 9.672,8 11.336,8 C13,8 14.352,6.3 14.352,4.2 C14.352,2.1 13,0.4 11.336,0.4 L11.336,0.4 Z" id="Shape"></path>
                    </g>
                    <path d="M13,9.55 C14.352,9.55 15.6,10.25 16.172,11.45 C16.9,12.85 18.096,14 19.552,14.7 C20.748,15.3 21.528,16.45 21.528,17.75 C21.528,19.65 19.916,21.2 17.94,21.2 C17.368,21.2 16.796,21.05 16.276,20.8 C15.288,20.3 14.092,20.05 12.948,20.05 C11.752,20.05 10.608,20.3 9.62,20.8 C9.1,21.05 8.58,21.2 7.956,21.2 C5.98,21.2 4.368,19.65 4.368,17.75 C4.368,16.45 5.096,15.25 6.344,14.7 C7.8,14 8.996,12.85 9.724,11.45 C10.4,10.3 11.648,9.55 13,9.55 L13,9.55 Z M13,8.2 C11.076,8.2 9.36,9.25 8.58,10.85 C7.956,12 7.02,12.95 5.824,13.5 C4.212,14.3 3.068,15.9 3.068,17.8 C3.068,20.45 5.304,22.6 8.06,22.6 C8.892,22.6 9.672,22.4 10.348,22.05 C11.18,21.65 12.116,21.45 13.052,21.45 C13.988,21.45 14.924,21.65 15.756,22.05 C16.432,22.4 17.212,22.6 18.044,22.6 C20.8,22.6 23.036,20.45 23.036,17.8 C23.036,15.95 21.944,14.3 20.28,13.5 C19.084,12.9 18.096,12 17.524,10.85 C16.64,9.3 14.924,8.2 13,8.2 L13,8.2 Z" id="Shape"></path>
                </g>
            </g>
        </g>
    </g>
</svg>