<?xml version="1.0" encoding="UTF-8"?>
<svg width="21px" height="21px" viewBox="0 0 21 21" version="1.1" xmlns="http://www.w3.org/2000/svg" xmlns:xlink="http://www.w3.org/1999/xlink">
    <!-- Generator: Sketch 45.1 (43504) - http://www.bohemiancoding.com/sketch -->
    <title>log out hover</title>
    <desc>Created with Sketch.</desc>
    <defs></defs>
    <g id="Pantallas" stroke="none" stroke-width="1" fill="none" fill-rule="evenodd">
        <g id="Inicio" transform="translate(-27.000000, -411.000000)" fill-rule="nonzero" fill="#8084C0">
            <g id="log-out-hover" transform="translate(27.000000, 411.834229)">
                <path d="M10.0658038,20.1878804 C4.51545667,20.1878804 1.01921092e-16,15.8577378 1.01921092e-16,10.5355501 C-0.000540071252,8.53549091 0.641552761,6.58848087 1.83111126,4.98309439 C3.00244054,3.39093304 4.62319223,2.18439175 6.51839435,1.49831925 C6.86479955,1.37293359 7.25131069,1.54090306 7.38342436,1.87329336 C7.51553804,2.20568365 7.33899328,2.57592623 6.99258808,2.70131189 C3.61110711,3.92362496 1.34197611,7.0697011 1.34197611,10.5343672 C1.34197611,15.1476133 5.25623692,18.9012973 10.0673766,18.9012973 C14.8785162,18.9012973 18.7927771,15.1480076 18.7927771,10.5343672 C18.7927771,7.07561551 16.5267916,3.92953938 13.1547473,2.70604343 C12.8087353,2.58026347 12.6341565,2.2096266 12.7650906,1.87802489 C12.8960247,1.54642318 13.2829291,1.37884801 13.6301206,1.50423367 C15.521784,2.19070046 17.1389969,3.39684746 18.3091466,4.98782593 C19.4946583,6.5929883 20.1336359,8.53808969 20.1316076,10.5355501 C20.1316076,15.8577378 15.6161509,20.1878804 10.0658038,20.1878804 Z" id="Shape"></path>
                <path d="M10.0658038,12.4147579 C9.69580687,12.4147579 9.39737151,12.1269229 9.39737151,11.7720578 L9.39737151,0.6427001 C9.39737151,0.287835014 9.69737965,0 10.0658038,0 C10.4342279,0 10.7342361,0.287835014 10.7342361,0.6427001 L10.7342361,11.7720578 C10.7342361,12.1273172 10.4358007,12.4147579 10.0658038,12.4147579 Z" id="Shape"></path>
            </g>
        </g>
    </g>
</svg>