<?xml version="1.0" encoding="UTF-8"?>
<svg width="20px" height="20px" viewBox="0 0 20 20" version="1.1" xmlns="http://www.w3.org/2000/svg" xmlns:xlink="http://www.w3.org/1999/xlink">
    <!-- Generator: Sketch 44.1 (41455) - http://www.bohemiancoding.com/sketch -->
    <title>profile [#1341]</title>
    <desc>Created with Sketch.</desc>
    <defs></defs>
    <g id="Iconos" stroke="none" stroke-width="1" fill="none" fill-rule="evenodd">
        <g id="elemento-menú2" transform="translate(-97.000000, -25.000000)" fill="#595C8B">
            <g id="Group" transform="translate(40.000000, 22.000000)">
                <path d="M67,12.999977 C64.7834965,12.999977 62.9809546,11.205977 62.9809546,8.99997695 C62.9809546,6.79397695 64.7834965,4.99997695 67,4.99997695 C69.2165035,4.99997695 71.0190454,6.79397695 71.0190454,8.99997695 C71.0190454,11.205977 69.2165035,12.999977 67,12.999977 M70.7758931,13.672977 C72.3704494,12.395977 73.2998536,10.330977 72.9582347,8.06997695 C72.561354,5.44697695 70.3689648,3.34797695 67.7224234,3.04197695 C64.0701159,2.61897695 60.971432,5.44897695 60.971432,8.99997695 C60.971432,10.889977 61.8516029,12.573977 63.2241069,13.672977 C59.8521278,14.933977 57.3904626,17.894977 57.0046342,21.890977 C56.9483676,22.481977 57.4115625,22.999977 58.0083908,22.999977 C58.5198143,22.999977 58.9558807,22.615977 59.001095,22.108977 C59.4040043,17.645977 62.8372738,14.999977 67,14.999977 C71.1627262,14.999977 74.5959957,17.645977 74.998905,22.108977 C75.0441193,22.615977 75.4801857,22.999977 75.9916092,22.999977 C76.5884375,22.999977 77.0516324,22.481977 76.9953658,21.890977 C76.6095374,17.894977 74.1478722,14.933977 70.7758931,13.672977" id="profile-[#1341]"></path>
            </g>
        </g>
    </g>
</svg>