<?xml version="1.0" encoding="UTF-8"?>
<svg width="20px" height="20px" viewBox="0 0 20 20" version="1.1" xmlns="http://www.w3.org/2000/svg" xmlns:xlink="http://www.w3.org/1999/xlink">
    <!-- Generator: Sketch 44.1 (41455) - http://www.bohemiancoding.com/sketch -->
    <title>profile [#1341] copy</title>
    <desc>Created with Sketch.</desc>
    <defs></defs>
    <g id="Iconos" stroke="none" stroke-width="1" fill="none" fill-rule="evenodd">
        <g id="elemento-menú2" transform="translate(-97.000000, -65.000000)" fill="#8084C0">
            <g id="Hover" transform="translate(40.000000, 65.000000)">
                <path d="M67,9.99997695 C64.7834965,9.99997695 62.9809546,8.20597695 62.9809546,5.99997695 C62.9809546,3.79397695 64.7834965,1.99997695 67,1.99997695 C69.2165035,1.99997695 71.0190454,3.79397695 71.0190454,5.99997695 C71.0190454,8.20597695 69.2165035,9.99997695 67,9.99997695 M70.7758931,10.672977 C72.3704494,9.39597695 73.2998536,7.33097695 72.9582347,5.06997695 C72.561354,2.44697695 70.3689648,0.347976955 67.7224234,0.0419769546 C64.0701159,-0.381023045 60.971432,2.44897695 60.971432,5.99997695 C60.971432,7.88997695 61.8516029,9.57397695 63.2241069,10.672977 C59.8521278,11.933977 57.3904626,14.894977 57.0046342,18.890977 C56.9483676,19.481977 57.4115625,19.999977 58.0083908,19.999977 C58.5198143,19.999977 58.9558807,19.615977 59.001095,19.108977 C59.4040043,14.645977 62.8372738,11.999977 67,11.999977 C71.1627262,11.999977 74.5959957,14.645977 74.998905,19.108977 C75.0441193,19.615977 75.4801857,19.999977 75.9916092,19.999977 C76.5884375,19.999977 77.0516324,19.481977 76.9953658,18.890977 C76.6095374,14.894977 74.1478722,11.933977 70.7758931,10.672977" id="profile-[#1341]-copy"></path>
            </g>
        </g>
    </g>
</svg>