<?xml version="1.0" encoding="UTF-8"?>
<svg width="161px" height="46px" viewBox="0 0 161 46" version="1.1" xmlns="http://www.w3.org/2000/svg" xmlns:xlink="http://www.w3.org/1999/xlink">
    <!-- Generator: Sketch 45.1 (43504) - http://www.bohemiancoding.com/sketch -->
    <title>Page 1</title>
    <desc>Created with Sketch.</desc>
    <defs></defs>
    <g id="Pantallas" stroke="none" stroke-width="1" fill="none" fill-rule="evenodd">
        <g id="landing" transform="translate(-596.000000, -17.000000)">
            <g id="menú">
                <g id="Page-1" transform="translate(676.500000, 40.000000) scale(-1, -1) translate(-676.500000, -40.000000) translate(596.000000, 17.000000)">
                    <path d="M112.51892,7.83058356 C110.85843,9.75144568 109.422697,11.9707538 108.994064,14.5020177 C108.399629,18.009679 109.804658,21.6131377 111.465148,24.850601 C113.350393,28.5277501 115.606546,32.0255859 118.185709,35.2741028 C119.593195,37.046356 121.132095,38.7756232 123.072608,39.9374745 C124.661864,40.8893084 126.451311,41.4186508 128.218652,41.9393961 C130.830975,42.7094604 133.443298,43.4795246 136.055622,44.2495889 C137.006227,44.5296123 137.999819,44.8108639 138.961478,44.7605088 C138.961478,44.7605088 144.507906,45.5858408 146.725986,45.146155 C146.725986,45.146155 146.725986,45.146155 146.725986,45.146155 C148.473676,45.1842284 150.196802,45.018425 151.854836,44.5124179 C157.601456,42.7573591 161.515642,36.6300054 160.74435,30.5984493 C160.197813,26.3330054 157.650583,22.5281264 154.93018,19.1101217 C151.633764,14.9687234 147.970125,11.1110329 143.999443,7.60214344 C140.249832,4.28853347 136.018777,1.18985372 131.153985,0.274865052 C124.122696,-1.04910513 117.0693,2.56540716 112.51892,7.83058356" id="Fill-1" fill="#AACB99"></path>
                    <path d="M144.363105,35.8927334 C144.867884,36.1727567 145.661283,36.3618953 146.742075,36.4613773 C147.822867,36.5596311 148.629777,36.5240141 149.162804,36.3557545 C149.442827,36.2722387 149.612315,36.1592468 149.667583,36.0192352 C149.724079,35.8779953 149.752327,35.5832338 149.752327,35.1349508 C149.724079,35.0502069 149.695831,34.6092929 149.667583,33.8085243 C149.640563,33.0089838 149.597577,32.0055667 149.541081,30.798273 C149.485813,29.5922074 149.429317,28.4414095 149.372821,27.3458795 C149.289306,25.6055587 149.211931,24.1956165 149.141925,23.1160527 C149.071919,22.0352607 148.987175,21.1644862 148.888921,20.5049575 C148.790667,19.8454287 148.677676,19.4032866 148.552402,19.1797591 C148.4259,18.9537753 148.26501,18.8702596 148.068502,18.9267555 C147.815498,19.0102713 147.065085,20.3158189 145.816033,22.8421701 C144.566982,25.3672932 143.731824,27.3188597 143.310561,28.6931849 C142.637522,30.6582613 142.391888,32.2155843 142.573657,33.3663821 C142.756655,34.5171799 143.352319,35.3597064 144.363105,35.8927334 M155.266822,38.7973618 C155.071543,39.0221174 154.82468,39.1277403 154.529919,39.1130022 C154.235157,39.0982641 153.681251,38.9803596 152.866973,38.7556039 C151.969178,38.4743524 150.734865,38.3908367 149.162804,38.5026004 C145.373891,38.7556039 142.469263,38.0248412 140.44769,36.3139966 C138.427346,34.6019238 137.656054,32.2020744 138.132585,29.1144482 C138.300844,27.9918983 138.679122,26.5180911 139.268644,24.6942546 C139.858167,22.8691899 140.43418,21.4101208 140.995455,20.3158189 C141.921497,18.4637344 143.015799,16.8425465 144.279589,15.4534831 C145.542151,14.0644198 146.81945,13.0880225 148.11026,12.5279757 C148.783298,12.2184762 149.240179,12.0502165 149.478444,12.0219686 C149.71671,11.9937206 150.215348,12.0919744 150.97313,12.31673 C151.955669,12.5697336 152.726961,12.6962354 153.288236,12.6962354 C154.018999,12.6962354 154.550797,12.8644951 154.888545,13.2010144 C155.225064,13.5375337 155.47684,14.1479355 155.646328,15.0322199 C155.814587,15.9165042 155.969337,17.3829424 156.109349,19.4315345 C156.305856,22.6874204 156.305856,26.6237139 156.109349,31.2404151 C155.912841,35.8571164 155.631589,38.3760986 155.266822,38.7973618" id="Fill-3" fill="#10150E"></path>
                    <path d="M136.532767,30.2513677 C136.392755,30.3913793 135.978861,30.3987484 135.291084,30.2722466 C134.603308,30.1457448 134.034664,29.9701161 133.585152,29.7465887 C133.108621,29.4935851 132.743854,29.1423277 132.490851,28.6940447 C132.097835,27.9362621 131.712189,26.2659472 131.333912,23.6843282 C130.954406,21.101481 130.751758,18.8146234 130.72351,16.8212991 C130.695262,15.7552452 130.716141,15.0257106 130.786147,14.6326953 C130.856153,14.23968 131.018271,13.8466648 131.270047,13.4536495 C131.83255,12.5546271 132.539977,12.0780961 133.396014,12.0228283 C134.253278,11.9663323 134.988954,12.3446095 135.606725,13.158888 C135.943244,13.5519033 136.153262,13.9584285 136.238005,14.3796917 C136.322749,14.800955 136.406265,15.6852393 136.491009,17.0325448 C136.602773,19.0246409 136.666638,21.7057419 136.680148,25.0733915 C136.694886,28.4410411 136.645759,30.1678519 136.532767,30.2513677 M136.659269,37.4509161 C136.210986,37.8709511 135.733226,38.0883377 135.227219,38.1030758 C134.72244,38.1165857 134.245909,37.9139372 133.796398,37.492674 C133.263371,36.987895 132.96861,36.383634 132.912114,35.6823474 C132.855618,34.9810608 133.038616,34.3915379 133.459879,33.9137787 C133.879914,33.4360195 134.427679,33.226002 135.100718,33.2824979 C136.252744,33.3942616 136.94052,34.2232782 137.164048,35.7658631 C137.220544,36.1871264 137.220544,36.5027667 137.164048,36.7140125 C137.10878,36.92403 136.94052,37.1696645 136.659269,37.4509161" id="Fill-5" fill="#10150E"></path>
                    <path d="M117.251561,33.1142382 C116.43851,33.5072535 115.785123,33.709902 115.293853,33.7246401 C114.802584,33.73815 114.346932,33.5772594 113.925669,33.24074 C113.477386,32.9042207 113.161746,32.3625965 112.978748,31.6195521 C112.79575,30.8752794 112.620121,29.4653371 112.451862,27.3884971 C112.088323,22.7288098 112.115342,18.7581274 112.536606,15.4739936 C112.761361,13.8749127 112.978748,12.8358786 113.188765,12.3593476 C113.400011,11.8815884 113.813905,11.5168211 114.430448,11.2650457 C115.244727,10.9272982 116.017247,10.9272982 116.746782,11.2650457 C117.476316,11.6015651 118.107597,12.2598656 118.640624,13.243632 C119.061887,14.0566823 119.061887,15.9235048 118.640624,18.8428714 C118.219361,21.7610097 117.518074,24.7221341 116.535536,27.7250164 C116.002509,29.3523452 115.694238,30.4196273 115.609494,30.9244063 C115.525978,31.4304135 115.595984,31.7386848 115.819511,31.8516767 C115.904255,31.9069445 116.024616,31.8995754 116.178138,31.8295696 C116.332888,31.7595637 116.514657,31.6195521 116.725903,31.4095345 C116.93592,31.1982888 117.174186,30.9108964 117.440699,30.5461291 C117.708441,30.1813618 118.009343,29.7465887 118.345863,29.2405815 C120.61921,25.7316921 121.72825,21.6910039 121.671754,17.1160605 C121.644735,15.6852393 121.658244,14.8144649 121.71474,14.5061935 C121.771236,14.196694 121.966516,13.8749127 122.303035,13.5383934 C122.612535,13.2288939 122.899927,13.0323863 123.16644,12.9488705 C123.434182,12.8641266 124.001598,12.8223687 124.871144,12.8223687 C125.910178,12.8493885 126.654451,12.9758903 127.102734,13.2006459 C127.552245,13.4254015 127.888765,13.8466648 128.11352,14.4644356 C128.28178,14.8562227 128.633037,17.887353 129.166064,23.5578264 L129.923847,32.1034521 L129.24958,32.6512171 C128.829545,33.0159844 128.330907,33.205123 127.754894,33.2198611 C127.180109,33.233371 126.667961,33.0577423 126.21845,32.692975 C125.348903,32.0199364 124.562873,30.5731489 123.861586,28.3575253 C123.552087,27.402007 123.328559,26.8554701 123.187319,26.7154584 C122.8508,26.3777109 122.346021,26.897228 121.671754,28.2727814 C121.616487,28.3292774 121.5735,28.3992832 121.545253,28.482799 C121.376993,28.8475662 121.166975,29.2197026 120.913972,29.5992079 C120.662196,29.9774851 120.388314,30.3422524 120.093552,30.6935098 C119.798791,31.0435391 119.49666,31.3739175 119.188389,31.6821889 C118.880118,31.9916884 118.557108,32.2643427 118.219361,32.5038364 C117.882841,32.7421019 117.56106,32.9459786 117.251561,33.1142382" id="Fill-7" fill="#10150E"></path>
                    <path d="M99.9502918,20.6827969 C98.8903787,22.4906671 98.4310421,23.4670644 98.5759665,23.6119888 C98.7208909,23.7569132 99.0954836,23.4547827 99.6972882,22.7080537 C100.300321,21.9600965 100.866509,21.110201 101.397079,20.1583671 C101.92765,19.2065333 102.191707,18.5494609 102.191707,18.1883781 C102.191707,17.3925222 101.650083,17.8739659 100.565606,19.6339374 C100.372783,19.9471214 100.167678,20.2971507 99.9502918,20.6827969 M107.146156,33.1217301 C106.519788,33.3624519 105.820957,33.2052458 105.048437,32.6513399 C104.566993,32.3381559 104.187488,31.7891627 103.909921,31.0068167 C103.633582,30.2232425 103.362156,28.9999825 103.09687,27.3358085 C102.759123,25.2147542 102.554018,24.0455338 102.481556,23.8281472 C102.433657,23.6353241 102.083628,23.8404289 101.432696,24.4434617 C100.781765,25.0219311 100.203295,25.4382816 99.6972882,25.6912852 C99.191281,25.9442888 98.6484287,26.0707906 98.0699593,26.0707906 C96.9130206,26.0941258 96.069266,25.5156565 95.5386954,24.3353825 C95.1051504,23.3700388 95.0818151,22.3150384 95.4662332,21.1703815 C95.8531076,20.0257245 96.7926597,18.3320743 98.2873459,16.0906591 C100.311375,13.0767233 101.626748,11.3044701 102.228552,10.7751276 C102.662097,10.3894814 103.43953,10.2875431 104.560852,10.4680845 C105.682174,10.6486258 106.507506,11.0035678 107.038076,11.5341384 L107.689008,12.1850699 L107.689008,20.9001835 C107.689008,26.7327757 107.784805,30.0721773 107.977629,30.9159319 C108.099218,31.5901987 108.10413,32.0728706 107.996051,32.3627194 C107.886744,32.6513399 107.604264,32.9043435 107.146156,33.1217301" id="Fill-9" fill="#10150E"></path>
                    <path d="M85.2338351,26.2152237 C85.4512216,26.6008699 85.6796618,26.7396534 85.9203836,26.6315742 C86.1623336,26.5222669 86.463236,26.1550432 86.8243187,25.5286751 C87.1620662,24.9502058 87.4998137,24.1727725 87.8375612,23.1963752 C88.1753087,22.2199779 88.3435684,21.538342 88.3435684,21.1526958 C88.3435684,20.549663 88.0426661,20.5865081 87.4396333,21.2620031 C87.3192723,21.4056993 87.174348,21.5862407 87.0060883,21.8036273 C85.4143765,23.949245 84.8236254,25.4193678 85.2338351,26.2152237 M90.1158216,28.7464876 C89.8026376,29.0117729 89.5545467,29.1738917 89.3740053,29.2340722 C89.1934639,29.2942527 88.9343195,29.28934 88.596572,29.2168778 C87.9702039,29.0952887 87.3069906,28.9872095 86.6081603,28.891412 C85.5236838,28.7464876 84.7401096,28.5119066 84.2574378,28.1864409 C83.7759941,27.8609751 83.4505283,27.3475989 83.2810405,26.6487686 C82.9924199,25.5876274 83.2331417,24.2919052 84.0044342,22.761602 C84.7757267,21.2312988 85.8000227,19.9957571 87.0773223,19.0562049 C87.5366589,18.7184575 87.8793191,18.3745691 88.1089874,18.0245399 C88.3374275,17.6757388 88.476211,17.2778109 88.5241098,16.8319842 C88.5732367,16.3849293 88.5363915,15.8740095 88.4160306,15.2955401 C88.2232075,14.3780951 88.0058209,13.7640087 87.765099,13.4508247 C87.5243772,13.1376407 87.1866297,13.0283333 86.7518565,13.1253589 C86.3674385,13.1978211 85.8847666,13.4925826 85.3062973,14.0108715 C84.7278279,14.5291603 84.3065647,15.0290266 84.0400512,15.5116985 C83.6065062,16.3308897 83.22086,16.4033519 82.8831125,15.7290851 C82.6423907,15.2230779 82.5220297,14.427222 82.5220297,13.3427455 C82.5220297,12.3786299 82.6301089,11.6245319 82.8474955,11.0829077 C83.0636539,10.5400554 83.4505283,10.0524708 84.0044342,9.61769767 C84.2930548,9.42487456 84.607467,9.29837277 84.9439863,9.23819231 C85.2817338,9.17801184 85.9326654,9.1485357 86.8967809,9.1485357 C87.88546,9.17187098 88.5670958,9.21362885 88.9404603,9.27503749 C89.3138248,9.33398978 89.7535107,9.49733675 90.2595178,9.76262205 C91.8757931,10.6063767 93.0437853,11.9868428 93.7671791,13.9027923 C94.4905728,15.8199699 94.6662015,17.9582185 94.2916088,20.3212228 C93.9182443,22.682999 93.0437853,24.8777436 91.6706883,26.9017722 C91.0676555,27.7934256 90.5493666,28.4087401 90.1158216,28.7464876" id="Fill-11" fill="#10150E"></path>
                    <path d="M71.9633061,24.7325736 C72.0848952,24.9253967 72.2592958,24.9732954 72.4877359,24.877498 C72.7174042,24.7804723 72.9519852,24.5643139 73.192707,24.2265664 C73.6029167,23.6714324 74.5068518,22.1656926 75.9045124,19.7068909 C77.3034011,17.2480891 78.0022313,15.9339443 78.0022313,15.7656846 C78.0022313,15.0656262 77.5686864,15.1626518 76.7003683,16.0543052 C76.001538,16.7531355 75.2425273,17.7774315 74.4221079,19.1284215 C73.868202,20.0200749 73.2958735,21.1401684 72.7051224,22.4911584 C72.1143714,23.8409202 71.8675087,24.5876492 71.9633061,24.7325736 M73.0846278,29.7582563 C72.481595,30.0481051 72.0775262,30.1868886 71.8724214,30.1746069 C71.6685447,30.1623251 71.3725551,29.9879246 70.9869088,29.6501771 C70.5054651,29.2645309 69.7820714,28.8788846 68.8179558,28.4932384 C68.214923,28.2525166 67.7875189,28.0412709 67.5332872,27.8607295 C67.2802836,27.6801881 67.0702661,27.4320972 66.9007782,27.1189132 C66.6846198,26.6853682 66.5814533,26.2567359 66.593735,25.8354727 C66.6060168,25.4129813 66.7693637,23.8654836 67.0813196,21.1892953 C67.2753709,19.4772226 67.4559123,17.2714244 67.6241719,14.5719008 C67.7211976,12.7149036 67.8047133,11.5825284 67.8771755,11.1723187 C67.9496377,10.762109 68.1301791,10.4255897 68.4200279,10.1603044 C68.7811106,9.77465815 69.2822051,9.58183503 69.9208549,9.58183503 C70.5595047,9.58183503 71.0716527,9.76237642 71.457299,10.1246874 C71.8908439,10.5336689 72.2163097,11.0642395 72.4336963,11.715171 C72.6498547,12.3661026 72.7112633,13.0403694 72.6142377,13.7404278 C72.4938767,14.7278787 72.5663389,15.2830128 72.8316242,15.4033737 C72.9274217,15.4512724 73.0367291,15.3677567 73.15709,15.1503701 C73.7109959,14.210818 74.415967,13.4984778 75.2720034,13.0170341 C76.1280398,12.5343622 77.0381158,12.3304856 78.0022313,12.4017196 C79.5202528,12.5220805 80.5998166,13.0956372 81.2384664,14.1199332 C81.8771162,15.1442292 82.0158998,16.5001319 81.6535888,18.1876412 C81.292506,19.8751505 80.4487514,21.7186378 79.123553,23.7205593 C78.3755958,24.8529345 77.3574407,26.0700537 76.0678593,27.3719167 C74.778278,28.6737798 73.7834581,29.4696357 73.0846278,29.7582563" id="Fill-13" fill="#10150E"></path>
                    <path d="M62.6345975,32.6154773 C62.4663378,32.7604017 62.3029909,32.8328639 62.1457848,32.8328639 C61.9898068,32.8328639 61.6704819,32.7358382 61.18781,32.5430151 C60.3931823,32.2052676 59.8085721,31.7471592 59.4339794,31.1686898 C59.0606149,30.5902205 58.8137522,29.7820829 58.6933913,28.7467333 C58.5975938,27.8305164 58.4403877,27.2569598 58.2230011,27.0285196 C58.0056146,26.7988513 57.5364526,26.6858595 56.8130589,26.6858595 C56.0417664,26.6858595 55.4510153,26.5163716 55.0408056,26.1786241 C54.0766901,25.3348695 54.4144375,24.9136062 56.0540481,24.9136062 L56.2345895,24.9136062 C57.2466038,24.9136062 57.8373549,24.6655154 58.0056146,24.1717899 C58.1751024,23.6780645 58.272128,21.9119521 58.2954633,18.874681 L58.2954633,18.2962117 C58.3445902,15.4763271 58.392489,13.7642544 58.4403877,13.1612216 C58.4882864,12.5581888 58.6332108,12.0521816 58.8739327,11.6432001 C59.3074776,10.9431417 59.8208538,10.497315 60.4103767,10.3044919 C61.002356,10.1116687 61.6103015,10.1718492 62.2366695,10.4862614 C62.694778,10.7269833 62.9907676,11.2329904 63.1221821,12.0042829 C63.2560529,12.7755753 63.3702729,14.608009 63.4660704,17.5003558 C63.5385326,20.8274756 63.6232765,22.5997289 63.719074,22.8158872 C63.7915362,23.0332738 64.0813849,23.2985591 64.5873921,23.6117432 C65.1179627,23.9728259 65.4913272,24.3105734 65.7087138,24.6237575 C65.85241,24.8644793 65.9248722,25.0339672 65.9248722,25.1309928 C65.9248722,25.2267903 65.8413564,25.3839964 65.6718686,25.6001548 C65.383248,25.9133388 64.9607566,26.1307254 64.4068507,26.2510863 C63.7792545,26.419346 63.3702729,26.7509526 63.1774498,27.2459062 C62.9846267,27.7396316 62.8876011,28.6742711 62.8876011,30.0485963 C62.8876011,31.5666178 62.8028572,32.4226542 62.6345975,32.6154773" id="Fill-15" fill="#10150E"></path>
                    <path d="M44.9964408,21.7643258 C44.9964408,18.6791559 44.4118305,16.3566813 43.2401538,14.7956738 C42.0697052,13.2346663 40.3207872,12.4547766 37.9909436,12.4547766 C33.3202028,12.4547766 30.9854465,15.5571409 30.9854465,21.7643258 C30.9854465,27.9837924 33.3079211,31.0922975 37.9528703,31.0922975 C40.2827139,31.0922975 42.0390009,30.3074951 43.220503,28.7415749 C44.4044615,27.1731984 44.9964408,24.8470393 44.9964408,21.7643258 M24.8482674,21.7643258 C24.8482674,18.515809 25.4230523,15.7941782 26.5763065,13.5957491 C27.7283325,11.3997763 29.4182981,9.79087003 31.6449752,8.77271485 L24.9993327,1.35086716 L32.4960989,1.35086716 L37.5561705,7.54577031 L37.9909436,7.54577031 C42.2195423,7.54577031 45.4680591,8.77271485 47.7352659,11.2278321 C50.0012445,13.6829493 51.1336198,17.2065768 51.1336198,21.8023991 C51.1336198,26.3957651 49.99756,29.9058827 47.7254405,32.3290674 C45.4520928,34.7534804 42.1949788,35.9644586 37.9528703,35.9644586 C33.7119899,35.9644586 30.4659294,34.7424268 28.2183734,32.3008195 C25.9720455,29.8579839 24.8482674,26.3466382 24.8482674,21.7643258" id="Fill-17" fill="#10150E"></path>
                    <g id="Group-21" transform="translate(0.000000, 7.201882)" fill="#10150E">
                        <path d="M16.2019316,16.0733419 L14.3142301,16.0733419 C12.4621457,16.0733419 11.0964176,16.3816132 10.2158178,16.9981559 C9.33398978,17.6146986 8.89430395,18.5837269 8.89430395,19.9064689 C8.89430395,21.215701 9.34504333,22.1466559 10.2440658,22.70179 C11.1443164,23.2556959 12.5382924,23.5308066 14.4259938,23.5308066 L16.2019316,23.5308066 L16.2019316,16.0733419 Z M16.2019316,11.3141726 L16.2019316,0.719954843 L22.0554027,0.719954843 L22.0554027,28.3280492 L14.0120996,28.3280492 C10.2612602,28.3280492 7.48436168,27.6451852 5.68386048,26.2782289 C3.88335929,24.9137291 2.98433687,22.8393453 2.98433687,20.056306 C2.98433687,18.4326617 3.43139173,16.9883306 4.32427329,15.7220845 C5.21838303,14.4582948 6.48340092,13.4671594 8.12055514,12.7486784 C3.96564686,6.54272166 1.25998238,2.53396594 -0.000122817271,0.719954843 L6.49568265,0.719954843 L13.0860574,11.3141726 L16.2019316,11.3141726 Z" id="Fill-19"></path>
                    </g>
                </g>
            </g>
        </g>
    </g>
</svg>