<?xml version="1.0" encoding="UTF-8"?>
<svg width="114px" height="49px" viewBox="0 0 114 49" version="1.1" xmlns="http://www.w3.org/2000/svg" xmlns:xlink="http://www.w3.org/1999/xlink">
    <!-- Generator: Sketch 44.1 (41455) - http://www.bohemiancoding.com/sketch -->
    <title>logo</title>
    <desc>Created with Sketch.</desc>
    <defs>
        <polygon id="path-1" points="55.6901661 0.0207390351 1.09739767e-05 0.0207390351 1.09739767e-05 48.8925376 55.6901661 48.8925376 55.6901661 0.0207390351"></polygon>
    </defs>
    <g id="Pantallas" stroke="none" stroke-width="1" fill="none" fill-rule="evenodd">
        <g id="landing" transform="translate(-33.000000, -16.000000)">
            <g id="menú">
                <g id="logo" transform="translate(33.000000, 16.000000)">
                    <g id="Group-3" transform="translate(0.000000, 0.086717)">
                        <mask id="mask-2" fill="white">
                            <use xlink:href="#path-1"></use>
                        </mask>
                        <g id="Clip-2"></g>
                        <path d="M51.7653525,40.4398719 C53.5441364,38.365861 55.0828698,35.9707711 55.5416425,33.2384838 C56.1775471,29.4524816 54.6734722,25.5627842 52.894475,22.0678807 C50.8743609,18.0992031 48.4576462,14.3225496 45.6943459,10.8160408 C44.1869652,8.90321404 42.537751,7.03723816 40.4591972,5.78290263 C38.7565555,4.75551447 36.8396705,4.18298816 34.9473132,3.6211 C32.1486079,2.79003421 29.3499025,1.95907588 26.5510906,1.12801009 C25.5337285,0.825950877 24.4693375,0.522064912 23.4381121,0.576437719 C23.4381121,0.576437719 17.4973151,-0.314158772 15.1212309,0.159507895 C15.1209109,0.159615351 15.1206977,0.159615351 15.1203777,0.159722807 C13.2487089,0.118352193 11.4027407,0.298126316 9.62587633,0.844755702 C3.47008962,2.73867018 -0.722956221,9.35248816 0.103943686,15.8640079 C0.688553601,20.4679662 3.4181551,24.5753697 6.33160692,28.2640167 C9.86294088,32.7348368 13.7875695,36.8983325 18.0411878,40.6860539 C22.0587014,44.2634838 26.5903347,47.6080561 31.8025555,48.5963303 C39.3342337,50.0244224 46.8906528,46.1238719 51.7653525,40.4398719" id="Fill-1" fill="#9FD59B" mask="url(#mask-2)"></path>
                    </g>
                    <path d="M17.6519989,10.2352081 C17.1106855,9.93261162 16.2608576,9.72823004 15.1037949,9.62174101 C13.9459858,9.51589671 13.0814413,9.55361382 12.5105882,9.73532215 C12.2097519,9.82612259 12.0294208,9.94754803 11.9692748,10.0988463 C11.908809,10.2507893 11.8792692,10.5688594 11.8792692,11.0531643 C11.908809,11.1441796 11.9390952,11.6212849 11.9692748,12.4845875 C11.9989212,13.3482125 12.044244,14.4315853 12.1046032,15.7339537 C12.1647491,17.0368594 12.2245751,18.2788375 12.285041,19.4603178 C12.3752599,21.3391884 12.4578006,22.861627 12.5330896,24.0273112 C12.6079521,25.19407 12.6980644,26.133559 12.8037463,26.8450261 C12.9087884,27.5570305 13.0292935,28.0343507 13.1645152,28.2764493 C13.2998436,28.5193002 13.4726032,28.6103156 13.6832206,28.549173 C13.9538773,28.4581577 14.7578492,27.0495151 16.0960962,24.3228156 C17.4335966,21.5962235 18.3284273,19.4908353 18.7795218,18.0061138 C19.500953,15.8858967 19.7638249,14.2045305 19.5686705,12.9619077 C19.3728763,11.7199296 18.7341991,10.811173 17.6519989,10.2352081 M5.97110458,7.09963794 C6.18118877,6.85732434 6.44480711,6.74385066 6.7604666,6.75867961 C7.07623274,6.77447566 7.66937399,6.9029932 8.54180992,7.14498443 C9.50371824,7.44822566 10.8263955,7.53924101 12.5105882,7.41770811 C16.5695854,7.14498443 19.6813908,7.93317522 21.8462178,9.7807761 C24.0109381,11.6291292 24.8375181,14.2194669 24.3265976,17.5516818 C24.1462664,18.7637871 23.7404947,20.3543529 23.109069,22.3231643 C22.4776434,24.2930502 21.861041,25.86782 21.2599016,27.0495151 C20.267707,29.049059 19.0951813,30.7985524 17.7421111,32.2981029 C16.3891476,33.7979757 15.0206144,34.8509384 13.6381111,35.4564537 C12.9164666,35.79032 12.4274077,35.9721357 12.1723207,36.0020086 C11.9164872,36.0324186 11.3831719,35.9266818 10.5714152,35.6838309 C9.51854144,35.4111072 8.69196146,35.2747454 8.09082208,35.2747454 C7.30860505,35.2747454 6.73785856,35.0930371 6.37708962,34.7295129 C6.01642732,34.3659888 5.74566399,33.7069603 5.56533283,32.7526423 C5.38500168,31.7983243 5.21917381,30.2156029 5.06923555,28.0037257 C4.85851151,24.489695 4.85851151,20.2406643 5.06923555,15.2566336 C5.27931974,10.27357 5.58015603,7.5539625 5.97110458,7.09963794" id="Fill-4" fill="#161614"></path>
                    <path d="M26.040298,16.3247906 C26.1904496,16.1734923 26.6336526,16.165648 27.3707601,16.3020099 C28.1071212,16.4383717 28.7160455,16.6280318 29.1973196,16.870023 C29.70824,17.1427467 30.0991886,17.521852 30.3698453,18.0061568 C30.7906535,18.8241129 31.2043167,20.6269046 31.6100885,23.4138871 C32.0160735,26.2017292 32.2338359,28.670534 32.2641222,30.8213761 C32.2937686,31.9729836 32.2710539,32.7605296 32.1964047,33.1843366 C32.121009,33.6088958 31.948356,34.0329178 31.6776993,34.4567248 C31.0759201,35.4268388 30.3170576,35.9416612 29.4003654,36.0019441 C28.48282,36.0628717 27.693458,35.6540011 27.0324926,34.7749024 C26.6717237,34.3510954 26.4462831,33.9114923 26.3559575,33.4570603 C26.2659519,33.0025208 26.1756264,32.0482029 26.0855141,30.5939989 C25.965009,28.4432643 25.8973981,25.5496853 25.8825749,21.9143366 C25.8668986,18.2788805 25.9197929,16.415591 26.040298,16.3247906 M25.9049697,8.55388487 C26.3856039,8.09934539 26.8972709,7.86498355 27.4384776,7.84940241 C27.9795777,7.83446601 28.4904982,8.0539989 28.9717723,8.50821601 C29.5426254,9.05377083 29.8583916,9.70549232 29.9188574,10.4623059 C29.9788967,11.2199792 29.7837424,11.856227 29.3326479,12.3710493 C28.8816601,12.8866239 28.2952372,13.1137862 27.573806,13.0526436 C26.3406011,12.9320779 25.6040268,12.0380428 25.3638696,10.3716129 C25.3031905,9.91707346 25.3031905,9.57622259 25.3638696,9.34906031 C25.4236956,9.12189803 25.6040268,8.85701864 25.9049697,8.55388487" id="Fill-6" fill="#161614"></path>
                    <path d="M46.6954131,13.2344164 C47.5671025,12.8106094 48.266139,12.5910765 48.7926292,12.5756029 C49.3183729,12.5606664 49.8072185,12.7345305 50.2582064,13.0982695 C50.7389472,13.4617936 51.0770015,14.0453879 51.273009,14.8477629 C51.4681633,15.6508901 51.656386,17.1732213 51.8368238,19.4149713 C52.2271325,24.4443485 52.1974861,28.7308814 51.7464982,32.2755371 C51.5057012,34.0022498 51.273009,35.1236621 51.0475684,35.6384844 C50.8220211,36.1538441 50.3781783,36.547241 49.7171063,36.8199647 C48.8446703,37.1834888 48.0180904,37.1834888 47.2365132,36.8199647 C46.4544028,36.4564406 45.7779744,35.7449735 45.2072279,34.6841664 C44.7561334,33.805605 44.7561334,31.7912322 45.2072279,28.6399735 C45.6582157,25.4894669 46.4092934,22.2935064 47.4621671,19.0512322 C48.0329136,17.2946467 48.3640361,16.1428243 48.454255,15.5975919 C48.5445805,15.0523594 48.4690782,14.7192454 48.228921,14.59782 C48.1385955,14.5375371 48.0103055,14.5451664 47.8455441,14.6206007 C47.6799295,14.6964647 47.4845618,14.8477629 47.2591212,15.0749252 C47.0337873,15.3023024 46.7778471,15.613173 46.4923673,16.0066774 C46.2063542,16.4006116 45.8836563,16.8700875 45.5228874,17.41532 C43.0875104,21.2028265 41.899415,25.5654384 41.9600941,30.5032629 C41.9896339,32.0482673 41.9748107,32.9876489 41.9147714,33.3206555 C41.8543055,33.6545217 41.644328,34.0022498 41.2833457,34.3659888 C40.9522232,34.6996401 40.6443486,34.9112213 40.3588687,35.0022366 C40.0728556,35.0930371 39.464038,35.1383836 38.5323093,35.1383836 C37.4197162,35.1087257 36.622676,34.9723638 36.142255,34.7295129 C35.6607676,34.4874143 35.2999987,34.0329822 35.0598415,33.3662169 C34.8794037,32.942195 34.5030651,29.6702629 33.9323186,23.5503134 L33.1205618,14.3250963 L33.8419931,13.7345173 C34.2930876,13.3409055 34.8266161,13.1366314 35.4431119,13.1208353 C36.0589678,13.1058989 36.6078528,13.295559 37.0891268,13.6888485 C38.0208556,14.4161116 38.8628986,15.9768046 39.6148294,18.3696379 C39.9453121,19.4000349 40.1855759,19.9907213 40.3364739,20.1420195 C40.6972428,20.5054362 41.2383429,19.9452673 41.9600941,18.4606533 C42.0199201,18.4001555 42.0649229,18.3242914 42.0954225,18.2332761 C42.2757536,17.8398792 42.5011942,17.4381007 42.7718509,17.0290151 C43.0422943,16.6201445 43.335559,16.2267476 43.6513252,15.8475349 C43.9669847,15.4690743 44.2896825,15.1132871 44.6208051,14.7796357 C44.9512877,14.4465217 45.2972335,14.1512322 45.6582157,13.893445 C46.0189847,13.6364099 46.3642906,13.4163397 46.6954131,13.2344164" id="Fill-8" fill="#161614"></path>
                    <path d="M65.229563,26.653507 C66.3656172,24.7018886 66.8564891,23.6479588 66.701432,23.491825 C66.5464816,23.3357987 66.1458286,23.6614982 65.5007529,24.4676342 C64.8549306,25.2745224 64.2477126,26.191768 63.6801654,27.2193711 C63.1116584,28.2476189 62.8277781,28.9562921 62.8277781,29.3466803 C62.8277781,30.2053623 63.4089755,29.6851671 64.5710503,27.78545 C64.7772954,27.4476079 64.997084,27.070007 65.229563,26.653507 M57.5210728,13.2266474 C58.1922758,12.966711 58.9410073,13.135632 59.7676939,13.7339478 C60.2840531,14.0724346 60.690678,14.6646254 60.9879951,15.509768 C61.2844591,16.3558776 61.5750578,17.6760838 61.8594713,19.4715684 C62.2208801,21.7616737 62.440562,23.0235311 62.5179839,23.2577855 C62.5693852,23.4662504 62.9440176,23.2449982 63.6413478,22.5942439 C64.3385714,21.9696013 64.9583731,21.5208645 65.5007529,21.2476035 C66.043026,20.97445 66.6240101,20.8376583 67.2437051,20.8376583 C68.4833085,20.8120838 69.3870971,21.4366189 69.9552842,22.7113711 C70.4201355,23.7522987 70.4455162,24.8909039 70.0329194,26.1266496 C69.6193628,27.362825 68.6122384,29.1905465 67.0114395,31.6104588 C64.8421336,34.863586 63.4342496,36.7761978 62.7891738,37.3482943 C62.3243225,37.7647943 61.4914507,37.8751518 60.2907716,37.6799039 C59.0898791,37.4848711 58.2050728,37.1012526 57.6373123,36.5286189 L56.9400887,35.8260706 L56.9400887,26.4192526 C56.9400887,20.1223228 56.8365396,16.5186737 56.6301878,15.6075531 C56.5005115,14.8793228 56.4945396,14.3584829 56.610779,14.0461079 C56.7270185,13.7339478 57.0300943,13.4606868 57.5210728,13.2266474" id="Fill-10" fill="#161614"></path>
                    <path d="M80.9946326,20.6816105 C80.7623669,20.2656478 80.5166644,20.1155316 80.258698,20.2326588 C80.0003051,20.349786 79.6777139,20.7469439 79.2902846,21.4231654 C78.9283426,22.0478079 78.5671471,22.8868254 78.2056316,23.9407553 C77.8436896,24.9945776 77.6633585,25.7302224 77.6633585,26.1460776 C77.6633585,26.796832 77.9860563,26.7578254 78.6317719,26.0289504 C78.7607018,25.8728167 78.9156522,25.6776763 79.0967298,25.4434219 C80.8009712,23.1278496 81.4334632,21.5402925 80.9946326,20.6816105 M75.7654558,17.9493232 C76.1007373,17.6633825 76.3658486,17.4876917 76.5594034,17.4224658 C76.7530647,17.3577772 77.0302266,17.3639022 77.3921686,17.4420228 C78.0634782,17.5724746 78.7733921,17.6896018 79.5227635,17.7931895 C80.6847317,17.9493232 81.5236821,18.2031346 82.0405746,18.5543013 C82.5569338,18.9056829 82.9054389,19.4587596 83.0865166,20.2133167 C83.3964174,21.3585842 83.1379179,22.7571259 82.3117645,24.4091566 C81.4850778,26.061832 80.3876279,27.3950404 79.0190947,28.4098561 C78.5282228,28.7745623 78.1603089,29.1455009 77.9152462,29.5223496 C77.6695437,29.899843 77.5210984,30.3292377 77.4696971,30.8103189 C77.4176559,31.2921522 77.4564735,31.8446917 77.5859366,32.4693342 C77.7922883,33.458468 78.0247673,34.1220096 78.2832668,34.4598518 C78.5409132,34.7982311 78.9028552,34.9153583 79.3678131,34.8111259 C79.7805166,34.7331127 80.297409,34.4147202 80.9172107,33.8548737 C81.5369057,33.2955645 81.9885334,32.7559197 82.2730535,32.2350798 C82.7377981,31.3507158 83.1507149,31.2725952 83.5126569,32.0008254 C83.7704099,32.5472399 83.899873,33.4059219 83.899873,34.5769789 C83.899873,35.6179066 83.7837401,36.4310272 83.5512612,37.0165557 C83.3187822,37.6019768 82.9054389,38.1288342 82.3117645,38.597343 C82.0018636,38.8057004 81.6659422,38.9424921 81.30464,39.0070732 C80.942698,39.0724066 80.2454745,39.1046434 79.2129693,39.1046434 C78.1536971,39.0789614 77.4243744,39.0332925 77.0242546,38.9680667 C76.6236017,38.9034855 76.1526718,38.7277947 75.6105053,38.4409943 C73.8800301,37.5305184 72.6277364,36.0407465 71.8529843,33.9720009 C71.0783388,31.9032553 70.890756,29.5942377 71.291409,27.0438737 C71.6915287,24.4940469 72.6277364,22.1257136 74.0997121,19.9400557 C74.7448945,18.9775711 75.3004978,18.3140294 75.7654558,17.9493232" id="Fill-12" fill="#161614"></path>
                    <path d="M95.2108058,22.2819978 C95.0811295,22.0739627 94.8942932,22.0220614 94.6490172,22.1257566 C94.4033147,22.229989 94.1516402,22.4642434 93.8936739,22.8283048 C93.4542034,23.4272654 92.4857899,25.0530768 90.9885401,27.7072434 C89.4905439,30.3614101 88.7418123,31.7800461 88.7418123,31.9618618 C88.7418123,32.7168487 89.2066636,32.6126162 90.1363661,31.6495943 C90.884991,30.8950373 91.6984541,29.7895285 92.576542,28.331886 C93.1705364,27.3694013 93.783513,26.1595526 94.4165383,24.7019101 C95.049137,23.2450197 95.3136084,22.4381316 95.2108058,22.2819978 M94.0099134,16.8565373 C94.6550958,16.5441623 95.0878479,16.3947982 95.3076365,16.407693 C95.5266786,16.4210175 95.8431912,16.6094956 96.2565345,16.9734496 C96.7728937,17.3901645 97.5475392,17.8066645 98.5807908,18.2225197 C99.2259732,18.482886 99.6846393,18.7104781 99.9558292,18.9057259 C100.227019,19.1007588 100.45278,19.3680022 100.633857,19.7058443 C100.866123,20.1741382 100.975857,20.6365219 100.96306,21.0913838 C100.94973,21.5469978 100.775371,23.2185855 100.439983,26.1070066 C100.232991,27.9550373 100.039436,30.335943 99.8589985,33.2498311 C99.755556,35.2538882 99.6654438,36.476739 99.5879152,36.9189211 C99.5104934,37.3616404 99.3167254,37.7255943 99.0068245,38.0116425 C98.6195018,38.4283575 98.0832006,38.6362851 97.3993072,38.6362851 C96.714774,38.6362851 96.1657824,38.4410373 95.7529723,38.050864 C95.2882277,37.608682 94.9396159,37.0359408 94.707137,36.3332851 C94.474658,35.6307368 94.4100331,34.9025066 94.5133689,34.1476272 C94.6422988,33.0809101 94.5649835,32.4825943 94.2811033,32.3521425 C94.1775542,32.3003487 94.0613147,32.3911491 93.9323848,32.6254035 C93.3381772,33.6402193 92.5827272,34.4081009 91.6663549,34.9281886 C90.7494494,35.4490285 89.7744241,35.6699583 88.7418123,35.5917303 C87.1148862,35.4618158 85.95889,34.843943 85.27489,33.737682 C84.5903568,32.6319583 84.4421248,31.1682982 84.8293409,29.3467018 C85.2167703,27.5255351 86.1205588,25.5349101 87.5409199,23.3747193 C88.3411594,22.1520833 89.4324241,20.8376798 90.8141809,19.4325833 C92.1954045,18.0274868 93.260542,17.1688048 94.0099134,16.8565373" id="Fill-14" fill="#161614"></path>
                    <path d="M105.204308,13.7728899 C105.384639,13.6167561 105.558999,13.5388504 105.727386,13.5388504 C105.895027,13.5388504 106.236813,13.6430829 106.753706,13.8510105 C107.606093,14.2157167 108.23176,14.7096925 108.632626,15.3343351 C109.032533,15.9587627 109.297111,16.8308768 109.42668,17.9492803 C109.529483,18.9386289 109.697764,19.5565018 109.930029,19.8033285 C110.162508,20.0509075 110.666177,20.1741596 111.440823,20.1741596 C112.266976,20.1741596 112.899575,20.3566202 113.338939,20.7205741 C114.371444,21.6318022 114.010142,22.0867715 112.254286,22.0867715 L112.060624,22.0867715 C110.976078,22.0867715 110.342946,22.3539075 110.162508,22.8868899 C109.981644,23.4205171 109.878201,25.3263592 109.852714,28.605061 L109.852714,29.2294886 C109.800566,32.2740434 109.749165,34.1220741 109.697764,34.7720763 C109.645723,35.4228307 109.490772,35.9693526 109.232806,36.4114272 C108.768061,37.1665215 108.21907,37.6477101 107.586578,37.8556377 C106.953552,38.0642101 106.301651,37.9988768 105.630342,37.6604974 C105.139683,37.4006684 104.823064,36.8541465 104.681444,36.0211465 C104.539184,35.1885763 104.416332,33.2108461 104.313423,30.0883855 C104.235895,26.4974162 104.145143,24.5848044 104.04234,24.35055 C103.964705,24.1165105 103.654911,23.8304623 103.112531,23.491868 C102.544344,23.1014798 102.144224,22.7375259 101.911745,22.3989316 C101.756795,22.1392101 101.679373,21.9567496 101.679373,21.8525171 C101.679373,21.7489294 101.769485,21.5792561 101.950563,21.3452167 C102.260463,21.0073746 102.711984,20.7731202 103.306405,20.6426684 C103.977502,20.4608526 104.416332,20.1029162 104.623324,19.569289 C104.829676,19.0361991 104.933118,18.0274009 104.933118,16.5441838 C104.933118,14.9049404 105.023444,13.9814623 105.204308,13.7728899" id="Fill-16" fill="#161614"></path>
                </g>
            </g>
        </g>
    </g>
</svg>