<?xml version="1.0" encoding="utf-8"?>
<!-- Generator: Adobe Illustrator 18.1.1, SVG Export Plug-In . SVG Version: 6.00 Build 0)  -->
<svg version="1.1" id="Layer_1" xmlns="http://www.w3.org/2000/svg" xmlns:xlink="http://www.w3.org/1999/xlink" x="0px" y="0px"
	 viewBox="0 0 300 300" enable-background="new 0 0 300 300" xml:space="preserve">
<g>
	<path fill="none" d="M111.2,181H130v-7c-9,1.9-16.7,3.1-22.9,3.7C108.5,178.6,109.9,180,111.2,181z"/>
	<path fill="#FFFFFF" d="M201.7,181.9l4.5,5.6c3.8-1.8,7.5-4.4,10.5-8.2c-1.2-0.2-2.6-0.3-4.1-0.3c-3.4,0-7.4,0.5-11.4,2.2
		C201.3,181.5,201.5,181.7,201.7,181.9z"/>
	<path fill="#FFFFFF" d="M238.1,149.2c-1.1-0.1-2.4-0.2-3.8-0.2c-4.2,0-9.2,0.8-14.2,3.6l0.2,7.6
		C226.7,158.7,233.4,155.5,238.1,149.2z"/>
	<path fill="#FFFFFF" d="M231.5,113.2c-5.9,1.4-16.6,5.7-19.5,19.1c1.1,0.3,2.1,0.5,2.9,0.8C221.4,129.8,229.7,123.7,231.5,113.2z"
		/>
	<path fill="#FFFFFF" d="M200.2,110.4c5.6-3.9,14.9-12.4,13.3-25.1c-3.3,1.6-8.1,4.6-11,9.8C200,99.5,199.3,104.6,200.2,110.4z"/>
	<polygon fill="#CDCCCC" points="119.6,125.8 122.5,129.2 130,127.1 130,122.8 	"/>
	<path fill="#CDCCCC" d="M203,219v-24.4l-1-1.3v18.9c0,1.9-1.7,3.7-3.7,3.7h-85.6l2.5,3H203z"/>
	<path fill="#CDCCCC" d="M177,86.1v46.1c1-0.1,2-0.3,3-0.4V89L177,86.1z"/>
	<path fill="#CDCCCC" d="M177,181h3v-19.1c-1,0.1-2,0.3-3,0.4V181z"/>
	<path fill="#FFFFFF" d="M83.5,179.3c5,6.4,12.5,9.4,18.5,10.9v-5.9c0-0.5,0-1,0.2-1.4c-5.1-3-10.3-3.8-14.6-3.8
		C86.1,179.1,84.7,179.2,83.5,179.3z"/>
	<path fill="#FFFFFF" d="M61.9,149.2c6.2,8,15.4,11,23,11.9l-0.1-5.1c-6.4-5.6-13.5-7-19.1-7C64.3,149,63,149.1,61.9,149.2z"/>
	<path fill="#FFFFFF" d="M88.4,134.6c-2.2-15.2-13.7-19.9-19.9-21.3C70.6,125.6,81.9,131.9,88.4,134.6z"/>
	<path fill="#FFFFFF" d="M99.8,110.4c0.9-5.9,0.1-11-2.3-15.3c-3-5.2-7.7-8.2-11-9.8C84.9,98,94.2,106.5,99.8,110.4z"/>
	<path fill="#FFFFFF" d="M137,172.4v11.9c0,1.9-1.7,3.7-3.7,3.7H109v21h86v-21h-21.7c-1.9,0-3.3-1.8-3.3-3.7v-20.6
		c-7,1.3-13.5,3.1-20.4,5.2C145.2,170.2,141,171.4,137,172.4z"/>
	<path fill="#FFFFFF" d="M170,82h-20.6L117,94v25.2l15.4-4.5c1.1-0.3,2.2-0.1,3.1,0.6s1.4,1.7,1.4,2.8v22.6c4-0.8,7.4-1.8,11.5-2.8
		c7.6-1.9,14.5-3.5,21.5-4.6V82z"/>
	<path fill="#CDCCCC" d="M128,140.5c-13,0.1-29.3,3.9-35.6,7.1c0.3,0,0.6,0,0.9,0c4.1,0,12.4-0.6,27.6-3.6c2.2-0.5,5-1.1,7-1.7
		V140.5z"/>
	<path fill="#CDCCCC" d="M207.3,162c-4.5-0.8-9-1.1-13.4-1.1c-2.4,0-3.9,0.1-5.9,0.3v5.4C195,165.2,202.4,163.5,207.3,162z"/>
	<path fill="#FFFFFF" d="M92.1,171.2c0.7,0,1.5,0,2.4,0c8.8,0,27.4-1.2,52.9-9c17.7-5.5,35.1-8.5,49.2-8.5c4.5,0,11.3,0.3,16.7,2
		l-0.4-15.9c-2.4-0.8-7.5-2-16.5-2c-12.5,0-28.1,2.3-46.4,6.9c-35.2,8.9-51.2,10.2-58.3,10L92.1,171.2z"/>
	<g>
		<path fill="#5A81B8" d="M247.1,145.5c-0.4-1-1.2-1.7-2.2-2c-0.2-0.1-4.5-1.5-10.6-1.5c-3.7,0-8.9,0.6-14.4,2.9l-0.2-6.5
			c9.4-5.3,19-14.7,19.1-29.3c0-1-0.4-1.9-1.1-2.5c-0.7-0.7-1.6-1-2.6-1c-0.3,0-25.2,1.5-30.2,25.6c-2.5-0.3-5.3-0.4-8.6-0.4
			c-3,0-6.4,0.1-9.4,0.4V87.6c0-0.9-0.5-1.9-1.1-2.5l-9.7-9.2c-0.8-0.8-1.9-0.8-3-0.8h-24.5c-0.4,0-0.8,0-1.2,0.1l-35.3,13.3
			c-1.4,0.5-2.2,1.8-2.2,3.2v32.3c0,1.1,0.4,2.1,1.3,2.8c0.1,0,0.1,0.1,0.2,0.1l6,7.5c-6.9,0.8-15.1,2.3-21.7,4.5
			c-0.7-31.4-30.7-33.2-31-33.2c-1,0-1.9,0.3-2.6,0.9c-0.7,0.7-1.1,1.5-1.1,2.5c0.1,19,16.5,29.3,27.3,32.9
			c-2.2,1.3-3.9,2.7-4.8,4.3c-0.1,0.1-0.1,0.3-0.2,0.4c-6.7-3.8-13.3-4.6-17.8-4.6c-6.1,0-10.4,1.4-10.6,1.5c-1,0.3-1.8,1.1-2.2,2
			c-0.4,1-0.3,2,0.1,2.9c7.6,14.5,22.1,18.7,32,19.8l0.1,3.9c-5,0.3-8.4,1.4-8.6,1.5c-1,0.3-1.8,1.1-2.1,2c-0.4,1-0.2,2,0.3,2.9
			c6.6,12.1,18.3,16.9,27.3,18.7v15c0,1,0.3,1.9,1,2.5c0.1,0.1,0.1,0.2,0.2,0.3l7.7,9.5c0.7,0.8,1.6,1.4,2.7,1.4h92.8
			c1.9,0,3.7-1.8,3.7-3.7v-28.5c6-3,11.5-7.6,15.5-14.9c0.5-0.9,0.5-2.2,0.1-3.2c-0.4-1-1.2-1.7-2.1-2c-0.2-0.1-4.7-1.5-11-1.5
			c-6.9,0-15.8,1.8-23.7,8.8H187v-7.1c11-2,18.2-3.7,23-5.3c9.1-0.2,27.9-2.9,37-20.1C247.5,147.5,247.5,146.4,247.1,145.5z
			 M68.5,113.2c6.3,1.5,17.8,6.2,19.9,21.3C81.9,131.9,70.6,125.6,68.5,113.2z M231.5,113.2c-1.8,10.5-10.2,16.6-16.7,19.9
			c-0.8-0.3-1.7-0.5-2.9-0.8C215,118.9,225.6,114.6,231.5,113.2z M196.4,137.7c9,0,14.1,1.2,16.5,2l0.4,15.9c-5.4-1.7-12.2-2-16.7-2
			c-14.1,0-31.5,3-49.2,8.5c-25.4,7.9-44,9-52.9,9c-0.9,0-1.7,0-2.4,0l-0.4-16.5c7.1,0.2,23.1-1.1,58.3-10
			C168.2,140.1,183.8,137.7,196.4,137.7z M107.1,177.7c6.2-0.6,13.9-1.8,22.9-3.7v7h-18.8C109.9,180,108.5,178.6,107.1,177.7z
			 M130,127.1l-7.5,2.1l-2.8-3.5l10.3-3V127.1z M180,131.8c-1,0.1-2,0.2-3,0.4V86.1l3,2.9V131.8z M117,94l32.4-12H170v51.3
			c-7,1.2-13.9,2.7-21.5,4.6c-4.1,1-7.5,2-11.5,2.8v-22.6c0-1.1-0.6-2.1-1.5-2.8s-2-0.9-3-0.6l-15.5,4.5V94z M128,140.5v1.9
			c-2,0.6-4.9,1.2-7,1.7c-15.3,3-23.6,3.6-27.6,3.6c-0.4,0-0.6,0-0.9,0C98.7,144.4,115,140.7,128,140.5z M61.9,149.2
			c1.1-0.1,2.4-0.2,3.8-0.2c5.6,0,12.7,1.5,19.1,7l0.1,5.1C77.3,160.2,68,157.3,61.9,149.2z M102,184.3v5.9
			c-6-1.4-13.5-4.5-18.5-10.9c1.2-0.2,2.6-0.3,4.1-0.3c4.3,0,9.6,0.9,14.7,3.8C102,183.3,102,183.8,102,184.3z M203,219h-87.8
			l-2.5-3h85.6c1.9,0,3.7-1.8,3.7-3.7v-18.9l1,1.3V219z M212.5,179.1c1.5,0,2.9,0.1,4.1,0.3c-3,3.8-6.6,6.4-10.5,8.2l-4.5-5.6
			c-0.2-0.2-0.4-0.4-0.6-0.6C205.1,179.6,209.1,179.1,212.5,179.1z M195,188v21h-86v-21h24.3c1.9,0,3.7-1.8,3.7-3.7v-11.9
			c4-1,8.2-2.2,12.6-3.5c6.9-2.1,13.4-3.9,20.4-5.2v20.6c0,1.9,1.4,3.7,3.3,3.7H195z M177,181v-18.6c1-0.2,2-0.3,3-0.4V181H177z
			 M188,166.6v-5.4c2-0.1,3.4-0.3,5.8-0.3c4.4,0,9,0.4,13.5,1.1C202.4,163.5,195,165.2,188,166.6z M220.4,160.2l-0.2-7.6
			c4.9-2.7,10-3.6,14.2-3.6c1.4,0,2.7,0.1,3.8,0.2C233.4,155.5,226.7,158.7,220.4,160.2z"/>
		<path fill="#5A81B8" d="M196.4,119.2c0.5,0.2,0.9,0.3,1.4,0.3c0.5,0,1.1-0.1,1.6-0.4c9.5-4.7,25.9-19.1,20-39.4
			c-0.5-1.8-2.4-2.9-4.3-2.4c-0.5,0.1-12.5,3.5-18.8,14.4c-4,7.1-4.7,15.6-1.9,25.3C194.8,117.9,195.5,118.8,196.4,119.2z
			 M202.5,95.2c2.9-5.2,7.8-8.2,11-9.8c1.6,12.6-7.7,21.2-13.3,25.1C199.3,104.6,200,99.5,202.5,95.2z"/>
		<path fill="#5A81B8" d="M100.6,119.1c0.5,0.2,1,0.4,1.6,0.4c0.5,0,1-0.1,1.4-0.3c1-0.4,1.7-1.2,2-2.2c2.7-9.7,2.1-18.2-1.9-25.3
			c-6.2-11-18.2-14.3-18.8-14.4c-1.8-0.5-3.7,0.6-4.3,2.4C74.7,100,91.1,114.4,100.6,119.1z M86.5,85.4c3.3,1.5,8,4.5,11,9.8
			c2.4,4.3,3.2,9.4,2.3,15.3C94.2,106.5,84.9,98,86.5,85.4z"/>
	</g>
</g>
</svg>
