<?xml version="1.0" encoding="utf-8"?>
<!-- Generator: Adobe Illustrator 18.1.1, SVG Export Plug-In . SVG Version: 6.00 Build 0)  -->
<svg version="1.1" id="Layer_1" xmlns="http://www.w3.org/2000/svg" xmlns:xlink="http://www.w3.org/1999/xlink" x="0px" y="0px"
	 viewBox="0 0 300 300" enable-background="new 0 0 300 300" xml:space="preserve">
<g>
	<path fill="none" d="M184.6,120.3c-3.7,0-6.6,2.2-8.7,6.3c3.4-1,6.7-1.9,9.9-2.7c-0.3-1.3-0.7-2.5-1.1-3.6
		C184.7,120.3,184.7,120.3,184.6,120.3z"/>
	<path fill="none" d="M176.1,180.6c6.3,0,10.3-7.7,11-20.8c-4.6,0.9-9.5,2.1-14.6,3.5c0,7.1,0.9,12.9,2.4,17.2
		C175.3,180.6,175.7,180.6,176.1,180.6z"/>
	<path fill="#FFFFFF" d="M243,181.1c-1.2-0.2-2.6-0.3-4.1-0.3c-3.9,0-8.6,0.7-13.2,3c-0.5,2.9-1.1,5.6-1.8,8.2
		C230.5,190.8,237.8,187.7,243,181.1z"/>
	<path fill="#FFFFFF" d="M264.6,151c-1.1-0.1-2.4-0.2-3.8-0.2c-3.8,0-8.4,0.7-12.9,2.9l0.3,7.9C254,160,260.1,156.9,264.6,151z"/>
	<path fill="#FFFFFF" d="M257.9,115c-4.6,1.1-12,3.9-16.4,11.3c2.3,2,3.7,4.1,4.5,5.9C251.3,128.6,256.6,123.1,257.9,115z"/>
	<path fill="#FFFFFF" d="M239.9,87.2c-3.3,1.6-8.1,4.6-11,9.8c-2.4,4.3-3.2,9.4-2.3,15.3C232.2,108.3,241.5,99.8,239.9,87.2z"/>
	<path fill="#FFFFFF" d="M68.2,179.7c-2.5-0.6-4.9-0.8-7.1-0.8c-1.5,0-2.9,0.1-4.1,0.3c2.8,3.6,6.3,5.8,9.9,7.6
		c0-1.9,1.6-3.7,3.5-3.7h6.7c-5.8-1-8.3-3-8.7-3.4C68.3,179.6,68.2,179.8,68.2,179.7z"/>
	<path fill="#FFFFFF" d="M39.2,148.8c-1.4,0-2.7,0.1-3.8,0.2c7.6,9.9,19.8,12.1,27.9,12.3C55.9,151.1,46.4,148.8,39.2,148.8z"/>
	<path fill="#FFFFFF" d="M62,134.4c-2.2-15.2-13.7-19.9-19.9-21.3C44.2,125.4,55.4,131.7,62,134.4z"/>
	<path fill="#FFFFFF" d="M60.1,85.2c-1.5,11.8,6.5,20,12.1,24.2l0.7-10.2c-0.4-1.5-1-2.9-1.8-4.3C68.1,89.7,63.4,86.7,60.1,85.2z"/>
	<path fill="#CDCCCC" d="M130,86.7v55.7c1-0.3,2-0.7,3-1V89.8L130,86.7z"/>
	<path fill="#CDCCCC" d="M133,183v-6.2c-1,0.3-2,0.6-3,1v5.3H133z"/>
	<polygon fill="#CDCCCC" points="92,127.3 92,123.5 81.4,126.4 83,129.8 	"/>
	<path fill="#CDCCCC" d="M152.4,216H77.5l2.5,3h78v-3.2c-1-0.7-1.4-1.7-2.1-2.5C155.6,215,154.1,216,152.4,216z"/>
	<path fill="#FFFFFF" d="M138.8,190h-12.4c-1.9,0-3.4-1-3.4-2.9v-7.3c-9,2.4-17,3.9-24,4.7v2.7c0,1.9-1.7,2.9-3.6,2.9H74v19h75v-1.7
		c-1-1-1.9-2.4-2.8-3.5C143.3,199.9,140.8,195,138.8,190z"/>
	<path fill="#FFFFFF" d="M123,82h-12.9L80.2,94.4l-1.7,25.4l16-4.3c1.1-0.3,2.2,0,3.1,0.6c0.9,0.7,1.4,1.7,1.4,2.8v31.9
		c6-1.2,14-3.1,24-6.2V82z"/>
	<path fill="#CDCCCC" d="M206.7,203.6c-7,9.7-16.6,15.1-27.8,15.8c1.9,0.3,3.7,0.5,5.8,0.5c22.2,0,35.3-21.2,35.3-56.7v-5.6
		c0-0.1-0.8-0.1-1.3-0.2C218.4,177.2,214.5,192.7,206.7,203.6z"/>
	<path fill="#CDCCCC" d="M180.2,114c-1.2-0.7-2.4-1.1-3.8-1.1c-5.8,0-9.7,6.2-10.9,16.9c0.7-0.2,1.4-0.4,2-0.7
		C170.4,119,175.9,115.3,180.2,114z"/>
	<path fill="#FFFFFF" d="M176.6,211.4c21.1,0,33.8-20.3,34.3-54.4c-4.8,0-10,0.5-15.6,1.3c-0.9,28-14.8,30.2-19.1,30.2
		c-4.8,0-15-2.3-18.1-20.8c-4.1,1.4-8.3,2.9-12.7,4.5c-0.9,0.3-1.8,0.7-2.6,1C146.5,197.5,158.6,211.4,176.6,211.4z"/>
	<path fill="#FFFFFF" d="M176.2,81.1c-22.3,0-35.2,20.4-35.2,56v1.2c2-0.7,4.2-1.5,6.3-2.3c3.3-1.3,6.6-2.4,9.8-3.5
		c1.5-25.6,14.9-27.7,19.2-27.7c3.5,0,13.4,1.5,17.3,17.3c5.8-1.2,11-2,15.9-2.4C205.9,95.3,194,81.1,176.2,81.1z"/>
	<path fill="#CDCCCC" d="M76,150.8c1.2,0.6,3,1.2,5.6,1.5c0.7,0,1.5,0.1,2.4,0.1c1.9,0,4-0.1,7-0.4v-4.9
		C83,148.2,78.5,149.7,76,150.8z"/>
	<path fill="#CDCCCC" d="M235.6,163c-3.4-1-5.7-1.6-7.3-1.9c-0.1,2.6-0.2,4.7-0.4,6.3c6.3-1.2,9.9-2.2,11.9-2.9
		c-0.1-0.1-0.2-0.1-0.3-0.2C238.5,164,237.3,163.5,235.6,163z"/>
	<path fill="#FFFFFF" d="M89.8,177.9c14,0,31.9-4.1,53-12c27.8-10.5,51-15.8,68.9-15.8c14.7,0,23.5,3.5,29.2,6.9l-0.7-19.9
		c0-0.3-1.1-10.5-23.2-10.5c-16.1,0-38.7,5.4-67.1,16.2c-29.4,11.1-51.6,16.8-66,16.8c-4.5,0-7.9-0.6-10.3-1.4l0.5,17.3
		C76.1,176.2,81,177.9,89.8,177.9z"/>
	<g>
		<path fill="#5A81B8" d="M249.9,175.5c-0.2-0.1-4.7-1.6-11-1.6c-3.7,0-7.8,0.5-12.1,2c-0.3,2.8-0.6,5.5-1.1,8c4.6-2.3,9.3-3,13.2-3
			c1.5,0,2.9,0.1,4.1,0.3c-5.2,6.6-12.5,9.7-19.1,11c-0.8,2.8-1.7,5.4-2.7,7.9c9.6-1.3,23.2-5.8,30.6-19.4c0.5-0.9,0.6-2.2,0.2-3.2
			C251.6,176.5,250.9,175.8,249.9,175.5z"/>
		<path fill="#5A81B8" d="M273.5,147.3c-0.4-1-1.2-1.7-2.2-2c-0.2-0.1-4.5-1.5-10.6-1.5c-3.5,0-8.2,0.5-13.2,2.4l-0.2-6.7
			c9-5.4,17.9-14.7,17.9-28.6c0-1-0.4-1.9-1.1-2.5c-0.7-0.7-1.6-1-2.6-1c-0.2,0-17.5,1.1-26.2,15.2c-2.3-1-5.1-1.8-8.4-2.4
			c9.6-5.3,24.4-19.3,18.8-38.8c-0.5-1.8-2.4-2.9-4.3-2.4c-0.5,0.1-12.5,3.5-18.8,14.4c-1.9,3.3-3,6.9-3.4,10.9
			c-3.4-6.8-7.8-12.2-13.1-16c5.7,7.7,5.7,7.7,0,0c-7.2-9.8-17.4-15.2-30-15.2c-12.6,0-23.1,5.3-30.6,15.4c-2.2,2.9-3.8,6.2-5.8,9.8
			v-10c0-0.9-0.4-1.8-1-2.4l-9-9.3c-0.9-0.9-2.1-1.5-3.2-1.3c-0.1,0-0.2-0.3-0.3-0.3h-17c-0.5,0-0.9,0.4-1.3,0.5L75.6,88.9
			c-6.5-9-16.7-11.8-17.2-11.9c-1.8-0.5-3.7,0.6-4.3,2.5c-5.4,18.6,7.9,32.2,17.5,38l-0.5,6.9c-0.1,1.1,0.4,2.2,1.3,3
			c0.6,0.5,1.2,0.7,1.9,0.8l3.6,7.4c0.7,1.5,2.5,2.3,4.2,1.9l9.9-2.8v5.4c-16,1.9-22,5.7-23.9,7.8c-1,0.6-1.7,1.8-1.7,3.1l0.1,3.3
			c-9.2-10.5-20.6-12.3-27.3-12.3c-6.1,0-10.4,1.4-10.6,1.5c-1,0.3-1.8,1.1-2.2,2c-0.4,1-0.3,2,0.1,2.9c9.5,18.2,30,20.1,38.4,20.1
			c0.7,0,1.3,0,1.8,0l0.1,4c-2.1-0.3-4.1-0.4-5.9-0.4c-6.3,0-10.8,1.5-11,1.6c-1,0.3-1.8,1.1-2.1,2c-0.4,1-0.2,2,0.2,2.9
			C52.9,187,60,191.8,67,194.6v18.5c0,0.5,0.1,1,0.3,1.5c0.1,0.5,0.3,1,0.7,1.4l7.7,9.1c0.7,0.8,1.6,1,2.7,1h83c1.9,0,3.6-1,3.6-2.9
			v-1.7c6,3.6,12.5,5.5,19.9,5.5c12.3,0,22.7-5.4,30.1-15.6c2.4-3.3,4.5-7.1,6.2-11.2c1-2.5,1.9-5.1,2.7-7.9
			c0.7-2.6,1.3-5.4,1.8-8.2c0.4-2.6,0.8-5.3,1.1-8c0-0.4,0.1-0.7,0.1-1.1c10.2-1.8,16.1-3.4,19.2-5.5c9.3-1.9,20.8-6.7,27.3-19.1
			C273.8,149.3,273.9,148.2,273.5,147.3z M35.4,149c1.1-0.1,2.4-0.2,3.8-0.2c7.1,0,16.7,2.3,24.1,12.5C55.3,161.1,43,158.9,35.4,149
			z M257.9,115c-1.4,8.1-6.6,13.5-11.9,17.1c-0.8-1.8-2.2-3.9-4.5-5.9C246,118.9,253.4,116.1,257.9,115z M228.9,97
			c2.9-5.2,7.8-8.2,11-9.8c1.6,12.6-7.7,21.2-13.3,25.1C225.7,106.4,226.5,101.3,228.9,97z M240.3,137l0.7,19.9
			c-5.7-3.4-14.5-6.9-29.2-6.9c-18,0-41.1,5.3-68.9,15.8c-21.1,8-39,12-53,12c-8.8,0-13.7-1.7-15.7-2.6L73.6,158
			c2.5,0.8,5.8,1.4,10.3,1.4c14.4,0,36.6-5.6,66-16.8c28.4-10.7,51-16.2,67.1-16.2C239.1,126.5,240.2,136.6,240.3,137z M176.6,211.4
			c-18,0-30.1-13.9-33.9-38c0.9-0.3,1.8-0.6,2.6-1c4.4-1.7,8.6-3.2,12.7-4.5c3.1,18.5,13.3,20.8,18.1,20.8c4.3,0,18.2-2.2,19.1-30.2
			c5.6-0.8,10.8-1.3,15.6-1.3C210.4,191.1,197.7,211.4,176.6,211.4z M178.5,219.3c-0.6,0-1.2,0.1-1.9,0.1
			C177.3,219.4,177.9,219.4,178.5,219.3z M95.4,190c1.9,0,3.6-1,3.6-2.9v-2.7c7-0.7,15-2.3,24-4.7v7.3c0,1.9,1.5,2.9,3.4,2.9h12.4
			c1.9,5,4.4,9.9,7.4,13.8c0.9,1.1,1.8,2.5,2.8,3.5v1.7H74v-19H95.4z M133,183h-3v-5.3c1-0.3,2-0.6,3-1V183z M172.5,163.4
			c5.1-1.4,10-2.6,14.6-3.5c-0.7,13.1-4.7,20.8-11,20.8c-0.4,0-0.8,0-1.1-0.1C173.4,176.2,172.5,170.4,172.5,163.4z M184.8,120.3
			c0.4,1.1,0.8,2.3,1.1,3.6c-3.2,0.8-6.5,1.7-9.9,2.7c2.1-4,5-6.3,8.7-6.3C184.7,120.3,184.7,120.3,184.8,120.3z M167.5,129.1
			c-0.7,0.2-1.3,0.4-2,0.7c1.2-10.7,5.1-16.9,10.9-16.9c1.4,0,2.7,0.4,3.8,1.1C175.9,115.3,170.4,119,167.5,129.1z M141,137.1
			c0-35.6,12.9-56,35.2-56c17.8,0,29.7,14.2,33.4,38.7c2.6-0.2,5.1-0.3,7.4-0.3c0,0-4.8,0.1-7.4,0.3c-4.9,0.4-10.2,1.2-16,2.3
			c-3.9-15.8-13.8-17.3-17.3-17.3c-4.3,0-17.7,2.1-19.2,27.7c-3.2,1.1-6.4,2.3-9.7,3.5c-2.1,0.8-4.2,1.6-6.1,2.3
			c-0.9,0.3-1.6,0.6-2.5,0.9c0.8-0.3,2.1-0.6,2.1-0.9V137.1z M133,89.8v47.4v4.1c1-0.4,2.6-0.8,3.8-1.2c-1.2,0.4-2.3,0.8-3.4,1.2
			c-0.1,0-0.2,0.1-0.4,0.1c-1,0.3-2,0.7-3,1V86.7L133,89.8z M80.2,94.4L110.1,82H123v62.6c-10,3-18,5-24,6.2v-31.9
			c0-1.1-0.6-2.1-1.4-2.8c-0.9-0.7-2-0.9-3.1-0.6l-16,4.3L80.2,94.4z M72.2,109.4c-5.6-4.2-13.6-12.4-12.1-24.2
			c3.3,1.5,8,4.5,11,9.8c0.8,1.3,1.3,2.8,1.8,4.3L72.2,109.4z M83,129.8l-1.6-3.4l10.6-2.9v3.8L83,129.8z M91,147.1v4.9
			c-3,0.3-5.1,0.4-7,0.4c-0.8,0-1.6,0-2.4-0.1c-2.6-0.3-4.4-0.9-5.6-1.5C78.5,149.7,83,148.2,91,147.1z M66.9,186.7
			c-3.6-1.8-7.1-4.2-9.9-7.8c1.2-0.2,2.6-0.2,4.1-0.2c2.2,0,4.6,0.3,7.1,0.8c0.1,0.1,0.2-0.1,0.2,0c0.4,0.3,2.9,2.4,8.7,3.4h-6.7
			C68.5,183,66.9,184.8,66.9,186.7z M80,219l-2.5-3h74.9c1.7,0,3.2-1,3.4-2.7c0.7,0.8,1.4,1.6,2.1,2.3c0,0,0.1,0.1,0.1,0.2v3.2H80z
			 M155.1,212.6c0,0,0-0.1,0-0.1c6.2,4.3,13.6,6.6,21.5,6.6c0,0,0,0,0,0C168.6,219,161.4,216.9,155.1,212.6z M220,163.1
			c0,35.5-13.1,56.7-35.3,56.7c-2.1,0-4-0.2-5.9-0.5c0,0,0,0,0.1,0c11.3-0.6,20.8-6.1,27.8-15.8c7.8-10.8,11.9-26.4,12.2-46.2
			c0.5,0,1,0.1,1.5,0.2c0.3,0,0.7,0.1,1,0.1c0,9.2-0.9,13.2-1,13.2c0-0.1,0.8-4.1,0.8-13.2c-0.3,0-0.2-0.1-1.2-0.1V163.1z
			 M227.9,167.5c0.2-1.7,0.3-3.8,0.4-6.3c1.6,0.3,3.9,0.9,7.3,1.9c1.7,0.5,3,0.9,3.9,1.3c0.1,0.1,0.2,0.1,0.3,0.2
			C237.8,165.3,234.2,166.3,227.9,167.5z M248.1,161.6l-0.3-7.9c4.5-2.2,9.1-2.9,12.9-2.9c1.4,0,2.7,0.1,3.8,0.2
			C260.1,156.9,254,160,248.1,161.6z"/>
		<path fill="#5A81B8" d="M65,142.3c0.3,0.1,0.6-0.3,0.8-0.3c0,0,0,0,0,0c1.9,0,3.5-1.1,3.5-3.1c0-0.1,0,0,0-0.1
			c-0.5-31.7-30.7-33.5-31-33.5c-1,0-1.9,0.3-2.6,1c-0.7,0.7-1.1,1.4-1.1,2.4C34.8,129.5,54.6,139.7,65,142.3z M62,134.4
			c-6.6-2.7-17.8-8.9-19.9-21.3C48.3,114.5,59.8,119.2,62,134.4z"/>
		<path fill="#5A81B8" d="M133,141.2v0.1C133,141.3,133,141.3,133,141.2z"/>
	</g>
</g>
</svg>
