<?xml version="1.0" encoding="utf-8"?>
<!-- Generator: Adobe Illustrator 18.1.1, SVG Export Plug-In . SVG Version: 6.00 Build 0)  -->
<svg version="1.1" id="Layer_1" xmlns="http://www.w3.org/2000/svg" xmlns:xlink="http://www.w3.org/1999/xlink" x="0px" y="0px"
	 viewBox="0 0 300 300" enable-background="new 0 0 300 300" xml:space="preserve">
<g>
	<path fill="none" d="M167.9,172.7c1.5-0.1,3,0.7,3.7,2c2.3,4.1,6.4,4.4,7.6,4.4c1.4,0,8.1-0.4,8.9-8.1c-0.5,0-0.9,0-1.4,0l-1.2,0
		l-37.8,1c-0.8,0-1.7-0.3-2.4-0.8c-0.8,0.3-1.4,0.6-2.4,0.9v1.8L167.9,172.7z"/>
	<path fill="#FFFFFF" d="M238,179.9c-1.2-0.2-2.6-0.3-4.1-0.3c-2,0-4.2,0.2-6.5,0.7c0,2.8-0.2,5.5-0.6,8.1
		C230.9,186.6,234.8,183.9,238,179.9z"/>
	<path fill="#FFFFFF" d="M245.4,159.7c5.1-1.8,10.2-4.8,14.1-9.9c-1.1-0.1-2.4-0.2-3.8-0.2c-3.4,0-7.3,0.5-11.3,2.2l0.2,5.9
		C245.1,158.3,245.3,159,245.4,159.7z"/>
	<path fill="#FFFFFF" d="M252.9,113.8c-4.7,1.1-12.4,4.1-16.9,12c2.7,1.5,4.5,3.2,5.6,4.7C246.8,126.9,251.6,121.5,252.9,113.8z"/>
	<path fill="#FFFFFF" d="M234.7,86c-3.3,1.6-8.2,4.6-11.1,9.8c-0.6,1-0.6,2.1-1.6,3.3v11.4C228,106.3,236.2,98,234.7,86z"/>
	<path fill="#FFFFFF" d="M70.8,178c-1.6-0.2-3.2-0.4-4.6-0.4c-1.5,0-2.9,0.1-4.1,0.3c2.4,3.1,5.3,5.2,8.4,6.9
		c0.4-1.5,1.7-2.8,3.4-2.8h5.8c-5.5-1-7.9-3.2-8.3-3.5C71.1,178.3,70.9,178.2,70.8,178z"/>
	<path fill="#FFFFFF" d="M68.3,160.1c-7.4-10.2-17-12.5-24.1-12.5c-1.4,0-2.7,0.1-3.8,0.2C48,157.7,60.3,159.9,68.3,160.1z"/>
	<path fill="#FFFFFF" d="M67,133.1c-2.2-15.2-13.7-19.9-19.9-21.3C49.2,124.1,60.5,130.4,67,133.1z"/>
	<path fill="#FFFFFF" d="M65,84c-1.3,9.8,4,17.1,9,21.8V91.2c0-0.1,0.1-0.1,0.1-0.2C71.2,87.5,67.6,85.2,65,84z"/>
	<path fill="#CDCCCC" d="M83,218h76c-1.3-1-2.5-2-3.6-3H80.6L83,218z"/>
	<path fill="#CDCCCC" d="M136,182v-7.4c-1,0.4-2,0.7-3,1v6.3H136z"/>
	<polygon fill="#CDCCCC" points="96,125.7 96,122.2 82.7,125.8 84,128.7 	"/>
	<path fill="#CDCCCC" d="M133,84.8v54.6c1-0.3,2-0.6,3-0.9V88.4L133,84.8z"/>
	<path fill="#FFFFFF" d="M126,81h-12.1L81,93.6V119l17.7-4.6c1-0.3,2.1,0,3,0.6c0.9,0.7,1.3,1.7,1.3,2.8v29.4c6-1.2,14-3.1,23-5.7
		V81z"/>
	<path fill="#FFFFFF" d="M139.4,189h-9.6c-1.9,0-3.7-1.2-3.7-3.1v-8c-8,2.5-16,4.2-23,5.1v2.9c0,1.9-1.3,3.1-3.3,3.1H77v19h72.8
		c-0.9-1-1.7-2.9-2.4-4.5C143.9,199.6,141.2,195,139.4,189z"/>
	<path fill="#CDCCCC" d="M187.4,164c-0.2-0.5-0.5-0.8-0.8-1.1c-1.1-1.1-2.9-1.3-5.6-1.3l-1.2,0l-6.6,0.2c-3,0.9-6.1,1.8-9.3,2.8
		l22.8-0.6C187,164,187.2,164,187.4,164z"/>
	<path fill="#CDCCCC" d="M215,112v-2.9c0,0.4-1-0.1-1.8-0.1H170v3.7c1-0.3,1.5-0.7,2.2-0.7H215z"/>
	<path fill="#CDCCCC" d="M179.6,216.3c-4.4,0-8.5-0.4-12.3-1.3c5,2.5,11,3.7,18.1,3.7c14.9,0,32.2-8.8,34.7-33
		C214.2,206.8,196.8,216.3,179.6,216.3z"/>
	<path fill="#FFFFFF" d="M162,105.8c0-2.2,2.2-4.8,4.4-4.8H209V86h-63v49.4c0-0.2,1.2-0.4,1.8-0.6c5.1-1.7,9.7-3.2,14.5-4.5
		c0-0.1-0.3-0.2-0.3-0.3V105.8z"/>
	<path fill="#FFFFFF" d="M196.3,169.6c0,13.9-11.1,17.6-17,17.6c-5.1,0-10-2.4-13.1-6.3l-20.5,1c3.7,17.6,15.1,26.5,33.9,26.5
		c15.9,0,34.6-10.2,34.6-38.8c0-5.2-0.4-9.7-1.2-13.6c-1.1,0-2.1-0.1-3.3-0.1c-5.2,0-11,0.5-17.2,1.6
		C195.1,160.1,196.3,164.1,196.3,169.6z"/>
	<path fill="#CDCCCC" d="M78.7,149.2c1.1,0.2,2.7,0.4,4.8,0.4c2,0,4.4-0.1,7.4-0.5V146C84,146.9,80.8,148.2,78.7,149.2z"/>
	<path fill="#CDCCCC" d="M222.9,157.2c0.6,2.5,1.1,4.6,1.3,6.2c4.2-0.8,7.2-1.5,9.3-2.1C230.9,159.8,227.5,158.2,222.9,157.2z"/>
	<path fill="#FFFFFF" d="M92,176.7c13.4,0,30.6-4.1,51-12.1c26.8-10.5,49.2-15.9,66.5-15.9c14,0,22.5,3.4,28,6.8l-0.6-19.4
		c-0.5-1.2-4-7.9-23.2-7.9c-15.6,0-37.1,4.4-63.9,13.2c-30.7,10-52.9,15.1-66.2,15.1c-3,0-5.3-0.3-7.2-0.7l0.5,18.2
		C79,175.1,83.6,176.7,92,176.7z"/>
	<g>
		<path fill="#5A81B8" d="M268.5,146.1c-0.4-1-1.2-1.7-2.2-2c-0.2-0.1-4.5-1.5-10.6-1.5c-3.1,0-7.1,0.4-11.5,1.8l-0.2-7.1
			c8.4-5.5,16.2-14.5,16.3-27.6c0-1-0.4-1.9-1.1-2.5c-0.7-0.7-1.6-1-2.6-1c-0.2,0-18.9,1.1-27.2,17c-4-1.1-9.1-1.8-15.6-1.8
			c-9.7,0-21.4,1.4-35,4.6c-0.4,0.1-0.8,0.1-1.3,0.1h-1.9H175v-7h42.1c0.2,0,0.5,0.5,0.8,0.6c0.5,0.2,0.9,0.4,1.4,0.4
			c0.5,0,1.1-0.1,1.6-0.3c9.5-4.7,25.9-19.1,20-39.4c-0.5-1.8-2.4-2.9-4.3-2.4c-0.4,0.1-9.5,2.6-15.9,10.3l1.2,2.2l-1.4-2.2
			l-3.5-5.9v0c0,0,0.1-0.2,0.1-0.3c-0.1-2.1-1.7-4-3.9-4h-71.2c-1.5,0-2.6,0.9-3.3,2.1c-0.4,0.6-0.4,0.6,0,0l-3.9-4.6
			c-0.6-0.7-1.5-1.1-2.4-1.2c-0.5,0-19.1,0-19.1,0c-0.4,0-0.8,0.1-1.2,0.2L79.8,86.7C73.3,78.6,63.9,76,63.4,75.8
			c-1.8-0.5-3.9,0.6-4.4,2.4c-4.9,17.1,6,30,15,36.5v8.8c0,0.7,0.4,1.4,0.8,2l4.2,8.8c0.7,1.5,2.3,2.3,3.9,1.9L96,133v5.9
			c0-0.3-1.1-0.4-1.8-0.3c-15.7,1.7-21.3,5.4-23.3,8c-1,0.6-1.6,1.8-1.6,3l0,1.1c-8.8-8.6-19-10.1-25.2-10.1
			c-6.1,0-10.4,1.4-10.6,1.5c-1,0.3-1.8,1.1-2.1,2c-0.4,1-0.3,2,0.1,2.9c9.5,18.1,29.8,20.1,38.2,20.1l0.1,3.7
			c-1.3-0.1-2.6-0.2-3.9-0.2c-6.3,0-10.8,1.5-11,1.6c-1,0.3-1.8,1.1-2.1,2c-0.4,1-0.4,2,0.1,2.9c4.3,7.9,10.9,12.6,16.9,15.5v19.1
			c0,0.3,0.2,0.6,0.3,0.9c0.1,0.7,0.4,1.4,0.8,1.9l7.5,9.2c0.7,0.8,1.7,1.1,2.8,1.1h82.4c1.6,0,3-0.9,3.4-2.4
			c5.3,2,11.3,3.1,18.2,3.1c16.7,0,33.4-9,39.6-28.8c8-2.5,16.6-7.6,21.9-17.4c0.5-0.9,0.6-2.2,0.2-3.1c-0.4-1-1.2-1.7-2.1-2
			c-0.2-0.1-4.7-1.6-11-1.6c-2.1,0-4.4,0.2-6.7,0.6c-0.1-1.1-0.2-2.2-0.3-3.2c1.6-0.3,3-0.6,4.3-0.9c9-0.2,28-2.8,37.1-20.1
			C268.8,148.1,268.9,147,268.5,146.1z M40.4,147.8c1.1-0.1,2.4-0.2,3.8-0.2c7.1,0,16.7,2.3,24.1,12.5
			C60.3,159.9,48,157.7,40.4,147.8z M252.9,113.8c-1.3,7.7-6.2,13.1-11.2,16.6c-1.2-1.5-2.9-3.2-5.6-4.7
			C240.5,117.9,248.2,114.9,252.9,113.8z M213.9,128.3c19.2,0,22.7,6.7,23.2,7.9l0.6,19.4c-5.5-3.4-14-6.8-28-6.8
			c-17.3,0-39.7,5.3-66.5,15.9c-20.5,8-37.7,12.1-51,12.1c-8.4,0-13-1.7-15-2.7l-0.5-18.2c1.9,0.4,4.2,0.7,7.2,0.7
			c13.3,0,35.5-5.1,66.2-15.1C176.7,132.8,198.2,128.3,213.9,128.3z M214.1,169.5c0,28.7-18.6,38.8-34.6,38.8
			c-18.8,0-30.2-8.9-33.9-26.5l20.5-1c3.1,4,8,6.3,13.1,6.3c5.9,0,17-3.7,17-17.6c0.1-5.5-1.2-9.5-3.8-12.2c6.2-1,12-1.6,17.2-1.6
			c1.1,0,2.2,0,3.3,0.1C213.7,159.8,214.1,164.3,214.1,169.5z M99.7,189c1.9,0,3.3-1.2,3.3-3.1V183c7-0.9,15-2.6,23-5.1v8
			c0,1.9,1.8,3.1,3.7,3.1h9.6c1.9,6,4.5,10.6,8,14.5c0.7,1.6,1.5,3.5,2.4,4.5H77v-19H99.7z M179.9,161.6l1.2,0
			c2.7,0,4.5,0.2,5.6,1.3c0.3,0.3,0.5,0.7,0.8,1.1c-0.2,0-0.4,0-0.6,0l-22.8,0.6c3.2-1,6.3-2,9.3-2.8L179.9,161.6z M147.8,172
			l37.8-1l1.2,0c0.5,0,0.9,0,1.4,0c-0.8,7.7-7.5,8.1-8.9,8.1c-1.2,0-5.3-0.3-7.6-4.4c-0.7-1.3-2.3-2.1-3.8-2l-24.9,1.2v-1.8
			c1-0.3,1.6-0.6,2.4-0.9C146,171.7,146.9,172,147.8,172z M136,182h-3v-6.3c1-0.3,2-0.7,3-1V182z M234.7,86
			c1.5,12.1-6.7,20.4-12.7,24.5V99c1-1.1,1-2.2,1.6-3.3C226.5,90.6,231.4,87.5,234.7,86z M217.2,82.2
			C217.2,82.2,217.2,82.2,217.2,82.2C217.2,82.2,217.2,82.2,217.2,82.2L217.2,82.2z M215.4,108.7c0.2-0.2,0.3-0.2,0.5-0.4
			c-0.3,0.3-1,0.6-1,0.8v2.9h-42.8c-0.6,0-1.2,0.4-2.2,0.7V109h43.2C214,109,214.8,109.2,215.4,108.7z M209,86v15h-42.6
			c-2.2,0-4.4,2.6-4.4,4.8v24.2c0,0.1,0.2,0.2,0.2,0.3c-4.7,1.3-9.6,2.8-14.6,4.5c-0.5,0.2-0.6,0.3-1.6,0.5V86H209z M133,84.8l3,3.6
			v50.1c0-0.1,0.7-0.2,1-0.3c-0.3,0.1-0.6,0.2-0.9,0.3c-1,0.3-2.1,0.6-3.1,0.9V84.8z M81,93.6L113.9,81H126v60.4
			c-9,2.6-17,4.5-23,5.7v-29.4c0-1.1-0.4-2.1-1.2-2.8c-0.9-0.7-2-0.9-3.1-0.6L81,119V93.6z M74,91.2v14.5c-5-4.6-10.3-11.9-9-21.8
			c2.6,1.3,6.2,3.5,9.1,7.1C74.1,91.1,74,91.2,74,91.2z M84,128.7l-1.4-2.9l13.4-3.5v3.5L84,128.7z M91,146v3.1
			c-3,0.4-5.4,0.5-7.4,0.5c-2.2,0-3.8-0.2-5-0.4C80.7,148.2,84,146.9,91,146z M70.4,184.8c-3.1-1.7-5.9-3.9-8.4-7
			c1.2-0.2,2.6-0.2,4.1-0.2c1.5,0,3,0.1,4.6,0.4c0.2,0.2,0.3,0.3,0.6,0.5c0.4,0.3,2.8,2.5,8.3,3.5h-5.8
			C72.1,182,70.7,183.3,70.4,184.8z M83,218l-2.4-3h74.8c1.1,1,2.3,2,3.6,3H83z M185.3,218.8c-7.1,0-13.1-1.2-18.1-3.7
			c3.8,0.8,7.9,1.3,12.3,1.3c17.2,0,34.6-9.6,40.5-30.6C217.5,210,200.2,218.8,185.3,218.8z M227.3,180.4c2.3-0.5,4.5-0.7,6.5-0.7
			c1.5,0,2.9,0.1,4.1,0.3c-3.2,4-7.1,6.7-11.3,8.5C227.1,185.9,227.3,183.2,227.3,180.4z M224.2,163.4c-0.3-1.6-0.7-3.7-1.3-6.2
			c4.6,1.1,8,2.6,10.6,4.1C231.4,161.9,228.4,162.6,224.2,163.4z M245.4,159.7c-0.1-0.7-0.3-1.4-0.7-2l-0.2-5.9
			c4-1.6,7.9-2.2,11.3-2.2c1.4,0,2.7,0.1,3.8,0.2C255.7,154.9,250.6,157.9,245.4,159.7z"/>
		<path fill="#5A81B8" d="M70,141.2c0.3,0.1,0.6-0.2,0.8-0.2c0,0,0,0,0,0c1.9,0,3.5-1.2,3.5-3.2c0-0.1,0,0,0-0.2
			c-0.5-31.7-30.7-33.5-31-33.5c-1,0-1.9,0.3-2.6,1c-0.7,0.7-1.1,1.5-1.1,2.4C39.8,128.4,59.6,138.6,70,141.2z M67,133.1
			c-6.5-2.7-17.8-9-19.9-21.3C53.3,113.2,64.8,117.9,67,133.1z"/>
	</g>
</g>
</svg>
