<?xml version="1.0" encoding="utf-8"?>
<!-- Generator: Adobe Illustrator 18.1.1, SVG Export Plug-In . SVG Version: 6.00 Build 0)  -->
<svg version="1.1" id="Layer_1" xmlns="http://www.w3.org/2000/svg" xmlns:xlink="http://www.w3.org/1999/xlink" x="0px" y="0px"
	 viewBox="0 0 300 300" enable-background="new 0 0 300 300" xml:space="preserve">
<g>
	<path fill="none" d="M130.6,182l12.1,1.2c0-0.3,3.5-16.1-4-12.5c-6.7,2.2-20.6,7.7-26.7,9.1c-0.4,0.7-0.7,1.2-1,2.2H130.6z"/>
	<path fill="none" d="M112.6,125.6c0.1,0,0.2,0,0.3,0c6-0.2,8.5-1.2,8.5-6.7c0-0.5,0-1.1-0.1-1.5c-0.3-0.1-0.6-0.2-0.9-0.2
		C117.4,117.2,114.2,120.1,112.6,125.6z"/>
	<path fill="none" d="M178.1,180.6c0.3,0.1,0.6,0.1,0.9,0.1c6.2,0,10.3-8.6,10.7-22.5c-4.4,0.7-8.7,1.7-13.7,2.8v2.4
		C176,170.5,176.6,176.3,178.1,180.6z"/>
	<path fill="none" d="M179.1,126.1c3.1-0.6,6.2-1.2,9.1-1.7c-0.3-1.4-0.7-2.8-1.2-4C183.8,120.4,181.1,122.4,179.1,126.1z"/>
	<path fill="none" d="M138.6,172.3C138.6,172.4,138.5,172.4,138.6,172.3L138.6,172.3C138.6,172.4,138.6,172.4,138.6,172.3z"/>
	<path fill="#FFFFFF" d="M59.8,188.3c3.8,4.9,9.2,7.8,14.2,9.6v-8.2c-4-1.2-7-1.6-9.9-1.6C62.6,188,61,188.1,59.8,188.3z"/>
	<path fill="#FFFFFF" d="M37.9,158.2c5.5,7.2,13.5,10.3,20.6,11.6l-0.2-6.7c-5.7-3.9-11.7-5-16.6-5C40.3,157.9,39.1,158,37.9,158.2z
		"/>
	<path fill="#FFFFFF" d="M44.6,122.1c2,11.4,11.8,17.7,18.5,20.7c0.4-0.3,0.8-0.5,1.2-0.8C61.6,127.9,50.6,123.5,44.6,122.1z"/>
	<path fill="#FFFFFF" d="M62.6,94.3c-1.5,11.9,6.6,20.1,12.2,24.3c0.1-3.4,0.3-6.5,0.8-9.5c-0.4-1.8-1.1-3.5-2-5
		C70.6,98.9,65.9,95.8,62.6,94.3z"/>
	<path fill="#FFFFFF" d="M240.5,188.3c-1.2-0.2-2.6-0.3-4.1-0.3c-3.2,0-7,0.5-10.8,2c-0.7,3.2-1.6,6.1-2.7,8.9
		C229.1,197.4,235.7,194.3,240.5,188.3z"/>
	<path fill="#FFFFFF" d="M249.4,163.6c-0.4,1.6-1.7,2.4-3.4,2.4c0,0,0,0,0,0c-0.2,0-0.4,0.3-0.6,0.3c-2.4,1-5.8,2.1-10.5,3.1
		c-0.2,0.3-0.5,0.7-0.7,1c8-0.3,20.3-2.4,27.9-12.3c-1.1-0.1-2.4-0.2-3.8-0.2c-2.5,0-5.3,0.3-8.1,1.1c0.3,0.6,0.4,1.1,0.3,1.9
		C250.4,162,250.1,162.7,249.4,163.6z"/>
	<path fill="#FFFFFF" d="M255.4,122.2c-3.3,0.8-8,2.4-12.1,6.1c4,3,4.9,6.2,5.1,7C251.8,131.9,254.5,127.6,255.4,122.2z"/>
	<path fill="#FFFFFF" d="M237.4,94.3c-3.3,1.6-8.1,4.6-11,9.8c-1.4,2.5-2.2,5.3-2.5,8.3c0.6,1.9,1.2,3.9,1.7,5.9
		C231.1,114.1,238.9,105.9,237.4,94.3z"/>
	<path fill="#CDCCCC" d="M148.8,215H83.8l2,3H152v-3.6C151,215.1,150,215,148.8,215z"/>
	<path fill="#CDCCCC" d="M101.4,127c1.3-1,2.5-0.5,3.8-0.7c1.6-8.9,6.6-14.1,11.9-15.7c-0.9-0.3-1.9-0.4-3.1-0.4
		c-3.6,0-7.7,1.1-8.2,10.2c-0.1,2.1-1.9,3.7-4,3.7H85.2l1.9,3H101.4z"/>
	<path fill="#FFFFFF" d="M99.9,190c-2.2,0-4-1.4-4-3.6c0-1.2,0-2.2,0.1-3.4c-4.8,0.6-9,1-13.3,1c-0.4,0-0.7,0.1-0.7,0.1V207h63
		v-11.6c-1-1.5-1.5-3.4-2.1-5.4H99.9z"/>
	<path fill="#FFFFFF" d="M142.6,102.2c-5-15.4-17.1-21.3-28.6-21.3C95.6,80.9,84.2,93,82.9,116h15.3c2.2-13,11.6-13.9,15.8-13.9
		c7.1,0,15.4,4.4,15.4,16.8c0,14.1-12.2,14.5-16.2,14.7c-11.1,0.5-19.2,4.7-24.4,12.8l-1,2.2c10.8-1.6,26.7-5,49.8-11.7
		C137.6,123.3,139.3,111.7,142.6,102.2z"/>
	<path fill="#CDCCCC" d="M182.7,114c-1.1-0.7-2.3-1.1-3.5-1.1c-5.3,0-8.8,5.6-10.2,15.4c0.6-0.1,1.2-0.3,1.8-0.4
		C173.6,118.8,178.6,115.3,182.7,114z"/>
	<path fill="#CDCCCC" d="M208.5,203.6c-6.7,9.7-16,15.2-26.9,15.8c1.8,0.3,4.1,0.5,6.1,0.5c21.3,0,34.4-21.2,34.4-56.7v-6.5
		c-1,0-1.1-0.1-1.4-0.1C220.4,176.8,216.1,192.6,208.5,203.6z"/>
	<path fill="#FFFFFF" d="M179.4,211.5c20.4,0,32.7-20.7,32.9-55.3c-0.3,0-0.7,0-1,0c-4.3,0-8.8,0.3-13.7,0.9
		c-0.4,28.5-13.1,31.7-18.6,31.7c-4.9,0-15.5-2.5-18-23.8c-4.7,1.4-9.6,2.9-14.6,4.7C149.4,196.1,161.2,211.5,179.4,211.5z"/>
	<path fill="#FFFFFF" d="M179.1,81.2c-20.8,0-32.9,19.4-33.5,53.4c5.2-1.5,10.3-2.9,15.1-4.2c1.9-22.8,13.3-25.5,18.4-25.5
		c4.5,0,13.7,2.1,17.1,18.2c5.4-0.7,10.5-1.2,15.1-1.4C208.2,96.1,196.6,81.2,179.1,81.2z"/>
	<path fill="#CDCCCC" d="M79.5,145.6c-8.1,0-11.7,2.1-13.2,3.6c1.3,0.4,3.5,0.7,7,0.7c1.8,0,3.9-0.1,6.4-0.3l1.7-4
		C80.8,145.6,80.1,145.6,79.5,145.6z"/>
	<path fill="#CDCCCC" d="M237.6,161.7c-2.4-1.3-5.4-2.5-9.1-3.6c0,2.2,0,4,0,5.4C232.5,162.9,235.4,162.3,237.6,161.7z"/>
	<path fill="#FFFFFF" d="M65.7,174.3c2.1,1,7.3,2.7,16.7,2.7c14.7,0,33.6-4.1,56.1-12.2c29.3-10.5,53.8-15.8,72.7-15.8
		c15.8,0,25.1,3.6,31,7.1l-0.7-19.6c-0.5-1.2-4.5-7.9-25.7-7.9c-17.2,0-40.8,4.4-70.2,13.2c-33.5,10-57.9,15.1-72.3,15.1
		c-3.4,0-6.1-0.3-8.2-0.8L65.7,174.3z"/>
	<path fill="#5A81B8" d="M271,154.4c-0.4-1-1.2-1.7-2.2-2c-0.2-0.1-4.5-1.5-10.6-1.5c-2.5,0-5.7,0.3-9.2,1.1l-0.3-8.1
		c7.5-5.6,13.9-14.1,14-26c0-1-0.4-1.9-1.1-2.5c-0.7-0.7-1.6-1-2.6-1c-0.2,0-13.2,0.8-22.3,10.2c-1.7-0.6-3.7-1.2-6-1.7
		c8.5-6.9,16.9-18.9,12.5-34.5c-0.5-1.8-2.4-2.9-4.3-2.4c-0.5,0.1-12.5,3.5-18.8,14.4c-0.3,0.5-0.5,1-0.8,1.5
		c-3.1-5.7-6.9-10.3-11.4-13.7c-7-9.9-16.8-15.2-29-15.2c-12.2,0-22.4,5.3-29.6,15.4c-0.8,1.2-1.6,2.4-2.4,3.7c0,0,0,0,0,0
		c-7.5-13.9-21-19.3-33.1-19.3c-14.2,0-29.1,7-35.7,25.3c-6.5-9-16.9-12-17.3-12.1c-1.8-0.5-3.7,0.6-4.3,2.4
		c-5.9,20.4,10.5,34.7,20,39.4c0.5,0.2,1,0.4,1.6,0.4c0.4,0,0.8-0.1,1.1-0.2l0.1,0.1l2.7,4.3c0.6,1.1,1.8,1.4,3,1.4h3.2
		c-1.4,2-2.4,3.2-4.4,4.7v0.1c-1-0.1-3.1-0.2-4.7-0.2c-3.4,0-6.1,0.3-8.5,0.9c-5.2-23.5-29.7-25-30-25c-1,0-1.9,0.3-2.6,1
		c-0.7,0.7-1.1,1.5-1.1,2.5c0.1,15.6,11.1,25.3,21.1,30.3c-0.3,0.5-0.4,1.1-0.4,1.7l0.2,4.8c-6.1-3.1-12.1-3.8-16.3-3.8
		c-6.1,0-10.4,1.4-10.6,1.5c-1,0.3-1.8,1.1-2.2,2c-0.4,1-0.3,2,0.1,2.9c7,13.4,19.9,18,29.6,19.5c0.1,0.9,0.5,1.7,1.3,2.3
		c0.2,0.2,1.3,1,3.4,1.9c0,0,0,0,0,0c-6.1,0.1-10.5,1.5-10.7,1.6c-1,0.3-1.8,1.1-2.2,2c-0.4,1,0,2,0.5,2.9c5.5,10.2,14,15.1,23,17.5
		v6.5c0,1.5,0.5,2.8,1.6,3.5c0.6,0.4,1,0.6,1.8,0.6c-0.7,0-1.5-0.3-2.1-0.6l5.4,8.7c0.6,1.1,1.8,1.2,3,1.2h71.5
		c1.9,0,3.8-0.6,3.8-2.6v-4.7v-1.5v-3.1v0c0,0-0.1,0-0.1,0c10,12.3,22.9,13.8,28.5,13.8c11.9,0,21.9-5.5,29.1-15.7
		c0.9-1.3,1.8-3.3,2.6-4.3c0,0,0,0,0,0c9.6-2,22.9-5.9,30.2-19.3c0.5-0.9,0.6-2.2,0.2-3.1c-0.4-1-1.2-1.7-2.1-2
		c-0.2-0.1-4.7-1.6-11-1.6c-2.8,0-6,0.3-9.3,1.1c0.2-1.6,0.2-3.2,0.4-4.9c0.4,0,2.5,0.2,4.5,0.2v0c9,0,29.1-2,38.6-20.1
		C271.1,156.4,271.4,155.4,271,154.4z M74.8,118.6c0,0.5,0,1.1,0,1.6c0,0,0,0,0,0C74.8,119.7,74.8,119.1,74.8,118.6
		c-5.6-4.2-13.7-12.4-12.2-24.3c3.3,1.5,8,4.5,11,9.8c0.9,1.6,1.6,3.3,2,5c0-0.1,0-0.1,0-0.2c0,0.1,0,0.1,0,0.2
		C75.2,112.1,74.9,115.2,74.8,118.6z M255.4,122.2c-0.9,5.5-3.7,9.8-7,13.1c-0.2-0.8-1.1-4-5.1-7
		C247.4,124.6,252.2,122.9,255.4,122.2z M226.4,104.1c2.9-5.2,7.8-8.2,11-9.8c1.5,11.6-6.3,19.8-11.9,24c-0.5-2.1-1-4-1.7-5.9
		C224.1,109.4,225,106.6,226.4,104.1z M179.1,81.2c17.5,0,29,14.9,32.2,40.6c-4.7,0.2-9.7,0.6-15.1,1.4
		c-3.4-16.1-12.6-18.2-17.1-18.2c-5.1,0-16.5,2.7-18.4,25.5c-4.9,1.3-9.9,2.7-15.1,4.2C146.2,100.6,158.3,81.2,179.1,81.2z
		 M187.1,120.4c0.4,1.2,0.8,2.5,1.2,4c-2.9,0.5-6,1.1-9.1,1.7C181.1,122.4,183.8,120.4,187.1,120.4z M170.8,127.9
		c-0.6,0.1-1.2,0.3-1.8,0.4c1.3-9.8,4.9-15.4,10.2-15.4c1.3,0,2.5,0.4,3.5,1.1C178.6,115.3,173.6,118.8,170.8,127.9z M87.2,127
		l-1.9-3h16.5c2.1,0,3.9-1.5,4-3.7c0.5-9.1,4.7-10.2,8.2-10.2c1.1,0,2.1,0.2,3,0.5c-5,1.5-9.7,6.4-11.5,14.5c0,0,0,0,0,0l0,0.2
		c-0.1,0.4-0.3,0.8-0.4,1.2c0,0-0.1,0-0.1,0v0c0,0,0.1,0,0.1,0c-1.3,0.3-2.5,0.2-3.7,0.6c-0.2,0.1-0.4-0.1-0.6-0.1H87.2z
		 M120.4,117.2c0.3,0,0.6,0.1,0.9,0.2c0,0,0,0,0,0c0,0.5,0.1,1,0.1,1.5c0,5.5-2.5,6.4-8.5,6.7c-0.1,0-0.2,0-0.3,0c0,0,0,0-0.1,0
		c0,0,0,0,0,0c0,0,0,0,0.1,0c0.3-1.2,0.8-2.3,1.3-3.2C115.6,119,118.1,117.2,120.4,117.2z M88.7,146.4c5.3-8.1,13.4-12.4,24.4-12.8
		c4-0.1,16.2-0.6,16.2-14.7c0-12.3-8.3-16.8-15.4-16.8c-4.2,0-13.5,0.9-15.8,13.9H82.9c1.3-23,12.7-35.1,31.1-35.1
		c11.5,0,23.6,5.9,28.6,21.2c-3.3,9.5-5,21.1-5,34.7c-23.1,6.7-39,10.2-49.8,11.8L88.7,146.4z M79.5,145.6c0.6,0,1.2,0,1.9,0l-1.7,4
		c-2.5,0.2-4.6,0.3-6.4,0.3c-3.5,0-5.7-0.3-7-0.7C67.8,147.8,71.4,145.6,79.5,145.6z M37.9,158.2c1.1-0.1,2.4-0.2,3.8-0.2
		c4.9,0,10.9,1.1,16.6,5l0.2,6.7C51.5,168.5,43.5,165.4,37.9,158.2z M63,142.8c-6.6-3-16.5-9.3-18.5-20.7c6,1.4,17,5.8,19.7,19.9
		C63.8,142.3,63.4,142.6,63,142.8z M74,197.8c-5-1.8-10.3-4.7-14.2-9.6c1.2-0.2,2.8-0.3,4.3-0.3c2.9,0,5.9,0.4,9.9,1.6V197.8z
		 M82,207v-22.9c0,0,0.3,0,0.5,0c4.2,0,8.7-0.3,13.5-0.9c-0.1,1.2-0.2,2-0.2,3.2c0,2.2,1.8,3.6,4,3.6h36.7h6.3c0,0,0.1,0.4,0.1,0.4
		c0.6,1.6,2,5.3,2,5.1V207H82z M110.9,182c0.3-1,0.7-1.4,1-2.1c0,0,0,0.2,0,0.2c6-1.4,12.4-3.1,19.1-5.3c2.4-0.8,4.9-1.6,7.5-2.5
		c0,0,0,0,0.1,0c0,0,0,0,0,0c0.3,2.4,0.7,4.4,1.1,6.7c0.2,1.1,0.5,2,0.7,3h-2.9h-7H110.9z M140.5,182.9c0,0.1,0.1,0.2,0.1,0.3h0
		C140.6,183,140.5,183,140.5,182.9z M152,218H85.7l-2-3h65.1c1.1,0,2.2-0.2,2.9-0.9l0.2,0.4V218z M146.3,169.6
		c5-1.7,9.9-3.3,14.6-4.7c2.4,21.2,13.1,23.8,18,23.8c5.5,0,18.1-3.1,18.6-31.7c4.9-0.6,9.4-0.9,13.7-0.9c0.4,0,0.7,0,1,0
		c-0.2,34.7-12.5,55.3-32.9,55.3C161.2,211.5,149.4,196.1,146.3,169.6z M176,163.4V161c5-1.1,9.2-2.1,13.6-2.8
		c-0.4,14-4.5,22.5-10.6,22.5c-0.2,0-0.4,0-0.6-0.1C176.9,176.4,176,170.3,176,163.4z M187.5,219.9c-2,0-4-0.4-5.8-0.8
		c-0.7,0-1.5-0.2-2.3-0.2c0,0,0,0,0,0c0.7,0,1.5,0.2,2.2,0.2c10.9-0.6,20.2-6,26.9-15.7c7.6-11,11.5-26.7,11.7-46.9
		c0.4,0,0.8,0.1,1.1,0.2c0.1,0,0.1,0,0.1,0c0,7.3-0.1,10.8-0.1,10.8c0,0.4,0.1,0.7,0.2,1.1C220.4,200.9,207.7,219.9,187.5,219.9z
		 M236.4,188c1.5,0,2.9,0.1,4.1,0.3c-4.8,6.1-11.4,9.2-17.6,10.7c1-2.8,1.9-5.8,2.7-8.9c0,0,0,0,0,0
		C229.4,188.5,233.2,188,236.4,188z M211.2,149.1c-18.9,0-43.4,5.3-72.7,15.8c-22.5,8.1-41.4,12.2-56.1,12.2
		c-9.4,0-14.6-1.8-16.7-2.7l-0.6-18.2c2.1,0.5,4.8,0.8,8.2,0.8c14.5,0,38.8-5.1,72.3-15.1c29.4-8.8,53-13.2,70.2-13.2
		c21.2,0,25.2,6.7,25.7,7.9l0.7,19.6C236.3,152.7,227,149.1,211.2,149.1z M228.5,163.6c0-1.4,0-3.2,0-5.4c3.8,1,6.7,2.3,9.1,3.6
		C235.4,162.3,232.5,162.9,228.5,163.6z M234.2,170.5c0.2-0.3,0.5-0.6,0.7-1c4.6-0.9,8-2.2,10.5-3.2c0.2,0,0.4-0.3,0.6-0.3
		c0,0,0,0,0,0c1.6,0,3-0.9,3.4-2.4c0.7-0.9,1-1.6,1.1-2.7c0-0.7-0.1-1.3-0.3-2c2.9-0.8,5.6-1,8.1-1c1.4,0,2.7,0.1,3.8,0.2
		C254.5,168,242.2,170.2,234.2,170.5z"/>
</g>
</svg>
