<?xml version="1.0" encoding="utf-8"?>
<!-- Generator: Adobe Illustrator 18.1.1, SVG Export Plug-In . SVG Version: 6.00 Build 0)  -->
<svg version="1.1" id="Layer_1" xmlns="http://www.w3.org/2000/svg" xmlns:xlink="http://www.w3.org/1999/xlink" x="0px" y="0px"
	 viewBox="0 0 300 300" enable-background="new 0 0 300 300" xml:space="preserve">
<g>
	<path fill="none" d="M145.2,180c0.6,0,1.3-0.5,2-0.5l26.2-1.3c1.5-0.1,3,0.8,3.7,2.1c2.2,4,6,4.4,7.2,4.4c1.4,0,8.5-0.5,8.5-9.6
		c0-0.9,0-1.7-0.1-2.5c-0.4,0-0.8,0-1.2,0l-1.2,0l-36.4,1c0,0-0.1,0-0.1,0c-1.3,0-2.4-0.7-3.1-1.8l-2-3.7c-2.9,1-5.9,2-8.9,3.1
		c-10.2,3.6-19.7,6.3-28.4,8.4c-0.1,0.2-0.2,0.5-0.3,0.5H145.2z"/>
	<path fill="none" d="M112,125.2c0.1,0,0.2,0,0.3,0c6-0.2,8.5-1.2,8.5-6.7c0-0.5,0-1.1-0.1-1.5c-0.3-0.1-0.6-0.2-0.9-0.2
		C116.9,116.8,113.6,119.7,112,125.2z"/>
	<path fill="none" d="M181,121v4.1c13-2.5,24.3-3.8,33.8-3.8c1.2,0,2.3,0.1,3.4,0.1c0-0.2-0.1-0.4-0.1-0.4H181z"/>
	<path fill="#FFFFFF" d="M58.6,187.9c4,5,9.4,8,14.4,9.7v-8.2c-4-1.3-7.2-1.7-10.2-1.7C61.2,187.6,59.8,187.7,58.6,187.9z"/>
	<path fill="#FFFFFF" d="M36.9,157.8c5.5,7.2,13.5,10.3,20.6,11.6l-0.2-6.7c-5.7-3.9-11.7-5-16.6-5
		C39.3,157.6,38.1,157.6,36.9,157.8z"/>
	<path fill="#FFFFFF" d="M43.6,121.8c2,11.4,11.8,17.7,18.5,20.7c0.4-0.3,0.8-0.5,1.2-0.8C60.6,127.5,49.6,123.1,43.6,121.8z"/>
	<path fill="#FFFFFF" d="M61.6,93.9c-1.6,12.2,7.1,20.5,12.7,24.6c0.1-3,0.3-5.8,0.6-8.5c-0.4-2.3-1.2-4.4-2.3-6.4
		C69.6,98.5,64.9,95.5,61.6,93.9z"/>
	<path fill="#FFFFFF" d="M241.5,188.9c-1.2-0.2-2.6-0.3-4.1-0.3c-2.2,0-4.6,0.2-7.1,0.8c-0.4,3.1-1,6-1.8,8.7
		C233.2,196.4,237.9,193.5,241.5,188.9z"/>
	<path fill="#FFFFFF" d="M248.4,163.4c-0.4,1.6-1.7,2.6-3.4,2.6c0,0,0,0,0,0c-0.2,0-0.4,0.1-0.6,0.1c-1.8,0.8-4.1,1.5-7,2.2
		c-0.7,0.8-1.5,1.8-2.2,2.7c8-0.3,20.3-2.4,27.9-12.3c-1.1-0.1-2.4-0.2-3.8-0.2c-3,0-6.3,0.4-9.8,1.6c0,0.2,0,0.3,0,0.5
		C249.4,161.7,249.1,162.5,248.4,163.4z"/>
	<path fill="#FFFFFF" d="M256.4,122.8c-3.4,0.8-8.3,2.5-12.5,6.4c2.8,2.7,3.4,5.2,3.5,5.8c0,0.2,0.1,0.3,0.1,0.5l0.1,2.1
		C251.7,134,255.3,129.3,256.4,122.8z"/>
	<path fill="#FFFFFF" d="M238.4,94.9c-3.3,1.6-8.1,4.6-11,9.8c-0.6,1-0.4,2-1.4,3.1v9.5c0,0.9-0.4,1.7-0.9,2.3c0,0.1,0,0.2,0,0.3
		C230.7,116.1,240,107.6,238.4,94.9z"/>
	<path fill="#CDCCCC" d="M100.9,127c1.3-1,2.5-0.7,3.8-0.9c1.6-8.9,6.6-14.2,11.9-15.8c-0.9-0.3-1.9-0.5-3.1-0.5
		c-3.6,0-7.7,1.2-8.2,10.3c-0.1,2.1-1.9,3.9-4,3.9H84.7l1.9,3H100.9z"/>
	<path fill="#CDCCCC" d="M148.3,215H83.2l2,3H151v-4C151,214.8,149.4,215,148.3,215z"/>
	<path fill="#FFFFFF" d="M145,115.3c-1-25.5-16.8-34.6-31.2-34.6C95.4,80.7,83.7,93,82.4,116h15.3c2.2-13,11.6-14.1,15.8-14.1
		c7.1,0,15.4,4.3,15.4,16.7c0,14.1-12.2,14.5-16.2,14.6c-12,0.5-20.6,5.5-25.8,15c11.7-1.7,29.6-5.6,56-13.4c1-3.7,1.2-8.2,2.2-13.4
		V115.3z"/>
	<path fill="#FFFFFF" d="M99.3,188c-2.2,0-4-1.6-4-3.8c0-0.5,0-1,0-1.5c-5,0.7-9.5,1-13.9,1c-0.2,0-0.5,0-0.5,0V207h64v-17.8
		c-1-0.3-0.8-1.2-0.9-1.2H99.3z"/>
	<path fill="#CDCCCC" d="M190.1,165.6c-0.1-0.1-0.2-0.2-0.3-0.3c-1.9-2-4.2-2.1-4.9-2.2l-22.1,0.6c-2.4,0.7-4.8,1.4-7.2,2.1l0.3,0.6
		L190.1,165.6z"/>
	<path fill="#CDCCCC" d="M219,114v-3.1c0,0.4-1.3,0.1-2.1,0.1H176v3.2c1-0.2,0.9-0.2,1.5-0.2H219z"/>
	<path fill="#CDCCCC" d="M184.6,217.9c-3.4,0-7-0.2-10.5-0.6c4.5,2,9.8,3.1,16,3.1c14,0,30.2-8.4,33.2-31.6
		C217.2,208.8,200.9,217.9,184.6,217.9z"/>
	<path fill="#FFFFFF" d="M172,103h41V87h-60v45c5-1.5,10-2.8,15-4v-20.5C168,105.2,169.7,103,172,103z"/>
	<path fill="#FFFFFF" d="M200.8,175.1c0,13.9-10.8,17.6-16.5,17.6c-5,0-9.7-2.4-12.7-6.3l-19.5,1c3.8,18.6,15.8,22.5,32.5,22.5
		c15.3,0,33.1-10.2,33.1-38.8c0-5.8-0.5-10.8-1.5-15.1c-1.9-0.1-3.9-0.2-6-0.2c-5.5,0-11.5,0.5-17.9,1.4c1.2,0.7,2.3,1.5,3.3,2.5
		C198,162.2,200.9,166.9,200.8,175.1z"/>
	<path fill="#CDCCCC" d="M78.5,145.2c-8.1,0-11.7,2.1-13.2,3.6c1.3,0.4,3.5,0.7,7,0.7c1.8,0,3.9-0.1,6.4-0.3l1.7-4
		C79.8,145.3,79.1,145.2,78.5,145.2z"/>
	<path fill="#CDCCCC" d="M227.5,163.2c4-0.7,6.9-1.3,9.2-1.8c-2.4-1.3-5.4-2.5-9.1-3.6C227.5,159.9,227.5,161.8,227.5,163.2z"/>
	<path fill="#FFFFFF" d="M64.7,174c2.1,1,7.3,2.7,16.7,2.7c14.7,0,33.6-4.1,56.1-12.2c29.3-10.5,53.8-15.8,72.7-15.8
		c15.8,0,25.1,3.6,31,7.1l-0.7-19.6c-0.5-1.2-4.5-7.9-25.7-7.9c-17.2,0-40.8,4.4-70.2,13.2c-33.5,10-57.9,15.1-72.3,15.1
		c-3.4,0-6.1-0.3-8.2-0.8L64.7,174z"/>
	<path fill="#5A81B8" d="M272,155c-0.4-1-1.2-1.7-2.2-2c-0.2-0.1-4.5-1.5-10.6-1.5c-3,0-6.9,0.4-11.1,1.7l-0.3-7.3
		c8.3-5.5,15.9-14.4,15.9-27.3c0-1-0.4-1.9-1.1-2.5c-0.7-0.7-1.6-1-2.6-1c-0.2,0-13.1,0.8-22.2,10.1c-1.6-0.7-3.4-1.4-5.5-2
		c8.3-7,16.2-18.9,11.9-34c-0.5-1.8-2.4-2.9-4.3-2.4c-0.4,0.1-8.1,2.2-14.1,8.3v-1.4c0-0.6-0.2-1.2-0.5-1.7l-4.7-8.2
		c0,0-0.1,0-0.1,0c0,0,0.1-0.4,0.1-0.4c0-2.2-1.7-4.4-3.9-4.4h-68.6c-2.2,0-3.4,2.6-3.4,4.8v4.5c-8-11.2-20.2-15.7-31.2-15.7
		c-14.3,0-29.5,7.1-36,25.6C71.3,89,60.4,85.9,60,85.8c-1.8-0.5-3.8,0.6-4.3,2.4c-5.9,20.4,10.5,34.7,20,39.4c0.5,0.2,1,0.4,1.6,0.4
		c0.5,0,1-0.1,1.4-0.3c0,0,0.1,0,0.1-0.1l0.1,0.1l2.8,4.6c0.6,1.1,1.8,1.6,3,1.6h3.2c-1.4,2-2.8,2.8-3.8,4.3v0.1
		c-2-0.2-3.7-0.2-5.4-0.2c-3.4,0-6.3,0.3-8.7,0.9c-5.2-23.5-29.8-25-30-25c-1,0-1.9,0.3-2.6,1c-0.7,0.7-1.1,1.5-1.1,2.5
		c0.1,15.6,11.1,25.3,21.1,30.3c-0.3,0.5-0.4,1.1-0.4,1.7l0.2,4.8c-6.1-3.1-12.1-3.8-16.3-3.8c-6.1,0-10.4,1.4-10.6,1.5
		c-1,0.3-1.8,1.1-2.2,2c-0.4,1-0.3,2,0.1,2.9c7,13.4,19.9,18,29.6,19.5c0.1,0.9,0.5,1.7,1.3,2.3c0.2,0.2,1.3,1,3.4,1.9
		c2.2,0.9,5.6,2,10.4,2.6c2.3,0.3,5,0.5,8,0.5c0.2,0,0.4,0,0.6,0c4.3,0,9-0.3,14-1c0,0.5,0,0.9,0,1.5c0,2.2,1.8,3.8,4,3.8h44.8
		c0,0,0,0.2,0,0.2c0.1,0.3,0.2,0.7,0.3,1c0.1,0.6,0.6,1.3,0.6,1.9V207H81v-23.3c-3,0-6.1-0.2-8.1-0.5c-5-0.6-8.2-1.7-10.4-2.6
		c-6.2,0-10.6,1.5-10.8,1.6c-1,0.3-1.8,1.1-2.1,2c-0.4,1-0.2,2,0.3,2.9c5.6,10.4,15.2,15.3,23.2,17.7v6.4c0,1.5,0.7,2.8,1.9,3.5
		c0,0,0,0,0,0l5.4,8.9c0.6,1.1,1.7,1.4,3,1.4h71.5c1.9,0,3.3-1,3.3-2.9v-8.5c0-0.4-0.3-0.7-0.5-1.1c0.3,0.4,0.5,0.7,0.7,1.1
		c8.4,10.9,21,13.8,31.9,13.8c13.6,0,27.3-6.5,34.8-20.6c8.9-2.1,19.2-7.1,25.4-18.4c0.5-0.9,0.6-2.2,0.2-3.2c-0.4-1-1.2-1.7-2.1-2
		c-0.2-0.1-4.7-1.6-11-1.6c-2.1,0-4.3,0.2-6.7,0.6c0-0.4,0-0.8,0-1.2c0-1,0-2,0-3c0.7,0,1.7,0.1,2.7,0.1c0,0,0,0,0,0
		c8.4,0,28.9-2,38.4-20.1C272.3,157.1,272.4,156,272,155z M74.3,118.5c-5.6-4.1-14.2-12.4-12.7-24.6c3.3,1.5,8,4.5,11,9.8
		c1.1,1.9,1.8,4.6,2.3,6.9C74.5,113.1,74.3,115.7,74.3,118.5C74.3,119,74.3,119,74.3,118.5z M73,197.6c-5-1.7-10.5-4.7-14.4-9.7
		c1.2-0.2,2.7-0.3,4.2-0.3c3.1,0,6.2,0.4,10.2,1.7V197.6z M256.4,122.8c-1.1,6.5-4.7,11.3-8.8,14.8l-0.1-2.1c0-0.2,0-0.3-0.1-0.5
		c-0.1-0.6-0.7-3.1-3.5-5.8C248.1,125.3,253,123.6,256.4,122.8z M225.1,119.9c0.6-0.6,0.9-1.7,0.9-2.6v-9.5c1-1.1,0.8-2.1,1.4-3.1
		c2.9-5.2,7.8-8.2,11-9.8C240,107.6,230.7,116.1,225.1,119.9C225.1,119.9,225.1,120,225.1,119.9c-0.7,0.7-1.5,1.4-2.5,1.4
		C223.6,121.3,224.4,120.6,225.1,119.9z M219,110.9v3.1h-41.5c-0.6,0-0.5,0-1.5,0.2V111h40.9C217.6,111,219,111.2,219,110.9z
		 M218.2,121.3c-0.3,0-0.6,0-0.8,0L218.2,121.3C218.2,121.3,218.2,121.3,218.2,121.3z M212.4,121c-9,0-19.4,1.6-31.3,4
		c-0.3,0.1-0.1,0.2-0.1,0.2V121H212.4z M153,87h60v16h-41c-2.2,0-4,2.2-4,4.4v20.5c1-0.2-10,2.5-15,3.9V87z M149,132.9
		c-0.8,0.2-1.5,0.4-2.3,0.7C147.4,133.4,148.2,133.1,149,132.9z M86.6,127l-1.9-3h16.5c2.1,0,3.9-1.7,4-3.9
		c0.5-9.1,4.7-10.3,8.2-10.3c1.1,0,2.1,0.1,3,0.5c-5.3,1.6-10.2,7-11.8,15.8c2.5-0.5,5-0.8,7.4-0.9c1.6-5.5,4.8-8.4,7.8-8.4
		c0.3,0,0.6,0.1,0.9,0.2c0,0,0,0,0,0c0,0.5,0.1,1,0.1,1.5c0,5.5-2.5,6.4-8.5,6.7c-0.1,0-0.2,0-0.3,0c-2.4,0.1-4.9,0.4-7.4,0.9
		c-1.3,0.3-2.5,0.4-3.8,0.8c-0.2,0.1-0.5,0.1-0.7,0.1H86.6z M112.6,133.2c4-0.1,16.2-0.6,16.2-14.7c0-12.3-8.3-16.6-15.4-16.6
		c-4.2,0-13.5,1.1-15.8,14.1H82.4c1.3-23,13-35.3,31.4-35.3c14.4,0,30.2,9.1,31.2,34.6v6.1c-1,5.2-1.1,9.6-2.2,13.3c0,0-0.1,0-0.1,0
		c0,0-0.1,0-0.2,0c-26.3,7.8-43.9,11.7-55.6,13.4C92.1,138.7,100.6,133.7,112.6,133.2z M78.5,145.2c0.6,0,1.2,0,1.9,0l-1.7,4
		c-2.5,0.2-4.6,0.3-6.4,0.3c-3.5,0-5.7-0.3-7-0.7C66.8,147.4,70.4,145.2,78.5,145.2z M36.9,157.8c1.1-0.1,2.4-0.2,3.8-0.2
		c4.9,0,10.9,1.1,16.6,5l0.2,6.7C50.5,168.1,42.5,165,36.9,157.8z M62,142.4c-6.6-3-16.5-9.3-18.5-20.7c6,1.4,17,5.8,19.7,19.9
		C62.8,141.9,62.4,142.2,62,142.4z M108.9,180.3c0.7-0.2,1.4-0.3,2.1-0.5C110.3,180,109.6,180.3,108.9,180.3z M143.5,184.2
		c0.2,1.4,0.4,2.7,0.7,4C143.9,187.3,143.6,185.6,143.5,184.2z M144.4,181.1c-0.5,0.6-0.9,1.4-0.9,2.2c0.1-0.8,0.4-1.8,0.9-2.4
		c0.2-0.3,0.5-0.9,0.8-0.9h-34c0.1,0,0.2-0.2,0.3-0.4c0,0,0,0.1,0,0.1c8.8-2.1,18.3-4.9,28.4-8.5c3-1.1,6-2.1,8.9-3l2,3.9
		c0.6,1.1,1.8,2,3.1,2c0,0,0.1,0,0.1,0l36.4-1.2l1.2-0.1c0.4,0,0.8,0,1.2,0c0.1,0.8,0.1,1.6,0.1,2.5c0,9.1-7.1,9.6-8.5,9.6
		c-1.1,0-5-0.3-7.2-4.4c-0.7-1.3-2.2-2.2-3.7-2.1l-26.2,1.4c-0.7,0-1.4,0.3-2,0.7C144.9,180.5,144.6,180.8,144.4,181.1z
		 M155.6,165.9c2.4-0.8,4.8-1.5,7.2-2.1l22.1-0.6c0.7,0,3,0.2,4.9,2.2c0.1,0.1,0.2,0.2,0.3,0.3l-34.2,0.9L155.6,165.9z M151,218
		H85.2l-2-3h65.1c0.8,0,1.7,0,2.7-0.4V218z M155.8,210c-0.1-0.1-0.3-0.2-0.4-0.4C155.5,209.7,155.7,209.9,155.8,210
		c0.1,0.2,0.3,0.4,0.4,0.6C156.1,210.4,155.9,210.2,155.8,210z M152.1,187.4l19.5-1c3.1,3.9,7.7,6.3,12.7,6.3
		c5.7,0,16.5-3.7,16.5-17.6c0.1-8.3-2.8-13-5.3-15.5c-1-1-2.1-1.8-3.3-2.5c6.5-0.9,12.5-1.4,17.9-1.4c2.1,0,4.1,0.1,6,0.2
		c1,4.3,1.5,9.3,1.5,15.1c0,28.7-17.8,38.8-33.1,38.8C167.9,209.9,155.9,206,152.1,187.4z M190.1,220.4c-6.2,0-11.5-1-16-3.1
		c3.5,0.5,7,0.6,10.5,0.6c16.3,0,32.6-9.2,38.7-29.1C220.3,211.9,204.2,220.4,190.1,220.4z M210.2,148.7c-18.9,0-43.4,5.3-72.7,15.8
		c-22.5,8.1-41.4,12.2-56.1,12.2c-9.4,0-14.6-1.8-16.7-2.7l-0.6-18.2c2.1,0.5,4.8,0.8,8.2,0.8c14.5,0,38.8-5.1,72.3-15.1
		c29.4-8.8,53-13.2,70.2-13.2c21.2,0,25.2,6.7,25.7,7.9l0.7,19.6C235.3,152.4,226,148.7,210.2,148.7z M237.4,188.6
		c1.5,0,2.9,0.1,4.1,0.3c-3.6,4.6-8.3,7.5-13.1,9.3c0.8-2.7,1.4-5.6,1.8-8.7C232.8,188.8,235.2,188.6,237.4,188.6z M227.5,163.2
		c0-1.4,0-3.2,0-5.4c3.8,1,6.7,2.3,9.1,3.6C234.4,161.9,231.5,162.5,227.5,163.2z M235.2,171.1c0.7-1,1.4-1.9,2.2-2.7
		c2.9-0.7,5.2-1.5,7-2.3c0.2,0,0.4-0.1,0.6-0.1c0,0,0,0,0,0c1.6,0,3-1.1,3.4-2.6c0.7-0.9,1-1.7,1.1-2.8c0-0.2,0-0.3,0-0.5
		c3.5-1.2,6.8-1.6,9.8-1.6c1.4,0,2.7,0.1,3.8,0.2C255.5,168.6,243.2,170.8,235.2,171.1z"/>
</g>
</svg>
