<?xml version="1.0" encoding="utf-8"?>
<!-- Generator: Adobe Illustrator 18.1.1, SVG Export Plug-In . SVG Version: 6.00 Build 0)  -->
<svg version="1.1" id="Layer_1" xmlns="http://www.w3.org/2000/svg" xmlns:xlink="http://www.w3.org/1999/xlink" x="0px" y="0px"
	 viewBox="0 0 300 300" enable-background="new 0 0 300 300" xml:space="preserve">
<g>
	<polygon fill="#CCCCCC" points="94,203.9 94,194.8 60,127 60,131 	"/>
	<polygon fill="#CCCCCC" points="239,150.5 239,133.3 105,195.9 105,219 	"/>
	<path fill="#FFFFFF" d="M232.2,124.1l-93-45.8l-76.7,27.8l39.5,78.8L232.2,124.1z M188.1,125.8l-19.4,8.7c0,0,0,0,0,0l-55.9,25.1
		c-0.8,0.3-1.5,0.5-2.3,0.5c-2.1,0-4-1.1-5.1-3.1l-20-38.3c-0.7-1.4-0.8-3.1-0.3-4.6c0.5-1.3,1.5-2.4,2.7-3.1
		c0.2-0.1,0.4-0.2,0.5-0.2l51-19.9c1.6-0.6,3.3-0.5,4.8,0.3l44.3,24.4c1.9,1,3,3.1,2.9,5.2C191.4,123,190.1,124.9,188.1,125.8z"/>
	<polygon fill="#CCCCCC" points="98.4,119.1 101.4,124.9 135.5,110.2 135.7,104.5 	"/>
	<polygon fill="#CCCCCC" points="166.7,122.9 173,120.1 147,105.8 146.9,110.9 	"/>
	<g>
		<path fill="#5980B7" d="M247.9,119.1L142.1,67c-1.4-0.7-3-0.8-4.5-0.2l-85,30.9c-1.5,0.6-2.9,1.7-3.5,3.2
			c-0.5,1.4-0.1,2.9-0.1,4.3v27.1c0,0.8,0.3,1.6,0.7,2.3l44.8,95.9c0.6,1.4,1.8,2.4,3.2,2.9c0.6,0.2,1.2,0.3,1.8,0.3
			c0.9,0,1.7-0.2,2.5-0.6l145.1-74.2c1.8-0.9,2.8-2.8,2.8-4.9v-26.8c1-0.8,0.9-1.8,0.9-2.8C251,122.1,249.9,120.1,247.9,119.1z
			 M139.3,78.3l93,45.8l-130.2,60.8l-39.5-78.8L139.3,78.3z M60,127l34,67.7v9.1L60,131V127z M239,150.5L105,219v-23.1l134-62.6
			V150.5z"/>
		<path fill="#5980B7" d="M110.4,160.1c0.8,0,1.6-0.2,2.3-0.5l55.9-25.1c0,0,0,0,0,0l19.4-8.7c2-0.9,3.3-2.8,3.4-5
			c0.1-2.2-1.1-4.2-2.9-5.2l-44.3-24.4c-1.5-0.8-3.2-0.9-4.8-0.3l-51,19.9c-0.2,0.1-0.4,0.2-0.5,0.2c-1.2,0.6-2.2,1.7-2.7,3.1
			c-0.6,1.5-0.5,3.2,0.3,4.6l20,38.3C106.4,159,108.4,160.1,110.4,160.1z M113,147l-6.3-12l33.9-14.6l13.5,8.2L113,147z
			 M166.7,122.9l-19.9-12l0.2-5.1l26,14.3L166.7,122.9z M135.7,104.5l-0.2,5.7l-34.1,14.7l-3-5.8L135.7,104.5z"/>
	</g>
</g>
</svg>
