<?xml version="1.0" encoding="utf-8"?>
<!-- Generator: Adobe Illustrator 18.1.1, SVG Export Plug-In . SVG Version: 6.00 Build 0)  -->
<svg version="1.1" id="Layer_1" xmlns="http://www.w3.org/2000/svg" xmlns:xlink="http://www.w3.org/1999/xlink" x="0px" y="0px"
	 viewBox="0 0 300 300" enable-background="new 0 0 300 300" xml:space="preserve">
<g>
	<path fill="none" d="M155,172.3l-45.6,1c-0.2,0-0.4,0-0.6,0c-4.4,0.9-8.3,1.4-11.6,1.8c0.5,0.4,1,0.8,1.5,1.2
		c0.7-0.5,1.5-0.8,2.3-0.9l32.9-1.4c1.4-0.1,2.7,0.6,3.5,1.7c2.4,3.5,6.8,4.7,10.1,4.7c1.1,0,10.5-0.2,11.6-8
		c-0.8-0.1-1.7-0.1-2.5-0.1L155,172.3z"/>
	<path fill="none" d="M142,127h5.1c1.2,0,2.5-0.1,3.7-0.1c6.2-1.6,12.2-2.9,18-3.9H142V127z"/>
	<path fill="#FFFFFF" d="M228.5,175.3c-1.2-0.2-2.6-0.3-4.1-0.3c-5.8,0-13.2,1.5-19.8,7.7c0,1.5-0.2,2.9-0.3,4.4
		C212,186.3,221.9,183.6,228.5,175.3z"/>
	<path fill="#FFFFFF" d="M227.9,157c7.4-1.1,16.2-4.1,22.1-11.8c-1.1-0.1-2.4-0.2-3.8-0.2c-5.4,0-12.3,1.4-18.5,6.5l0.1,5
		C227.9,156.7,227.9,156.8,227.9,157z"/>
	<path fill="#FFFFFF" d="M243.4,109.2c-5.6,1.3-15.5,5.3-19,17.2c0.7,0.4,1.2,0.7,1.3,0.8c0.6,0.4,1,1.1,1.2,1.8
		C233.4,125.7,241.7,119.6,243.4,109.2z"/>
	<path fill="#FFFFFF" d="M212.1,106.4c5.6-3.9,14.9-12.4,13.3-25.1c-3.3,1.6-8.1,4.6-11,9.8C212,95.4,211.2,100.5,212.1,106.4z"/>
	<path fill="#FFFFFF" d="M75.6,175c-1.5,0-2.9,0.1-4.1,0.3c7.6,9.6,19.5,11.7,27.4,12c-0.1-0.4-0.2-0.8-0.4-1.2
		C91.2,177.1,82.3,175,75.6,175z"/>
	<path fill="#FFFFFF" d="M49.9,145.2c6.5,8.5,16.5,11.3,24.3,12.1l-0.1-4.1c-6.7-6.6-14.4-8.2-20.4-8.2
		C52.3,145,51.1,145.1,49.9,145.2z"/>
	<path fill="#FFFFFF" d="M76.5,130.5c-2.2-15.2-13.7-19.9-19.9-21.3C58.7,121.6,69.9,127.9,76.5,130.5z"/>
	<path fill="#FFFFFF" d="M87.9,106.4c0.9-5.8,0.1-10.9-2.3-15.2c-2.9-5.2-7.7-8.2-11-9.8C73.1,93.9,82.4,102.4,87.9,106.4z"/>
	<path fill="#CDCCCC" d="M136.2,165.7l20.2-0.4c0.4,0,0.9,0,1.4,0c-0.1-0.2-0.3-0.4-0.5-0.6c-1.7-1.7-4.9-1.8-7.9-1.8l-1.5,0
		l-3.6,0.1c-1.8,0.6-3.5,1.1-5.3,1.8C138.1,165,137.2,165.3,136.2,165.7z"/>
	<path fill="#CDCCCC" d="M138.8,116H191v-3.8c0,1.2-1.3,0.8-2.8,0.8H136v5.2C136,117.2,137.6,116,138.8,116z"/>
	<path fill="#CDCCCC" d="M147.7,217.5c-5.7,0-11-0.5-15.8-1.5c6.2,2.6,13.8,3.9,22.8,3.9c19.8,0,43-10.3,43-39.2c0-0.6,0-1.2,0-1.7
		C193.7,205.5,170.6,217.5,147.7,217.5z"/>
	<path fill="#FFFFFF" d="M163.1,159c2.7,2.7,4,6.7,4,11.8c0,12-10.2,17.5-19.7,17.5c-6.1,0-11.6-2.3-15.2-6.3l-26.1,1.1
		c4.5,17.5,18.5,26.4,41.7,26.4c19.6,0,42.5-10.1,42.5-38.7c0-6.3-0.7-11.7-2.3-16.1c-7,0.4-15.7,1.4-25.8,3.6
		C162.5,158.4,162.8,158.7,163.1,159z"/>
	<path fill="#FFFFFF" d="M128,110.2c0-2.2,1.7-5.2,3.9-5.2H184V87h-78v52.4c6-1.3,13.6-3.2,22.5-5.7c-0.4-0.6-0.5-1.4-0.5-2.3V110.2
		z"/>
	<path fill="#CDCCCC" d="M80.3,141.7c-0.1,0.1,0,0.2,0,0.5c0,0,0.1,0.1,0.1,0.1c0.5,0.1,1.5,0.4,3.6,0.4c2.9,0,6.9-0.4,13.9-1.6
		v-4.9C84,138.3,80.9,140.7,80.3,141.7z"/>
	<path fill="#CDCCCC" d="M216.1,157.4c-4.6-0.8-9.4-1.3-13.9-1.6c0.5,1.8,0.9,3.5,1.1,4.9C208.9,159.6,213.1,158.4,216.1,157.4z"/>
	<path fill="#FFFFFF" d="M81.5,167.8c1.5,0.3,3.9,0.6,7.5,0.6c8.3,0,23.4-1.8,47.9-10.3c25.2-8.8,45.5-10.6,58-10.6
		c10.6,0,19.8,1.3,25.9,3.6l-0.5-19c-2.8-1.3-10.3-4.1-24.3-4.1c-15.5,0-34.3,3.2-55.9,9.6c-26.8,8-45.6,12-55.7,12
		c-1.2,0-2.2-0.1-3.2-0.2L81.5,167.8z"/>
	<g>
		<polygon fill="#5A81B8" points="220.5,164.5 220.5,164.5 220.5,164.5 		"/>
		<path fill="#5A81B8" d="M259,141.4c-0.4-1-1.2-1.7-2.2-2c-0.2-0.1-4.5-1.5-10.6-1.5c-4.7,0-11.9,0.9-18.9,5.1l-0.4-6.5v0
			c11-4.6,23.6-14.6,23.6-31.5c0-1-0.3-1.9-1-2.5c-0.7-0.7-1.6-1-2.5-1c-0.3,0-22.8,1.4-29.2,22.2c-4.3-1.3-10.6-2.5-19.3-2.7
			c-0.1,0-0.3,0-0.3,0c0.1-0.3-0.2-0.6-0.2-1V93.5c0-0.7,0.1-1.4-0.3-2l-5.5-8.2c0,0,0-0.4,0-0.5c-0.2-2-1.9-3.9-3.9-3.9h-85.9
			c-2.2,0-4.3,2.4-4.3,4.6v45.5c1-0.1,2.1-0.3,3.2-0.4c0.3,0,0.6,0,0.8,0c-0.2,0-0.4,0-0.7,0c-1,0.1-2,0.3-3,0.4
			c-6.1,0.9-10.9,1.9-14.6,3.1c-2.2-28.9-30.6-30.6-30.9-30.6c-1,0-1.9,0.3-2.6,0.9c-0.7,0.7-1.1,1.5-1.1,2.5
			c0.1,18.1,15,28.3,25.8,32.3c-0.2,0.3-0.4,0.6-0.6,0.8c-1,1.7-1.3,3.7-0.8,5.6c-7.4-4.8-14.9-5.9-19.9-5.9
			c-6.1,0-10.4,1.4-10.6,1.5c-1,0.3-1.8,1.1-2.2,2c-0.4,1-0.3,2,0.1,2.9c7.9,15.1,23.4,19,33.2,19.9l0.1,3.8
			c-5.7,0.2-9.7,1.5-9.9,1.6c-1,0.3-1.8,1.1-2.1,2c-0.4,1-0.3,2,0.2,2.9c9.7,17.8,29.8,19.7,38,19.7c0.3,0,0.6,0,0.9,0
			c2.1,4.2,4.7,7.8,8,10.8c7.7,14.3,23,21.8,45,21.8c12.7,0,24.6-3.6,33.4-10.2c7.5-5.6,12.6-13.3,15-22.5
			c9.5-0.6,25.9-4.1,34.3-19.6c0.5-0.9,0.6-2,0.2-2.9c-0.4-1-1.2-1.7-2.1-2c-0.2-0.1-4.7-1.6-11-1.6c-5.9,0-13.1,1.3-20,5.9
			c-0.2-2.1-0.5-4.1-0.8-6.1c5.2-1.1,10-2.3,13.7-3.4c0.1,0,0.3-0.1,0.4-0.1c4.1-1.3,7.1-2.6,8.8-4.3c0.2-0.1,0.3-0.2,0.5-0.3
			c-1.5,1.9-4.8,3.3-9.2,4.7c-0.1,0-0.3,0.1-0.4,0.1c0.8,0.1,1.9,0.1,3.2,0.1c8.4,0,28.8-2,38.4-20.1
			C259.3,143.5,259.4,142.4,259,141.4z M220.2,132.1l0.5,19c-6.2-2.3-15.4-3.6-25.9-3.6c-12.5,0-32.8,1.8-58,10.6
			c-24.5,8.5-39.6,10.3-47.9,10.3c-3.5,0-6-0.3-7.5-0.6L81,149.5c1,0.1,2,0.2,3.2,0.2c10.2,0,28.9-4,55.7-12
			c21.6-6.4,40.4-9.6,55.9-9.6C209.9,128,217.4,130.7,220.2,132.1z M148,162.8l1.5,0c2.9,0,6.2,0.1,7.9,1.8c0.2,0.2,0.3,0.4,0.5,0.6
			c-0.5,0-1,0-1.4,0l-20.2,0.4c1-0.3,1.9-0.6,2.9-1c1.8-0.6,3.6-1.2,5.3-1.8L148,162.8z M191.8,111.8c0.3-0.5,0.5-1,0.5-1.6
			C192.3,110.7,192.3,111.3,191.8,111.8z M150.8,127.1c-0.2,0.1-0.5-0.1-0.7,0c-1,0-2-0.1-3-0.1h-4.8H142v-4h25.9
			C162.4,124,156.7,125.6,150.8,127.1z M179.2,122c0.4,0,0.8-0.1,1.2-0.1C180,122,179.6,122,179.2,122z M191,112.5v3.5h-52.2
			c-1.2,0-2.8,1.2-2.8,2.2V113h52.2C189.5,113,190,113.3,191,112.5z M106,87h78v18h-52.1c-2.2,0-3.9,3-3.9,5.2v21.2
			c0,0.8,0.2,1.6,0.6,2.2c-0.1,0,0,0-0.1,0c-8.9,2.5-16.2,4.4-22.2,5.7c0,0-0.2,0-0.2,0c0,0-0.1,0-0.1,0V87z M98,136.1v4.9
			c-7,1.2-11.1,1.6-13.9,1.6c-2,0-3.1-0.2-3.6-0.4c0,0,0-0.1,0-0.1c-0.1-0.3-0.2-0.4-0.1-0.5C80.9,140.7,84,138.3,98,136.1z
			 M56.6,109.2c6.3,1.5,17.8,6.2,19.9,21.3C69.9,127.9,58.7,121.6,56.6,109.2z M49.9,145.2c1.1-0.1,2.4-0.2,3.8-0.2
			c6,0,13.7,1.7,20.4,8.2l0.1,4.1C66.4,156.5,56.4,153.7,49.9,145.2z M71.5,175.3c1.2-0.2,2.6-0.3,4.1-0.3c6.7,0,15.6,2.1,22.9,11
			c0.1,0.4,0.2,0.8,0.4,1.2C91,187,79,184.8,71.5,175.3z M101,175.3c-0.9,0-1.7,0.3-2.3,0.9c-0.5-0.4-1-0.8-1.5-1.2
			c3.3-0.3,7.2-0.9,11.6-1.8c0.2,0,0.4,0.1,0.6,0l45.6-1l1.5,0c0.8,0,1.7,0,2.5,0.1c-1.1,7.8-10.4,8-11.6,8c-3.3,0-7.7-1.2-10.1-4.7
			c-0.8-1.1-2.1-1.8-3.5-1.7L101,175.3z M106,183.1l26.1-1.1c3.6,4,9.2,6.3,15.2,6.3c9.5,0,19.7-5.5,19.7-17.5
			c0.1-5.1-1.3-9.1-4-11.8c-0.3-0.3-0.6-0.6-1-0.9c10.1-2.2,18.8-3.2,25.8-3.6c1.5,4.5,2.3,9.8,2.3,16.1c0,28.6-22.9,38.7-42.5,38.7
			C124.5,209.5,110.5,200.6,106,183.1z M154.6,219.9c-8.9,0-16.5-1.3-22.8-3.9c4.8,1,10.1,1.5,15.8,1.5c22.9,0,46-12,49.9-38.5
			c0,0.6,0,1.1,0,1.7C197.6,209.6,174.5,219.9,154.6,219.9z M204.6,182.7c6.6-6.1,14-7.7,19.8-7.7c1.5,0,2.9,0.1,4.1,0.3
			c-6.6,8.4-16.6,11-24.2,11.8C204.4,185.6,204.6,184.2,204.6,182.7z M203.3,160.7c-0.3-1.4-0.6-3.2-1.1-4.9
			c4.5,0.3,9.4,0.9,13.9,1.6C213.1,158.4,208.9,159.6,203.3,160.7z M225.7,127c-0.2-0.1-0.6-1-1.3-1c0,0,0,0,0,0
			c3.5-12,13.4-15.7,19-17c-1.8,10.4-10,16.5-16.5,19.8C226.7,128.1,226.3,127.5,225.7,127z M228.3,157c0-0.2-0.2-0.3-0.2-0.5
			l-0.2-5l0-0.1c6.2-5.1,13-6.5,18.4-6.5c1.4,0,2.8,0.1,4,0.2C244.3,152.9,235.3,155.9,228.3,157z"/>
		<path fill="#5A81B8" d="M208.3,115.1c0.5,0.2,0.9,0.3,1.4,0.3c0.5,0,1.1-0.1,1.6-0.4c9.5-4.7,25.9-19.1,20-39.4
			c-0.5-1.8-2.4-2.9-4.3-2.4c-0.5,0.1-12.5,3.5-18.8,14.4c-4,7.1-4.7,15.6-1.9,25.3C206.7,113.9,207.4,114.7,208.3,115.1z
			 M214.4,91.1c2.9-5.2,7.8-8.2,11-9.8c1.6,12.6-7.7,21.2-13.3,25.1C211.2,100.5,212,95.4,214.4,91.1z"/>
		<path fill="#5A81B8" d="M88.7,115.1c0.5,0.2,1,0.4,1.6,0.4c0.5,0,1-0.1,1.4-0.3c1-0.4,1.7-1.2,2-2.2c2.7-9.7,2.1-18.2-1.9-25.3
			c-6.2-11-18.2-14.3-18.8-14.4c-1.8-0.5-3.7,0.6-4.3,2.4C62.8,96,79.2,110.3,88.7,115.1z M74.6,81.3c3.3,1.6,8.1,4.6,11,9.8
			c2.4,4.3,3.2,9.4,2.3,15.2C82.4,102.4,73.1,93.9,74.6,81.3z"/>
	</g>
</g>
</svg>
