<?xml version="1.0" encoding="utf-8"?>
<!-- Generator: Adobe Illustrator 18.1.1, SVG Export Plug-In . SVG Version: 6.00 Build 0)  -->
<svg version="1.1" id="Layer_1" xmlns="http://www.w3.org/2000/svg" xmlns:xlink="http://www.w3.org/1999/xlink" x="0px" y="0px"
	 viewBox="0 0 300 300" enable-background="new 0 0 300 300" xml:space="preserve">
<g>
	<path fill="none" d="M110,126h3c7.5,0,15.6,0.5,22.7,3.8c0.2-3.7,0.5-7.8,0.9-10.8H110V126z"/>
	<path fill="none" d="M176.1,180.5c0.3,0.1,0.6,0.1,0.9,0.1c6.2,0,10.3-8.6,10.7-22.7c-4.4,0.7-8.7,1.6-13.7,2.7v2.8
		C174,170.4,174.6,176.2,176.1,180.5z"/>
	<path fill="none" d="M177.3,125.7c3.1-0.6,6-1.1,8.9-1.6c-0.3-1.4-0.7-2.6-1.1-3.8C181.9,120.3,179.2,122.2,177.3,125.7z"/>
	<path fill="none" d="M119.5,176.8c-2.9,0.8-5.7,1.6-8.5,2.3c1,0.3,1.8,0.3,2.2,0.3C114.2,179.4,117.3,179.2,119.5,176.8z"/>
	<path fill="#FFFFFF" d="M243.5,180.2c-1.2-0.2-2.6-0.3-4.1-0.3c-4.3,0-9.5,0.9-14.6,3.8c-0.4,2.7-1,5.2-1.6,7.7
		C230.1,190.2,238,187.2,243.5,180.2z"/>
	<path fill="#FFFFFF" d="M249,160.6c5.8-1.7,11.7-4.8,16.1-10.5c-1.1-0.1-2.4-0.2-3.8-0.2c-4.1,0-8.9,0.8-13.7,3.3l0.2,4.3
		C248.5,158.4,248.9,159.4,249,160.6z"/>
	<path fill="#FFFFFF" d="M258.4,114.1c-5,1.2-13.4,4.4-17.6,13.5c2.2,1.5,3.7,3,4.6,4.4C251.1,128.4,257,122.7,258.4,114.1z"/>
	<path fill="#FFFFFF" d="M227.1,111.3c5.6-3.9,14.9-12.4,13.3-25.1c-3.3,1.6-8.1,4.6-11,9.8C227,100.3,226.2,105.5,227.1,111.3z"/>
	<path fill="#FFFFFF" d="M74.5,188.9c-0.5-1.6-0.9-3.2-1.2-5c-5.5-0.2-9.7-0.9-12.8-1.7C64.8,185.8,69.7,187.8,74.5,188.9z"/>
	<path fill="#FFFFFF" d="M34.9,148.1c4.4,5.7,10.4,8.9,16.2,10.5l-0.3-8.2c-4.3-1.9-8.5-2.5-12.2-2.5
		C37.3,147.9,36.1,148,34.9,148.1z"/>
	<path fill="#FFFFFF" d="M61.5,133.4c-2.2-15.2-13.7-19.9-19.9-21.3C43.7,124.5,54.9,130.8,61.5,133.4z"/>
	<path fill="#FFFFFF" d="M72.9,109.3c0.9-5.9,0.1-11-2.3-15.3c-3-5.2-7.7-8.2-11-9.8C58,96.9,67.3,105.4,72.9,109.3z"/>
	<path fill="#CDCCCC" d="M113.5,216.6c-3.8,0-7.8-0.3-11.7-1.2c4.8,2.4,10.5,3.7,17.3,3.7c10.3,0,21.6-4.5,28.2-15.9
		c-0.5-0.8-1-1.5-1.5-2.4C137.8,211.5,125.6,216.6,113.5,216.6z"/>
	<path fill="#CDCCCC" d="M105,112.9c0-0.2,0.9-0.9,1.4-0.9h31.4c0.2-1,0.4-2,0.5-3H105V112.9z"/>
	<path fill="#FFFFFF" d="M100.9,134c-2.2,0-3.9-1.5-3.9-3.7v-24.2c0-2.2,1.7-5.1,3.9-5.1h39.8c0.4-1,1.3-1.1,1.3-2.1V86H81v62.6
		c11-1.6,27.2-5.1,50.6-11.6c-5.7-2.4-12.3-3-18.6-3H100.9z"/>
	<path fill="#FFFFFF" d="M129.5,173.7c-1.8,10.7-11.1,13.6-16.2,13.6c-4.9,0-9.5-2.3-12.5-6c-6.9,1.4-13.4,2.2-19.3,2.5
		c3.9,16.4,14.7,24.7,32.1,24.7c10.2,0,21.6-4.6,28-16.2c-2.4-6.1-4.1-13.1-5.1-21c-0.1,0-0.2,0.1-0.3,0.1
		C133.9,172.3,131.7,173,129.5,173.7z"/>
	<path fill="#CDCCCC" d="M180.7,114c-1.1-0.7-2.3-1.1-3.5-1.1c-5.2,0-8.7,5.5-10.1,15c0.6-0.1,1.3-0.3,1.9-0.4
		C171.8,118.6,176.6,115.2,180.7,114z"/>
	<path fill="#CDCCCC" d="M206.5,203.5c-6.7,9.7-16,15.2-26.9,15.8c1.8,0.3,3.8,0.5,5.7,0.5c20.5,0,33.1-19.6,34-52.8
		c0-1.2,0-4.6,0.1-10.4c-0.4,0-0.8-0.1-1.1-0.1C218.1,176.8,214.1,192.6,206.5,203.5z"/>
	<path fill="#FFFFFF" d="M195.5,156.8c-0.4,28.6-13.1,31.8-18.6,31.8c-4.9,0-15.7-2.6-18-24.3c-4.7,1.3-9.6,2.8-14.6,4.4
		c2.9,27,14.8,42.6,33.1,42.6c20.4,0,32.6-20.7,32.9-55.3c-0.5,0-1.1,0-1.6,0C204.5,156.1,200.1,156.3,195.5,156.8z"/>
	<path fill="#FFFFFF" d="M177.1,81.1c-20.7,0-32.8,19.1-33.5,52.7c5.2-1.5,10.3-2.8,15.1-4c2.1-22.3,13.3-24.9,18.4-24.9
		c4.4,0,13.6,2.1,17,18.1c5.4-0.7,10.5-1.1,15.2-1.3C206.1,96,194.6,81.1,177.1,81.1z"/>
	<path fill="#CDCCCC" d="M59.9,149.3c1.4,0.3,3.6,0.6,6.9,0.6c1.7,0,4.3-0.1,6.3-0.3v-3.4C65,147.1,61.5,148.4,59.9,149.3z"/>
	<path fill="#CDCCCC" d="M226.4,158.1c0,2.2,0,4,0,5.5c4.2-0.7,7.3-1.3,9.6-1.9C233.4,160.3,230.3,159.1,226.4,158.1z"/>
	<path fill="#FFFFFF" d="M76,177c15.2,0,34.7-4.1,57.9-12.2c30.2-10.5,55.3-15.8,74.8-15.8c16.4,0,26,3.7,32.1,7.2l-0.7-19.7
		c-0.6-1.2-4.7-8-26.6-8c-17.7,0-42.1,4.4-72.4,13.2c-34.5,10-59.5,15.1-74.4,15.1c-3.6,0-6.4-0.3-8.6-0.8l0.6,18.2
		C60.9,175.2,66.2,177,76,177z"/>
	<path fill="#5A81B8" d="M274,146.3c-0.4-1-1.2-1.7-2.2-2c-0.2-0.1-4.5-1.5-10.6-1.5c-3.6,0-8.6,0.5-13.9,2.7l-0.2-6.5
		c9.3-5.3,18.7-14.7,18.7-29.1c0-1-0.4-1.9-1.1-2.5c-0.7-0.7-1.6-1-2.6-1c-0.2,0-19.7,1.2-27.7,18c-2.7-1-6.1-1.7-10.1-2.3
		c-0.1-0.7-0.3-1.4-0.4-2c0.3,0.1,0.5,0.1,0.8,0.1c0.5,0,1.1-0.1,1.6-0.4c9.5-4.7,25.9-19.1,20-39.4c-0.5-1.8-2.4-2.9-4.3-2.4
		c-0.5,0.1-12.5,3.5-18.8,14.4c-2.4,4.2-3.6,8.9-3.6,14.1c-3.4-7.9-7.9-14.1-13.6-18.3c-7-9.9-16.8-15.2-29-15.2
		c-10.3,0-19.3,3.9-26.2,11.3c-0.4,0.4-0.7,0.8-1.1,1.2c-0.8,1-1.6,1.9-2.4,3c-0.3,0.4-0.6,0.9-0.9,1.4c0.3-0.5,0.6-0.9,0.9-1.4
		c0.8-1.1,1.4-2.1,2.4-3c0-0.4,0.8-0.8,1.1-1.2l-1-1.9c0,0,0,0,0,0v0.1c0-2.2-1.9-4.5-4.1-4.5H77.3c-2.2,0-4.3,2.3-4.3,4.5v3.3
		c-6-7.2-14.8-9.6-15.2-9.7c-1.8-0.5-3.8,0.6-4.3,2.4C47.7,98.6,64,112.8,73,117.8v21.3c1-0.1,1.2-0.1,0.4,0
		c-1.7,0.2-3.3,0.4-4.8,0.6c0.2-0.4,0.3-0.9,0.3-1.4c0-0.1,0-0.1,0-0.3c-0.5-31.7-30.7-33.5-31-33.5c-1,0-1.9,0.3-2.6,0.9
		c-0.7,0.7-1.1,1.5-1.1,2.5c0.1,19.4,17.2,29.7,28,33.1c-4,1-6.3,2.2-7.7,3.4c-5.9-2.8-11.7-3.5-15.7-3.5c-6.1,0-10.4,1.4-10.6,1.5
		c-1,0.3-1.8,1.1-2.2,2c-0.4,1-0.3,2,0.1,2.9c6,11.4,16.3,16.4,25.2,18.6l0.2,6.1c-1.2,0.3-1.9,0.5-2,0.5c-1,0.3-1.8,1.1-2.1,2
		c-0.4,1-0.3,2,0.2,2.9c7.2,13.2,20.2,17.7,29.8,19.1c1.4,2.9,3.1,5.4,5,7.5c7.7,17.7,23.4,21.9,36.6,21.9
		c12.5,0,25.1-5.5,32.9-17.3c1.4,1.4,2.9,2.7,4.4,3.8c10.1,12.8,23.3,14.3,29,14.3c11.9,0,22-5.4,29.2-15.6c2.5-3.5,4.6-7.5,6.3-12
		c9.7-1.2,23.9-5.4,31.5-19.5c0.5-0.9,0.6-2.2,0.2-3.2c-0.4-1-1.2-1.7-2.1-2c-0.2-0.1-4.7-1.6-11-1.6c-4.1,0-8.8,0.6-13.5,2.5
		c0.1-1.6,0.3-3.2,0.3-4.8c2.7-0.4,5-0.8,7.1-1.3c0.6,0,1.3,0,2.1,0c0,0,0,0,0,0c8.4,0,28.9-2,38.4-20.1
		C274.3,148.4,274.4,147.3,274,146.3z M229.4,96c2.9-5.2,7.8-8.2,11-9.8c1.6,12.6-7.7,21.2-13.3,25.1
		C226.2,105.5,227,100.3,229.4,96z M73,109.3c-5-3.9-15-12.4-13.3-25.1c3.3,1.5,8.1,4.5,11,9.8c1.1,2,2.3,4.1,2.3,6.4V109.3z
		 M41.6,112.1c6.3,1.5,17.8,6.2,19.9,21.3C54.9,130.8,43.7,124.5,41.6,112.1z M34.9,148.1c1.1-0.1,2.4-0.2,3.8-0.2
		c3.6,0,7.9,0.6,12.2,2.5l0.3,8.2C45.3,157,39.3,153.8,34.9,148.1z M177.1,81.1c17.5,0,29,14.9,32.2,40.5c-4.7,0.2-9.7,0.6-15.2,1.3
		c-3.4-16-12.6-18.1-17-18.1c-5.1,0-16.3,2.6-18.4,24.9c-4.9,1.2-9.9,2.5-15.1,4C144.4,100.3,156.5,81.1,177.1,81.1z M185.1,120.3
		c0.4,1.1,0.8,2.4,1.1,3.8c-2.9,0.5-5.8,1-8.9,1.6C179.2,122.2,181.9,120.3,185.1,120.3z M168.9,127.4c-0.6,0.1-1.3,0.3-1.9,0.4
		c1.4-9.5,4.9-15,10.1-15c1.3,0,2.5,0.4,3.5,1.1C176.6,115.2,171.8,118.6,168.9,127.4z M81,148.6V86h61v12.9c0,0,0,0,0,0
		c0,0,0,0,0,0c-0.4,1-0.9,2.1-1.2,3.2c-0.4,1.2-0.8,2.2-1.2,3.5c0.4-1.3,0.8-2.6,1.2-4.6h-39.8c-2.2,0-3.9,2.9-3.9,5.1v24.2
		c0,2.2,1.7,3.7,3.9,3.7H113c6.2,0,12.8,0.6,18.5,2.9c-23.3,6.5-39.2,10-50.2,11.5c-0.3,0-0.6,0.2-0.9,0.2
		C80.7,148.6,81,148.7,81,148.6z M106.4,112c-0.6,0-1.4,0.7-1.4,0.9V109h33.3c0.3-1,0.7-1.8,1-3.1c-0.4,1.3-0.7,2.7-1,4.1
		c-0.2,0.8-0.4,1.4-0.5,2.2c0,0,0-0.1,0-0.1H106.4z M137.7,113.1c-0.4,2-0.7,4-1,6.2C137,116.7,137.3,114.8,137.7,113.1z M136.6,119
		c-0.4,4-0.7,7.2-0.9,10.9c0,0,0-0.1,0,0c-7.1-3.3-15.3-3.9-22.7-3.9h-3.1h0.1v-7H136.6z M73,146.2v3.4c-2,0.2-4.6,0.3-6.3,0.3
		c-3.3,0-5.4-0.3-6.8-0.6C61.5,148.4,65,147.1,73,146.2z M60.5,182.3c3.1,0.8,7.3,1.5,12.8,1.7c0.4,1.7,0.8,3.4,1.2,5
		C69.7,187.8,64.8,185.8,60.5,182.3z M81.4,183.9c5.9-0.3,12.4-1.2,19.3-2.5c3.1,3.8,7.6,6,12.5,6c5.1,0,14.4-3,16.2-13.6
		c2.2-0.7,4.4-1.5,6.7-2.3c0.1,0,0.2-0.1,0.3-0.1c0.9,7.9,2.6,14.9,5.1,21c-6.4,11.6-17.8,16.2-28,16.2
		C96.1,208.6,85.3,200.3,81.4,183.9z M111,179.1c2.8-0.7,5.6-1.4,8.5-2.3c-2.2,2.4-5.3,2.6-6.2,2.6C112.8,179.4,112,179.3,111,179.1
		z M119.1,219c-6.8,0-12.5-1.2-17.3-3.7c4,0.9,8,1.2,11.7,1.2c12.1,0,24.3-5.1,32.2-15.9c0.5,0.8,1,1.6,1.5,2.4
		C140.7,214.5,129.3,219,119.1,219z M144.3,168.8c5-1.6,9.9-3.1,14.6-4.4c2.3,21.7,13.1,24.3,18,24.3c5.5,0,18.2-3.2,18.6-31.8
		c4.6-0.5,9-0.8,13.1-0.8c0.5,0,1.1,0,1.6,0c-0.2,34.7-12.5,55.3-32.9,55.3C159.1,211.4,147.1,195.7,144.3,168.8z M176.2,180.6
		c-1.5-4.3-2.2-10.2-2.2-17.2v-2.8c0,0.1-1.1,0.2-1.5,0.3c0.4-0.1,0.7-0.2,1.1-0.3c4.8-1.1,9.4-2,13.9-2.7
		c-0.4,14.1-4.4,22.7-10.5,22.7C176.7,180.6,176.4,180.6,176.2,180.6z M219.3,167.1c-0.9,33.1-13.5,52.8-34,52.8
		c-2,0-3.9-0.2-5.7-0.5c10.9-0.6,20.2-6.1,26.9-15.8c7.6-11,11.5-26.8,11.7-46.9c0.4,0,0.8,0.1,1.1,0.1
		C219.4,162.6,219.3,166,219.3,167.1z M239.4,179.9c1.5,0,2.9,0.1,4.1,0.3c-5.5,7-13.4,10-20.3,11.2c0.6-2.5,1.2-5,1.6-7.7
		C229.9,180.8,235.1,179.9,239.4,179.9z M226.3,163.5c0-1.4,0-3.3,0-5.5c3.9,1,7.1,2.3,9.5,3.6C233.6,162.2,230.5,162.8,226.3,163.5
		z M208.6,149.1c-19.5,0-44.6,5.3-74.8,15.8C110.7,172.9,91.2,177,76,177c-9.8,0-15.1-1.8-17.3-2.8L58.1,156c2.2,0.5,5,0.8,8.6,0.8
		c14.9,0,39.9-5.1,74.4-15.1c30.3-8.8,54.6-13.2,72.4-13.2c21.8,0,26,6.7,26.6,8l0.7,19.7C234.6,152.7,225,149.1,208.6,149.1z
		 M240.8,127.6c4.3-9,12.6-12.3,17.6-13.5c-1.5,8.6-7.4,14.3-13.1,17.8C244.5,130.6,243,129.1,240.8,127.6z M249,160.6
		c0-1.2-0.4-2.2-1.2-3.1l-0.2-4.3c4.8-2.5,9.6-3.3,13.7-3.3c1.4,0,2.7,0.1,3.8,0.2C260.7,155.8,254.8,158.9,249,160.6z"/>
</g>
</svg>
