<?xml version="1.0" encoding="utf-8"?>
<!-- Generator: Adobe Illustrator 18.1.1, SVG Export Plug-In . SVG Version: 6.00 Build 0)  -->
<svg version="1.1" id="Layer_1" xmlns="http://www.w3.org/2000/svg" xmlns:xlink="http://www.w3.org/1999/xlink" x="0px" y="0px"
	 viewBox="0 0 300 300" enable-background="new 0 0 300 300" xml:space="preserve">
<g>
	<path fill="#FFFFFF" d="M141.9,87.5c-2.5,0-4.8,0.6-7,1.9c-2,1.2-3.4,2.7-4.2,4.7l-23.4,57.3c-3.7,9.7-9.9,23.9-18.2,42.2
		c-2.4,5.6-2.9,8.8-2.9,10.6c0,3.9,1.6,5.5,2.8,6.3c2.4,1.6,5.3,2.4,8.8,2.4c2.2,0,5.3-0.7,7.8-6.6l8.3-22.4
		c0.6-1.6,2.2-2.9,3.9-2.9H136c2.6,0,5,0.2,7.2,0.2c1.2-1.7,2.7-3.2,4.5-4.7c5.9-5,13.5-7.5,22.7-7.5c3.5,0,7.4,0.6,11.6,1.9
		c-0.3-1.7-1-3-2.2-4.2c-1.6-1.5-3.8-2.2-6.7-2.2c-3.8,0-7,1.4-9.7,4.2c-0.9,1-2.3,1.4-3.6,1.2l-8.3-1.5c-7.9,0.1-16.6,0.2-26.2,0.2
		c-1.3,0-2.6-0.7-3.4-1.7c-0.8-1.1-1-2.5-0.5-3.8c9.9-28.1,15.6-44.8,16.9-48.8c0.5-1.7,2.1-3.2,3.9-3.2c0,0,0,0,0,0
		c1.8,0,3.3,1.5,3.9,3.2c1.4,4.2,4.4,13,9,26.2c0.6,1.7,1.2,3.5,1.7,5c4.8-1.7,10.4-2.7,16.7-2.9c-11.8-29.6-18.3-45.7-19.2-47.8
		C153.2,91.6,150.5,87.5,141.9,87.5z"/>
	<path fill="#CDCCCC" d="M203,200.8v-24.9c0-7.3-0.2-10.8-0.7-12.5c-0.7-2.2-1.7-4.3-3.4-6.2c-1.6-1.8-4.2-3.4-7.9-4.6
		c-3.9-1.3-8.9-2-15-2c-12.6,0-21.3,3-26.5,9.2l9.8,1.8c3.9-3.4,8.6-5.1,13.8-5.1c5,0,9.1,1.5,12.2,4.5c3.2,3,4.7,6.9,4.7,11.5v4.2
		c0,1.3-0.6,2.6-1.7,3.3c-1.1,0.7-2.5,0.9-3.7,0.4c-5.4-2.1-10.2-3.2-14.3-3.2c-7.3,0-13,1.9-17.4,5.7c-4.3,3.7-6.4,8-6.4,13.4
		c0,5.2,1.9,9.3,5.8,12.4c4.2,3.3,9.2,4.9,15.1,4.9c5.7,0,11-1.8,16.3-5.6c1.2-0.9,2.8-1,4.1-0.3c1.3,0.7,2.1,2.1,2.1,3.6v0.9h24v-7
		h-6.1C205.7,205,203,203,203,200.8z M163.1,204c-2.3-2.5-3.5-5.6-3.5-9.1c0-4.1,1.6-7.4,4.8-9.6c2.7-1.9,5.8-2.9,9.1-2.9
		c4,0,8.7,1.8,14.7,5.6c1.2,0.7,1.8,2,1.8,3.4v5.6c0,1.1-0.4,2.2-1.2,2.9c-5.9,5.5-11.3,8.2-16.4,8.2
		C168.7,208,165.5,206.6,163.1,204z"/>
	<g>
		<path fill="#5A81B8" d="M218.9,196H211v-20.1c0-6.8,0-11.6-1-14.9c-1-3.3-2.6-6.4-5.1-9.2c-2.6-2.9-6.3-5.2-11.2-6.9
			c-3.2-1.1-6.9-1.9-11.1-2.3c-2.1-0.2-2-0.2,0,0c-12.8-32.2-19.6-48.9-20.5-51.1c-2.3-5.6-7.6-12.3-20.2-12.3c-4,0-7.7,1-11.1,3
			c-3.6,2.1-6.2,5-7.7,8.7l-23.4,57.3c-3.7,9.6-9.8,23.7-18,41.9c-2.5,5.6-3.7,10.2-3.7,13.9c0,7.3,3.5,11.2,6.5,13.2
			c3.8,2.5,8.3,3.8,13.4,3.8c4.8,0,11.4-2,15.5-11.7c0-0.1,0-0.5,0.1-0.5l7.4-19.9H136c1,0,2.4,0,3.4,0c0,0-0.1,0.5-0.1,0.6
			c-0.5,2-0.8,4.3-0.8,6.5c0,7.8,3,14.1,8.9,18.7c5.6,4.4,12.4,6.7,20,6.7c4.1,0,8-0.7,11.8-2.2c0,0,0,0,0.1,0
			c2.5,1.3,5.4,1.7,8.7,1.7c2.1,0,4.1,0,6-1h24.9c2.2,0,3.1-1.3,3.1-3.5v-15.7C222,198.6,221.1,196,218.9,196z M143.5,181
			c-2.2,0-5.1,0-7.5,0h-18.1c-1.7,0-3.3,1.3-3.9,2.9l-8.3,22.2c-2.5,5.9-5.7,6.6-7.8,6.6c-3.5,0-6.4-0.8-8.8-2.4
			c-1.2-0.8-2.8-2.3-2.8-6.3c0-1.7,0.5-5,2.9-10.6c8.3-18.3,14.4-32.5,18.2-42.2l23.4-57.3c0.8-2,2.2-3.5,4.2-4.7
			c2.2-1.3,4.5-1.9,7-1.9c8.7,0,11.3,3.8,12.5,6.9c0.9,2.1,7.3,18.6,19.2,47.6c0,0,0,0,0,0c-6.4,0-11.9,1.5-16.7,3.2
			c-0.5-1.5-1.1-3.2-1.7-4.9c-4.5-13.2-7.5-22-9-26.2c-0.6-1.7-2.1-3.1-3.9-3.1c0,0,0,0,0,0c-1.8,0-3.4,1.5-3.9,3.2
			c-1.3,4-7,20.4-16.9,48.6c-0.4,1.3-0.3,2.8,0.5,3.9c0.8,1.1,2,1.8,3.4,1.8c9.5,0,18.3-0.1,26.1-0.2l0.1,0l8.3,1.5
			c1.3,0.2,2.7-0.2,3.6-1.2c2.7-2.8,5.9-4.1,9.7-4.1c2.9,0,5.1,0.7,6.7,2.2c1.2,1.2,1.9,2.5,2.2,4.2c-4.2-1.2-8.1-1.8-11.6-1.8
			c-9.1,0-16.8,2.5-22.7,7.5C146.1,178,144.7,179.4,143.5,181z M131.2,160.3c4.9-13.8,8.6-24.3,11.1-31.6c1.4,4,3.1,8.8,5,14.5
			c0.7,2.2,1.4,3.9,2.1,5.9c0,0,0,0,0,0c-4.1,3-7.3,6.6-9.6,11.1C137,160.1,134.1,160.2,131.2,160.3z M139.5,160.6
			c-0.1,0.1-0.1,0.3-0.2,0.4c-0.1,0.3-0.2,0.6-0.3,0.9c0.1-0.3,0.2-0.6,0.3-0.9C139.4,160.8,139.5,160.7,139.5,160.6z M214,212h-24
			v-0.9c0-1.5-0.8-2.9-2.1-3.6c-1.3-0.7-2.9-0.6-4.2,0.3c-5.2,3.8-10.5,5.6-16.3,5.6c-5.9,0-10.8-1.6-15-4.9
			c-3.9-3.1-5.8-7.1-5.8-12.4c0-5.4,2.1-9.7,6.4-13.4c4.5-3.8,10.2-5.7,17.4-5.7c4,0,8.8,1.1,14.3,3.2c1.2,0.5,2.6,0.3,3.7-0.4
			c1.1-0.7,1.7-2,1.7-3.3v-4.2c0-4.6-1.6-8.5-4.7-11.5c-3.1-3-7.2-4.5-12.2-4.5c-5.3,0-9.9,1.7-13.8,5.1l-9.7-1.8
			c5.2-6.2,13.9-9.2,26.5-9.2c6.1,0,11.2,0.7,15.1,2c3.7,1.3,6.3,2.8,8,4.6c1.7,1.9,2.5,4,3.2,6.2c0.5,1.7,0.7,5.2,0.7,12.5v24.9
			c0,2.2,2.7,4.2,4.9,4.2h6.1V212z"/>
		<path fill="#5A81B8" d="M188.2,187.8c-6-3.7-10.8-5.6-14.7-5.6c-3.3,0-6.4,1-9.1,2.9c-3.1,2.2-4.7,5.5-4.7,9.6
			c0,3.5,1.2,6.6,3.5,9.1c2.4,2.6,5.6,4,9.3,4c5.2,0,10.5-2.7,16.4-8.2c0.8-0.8,1.2-1.8,1.2-2.9v-5.6
			C190,189.9,189.3,188.6,188.2,187.8z M182,195c-4,3.2-7,4.9-9.6,4.9c-1.5,0-2.5-0.4-3.4-1.4c-1-1-1.4-2.2-1.4-3.7
			c0-1.8,0.7-2.6,1.4-3.1c1.4-1,2.8-1.4,4.4-1.4c1.4,0,3.6,0.6,8.6,3.2V195z"/>
	</g>
</g>
</svg>
