<?xml version="1.0" encoding="utf-8"?>
<!-- Generator: Adobe Illustrator 18.1.1, SVG Export Plug-In . SVG Version: 6.00 Build 0)  -->
<svg version="1.1" id="Layer_1" xmlns="http://www.w3.org/2000/svg" xmlns:xlink="http://www.w3.org/1999/xlink" x="0px" y="0px"
	 viewBox="0 0 300 300" enable-background="new 0 0 300 300" xml:space="preserve">
<g>
	<polygon fill="none" points="138.6,143.2 124.9,123.4 110,145 137.3,145 	"/>
	<path fill="none" d="M125.3,191.8c-4-3.5-6.3-8.3-6.9-13.3c-16.5-3.3-23-18.8-24.2-27.5c0-0.3,0-0.6,0-0.8c0-0.1,0-0.2,0-0.3
		c0-0.1,0-0.1,0-0.2c0.1-0.9,0.4-1.8,0.9-2.6l19.4-28.1H93v104h13.6c-0.1,0,0.4-1.2,0.4-1.7v-2.5c0-7.2,5.4-12.7,12.7-12.7H141v-0.5
		L125.3,191.8z"/>
	<polygon fill="none" points="51.1,124 37.8,145 64.3,145 	"/>
	<polygon fill="#FFFFFF" points="238,83 218,64.1 218,83 	"/>
	<path fill="#FFFFFF" d="M212.5,94c-0.4,0-0.8-0.1-1.3-0.1c-0.4,0.1-0.8,0.1-1.3,0.1h-41c-3,0-5.5-2.5-5.5-5.5S166,83,169,83h38V59
		h-55v67.4l16.3-20.5c3.8-4.8,9.4-7.5,15.3-7.5c4.5,0,8.8,1.7,12.3,4.6c0.3-0.1,0.7,0,1.1,0h30c3,0,5.5,2.5,5.5,5.5
		s-2.5,5.5-5.5,5.5h-18.6l8.6,7.5c3.5,3.1,5.7,7.5,6.6,11.5h1.4c3,0,5.5,2.5,5.5,5.5s-2.5,5.5-5.5,5.5h-2.1c-0.8,3-1.9,4.4-3.4,6.3
		l-6.1,7.7H227c3,0,5.5,2.5,5.5,5.5s-2.5,5.5-5.5,5.5h-22c0,0-0.1-0.1-0.1-0.1l13.3,11.6c0.3,0,0.6-0.1,0.9-0.1c3.3,0,6.5,1.2,9,3.3
		l13.8,12.1V94H212.5z"/>
	<path fill="#FFFFFF" d="M175.2,206h14h13.5c-0.9-2-1.4-3.7-1.5-5.6l-12.8-11.1L175.2,206z"/>
	<path fill="#FFFFFF" d="M35.1,156c2.1,6,6.5,12.3,16,12.3c9.4,0,13.9-6.3,16-12.3H35.1z"/>
	<path fill="#FFFFFF" d="M120,167.7c0.7-1.6,1.6-3.1,2.7-4.5l5.7-7.1h-21.6C108.8,161,112.6,165.9,120,167.7z"/>
	<path fill="#CCCCCC" d="M205,237.1c0-1.2-0.9-2.1-2.1-2.1h-95.8c-1.2,0-2.1,0.9-2.1,2.1v2.8c0,1.2,0.9,2.1,2.1,2.1h95.8
		c1.2,0,2.1-0.9,2.1-2.1V237.1z"/>
	<path fill="#CCCCCC" d="M192,219.1c0-1.2-0.9-2.1-2.1-2.1h-69.8c-1.2,0-2.1,0.9-2.1,2.1v2.8c0,1.2,0.9,2.1,2.1,2.1h69.8
		c1.2,0,2.1-0.9,2.1-2.1V219.1z"/>
	<path fill="#FFFFFF" d="M209.8,129.5l-20.6-17.9c-1.6-1.4-3.6-2.2-5.6-2.2c-1.7,0-3.3,0.5-4.7,1.5l33.3,30.1
		C214,137.1,213.1,132.4,209.8,129.5z"/>
	<path fill="#FFFFFF" d="M130,172.1c-1.7,3.9-0.8,8.6,2.5,11.4l20.6,17.9c1.6,1.4,3.6,2.2,5.6,2.2c1.7,0,3.3-0.5,4.7-1.5L130,172.1z
		"/>
	<polygon fill="#FFFFFF" points="170.5,193.8 205.7,149.9 171.7,119.2 136.6,163.2 	"/>
	<polygon fill="#CCCCCC" points="195.4,180.4 205.6,189.3 208.1,186.2 197.9,177.2 	"/>
	<path fill="#FFFFFF" d="M265.7,231.3L220.8,192c-0.6-0.5-1.2-0.6-1.6-0.6c-0.8,0-1.5,0.3-1.9,0.9l-4.4,5.6c-0.8,1-0.7,2.5,0.3,3.4
		l44.8,39.3c0.6,0.5,1.2,0.6,1.6,0.6c0.8,0,1.5-0.3,1.9-0.9l4.4-5.6C266.8,233.7,266.7,232.2,265.7,231.3z"/>
	<path fill="#5980B7" d="M272.9,223l-20.1-17.6l-11-9.6l-13.8-12.1c-2.5-2.2-5.6-3.3-8.9-3.3c-0.3,0-0.6,0-0.9,0.1l-13.3-11.6
		c0,0,0.1,0.1,0.1,0.1h22c3,0,5.5-2.5,5.5-5.5s-2.5-5.5-5.5-5.5h-13.6l6.1-7.7c1.5-1.9,2.7-3.3,3.4-6.3h2.1c3,0,5.5-2.5,5.5-5.5
		s-2.5-5.5-5.5-5.5h-1.4c-0.9-4-3.1-8.5-6.6-11.5l-8.6-7.5H227c3,0,5.5-2.5,5.5-5.5s-2.5-5.5-5.5-5.5h-30c-0.4,0-0.7-0.1-1.1,0
		c-3.5-2.9-7.9-4.5-12.3-4.5c-6,0-11.6,2.7-15.4,7.4L152,126.3V59h55v0v24h-38c-3,0-5.5,2.5-5.5,5.5S166,94,169,94h41
		c0.4,0,0.8-0.1,1.3-0.1c0.4,0.1,0.8,0.1,1.3,0.1h29.3h0.2v101.8l11,9.6V84c0-1.5-0.7-3-1.8-4l-32.6-30.5c-1-1-2.4-1.5-3.8-1.5
		h-68.4c-3,0-5.4,2.5-5.4,5.5v73.7l-0.1-0.2l-10.6-15.3c-0.7-2.2-2.8-3.7-5.2-3.7H93V96.1c0-3.2-2.5-5.8-5.5-5.8S82,92.9,82,96.1
		V108H51c-2.4,0-4.4,1.4-5.2,3.6l-22.5,35.6c-0.5,0.8-0.7,1.6-0.8,2.5c0,0.2,0,0.4,0,0.5c0,0,0,0.1,0,0.1c0,0.2,0,0.4,0,0.7
		c1.2,9.7,8.6,28.2,28.5,28.2s27.4-18.4,28.5-28.2c0-0.2,0-0.4,0-0.7c0,0,0-0.1,0-0.1c0-0.2,0-0.4,0-0.5c-0.1-0.9-0.3-1.6-0.8-2.4
		L60.9,119H82v104H64c-3,0-5.5,2.5-5.5,5.5S61,234,64,234h30.2c0,0,0,0-0.1,0c-0.2,1-0.2,1.7-0.2,2.8v2.5c0,7.2,5.6,13.7,12.8,13.7
		h95.3c7.2,0,12.9-6.5,12.9-13.7v-2.5c0-7.1-6-12.7-13-12.9c0,0,0,0,0,0c0.1-0.8,0-1.8,0-2.6v-2.5c0-0.7,0.1-0.7,0-1.7h12l36.6,32
		c2.5,2.2,5.6,3.3,8.9,3.3c4.1,0,8-1.9,10.5-5.1l4.4-5.6C279.1,236,278.3,227.8,272.9,223z M238,83h-20V64.1L238,83z M51.1,168.3
		c-9.4,0-13.9-6.3-16-12.3h32C65,162,60.5,168.3,51.1,168.3z M64.3,145H37.8l13.2-21L64.3,145z M208.1,186.2l-2.5,3.2l-10.2-8.9
		l2.5-3.2L208.1,186.2z M192,221.9c0,1.2-0.9,2.1-2.1,2.1h-69.8c-1.2,0-2.1-0.9-2.1-2.1v-2.8c0-1.2,0.9-2.1,2.1-2.1h69.8
		c1.2,0,2.1,0.9,2.1,2.1V221.9z M106.9,156h21.6l-5.7,7.1c-1.1,1.4-2,3-2.7,4.6C112.6,166,108.8,161,106.9,156z M130,172.1
		l33.3,30.1c-1.4,0.9-3,1.5-4.7,1.5c-2.1,0-4-0.7-5.6-2.2l-20.6-17.9C129.2,180.7,128.3,175.9,130,172.1z M170.5,193.8l-33.9-30.6
		l35.1-44l33.9,30.6L170.5,193.8z M183.6,109.4c2.1,0,4,0.7,5.6,2.2l20.6,17.9c3.3,2.9,4.1,7.6,2.5,11.5l-33.3-30.1
		C180.3,109.9,182,109.4,183.6,109.4z M137.3,145H110l14.9-21.7l13.7,19.9L137.3,145z M93,119h21.6l-19.4,28.1
		c-0.6,0.8-0.9,1.7-0.9,2.7c0,0.1,0,0.1,0,0.1c0,0.1,0,0.2,0,0.3c0,0.3,0,0.6,0,0.8c1.1,8.7,7.7,24.2,24.2,27.5
		c0.6,5,2.9,9.8,6.9,13.3l15.7,13.7l0.2,0.2l0.2,0.3h-21.6c-13.7,0-13,12-12.8,17H93V119z M205,236.9v2.8c0,1.2-0.9,2.3-2.1,2.3
		h-95.8c-1.2,0-2.2-1.2-2.2-2.3v-2.8c0-1.2,1-1.9,2.2-1.9h12.5h69.6h13.7C204.1,235,205,235.7,205,236.9z M189.3,206h-14.2l0.1-0.3
		l13.3-16.7l12.8,11.2c0.1,1.9,0.6,3.7,1.5,5.4c0.1,0.2,0.2,0.5,0.4,0.7c-0.1-0.2-0.2-0.3-0.4-0.3H189.3z M266,234.7l-4.4,5.6
		c-0.5,0.6-1.2,0.9-1.9,0.9c-0.4,0-1.1-0.1-1.6-0.6l-44.8-39.3c-1-0.9-1.1-2.4-0.3-3.4l4.4-5.6c0.5-0.6,1.2-0.9,1.9-0.9
		c0.4,0,1.1,0.1,1.6,0.6l44.8,39.3C266.7,232.2,266.8,233.7,266,234.7z"/>
</g>
</svg>
