<?xml version="1.0" encoding="utf-8"?>
<!-- Generator: Adobe Illustrator 18.1.1, SVG Export Plug-In . SVG Version: 6.00 Build 0)  -->
<svg version="1.1" id="Layer_1" xmlns="http://www.w3.org/2000/svg" xmlns:xlink="http://www.w3.org/1999/xlink" x="0px" y="0px"
	 viewBox="0 0 300 300" enable-background="new 0 0 300 300" xml:space="preserve">
<g>
	<path fill="#CCCCCC" d="M103.1,166.5c-1.7,3.3-2.8,6.7-3.3,10.1c-1.1,8.3,1.5,16.4,7.8,24.2c0.2-20.4,9.5-41.4,17.8-56.1
		C114.8,151.7,107.4,159.1,103.1,166.5z"/>
	<path fill="#FFFFFF" d="M88.3,185.2c-0.5-3.7-0.4-7.2,0-10.2c2.9-20.8,22.4-40.3,52.3-52.2c10.3-4.1,16-9.3,17-15.5
		c1.4-8.6-5.8-18.8-11.8-25.3c-8,11.8-19.6,21.4-30.9,30.6c-17.3,14.2-33.6,27.6-34.1,47C80.7,169.6,83.8,178.1,88.3,185.2z"/>
	<path fill="#CCCCCC" d="M196.9,133.5c1.7-3.3,2.8-6.7,3.3-10.1c1.1-8.3-1.5-16.4-7.8-24.2c-0.2,20.4-9.5,41.4-17.8,56.1
		C185.2,148.3,192.6,140.9,196.9,133.5z"/>
	<path fill="#FFFFFF" d="M211.7,114.7c0.5,3.8,0.4,7.2,0,10.3c-2.9,20.8-22.4,40.3-52.3,52.2c-10.3,4.1-16,9.3-17,15.6
		c-1.4,8.7,5.8,18.9,11.8,25.3c8-11.8,19.6-21.4,30.9-30.6c17.3-14.2,33.6-27.6,34.1-47C219.3,130.3,216.2,121.8,211.7,114.7z"/>
	<g>
		<path fill="#5980B7" d="M146.3,133.1c13.5-5.7,21.1-13.7,22.8-23.9c3.3-20.2-19.7-40-20.7-40.9c-1.4-1.1-3.2-1.6-4.9-1.3
			c-1.7,0.3-3.2,1.5-4,3c-6.6,12.9-19.5,23.4-31.9,33.6c-18.5,15.2-37.7,30.9-38.3,55.7c-1,41.4,41.7,61,43.6,61.8
			c0.2,0.1,0.5-0.2,0.7-0.1c0.5,0.2,1.1-0.1,1.6-0.1c0,0,0,0,0,0c1.2,0,2.4,0,3.3-0.7c0,0,0.1,0.1,0.1,0.1c0.1-0.1,0.1,0,0.2-0.1
			c1.3-1.1,2.2-2.6,2.2-4.5c0-0.9-0.2-1.8-0.6-2.6C112.4,182.2,140.6,141,146.3,133.1z M88.3,185.2c-4.5-7.1-7.6-15.6-7.3-25.5
			c0.5-19.4,16.8-32.8,34.1-47c11.3-9.3,22.9-18.8,30.9-30.6c5.9,6.4,13.2,16.7,11.8,25.3c-1,6.2-6.8,11.5-17,15.5
			c-29.9,11.9-49.5,31.4-52.3,52.2C87.9,178,87.8,181.5,88.3,185.2z M99.8,176.6c0.5-3.4,1.6-6.8,3.3-10.1
			c4.2-7.4,11.7-14.7,22.3-21.8c-8.3,14.8-17.5,35.7-17.8,56.1C101.3,193,98.7,184.9,99.8,176.6z"/>
		<path fill="#5980B7" d="M187.1,78.8c-2.7-1.2-5.9-0.2-7.4,2.3c-1,1.7-1,3.7-0.2,5.4c8.2,31.1-20.1,72.4-25.8,80.4
			c-13.5,5.7-21.2,13.7-22.8,23.9c-3.3,20.2,19.7,40,20.7,40.9c1.1,0.9,2.4,1.4,3.8,1.4c0.4,0,0.8,0,1.1-0.1c1.7-0.3,3.2-1.5,4-3
			c6.6-12.9,19.5-23.4,31.9-33.6c18.5-15.2,37.7-30.9,38.3-55.7C231.7,99.2,188.9,79.6,187.1,78.8z M192.3,99.3
			c6.3,7.8,9,15.9,7.8,24.2c-0.5,3.4-1.6,6.8-3.3,10.1c-4.2,7.4-11.7,14.7-22.3,21.8C182.9,140.6,192.1,119.6,192.3,99.3z
			 M219,140.3c-0.5,19.4-16.8,32.8-34.1,47c-11.3,9.3-22.9,18.8-30.9,30.6c-5.9-6.4-13.2-16.6-11.8-25.3c1-6.2,6.7-11.5,17-15.6
			c29.9-11.9,49.5-31.4,52.3-52.2c0.4-3.1,0.5-6.5,0-10.3C216.2,121.8,219.3,130.3,219,140.3z"/>
	</g>
</g>
</svg>
