<?xml version="1.0" encoding="utf-8"?>
<!-- Generator: Adobe Illustrator 18.1.1, SVG Export Plug-In . SVG Version: 6.00 Build 0)  -->
<svg version="1.1" id="Layer_1" xmlns="http://www.w3.org/2000/svg" xmlns:xlink="http://www.w3.org/1999/xlink" x="0px" y="0px"
	 viewBox="0 0 300 300" enable-background="new 0 0 300 300" xml:space="preserve">
<g>
	<path fill="none" d="M141.3,157.8c-3.4-1.5-6.9-3.1-9.7-4.5c-3.2-1.6-7.3-2.7-10.7,2.9c-1.6,2.6-4.9,3.5-7.5,1.9s-3.5-4.9-1.9-7.5
		c4.4-7.3,13.2-13.1,25-7.1c7.1,3.6,18.6,8.3,23.4,10.3c2.6-0.2,5.1,1.4,5.8,4c1.7,6.2,2.4,16.4-1.5,26l12.8,1.1
		c2.8-6.7,9.3-20.4,19.9-32.8l-2.9-22.8l-40.5,15.2c-0.6,0.2-1.3,0.3-1.9,0.3c-0.7,0-1.4-0.1-2-0.4l-42-16.7l-6.4,59.4
		c0.6,0.3,1.1,0.6,1.6,0.9l6.3-1.8C111.6,180.2,119.7,165.4,141.3,157.8z"/>
	<path fill="none" d="M178,96.1c0-15.2-14.1-22.1-27.5-22.1c-13.4,0-27.5,6.9-27.5,22.1v6.9h55V96.1z"/>
	<path fill="none" d="M130,206.3c-9.9,0-15.7-5.1-18.7-9.2l-3.5,1c0.1,3.1-0.5,6.9-2.9,10.7c-1.6,2.6-3.8,4.5-6.6,6.3l-0.4,3.9h39.3
		c0.5-4,1.4-9.2,3.3-14.8C136.8,205.4,133.3,206.3,130,206.3z"/>
	<polygon fill="#CCCCCC" points="117.4,114 109.3,114 109.2,116.3 151.8,133.3 192.6,117.9 192.2,114 184,114 	"/>
	<path fill="#CCCCCC" d="M148.4,219h8c1.7-8,5.2-18.2,12.4-23.9l-5.6-0.5C153.2,195.1,149.6,211,148.4,219z"/>
	<path fill="#CCCCCC" d="M186.4,191.1l8.7,0.7c4.1-9.8,16.3-34.9,37.7-48.4c-0.3-1.1-0.6-2.1-0.9-3
		C204.4,149.2,189.4,183.8,186.4,191.1z"/>
	<path fill="#FFFFFF" d="M249.6,167c3.3-8.8,1.8-15.7,0.4-19.6c-30.7,9.7-45.9,51.7-46,52.1c-0.8,2.4-3.2,3.9-5.7,3.7l-17-1.6
		c-10,0.5-13.6,16.4-14.8,24.4h37.8C220.8,184,241,170.9,249.6,167z"/>
	<path fill="#FFFFFF" d="M119.6,189.8c1.3,2.1,4.4,5.4,10.4,5.4c3.6,0,7.9-1.2,12.7-3.6c13.2-6.6,14-19.3,13.3-26.3
		C130.4,169.8,121.8,184.6,119.6,189.8z"/>
	<path fill="#FFFFFF" d="M76.6,210C76.6,210,76.6,210,76.6,210c1,0,2.1-0.2,3.2-0.3c8.1-0.8,13.6-3.2,15.8-6.7
		c1.3-2.1,1.3-4.4,1.1-5.9c-3.3-1.9-11.9-6-23.9-6c-7.2,0-14.5,1.4-21.9,4.3C55,201.1,63.4,210,76.6,210z"/>
	<path fill="#5980B7" d="M257.3,137.9c-1.3-1.8-3.5-2.7-5.6-2.2c-3.1,0.7-6,1.6-8.9,2.7c-1.5-4.5-3.3-7.2-3.5-7.5
		c-1.3-1.8-3.5-2.7-5.6-2.2c-10.4,2.2-19.3,7.3-26.8,13.6l-4.3-34.2c0,0,0,0,0-0.1c0-0.3-0.1-0.6-0.2-0.9c0,0,0,0,0,0
		c-0.1-0.3-0.2-0.6-0.4-0.8c0,0,0-0.1-0.1-0.1c-0.1-0.2-0.3-0.5-0.5-0.7c0,0-0.1-0.1-0.1-0.1c-0.2-0.2-0.3-0.4-0.5-0.6
		c-0.1,0-0.1-0.1-0.2-0.1c-0.2-0.2-0.4-0.3-0.6-0.5c-0.1,0-0.1-0.1-0.2-0.1c-0.2-0.1-0.5-0.3-0.7-0.4c0,0-0.1,0-0.1,0
		c-0.3-0.1-0.6-0.2-0.9-0.2c0,0,0,0,0,0c-0.3-0.1-0.6-0.2-1-0.2c0,0,0-0.1-0.1-0.1c0,0,0,0,0,0c-0.2,0-0.2,0,0,0H189v-6.9
		c0-19.2-16-33.1-38.5-33.1S112,76.9,112,96.1v6.9h-7.8c0,0-0.7,0.2-1,0.2c0,0-0.1,0.1-0.1,0.1c-0.3,0.1-0.6,0.2-0.8,0.3
		c0,0-0.1,0.1-0.1,0.1c-0.3,0.1-0.5,0.2-0.8,0.4c0,0-0.1,0.1-0.1,0.1c-0.2,0.2-0.5,0.3-0.7,0.5c0,0-0.1,0.1-0.1,0.1
		c-0.2,0.2-0.4,0.4-0.6,0.6c0,0,0,0,0,0.1c-0.2,0.2-0.3,0.5-0.5,0.8c0,0,0,0,0,0c-0.1,0.3-0.3,0.6-0.4,0.9c0,0,0,0.1,0,0.1
		c-0.1,0.3-0.1,0.6-0.2,0.9c0,0,0,0.1,0,0.1l-8,74.4c-4.9-1.5-10.9-2.6-17.9-2.6c-5.9,0-11.9,0.8-17.9,2.5c1.7-3.2,3.5-6.4,4.9-9.3
		c0.8-1.6,3-5.9,10.8-2.5c2.8,1.2,6-0.1,7.2-2.8c1.2-2.8-0.1-6-2.8-7.2c-10.6-4.6-20.2-1.7-24.9,7.6c-4.4,8.5-11.8,21.8-11.9,21.9
		c-0.5,0.9-0.7,2-0.7,3c0,0.8,0.2,1.4,0.5,2.1c0.5,1,12.3,25.8,38.6,25.8c0,0,0,0,0,0c1.4,0,2.9-0.2,4.3-0.3c2.1-0.2,4-0.5,5.9-0.8
		l-0.5,4.6c-0.2,1.6,0.3,2.9,1.4,4c1,1.2,2.5,1.6,4.1,1.6h63.1c0,0,0,0.2,0,0.1c0,0.1,0,0.3,0,0.3c0,0.5,0,0.9-0.1,1.1
		c-0.1,1.5,0.5,2.8,1.5,3.9c1,1.1,2.5,1.6,4,1.6H208c2.3,0,4.1-1.3,4.9-3.4c0.5-1.4,9.1-25.4,18.1-35.5v26.2c0,3,2.5,5.5,5.5,5.5
		s5.5-2.5,5.5-5.5v-38.9c3-2.4,5-4.3,7-5.6v51.5c0,3,2.5,5.5,5.5,5.5s5.5-2.5,5.5-5.5V171c0-0.4,0.2-0.8,0.1-1.2
		C266.4,151.3,257.7,138.4,257.3,137.9z M231.9,140.5c0.3,0.8,0.6,1.8,0.9,3c-21.5,13.5-33.6,38.6-37.7,48.4l-8.7-0.7
		C189.4,183.8,204.4,149.2,231.9,140.5z M123,96.1c0-15.2,14.1-22.1,27.5-22.1c13.4,0,27.5,6.9,27.5,22.1v6.9h-55V96.1z
		 M109.3,114.2l0-0.2h74.3c0.1,0,0.2,0,0.3,0s0.2,0,0.3,0h8l0,0.2l0.4,3.9l-40.8,15.3l-42.6-17.1L109.3,114.2z M107.7,127.7l42,16.7
		c0.7,0.3,1.3,0.4,2,0.4c0.7,0,1.3-0.1,1.9-0.3l40.5-15.2l2.9,22.8c-10.6,12.4-17.1,26.1-19.9,32.8l-12.8-1.1
		c3.9-9.6,3.2-19.9,1.5-26c-0.7-2.6-3.2-4.2-5.8-4c-4.8-1.9-16.3-6.7-23.4-10.3c-11.8-5.9-20.7-0.2-25,7.1c-1.6,2.6-0.7,6,1.9,7.5
		s6,0.7,7.5-1.9c3.4-5.7,7.5-4.5,10.7-2.9c2.8,1.4,6.3,3,9.7,4.5c-21.6,7.6-29.7,22.4-32.1,28.4l-6.3,1.8c-0.4-0.3-1-0.6-1.6-0.9
		L107.7,127.7z M142.7,191.7c-4.8,2.4-9.1,3.6-12.7,3.6c-6,0-9-3.4-10.4-5.4c2.2-5.2,10.8-20.1,36.4-24.4
		C156.7,172.3,155.9,185.1,142.7,191.7z M79.8,209.7c-1.1,0.1-2.1,0.3-3.2,0.3c0,0,0,0,0,0c-13.2,0-21.6-8.9-25.7-14.6
		c7.4-2.9,14.7-4.4,21.9-4.4c12,0,20.5,4.1,23.9,6.1c0.2,1.5,0.2,3.8-1.1,5.9C93.4,206.5,87.9,208.9,79.8,209.7z M98.3,215.2
		C98.3,215.2,98.3,215.3,98.3,215.2c2.8-1.7,5-3.9,6.6-6.5c2.4-3.8,3-7.6,2.9-10.7l3.5-1c3,4.1,8.8,9.2,18.7,9.2
		c3.3,0,6.9-0.8,10.6-2c-1.9,5.6-3.3,14.7-3.3,14.7H97.9L98.3,215.2z M156.4,219h-8c1.2-8,4.8-23.9,14.8-24.4l5.6,0.4
		C161.7,200.8,158.1,211,156.4,219z M249.6,167c-8.6,3.9-28.7,17-45.3,59h-37.8c1.2-8,4.8-23.9,14.8-24.4l17,1.5
		c2.5,0.2,4.8-1.3,5.7-3.6c0.2-0.4,15.3-42.4,46-52.1C251.4,151.2,252.8,158.1,249.6,167z"/>
</g>
</svg>
