<?xml version="1.0" encoding="utf-8"?>
<!-- Generator: Adobe Illustrator 18.1.1, SVG Export Plug-In . SVG Version: 6.00 Build 0)  -->
<svg version="1.1" id="Layer_1" xmlns="http://www.w3.org/2000/svg" xmlns:xlink="http://www.w3.org/1999/xlink" x="0px" y="0px"
	 viewBox="0 0 300 300" enable-background="new 0 0 300 300" xml:space="preserve">
<g>
	<path fill="#FFFFFF" d="M123,95h13.4c1.5,0,3-0.4,4.5-0.4c10.8,0,20.5,8.7,27.4,24.3c3.5,8,6.2,17.5,7.8,27.8l11-12.2l-44.7-69.7
		L123,95z"/>
	<path fill="#FFFFFF" d="M88.1,106c-0.2,0-6.3,0.4-12.6,7.7c1.8,0.9,3.1,2.7,3.1,4.9c0,3-2.5,5.4-5.5,5.4h-4c-1.8,4-3.4,9-4.7,15
		h0.8c3,0,5.5,2.5,5.5,5.5s-2.5,5.5-5.5,5.5h-2.6c-0.6,5-1,10.2-1.1,16.2c2.9,0.2,5.2,2.6,5.2,5.6c0,2.9-2.3,5.2-5.2,5.4
		c0.2,6.7,0.6,12.9,1.3,17.9h2.4c3,0,5.5,2.5,5.5,5.5s-2.5,5.5-5.5,5.5h-0.4c1.2,5,2.6,10,4.2,13h4.2c3,0,5.5,2.6,5.5,5.6
		c0,2.3-1.4,4.2-3.4,5c6.1,7.2,12,7.4,12.3,7.4h33.2c-1.6-2-3.1-4-4.5-7h-2.1c-3,0-5.5-2.3-5.5-5.4c0-2.1,1.2-4,2.9-4.9
		c-1.6-4.2-2.9-8.7-4.1-13.7h-2.4c-3,0-5.5-2.5-5.5-5.5s2.5-5.5,5.5-5.5h0.3c-0.9-6-1.4-12-1.6-18h-2.7c-3,0-5.5-2.5-5.5-5.5
		s2.5-5.5,5.5-5.5h2.7c0.2-5,0.6-11,1.3-16h-2c-3,0-5.5-2.5-5.5-5.5s2.5-5.5,5.5-5.5h3.9c1.1-5,2.6-10,4.3-15h-1.2
		c-3,0-5.5-2.5-5.5-5.5s2.5-5.5,5.5-5.5h6.2c1.4-2,3-5,4.6-7H88.1z"/>
	<path fill="#CCCCCC" d="M140.9,105.7c-12.4,0-26.2,27.1-26.2,66.1s13.7,66.1,26.1,66.1c3.4,0,7.2-2.1,10.2-5.9v-13.2
		c-2,2.8-4.9,4.5-8.2,4.5c-17.3,0-17.8-45.5-17.8-50.7s0.5-50.7,17.9-50.7c13.5,0,16.8,27.7,17.6,42.3l6-6.7
		C163.6,126.4,151.7,105.7,140.9,105.7z"/>
	<path fill="#FFFFFF" d="M142.8,133.6c-2.7,3.7-6.8,17.1-6.8,39s4.1,35.4,6.8,39c2.7-3.7,6.8-17.1,6.8-39S145.5,137.2,142.8,133.6z"
		/>
	<path fill="#FFFFFF" d="M195.8,141L162,178.8V237h76v-96H195.8z M203.5,152.8c2.3,1.9,2.7,5.4,0.8,7.7l-18.6,22.7
		c-1.1,1.3-2.7,2-4.3,2c-1.2,0-2.5-0.4-3.5-1.2c-2.3-1.9-2.7-5.4-0.8-7.7l18.6-22.7C197.7,151.2,201.1,150.9,203.5,152.8z
		 M227.2,221c-2.1,3.8-6.7,8.3-16.6,8.3c-9.5,0-14-4.4-16.1-8c-8.2-14.5,8.1-42.6,11.4-48.1c1-1.6,2.8-2.6,4.7-2.6
		c1.9,0,3.7,1,4.7,2.6C218.7,178.5,235.3,206.4,227.2,221z"/>
	<path fill="#FFFFFF" d="M238,121.4c0-0.2,0-0.4-0.2-0.4h-22.4c-0.2,0-0.4,0.2-0.4,0.4v7.6h23V121.4z"/>
	<path fill="#CCCCCC" d="M210.7,187.4c-5.2,10.7-9.4,23.4-6.6,28.5c0.3,0.6,1.4,2.4,6.5,2.4c5.5,0,6.6-2,7-2.6
		C220.4,210.6,216,197.9,210.7,187.4z"/>
	<g>
		<path fill="#5980B7" d="M249,135.6c0.1-0.3,0-0.7,0-1v-13.2c0-6.3-4.9-11.4-11.2-11.4h-22.4c-6.3,0-11.4,5.1-11.4,11.4v8.6h-2.9
			l-46.9-72.8c-2.6-4-7-6.4-11.8-6.4s-9.2,2.3-11.8,6.3L106.3,95H88.1c-1.1,0-11,0.4-20.5,11c-11.4,12.8-17.2,35-17.2,65.8
			c0,30.6,5.7,52.6,16.8,65.4c9.3,10.6,19.2,10.8,20.3,10.8h48.5c1.6,1,3.3,0.8,4.9,0.8c3.8,0,7.6-1.2,11.1-3.3
			c1,1.6,2.7,2.5,4.7,2.5h87c3,0,5.4-2.2,5.4-5.2v-107C249,135.7,249,135.7,249,135.6c-0.4,2.6-2.7,4.6-5.4,4.6
			C246.3,140.3,248.6,138.2,249,135.6z M215,121.4c0-0.2,0.1-0.4,0.4-0.4h22.4c0.2,0,0.2,0.2,0.2,0.4v7.6h-23V121.4z M142.4,64.8
			l44.7,69.6l-11,12.3c-1.6-10.3-4.3-19.7-7.8-27.8c-6.9-15.6-16.6-24.4-27.4-24.4c-1.5,0-3,0.4-4.5,0.4H123L142.4,64.8z M87.5,237
			c-0.2,0-6.1-0.1-12.3-7.3c2-0.8,3.4-2.9,3.4-5.1c0-3-2.5-5.6-5.5-5.6h-4.2c-1.5-3-3-8-4.2-13h0.4c3,0,5.5-2.5,5.5-5.5
			s-2.5-5.5-5.5-5.5h-2.4c-0.7-5-1.2-11.1-1.3-17.9c2.9-0.2,5.2-2.5,5.2-5.4c0-2.9-2.3-5.4-5.2-5.6c0.2-5.9,0.5-11.1,1.1-16.1h2.6
			c3,0,5.5-2.5,5.5-5.5s-2.5-5.5-5.5-5.5h-0.8c1.3-6,3-11,4.7-15h4c3,0,5.5-2.3,5.5-5.4c0-2.2-1.3-4.1-3.1-5
			c6.3-7.3,12.3-7.6,12.6-7.6h32.8c-1.6,2-3.1,5-4.6,7h-6.2c-3,0-5.5,2.5-5.5,5.5s2.5,5.5,5.5,5.5h1.2c-1.7,5-3.1,10-4.3,15h-3.9
			c-3,0-5.5,2.5-5.5,5.5s2.5,5.5,5.5,5.5h2c-0.7,5-1.1,11-1.3,16h-2.7c-3,0-5.5,2.5-5.5,5.5s2.5,5.5,5.5,5.5h2.7
			c0.2,6,0.7,12,1.6,18h-0.3c-3,0-5.5,2.5-5.5,5.5s2.5,5.5,5.5,5.5h2.4c1.1,5,2.5,9.5,4.1,13.8c-1.7,0.9-2.9,2.7-2.9,4.8
			c0,3,2.5,5.4,5.5,5.4h2.1c1.4,3,2.9,5,4.5,7H87.5z M142.8,121.9c-17.3,0-17.8,45.5-17.8,50.7s0.4,50.7,17.8,50.7
			c3.4,0,6.2-1.7,8.2-4.5v13.2c-3,3.8-6.8,5.9-10.2,5.9c-12.4,0-26.1-27.1-26.1-66.1s13.8-66.1,26.2-66.1
			c10.8,0,22.7,20.7,25.5,51.8l-6,6.7C159.6,149.6,156.4,121.9,142.8,121.9z M149.7,172.6c0,21.9-4.1,35.4-6.8,39
			c-2.7-3.7-6.8-17.1-6.8-39s4.1-35.4,6.8-39C145.5,137.2,149.7,150.7,149.7,172.6z M238,237h-76v-58.2l33.8-37.8H238V237z"/>
		<path fill="#5980B7" d="M177.2,176.3c-1.9,2.3-1.6,5.8,0.8,7.7c1,0.8,2.3,1.2,3.5,1.2c1.6,0,3.2-0.7,4.3-2l18.6-22.7
			c1.9-2.3,1.6-5.8-0.8-7.7c-2.3-1.9-5.8-1.6-7.7,0.8L177.2,176.3z"/>
		<path fill="#5980B7" d="M194.5,221.3c2.1,3.7,6.5,8,16.1,8c9.9,0,14.5-4.5,16.6-8.3c8.1-14.6-8.5-42.5-11.9-48
			c-1-1.6-2.8-2.6-4.7-2.6c-1.9,0-3.7,1-4.7,2.6C202.6,178.6,186.4,206.8,194.5,221.3z M210.7,187.4c5.3,10.5,9.7,23.2,6.9,28.3
			c-0.4,0.6-1.4,2.6-7,2.6c-5.1,0-6.2-1.8-6.5-2.4C201.3,210.8,205.5,198,210.7,187.4z"/>
	</g>
</g>
</svg>
