<?xml version="1.0" encoding="utf-8"?>
<!-- Generator: Adobe Illustrator 18.1.1, SVG Export Plug-In . SVG Version: 6.00 Build 0)  -->
<svg version="1.1" id="Layer_1" xmlns="http://www.w3.org/2000/svg" xmlns:xlink="http://www.w3.org/1999/xlink" x="0px" y="0px"
	 viewBox="0 0 300 300" enable-background="new 0 0 300 300" xml:space="preserve">
<g>
	<path fill="#FFFFFF" d="M179.2,88.4c-0.1-0.2-0.2-0.3-0.3-0.5c-0.3-0.8-0.7-1.2-0.9-1.5c-0.2,0.2-0.5,0.4-0.8,0.5l-8.5,4.7
		c-1.9,1.5-4.2,2.3-6.5,2.3c-2.1,0-4.1-0.6-5.9-1.8l-12-6.1c-0.2-0.1-0.3-0.2-0.5-0.3c-0.2,0.2-0.5,0.7-0.9,1.4
		c-0.1,0.2-0.2,0.3-0.3,0.4l-8.3,14.5h52.1L179.2,88.4z"/>
	<polygon fill="#CCCCCC" points="192.3,113 128.1,113 122.4,123 197.7,123 	"/>
	<path fill="#FFFFFF" d="M156.3,149c20.4,0,40.5-2.2,60-6.2l-11.2-8.8h-87.8l2.5,12.7C130.1,148,142.5,149,156.3,149
		C156.3,149,156.3,149,156.3,149z"/>
	<path fill="#FFFFFF" d="M101.8,112H88.5l-16,82.7l11.5,10.5c5.3-0.8,18.3-3.3,32.2-9l1.5-2L101.8,112z"/>
	<polygon fill="#FFFFFF" points="102.5,101 111.7,76 78,76 87.7,101 	"/>
	<path fill="#CCCCCC" d="M217,224v-4.3c-2-0.5-5.4-1-9.4-1c-6,0-12.6,1-19.6,2.9v2.4H217z"/>
	<path fill="#FFFFFF" d="M164.9,199.4c-1.1,1.1-2.5,1.6-3.9,1.6c-1.4,0-2.8-0.5-3.9-1.6l-9.2-9c-1.1,0.9-2.2,1.7-3.3,2.5l7.1,7
		c2.2,2.1,2.2,5.6,0.1,7.8c-1.1,1.1-2.5,1.6-3.9,1.6c-1.4,0-2.8-0.5-3.9-1.6l-8.8-8.7c-18.2,10.6-37.8,14.9-47.2,16.5l1,8.4h66.7
		c6.8-5,15.2-8.9,26.1-12.2c9.2-2.8,17.9-4.1,25.8-4.1c6.6,0,11.5,1,14.7,2c8.2-12.2,5.6-27.5,3.3-35.7c-10.6,5.5-22.5,8.2-35.4,8.2
		c-13.1,0-24.1-2.9-29.7-4.8c-1.5,1.9-3,3.7-4.6,5.4l8.9,8.7C167,193.7,167,197.2,164.9,199.4z"/>
	<path fill="#5980B7" d="M233.7,163.7c-0.7-1.5-1.9-2.6-3.4-3c-1.5-0.5-3.2-0.2-4.5,0.6c-10.3,6.6-22.2,9.9-35.4,9.9
		c-16.6,0-29.5-5.4-29.6-5.4c-2.4-1-5.3-0.2-6.7,2c-1.8,2.6-3.7,5.1-5.9,7.4l-1.8-1.8c-2.2-2.1-5.6-2.1-7.8,0.1
		c-2.1,2.2-2.1,5.6,0.1,7.8l1.4,1.4c-1.1,0.9-2.2,1.7-3.3,2.5l-3.4-3.4c-1.9-1.9-4.8-2.1-7-0.6l-4.4-22.8c10,1.1,21.6,1.8,34.4,1.8
		c0,0,0,0,0,0c25.3,0,50.2-3,74-9c2-0.5,3.6-2.3,4.1-4.3c0.4-2.1-0.4-4.2-2-5.4L211.1,125L189,83.6c-2.2-5.2-6.3-8.4-11-8.4
		c-2.3,0-4.6,0.8-6.5,2.3l-8.5,4.7c-0.3,0.2-0.6,0.3-0.8,0.5c-0.2-0.1-0.3-0.2-0.5-0.3l-12-6.1c-1.8-1.2-3.8-1.8-5.9-1.8
		c-4.5,0-8.6,3-10.8,7.9l-19.3,33.8l-1.7-9l12.8-34.6c0.6-1.7,0.4-3.7-0.6-5.2s-2.7-2.5-4.5-2.5H70c-1.8,0-3.5,1-4.5,2.5
		s-1.2,3.5-0.6,5.2l13.3,34.6l-17.1,88.5c-0.4,1.9,0.3,3.8,1.7,5.1l14,12.7l2,16.7c0.3,2.8,2.7,4.7,5.5,4.7h73.5
		c1.3,0,2.4-0.3,3.4-1.1c4.3-3.5,9.9-6.2,15.9-8.7v4.6c0,3,2.6,5.2,5.6,5.2h40c3,0,5.4-2.2,5.4-5.2v-9.6c0-0.1,0.3-0.2,0.3-0.3
		C248.2,197.1,234.3,165,233.7,163.7z M216.3,142.8c-19.5,4-39.6,6.2-60,6.2c0,0,0,0,0,0c-13.8,0-26.2-1-36.6-2.3l-2.5-12.7h87.8
		L216.3,142.8z M128.1,113h64.2l5.3,10h-75.3L128.1,113z M142.7,87.5c0.1-0.2,0.2-0.3,0.3-0.5c0.3-0.7,0.6-1.1,0.9-1.3
		c0.2,0.1,0.3,0.2,0.5,0.3l12,6.1c1.8,1.2,3.8,1.8,5.9,1.8c2.3,0,4.6-0.8,6.5-2.3l8.5-4.7c0.3-0.2,0.5-0.3,0.8-0.5
		c0.2,0.3,0.6,0.7,0.9,1.5c0.1,0.2,0.2,0.2,0.3,0.4l7.3,13.6h-52.1L142.7,87.5z M78,76h33.7l-9.2,25H87.7L78,76z M83.9,205.2
		l-11.5-10.6l16-82.7h13.3l15.9,82.2l-1.5,1.9C102.2,201.9,89.3,204.4,83.9,205.2z M155.8,224H89.1l-1-8.4c9.3-1.6,29-6,47.2-16.6
		l8.8,8.7c1.1,1.1,2.5,1.6,3.9,1.6c1.4,0,2.8-0.5,3.9-1.6c2.1-2.2,2.1-5.6-0.1-7.8l-7.1-7c1.1-0.8,2.2-1.7,3.3-2.5l9.2,9
		c1.1,1.1,2.5,1.6,3.9,1.6c1.4,0,2.8-0.5,3.9-1.6c2.1-2.2,2.1-5.6-0.1-7.8l-8.9-8.7c1.6-1.7,3.2-3.5,4.6-5.4
		c5.7,1.9,16.6,4.8,29.7,4.8c12.9,0,24.7-2.8,35.4-8.2c2.3,8.2,4.9,23.5-3.3,35.7c-3.2-1-8.1-2-14.7-2c-7.9,0-16.6,1.3-25.8,4.1
		C171,215.1,162.7,219,155.8,224z M217,224h-29v-2.4c7-1.9,13.6-2.9,19.6-2.9c4,0,7.4,0.4,9.4,1V224z"/>
</g>
</svg>
