<?xml version="1.0" encoding="utf-8"?>
<!-- Generator: Adobe Illustrator 18.1.1, SVG Export Plug-In . SVG Version: 6.00 Build 0)  -->
<svg version="1.1" id="Layer_1" xmlns="http://www.w3.org/2000/svg" xmlns:xlink="http://www.w3.org/1999/xlink" x="0px" y="0px"
	 viewBox="0 0 300 300" enable-background="new 0 0 300 300" xml:space="preserve">
<g>
	<path fill="none" d="M47.9,173.6c-0.6,6.4,0.8,11.1,4.3,14.2c5,4.5,13.1,5,18.9,4.8c-4.6-9.7-7.1-20.5-7.1-31.9
		c0-1.4,0-2.8,0.1-4.1C55,161.9,48.5,167.8,47.9,173.6z"/>
	<path fill="#FFFFFF" d="M106.2,196.4c-5.4-0.3-10-3.4-11.9-8.4H80c7.3,16,20.8,28.3,37.4,34.3c-2-2.8-3.8-6.1-5.5-9.7
		C109.6,207.7,107.7,202.3,106.2,196.4z"/>
	<path fill="#FFFFFF" d="M198.5,133c-2.9-7-6.8-11.9-11.3-16.8l-15.1,6.8c0.9,3.2,1.7,6,2.4,10H198.5z"/>
	<path fill="#FFFFFF" d="M83.5,126.8c-1.2,2-2.3,4.2-3.3,6.2h10.1L83.5,126.8z"/>
	<path fill="#FFFFFF" d="M117.4,99c-5.9,2.1-11.4,5.1-16.4,8.7l9.1,5.3c0.6-1.5,1.2-2.9,1.8-4.3C113.5,105.1,115.4,101.9,117.4,99z"
		/>
	<path fill="#FFFFFF" d="M102.2,170.2c-0.2-3.1-0.3-6.3-0.3-9.5c0-5.6,0.3-11.1,0.9-16.4l-1.4-1.2h-6.6c-6.7,2-13.6,5-20,8
		c-0.5,3.2-0.7,6.4-0.7,9.7c0,6,0.8,11.3,2.3,17.3h17.9C95.6,174,98.5,171.5,102.2,170.2z"/>
	<path fill="#FFFFFF" d="M130,110l-4.8-4.6c-2,2.9-3.8,6.5-5.5,10.5L130,110z"/>
	<path fill="#FFFFFF" d="M162.8,126.7l-14.3,6.3h15.8C163.8,131,163.3,128.7,162.8,126.7z"/>
	<path fill="#FFFFFF" d="M125.7,143l-13.4,5.9c-0.3,3.8-0.5,7.7-0.5,11.8c0,3.3,0.1,6.6,0.3,9.7c3.4,1.4,6,4.6,7.3,7.6H131v-0.2
		v-13.9v-0.5c0-2.8,2.2-5.4,5-5.4h28v-15H125.7z"/>
	<path fill="#FFFFFF" d="M115.7,193.2c3.6,14,9.2,24.3,15.3,29.4V188h-11.6C118.6,190,117.3,191.8,115.7,193.2z"/>
	<path fill="#FFFFFF" d="M174,143v15h4v-7.1c0-2.8,2.1-4.9,4.9-4.9h23.9c2.8,0,5.2,2.1,5.2,4.9v7.1h4v-15H174z"/>
	<rect x="188" y="156" fill="#FFFFFF" width="14" height="2"/>
	<polygon fill="#FFFFFF" points="242.6,233 251,221.9 251,179.5 242.2,168 238,168 238,233 	"/>
	<polygon fill="#FFFFFF" points="152,233 152,168 149.8,168 141,179.5 141,221.9 149.4,233 	"/>
	<rect x="173" y="168" fill="#FFFFFF" width="44" height="65"/>
	<rect x="160" y="167" fill="#CCCCCC" width="5" height="67"/>
	<rect x="225" y="167" fill="#CCCCCC" width="5" height="67"/>
	<path fill="#CCCCCC" d="M106.9,177.3c-3.1,0-5.6,2.5-5.6,5.6s2.5,5.6,5.6,5.6c3.1,0,5.6-2.5,5.6-5.6S109.9,177.3,106.9,177.3z"/>
	<path fill="#FFFFFF" d="M111.2,138.4l105.3-46.3l-0.8-0.8c-3.8-3.7-8.8-5.7-14.1-5.7c-2.6,0-5.1,0.5-7.5,1.5l-24,9.6
		c-1.4,0.5-2.9,0.5-4.2-0.2l-50-26.7l-8.3,5l34.2,32.6c1.1,1.1,1.7,2.7,1.5,4.2c-0.2,1.6-1.1,3-2.5,3.7l-21,12c-1.6,0.9-3.5,0.9-5,0
		l-22.7-13.2l-5.7,1.7L111.2,138.4z"/>
	<path fill="#5980B7" d="M257,158L257,158l-1,0h-29.9H226v-20.5c0-2.8-2.2-4.5-4.9-4.5h-11.7c-3.1-8-7.3-14.7-12.6-20.8L226,99.5
		c3.5-1.5,4-3.2,4.3-4.9c0.3-1.6-0.2-3.3-1.4-4.5l-6.1-5.9c-5.7-5.5-13.2-8.6-21.1-8.6c-3.9,0-7.7,0.7-11.3,2.2l-21.8,8.7
		l-50.5-26.9c-1.6-0.8-3.4-0.8-4.9,0.1l-16.3,9.9c-1.3,0.8-2.2,2.2-2.4,3.7c-0.2,1.5,0.4,3.1,1.5,4.2l14.2,13.6
		c-7.9,3.3-15.1,8-21.3,13.6l-13.8,4.2c-1.7,0.5-3,1.9-3.4,3.7c-0.4,1.8,0.2,3.6,1.5,4.8l2.8,2.5c-5.1,8-8.8,17-10.6,26.7
		c-13.2,6.9-24.4,15.8-25.3,26.3c-0.8,9,1.5,16,6.9,20.8c6.2,5.6,15.3,6.9,22.2,6.9c2.4,0,4.5-0.2,6.2-0.3
		c11.9,19.2,32.2,32.7,55.7,35.3v2v0c0,0.1,0,0.2,0,0.3c0,0.2,0,0.5,0.1,0.7c0,0.1,0.1,0.2,0.1,0.3c0.1,0.2,0.1,0.4,0.2,0.6
		c0,0,0,0.2,0,0.2c0.7,1.8,2.5,3.3,4.5,3.3H256c2.3,0,4.2-1.8,4.8-3.9c0-0.1,0.1-0.3,0.1-0.4c0-0.2,0.1-0.5,0.1-0.8
		c0-0.1,0-0.2,0-0.3v0v-13.9v-45.8v-13.9v-0.5C261,160.9,259,158.4,257,158z M76.3,178c-1.5-6-2.3-11.3-2.3-17.3
		c0-3.3,0.2-6.5,0.7-9.7c6.4-3,13.3-6,20-8h6.6l1.4,1.2c-0.6,5.3-0.9,10.8-0.9,16.4c0,3.2,0.1,6.4,0.3,9.5c-3.6,1.4-6.5,3.8-7.9,7.8
		H76.3z M106.9,177.3c3.1,0,5.6,2.5,5.6,5.6s-2.5,5.6-5.6,5.6c-3.1,0-5.6-2.5-5.6-5.6S103.8,177.3,106.9,177.3z M131,188v34.5
		c-6.1-5.1-11.8-15.4-15.3-29.4c1.6-1.4,2.9-3.2,3.7-5.2H131z M131,178h-11.5c-1.3-3-4-6.2-7.3-7.6c-0.2-3.1-0.3-6.4-0.3-9.7
		c0-4.1,0.2-8,0.5-11.8l13.4-5.9H164v15h-0.4h-19H136c-2.8,0-5,2.6-5,5.4v0.5v13.9V178z M202,158h-0.2H188v-2h14V158z M217,168v0.4
		v64.2v0.4h-44v-0.4v-64.2V168H217z M225,233v-65h5v65H225z M160,233v-65h5v65H160z M162.8,127c0.5,2,1,4,1.5,6h-15.4L162.8,127z
		 M149.4,232.7l-8.4-10.8v-42.4l8.8-11.1l0.4-0.4h1.9v0.4v64.2v0.4h-2.4L149.4,232.7z M238,233v-0.4v-64.2V168h3.9l0.4,0.4l8.8,11.1
		v42.4l-8.4,10.7l-0.2,0.3H238z M216,143v15h-4v-7.1c0-2.8-2.4-4.9-5.2-4.9h-23.9c-2.8,0-4.9,2.1-4.9,4.9v7.1h-0.1H174v-15H216z
		 M198.5,133h-24.1c-0.7-4-1.4-6.9-2.3-10.1l15.2-6.6C191.8,121.2,195.6,126,198.5,133z M125.2,105.4l4.8,4.6l-10.3,5.9
		C121.3,111.9,123.2,108.4,125.2,105.4z M117.4,99c-2,2.8-3.8,6.1-5.5,9.7c-0.6,1.4-1.2,2.8-1.8,4.3l-9.1-5.3
		C105.9,104.1,111.5,101.2,117.4,99z M92.1,114.2l22.7,13.2c1.5,0.9,3.4,0.9,5,0l21-12c1.4-0.8,2.3-2.2,2.5-3.7
		c0.2-1.6-0.4-3.1-1.5-4.2l-34.2-32.6l8.3-5l50,26.7c1.3,0.7,2.8,0.8,4.2,0.2l24-9.6c2.4-1,4.9-1.5,7.5-1.5c5.3,0,10.3,2,14.1,5.7
		l0.8,0.8l-105.3,46.3l-24.8-22.5L92.1,114.2z M90.3,133H80.2c1-2,2.1-4.2,3.3-6.2L90.3,133z M52.2,187.8c-3.5-3.1-4.9-7.7-4.3-14.2
		c0.5-5.8,7-11.7,16.2-17.1c-0.1,1.4-0.1,2.7-0.1,4.1c0,11.4,2.6,22.2,7.1,31.9C65.4,192.8,57.2,192.2,52.2,187.8z M80,188h14.3
		c1.9,5,6.5,8.2,11.9,8.4c1.5,5.8,3.4,11.3,5.7,16.2c1.7,3.6,3.5,6.9,5.5,9.7C100.8,216.3,87.3,204,80,188z"/>
</g>
</svg>
