<?xml version="1.0" encoding="utf-8"?>
<!-- Generator: Adobe Illustrator 18.1.1, SVG Export Plug-In . SVG Version: 6.00 Build 0)  -->
<svg version="1.1" id="Layer_1" xmlns="http://www.w3.org/2000/svg" xmlns:xlink="http://www.w3.org/1999/xlink" x="0px" y="0px"
	 viewBox="156 246 300 300" enable-background="new 156 246 300 300" xml:space="preserve">
<g>
	<path fill="#FFFFFF" d="M345.2,421.2c1.1,3.1-0.5,6.5-3.6,7.5l-20.8,7.2c4.4,1.2,9.6,2.1,15.4,2.1c0,0,0,0,0,0
		c19.4,0,35.2-10.8,47-32.4c-4.9-2.3-13.7-5.6-23.9-5.6c-16,0-29.6,8.1-40.4,24.1l18.7-6.6C340.8,416.4,344.1,418.1,345.2,421.2z"/>
	<path fill="#FFFFFF" d="M305.7,347c6.8,0,12.3-5.5,12.3-12.3s-5.5-12.3-12.3-12.3c-6.8,0-12.3,5.5-12.3,12.3S298.9,347,305.7,347z"
		/>
	<path fill="#CCCCCC" d="M333.1,496h65.5c-5.1-13-27.4-22.1-54.1-22.1c-9.1,0-17.6,1.1-25.2,3C326.6,482.2,331.5,489,333.1,496z"/>
	<path fill="#CCCCCC" d="M267.5,473.8c-26.7,0-49,9.2-54.1,22.2h77h31.3C316.5,483,294.2,473.8,267.5,473.8z"/>
	<path fill="#FFFFFF" d="M267.5,421.2c1.1-3.1,4.5-4.7,7.5-3.6l18.6,6.5c-10.8-15.9-24.3-23.9-40.3-23.9c-10.1,0-18.9,3.3-23.9,5.6
		c11.8,21.7,27.6,32.6,47,32.6c5.9,0,11.3-1,15.7-2.3l-21-7.4C268,427.6,266.4,424.2,267.5,421.2z"/>
	<g>
		<path fill="#5980B7" d="M305.7,357.6c12.6,0,22.9-10.3,22.9-22.9s-10.3-22.9-22.9-22.9c-12.6,0-22.9,10.3-22.9,22.9
			S293.1,357.6,305.7,357.6z M305.7,322.3c6.8,0,12.3,5.5,12.3,12.3s-5.5,12.3-12.3,12.3c-6.8,0-12.3-5.5-12.3-12.3
			S298.9,322.3,305.7,322.3z"/>
		<path fill="#5980B7" d="M301,370.2v9c0,3,2.5,5.5,5.5,5.5s5.5-2.5,5.5-5.5v-9c0-3-2.5-5.5-5.5-5.5S301,367.1,301,370.2z"/>
		<path fill="#5980B7" d="M306.5,304.7c3,0,5.5-2.5,5.5-5.5v-9c0-3-2.5-5.5-5.5-5.5s-5.5,2.5-5.5,5.5v9
			C301,302.2,303.5,304.7,306.5,304.7z"/>
		<path fill="#5980B7" d="M261.5,340h9c3,0,5.5-2.5,5.5-5.5s-2.5-5.5-5.5-5.5h-9c-3,0-5.5,2.5-5.5,5.5S258.5,340,261.5,340z"/>
		<path fill="#5980B7" d="M336,334.5c0,3,2.5,5.5,5.5,5.5h9c3,0,5.5-2.5,5.5-5.5s-2.5-5.5-5.5-5.5h-9C338.5,329,336,331.5,336,334.5
			z"/>
		<path fill="#5980B7" d="M277.1,356l-6.8,6.8c-2.1,2.1-2.1,5.4,0,7.5c1,1,2.4,1.6,3.8,1.6s2.7-0.5,3.8-1.6l6.8-6.8
			c2.1-2.1,2.1-5.4,0-7.5C282.6,354,279.2,354,277.1,356z"/>
		<path fill="#5980B7" d="M331.1,314.9c1.4,0,2.7-0.5,3.8-1.6l6.8-6.8c2.1-2.1,2.1-5.4,0-7.5c-2.1-2.1-5.4-2.1-7.5,0l-6.8,6.8
			c-2.1,2.1-2.1,5.4,0,7.5C328.4,314.3,329.8,314.9,331.1,314.9z"/>
		<path fill="#5980B7" d="M277.1,313.3c1,1,2.4,1.6,3.8,1.6s2.7-0.5,3.8-1.6c2.1-2.1,2.1-5.4,0-7.5l-6.8-6.8c-2.1-2.1-5.4-2.1-7.5,0
			c-2.1,2.1-2.1,5.4,0,7.5L277.1,313.3z"/>
		<path fill="#5980B7" d="M327.4,356c-2.1,2.1-2.1,5.4,0,7.5l6.8,6.8c1,1,2.4,1.6,3.8,1.6s2.7-0.5,3.8-1.6c2.1-2.1,2.1-5.4,0-7.5
			l-6.8-6.8C332.8,354,329.5,354,327.4,356z"/>
		<path fill="#5980B7" d="M410.7,501.1c-0.5-21.8-28.5-38.1-66-38.1c-11.8,0-22.7,1.6-31.7,4.5v-22.8c5,2.2,13.7,4.3,23.2,4.3
			c0,0,0,0,0,0c17.3,0,41.5-7.5,58.9-43.1l2.1-4.3l-4-2.5c-0.6-0.4-15.1-9.5-33.8-9.5c-15.4,0-36.5,6.3-53.1,34.9
			c-16.6-28.6-37.6-34.9-53.1-34.9c-18.8,0-33.2,9.2-33.8,9.6l-4,2.6l2.1,4.2c17.4,35.7,41.9,43.2,59.1,43.2
			c9.7,0,18.3-2.3,24.3-4.5v23.3c-10-3.1-21.1-4.8-33.3-4.8c-37.8,0-66.3,16.5-66.3,38.6c0,3,2.3,5.4,5.4,5.4h77h44.4h0h77
			c0,0,0,0,0,0c3,0,5.5-2.4,5.5-5.4C410.7,501.4,410.7,501.3,410.7,501.1z M359.4,400c10.1,0,18.9,3.2,23.9,5.5
			c-11.8,21.7-27.6,32.4-47,32.4c0,0,0,0,0,0c-5.8,0-11-0.9-15.4-2.1l20.8-7.3c3.1-1.1,4.7-4.4,3.6-7.5c-1.1-3.1-4.5-4.7-7.5-3.6
			l-18.7,6.6C329.8,408.1,343.4,400,359.4,400z M276.4,438.4c-19.4,0-35.2-11-47-32.6c5-2.3,13.7-5.6,23.9-5.6
			c16,0,29.5,8,40.3,23.9l-18.6-6.5c-3.1-1.1-6.5,0.5-7.5,3.6c-1.1,3.1,0.5,6.5,3.6,7.5l21,7.4C287.7,437.4,282.3,438.4,276.4,438.4
			z M290.4,496h-77c5.1-13,27.4-22.2,54.1-22.2s49,9.2,54.1,22.2H290.4z M333.1,496c-1.6-7-6.5-13.7-13.8-19
			c7.6-1.9,16.1-3.1,25.2-3.1c26.7,0,49,9.1,54.1,22.1H333.1z"/>
	</g>
</g>
</svg>
