<?xml version="1.0" encoding="utf-8"?>
<!-- Generator: Adobe Illustrator 18.1.1, SVG Export Plug-In . SVG Version: 6.00 Build 0)  -->
<svg version="1.1" id="Layer_1" xmlns="http://www.w3.org/2000/svg" xmlns:xlink="http://www.w3.org/1999/xlink" x="0px" y="0px"
	 viewBox="0 0 300 300" enable-background="new 0 0 300 300" xml:space="preserve">
<g>
	<path fill="#FFFFFF" d="M234,248h8v-98c-2-0.8-4.7-2.1-6.4-3.8c-0.4,0.4-0.6,0.8-1.6,1.2V248z"/>
	<path fill="#FFFFFF" d="M113.2,146.3c-3,2.9-7.2,4.7-11.7,4.7h-1.3c-4.5,0-8.6-1.8-11.7-4.7c-3,2.9-7.2,4.7-11.7,4.7h-1.3
		c-4.5,0-8.9-1.8-12-4.7c-1.8,1.7-4.5,2.9-6.5,3.7v98h9v-85.7c0-2.9,3.2-5.3,6.2-5.3h17c0.6,0,1.2-0.3,1.9-0.3s1.3,0.3,1.9,0.3h18
		c2.9,0,5,2.4,5,5.3V248h9v-97h-0.2C120.3,151,116.2,149.2,113.2,146.3z"/>
	<rect x="77" y="168" fill="#FFFFFF" width="8" height="34"/>
	<rect x="77" y="213" fill="#FFFFFF" width="8" height="35"/>
	<rect x="96" y="168" fill="#FFFFFF" width="9" height="34"/>
	<rect x="96" y="213" fill="#FFFFFF" width="9" height="35"/>
	<path fill="#FFFFFF" d="M211.8,146.3c-2.4,2.2-5.4,3.8-8.7,4.4c-8.3,4.5-17.7,7.1-27.8,7.1c-9.9,0-19.3-2.5-27.4-6.9
		c-3.9-0.4-7.7-2.1-10.3-4.6c-0.3,0.3-1.4,0.6-1.4,0.9V248h24v-24h-14.5l8.9-38.4l-5.8,5.4l-4.2-5.6l6.5-8.1c0,0,3,1.9,9,2.2v-10.3
		c0-1.4,1.1-2.5,2.5-2.5s2.5,1.1,2.5,2.5v10.2c6-0.5,7.8-2.1,7.8-2.1l6.4,7.1L175,190l-4.8-4l9.1,38H165v24h32v-28.7l-2.7,6.3
		c-0.4,0.9-1,1.4-2,1.4h-5.9c-0.8,0-1.5-0.3-1.9-0.9s-0.7-1.3-0.5-2.1l5.5-25.1l2.1-12.4l-3.9,3.9l-4.7-7l7.2-5.5h4
		c0,1,0.7,3.2,2.7,3.9v-12.8c0-1.4,1.1-2.5,2.5-2.5s2.5,1.1,2.5,2.5v12.7c2-0.8,4.3-2.8,4.3-3.8h3.9l8.2,5.5l-5.1,7.1l-4.4-3.5
		l2.4,13.4l5.3,23.5c0.2,0.7,0,1.5-0.5,2s-1.2,0.9-2,0.9h-5.1c-0.9,0-2.1-0.4-2.5-1.2l-4.6-7.7V248h22v-97h-0.6
		C218.9,151,214.8,149.2,211.8,146.3z"/>
	<path fill="#CCCCCC" d="M113.2,114h5.7c-1.2-5-1.8-9.8-1.8-14.8c0-7,1.2-13.2,3.5-20.2H68.7l-20.2,35h3.8h11.5h24.6H113.2z"/>
	<path fill="#CCCCCC" d="M233.5,99.5c0,5-0.6,9.5-1.8,14.5h4.8H248h2.8l-19.5-30.7C232.7,88.4,233.5,93.9,233.5,99.5z"/>
	<path fill="#FFFFFF" d="M57.7,125H44v8.9c0,3.5,3.4,6.1,6.9,6.1h1.3c3.5,0,5.8-2.6,5.8-6.1V125H57.7z"/>
	<path fill="#FFFFFF" d="M69,125v8.9c0,3.5,3,6.1,6.5,6.1h1.3c3.5,0,6.2-2.6,6.2-6.1V125H69z"/>
	<path fill="#FFFFFF" d="M93,133.9c0,3.5,3.7,6.1,7.2,6.1h1.3c3.5,0,5.5-2.6,5.5-6.1V125H93V133.9z"/>
	<path fill="#FFFFFF" d="M118,133.9c0,3.5,3.3,6.1,6.8,6.1h1.3c2.1,0,4-0.8,5.1-2.4c-3.4-3.9-6.3-8.6-8.5-12.6H118V133.9z"/>
	<path fill="#FFFFFF" d="M218.7,138.2c1.2,1.3,2.8,1.8,4.7,1.8h1.3c3.5,0,5.3-2.6,5.3-6.1V125h-2.3
		C225.4,129,222.3,134.1,218.7,138.2z"/>
	<path fill="#FFFFFF" d="M242.6,125H241v8.9c0,3.5,3.6,6.1,7.1,6.1h1.3c3.5,0,5.6-2.6,5.6-6.1V125H242.6z"/>
	<path fill="#FFFFFF" d="M70,60v9h55.7c2-4,4.3-6,6.8-9H70z"/>
	<path fill="#FFFFFF" d="M227,60h-9.1c2.6,3,4.8,5,6.8,9h2.3V60z"/>
	<path fill="#FFFFFF" d="M175.2,52.2c-26,0-47.2,21.2-47.2,47.2s21.2,47.2,47.2,47.2s47.2-21.2,47.2-47.2S201.3,52.2,175.2,52.2z
		 M208.7,85.8l-9.6,14.8l-6.1-4.4V127h-35V96.3l-4.4,4.4l-8.3-14.9L158.4,74h7.1c0,10,4.8,11.5,10.8,11.5c5.9,0,10.8-1.5,10.8-11.5
		h7L208.7,85.8z"/>
	<path fill="#FFFFFF" d="M194.2,201l-4.6,21h1.2l7.1-14.9c0.4-0.9,1.2-1.4,2.2-1.4c0.9,0,1.8,0.4,2.3,1.3l8.2,15h0.5l-4.7-21H194.2z
		"/>
	<g>
		<path fill="#5980B7" d="M158,96.3V127h35V96.1l6.1,4.6l9.3-14.9L194,74h-7c0,10-4.8,11.5-10.8,11.5c-6,0-10.8-1.5-10.8-11.5h-7.1
			l-13,11.8l8.2,14.8L158,96.3z"/>
		<path fill="#5980B7" d="M263.8,114.9c-0.1,0-0.3-0.1-0.3-0.1c0,0-26.4-40.7-26.4-40.7V54.5c0-2.9-1.4-5.5-4.4-5.5h-28
			c0.9,1,0.9,0.7,0,0.1c-8.6-5.1-18.7-8-29.4-8s-20.7,2.9-29.4,7.9c-0.9,0.5-0.9,0.9,0-0.1H65.7c-2.9,0-5.7,2.6-5.7,5.5v18.2
			L34.8,116c-0.3,0.4-0.5,0.8-0.7,1.3c0,0,0.1,0,0,0c-0.1,0.3-0.2,0.6-0.2,0.9c0,0.1-0.5,0.1-0.5,0.2c-0.1,0.3-0.5,0.6-0.5,0.9
			c0,0,0,0,0,0v14.5c0,7.9,6,14.7,13,16.6v103.3c0,2.9,3.4,5.3,6.3,5.3H248c2.9,0,5-2.3,5-5.3V150.5c8-1.8,13-8.6,13-16.6v-14.5
			C266,117.5,265.2,115.9,263.8,114.9z M250.7,114H248h-11.5h-4.8c0,0,0,0,0-0.1c1.2-4.7,1.8-9.5,1.8-14.5c0-5.6-0.8-11-2.3-16.1
			L250.7,114z M227,60v9h-2.1c-0.1,0-0.1-0.2-0.2-0.3c-1.9-3.1-4.1-5.7-6.6-8.7H227z M175.2,52.2c26,0,47.2,21.2,47.2,47.2
			s-21.2,47.2-47.2,47.2S128,125.5,128,99.5S149.2,52.2,175.2,52.2z M211.1,145.5c0,0-0.1-0.1-0.1-0.1c0,0,0,0,0,0
			C211,145.4,211,145.5,211.1,145.5z M70,60h62.4c-2.5,3-4.7,5.6-6.6,8.7c-0.1,0.1-0.1,0.3-0.2,0.3H70V60z M68.7,79h51.8
			c-2.2,5-3.5,13.4-3.5,20.4c0,5,0.6,9.9,1.8,14.5c0.2,0.9,0.2,1.1,0,0.1h-5.7H88.5H63.9H52.3h-3.8L68.7,79z M107.4,135.1
			c-0.6,2.8-2.8,4.9-5.9,4.9h-1.3c-3.5,0-7.2-2.6-7.2-6.1V125h14v8.9C107,134.3,107.3,134.7,107.4,135.1z M83,125v7.9
			c0,3.5-2.7,7.1-6.2,7.1h-1.3c-3.5,0-6.5-2.6-6.5-6.1V125H83z M52.2,140h-1.3c-3.5,0-6.9-2.6-6.9-6.1V125h13.7H58v8.4
			C58,136.9,55.7,140,52.2,140z M85,248h-8v-35h8V248z M85,202h-8v-34h8V202z M105,248h-9v-35h9V248z M105,202h-9v-34h9V202z
			 M125,248h-9v-85.7c0-2.9-2.1-5.3-5-5.3H93.4c-0.1,0-0.2-0.1-0.3-0.1c-0.6-0.2-1.2-0.3-1.9-0.3s-1.3,0.1-1.9,0.3
			c-0.1,0-0.2,0.1-0.3,0.1H72.2c-2.9,0-6.2,2.4-6.2,5.3V248h-9v-97.9c0,0,0.3,0,0.3,0c2.3-0.8,4.6-2.1,6.4-3.8c0,0,0.1,0,0.1,0
			c3,2.9,7.2,4.7,11.7,4.7h1.3c4.5,0,8.8-1.9,11.9-4.8c3,2.9,6.9,4.8,11.5,4.8h1.3c4.5,0,8.6-1.9,11.6-4.7c3,2.9,7.2,4.7,11.7,4.7
			h0.2V248z M126.1,140h-1.3c-3.5,0-6.8-2.6-6.8-6.1V125h5c2.2,5,5,8.7,8.3,12.4C130.1,139,128.2,140,126.1,140z M200,205.7
			c-0.9,0-1.8,0.5-2.2,1.4l-7.1,14.9h-1.2l4.6-21h12l4.7,21h-0.5l-8.2-15C201.8,206.2,200.9,205.7,200,205.7z M224,248h-22v-29.9
			l4.6,7.7c0.4,0.8,1.6,1.2,2.5,1.2h5.1c0.8,0,1.5-0.3,2-0.9s0.7-1.3,0.5-2.1l-5.3-23.5l-2.4-13.5l4.4,3.4l5.1-7l-8.2-5.5h-3.9
			c0,1-2.3,3.2-4.3,4v-12.9c0-1.4-1.1-2.5-2.5-2.5s-2.5,1.1-2.5,2.5v13c-2-0.7-2.7-3.2-2.7-4.2h-4l-7.2,5.5l4.7,7.1l3.9-3.9
			l-2.1,12.4l-0.3,2.1l0.3-2.1l-5.5,25.1c-0.2,0.7,0,1.4,0.5,2s1.2,0.9,1.9,0.9h5.9c1,0,1.5-0.5,2-1.4l2.7-6.3V248h-32v-24h14.3
			l-9.1-38l4.8,4l4.2-5.6l-6.5-7.1c0,0-1.8,1.6-7.8,2.1v-10.2c0-1.4-1.1-2.5-2.5-2.5s-2.5,1.1-2.5,2.5v10.3c-6-0.3-9-2.2-9-2.2
			l-6.6,8.1l4.3,5.6l5.8-5.4l-8.9,38.4H160v24h-24V147.4c0,0,0.4-0.1,0.4-0.1c0.4-0.3,0.9-0.7,1.2-1c0,0,6.2,4.1,10.1,4.5
			c8.2,4.4,17.6,6.9,27.5,6.9c10.1,0,19.6-2.6,27.8-7.1c3.3-0.6,6.3-2.1,8.7-4.3c0,0,0,0,0.1,0c3,2.9,7.2,4.7,11.7,4.7h0.9H224V248z
			 M224.7,140h-1.3c-1.9,0-3.5-0.8-4.7-2c3.5-3.9,6.4-8,8.7-13h2.5v8.9c0,0.7,0.4,1.3,0.4,1.9C229.6,138.3,227.5,140,224.7,140z
			 M242,248h-8V147.8c0-0.1,0.6-0.2,0.7-0.3c0.5-0.3,1-0.8,1.5-1.2c1.7,1.6,3.7,3,5.9,3.7c0,0-0.1,0-0.1,0V248z M255,133.9
			c0,3.5-2.1,6.1-5.6,6.1h-1.3c-3.5,0-7.1-2.6-7.1-6.1V125h1.6H255V133.9z"/>
	</g>
</g>
</svg>
