<?xml version="1.0" encoding="utf-8"?>
<!-- Generator: Adobe Illustrator 18.1.1, SVG Export Plug-In . SVG Version: 6.00 Build 0)  -->
<svg version="1.1" id="Layer_1" xmlns="http://www.w3.org/2000/svg" xmlns:xlink="http://www.w3.org/1999/xlink" x="0px" y="0px"
	 viewBox="0 0 300 300" enable-background="new 0 0 300 300" xml:space="preserve">
<g>
	<path fill="none" d="M146,136.6C146,136.6,146,136.6,146,136.6c-2.8,4.6-4.7,9.7-5.7,15.1C141.3,146.3,143.3,141.2,146,136.6z"/>
	<path fill="none" d="M105,127.9c0,0-0.1-0.1-0.1-0.1c-10.8,11.6-28.5,18.1-36.8,20.6c-2.5,0.8-4.2,1.2-4.5,1.2
		c-0.3,0.1-0.6,0.1-0.9,0.1c0.4,0,0.9,0,1.3-0.1c0.3-0.1,1.5-0.5,4.5-1.2C76.5,145.9,94.2,139.5,105,127.9z"/>
	<path fill="none" d="M153.8,126.9c0.3-0.3,0.6-0.5,0.8-0.8c0,0,0,0,0,0c0,0-0.1,0-0.1,0c0,0,0,0,0.1,0
		C154.3,126.3,154.1,126.6,153.8,126.9z"/>
	<path fill="none" d="M151.9,128.8c0.3-0.3,0.6-0.6,0.9-0.9C152.5,128.1,152.2,128.4,151.9,128.8z"/>
	<path fill="none" d="M153.8,126C153.8,126,153.8,126,153.8,126C153.8,126,153.8,126,153.8,126C153.8,126,153.8,126,153.8,126z"/>
	<path fill="none" d="M140.1,152.9c-0.1,0.5-0.1,0.9-0.2,1.4C140,153.8,140,153.3,140.1,152.9z"/>
	<path fill="none" d="M139.6,156.6c0,0.1,0,0.2,0,0.4C139.6,156.9,139.6,156.7,139.6,156.6z"/>
	<path fill="#CDCCCC" d="M104.9,87.2c4.2-3.1,9.6-4.8,15.7-4.8c1.1,0,2.2,0.1,3.3,0.2c-3.5-7-10.7-11.7-19-11.7
		c-8.3,0-15.4,4.8-19,11.7c1.1-0.1,2.2-0.2,3.3-0.2C95.3,82.4,100.7,84.1,104.9,87.2z"/>
	<path fill="#FFFFFF" d="M129.8,188c-7-9-9.6-20.5-6.6-33.5c1-4.4,2.9-8.2,3.9-11.4c0,0,0-0.1,0-0.1c-7-3.5-16.2-8.4-22.4-15.1
		C93.8,139.5,76,145.9,68,148.4v11.6c0,20.1,16.8,36.6,37.5,36.6C114.7,196.6,123.2,193,129.8,188C129.7,188,129.8,188,129.8,188z"
		/>
	<path fill="#CDCCCC" d="M101.1,118.1c0.8-1.2,2.2-2,3.7-2s2.9,0.7,3.7,2c5.3,7.9,15.3,13.6,23.9,17.3c5.9-6.4,12.8-8.5,17.5-9.1
		c0,0,0,0,0,0c1.9-9.4-0.3-17.4-6.7-24.7c-5.4-6.1-14.5-10.2-22.8-10.2c-3.7,0-8.9,0.8-12.2,4.8c-0.9,1-2.1,1.6-3.4,1.6
		s-2.6-0.6-3.4-1.6c-3.4-4-8.5-4.8-12.2-4.8c-8.3,0-17.4,4.1-22.8,10.2c-9.3,10.6-9.8,22.5-1.6,38.3
		C72.7,137.6,92.7,130.6,101.1,118.1z"/>
	<path fill="#CDCCCC" d="M139.6,156.6c0.1-0.8,0.1-1.6,0.2-2.4c0.1-0.5,0.1-0.9,0.2-1.4c0.1-0.4,0.1-0.8,0.2-1.2
		c1-5.4,2.9-10.5,5.6-15.1c-5.3,2.3-11.5,7.5-14.3,19.7c-2.7,12,0.3,22.2,7.3,28.8V160c0-1,0.3-2,0.4-3
		C139.4,156.9,139.6,156.7,139.6,156.6z"/>
	<path fill="#CDCCCC" d="M232,185.4c7-6.6,10.3-16.9,7.6-29c-2.8-12.6-8.8-17.8-13.8-20c4.1,6.9,6.2,15,6.2,23.5V185.4z"/>
	<path fill="#FFFFFF" d="M185.5,122.6c-20.6,0-37.5,16.8-37.5,37.4v34c0,19.5,16.7,35,36.1,35h4.3c19.5,0,34.6-15.5,34.6-35v-34
		C223,139.4,206.1,122.6,185.5,122.6z"/>
	<path fill="#5A81B8" d="M248.7,154.5c-5.8-26.4-23.9-28.5-29.3-28.5c-0.6,0-1.1,0-1.5,0.1c0.7,0.7,0.7,0.7,0,0
		c-8.3-7.8-19.4-12.5-31.7-12.5c-9.9,0-19.1,3.1-26.6,8.4c0.5-9.7-2.6-18.4-9.5-26.3c-4.1-4.7-9.7-8.4-15.7-10.7
		c-3.3-13.3-15.2-23.2-29.5-23.2S78.7,71.7,75.4,85c-6.1,2.3-11.7,6-15.7,10.7c-12.4,14.2-12.8,31.1-1,51.7c0.1,0.2,0,0.4,0.2,0.6
		c0.1,0.2,0.2,0.3,0.2,0.5v11.4c0,25.1,20.9,45.5,46.5,45.5c11.8,0,22.6-4.3,30.8-11.5c1.1,0.8,2.2,1.5,3.4,2.2
		c0-0.7-0.2-1.4-0.2-2.1c0,0.7,0.2,1.2,0.2,1.9c1.1,23.5,20.7,42,44.4,42h4.3c23.6,0,42.8-18.4,44.1-41.6c0-0.4,0-0.7,0-1.1
		c0,0.4,0,0.9,0,1.3C246.5,188.6,252.8,172.8,248.7,154.5z M153.8,126C153.8,126,153.8,126,153.8,126C153.8,126,153.8,126,153.8,126
		C153.8,126,153.8,126,153.8,126z M104.9,70.8c8.3,0,15.4,4.8,19,11.7c-1.1-0.1-2.2-0.2-3.3-0.2c-6.1,0-11.5,1.7-15.7,4.8
		c-4.2-3.1-9.6-4.8-15.7-4.8c-1.1,0-2.2,0.1-3.3,0.2C89.4,75.6,96.6,70.8,104.9,70.8z M66.4,101.6c5.4-6.1,14.5-10.2,22.8-10.2
		c3.7,0,8.9,0.8,12.2,4.8c0.9,1,2.1,1.6,3.4,1.6s2.6-0.6,3.4-1.6c3.4-4,8.5-4.8,12.2-4.8c8.3,0,17.4,4.1,22.8,10.2
		c6.4,7.3,8.6,15.2,6.7,24.7c0,0,0,0,0,0c-4.7,0.6-11.7,2.7-17.5,9.1c-8.6-3.7-18.6-9.4-23.9-17.3c-0.8-1.2-2.2-2-3.7-2
		s-2.9,0.7-3.7,2c-8.4,12.5-28.4,19.5-36.4,21.9C56.6,124.1,57.1,112.2,66.4,101.6z M105.5,196.6C84.8,196.6,68,180,68,159.9v-0.3
		v-11.3v-0.1c9-2.6,26-9,36.6-20.4c0,0,0.2,0.1,0.2,0.1c6.2,6.6,14.8,11.1,22.4,15.1c0,0,0,0,0,0c-1.6,3-3,7.1-4,11.5
		c-3,13-0.5,24.5,6.5,33.5c0,0,0,0,0,0C123.2,193,114.7,196.6,105.5,196.6z M140.3,151.7c-0.1,0.4-0.1,0.8-0.2,1.2
		c-0.1,0.5-0.1,0.9-0.2,1.4c-0.1,0.8-0.2,1.6-0.2,2.4c0,0.1-0.3,0.2-0.3,0.4c-0.1,1-0.4,2-0.4,3v25.1c-7-6.6-10.1-16.9-7.3-28.8
		c2.8-12.1,8.9-17.4,14.2-19.7c0,0,0.1,0,0.2,0C143.3,141.2,141.3,146.3,140.3,151.7z M223,194c0,19.5-15.1,35-34.6,35h-4.3
		c-19.5,0-36.1-15.5-36.1-35v-34c0-20.6,16.9-37.4,37.5-37.4S223,139.4,223,160V194z M232,185.4V160c0-8.5-2-16.6-6-23.4
		c5,2.3,10.8,7.7,13.5,19.9C242.1,168.6,239,178.9,232,185.4z"/>
</g>
</svg>
