<?xml version="1.0" encoding="utf-8"?>
<!-- Generator: Adobe Illustrator 18.1.1, SVG Export Plug-In . SVG Version: 6.00 Build 0)  -->
<svg version="1.1" id="Layer_1" xmlns="http://www.w3.org/2000/svg" xmlns:xlink="http://www.w3.org/1999/xlink" x="0px" y="0px"
	 viewBox="0 0 300 300" enable-background="new 0 0 300 300" xml:space="preserve">
<g>
	<path fill="#FFFFFF" d="M212,194.6c-3.5-5.4-3.9-11.5-4.1-16.4c-0.4-7.3-0.9-7.6-2.7-8.3c-0.6-0.3-1.2-0.4-1.8-0.4
		c-4.6,0-11,5.8-13.4,8c-4.4,4-9.3,5.1-13.2,6c-4.1,0.9-7.3,1.6-11.6,6c-3.6,3.6-5.5,10.1-2.6,14.1c1.9,2.6,4.8,3.1,11.2,3.6
		c2.1,0.2,4.2,0.4,6.4,0.7c7.8,1.4,12.8,5.7,16.4,8.9c1.6,1.4,2.9,2.6,4.1,3.2c1.4,0.8,2.7,1.6,3.9,2.4c1,0.7,2.8,1.8,3.5,2
		c0.4-0.1,2-0.8,4.9-3.9C222.4,210.7,212.4,195.3,212,194.6z"/>
	<path fill="#CCCCCC" d="M114,140.1c-5.9-2.6-9.5-7.6-12.4-11.5c-3.4-4.7-5-5.7-6-5.7c0,0-0.6,0-1,0.1c-5.1,0.8-7.7,11-8.7,14.8
		c-1.5,5.8-5,9.4-7.9,12.2c-2.9,3-5.3,5.3-6.6,11.4c-1.1,5,0.9,11.7,5.6,13.5c0.8,0.3,1.5,0.5,2.3,0.5c2.6,0,5.8-1.7,9.2-3.5
		c1.9-1,3.8-2,5.8-2.9c3.4-1.4,6.9-2.1,10.8-2.1c2.9,0,5.5,0.4,7.8,0.7c1.8,0.3,3.3,0.4,4.6,0.4c0.3,0,0.5-0.3,0.7-0.4
		c1.4-0.1,2.8-0.6,4-0.6h0.6h0.6c0.7,0,2.8,0.4,3.5,0.2c0.2-0.3,1.3-1.4,2-5.7C131.7,148,114.7,140.4,114,140.1z"/>
	<g>
		<path fill="#5980B7" d="M210,159.2c-2.2-1-4.4-1.4-6.6-1.4c-8.9,0-17,7.2-21.3,11.1c-5.4,4.9-14,1.1-25.2,12.4
			c-7.2,7.2-10.4,20.1-3.8,29.3c6.7,9.2,17.6,7.7,25.1,9c7.5,1.3,10.8,7.6,17.1,11c3.7,1.9,7.6,5.7,12.9,5.7c3.7,0,8.1-1.9,13.5-7.7
			c13-13.9,5.1-32.9,0.1-40.4C216.9,180.7,223.9,165.4,210,159.2z M213.1,220.6c-2.9,3.1-4.6,3.8-4.9,3.9c-0.7-0.2-2.5-1.3-3.5-2
			c-1.2-0.7-2.5-1.6-3.9-2.4c-1.2-0.6-2.6-1.8-4.1-3.2c-3.6-3.2-8.5-7.5-16.4-8.9c-2.2-0.4-4.3-0.6-6.4-0.7c-6.4-0.5-9.4-1-11.2-3.6
			c-2.9-4-1-10.5,2.6-14.1c4.4-4.4,7.6-5.1,11.6-6c3.9-0.9,8.8-1.9,13.2-6c2.4-2.2,8.8-8,13.4-8c0.6,0,1.2,0.1,1.8,0.4
			c1.7,0.8,2.3,1,2.7,8.3c0.3,4.9,0.6,11,4.1,16.4C212.4,195.3,222.4,210.7,213.1,220.6z"/>
		<path fill="#5980B7" d="M248.5,152.7c6.8-8.3,8-19.2,2.7-24.3c-5.3-5.1-15-2.5-21.8,5.8c-6.8,8.3-8,19.2-2.7,24.3
			S241.8,161.1,248.5,152.7z"/>
		<path fill="#5980B7" d="M264.5,170.1c-3-6.4-12.2-7.1-20.4-1.5c-8.3,5.6-12.5,15.2-9.5,21.6c3,6.4,12.2,7.1,20.4,1.5
			S267.5,176.5,264.5,170.1z"/>
		<path fill="#5980B7" d="M199.4,146.7c7.1,1.2,15-6.4,17.7-17.2c2.7-10.7-0.9-20.4-8-21.7s-15,6.4-17.7,17.2
			S192.3,145.4,199.4,146.7z"/>
		<path fill="#5980B7" d="M170.2,158.4c6.9-1.3,12.1-10,11.8-19.4c-0.4-9.5-6.3-16.1-13.1-14.8s-12.1,10-11.8,19.4
			C157.4,153.1,163.3,159.7,170.2,158.4z"/>
		<path fill="#5980B7" d="M118.8,129.4c-7.7-3.4-10.4-18.3-23.1-18.3c-0.9,0-1.8,0.1-2.8,0.2c-12.4,1.9-16.4,16.3-18.2,23.4
			c-1.8,7.1-11.2,8.6-14.5,24.2C58,169,62.3,181.7,73,185.8c2.3,0.9,4.4,1.2,6.5,1.2c7.7,0,14-5,19.6-7.3c2.2-0.9,4.2-1.2,6.3-1.2
			c4.1,0,8.1,1.2,12.4,1.2c0.6,0,1.2,0,1.8-0.1c0.9-0.1,1.9-0.1,3-0.1c0.4,0,0.8,0,1.2,0c6.6,0,14.3-0.4,17.1-15.9
			C144.2,144.8,127.1,133.1,118.8,129.4z M129.3,161.6c-0.8,4.3-1.8,5.3-2,5.6c-0.7,0.2-2.8-0.2-3.5-0.2h-0.6h-0.6
			c-1.2,0-2.5,0.5-4,0.6c-0.2,0-0.5,0.3-0.7,0.3c-1.3,0-2.8-0.1-4.6-0.4c-2.3-0.3-4.9-0.7-7.8-0.7c-3.9,0-7.4,0.7-10.8,2.2
			c-2,0.9-4,1.9-5.8,2.9c-3.4,1.8-6.6,3.5-9.2,3.5c-0.8,0-1.5-0.1-2.3-0.5c-4.7-1.8-6.7-8.4-5.6-13.5c1.3-6.1,3.6-8.5,6.6-11.4
			c2.8-2.9,6.3-6.4,7.9-12.2c1-3.8,3.6-14,8.7-14.8c0.4-0.1,1-0.1,1-0.1c1,0,2.6,1.1,6,5.7c2.9,4,6.5,8.9,12.4,11.5
			C114.7,140.4,131.7,148.1,129.3,161.6z"/>
		<path fill="#5980B7" d="M105.3,103.1c7.2,1.5,14-6.2,15.2-17c1.2-10.8-3.7-20.8-10.9-22.3c-7.2-1.5-14,6.2-15.2,17
			C93.2,91.7,98.1,101.7,105.3,103.1z"/>
		<path fill="#5980B7" d="M143.3,91.7c-6-3.7-13.8,0.1-17.3,8.5c-3.5,8.4-1.5,18.2,4.6,21.8c6,3.7,13.8-0.1,17.3-8.5
			C151.4,105.2,149.4,95.4,143.3,91.7z"/>
		<path fill="#5980B7" d="M76,107.4c6.6-2.8,9.1-13.6,5.5-24.1s-11.9-16.8-18.5-14c-6.6,2.8-9.1,13.6-5.5,24.1
			C61.1,104,69.4,110.2,76,107.4z"/>
		<path fill="#5980B7" d="M57.7,111c-5.8-8.1-14.6-10.8-19.7-6c-5.1,4.8-4.5,15.3,1.3,23.4c5.8,8.1,14.6,10.8,19.7,6
			C64,129.6,63.5,119.1,57.7,111z"/>
	</g>
</g>
</svg>
