<?xml version="1.0" encoding="utf-8"?>
<!-- Generator: Adobe Illustrator 18.1.1, SVG Export Plug-In . SVG Version: 6.00 Build 0)  -->
<svg version="1.1" id="Layer_1" xmlns="http://www.w3.org/2000/svg" xmlns:xlink="http://www.w3.org/1999/xlink" x="0px" y="0px"
	 viewBox="0 0 300 300" enable-background="new 0 0 300 300" xml:space="preserve">
<g>
	<path fill="#FFFFFF" d="M75,63h138c2.2,0,3.9,2,3.9,4.2v15.4c2,1.7,2.8,3.8,3.6,6.2c0.1,0.3,0.2,0.7,0.4,1c1.2-0.3,2.6-0.4,4.1-0.4
		c1.5,0,3.9,0.2,4.9,0.7V51H58v69.3c3-6,8-11.1,13-15.1v-38C71,65,72.8,63,75,63z"/>
	<path fill="#FFFFFF" d="M150.5,153h-11.9c-0.3,1-0.7,2-1.1,3.1c1.1,1.3,2.1,2.9,3.1,4.4C143.5,157.4,146.9,155,150.5,153z"/>
	<path fill="#FFFFFF" d="M182,129c-0.4-1.3-0.8-2.7-1.1-4c-3.3,2.1-7.3,3.9-12.9,5c-16.5,3.2-27.6-11.1-36.5-22.6
		c-4.7-6.1-9.2-11.9-13.2-13.6c0,0-2.2-0.6-7.8,5.3c17.3,5.8,29.9,22.3,29.9,41.6c0,1.4-0.1,2.3-0.2,4.3H165
		C171.4,141,177.4,136.4,182,129z"/>
	<path fill="#FFFFFF" d="M121.4,86.5c5.9,2.6,11,9.1,16.4,16.1c8.3,10.8,17,21.9,28.7,19.6c6-1.2,9.6-3.5,13.3-6.1
		c0-1.3,0-2.4,0.1-3.4c0.2-2.4,0.7-4.2,1.4-5.4c-0.6-1.4-1.1-3-1.6-4.8c-2.8,4.9-8,8.2-14.1,8.2c-8.9,0-16.1-7.2-16.1-16.1
		s7.2-16.1,16.1-16.1c6.8,0,12.5,4.2,14.9,10.1c0.3-0.5,0.7-1,1.1-1.4c2.2-2.5,5.5-3.7,9.4-3.7c1.9,0,4.1,0.3,6.1,1
		c-0.1-2.3,0.3-4.2,1.4-5.7c1.2-1.6,3.1-2.5,5.3-2.5c1.5,0,3.1,0.4,5.1,1.2V71H79v29.6c6-2.4,11.4-3.7,17.6-3.7
		c1.7,0,3.3,0.1,4.9,0.3C109.6,87.5,116,84.1,121.4,86.5z"/>
	<path fill="#CCCCCC" d="M165.6,86.4c-4.5,0-8.1,3.6-8.1,8.1s3.6,8.1,8.1,8.1s8.1-3.6,8.1-8.1S170.1,86.4,165.6,86.4z"/>
	<path fill="#FFFFFF" d="M237,238v-24h-6.2h-78.1c-1,9-3.3,16-6.7,24H237z"/>
	<path fill="#CCCCCC" d="M186.1,136.9c-7.3,9.7-16.8,14.7-25,19c-6.8,3.6-12.7,6.7-16.3,11.7c1.3,2.5,2.4,5.2,3.4,8
		c1.6-2.1,4-4,7.1-5.6c6.6-3.3,24.3-5.5,40-6.9C189.3,156.5,186.1,147.8,186.1,136.9z"/>
	<path fill="#CCCCCC" d="M237,252h8v-6H141.7c-1.2,2-2.4,4-3.8,6H237z"/>
	<path fill="#FFFFFF" d="M179.7,194c0.5-1,0.8-2,0.8-3c0-2.7-2.2-5.1-4.9-5.1s-4.9,2.4-4.9,5.1c0,1,0.3,1.9,0.8,2.9H179.7z"/>
	<path fill="#FFFFFF" d="M153.3,206H227v-4h-73.7c0,0,0.1,1.5,0.1,2.4C153.3,205.1,153.3,206,153.3,206z"/>
	<path fill="#FFFFFF" d="M212.8,110.8c1.5-7,2.2-14.1,0.3-19.3c-1.1-2.9-2.8-4.9-5.4-6.1c-1.1-0.5-2-0.8-2.6-1
		c0.2,1.6,0.8,4.3,1.5,7C209.8,98.7,211.7,105.2,212.8,110.8z"/>
	<path fill="#FFFFFF" d="M237.4,113c0.8-3.7-1.6-8-3.8-11c-2.3-3.1-5-4.6-8.5-4.6c-1.1,0-2,0.1-2.9,0.3c0.4,10.2-2.8,21-5.5,28.2
		c4.2-1.6,9.5-3.7,14-6.1c2.4-1.3,4.2-2.7,5.3-4.2c0.1-0.3,0.3-0.5,0.5-0.7C237,114.3,237.2,113.7,237.4,113z"/>
	<path fill="#FFFFFF" d="M239.8,136.2c2.6,1.2,5,2.6,7.1,4.1c1-1,2-2.5,2.1-4.3c0.2-3.5-2.9-8-8.7-12.7c-2.3,2.3-6.4,5.3-13.3,8.2
		C231.9,132.8,236.1,134.3,239.8,136.2z"/>
	<path fill="#FFFFFF" d="M243.7,167.2c0.8,0.1,1.8,0.2,2.8,0.2c0,0,0,0,0,0c2.2,0,3.8-0.5,4.7-1.3c0.7-0.7,1-1.9,0.9-3.6
		c-0.3-8.6-8.4-17.9-25.6-22.8c7.7,6.6,15.8,15.8,17,26.1c0,0.1,0,0.2,0,0.2C243.6,166.4,243.6,166.8,243.7,167.2z"/>
	<path fill="#FFFFFF" d="M227.1,168.6c2.9,2.7,5.8,4,7.4,4c0.6,0,0.7-0.1,0.7-0.2c0.1-0.1,1-1.3,0.4-5.3
		c-0.9-6.4-10.5-16.4-19.6-24.2c1.8,7.1,4.4,15.3,7.5,20.9C224.6,165.5,225.8,167.1,227.1,168.6z"/>
	<path fill="#FFFFFF" d="M205.8,117.8c-0.8-6.2-2.6-14.1-6.6-23.5c-0.5-0.8-4.2-2.9-8.2-2.9c-0.9,0-2.6,0.1-3.5,1.1
		c-0.9,1-0.9,2.8-0.7,4.2c0.4,4,1.1,6.4,2.1,8.1C196.4,107.4,201.9,112.6,205.8,117.8z"/>
	<path fill="#FFFFFF" d="M187.8,112.9c-0.4,3.6,0.1,10.5,2.7,15.8c0.5,1,1.2,2.2,2.1,3.2c0.8,0.5,3.6,2,6.7,2c2.1,0,3.9-0.7,5.6-2
		C202.9,127.3,197.3,117.2,187.8,112.9z"/>
	<path fill="#FFFFFF" d="M215.5,166.1c-5.6-9.5-8-19.4-9.1-25.9c-2.2,1-4.6,1.6-7.1,1.6c-1.8,0-3.5-0.3-5-0.7
		c0.7,7.1,3.1,12.9,7.3,17.2C205.8,162.6,211.1,164.9,215.5,166.1z"/>
	<path fill="#FFFFFF" d="M84.5,165c-8.9-4.4-15-13.6-15.2-24.2c0-0.1,0-0.2,0-0.3c0-0.1,0-0.5,0.1-1.3c0.3-5.8,2.3-11.1,5.6-15.4
		c0-0.1,0.1-0.1,0.1-0.2c1.7-2.4,3.8-4.2,6-5.6c4.2-2.9,9.2-4.7,14.6-4.9c0.1,0,0.2,0,0.3,0c0.1,0,0.1,0,0.2,0c0.2,0,0.3,0,0.5,0
		c0.2,0,0.3,0,0.5,0c0.1,0,0.1,0,0.2,0c0,0,0.1,0,0.2,0c6,0.2,11.6,2.3,16,5.8c1.3,1,2.5,2.1,3.6,3.5c4.2,4.8,6.8,11.1,6.8,18
		c0,10.8-6.3,20.2-15.5,24.6c16.4,3.4,26.7,13.2,33,22.9c-2.4-10.9-7.2-21-13.4-27.9c-1.3-1.5-1.7-3.6-0.8-5.5
		c2.1-4.5,3.1-9.2,3.1-14.2c0-18.6-15.1-33.7-33.7-33.7S63,122,63,140.6c0,4.9,1,9.7,3.1,14.2c0.8,1.8,0.5,4-0.8,5.5
		c-6.1,6.7-10.8,16.5-13.3,27.1C58.1,177.7,68.1,168.1,84.5,165z"/>
	<path fill="#FFFFFF" d="M141,222c1.4-5,2.2-10.9,2.3-16.5c-2.9-9.1-10.6-25.8-29.2-32.5c3,4.7,4.3,9.8,4.6,13.4
		c0.1,1-0.3,1.9-1.1,2.5c-0.5,0.4-1.2,0.7-1.9,0.7c-0.3,0-0.5,0-0.8-0.1c-10.2-2.8-15.6-7.5-18.4-12.1c-5.3,8.1-16.5,12.5-17.2,12.7
		c-0.3,0.1-0.7,0.2-1.1,0.2c-0.6,0-1.1-0.2-1.6-0.5c-0.8-0.5-1.3-1.4-1.4-2.3c-0.4-6.2,1.1-11,3.6-14.7c-9,3.2-16.4,9.2-21.9,17.9
		c-3.7,5.9-5.8,11.8-6.9,15.8c0.2,5.3,0.9,10.6,2.3,15.6H141z"/>
	<path fill="#FFFFFF" d="M54.2,228c2.9,8,7.2,16,12.8,22h59.4c5.6-6,9.9-14,12.8-22H54.2z"/>
	<path fill="#FFFFFF" d="M96.6,126.7c-3.1,7.4-9.5,15-21.1,16.6c1.3,10.5,10.3,18.6,21.1,18.6c10.8,0,19.8-8.1,21.1-18.6
		C106.1,141.7,99.7,134.1,96.6,126.7z"/>
	<path fill="#CCCCCC" d="M80,127.2c-2.6,3.7-3.8,7.4-4.3,9.9c11.7-2.1,15.6-11.8,16.8-17.4C88.8,120.7,83.2,122.7,80,127.2z"/>
	<path fill="#CCCCCC" d="M117.5,137.2c-0.5-2.6-1.7-6.3-4.3-9.9c-3.3-4.6-8.8-6.6-12.5-7.4C102,125.3,105.9,135.1,117.5,137.2z"/>
	<path fill="#CCCCCC" d="M81.4,182.5c4.7-2.5,11.5-7.3,11.8-13.6C89.3,170.3,82.7,173.9,81.4,182.5z"/>
	<path fill="#CCCCCC" d="M99.6,168.8c0.4,3.5,2.7,9.3,12.1,13.2C110.3,177.5,107.1,171.1,99.6,168.8z"/>
	<path fill="#5980B7" d="M159,177.2c0.9-0.4,2.1-0.8,3.4-1.2c0,0,0,0,0,0h60.9c0.1,0-0.1,0.1-0.1,0.1c3.6,2.9,7.8,4.5,10.8,4.5v0
		c3,0,5.4-1,7-3c0.6-0.7,1.2-1.8,1.6-2.7c1.1,0.1,2.4,0.1,3.7,0.1c0,0,0,0,0,0c4.5,0,8-1.1,10.4-3.5c2.2-2.3,3.3-5.4,3.2-9.4
		c-0.2-5.3-2.4-11.2-7.2-16.5c1.9-2.1,3.9-5,4.1-9c0.4-6.5-3.7-13.2-12.3-20c0.2-0.6,0.4-1.2,0.5-1.8c1.1-4.9-0.1-10.3-3.9-16
		c-0.1-0.2-0.3-0.4-0.3-0.7V45.3c0-3-2.7-5.3-5.7-5.3H52.5c-3.2,0-5.5,2.5-5.5,5.7v125.6c-5,10-6.9,21.5-6.9,32.9
		c0,20.2,7.4,39.5,21.1,54.2c0.9,1,2.2,1.6,3.5,1.6h183.5c2.5,0,4.8-2.1,4.8-4.5v-13.6c0-2.2-2.1-3.8-4.2-3.8H245v-28.4
		c0-2-2-3.6-4-3.6h-6v-8.5c0-1.9-1.9-3.5-3.8-3.5h-43c0.2-1,0.3-2,0.3-3c0-7.1-5.8-13.1-12.9-13.1c-5.6,0-10.4,3.7-12.2,8.7
		c-0.5,1.3-0.5,1.3,0-0.1c-6.3-0.7-9.1-2.7-9.4-4.1C153.6,181.3,155.3,179,159,177.2z M201.6,158.3c-4.2-4.3-6.6-10.1-7.3-17.2
		c1.5,0.4,3.2,0.7,5,0.7c2.5,0,4.9-0.5,7.1-1.6c1.1,6.5,3.5,16.4,9.1,25.9C211.1,164.9,205.8,162.6,201.6,158.3z M150.1,153
		c-3.4,2-6.7,4.3-9.4,7.2c-1-1.5-2-2.9-3.1-4.3c0.4-1.1,0.8-2.1,1.1-3.2c0,0.1,0,0.2,0,0.2H150.1z M140.1,145c0,0,0-0.2,0-0.3
		c0.1-1.4,0.2-2.7,0.2-4.1c0-19.3-12.5-35.6-29.9-41.4c5.6-5.9,7.7-5.3,7.8-5.3c4,1.8,8.5,7.5,13.2,13.6c8.9,11.5,20,25.8,36.5,22.6
		c5.5-1.1,9.5-3,12.9-5.1c0.3,1.3,0.7,2.6,1.1,3.9c-4.6,7.4-10.6,12.1-17,15.8c-0.2,0.1-0.3,0.3-0.5,0.3H140.1z M181.6,87.1
		c-0.4,0.4-0.7,0.9-1.1,1.4c-2.4-5.9-8.2-10.1-14.9-10.1c-8.9,0-16.1,7.2-16.1,16.1s7.2,16.1,16.1,16.1c6,0,11.3-3.3,14.1-8.2
		c0.4,1.9,0.9,3.5,1.6,4.8c-0.7,1.3-1.2,3-1.4,5.4c-0.1,1-0.1,2.2-0.1,3.4c-3.7,2.6-7.3,4.9-13.3,6.1c-11.7,2.3-20.3-8.8-28.7-19.6
		c-5.4-6.9-10.5-13.5-16.4-16.1c-5.4-2.4-11.8,1-19.9,10.6c-1.6-0.2-3.2-0.3-4.9-0.3c-6.3,0-12.1,1.1-17.5,3.5
		c-0.1,0.1-0.2,0.1-0.2,0.2V71h130v6.1c-2-0.7-3.6-1-4.9-1c-2.2,0-4.2,0.9-5.4,2.5c-1.1,1.5-1.6,3.4-1.5,5.7c-2.1-0.6-4.2-1-6.1-1
		C187.1,83.3,183.8,84.6,181.6,87.1z M173.7,94.5c0,4.5-3.6,8.1-8.1,8.1s-8.1-3.6-8.1-8.1s3.6-8.1,8.1-8.1S173.7,90,173.7,94.5z
		 M213.1,91.5c1.9,5.1,1.2,12.3-0.3,19.3c-1.1-5.6-3-12.1-6.1-19.4c-0.7-2.7-1.4-5.4-1.5-7c0.6,0.2,1.4,0.5,2.6,1
		C210.3,86.6,212.1,88.6,213.1,91.5z M187.6,92.4c0.9-0.9,2.5-1.1,3.5-1.1c3.9,0,7.6,2.1,8.2,2.9c4,9.4,5.9,17.4,6.6,23.5
		c-3.9-5.1-9.5-10.4-16.9-13.1c-1-1.7-1.7-4.1-2.1-8.1C186.7,95.2,186.7,93.4,187.6,92.4z M187.8,112.9c9.5,4.3,15,14.4,17.1,18.9
		c-1.6,1.3-3.5,2-5.6,2c-3.1,0-5.9-1.5-6.7-2c-0.9-1-1.6-2.1-2.1-3.2C188,123.4,187.5,116.5,187.8,112.9z M222.6,175.3
		c0.2,0.2,0.4,0.4,0.6,0.5C223,175.8,222.8,175.6,222.6,175.3z M235.2,172.4c0,0-0.2,0.2-0.7,0.2c-1.6,0-4.5-1.2-7.4-4
		c-1.3-1.6-2.5-3.2-3.5-4.8c-3.1-5.6-5.7-13.8-7.5-20.9c9.1,7.8,18.6,17.8,19.6,24.2C236.2,171.2,235.3,172.3,235.2,172.4z
		 M252,162.5c0.1,1.7-0.3,2.9-0.9,3.6c-0.8,0.8-2.5,1.3-4.7,1.3c0,0,0,0,0,0c-1,0-1.9-0.1-2.8-0.2c0-0.4-0.1-0.8-0.1-1.2
		c0-0.1,0-0.2,0-0.2c-1.3-10.3-9.3-19.5-17-26.1C243.6,144.5,251.7,153.9,252,162.5z M240.3,123.3c5.8,4.8,8.9,9.2,8.7,12.7
		c-0.1,1.8-1.1,3.2-2.1,4.3c-2.1-1.6-4.5-2.9-7.1-4.1c-3.7-1.8-8-3.4-12.9-4.7C233.9,128.6,237.9,125.6,240.3,123.3z M233.6,102
		c2.2,3,4.6,7.3,3.8,11c-0.2,0.7-0.4,1.3-0.8,2c-0.2,0.2-0.3,0.4-0.5,0.7c-1.1,1.5-2.9,3-5.3,4.2c-4.5,2.4-9.7,4.5-14,6.1
		c2.7-7.2,5.8-18,5.5-28.2c0.8-0.2,1.8-0.3,2.9-0.3C228.6,97.4,231.4,98.9,233.6,102z M58,51h172v39c-2-0.4-3.3-0.6-4.7-0.6
		c-1.5,0-3,0.2-4.2,0.4c-0.1-0.3-0.3-0.7-0.4-1c-0.9-2.4-1.9-4.4-3.4-6.2c-0.1-0.1-0.3-0.3-0.3-0.4v-15c0-2.4-2.3-4.2-4.6-4.2H75
		c-2.4,0-4,1.9-4,4.3v37.8c-6,3.9-10,9.3-13,15.1V51z M65.2,160.2c1.3-1.5,1.7-3.6,0.8-5.5c-2.1-4.5-3.1-9.2-3.1-14.2
		c0-18.6,15.1-33.7,33.7-33.7s33.7,15.1,33.7,33.7c0,4.9-1,9.7-3.1,14.2c-0.8,1.8-0.5,4,0.8,5.5c6.2,6.9,11,17,13.4,27.9
		c-6.3-9.7-16.5-19.5-33-22.9c9.1-4.4,15.5-13.8,15.5-24.6c0-6.9-2.6-13.2-6.8-18c-1.1-1.3-2.3-2.5-3.6-3.5c-4.4-3.5-10-5.7-16-5.8
		c-0.1,0-0.2,0-0.2,0c-0.1,0-0.1,0-0.2,0c-0.2,0-0.3,0-0.5,0c-0.2,0-0.3,0-0.5,0c-0.1,0-0.1,0-0.2,0c0,0-0.1,0-0.3,0
		c-5.4,0.2-10.4,2-14.6,4.9c-2.2,1.4-4.3,3.3-6,5.6c0,0.1-0.1,0.1-0.1,0.2c-3.3,4.3-5.4,9.6-5.6,15.4c-0.1,0.7-0.1,1.2-0.1,1.3
		c0,0.1,0,0.2,0,0.3c0.1,10.6,6.3,19.7,15.2,24.2c-16.4,3.1-26.4,12.7-32.5,22.3C54.5,176.7,59.1,166.9,65.2,160.2z M75.5,143.3
		c11.6-1.6,18-9.2,21.1-16.6c3.1,7.4,9.5,15.1,21.2,16.6c-1.3,10.5-10.3,18.6-21.1,18.6C85.8,161.9,76.9,153.8,75.5,143.3z
		 M93.2,168.9c-0.3,6.3-7.1,11-11.8,13.6C82.7,173.9,89.3,170.3,93.2,168.9z M75.7,137.2c0.5-2.5,1.7-6.2,4.3-9.9
		c3.2-4.6,8.8-6.6,12.5-7.4C91.2,125.4,87.4,135.1,75.7,137.2z M100.7,119.8c3.7,0.8,9.3,2.8,12.5,7.4c2.6,3.7,3.8,7.4,4.3,9.9
		C105.9,135.1,102,125.3,100.7,119.8z M111.7,182c-9.4-3.9-11.7-9.7-12.1-13.2C107.1,171.1,110.3,177.5,111.7,182z M50,206.4
		c1.1-4,3.1-9.9,6.9-15.8c5.5-8.7,12.8-14.7,21.9-17.9c-2.4,3.7-3.9,8.5-3.6,14.7c0.1,1,0.6,1.8,1.4,2.3c0.5,0.3,1.1,0.5,1.6,0.5
		c0.4,0,0.7-0.1,1.1-0.2c0.7-0.3,11.9-4.6,17.2-12.7c2.8,4.6,8.2,9.3,18.4,12.1c0.3,0.1,0.5,0.1,0.8,0.1c0.7,0,1.4-0.2,1.9-0.7
		c0.8-0.6,1.2-1.6,1.1-2.5c-0.3-3.6-1.6-8.7-4.6-13.4c18.7,6.8,26.3,23.5,29.2,32.5c-0.1,5.6-0.9,11.5-2.3,16.5H52.3
		C51,217,50.2,211.7,50,206.4z M67,250c-5.6-6-9.9-14-12.8-22h85c-2.9,8-7.2,16-12.8,22H67z M245,246v6h-8h-99
		c0.1,0,0.2-0.3,0.4-0.5c1-1.3,2.5-4.5,3.3-5.5H245z M237,214v23.9l-90.9-0.1c3.4-7.4,5.6-15.4,6.7-23.6c0-0.1-0.1-0.3-0.1-0.3h78.1
		H237z M175.5,186c2.7,0,4.9,2.4,4.9,5.1c0,1-0.3,1.9-0.8,2.9h-8.2c-0.5-1-0.8-2-0.8-3C170.6,188.3,172.8,186,175.5,186z M227,202v4
		h-73.7c0-1,0-1.1,0-1.7c0-0.8,0-1.3,0-2.3H227z M148.3,175.8c0-0.1,0-0.1-0.1-0.2c-1-2.8-2.1-5.4-3.4-8c3.6-4.9,9.5-8,16.3-11.7
		c8.1-4.3,17.6-9.4,25-19c0,10.9,3.1,19.6,9.3,26.2c-15.7,1.4-33.4,3.6-40,6.9C152.4,171.5,150,173.7,148.3,175.8z"/>
</g>
</svg>
