<?xml version="1.0" encoding="utf-8"?>
<!-- Generator: Adobe Illustrator 18.1.1, SVG Export Plug-In . SVG Version: 6.00 Build 0)  -->
<svg version="1.1" id="Layer_1" xmlns="http://www.w3.org/2000/svg" xmlns:xlink="http://www.w3.org/1999/xlink" x="0px" y="0px"
	 viewBox="0 0 300 300" enable-background="new 0 0 300 300" xml:space="preserve">
<g>
	<polygon fill="none" points="234,180 237.5,185.7 241,180 241,94 234,94 	"/>
	<path fill="#FFFFFF" d="M144,163.7c0,1.7-1.3,3-3,3s-3-1.3-3-3v-5.8c-5-0.3-9-1.9-13-3.8l-7.9,27.9h8.9v-6.5c0-3,2-6.5,5-6.5h19.4
		c3,0,5.6,3.5,5.6,6.5v6.5h7.6l-7.9-27.7c-3.6,1.7-7.8,3.1-11.8,3.5V163.7z"/>
	<path fill="#FFFFFF" d="M188.7,116.7c-4.5-0.2-8.3,0.1-11.4,1.2l2.3,8.1h9L188.7,116.7z"/>
	<path fill="#FFFFFF" d="M62.9,64.6C59.2,68,59,72.9,59,73v89.9v9.9c5-2.1,10-2.9,15-3V98.4V60.6C69,60.9,65.5,62.2,62.9,64.6z"/>
	<polygon fill="#FFFFFF" points="114,193 112.3,199 126,199 126,193 	"/>
	<path fill="#FFFFFF" d="M188.8,110.7L189,95h-23.2c4.7,5,8.2,10.5,9.9,17.1C179.1,111,183.4,110.5,188.8,110.7z"/>
	<path fill="#FFFFFF" d="M96.6,125.3l-0.3,20.2L102,125h-5C96.9,125,96.7,125.3,96.6,125.3z"/>
	<polygon fill="#FFFFFF" points="156,199 168.4,199 166.7,193 156,193 	"/>
	<path fill="#FFFFFF" d="M112,99.6c1-1.4,2.3-3.6,3.5-4.6H112V99.6z"/>
	<path fill="#FFFFFF" d="M106,95h-9l-0.3,24c0.1,0,0.2,0,0.3,0h6.6l1.9-6.5c0,0,0,0.1,0,0.1c0.1-0.6,0.5-1,0.5-1.5V95z"/>
	<polygon fill="#FFFFFF" points="188.5,132 181.2,132 187.2,154 188.2,154 	"/>
	<path fill="#FFFFFF" d="M91,92.3c0-1.6,1.4-3.3,3-3.3h15h14.8c3.4-2,7.2-2.4,11.2-3.1V77h-4H85v98.5c0,1.6-0.7,3.1-1.8,4.1
		c-1.2,1-2.7,1.5-4.3,1.4c0,0-1.5-0.1-3.6-0.1c-5.4,0-15.2,0.9-16.1,7.2c-0.5,3.8-0.1,6.6,1.4,8.2c3.2,3.6,12.3,3.5,19.6,3.5
		c0.4,0,0.8,0,1.3,0l8.6-31.2L91,92.3z"/>
	<path fill="#FFFFFF" d="M157.5,89H192c0.8,0,1.6,0.7,2.1,1.2c0.6,0.6,0.9,1.5,0.9,2.3l-1,82.1c0,0.7-0.3,1.1-0.8,1.7l6.3,22.7h5.4
		V77h-54.6H146v8.9C150,86.5,154,87,157.5,89z"/>
	<rect x="234" y="77" fill="#CCCCCC" width="7" height="6"/>
	<path fill="#FFFFFF" d="M189.8,235l8.8,2.8l-26.8-97.7c-1.8,3-3.9,5.7-6.5,8L189.8,235z"/>
	<path fill="#FFFFFF" d="M82.2,237.8L91,235l24.5-87.3c-2.4-2.3-4.4-4.9-6.1-7.7L82.2,237.8z"/>
	<path fill="#FFFFFF" d="M140.7,96.5c-13.9,0-25.2,11.3-25.2,25.2s11.3,25.2,25.2,25.2s25.2-11.3,25.2-25.2S154.6,96.5,140.7,96.5z
		 M140.7,131.1c-5.2,0-9.3-4.2-9.3-9.3c0-5.2,4.2-9.3,9.3-9.3c5.2,0,9.3,4.2,9.3,9.3C150,126.9,145.8,131.1,140.7,131.1z"/>
	<rect x="137" y="180" fill="#CCCCCC" width="8" height="18"/>
	<rect x="137" y="42" fill="#CCCCCC" width="8" height="24"/>
	<g>
		<path fill="#5980B7" d="M246.6,66h-18.4c-3,0-5.2,3-5.2,6v16.8v92.8c0,1.1,0.2,2.1,0.8,3l9.1,14.1c1,1.6,2.7,2.5,4.6,2.5
			s3.6-0.9,4.6-2.5l9.1-14.1c0.6-0.9,0.8-1.9,0.8-3V88.9V72C252,69,249.7,66,246.6,66z M234,77h7v6h-7V77z M241,180l-3.5,5.7
			L234,180V94h7V180z"/>
		<path fill="#5980B7" d="M211.9,244.8c0,0,0-0.4,0-0.5l-9.3-34.3h7.9c3,0,5.5-1.8,5.5-4.8v-133c0-3-2.5-6.2-5.5-6.2H156V37.3
			c0-3-2.5-6.3-5.6-6.3H131c-3,0-5,3.3-5,6.3V66H85V55.3c0-2.9-2.2-5.3-5.1-5.5c-10.5-0.8-18.7,1.4-24.5,6.7C48.2,63.2,48,72,48,73
			v115.7c0,0.2,0,0.4,0,0.6c-0.3,5.9,1.1,10.7,4.3,14.3c5.7,6.5,15.6,7.2,24.4,7.2c0.6,0,1.1,0,1.6,0l-9.2,33.2
			c-0.2,0.5-0.4,1-0.4,1.6l-4.5,16.1c-0.8,2.9,0.9,6,3.8,6.8c0.5,0.1,1,0.2,1.5,0.2c2.4,0,4.6-1.6,5.3-4l3.9-14.1l18.4-5.9
			c1.8-0.6,3.1-2.3,3.6-4.1l8.5-30.5h62.3l8.5,30.5c0.5,1.8,1.9,3.4,3.6,3.9l18.5,6l3.9,14.1c0.7,2.4,2.9,4.1,5.3,4.1
			c0.5,0,1-0.1,1.5-0.2c2.9-0.8,4.7-3.8,3.9-6.8L211.9,244.8z M137,42h8v24h-8V42z M188.6,126h-9l-2.3-7.9c3.1-1.1,7-1.7,11.4-1.6
			L188.6,126z M188.5,132l-0.3,22h-1l-6-22H188.5z M188.8,110.7c-5.4-0.2-9.7,0.3-13.1,1.4c-1.7-6.5-5.2-12.1-9.9-17.1H189
			L188.8,110.7z M165.9,121.7c0,13.9-11.3,25.2-25.2,25.2s-25.2-11.3-25.2-25.2s11.3-25.2,25.2-25.2S165.9,107.8,165.9,121.7z
			 M163.6,182H156v-6.5c0-3-2.5-6.5-5.6-6.5H131c-3,0-5,3.5-5,6.5v6.5h-8.9l7.9-27.9c4,1.9,8,3.4,13,3.8v5.8c0,1.7,1.3,3,3,3
			s3-1.3,3-3v-5.9c4-0.4,8.1-1.8,11.8-3.5L163.6,182z M145,198h-8v-18h8V198z M105.5,112.8c0,0,0-0.3,0-0.3l-1.9,6.5H97
			c-0.1,0-0.2,0-0.3,0L97,95h9v16.1C106,111.7,105.7,112.3,105.5,112.8z M96.6,125.3c0.1,0,0.3-0.3,0.4-0.3h5l-5.6,20.5L96.6,125.3z
			 M112,95h3.5c-1.3,1-2.5,3.2-3.5,4.6V95z M59,162.9V73c0,0,0.2-4.9,3.9-8.4c2.5-2.4,6.1-3.7,11.1-3.9v37.8v71.3
			c-5,0.1-10,0.9-15,3V162.9z M80.1,199.7c-7.3,0.1-16.4,0.2-19.6-3.5c-1.4-1.6-1.9-4.4-1.4-8.2c0.9-6.3,10.7-7.2,16.1-7.2
			c2.1,0,3.5,0.1,3.6,0.1c1.6,0.2,3.1-0.3,4.3-1.4c1.2-1,1.8-2.5,1.8-4.1V77h46h4v8.9c-4,0.6-7.8,1.1-11.2,3.1H109H94
			c-1.6,0-3,1.6-3,3.3l-1,76.2l-8.6,31.1C81,199.6,80.6,199.7,80.1,199.7z M91,235l-8.7,2.8l27.2-97.8c1.7,2.9,3.7,5.5,6.1,7.7
			L91,235z M114,193h12v6h-13.7L114,193z M156,199v-6h10.7l1.7,6H156z M189.8,235l-24.4-86.9c2.5-2.4,4.7-5.1,6.5-8l26.8,97.7
			L189.8,235z M193.2,176.3c0.5-0.5,0.8-1,0.8-1.8l1-81.9c0-0.8-0.3-1.9-0.9-2.4c-0.6-0.6-1.3-1.2-2.1-1.2h-34.5
			c-3.5-2-7.5-2.5-11.5-3.1V77h4.4H205v122h-5.4L193.2,176.3z"/>
		<circle fill="#5980B7" cx="140.7" cy="121.7" r="9.3"/>
		<path fill="#5980B7" d="M219.1,221.6c-0.7-2.9-3.7-4.7-6.7-4c-2.9,0.7-4.7,3.7-4,6.7l3.6,14.7c0.6,2.5,2.9,4.2,5.3,4.2
			c0.4,0,0.9-0.1,1.3-0.2c2.9-0.7,4.7-3.7,4-6.7L219.1,221.6z"/>
		<path fill="#5980B7" d="M68.9,238.9l3.6-14.7c0.7-2.9-1.1-5.9-4-6.7c-3-0.7-5.9,1.1-6.7,4l-3.6,14.7c-0.7,2.9,1.1,5.9,4,6.7
			c0.4,0.1,0.9,0.2,1.3,0.2C66,243.1,68.2,241.4,68.9,238.9z"/>
	</g>
</g>
</svg>
