<?xml version="1.0" encoding="utf-8"?>
<!-- Generator: Adobe Illustrator 18.1.1, SVG Export Plug-In . SVG Version: 6.00 Build 0)  -->
<svg version="1.1" id="Layer_1" xmlns="http://www.w3.org/2000/svg" xmlns:xlink="http://www.w3.org/1999/xlink" x="0px" y="0px"
	 viewBox="0 0 300 300" enable-background="new 0 0 300 300" xml:space="preserve">
<g>
	<path fill="#FFFFFF" d="M203.9,122.3c19.4-21,27.6-43.4,30.5-53.9c0.4-1.4,0.1-2.8-0.8-3.9c-0.9-1.1-2.2-1.4-3.3-0.8
		c-20.1,11.1-32.7,28.7-40.4,44C194,110.3,199.4,114.9,203.9,122.3z"/>
	<path fill="#FFFFFF" d="M186.5,171.1c12.8,0,23.2,11,23.2,24.6c0,13.6-10.4,24.6-23.2,24.6c-12.8,0-23.2-11-23.2-24.6
		c0-0.2,0-0.5,0-0.7c-3.4,1.4-7.1,2-11,2c0,0,0,0,0,0c0,0-0.1,0.1-0.1,0.1c-0.9,13.4-11.5,24.1-24.3,24.1
		c-13.5,0-24.4-11.6-24.4-25.9s11-25.9,24.4-25.9c1.7,0,3.4,0.2,5.1,0.6c0.2-0.7,0.3-1.5,0.4-2.4c0.6-3.4,1.4-8.1,4-14.7
		c0.1-0.2,0.1-0.4,0.2-0.6c0.8-1.9,1.7-4,2.8-6.2c3.9-7.8,9.7-12.9,16.7-15.1c-0.2-1.3-0.2-2.6-0.1-4c0.2-3,0.6-6,1-8.9
		c1.7-12.5,2.3-19.9-6-25.9c-6.9-5-15.5-7.6-24.7-7.6c-15.8,0-32.2,7.6-43.8,20.4C70,120,63.6,140.8,65.8,163.5
		c5,53.9,49.6,73,86.2,73c26.4,0,49.8-9.9,59.7-25.3c7.1-11.1,9.7-20.3,7.7-27.6c-3.1-11.2-17.1-18.2-30.8-24.9
		c-0.4,3.6-1.2,7.8-3,12.2C185.9,171.1,186.2,171.1,186.5,171.1z M131.1,93.8c8.8,0,16,7.6,16,16.8c0,9.3-7.2,16.8-16,16.8
		s-16-7.6-16-16.8C115.1,101.3,122.3,93.8,131.1,93.8z M76.3,154.6c0-12.3,9.5-22.3,21.1-22.3s21.1,10,21.1,22.3
		s-9.5,22.3-21.1,22.3S76.3,166.9,76.3,154.6z"/>
	<path fill="#FFFFFF" d="M152.3,160.3c0.3,0.2,1.4,0.6,3.7-0.5c7.6-3.8,13.8-4.1,18.5-1.1c1,0.7,1.9,1.5,2.7,2.4
		c0.6-3,0.7-5.7,0.6-7.7c-6.5-3.5-12.4-7.4-16.2-12.1c-4.8,1-8.5,4.2-11.3,9.8c-0.7,1.4-1.3,2.7-1.8,4
		C149.2,157.1,150.7,159.6,152.3,160.3z"/>
	<path fill="#FFFFFF" d="M131.1,116.4c2.8,0,5-2.6,5-5.8c0-3.2-2.2-5.8-5-5.8s-5,2.6-5,5.8C126.1,113.8,128.4,116.4,131.1,116.4z"/>
	<path fill="#CCCCCC" d="M114.5,195.4c0,8.2,6,14.9,13.4,14.9c7.4,0,13.4-6.7,13.4-14.9c-9.1-2.9-15.6-8.4-16-8.8
		c-1.4-1.2-2.1-3-1.9-4.8c0-0.2,0-0.4,0.1-0.5C118.2,183.3,114.5,188.9,114.5,195.4z"/>
	<path fill="#FFFFFF" d="M186.5,209.3c6.7,0,12.2-6.1,12.2-13.6c0-7.5-5.5-13.6-12.2-13.6c-6.7,0-12.2,6.1-12.2,13.6
		C174.3,203.2,179.8,209.3,186.5,209.3z"/>
	<path fill="#FFFFFF" d="M97.4,143.3c-5.6,0-10.1,5.1-10.1,11.3s4.5,11.3,10.1,11.3s10.1-5.1,10.1-11.3S103,143.3,97.4,143.3z"/>
	<path fill="#CCCCCC" d="M195.8,130.4c-3.2-6.3-7.3-10.2-10.4-12.4c-3.1,7.8-4.9,14.2-5.7,17.6l3.9,4.7
		C188,137.1,192.1,133.8,195.8,130.4z"/>
	<path fill="#CCCCCC" d="M168.4,167.9c-0.6-0.4-3-0.5-7.6,1.7c-5.9,2.9-10.5,1.9-13.3,0.6c-1.1-0.5-2.2-1.2-3.1-2
		c-0.1,0.4-0.1,0.8-0.2,1.3c-0.8,5-1.7,8.7-5.7,12.6c3.7,1.9,8.6,3.9,13.8,3.9c0,0,0,0,0,0c5.1,0,9.6-2,13.7-5.7
		c1.5-1.4,2.8-2.7,3.9-4.1c0-0.3,0-0.5,0-0.7C170.1,170.3,169,168.3,168.4,167.9z"/>
	<g>
		<path fill="#5980B7" d="M131.1,127.4c8.8,0,16-7.6,16-16.8c0-9.3-7.2-16.8-16-16.8s-16,7.6-16,16.8
			C115.1,119.9,122.3,127.4,131.1,127.4z M131.1,104.8c2.8,0,5,2.6,5,5.8c0,3.2-2.2,5.8-5,5.8s-5-2.6-5-5.8
			C126.1,107.4,128.4,104.8,131.1,104.8z"/>
		<path fill="#5980B7" d="M118.5,154.6c0-12.3-9.5-22.3-21.1-22.3s-21.1,10-21.1,22.3s9.5,22.3,21.1,22.3S118.5,166.9,118.5,154.6z
			 M97.4,165.9c-5.6,0-10.1-5.1-10.1-11.3s4.5-11.3,10.1-11.3s10.1,5.1,10.1,11.3S103,165.9,97.4,165.9z"/>
		<path fill="#5980B7" d="M206.4,135.5c25.1-24.3,35.2-51.7,38.6-64c1.4-4.9,0.3-10.1-2.9-13.9c-4.3-5.2-11.3-6.6-17.1-3.4
			c-37.7,20.8-51.4,61-55.4,76.1c-0.5-0.1-1-0.1-1.5-0.2c-0.1-0.7-0.2-1.4-0.1-2.2c0.2-2.7,0.6-5.5,1-8.2
			c1.7-12.3,3.6-26.2-10.5-36.3c-8.8-6.3-19.6-9.7-31.1-9.7c-18.8,0-38.2,9-51.9,24c-15.7,17.2-23,41-20.6,66.8
			c5.3,57.3,52.6,83,97.2,83c0,0,0,0,0,0c30.5,0,56.9-11.6,68.9-30.3c9-14,12-25.9,9.1-36.5c-4.5-16.2-21.9-24.6-37.2-32.1
			c-0.4-0.2-0.8-0.4-1.3-0.6c5.3-3.9,10.1-8,14.5-12.3C206.2,135.7,206.3,135.6,206.4,135.5z M177.8,153.4c0.1,2,0,4.7-0.6,7.7
			c-0.8-0.9-1.7-1.8-2.7-2.4c-4.6-3-10.9-2.7-18.5,1.1c-2.4,1.2-3.4,0.7-3.7,0.5c-1.6-0.7-3-3.2-3.8-5.3c0.5-1.2,1.1-2.5,1.8-4
			c2.8-5.6,6.5-8.8,11.3-9.8C165.4,146.1,171.3,149.9,177.8,153.4z M186.5,182.1c6.7,0,12.2,6.1,12.2,13.6c0,7.5-5.5,13.6-12.2,13.6
			c-6.7,0-12.2-6.1-12.2-13.6C174.3,188.2,179.8,182.1,186.5,182.1z M169.9,176.2c-1.1,1.4-2.4,2.7-3.9,4.1
			c-4.1,3.8-8.5,5.7-13.7,5.7c0,0,0,0,0,0c-5.2,0-10.1-2-13.8-3.9c4-3.8,4.8-7.6,5.7-12.6c0.1-0.4,0.1-0.8,0.2-1.2
			c0.9,0.8,1.9,1.5,3.1,2c2.8,1.3,7.4,2.3,13.3-0.6c4.6-2.3,6.9-2.2,7.6-1.7c0.6,0.4,1.7,2.5,1.5,7.5
			C169.9,175.7,169.9,175.9,169.9,176.2z M125.3,186.7c0.4,0.3,6.9,5.8,16,8.8c0,8.2-6,14.9-13.4,14.9c-7.4,0-13.4-6.7-13.4-14.9
			c0-6.5,3.8-12,9-14.1c0,0.2-0.1,0.4-0.1,0.5C123.2,183.6,123.9,185.5,125.3,186.7z M219.4,183.7c2,7.2-0.6,16.5-7.7,27.6
			c-9.9,15.3-33.3,25.3-59.7,25.3c-36.7,0-81.2-19.1-86.2-73c-2.1-22.8,4.2-43.5,17.8-58.4c11.7-12.8,28-20.4,43.8-20.4
			c9.3,0,17.8,2.6,24.7,7.6c8.3,6,7.8,13.4,6,25.9c-0.4,2.9-0.8,5.9-1,8.9c-0.1,1.4-0.1,2.7,0.1,4c-7.1,2.1-12.9,7.3-16.7,15.1
			c-1.1,2.2-2,4.3-2.8,6.2c-0.1,0.2-0.2,0.4-0.2,0.6c-2.6,6.6-3.4,11.3-4,14.7c-0.2,0.9-0.3,1.7-0.4,2.4c-1.6-0.4-3.3-0.6-5.1-0.6
			c-13.5,0-24.4,11.6-24.4,25.9s11,25.9,24.4,25.9c12.9,0,23.4-10.7,24.3-24.1c0,0,0.1-0.1,0.1-0.1c0,0,0,0,0,0c3.9,0,7.5-0.6,11-2
			c0,0.2,0,0.4,0,0.6c0,13.6,10.4,24.6,23.2,24.6c12.8,0,23.2-11,23.2-24.6c0-13.6-10.4-24.6-23.2-24.6c-0.3,0-0.6,0-0.9,0
			c1.8-4.4,2.6-8.6,3-12.2C202.3,165.5,216.3,172.5,219.4,183.7z M183.6,140.2l-3.9-4.7c0.8-3.4,2.6-9.8,5.7-17.6
			c3.1,2.2,7.2,6.1,10.4,12.4C192.1,133.8,188,137.1,183.6,140.2z M190,107.8c7.7-15.3,20.3-32.9,40.4-44c1.1-0.6,2.4-0.3,3.3,0.8
			c0.9,1,1.1,2.5,0.8,3.9c-3,10.5-11.1,32.8-30.5,53.9C199.4,114.9,194,110.3,190,107.8z"/>
	</g>
</g>
</svg>
