<?xml version="1.0" encoding="utf-8"?>
<!-- Generator: Adobe Illustrator 18.1.1, SVG Export Plug-In . SVG Version: 6.00 Build 0)  -->
<svg version="1.1" id="Layer_1" xmlns="http://www.w3.org/2000/svg" xmlns:xlink="http://www.w3.org/1999/xlink" x="0px" y="0px"
	 viewBox="0 0 300 300" enable-background="new 0 0 300 300" xml:space="preserve">
<g>
	<path fill="#CCCCCC" d="M137.7,209H164v-6h-21.9C140.9,205,139.2,207,137.7,209z"/>
	<path fill="#CCCCCC" d="M106,82v33.1c2,0.5,4,1,6,1.7V82H106z"/>
	<path fill="#FFFFFF" d="M123,66v56c7,4,12.2,9.2,16.8,15.4c0.5-0.2,0.8-0.4,1.4-0.4h20.3c0.5,0,1.5,0.2,2.5,0.4V120h-22.8
		c-3,0-5.5-2.5-5.5-5.5s2.5-5.5,5.5-5.5h63.3c0.3,0,0.6,0,0.9,0H223V66H123z M204.5,97h-63.3c-3,0-5.5-2.5-5.5-5.5s2.5-5.5,5.5-5.5
		h63.3c3,0,5.5,2.5,5.5,5.5S207.5,97,204.5,97z"/>
	<path fill="#FFFFFF" d="M145.7,148c2.2,5,3.8,10,4.6,15h11.2c0.5,0,1.5,0.7,2.5,0.9V148c-1,0.1-1.9,0-2.5,0H145.7z"/>
	<path fill="#FFFFFF" d="M150.9,174c-0.2,7-1.4,13-3.5,18H164v-17.5c-1,0.1-1.9-0.5-2.5-0.5H150.9z"/>
	<path fill="#FFFFFF" d="M175,120v114h81V120H175z M185,191.5c0-2.5,2-4.5,4.5-4.5h6c2.5,0,4.5,2,4.5,4.5s-2,4.5-4.5,4.5h-6
		C187,196,185,194,185,191.5z M207,191.5c0-2.5,2-4.5,4.5-4.5h6c2.5,0,4.5,2,4.5,4.5s-2,4.5-4.5,4.5h-6C209,196,207,194,207,191.5z
		 M222,206.5c0,2.5-2,4.5-4.5,4.5h-6c-2.5,0-4.5-2-4.5-4.5s2-4.5,4.5-4.5h6C220,202,222,204,222,206.5z M207,178.5
		c0-2.5,2-4.5,4.5-4.5h6c2.5,0,4.5,2,4.5,4.5s-2,4.5-4.5,4.5h-6C209,183,207,181,207,178.5z M185,178.5c0-2.5,2-4.5,4.5-4.5h6
		c2.5,0,4.5,2,4.5,4.5s-2,4.5-4.5,4.5h-6C187,183,185,181,185,178.5z M185,206.5c0-2.5,2-4.5,4.5-4.5h6c2.5,0,4.5,2,4.5,4.5
		s-2,4.5-4.5,4.5h-6C187,211,185,209,185,206.5z M195.5,225h-6c-2.5,0-4.5-2-4.5-4.5s2-4.5,4.5-4.5h6c2.5,0,4.5,2,4.5,4.5
		S198,225,195.5,225z M240.5,225h-29c-2.5,0-4.5-2-4.5-4.5s2-4.5,4.5-4.5h29c2.5,0,4.5,2,4.5,4.5S243,225,240.5,225z M240.5,211h-5
		c-2.5,0-4.5-2-4.5-4.5s2-4.5,4.5-4.5h5c2.5,0,4.5,2,4.5,4.5S243,211,240.5,211z M240.5,196h-5c-2.5,0-4.5-2-4.5-4.5s2-4.5,4.5-4.5
		h5c2.5,0,4.5,2,4.5,4.5S243,196,240.5,196z M240.5,183h-5c-2.5,0-4.5-2-4.5-4.5s2-4.5,4.5-4.5h5c2.5,0,4.5,2,4.5,4.5
		S243,183,240.5,183z M251,157.5c0,3-2.5,5.5-5.5,5.5h-60c-3,0-5.5-2.5-5.5-5.5v-25c0-3,2.5-5.5,5.5-5.5h60c3,0,5.5,2.5,5.5,5.5
		V157.5z"/>
	<rect x="191" y="138" fill="#CCCCCC" width="49" height="14"/>
	<path fill="#FFFFFF" d="M82.1,160.9c0,0.9,0.3,1.8,0.8,2.5c0.5,0.7,1.1,1.2,1.7,1.6c0.6,0.4,1.6,0.8,3,1.2c0.4,0.1,0.8,0.2,1.2,0.3
		l-0.3-12.9c-1.2,0.4-2.2,0.9-3.2,1.6C83.2,156.8,82.1,158.7,82.1,160.9z"/>
	<path fill="#FFFFFF" d="M101.8,188.9c2.3-1.5,3.4-3.5,3.3-5.9c0-2.3-1.2-4-3.5-5.1c-1.2-0.6-2.8-1.1-4.5-1.6l0.3,14.5
		C99.1,190.3,100.6,189.7,101.8,188.9z"/>
	<path fill="#FFFFFF" d="M140,172.4c0-26.3-21.4-47.8-47.8-47.8c-26.3,0-47.8,21.4-47.8,47.8s21.4,47.8,47.8,47.8
		C118.6,220.1,140,198.7,140,172.4z M93.7,207c-2.2,0-4-1.5-4-3.7l-0.1-4.1c-5.2-0.2-9.9-1-14.1-2.7c-2.6-1-3.9-2.4-3.9-4.2
		c0-1.1,0.4-2.2,1.2-3.1c0.8-0.9,1.9-1.4,3.2-1.4c0.9,0,2.3,0.2,4.2,0.8c3.2,1.3,6.2,2,9.1,2.4l-0.3-16.4c-1.7-0.3-3.3-0.7-4.7-1.1
		c-2.2-0.6-4.3-1.4-6.3-2.4c-2-1-3.6-2.3-4.6-3.9c-1.1-1.6-1.7-3.5-1.7-5.6c-0.1-4.6,2-8.5,6.4-11.7c3-2.2,6.5-3.7,10.3-4.5
		l-0.1-5.9c0-2.2,1.7-4,3.9-4.1c2.2,0,4,1.7,4.1,3.9l0.1,5.6c4.9,0.1,9.4,1,13.3,2.5c2.1,0.8,3.1,2.1,3.2,3.9c0,0.9-0.4,1.9-1.2,2.7
		c-0.9,0.9-1.9,1.3-3.1,1.4c-0.9,0-2.4-0.3-4.5-0.9c-2.4-0.9-4.8-1.4-7.5-1.6l0.3,15.2c5.6,1.1,10,2.5,13.2,4.4
		c3.6,2.1,5.4,5.4,5.5,10c0.1,5-1.9,9-6.1,12.1c-3.2,2.4-7.2,3.9-11.9,4.6l0.1,4.1C97.7,205.4,96,207,93.7,207
		C93.7,207,93.7,207,93.7,207z"/>
	<g>
		<path fill="#5980B7" d="M210,91.5c0-3-2.5-5.5-5.5-5.5h-63.3c-3,0-5.5,2.5-5.5,5.5s2.5,5.5,5.5,5.5h63.3
			C207.5,97,210,94.5,210,91.5z"/>
		<path fill="#5980B7" d="M261.3,109H234V61c0-3-3.3-6-6.3-6H116.9c-3,0-4.9,2.9-4.9,6v10V71H99.9c-3,0-5.4,2.2-5.4,5.3l-0.1,37.3
			c-0.7,0-1.5,0-2.2,0c-32.4,0-58.8,26.4-58.8,58.8S59.8,231,92.2,231c12.6,0,24.3-4,33.9-11H164v19.6c0,3,1.5,5.4,4.5,5.4h92.7
			c3,0,5.7-2.4,5.7-5.4V115.1C267,112.1,264.3,109,261.3,109z M106,115.1V82h5.5l-0.1,34.7c-1.9-0.7-3.7-1.2-5.7-1.6
			C105,114.9,105,115,106,115.1z M44.5,172.4c0-26.3,21.4-47.8,47.8-47.8c26.3,0,47.8,21.4,47.8,47.8s-21.4,47.8-47.8,47.8
			C65.9,220.1,44.5,198.7,44.5,172.4z M164,203.4v5.6v0.1h-26.1c0.1,0,0.2-0.1,0.3-0.2c1.4-1.8,2.7-3.7,3.9-5.6c0,0,0-0.2,0.1-0.2
			H164V203.4z M164,192h-16.5c2-5,3.4-11.6,3.7-17.7c0-0.1,12.8,0.2,12.8,0.2V192z M164,163.3c-1-0.1-13.4-0.2-13.4-0.2
			c-0.2-2.4-2.6-10.1-4.8-15.1h15.7c0.5,0,1.5,0.1,2.5,0V163.3z M141.2,109c-3,0-5.5,2.5-5.5,5.5s2.5,5.5,5.5,5.5H164v0.6v16.8
			c-1-0.1-1.9-0.4-2.5-0.4h-20.3c-0.6,0-1.1,0.2-1.7,0.4c0,0,0.2,0,0.2,0c-2.9-5.8-11.7-13.1-16.7-15.4V66h100v43h-0.8h-16.8h-0.9
			h-35.9H141.2z M256,234h-81V120h81V234z"/>
		<path fill="#5980B7" d="M251,132.5c0-3-2.5-5.5-5.5-5.5h-60c-3,0-5.5,2.5-5.5,5.5v25c0,3,2.5,5.5,5.5,5.5h60c3,0,5.5-2.5,5.5-5.5
			V132.5z M191,138h49v14h-49V138z"/>
		<path fill="#5980B7" d="M195.5,174h-6c-2.5,0-4.5,2-4.5,4.5s2,4.5,4.5,4.5h6c2.5,0,4.5-2,4.5-4.5S198,174,195.5,174z"/>
		<path fill="#5980B7" d="M195.5,187h-6c-2.5,0-4.5,2-4.5,4.5s2,4.5,4.5,4.5h6c2.5,0,4.5-2,4.5-4.5S198,187,195.5,187z"/>
		<path fill="#5980B7" d="M195.5,202h-6c-2.5,0-4.5,2-4.5,4.5s2,4.5,4.5,4.5h6c2.5,0,4.5-2,4.5-4.5S198,202,195.5,202z"/>
		<path fill="#5980B7" d="M195.5,216h-6c-2.5,0-4.5,2-4.5,4.5s2,4.5,4.5,4.5h6c2.5,0,4.5-2,4.5-4.5S198,216,195.5,216z"/>
		<path fill="#5980B7" d="M211.5,183h6c2.5,0,4.5-2,4.5-4.5s-2-4.5-4.5-4.5h-6c-2.5,0-4.5,2-4.5,4.5S209,183,211.5,183z"/>
		<path fill="#5980B7" d="M211.5,196h6c2.5,0,4.5-2,4.5-4.5s-2-4.5-4.5-4.5h-6c-2.5,0-4.5,2-4.5,4.5S209,196,211.5,196z"/>
		<path fill="#5980B7" d="M211.5,211h6c2.5,0,4.5-2,4.5-4.5s-2-4.5-4.5-4.5h-6c-2.5,0-4.5,2-4.5,4.5S209,211,211.5,211z"/>
		<path fill="#5980B7" d="M240.5,174h-5c-2.5,0-4.5,2-4.5,4.5s2,4.5,4.5,4.5h5c2.5,0,4.5-2,4.5-4.5S243,174,240.5,174z"/>
		<path fill="#5980B7" d="M240.5,187h-5c-2.5,0-4.5,2-4.5,4.5s2,4.5,4.5,4.5h5c2.5,0,4.5-2,4.5-4.5S243,187,240.5,187z"/>
		<path fill="#5980B7" d="M240.5,202h-5c-2.5,0-4.5,2-4.5,4.5s2,4.5,4.5,4.5h5c2.5,0,4.5-2,4.5-4.5S243,202,240.5,202z"/>
		<path fill="#5980B7" d="M240.5,216h-29c-2.5,0-4.5,2-4.5,4.5s2,4.5,4.5,4.5h29c2.5,0,4.5-2,4.5-4.5S243,216,240.5,216z"/>
		<path fill="#5980B7" d="M110.1,172.5c-3.2-1.9-7.1-3.3-13.1-4.4v0l-0.3-15.2c2.6,0.2,5.1,0.7,7.4,1.6c2.1,0.6,3.6,0.9,4.5,0.9
			c1.2,0,2.3-0.5,3.1-1.4c0.9-0.9,1.3-1.8,1.2-2.7c0-1.8-0.8-3.1-2.9-3.9c-4-1.5-8.1-2.3-13.1-2.5v0l-0.4-5.6c0-2.2-2-3.9-4.2-3.9
			c-2.2,0-4,1.9-4,4.1l0.1,5.9l0,0.1l0-0.1c-3.8,0.7-7.3,2.2-10.3,4.5c-4.4,3.2-6.5,7.1-6.4,11.7c0,2.1,0.6,4,1.7,5.6
			c1.1,1.6,2.6,2.9,4.6,3.9c2,1,4.1,1.8,6.3,2.4c1.4,0.4,3,0.7,4.7,1.1l0.3,16.4c-2.9-0.3-6-1.1-9.1-2.4c-1.9-0.5-3.3-0.8-4.2-0.8
			c-1.3,0-2.4,0.5-3.2,1.4c-0.9,0.9-1.3,1.9-1.2,3.1c0,1.8,1.3,3.2,3.9,4.2c4.2,1.6,8.9,2.5,14.1,2.7l0.1,4c0,2.2,1.8,3.7,4,3.7
			c0,0,0.1,0,0.1,0c2.2,0,4-1.6,3.9-3.8l-0.1-4.2c4.7-0.7,8.7-2.1,11.9-4.5c4.2-3.1,6.2-7.1,6.1-12.1
			C115.5,177.9,113.7,174.6,110.1,172.5z M87.7,166.2c-1.4-0.4-2.4-0.8-3-1.2c-0.6-0.4-1.2-1-1.7-1.6c-0.5-0.7-0.8-1.5-0.8-2.5
			c0-2.2,1-4.2,3.3-5.7c0.9-0.6,2.1-1.1,3.2-1.5l0.3,12.8C88.5,166.5,88.1,166.3,87.7,166.2z M102.1,188.9c-1.3,0.8-2.1,1.4-4.1,1.8
			v0l-0.6-14.5c1.8,0.5,3.1,1,4.4,1.6c2.3,1.1,3.5,2.8,3.6,5.1C105.4,185.4,104.4,187.4,102.1,188.9z"/>
	</g>
</g>
</svg>
