<?xml version="1.0" encoding="utf-8"?>
<!-- Generator: Adobe Illustrator 18.1.1, SVG Export Plug-In . SVG Version: 6.00 Build 0)  -->
<svg version="1.1" id="Layer_1" xmlns="http://www.w3.org/2000/svg" xmlns:xlink="http://www.w3.org/1999/xlink" x="0px" y="0px"
	 viewBox="0 0 300 300" enable-background="new 0 0 300 300" xml:space="preserve">
<g>
	<path fill="none" d="M150,108c0-1.8,1.8-3.3,3.7-3.8l0.4-0.2H150V108z"/>
	<polygon fill="none" points="129.7,126 145,139.4 145,126 	"/>
	<path fill="none" d="M157.6,121l4.5-7.6l-5.8,1.5c-2.8,0.7-6.3-0.9-6.3-3.7v9.7H157.6z"/>
	<polygon fill="none" points="150,134.7 154.6,126 150,126 	"/>
	<rect x="173" y="86" fill="none" width="14" height="13"/>
	<path fill="none" d="M178.9,104.4l1.7,16.6h6.3v-17h-8.1C178.9,104,178.9,104.2,178.9,104.4z"/>
	<path fill="none" d="M176.2,131.1c-0.2,0-0.2,0.1-0.4,0.1c-1.1,0-2.8-0.3-2.8-0.9V142h14v-16h-5.9
		C180.9,129,178.9,130.8,176.2,131.1z"/>
	<rect x="107" y="104" fill="none" width="17" height="17"/>
	<polygon fill="none" points="106.6,147.4 106.7,147.1 106.6,147.1 	"/>
	<polygon fill="none" points="157.9,142 168,142 168,126 167.4,126 	"/>
	<rect x="150" y="86" fill="none" width="18" height="13"/>
	<rect x="129" y="104" fill="none" width="16" height="17"/>
	<path fill="none" d="M107,142h3.4l11.1-15.2c0.2-0.3,0.4,0.2,0.7-0.8H107V142z"/>
	<rect x="150" y="169" fill="none" width="18" height="10"/>
	<rect x="129" y="169" fill="none" width="16" height="10"/>
	<path fill="none" d="M82,75h110.3c3,0,5.7,2.7,5.7,5.8v98l13-0.2V59H64v55.9c5,0.2,9,0.6,13,1.4V80.8C77,77.7,79,75,82,75z"/>
	<path fill="none" d="M102,104H88v15.5c1,0.5,1.6,1.5,2.6,1.5H102V104z"/>
	<path fill="none" d="M145,154c-1-0.2-0.8-0.5-1.1-0.7l-7.2-6.3H129v17h16V154z"/>
	<polygon fill="none" points="240.9,189 240.8,188.8 231.5,189 	"/>
	<path fill="none" d="M97,142h5v-16h-6.8c0.1,1,0.5,0.6,0.6,0.9c0.6,0.9,1.2,2,1.2,3.2V142z"/>
	<rect x="88" y="86" fill="none" width="14" height="13"/>
	<rect x="129" y="86" fill="none" width="16" height="13"/>
	<path fill="none" d="M102,147h-5v10.3c0,0,1.1,0.1,1.7,0.1l3.3-3.6V147z"/>
	<rect x="107" y="86" fill="none" width="17" height="13"/>
	<path fill="none" d="M111.4,159.3C111.4,159.3,111.4,159.3,111.4,159.3c4.4,1.1,8.2,2.7,11,4.7h1.6v-17h-3.6L111.4,159.3z"/>
	<polygon fill="none" points="129,139.9 129,142 131.1,142 	"/>
	<polygon fill="none" points="173,169 173,179 177.5,179 187,179 187,169 	"/>
	<rect x="128" y="190" fill="none" width="16" height="16"/>
	<path fill="none" d="M152.3,152c-0.6,1-1.3,1.8-2.3,2.3v9.7h18v-17h-13L152.3,152z"/>
	<rect x="173" y="147" fill="none" width="14" height="17"/>
	<path fill="#CCCCCC" d="M173,99.7c0,0,0,0,0.1-0.1C173.1,99.6,173,99.6,173,99.7c0.1-0.1,0.1-0.1,0.2-0.1c0.2,0,0.4,0,0.5,0
		c0.1,0,0.1,0,0.2,0c0.2,0,0.5,0,0.7,0.1c0,0,0,0,0,0c0.2,0,0.5,0.1,0.7,0.2c0,0,0.1,0,0.1,0c0.5,0.2,0.9,0.4,1.3,0.7
		c0,0,0.1,0.1,0.1,0.1c0.4,0.3,0.8,0.7,1.1,1.1c0,0,0,0,0,0c0,0,0,0,0,0c0.2,0.2,0.3,0.4,0.4,0.7c0,0,0,0,0,0
		c0.1,0.2,0.2,0.4,0.3,0.6c0,0,0,0.1,0,0.1c0.1,0.2,0.1,0.5,0.2,0.7c0,0,0,0,0,0c0,0,0,0,0,0h8.1v-5h-14V99.7z"/>
	<rect x="107" y="99" fill="#CCCCCC" width="17" height="5"/>
	<rect x="129" y="99" fill="#CCCCCC" width="16" height="5"/>
	<rect x="88" y="99" fill="#CCCCCC" width="14" height="5"/>
	<polygon fill="#CCCCCC" points="150,99 150,104 154.1,104 168,100.9 168,99 	"/>
	<path fill="#CCCCCC" d="M145,121h-16v4.3c0,0.2,0.5,0.4,0.9,0.7l-0.1,0H145V121z"/>
	<polygon fill="#CCCCCC" points="167.6,126.1 167.6,125.9 167.4,126.1 	"/>
	<path fill="#CCCCCC" d="M102,121H90.6c2.2,2,3.8,3,4.7,5h6.8V121z"/>
	<path fill="#CCCCCC" d="M181.1,125c0,0.3,0,1,0,1h5.9v-5h-6.3L181.1,125z"/>
	<path fill="#CCCCCC" d="M107,121v5h15.2c0.4,0,0.8-0.5,1.8-0.8V121H107z"/>
	<polygon fill="#CCCCCC" points="150,126 154.6,126 157.6,121 150,121 	"/>
	<polygon fill="#CCCCCC" points="107,147 106.7,147 110.4,142 107,142 	"/>
	<rect x="173" y="142" fill="#CCCCCC" width="14" height="5"/>
	<polygon fill="#CCCCCC" points="155,147 168,147 168,142 157.9,142 	"/>
	<rect x="97" y="142" fill="#CCCCCC" width="5" height="5"/>
	<polygon fill="#CCCCCC" points="131.1,142 129,142 129,147 136.7,147 	"/>
	<polygon fill="#CCCCCC" points="124,147 124,142.8 120.4,147 	"/>
	<rect x="129" y="164" fill="#CCCCCC" width="16" height="5"/>
	<path fill="#CCCCCC" d="M123.6,165.1v-1h-1.2C122.8,164.4,123.2,164.8,123.6,165.1z"/>
	<rect x="173" y="164" fill="#CCCCCC" width="14" height="5"/>
	<rect x="150" y="164" fill="#CCCCCC" width="18" height="5"/>
	<polygon fill="#CCCCCC" points="102,153.8 103.2,152.6 107,147.4 107,147.1 107,142.1 107,126.1 107,121.1 107,104.1 107,99.1 
		107,86 102,86 102,99.1 102,104.1 102,121.1 102,126.1 102,142.1 102,147.1 	"/>
	<path fill="#CCCCCC" d="M129,169.1v-5v-17v-5v-2.3l-1.7-1.6l-3.3,4.5v4.4v17v1c1,1,1.9,2.1,2.5,3.3c0.9,1,1.5,2.3,1.5,3.8v6.9h1
		V169.1z"/>
	<path fill="#CCCCCC" d="M124,104.1v17v4.1c0-0.3,1.2-0.5,1.8-0.5c1.1-0.1,2.2,0.1,3.2,0.6v-4.2v-17v-5V86h-5v13.1V104.1z"/>
	<path fill="#CCCCCC" d="M145,104.1v17v5v13.3l1.4,1.3l3.6-6v-8.6v-5v-9.9c0-0.1-0.1-0.2-0.1-0.3c-0.2-1-0.9-2,0.1-2.9v-3.9v-5V86
		h-5v13.1V104.1z"/>
	<path fill="#CCCCCC" d="M150,164.1v-9.9c-1,0.2-0.9,0.3-1.4,0.4c-1.3,0.2-2.6-0.1-3.6-0.7v10.1v5v9.9h5v-9.9V164.1z"/>
	<path fill="#CCCCCC" d="M168,100.9l4.4-1.1c0,0,0.2,0,0.2,0c0.1,0-0.6,0,0.4-0.1v-0.5V86h-5v13.1V100.9z"/>
	<path fill="#CCCCCC" d="M173,164.1v-17v-5v-11.9c-2-0.9-2.4-2.3-2.6-4l-0.3-4.1l-2.1,3.7v0.3v16v5v17v5v9.9h5v-9.9V164.1z"/>
	<path fill="#FFFFFF" d="M54.8,206.8c-9.2-0.5-16.8-2.2-20.8-3.9v10c1,1.1,6.5,4.5,20.9,5.2C54.7,216.8,54.8,206.8,54.8,206.8z"/>
	<path fill="#FFFFFF" d="M77.2,151.2c3.9-1.1,6.8-2.5,8.8-3.4v-7.1c-8,2.8-17.2,3.9-26.3,3.9c-8.9,0-18.7-1.1-25.7-3.6v7.7
		c1,0.9,4.8,2.1,9.1,3.1L77.2,151.2z"/>
	<path fill="#FFFFFF" d="M53.3,171c0.3-2.5,1.9-4.7,4-6.4c-10.4-0.2-18.4-2.1-23.4-4v7.5c1,0.9,4.6,2.1,9,3.1L53.3,171z"/>
	<path fill="#FFFFFF" d="M54.4,195.8c0.1-0.8,0.4-11.9,0.4-11.9c-9.2-0.5-16.8-2.2-20.8-3.9v11c1,0.9,4.6,2.1,9,3.1L54.4,195.8z"/>
	<path fill="#FFFFFF" d="M42.7,171.2c2.9,0.7,6.5,1.3,10.6,1.6c0-0.3,0-0.5,0-0.8c0-0.3,0-0.6,0.1-1L42.7,171.2z"/>
	<path fill="#CCCCCC" d="M59.2,125.8c-12.2,0-20.6,2.2-24.3,3.9c3.7,1.8,12.1,3.9,24.3,3.9s20.6-2.2,24.3-3.9
		C79.9,127.9,71.4,125.8,59.2,125.8z"/>
	<path fill="#FFFFFF" d="M42.7,151.8c4.3,1,9.7,1.8,16.5,1.8c7.3,0,13.3-1.1,17.8-2.4L42.7,151.8z"/>
	<path fill="#FFFFFF" d="M42.7,194.1c3.1,0.7,6.8,1.3,11.2,1.6c-0.2-0.6-0.2-1.2-0.2-1.8L42.7,194.1z"/>
	<path fill="#FFFFFF" d="M66,226.2v9.7c1,1.2,6.7,5.2,25.7,5.2c18.9,0,23.3-3.9,25.3-5v-11c-6,2.4-14.8,4.8-26.5,4.8
		C79.8,229.9,71,228.1,66,226.2z"/>
	<path fill="#FFFFFF" d="M90.5,207c-10.7,0-19.5-1.8-24.5-3.7v11.2c1,0.8,4.3,1.8,7.8,2.6l34.4-0.6c4-1.2,6.8-2.5,8.8-3.5v-10.8
		C111,204.5,102.2,207,90.5,207z"/>
	<path fill="#FFFFFF" d="M90.5,186.9c-8.4,0-17.5-1-24.5-3.2v7.9c1,0.8,4.3,1.8,7.8,2.6l34.4-0.6c4-1.2,6.8-2.5,8.8-3.5V183
		C109,185.8,99.7,186.9,90.5,186.9z"/>
	<path fill="#CCCCCC" d="M114.4,172c-3.7-1.8-12.1-3.9-24.3-3.9s-20.6,2.2-24.3,3.9c3.7,1.8,12.1,3.9,24.3,3.9
		S110.7,173.8,114.4,172z"/>
	<path fill="#FFFFFF" d="M90.1,196c7.3,0,13.3-1.1,17.8-2.4l-34.3,0.6C77.8,195.2,83.3,196,90.1,196z"/>
	<path fill="#FFFFFF" d="M90.1,218.9c7.3,0,13.3-1.1,17.8-2.4l-34.3,0.6C77.8,218.1,83.3,218.9,90.1,218.9z"/>
	<polygon fill="#CCCCCC" points="223.2,189.2 242.3,210 247,210 259.5,210 240.8,188.9 231.5,189.1 	"/>
	<polygon fill="#FFFFFF" points="178,240 207.2,240 207.2,221 178,221 	"/>
	<rect x="247" y="221" fill="#FFFFFF" width="20" height="19"/>
	<polygon fill="#FFFFFF" points="155,202.3 155,217.5 167,230.8 167,217 	"/>
	<polygon fill="#CCCCCC" points="180.7,190.1 159.1,190.5 175.2,210 199.6,210 	"/>
	<polygon fill="#FFFFFF" points="210.2,191.3 196.9,191.2 214.7,210 227.3,210 	"/>
	<polygon fill="#FFFFFF" points="218.2,240 236,240 236,221 218.2,221 	"/>
	<g>
		<path fill="#5980B7" d="M187,99.1v5v17v5v16v5v17v5v9.9l11-0.2v-98c0-3-2.7-5.8-5.7-5.8H82c-3,0-5,2.7-5,5.8v35.5
			c4,0.8,8,1.8,11,3.2v-15.3v-5V86h13.6h5h17h5h16h5h18h5H187V99.1z"/>
		<path fill="#5980B7" d="M276.7,212.9c-0.2-0.3-0.5-0.6-0.7-0.9l-28.6-32.2c-1.1-1.2-2.4-1.9-4-1.9l-21.3,0.4V54.1
			c0-3-3.2-6.1-6.2-6.1H58.5c-3,0-5.5,3-5.5,6.1V115c3-0.1,3.9-0.2,6-0.2c0.1,0,0.2,0,0.3,0c-2,0-4.1,0.1-6.2,0.2
			c-15.3,0.9-30.4,5-30.4,14.7c0,0.5-0.7,1,0.3,1.5v83.2c0,0.4,0,0.7,0.1,1.1c0.6,3.1,3.9,12.6,31.9,13.7v8.1c0,0.3-0.2,0.5-0.2,0.8
			c0.5,3.3,4.5,14.1,36.6,14.1c32.3,0,36.1-10.9,36.4-14.2c0-0.2,0.2-0.4,0.2-0.6V217h16v2.6c0,1.4,0.3,2.7,1.2,3.7l22.4,25
			c0.3,0.4,0.5,0.7,0.9,1.1l0-0.1c1,1.2,2.5,1.7,4.1,1.7h40.1h28.4h31c3,0,5.9-2.3,5.9-5.4v-29.5C278,214.9,277.4,213.8,276.7,212.9
			z M231.5,189.1l9.3-0.2l0.2,0.1l18.6,20.9H247h-4.7l-1.4-1.4l-17.7-19.3L231.5,189.1z M159.1,190.5l21.5-0.5l18.9,20h-24.4
			L159.1,190.5z M196.9,191.2l13.3,0.1l17.1,18.7h-12.6L196.9,191.2z M59.2,125.8c12.2,0,20.6,2.2,24.3,3.9
			c-3.7,1.8-12.1,3.9-24.3,3.9s-20.6-2.2-24.3-3.9C38.6,127.9,47,125.8,59.2,125.8z M59.3,114.8c1.4,0,3,0,4,0.1
			C61.9,114.8,60.6,114.8,59.3,114.8z M59.7,144.6c9.1,0,18.3-1.1,26.3-3.9v7.1c-2,0.9-4.8,2.3-8.8,3.4c-4.5,1.3-10.6,2.4-17.9,2.4
			c-6.8,0-12.1-0.8-16.3-1.8c-4.3-1-8-2.3-9-3.1V141C41,143.5,50.8,144.6,59.7,144.6z M53.3,171c0,0.3-0.1,0.6-0.1,1
			c0,0.3,0,0.5,0,0.8c-4.1-0.3-7.4-0.9-10.4-1.6c-4.3-1-8-2.3-9-3.1v-7.5c5,1.9,12.9,3.8,23.4,4C55.2,166.4,53.6,168.5,53.3,171z
			 M34,180c4,1.7,11.6,3.5,20.8,3.9l-0.2,11.9c0,0-8.5-0.9-11.5-1.6c-4.3-1-8-2.3-9-3.1V180z M66,203.3c5,1.9,13.8,3.7,24.5,3.7
			c11.7,0,20.5-2.4,26.5-4.8V213c-2,0.9-4.9,2.3-8.9,3.5c-4.5,1.3-10.6,2.4-17.9,2.4c-6.8,0-12.1-0.8-16.3-1.8
			c-3.5-0.8-6.9-1.8-7.9-2.6V203.3z M117,190.1c-2,0.9-4.9,2.3-8.9,3.5c-4.5,1.3-10.6,2.4-17.9,2.4c-6.8,0-12.1-0.8-16.3-1.8
			c-3.5-0.8-6.9-1.8-7.9-2.6v-7.9c7,2.3,16.1,3.2,24.5,3.2c9.2,0,18.5-1.2,26.5-4V190.1z M90.1,175.9c-12.2,0-20.6-2.2-24.3-3.9
			c3.7-1.8,12.1-3.9,24.3-3.9s20.6,2.2,24.3,3.9C110.7,173.8,102.3,175.9,90.1,175.9z M34,212.9v-10c4,1.7,11.6,3.5,20.8,3.9
			c0,0-0.1,10,0.1,11.2C40.5,217.3,35,214,34,212.9z M117,236.1c-2,1.1-6.4,5-25.3,5c-19.1,0-24.7-4-25.7-5.2v-9.7
			c5,1.9,13.8,3.7,24.5,3.7c11.7,0,20.5-2.4,26.5-4.8V236.1z M126.3,168.3c-0.6-1.2-1.5-2.3-2.6-3.3c-0.4-0.3-0.8-0.6-1.2-1
			c-2.8-2.1-6.6-3.6-11.1-4.7c0,0,0,0,0,0l9-12.2l3.2-4.4l3.3-4.5l1.7,1.6l2.5,2.3l5.6,5l7,6.2c0.3,0.2,0.6,0.5,0.9,0.6
			c1.1,0.6,2.4,0.9,3.6,0.7c0.5-0.1,1-0.2,1.4-0.4c1-0.5,1.9-1.2,2.5-2.2l2.9-4.9l3-5l9.5-16l0.2-0.3l2.2-3.7l0.4,4.1
			c0.2,1.7,1.1,3.1,2.4,4c0.9,0.6,1.9,1,3.1,1c0.2,0,0.4,0,0.6,0c2.7-0.3,4.7-2.4,4.9-5c0-0.3,0-0.7,0-1l-0.4-4l-1.7-16.6
			c0-0.1,0-0.2-0.1-0.4c0,0,0,0,0-0.1c0,0,0-0.1,0-0.1c0-0.2-0.1-0.5-0.2-0.7c0,0,0-0.1,0-0.1c-0.1-0.2-0.2-0.4-0.3-0.6c0,0,0,0,0,0
			c-0.1-0.2-0.3-0.4-0.4-0.7c0,0,0,0,0,0c0,0,0,0,0,0c-0.3-0.4-0.7-0.8-1.1-1.1c0,0-0.1-0.1-0.1-0.1c-0.4-0.3-0.8-0.5-1.3-0.7
			c0,0-0.1,0-0.1,0c-0.2-0.1-0.4-0.1-0.7-0.2c0,0,0,0,0,0c-0.2,0-0.5-0.1-0.7-0.1c-0.1,0-0.1,0-0.2,0c-0.2,0-0.4,0-0.6,0
			c-0.1,0-0.1,0-0.2,0c0,0,0,0,0,0c-0.1,0-0.2,0-0.3,0.1c-0.1,0-0.2,0-0.3,0.1c0,0,0,0-0.1,0l-4.6,1.1l-13.5,3.3l-0.6,0.1
			c-1.9,0.5-3.4,1.9-3.9,3.7c-0.3,0.9-0.3,1.9-0.1,2.9c0,0.1,0.1,0.2,0.1,0.3c0.9,2.8,3.7,4.4,6.5,3.7l6-1.5l-4.5,7.6l-3,5l-5.1,8.6
			l-3.6,6l-1.4-1.3l-14.8-13.3l-0.1-0.1c-0.3-0.3-0.7-0.5-1.1-0.7c-1-0.5-2.1-0.7-3.2-0.6c-0.6,0.1-1.3,0.3-1.8,0.5
			c-0.5,0.2-0.9,0.5-1.3,0.9c-0.3,0.2-0.5,0.5-0.7,0.8l-11.1,15.2l-3.7,5l-0.2,0.2l-3.8,5.2l-1.2,1.2l-3.1,3.6
			c-0.6,0-1.4-0.1-1.4-0.1v-10.1v-5v-12c0-1.2-0.6-2.3-1.2-3.1c-0.1-0.3-0.3-0.6-0.4-0.9c-0.9-1.9-2.6-3.6-4.7-5
			c-0.9-0.6-2-1.1-3.1-1.7c-3.1-1.4-6.9-2.5-11-3.2c-4-0.7-8-1.2-12.3-1.4c-0.2,0-0.3,0-0.3,0V59h147v119.6l-0.5,0l-12.6,0.2
			l-11.1,0.2l-9.3,0.2l-29.9,0.6c-2.1,0-4,1.3-4.9,3.2c0.9-1.9,2.8-3.3,4.9-3.3l29.9-0.7h-4.9h-5h-18h-5h-16H128v-6.9
			C128,170.7,127.2,169.3,126.3,168.3z M144,190.2v15.6v0.2h-16v-0.2v-15.6V190h16V190.2z M155,202.3l12,14.7v13.8l-12-13.3V202.3z
			 M178,221h29.2l0,19H178V221z M236,240h-17.8l0-19H236V240z M267,240h-20v-19h20V240z"/>
	</g>
</g>
</svg>
