<?xml version="1.0" encoding="utf-8"?>
<!-- Generator: Adobe Illustrator 18.1.1, SVG Export Plug-In . SVG Version: 6.00 Build 0)  -->
<svg version="1.1" id="Layer_1" xmlns="http://www.w3.org/2000/svg" xmlns:xlink="http://www.w3.org/1999/xlink" x="0px" y="0px"
	 viewBox="0 0 300 300" enable-background="new 0 0 300 300" xml:space="preserve">
<g>
	<path fill="none" d="M62.1,97.2c0,0.2,0.1,0.5,0.2,1c0.4,1.5,1.1,3.3,2.2,5.3c1.1-1.8,2.4-3.5,3.8-5C65.7,97.6,63.2,97.1,62.1,97.2
		z"/>
	<path fill="none" d="M110,130.3c3.6,0.3,6-0.1,7-0.6c-0.6-1.1-2.4-2.9-4.6-4.7c-0.1,0.3-0.2,0.6-0.3,0.9
		C111.5,127.4,110.8,128.9,110,130.3z"/>
	<path fill="#FFFFFF" d="M173.1,108.3l-4.5-13.4c-0.5-1.5,0.1-3.2,1.4-4.1l11.3-7.7h-14.3c-1.5,0-2.9-0.9-3.3-2.3l-4.6-14.2
		l-4.6,14.2c-0.5,1.4-1.8,2.3-3.3,2.3h-14.3l11.4,7.8c1.3,0.9,1.9,2.6,1.4,4.1l-4.4,13.1l12-8.6c0.6-0.4,1.3-0.7,2-0.7
		c0.7,0,1.5,0.2,2.1,0.7L173.1,108.3z"/>
	<path fill="#CDCCCC" d="M153.3,179.1c-1.4,0-2.8-0.7-3.5-2l-1.3-2.3l-14.3,8.2H168v-11.8l-12.8,7.3
		C154.5,178.9,153.9,179.1,153.3,179.1z"/>
	<polygon fill="#FFFFFF" points="210.3,138 194.7,110.7 139.2,142.3 142,147.2 153.4,167.2 153.4,167.2 154.8,169.6 	"/>
	
		<rect x="209.6" y="97.3" transform="matrix(-0.8693 0.4942 -0.4942 -0.8693 454.168 120.1611)" fill="#FFFFFF" width="3.3" height="45.5"/>
	<polygon fill="#FFFFFF" points="113.5,184.5 113.8,185.1 144.4,167.7 135.6,152.1 105,169.5 109.4,177.3 113.5,184.5 	"/>
	
		<rect x="88.9" y="175.9" transform="matrix(-0.4943 -0.8693 0.8693 -0.4943 -23.0053 359.7371)" fill="#FFFFFF" width="8.6" height="21.3"/>
	<path fill="#FFFFFF" d="M221.1,192l-2.4-7.2l-2.4,7.2c-0.4,1.2-1.6,2-2.9,2h-7.4l5.9,4.2c1.1,0.8,1.5,2.2,1.1,3.5l-2.3,6.9l6.1-4.4
		c0.5-0.4,1.1-0.6,1.8-0.6c0.6,0,1.2,0.2,1.8,0.6l6.1,4.5l-2.3-7c-0.4-1.3,0-2.8,1.1-3.5l5.8-4.2H224
		C222.7,194,221.5,193.3,221.1,192z"/>
	<path fill="#FFFFFF" d="M66.8,116.6c-0.1,3.1,0.6,6.3,2,9.2c2.3,4.9,6.4,8.6,11.6,10.5c2.2,0.8,4.5,1.2,6.9,1.2
		c4.1,0,7.9-1.2,11.1-3.3c-4.8-1.4-10.3-3.6-16.4-6.7C75.4,124,70.5,120.2,66.8,116.6z"/>
	<path fill="#FFFFFF" d="M107.6,116.8c-2.9,0.9-6.1,1.2-9.4,1.2c0,0,0,0,0,0c-12.3,0-24.3-6-29.6-9.2c-0.1,0.1-0.1,0.3-0.2,0.5
		c3.4,4.2,8.6,8.7,16.4,12.7c7.5,3.9,13.8,6.1,18.8,7.3c1.2-1.6,2.2-3.5,2.9-5.4C107.2,121.5,107.6,119.1,107.6,116.8z"/>
	<path fill="#FFFFFF" d="M106.9,111.7c-0.3-1.2-0.7-2.3-1.2-3.4c-2.3-4.9-6.4-8.6-11.6-10.5c-2.2-0.8-4.5-1.2-6.9-1.2
		c-1.9,0-3.7,0.3-5.5,0.8C83.6,101.9,89.6,110.6,106.9,111.7z"/>
	<path fill="#CDCCCC" d="M98.2,114.5c-13-3.2-18.2-11.1-20.2-15.6c-3.1,1.5-5.7,3.9-7.6,6.7c4.9,2.9,16.4,8.9,27.8,8.9
		C98.2,114.5,98.2,114.5,98.2,114.5z"/>
	<g>
		<path fill="#5A81B8" d="M154.7,191h17.5c2.2,0,3.8-2,3.8-4.2v-19.9l0.3-0.2l38-21.6l1.8,3.2c0.7,1.3,2.1,2,3.5,2
			c0.7,0,1.4-0.2,2-0.5l9.8-5.6c0.9-0.5,1.6-1.4,1.9-2.4c0.3-1,0.1-2.1-0.4-3.1L206.4,92c-0.5-0.9-1.4-1.6-2.4-1.9
			c-1-0.3-2.1-0.1-3.1,0.4l-9.8,5.6c-1.9,1.1-2.6,3.6-1.5,5.5l1.2,2.1l-9.9,5.6l-4.7-14.2l18.6-12.5c1.3-0.9,1.8-2.6,1.4-4
			s-1.8-2.6-3.3-2.6h-23.2l-7.2-22c-0.5-1.4-1.8-2.4-3.3-2.4s-2.9,0.9-3.3,2.3l-7.2,22h-23.2c-1.5,0-2.9,1.1-3.3,2.6
			c-0.5,1.5,0.1,3.1,1.4,4l18.6,12.6l-7.1,20.9c-0.5,1.4,0,3,1.2,3.9c1.2,0.9,2.9,0.9,4.1,0l18.8-13.5l11.6,8.6l-38.9,22.1
			c-0.9,0.5-1.6,1.4-1.9,2.4c-0.3,1-0.1,2.1,0.4,3.1l1.3,2.4l-34.1,19.4c-1.9,1.1-2.6,3.6-1.5,5.5l0.3,0.6l-22.1,12.5
			c-0.9,0.5-1.6,1.4-1.9,2.4c-0.3,1-0.1,2.1,0.4,3.1L81,203c0.7,1.3,2.1,2,3.5,2c0.7,0,1.4-0.2,2-0.5l22.1-12.5l0.3,0.6
			c0.5,0.9,2.1,1.6,3.1,1.9c0.4,0.1,0,0.1,0.4,0.1c2.6,0,4.4-1.5,5-1.8l6.5-3.8c0.7,1.2,2.2,2,3.7,2h17.7l-28,51.1
			c-1.1,1.9-0.4,4.4,1.6,5.5c0.6,0.3,1.3,0.5,1.9,0.5c1.4,0,2.9-0.7,3.6-2.1l21.7-39.3v37.6c0,2.2,1.8,4,4,4s4-1.8,4-4v-37.8
			l21.6,39.7c0.7,1.3,2.1,2.1,3.5,2.1c0.6,0,1.3-0.2,1.9-0.5c1.9-1.1,2.6-3.6,1.6-5.5L154.7,191z M161.2,99.5
			c-0.6-0.5-1.4-0.7-2.1-0.7c-0.7,0-1.4,0.2-2,0.7l-12,8.6l4.4-13.1c0.5-1.5,0-3.3-1.4-4.1L136.8,83h14.3c1.5,0,2.9-0.9,3.3-2.3
			l4.6-14.2l4.6,14.2c0.5,1.4,1.8,2.3,3.3,2.3h14.3L170,90.7c-1.3,0.9-1.9,2.6-1.4,4.1l4.5,13.5L161.2,99.5z M134.1,183l0.8-0.4
			l13.7-7.7l1.2,2.1c0.7,1.3,2.1,2,3.5,2c0.7,0,1.4-0.2,2.1-0.5l12.7-7.2V183H134.1z M152.5,187.6c-0.2-0.1-0.3-0.2-0.5-0.3
			C152.1,187.3,152.3,187.5,152.5,187.6z M201.4,99.5l22.5,39.6l-2.9,1.6l-22.5-39.6L201.4,99.5z M194.7,110.7l15.5,27.3l-55.5,31.6
			l-1.3-2.4c0,0,0,0,0,0l-11.4-20l-2.8-5L194.7,110.7z M86,195.6l-4.2-7.5l18.6-10.6l4.2,7.5L86,195.6z M113.8,185.1l-0.3-0.6
			c0,0,0,0,0,0l-4.1-7.2l-4.4-7.8l30.6-17.4l8.9,15.6L113.8,185.1z"/>
		<path fill="#5A81B8" d="M243.7,190.2c-0.4-1.3-1.6-2.2-2.9-2.2h-14.7l-4.5-13.9c-0.4-1.2-1.6-2-2.9-2s-2.5,0.8-2.9,2l-4.5,13.9
			h-14.7c-1.3,0-2.5,1-2.9,2.2s0.1,2.7,1.1,3.4l11.8,8.3l-4.5,13.6c-0.4,1.2,0,2.6,1.1,3.4c1.1,0.8,2.5,0.8,3.5,0l11.9-8.6l11.9,8.7
			c0.5,0.4,1.2,0.6,1.8,0.6c0.6,0,1.2-0.2,1.8-0.6c1.1-0.8,1.5-2.1,1.1-3.4l-4.5-13.7l11.8-8.3C243.7,192.9,244.1,191.5,243.7,190.2
			z M225.5,198.2c-1.1,0.8-1.5,2.2-1.1,3.5l2.3,7l-6.1-4.5c-0.5-0.4-1.2-0.6-1.8-0.6c-0.6,0-1.2,0.2-1.8,0.6l-6.1,4.4l2.3-6.9
			c0.4-1.3,0-2.8-1.1-3.5l-5.9-4.2h7.4c1.3,0,2.5-0.7,2.9-2l2.4-7.2l2.4,7.2c0.4,1.2,1.6,2,2.9,2h7.3L225.5,198.2z"/>
		<path fill="#5A81B8" d="M87.2,143.4c7.1,0,13.7-2.9,18.5-7.6c2.4,0.4,4.6,0.6,6.5,0.6c2.9,0,5.1-0.4,6.8-1c2.5-1,3.5-2.5,3.9-3.6
			c1.6-4.4-3.9-9.6-9.3-13.4c0.2-4.3-0.6-8.6-2.5-12.7c-3-6.4-8.3-11.2-15-13.6c-2.9-1-5.8-1.5-8.9-1.5c-4.8,0-9.5,1.3-13.5,3.7
			c-4.3-2-11.9-4.8-15.6-1.7c-1.3,1.1-2.7,3.2-1.5,7.3c0.8,2.7,2.2,6.4,5.1,10.5c-1.6,6-1,12.2,1.7,17.9c3,6.4,8.3,11.2,15,13.6
			C81.2,142.9,84.2,143.4,87.2,143.4z M117,129.7c-1,0.5-3.4,0.9-7,0.6c0.8-1.4,1.5-2.9,2.1-4.4c0.1-0.3,0.2-0.6,0.3-0.9
			C114.6,126.8,116.4,128.6,117,129.7z M106.4,123.9c-0.7,2-1.7,3.8-2.9,5.4c-5-1.2-11.3-3.4-18.8-7.3c-7.8-4-12.9-8.5-16.4-12.7
			c0.1-0.1,0.1-0.4,0.2-0.5c5.3,3.1,17.3,9.2,29.6,9.2c0,0,0,0,0,0c3.4,0,6.5-0.3,9.4-1.2C107.6,119.1,107.2,121.6,106.4,123.9z
			 M87.2,96.6c2.3,0,4.6,0.4,6.9,1.2c5.1,1.8,9.2,5.5,11.6,10.5c0.5,1.1,0.9,2.2,1.2,3.4c-17.2-1.1-23.2-9.8-25.2-14.3
			C83.5,96.9,85.3,96.6,87.2,96.6z M98.2,114.5c0,0-0.1,0-0.1,0c-11.4,0-22.9-6-27.8-8.9c2-2.9,4.6-5.2,7.6-6.7
			C80,103.4,85.3,111.3,98.2,114.5z M68.3,98.6c-1.5,1.5-2.8,3.2-3.8,5c-1.1-2-1.7-3.9-2.2-5.3c-0.1-0.5-0.2-0.8-0.2-1
			C63.2,97.1,65.7,97.6,68.3,98.6z M68.8,125.8c-1.4-2.9-2-6-2-9.2c3.7,3.7,8.6,7.4,15.1,10.8c6.1,3.1,11.6,5.3,16.4,6.7
			c-3.2,2.1-7.1,3.3-11.1,3.3c-2.3,0-4.6-0.4-6.9-1.2C75.2,134.4,71.1,130.7,68.8,125.8z"/>
	</g>
</g>
</svg>
