<?xml version="1.0" encoding="utf-8"?>
<!-- Generator: Adobe Illustrator 18.1.1, SVG Export Plug-In . SVG Version: 6.00 Build 0)  -->
<svg version="1.1" id="Layer_1" xmlns="http://www.w3.org/2000/svg" xmlns:xlink="http://www.w3.org/1999/xlink" x="0px" y="0px"
	 viewBox="0 0 300 300" enable-background="new 0 0 300 300" xml:space="preserve">
<g>
	<path fill="none" d="M149.5,121.7L146,137h9.5c0.4-3,1.1-6.5,1.9-9.9L149.5,121.7z"/>
	<path fill="none" d="M127.2,137h8l-3.6-15.8l-23.1,14.4c-0.3,0.2-0.8,0.3-1.1,0.3c-2.1,3.3-5.5,5.7-9.5,6.6v6.4h24l1.7-9.2
		C124,138.2,125.5,137,127.2,137z"/>
	<path fill="none" d="M185.4,187.9c-5-1.3-10.5-3.6-15.6-7.3L172,192l0.1,0c0.3-0.2,0.6-0.4,1-0.5L185.4,187.9z"/>
	<path fill="#CDCCCC" d="M187.1,144.4c10,8.5,19.5,15.5,23.8,15.9c0.9,0.1,1.8,0.1,2.5,0.1l-21.2-39.8
		C188.8,127.4,187,135.6,187.1,144.4z"/>
	<path fill="#FFFFFF" d="M161.4,137.9c0.4,0.5,0.7,1,0.8,1.6l5.8,30.9c10.5,12.9,29.2,13.3,31.4,13.3l0.3,0c0,0,0.1,0,0.1,0
		c1.5,0,2.7,1.1,3,2.5c0.2,1.5-0.7,2.9-2.1,3.3l-20.1,5.9l1.6,0.7c0.1,0,0.1,0,0.2,0l18.5,5.6c0.6,0.2,1.1,0.5,1.5,1l0.6-0.8
		c0.4-0.6,1.1-1,1.8-1.2c18.1-3.8,20.3-13.9,21.9-21.3c0.6-2.6,1.1-4.9,2.2-6.7c2.6-4.2,7.4-6,10.8-6.8c-1.2-2-3.6-4.4-8-4.4
		c-4,0-5.8,1-7.8,2.1c-2.4,1.3-5,2.7-10.2,2.7c-1,0-2-0.1-3.1-0.2c-10.4-0.9-35.6-24.3-46.5-35l-1.2-0.8
		C162.1,133.1,161.7,135.6,161.4,137.9z"/>
	<path fill="#FFFFFF" d="M95,136c4.4,0,8-3.6,8-8c0-2.8-4.1-9.6-8-15.1c-4.2,5.9-8,12.5-8,15.1C87,132.4,90.6,136,95,136z"/>
	<path fill="#CDCCCC" d="M60,227v1.9c0,2.9,2.2,5.1,5.1,5.1h23.8l-1.8-7H68.3H60z"/>
	<path fill="#FFFFFF" d="M87.3,174.5c-0.5,6.9,1.8,11,3.4,11.5c1,0.3,2.3-1,3.2-2.4c2.2-3.3,2.1-5.5,2.1-7.8
		c-0.1-2.9-0.2-6.4,4.4-9.8c3.8-2.8,10.2-3.8,15.6-2.2c0.8,0.2,1,0.5,2,0.9V156H71v7.3c4,0.3,10.2,1.2,13.5,4.6
		C86.3,169.7,87.5,171.9,87.3,174.5z"/>
	<path fill="#FFFFFF" d="M113.9,191.9l3.9-20.8c-1-0.8-2.2-1.3-3.2-1.6c-4-1.1-8.7-0.2-10.7,1.2c-2.1,1.6-2.1,2.4-2,4.9
		c0.1,2.7,0.2,6.4-3,11.3c-2.8,4.2-5.7,5.1-7.9,5.1c-0.9,0-1.7-0.2-2.3-0.4c-5-1.7-8-8.8-7.5-17.6c0.1-0.8-0.6-1.4-1.1-2
		c-1.7-1.7-5.2-2.5-9.2-2.7V220h14.3l-3.4-13.8c-0.4-1.8,0.6-3.7,2.4-4.3l15.6-4.7c0.3-0.2,0.5-0.4,0.8-0.5L113.9,191.9z"/>
	<polygon fill="#CDCCCC" points="125.1,109.8 116.5,123.5 130.2,114.9 129.2,110.7 	"/>
	<polygon fill="#CDCCCC" points="151.1,83.8 152,88 156.2,88.9 164.8,75.2 	"/>
	<polygon fill="#CDCCCC" points="125.1,88.9 129.2,88 130.2,83.8 116.5,75.2 	"/>
	<polygon fill="#CDCCCC" points="164.8,124.7 155.9,109.8 152,110.7 151,115.3 	"/>
	<path fill="#FFFFFF" d="M146.6,107.6c0.3-1.1,1.1-2,2.3-2.3l26-6l-26-6c-1.1-0.3-2-1.1-2.3-2.3l-6-26l-6,26c-0.3,1.1-1.1,2-2.3,2.3
		l-26,6l26,6c1.1,0.3,2,1.1,2.3,2.3l6,26L146.6,107.6z"/>
	<path fill="#FFFFFF" d="M130.1,144l-9.7,51.3c-0.2,1.2-1.1,2.2-2.2,2.6l-10.3,3.8l6.5,27.1l23.6-10.9V144H130.1z"/>
	<path fill="#FFFFFF" d="M176.9,201.7l-9.3-3.9c-1.1-0.5-1.9-1.3-2.1-2.4l-9.7-51.3H145v73.8l25.3,11.4l4.4-17.6L176.9,201.7z"/>
	<polygon fill="#CDCCCC" points="195.6,207.6 183.9,204.1 175,239.8 186.8,243.3 	"/>
	<polygon fill="#CDCCCC" points="98.3,243.3 110.1,239.8 101.2,204.1 89.5,207.6 	"/>
	<path fill="#5A81B8" d="M246.7,167.8c-0.8-4.2-5.1-12.1-15.2-12.1c-5.5,0-8.2,1.5-10.6,2.8c-0.5,0.2-0.9,0.6-1.3,0.8l-24.5-46
		c-0.5-0.9-1.4-1.5-2.4-1.6c-1-0.1-2,0.4-2.6,1.2c-5.5,7.6-8.1,17.2-8.7,26.5c0,0,0,0,0,0c-1.4-1.2-2.8-2.5-4.1-3.7
		c-0.4,1.2-0.4,1.2,0,0c0.1-0.3,0.1-0.6,0.1-0.8c0-0.7-0.2-1.3-0.6-1.8l-14.6-24.5l26.8-6.1c1.4-0.3,2.3-1.5,2.3-2.9s-1-2.6-2.3-2.9
		l-26.5-6.1l14.5-23.1c0.7-1.2,0.6-2.7-0.4-3.7c-1-1-2.5-1.2-3.7-0.4l-23.1,14.5l-6.1-26.5c-0.3-1.4-1.5-2.3-2.9-2.3s-2.6,1-2.9,2.3
		l-6.1,26.5l-23.1-14.5c-1.2-0.7-2.7-0.6-3.7,0.4c-1,1-1.2,2.5-0.4,3.7l14.5,23.1l-26.5,6.1C91,96.8,90,98,90,99.4s1,2.6,2.3,2.9
		l26.5,6.1l-9.7,15.5c-2.4-7.3-9.7-16.8-11.4-19c-0.7-0.8-1.7-1.3-2.8-1.3s-2.1,0.5-2.8,1.3c-2,2.6-12.4,15.9-12.4,23.1
		c0,7,5.2,12.9,11.2,14.5v6.5H68.3c-1.9,0-4.3,1.4-4.3,3.3v67.4v0.3h-7.6c-1.9,0-3.4,1.3-3.4,3.2v5.7c0,6.7,5.4,12.1,12.1,12.1h25.4
		l0.1,0.2l1.9,7.4c0.2,0.9,0.8,1.7,1.7,2.2c0.5,0.3,1.1,0.4,1.7,0.4c0.3,0,0.7-0.1,1-0.2l18.5-5.6c1.8-0.5,2.8-2.4,2.4-4.2l-1.4-5.7
		l25.6-11.7l26.9,12.2l-1.3,5.2c-0.4,1.8,0.6,3.7,2.4,4.2l18.5,5.6c0.3,0.1,0.7,0.1,1,0.1c0.6,0,1.2-0.2,1.7-0.5
		c0.8-0.5,1.4-1.3,1.7-2.2L201,215l6.1-8.6c20.9-4.8,23.7-17.8,25.4-25.7c0.4-2,0.8-3.9,1.4-4.7c2.2-3.5,8-4.6,10-4.7
		c0.9,0,1.7-0.5,2.2-1.2C246.6,169.5,246.9,168.6,246.7,167.8z M187.2,139.5c0.5-6.9,2.2-13.3,5-18.7l21.2,39.9
		c-0.8,0-1.6-0.2-2.5-0.3c-4.3-0.4-13.8-7.5-23.8-16C187.1,142.8,187.1,141.1,187.2,139.5z M164.8,124.7l-13.8-9.4l1-4.6l3.9-0.9
		L164.8,124.7z M157.4,127.1c-0.8,3.4-1.5,6.9-1.9,9.9H146l3.5-15.2L157.4,127.1z M164.8,75.2l-8.6,13.7l-4.2-1l-1-4.2L164.8,75.2z
		 M116.5,75.2l13.7,8.6l-1,4.2l-4.2,1L116.5,75.2z M125.1,109.8l4.2,1l1,4.2l-13.7,8.6L125.1,109.8z M107.5,135.9
		c0.3-0.1,0.7-0.2,1-0.4l23.1-14.3l3.6,15.8h-8c-1.7,0-3.1,1.1-3.4,2.7l-1.7,9.2l-3,15.9c0,0-0.1,0.1-0.1,0.1L122,149H98v-6.4
		C102,141.7,105.4,139.2,107.5,135.9z M87,128c0-2.6,3.8-9.2,8-15.1c3.9,5.4,8,12.3,8,15.1c0,4.4-3.6,8-8,8S87,132.4,87,128z
		 M71,158.3V156h47v8.5c-1-0.3-1.2-0.6-1.9-0.8c-5.4-1.5-12-0.6-15.8,2.2c-4.6,3.4-4.4,7-4.4,9.8c0.1,2.3,0.1,4.5-2,7.8
		c-0.9,1.4-2.2,2.7-3.2,2.4c-1.6-0.5-3.8-4.6-3.4-11.5c0.2-2.5-0.7-4.8-2.4-6.6c-3.3-3.4-9.4-4.3-13.3-4.6c-0.2,0-0.6,0-0.6,0V158.3
		z M71,178v-8.7v0c0,0,0.5,0,0.6,0c3.2,0.3,7.2,1,8.9,2.7c0.6,0.6,0.8,1.2,0.8,2c-0.6,8.8,2.5,15.9,7.5,17.6
		c0.5,0.2,1.3,0.4,2.3,0.4c2.1,0,5.1-1,7.9-5.1c3.2-4.9,3.1-8.6,3-11.3c-0.1-2.5-0.1-3.3,2-4.9c2-1.5,6.7-2.4,10.7-1.2
		c1,0.3,2.2,0.8,3.2,1.6l-3.9,20.8l-13.1,4.8c-0.3,0.1-0.6,0.3-0.8,0.5l-15.6,4.7c-1.8,0.5-2.8,2.4-2.4,4.2l3.4,13.8l0,0.2h0H71V178
		z M65.1,234c-2.9,0-5.1-2.2-5.1-5.1V227h8.3h3.1H87h0l1.7,7H65.1z M98.3,243.3l-8.8-35.7l11.8-3.5l8.8,35.7L98.3,243.3z M138,217.8
		l-23.6,10.9l-6.6-27.1l10.4-3.8c1.2-0.4,2-1.3,2.3-2.5l9.7-51.3h7.9V217.8z M140.6,133.5l-6-26c-0.3-1.1-1.1-2-2.3-2.3l-26-6l26-6
		c1.1-0.3,2-1.1,2.3-2.3l6-26l6,26c0.3,1.1,1.1,2,2.3,2.3l26,6l-26,6c-1.1,0.3-2,1.1-2.3,2.3L140.6,133.5z M170.3,229.2L145,217.8
		V144h10.8l9.7,51.3c0.2,1.2,1,2.1,2.1,2.5l9.3,3.9l-2.2,9.9L170.3,229.2z M169.9,180.6c5,3.8,10.6,6,15.6,7.3l-12.3,3.6
		c-0.4,0.1-0.7,0.3-1,0.5l-0.1,0L169.9,180.6z M186.8,243.3l-11.8-3.5l8.8-35.7l11.8,3.5L186.8,243.3z M228.8,172.9
		c-1.1,1.8-1.6,4-2.2,6.7c-1.6,7.4-3.8,17.5-21.9,21.3c-0.7,0.2-1.4,0.6-1.8,1.2l-0.6,0.8c-0.4-0.4-0.9-0.8-1.5-1l-18.5-5.6
		c-0.1,0-0.1,0-0.2,0l-1.6-0.7l20.1-5.9c1.4-0.4,2.3-1.9,2.1-3.3c-0.2-1.5-1.5-2.5-3-2.5c0,0-0.1,0-0.1,0l-0.3,0
		c-2.1,0-20.9-0.4-31.4-13.3l-5.8-30.9c-0.1-0.6-0.4-1.2-0.8-1.6c0.3-2.4,0.8-4.9,1.3-7.4l1.2,0.8c10.9,10.6,36.1,34,46.5,35
		c1.1,0.1,2.2,0.2,3.1,0.2c5.2,0,7.9-1.4,10.2-2.7c2.1-1.1,3.8-2.1,7.8-2.1c4.4,0,6.8,2.3,8,4.4
		C236.2,166.8,231.4,168.7,228.8,172.9z"/>
</g>
</svg>
