<?xml version="1.0" encoding="utf-8"?>
<!-- Generator: Adobe Illustrator 18.1.1, SVG Export Plug-In . SVG Version: 6.00 Build 0)  -->
<svg version="1.1" id="Layer_1" xmlns="http://www.w3.org/2000/svg" xmlns:xlink="http://www.w3.org/1999/xlink" x="0px" y="0px"
	 viewBox="0 0 300 300" enable-background="new 0 0 300 300" xml:space="preserve">
<g>
	<path fill="#FFFFFF" d="M150,96.5c-7.5-6.3-17.3-9.3-29.1-9.3c-18.1,0-30.3,0.5-36.2,1.2c-2.2,0.4-3.9,1.4-5.2,2.9
		c-1.3,1.7-2,3.8-2,6.5c0,4.9,0.1,12.3,0.3,21.8c0.2,9.7,0.3,17.1,0.3,22.2L77.7,202c0.2,3.3,1.1,5.9,2.7,7.5c1.5,1.6,3.4,2.3,6,2.3
		l16,0.2c15.9,0,26.6-0.3,32.9-1c1.5-0.2,2.7-0.4,3.7-0.6v-10.2c0-2.2,2.9-5.3,5.1-5.3h6.9v-42.1c-2-0.7-2.8-1.2-4.7-1.7
		c-1.7-0.4-2.8-1.9-2.9-3.7c-0.1-1.8,0.5-3.5,2.2-4.1c2.1-0.9,3.4-2,5.4-3.4v-3h-6.9c-2,0-3.7-1.2-4-3.2c-0.8,1.3-1.8,2.6-3,3.7
		c-4.1,3.9-9.6,6-16.2,6c-7.3,0.3-14.8,0.4-21.2,0.4c-2.3,0-4.8-1.8-4.8-4.1v-33.5c0-2.3,3.2-5.3,5.4-5.3h20.3
		c6.4,1,11.7,2.4,15.9,5.6c2.5,1.9,4.2,4.7,5.3,7.5c0.6-0.3,1.4-1.1,2.1-1.1h16.3C159.1,106,155.6,101.3,150,96.5z M100.4,156.8
		l22.2-0.8c0,0,0,0,0.1,0c22.9,0,26.3,13.1,26.3,20.7c0,6.8-2.7,12-7.9,15.5c-4.7,3.2-10.7,4.8-17.8,4.8c-0.1,0-0.2,0-0.3,0
		c-13.1,0-20.5,0.3-22.5,0.2c-2.2-0.1-3.8-1.7-3.9-3.9L96.3,161C96.3,158.8,98.1,156.8,100.4,156.8z"/>
	<path fill="#CDCCCC" d="M215.4,158.5c-4.7-5.7-10.7-8.5-18.2-8.5c-6.3,0-11.7,2.6-16.4,8c-1.1,1.3-3.2,1.7-4.8,1.1
		c-1.6-0.6-3-2.1-3-3.8V121h-26v8h9c2.2,0,3,2.3,3,4.6v66.7c0,2.2-0.8,3.7-3,3.7h-9v7h26v-2.9c0-1.6,1.4-3.1,2.9-3.7
		c0.5-0.2,1.2-0.3,1.7-0.3c1.1,0,2.2,0.4,3,1.2c5,5.2,10.7,7.7,17.1,7.7c7.2,0,13-2.7,17.8-8.1c4.8-5.5,7.3-13.4,7.3-23.4
		C222.7,172.1,220.3,164.4,215.4,158.5z M173.5,182.3c0-7.7,1.7-13.3,5.1-17c3.5-3.8,7.7-5.7,12.6-5.7c5.1,0,9.5,2.1,12.7,5.9
		c3,3.7,4.5,9,4.5,15.7c0,7.4-1.5,12.9-4.7,16.8c-3.3,4-7.6,6-12.6,6c-5.1,0-9.6-2.2-12.8-6.2C175.1,194,173.5,188.7,173.5,182.3z"
		/>
	<g>
		<path fill="#5A81B8" d="M122.6,156C122.6,156,122.6,156,122.6,156l-22.3,0.8c-2.3,0-4.1,2.1-4.1,4.4l0.4,32.2
			c0,2.2,1.7,3.6,3.9,3.7c2,0.1,9.4-0.1,22.5-0.1c0.1,0,0.2,0,0.3,0c7.1,0,13.1-1.5,17.8-4.6c5.1-3.5,7.9-9.1,7.9-15.9
			C149,168.9,145.6,156,122.6,156z M136.5,185.9c-3.3,2.3-7.8,3.5-13.3,3.6c-9.5,0-15.1,0-18.3-0.1l-0.3-24l18.1-0.3
			c16,0,18,6.4,18,12C140.7,181.1,139.4,183.9,136.5,185.9z"/>
		<path fill="#5A81B8" d="M221.6,153.4c-6.3-7.6-14.9-11.4-24.8-11.4c-5.6,0-11.8,1.5-15.8,4.6v-28.7c0-2.2-1-4.8-3.2-4.8h-9
			c-1.4-9-5.9-16.5-13.5-22.8c-9-7.6-20.6-11.2-34.4-11.2c-18.8,0-31,0.5-37.3,1.3c0,0-0.1,0.1-0.1,0.1c-4.3,0.7-7.8,2.7-10.4,5.9
			c-2.6,3.1-3.8,7.1-3.8,11.7c0,5,0.1,12.4,0.3,22c0.2,9.6,0.3,17,0.3,22l-0.4,60.2c0,0.1,0,0.2,0,0.3c0.3,5.4,2,9.7,4.9,12.8
			c3.1,3.3,7.1,4.7,12,4.7l16,0c0,0,0,0,0.1,0c16.4,0,27.6-0.2,34.3-0.8c1.4-0.2,3.3-0.6,4.6-0.9c0.7,0.6,1.7,0.8,2.8,0.8h33.7
			c2.1,0,3.8-1,4-3c4.9,3,10.2,4.8,16,4.8c9.6,0,17.6-3.5,23.8-10.8c6.1-7,9.2-16.6,9.2-28.6C230.8,170.1,227.7,160.7,221.6,153.4z
			 M139,200.3v10.2c-1,0.3-2.2,0.5-3.7,0.6c-6.3,0.6-17.3,1-33.2,1l-15.9-0.2c-2.6,0-4.5-0.7-6-2.3c-1.6-1.6-2.4-4.2-2.6-7.5
			l0.4-60.1c0-5.1-0.1-12.5-0.3-22.2c-0.2-9.6-0.3-16.9-0.3-21.8c0-2.7,0.7-4.8,2-6.5c1.3-1.6,3-2.5,5.2-2.9
			c5.9-0.7,18.1-1.1,36.2-1.1c11.8,0,21.6,2.8,29.1,9.1c5.7,4.7,9.1,9.5,10.4,16.5h-16.3c-0.7,0-1.5,0.6-2,0.9c0,0,0,0-0.1,0
			c-1.1-2.7-2.9-5.5-5.4-7.4c-4.2-3.2-9.5-4.6-15.9-5.6h-20.3c-2.3,0-5.4,3-5.4,5.3v33.5c0,2.3,2.5,4.1,4.8,4.1
			c6.4,0,13.6-0.1,20.9-0.4c6.6,0,12.2-2,16.4-5.9c1.2-1.1,2.1-2.3,3-3.6c0-0.2-0.1-0.4-0.1-0.5c0,0.2,0.1,0.1,0.1,0.2
			c0.3,2,2,3.2,4.1,3.2h6.9v3c-2,1.4-3.2,2.5-5.3,3.4c-1.7,0.7-2.5,2.4-2.3,4.1c0.1,1.8,1.1,3.3,2.8,3.7c1.8,0.4,2.8,1,4.8,1.7V195
			h-6.9C141.9,195,139,198,139,200.3z M135.3,121.5c0,4.4-1.3,7.7-3.8,10.1c-2.6,2.5-6,3.6-10.5,3.6c0,0-0.5,0-0.5,0
			c-5.6,0.2-11.5,0.3-16.5,0.4v-25.2l16.3,0c4.5,0.1,8.4,1.2,11.2,3.3C134,115.7,135.3,118.1,135.3,121.5z M215.5,204.9
			c-4.7,5.5-10.5,8.1-17.7,8.1c-6.5,0-12.1-2.5-17.1-7.7c-0.8-0.8-1.8-1.2-2.9-1.2c-0.5,0-1.4,0.1-1.9,0.3c-1.5,0.6-2.9,2.1-2.9,3.7
			v2.9h-26v-7h9c2.2,0,3-1.5,3-3.7v-66.7c0-2.2-0.8-4.6-3-4.6h-9v-8h26v34.4c0,1.7,1.4,3.2,3,3.8c1.6,0.6,3.5,0.1,4.6-1.1
			c4.7-5.4,10.1-8,16.5-8c7.6,0,13.6,2.8,18.3,8.5c4.8,5.9,7.3,13.6,7.3,22.9C222.7,191.4,220.3,199.3,215.5,204.9z"/>
		<path fill="#5A81B8" d="M191.3,159.6c-4.9,0-9.2,1.9-12.6,5.7c-3.4,3.7-5.1,9.3-5.1,17c0,6.5,1.6,11.7,4.7,15.6
			c3.3,4.1,7.7,6.2,12.8,6.2c5,0,9.3-2.1,12.6-6c3.2-3.8,4.7-9.3,4.7-16.8c0-6.8-1.5-12-4.5-15.7
			C200.8,161.7,196.4,159.6,191.3,159.6z M197.5,192.9c-1.8,2.1-3.8,3.1-6.4,3.1c-2.7,0-4.8-1-6.6-3.2c-1.9-2.4-2.9-6-2.9-10.5
			c0-5.4,1-9.4,3-11.5c1.9-2.1,4.1-3.1,6.7-3.1c2.7,0,4.8,0.9,6.4,3c1.8,2.2,2.7,5.8,2.7,10.7C200.4,186.7,199.4,190.6,197.5,192.9z
			"/>
	</g>
</g>
</svg>
