<?xml version="1.0" encoding="utf-8"?>
<!-- Generator: Adobe Illustrator 18.1.1, SVG Export Plug-In . SVG Version: 6.00 Build 0)  -->
<svg version="1.1" id="Layer_1" xmlns="http://www.w3.org/2000/svg" xmlns:xlink="http://www.w3.org/1999/xlink" x="0px" y="0px"
	 viewBox="0 0 300 300" enable-background="new 0 0 300 300" xml:space="preserve">
<g>
	<path fill="none" d="M153,175.9l16.7-1.9c0.5-0.3,1-0.6,1.6-0.8c1.4-0.5,2.8-0.3,4,0.2l12.3-1.4c-0.3-2.5,1.2-5,3.7-5.9
		c2.9-1,6,0.6,7,3.5l0.4,1.1l10.4-1.2l-1.2-3.5c-1-2.9,0.6-6,3.5-7c2.9-1,6,0.6,7,3.5l1.9,5.7l11.3-1.3l-9.4-28.2l-65.6,23.2l-4,12
		L153,175.9z"/>
	<path fill="#CCCCCC" d="M232,203.6c1,2.9-0.6,6-3.5,7c-0.6,0.2-1.2,0.3-1.7,0.3c-2.3,0-4.4-1.5-5.2-3.8l-12.6-37.6l-10.4,1.2
		l13.4,40c1,2.9-0.6,6-3.5,7c-0.6,0.2-1.2,0.3-1.7,0.3c-2.3,0-4.4-1.5-5.2-3.8L187.7,173c-0.1-0.4-0.2-0.7-0.2-1.1l-12.3,1.4
		c1.4,0.6,2.5,1.8,3,3.3l13.8,41.1c1,2.9-0.6,6-3.5,7c-0.6,0.2-1.2,0.3-1.7,0.3c-2.3,0-4.4-1.5-5.2-3.8l-13.8-41.1
		c-0.8-2.3,0.1-4.7,1.9-6.1l-16.7,1.9l21.7,64.7c0.8,2.5,3.2,4.2,5.9,4.2c0.7,0,1.4-0.1,2.1-0.4l61.1-21.6c3.2-1.1,4.8-4.4,3.8-7.5
		l-16.2-48.4l-11.3,1.3L232,203.6z"/>
	<path fill="#FFFFFF" d="M220.5,118.9c-1.6-5.3-6.3-8.8-11.6-8.8c-1.2,0-2.5,0.2-3.7,0.6c-0.5,0.1-1,0.4-1.6,0.7
		c-2.5,1.3-5.6,0.4-7.1-2.1c-2.2-3.6-6.2-5.9-10.3-5.9c-1.2,0-2.5,0.2-3.7,0.6c-3.6,1.2-6.4,3.9-7.7,7.6c-0.6,1.6-1.9,2.8-3.5,3.3
		c-1.1,0.3-2.3,0.3-3.3,0c2.6,5.4,3.2,11.7,1.4,17.7c-1.3,4.2-3.6,7.9-6.8,10.7l-1.8,5.4l60.4-21.4C221.6,125,221.4,122,220.5,118.9
		z"/>
	<path fill="#FFFFFF" d="M254.3,176.9c2-4,2.1-8.9,0.1-14.7c-1.8-5.5-4.5-8.9-7.9-10.1c-2.9-1.1-6.1-0.5-8.6,0.2l10.4,31
		C250.6,181.8,252.9,179.8,254.3,176.9z"/>
	<path fill="#FFFFFF" d="M117.5,131.7c-2.5,5.5-8,9.2-14.1,9.2c-1.8,0-3.6-0.3-5.3-0.9c-7.5-2.7-11.6-10.8-9.8-18.5l-10.3-3.6
		L74,130.3c0,0,0,0,0,0L68.7,146l11.2,1.3l1.9-5.7c1-2.9,4.1-4.4,6.9-3.5c2.9,1,4.4,4.1,3.5,7l-1.2,3.5l10.4,1.2l0.4-1.1
		c1-2.9,4.1-4.4,7-3.5c2.5,0.8,4,3.3,3.7,5.9l12.3,1.4c1.2-0.5,2.6-0.7,4-0.2c0.6,0.2,1.1,0.5,1.6,0.8l16.7,1.9l3.8-11.4
		L117.5,131.7z"/>
	<path fill="#CCCCCC" d="M130.4,153c1.8,1.4,2.7,3.8,1.9,6.1l-13.7,41.2c-0.8,2.3-2.9,3.8-5.2,3.8c-0.6,0-1.2-0.1-1.7-0.3
		c-2.9-1-4.4-4.1-3.5-7l13.7-41.2c0.5-1.5,1.6-2.7,3-3.3l-12.3-1.4c0,0.4-0.1,0.7-0.2,1.1l-13.7,41.2c-0.8,2.3-2.9,3.8-5.2,3.8
		c-0.6,0-1.2-0.1-1.7-0.3c-2.9-1-4.4-4.1-3.5-7l13.3-40l-10.4-1.2l-12.5,37.6c-0.8,2.3-2.9,3.8-5.2,3.8c-0.6,0-1.2-0.1-1.7-0.3
		c-2.9-1-4.4-4.1-3.5-7l11.8-35.4L68.6,146l-16.1,48.4c-1,3.1,0.6,6.4,3.8,7.5l61.2,21.5c0.7,0.2,1.4,0.4,2.1,0.4
		c2.7,0,5.1-1.7,5.9-4.2l21.6-64.8L130.4,153z"/>
	<path fill="#FFFFFF" d="M53.3,131.2c-3.4,1.3-6,4.7-7.9,10.1c-1.9,5.8-1.9,10.7,0.2,14.7c1.5,2.9,3.8,5,5.9,6.4l10.3-31
		C59.5,130.6,56.3,130.1,53.3,131.2z"/>
	<path fill="#FFFFFF" d="M78.8,106.5l18.4,6.5c1.4,0.5,2.5,1.5,3.2,2.9c0.6,1.4,0.7,2.9,0.1,4.3l-1.3,3.4c-0.8,2.5,0.4,5.2,2.8,6.1
		c0.5,0.2,1,0.3,1.5,0.3c1.9,0,3.6-1.3,4.2-3.1c0-0.1,0-0.1,0.1-0.2l1.5-3.8c0.8-2.2,2.9-3.5,5.1-3.5c0.6,0,1.2,0.1,1.8,0.3
		l40.3,14.2c1.1-1.3,1.9-2.8,2.4-4.4c1.7-5.5-0.4-11.5-5.1-14.6c-2.1-1.4-3-4.1-2.1-6.5l0.2-0.6c2.1-6.7-1.5-13.9-8-16
		c-3.5-1.1-7.4-0.6-10.4,1.6c-1.4,1-3.2,1.2-4.8,0.7c-1.6-0.5-2.9-1.7-3.5-3.3c-1.4-3.6-4.2-6.4-7.7-7.6c-1.2-0.4-2.4-0.6-3.6-0.6
		c-4.1,0-8.1,2.3-10.3,5.9c-1.5,2.4-4.6,3.3-7.1,2.1c-0.6-0.3-1.1-0.5-1.6-0.7c-1.2-0.4-2.4-0.6-3.7-0.6c-5.3,0-10,3.6-11.6,8.8
		C78.5,101.1,78.3,104.1,78.8,106.5z"/>
	<g>
		<path fill="#5980B7" d="M264.9,158.7c-3-8.8-7.9-14.6-14.6-17c-5.8-2.1-11.6-1.2-15.8,0.2l-3.3-10c2.2-6.2,0.8-12.7-0.3-16.2
			c-3.1-9.9-12-16.6-22.1-16.6c-2,0-3.9,0.3-5.8,0.8c-4.3-4.7-10.5-7.4-16.9-7.4c-2.4,0-4.8,0.4-7.1,1.1c-4.8,1.6-8.9,4.7-11.8,8.8
			c-1.3-0.5-2.7-0.8-4.1-1c-0.9-9.1-7-17.2-16-20.2c-4.8-1.6-10-1.5-14.6,0.2c-2.9-4.1-7-7.2-11.8-8.8c-2.3-0.7-4.7-1.1-7-1.1
			c-6.4,0-12.5,2.8-16.9,7.5c-1.9-0.5-3.8-0.7-5.7-0.7c-10.2,0-19.1,6.7-22.2,16.6c-1.1,3.5-2.4,9.9-0.3,16.1L65.4,121
			c-4.2-1.3-10-2.3-15.8-0.1c-6.7,2.5-11.6,8.2-14.6,17c-2.9,8.7-2.6,16.6,0.9,23.3c3.1,6.1,8.2,9.8,12.1,11.9L42.1,191
			c-2.9,8.7,1.8,18.3,10.6,21.3l61.2,21.6c1.9,0.7,3.8,1.1,5.8,1.1c0,0,0,0,0,0c7.4,0,14.2-4.8,16.6-11.8l10.8-32v0.1l17.4,52.8
			c2.3,7,8.8,11.7,16.2,11.7c2,0,3.9-0.3,5.7-1l61.1-21.6c8.7-3.1,13.4-12.7,10.5-21.4l-6-17.9c3.8-2.1,8.9-5.9,12.1-11.9
			C267.6,175.2,267.9,167.4,264.9,158.7z M162.5,143.3c3.2-2.8,5.5-6.5,6.8-10.7c1.8-6,1.2-12.3-1.4-17.7c1.1,0.3,2.2,0.4,3.3,0
			c1.6-0.5,2.9-1.7,3.5-3.3c1.4-3.6,4.2-6.4,7.7-7.6c1.2-0.4,2.4-0.6,3.7-0.6c4.1,0,8.1,2.2,10.3,5.9c1.5,2.4,4.6,3.3,7.1,2.1
			c0.6-0.3,1.1-0.5,1.6-0.7c1.2-0.4,2.4-0.6,3.7-0.6c5.3,0,10,3.5,11.6,8.8c1,3.1,1.2,6.1,0.6,8.4l-60.4,21.4L162.5,143.3z M79.4,98
			c1.6-5.3,6.3-8.8,11.6-8.8c1.2,0,2.5,0.2,3.7,0.6c0.5,0.1,1,0.4,1.6,0.7c2.5,1.2,5.6,0.4,7.1-2.1c2.2-3.6,6.2-5.9,10.3-5.9
			c1.2,0,2.5,0.2,3.6,0.6c3.6,1.2,6.4,3.9,7.7,7.6c0.6,1.6,1.9,2.8,3.5,3.3c1.6,0.5,3.4,0.2,4.8-0.7c3.1-2.1,6.9-2.7,10.4-1.6
			c6.5,2.1,10.1,9.3,8,16l-0.2,0.6c-0.9,2.4,0,5.1,2.1,6.5c4.7,3.1,6.8,9.1,5.1,14.6c-0.5,1.7-1.3,3.2-2.4,4.4l-40.3-14.2
			c-0.6-0.2-1.2-0.3-1.8-0.3c-2.2,0-4.3,1.3-5.1,3.5l-1.5,3.8c0,0.1,0,0.1-0.1,0.2c-0.7,1.9-2.4,3.1-4.2,3.1c-0.5,0-1-0.1-1.5-0.3
			c-2.4-0.9-3.6-3.6-2.8-6.1l1.3-3.4c0.5-1.4,0.5-2.9-0.1-4.3c-0.6-1.4-1.8-2.4-3.2-2.9l-18.4-6.5C78.3,104.1,78.5,101.1,79.4,98z
			 M45.7,156.1c-2-4-2.1-8.9-0.2-14.7c1.8-5.5,4.5-8.9,7.9-10.1c2.9-1.1,6.1-0.6,8.6,0.2v0l-10.3,31C49.5,161,47.1,158.9,45.7,156.1
			z M125.5,219.6c-0.8,2.5-3.2,4.2-5.9,4.2c-0.7,0-1.4-0.1-2.1-0.4l-61.2-21.5c-3.2-1.1-4.8-4.4-3.8-7.5L68.7,146l5.3-15.8
			c0,0,0,0,0,0l4.1-12.1l10.2,3.9c0,0,0,0,0,0l-15.6-5.8c-0.1,0-0.1-0.2-0.2-0.2c0.1,0-0.1,0,0,0l15.4,5.4c0,0,0,0,0,0
			c-1,7.7,2.5,15.8,10,18.5c1.7,0.6,3.6,0.9,5.3,0.9c6.1,0,11.6-3.6,14.1-9.2l33.4,11.7l-3.8,11.4L125.5,219.6z M243.8,222.8
			l-61.1,21.6c-0.7,0.2-1.4,0.4-2.1,0.4c-2.7,0-5.1-1.7-5.9-4.2L153,175.9l-0.6-1.8v0l4-12.2l65.6-23.2l9.4,28.2l16.2,48.4
			C248.6,218.4,246.9,221.7,243.8,222.8z M254.3,176.9c-1.5,2.9-3.8,5-5.9,6.4l-10.4-31c2.4-0.8,5.6-1.3,8.6-0.2
			c3.4,1.3,6,4.7,7.9,10.1C256.4,167.9,256.4,172.9,254.3,176.9z"/>
		<path fill="#5980B7" d="M181.5,221.3c0.8,2.3,2.9,3.8,5.2,3.8c0.6,0,1.2-0.1,1.7-0.3c2.9-1,4.4-4.1,3.5-7l-13.8-41.1
			c-0.5-1.5-1.6-2.7-3-3.3c-1.2-0.5-2.6-0.6-4-0.2c-0.6,0.2-1.1,0.5-1.6,0.8c-1.8,1.4-2.7,3.8-1.9,6.1L181.5,221.3z"/>
		<path fill="#5980B7" d="M187.7,173l13.8,41.1c0.8,2.3,2.9,3.8,5.2,3.8c0.6,0,1.2-0.1,1.7-0.3c2.9-1,4.4-4.1,3.5-7l-13.4-40
			l-0.4-1.1c-1-2.9-4.1-4.4-7-3.5c-2.5,0.8-4,3.3-3.7,5.9C187.5,172.3,187.6,172.7,187.7,173z"/>
		<path fill="#5980B7" d="M208.9,169.5l12.6,37.6c0.8,2.3,2.9,3.8,5.2,3.8c0.6,0,1.2-0.1,1.7-0.3c2.9-1,4.4-4.1,3.5-7l-11.9-35.4
			l-1.9-5.7c-1-2.9-4.1-4.4-7-3.5c-2.9,1-4.4,4.1-3.5,7L208.9,169.5z"/>
		<path fill="#5980B7" d="M111.6,203.8c0.6,0.2,1.2,0.3,1.7,0.3c2.3,0,4.4-1.5,5.2-3.8l13.7-41.2c0.8-2.3-0.1-4.7-1.9-6.1
			c-0.5-0.3-1-0.6-1.6-0.8c-1.4-0.5-2.8-0.3-4,0.2c-1.4,0.6-2.5,1.8-3,3.3l-13.7,41.2C107.2,199.7,108.8,202.8,111.6,203.8z"/>
		<path fill="#5980B7" d="M108.8,145.1c-2.9-1-6,0.6-7,3.5l-0.4,1.1l-13.3,40c-1,2.9,0.6,6,3.5,7c0.6,0.2,1.2,0.3,1.7,0.3
			c2.3,0,4.4-1.5,5.2-3.8l13.7-41.2c0.1-0.4,0.2-0.7,0.2-1.1C112.8,148.5,111.3,146,108.8,145.1z"/>
		<path fill="#5980B7" d="M88.8,138.1c-2.9-1-6,0.6-7,3.5l-1.9,5.7l-11.8,35.4c-1,2.9,0.6,6,3.5,7c0.6,0.2,1.2,0.3,1.7,0.3
			c2.3,0,4.4-1.5,5.2-3.8l12.5-37.6l1.2-3.5C93.2,142.2,91.7,139.1,88.8,138.1z"/>
		<path fill="#5980B7" d="M158.3,68.9c0.3,0,0.6,0.1,0.8,0.1c2.7,0,5-1.9,5.4-4.7l6.9-44.7c0.5-3-1.6-5.8-4.6-6.3
			c-3-0.5-5.8,1.6-6.3,4.6l-6.9,44.7C153.3,65.6,155.3,68.4,158.3,68.9z"/>
		<path fill="#5980B7" d="M179.7,80.6c0.9,0,1.8-0.2,2.7-0.7l25-13.9c2.7-1.5,3.6-4.8,2.1-7.5c-1.5-2.7-4.8-3.6-7.5-2.1l-25,13.9
			c-2.7,1.5-3.6,4.8-2.1,7.5C175.9,79.6,177.7,80.6,179.7,80.6z"/>
		<path fill="#5980B7" d="M132.8,64.2c1,1.7,2.8,2.6,4.7,2.6c1,0,2-0.3,2.9-0.8c2.6-1.6,3.3-5,1.7-7.6l-14.5-23.1
			c-1.6-2.6-5-3.3-7.6-1.7c-2.6,1.6-3.3,5-1.7,7.6L132.8,64.2z"/>
		<ellipse fill="#5980B7" cx="147.1" cy="279.3" rx="101.7" ry="7.6"/>
	</g>
</g>
</svg>
