<?xml version="1.0" encoding="utf-8"?>
<!-- Generator: Adobe Illustrator 18.1.1, SVG Export Plug-In . SVG Version: 6.00 Build 0)  -->
<svg version="1.1" id="Layer_1" xmlns="http://www.w3.org/2000/svg" xmlns:xlink="http://www.w3.org/1999/xlink" x="0px" y="0px"
	 viewBox="0 0 300 300" enable-background="new 0 0 300 300" xml:space="preserve">
<g>
	<path fill="none" d="M171.8,228.2l12.3-19.7c1-1.5,2.6-2.5,4.4-2.6c1.8-0.1,3.5,0.7,4.6,2.2l14.4,19.3c4.7-1.9,13.7-6.6,22.5-16.5
		c-14.3-0.7-31.1-4.1-42-14.9c-6.5,4.4-19.9,11.7-40.6,13.9C153.2,219.5,160.9,227,171.8,228.2z"/>
	<polygon fill="#FFFFFF" points="96,146.9 96,126.1 50,150.7 50,171.5 	"/>
	<path fill="#FFFFFF" d="M73.1,39c-9.9,0-18.3,7-21.6,15h43.3C91.4,46,83,39,73.1,39z"/>
	<polygon fill="#FFFFFF" points="96,84.3 96,84 50,84 50,108.9 	"/>
	<polygon fill="#FFFFFF" points="96,214 96,188.7 50,213.3 50,214 	"/>
	<path fill="#FFFFFF" d="M73.1,258c9.9,0,18.3-6,21.6-15H51.4C54.7,252,63.2,258,73.1,258z"/>
	<path fill="#FFFFFF" d="M103,66.4c0-0.8-0.6-1.4-1.4-1.4H45.4c-0.8,0-1.4,0.6-1.4,1.4v4.2c0,0.8,0.6,1.4,1.4,1.4h56.2
		c0.8,0,1.4-0.6,1.4-1.4V66.4z"/>
	<path fill="#FFFFFF" d="M103,226.4c0-0.8-0.6-1.4-1.4-1.4H45.4c-0.8,0-1.4,0.6-1.4,1.4v4.2c0,0.8,0.6,1.4,1.4,1.4h56.2
		c0.8,0,1.4-0.6,1.4-1.4V226.4z"/>
	<polygon fill="#CCCCCC" points="50,138.3 96,113.6 96,96.7 50,121.4 	"/>
	<polygon fill="#CCCCCC" points="50,200.9 96,176.2 96,159.3 50,184 	"/>
	<path fill="#FFFFFF" d="M178.8,79.4l9.7,0.5l21.7-21.7c1-1.2,6.5-8.2,1.7-13c-1.3-1.3-2.3-1.5-3.1-1.5c-3.4,0-7.8,3.8-9.4,5.5
		c-0.1,0.1-0.2,0.2-0.2,0.2L149,99.6c1.9,0.3,3.9,0.6,6,1.1L174.7,81C175.8,79.9,177.3,79.3,178.8,79.4z"/>
	<path fill="#CCCCCC" d="M255,122.7c0.8-0.9,1-1.7,0.9-2.9c-0.3-2.8-0.8-7.5-14.5-7.5c-5.6,0-12.2,0.8-18.5,1.6
		c-1.3,0.2-2.5,0.2-3.8,0.4c-4.5,0.5-13.2,0.8-22.1,0.8c0,0,0,0,0,0c-10.1,0-29.1-0.4-42.6-3.4c-4.7-1.1-8.8-1.6-12.4-1.6
		c-7.8,0-11.3,2.6-13.5,4.7c-0.5,0.5-1.2,2.1-0.8,3.8c0.6,2.6,3.3,4.9,7.7,6.5c10.9,3.9,32.7,6.5,55.5,6.5c2.9,0,5.8,0,8.6-0.1
		l3.5-0.1C221.1,130.7,248.7,129.9,255,122.7z M242.9,117.8c1.5-1.5,3.8-1.5,5.3,0s1.5,3.8,0,5.3c-1.5,1.5-3.8,1.5-5.3,0
		C241.5,121.6,241.5,119.3,242.9,117.8z M141.5,115.7c1.5,1.5,1.5,3.8,0,5.3s-3.8,1.5-5.3,0s-1.5-3.8,0-5.3S140,114.2,141.5,115.7z"
		/>
	<path fill="#CCCCCC" d="M207,239.2c-2.1,0.5-4.4-0.3-5.7-2l-12-16l-9.8,15.7c-1,1.6-2.8,2.6-4.7,2.6c-19.6,0-31.7-13.3-39.3-28.8
		c-0.1,0-0.3,0-0.4,0c-0.7,0-1.3,0-2,0c1.8,10.9,5.5,21.8,12.5,30.6c10.1,12.7,25.9,19.1,47,19.1c15.9,0,28.8-5.2,38.3-15.6
		c8.6-9.4,13.6-21.9,16.5-34.1c-0.7,0.1-1.7,0.2-3,0.3C228.2,233.5,208.2,238.9,207,239.2z"/>
	<path fill="#CCCCCC" d="M185.2,184.5c1-1,2.4-1.5,3.8-1.5c0.2,0,0.3,0,0.5,0c1.6,0.1,3,0.9,3.9,2.2c9.5,12.9,30.9,14.8,42.8,14.8
		c1.1,0,2.2,0,3.2,0c-5.4-9.7-19-26.6-48.1-26.6c-28.1,0-44,16.1-51.2,26.1C170.3,198,185.1,184.6,185.2,184.5z"/>
	<g>
		<path fill="#5980B7" d="M106.3,56C103.8,41.3,89.5,28.8,73,28.8c-16.5,0-30.3,11.5-33.5,27.1c-3.3,1.5-6.6,6.5-6.6,11.4v4.4
			c0,4.6,2,8.8,6,10.9v133.9c0-0.1,0.2-0.1,0,0c-3.7,2.1-6,6.2-6,10.8v4.4c0,4.9,4.5,10.4,6.6,10.9c3.2,15.5,17,27.4,33.5,27.4
			s30.3-11.9,33.4-27.4c-0.4,0.2-0.6,0.2-0.2,0.1c4.1-2,6.7-6,6.7-10.9v-4.4c0-4.6-2-8.7-6-10.9v-66.2V82.4c0,0-0.1,0-0.1,0
			c3.7-2.1,6.1-6.2,6.1-10.8v-4.4C113,62.4,109.5,56.9,106.3,56z M50,184l46-24.6v16.9l-46,24.6V184z M96.1,146.9L50,171.4v-20.9
			l46-24.4L96.1,146.9z M96,96.7v16.9l-46,24.6v-16.9L96,96.7z M50,108.8V84h45.8L50,108.8z M49.4,213.6l0.4-0.2L96,188.7V214H50
			v-0.7L49.4,213.6z M73.1,39c9.9,0,18.3,7,21.6,15H51.4C54.7,46,63.2,39,73.1,39z M103,70.6c0,0.8-0.6,1.4-1.4,1.4H45.4
			c-0.8,0-1.4-0.6-1.4-1.4v-4.2c0-0.8,0.6-1.4,1.4-1.4h56.2c0.8,0,1.4,0.6,1.4,1.4V70.6z M103,230.6c0,0.8-0.6,1.4-1.4,1.4H45.4
			c-0.8,0-1.4-0.6-1.4-1.4v-4.2c0-0.8,0.6-1.4,1.4-1.4h56.2c0.8,0,1.4,0.6,1.4,1.4V230.6z M73.1,258c-9.9,0-18.3-6-21.6-15h43.3
			C91.4,252,83,258,73.1,258z"/>
		<path fill="#5980B7" d="M266.8,118.6c-1.3-11.5-9.8-17.3-25.4-17.3c-6.3,0-13.2,0.9-19.8,1.7c-1.3,0.2-2.5,0.1-3.8,0.3
			c-3.4,0.4-11.2,0.7-20.8,0.7c0,0,0,0,0,0c-7,0-18.3-0.1-28.7-1.3l12.5-12.4l9.7,0.5c1.6,0.1,3.1-0.5,4.1-1.6l23.6-23.5
			c0.1-0.1,0.2-0.2,0.2-0.3c4.8-5.4,11.1-18.3,1.3-28.2c-3.1-3.1-6.8-4.7-10.9-4.7c-8.8,0-16.2,7.6-17.5,9.1l-58.4,58.4
			c-6.2,1.5-9.8,4.5-12.2,6.9c-3.4,3.4-4.9,8.9-3.8,14c0.8,3.7,3.8,10.5,14.7,14.4c14.6,5.2,40.1,7.1,59.2,7.1c3,0,6,0,8.9-0.1
			l3.5-0.1c23.8-0.7,50.7-1.5,60.1-12.3C266,126.7,267.2,122.8,266.8,118.6z M199.2,49.4c0.1-0.1,0.2-0.2,0.2-0.2
			c1.5-1.7,6-5.5,9.4-5.5c0.8,0,1.8,0.2,3.1,1.5c4.8,4.8-0.6,11.8-1.7,13l-21.7,21.7l-9.7-0.5c-1.6-0.1-3.1,0.5-4.1,1.6L155,100.7
			c-2.1-0.4-4.1-0.8-6-1.1L199.2,49.4z M255,122.7c-6.2,7.2-33.9,8-52.1,8.5l-3.5,0.1c-2.8,0.1-5.7,0.1-8.6,0.1
			c-22.8,0-44.6-2.5-55.5-6.4c-4.4-1.6-7.1-3.9-7.7-6.4c-0.4-1.8,0.3-3.3,0.8-3.8c2.2-2.2,5.7-4.7,13.5-4.7c3.6,0,7.8,0.4,12.4,1.5
			c13.5,3.1,32.5,3.4,42.6,3.4c0,0,0,0,0,0c8.9,0,17.6-0.2,22.1-0.8c1.3-0.1,2.5-0.3,3.8-0.5c6.3-0.8,12.9-1.5,18.5-1.5
			c13.6,0,14.1,4.7,14.5,7.6C256,121,255.7,121.8,255,122.7z"/>
		<circle fill="#5980B7" cx="138.8" cy="118.3" r="3.7"/>
		<circle fill="#5980B7" cx="245.6" cy="120.4" r="3.7"/>
		<path fill="#5980B7" d="M256.5,162.3c-2.7-0.2-5.2,1.7-5.7,4.4c-1.6,8-3.8,14.9-6.4,21c-1.2-1.7-2.6-3.4-4.2-5.1
			c-8.5-9.3-23.9-20.3-49-20.3c-26,0-43,11.5-53.2,22.2c-2.9-12-3.6-21.9-3.7-22.2c-0.2-2.7-2.3-4.9-5.1-5.1
			c-2.7-0.2-5.2,1.6-5.8,4.3c-0.5,2.2-12,54.6,13.4,86.4c12.3,15.4,31,23.3,55.6,23.3c19.1,0,34.8-6.4,46.4-19.1
			c27.1-29.6,22.9-82.4,22.7-84.7C261.5,164.6,259.3,162.5,256.5,162.3z M191.3,173.3c29,0,42.6,16.9,48.1,26.6c-1,0-2,0-3.2,0
			c-11.9,0-33.2-1.9-42.8-14.8c-0.9-1.3-2.4-2.1-3.9-2.2c-0.2,0-0.3,0-0.5,0c-1.4,0-2.7,0.5-3.8,1.5c-0.2,0.1-14.9,13.6-45.1,14.9
			C147.2,189.4,163.1,173.3,191.3,173.3z M230.2,210.9c-8.8,9.9-17.8,14.6-22.5,16.5l-14.4-19.3c-1.1-1.5-2.8-2.3-4.6-2.2
			c-1.8,0.1-3.5,1-4.4,2.6l-12.3,19.7c-10.9-1.2-18.7-8.7-24.2-18.3c20.8-2.2,34.2-9.4,40.6-13.9
			C199.1,206.7,215.9,210.2,230.2,210.9z M230.9,244.6c-9.5,10.3-22.4,15.6-38.3,15.6c-21.1,0-36.9-6.4-47-19.1
			c-7-8.8-10.7-19.7-12.5-30.6c0.7,0,1.4,0,2,0c0.2,0,0.3,0,0.4,0c7.6,15.5,19.7,28.8,39.3,28.8c1.9,0,3.7-1,4.7-2.6l9.8-15.7l12,16
			c1.3,1.8,3.6,2.6,5.7,2c1.2-0.3,21.2-5.6,37.3-28.5c1.3-0.1,2.3-0.2,3-0.3C244.5,222.6,239.5,235.2,230.9,244.6z"/>
	</g>
</g>
</svg>
