<?xml version="1.0" encoding="utf-8"?>
<!-- Generator: Adobe Illustrator 18.1.1, SVG Export Plug-In . SVG Version: 6.00 Build 0)  -->
<svg version="1.1" id="Layer_1" xmlns="http://www.w3.org/2000/svg" xmlns:xlink="http://www.w3.org/1999/xlink" x="0px" y="0px"
	 viewBox="0 0 300 300" enable-background="new 0 0 300 300" xml:space="preserve">
<g>
	<path fill="none" d="M189.6,110.3c0.2-5.4,4.1-9.6,9.2-10.1c2.5-0.2,4.7,1.6,4.9,4.1c0.2,2.5-1.6,4.7-4.1,4.9c-0.9,0.1-1,1.4-1,1.4
		c-0.1,1.5,1.3,2.5,3.6,2.9c5.2,0.8,7.3-2,8.1-4.5c1.3-3.8,0.2-8.5-2.4-9.9c-4.1-2.3-10.4-4-16.1-2c-4.5,1.5-8,5.2-10.4,10.8
		c-1.5,3.6-1.5,7.2-0.7,10.6c0.5,0,1,0,1.5,0c4.1,0,8.1,0.4,11.9,1.2C190.9,117.4,189.4,113.7,189.6,110.3z"/>
	<path fill="#CDCCCC" d="M91.5,93.3c-2.5-4.5-5.7-8.6-9.3-10c-1.5-0.5-3.9-1-7.7,1.6c-6.1,4.2-6,11.2-5.3,15
		c1.1,6.2,4.7,12.1,9.3,15.5c2.9-2.7,6.1-5.2,9.5-7.3C87.8,103.9,88.5,98.2,91.5,93.3z"/>
	<path fill="#CDCCCC" d="M137.6,81.5c-2.3-4.9-5.7-7.1-10.1-6.6c-3.6,0.4-6.2,1.9-8,4.5c-1.2,1.7-2,3.7-2.5,5.9
		c6,3.6,9,10.8,10.3,14.9c3.7,0.6,7.4,1.5,10.9,2.8C140.7,96.8,140.7,88,137.6,81.5z"/>
	<path fill="#CDCCCC" d="M117.4,99.6c-1.2-2.6-2.9-5.3-5.2-6.6c-1.8-1-3.7-1.1-6.1-0.3c-6.3,2.1-8.4,7-8.9,10.9
		c2.5-1,5.1-1.8,7.8-2.4c0.8-0.2,1.6-0.4,2.4-0.5C110.7,100,114,99.7,117.4,99.6z"/>
	<path fill="#FFFFFF" d="M118.3,108.6c-3.7,0-7.3,0.4-10.9,1.3c-4.2,1.5-7.9,8.2-7.9,13.2c0,4.8,1.4,8.2,4,9.9
		c3.4,2.3,8.5,1.8,12,0.4c3.1-1.3,5.3-4.9,5.1-7c-0.2-1.8-2.6-2.5-4.6-2.7c-0.4-0.1-1,0.2-1.5,0.7c-0.8,0.7-1.1,1.5-1,1.8
		c0.1,2.5-1.8,4.6-4.2,4.8c-2.5,0.1-4.6-1.7-4.8-4.2c-0.2-3.2,1.2-6.5,3.9-9c2.5-2.3,5.8-3.4,8.9-3c10.1,1.4,11.9,7.8,12.3,10.5
		c0.8,6.5-3.9,13.7-10.6,16.4c-2.6,1.1-6,1.8-9.5,1.8c-3.7,0-7.5-0.8-10.9-3.1c-3.6-2.4-8-7.4-8-17.4c0-2.1,0.3-4.3,0.9-6.4
		c-9.7,6.4-16.7,15.9-20,27.1c-3.6,12.5-2.1,25.7,4.2,37.1c8.6,15.5,25,25.2,42.7,25.2c4.5,0,9-0.7,13.4-1.9c-1.1-2-2.1-4-2.9-6.1
		c-1.5,0.4-3.1,0.6-4.7,0.6c-6.8,0-13-3.7-16.3-9.6c-0.8-1.4-1.3-2.8-1.7-4.3c-3.2-0.6-5.4-1.3-5.7-1.4c-2.4-0.8-3.6-3.3-2.9-5.7
		c0.8-2.4,3.3-3.6,5.7-2.9c0.1,0,1.1,0.4,2.9,0.7c0-0.2,0.1-0.4,0.1-0.6c1.4-4.8,4.5-8.7,8.9-11.1c2.7-1.5,5.8-2.3,9-2.3
		c0.8,0,1.6,0.1,2.3,0.2c4.1-15.7,14.7-28.8,28.7-36.3C146,114.9,132.6,108.6,118.3,108.6z"/>
	<path fill="#FFFFFF" d="M119.5,171.7c-2.2,1.2-3.9,3.3-4.6,5.7c-0.7,2.5-0.4,5,0.8,7.3c1.7,3,4.9,4.9,8.4,4.9
		c0.6,0,1.3-0.1,1.9-0.2c-1-4.2-1.5-8.6-1.5-13.1c0-1.9,0.1-3.9,0.3-5.7c-0.2,0-0.5,0-0.7,0C122.5,170.6,120.9,171,119.5,171.7z"/>
	<path fill="#FFFFFF" d="M195.2,138.9c2,1.5,2.3,4.4,0.8,6.3c-0.9,1.1-2.2,1.7-3.6,1.7c-1,0-1.9-0.3-2.8-1
		c-0.6-0.5-9.6-7.6-14.8-17.8c-23.4,3.6-41.3,23.8-41.3,48.2c0,26.9,21.9,48.8,48.8,48.8s48.8-21.9,48.8-48.8
		c0-26-20.4-47.3-46.1-48.7C189.3,134.2,195.1,138.8,195.2,138.9z M202,199.3c0.8,2.3-0.4,4.9-2.7,5.7c-2,0.7-4,1.2-5.9,1.5
		c-2.9,6.6-9.4,11.2-17,11.2c-10.2,0-18.6-8.3-18.6-18.6c0-1.6,0.2-3.1,0.6-4.6c-2.5-2.1-4.1-3.7-4.3-4c-1.7-1.8-1.6-4.7,0.2-6.4
		c1.8-1.7,4.7-1.6,6.4,0.2c0,0,0.8,0.8,2.1,2c3.4-3.6,8.2-5.9,13.5-5.9c9.5,0,17.4,7.2,18.4,16.4c0.5-0.1,1-0.3,1.5-0.5
		C198.6,195.7,201.2,196.9,202,199.3z"/>
	<path fill="#CDCCCC" d="M176.4,208.7c5.3,0,9.6-4.3,9.6-9.6s-4.3-9.6-9.6-9.6c-5.3,0-9.6,4.3-9.6,9.6S171.1,208.7,176.4,208.7z"/>
	<g>
		<path fill="#5A81B8" d="M203.8,122.7c7.1,0.1,12.7-3.8,15.1-10.6c2.5-7.1,0.7-16.8-6.5-20.8c-7.5-4.1-16.2-5.1-23.4-2.7
			c-6.9,2.4-12.3,7.8-15.7,15.8c-2.2,5.2-2.4,10.4-1.4,15.1c-2.8,0.5-5.4,1.2-8,2.1c-4.8-6.1-10.7-11.1-17.3-14.8
			c3.9-9.3,3.2-21.2-0.7-29.2c-4-8.4-11-12.6-19.3-11.6c-6.2,0.7-11,3.5-14.3,8.2c-1.9,2.7-3.1,5.8-3.8,8.9c-1.6,0.1-3.3,0.4-5,1
			c-2,0.7-3.7,1.5-5.2,2.4c-3.1-5-7.4-9.8-12.8-11.8c-3.6-1.3-9.2-1.9-15.8,2.7c-7.5,5.1-10.8,13.8-9.1,23.9
			c1.4,8.4,6,15.9,12.1,20.7c-4.3,5.6-7.6,12.1-9.7,19.2c-4.3,14.8-2.5,30.4,4.9,43.9c10.2,18.4,29.6,29.9,50.6,29.9
			c6.3,0,12.6-1.1,18.6-3.1c10.6,13.4,27,22.1,45.4,22.1c31.8,0,57.8-25.9,57.8-57.8C240.1,152.1,225,131.3,203.8,122.7z M181.5,108
			c2.4-5.6,5.9-9.3,10.4-10.8c5.7-1.9,12-0.2,16.1,2c2.6,1.4,3.7,6.1,2.4,9.9c-0.9,2.5-3,5.3-8.1,4.5c-2.4-0.4-3.7-1.5-3.6-2.9
			c0,0,0.1-1.3,1-1.4c2.5-0.2,4.3-2.4,4.1-4.9c-0.2-2.5-2.4-4.3-4.9-4.1c-5.1,0.5-9,4.7-9.2,10.1c-0.1,3.4,1.3,7,4.7,9.5
			c-3.8-0.8-7.8-1.2-11.9-1.2c-0.5,0-1,0-1.5,0C179.9,115.2,180,111.6,181.5,108z M119.5,79.4c1.8-2.6,4.4-4,8-4.5
			c4.4-0.5,7.7,1.7,10.1,6.6c3.1,6.4,3.1,15.2,0.6,21.6c-3.5-1.3-7.1-2.2-10.9-2.8C126,96.2,123,89,117,85.4
			C117.5,83.2,118.3,81.1,119.5,79.4z M106.1,92.7c2.4-0.8,4.3-0.7,6.1,0.3c2.3,1.3,4,4,5.2,6.6c-3.4,0.1-6.7,0.4-10,1
			c-0.8,0.1-1.6,0.3-2.4,0.5c-2.6,0.6-5.2,1.4-7.8,2.4C97.8,99.7,99.8,94.8,106.1,92.7z M69.3,99.9c-0.6-3.8-0.8-10.8,5.3-15
			c3.8-2.6,6.2-2.2,7.7-1.6c3.6,1.3,6.8,5.5,9.3,10c-3,4.9-3.7,10.6-3.5,14.9c-3.4,2.1-6.6,4.6-9.5,7.3C74,112,70.3,106.1,69.3,99.9
			z M118.4,206.1c-17.8,0-34.2-9.7-42.7-25.2c-6.3-11.4-7.8-24.6-4.2-37.1c3.3-11.3,10.3-20.8,20-27.1c-0.6,2.2-1,4.3-0.9,6.4
			c0,10,4.4,14.9,8,17.4c3.3,2.2,7.2,3.1,10.9,3.1c3.5,0,6.9-0.8,9.5-1.8c6.7-2.7,11.4-10,10.6-16.4c-0.3-2.7-2.2-9.1-12.3-10.5
			c-3.1-0.4-6.4,0.6-8.9,3c-2.6,2.4-4.1,5.8-3.9,9c0.2,2.5,2.3,4.3,4.8,4.2c2.5-0.1,4.4-2.3,4.2-4.8c0-0.3,0.3-1.1,1-1.8
			c0.5-0.5,1.1-0.7,1.5-0.7c2,0.3,4.4,1,4.6,2.7c0.3,2.1-1.9,5.7-5.1,7c-3.5,1.4-8.6,1.9-12-0.4c-2.6-1.8-4-5.1-4-9.9
			c0-5,3.7-11.7,7.9-13.2c3.6-0.8,7.2-1.3,10.9-1.3c14.3,0,27.7,6.3,36.9,16.8c-14,7.5-24.6,20.6-28.7,36.3
			c-0.8-0.1-1.5-0.2-2.3-0.2c-3.1,0-6.2,0.8-9,2.3c-4.3,2.4-7.5,6.3-8.9,11.1c-0.1,0.2-0.1,0.4-0.1,0.6c-1.7-0.4-2.8-0.7-2.9-0.7
			c-2.4-0.8-4.9,0.5-5.7,2.9c-0.8,2.4,0.5,4.9,2.9,5.7c0.3,0.1,2.4,0.8,5.7,1.4c0.4,1.5,0.9,3,1.7,4.3c3.3,5.9,9.5,9.6,16.3,9.6
			c1.6,0,3.1-0.2,4.7-0.6c0.9,2.1,1.8,4.1,2.9,6.1C127.4,205.4,122.9,206.1,118.4,206.1z M126.1,189.5c-0.6,0.1-1.3,0.2-1.9,0.2
			c-3.5,0-6.7-1.9-8.4-4.9c-1.2-2.2-1.5-4.8-0.8-7.3c0.7-2.5,2.3-4.5,4.6-5.7c1.4-0.8,3-1.2,4.6-1.2c0.2,0,0.5,0,0.7,0
			c-0.2,1.9-0.3,3.8-0.3,5.7C124.6,180.9,125.1,185.2,126.1,189.5z M182.3,225.1c-26.9,0-48.8-21.9-48.8-48.8
			c0-24.4,17.9-44.6,41.3-48.2c5.2,10.2,14.2,17.3,14.8,17.8c0.8,0.6,1.8,1,2.8,1c1.3,0,2.7-0.6,3.6-1.7c1.5-2,1.2-4.8-0.8-6.3
			c-0.1-0.1-5.9-4.7-10.3-11.2c25.6,1.4,46.1,22.7,46.1,48.7C231.1,203.2,209.2,225.1,182.3,225.1z"/>
		<path fill="#5A81B8" d="M196.3,196.5c-0.5,0.2-1,0.3-1.5,0.5c-1.1-9.2-8.9-16.4-18.4-16.4c-5.3,0-10.1,2.3-13.5,5.9
			c-1.3-1.2-2.1-2-2.1-2c-1.7-1.8-4.5-1.9-6.4-0.2c-1.8,1.7-1.9,4.5-0.2,6.4c0.2,0.2,1.8,1.9,4.3,4c-0.4,1.5-0.6,3-0.6,4.6
			c0,10.2,8.3,18.6,18.6,18.6c7.6,0,14.1-4.6,17-11.2c1.9-0.3,3.9-0.8,5.9-1.5c2.3-0.8,3.6-3.4,2.7-5.7
			C201.2,196.9,198.6,195.7,196.3,196.5z M176.4,208.7c-5.3,0-9.6-4.3-9.6-9.6s4.3-9.6,9.6-9.6c5.3,0,9.6,4.3,9.6,9.6
			S181.7,208.7,176.4,208.7z"/>
	</g>
</g>
</svg>
