<?xml version="1.0" encoding="utf-8"?>
<!-- Generator: Adobe Illustrator 18.1.1, SVG Export Plug-In . SVG Version: 6.00 Build 0)  -->
<svg version="1.1" id="Layer_1" xmlns="http://www.w3.org/2000/svg" xmlns:xlink="http://www.w3.org/1999/xlink" x="0px" y="0px"
	 viewBox="0 0 300 300" enable-background="new 0 0 300 300" xml:space="preserve">
<g>
	<polygon fill="none" points="97,95 86,95 86,118.8 97,111.3 	"/>
	<path fill="#FFFFFF" d="M160,77c0-3,2.1-5,5.1-5h79c3,0,5.8,2,5.8,5v21.8c0,3-2.8,6.1-5.8,6.1h-73.1l13,9h60.2c3,0,5.8,2.1,5.8,5.1
		v21.8c0,3-2.8,6.1-5.8,6.1H205v14h39.2c3,0,5.8,2.2,5.8,5.2V188c0,3-2.8,6-5.8,6H205v47h54V60H150v29.2l10,7V77z"/>
	<rect x="171" y="83" fill="#CCCCCC" width="68" height="11"/>
	<path fill="#CCCCCC" d="M239,125h-39.6l13,9.4c0.6,0.4,1.1,0.6,1.5,1.6H239V125z"/>
	<rect x="205" y="172" fill="#CCCCCC" width="34" height="11"/>
	<path fill="#FFFFFF" d="M126.8,170.1c0.4,2.6,0.6,4.9,0.6,7.9H162c3,0,6,2,6,5.1V241h26V134.2l-54.2-37.7L91,128.7l-1.5,1.1
		C108.6,134.2,123.8,150.2,126.8,170.1z M139.4,120.8c11.2,0,20.3,9.1,20.3,20.3s-9.1,20.3-20.3,20.3c-11.2,0-20.3-9.1-20.3-20.3
		S128.2,120.8,139.4,120.8z"/>
	<path fill="#FFFFFF" d="M139.4,150.3c5.1,0,9.3-4.2,9.3-9.3s-4.2-9.3-9.3-9.3c-5.1,0-9.3,4.2-9.3,9.3S134.2,150.3,139.4,150.3z"/>
	<path fill="#FFFFFF" d="M86,225.3V241h25v-27.6C104,219.7,95.6,223.8,86,225.3C86,225.3,86,225.3,86,225.3z"/>
	<path fill="#CCCCCC" d="M122,241h27.9h7.1v-52h-31c-0.9,3-2,6.7-4,10.1V241z"/>
	<path fill="#FFFFFF" d="M74.5,164.6c-1.6,1.1-2.5,2.4-2.5,4c0,0.7,0.2,1.3,0.5,1.8c0.4,0.5,0.8,0.9,1.2,1.2s1.1,0.6,2.1,0.9
		c0.1,0,0.1,0,0.2,0.1l0.1-8.8C75.5,164,75,164.2,74.5,164.6z"/>
	<path fill="#FFFFFF" d="M78.6,213C78.6,213,78.6,213,78.6,213c1.8,0,3.6-0.2,5.4-0.5c9.4-1.4,17.7-6.5,23.4-14.1
		c5.7-7.7,8-17.1,6.5-26.5c-2.6-17.3-17.8-30.3-35.2-30.3c-1.8,0-3.6,0.1-5.4,0.4c-19.4,3-32.9,21.2-29.9,40.7
		C46,199.9,61.2,213,78.6,213z M63.6,191c0-0.8,0.3-1.6,1-2.2c0.6-0.6,1.4-0.9,2.4-0.9c0.6,0,1.6,0.2,3,0.7c2,0.9,3.9,1.5,5.8,1.8
		l0.2-11.8c-1-0.2-1.9-0.5-2.7-0.7c-1.6-0.5-3-1.1-4.5-1.9c-1.4-0.8-2.5-1.8-3.2-2.9c-0.7-1.2-1.1-2.6-1.1-4.1
		c0-3.3,1.7-6.1,4.9-8.3c2.1-1.4,4.3-2.4,6.8-2.8l0.1-4.4c0-1.9,1.6-3.5,3.5-3.5c1.9,0,3.5,1.6,3.5,3.5l-0.1,4
		c3.3,0.3,6.3,0.9,9,2.1c1.5,0.6,2.2,1.6,2.2,2.9c0,0.7-0.3,1.3-1,1.9c-0.6,0.6-1.4,0.9-2.3,0.9c-0.6,0-1.7-0.3-3.2-0.8
		c-1.5-0.6-3.1-1-4.8-1.2l-0.2,11c3.7,0.9,6.7,2,8.8,3.4c2.5,1.6,3.7,4,3.7,7.3c0,3.6-1.6,6.4-4.7,8.5c-2.2,1.6-5,2.5-8.1,2.9l0,3.2
		c0,1.9-1.6,3.5-3.5,3.5c0,0,0,0,0,0c-1.9,0-3.5-1.6-3.5-3.6l0-3.1c-3.5-0.3-6.6-1.1-9.4-2.3C64.5,193.3,63.6,192.3,63.6,191z"/>
	<path fill="#FFFFFF" d="M88,185c0-1.7-0.8-2.9-2.4-3.8c-0.7-0.4-1.6-0.8-2.7-1.1l-0.1,10.2c1-0.2,1.9-0.6,2.7-1.1
		C87.1,188.2,87.9,186.8,88,185z"/>
	<g>
		<path fill="#5980B7" d="M264,49H144.4c-3,0-5.4,1.8-5.4,4.8v29.5c0,0-0.1,0-0.1,0c-0.8,0.1-1.5,0.4-2.2,0.9L108,104v-0.2V89.3
			c0-3-2.5-5.3-5.5-5.3h-22c-3,0-5.5,2.2-5.5,5.3v37.1l-4,2.8c-0.1,0-0.1,0-0.2,0c-26.2,4.3-44.3,28.9-40.3,55.3
			c2.2,14.5,10.9,26.8,22.8,34.2l-9,20.1c-1.5,3.3,0,7.1,3.3,8.6c0.9,0.4,1.8,0.6,2.6,0.6c2.5,0,4.9-1.4,5.9-3.8l9-20.1
			c3,0.9,6.2,1.5,9.4,1.7c0.1,0,0.3,0,0.3,0V246c0,3,2.1,6,5.2,6H264c3,0,6-2.9,6-6V53.8C270,50.8,267.1,49,264,49z M86,95h11v16.3
			l-11,7.3V95z M111,240.5v0.5H86c0,0-0.1-15.6,0-15.6c9.4-1.4,18-5.6,25-11.8V240.5z M107.4,198.3c-5.7,7.7-14,12.8-23.4,14.2
			c-1.8,0.3-3.6,0.5-5.4,0.5c0,0,0,0,0,0c-17.5,0-32.6-13.1-35.2-30.4c-3-19.4,10.5-37.7,29.9-40.6c1.8-0.3,3.6-0.4,5.4-0.4
			c17.5,0,32.6,13,35.2,30.3C115.4,181.3,113.1,190.7,107.4,198.3z M157,241h-35v-41.6c0-0.1,0.1-0.1,0.2-0.3
			c1.7-3.3,3.1-6.2,3.9-10.2H157V241z M194,241h-26v-0.5v-57.5c0-3-2.9-5.1-6-5.1h-34.7c0,0,0-0.2,0-0.3c0-2.5-0.2-5.2-0.6-7.7
			c-3-19.9-18.3-35.8-37.3-40.2c0,0,0,0,0,0l50.3-33.3l50.4,35.1l3.8,2.7V241z M199.7,125H239v11h-24.9c-0.1,0-0.1-0.4-0.2-0.5
			c-0.4-0.6-0.9-1.1-1.5-1.5L199.7,125z M205,172h34v11h-34v-0.5V172z M259,241h-54v-0.5V194h39.2c3,0,5.8-2.9,5.8-6v-21.8
			c0-3-2.8-5.2-5.8-5.2H205v-0.3V147h39.2c3,0,5.8-3,5.8-6.1v-21.8c0-3-2.8-5.1-5.8-5.1h-59.9l-0.2-0.2l-12.4-8.8h72.5
			c3,0,5.8-3.1,5.8-6.1V77c0-3-2.8-5-5.8-5h-79c-3,0-5.1,2-5.1,5v19.4l-0.3-0.2l-9.7-6.9V60h109V241z M171,94V83h68v11H171z"/>
		<path fill="#5980B7" d="M139.4,120.8c-11.2,0-20.3,9.1-20.3,20.3s9.1,20.3,20.3,20.3c11.2,0,20.3-9.1,20.3-20.3
			S150.5,120.8,139.4,120.8z M139.4,150.3c-5.1,0-9.3-4.2-9.3-9.3s4.2-9.3,9.3-9.3c5.1,0,9.3,4.2,9.3,9.3S144.5,150.3,139.4,150.3z"
			/>
		<path fill="#5980B7" d="M91.8,177.6c-2.1-1.4-5.1-2.5-8.8-3.4l-0.1,5.9c1,0.3,1.9,0.7,2.7,1.1c1.6,0.9,2.4,2.1,2.4,3.8
			c0,1.8-0.9,3.2-2.5,4.2c-0.8,0.5-1.7,0.8-2.7,1.1l-0.1,6.1c3.2-0.4,5.9-1.4,8.1-2.9c3.1-2.1,4.6-5,4.7-8.5
			C95.5,181.6,94.3,179.2,91.8,177.6z"/>
		<path fill="#5980B7" d="M83.1,163.2c1.7,0.2,3.3,0.6,4.8,1.2c1.5,0.5,2.6,0.8,3.2,0.8c0.9,0,1.7-0.3,2.3-0.9c0.6-0.6,1-1.3,1-1.9
			c0-1.3-0.7-2.2-2.2-2.9c-2.7-1.1-5.7-1.8-9-2.1L83.1,163.2z"/>
		<path fill="#5980B7" d="M79.1,203c1.9,0,3.5-1.5,3.5-3.5l0-3.2l0.1-6.1l0.1-10.2l0.1-5.9l0.2-11l0.1-5.7l0.1-4
			c0-1.9-1.5-3.5-3.5-3.5c-1.9-0.1-3.5,1.5-3.5,3.5l-0.1,4.4v0c-2.5,0.5-4.8,1.4-6.8,2.8c-3.2,2.2-4.9,5-4.9,8.3
			c0,1.5,0.3,2.9,1.1,4.1c0.7,1.2,1.8,2.2,3.2,2.9c1.4,0.8,2.9,1.4,4.5,1.9c0.8,0.2,1.7,0.5,2.7,0.7l-0.2,11.8
			c-1.9-0.3-3.8-1-5.8-1.8c-1.4-0.4-2.4-0.7-3-0.7c-0.9,0-1.7,0.3-2.4,0.9c-0.6,0.6-1,1.4-1,2.2c0,1.3,0.9,2.4,2.7,3.1
			c2.8,1.2,5.9,1.9,9.4,2.3l0,3.1C75.6,201.4,77.1,203,79.1,203C79.1,203,79.1,203,79.1,203z M75.8,172.5c-1-0.3-1.7-0.6-2.1-0.9
			s-0.8-0.7-1.2-1.2c-0.4-0.5-0.6-1.1-0.5-1.8c0-1.6,0.9-3,2.5-4c0.5-0.3,1.1-0.6,1.7-0.8l-0.1,8.8
			C75.9,172.6,75.9,172.6,75.8,172.5z"/>
	</g>
</g>
</svg>
