<?xml version="1.0" encoding="utf-8"?>
<!-- Generator: Adobe Illustrator 18.1.1, SVG Export Plug-In . SVG Version: 6.00 Build 0)  -->
<svg version="1.1" id="Layer_1" xmlns="http://www.w3.org/2000/svg" xmlns:xlink="http://www.w3.org/1999/xlink" x="0px" y="0px"
	 viewBox="0 0 300 300" enable-background="new 0 0 300 300" xml:space="preserve">
<g>
	<path fill="none" d="M89.5,113.1c0.5-0.7,1.3-1.1,2.2-1.1c1.6,0,2.8,1.3,2.8,2.8c0,1.6-1.3,2.8-2.8,2.8c-1.5,0-2.7-1.2-2.8-2.7
		c-0.3,1.1-0.4,2.2-0.4,3.3l-0.7,77.9c0,1.9,0.3,3.8,1,5.6c0.5-0.6,1.3-0.9,2.1-0.9c1.6,0,2.8,1.3,2.8,2.8c0,1.3-0.9,2.4-2.1,2.7
		c0.2,0.2,0.3,0.4,0.5,0.6c1.9,1.9,4.1,3.2,6.6,3.9c-0.2-0.4-0.3-0.8-0.3-1.2c0-1.6,1.3-2.8,2.8-2.8c1.6,0,2.8,1.3,2.8,2.8
		c0,0.7-0.3,1.3-0.6,1.8l16.6,0.1c-0.4-0.5-0.6-1.1-0.6-1.8c0-1.6,1.3-2.8,2.8-2.8c1.6,0,2.8,1.3,2.8,2.8c0,0.7-0.3,1.3-0.6,1.8
		l17.4,0.1c-0.4-0.5-0.6-1.1-0.6-1.8c0-1.6,1.3-2.8,2.8-2.8c1.6,0,2.8,1.3,2.8,2.8c0,0.7-0.3,1.3-0.6,1.8l16.6,0.1
		c-0.4-0.5-0.6-1.1-0.6-1.8c0-1.6,1.3-2.8,2.8-2.8c1.6,0,2.8,1.3,2.8,2.8c0,0.7-0.3,1.3-0.6,1.8l13.9,0.1c0.9,0,1.7-0.1,2.5-0.2
		c-0.3-0.4-0.4-1-0.4-1.5c0-1.6,1.3-2.8,2.8-2.8c1.4,0,2.6,1.1,2.7,2.4c1.7-1,3.1-2.2,4.3-3.7l-15.3-0.1c-0.5,0.6-1.3,1-2.2,1
		c-0.9,0-1.6-0.4-2.1-1l-16.6-0.1c-0.5,0.6-1.3,1-2.2,1c-0.9,0-1.6-0.4-2.1-1l-16.6-0.1c-0.5,0.6-1.3,1-2.2,1c-0.9,0-1.6-0.4-2.1-1
		l-13.7-0.1c-1.2,0-2.4-0.1-3.5-0.3c-0.5,0.8-1.4,1.3-2.4,1.3c-1.5,0-2.7-1.2-2.8-2.7c-2.5-1-4.8-2.4-6.8-4.2
		c-0.3,0.1-0.5,0.1-0.8,0.1c-1.6,0-2.8-1.3-2.8-2.8c0-0.4,0.1-0.7,0.2-1c-3-4.1-4.7-9-4.6-14.2l0.6-75.7
		C92.5,107.8,90.6,110.2,89.5,113.1z M91,193.7c-1.6,0-2.8-1.3-2.8-2.8c0-1.6,1.3-2.8,2.8-2.8c1.6,0,2.8,1.3,2.8,2.8
		C93.9,192.5,92.6,193.8,91,193.7z M91.1,181c-1.6,0-2.8-1.3-2.8-2.8s1.3-2.8,2.8-2.8s2.8,1.3,2.8,2.8C94,179.8,92.7,181.1,91.1,181
		z M91.2,168.4c-1.6,0-2.8-1.3-2.8-2.8c0-1.6,1.3-2.8,2.8-2.8c1.6,0,2.8,1.3,2.8,2.8S92.8,168.4,91.2,168.4z M91.4,155.7
		c-1.6,0-2.8-1.3-2.8-2.8c0-1.6,1.3-2.8,2.8-2.8c1.6,0,2.8,1.3,2.8,2.8C94.2,154.4,92.9,155.7,91.4,155.7z M91.5,143
		c-1.6,0-2.8-1.3-2.8-2.8s1.3-2.8,2.8-2.8c1.6,0,2.8,1.3,2.8,2.8C94.3,141.7,93,143,91.5,143z M91.6,130.3c-1.6,0-2.8-1.3-2.8-2.8
		c0-1.6,1.3-2.8,2.8-2.8c1.6,0,2.8,1.3,2.8,2.8C94.4,129,93.1,130.3,91.6,130.3z"/>
	<path fill="#CDCCCC" d="M196.6,90.1l-78-0.7c-8,0-14.6,6.5-14.7,14.6l-0.7,77.9c0,3.9,1.5,7.6,4.2,10.4c2.8,2.8,6.4,4.4,10.3,4.4
		l78,0.7c8,0,14.6-6.5,14.7-14.6l0.7-77.9c0-3.9-1.5-7.6-4.2-10.4C204.2,91.6,200.5,90.1,196.6,90.1z M171.4,182.5l-26.1,0.2
		c-14,0-26-12-26.1-26.1l-0.2-26.2c-0.1-6.9,2.6-13.5,7.5-18.6c4.9-5.1,11.5-7.9,18.4-8l15.7-0.1c0.2,0,0.4,0,0.6,0
		c6.9,1.1,16.3,6.5,20.1,14.2l0.3,0.5c0.9,1.8,1.4,3.1,2.1,8.3l0.1,0.6c0.2,1.1,0.4,2.6,0.6,3.2c0.8,0.2,2.5,0.2,3.5,0.2
		c2.5,0,4.6,0.1,6.1,1.2l1,0.8c0.4,0.3,0.8,0.7,1,1.2l0.6,1.2c0.1,0.3,0.2,0.6,0.3,0.8l0.2,1.1c0,0.2,0.1,0.5,0.1,0.7l0,18.3
		C197.2,170.5,185.6,182.4,171.4,182.5z"/>
	<polygon fill="#CDCCCC" points="168.7,154 168,154 168,150.5 168,151 	"/>
	<polygon fill="#CDCCCC" points="157,127.7 157,128.2 157.9,131 157,131 	"/>
	<path fill="#FFFFFF" d="M190.1,156.1l0-17.9l-0.1-0.4c-0.6-0.1-1.6-0.1-2.3-0.1c-3,0-6-0.1-8-1.9c-2.1-1.9-2.5-4.7-2.9-7.6
		l-0.1-0.6c-0.6-4.4-0.9-5-1.5-6.2l-0.3-0.6c-2.4-5-9.4-9.4-14.6-10.3l-15.4,0.1c-5,0-9.8,2.1-13.4,5.9c-3.6,3.7-5.6,8.6-5.5,13.7
		l0.2,26.4c0.1,10.4,8.8,19.3,19.1,19.3h0.2l25.8-0.4C181.7,175.5,190.2,166.7,190.1,156.1z M147.5,124.2l10.3-0.2c0,0,0.1,0,0.1,0
		c3.9,0,7,3.1,7.1,6.8c0,1.9-0.7,3.8-2.1,5.1c-1.3,1.2-3,1.9-4.9,1.9l-10.3,0.1c-4,0-7.1-3-7.1-6.8
		C140.5,127.3,143.6,124.2,147.5,124.2z M168.8,160.6l-20.9,0.2c-4,0-7.1-3-7.1-6.7c0-3.8,3-6.8,7-6.8l20.9-0.2c0,0,0.1,0,0.1,0
		c3.9,0,7,2.9,7,6.7C175.8,157.5,172.7,160.5,168.8,160.6z"/>
	<polygon fill="#FFFFFF" points="168.7,150.5 168.7,150.5 168.7,150.5 	"/>
	<polygon fill="#FFFFFF" points="157.9,127.7 157.9,127.7 157.9,127.7 	"/>
	<g>
		<circle fill="#5A81B8" cx="91.6" cy="127.5" r="2.8"/>
		<circle fill="#5A81B8" cx="91.5" cy="140.2" r="2.8"/>
		<circle fill="#5A81B8" cx="91.4" cy="152.8" r="2.8"/>
		<circle fill="#5A81B8" cx="91.3" cy="165.5" r="2.8"/>
		<circle fill="#5A81B8" cx="91.2" cy="178.2" r="2.8"/>
		<circle fill="#5A81B8" cx="91.1" cy="190.9" r="2.8"/>
		<path fill="#5A81B8" d="M213.4,88.1c-4.4-4.5-10.4-6.7-16.7-6.8L118.8,81h-0.2c-10.4,0-19.2,6.4-22.4,15.8
			c-0.8,2.3-1.2,4.7-1.3,7.2l0,2.1l-0.6,75.7c0,5.2,1.6,10.1,4.6,14.2c-0.1,0.3-0.2,0.6-0.2,1c0,1.6,1.2,2.8,2.8,2.8
			c0.3,0,0.6-0.1,0.8-0.1c0,0,0,0,0,0c2,1.8,4.3,3.2,6.8,4.2l0,0c0.1,1.5,1.3,2.7,2.8,2.7c1,0,1.9-0.5,2.4-1.3c0,0,0,0,0,0
			c1.2,0.2,2.3,0.3,3.5,0.3l13.7,0.1h0c0.5,0.6,1.3,1,2.1,1c0.9,0,1.6-0.4,2.2-1h0l16.6,0.1l0,0c0.5,0.6,1.3,1,2.1,1
			c0.9,0,1.6-0.4,2.2-1l16.6,0.1c0.5,0.6,1.3,1,2.1,1c0.9,0,1.6-0.4,2.2-1l15.3,0.1c-1.2,1.5-2.6,2.8-4.3,3.7
			c-0.2-1.4-1.3-2.4-2.7-2.4c-1.6,0-2.8,1.2-2.8,2.8c0,0.6,0.2,1.1,0.4,1.5c-0.8,0.1-1.7,0.2-2.5,0.2L167,212
			c0.4-0.5,0.6-1.1,0.6-1.8c0-1.6-1.2-2.8-2.8-2.8c-1.6,0-2.8,1.2-2.8,2.8c0,0.7,0.2,1.3,0.6,1.8l-16.6-0.1c0.4-0.5,0.6-1.1,0.6-1.8
			c0-1.6-1.2-2.8-2.8-2.8c-1.6,0-2.8,1.2-2.8,2.8c0,0.7,0.2,1.3,0.6,1.8l-17.4-0.1c0.4-0.5,0.6-1.1,0.6-1.8c0-1.6-1.2-2.8-2.8-2.8
			c-1.6,0-2.8,1.2-2.8,2.8c0,0.7,0.2,1.3,0.6,1.8l-16.6-0.1c0.4-0.5,0.6-1.1,0.6-1.8c0-1.6-1.2-2.8-2.8-2.8c-1.6,0-2.8,1.2-2.8,2.8
			c0,0.4,0.1,0.8,0.3,1.2c-2.5-0.7-4.7-2.1-6.6-3.9c-0.2-0.2-0.3-0.4-0.5-0.6c1.2-0.3,2.1-1.4,2.1-2.7c0-1.6-1.2-2.8-2.8-2.8
			c-0.8,0-1.6,0.4-2.1,0.9c-0.7-1.8-1.1-3.7-1-5.6l0.7-77.9c0-1.2,0.2-2.3,0.4-3.3c0.1,1.5,1.3,2.6,2.8,2.7c1.6,0,2.8-1.2,2.8-2.8
			c0-1.6-1.2-2.8-2.8-2.8c-0.9,0-1.7,0.4-2.2,1.1c1.1-2.8,3-5.3,5.4-7l0-2.2c0-2.6,0.5-5.1,1.3-7.4c-9,3.1-15.6,11.7-15.7,21.7
			l-0.7,77.9c-0.1,6.2,2.3,12,6.7,16.4c4.4,4.4,10.1,6.8,16.3,6.9l77.9,0.6h0.2c0,0,0,0,0,0c9.7,0,18-5.9,21.4-14.4
			c0,0,0.1-0.1,0.1-0.1c9.7-2.9,16.9-12,17-22.6l0.7-77.9C220.2,98.7,217.8,92.7,213.4,88.1z M210.5,182.8
			c-0.1,8-6.7,14.6-14.7,14.6l-78-0.7c-3.9,0-7.6-1.6-10.3-4.4c-2.8-2.8-4.3-6.5-4.2-10.4l0.7-77.9c0.1-8,6.7-14.6,14.7-14.6l78,0.7
			c3.9,0,7.6,1.6,10.3,4.4c2.8,2.8,4.3,6.5,4.2,10.4L210.5,182.8z"/>
		<path fill="#5A81B8" d="M197.1,137.1l-0.2-1.1c-0.1-0.3-0.2-0.6-0.3-0.8l-0.6-1.2c-0.2-0.5-0.6-0.9-1-1.2l-1-0.8
			c-1.5-1.2-3.5-1.2-6.1-1.2c-1,0-2.7,0-3.5-0.2c-0.3-0.6-0.5-2.1-0.6-3.2l-0.1-0.6c-0.7-5.2-1.3-6.5-2.1-8.3l-0.3-0.5
			c-3.7-7.7-13.1-13.1-20.1-14.2c-0.2,0-0.4,0-0.6,0l-15.7,0.1c-6.9,0.1-13.4,2.9-18.4,8c-4.9,5.1-7.6,11.7-7.5,18.6l0.2,26.2
			c0.1,14.2,12.1,26.1,26.1,26.1l26.1-0.2c14.2-0.1,25.8-12,25.8-26.4l0-18.3C197.1,137.6,197.1,137.4,197.1,137.1z M171.3,175.6
			l-25.8,0.4h-0.2c-10.3,0-19-8.9-19.1-19.3l-0.2-26.3c0-5.1,1.9-10,5.5-13.7c3.6-3.7,8.4-5.8,13.4-5.9l15.4-0.1
			c5.2,1,12.2,5.3,14.6,10.3l0.3,0.6c0.6,1.2,0.9,1.8,1.5,6.2l0.1,0.6c0.4,2.9,0.8,5.7,2.9,7.6c2,1.8,5,1.8,8,1.9
			c0.7,0,1.7,0,2.3,0.1l0.1,0.4l0,18C190.2,166.8,181.7,175.5,171.3,175.6z"/>
		<path fill="#5A81B8" d="M168.7,147C168.7,147,168.7,147,168.7,147l-21,0.2c-4,0-7,3-7,6.9c0,3.8,3.1,6.7,7.1,6.7l20.9-0.2
			c3.9,0,7-3,7-6.8C175.7,149.9,172.6,147,168.7,147z"/>
		<path fill="#5A81B8" d="M147.6,137.9l10.3-0.1c1.8,0,3.6-0.7,4.9-1.9c1.4-1.3,2.2-3.2,2.1-5.1c0-3.8-3.1-6.8-7.1-6.8
			c0,0-0.1,0-0.1,0l-10.3,0.2c-4,0-7,3.1-7,6.9C140.6,134.9,143.6,137.9,147.6,137.9z"/>
	</g>
</g>
</svg>
