<?xml version="1.0" encoding="utf-8"?>
<!-- Generator: Adobe Illustrator 18.1.1, SVG Export Plug-In . SVG Version: 6.00 Build 0)  -->
<svg version="1.1" id="Layer_1" xmlns="http://www.w3.org/2000/svg" xmlns:xlink="http://www.w3.org/1999/xlink" x="0px" y="0px"
	 viewBox="0 0 300 300" enable-background="new 0 0 300 300" xml:space="preserve">
<g>
	<path fill="#FFFFFF" d="M106.8,151.2c0.1-14.1,4.2-25.8,12-34.8c8-9.2,17.6-13.9,28.5-13.9c7,0,14.2,1.5,21.4,4.4c0,0,0.1,0,0.1,0
		c3.4,1.5,6.1,2.3,8.2,2.4c3,0,4.2-1.2,4.9-2c1.3-1.7,2-3.9,2.1-6.8c0-1.3,0.1-5.3-8.2-8.9c0,0-0.1,0-0.1-0.1
		c-6.9-3.2-15.9-4.9-26.7-4.9c0,0-0.1,0-0.1,0c-0.5,0-0.9,0-1.3,0c-9.4,0-18.5,2.5-27.2,7.3c-9.1,5.1-16.9,12.8-23,23.1
		c-6.1,10.2-9.3,22-9.4,34.9c-0.2,18.7,5.3,33.2,16.9,44.4c11.7,11.2,25.1,16.8,40.9,17.1c0.7,0,1.3,0,1.9,0c2.3,0,4.6-0.1,6.9-0.3
		c-1-0.7-1.9-1.5-2.8-2.3c-4.5-4.1-7.7-9-9.7-14.7c-8.6-1.4-16.3-5.6-23.1-12.5C110.8,175,106.7,164.1,106.8,151.2z"/>
	<path fill="#CDCCCC" d="M210.7,198.8l-9.9-4.4c-1.9,2.5-4.2,4.6-6.8,6.3c-3.7,2.4-7.8,3.6-12.1,3.6c-5.5,0-10.2-2-14-5.8
		c-3.8-3.8-5.7-9.6-5.7-17.1c0-6.3,1.8-11.5,5.3-15.4c3.6-4,8.5-6.3,14.5-6.3c8.3,0,14.8,3.3,19,11.3h8.9v-20h-7v2.3
		c0,1.5-0.7,2.9-2,3.6c-1.3,0.7-2.9,0.6-4.1-0.3c-5.8-4-11.7-6-18.3-6c-8.3,0-15.3,2.7-21.5,8.4c-6.1,5.5-9.1,13-9.1,22.7
		c0,9.8,3.1,17.3,9.3,23.1c6.3,5.8,15,8.7,25.8,8.7C195.8,213.5,204.9,208.7,210.7,198.8z"/>
	<g>
		<path fill="#5A81B8" d="M147.8,213.4c-0.6,0-1.2,0-1.9,0c-15.8-0.2-29.2-5.8-40.9-17.1c-11.6-11.2-17.2-25.7-16.9-44.4
			c0.1-13,3.3-24.7,9.4-34.9c6.1-10.2,13.9-18,23-23.1c8.7-4.8,17.8-7.3,27.2-7.3c0.4,0,0.9,0,1.3,0c0,0,0.1,0,0.1,0
			c10.8,0,19.7,1.6,26.7,4.9c0,0,0.1,0,0.1,0.1c8.3,3.6,8.2,7.6,8.2,8.9c-0.1,2.9-0.8,5.1-2.1,6.8c-0.7,0.9-1.9,2-4.9,2
			c-2.1-0.1-4.8-0.9-8.2-2.4c0,0-0.1,0-0.1,0c-7.2-2.9-14.4-4.4-21.4-4.4c-10.9,0-20.6,4.7-28.5,13.9c-7.8,9-11.9,20.7-12,34.8
			c-0.1,12.9,4,23.7,12.3,32.2c6.7,6.9,14.5,11.1,23.1,12.5c-1-2.8-1.6-5.7-1.9-8.9c-5.5-1.5-10.5-4.6-15.2-9.4
			c-6.8-7-10-15.6-9.9-26.4c0.1-12,3.5-22,10-29.5c6.4-7.4,13.7-11,22.3-11c5.9,0,12.1,1.3,18.3,3.8c4.4,1.9,8,2.9,11.1,3
			c0.1,0,0.1,0,0.2,0c6.2,0,9.7-2.8,11.5-5.2c2.4-3.1,3.7-7,3.9-11.7c0.1-5-2.1-12-13.2-16.7c-8-3.7-18.1-5.6-30.1-5.6
			c-11.3-0.3-22.3,2.5-32.7,8.3c-10.4,5.8-19.2,14.5-26.1,26c-6.9,11.5-10.5,24.7-10.6,39.1c-0.3,20.8,6.3,37.8,19.5,50.5
			c13.1,12.6,28.8,19.1,46.5,19.4c0.7,0,1.4,0,2,0c6.7,0,13.1-0.8,19.2-2.4c-4.6-1.4-8.7-3.5-12.4-6.2
			C152.4,213.3,150.1,213.4,147.8,213.4z"/>
		<path fill="#5A81B8" d="M220,195.4c-0.4-1-1.2-1.8-2.1-2.3l-12.8-5.6l-4.1-1.8c-1.9-0.8-4.1-0.1-5.1,1.7c-1.6,2.8-3.6,4.9-6.2,6.6
			c-2.5,1.6-5,2.4-7.7,2.4c-3.3,0-6-1.1-8.2-3.4c-2.2-2.3-3.4-6.2-3.4-11.5c0-4.3,1.1-7.6,3.2-10.1c2.1-2.3,4.8-3.4,8.5-3.4
			c6,0,10.1,2.7,12.9,8.9c0.7,1.4,2.1,2.1,3.6,2.1h6.3h9.2c2.2,0,3.8-1.4,3.8-3.6v-27.7c0-2.2-1.6-4.6-3.8-4.6h-14.9
			c-1.8,0-3.3,1.5-3.8,3.1c-5.3-2.6-11-3.7-16.9-3.7c-10.2,0-19.3,3.6-26.9,10.5c-7.8,7-11.7,16.7-11.7,28.7c0,1.9,0.1,3.7,0.3,5.4
			c0.3,3.1,1,6.1,1.9,8.9c2,5.7,5.2,10.6,9.7,14.7c0.9,0.8,1.8,1.6,2.8,2.3c3.6,2.7,7.8,4.8,12.4,6.2c4.8,1.5,10.2,2.2,16,2.2
			c17.4,0,29.8-7.7,36.8-23C220.3,197.5,220.4,196.4,220,195.4z M183.1,213.5c-10.8,0-19.5-2.9-25.8-8.7c-6.3-5.7-9.3-13.3-9.3-23.1
			c0-9.8,3-17.2,9.1-22.7c6.2-5.6,13.3-8.4,21.5-8.4c6.6,0,12.6,2,18.4,6c1.2,0.9,2.7,1,4,0.3c1.3-0.7,2-2.1,2-3.6V151h7v20h-8.9
			c-4.3-8-10.8-11.3-19-11.3c-6,0-10.8,2.1-14.5,6.2c-3.5,3.9-5.3,9.2-5.3,15.5c0,7.5,1.9,13.3,5.7,17.1c3.8,3.9,8.5,5.8,14,5.8
			c4.3,0,8.3-1.2,12.1-3.6c2.6-1.7,4.9-3.8,6.8-6.3l9.9,4.4C204.9,208.7,195.8,213.5,183.1,213.5z"/>
	</g>
</g>
</svg>
