<?xml version="1.0" encoding="utf-8"?>
<!-- Generator: Adobe Illustrator 18.1.1, SVG Export Plug-In . SVG Version: 6.00 Build 0)  -->
<svg version="1.1" id="Layer_1" xmlns="http://www.w3.org/2000/svg" xmlns:xlink="http://www.w3.org/1999/xlink" x="0px" y="0px"
	 viewBox="0 0 300 300" enable-background="new 0 0 300 300" xml:space="preserve">
<g>
	<path fill="#FFFFFF" d="M238.9,133c-5.8-11-14.4-20-24.6-26H161c0.4,0,0.7,1.6,0.7,2.5c0,3-2.5,5.5-5.5,5.5c0,0,0,0,0,0h-6.9
		l-2.1,18H238.9z"/>
	<path fill="#CCCCCC" d="M213.2,96l12.3-30.8c-3.7-0.6-7.9-1-12.6-1c-27.7,0-65,10-78.5,13.8l1.6,6.1h10.8c2.1,0,4.1,1.2,5,3.2
		l4.2,8.8H213.2z"/>
	<path fill="#CCCCCC" d="M139.9,212.1c-0.5-0.4-0.9-0.8-1.4-1.3l-1.6,14.2h9.7c0.2,0,0.4,0,0.7,0H166c-1.3-1-2.4-3.1-3.4-4.7
		C157.7,220.2,147.4,218.9,139.9,212.1z"/>
	<path fill="#CCCCCC" d="M143.5,167.7c4.9-2.4,10.5-2.7,14.5-2.3v-0.7c0-3,2.2-5.7,5.2-5.7H248c-0.8-7-2.6-12-3.9-15H146l-0.8,7.4
		L143.5,167.7z"/>
	<polygon fill="#FFFFFF" points="136.9,126 138.2,115 52.5,115 53.7,126 	"/>
	<polygon fill="#FFFFFF" points="62.8,213 65.6,239 124.3,239 127.2,213 	"/>
	<polygon fill="#CCCCCC" points="43.3,104 46.4,104 144.3,104 147.5,104 143.2,95 47.6,95 	"/>
	<path fill="#FFFFFF" d="M135.6,137H55.1l6.8,65h66.6L135.6,137z M95.4,198.9c-11.9,0-21.3-12.1-21.3-27.5s9.4-27.5,21.3-27.5
		c0.9,0,1.7,0.1,2.6,0.2c10.7,1.6,18.7,13.4,18.7,27.3C116.7,186.8,107.3,198.9,95.4,198.9z"/>
	<path fill="#CCCCCC" d="M92.4,178.6c-2.5-2.2-5.6-4.8-6.8-9.4c-0.1-0.4-0.2-0.8-0.3-1.2c-0.2,1.1-0.2,2.2-0.2,3.4
		c0,8.7,4.7,16.3,10.1,16.5C97.2,182.7,95.6,181.3,92.4,178.6z"/>
	<path fill="#CCCCCC" d="M96.2,166.4c0.3,1.2,1.5,2.2,3.4,3.9c1.8,1.5,4,3.4,5.6,6.2c0.3-1.6,0.5-3.3,0.5-5.1c0-7-2.8-12.4-6.1-14.9
		C97.5,159.4,95.5,163.5,96.2,166.4z"/>
	<path fill="#FFFFFF" d="M146.8,178.5c-2.9,2.2-4.4,6.2-4.4,12.1c0,5.9,1.6,10.3,4.9,13.3c3.2,2.9,7.6,4.2,11.1,4.8
		c-0.3-1.9-0.4-3.8-0.4-5.8v-3.1c-4-1.2-7.3-3.6-7.3-8.3c0-5,3.3-6.9,7.3-7.6v-7.4C155,176,149.9,176.2,146.8,178.5z"/>
	<rect x="169" y="170" fill="#FFFFFF" width="80" height="10"/>
	<path fill="#FFFFFF" d="M249,203v-12h-80v12c0,12,9.5,22,21.5,22h36.3C238.7,225,249,214.9,249,203z"/>
	<path fill="#FFFFFF" d="M190.5,236h-36.6c1.6,3,4.8,5,8.4,5H250c3.6,0,6.8-2,8.4-5h-31.6H190.5z"/>
	<g>
		<path fill="#5980B7" d="M95.4,198.9c11.9,0,21.3-12.1,21.3-27.5c0-13.9-8-25.7-18.7-27.3c-0.9-0.1-1.7-0.2-2.6-0.2
			c-11.9,0-21.3,12.1-21.3,27.5S83.4,198.9,95.4,198.9z M85.1,171.4c0-1.2,0.1-2.3,0.2-3.4c0.1,0.4,0.2,0.8,0.3,1.2
			c1.2,4.6,4.3,7.2,6.8,9.4c3.2,2.8,4.8,4.1,2.8,9.3C89.8,187.7,85.1,180.1,85.1,171.4z M105.1,176.4c-1.6-2.8-3.8-4.7-5.6-6.2
			c-1.9-1.6-3-2.7-3.4-3.9c-0.8-2.9,1.3-6.9,3.4-9.9c3.3,2.5,6.1,7.9,6.1,14.9C105.7,173.1,105.5,174.8,105.1,176.4z"/>
		<path fill="#5980B7" d="M265,225h-13.8c5.1-6,8.7-13.6,8.7-21.9c0,0-0.6-40.5-0.7-40.7c-0.7-15.2-6-25.4-6.8-26.8
			c0-0.1-0.1-0.1-0.1-0.1c0,0,0,0,0,0c-6-14.6-16.1-27.2-28.9-36.3l14.6-36.2c0.6-1.4,0.5-3.1-0.1-4.5c-0.7-1.4-1.9-2.5-3.4-2.9
			c-5.8-1.7-13.1-2.6-21.7-2.6c-35.9,0-84.8,14.9-86.8,15.5c-2.8,0.9-4.5,3.8-3.7,6.7l2.1,7.9h-11c-0.7,0-1.5,0.2-2.2,0.3
			c-0.1,0-0.2-0.1-0.2-0.1c0.6-1.4,1.1-2.9,1.4-4.5c1.2-7.5-3.5-10.5-6.1-12.2c-2-1.3-2.7-1.8-3.1-3.6c-0.2-1,0-1.3,0.1-1.5
			c0.8-1.2,3.2-2.1,4.5-2.4c3-0.5,5-3.4,4.4-6.4c-0.5-3-3.4-5-6.4-4.5c-0.8,0.1-8,1.5-11.7,7c-2,2.9-2.6,6.3-1.8,10
			c1.4,6.4,5.4,9,7.9,10.6c0.4,0.3,0.9,0.6,1.2,0.8c0,0.1,0,0.2,0,0.3c-0.6,4-5.3,5.5-5.4,5.5c-0.6,0.2-1.1,0.6-1.6,0.9
			c-0.2,0.1-0.4,0.6-0.6,0.6h-2.2c0.1,0,0.2-0.4,0.2-0.6c0.7-1.4,1.2-3,1.4-4.7c1.2-7.5-3.5-10.5-6.1-12.2c-2-1.3-2.7-1.8-3.1-3.6
			c-0.2-1,0-1.3,0.1-1.5c0.8-1.2,3.2-2.1,4.5-2.4c3-0.5,5-3.4,4.4-6.4c-0.5-3-3.4-5-6.4-4.5c-0.8,0.1-8,1.5-11.7,7
			c-2,2.9-2.6,6.3-1.8,10c1.4,6.4,5.4,9,7.9,10.6c0.4,0.3,0.9,0.6,1.2,0.8c0,0.1,0,0.2,0,0.3c-0.6,4-5.3,5.5-5.4,5.5
			c-0.6,0.2-1.1,0.6-1.6,0.9C75.4,83.5,75.2,84,75,84H44.1c-2.1,0-4.1,0.9-5,2.8l-9.5,19.9c-0.8,1.7-0.7,4,0.3,5.5
			c1,1.6,2.8,2.8,4.6,2.8h6.9l13.7,130.4c0.3,2.8,2.7,4.6,5.5,4.6h68.5c2.8,0,5.2-2,5.5-4.8l1-9.2h6.6c2,9,10.2,16,19.9,16H250
			c11.3,0,21-9.4,21-20.7v-1.1C271,227.1,268,225,265,225z M248.5,180H169v-10h80v10H248.5z M249,191v12c0,12-10.3,22-22.2,22h-36.3
			c-12,0-21.5-10.1-21.5-22v-12h79.5H249z M238.9,133h-91.7l2-18h6.9c0,0,0,0,0,0c3,0,5.5-2.7,5.5-5.7c0-0.8-0.2-1.3-0.5-2.3h53.1
			C224.6,113,233.1,122,238.9,133z M212.8,64c4.7,0,9,0.6,12.6,1.2L213.2,96H156l-0.2-0.6l-4.2-8.5c-0.9-1.9-2.8-2.9-5-2.9h-10.8
			l-1.6-6.2C147.8,74.1,185.1,64,212.8,64z M43.3,104l4.3-9h95.6l4.3,9h-3.1H46.4H43.3z M52.5,115h85.6l-1.3,11H53.7L52.5,115z
			 M124.3,239H65.6l-2.7-26h64.4L124.3,239z M128.6,202H61.9l-6.8-65h80.5L128.6,202z M136.9,225l1.6-14.2c-0.1-0.2-0.3-0.4-0.4-0.5
			c-4.4-5-6.7-11.6-6.7-19.6c0-9.5,2.9-16.6,8.7-21c1-0.8,2.1-1.4,3.2-2l1.8-16.3l0.8-7.4h98.1c1.3,3,3.1,8,3.9,15h-84.8
			c-3,0-5.2,2.6-5.2,5.7v0.7c-4-0.3-9.6-0.1-14.5,2.3c-1.1,0.5-2.2,1.2-3.3,2c-5.8,4.4-8.8,11.4-8.8,20.9c0,8,2.2,14.6,6.7,19.6
			c0.1,0.2,0.3,0.3,0.4,0.5c0.4,0.5,0.9,0.9,1.4,1.4c7.5,6.9,17.8,8,22.7,8c-0.2-0.3-0.4-0.7-0.6-1c0.2,0.3,0.4,0.8,0.6,1.1
			c1,1.6,2.1,3.7,3.4,4.7H136.9z M158,183.9c-4,0.7-7.3,2.6-7.3,7.6c0,4.7,3.3,7.1,7.3,8.3v3.1c0,1.9,0.1,3.8,0.4,5.7
			c-3.4-0.6-8.1-1.9-11.1-4.7c-3.3-3.1-4.9-7.4-4.9-13.3c0-5.9,1.6-9.9,4.4-12.1c3.1-2.3,8.2-2.5,11.2-2.1V183.9z M250,241h-87.7
			c-3.6,0-6.8-2-8.4-5h36.6h36.3h31.6C256.8,239,253.6,241,250,241z"/>
	</g>
</g>
</svg>
