<?xml version="1.0" encoding="utf-8"?>
<!-- Generator: Adobe Illustrator 18.1.1, SVG Export Plug-In . SVG Version: 6.00 Build 0)  -->
<svg version="1.1" id="Layer_1" xmlns="http://www.w3.org/2000/svg" xmlns:xlink="http://www.w3.org/1999/xlink" x="0px" y="0px"
	 viewBox="0 0 300 300" enable-background="new 0 0 300 300" xml:space="preserve">
<g>
	<path fill="none" d="M54,204v13.9c4-4.4,7-8.9,9.9-13.9H54z"/>
	<path fill="#FFFFFF" d="M244.6,194c0-1.3-0.4-2.9-1.2-4.4c-0.7-1.2-0.6-2.6,0.1-3.8s2-1.8,3.4-1.8h13.2c2.1,0,3.9-1.7,3.9-3.9v-4.6
		c0-2.1-1.6-3.5-3.9-3.5h-43.4c-2.3,0-4.8,1.5-4.8,3.5v4.6c0,0.2,0.3,0.6,0.4,0.9c0.6,0.7,1.1,1.8,1.1,2.8c0,2.2-1.7,4.2-3.9,4.2
		h-10c-1.4,0-2.7,0.5-3.7,1.3c1.9,3.9,3.9,7.7,6.1,11.7h36.4C241.7,201,244.6,197.7,244.6,194z"/>
	<path fill="#CCCCCC" d="M73.6,162.5l4.7,11.7c8.1-21.8,10.8-41.3,11.6-49.6c0-0.6-0.1-1.1-0.1-1.7c0-0.7,0.1-1.4,0.4-2.1
		c0-0.3,0-0.5,0-0.5c0.1-2.7,2.4-4.7,5.1-4.6c1.7,0,3.1,0.3,4,2.3h27l-22-56.4L73.6,162.5z"/>
	<path fill="#FFFFFF" d="M72.9,187.3l-24.5-60.5L27.2,194H44v-21.3c0-2.8,2.2-5,5-5s5,2.2,5,5V194h15.6
		C70.7,192,71.8,189.6,72.9,187.3z"/>
	<path fill="#FFFFFF" d="M192.3,126.5c0-7,5.6-12.5,12.8-12.5h0.2c0-1,0-0.3,0-0.4c0-6.5,5.6-11.6,12.6-11.6h14.3
		c-4-19-20.3-32.2-39.8-32.2c-22.5,0-40.8,18.4-40.8,40.8c0,2.5,0.2,4.4,0.7,7.4h18.1c2.5,0,4.7,1.8,5,4.3c0,0.3,1.4,11.4,5.8,27.4
		c3.6,1,7.3,1.7,11.2,1.7c11.5,0,21.9-5.4,29.3-12.4h-16.7C197.9,139,192.3,133.5,192.3,126.5z"/>
	<path fill="#FFFFFF" d="M54,233.1V248h10.6l-10.3-14.9C54.2,233.2,54,233.1,54,233.1z"/>
	<path fill="#FFFFFF" d="M86.1,209l3.9-9.6v-28.7c-5,17.3-14.6,36.6-28.5,53.9C73.9,223,81.8,215.1,86.1,209z"/>
	<path fill="#FFFFFF" d="M100,210.1l1.6,37.9H135v-16.9c-6-6.6-23-27.9-35-57.9V210.1z"/>
	<rect x="146" y="235" fill="#CCCCCC" width="64" height="12"/>
	<path fill="#FFFFFF" d="M166.2,128h-66c3.6,49,35.4,88,42.5,97h63.1C177.5,187,168.4,142,166.2,128z"/>
	<path fill="#FFFFFF" d="M72.4,241.5l4.9-11.5c-3,1.6-6.4,2.9-10.2,3.7L72.4,241.5z"/>
	<polygon fill="#CCCCCC" points="81.1,246.6 91.6,246.2 90.8,223.8 	"/>
	<path fill="#FFFFFF" d="M218,110c-2.3,0-4.6,1.1-4.6,3.4c0,0.6,0.4,1.6,0.7,2.1c0.8,1.2,0.9,2.9,0.2,4.2c-0.7,1.3-2.1,2.2-3.5,2.2
		h-5.6c-2.7,0-4.8,1.9-4.8,4.5s2.1,4.5,4.8,4.5h66.8c2.7,0,4.8-1.9,4.8-4.5s-2.1-4.5-4.8-4.5H259c-1.5,0-2.8-1-3.5-2.3
		c-0.6-1.1-0.6-2.6-0.1-3.7c0-0.3,0-1,0-1.3c0-0.4,0-0.8-0.1-1.2c0,0,0,0.1,0,0c0-2.4-1.2-3.5-3.5-3.5H218z"/>
	<path fill="#5980B7" d="M234.6,139h37.3c7.2,0,12.8-5.5,12.8-12.5S279,114,271.9,114h-8.6c0-1-0.3-0.6-0.3-0.8c0,0,0-0.1,0-0.1
		c0-6.7-4.5-11.1-11.2-11.1h-9.3c-4.1-24-25-42.2-50-42.2c-28,0-50.8,22.9-50.8,50.8c0,2.5,0.2,4.4,0.5,7.4h-4L109,42.9
		c-0.9-2.2-3-3.6-5.3-3.6c-2.3,0.1-4.4,1.6-5.1,3.9L67.1,146.3l0,0l-14.6-36c-0.8-2-2.7-3.2-4.8-3.1c-2.1,0.1-3.9,1.5-4.6,3.5
		l-27.5,87c-0.5,1.5-0.2,3.1,0.7,4.4c0.9,1.3,2.4,2,4,2H44v0.1v24.5c-4,3.3-8,5.5-12,6.9v-7.9c0-2.8-2.2-5-5-5s-5,2.2-5,5v28
		c0,2.8,2.2,5,5,5s5-2.2,5-5v-9.3c3-1,7-2.8,12-5.7v7v5c0,2.8,2.6,5.3,5.3,5.3h46h45.1h0.9c0.6,0,1.2,0,1.8,0h73.1
		c3,0,4.7-3.1,4.7-6.2v-11.1c0,0.1,0.3,0.3,0.5,0.4c3.1,2.7,6.5,4.9,7.5,6.2v8.3c0,2.8,2.2,5,5,5s5-2.2,5-5v-28c0-2.8-2.2-5-5-5
		s-5,2.2-5,5v6.8c-2-2.2-11-10.1-11-10.1c-4.1-5-7.7-10.3-11.2-15.3h31.6c7.7,0,14.2-6.8,14.2-14.8c0-0.7-0.1-2.2-0.2-2.2h7.7
		c6.7,0,11.9-5.5,11.9-11.9v-4.6c0-6.5-5.2-11.5-11.9-11.5h-43.4c-6.7,0-12.8,5.1-12.8,11.5v4.5h-4.4c-2.6,0-5,0.6-7.1,1.8
		c-3.2-7.3-5.8-14.5-7.9-21.2c2.6,0.4,5.2,0.7,7.9,0.7C210,161.4,225.5,152,234.6,139z M251.8,110c2.4,0,3.5,1.1,3.5,3.5
		c0,0,0,0,0,0c0,0.4,0,0.8,0.1,1.2c0,0.4,0.1,0.9,0,1.3c-0.6,1.1-0.5,2.6,0.1,3.8c0.7,1.3,2.1,2.3,3.5,2.3h12.9
		c2.7,0,4.8,1.9,4.8,4.5s-2.1,4.5-4.8,4.5h-66.8c-2.7,0-4.8-1.9-4.8-4.5s2.1-4.5,4.8-4.5h5.6c1.5,0,2.8-1,3.5-2.3
		c0.7-1.3,0.6-3-0.2-4.2c-0.3-0.5-0.7-1.5-0.7-2.1c0-2.3,2.3-3.4,4.6-3.4H251.8z M49,167.7c-2.8,0-5,2.2-5,5V194H27.2l21.3-67.2
		l24.5,60.5c0,0,0,0.2,0,0.2c-1,2.1-2,3.4-3.1,6.4H54v-21.3C54,169.9,51.8,167.7,49,167.7z M90,199.3l-3.9,9.6
		c-4.3,6.1-12.2,14-24.6,15.6C75.4,207.3,85,187.9,90,170.6V199.3z M90.8,223.8l0.8,22.3l-10.4,0.4L90.8,223.8z M54,217.9v-13.7V204
		h10.2c-0.1,0-0.3,0.1-0.4,0.3C60.9,209,58,213.4,54,217.9z M64.6,248H54v-14.9c0,0,0.2-0.1,0.3-0.1l10.2,14.7l4.5,6.5
		c0,0.1,0.1,0.3,0.2,0.4L64.6,248z M67.1,233.8c3.8-0.9,7.1-2.2,10.2-3.7l-4.9,11.5L67.1,233.8z M73.7,256.8c-0.1,0-0.1,0-0.2,0
		C73.5,256.8,73.6,256.8,73.7,256.8l18.1-0.7L73.7,256.8z M96.9,256c0.8,0,1.5-0.2,2.2-0.6C98.5,255.7,97.7,255.9,96.9,256z
		 M95.4,115.7c-2.7-0.1-5,2-5.1,4.7c0,0,0,0.2,0,0.5c-0.3,0.7-0.4,1.3-0.4,2.1c0,0.6,0,1.1,0.1,1.7c-0.8,8.3-6.8,36.4-11.6,49.6
		l-4.7-11.7l30.9-100.9l22,56.4h-27C98.6,116,97.1,115.7,95.4,115.7z M135,248h-33.4l-1.6-37.9v-36.9c12,30,28.8,51.3,34.6,57.9
		c0.1,0.2,0.4,0.3,0.4,0.4V248z M210,235v12h-64v-12H210z M199.6,188h10c2.2,0,4-1.9,4-4.2c0-1-0.5-2-1.2-2.7
		c-0.1-0.3-0.4-0.8-0.4-1v-4.6c0-2,2.4-3.5,4.8-3.5h43.4c2.3,0,3.9,1.4,3.9,3.5v4.6c0,2.3-1.8,3.9-3.9,3.9h-13.2
		c-1.4,0-2.7,0.6-3.4,1.8s-0.8,2.6-0.1,3.9c0.8,1.5,1.2,3.1,1.2,4.4c0,3.6-2.9,6.9-6.2,6.9H202c-2.2-4-4.2-7.8-6.1-11.7
		C196.9,188.5,198.2,188,199.6,188z M205.8,225h-63.1c-7.1-9-38.9-48-42.5-97h66C168.4,142,177.5,187,205.8,225z M181.3,149.6
		c-4.4-16-5.8-27.1-5.8-27.3c-0.3-2.5-2.4-4.3-5-4.3h-18.1c-0.4-3-0.7-5-0.7-7.5c0-22.5,18.3-40.7,40.8-40.7
		c19.5,0,35.8,13.1,39.8,32.1H218c-7.1,0-12.6,5.1-12.6,11.6c0,0.1,0-0.6,0,0.4h-0.2c-7.2,0-12.8,5.5-12.8,12.5s5.6,12.5,12.8,12.5
		h16.7c-7.4,7-17.8,12.3-29.3,12.3C188.6,151.3,184.8,150.6,181.3,149.6z"/>
</g>
</svg>
