<?xml version="1.0" encoding="utf-8"?>
<!-- Generator: Adobe Illustrator 18.1.1, SVG Export Plug-In . SVG Version: 6.00 Build 0)  -->
<svg version="1.1" id="Layer_1" xmlns="http://www.w3.org/2000/svg" xmlns:xlink="http://www.w3.org/1999/xlink" x="0px" y="0px"
	 viewBox="0 0 300 300" enable-background="new 0 0 300 300" xml:space="preserve">
<g>
	<path fill="#CCCCCC" d="M148.6,111.7c0,3-2.4,5.3-5.4,5.3H143c-3,0-5.5-2.3-5.5-5.3c-0.1-24.2-17.9-41.8-42.1-41.8
		c-1.5,0-3,0.1-4.5,0.2l0,24.4l24.5,0c3,0,5.5,2.5,5.5,5.5l0,37c0,1.5-0.6,2.6-1.6,3.6c-1,1-2.4,1.3-3.9,1.3c0,0,0,0,0,0l-24.5,0.2
		l0,20.4c0,3-2.5,5.4-5.5,5.4c0,0,0,0,0,0l-9.8,0.2c23.2,31,57.5,54.3,67.4,60.7c7.9-5.1,31.2-20.8,52.1-42.7l-9-42.2l-9.2,25.7
		c-0.8,2.2-2.9,3.4-5.2,3.4c0,0,0,0,0,0l-17.9,0.3c-3,0-5.5-2.6-5.5-5.6c0-3,2.5-5.6,5.5-5.6c0,0,0,0,0,0l14,0.3l14.4-40.6
		c0.8-2.3,3.1-3.7,5.5-3.6c2.5,0.2,4.5,2,5,4.4l11.4,53.6c0.4-0.5,0.9-1,1.3-1.5l15.2-93c-7.4-7.3-17.8-11.6-29.8-11.6
		C166.4,69.9,148.7,87.4,148.6,111.7z"/>
	<path fill="#FFFFFF" d="M79.7,157.5l0-20.7c0-3,2.5-5.7,5.5-5.7c0,0,0,0,0,0l24.5,0.3l0-25.9l-24.5,0c-1.5,0-2.9-0.6-3.9-1.6
		s-1.6-2.4-1.6-3.9l0-25.5l-27,0l0,25.3c0,3-2.5,5.3-5.5,5.3c0,0,0,0,0,0l-19.5,0.2l0,26.1l19.5,0.1c1.5,0,2.9,0.6,3.9,1.6
		s1.6,2.4,1.6,3.9l0,20.5L79.7,157.5z"/>
	<path fill="#5980B7" d="M277.7,147.7l-5.5,0l-2.7,0l-11.8-37.9c-0.7-2.4-2.9-3.9-5.4-3.9c-2.5,0.1-4.6,1.7-5.2,4.1l-6,24.1
		L233,76.7l-0.3-2.6c-0.4-2.7-2.7-5.1-5.4-5.1c0,0,0,0-0.1,0c-1.1,0-2.1,0.5-2.9,1.1c-9-7.1-20.6-11.2-33.5-11.2
		c-21.4,0-39.2,11.6-47.8,29.1c-8.5-17.5-26.3-29-47.8-29c-7.9,0-15.3,1.4-21.9,4.3l-26-0.2c0,0,0,0,0,0c-3,0-5.5,2.6-5.5,5.7
		l0,25.5L22.3,94c0,0,0,0,0,0c-1.5,0-2.9,0.8-3.9,1.8c-1,1-1.6,2.6-1.6,4l0,37c0,3,2.5,5.5,5.5,5.5l19.5,0l0,20.5
		c0,1.5,0.6,2.8,1.6,3.9s2.4,1.6,3.9,1.6l14.4,0c7.8,11.5,17.8,23.1,30.1,34.7c23.9,22.6,47.4,36.5,48.4,37.1
		c0.9,0.5,1.8,0.8,2.8,0.8c1,0,1.9-0.3,2.8-0.8c1-0.6,24.4-14.7,48.4-37.3c1.2-1.2,2.4-2.3,3.6-3.5l2.2,10.4
		c0.5,2.2,2.1,3.8,4.2,4.2c0.4,0.1,0.8,0.1,1.2,0.1c0,0,0.1,0,0.1,0c2.6-0.1,4.9-2,5.3-4.6l16-97.8l7.3,52c0.4,2.6,2.5,4.6,5.2,4.7
		c2.6,0.1,5-1.6,5.6-4.2l8.1-32.5l7.2,23c0.5,1.4,1.5,2.6,2.7,3.2c0.8,0.4,1.6,0.4,2.5,0.4l12.3-0.3c0,0,0,0,0,0
		c3,0,5.5-2.1,5.5-5.1C283.2,149.8,280.8,147.7,277.7,147.7z M52.7,157.5l0-20.5c0-1.5-0.6-2.9-1.6-3.9s-2.4-1.6-3.9-1.6l-19.5,0
		l0-26.2l19.5-0.2c0,0,0,0,0,0c3,0,5.5-2.2,5.5-5.3l0-25.3l27,0.1l0,25.5c0,1.5,0.6,2.9,1.6,3.9s2.4,1.6,3.9,1.6l24.5,0l0,25.8
		L85.3,131c0,0,0,0,0,0c-3,0-5.5,2.7-5.5,5.7l0,20.7L52.7,157.5z M205.3,174.6c-0.4,0.5-0.8,1-1.3,1.5l-11.4-53.6
		c-0.5-2.4-2.6-4.2-5-4.4c-2.5-0.2-4.7,1.3-5.5,3.6l-14.4,40.5l-14-0.3c0,0,0,0,0,0c-3,0-5.5,2.7-5.5,5.7c0,3,2.5,5.5,5.5,5.5
		l17.9-0.2c0,0,0,0,0,0c2.3,0,4.4-1.2,5.2-3.4l9.2-25.7l9,42.3c-20.9,21.9-44.2,37.6-52.1,42.7c-10-6.4-44.3-29.7-67.4-60.8l9.8-0.1
		c0,0,0,0,0,0c3,0,5.5-2.3,5.5-5.3l0-20.5l24.5-0.2c0,0,0,0,0,0c1.5,0,2.9-0.3,3.9-1.3c1-1,1.6-2.2,1.6-3.7l0-37
		c0-3-2.5-5.5-5.5-5.5l-24.5,0l0-24.3c1.5-0.1,3-0.2,4.5-0.2c24.3,0,42,17.5,42.1,41.7c0,3,2.5,5.3,5.5,5.3h0.2c3,0,5.4-2.3,5.4-5.3
		c0.2-24.3,17.9-41.8,42.2-41.8c12,0,22.4,4.3,29.8,11.6L205.3,174.6z"/>
</g>
</svg>
