<?xml version="1.0" encoding="utf-8"?>
<!-- Generator: Adobe Illustrator 18.1.1, SVG Export Plug-In . SVG Version: 6.00 Build 0)  -->
<svg version="1.1" id="Layer_1" xmlns="http://www.w3.org/2000/svg" xmlns:xlink="http://www.w3.org/1999/xlink" x="0px" y="0px"
	 viewBox="0 0 300 300" enable-background="new 0 0 300 300" xml:space="preserve">
<g>
	<path fill="none" d="M227.9,182.1c1,0.7,1.9,1.5,2.9,2.2l5.5-3.9c-1.4-4.4-1.2-9.1,0.3-13.3c-3.3,2.5-6.9,4.7-10.6,6.6
		C226.9,176.3,227.6,179.2,227.9,182.1z"/>
	<path fill="#CCCCCC" d="M165.1,111.4l-12-0.3c1.2,4.6,2.8,9.1,4.7,13.4c1.4,2.8,4.6,7.2,8.3,11.8l0.6,0L165.1,111.4z"/>
	<path fill="#CCCCCC" d="M162.7,75c-4.5,8.2-9.4,17.3-12,22.4c0.1,0.9,0.2,1.7,0.3,2.6l13.4,0.3L162.7,75z"/>
	<path fill="#CCCCCC" d="M250.4,130.4c1.4-2.4,2.8-4.9,4.1-7.2c-0.1,0-0.2,0-0.2,0c-5.3,0-11.6-1-18.4-2.9c0.5,0.7,0.9,1.4,1.3,2.1
		C242.6,123.2,247.3,126.2,250.4,130.4z"/>
	<path fill="#CCCCCC" d="M176.1,111.7l1.6,24.5l21.2-0.3c-1-4.6-0.4-9.5,2-13.9c1.2-2.3,2.9-4.3,4.8-5.9l0-3.7L176.1,111.7z"/>
	<path fill="#CCCCCC" d="M195.1,101.1c-8-5.2-15.1-10.9-20.7-16.5l1.1,16L195.1,101.1z"/>
	<path fill="#CCCCCC" d="M197.8,150.7l2.6-3.6l-21.9,0.3l0.2,3.7c0.5,0.6,1,1.1,1.4,1.6c3.3-1.3,6.9-2,10.7-2.2
		C193.2,150.3,195.5,150.4,197.8,150.7z"/>
	<path fill="#FFFFFF" d="M215,98.9c14.7,7.6,29.4,12.3,39.3,12.3c4.5,0,7.1-1,7.7-2c0.8-1.5-0.3-6.4-6.9-13.9
		C248,87,237,78.5,224.2,71.3c-16.2-9.2-33.2-14.9-44.2-14.9c-4.5,0-7.1,1-7.7,2c-0.8,1.5,0.3,6.4,6.9,13.9
		c7.1,8.2,18.1,16.7,30.8,23.9c0.7,0.4,1.3,0.7,2,1.1C213.2,97.5,214.2,98.1,215,98.9z M207.7,76.7c1.1-1.9,6.7-0.8,12.5,2.5
		c5.8,3.3,9.7,7.5,8.6,9.4c-1.1,1.9-6.7,0.8-12.5-2.5S206.6,78.6,207.7,76.7z"/>
	<path fill="#FFFFFF" d="M148.1,40.8c0.2-0.3,0.6-1,0-2.6c-0.1-0.3-0.3-0.9-2.6-0.9c-2.5,0-5.3,0.9-6.2,1.2c-2.8,1-5.9-0.3-7-3
		c-1.3-2.9-4-6.5-5.5-6.5c-0.4,0-1,0.3-1.6,0.8c-0.4,0.3-0.5,0.6-0.6,1.1c-0.2,2.6,2.5,7,4.9,9.9c0.7,0.1,1.3,0.1,2,0.2
		c3.5,0.6,6.8,1.9,9.6,3.8C144,44,147.1,42.5,148.1,40.8z"/>
	<path fill="#FFFFFF" d="M147.8,129.3c0-0.1-0.1-0.1-0.1-0.2c-8.3-18.2-10.5-38.8-6.8-61.2c0.6-3.6-0.2-7.3-2.4-10.3
		c-2.1-3-5.3-5-9-5.6c-0.8-0.1-1.5-0.2-2.3-0.2c-6.8,0-12.5,4.9-13.6,11.6c0,0.2-0.1,0.5-0.2,1c-0.3,1.5-0.8,4.4-1.4,8
		c0.3,1.1,0.6,2.2,0.8,3.3c3.3,20.2,11,37,23.1,50c3,3,10.2,7.7,17.4,12.1C150.9,134.5,149,131.6,147.8,129.3z"/>
	<path fill="#FFFFFF" d="M100.1,49.5c0.1-0.4,0.2-1.1-0.8-2.5c-0.2-0.3-0.3-0.4-0.9-0.4c-2.1,0-5.7,2.1-7.4,3.5
		c-2.3,1.9-5.7,1.6-7.6-0.6c-1.7-1.8-5-4.4-6.9-4.4c-0.2,0-0.8,0-1.6,1.4c-0.3,0.4-0.3,0.7-0.2,1.2c0.6,2.5,4.6,5.9,7.8,7.9
		c0.6-0.2,1.3-0.3,2-0.4c1.3-0.2,2.6-0.3,4-0.3c2.2,0,4.3,0.3,6.4,0.8C97.3,53.8,99.7,51.5,100.1,49.5z"/>
	<path fill="#FFFFFF" d="M169.3,159.2c-0.6-0.4-1.3-0.7-1.9-0.9c-2.4-0.9-31.2-16.7-39.3-24.8c0,0-0.1-0.1-0.1-0.1
		c-13.6-14.6-22.4-33.4-26-55.8c-1.1-6.7-6.8-11.6-13.6-11.6c-0.7,0-1.5,0.1-2.2,0.2c-3.6,0.6-6.8,2.6-9,5.6c-2.2,3-3,6.6-2.4,10.3
		c0,0.2,0.1,0.5,0.1,1c0.4,3,1.6,12.3,4.1,20.5c1.2,4.2,2.7,8.3,4.4,12.2c12,1.5,19.5,3.9,24.2,7.8c5.5,4.6,6.1,10.3,6.6,15
		c0.7,6.8,1.3,12.7,17.3,19.4c5.9,2.5,13.6,4.1,21.8,5.9c3.4,0.7,6.8,1.5,10.1,2.3C165.1,163.5,167.1,161.2,169.3,159.2z"/>
	<path fill="#FFFFFF" d="M36.7,237.9c9.8,11.3,29.6,18.7,54.4,20.6c0-4.1,1.1-8.1,3.3-11.8c-27.7-1.2-50.3-8.4-63.5-20.4
		C32.6,231.2,34.6,235.4,36.7,237.9z"/>
	<path fill="#FFFFFF" d="M127.2,168c-20.4-8.5-23-18.3-24-28.5c-0.7-6.9-1.1-11-24.7-13.4c-1.5-0.2-3.1-0.2-4.6-0.2
		c-18.7,0-35.1,11.7-44,31.4c-9.3,20.7-7.1,43.5,5.6,58c11.3,12.9,36.4,20.7,66.9,20.7c0,0,0,0,0,0c0.5,0,0.9-0.1,1.4-0.1
		c-0.1-2.4,0-4.7,0.2-7c-26-0.3-48.9-6.8-58.7-16.6c-14-14-18.2-35-10.6-53.4c7-16.9,22.5-27.5,40.5-27.5c1.2,0,2.4,0,3.5,0.1
		c16.8,1.2,20.7,10.2,24.1,18.2c3.1,7.2,6.3,14.6,20,20.1c4.9,2,11.6,3.8,18.7,5.7c0.2,0.1,0.4,0.1,0.6,0.2c1.5-0.8,3-1.5,4.5-2.1
		C139.5,172,132.8,170.4,127.2,168z"/>
	<path fill="#CCCCCC" d="M118.7,180c-17.8-7.2-22.5-18-25.9-25.9c-3.1-7.2-4.7-10.9-14.8-11.6c-0.9-0.1-1.9-0.1-2.8-0.1
		c-13.7,0-25,7.7-30.3,20.6c-5.9,14.3-2.7,30.6,8.2,41.4c7.8,7.7,30,13.3,53,13.4c3-10.6,9-20.5,17.6-28.9c1.9-1.8,3.9-3.6,6-5.2
		C125.6,182.5,121.8,181.3,118.7,180z M97.1,185.8c-3.6,7.2-11.4,11.7-20.4,11.7c-4.3,0-8.7-1.1-12.8-3.1
		c-12.7-6.4-18.5-20.6-12.9-31.7c3.6-7.2,11.4-11.7,20.4-11.7c4.3,0,8.7,1.1,12.8,3.1C96.9,160.4,102.7,174.6,97.1,185.8z"/>
	<path fill="#FFFFFF" d="M79.3,163.9c-2.5-1.2-5.2-1.9-7.8-1.9c-4.8,0-8.8,2.1-10.5,5.7c-2.9,5.7,0.7,13.3,8,17
		c2.5,1.2,5.2,1.9,7.8,1.9c4.8,0,8.8-2.1,10.5-5.7C90.1,175.1,86.5,167.5,79.3,163.9z M80,176.7c-1,2-4.5,2.3-7.9,0.6
		c-3.3-1.7-5.2-4.7-4.2-6.7c1-2,4.5-2.3,7.9-0.6C79.1,171.7,81,174.7,80,176.7z"/>
	<path fill="#FFFFFF" d="M216.4,159.5l5.5-7.7c1.8-2.5,5.2-3.2,7.8-1.7c1.4,0.8,3,1.2,4.6,1.1c2.3-0.1,4.4-1.1,5.9-2.8
		s2.3-3.9,2.2-6.1c-0.3-4.6-4.2-8.3-8.8-8c-0.1,0-0.2,0-0.2,0c-2.9,0.2-5.5-1.7-6.2-4.5c-0.6-2.3-2.1-4.3-4.2-5.4
		c-1.3-0.7-2.6-1-4-1c-3.1,0-6,1.7-7.5,4.5c-2,3.7-0.9,8.4,2.4,10.8c2.6,1.9,3.2,5.6,1.3,8.3l-5.6,7.9
		C212.1,156,214.4,157.6,216.4,159.5z"/>
	<path fill="#FFFFFF" d="M192.8,162.5c-0.4,0-0.9,0-1.3,0c-4.5,0.2-8.7,1.8-12.2,4.2c0.3,0,0.5,0,0.8,0c11.6,0,22.5,2.3,32.3,6.5
		C208.2,166.7,201,162.5,192.8,162.5z"/>
	<path fill="#FFFFFF" d="M213.3,252C213.3,252,213.3,252,213.3,252c-3.3,0-6.6-0.4-9.8-1.3c-9.1-2.6-16.6-8.6-21.2-16.9
		c-4.6-8.3-5.6-17.8-3-26.9c3.4-11.9,12.9-20.9,24.4-24.2c-7.3-2.5-15.2-4-23.5-4c-1.3,0-2.7,0-4,0.1c-17,0.9-32.7,7.5-44.1,18.6
		c-11.2,10.9-16.9,24.8-16.2,39.1c0,0.9,0.1,1.8,0.2,2.7c0.3,2.4-0.9,4.7-3,5.9c-6.5,3.7-10.2,8.8-9.9,13.8c0.3,6,8,9,22.7,9
		c2.1,0,4.4-0.1,6.8-0.2c3.1-0.2,6-0.4,8.6-0.8c0.3,0,0.5,0,0.8,0c0.5,0,1,0.1,1.5,0.2c9.8,2.5,22.4,3.3,37.6,2.5
		c48.1-2.6,59.3-18.2,61.1-32.4C235.5,246.2,224.8,252,213.3,252z"/>
	<path fill="#FFFFFF" d="M244.2,199.6l7.8-5.5c2.5-1.8,5.9-1.4,8,0.9c1.1,1.2,2.5,2.1,4,2.5c0.8,0.2,1.6,0.3,2.4,0.3
		c3.8,0,7.1-2.5,8.2-6.2c0.6-2.2,0.4-4.5-0.7-6.5c-1.1-1.9-2.8-3.4-5-4c-0.1,0-0.1,0-0.2,0c-2.8-0.8-4.6-3.4-4.4-6.3
		c0.2-2.4-0.6-4.7-2.2-6.5c-1.6-1.8-3.9-2.8-6.3-2.8c-2.1,0-4.2,0.8-5.8,2.2c-3.1,2.8-3.6,7.6-1.3,11c1.8,2.7,1.2,6.4-1.5,8.3
		l-7.9,5.6C241.3,194.9,242.9,197.2,244.2,199.6C244.2,199.6,244.2,199.6,244.2,199.6z"/>
	<path fill="#FFFFFF" d="M235.7,223.2c1.7-6,1-12.3-2-17.8s-8-9.4-14-11.2c-2.1-0.6-4.3-0.9-6.5-0.9c-10.3,0-19.6,7-22.4,16.9
		c-1.7,6-1,12.3,2,17.8s8,9.4,14,11.2c2.1,0.6,4.3,0.9,6.5,0.9C223.6,240.1,232.8,233.1,235.7,223.2z"/>
	<g>
		
			<ellipse transform="matrix(-0.4925 0.8703 -0.8703 -0.4925 397.6801 -66.5005)" fill="#5980B7" cx="218.2" cy="82.7" rx="4" ry="12.1"/>
		<path fill="#5980B7" d="M84.2,154c-4-2-8.4-3.1-12.8-3.1c-8.9,0-16.8,4.5-20.4,11.7c-5.6,11.1,0.2,25.4,12.9,31.7
			c4,2,8.4,3.1,12.8,3.1c8.9,0,16.8-4.5,20.4-11.7C102.7,174.6,96.9,160.4,84.2,154z M87.3,180.8c-1.8,3.5-5.7,5.7-10.5,5.7
			c-2.6,0-5.3-0.7-7.8-1.9c-7.3-3.6-10.9-11.3-8-17c1.8-3.5,5.7-5.7,10.5-5.7c2.6,0,5.3,0.7,7.8,1.9
			C86.5,167.5,90.1,175.1,87.3,180.8z"/>
		
			<ellipse transform="matrix(0.4478 -0.8942 0.8942 0.4478 -114.4655 162.0602)" fill="#5980B7" cx="74" cy="173.7" rx="4" ry="6.8"/>
		<path fill="#5980B7" d="M284.3,179.5c-1.9-3.5-4.8-6.3-8.2-8.1c-0.6-4.1-2.4-7.9-5.2-11c-3.9-4.2-9.4-6.6-15.1-6.6
			c-1.7,0-3.4,0.2-5.1,0.7c1.8-2.5,3-5.4,3.5-8.5c0.2-0.4,0.5-0.8,0.7-1.2c0.7-0.7,1.2-1.6,1.5-2.5c4.8-8.4,10.9-19.1,13.9-24.3
			c1-1,1.7-2,2.2-2.9c2.8-5,3.7-13.9-8.3-27.7c-8-9.2-20.1-18.6-34-26.5c-18.2-10.3-36.9-16.5-50.1-16.5c-11.2,0-16,4.4-18.1,8.1
			c-0.6,1-1.1,2.2-1.4,3.5c-2,3.7-5.6,10.1-9.2,16.8c0.1-1,0.3-2,0.5-3.1c0.9-5.6-0.1-11.2-2.8-16.1c3.3-1.6,6.5-3.9,8.5-7.2
			c2.2-3.6,2.5-7.7,1-12c-1.9-5.2-6.6-8.2-13-8.2c-1.9,0-3.8,0.3-5.5,0.6c-2.5-3.9-7-8.8-13.3-8.8c-3,0-5.9,1.1-8.6,3.3
			c-2.8,2.2-4.4,5.3-4.6,8.8c-0.3,4.5,1.6,9.1,3.8,12.7c-2.3,1-4.5,2.4-6.3,4c-0.4-2.4-1.4-4.6-3-6.7c-2.4-3-5.7-4.6-9.5-4.6
			c-3.8,0-7.6,1.7-10.4,3.3c-2.8-2.3-7-4.7-11.6-4.7c-4.4,0-8.3,2.3-10.9,6.5c-1.9,3-2.4,6.4-1.6,9.8c1.1,4.4,4.5,8.1,7.7,10.8
			c-1.3,1.1-2.4,2.4-3.4,3.9c-3.9,5.4-5.4,11.9-4.4,18.5c0,0.1,0.1,0.4,0.1,0.8c0.4,3.2,1.8,13.1,4.4,22.2c0.9,2.9,1.8,5.7,2.8,8.5
			c-21.7,1.1-41.3,15.3-51.4,37.8c-5.4,11.9-7.5,24.4-6.4,36.1c0.1,14.6,5,44.4,15,56c12.4,14.4,36.2,23.1,66.2,24.6
			c1.8,2.5,4.6,4.8,8.7,6.6c6.9,3,16.6,4.2,30,3.4c2.9-0.2,5.7-0.4,8.3-0.7c8.1,1.9,17.7,2.9,28.5,2.9c3.6,0,7.5-0.1,11.5-0.3
			c22.5-1.2,39.2-5.2,51.2-12.2c15.2-8.9,22.4-22.5,21.4-40.3c-0.4-6.6-1.8-12.9-4.2-18.8l5.1-3.6c1.7,1.1,3.5,2,5.5,2.5
			c1.9,0.5,3.8,0.8,5.7,0.8c9.1,0,17.2-6.1,19.7-14.8C287.6,189.8,287,184.3,284.3,179.5z M79,103.4c-2.4-8.2-3.7-17.5-4.1-20.5
			c-0.1-0.5-0.1-0.9-0.1-1c-0.6-3.6,0.3-7.3,2.4-10.3c2.2-3,5.4-5,9-5.6c0.7-0.1,1.5-0.2,2.2-0.2c6.8,0,12.5,4.9,13.6,11.6
			c3.6,22.4,12.4,41.2,26,55.8c0,0,0.1,0.1,0.1,0.1c8.1,8.1,36.8,23.9,39.3,24.8c0.7,0.3,1.3,0.6,1.9,0.9c-2.3,2-4.3,4.3-6,6.8
			c-3.3-0.8-6.7-1.5-10.1-2.3c-8.2-1.8-16-3.4-21.8-5.9c-16-6.7-16.6-12.6-17.3-19.4c-0.5-4.6-1-10.4-6.6-15
			c-4.7-3.9-12.2-6.3-24.2-7.8C81.7,111.7,80.2,107.6,79,103.4z M236.3,180.4l-5.5,3.9c-0.9-0.8-1.9-1.5-2.9-2.2
			c-0.3-2.9-1-5.8-2-8.4c3.8-1.8,7.3-4,10.6-6.6C235.1,171.3,234.9,176,236.3,180.4z M234.4,151.1c-1.6,0.1-3.2-0.3-4.6-1.1
			c-2.7-1.5-6-0.8-7.8,1.7l-5.5,7.7c-2-1.8-4.3-3.4-6.7-4.8l5.6-7.9c1.9-2.7,1.3-6.3-1.3-8.3c-3.4-2.5-4.4-7.2-2.4-10.8
			c1.5-2.8,4.4-4.5,7.5-4.5c1.4,0,2.8,0.3,4,1c2.1,1.1,3.6,3,4.2,5.4c0.7,2.8,3.3,4.7,6.2,4.5c0.1,0,0.2,0,0.2,0
			c4.7-0.2,8.6,3.4,8.8,8c0.1,2.3-0.6,4.5-2.2,6.1S236.7,151,234.4,151.1z M200.9,122c-2.3,4.4-2.9,9.3-2,13.9l-21.2,0.3l-1.6-24.5
			l29.5,0.7l0,3.7C203.8,117.7,202.1,119.7,200.9,122z M175.4,100.6l-1.1-16c5.7,5.7,12.8,11.3,20.7,16.5L175.4,100.6z M178.5,147.4
			l21.9-0.3l-2.6,3.6c-2.3-0.3-4.6-0.4-7-0.3c-3.7,0.2-7.3,1-10.7,2.2c-0.5-0.5-0.9-1-1.4-1.6L178.5,147.4z M166.7,136.3l-0.6,0
			c-3.7-4.6-6.9-9-8.3-11.8c-1.9-4.3-3.5-8.8-4.7-13.4l12,0.3L166.7,136.3z M191.5,162.5c0.4,0,0.9,0,1.3,0
			c8.2,0,15.5,4.3,19.7,10.8c-9.8-4.2-20.7-6.5-32.3-6.5c-0.3,0-0.5,0-0.8,0C182.8,164.3,186.9,162.7,191.5,162.5z M219.7,194.2
			c6,1.7,11,5.7,14,11.2s3.7,11.8,2,17.8c-2.9,10-12.1,16.9-22.4,16.9c-2.2,0-4.4-0.3-6.5-0.9c-6-1.7-11-5.7-14-11.2
			s-3.7-11.8-2-17.8c2.9-10,12.1-16.9,22.4-16.9C215.4,193.3,217.6,193.6,219.7,194.2z M250.4,130.4c-3.1-4.2-7.8-7.2-13.2-8
			c-0.4-0.7-0.8-1.4-1.3-2.1c6.8,1.9,13.1,2.9,18.4,2.9c0.1,0,0.2,0,0.2,0C253.2,125.5,251.8,128,250.4,130.4z M172.4,58.4
			c0.6-1,3.2-2,7.7-2c11,0,27.9,5.7,44.2,14.9C237,78.5,248,87,255.1,95.2c6.6,7.5,7.7,12.4,6.9,13.9c-0.6,1-3.2,2-7.7,2
			c-9.9,0-24.6-4.6-39.3-12.3c-0.8-0.8-1.8-1.3-2.9-1.5c-0.7-0.4-1.3-0.7-2-1.1c-12.8-7.2-23.7-15.7-30.8-23.9
			C172.7,64.8,171.6,59.9,172.4,58.4z M162.7,75l1.7,25.4L151,100c-0.1-0.9-0.2-1.7-0.3-2.6C153.3,92.3,158.2,83.2,162.7,75z
			 M124.5,31c0-0.5,0.2-0.8,0.6-1.1c0.7-0.5,1.3-0.8,1.6-0.8c1.5,0,4.3,3.5,5.5,6.5c1.2,2.7,4.3,4,7,3c0.9-0.3,3.7-1.2,6.2-1.2
			c2.3,0,2.5,0.6,2.6,0.9c0.6,1.6,0.2,2.2,0,2.6c-1,1.7-4.1,3.2-7.1,4.2c-2.9-1.9-6.1-3.2-9.6-3.8c-0.7-0.1-1.3-0.2-2-0.2
			C127.1,38,124.4,33.6,124.5,31z M113.5,64.4c0.1-0.5,0.2-0.9,0.2-1c1.1-6.7,6.8-11.6,13.6-11.6c0.8,0,1.5,0.1,2.3,0.2
			c3.6,0.6,6.8,2.6,9,5.6c2.1,3,3,6.7,2.4,10.3c-3.7,22.4-1.4,43,6.8,61.2c0,0.1,0,0.1,0.1,0.2c1.1,2.3,3.1,5.2,5.5,8.5
			c-7.1-4.3-14.3-9-17.4-12.1c-12.1-13-19.8-29.8-23.1-50c-0.2-1.1-0.5-2.2-0.8-3.3C112.6,68.8,113.2,65.9,113.5,64.4z M74.7,47.7
			c-0.1-0.5-0.1-0.8,0.2-1.2c0.9-1.4,1.4-1.4,1.6-1.4c1.9,0,5.3,2.6,6.9,4.4c2,2.2,5.3,2.5,7.6,0.6c1.7-1.4,5.3-3.5,7.4-3.5
			c0.6,0,0.7,0.1,0.9,0.4c1,1.3,0.9,2.1,0.8,2.5c-0.4,2-2.8,4.3-5.4,6.2c-2-0.5-4.2-0.8-6.4-0.8c-1.3,0-2.7,0.1-4,0.3
			c-0.7,0.1-1.3,0.2-2,0.4C79.3,53.6,75.3,50.2,74.7,47.7z M29.8,157.4c8.9-19.7,25.3-31.4,44-31.4c1.5,0,3,0.1,4.6,0.2
			c23.6,2.3,24,6.5,24.7,13.4c1,10.1,3.6,19.9,24,28.5c5.7,2.4,12.3,4,19.4,5.5c-1.5,0.7-3,1.4-4.5,2.1c-0.2-0.1-0.4-0.1-0.6-0.2
			c-7.1-1.9-13.8-3.8-18.7-5.7c-13.7-5.5-16.9-12.9-20-20.1c-3.4-8-7.4-17-24.1-18.2c-1.2-0.1-2.4-0.1-3.5-0.1
			c-18,0-33.5,10.5-40.5,27.5c-7.6,18.4-3.5,39.4,10.6,53.4c9.8,9.8,32.7,16.3,58.7,16.6c-0.2,2.3-0.3,4.7-0.2,7.1
			c-0.5,0-0.9,0.1-1.4,0.1c0,0,0,0,0,0c-30.6,0-55.6-7.8-66.9-20.7C22.7,200.9,20.5,178.1,29.8,157.4z M129.6,183.6
			c-2.1,1.6-4.1,3.4-6,5.2c-8.6,8.4-14.6,18.3-17.6,28.9c-22.9,0-45.2-5.6-53-13.4c-10.9-10.8-14.1-27.1-8.2-41.4
			c5.3-12.9,16.7-20.6,30.3-20.6c0.9,0,1.8,0,2.8,0.1c10.1,0.7,11.7,4.4,14.8,11.6c3.4,7.9,8.1,18.7,25.9,25.9
			C121.8,181.3,125.6,182.5,129.6,183.6z M36.7,237.9c-2.2-2.5-4.1-6.7-5.8-11.7c13.3,12,35.8,19.3,63.5,20.4
			c-2.2,3.7-3.4,7.7-3.3,11.8C66.3,256.6,46.5,249.2,36.7,237.9z M181,269.6c-15.2,0.8-27.7,0-37.6-2.5c-0.5-0.1-1-0.2-1.5-0.2
			c-0.3,0-0.5,0-0.8,0c-2.6,0.3-5.5,0.6-8.6,0.8c-2.4,0.1-4.7,0.2-6.8,0.2c-14.7,0-22.4-3-22.7-9c-0.3-4.9,3.4-10.1,9.9-13.8
			c2.1-1.2,3.3-3.5,3-5.9c-0.1-0.9-0.2-1.8-0.2-2.7c-0.8-14.4,5-28.2,16.2-39.1c11.4-11.1,27.1-17.7,44.1-18.6
			c1.3-0.1,2.7-0.1,4-0.1c8.3,0,16.3,1.4,23.5,4c-11.5,3.3-21,12.3-24.4,24.2c-2.6,9.1-1.5,18.6,3,26.9c4.6,8.3,12.1,14.3,21.2,16.9
			c3.2,0.9,6.5,1.3,9.8,1.3c0,0,0,0,0,0c11.6,0,22.2-5.8,28.8-14.8C240.3,251.4,229.1,267,181,269.6z M274.5,191.8
			c-1,3.6-4.4,6.2-8.2,6.2c-0.8,0-1.6-0.1-2.4-0.3c-1.5-0.4-2.9-1.3-4-2.5c-2-2.3-5.5-2.7-8-0.9l-7.8,5.5c0,0,0,0,0,0
			c-1.3-2.4-3-4.7-4.8-6.7l7.9-5.6c2.7-1.9,3.3-5.6,1.5-8.3c-2.4-3.5-1.8-8.2,1.3-11c1.6-1.4,3.6-2.2,5.8-2.2c2.4,0,4.6,1,6.3,2.8
			c1.6,1.8,2.4,4.1,2.2,6.5c-0.2,2.9,1.6,5.5,4.4,6.3c0.1,0,0.1,0,0.2,0c2.1,0.7,3.9,2.1,5,4C274.9,187.3,275.2,189.6,274.5,191.8z"
			/>
	</g>
</g>
</svg>
