<?xml version="1.0" encoding="utf-8"?>
<!-- Generator: Adobe Illustrator 18.1.1, SVG Export Plug-In . SVG Version: 6.00 Build 0)  -->
<svg version="1.1" id="Layer_1" xmlns="http://www.w3.org/2000/svg" xmlns:xlink="http://www.w3.org/1999/xlink" x="0px" y="0px"
	 viewBox="0 0 300 300" enable-background="new 0 0 300 300" xml:space="preserve">
<g>
	<g>
		<path fill="none" d="M131,135c0-1.8,1-3.4,2.6-4.1c1.6-0.7,3.5-0.5,4.8,0.7c1.7,1.4,6.1,4.4,9,4.4c0.7,0,1.8,0,2.7-2.7
			c0,0,0-0.1,0-0.1c2.8-7.2,0.1-15.3,0.1-15.4c-0.6-1.6-0.2-3.3,0.9-4.5l0.2-0.2l-6.6,0c-1.2,0-2.3-0.5-3-1.4
			c-0.8-0.9-1.1-2-0.9-3.2c0.3-1.9,0.2-5.4-1-6.7c-0.2-0.2-0.5-0.6-1.6-0.6c-4.4,0-11.8,5.1-16.3,9.2l2.6,41.6h6.5V135z"/>
		<polygon fill="none" points="106.7,237.5 106.7,237.5 106.7,237.5 		"/>
		<path fill="none" d="M191.6,137.8c-7.9,0-14.3,7.2-14.6,14.2h29.1C206,145,199.5,137.8,191.6,137.8z"/>
		<path fill="#CDCCCC" d="M241,223H128.3c-0.5,3-1.6,6-3.2,8H241V223z"/>
		<path fill="#FFFFFF" d="M191.6,128.8c12.9,0,23.4,11.2,23.6,23.2h21.5c-2.2-2-5-6.3-8.2-11.3c-3.1-5-2.5-8.9-1.4-11.3
			c1.4-3.1,4.1-5.2,6.8-6.7l-4.5-3.8c-2.6,1.1-6.6,2.3-11.8,2.3c-3,0-6.1-0.4-9.2-1.2c-6.3-1.6-8.4-5-9-7.6
			c-0.5-2.2-0.1-4.4,0.7-6.4h-4.7c-2.4,3-7.6,9.3-16.9,12.3c-1.6,0.5-3.2,0.7-4.7,0.7c0,0,0,0,0,0c-3.1,0-5.8-1-7.8-3.2
			c-0.9-1-1.6-2-2.1-3.2l-4.4,4.8c0.9,3.9,2,11.5-1,19c-2.7,7.4-8.2,8.6-11.2,8.6c0,0,0,0,0,0c-2.6,0-5.4-0.8-7.4-1.9v8.7
			c0,0.2,0.6,0.2,0.9,0.2H168C168.3,140,178.8,128.8,191.6,128.8z"/>
		<path fill="#CDCCCC" d="M146,96.6c2.1,2.5,2.8,5.8,3,8.5l7.3,0l0.1-31.2l-8.2,0c-2.2,3.7-6.2,8-11.8,8c-4.4,0-8.9-2.7-13.1-8.1
			l-36.7-0.1c-0.9,0-19.5,0.2-25.6,13.7c4.4-2.7,10-5.3,15.5-5.3c4.5,0,8.3,1.6,11.4,4.7c7.6,7.6,10.7,14.1,12,18l16.5,0
			c3.6-3.3,13.7-11.7,22-11.7C141.4,93.2,144.1,94.3,146,96.6z"/>
		<path fill="#FFFFFF" d="M114.1,112.6l-13.7,0.1L98.2,144h3.2c5.7,0,10.6,3,12.9,8h2.2L114.1,112.6z"/>
		<path fill="#FFFFFF" d="M107.9,215.6l-3.7,3.2L97.7,229c-0.2,0.3-0.4,0.5-0.6,0.7c2.6,2.5,6.1,3.9,9.7,3.9l0.2,4l0,0v-4
			c4,0,7.5-1.6,10.2-4.5c2.6-2.9,3.8-6.5,3.5-10.4c0,0-0.1,0-0.2,0L107.9,215.6z"/>
		<path fill="#FFFFFF" d="M129.2,198.4c1.3-1.6,3.6-2,5.4-1.1l9.8,4.9l8-9.9c1.4-1.7,3.8-2.2,5.7-1.1l10.6,6l10.7-10.6
			c1.4-1.4,3.6-1.7,5.3-0.8l10.8,5.9l9.6-9.5c1.5-1.5,3.8-1.7,5.6-0.6l8.9,5.6l8.7-8.3c1.2-1.2,2.8-1.5,4.4-1l7.3,2.7V161H116v38.9
			c0,0.8-0.3,1.5-0.8,2.2l-3.4,5.2l8.1,2L129.2,198.4z"/>
		<path fill="#CDCCCC" d="M92.2,223l15.8-24.3v-39.6c0-3.9-3.1-7.1-6.6-7.1H77.5c-3.5,0-6.5,3.1-6.5,7.1v56.6c0,3.9,3,7.3,6.5,7.3
			H92.2z M96,211.5c0,1.9-1.6,3.5-3.5,3.5h-13c-1.9,0-3.5-1.6-3.5-3.5v-47c0-1.9,1.6-3.5,3.5-3.5h13c1.9,0,3.5,1.6,3.5,3.5V211.5z"
			/>
		<rect x="83" y="168" fill="#FFFFFF" width="5" height="39"/>
		<g>
			<path fill="#5A81B8" d="M96,164.5c0-1.9-1.6-3.5-3.5-3.5h-13c-1.9,0-3.5,1.6-3.5,3.5v47c0,1.9,1.6,3.5,3.5,3.5h13
				c1.9,0,3.5-1.6,3.5-3.5V164.5z M88,207h-5v-39h5V207z"/>
			<path fill="#5A81B8" d="M173.8,67.9l3.4,0.1l-0.6,13.9c-0.1,2.5,1.8,4.6,4.3,4.7c0.1,0,0.1,0,0.2,0c2.4,0,4.4-1.9,4.5-4.3l0.6-14
				l3.3,0.1c0.1,0,0.1,0,0.2,0c2.4,0,4.4-1.9,4.5-4.3c0.1-2.5-1.8-4.6-4.3-4.7l-15.7-0.6c-2.5-0.1-4.6,1.8-4.7,4.3
				S171.4,67.8,173.8,67.9z"/>
			<path fill="#5A81B8" d="M194.9,90.1c0.9,1.2,2.2,1.8,3.6,1.8c0.9,0,1.9-0.3,2.7-0.9l11.2-8.3l2,2.7c0.9,1.2,2.2,1.8,3.6,1.8
				c0.9,0,1.9-0.3,2.7-0.9c2-1.5,2.4-4.3,0.9-6.3l-9.3-12.6c-1.5-2-4.3-2.4-6.3-0.9c-2,1.5-2.4,4.3-0.9,6.3l2,2.7l-11.2,8.3
				C193.9,85.3,193.4,88.1,194.9,90.1z"/>
		</g>
	</g>
	<path fill="#5A81B8" d="M248.8,155.1c-0.2-0.6-0.6-1.1-1-1.5c0.5,0.5,1.1,1.1,1.1,1.7v-0.9c0-1.2-0.5-2.4-1.4-3.3
		c0,0-5-4.7-11.4-15c-0.8-1.3-1.1-2.4-0.8-3.1c0.8-2,5.3-3.8,8.2-4.3c1.7-0.3,3.1-1.6,3.5-3.3c0.4-1.7-0.1-3.5-1.4-4.6l-12.7-10.9
		c-1.6-1.3-3.8-1.5-5.5-0.3c-0.1,0.1-3.6,2.4-9.9,2.4c-2.2,0-4.6-0.3-7-0.9c-1.6-0.4-2.2-0.8-2.4-1c0.1-1.1,2-3.6,3.8-5.3
		c1.4-1.2,1.9-3.2,1.3-5c-0.7-1.8-2.3-3-4.2-3h-16.2c-1.7,0-3.3,1-4.1,2.6c0,0.1-3.6,7.3-13,10.2c-0.8,0.2-1.4,0.4-2,0.4
		c-0.7,0-1-0.2-1.2-0.4c-1.2-1.3-1.5-4.7-1.4-6.6c0.1-1.9-1-3.7-2.7-4.5c-1.4-0.6-3-0.4-4.3,0.4l0.1-29.2c0-2.2-1.8-4-4-4l-14.7,0
		c0,0,0,0,0,0c-1.6,0-3.1,0.9-3.7,2.5c-0.4,1.1-2.8,5.5-5.6,5.5c-2.1,0-5-2.3-7.9-6.4c-0.8-1-2-1.6-3.2-1.7l-38.7-0.1
		C74.2,65.8,51,72.3,51,96.9c0,1.6,0.9,3.1,2.4,3.7c1.5,0.6,3.2,0.3,4.3-0.8c2.8-2.7,11.6-9.6,18.7-9.6c2.3,0,4.1,0.8,5.7,2.3
		c8.6,8.6,10.2,15.3,10.5,16.5l0-0.4l0,0.5L90.1,144H77.5c-7.9,0-14.5,6.7-14.5,15.1v56.6c0,8.3,6.6,15.3,14.5,15.3h10.4
		c0.7,1,1.4,1.8,2.3,2.8c4.2,4.8,10.2,7.2,16.5,7.2c0,0,0,0,0,0c3.2,0,6.3-0.5,9.1-1.8c0.2-0.1,0.3-0.2,0.5-0.2h128.6
		c2.2,0,4.1-1.3,4.1-3.5v-16.1c0-2.2-1.9-4.4-4.1-4.4H128.4l0.1,2.3c0.1,0.6,0.1,1.2,0.1,1.7c0-0.5,0-0.9-0.1-1.4l-0.1-2.2l-0.1-2.2
		l5.4-6.3l9.9,4.9c1.9,0.9,4.2,0.4,5.5-1.2l7.8-9.8l10.3,5.8c1.8,1,4,0.7,5.4-0.7l10.7-10.6l10.8,5.9c1.7,1,3.9,0.6,5.3-0.8l9.4-9.4
		l8.9,5.6c1.7,1.1,4,0.9,5.5-0.5l9.3-8.8l10.9,3.9c1.4,0.5,2.7,0.3,3.9-0.6c1.2-0.8,1.7-2.2,1.7-3.7v-30
		C249,156.4,249.1,155.6,248.8,155.1z M159.6,117.5l4.4-4.8c0.5,1.2,1.2,2.1,2.1,3.1c2,2.2,4.7,3.2,7.8,3.2c0,0,0,0,0,0
		c1.5,0,3.1-0.2,4.7-0.7c9.3-3,14.5-9.3,16.9-12.3h4.7c-0.8,2-1.2,4.2-0.7,6.4c0.6,2.6,2.7,6,9,7.6c3.1,0.8,6.2,1.2,9.2,1.2
		c5.2,0,9.2-1.2,11.8-2.3l4.5,3.9c-2.8,1.5-5.5,3.7-6.8,6.8c-1.1,2.5-1.7,6.2,1.4,11.2c3.1,5,6,9.3,8.2,11.3h-21.5
		c-0.2-12-10.7-23.2-23.6-23.2S168.3,140,168,152h-27.2c-0.3,0-0.9,0-0.9-0.2v-8.7c2,1,4.9,1.9,7.4,1.9c0,0,0,0,0,0
		c3,0,8.5-1.1,11.2-8.6C161.5,129,160.5,121.4,159.6,117.5z M206.2,152h-29.1c0.2-7,6.7-14.2,14.6-14.2S206,145,206.2,152z
		 M114.3,152h-0.1c-2.4-5-7.3-8-12.8-8h-3.2l2.2-31.1l13.7-0.2l2.5,39.3H114.3z M124.5,152l-2.6-41.4c4.5-4.1,11.9-9.4,16.3-9.4
		c1.1,0,1.5,0.4,1.6,0.6c1.2,1.3,1.3,4.8,1,6.7c-0.2,1.2,0.2,2.3,0.9,3.2c0.8,0.9,1.9,1.4,3,1.4l6.6,0l-0.2,0.2
		c-1.1,1.2-1.5,3-0.9,4.5c0,0.1,2.7,8.2-0.1,15.4c0,0,0,0.1,0,0.1c-1,2.7-2,2.7-2.7,2.7c-2.9,0-7.3-3-9-4.4
		c-1.3-1.2-3.2-1.4-4.8-0.7c-1.6,0.7-2.6,2.3-2.6,4.1v17h-2.1H124.5z M87.8,87c-3.1-3.1-6.9-4.7-11.4-4.7c-5.5,0-11.1,2.5-15.5,5.3
		C66.9,74,85.5,73.8,86.4,73.8l36.7,0.1c4.3,5.4,8.7,8.1,13.1,8.1c5.6,0,9.6-4.3,11.8-8l8.2,0l-0.1,31.2l-7.3,0
		c-0.2-2.7-0.9-6.1-3-8.5c-1.9-2.2-4.5-3.3-7.7-3.3c-8.3,0-18.3,7.8-21.9,11.8h0H99.7h0C98.5,101,95.4,94.6,87.8,87z M77.5,223
		c-3.5,0-6.5-3.4-6.5-7.3v-56.6c0-3.9,3-7.1,6.5-7.1h23.9c3.5,0,6.6,3.1,6.6,7.1v39.6L92.2,223H77.5z M117.2,228.7
		c-2.7,2.9-6.1,4.3-10.1,4.3h-0.2c-3.6,0-7.1-1-9.7-3.5c-0.7,0.7-0.8,0.9-0.1,0.2c0.2-0.2,0.4-0.5,0.6-0.7l6.6-10.2l0.1-0.1l3.6-3.2
		l12.5,3c0,0,0.1-0.1,0.1-0.1C120.9,222.3,119.8,225.9,117.2,228.7z M128.3,223.3c0-0.1,0-0.3,0-0.3H241v8H125.4
		C126.8,229,127.8,226,128.3,223.3z M240,180.6l-7.3-2.7c-1.6-0.6-3.3-0.2-4.5,1l-8.7,8.3l-8.9-5.6c-1.8-1.1-4.1-0.9-5.5,0.6
		l-9.6,9.5l-10.7-5.9c-1.7-1-3.9-0.6-5.3,0.8l-10.7,10.6l-10.6-6c-1.9-1.1-4.3-0.6-5.7,1.1l-8,9.9l-9.8-4.9
		c-1.8-0.9-4.1-0.5-5.4,1.1l-9.3,10.8l-8.1-1.9l3.5-5.2c0.4-0.6,0.8-1.4,0.8-2.2v-38.4V161h124V180.6z"/>
</g>
</svg>
