<?xml version="1.0" encoding="utf-8"?>
<!-- Generator: Adobe Illustrator 18.1.1, SVG Export Plug-In . SVG Version: 6.00 Build 0)  -->
<svg version="1.1" id="Layer_1" xmlns="http://www.w3.org/2000/svg" xmlns:xlink="http://www.w3.org/1999/xlink" x="0px" y="0px"
	 viewBox="0 0 300 300" enable-background="new 0 0 300 300" xml:space="preserve">
<g>
	<path fill="#FFFFFF" d="M232.1,166.9l15.9-15.4c1.4-1.3,2.1-3.1,2.2-5c0-1.9-0.7-3.7-2-5l-6.1-6.3l-14.9,26.9
		C228.9,163.7,230.5,165.3,232.1,166.9z"/>
	<path fill="#FFFFFF" d="M51.8,140.5c-2.5,2.5-2.5,6.5-0.1,9l16.7,17l4.8-2l-16.1-29.1L51.8,140.5z"/>
	<path fill="#FFFFFF" d="M200.4,85.6c1.9-0.4,4,0,5.7,1.2c3.3,2.3,4.1,6.9,1.8,10.2c-2,2.9-6.9,4.5-11.2,5.3c0,0,0,0,0,0
		c0.2,0.5,0.4,1,0.4,1.6l23.6,49.4l24.2-43.8c1.9-3.4,0.5-7.7-2.9-9.6l-49-27v6.6c2,0,3,0.5,4.2,1.3
		C198.9,81.8,200.1,83.6,200.4,85.6z"/>
	<path fill="#FFFFFF" d="M99,76.3L56.7,99.8c-1.7,0.9-2.7,2.4-3.2,4.2s-0.2,3.7,0.7,5.4l28,51.1l16.9-7.3V76.3z M79.2,122.1
		c-0.1,0-0.2,0-0.4,0c-1.4-0.3-14.1-2.8-17.1-9l-0.1-0.3c-1.6-3.7-0.1-7.9,3.5-9.6c1.8-0.9,3.9-1,5.8-0.3c0.6-1.9,1.9-3.5,3.8-4.4
		c1-0.5,2.1-0.7,3.2-0.7c2.8,0,5.4,1.6,6.6,4.1c2.8,5.7-2.8,17.8-3.4,19.1C80.6,121.6,79.9,122.1,79.2,122.1z"/>
	<path fill="#FFFFFF" d="M204.4,94.7c1.1-1.5,0.7-3.6-0.8-4.7c-1.3-0.9-3.3-0.7-4.4,0.5c-0.7,0.7-1.8,0.9-2.6,0.3s-1.1-1.7-0.6-2.6
		c0.8-1.5,0.2-3.3-1.2-4.3c-0.5-0.4-0.9-0.6-1.9-0.6v15.5C198,98.2,203,96.8,204.4,94.7z"/>
	<path fill="#FFFFFF" d="M78,117.8c2-4.6,4.1-11.5,2.8-14.2c-0.6-1.2-1.7-1.9-3-1.9c-0.5,0-1,0.1-1.5,0.3c-1.5,0.7-2.2,2.5-1.7,4.1
		c0.3,1-0.1,2-1,2.4c-0.9,0.4-2,0.1-2.5-0.7c-0.6-0.9-1.7-1.5-2.8-1.5c-0.5,0-1,0.1-1.5,0.3c-1.6,0.8-2.3,2.7-1.6,4.4l0.1,0.2
		C66.8,114.3,73.3,116.7,78,117.8z"/>
	<path fill="#FFFFFF" d="M138.3,103.2c0.2-0.2,0.6-0.4,0.9-0.6c0.1-0.1,0.3-0.1,0.4-0.2c0.2-0.1,0.4-0.2,0.6-0.3
		c0.1-0.1,0.3-0.1,0.4-0.1c0.2-0.1,0.4-0.1,0.5-0.2c0.1,0,0.3,0,0.4-0.1c0.2,0,0.2-0.1,0.4-0.1l41.1-1.8V59.2c0-3.9-2.9-7.2-6.8-7.2
		h-59.6c-3.9,0-7.6,3.3-7.6,7.2v74L138.3,103.2z M125.7,59C125.7,59,125.7,59,125.7,59c0.7,0,1.3,0.3,1.7,0.9l8.6,13.3
		c0.4,0.7,0.4,1.5,0,2.2l-8.7,13.5c-0.4,0.6-1,1.1-1.7,1.1c0,0,0,0,0,0c-0.7,0-1.3-0.6-1.7-1.2l-8.6-13.4c-0.4-0.7-0.4-1.6,0-2.3
		l8.7-13.3C124.4,59.3,125,59,125.7,59z"/>
	<path fill="#FFFFFF" d="M99.5,199.7l-38.7-15.1l0.1,47.1l38.8,14L99.5,199.7z M91.8,198.4c2.3,1,3.3,3.6,2.4,5.8
		c-1,2.3-3.6,3.3-5.8,2.4c-2.3-1-3.3-3.6-2.4-5.8C87,198.5,89.6,197.5,91.8,198.4z M72.8,229.5c-1,2.3-3.6,3.3-5.8,2.4
		c-2.3-1-3.3-3.6-2.4-5.8c1-2.3,3.6-3.3,5.8-2.4C72.7,224.7,73.8,227.3,72.8,229.5z M72.9,212.2c-1,2.3-3.6,3.3-5.8,2.4
		c-2.3-1-3.3-3.6-2.4-5.8c1-2.3,3.6-3.3,5.8-2.4C72.8,207.3,73.8,209.9,72.9,212.2z M72.9,196.4c-1,2.3-3.6,3.3-5.8,2.4
		c-2.3-1-3.3-3.6-2.4-5.8c1-2.3,3.6-3.3,5.8-2.4C72.8,191.5,73.8,194.1,72.9,196.4z M94.2,237.5c-1,2.3-3.6,3.3-5.8,2.4
		c-2.3-1-3.3-3.6-2.4-5.8c1-2.3,3.6-3.3,5.8-2.4C94.1,232.6,95.1,235.2,94.2,237.5z M94.2,220.1c-1,2.3-3.6,3.3-5.8,2.4
		c-2.3-1-3.3-3.6-2.4-5.8c1-2.3,3.6-3.3,5.8-2.4C94.1,215.2,95.2,217.8,94.2,220.1z"/>
	<path fill="#FFFFFF" d="M128.6,202.6c-0.1,0-0.2,0-0.3,0c-2,0-3.8-1.2-4.6-3l-2.4-5.7l-11.9,5.6l0.2,45.8l34.6-15.1
		c-0.3-0.5-0.5-0.9-0.8-1.4c-1,0.3-2.1,0.3-3.1-0.1c-2.3-1-3.3-3.6-2.4-5.8c0.4-1,1.2-1.7,2.1-2.2c-1.8-5.4-2.7-11.1-2.7-17
		c0-0.5,0-0.9,0-1.4L128.6,202.6z M134.3,217.6c-1,2.3-3.6,3.3-5.8,2.4c-2.3-1-3.3-3.6-2.4-5.8c1-2.3,3.6-3.3,5.8-2.4
		S135.3,215.3,134.3,217.6z M112.7,203c1-2.3,3.6-3.3,5.8-2.4s3.3,3.6,2.4,5.8c-1,2.3-3.6,3.3-5.8,2.4
		C112.8,207.9,111.7,205.3,112.7,203z M121.7,236.6c-1,2.3-3.6,3.3-5.8,2.4c-2.3-1-3.3-3.6-2.4-5.8s3.6-3.3,5.8-2.4
		S122.6,234.3,121.7,236.6z"/>
	<path fill="#CCCCCC" d="M108.6,163.8l-4.5-1.7L69,177.1l35.3,13.8l13.1-6.3L108.6,163.8z M103.3,177.4c-2.3-1-3.3-3.6-2.4-5.8
		c1-2.3,3.6-3.3,5.8-2.4c2.3,1,3.3,3.6,2.4,5.8C108.1,177.3,105.5,178.4,103.3,177.4z"/>
	<path fill="#FFFFFF" d="M154.8,148l-10,0.2l-31.6,0.9l18.4,43.4l6.9-0.4c0.2-0.9,0.4-1.9,0.7-2.8c-0.8,0.9-2,1.5-3.4,1.5
		c-2.5,0-4.5-2-4.5-4.5s2-4.5,4.5-4.5c2.3,0,4.2,1.7,4.4,3.9c1.6-4.5,3.7-8.8,6.3-12.7c-0.8,1.1-2.1,1.9-3.6,1.9
		c-2.5,0-4.5-2-4.5-4.5s2-4.5,4.5-4.5s4.5,2,4.5,4.5c0,0.9-0.3,1.7-0.7,2.4c3.5-5.2,7.9-9.7,13-13.4L154.8,148z M150.1,161.6
		c-2.5,0-4.5-2-4.5-4.5s2-4.5,4.5-4.5s4.5,2,4.5,4.5S152.6,161.6,150.1,161.6z"/>
	<path fill="#FFFFFF" d="M190.8,114l-26.9,29.8l4.5,10.6c4.5-2.2,9.4-3.7,14.5-4.5c0.1-2.4,2-4.3,4.4-4.3c2.2,0,3.9,1.5,4.4,3.5
		c0,0,0.1,0,0.1,0c6,0,11.7,1,17.1,2.8L190.8,114z"/>
	<path fill="#CCCCCC" d="M117.9,138.9l37.9-1l24.8-27.9l-36.1,1.6L117.9,138.9z M146.9,113.9c2.5,0,4.5,2,4.5,4.5s-2,4.5-4.5,4.5
		s-4.5-2-4.5-4.5S144.5,113.9,146.9,113.9z M153.3,134.7c-2.5,0-4.5-2-4.5-4.5s2-4.5,4.5-4.5s4.5,2,4.5,4.5S155.7,134.7,153.3,134.7
		z"/>
	<path fill="#FFFFFF" d="M169.3,233.8l-5,4.9c6.1,4.8,13.6,8,21.6,9v-7C180,239.8,174.2,237.4,169.3,233.8z"/>
	<path fill="#FFFFFF" d="M196,240.9v7c9-0.9,17.6-4.6,24.2-10.2l-5-4.9C209.9,237.1,203,240.1,196,240.9z"/>
	<path fill="#FFFFFF" d="M222.3,225.6l4.9,5c4.9-6.4,8-14.5,8.8-22.5h-6.9C228.4,214,226,220.5,222.3,225.6z"/>
	<path fill="#FFFFFF" d="M162.3,226.9c-4.2-5.3-7-11.9-7.8-18.9h-6.9c0.9,9,4.4,17.2,9.8,23.8L162.3,226.9z"/>
	<path fill="#FFFFFF" d="M228.9,198h7c-1-8-4.2-15.5-9-21.6l-4.9,5C225.5,186.1,228,192,228.9,198z"/>
	<path fill="#FFFFFF" d="M214.9,174.1l4.9-4.9c-6.6-5.4-14.8-8.9-23.8-9.8v7C203,167.1,209.6,169.9,214.9,174.1z"/>
	<path fill="#FFFFFF" d="M154.7,198c1-7,3.9-12.9,8-18l-4.9-4.9c-5.3,6.3-8.9,13.9-10,22.9H154.7z"/>
	<path fill="#FFFFFF" d="M169.8,173.1c4.7-3.4,10.2-5.8,16.2-6.7v-7c-8,1-15.1,4.1-21.2,8.7L169.8,173.1z"/>
	<path fill="#FFFFFF" d="M191.8,176c-15.2,0-27.6,12.4-27.6,27.6s12.4,27.6,27.6,27.6s27.6-12.4,27.6-27.6S207,176,191.8,176z
		 M199.4,213.4c-2.2,0-4.2-0.9-5.6-2.5c0.6,3.8,1.8,8.1,4.3,9.1H186c3.1-1,4.2-5.6,4.5-9.3c-1.4,1.7-3.5,2.8-5.8,2.8
		c-4.1,0-7.4-3.3-7.4-7.4c0-7.8,14.9-19.6,14.9-19.6s14.7,10.9,14.7,19.5l0,0.4C206.7,210.2,203.4,213.4,199.4,213.4z"/>
	<polygon fill="#FFFFFF" points="119.4,74.2 125.6,83.8 132,74.2 125.7,64.6 	"/>
	<g>
		<path fill="#5980B7" d="M260.1,146.7c0.1-4.6-1.6-8.9-4.8-12.2l-8.2-8.5l-5.1,9.2l6.1,6.3c1.3,1.4,2,3.1,2,5c0,1.9-0.8,3.7-2.2,5
			l-15.9,15.4c-1.5-1.7-3.2-3.3-4.9-4.8c0,0,0,0,0,0l14.9-26.9l5.1-9.2l6.5-11.8c4.6-8.2,1.6-18.7-6.7-23.2l-52.3-28.8
			c-0.5-0.3-0.7-0.5-1.7-0.8v-2.3c0-9.4-7.4-17.2-16.8-17.2h-59.6C107.2,42,99,49.7,99,59.2v5.7L51.9,91.1c-4,2.2-6.8,5.8-8,10.2
			c-1.3,4.4-0.7,9,1.5,13l6.6,11.9l0,0l-7.3,7.1c-6.4,6.3-6.5,16.7-0.2,23.2l13.9,14.1l-2.4,1c-2-0.1-4,1.1-4.8,3.1
			c0,0.1,0,0.1-0.1,0.2c0,0.1-0.1,0.1-0.1,0.2c0,0.1-0.1,0.2-0.1,0.2c-0.1,0.1-0.1,0.3-0.2,0.4c0,0.1,0,0.2-0.1,0.3
			c0,0.1-0.1,0.3-0.1,0.4c0,0.1,0,0.2,0,0.3c0,0.1,0,0.3,0,0.4l0.1,58c0,2.1,1.3,4,3.3,4.7l48.8,17.7c0.6,0.2,1.1,0.3,1.7,0.3
			c0.7,0,1.4-0.1,2-0.4l43.4-18.9c10,11.9,25,19.5,41.8,19.5c30,0,54.5-24.4,54.5-54.5c0-10.5-3-20.3-8.1-28.6l16.8-16.2
			C258.2,155.6,260,151.3,260.1,146.7z M193,83.4c1,0,1.4,0.2,1.9,0.6c1.4,1,1.9,2.8,1.1,4.3c-0.5,0.9-0.2,2,0.7,2.6s2,0.4,2.6-0.3
			c1.1-1.2,3.1-1.4,4.4-0.5c1.5,1.1,1.8,3.2,0.7,4.7c-1.5,2.1-6.4,3.5-11.4,4.2V83.4z M196.2,101.7c-0.7-1-1.6-1.6-2.7-2
			C195,100,195.7,100.7,196.2,101.7z M116.6,52h59.6c3.9,0,6.8,3.3,6.8,7.2v40.7l8.7-0.4c0.4,0,1.3,0,1.4,0.1
			c-0.4-0.1-0.8-0.1-1.3-0.1l-8.6,0.4l-41.3,1.8c-0.2,0-0.3,0-0.5,0.1c-0.1,0-0.3,0-0.4,0.1c-0.2,0-0.4,0.1-0.5,0.2
			c-0.1,0-0.2,0.1-0.4,0.1c-0.2,0.1-0.4,0.2-0.5,0.3c-0.1,0.1-0.2,0.1-0.3,0.2c-0.3,0.2-0.5,0.4-0.7,0.6l-29.2,30l-0.5,0.4V59.2
			C109,55.3,112.7,52,116.6,52z M180.5,110l-24.8,27.9l-37.9,1l26.5-27.4L180.5,110z M53.6,104c0.5-1.8,1.5-3.3,3.1-4.2L99,76.3
			v77.1l-16.7,7.1l-28.2-51.1C53.2,107.8,53.1,105.9,53.6,104z M51.7,149.5c-2.5-2.5-2.4-6.6,0.1-9l5.3-5.2l16.1,29.1l-4.8,2
			L51.7,149.5z M60.9,231.7l-0.1-47.1l38.7,15.1l0.2,46.1L60.9,231.7z M104.3,190.8L69,177.1l35.1-14.9l4.5,1.7l8.8,20.7
			L104.3,190.8z M109.6,245.3l-0.2-45.8l11.9-5.6l2.4,5.7c0.8,1.9,2.6,3,4.6,3c0.1,0,0.2,0,0.3,0l8.7-0.5c0,0.5,0,0.9,0,1.4
			c0,5.9,1,11.7,2.7,17c-0.9,0.5-1.6,1.2-2.1,2.2c-1,2.3,0.1,4.9,2.4,5.8c1,0.4,2.1,0.4,3.1,0.1c0.2,0.5,0.5,0.9,0.8,1.4
			L109.6,245.3z M143,166.1c-2.5,0-4.5,2-4.5,4.5s2,4.5,4.5,4.5c1.5,0,2.8-0.7,3.6-1.9c-2.6,3.9-4.8,8.2-6.3,12.7
			c-0.3-2.2-2.1-3.9-4.4-3.9c-2.5,0-4.5,2-4.5,4.5s2,4.5,4.5,4.5c1.3,0,2.5-0.6,3.4-1.5c-0.2,0.9-0.5,1.8-0.7,2.8l-6.9,0.4
			l-18.4-43.4l31.6-0.9l10-0.2l4.9,11.5c-5.1,3.7-9.5,8.2-13,13.4c0.4-0.7,0.7-1.5,0.7-2.4C147.4,168.1,145.4,166.1,143,166.1z
			 M157.4,231.8c-5.4-6.6-9-14.8-9.8-23.8h6.9c0.8,7,3.6,13.6,7.8,18.9L157.4,231.8z M154.7,198h-7c1.1-9,4.7-16.5,10-22.9l4.9,4.9
			C158.5,185.1,155.7,191,154.7,198z M190.8,114l18.1,37.9c-5.4-1.8-11.1-2.8-17.1-2.8c0,0-0.1,0-0.1,0c-0.4-2-2.2-3.5-4.4-3.5
			c-2.4,0-4.4,1.9-4.4,4.3c-5.1,0.8-10,2.4-14.5,4.5l-4.5-10.6L190.8,114z M219.8,169.1l-5,4.9c-5.3-4.2-11.9-7-18.9-7.8v-7
			C205,160.2,213.2,163.7,219.8,169.1z M186,159.5v7c-6,0.9-11.5,3.2-16.2,6.7l-5-4.9C170.9,163.5,178,160.5,186,159.5z M186,247.7
			c-8-1-15.4-4.2-21.6-9l4.9-4.9c4.8,3.6,10.7,6,16.7,7V247.7z M164.2,203.6c0-15.2,12.4-27.6,27.6-27.6s27.6,12.4,27.6,27.6
			s-12.4,27.6-27.6,27.6S164.2,218.8,164.2,203.6z M196,247.9v-7c7-0.8,14-3.8,19.3-8.1l4.9,4.9C213.5,243.3,205,247,196,247.9z
			 M197.1,103.9c-0.1-0.5-0.2-1.1-0.4-1.6c0,0,0,0,0,0c0,0,0,0,0,0c4.3-0.9,9.2-2.5,11.2-5.3c2.3-3.3,1.5-7.9-1.8-10.2
			c-1.6-1.1-3.7-1.6-5.6-1.2c-0.3-1.9-1.5-3.7-3.2-4.9c-1.2-0.8-2.2-1.3-4.2-1.3v-6.6l49,27c3.4,1.9,4.7,6.2,2.8,9.6l-24.2,43.8
			L197.1,103.9z M226.9,176.4c4.8,6.1,8,13.6,9,21.6h-7c-0.9-6-3.4-11.9-7-16.7L226.9,176.4z M227.2,230.5l-4.9-4.9
			c3.7-5.1,6.1-11.6,6.8-17.6h6.9C235.3,216,232.1,224.1,227.2,230.5z"/>
		<path fill="#5980B7" d="M61.7,113c3.1,6.3,15.7,8.8,17.1,9c0.1,0,0.2,0,0.4,0c0.8,0,1.5-0.4,1.8-1.1c0.6-1.4,6.2-13.4,3.4-19.1
			c-1.2-2.5-3.8-4.1-6.6-4.1c-1.1,0-2.2,0.3-3.2,0.7c-1.9,0.9-3.2,2.5-3.8,4.4c-1.8-0.7-4-0.6-5.8,0.3c-3.6,1.7-5.1,6-3.5,9.6
			L61.7,113z M66.8,106.7c0.5-0.2,1-0.3,1.5-0.3c1.1,0,2.2,0.6,2.8,1.5c0.6,0.8,1.6,1.1,2.5,0.7c0.9-0.4,1.3-1.5,1-2.4
			c-0.5-1.6,0.2-3.3,1.7-4.1c0.5-0.2,1-0.3,1.5-0.3c1.3,0,2.5,0.7,3,1.9c1.3,2.7-0.8,9.6-2.8,14.2c-4.7-1.1-11.2-3.5-12.7-6.5
			l-0.1-0.2C64.5,109.4,65.2,107.5,66.8,106.7z"/>
		<circle fill="#5980B7" cx="105" cy="173.3" r="4.5"/>
		<circle fill="#5980B7" cx="130.2" cy="215.8" r="4.5"/>
		<circle fill="#5980B7" cx="116.8" cy="204.8" r="4.5"/>
		<circle fill="#5980B7" cx="117.6" cy="234.8" r="4.5"/>
		<circle fill="#5980B7" cx="68.8" cy="194.6" r="4.5"/>
		<circle fill="#5980B7" cx="68.8" cy="210.5" r="4.5"/>
		<circle fill="#5980B7" cx="68.7" cy="227.8" r="4.5"/>
		<circle fill="#5980B7" cx="90.1" cy="202.5" r="4.5"/>
		<circle fill="#5980B7" cx="90.1" cy="218.4" r="4.5"/>
		<circle fill="#5980B7" cx="90.1" cy="235.7" r="4.5"/>
		<circle fill="#5980B7" cx="146.9" cy="118.4" r="4.5"/>
		<circle fill="#5980B7" cx="153.3" cy="130.2" r="4.5"/>
		<circle fill="#5980B7" cx="150.1" cy="157.1" r="4.5"/>
		<path fill="#5980B7" d="M192.1,186.4c0,0-14.9,11.8-14.9,19.6c0,4.1,3.3,7.4,7.4,7.4c2.4,0,4.4-1,5.8-2.7
			c-0.3,3.7-1.4,8.3-4.5,9.3h12.2c-2.5-1-3.7-5.2-4.3-9.1c1.4,1.6,3.3,2.5,5.6,2.5c4,0,7.3-3.2,7.4-7.2l0-0.4
			C206.9,197.3,192.1,186.4,192.1,186.4z"/>
		<path fill="#5980B7" d="M123.9,88.8c0.4,0.6,1,1.2,1.7,1.2c0,0,0,0,0,0c0.7,0,1.3-0.6,1.7-1.2l8.7-13.5c0.4-0.7,0.4-1.5,0-2.2
			l-8.6-13.3c-0.4-0.6-1-0.9-1.7-0.9c0,0,0,0,0,0c-0.7,0-1.3,0.3-1.7,0.9l-8.7,13.3c-0.4,0.7-0.4,1.6,0,2.3L123.9,88.8z M125.7,64.6
			l6.3,9.6l-6.3,9.6l-6.3-9.6L125.7,64.6z"/>
	</g>
</g>
</svg>
