<?xml version="1.0" encoding="utf-8"?>
<!-- Generator: Adobe Illustrator 18.1.1, SVG Export Plug-In . SVG Version: 6.00 Build 0)  -->
<svg version="1.1" id="Layer_1" xmlns="http://www.w3.org/2000/svg" xmlns:xlink="http://www.w3.org/1999/xlink" x="0px" y="0px"
	 viewBox="0 0 300 300" enable-background="new 0 0 300 300" xml:space="preserve">
<g>
	<path fill="#FFFFFF" d="M132.7,105.9c4.2-0.9,8.6-1.3,13.1-1.3c1,0,1.9,0,2.9,0.1l22.8-8.2C160,96.6,146.1,98.8,132.7,105.9z"/>
	<path fill="#FFFFFF" d="M58,121.6l33.9-2.4c-4.9-1.5-9.7-2.2-14.4-2.2C69.5,116.9,63,119.1,58,121.6z"/>
	<path fill="#FFFFFF" d="M69.7,82.8c-4.2-2.1-8.4-3.6-12.1-4.8l41.6,34.6C93.7,99.8,83.9,89.8,69.7,82.8z"/>
	<path fill="#FFFFFF" d="M114,60.7l-2.7,50.2c6.5-9,9.7-18.3,9.5-27.7C120.7,73.9,117.3,66.1,114,60.7z"/>
	<path fill="#CCCCCC" d="M86.7,151.6c-8.3,15-12.8,31.9-13.4,50.9c-0.7,19.4,3,35.5,4.8,41.5h7.6C82.7,230,76.3,188.2,86.7,151.6z"
		/>
	<path fill="#FFFFFF" d="M177.6,153.2l17.8,5.1c1.2-6.4,0.2-13-3.1-19.4c-2.7-5.2-6.6-9.8-11.4-13.6
		C182.4,135.5,179.5,147.2,177.6,153.2z"/>
	<path fill="#FFFFFF" d="M166.4,117.3c-1.4-0.5-2.9-1-4.4-1.5c-1.5-0.4-3.1-0.8-4.6-1.1c-3.1-0.2-5.9,0.4-8.7,1.8
		c-8.8,4.4-14.7,16.3-17.3,23.5l37.5,10.8C171.3,142.8,176.2,123.4,166.4,117.3z"/>
	<path fill="#FFFFFF" d="M136.6,114.3c-13.3,2.2-24.2,9.1-29.6,18.7l15.7,4.5C124.7,131.9,129.1,121.6,136.6,114.3z"/>
	<path fill="#FFFFFF" d="M141.7,223c-1.4,0-2.7-0.7-3.5-1.7l-28.5-36.1c0,0,0-0.1-0.1-0.1c-1.4-1.8-2.5-2.5-3.2-2.5
		c-0.6,0-1.3,0.6-1.8,1.4c-0.7,1.2-1,3,0.2,4.9l33,38.1H204v-4H141.7z"/>
	<path fill="#FFFFFF" d="M227.5,227c0.5,0,1.8,0.2,1.8-1.4c0-0.7-0.3-1.2-0.8-1.7c-0.7-0.7-1.9-0.9-3.3-0.9H213v4H227.5z"/>
	<polygon fill="#FFFFFF" points="229.9,187 238.6,178 224.2,178 216.2,187 	"/>
	<polygon fill="#FFFFFF" points="214.8,178 178.9,178 188.4,187 206.8,187 	"/>
	<path fill="#FFFFFF" d="M234.8,156.9c0,2,1.6,3.6,3.6,3.6s3.6-1.6,3.6-3.6s-1.6-3.6-3.6-3.6S234.8,154.9,234.8,156.9z"/>
	<polygon fill="#CCCCCC" points="194.3,194 209.3,208.6 224,194 	"/>
	<path fill="#CCCCCC" d="M228.4,111.3c4.8,0,8.8-3.9,8.8-8.8s-3.9-8.8-8.8-8.8c-4.8,0-8.8,3.9-8.8,8.8S223.6,111.3,228.4,111.3z"/>
	<g>
		<path fill="#5980B7" d="M100.4,140.5L100.4,140.5l45.4,13l-13.2,46.2l6.9,8.7l14.9-52.4l42.9,12.3c0.4,0.1,0.8,0.2,1.2,0.2
			c1.9,0,3.6-1.2,4.2-3c3.5-9.8,2.6-20.7-2.5-30.6c-5.8-11.3-16.5-20.5-29.8-25.7c-0.7-0.4-1.5-0.8-2.3-1.1c0,0,0,0-0.1,0l0.6-2.2
			l22.9-8.3c1.7-0.6,2.7-2.2,2.6-4c-0.1-1.8-1.4-3.3-3.1-3.6c-0.3-0.1-7.3-1.6-17.8-1.6c-11.6,0-30,2-47.6,12.3
			c2.1-5.8,3.2-11.7,3.1-17.7c-0.3-21.4-14.8-35.7-15.4-36.3c-1.1-1.1-2.8-1.4-4.2-0.9c-1.5,0.6-2.4,1.9-2.5,3.5l-2.9,54.4
			c-6.6-12-16.9-21.6-30.7-28.3c-15.4-7.5-29.5-8.7-30.1-8.8c-1.7-0.1-3.4,0.9-4,2.5c-0.7,1.6-0.2,3.5,1.1,4.6l42.4,35.4
			c-1.6-0.2-3.3-0.2-4.9-0.2c-22.5,0-35.6,14.3-36.1,15c-1.1,1.2-1.3,3-0.6,4.4c0.7,1.4,2.1,2.2,3.6,2.2c0.1,0,0.2,0,0.3,0l48.9-3.5
			c-18.2,20.5-28.2,46.3-29.2,75.7c-0.9,26.9,5.9,46.8,6.2,47.6c0.6,1.8,2.3,2.7,4.3,2.7h16.5c0,0,0,0,0,0c2.5,0,4.5-1.6,4.5-4.1
			c0-0.5-0.1-0.8-0.2-1.2C94.3,242.3,81.5,183,100.4,140.5z M136.6,114.3c-7.5,7.4-11.9,17.6-13.9,23.2L107,133
			C112.4,123.3,123.4,116.5,136.6,114.3z M192.3,139c3.3,6.4,4.4,13,3.1,19.4l-17.8-5.1c1.9-6.1,4.8-17.7,3.2-27.9
			C185.7,129.2,189.6,133.8,192.3,139z M168.9,150.7L131.4,140c2.6-7.2,8.5-19.1,17.3-23.5c2.8-1.4,5.6-2,8.7-1.8
			c1.6,0.3,3.1,0.7,4.6,1.1c1.5,0.4,3,0.9,4.4,1.5C176.2,123.4,171.3,142.8,168.9,150.7z M171.5,96.4l-22.8,8.2
			c-1,0-1.9-0.1-2.9-0.1c-4.5,0-8.9,0.5-13.1,1.3C146.1,98.8,160,96.6,171.5,96.4z M114,60.7c3.3,5.4,6.7,13.2,6.8,22.5
			c0.1,9.4-3.1,18.6-9.5,27.7L114,60.7z M57.6,78c3.7,1.2,7.9,2.7,12.1,4.8c14.2,7,24.1,17,29.5,29.8L57.6,78z M58,121.6
			c5-2.5,11.5-4.6,19.5-4.6c4.7,0,9.5,0.7,14.4,2.2L58,121.6z M85.6,244H78c-1.8-6-5.5-21.9-4.8-41.3c0.7-19.1,5.2-36.3,13.4-51.3
			C76.3,188,82.7,230,85.6,244z"/>
		<path fill="#5980B7" d="M249.2,169h-17l2.3-2.4c1.2,0.5,2.5,0.8,3.8,0.8c5.8,0,10.6-4.7,10.6-10.5c0-1.8-0.4-3.4-1.2-4.9l4.2-4.7
			c1.3-1.4,1.2-3.6-0.3-4.9c-1.4-1.3-3.7-1.2-4.9,0.3l-4.1,4.6c-1.3-0.6-2.7-0.9-4.2-0.9c-5.8,0-10.6,4.7-10.6,10.6
			c0,1.9,0.5,3.6,1.4,5.1l-6.4,7h-55.2c-1.8,0-3.5,1.3-4.2,3c-0.7,1.7-0.3,3.7,1.1,5l38.8,36.9l0.6,0.4l-0.6-0.3h-59.5l-4.4-5.6
			l-6.9-8.7l-15.8-20.1c-3.7-5-7.7-6-10.4-6c-4,0-7.6,2.3-9.7,6.2c-2.5,4.6-2.2,10.1,0.7,14.5c0.1,0.2,0.2,0.3,0.3,0.4l27.2,31.6
			l-6.2,21.7c-0.7,2.4,0.7,4.9,3.1,5.6c0.4,0.1,0.8,0.2,1.2,0.2c2,0,3.8-1.3,4.3-3.3l4.6-16.1l0,0l0.4,0.2c0.9,1,2.1,1.4,3.4,1.4
			H153v12.3c0,2.8,2.2,5,5,5s5-2.2,5-5V236h41v0.4v8.6h-5c-2.5,0-4.5,2-4.5,4.5s2,4.5,4.5,4.5h20c2.5,0,4.5-2,4.5-4.5
			s-2-4.5-4.5-4.5h-5v-9h13.5c6.2,0,10.8-4.4,10.8-10.4c0-3.1-1.3-5.9-3.5-8.1c-1.7-1.7-4.7-3.5-9.6-3.5h-8.5l-3.3,3.4
			c-0.2,0.2-0.3,0.2-0.5,0.3c0.2-0.1,0.3-0.2,0.5-0.4l3.3-3.4l35.7-37c1.3-1.3,1.6-3.4,0.9-5S251,169,249.2,169z M238.4,153.3
			c2,0,3.6,1.6,3.6,3.6s-1.6,3.6-3.6,3.6s-3.6-1.6-3.6-3.6S236.4,153.3,238.4,153.3z M214.8,178l-8,9h-18.4l-9.5-9H214.8z
			 M209.3,208.6l-15-14.6H224L209.3,208.6z M137.9,227l-33-38.1c-1.1-1.9-0.8-3.7-0.2-5c0.5-0.9,1.2-1.4,1.8-1.4
			c0.7,0,1.8,0.7,3.2,2.5c0,0,0,0.1,0.1,0.1l28.5,36.2c0.9,1.1,2.2,1.7,3.5,1.7H204v4H137.9z M225.2,223c1.5,0,2.6,0.3,3.3,1
			c0.5,0.5,0.8,0.9,0.8,1.6c0,1.6-1.3,1.4-1.8,1.4H213v-4H225.2z M229.9,187h-13.8l8-9h14.4L229.9,187z"/>
		<path fill="#5980B7" d="M228.4,118.3c8.7,0,15.8-7.1,15.8-15.8s-7.1-15.8-15.8-15.8s-15.8,7.1-15.8,15.8S219.7,118.3,228.4,118.3z
			 M228.4,93.7c4.8,0,8.8,3.9,8.8,8.8s-3.9,8.8-8.8,8.8c-4.8,0-8.8-3.9-8.8-8.8S223.6,93.7,228.4,93.7z"/>
		<path fill="#5980B7" d="M224,127.3v4c0,2.5,2,4.5,4.5,4.5s4.5-2,4.5-4.5v-4c0-2.5-2-4.5-4.5-4.5S224,124.8,224,127.3z"/>
		<path fill="#5980B7" d="M228.5,80.8c2.5,0,4.5-2,4.5-4.5v-4c0-2.5-2-4.5-4.5-4.5s-4.5,2-4.5,4.5v4C224,78.8,226,80.8,228.5,80.8z"
			/>
		<path fill="#5980B7" d="M200,107h3c2.5,0,4.5-2,4.5-4.5s-2-4.5-4.5-4.5h-3c-2.5,0-4.5,2-4.5,4.5S197.5,107,200,107z"/>
		<path fill="#5980B7" d="M257,98h-4c-2.5,0-4.5,2-4.5,4.5s2,4.5,4.5,4.5h4c2.5,0,4.5-2,4.5-4.5S259.4,98,257,98z"/>
		<path fill="#5980B7" d="M207.5,116.6l-3.1,3.1c-1.8,1.8-1.8,4.6,0,6.4c0.9,0.9,2,1.3,3.2,1.3s2.3-0.4,3.2-1.3l3.1-3.1
			c1.8-1.8,1.8-4.6,0-6.4C212.1,114.9,209.2,114.9,207.5,116.6z"/>
		<path fill="#5980B7" d="M245.3,89.7c1.2,0,2.3-0.4,3.2-1.3l3.1-3.1c1.8-1.8,1.8-4.6,0-6.4c-1.8-1.8-4.6-1.8-6.4,0l-3.1,3.1
			c-1.8,1.8-1.8,4.6,0,6.4C243,89.2,244.1,89.7,245.3,89.7z"/>
		<path fill="#5980B7" d="M206.9,88.3c0.9,0.9,2,1.3,3.2,1.3s2.3-0.4,3.2-1.3c1.8-1.8,1.8-4.6,0-6.4l-3.1-3.1
			c-1.8-1.8-4.6-1.8-6.4,0c-1.8,1.8-1.8,4.6,0,6.4L206.9,88.3z"/>
		<path fill="#5980B7" d="M241.6,116.6c-1.8,1.8-1.8,4.6,0,6.4l3.1,3.1c0.9,0.9,2,1.3,3.2,1.3s2.3-0.4,3.2-1.3
			c1.8-1.8,1.8-4.6,0-6.4l-3.1-3.1C246.2,114.9,243.3,114.9,241.6,116.6z"/>
	</g>
</g>
</svg>
