<?xml version="1.0" encoding="utf-8"?>
<!-- Generator: Adobe Illustrator 18.1.1, SVG Export Plug-In . SVG Version: 6.00 Build 0)  -->
<svg version="1.1" id="Layer_1" xmlns="http://www.w3.org/2000/svg" xmlns:xlink="http://www.w3.org/1999/xlink" x="0px" y="0px"
	 viewBox="0 0 300 300" enable-background="new 0 0 300 300" xml:space="preserve">
<g>
	<path fill="none" d="M143,138.6c-6,0-11,4.3-11,9.5V162h22v-13.9C154,142.8,149,138.6,143,138.6z"/>
	<path fill="#FFFFFF" d="M177,101c-7.1,0-12.9-5.9-12.9-13s5.8-13,12.9-13h27.6c-4.7-9-14.6-15.7-25.9-15.7c-16,0-29,13.2-29,29.2
		c0,11.8,7.1,21.9,17.2,26.5c3.3-4.7,8.7-7.9,14.9-7.9h19c1.5-2,2.7-4,3.7-6H177z"/>
	<path fill="#FFFFFF" d="M177,84c-2.1,0-3.9,1.9-3.9,4c0,2.1,1.7,4,3.9,4h64.5c2.1,0,3.9-1.9,3.9-4c0-2.1-1.7-4-3.9-4H177z"/>
	<path fill="#FFFFFF" d="M216.6,220.9l-5.9-6.9c-1.3-1.5-1.5-3.7-0.4-5.4l5.7-8.9l-6.8-3.7c-1.4-0.7-2.3-2.2-2.3-3.7
		s0.6-3.1,1.9-3.9l9.3-6.4V171h-20v54.9l8.5,10.6L216.6,220.9z"/>
	<path fill="#CDCCCC" d="M180.3,135.5c-0.1-0.4-0.3-0.8-0.3-1.2v-4c0-5.2,4.6-10.3,9.8-10.3h35.3c5.2,0,8.9,5.1,8.9,10.3v4
		c0,5.2-3.7,8.7-8.9,8.7h-35.3c-3.8,0-7.2-1.9-8.7-5.1c0.7,2.7,0.9,5.9,0.9,8.8V162h10.9c0.7,0,1.4,0,2,0H233c5.6,0,10-4.1,10-9.6
		v-27.1c0-5.6-4.4-10.3-10-10.3h-51.2c-4.4,0-8.3,3-9.6,7C175.8,125.8,178.6,130.5,180.3,135.5z"/>
	<path fill="#FFFFFF" d="M225,129.4c0-0.2-0.2-0.4-0.4-0.4h-35.1c-0.2,0-0.4,0.2-0.4,0.4v4.1c0,0.2,0.2,0.4,0.4,0.4h35.1
		c0.2,0,0.4-0.2,0.4-0.4V129.4z"/>
	<path fill="#CDCCCC" d="M174,146.7c0-15.9-13.6-28.7-30.7-28.7h-0.1c-17.1,0-31.2,12.8-31.2,28.7V162h12v-13.9
		c0-9.7,8.8-18.1,19.2-18.1h0.1c10.4,0,18.8,8.4,18.8,18.1V162h12V146.7z"/>
	<path fill="#FFFFFF" d="M112,190.2c0,1.1-0.5,2.2-1.3,3l-12.7,14V240h90v-69h-76V190.2z M142.9,188.7c4.9,0,8.8,3.9,8.8,8.8
		c0,3.1-1.6,5.4-4.1,6.9l2.9,17.6h-15.3l2.9-17.6c-2.5-1.6-4.1-3.9-4.1-7C134.1,192.5,138,188.7,142.9,188.7z"/>
	<path fill="#CDCCCC" d="M69,148.9c0.6,1.7,0,3.5-1.4,4.6l-6,4.4l3.6,8.6c0.6,1.5,0.3,3.1-0.8,4.3l-10.1,10.7l6.8,14.8l11.3-6.7
		c0-0.7,0.1-1.4,0.4-2.1l6.3-13l-6.1-7.3c-1.3-1.6-1.4-3.9-0.2-5.6l4.3-5.8l-3.4-4.4c-0.6-0.8-1-1.7-1-2.7v-13.8
		c-1-0.6-2.6-1.3-3.8-2l-2.7,9L69,148.9z"/>
	<path fill="#FFFFFF" d="M92.6,200l10.4-11.5v-58.2c0-1.7,1.1-3.3,2.6-4.1c11.8-5.7,19.5-17.8,19.5-30.8c0-18.8-15.3-34.2-34.2-34.2
		c-18.8,0-34.2,15.3-34.2,34.2c0,14.6,8.7,27.2,22.3,32.1c1.8,0.6,2.9,2.3,2.9,4.2V147l4.5,5.9c1.2,1.6,1.2,3.8,0,5.4l-4.2,5.7
		l5.7,6.8c1.1,1.4,1.4,3.3,0.6,4.9l-6.3,12.9L92.6,200z M81,85.8c0-5.5,4.5-10,10-10c5.5,0,10,4.5,10,10c0,5.5-4.5,10-10,10
		C85.4,95.8,81,91.3,81,85.8z"/>
	<g>
		<path fill="#5A81B8" d="M233,107h-21.3c1-2,1.9-4,2.6-6h27.1c7.1,0,12.9-5.9,12.9-13s-5.8-13-12.9-13h-27.1
			c-5.3-14-19.3-24.7-35.7-24.7c-20.9,0-38,17.2-38,38.2c0,7.9,2.6,15.6,6.7,21.7c0,0,0,0,0,0c-1.3-0.1-2.7-0.2-4.1-0.2
			c-4.4,0-8.6,0.7-12.6,2c2.2-5.2,3.3-10.8,3.3-16.5c0-23.8-19.4-43.2-43.2-43.2c-5.4,0-10.6,1-15.3,2.8c-0.3,0.1-0.6,0.2-0.9,0.4
			c-0.2,0.1-0.4,0.2-0.6,0.2c-6.9,2.9-12.9,7.6-17.5,13.6c-0.2,0.3-0.4,0.5-0.6,0.8c0,0.1-0.1,0.1-0.1,0.2
			c-5.1,7.1-8.1,15.8-8.1,25.2c0,12.9,5.4,24.5,14.6,32.5l-3.9,12.7c-0.3,0.8-0.2,1.7,0.1,2.5l2,5.6l-6.2,4.5
			c-1.5,1.1-2,3.1-1.3,4.8l3.8,9.1l-10.1,10.8c-1.1,1.2-1.4,2.9-0.7,4.4l9.8,21.2c0.5,1,1.4,1.8,2.4,2.1c0.4,0.1,0.8,0.2,1.2,0.2
			c0.7,0,1.4-0.2,2-0.6l15.5-9.2l12.3,13.7c0,0,0,0,0,0c0.9,0.9,2,1.6,3.3,1.6c-1.3,0-2.6-0.6-3.6-1.6v34.9c0,2.5,2.4,4.3,4.9,4.3
			h99c2.5,0,4.1-1.8,4.1-4.3v-5.3l6.3,7.6c0.9,1.1,2.2,1.7,3.6,1.7c0.1,0,0.2,0,0.3,0c1.4-0.1,2.8-0.8,3.6-2.1L226,223
			c1.1-1.7,0.9-3.9-0.4-5.4l-5.9-6.9l6.5-10.1c0.7-1.1,0.9-2.3,0.6-3.5c-0.3-1.2-1.1-2.2-2.2-2.8l-4.6-2.5l5.1-3.5
			c1.2-0.8,1.9-2.2,1.9-3.7V170h6c10,0,18-7.6,18-17.6v-27.1C251,115.3,243,107,233,107z M241.5,84c2.1,0,3.9,1.9,3.9,4
			c0,2.1-1.7,4-3.9,4H177c-2.1,0-3.9-1.9-3.9-4c0-2.1,1.7-4,3.9-4H241.5z M178.7,59.3c11.3,0,21.2,6.7,25.9,15.7H177
			c-7.1,0-12.9,5.9-12.9,13s5.8,13,12.9,13h27.6c-1,2-2.3,4-3.7,6h-19c-6.1,0-11.6,3.2-14.8,7.9c-10.1-4.5-17.3-14.7-17.3-26.5
			C149.7,72.4,162.7,59.3,178.7,59.3z M143.2,118L143.2,118c17.1,0,30.8,12.8,30.8,28.7V162h-11.8H162v-13.9
			c0-9.7-8.3-18.1-18.7-18.1h-0.2c-10.4,0-19.1,8.4-19.1,18.1V162h-11.5H112v0v-15.3C112,130.8,126.1,118,143.2,118z M154,148.1V162
			h-21.4H132v-13.9c0-5.2,5-9.5,11-9.5C149,138.6,154,142.8,154,148.1z M73,187.4c-0.3,0.6-0.5,1.4-0.4,2.1l-11.3,6.7l-6.8-14.8
			l10.1-10.7c1.1-1.2,1.4-2.8,0.8-4.3l-3.6-8.6l6-4.4c1.4-1,2-2.9,1.4-4.6l-2.6-7.2l2.7-9c1.3,0.7,2.8,1.4,3.8,2v13.8
			c0,1,0.4,1.9,1,2.7l3.4,4.4l-4.3,5.8c-1.3,1.7-1.2,4,0.2,5.6l6.1,7.3L73,187.4z M92.6,200l-10.3-11.4l6.3-12.9
			c0.8-1.6,0.6-3.5-0.6-4.9l-5.7-6.8l4.2-5.7c1.2-1.6,1.1-3.8-0.1-5.4L82,147v-15.3c0-1.9-1.1-3.6-2.9-4.2
			c-13.6-4.9-22.4-17.5-22.4-32.1c0-18.8,15.3-34.2,34.2-34.2c18.8,0,34.2,15.3,34.2,34.2c0,13.1-7.7,25.2-19.5,30.8
			c-1.6,0.7-2.6,2.3-2.6,4.1v58.2L92.6,200z M188,240H98v-32.5l0.3-0.3l12.5-14c0.7-0.8,1.1-1.9,1.1-3V171h76V240z M218,182.1
			l-9.3,6.4c-1.3,0.9-2,2.4-1.9,3.9s1,3,2.4,3.7l6.8,3.7l-5.7,8.9c-1.1,1.7-0.9,3.9,0.4,5.4l5.9,6.9l-10.1,15.6l-8.5-10.6V171h20
			V182.1z M243,152.4c0,5.6-4.4,9.6-10,9.6h-38.1c1.5,1,2.2,2.5,2.2,4.3c0-1.8-0.9-3.1-2.3-3.9c-0.6-0.3-1.2-0.4-1.9-0.4h-10.6H182
			v-15.3c0-2.9-0.2-5.7-0.9-8.4c-0.1-0.4-0.2-0.9-0.3-1.3c0.1,0.4,0.3,0.5,0.4,1c1.5,3.2,4.8,5.1,8.6,5.1h35.3
			c5.2,0,8.9-3.5,8.9-8.7v-4c0-5.2-3.7-10.3-8.9-10.3h-35.3c-5.2,0-9.8,5.1-9.8,10.3v4c0,0.3,0.1,0.5,0.2,0.8
			c-1.7-4.8-4.4-9.4-7.9-13.1c1.4-4,5.1-7,9.6-7H233c5.6,0,10,4.7,10,10.3V152.4z M225,133.6c0,0.2-0.2,0.4-0.4,0.4h-35.1
			c-0.2,0-0.4-0.2-0.4-0.4v-4.1c0-0.2,0.2-0.4,0.4-0.4h35.1c0.2,0,0.4,0.2,0.4,0.4V133.6z"/>
		<path fill="#5A81B8" d="M138.2,204.4l-2.9,17.6h15.3l-2.9-17.6c2.5-1.6,4.1-3.9,4.1-7c0-4.9-3.9-8.8-8.8-8.8
			c-4.9,0-8.8,3.9-8.8,8.7C134.1,200.5,135.7,202.8,138.2,204.4z"/>
		<circle fill="#5A81B8" cx="90.9" cy="85.8" r="10"/>
	</g>
</g>
</svg>
