<?xml version="1.0" encoding="utf-8"?>
<!-- Generator: Adobe Illustrator 18.1.1, SVG Export Plug-In . SVG Version: 6.00 Build 0)  -->
<svg version="1.1" id="Layer_1" xmlns="http://www.w3.org/2000/svg" xmlns:xlink="http://www.w3.org/1999/xlink" x="0px" y="0px"
	 viewBox="0 0 300 300" enable-background="new 0 0 300 300" xml:space="preserve">
<g>
	<path fill="none" d="M149.3,84C149.3,84,149.3,84,149.3,84c0.1,0,0.1,0,0.2,0h0.5c0.1,0,0.2,0,0.3,0c0.1,0,0.1,0,0.2,0h3
		c-1.5-2-2.7-3.6-3.7-5.4c-1.1,1.9-2.4,3.4-3.9,5.4H149.3z"/>
	<path fill="none" d="M182.3,99.8c0.9-1.5,1.9-3,3.2-4.4c0.3-0.3,0.6-0.6,0.8-0.9c-0.6,0-1.2,0-1.7,0c-0.4,0-0.8,0-1.1,0
		c-0.3,0.1-0.6,0.2-0.9,0.2c-0.8,0-1.7,0.3-2.5,0.3c0,0,0,0,0,0c-0.5,0-0.9-0.1-1.3-0.1c0.1,0.2,0.3,0.3,0.4,0.5
		C180.4,96.8,181.4,98.3,182.3,99.8z"/>
	<path fill="none" d="M117.3,126.1c0.9-1.5,1.9-3,3.2-4.4c0.3-0.3,0.6-0.6,0.8-0.9c-0.6,0-1.2,0-1.7,0c-0.6,0-1.3,0-1.9,0
		c-0.1,0-0.1,0.1-0.2,0.1c-0.8,0-1.7,0.1-2.5,0.1c0,0,0,0,0,0c-0.6,0-1.1-0.1-1.7-0.1c0.3,0.3,0.5,0.5,0.8,0.8
		C115.4,123.1,116.5,124.6,117.3,126.1z"/>
	<path fill="none" d="M117.3,99.8c0.9-1.5,1.9-3,3.2-4.4c0.3-0.3,0.6-0.6,0.8-0.9c-0.6,0-1.2,0-1.7,0c-0.4,0-0.8,0-1.1,0
		c-0.3,0.1-0.6,0.2-0.9,0.2c-0.8,0-1.7,0.3-2.5,0.3c0,0,0,0,0,0c-0.5,0-0.9-0.1-1.3-0.1c0.1,0.2,0.3,0.3,0.4,0.5
		C115.4,96.8,116.4,98.3,117.3,99.8z"/>
	<path fill="none" d="M116.2,147c-0.1,0-0.2,0-0.3,0c0.4,0.7,0.8,1.3,1.2,2c0.4-0.6,0.7-1.2,1.1-1.8c-0.4,0-0.7,0-1.1,0
		C116.8,147.1,116.5,147,116.2,147z"/>
	<path fill="none" d="M181.2,147c-0.4,0-0.8,0-1.1,0c0,0,0,0,0,0c0,0,0,0-0.1,0c0.6,0.9,1.2,1.9,1.7,2.8c0.5-0.9,1-1.7,1.6-2.6
		c-0.4,0-0.8,0-1.1,0C181.8,147.1,181.5,147.1,181.2,147z"/>
	<path fill="none" d="M182.3,126.1c0.9-1.5,1.9-3,3.2-4.4c0.3-0.3,0.6-0.6,0.8-0.9c-0.6,0-1.2,0-1.7,0c-0.6,0-1.3,0-1.9,0
		c-0.1,0-0.1,0.1-0.2,0.1c-0.8,0-1.7,0.1-2.5,0.1c0,0,0,0,0,0c-0.6,0-1.1-0.1-1.7-0.1c0.3,0.3,0.5,0.5,0.8,0.8
		C180.4,123.1,181.5,124.6,182.3,126.1z"/>
	<path fill="#FFFFFF" d="M116.6,39.8c-4.5,5.1-6.6,10.3-6.3,15.3c0.4,6.2,4.4,11.2,7,13.9c4.4-4.1,6.6-8.6,6.8-13.3
		c0.2-6.4-3.4-12.2-6.2-15.8c-0.2,0-0.3,0-0.5,0C117.2,39.9,116.9,39.9,116.6,39.8z"/>
	<path fill="#FFFFFF" d="M145.7,66.6c0-0.3-0.1-0.6-0.1-0.8c-8.5,0.9-14.9,3.7-19,8.4c-3.7,4.1-4.8,9-5.2,12.3
		c3.9-0.2,7.1-0.9,9.9-2c0.2-0.1,0.5-0.2,0.8-0.3C141.1,80.1,144.4,72,145.7,66.6z"/>
	<path fill="#FFFFFF" d="M108.1,74.2c-4.2-4.7-10.7-7.6-19.3-8.4c1.4,7,6.4,19.9,24.5,20.7C112.9,83.2,111.7,78.3,108.1,74.2z"/>
	<path fill="#FFFFFF" d="M128,106.1v-7.3c-1,0.6-1.1,1.2-1.7,1.8c-3.6,4.1-4.7,9-5,12.2c3.8-0.2,6.9-0.9,9.6-1.9
		C129.2,109.9,128,108.2,128,106.1z"/>
	<path fill="#FFFFFF" d="M107.7,100.5c-0.7-0.8-1.7-1.5-2.7-2.2v7.7c0,1.9-0.6,3.7-2.1,4.6c2.8,1.1,6.1,1.9,10,2
		C112.5,109.6,111.3,104.7,107.7,100.5z"/>
	<path fill="#FFFFFF" d="M126.6,126.9c-3.7,4.1-4.8,9-5.2,12.3c0.8,0,1.6-0.1,2.4-0.2c4.1-5.9,8.1-11.9,8.7-16.7
		C130.2,123.5,128.2,125.1,126.6,126.9z"/>
	<path fill="#FFFFFF" d="M108.1,126.9c-1.6-1.9-3.7-3.4-6-4.7c0.5,4.7,4.5,10.8,8.5,16.7c0.9,0.1,1.8,0.2,2.7,0.2
		C112.9,135.9,111.7,131,108.1,126.9z"/>
	<path fill="#FFFFFF" d="M181.6,39.8c-4.5,5.1-6.6,10.3-6.3,15.3c0.4,6.2,4.4,11.2,7,13.9c4.4-4.1,6.6-8.6,6.8-13.3
		c0.2-6.4-3.4-12.2-6.2-15.8c-0.2,0-0.3,0-0.5,0C182.2,39.9,181.9,39.9,181.6,39.8z"/>
	<path fill="#FFFFFF" d="M210.8,65.9c0,0-0.1-0.1-0.1-0.1c-8.6,0.9-15,3.7-19.1,8.4c-3.7,4.1-4.8,9-5.2,12.3c4-0.2,7.3-0.9,10.1-2.1
		c0.1-0.1,0.2-0.1,0.4-0.2C206.5,80.1,209.7,71.3,210.8,65.9z"/>
	<path fill="#FFFFFF" d="M173.1,74.2c-4.2-4.7-10.7-7.6-19.3-8.4c1.4,7,6.4,19.9,24.5,20.7C177.9,83.2,176.7,78.3,173.1,74.2z"/>
	<path fill="#FFFFFF" d="M191.3,100.6c-3.6,4.1-4.7,9-5,12.2c3.8-0.2,6.9-0.9,9.6-1.9c-1.6-1-2.9-2.7-2.9-4.8v-7.3
		C192,99.4,191.9,100,191.3,100.6z"/>
	<path fill="#FFFFFF" d="M172.6,100.5c-0.9-1.1-1.6-2-3.6-2.9v8.5c0,1.8-0.4,3.4-1.8,4.4c2.9,1.3,6.4,2.1,10.6,2.3
		C177.5,109.6,176.3,104.7,172.6,100.5z"/>
	<path fill="#FFFFFF" d="M191.6,126.9c-3.7,4.1-4.8,9-5.2,12.3c0.8,0,1.6-0.1,2.4-0.2c4.1-5.9,8.1-12,8.7-16.7
		C195.2,123.5,193.2,125,191.6,126.9z"/>
	<path fill="#FFFFFF" d="M173.1,126.9c-1.9-2.1-4.2-3.8-7-5.2c0.3,4.8,4.3,10.9,8.5,17c1.2,0.2,2.4,0.3,3.7,0.4
		C177.9,135.9,176.7,131,173.1,126.9z"/>
	<path fill="#CCCCCC" d="M101.5,146.3C96,138.2,90,129.8,90,121.2V112H79v8.9c0,8.7-6,17.3-11.7,25.6c-4.6,6.6-9.3,13.4-9.3,18.1
		V187h3.9c1.8-21,15-24.8,23.1-24.8s21.4,3.8,23.1,24.8h2.9v-22.4C111,159.7,106.1,152.9,101.5,146.3z"/>
	<rect x="75" y="95" fill="#FFFFFF" width="19" height="6"/>
	<path fill="#FFFFFF" d="M85,173.2c-3.3,0-10.7-0.2-12.1,13.8h24.2C95.7,173,88.3,173.2,85,173.2z"/>
	<path fill="#CCCCCC" d="M166,146.3c-5.5-8.1-11-16.5-11-25.1V112h-12v8.9c0,8.7-6,17.3-11.7,25.6c-4.6,6.6-9.3,13.4-9.3,18.1V187h4
		c1.8-21,15-24.8,23.1-24.8s21.4,3.8,23.1,24.8h2.8v-22.4C175,159.7,170.6,152.9,166,146.3z"/>
	<rect x="139" y="95" fill="#FFFFFF" width="19" height="6"/>
	<path fill="#FFFFFF" d="M149.1,173.2c-3.3,0-10.7-0.2-12.1,13.8h24.2C159.8,173,152.4,173.2,149.1,173.2z"/>
	<path fill="#CCCCCC" d="M231,146.3c-5.5-8.1-11-16.5-11-25.1V112h-12v8.9c0,8.7-6,17.3-11.7,25.6c-4.6,6.6-9.3,13.4-9.3,18.1V187h4
		c1.8-21,15-24.8,23.1-24.8s21.4,3.8,23.1,24.8h2.7v-22.4C240,159.7,235.6,152.9,231,146.3z"/>
	<rect x="204" y="95" fill="#FFFFFF" width="19" height="6"/>
	<path fill="#FFFFFF" d="M214.1,173.2c-3.3,0-10.7-0.2-12.1,13.8h24.2C224.8,173,217.5,173.2,214.1,173.2z"/>
	<path fill="#FFFFFF" d="M48,270h203v-30H48V270z M232.1,248.6c4.3,0,7.8,3.5,7.8,7.8c0,4.3-3.5,7.8-7.8,7.8s-7.8-3.5-7.8-7.8
		C224.3,252,227.8,248.6,232.1,248.6z M68.1,248.6c4.3,0,7.8,3.5,7.8,7.8c0,4.3-3.5,7.8-7.8,7.8s-7.8-3.5-7.8-7.8
		C60.3,252,63.8,248.6,68.1,248.6z"/>
	<path fill="#FFFFFF" d="M251,228v-30H48v30H251z M232.1,206.6c4.3,0,7.8,3.5,7.8,7.8s-3.5,7.8-7.8,7.8s-7.8-3.5-7.8-7.8
		S227.8,206.6,232.1,206.6z M68.1,206.6c4.3,0,7.8,3.5,7.8,7.8s-3.5,7.8-7.8,7.8s-7.8-3.5-7.8-7.8S63.8,206.6,68.1,206.6z"/>
	<g>
		<path fill="#5980B7" d="M150.3,83.8c-0.1,0-0.2,0-0.3,0h0.5C150.4,83.8,150.4,83.8,150.3,83.8z"/>
		<path fill="#5980B7" d="M84.3,83.8C84.3,83.8,84.3,83.8,84.3,83.8l0.1,0C84.4,83.8,84.4,83.8,84.3,83.8z"/>
		<path fill="#5980B7" d="M215.5,83.8c-0.1,0-0.1,0-0.2,0c-0.1,0-0.2,0-0.3,0H215.5z"/>
		<path fill="#5980B7" d="M149.3,83.8C149.3,83.8,149.3,83.8,149.3,83.8l0.1,0C149.4,83.8,149.4,83.8,149.3,83.8z"/>
		<path fill="#5980B7" d="M262,192.4c0-3-1.7-5.4-4.8-5.4h-5.7H251v-22.4c0-8.3-5.4-16.6-10.9-24.6c-4.6-6.7-9.1-13.7-9.1-18.9v-9.9
			c0,0-0.4,0.1-0.6,0.1c2.2-0.7,3.6-2.9,3.6-5.4V89.3c0-3-1.5-5.3-4.6-5.3h-13.9H215h-4.1c6.3-7,8.5-16.3,8.5-22.4
			c0-1.1-0.7-2.2-1.4-2.9c-0.2-0.2,0-0.4-1-0.6V47.9c0-2.2-1.8-4-4-4s-4,1.8-4,4v10c-4,0.6-9,1.7-12.8,3.3c0.5-1.7,0.6-3.5,0.7-5.3
			c0.3-11.4-6.8-20.6-10.8-24.1v-8.8c0-2.2-1.8-4-4-4s-4,1.8-4,4v8.6c-7,7.7-11.4,15.8-10.9,24.1c0.1,2,0.4,3.9,0.9,5.7
			c-4.5-2-9-3.2-16-3.6v-9.8c0-2.2-1.8-4-4-4s-4,1.8-4,4v10c-4,0.6-9,1.7-12.8,3.3c0.5-1.7,0.6-3.5,0.7-5.3
			c0.3-11.4-6.8-20.6-10.8-24.1v-8.8c0-2.2-1.8-4-4-4s-4,1.8-4,4v8.6c-7,7.7-11.4,15.8-10.9,24.1c0.1,2,0.4,3.9,0.9,5.7
			c-4.5-2-9-3.2-16-3.6v-9.8c0-2.2-1.8-4-4-4s-4,1.8-4,4v15c0,4.6,4.6,15.1,9.5,21.1h-4h-0.2H69.7c-3,0-5.7,2.3-5.7,5.3v16.8
			c0,2.6,2,4.9,4,5.5v9.4c0,5.3-5,12.4-9.7,19.3c-5.5,8-11.3,16.3-11.3,24.4V187h-4.3c-3,0-5.7,2.4-5.7,5.4v83.3
			c0,3,2.6,5.3,5.7,5.3h214.6c3,0,4.8-2.2,4.8-5.3V192.4z M231,146.3c4.5,6.6,9,13.5,9,18.4V187h-2.7c-1.8-21-15-24.8-23.1-24.8
			S192.8,166,191,187h-3.3H187v-22.4c0-4.7,4.7-11.5,9.3-18.1c5.7-8.3,11.7-16.9,11.7-25.6V112h0.6h11.5H220v9.2
			C220,129.8,225.5,138.2,231,146.3z M226.2,187H202c1.4-14,8.8-13.8,12.1-13.8S224.8,173,226.2,187z M149.1,162.2
			c-8.1,0-21.4,3.8-23.1,24.8h-3.3H122v-22.4c0-4.7,4.7-11.5,9.3-18.1c5.7-8.3,11.7-16.9,11.7-25.6V112h0.6h11.5H155v9.2
			c0,8.5,5.5,16.9,11,25.1c4.5,6.6,9,13.5,9,18.4V187h-2.8C170.4,166,157.2,162.2,149.1,162.2z M161.2,187H137
			c1.4-14,8.8-13.8,12.1-13.8S159.8,173,161.2,187z M117,147.1c0.4,0,0,0,1,0v0c-1,0.6-0.7,1.2-1.1,1.8c-0.4-0.7-0.7-1.3-1.1-2
			c0,0,0.1,0,0,0c0.1,0,0.2,0,0.3,0c0,0,0,0,0,0C116.5,147,116.7,147.1,117,147.1z M116.8,147c0.2,0,0.4,0,0.7,0
			c0.3,0,0.6-0.1,0.9-0.2c0,0,0,0,0,0c-0.3,0.1-0.6,0.1-0.9,0.2C117.3,147,117.1,147,116.8,147z M117.3,126.1
			c-0.9-1.5-1.9-3-3.2-4.4c-0.2-0.3-0.7-0.5-1-0.8c0.5,0,1.3,0.1,1.9,0.1c0,0,0,0,0,0c0.8,0,1.6-0.1,2.5-0.1c0.1,0,0.1,0,0.2,0
			c0.6,0,1.3,0,1.9,0c0.6,0,1.1,0,1.7,0c-0.3,0.3-0.6,0.6-0.8,0.9C119.2,123.1,118.2,124.6,117.3,126.1z M107.9,126.9
			c3.7,4.1,4.9,9,5.2,12.3c-0.9,0-1.8-0.1-2.6-0.2c0,0,0,0,0,0c-4.1-6-8.3-12-8.8-16.7c0-0.3-0.3-0.7-0.3-1c0,0.3,0.3,0.6,0.3,1
			C104.2,123.5,106.3,125,107.9,126.9z M102.9,110.8c1.5-1,2.1-2.8,2.1-4.7v-7.7c1,0.7,2,1.4,2.7,2.2c3.7,4.1,4.9,9,5.3,12.3
			C109.1,112.6,105.6,111.9,102.9,110.8z M120.5,95.3c-1.3,1.4-2.3,2.9-3.2,4.4c-0.9-1.5-1.9-3-3.2-4.4c-0.1-0.2-0.3-0.3-0.4-0.4
			c0.4,0,0.9,0.1,1.3,0.1c0,0,0,0,0,0c0.8,0,1.6-0.3,2.5-0.3c0.3,0,0.6-0.1,0.9-0.2c0.4,0,0.8,0,1.1,0c0.5,0,1.3,0,1.8,0
			C121.1,94.7,120.8,95,120.5,95.3z M126.3,100.6c0.6-0.6,0.7-1.2,1.7-1.8v7.3c0,2,1.3,3.8,2.9,4.8c0.1,0.1,0.4,0.1,0.5,0.2
			c-0.2-0.1-0.3-0.1-0.5-0.2c-2.7,1-6,1.7-9.8,1.9C121.5,109.6,122.7,104.7,126.3,100.6z M126.6,126.9c1.6-1.8,3.6-3.4,5.9-4.6
			c0.1-0.4,0.1-0.9,0.1-1.3c0,0.4,0,0.9-0.1,1.3c-0.7,4.8-4.6,10.8-8.7,16.7c0,0,0,0,0,0c-0.8,0.1-1.5,0.2-2.4,0.2
			C121.7,135.9,122.9,131,126.6,126.9z M175.4,140.1c-0.3-0.4-0.6-0.9-0.9-1.3c-4.2-6.1-8-12.3-8.2-17c0-0.2,0.2-0.4,0.2-0.5
			c0,0.2-0.2,0.3-0.2,0.5c2.8,1.3,5,3.1,6.9,5.2c3.7,4.1,4.8,9,5.1,12.3c-1.3-0.1-2.5-0.2-3.7-0.4
			C174.9,139.2,175.2,139.6,175.4,140.1c1.6,2.3,3.1,4.6,4.6,6.9c0,0,0,0,0.1,0c0,0,0,0,0,0c0.4,0,0.7,0,1.1,0
			c0.3,0.1,0.5,0.1,0.8,0.1c0.4,0,1,0,1,0v0c0,0.9-1,1.7-1.5,2.6c-0.5-0.9-1-1.9-1.6-2.8C178.4,144.6,177,142.3,175.4,140.1z
			 M166.5,111.3 M169,106.1v-8.5c2,0.9,2.7,1.8,3.6,2.9c3.7,4.1,5.1,9,5.4,12.3c-4.2-0.2-7.6-1-10.5-2.3
			C167.3,110.7,169,109.5,169,106.1z M182.3,126.1c-0.9-1.5-1.9-3-3.2-4.4c-0.2-0.3-0.3-0.5-0.5-0.8c0.5,0,0.9,0.1,1.4,0.1
			c0,0,0,0,0,0c0.8,0,1.6-0.1,2.5-0.1c0.1,0,0.1,0,0.2,0c0.6,0,1.3,0,1.9,0c0.6,0,1.1,0,1.7,0c-0.3,0.3-0.5,0.6-0.8,0.9
			C184.2,123.1,183.2,124.6,182.3,126.1z M185.5,95.3c-1.3,1.4-2.3,2.9-3.2,4.4c-0.9-1.5-1.9-3-3.2-4.4c-0.1-0.2-0.3-0.3-0.4-0.4
			c0.4,0,0.9,0.1,1.3,0.1c0,0,0,0,0,0c0.8,0,1.6-0.3,2.5-0.3c0.3,0,0.6-0.1,0.9-0.2c0.4,0,0.8,0,1.1,0c0.6,0,1.8,0,1.8,0
			C186.1,94.7,185.8,95,185.5,95.3z M191.3,100.6c0.6-0.6,0.7-1.3,1.7-1.8v7.3c0,2,1.3,3.8,2.9,4.8c0.1,0.1,0.4,0.1,0.5,0.2
			c-0.2-0.1-0.3-0.1-0.5-0.2c-2.7,1.1-6,1.7-9.8,1.9C186.5,109.6,187.7,104.7,191.3,100.6z M191.6,126.9c1.6-1.8,3.6-3.4,5.9-4.7
			c0.1-0.4,0-0.9,0-1.3c0,0.4,0,0.9,0,1.3c-0.6,4.8-4.6,10.8-8.7,16.7c0,0,0,0,0,0c-0.8,0.1-1.6,0.2-2.4,0.2
			C186.7,135.9,187.9,131,191.6,126.9z M223,95v6h-19v-6H223z M210.7,65.8c0,0,0.1,0.1,0.1,0.1c-1.1,5.4-4.4,14.2-14,18.4
			c-0.1,0-0.2,0.1-0.2,0.1c0,0,0,0,0,0c-2.8,1.1-6.3,1.9-10.3,2.1c0.3-3.2,1.5-8.1,5.2-12.3C195.7,69.5,202.1,66.7,210.7,65.8z
			 M181.6,39.8c0.3,0.1,0.6,0.1,0.9,0.1c0.2,0,0.3,0,0.5,0c2.8,3.6,6.4,9.4,6.2,15.8c-0.2,4.7-2.4,9.2-6.8,13.3
			c-2.6-2.6-6.7-7.6-7-13.9C175.1,50.1,177.2,44.9,181.6,39.8z M173.1,74.2c3.7,4.1,4.8,9,5.2,12.3c-18.1-0.8-23.1-13.7-24.5-20.7
			C162.4,66.6,168.9,69.5,173.1,74.2z M149.7,78.5c1,1.9,2.3,3.5,3.7,5.5h-3H150h-0.5h-0.2h-3.4C147.4,82,148.7,80.4,149.7,78.5z
			 M158,95v6h-19v-6H158z M145.6,65.8c0,0.2,0.1,0.4,0.1,0.7c-1.2,5.4-4.6,13.8-13.6,17.7c-0.2,0.1-0.6,0.2-0.8,0.3
			c-2.8,1.1-6,1.8-9.8,2c0.3-3.2,1.5-8.1,5.2-12.3C130.7,69.5,137.1,66.7,145.6,65.8z M116.6,39.8c0.3,0.1,0.6,0.1,0.9,0.1
			c0.2,0,0.3,0,0.5,0c2.8,3.6,6.4,9.4,6.2,15.8c-0.2,4.7-2.4,9.2-6.8,13.3c-2.6-2.6-6.7-7.6-7-13.9
			C110.1,50.1,112.2,44.9,116.6,39.8z M108.1,74.2c3.7,4.1,4.8,9,5.2,12.3c-18.1-0.8-23.1-13.7-24.5-20.7
			C97.4,66.6,103.9,69.5,108.1,74.2z M75,95h19v6H75V95z M58,164.6c0-4.7,4.7-11.5,9.3-18.1C73,138.2,79,129.6,79,120.9V112h11v9.2
			c0,8.5,6,16.9,11.5,25.1c4.5,6.6,9.5,13.5,9.5,18.4V187h0.5h-3.3c-1.8-21-15-24.8-23.1-24.8S63.6,166,61.9,187h-3.3H58V164.6z
			 M97.1,187H72.9c1.4-14,8.8-13.8,12.1-13.8S95.7,173,97.1,187z M251,270H48v-30h203V270z M251,228H48v-30h203V228z"/>
		<circle fill="#5980B7" cx="68.1" cy="214.3" r="7.8"/>
		<circle fill="#5980B7" cx="68.1" cy="256.3" r="7.8"/>
		<circle fill="#5980B7" cx="232.1" cy="214.3" r="7.8"/>
		<circle fill="#5980B7" cx="232.1" cy="256.3" r="7.8"/>
	</g>
</g>
</svg>
