<?xml version="1.0" encoding="utf-8"?>
<!-- Generator: Adobe Illustrator 18.1.1, SVG Export Plug-In . SVG Version: 6.00 Build 0)  -->
<svg version="1.1" id="Layer_1" xmlns="http://www.w3.org/2000/svg" xmlns:xlink="http://www.w3.org/1999/xlink" x="0px" y="0px"
	 viewBox="0 0 300 300" enable-background="new 0 0 300 300" xml:space="preserve">
<g>
	<path fill="#CCCCCC" d="M250.4,245.2l14.6-17.5c-2.9-2.6-8.4-6.2-17.3-7.7c-3.5,6.4-7.9,12.2-13,17.3
		C240.5,238.9,245.8,241.5,250.4,245.2z"/>
	<path fill="#FFFFFF" d="M190.9,125.7c1,0.1,2,0.3,3,0.5c5.2,1.4,9.6,4.7,12.3,9.4c2.7,4.7,3.4,10.1,2.1,15.3
		c-2.3,8.8-10.4,15-19.5,15c-1.7,0-3.5-0.2-5.2-0.7c-0.1,0-0.2-0.1-0.3-0.1l-0.9,4.2c0.6,0.1,1.1,0.2,1.7,0.3c3.6,1,6.7,3.3,8.6,6.5
		c1.9,3.3,2.4,7,1.4,10.7c-0.5,2-1.3,3.7-2.5,5.2c0.2,0.6,0.5,1.3,0.5,2v6.1c0,0,0.4,0,0.6,0c1.7,0,3.4,0.2,5.1,0.7
		c5.2,1.4,9.5,4.7,12.2,9.4c2.7,4.7,3.4,10.1,2,15.3c-2.3,8.8-10.2,15-19.3,15c-0.3,0-0.6,0-0.6,0v5.2c0,0.8-0.2,1.6-0.4,2.3
		c25-4.3,45.7-22.8,52.4-48c4.5-17,2.1-34.7-6.7-49.9s-23.1-26-40.1-30.5c-1.9-0.5-3.9-0.9-5.8-1.3c0,0.6,0.1,1.2,0.1,1.8
		C191.4,121.9,191.2,123.8,190.9,125.7z M222.7,161.8c5.2,1.4,9.6,4.7,12.3,9.4c2.7,4.7,3.4,10.1,2.1,15.3c-2.3,8.8-10.4,15-19.5,15
		c-1.7,0-3.5-0.2-5.2-0.7c-5.2-1.4-9.6-4.7-12.3-9.4c-2.7-4.7-3.4-10.1-2.1-15.3c2.3-8.8,10.4-15,19.5-15
		C219.2,161.1,221,161.4,222.7,161.8z"/>
	<path fill="#FFFFFF" d="M208.7,179c-0.6,2.4-0.3,4.8,0.9,6.9c1.2,2.1,3.2,3.6,5.6,4.3c0.8,0.2,1.6,0.3,2.4,0.3
		c4.1,0,7.8-2.8,8.8-6.8c0.6-2.4,0.3-4.8-0.9-6.9c-1.2-2.1-3.2-3.6-5.6-4.3c-0.8-0.2-1.6-0.3-2.4-0.3
		C213.4,172.1,209.7,174.9,208.7,179z"/>
	<path fill="#FFFFFF" d="M201.3,222.6c0.6-2.4,0.3-4.8-0.9-6.9c-1.2-2.1-3.2-3.6-5.6-4.3c-0.8-0.2-1.4-0.3-2.2-0.3
		c-0.3,0-0.6,0-0.6,0v18.2c0,0,0.4,0.1,0.6,0.1C196.8,229.4,200.3,226.6,201.3,222.6z"/>
	<path fill="#FFFFFF" d="M188.7,154.9c4.1,0,7.8-2.8,8.8-6.8c0.6-2.4,0.3-4.8-0.9-6.9s-3.2-3.6-5.6-4.3c-0.5-0.1-1-0.2-1.5-0.3
		l-3.9,17.7c0.2,0.1,0.5,0.2,0.7,0.2C187.1,154.8,187.9,154.9,188.7,154.9z"/>
	<path fill="#FFFFFF" d="M183.4,184c0.2-0.8,0.1-1.6-0.3-2.3c-0.4-0.7-1.1-1.2-1.9-1.4c-0.3-0.1-0.5-0.1-0.8-0.1c-0.2,0-0.3,0-0.5,0
		l-1.2,5.6c0.3,0.2,0.6,0.3,0.9,0.4C181.2,186.7,182.9,185.7,183.4,184z"/>
	<path fill="#FFFFFF" d="M162.6,100.1c-1.7-0.2-3.3-1.2-4.2-2.7s-1-3.4-0.3-5c1.2-2.6,1.7-5.3,1.7-8.1c0-11-9-20-20-20
		c-2.1,0-4.2,0.3-6.3,1c-2.6,0.9-5.5-0.4-6.7-2.9c-3.3-7-10.4-11.5-18.1-11.5c-8.1,0-15.4,4.9-18.5,12.4c-0.6,1.4-1.7,2.5-3.1,3
		s-3,0.5-4.3-0.1c-2.7-1.3-5.5-1.9-8.4-1.9c-11,0-20,9-20,20c0,3.5,1,7,2.7,10.1c0.8,1.3,1,2.9,0.5,4.4c-0.4,1.5-1.5,2.7-2.8,3.4
		c-6.9,3.4-11.1,10.3-11.1,17.9c0,2.1,0.3,4,0.9,6h134.7c0.6-2,0.9-3.9,0.9-6C180.4,109.8,172.8,101.2,162.6,100.1z M93.9,105.4
		c-0.5,0.1-5,0.7-5,4.8c0,1.1-0.9,2-2,2s-2-0.9-2-2c0-4.2-4.8-4.8-5-4.8c-1-0.1-1.8-1-1.8-2c0-1,0.8-1.9,1.8-2c0.5,0,5-0.6,5-4.8
		c0-1.1,0.9-2,2-2s2,0.9,2,2c0,4.6,4.3,4.8,4.8,4.8c1.1,0,1.9,0.9,2,1.9S94.9,105.3,93.9,105.4z M115.9,82.9c-0.5,0.1-5,0.7-5,4.8
		c0,1.1-0.9,2-2,2s-2-0.9-2-2c0-4.1-4.5-4.8-5-4.8c-1-0.1-1.8-1-1.7-2c0-1,0.8-1.9,1.8-1.9c0.5,0,5-0.6,5-4.8c0-1.1,0.9-2,2-2
		s2,0.9,2,2c0,4.6,4.3,4.8,4.8,4.8c1.1,0,1.9,0.9,2,1.9S116.9,82.7,115.9,82.9z M127,110.2c0-4.2-4.8-4.8-5-4.8c-1-0.1-1.8-1-1.8-2
		c0-1,0.8-1.9,1.8-2c0.5,0,5-0.6,5-4.8c0-1.1,0.9-2,2-2c1.1,0,2,0.9,2,2c0,4.6,4.3,4.8,4.8,4.8c1.1,0,1.9,0.9,2,1.9s-0.7,2-1.8,2.1
		c-0.5,0.1-5,0.7-5,4.8c0,1.1-0.9,2-2,2C127.9,112.2,127,111.3,127,110.2z"/>
	<polygon fill="#CCCCCC" points="179.5,136 146,136 139.1,189 167.8,189 	"/>
	<polygon fill="#CCCCCC" points="78.2,136 44.5,136 53.7,189 85.2,189 	"/>
	<polygon fill="#FFFFFF" points="134.7,138 89.6,138 96.2,189 128,189 	"/>
	<polygon fill="#FFFFFF" points="107.3,233.2 103.7,245.1 111.1,245 	"/>
	<path fill="#FFFFFF" d="M123.2,246.6c0.5,1.5,1.8,2.4,3.4,2.4h50.6c2,0,3.9-1.4,3.9-3.4V200H33.4l1,45.8c0,1.9,1.6,3.2,3.5,3.2
		h50.5c1.6,0,2.9-0.9,3.4-2.4l5.4-17.7c1.4-4.5,5.5-7.5,10.2-7.5c4.7,0,8.7,3,10.1,7.4L123.2,246.6z M97.5,210.6l-9.9,31
		c-0.7,2.1-2.6,3.5-4.8,3.5H46c-2.6,0-4.8-2-5-4.7l-1.8-31c-0.1-1.4,0.4-2.7,1.4-3.7c0.9-1,2.3-1.6,3.6-1.6h48.6
		c1.6,0,3.1,0.8,4,2.1S98,209,97.5,210.6z M117,210.2c-0.5-1.7-0.2-3.5,0.8-4.9c1-1.4,2.7-2.3,4.4-2.3h48.6c1.5,0,3,0.6,4,1.7
		c1,1.1,1.6,2.6,1.5,4.1l-1.8,31c-0.2,2.9-2.6,5.2-5.5,5.2h-36.8c-2.4,0-4.5-1.5-5.2-3.8L117,210.2z"/>
	<polygon fill="#CCCCCC" points="49.5,214 50.7,235 79.2,235 85.9,214 	"/>
	<polygon fill="#FFFFFF" points="129.8,214 136.2,234 163.8,234 165,214 	"/>
	<g>
		<path fill="#5980B7" d="M198,176.1c-1.4,5.2-0.6,10.6,2.1,15.3c2.7,4.7,7.1,8,12.3,9.4c1.7,0.4,3.4,0.7,5.2,0.7
			c9.1,0,17.1-6.2,19.5-15c1.4-5.2,0.6-10.6-2.1-15.3c-2.7-4.7-7.1-8-12.3-9.4c-1.7-0.4-3.4-0.7-5.2-0.7
			C208.4,161.1,200.4,167.3,198,176.1z M208.7,179c1.1-4,4.7-6.8,8.8-6.8c0.8,0,1.6,0.1,2.4,0.3c2.4,0.6,4.3,2.1,5.6,4.3
			c1.2,2.1,1.6,4.6,0.9,6.9c-1.1,4-4.7,6.8-8.8,6.8c-0.8,0-1.6-0.1-2.4-0.3c-2.4-0.6-4.3-2.1-5.6-4.3
			C208.4,183.8,208,181.3,208.7,179z"/>
		<path fill="#5980B7" d="M276.8,224.5c-0.4-0.5-7.4-10.9-24.5-14.8c0.8-2.3,1.6-4.6,2.2-7c5.3-19.8,2.5-40.5-7.8-58.2
			c-10.3-17.7-26.9-30.4-46.7-35.7c-3.7-1-7.5-1.7-11.3-2.1c0,0,0,0,0,0c-3.6-7.5-10.3-13.4-18.4-16.1c0.4-2.1,0.6-4.2,0.6-6.3
			c0-17.1-13.9-31-31-31c-1.8,0-3.5,0.2-5.3,0.5c-5.7-8.5-15.4-13.8-25.8-13.8c-10.8,0-20.6,5.5-26.2,14.5c-2.6-0.7-5.4-1.1-8.1-1.1
			c-17.1,0-31,13.9-31,31c0,3.7,0.7,7.3,1.9,10.7c-7.9,5.8-12.6,14.9-12.6,25c0,3,0.4,6,1.3,8.7c0.2-0.3,0.4-0.6,0.6-0.9
			c-0.3,0.3-0.5,0.6-0.6,1c-0.5,0.9-0.6,2.2-0.5,3.3l9.9,57H27.8c-1.5,0-2.9,0.4-3.9,1.4c-1,1.1-1.6,2.4-1.6,3.9l1.1,51.6
			c0.2,7.9,6.7,14.1,14.5,14.1h50.5c3.9,0,7.5-1.4,10.1-4l17.8-0.2c2.7,2.7,6.3,4.2,10.3,4.2h50.6c1,0,1.9,0,2.9-0.2
			c2.6-0.5,4.9-1.7,6.8-3.4c-1.9,1.7-4.2,2.9-6.9,3.4c0.1,0,0.3,0,0.4,0c15.7,0,30.5-4.8,42.8-13.1c9.9,0.4,17.8,3.8,23.6,10.2
			c1,1.1,2.5,1.8,4.1,1.8c0,0,0.1,0,0.1,0c1.6,0,3.1-0.8,4.1-2l21.4-25.7C278,229.2,278.1,226.6,276.8,224.5z M189.6,136.6
			L189.6,136.6c0.5,0,1,0.1,1.5,0.2c2.4,0.6,4.3,2.1,5.6,4.3s1.6,4.6,0.9,6.9c-1.1,4-4.7,6.8-8.8,6.8c-0.8,0-1.6-0.1-2.4-0.3
			c-0.2-0.1-0.5-0.1-0.7-0.2L189.6,136.6z M55,102.1c1.4-0.7,2.4-1.9,2.8-3.4c0.4-1.5,0.2-3-0.5-4.4c-1.8-3.1-2.7-6.6-2.7-10.1
			c0-11,9-20,20-20c2.9,0,5.8,0.6,8.4,1.9c1.4,0.6,2.9,0.7,4.3,0.1s2.5-1.6,3.1-3c3.1-7.5,10.4-12.4,18.5-12.4
			c7.7,0,14.8,4.5,18.1,11.5c1.2,2.5,4.1,3.8,6.7,2.9c2-0.7,4.2-1,6.3-1c11,0,20,9,20,20c0,2.8-0.6,5.5-1.7,8.1
			c-0.7,1.6-0.6,3.5,0.3,5s2.4,2.5,4.2,2.7c10.1,1.1,17.8,9.7,17.8,19.9c0,2.1-0.3,4-0.9,6H44.8c-0.6-2-0.9-3.9-0.9-6
			C43.8,112.4,48.1,105.5,55,102.1z M179,138l-11.2,51h-28.7l6.7-51H179z M134.7,138l-6.7,51H96.2l-6.7-51H134.7z M85.2,189H53.7
			l-8.8-51h33.6L85.2,189z M103.7,245.1l3.6-11.9l3.8,11.8l0,0L103.7,245.1z M181,245.6c0,2-1.9,3.4-3.9,3.4h-50.6
			c-1.5,0-2.9-0.9-3.4-2.4l-5.7-17.8c-1.4-4.4-5.5-7.4-10.1-7.4c-4.7,0-8.8,3-10.2,7.6l-5.4,17.6c-0.5,1.5-1.8,2.4-3.4,2.4H37.9
			c-1.9,0-3.5-1.3-3.5-3.2l-1-45.8H181V245.6z M183.4,184c-0.4,1.6-2.1,2.6-3.8,2.2c-0.3-0.1-0.6,0-0.9-0.2l1.2-5.7l0-0.1
			c0.1,0,0.3,0,0.5,0c0.3,0,0.5,0,0.8,0.1c0.8,0.2,1.5,0.7,1.9,1.4C183.5,182.4,183.6,183.2,183.4,184z M191.6,247.9
			c0.1-0.8,0.4-1.5,0.4-2.3v-5.2c0,0,0.4,0,0.6,0c9.1,0,17-6.2,19.4-15c1.4-5.2,0.6-10.6-2.1-15.3c-2.7-4.7-7.1-8-12.3-9.4
			c-1.7-0.4-3.3-0.7-5-0.7c-0.3,0-0.6,0-0.6,0v-6.1c0-0.7-0.3-1.1-0.5-1.7c0,0-0.1,0-0.1,0c1.2-1.5,2.1-3.4,2.6-5.3
			c1-3.6,0.4-7.6-1.4-10.8c-1.9-3.3-4.9-5.6-8.6-6.5c-0.5-0.1-1.1-0.3-1.7-0.3l0.9-4.2l0,0c0.1,0,0.2,0.1,0.3,0.1
			c1.7,0.4,3.4,0.7,5.2,0.7c9.1,0,17.1-6.2,19.5-15c1.4-5.2,0.6-10.6-2.1-15.3c-2.7-4.7-7.1-8-12.3-9.4c-1-0.3-2-0.4-3-0.5
			c0.3-1.8,0.5-3.7,0.5-5.7c0-0.6,0-1.2-0.1-1.8c0,0,0,0,0,0c0,0,0,0,0,0c2,0.3,3.9,0.8,5.8,1.3c17,4.5,31.2,15.3,40,30.5
			s11.3,32.9,6.8,49.9C237.3,225.1,216.6,243.6,191.6,247.9z M192,229.4v-18.2c0,0,0.4,0,0.6,0c0.8,0,1.5,0.1,2.3,0.3
			c2.4,0.6,4.3,2.1,5.5,4.3c1.2,2.1,1.5,4.6,0.9,6.9c-1.1,4-4.6,6.8-8.7,6.8C192.4,229.4,192,229.4,192,229.4z M250.4,245.2
			c-4.6-3.7-9.8-6.3-15.7-7.9c5.1-5.1,9.5-10.9,13-17.3c8.8,1.6,14.3,5.2,17.3,7.7L250.4,245.2z"/>
		<path fill="#5980B7" d="M79.8,105.4c0.2,0,5,0.6,5,4.8c0,1.1,0.9,2,2,2s2-0.9,2-2c0-4.1,4.5-4.8,5-4.8c1-0.1,1.8-1,1.8-2.1
			s-0.9-1.9-2-1.9c-0.5,0-4.8-0.2-4.8-4.8c0-1.1-0.9-2-2-2s-2,0.9-2,2c0,4.3-4.5,4.8-5,4.8c-1,0.1-1.8,0.9-1.8,2
			C78,104.4,78.8,105.3,79.8,105.4z"/>
		<path fill="#5980B7" d="M121.9,105.4c0.2,0,5,0.6,5,4.8c0,1.1,0.9,2,2,2c1.1,0,2-0.9,2-2c0-4.1,4.5-4.8,5-4.8c1-0.1,1.8-1,1.8-2.1
			s-0.9-1.9-2-1.9c-0.5,0-4.8-0.2-4.8-4.8c0-1.1-0.9-2-2-2c-1.1,0-2,0.9-2,2c0,4.3-4.5,4.8-5,4.8c-1,0.1-1.8,0.9-1.8,2
			C120.2,104.4,120.9,105.3,121.9,105.4z"/>
		<path fill="#5980B7" d="M101.8,82.9c0.5,0.1,5,0.8,5,4.8c0,1.1,0.9,2,2,2s2-0.9,2-2c0-4.1,4.5-4.8,5-4.8c1-0.1,1.8-1,1.8-2.1
			s-0.9-1.9-2-1.9c-0.5,0-4.8-0.2-4.8-4.8c0-1.1-0.9-2-2-2s-2,0.9-2,2c0,4.3-4.5,4.8-5,4.8c-1,0.1-1.8,0.9-1.8,1.9
			C100,81.8,100.8,82.7,101.8,82.9z"/>
		<path fill="#5980B7" d="M46,245h36.8c2.2,0,4.1-1.4,4.8-3.5l9.9-31c0.5-1.5,0.2-3.2-0.7-4.5s-2.4-2.1-4-2.1H44.2
			c-1.4,0-2.7,0.6-3.6,1.6c-0.9,1-1.4,2.4-1.4,3.7l1.8,31C41.2,243,43.4,245,46,245z M85.9,214l-6.7,21H50.7l-1.2-21H85.9z"/>
		<path fill="#5980B7" d="M126.9,241.2c0.7,2.3,2.8,3.8,5.2,3.8H169c2.9,0,5.3-2.3,5.5-5.2l1.8-31c0.1-1.5-0.4-3-1.5-4.1
			c-1-1.1-2.5-1.7-4-1.7h-48.6c-1.8,0-3.4,0.9-4.4,2.3c-1,1.4-1.3,3.2-0.8,4.9L126.9,241.2z M165,214l-1.2,20h-27.6l-6.4-20H165z"/>
	</g>
</g>
</svg>
