<?xml version="1.0" encoding="utf-8"?>
<!-- Generator: Adobe Illustrator 18.1.1, SVG Export Plug-In . SVG Version: 6.00 Build 0)  -->
<svg version="1.1" id="Layer_1" xmlns="http://www.w3.org/2000/svg" xmlns:xlink="http://www.w3.org/1999/xlink" x="0px" y="0px"
	 viewBox="0 0 300 300" enable-background="new 0 0 300 300" xml:space="preserve">
<g>
	<path fill="none" d="M125.5,227.1c0.3,0.9,0.6,1.9,0.8,2.9h8.8c0.2-1,0.5-1.9,0.8-2.9c0.4-1.1,0.9-2.1,1.5-3.1h-13.4
		C124.5,225,125,226,125.5,227.1z"/>
	<path fill="#FFFFFF" d="M192.7,131.4c0.6,0,1.1,0,1.7,0c14.2,0,26.9-7.3,34.1-18.6c-6.2,3.4-13.2,5.2-20.4,5.2
		c-9.2,0-17.7-2.9-24.6-7.8c2.8,4.2,5.2,8.7,6.9,13.5c0.2,0.4,0.4,0.9,0.5,1.3C191.6,127.1,192.2,129.2,192.7,131.4z"/>
	<path fill="#FFFFFF" d="M168.2,59.9c-7.8,6.6-12.9,16-14.1,26.5c6.1,2.5,11.8,5.9,16.8,10c-3.6-6.2-5.6-13.4-5.6-21.1
		C165.3,69.9,166.3,64.7,168.2,59.9z"/>
	<path fill="#FFFFFF" d="M135,199c4.4-2.1,8.6-6.7,12-13.4c1.8-3.5,3.3-7.6,4.6-11.6H135V199z"/>
	<path fill="#FFFFFF" d="M147,106.4c-3.5-6.7-7.7-11.4-12-13.5V121h17.4C151.1,116,149.2,110.7,147,106.4z"/>
	<path fill="#FFFFFF" d="M106.7,97.1C96.1,102.2,87.5,111,82.1,121h15.1C99.3,112,102.6,103.5,106.7,97.1z"/>
	<path fill="#FFFFFF" d="M108.3,174c1.2,4,2.8,8.1,4.6,11.6c3.5,6.8,7.7,11.4,12.2,13.5V174H108.3z"/>
	<path fill="#FFFFFF" d="M112.8,106.4c-2.2,4.3-4,9.6-5.4,14.6H125V92.9C120.6,94.9,116.3,99.6,112.8,106.4z"/>
	<path fill="#FFFFFF" d="M154.4,131H135v33h18.9c1-6,1.5-11.8,1.5-18C155.4,140.9,155,136,154.4,131z"/>
	<path fill="#FFFFFF" d="M106.7,195c-3.7-5.7-6.7-13-8.8-21H83.7C89.2,183,97.2,190.4,106.7,195z"/>
	<path fill="#FFFFFF" d="M153,195.2c5.1-2.4,9.7-5.5,13.8-9.2l-6.5-6.2C158.3,185.6,155.8,190.8,153,195.2z"/>
	<path fill="#FFFFFF" d="M105.5,131c-0.7,5-1,9.9-1,15c0,6.2,0.5,12,1.5,18h19v-33H105.5z"/>
	<path fill="#FFFFFF" d="M95.8,164c-0.9-6-1.4-11.7-1.4-18c0-5.2,0.3-10,0.9-15H78c-1.4,5-2.1,9.8-2.1,15c0,6.3,1.1,12.4,3.1,18
		c0,0,0,0,0,0H95.8z"/>
	<path fill="#FFFFFF" d="M162.7,121h15.6c-5.5-11-14.5-19.1-25.3-24.2C157.2,103.3,160.5,111,162.7,121z"/>
	<path fill="#FFFFFF" d="M164.5,131c0.6,5,0.9,9.8,0.9,15c0,6.3-0.5,12-1.4,18h17.3c2-6,3.1-11.7,3.1-18c0-5.2-0.8-10-2.1-15H164.5z
		"/>
	<path fill="#CCCCCC" d="M61.9,99c-2-1-3.9-2.6-5.2-4.8c-1.4,2.1-3.3,3.6-5.3,4.6c2,1.1,4,2.7,5.4,4.8C58.1,101.6,60,100,61.9,99z"
		/>
	<path fill="#CCCCCC" d="M104.2,63.5c0.6,0.4,1.2,0.9,1.7,1.5c0.5-0.5,1-1,1.6-1.4c-0.6-0.4-1.1-0.9-1.6-1.5
		C105.3,62.6,104.7,63.1,104.2,63.5z"/>
	<polygon fill="#FFFFFF" points="229.4,185 240,174 222.7,174 213,185 	"/>
	<path fill="#FFFFFF" d="M213.3,174H186h-17.3l11.6,11h23.6c0.1,0,0.3-0.6,0.5-0.9L213.3,174z"/>
	<path fill="#FFFFFF" d="M239.1,154.2c2.6,0,4.8-2.1,4.8-4.8s-2.1-4.8-4.8-4.8s-4.8,2.1-4.8,4.8S236.5,154.2,239.1,154.2z"/>
	<polygon fill="#CCCCCC" points="184.8,193 205.9,213.1 224.9,193 	"/>
	<path fill="#CCCCCC" d="M175.1,229.5c-2.5-3-7-4.7-13.3-5.2c-1.7-0.1-3.3-0.2-4.8-0.2c-11.6,0-13,4-13.6,5.7c0,0.1,0,0.2-0.1,0.2
		h32.1C175.3,230,175.2,229.7,175.1,229.5z"/>
	<path fill="#CCCCCC" d="M157.9,253.5c0.8,0,1.6,0.1,2.4,0.1c8.8,0,13-2.6,15.1-5.6h-27.7C150.6,251,154.2,253.3,157.9,253.5z"/>
	<path fill="#CCCCCC" d="M144.6,243h32.8c0.1-1,0.1-1,0.2-1.3c0.3-2.5,0.2-4.7-0.1-6.7h-34.8C142.7,238,143.4,240,144.6,243z"/>
	<path fill="#CCCCCC" d="M104.4,224.1c-1.5,0-3.1,0.1-4.8,0.2c-6.4,0.5-10.9,2.3-13.3,5.2c-0.1,0.1-0.2,0.5-0.3,0.5H118
		c0,0,0-0.2-0.1-0.2C117.3,228.1,115.9,224.1,104.4,224.1z"/>
	<path fill="#CCCCCC" d="M83.7,241.7c0,0.5,0.1,1.3,0.2,1.3h31.7c0.1,0,0.2-0.4,0.3-0.6c1.4-2.6,2.2-5.4,2.5-7.4H83.8
		C83.5,237,83.4,239.1,83.7,241.7z"/>
	<path fill="#CCCCCC" d="M99,254C99,254,99,254,99,254c1.3,0,2.6-0.1,3.8-0.4c3-0.7,6.3-2.6,9.1-5.6H86C89,252,94.3,254,99,254z"/>
	<g>
		<path fill="#5980B7" d="M70.8,98.6c0-1.1-0.9-1.9-2-1.9c-0.4,0-10.1-0.3-10.1-10c0-1.1-0.9-2-2-2s-2,0.9-2,2c0,9.1-9.8,10-10.2,10
			c-1,0.1-1.8,0.9-1.8,1.9c0,1,0.7,1.9,1.8,2c0.4,0.1,10.3,1.4,10.3,10.1c0,1.1,0.9,2,2,2s2-0.9,2-2c0-8.7,9.8-10,10.3-10
			C70.1,100.6,70.9,99.7,70.8,98.6z M56.8,103.6c-1.4-2.1-3.3-3.7-5.4-4.8c2-1,3.9-2.5,5.3-4.6c1.3,2.2,3.2,3.7,5.2,4.8
			C60,100,58.1,101.6,56.8,103.6z"/>
		<path fill="#5980B7" d="M98.4,65.4c0.2,0,5.5,0.7,5.5,5.2c0,1.1,0.9,2,2,2s2-0.9,2-2c0-4.4,4.9-5.2,5.4-5.2c1-0.1,1.8-1,1.8-2.1
			s-0.9-1.9-1.9-1.9c-0.9,0-5.3-0.4-5.3-5.2c0-1.1-0.9-2-2-2s-2,0.9-2,2c0,4.6-4.8,5.2-5.4,5.2c-1,0.1-1.8,0.9-1.8,2
			C96.6,64.4,97.4,65.3,98.4,65.4z M105.8,62.1c0.5,0.6,1,1.1,1.6,1.5c-0.6,0.4-1.1,0.9-1.6,1.4c-0.5-0.6-1.1-1.1-1.7-1.5
			C104.7,63.1,105.3,62.6,105.8,62.1z"/>
		<path fill="#5980B7" d="M256.4,167c-0.8-1.8-2.6-3-4.6-3h-20.3l3.2-3.6c1.4,0.6,2.9,0.9,4.4,0.9c6.5,0,11.8-5.3,11.8-11.8
			c0-2.1-0.6-4.1-1.5-5.8l5.2-5.9c1.3-1.4,1.1-3.7-0.3-4.9c-1.5-1.3-3.7-1.1-4.9,0.3l-5,5.7c-1.6-0.8-3.3-1.2-5.2-1.2
			c-6.5,0-11.8,5.3-11.8,11.8c0,2.4,0.7,4.6,1.9,6.5l-7.1,8.1h-30.3c1.7-6,2.6-11.8,2.6-18c0-1.5-0.1-3.1-0.2-4.6c0.1,0,0.1,0,0.2,0
			c25.8,0,47.4-19.3,50.2-44.9c0.3-2.3-1.1-4.5-3.3-5.3c-2.2-0.8-4.6,0-5.9,1.9c-6.1,9.3-16.3,14.8-27.4,14.8
			c-18.1,0-32.8-14.7-32.8-32.8c0-9.5,4.1-18.5,11.3-24.8c1.7-1.5,2.2-4,1.2-6.1c-1.1-2.1-3.4-3.1-5.6-2.6
			c-20.1,5-34.8,21.5-37.8,41.5c-3.1-0.7-6.2-1.2-9.4-1.4v-38c0-2.8-2.2-5-5-5s-5,2.2-5,5v38c-33,2.6-59.1,30.3-59.1,64
			c0,35.3,28.5,64,63.7,64.2c0.1,0,0.2,0,0.3,0c0,0,0.1,0,0.1,0c0,0,0.1,0,0.1,0c16.7,0,32-6.4,43.4-16.9l26.4,25.2V252h-11
			c-2.8,0-5,2.2-5,5s2.2,5,5,5h33c2.8,0,5-2.2,5-5s-2.2-5-5-5h-12v-31.6l27.1-28.7c0.3-0.3,0.5-0.6,0.7-1l17.6-18.3
			C256.8,171,257.2,168.9,256.4,167z M239.1,144.7c2.6,0,4.8,2.1,4.8,4.8s-2.1,4.8-4.8,4.8s-4.8-2.1-4.8-4.8
			S236.5,144.7,239.1,144.7z M147,185.6c-3.5,6.7-7.7,11.3-12,13.4v-25h16.6C150.4,178,148.8,182.1,147,185.6z M125,199.1
			c-4.4-2-8.7-6.7-12.2-13.5c-1.8-3.5-3.3-7.6-4.6-11.6H125V199.1z M75.9,146c0-5.2,0.8-10,2.1-15h17.4c-0.6,5-0.9,9.8-0.9,15
			c0,6.3,0.5,12,1.4,18H79c0,0,0,0,0,0C77,158.4,75.9,152.3,75.9,146z M104.5,146c0-5.2,0.4-10,1-15H125v33h-19
			C105,158,104.5,152.2,104.5,146z M112.8,106.4c3.5-6.8,7.7-11.5,12.2-13.5V121h-17.5C108.8,116,110.6,110.7,112.8,106.4z
			 M153,96.8c10.9,5.1,19.8,13.2,25.3,24.2h-15.6C160.5,111,157.2,103.3,153,96.8z M155.4,146c0,6.2-0.5,12-1.5,18H135v-33h19.4
			C155,136,155.4,140.9,155.4,146z M164.5,131h17.8c1.4,5,2.1,9.8,2.1,15c0,6.3-1.1,12-3.1,18H164c0.9-6,1.4-11.7,1.4-18
			C165.4,140.8,165.1,136,164.5,131z M208.1,118c7.3,0,14.3-1.8,20.4-5.2c-7.2,11.3-19.9,18.6-34.1,18.6c-0.6,0-1.1,0-1.7,0
			c-0.5-2.2-1.1-4.3-1.8-6.4c-0.1-0.5-0.3-0.9-0.5-1.3c-1.8-4.8-4.1-9.3-6.9-13.5C190.5,115.1,199,118,208.1,118z M168.2,59.9
			c-1.9,4.8-2.8,10-2.8,15.3c0,7.7,2,14.9,5.6,21.1c-5-4.1-10.7-7.5-16.8-10C155.3,75.9,160.4,66.5,168.2,59.9z M135,92.9
			c4.4,2.1,8.6,6.7,12,13.5c2.2,4.3,4,9.6,5.4,14.6H135V92.9z M106.7,97.1c-4.1,6.4-7.4,14.9-9.5,23.9H82.1
			C87.5,111,96.1,102.2,106.7,97.1z M83.7,174h14.2c2.1,8,5.1,15.2,8.8,21C97.2,190.4,89.2,183,83.7,174z M153,195.2
			c2.9-4.4,5.3-9.6,7.3-15.4l6.5,6.2C162.7,189.7,158,192.8,153,195.2z M168.7,174H186h27.3l-8.9,10.1c-0.2,0.3-0.4,0.9-0.5,0.9
			h-23.6L168.7,174z M205.9,213.1L184.8,193h40.1L205.9,213.1z M229.4,185H213l9.7-11H240L229.4,185z"/>
		<path fill="#5980B7" d="M181.2,224.4c-3.9-4.7-10.3-7.4-18.9-8.1c-1.9-0.1-3.8-0.2-5.4-0.2c-2.1,0-4.1,0.2-5.9,0.4
			c-0.6-0.3-1.3-0.5-2-0.5h-41c-0.4,0-0.9,0.1-1.3,0.2c-0.8,0-1.6-0.1-2.4-0.1c-1.7,0-3.5,0.1-5.4,0.2c-8.6,0.7-15,3.4-18.9,8.1
			c-3.7,4.4-5.1,10.5-4.3,18.1C77.2,256,88.5,262,99,262c0,0,0,0,0,0c1.9,0,3.8-0.2,5.5-0.6c7-1.6,14.2-7.5,18.4-15.1
			c2.1-3.8,3.3-7.3,3.5-11.3h8.2c0.1,5,1.8,10.7,5,15.4c4.4,6.7,10.9,10.7,17.8,11.1c1,0.1,1.9,0.1,2.9,0.1
			c14.9,0,23.9-6.8,25.2-19.1C186.4,234.9,184.9,228.8,181.2,224.4z M156.9,224.1c1.5,0,3.1,0.1,4.8,0.2c6.4,0.5,10.9,2.3,13.3,5.2
			c0.1,0.1,0.2,0.5,0.3,0.5h-32.1c0,0,0-0.2,0.1-0.2C144,228.1,145.4,224.1,156.9,224.1z M86.2,229.5c2.5-3,7-4.7,13.3-5.2
			c1.7-0.1,3.3-0.2,4.8-0.2c11.5,0,13,4,13.6,5.7c0,0.1,0,0.2,0.1,0.2H85.9C86,230,86.1,229.7,86.2,229.5z M102.8,253.6
			c-1.2,0.3-2.5,0.4-3.8,0.4c0,0,0,0,0,0c-4.6,0-10-2-13-6h25.9C109.1,251,105.8,253,102.8,253.6z M116,242.4
			c-0.1,0.2-0.2,0.6-0.3,0.6H83.9c-0.1,0-0.2-0.9-0.2-1.3c-0.3-2.5-0.2-4.7,0.1-6.7h34.6C118.2,237,117.4,239.9,116,242.4z
			 M126.2,230c-0.2-1-0.4-1.9-0.8-2.9c-0.4-1.1-0.9-2.1-1.5-3.1h13.4c-0.6,1-1.1,2-1.5,3.1c-0.3,0.9-0.6,1.9-0.8,2.9H126.2z
			 M177.5,235c0.4,2,0.4,4.1,0.1,6.7c0,0.4-0.1,0.3-0.2,1.3h-32.8c-1.2-3-1.9-5-2-8H177.5z M160.3,253.6c-0.8,0-1.6,0-2.4-0.1
			c-3.7-0.2-7.3-2.6-10.1-5.6h27.7C173.3,251,169.1,253.6,160.3,253.6z"/>
	</g>
</g>
</svg>
