<?xml version="1.0" encoding="utf-8"?>
<!-- Generator: Adobe Illustrator 18.1.1, SVG Export Plug-In . SVG Version: 6.00 Build 0)  -->
<svg version="1.1" id="Layer_1" xmlns="http://www.w3.org/2000/svg" xmlns:xlink="http://www.w3.org/1999/xlink" x="0px" y="0px"
	 viewBox="0 0 300 300" enable-background="new 0 0 300 300" xml:space="preserve">
<g>
	<path fill="none" d="M141.7,206.4c-1-0.1-2-0.6-2.9-1.6c-0.9-1.1-1.4-2.3-1.4-3.4c0-1,0.2-1.9,0.7-2.5c0.5-0.6,1.2-1.3,2.2-2.1
		c4.4-3.1,7.4-5,9-6c1.6-0.9,2.9-1.3,3.8-1.3c0,0,0,0-0.1,0c-0.9,0-2.2,0.4-3.8,1.3c-1.6,0.9-4.6,2.9-9,6c-1,0.7-1.7,1.4-2.2,2.1
		c-0.5,0.6-0.7,1.5-0.7,2.5c0,1.2,0.5,2.3,1.4,3.4C139.7,205.8,140.6,206.4,141.7,206.4z"/>
	<path fill="none" d="M158.4,229.8c0,1.3-0.5,2.3-1.6,3.1c-1.1,0.8-2.3,1.1-3.8,1.1c0,0,0,0,0,0c1.5,0,2.7-0.4,3.8-1.1
		C157.9,232.1,158.5,231.1,158.4,229.8c0.1-2.7,0.2-6.8,0.2-12.2c0-5.4,0.2-9.5,0.2-12.2c0,2.7-0.2,6.8-0.2,12.2
		C158.6,223,158.4,227.1,158.4,229.8z"/>
	<path fill="none" d="M148.1,211.4c0-0.9,0-2.3,0-4.1c0-1.8,0-3.2,0-4c0,0,0,0,0,0c0,0.8,0,2.1,0,4
		C148.1,209.2,148.1,210.5,148.1,211.4c0,2.8,0,6.2-0.1,10.1c-0.1,4-0.1,6.5-0.1,7.6c0,0,0,0,0,0c0-1.1,0-3.6,0.1-7.6
		C148,217.6,148.1,214.2,148.1,211.4z"/>
	<path fill="none" d="M144.7,205.8c0.6-0.4,1.3-0.8,1.8-1.2C146,205,145.4,205.4,144.7,205.8C144.7,205.8,144.7,205.8,144.7,205.8z"
		/>
	<path fill="none" d="M144.7,205.8c-0.3,0.2-0.6,0.3-0.9,0.4C144.1,206.1,144.4,205.9,144.7,205.8z"/>
	<path fill="none" d="M148.1,203.3c-0.5,0.4-1,0.8-1.6,1.3C147.1,204.2,147.6,203.7,148.1,203.3z"/>
	<polygon fill="#FFFFFF" points="249,251 249,239 239.1,251 	"/>
	<polygon fill="#FFFFFF" points="190,239.7 190,240.3 190.4,239.7 196.5,231.3 198.1,229 190,229 	"/>
	<polygon fill="#FFFFFF" points="193.9,249.9 193.1,251 204.9,251 204.9,251 205.7,249.9 221,229 209.3,229 	"/>
	<polygon fill="#FFFFFF" points="227.5,251 227.5,251 228.4,249.9 245.2,229 232.2,229 216.9,249.9 216.1,251 	"/>
	<polygon fill="#FFFFFF" points="64.8,215.3 65,215 64.8,215 51,233.5 51,233.8 51.1,233.6 	"/>
	<path fill="#FFFFFF" d="M109.6,221.9l-20.2,27.3l-1.3,1.8h0l1.4-1.8l20.3-27.3c0,0,0.2,0,0.2,0v-0.2
		C110,221.7,109.8,221.8,109.6,221.9C109.7,221.9,109.6,221.9,109.6,221.9z"/>
	<polygon fill="#FFFFFF" points="63.5,251 90.4,215.3 90.6,215 90.4,215 63.5,251 	"/>
	<path fill="#CCCCCC" d="M138,98.2l-5.4,16.4l14.2-10.3c1-0.7,2.1-1,3.2-1c1.1,0,2.3,0.4,3.2,1.1l14.2,10.3L162,98.2
		c-0.7-2.3,0.1-4.8,2-6.2l14-10h-17.4c-2.4,0-4.5-1.5-5.2-3.8L150,61.4l-5.4,16.7c-0.7,2.3-2.8,3.8-5.2,3.8h-17.4l14,10
		C137.9,93.4,138.7,95.9,138,98.2z"/>
	<path fill="#CCCCCC" d="M238,120.3l5.7-4.3h-6.9c-2.4,0-4.5-1.5-5.2-3.8l-2-6.1l-2,6.1c-0.7,2.3-2.8,3.8-5.2,3.8h-6.8l5.7,4.2
		c1.9,1.4,2.7,3.8,1.9,6.1l-2.1,6.6l5.3-3.9c1.9-1.4,4.5-1.4,6.5,0l5.3,3.8l-2.1-6.5C235.3,124.1,236.1,121.7,238,120.3z"/>
	<path fill="#CCCCCC" d="M64,126.3l-2.1,6.6l5.3-3.9c1.9-1.4,4.5-1.4,6.5,0l5.3,3.8l-2.1-6.5c-0.7-2.2,0.1-4.7,1.9-6.1l5.7-4.3h-6.9
		c-2.4,0-4.5-1.5-5.2-3.8l-2-6.1l-2,6.1c-0.7,2.3-2.8,3.8-5.2,3.8h-6.8l5.7,4.2C63.9,121.6,64.7,124.1,64,126.3z"/>
	<path fill="#FFFFFF" d="M121,209.8V251h58v-27.7V169h-58V209.8z M138.1,198.9c0.5-0.6,1.2-1.3,2.2-2.1c4.4-3.1,7.4-5,9-6
		c1.6-0.9,2.9-1.4,3.8-1.3c0,0,0,0,0.1,0c0,0,0,0,0,0c1.3,0,2.5,0.2,3.3,0.7c1.5,0.9,2.5,2.1,2.5,3.7v11.5c0,2.7-0.3,6.8-0.3,12.2
		c0,5.4-0.2,9.5-0.2,12.2c0,1.3-0.6,2.3-1.6,3.1c-1.1,0.8-2.4,1.1-3.8,1.1c0,0,0,0,0,0c0,0,0,0,0,0c-1.5,0-2.7-0.4-3.6-1.3
		c-1-0.8-1.4-2-1.4-3.6c0,0,0-0.2,0-0.2h-0.2c0-1,0-3.5,0.1-7.5c0.1-4,0.1-7.3,0.1-10.1c0-0.9,0-2.3,0-4.1c0-1.8,0-3,0-3.8
		c-0.5,0.4-1,0.5-1.6,1.5c0,0,0,0,0,0c-0.6,0-0.5,0.6-1.5,1c0,0,0-0.1,0-0.1l0,0c0,0-0.2,0-0.2,0c-0.3,0.2-0.6,0.3-0.9,0.4
		c-0.6,0.2-0.9,0.3-1.9,0.3v0c0,0-0.2,0-0.3,0c-1-0.1-2-0.6-2.9-1.7c-0.9-1.1-1.4-2.3-1.4-3.4C137.5,200.3,137.7,199.5,138.1,198.9z
		"/>
	<polygon fill="#FFFFFF" points="110,251 110,237 99.8,250.6 99.3,251 104.6,251 	"/>
	<polygon fill="#FFFFFF" points="51,251 63.5,251 90.4,215 76.3,215 76,215.3 51.1,248.5 51,248.7 	"/>
	<path fill="#FFFFFF" d="M101.6,215.3L74.8,251h13.4l1.3-1.8l20.2-27.3c0,0,0.1,0,0.1,0c0.1-0.1,0.3-0.1,0.3-0.2V215h-8.1
		L101.6,215.3z"/>
	<polygon fill="#FFFFFF" points="60.5,215 51,215 51,233.5 64.8,215 	"/>
	<path fill="#5980B7" d="M101.6,80.9l24.6,17.7l-9.4,28.7c-0.7,2.3,0.1,4.8,2,6.2c1.9,1.4,4.5,1.4,6.5,0l24.7-17.9l24.7,18
		c1,0.7,2.1,1.1,3.2,1.1c1.1,0,2.3-0.4,3.2-1c1.9-1.4,2.7-3.9,2-6.2l-9.4-28.8l24.6-17.6c1.9-1.4,2.8-3.9,2-6.1
		c-0.7-2.3-2.8-3.8-5.2-3.8h-30.5l-9.4-29c-0.7-2.3-2.8-3.8-5.2-3.8s-4.5,1.5-5.2,3.8l-9.4,29h-30.5c-2.4,0-4.5,1.5-5.2,3.8
		C98.8,77.1,99.7,79.6,101.6,80.9z M139.3,82c2.4,0,4.5-1.5,5.2-3.8l5.4-16.7l5.4,16.7c0.7,2.3,2.8,3.8,5.2,3.8H178l-14,10
		c-2,1.4-2.8,3.9-2,6.2l5.4,16.5l-14.2-10.3c-1-0.7-2.1-1.1-3.2-1.1c-1.1,0-2.3,0.3-3.2,1l-14.2,10.3l5.4-16.4
		c0.7-2.3-0.1-4.8-2-6.2l-14-10H139.3z"/>
	<path fill="#5980B7" d="M265.4,108.7c-0.7-2.2-2.9-3.7-5.2-3.7h-19.4l-6-18.4c-0.7-2.3-2.8-3.8-5.2-3.8s-4.5,1.5-5.2,3.8l-6,18.4
		H199c-2.4,0-4.5,1.5-5.2,3.7c-0.7,2.2,0,4.7,1.9,6.1l15.8,11.8l-6,18.9c-0.7,2.3,0.1,4.7,2,6.1c1,0.7,2.1,1,3.2,1
		c1.1,0,2.3-0.4,3.2-1.1l15.7-11.4l15.7,11.3c1.9,1.4,4.5,1.4,6.5,0c1.9-1.4,2.7-3.9,2-6.1l-6-18.7l15.8-11.8
		C265.4,113.5,266.1,111,265.4,108.7z M236.1,126.3l2.1,6.5l-5.3-3.8c-1.9-1.4-4.5-1.4-6.5,0l-5.3,3.9l2.1-6.6
		c0.7-2.2-0.1-4.7-1.9-6.1l-5.7-4.2h6.8c2.4,0,4.5-1.5,5.2-3.8l2-6.1l2,6.1c0.7,2.3,2.8,3.8,5.2,3.8h6.9l-5.7,4.3
		C236.1,121.7,235.3,124.1,236.1,126.3z"/>
	<path fill="#5980B7" d="M46.3,145.6c-0.7,2.3,0.1,4.7,2,6.1c1,0.7,2.1,1,3.2,1c1.1,0,2.3-0.4,3.2-1.1l15.7-11.4l15.7,11.3
		c1.9,1.4,4.5,1.4,6.5,0c1.9-1.4,2.7-3.9,2-6.1l-6-18.7l15.8-11.8c1.9-1.4,2.7-3.9,1.9-6.1c-0.7-2.2-2.9-3.7-5.2-3.7H81.6l-6-18.4
		c-0.7-2.3-2.8-3.8-5.2-3.8s-4.5,1.5-5.2,3.8l-6,18.4H39.8c-2.4,0-4.5,1.5-5.2,3.7c-0.7,2.2,0,4.7,1.9,6.1l15.8,11.8L46.3,145.6z
		 M63.2,116c2.4,0,4.5-1.5,5.2-3.8l2-6.1l2,6.1c0.7,2.3,2.8,3.8,5.2,3.8h6.9l-5.7,4.3c-1.9,1.4-2.7,3.8-1.9,6.1l2.1,6.5l-5.3-3.8
		c-1.9-1.4-4.5-1.4-6.5,0l-5.3,3.9l2.1-6.6c0.7-2.2-0.1-4.7-1.9-6.1l-5.7-4.2H63.2z"/>
	<path fill="#5980B7" d="M254.4,218H190v-0.2v-54.7c0-3-2.2-5.1-5.2-5.1h-69.6c-3,0-5.2,2.1-5.2,5.1V204h-0.3H45.5
		c-3,0-5.5,2.8-5.5,5.8v3.4v41v2.3c0,3,2.5,5.5,5.5,5.5h69.6h139.3c3,0,5.6-2.5,5.6-5.5v-33.2C260,220.3,257.4,218,254.4,218z
		 M51.1,248.5l25-33.2l0.2-0.3h14.1h0.2l-0.2,0.3L63.5,251h0H51v-2.3L51.1,248.5z M51,233.8v-0.2V215h9.5h4.3H65l-0.2,0.3
		l-13.7,18.2L51,233.8z M99.8,250.6L110,237v14h-5.4h-5.3L99.8,250.6z M110,221.7v0.2c0,0-0.2,0-0.2,0l-20.3,27.3l-1.4,1.8h0H74.8
		l26.9-35.7l0.2-0.3h8.1V221.7z M179,223.3V251h-58v-41.2V169h58V223.3z M205.7,249.9l-0.8,1.1h0h-11.8l0.8-1.1l15.3-20.9H221
		L205.7,249.9z M232.2,229h12.9l-16.8,20.9l-0.8,1.1h0h-11.4l0.8-1.1L232.2,229z M196.4,231.3l-6.1,8.4l-0.4,0.6v-0.6V229h8.1
		L196.4,231.3z M249,251h-9.9l9.9-12V251z"/>
	<path fill="#5980B7" d="M140.3,196.8c-1,0.7-1.7,1.4-2.2,2.1c-0.5,0.6-0.7,1.5-0.7,2.5c0,1.2,0.5,2.3,1.4,3.4
		c0.9,1,1.8,1.6,2.9,1.6c0.1,0,0.1,0,0.2,0h0c0.7,0,1.3-0.1,1.9-0.3c0.3-0.1,0.6-0.2,0.9-0.4c0,0,0,0.2,0,0.2l0,0
		c0.6-0.4,1.3-1,1.8-1c0,0,0,0,0,0c0.6-1,1.5-1.1,1.5-1.5c0,0,0-0.1,0-0.1c0,0.8,0.1,2.1,0,3.9c0,1.8,0,3.2,0,4.1
		c0,2.8,0.1,6.2,0,10.1c-0.1,4,0,6.5,0,7.6c0,0,0,0,0,0c0,1.5,0.4,2.7,1.4,3.6c1,0.8,2.1,1.3,3.6,1.3c0,0,0,0,0,0
		c1.5,0,2.7-0.4,3.8-1.1c1.1-0.8,1.6-1.8,1.6-3.1c0-2.7,0.3-6.8,0.3-12.2c0-5.4,0.3-9.5,0.3-12.2v-11.5c0-1.5-1-2.8-2.5-3.7
		c-0.7-0.5-1.9-0.7-3.2-0.7c0,0,0,0-0.1,0c-0.9,0-2.3,0.4-3.9,1.3C147.7,191.8,144.7,193.7,140.3,196.8z"/>
</g>
</svg>
