<?xml version="1.0" encoding="utf-8"?>
<!-- Generator: Adobe Illustrator 18.1.1, SVG Export Plug-In . SVG Version: 6.00 Build 0)  -->
<svg version="1.1" id="Layer_1" xmlns="http://www.w3.org/2000/svg" xmlns:xlink="http://www.w3.org/1999/xlink" x="0px" y="0px"
	 viewBox="0 0 300 300" enable-background="new 0 0 300 300" xml:space="preserve">
<g>
	<path fill="#FFFFFF" d="M211,139.5v6.5h27.5c1.9,0,3.5,1.2,3.5,3.1v36c0,1.9-1.6,3.9-3.5,3.9H228c0.1,1,0.2,3,0.2,4H249v-53.9
		c-4,0.3-11.1,0.5-23.7,0.5C221.3,139.6,217,139.6,211,139.5z"/>
	<path fill="#FFFFFF" d="M174,119v-3.5c0-2.2,2.2-3.5,4.4-3.5h28.9c2.2,0,3.7,1.3,3.7,3.5v3.5h23.6c0.8-9,1.1-38-24.9-48h-46.1
		l1.8,48H174z"/>
	<path fill="#FFFFFF" d="M174,126h-8.4l0,5.2c2.8,0,6.4-0.1,8.4-0.1V126z"/>
	<path fill="#FFFFFF" d="M165.9,139l0.3,10c2.6-0.9,5.8-1.6,7.8-2v-7.9C171,139.1,168.5,139,165.9,139z"/>
	<path fill="#FFFFFF" d="M241.2,123.1c-0.3,1.7-1.7,2.9-3.5,2.9H211v5.5c18,0.1,33,0,38-0.4V117c0-33.3-16.2-44-20.1-46h-5
		C246.5,89,241.2,122.7,241.2,123.1z"/>
	<path fill="#FFFFFF" d="M235,153h-24v3c0,0.3,0.1,0.9,0,1.2c7.6,6.2,13.3,14.8,15.8,24.8h8.2V153z"/>
	<path fill="#CCCCCC" d="M203,120h-21v26.5c8,0.1,15,2,21,5.3V120z M193,143.6c-2.2,0-4-1.8-4-4v-7c0-2.2,1.8-4,4-4s4,1.8,4,4v7
		C197,141.8,195.2,143.6,193,143.6z"/>
	<path fill="#CCCCCC" d="M50.8,65.3c-0.9,0.2-1.6,1.1-1.4,2l12.5,68.2l-2.6-71.8L50.8,65.3z"/>
	<path fill="#CCCCCC" d="M153.9,50.5c0-1.3-1.1-2.3-2.4-2.3l-81.3,3c-1.3,0-2.4,1.2-2.3,2.5l4,108.4c1.2-1.3,2.5-2.5,3.8-3.6
		l-3.5-94.7c-0.2-4.7,3.5-8.6,8.2-8.8l61-2.2c4.7-0.2,8.6,3.5,8.8,8.2l3.5,94.7c1.2-0.9,2.5-1.8,3.9-2.6L153.9,50.5z"/>
	<path fill="#FFFFFF" d="M144.3,61.2c0-1.4-1.1-2.4-2.5-2.4L80.6,61c-1.4,0.1-2.5,1.2-2.4,2.6l3.3,90.7c7.1-4.3,15.3-6.8,24.2-6.8
		c12.8,0,24.5,5.2,32.9,13.6c1.7-0.2,3.3-0.3,5-0.3c1.4,0,2.7,0.1,4.1,0.2c0.1-0.1,0.1-0.1,0.2-0.2L144.3,61.2z M113.7,143.8
		c-2.4,0-4.9-0.3-7.3-1c-3.8-1-7.2-2.7-10.1-5c0,0,0,0,0,0c0,0-0.1-0.1-0.1-0.1c-8.6-6.8-12.8-18.2-9.8-29.5c1.6-5.9,5-11,9.5-14.7
		c0.1-0.1,0.1-0.1,0.2-0.1c4.9-3.9,11.1-6.2,17.7-6.2c2.4,0,4.9,0.3,7.3,1c7.3,1.9,13.4,6.6,17.2,13.1s4.8,14.2,2.9,21.5
		c-0.9,3.2-2.3,6.2-4.1,8.8c-0.1,0.2-0.2,0.3-0.3,0.4C131.4,139.2,123,143.8,113.7,143.8z"/>
	<path fill="#FFFFFF" d="M127.5,128.5c-1.1,0-2.2-0.6-2.7-1.7c-0.7-1.5-0.1-3.3,1.4-4l1.3-0.6c-0.8-2.4-1.4-4.7-1.8-6.8l-0.7-0.1
		c-1.6-0.2-2.8-1.7-2.6-3.4c0.2-1.4,1.3-2.5,2.7-2.6c0-2.6,0.3-4.8,0.7-6.7l-1.4-0.7c-1.5-0.7-2.1-2.5-1.4-4
		c0.4-0.8,1.1-1.4,1.9-1.6c-1.8-1.1-3.7-1.9-5.8-2.4c-1.9-0.5-3.8-0.8-5.7-0.8c-4,0-7.7,1.1-11,2.9c0.6,0.7,1.3,1.5,2,2.5l0.8-0.4
		c1.5-0.7,3.3-0.2,4,1.3c0.7,1.5,0.2,3.3-1.3,4l-0.6,0.3c0.7,1.6,1.2,3.5,1.6,5.5c0,0.3,0.1,0.5,0.1,0.8c1.5-0.1,2.8,1,3.1,2.5
		c0.2,1.6-0.9,3.2-2.5,3.4l-0.4,0.1c-0.2,2.6-0.8,5.2-1.7,7.8c1,0.8,1.5,2.1,1,3.4c-0.4,1.2-1.6,2-2.8,2c-0.2,0-0.3,0-0.5,0
		c-0.9,1.8-1.9,3.5-3.1,5.3c1.8,1,3.7,1.9,5.7,2.4c1.9,0.5,3.8,0.8,5.7,0.8c6.8,0,13-3.1,17.1-8.1c-0.3-0.7-0.7-1.3-1-2l-1,0.5
		C128.4,128.4,128,128.5,127.5,128.5z"/>
	<path fill="#FFFFFF" d="M96.5,106.1c-0.7-1.5-0.2-3.3,1.3-4l0,0l0-2.2c0,0,0,0,0,0c-2.7,2.7-4.7,6.1-5.8,10
		c-2.1,7.7,0.3,15.6,5.4,21.1c0.2-0.3,0.3-0.5,0.5-0.8l-0.1-22.6C97.3,107.1,96.8,106.7,96.5,106.1z"/>
	<path fill="#FFFFFF" d="M132,105.4l0.6,5.7c0.5,0.6,0.7,1.4,0.6,2.3c0,0.3-0.2,0.7-0.3,0.9l0.6,5.7c0.7,0.1,1.4,0.5,1.9,1
		c1.4-5.4,0.7-10.9-1.9-15.8c-0.4,0.2-0.8,0.2-1.2,0.2C132.1,105.4,132,105.4,132,105.4z"/>
	<path fill="#FFFFFF" d="M99.2,101.3c-0.5-0.6-0.9-1.1-1.3-1.6l0,2.2L99.2,101.3z"/>
	<path fill="#FFFFFF" d="M98.7,123.8c0.5-1.4,1.9-2.2,3.3-1.9c0.6-1.6,1-3.2,1.2-4.8l-0.2,0c-0.1,0-0.3,0-0.4,0
		c-1.5,0-2.7-1.1-3-2.6c-0.2-1.6,0.9-3.2,2.5-3.4l1.1-0.2c0-0.2,0-0.4-0.1-0.5c-0.2-1.4-0.6-2.7-1-3.8l-1.6,0.8
		c-0.4,0.2-0.9,0.3-1.4,0.3c-0.5,0-0.9-0.1-1.3-0.3L98,130c0.6-1,1.2-1.9,1.7-2.9C98.7,126.4,98.2,125,98.7,123.8z"/>
	<path fill="#FFFFFF" d="M131.2,110.1c0.5,0.2,1,0.5,1.3,0.9l-0.6-5.7c-0.2,0-0.3,0-0.5-0.1C131.3,106.7,131.2,108.3,131.2,110.1z"
		/>
	<path fill="#FFFFFF" d="M131.9,115.4c0.3,1.4,0.7,3,1.2,4.6c0.1,0,0.2,0,0.3,0l-0.6-5.7C132.6,114.7,132.3,115.1,131.9,115.4z"/>
	<path fill="#FFFFFF" d="M69.1,194.1c0,17.4,12.1,31.9,28.4,35.7c-2.4-5.9-3.7-12.3-3.7-19c0-5.7,1-11.1,2.7-16.2l-2.6-1.9l-8.8,6.3
		l3.4-9.5l-8.8-5.6h10.9l3.4-10.4l3.4,10.4h4.6c5.8-9,14.4-16.1,24.6-19.9c-5.9-4.1-13-6.5-20.7-6.5
		C85.5,157.6,69.1,173.9,69.1,194.1z"/>
	<path fill="#FFFFFF" d="M186.1,184.5l3.3-10.1l3.4,10.6h10.9l-8.8,5.5l3.4,10l-7.2-5.4c1.7,5,2.6,10.3,2.6,15.8
		c0,6.3-1.2,12.3-3.3,17.8c16-3.9,27.9-18.4,27.9-35.6c0-20.2-16.4-36.6-36.6-36.6c-8.1,0-15.6,2.7-21.7,7.2
		C170.8,167.4,180,174.8,186.1,184.5z"/>
	<path fill="#FFFFFF" d="M183.6,210.8c0-22-17.9-40-40-40c-22,0-40,17.9-40,40s17.9,40,40,40C165.7,250.8,183.6,232.9,183.6,210.8z
		 M153.2,224.2l-9.5-7l-9.5,6.9l3.6-10.7l-9.5-6.4H140l3.6-11.2l3.6,11.2h11.8l-9.5,6.3L153.2,224.2z"/>
	<g>
		<path fill="#5980B7" d="M120.9,88.1c-2.4-0.6-4.8-1-7.3-1c-6.6,0-12.8,2.3-17.7,6.2c-0.1,0-0.1,0.1-0.2,0.1
			c-4.5,3.7-7.9,8.7-9.5,14.7c-3,11.2,1.3,22.7,9.8,29.5c0,0,0.1,0.1,0.1,0.1c0,0,0,0,0,0c2.9,2.3,6.3,4,10.1,5c2.4,0.6,4.8,1,7.3,1
			c9.3,0,17.7-4.6,22.9-11.8c0.1-0.1,0.2-0.3,0.3-0.4c1.8-2.6,3.2-5.6,4.1-8.8c1.9-7.3,0.9-14.9-2.9-21.5S128.2,90.1,120.9,88.1z
			 M98.7,123.8c-0.4,1.3,0,2.6,1,3.4c-0.5,1-1.1,1.9-1.7,2.9c-0.2,0.3-0.3,0.5-0.5,0.8c-5.1-5.4-7.4-13.3-5.4-21.1
			c1-3.9,3.1-7.3,5.8-10c0,0,0,0,0,0c0.4,0.4,0.9,0.9,1.3,1.6l-1.3,0.7l0,0c-1.5,0.7-2.1,2.6-1.3,4c0.3,0.6,0.8,1,1.4,1.3
			c0.4,0.2,0.8,0.3,1.3,0.3c0.5,0,0.9-0.1,1.4-0.3l1.6-0.8c0.4,1.2,0.8,2.4,1,3.8c0,0.2,0,0.4,0.1,0.5l-1.1,0.2
			c-1.6,0.2-2.8,1.8-2.5,3.4c0.2,1.5,1.5,2.6,3,2.6c0.1,0,0.3,0,0.4,0l0.2,0c-0.2,1.6-0.6,3.2-1.2,4.8
			C100.6,121.6,99.2,122.4,98.7,123.8z M113.7,137.8c-1.9,0-3.8-0.3-5.7-0.8c-2.1-0.5-4-1.4-5.7-2.4c1.2-1.8,2.2-3.6,3.1-5.3
			c0.2,0,0.3,0,0.5,0c1.2,0,2.4-0.8,2.8-2c0.4-1.3,0-2.6-1-3.4c0.9-2.7,1.5-5.3,1.7-7.8l0.4-0.1c1.6-0.2,2.8-1.8,2.5-3.4
			c-0.2-1.5-1.6-2.6-3.1-2.5c0-0.3-0.1-0.5-0.1-0.8c-0.3-2-0.9-3.8-1.6-5.5l0.6-0.3c1.5-0.7,2.1-2.6,1.3-4c-0.8-1.5-2.6-2.1-4-1.3
			l-0.8,0.4c-0.7-1-1.4-1.8-2-2.5c3.3-1.9,7-2.9,11-2.9c1.9,0,3.8,0.3,5.7,0.8c2.1,0.5,4,1.4,5.8,2.4c-0.8,0.2-1.5,0.7-1.9,1.6
			c-0.7,1.5-0.1,3.3,1.4,4l1.4,0.7c-0.4,1.9-0.7,4.1-0.7,6.7c-1.4,0.1-2.5,1.2-2.7,2.6c-0.2,1.6,0.9,3.2,2.6,3.4l0.7,0.1
			c0.4,2.1,0.9,4.4,1.8,6.8l-1.3,0.6c-1.5,0.7-2.1,2.5-1.4,4c0.5,1.1,1.6,1.7,2.7,1.7c0.4,0,0.9-0.1,1.3-0.3l1-0.5
			c0.3,0.6,0.6,1.3,1,2C126.7,134.7,120.5,137.8,113.7,137.8z M135.3,121c-0.5-0.6-1.2-0.9-1.9-1c-0.1,0-0.2,0-0.3,0
			c-0.5-1.6-1-3.1-1.2-4.6c0.4-0.3,0.7-0.7,1-1.1c0.1-0.3,0.3-0.6,0.3-0.9c0.1-0.8-0.1-1.6-0.6-2.3c-0.3-0.4-0.8-0.7-1.3-0.9
			c-0.1-1.8,0.1-3.4,0.3-4.8c0.2,0,0.3,0,0.5,0.1c0.1,0,0.2,0,0.3,0c0.4,0,0.8-0.1,1.2-0.2C136,110,136.6,115.6,135.3,121z"/>
		<polygon fill="#5980B7" points="147.3,207 143.7,195.8 140,207 128.2,207 137.8,213.4 134.1,224.1 143.7,217.2 153.2,224.2 
			149.6,213.4 159.1,207 		"/>
		<path fill="#5980B7" d="M193,143.6c2.2,0,4-1.8,4-4v-7c0-2.2-1.8-4-4-4s-4,1.8-4,4v7C189,141.8,190.8,143.6,193,143.6z"/>
	</g>
	<path fill="#5980B7" d="M232.3,61.2c-0.6-0.3-1.5-0.2-2.2-0.2H163v-0.4l-0.3-10.4c-0.2-6.3-5.4-11.2-11.7-11l-81.1,3
		c-6.3,0.2-11.2,5.5-11,11.8l0,0.6l-9.7,1.8c-5.8,1.1-9.7,6.7-8.6,12.5L61,180.9c-1.3,4.2-1.9,8.7-1.9,13.3
		c0,25,19.8,45.5,44.6,46.6c9.1,12.2,23.7,20.1,40,20.1c16.8,0,31.8-8.4,40.8-21.2c21.1-1.3,38.4-16.4,42.7-36.5c0-0.1,0-0.1,0-0.1
		h26.3c2.8,0,5.4-2.4,5.4-5.1V117C259,72.9,233.4,61.7,232.3,61.2z M49.4,67.3c-0.2-0.9,0.5-1.9,1.4-2l8.5-1.5l2.6,71.8L49.4,67.3z
		 M197,71h12.8h0c25.9,10,25.7,39,24.8,48H211v-3.5c0-2.2-1.5-3.5-3.7-3.5h-28.9c-2.2,0-4.4,1.3-4.4,3.5v3.5h-8.6l-1.8-48H197z
		 M203,120v31.7c-6.2-3.2-13.2-5.1-20.6-5.2c-0.1,0-0.3,0-0.4,0V120H203z M165.6,126h8.4v5.1c-2,0-5-0.1-8-0.1v0L165.6,126z
		 M174,139.1v7.9c3-0.4,4.7-0.6,7.2-0.6c0.1,0,0.2,0,0.3,0c-2.4,0-4.7,0.2-7,0.6c-2.7,0.4-5.4,1.1-8,2l-0.4-10
		C168.6,139,171.1,139.1,174,139.1z M70.2,51.2l81.3-3c1.3,0,2.3,1,2.4,2.3l3.8,102.6c-1.3,0.8-2.6,1.7-3.9,2.6L150.3,61
		c-0.2-4.7-4.1-8.4-8.8-8.2l-61,2.2c-4.7,0.2-8.4,4.1-8.2,8.8l3.5,94.7c-1.3,1.1-2.6,2.4-3.8,3.6l-4-108.4
		C67.8,52.4,68.9,51.2,70.2,51.2z M147.9,160.9c-0.1,0.1-0.1,0.1-0.2,0.2c-1.4-0.1-2.7-0.2-4.1-0.2c-1.7,0-3.4,0.1-5,0.3
		c-8.4-8.4-20.1-13.6-32.9-13.6c-8.8,0-17.1,2.5-24.2,6.8l-3.3-90.7c-0.1-1.4,1-2.5,2.4-2.6l61.1-2.2c1.4,0,2.5,1.1,2.5,2.4
		L147.9,160.9z M101.8,184h-4.6l-3.4-10.4L90.5,184H79.6l8.8,5.6l-3.4,9.6l8.8-6.4l2.6,1.9c-1.7,5.1-2.7,10.5-2.7,16.2
		c0,6.7,1.3,13.1,3.7,19c-16.2-3.8-28.4-18.3-28.4-35.7c0-20.2,16.4-36.6,36.6-36.6c7.7,0,14.8,2.6,20.7,6.6
		C116.3,167.9,107.7,175,101.8,184z M143.7,250.8c-22,0-40-17.9-40-40s17.9-40,40-40c22,0,40,17.9,40,40S165.7,250.8,143.7,250.8z
		 M190.3,228.6c2.1-5.5,3.3-11.5,3.3-17.8c0-5.5-0.9-10.8-2.6-15.8l7.2,5.4l-3.4-9.9l8.8-5.5h-10.9l-3.4-10.6l-3.3,10.2
		c-6-9.6-15.2-17.1-26.2-20.9c6.1-4.5,13.6-7.2,21.7-7.2c20.2,0,36.6,16.4,36.6,36.6C218.2,210.3,206.3,224.7,190.3,228.6z
		 M226.8,182c-2.5-10-8.1-18.6-15.7-24.8c-0.1-0.1-0.2-0.2-0.2-0.3c0.1-0.3,0.1-0.6,0.1-0.9v-3h24v29H226.8z M249,139.1v12.5V193
		h-20.8c0,0,0-0.1,0,0c0,0,0,0,0,0c0,0,0,0.1,0,0.1c0-1.4-0.1-3.1-0.2-4.1h10.5c1.9,0,3.5-2,3.5-3.9v-36c0-1.9-1.6-3.1-3.5-3.1H211
		v-6.5c6,0,10.1,0.1,14.1,0.1c12.6,0,19.5-0.2,23.4-0.5C248.7,139.1,248.8,139.1,249,139.1L249,139.1z M249,124.6v6.5
		c-0.2,0-0.4,0-0.6,0c-5,0.4-19.4,0.5-37.4,0.4V126h26.7c1.7,0,3.2-1.2,3.5-2.9c0.1-0.4,5.3-34.1-17.3-52.1h5
		c3.9,2,20.1,12.7,20.1,46V124.6z"/>
</g>
</svg>
