<?xml version="1.0" encoding="utf-8"?>
<!-- Generator: Adobe Illustrator 18.1.1, SVG Export Plug-In . SVG Version: 6.00 Build 0)  -->
<svg version="1.1" id="Layer_1" xmlns="http://www.w3.org/2000/svg" xmlns:xlink="http://www.w3.org/1999/xlink" x="0px" y="0px"
	 viewBox="0 0 300 300" enable-background="new 0 0 300 300" xml:space="preserve">
<g>
	<path fill="none" d="M132.5,245l-8,9.5c-1,1.2-2.4,1.8-3.9,1.9c-0.1,0-0.2,0-0.3,0c-1.4,0-2.7-0.4-3.8-1.4L105.6,245H49v1.1
		c0,6.2,5.9,11.9,12,11.9h99.9c2.8,0,5.4-1.3,7.4-3l-1.2-10H132.5z"/>
	<path fill="#FFFFFF" d="M99,43v39.8v48c3,0.7,5,1.2,8,1.5V43H99z"/>
	<path fill="#FFFFFF" d="M120,89v42.6c3-0.5,5-1.3,8-2.2V89H120z"/>
	<rect x="158" y="94" fill="#FFFFFF" width="8" height="10"/>
	<path fill="#FFFFFF" d="M139,63v19.8v41.6c1-0.6,2-1.1,3-1.7v-14c0-2.8,2-5.2,5-5.5V63H139z"/>
	<path fill="#FFFFFF" d="M80,89v30.1v0.7c2,2.1,5,4.2,8,6.1V89H80z"/>
	<path fill="#FFFFFF" d="M69,63h-8v42h4.6c1.5,0,2.4,0,3.4,1.1V82.8V63z"/>
	<path fill="#FFFFFF" d="M111.3,144.2c-27.6,0-43.7-20.2-48.8-28.2H44.9l13.6,48.5c11.7-11.4,27.6-18.5,45.2-18.5h14.6
		c14.2,0,27.3,4.8,37.9,12.5l-3.4-26.5h-3.1C136.4,140,123.6,144.2,111.3,144.2z"/>
	<path fill="#FFFFFF" d="M195,226.5c0,8.1-5,14.9-12,17.3v2.3c0,3.7-0.9,7.9-2.5,10.9h55l4.9-39h-46.3c1,2,0.9,4,0.9,6.6V226.5z"/>
	<polygon fill="#FFFFFF" points="168.1,165 247,165 251.2,132 163.9,132 	"/>
	<polygon fill="#FFFFFF" points="153,115 153,121 157.7,121 257.4,121 262,121 262,115 	"/>
	<path fill="#CCCCCC" d="M182.9,207h59l3.6-31h-72.9C178.5,185,182.2,195,182.9,207z"/>
	<path fill="#FFFFFF" d="M152.6,207c0.3,0,0.6,0,1,0h18.4c-2.1-28-25.4-50-53.7-50h-14.6c-28.3,0-51.6,22-53.7,50h27.6
		c0.3,0,0.6,0,1,0H152.6z M131.9,186c0.8-2.9,3.8-4.7,6.7-3.9l8.7,2.4c2.9,0.8,4.7,3.8,3.9,6.7c-0.7,2.5-2.9,4.1-5.3,4.1
		c-0.5,0-1-0.1-1.4-0.2l-8.7-2.4C132.9,192,131.1,189,131.9,186z M108.9,167.5l6.3-4.2c2.5-1.7,5.9-1,7.6,1.6c1.7,2.5,1,5.9-1.6,7.6
		l-6.3,4.2c-0.9,0.6-2,0.9-3,0.9c-1.8,0-3.5-0.9-4.6-2.5C105.6,172.6,106.3,169.2,108.9,167.5z M72.8,181.3c1.4-2.7,4.7-3.7,7.4-2.3
		l6.9,3.6c2.7,1.4,3.7,4.7,2.3,7.4c-1,1.9-2.9,3-4.9,3c-0.9,0-1.7-0.2-2.5-0.6l-6.9-3.6C72.4,187.3,71.4,184,72.8,181.3z"/>
	<path fill="#CCCCCC" d="M76.5,218h-32c-4,0-7.5,2.6-7.5,6.6v1.9c0,4,3.5,7.5,7.5,7.5h49.4L76.5,218z"/>
	<path fill="#CCCCCC" d="M141.6,234h35.8c4,0,6.6-3.5,6.6-7.5v-1.9c0-4-2.6-6.6-6.6-6.6h-22.3L141.6,234z"/>
	<polygon fill="#FFFFFF" points="119.7,243.5 140.9,218 92.5,218 	"/>
	<g>
		<path fill="#5980B7" d="M80.6,119.1c0,0.2,0,0.4,0,0.7c0,0,0,0,0,0V119.1z"/>
		<path fill="#5980B7" d="M267.8,104H212v-0.8V75.5l34.3-13.7c2.8-1.1,4.3-4.3,3.2-7.2c-1.1-2.8-4.3-4.2-7.1-3.1l-37.7,15.1
			c-2.1,0.8-3.7,2.9-3.7,5.1v31.5v0.8h-23.2H177V87.9c0-3-1.7-4.9-4.7-4.9H158V56.8c0-3-2-4.8-5.1-4.8h-19c-3,0-6,1.7-6,4.8V78h-9.5
			H118V36.7c0-3-2-4.7-5-4.7H94c-3,0-6,1.7-6,4.7V78h-8V56.8c0-3-1.9-4.8-4.9-4.8h-19c-3,0-6.1,1.7-6.1,4.8V105H37.6
			c-1.7,0-3.3,0.5-4.4,1.9c-1,1.4-1.4,3-0.9,4.7l17.6,62.7c-6.4,9.5-10.4,20.8-11,33c1.8-0.6,3.6-0.9,5.6-0.9c-1.9,0-4,0.3-5.7,0.9
			c-7.3,2.4-12.8,9.3-12.8,17.4v1.9c0,8.1,5.4,14.7,12.7,17.1c1.8,0.6,3.4,0.7,5.4,0.7c-2,0-4.1,0.1-6.1-0.5v2.3
			c0,12.2,10.8,22.9,23,22.9h99.9c3.6,0,7.1-1.3,10.1-2.8c0,0,0,0.2,0,0.1c1,0.9,2.3,1.6,3.7,1.6h65.6c2.8,0,5.1-2.3,5.5-5.1l6.1-49
			c0,0,0-0.1,0-0.1c0.2-0.4,0.3-0.9,0.3-1.3l2.4-20.4l2.5-21.6l-2.5,22l7.6-60.5h5.5c3,0,5.2-3.3,5.2-6.3v-17
			C273,105.7,270.9,104,267.8,104z M158,94h8v10h-7.2H158V94z M139,63h8v40.2c0,0,0.6,0.1,0.8,0.1c-0.2,0-0.5,0-0.7,0
			c-2.8,0.3-5,2.6-5,5.4v14c0,0.6-2,1.2-3,1.7V82.8V63z M137.4,125.5c-0.3,0.2-0.7,0.3-1,0.5C136.7,125.8,137,125.7,137.4,125.5z
			 M128,89v-0.7v41c0,0,0,0,0,0c-2.7,0.9-5,1.7-8,2.2V89H128z M111.3,132.5C111.3,132.5,111.3,132.5,111.3,132.5
			c-0.6,0-1.2,0-1.8-0.1c0,0,0,0,0,0c0,0,0,0,0,0C110.1,132.5,110.7,132.5,111.3,132.5z M108.2,132.4c-0.2,0-0.4,0-0.6,0
			C107.8,132.3,108.1,132.4,108.2,132.4z M99,43h8v89.3c-2-0.2-5.5-0.8-8-1.5c0,0,1,0,0,0v-48V43z M80,88.3V89h8v36.9
			c-3-1.9-5.4-4-7.7-6.1c0,0,0.1,0,0.1,0c0,0-0.2,0-0.2,0c0-0.2-0.2-0.4-0.2-0.6V88.3z M61,63h8v19.8V106c-1-1-1.9-1-3.4-1h-4H61V63
			z M62.5,116c5.1,8,21.2,28.2,48.8,28.2c12.3,0,25.1-4.2,38.4-12.2h3.1l3.3,26.4c-10.7-7.7-23.8-12.4-37.9-12.4h-14.6
			c-17.6,0-33.5,6.9-45.2,18.2c0,0,0,0.2,0,0.2L44.9,116H62.5z M241.9,207h-59c0,0,0,0,0,0c-0.7-11.4-4.4-22-10.3-31h72.9L241.9,207
			z M141.9,234l13.2-15.9l0.1-0.1h22.3c4,0,6.6,2.6,6.6,6.6v1.9c0,4-2.6,7.5-6.6,7.5H141.9z M92.5,218h48.4l-21.2,25.5L92.5,218z
			 M182.5,207.2c-1.8-0.6-3.8-0.9-5.8-0.9c1.9,0,4.3,0.4,5.3,0.9c0,0,0,0,0,0C182,207.2,182.5,207.2,182.5,207.2z M103.7,157h14.6
			c28.3,0,51.6,22,53.7,50h-18.4c1.7,0,3.3,1.1,4,2.8c0.3,0.7,0.5,1.3,0.5,2.1c0-0.8-0.2-1.6-0.5-2.3c-0.8-1.6-2.3-2.5-4-2.8
			c-0.3-0.1-0.6,0.2-1,0.2h-74c-0.3,0-0.6-0.3-1-0.3c-1.9,0.3-3.4,1.4-4.1,3.2c-0.3,0.8-0.4,1.5-0.4,2.3c-0.1-0.8,0.1-1.3,0.4-2.1
			c0.7-1.8,2.3-3.1,4.1-3.1H50C52.1,179,75.4,157,103.7,157z M37,226.5v-1.9c0-4,3.5-6.6,7.5-6.6h31.9l0.1,0.1l17,15.9h-49
			C40.5,234,37,230.5,37,226.5z M168.5,254.8c-2,1.7-4.8,3.2-7.6,3.2H61c-6.2,0-12-5.8-12-11.9V245h0.9h55.3l0.4,0l10.9,10
			c1,1,2.4,1.4,3.8,1.4c0.1,0,0.2,0,0.3-0.1c1.5-0.1,2.9-0.8,3.9-2l8-9.3l0.3-0.1h34.3l1.4,9.6c2.3-2,4-4.8,4-8.2
			C172.5,249.7,170.8,252.8,168.5,254.8z M235.5,257h-54.7c1.6-3,2.2-7.2,2.2-10.9v-2.3c-2,0.6-3.9,0.5-5.8,0.5c2,0,3.7-0.1,5.5-0.7
			c7.3-2.4,12.4-9,12.4-17.1v-1.9c0-2.6-0.2-5.1-1.2-7.3c-1.3-3-3.2-5.2-5.8-7.1c2.6,1.9,4.8,4.8,6.1,7.8h46.3L235.5,257z M247,165
			h-79l-4.2-33h87.3L247,165z M262,121h-4.6h-99.8H153v-6h109V121z"/>
		<path fill="#5980B7" d="M84.6,193c2,0,3.9-1.1,4.9-3c1.4-2.7,0.4-6-2.3-7.4l-6.9-3.6c-2.7-1.4-6-0.4-7.4,2.3
			c-1.4,2.7-0.4,6,2.3,7.4l6.9,3.6C82.9,192.8,83.7,193,84.6,193z"/>
		<path fill="#5980B7" d="M111.9,177.6c1,0,2.1-0.3,3-0.9l6.3-4.2c2.5-1.7,3.2-5.1,1.6-7.6c-1.7-2.5-5.1-3.2-7.6-1.6l-6.3,4.2
			c-2.5,1.7-3.2,5.1-1.6,7.6C108.4,176.7,110.1,177.6,111.9,177.6z"/>
		<path fill="#5980B7" d="M135.8,192.8l8.7,2.4c0.5,0.1,1,0.2,1.4,0.2c2.4,0,4.6-1.6,5.3-4.1c0.8-2.9-0.9-6-3.9-6.7l-8.7-2.4
			c-2.9-0.8-6,0.9-6.7,3.9C131.1,189,132.9,192,135.8,192.8z"/>
	</g>
</g>
</svg>
