<?xml version="1.0" encoding="utf-8"?>
<!-- Generator: Adobe Illustrator 18.1.1, SVG Export Plug-In . SVG Version: 6.00 Build 0)  -->
<svg version="1.1" id="Layer_1" xmlns="http://www.w3.org/2000/svg" xmlns:xlink="http://www.w3.org/1999/xlink" x="0px" y="0px"
	 viewBox="0 0 300 300" enable-background="new 0 0 300 300" xml:space="preserve">
<g>
	<path fill="#FFFFFF" d="M71.6,92.6c1.2,2.3,2.2,4.5,2.9,6.7L85.7,96C80.7,95.8,75.8,94.4,71.6,92.6z"/>
	<path fill="#FFFFFF" d="M183.6,81.8c-4.9-5.4-7.1-12.5-8.1-18.6c-7.1,10.3-14.7,16.4-22.6,18.2c0,0.1,0.1,0.1,0.1,0.2l1.3,4.4
		l74.2,8.9c1-3.8,2.3-7.3,3.5-10.4C209.6,93.7,193.2,92.6,183.6,81.8z"/>
	<path fill="#FFFFFF" d="M156.2,246.9c3.8-8.6,8.6-14.3,13.5-18l-28-3.4l-6.8,2C144.9,232.4,152,240.8,156.2,246.9z"/>
	<path fill="#FFFFFF" d="M45.9,144.9c6.4,4.6,11.2,9.6,14.5,15L55,141.4C51.8,142.9,48.7,144,45.9,144.9z"/>
	<path fill="#FFFFFF" d="M56,205.5c7.9-0.4,14.5,1.8,19.6,6.4l-10.1-34.5C65.8,188.6,60.6,198.7,56,205.5z"/>
	<path fill="#FFFFFF" d="M230.4,190.3c3.2-1,6.7-1.5,10.5-1.5c0.6,0,1.2,0,1.8,0c-5.8-10-7.7-19.7-5.5-28.8
		c2.1-8.9,7.6-15.6,12.7-20.1c-5.1-0.9-9.4-2.5-12.9-4.8L230.4,190.3z"/>
	<path fill="#FFFFFF" d="M117.4,61.4c-2.8,15.9-8.4,24.8-14.7,29.7l36.5-10.7C129.8,76.9,122.3,68.4,117.4,61.4z"/>
	<path fill="#FFFFFF" d="M160.3,106.8l17.6,2.1c0.9,0.1,1.8,0.6,2.3,1.3s0.8,1.7,0.7,2.6l-5.5,45.7l6.5,22.2l29,3.5
		c1.9,0.2,3.3,2,3.1,3.9l-3,25.1c-0.2,1.8-1.7,3.1-3.5,3.1c-0.1,0-0.3,0-0.4,0l-23.4-2.8l-17.5,5.1l50.1,6l14.4-119.2l-73.3-8.8
		L160.3,106.8z M189.5,112.1c0.7-0.6,1.7-0.8,2.6-0.7l28,3.4c0.9,0.1,1.8,0.6,2.3,1.3s0.8,1.7,0.7,2.6l-1.6,13.2
		c-0.2,1.8-1.7,3.1-3.5,3.1c-0.1,0-0.3,0-0.4,0l-28-3.4c-1.9-0.2-3.3-2-3.1-3.9l1.6-13.2C188.3,113.5,188.7,112.6,189.5,112.1z
		 M216.1,173.6c-0.1,0.9-0.6,1.8-1.3,2.3c-0.6,0.5-1.4,0.7-2.2,0.7c-0.1,0-0.3,0-0.4,0l-28-3.4c-1.9-0.2-3.3-2-3.1-3.9l3.4-28.5
		c0.1-0.9,0.6-1.8,1.3-2.3c0.7-0.6,1.7-0.8,2.6-0.7l28,3.4c1.9,0.2,3.3,2,3.1,3.9L216.1,173.6z"/>
	<polygon fill="#CCCCCC" points="173.5,115.4 162.4,114.1 170.4,141.4 	"/>
	<path fill="#CCCCCC" d="M204.4,208.8l2.2-18.2l-22.5-2.7l5.4,18.5c0.1,0.2,0.1,0.4,0.1,0.6L204.4,208.8z"/>
	
		<rect x="201.7" y="112.5" transform="matrix(-0.1196 0.9928 -0.9928 -0.1196 351.5554 -65.5028)" fill="#CCCCCC" width="6.3" height="21.2"/>
	
		<rect x="189.7" y="146.4" transform="matrix(0.9928 0.1196 -0.1196 0.9928 20.242 -22.8269)" fill="#CCCCCC" width="21.2" height="21.7"/>
	<path fill="#FFFFFF" d="M91.3,229.9l87.1-25.5L144.7,89.2l-87.1,25.5L91.3,229.9z M154.5,164.7c3.4,11.5,2.5,23.3-2.5,32.7
		c-3.9,7.4-10.2,12.6-17.7,14.8c-2.5,0.7-5.2,1.1-7.9,1.1c-15.4,0-30.1-11.9-36.3-29.1c-2-1.6-3.1-2.9-3.3-3.1c-1.1-1.3-1.5-3-1-4.7
		c0-0.2,0.5-1.5,1.6-3.4c-1-8.7,0.4-17.3,4.2-24.4c3.9-7.4,10.2-12.6,17.7-14.8c2.5-0.7,5.2-1.1,7.9-1.1c12.8,0,25.1,8.2,32.5,21
		c2.1,0.9,3.4,1.8,3.6,2c1.3,1,2.1,2.6,2,4.3C155.3,160.1,155.2,162.1,154.5,164.7z M134,99.3c1.9-0.6,3.8,0.5,4.4,2.3l3.1,10.3
		c0.3,0.9,0.2,1.8-0.3,2.7c-0.4,0.8-1.2,1.4-2.1,1.7l-63.5,19.2c-0.3,0.1-0.7,0.2-1,0.2c-1.5,0-2.9-1-3.3-2.5l-3.1-10.3
		c-0.3-0.9-0.2-1.8,0.3-2.7c0.4-0.8,1.2-1.4,2.1-1.7L134,99.3z"/>
	<path fill="#FFFFFF" d="M126.4,205.3c1.9,0,3.8-0.3,5.7-0.8c5.5-1.6,9.9-5.3,12.9-10.9c2.8-5.2,3.9-11.4,3.5-17.9
		c-2.3,2.3-5.2,4.3-9.2,5.5c-2.1,0.7-4.3,1-6.5,1c-2.8,0-5.6-0.5-8.3-1.6c-2.8,4.2-6.8,7.2-11.7,8.7c-2.1,0.7-4.3,1-6.5,1
		c-1.5,0-3-0.2-4.4-0.4C107.8,199.2,117.1,205.3,126.4,205.3z"/>
	<path fill="#FFFFFF" d="M117.2,140.6c-1.9,0-3.8,0.3-5.7,0.8c-5.5,1.6-9.9,5.3-12.9,10.9c-2,3.8-3.2,8.1-3.5,12.6
		c2-1.3,4.4-2.5,7.3-3.4c4.9-1.5,10.3-1.8,15.4-0.9c2.9-2.9,7.2-6,13.1-7.8c2.5-0.8,5-1.2,7.5-1.3
		C132.6,144.8,124.9,140.6,117.2,140.6z"/>
	<path fill="#FFFFFF" d="M126.1,168.8c0,0,4.2,4.3,10.3,2.5c6.1-1.9,6.8-7.7,6.8-7.7s-3.4-2.2-9-0.5S126.1,168.8,126.1,168.8z"/>
	<path fill="#FFFFFF" d="M109.3,179.6c6.1-1.9,6.8-7.7,6.8-7.7s-4.4-1.9-10-0.1s-7.1,5.4-7.1,5.4S103.2,181.4,109.3,179.6z"/>
	
		<rect x="102.9" y="87.8" transform="matrix(0.2902 0.957 -0.957 0.2902 186.8036 -16.9427)" fill="#CCCCCC" width="3.8" height="59.3"/>
	<g>
		<path fill="#5980B7" d="M198.8,79.4c2.3,0.3,4-1.3,4-3.6c0-1.1-0.4-2.2-1.1-3.1c-0.8-0.9-1.7-1.3-2.8-1.5c-2.4-0.3-4,1.3-4,3.5
			c0,1.2,0.3,2.3,1.1,3.2C196.8,78.8,197.7,79.3,198.8,79.4z"/>
		<path fill="#5980B7" d="M236,201.6c-0.4-0.6-0.5-1.3-1.2-1.6c-0.3-0.1-0.6-0.4-0.9-0.5c-0.3,0-0.6,0-0.9-0.1
			c-0.2-0.1-0.5,0.2-0.8,0.2c-0.8,0.1-1.5,0.6-1.9,1.3c-0.4,0.6-0.8,1.2-0.7,1.9c-0.4,0.6,0.1,1.1,0,1.7c0.4,0.6,0.5,1.4,1.3,1.6
			c0.3,0.1,0.6,0.4,0.9,0.5c0.3,0,0.6-0.1,0.9,0.1c0.2,0.1,0.5-0.2,0.8-0.2c0.8-0.2,1.4-0.6,1.9-1.3c0.4-0.6,0.8-1.2,0.7-1.9
			C236.5,202.7,235.9,202.2,236,201.6z"/>
		<path fill="#5980B7" d="M245.6,168.4c0.1,0.6,0.4,0.9,0.7,1.3c0.6,0.8,1.4,1.1,2.4,1c0.3,0,0.6,0,0.9-0.1c0.6-0.2,0.9-0.6,1.3-1
			c0.9-1,0.9-2.2,0.7-3.4c-0.2-1.2-1-1.9-2.1-2.3c-0.3-0.1-0.6-0.1-0.9-0.1c0,0,0,0,0,0c-0.1,0-0.2,0-0.3,0c-0.7,0-1.3,0.3-1.8,0.9
			c-0.1,0.2-0.3,0.3-0.4,0.5c-0.2,0.3-0.3,0.6-0.5,0.9c-0.2,0.7-0.1,1.5-0.1,2.2C245.5,168.3,245.6,168.3,245.6,168.4z"/>
		<path fill="#5980B7" d="M189.7,68.6c2.1,0.3,3.8-1.3,3.7-3.3c0.1-2.1-1.7-4-3.6-4.3c-2.1-0.3-3.8,1.2-3.8,3.2
			C186,66.4,187.7,68.3,189.7,68.6z"/>
		<path fill="#5980B7" d="M150.6,63.7c2.3,0.3,4.2-1.3,4.2-3.5c0-2.3-2-4.4-4.1-4.6c-2.3-0.4-4.2,1.3-4.2,3.4
			C146.4,61.3,148.4,63.4,150.6,63.7z"/>
		<path fill="#5980B7" d="M213.3,78.5c0.7,1.2,1.6,2.2,3,2.2c0.7,0.1,1.3,0.1,1.9-0.3c0.6-0.4,1-0.9,1.2-1.6
			c0.2-0.4,0.1-0.9,0.1-1.3c0.1-0.7-0.1-1.3-0.5-1.9c-0.4-0.6-0.9-1.1-1.6-1.5c-0.5-0.2-0.9-0.2-1.3-0.3c-0.7-0.2-1.2,0-1.7,0.3
			c-0.5,0.4-1,0.9-1.2,1.6c-0.3,0.7-0.1,1.5-0.1,2.2C213.3,78,213.2,78.3,213.3,78.5z"/>
		<path fill="#5980B7" d="M129.2,238.6c-2.4,0.2-4.2,2.1-4.2,4.4c0,2.2,1.8,3.6,4.1,3.4c2.3-0.4,4.1-2.3,4.1-4.5
			C133.2,239.8,131.5,238.4,129.2,238.6z"/>
		<path fill="#5980B7" d="M248.7,118.6c1.5,0.1,3-1.4,2.8-3c0.2-1.6-1.4-3.2-2.7-3.3c-1.5-0.1-2.9,1.4-2.9,2.9
			C245.9,116.9,247.3,118.5,248.7,118.6z"/>
		<path fill="#5980B7" d="M207.7,70.4c1.9,0.3,3.1-1,3.2-2.9c-0.1-2-1.4-3.5-3.1-3.7c-1.8-0.2-3.1,0.9-3.2,2.8
			C204.5,68.5,205.8,70.1,207.7,70.4z"/>
		<path fill="#5980B7" d="M129.3,60.6c2.4,0.3,4-1.1,4-3.2c0-2.2-1.7-3.9-3.9-4.2c-2.2-0.2-4,1-3.9,3.2
			C125.4,58.6,127,60.3,129.3,60.6z"/>
		<path fill="#5980B7" d="M180.3,242.4c-2,0.2-3.5,1.8-3.5,3.9c0,2,1.3,3.2,3.4,3.1c2.1-0.4,3.4-2,3.4-3.9
			C183.6,243.3,182.2,242.2,180.3,242.4z"/>
		<path fill="#5980B7" d="M257.5,155.8c-0.4-0.3-0.9-0.4-1.3-0.4c-0.4,0-1,0.1-1.3,0.4c-1.3,1-1.7,2.4-1,4.1
			c0.1,0.2,0.2,0.4,0.4,0.6c0.2,0.2,0.5,0.4,0.6,0.4c1,0.5,1.8,0.5,2.7,0c0.1-0.1,0.4-0.2,0.5-0.4c0.2-0.2,0.3-0.5,0.5-0.8
			c0.1-0.4,0.3-0.9,0.3-1.4c0-0.5-0.1-1-0.4-1.5C258.2,156.4,257.9,156.1,257.5,155.8z"/>
		<path fill="#5980B7" d="M159.2,54.1c1,0.7,2.4,0.8,3.4,0.4c1.1-0.5,1.7-1.3,1.6-2.6c0-0.3,0.1-0.7,0-1c-0.7-2.1-2.4-3.2-4.4-2.9
			c-1.3,0.1-1.9,0.9-2.3,2c-0.1,0.4-0.1,0.8-0.1,1.3C157.5,52.4,158.1,53.4,159.2,54.1z"/>
		<path fill="#5980B7" d="M142.3,248.4c-0.7-0.5-1.5-0.7-2.4-0.5c-0.9,0.2-1.8,0.6-2.5,1.4c-0.7,0.8-1,1.6-1,2.5
			c0,0.9,0.4,1.7,1.1,2.3c0.7,0.6,1.6,0.6,2.5,0.7c1-0.4,2-0.7,2.7-1.6c0.6-0.7,0.9-1.6,0.9-2.4C143.5,249.8,143.1,249,142.3,248.4z
			"/>
		<path fill="#5980B7" d="M200.6,240.6c-0.6-0.4-1.3-0.6-2-0.5c-0.8,0.2-1.6,0.6-2.2,1.4c-0.5,0.7-0.8,1.5-0.8,2.2
			c0,0.9,0.3,1.7,1,2.2c0.6,0.4,1.3,0.4,2,0.6c0.5-0.3,1.1-0.5,1.6-0.9c0.4-0.3,0.7-0.8,1-1.3c0.2-0.5,0.4-1.1,0.4-1.5
			C201.6,241.9,201.3,241.1,200.6,240.6z"/>
		<path fill="#5980B7" d="M256.3,172.8c-1.5,0-2.5,1.4-2.5,2.8c0,1.6,1.2,2.9,2.4,2.6c1.4,0.1,2.4-1.3,2.5-2.8
			C258.6,173.9,257.5,172.7,256.3,172.8z"/>
		<path fill="#5980B7" d="M256.3,127.1c1.2,0,2.4-1.2,2.4-2.7c0.1-1.4-1.1-2.8-2.4-2.8c-1.3-0.1-2.4,1.2-2.4,2.7
			C253.9,125.7,255,127.1,256.3,127.1z"/>
		<path fill="#5980B7" d="M198.9,59.6c0.8,0.1,1.4-0.1,2-0.6c0.6-0.5,0.9-1.2,0.9-2c0-0.8-0.3-1.5-0.8-2.2c-0.5-0.7-1.3-1-2-1.3
			c-0.8,0-1.5,0.1-2,0.6c-0.6,0.5-0.9,1.2-0.9,2c0,0.8,0.3,1.5,0.8,2.2C197.4,59.1,198.1,59.5,198.9,59.6z"/>
		<path fill="#5980B7" d="M140.2,51.4c0.9,0.1,1.8-0.1,2.4-0.7c0.6-0.5,1-1.3,0.9-2.1c0-0.9-0.4-1.7-1.1-2.4
			c-0.7-0.7-1.5-1.1-2.4-1.2c-0.9-0.1-1.8,0.1-2.4,0.7c-0.6,0.5-0.9,1.3-1,2.2c0.2,0.9,0.4,1.7,1.1,2.4
			C138.5,50.8,139.3,51.3,140.2,51.4z"/>
		<path fill="#5980B7" d="M232.8,217.9c-0.7,0.1-1.4,0.5-1.8,1.1c-0.5,0.6-0.8,1.3-0.7,2c0,0.8,0.3,1.5,0.8,1.9
			c0.5,0.4,1.1,0.7,1.8,0.6c0.7-0.1,1.3-0.5,1.8-1.1c0.5-0.6,0.7-1.3,0.8-2.1c-0.2-0.7-0.3-1.4-0.8-1.9
			C234.1,218.1,233.5,217.9,232.8,217.9z"/>
		<path fill="#5980B7" d="M240.8,208.3c-0.4,0-1.4,0.6-1.7,1c-0.5,0.6-0.7,1.3-0.8,2.1c-0.1,0.4,0.4,1.6,0.7,1.9
			c0.5,0.5,1.1,0.6,1.8,0.7c0.4,0,1.4-0.6,1.7-1c0.5-0.6,0.7-1.3,0.8-2.1c0-0.4-0.4-1.6-0.7-1.9
			C242.1,208.6,241.5,208.4,240.8,208.3z"/>
		<path fill="#5980B7" d="M83.7,76.3c1.4-0.3,2.2-1,2.7-2.2c0-0.2,0-0.5,0-0.8c0.1-1.2-0.5-2.1-1.5-2.9c-0.3-0.3-0.8-0.5-1.1-0.6
			c-1.6-0.4-2.9-0.3-4,0.6c-1,0.9-1,2-0.9,3C79.9,75.6,81.6,76.4,83.7,76.3z"/>
		<path fill="#5980B7" d="M106.6,242.1c-1.9,0.2-3.5,2-3.6,3.6c0,1.7,1.6,3.1,3.6,2.8c1.8-0.2,3.6-2,3.5-3.6
			C110.1,243.2,108.3,241.9,106.6,242.1z"/>
		<path fill="#5980B7" d="M94.9,66.6c1.9,0.3,3.6-1.1,3.7-2.7c0-1.7-1.7-3.5-3.5-3.7c-2.1-0.3-3.8,1.1-3.8,2.8
			C91.3,64.7,93,66.5,94.9,66.6z"/>
		<path fill="#5980B7" d="M248.6,199.2c-1.3,0.1-2.3,1.2-2.3,2.7c0,1.6,1,2.6,2.3,2.4c1.3-0.1,2.2-1.3,2.3-2.7
			C250.8,200.1,250,199.1,248.6,199.2z"/>
		<path fill="#5980B7" d="M246.6,98.8c0.3,0.8,0.8,1.4,1.6,1.8c0.3,0,0.8,0.1,1.1,0.1c0.8-0.2,1.3-0.7,1.6-1.5c0-0.3,0-0.7,0-1
			c0-0.6-0.2-1.1-0.5-1.5c-0.5-0.6-1.1-0.8-1.8-0.9c-0.9-0.1-2.1,0.9-2,2C246.6,98.1,246.6,98.4,246.6,98.8z"/>
		<path fill="#5980B7" d="M225.4,71.8c0.9-0.2,1.4-0.7,1.7-1.7c0-0.2,0-0.6,0-1c0-0.8-0.4-1.5-1-1.9c-0.2-0.2-0.4-0.3-0.6-0.4
			c-0.9-0.2-1.7-0.3-2.4,0.3c-0.7,0.7-0.7,1.6-0.6,2.5C223,71.4,224.2,71.8,225.4,71.8z"/>
		<path fill="#5980B7" d="M169.9,254.1c-1.1,0.5-1.7,1.2-2,2.4c0,0.2,0,0.6,0,1c0.1,0.9,0.4,1.5,1.2,1.8c0.2,0.1,0.4,0.2,0.7,0.3
			c1.1-0.1,2.1-0.2,2.9-1.2c0.8-0.9,0.7-1.9,0.6-2.8C172.6,253.8,171.3,253.7,169.9,254.1z"/>
		<path fill="#5980B7" d="M106.8,57.1c1.8,0.2,3.3-0.9,3.2-2.6c0.1-1.6-1.4-3.2-3.2-3.4c-1.9-0.3-3.3,0.9-3.4,2.5
			C103.4,55.3,104.9,56.8,106.8,57.1z"/>
		<path fill="#5980B7" d="M264,147.6c-0.3,0-0.6,0-0.9,0c-0.8,0.3-1.3,0.9-1.7,2c-0.2,1.3,0.5,2.2,1.6,2.8c0.3,0,0.7,0,0.9,0
			c1.2-0.6,1.8-1.5,1.6-2.5C265.4,148.5,264.8,148,264,147.6z"/>
		<path fill="#5980B7" d="M170.8,45.6c0.7-0.2,1.4-0.1,1.9-0.5c0.5-0.5,0.5-1.2,0.8-1.7c-0.3-0.7-0.3-1.4-0.8-2
			c-0.5-0.6-1.3-0.7-1.9-1.1c-0.7,0.1-1.4,0.1-1.9,0.5c-0.6,0.5-0.6,1.2-0.8,1.8c0.3,0.7,0.3,1.4,0.8,2
			C169.4,45.1,170.1,45.3,170.8,45.6z"/>
		<path fill="#5980B7" d="M118,251.5c-0.8,0.3-1.6,0.5-2.2,1.1c-0.6,0.6-0.7,1.4-1,2.2c0.3,0.7,0.3,1.5,0.9,1.9
			c0.6,0.5,1.5,0.4,2.2,0.6c0.7-0.4,1.6-0.5,2.2-1.2c0.6-0.7,0.7-1.5,0.9-2.2c-0.3-0.7-0.4-1.5-1-1.9
			C119.5,251.5,118.7,251.6,118,251.5z"/>
		<path fill="#5980B7" d="M150.4,257.1c-0.7,0.4-1.5,0.6-2,1.2c-0.5,0.6-0.6,1.4-0.8,2c0.2,0.7,0.3,1.4,0.8,1.8
			c0.5,0.5,1.3,0.4,2.1,0.5c0.7-0.4,1.5-0.5,2-1.2c0.5-0.6,0.6-1.4,0.8-2.1c-0.3-0.6-0.3-1.4-0.9-1.8
			C151.9,257.1,151.1,257.2,150.4,257.1z"/>
		<path fill="#5980B7" d="M189.6,251.4c-0.6,0.4-1.3,0.5-1.8,1.1c-0.5,0.6-0.5,1.3-0.8,2c0.2,0.6,0.3,1.4,0.8,1.8
			c0.5,0.4,1.2,0.3,1.8,0.5c0.6-0.4,1.3-0.5,1.8-1.1c0.5-0.6,0.5-1.3,0.7-1.9c-0.2-0.6-0.3-1.3-0.8-1.7
			C190.9,251.4,190.2,251.6,189.6,251.4z"/>
		<path fill="#5980B7" d="M46.9,173.3c0.4-2.3-1.6-3.9-4.2-3.5c-2.4,0.8-3.2,2.1-2.9,3.7c0.5,1.3,1.4,2,3,2.4
			C44.6,175.9,46.1,175.1,46.9,173.3z"/>
		<path fill="#5980B7" d="M263.3,164.6c-0.9,0.3-1.3,0.9-1.6,1.8c-0.1,1.2,0.3,2.1,1.5,2.6c1.5,0.2,2.6-1.2,2.3-2.7
			C265,164.9,264.2,164.4,263.3,164.6z"/>
		<path fill="#5980B7" d="M42.7,129.6c0.6,0,1.2,0,1.7,0c1.5-0.4,2.4-1.1,2.9-2.4c0.1-0.7,0-1.7-1-2.6c-0.7-0.6-1.6-1-2.7-1
			c-1,0-1.9,0.3-2.6,0.9c-0.9,0.8-1.1,1.8-0.9,2.9C41,128.7,41,128.7,42.7,129.6z"/>
		<path fill="#5980B7" d="M256.3,109.5c1.1,0.1,1.9-0.8,2-2c0-1.3-0.8-2.3-1.9-2.4c-1.1-0.1-1.9,0.8-2,2
			C254.3,108.3,255.2,109.5,256.3,109.5z"/>
		<path fill="#5980B7" d="M57.1,96c1.9,0,3.4-1.1,3.4-2.7c0-1.6-1.6-3.1-3.5-3.2c-1.9-0.1-3.4,1-3.3,2.7
			C53.7,94.6,55.2,95.8,57.1,96z"/>
		<path fill="#5980B7" d="M216.4,61.5c1.7-0.5,1.5-0.3,2.2-2c-0.2-0.6-0.3-1.2-0.7-1.7c-0.4-0.5-1-0.7-1.5-1
			c-0.6,0.2-1.1,0.1-1.6,0.6c-0.4,0.4-0.4,1-0.6,1.4c0.2,0.7,0.3,1.2,0.7,1.8C215.3,61.1,215.9,61.1,216.4,61.5z"/>
		<path fill="#5980B7" d="M189.7,48.3c0.7-0.1,1.3-0.1,1.7-0.5c0.5-0.4,0.5-1.1,0.7-1.5c-0.2-0.6-0.3-1.2-0.7-1.8
			c-0.5-0.6-1.1-0.7-1.5-0.9c-0.8-0.1-1.4,0.1-1.9,0.4c-0.5,0.4-0.5,1.1-0.7,1.6C188.1,47.5,187.9,47.3,189.7,48.3z"/>
		<path fill="#5980B7" d="M150.7,42.2c0.7-0.1,1.3-0.1,1.9-0.5c0.5-0.4,0.6-1.1,0.8-1.6c-0.3-0.6-0.3-1.3-0.8-1.9
			c-0.6-0.6-1.3-0.8-1.9-1.1c-2,0.5-1.8,0.2-2.6,2.1c0.2,0.7,0.3,1.4,0.8,2C149.4,41.8,150.1,41.9,150.7,42.2z"/>
		<path fill="#5980B7" d="M129.2,260.9c-0.6,0-1.2,0.4-1.7,0.8c-0.5,0.5-0.6,1.2-0.8,1.8c-0.1,0.3,0.4,1.3,0.7,1.5
			c0.5,0.4,1.1,0.4,1.7,0.4c0.6,0,1.2-0.4,1.7-0.8c0.5-0.5,0.6-1.2,0.8-1.8c-0.3-0.5-0.3-1.1-0.7-1.5
			C130.4,260.9,129.8,260.9,129.2,260.9z"/>
		<path fill="#5980B7" d="M207.6,249.2c-0.3,0-1.1,0.5-1.4,0.7c-0.4,0.5-0.4,1-0.7,1.6c0.2,0.4,0.2,1,0.6,1.3
			c0.4,0.3,0.9,0.3,1.3,0.4c0.3,0,1.1-0.5,1.3-0.8c0.4-0.5,0.6-1,0.6-1.6c0-0.5-0.2-1-0.5-1.3C208.6,249.3,208.1,249.3,207.6,249.2z
			"/>
		<path fill="#5980B7" d="M263.2,182c-1,0.5-1.2,1.4-1,2.2c0.2,0.6,0.6,0.9,0.9,1.1c0.9,0.1,1.6-0.2,2-1.3
			C265.2,182.5,264.5,181.7,263.2,182z"/>
		<path fill="#5980B7" d="M263.3,117.9c0.3,0,0.6,0,0.9,0c1-0.4,1.1-1.2,1-2.2c-0.2-0.6-0.5-1-0.9-1.2c-0.4,0-0.7,0-0.9-0.1
			c-0.5,0.2-0.8,0.6-1,1.1C262.2,116.6,262.3,117.4,263.3,117.9z"/>
		<path fill="#5980B7" d="M42.6,105.8c1.6,0.3,3.4,0.1,3.4-1.4c0-0.4,0-1,0-1.4c0-1.6-1.8-1.9-3.4-1.8c-1,0.3-1.6,0.8-1.6,1.4
			c0,0.6,0,1.1,0,1.4C41,105,41.8,105.5,42.6,105.8z"/>
		<path fill="#5980B7" d="M44.2,198c1.8-0.7,2.1-1.9,1.9-3.1c-0.4-0.8-1-1.2-1.8-1.5c-0.7,0-1.3,0.1-1.7,0.1
			c-1.1,0.4-1.6,0.9-1.9,1.6c-0.3,1.3,0.1,2.5,1.9,3C43,198.1,43.7,198,44.2,198z"/>
		<path fill="#5980B7" d="M207.4,50.4c0.2,0,0.3,0.1,0.5,0.1c0.7-0.2,1.1-0.6,1.1-1.2c0-0.3,0-0.6,0-0.9c0-0.7-0.5-1.2-1.1-1.6
			c-0.2,0-0.4-0.1-0.6-0.1c-0.7,0.2-1.2,0.6-1.2,1.2c0,0.3,0,0.6,0,0.9C206,49.5,206.7,50.1,207.4,50.4z"/>
		<path fill="#5980B7" d="M128.9,38.3c0.8,0.2,1.5,0.1,2-0.4c0.6-0.5,0.8-1.1,0.7-1.7c-0.4-0.8-0.9-1.4-1.6-1.8
			c-0.9-0.4-1.6-0.2-2.1,0.3c-0.6,0.5-0.8,1.1-0.6,1.8C127.7,37.4,128,37.7,128.9,38.3z"/>
		<path fill="#5980B7" d="M71.1,237c-0.5-0.1-0.9-0.2-1.3-0.1c-0.4,0-0.8,0.3-1.2,0.4c-0.1,0.1-0.3,0.3-0.4,0.4
			c-0.2,0.1-0.3,0.2-0.4,0.2c-0.3,1.1-0.3,1.1,0,2.2c0.2,0.1,0.3,0.2,0.5,0.3c0.1,0.1,0.3,0.2,0.4,0.3c1.1,0.1,1.1,0.1,2.4-0.3
			c0.3-0.3,0.5-0.5,0.8-0.7c0.1-0.4,0.3-0.8,0.3-1.1c0-0.3-0.2-0.6-0.3-0.9C71.6,237.4,71.3,237.2,71.1,237z"/>
		<path fill="#5980B7" d="M249.9,218.5c0-0.5-0.3-0.7-0.6-0.9c-0.7-0.1-0.7-0.1-1.4,0.2c-0.3,0.3-0.5,0.7-0.6,1.1
			c-0.2,0.5,0.2,0.7,0.1,1.1c0.6,0.9,1.8,0.8,2.5-0.3C249.8,219.2,250.2,218.8,249.9,218.5z"/>
		<path fill="#5980B7" d="M242.1,228.1c0-0.5-0.3-0.7-0.6-0.9c-0.5-0.2-0.9-0.2-1.4,0.2c-0.3,0.3-0.6,0.6-0.6,1.1
			c-0.4,0.5,0.1,0.8,0,1.2c0.7,1,1.9,0.8,2.5-0.3C242,228.8,242.5,228.4,242.1,228.1z"/>
		<path fill="#5980B7" d="M161.6,266.4c-0.4,0-0.7-0.1-1-0.1c-0.3,0.1-0.6,0.2-0.8,0.3c-0.3,0.3-0.5,0.6-0.7,0.8
			c-0.1,0.4-0.2,0.7-0.2,1c0,0.3,0.2,0.6,0.2,0.7c0.3,0.3,0.5,0.5,0.7,0.7c0.8,0,0.8,0,1.8-0.4c0.2-0.2,0.4-0.5,0.6-0.7
			c0.1-0.4,0.2-0.7,0.2-1c0-0.3-0.1-0.6-0.2-0.9C162,266.8,161.8,266.6,161.6,266.4z"/>
		<path fill="#5980B7" d="M181.1,263.4c-0.4,0-0.6-0.1-0.9-0.1c-0.3,0.1-0.6,0.2-0.9,0.4c-0.1,0.1-0.2,0.2-0.3,0.4
			c-0.1,0.1-0.3,0.2-0.3,0.2c-0.2,1-0.2,1,0,1.9c0.2,0.2,0.4,0.3,0.6,0.5c0.3,0,0.6,0.1,0.9,0.1c0.3,0,0.6-0.2,0.9-0.4
			c0.2-0.2,0.4-0.5,0.6-0.7c0.1-0.4,0.2-0.7,0.2-0.9c0-0.3-0.1-0.5-0.2-0.8C181.5,263.8,181.3,263.6,181.1,263.4z"/>
		<path fill="#5980B7" d="M28.4,139.8c0.8,0,1.7,0,2.5,0c0.4-0.3,1.2-0.6,1.2-0.9c0-0.6,0-1.2,0-1.8c0-0.3-0.8-0.7-1.2-1
			c-0.8,0-1.7,0-2.5,0c-0.4,0.3-0.4,0.6-1.4,0.9c0,0.6,0,1.2,0,1.8C28,139.2,28,139.5,28.4,139.8z"/>
		<path fill="#5980B7" d="M271.3,156.9c-0.5,0-1.2-0.2-1.6,0.9c0,0.6-0.2,1.5,0.7,1.8c0.5,0,1.2,0.2,1.6-0.9
			C272,158.1,272.2,157.3,271.3,156.9z"/>
		<path fill="#5980B7" d="M30.7,159.5c-0.8,0-1.6,0-2.4,0c-0.4,0.3-0.2,0.7-1.2,1c0,0.7,0,1.2,0,1.8c1,0.3,0.9,0.6,1.2,0.9
			c0.8,0,1.6,0,2.4,0c0.4-0.3,0.3-0.7,1.3-1c0-0.6,0-1.2,0-1.8C31,160.1,31,159.8,30.7,159.5z"/>
		<path fill="#5980B7" d="M249.2,82.3c0.5-0.3,0.5-0.3,0.8-0.9c0.1-0.8-0.1-1.5-0.9-1.9c-1-0.3-1.7,0.5-1.5,1.7
			C248,82.2,248.1,82.2,249.2,82.3z"/>
		<path fill="#5980B7" d="M71,62.4c0.3-0.3,0.8-0.6,1.1-0.9c0.2-1.3-0.2-2.1-1.5-2.7c-1.7-0.4-2.8,0.6-2.5,1.9
			C68.6,62,69.5,62.4,71,62.4z"/>
		<path fill="#5980B7" d="M271.5,140.3c-1,0-1.5,0-1.5,0.9c0,0.3,0,0.6,0,0.7c0,0.9,0.7,1.1,1.4,1c0.4-0.1,0.6-0.5,0.6-0.9
			c0-0.3,0-0.6,0-0.9C272,140.9,271.7,140.6,271.5,140.3z"/>
		<path fill="#5980B7" d="M82.8,52.8c0.9,0.1,2-0.8,1.9-1.6c-0.1-0.8-1.3-1.9-2.1-1.9c-0.8,0-1.9,0.8-1.9,1.5
			C80.7,51.6,81.9,52.7,82.8,52.8z"/>
		<path fill="#5980B7" d="M256.2,208.3c-0.6,0-1.2,1-1.2,1.5c0,0.6,0.7,1.3,1.2,1.2c0.5-0.1,1.1-0.9,1.2-1.5
			C257.4,209,256.7,208.2,256.2,208.3z"/>
		<path fill="#5980B7" d="M56.7,227.2c-1,0.2-2,1.3-2,2c0,0.8,1.3,1.8,2.2,1.6c0.9-0.1,2.1-1.3,2.1-2.1
			C58.9,227.9,57.6,227,56.7,227.2z"/>
		<path fill="#5980B7" d="M180.4,36.4c0.6,0.1,1.5-0.6,1.5-1.3c0-0.6-0.9-1.7-1.5-1.8c-0.7-0.1-1.4,0.5-1.5,1.2
			C178.8,35.2,179.7,36.2,180.4,36.4z"/>
		<path fill="#5980B7" d="M160.8,33.1c0.6,0.2,1.6-0.6,1.6-1.3c0-0.6-0.9-1.7-1.5-1.8c-0.7-0.2-1.7,0.6-1.7,1.2
			C159.2,31.9,160.1,33,160.8,33.1z"/>
		<path fill="#5980B7" d="M94.7,255.9c-0.8,0.1-1.9,1.2-2,2c0,0.7,1.1,1.6,1.9,1.5c0.8-0.1,2-1.4,1.9-2
			C96.5,256.6,95.6,255.9,94.7,255.9z"/>
		<path fill="#5980B7" d="M232.8,237.1c-0.6,0.1-1.3,1.1-1.2,1.7c0,0.6,0.8,1.2,1.3,1.1c0.6-0.1,1.3-1,1.3-1.6
			C234.1,237.6,233.3,237,232.8,237.1z"/>
		<path fill="#5980B7" d="M140.3,270.1c-0.6,0.1-1.5,0.2-1.8,1.4c0,0.6-0.1,1.4,1.2,1.5c0.6-0.1,1.5-0.2,1.8-1.4
			C141.5,271.1,141.5,270.3,140.3,270.1z"/>
		<path fill="#5980B7" d="M95,43.3c0.8,0.1,1.7-0.6,1.6-1.4c-0.1-0.7-1-1.6-1.8-1.7c-0.8,0-1.6,0.6-1.6,1.3
			C93.3,42.3,94.2,43.2,95,43.3z"/>
		<path fill="#5980B7" d="M198.6,260.6c-0.6,0.1-1.3,1-1.2,1.6c0,0.6,0.7,1.1,1.3,1c0.7-0.1,1.3-1,1.3-1.5
			C199.9,261.1,199.3,260.5,198.6,260.6z"/>
		<path fill="#5980B7" d="M232.9,62.7c0.5,0.1,1.2-0.4,1.2-1c0-0.6-0.6-1.3-1.1-1.4c-0.5-0.1-1.1,0.4-1.2,1.1
			C231.8,61.8,232.4,62.5,232.9,62.7z"/>
		<path fill="#5980B7" d="M270.9,173.7c-0.5,0-1,0.6-1,1.2c0,0.6,0.5,1.2,1,1.2c0.4,0,1-0.6,1-1.2
			C271.8,174.3,271.3,173.7,270.9,173.7z"/>
		<path fill="#5980B7" d="M256.3,91.5c0.5,0.1,1.1-0.5,1.1-1c0-0.6-0.5-1.3-1-1.3c-0.5-0.1-1,0.5-1.1,1
			C255.2,90.7,255.8,91.4,256.3,91.5z"/>
		<path fill="#5980B7" d="M57,72c0.9,0.2,1.9-0.6,1.9-1.3c0-0.8-0.9-1.7-1.8-1.8c-1-0.1-1.9,0.8-1.9,1.4C55.3,71.1,56,71.8,57,72z"
			/>
		<path fill="#5980B7" d="M31.1,115.6c0.5-0.7,0.5-1.4,0-2.1c-1-0.5-1.8-0.5-2.7-0.1c-0.6,0.8-0.5,1.5,0,2.2
			C29.3,116.1,30.2,116.1,31.1,115.6z"/>
		<path fill="#5980B7" d="M271.7,125.8c0.3-0.5,0.3-1.1,0-1.6c-0.5-0.3-0.9-0.3-1.3-0.1c-0.3,0.6-0.3,1.1,0,1.6
			C270.8,126.1,271.2,126.1,271.7,125.8z"/>
		<path fill="#5980B7" d="M28.1,183.8c-0.5,0.8-0.5,1.6,0,2.2c0.9,0.4,1.8,0.3,2.6-0.1c0.6-0.8,0.5-1.5,0-2.2
			C29.8,183.2,28.9,183.3,28.1,183.8z"/>
		<path fill="#5980B7" d="M106.5,265.3c-0.8,0.1-1.4,0.9-1.4,1.5c0,0.7,0.7,1.2,1.4,1.1c0.8-0.1,1.4-0.9,1.4-1.5
			C107.9,265.7,107.2,265.2,106.5,265.3z"/>
		<path fill="#5980B7" d="M199.3,39c0.7-0.2,0.9-0.6,0.5-1.6c-0.2-0.1-0.4-0.2-0.6-0.3c-0.2-0.1-0.4-0.2-0.6-0.2
			c-0.8,0.3-0.9,0.7-0.6,1.4C198.3,38.9,198.7,39.2,199.3,39z"/>
		<path fill="#5980B7" d="M225.2,247.6c-0.1-0.1-0.3-0.1-0.4-0.1c-0.4,0-1,0.5-1.1,1c0,0.2,0,0.4,0.1,0.6c0.1,0.4,0.4,0.6,0.8,0.6
			c0.4-0.3,0.8-0.6,1.2-1c-0.1-0.3-0.1-0.6-0.2-0.8C225.4,247.8,225.3,247.7,225.2,247.6z"/>
		<path fill="#5980B7" d="M141.1,28.9c0.5-0.6,0.5-1.2-0.2-1.9c-0.5,0-1.1,0-1.7,0c-0.4,0.5-0.4,1.1,0.1,1.7
			C139.9,29.1,140.5,29.2,141.1,28.9z"/>
		<path fill="#5980B7" d="M44.3,217.6c-0.7-0.4-1.3-0.2-2.4,0.6c0.3,0.7,0.7,1.4,1.3,2c1.2-0.2,1.7-0.6,1.8-1.3
			C45.1,218.3,44.8,217.9,44.3,217.6z"/>
		<path fill="#5980B7" d="M263.1,199.7c-0.3,0.2-0.5,0.6-0.4,1c0.1,0.5,0.4,0.9,1,0.8c0.2-0.6,0.7-1,0.6-1.7
			C264,199.4,263.6,199.3,263.1,199.7z"/>
		<path fill="#5980B7" d="M45,81.3c0-0.5,0-0.9,0-1.3c0-0.1-0.4-0.2-0.6-0.3c-0.5,0.7-0.9,1.3-1.4,1.9c0.6,0,1,0.1,1.2,0.1
			C44.6,81.5,45,81.4,45,81.3z"/>
		<path fill="#5980B7" d="M263.9,100.2c-0.1-0.4-0.3-0.8-0.4-1.1c-0.1-0.1-0.2-0.4-0.4-0.2c0,0.3,0,0.5,0,0.8
			c0.1,0.2,0.2,0.4,0.3,0.5C263.6,100.2,263.7,100.2,263.9,100.2z"/>
		<path fill="#5980B7" d="M225.3,52.2c-0.4-0.3-0.8-0.8-1.4-0.9c0.2,0.3,0.4,0.6,0.5,0.7C224.7,52.2,225,52.2,225.3,52.2z"/>
		<path fill="#5980B7" d="M106.9,33.9c0.4-0.3,0.6-0.5,0.9-0.7c-0.5,0.2-1,0.3-1.5,0.5c0,0,0,0.1,0,0.1
			C106.6,33.8,106.8,33.9,106.9,33.9z"/>
		<path fill="#5980B7" d="M265.2,134.5c0.3-0.4,0.4-0.8,0.4-1.4c0-1.2-0.8-2.1-1.9-2.2c-0.8,0-1.5,0.6-1.8,1.4
			c-0.1,0-0.2-0.1-0.4-0.1c-0.7,0-1.4-0.3-2.1-0.3c0,0,0,0,0,0c-2.9,0-5.5-0.1-7.8-0.5c-0.3-0.8-0.7-1.4-1.4-1.9
			c-0.8-0.6-1.6-0.4-2.3-0.5c-0.7,0.2-1.2,0.7-1.7,1.2c-2.2-0.7-4.1-1.7-5.7-2.8c0.1,0,0.2,0,0.2,0c1.9,0.3,3.5-1.7,3.5-3.4
			c0-1.1-0.2-2.1-0.9-3c-0.7-0.8-1.4-1.1-2.3-1.3c-0.9-0.1-1.7,0.2-2.3,0.7l1.3-11.1c0.2,0.1,0.5,0.1,0.8,0.1c0.6,0.1,1.2,0,1.7-0.4
			c0.5-0.4,0.9-0.9,1.1-1.6c0.2-0.5,0.1-0.9,0.1-1.3c0.1-0.7-0.1-1.3-0.5-1.8c-0.4-0.6-0.8-1-1.5-1.3c-0.4-0.2-0.7-0.1-1.1-0.2
			l0.2-1.4c0.2-1.3-0.2-2.6-1-3.7c-0.8-1-2-1.7-3.3-1.9l-0.3,0c0.7-2.3,1.4-4.5,2.2-6.6c0.3,1,0.9,1.7,1.8,2.1c0.1,0,0.3,0,0.6,0.1
			c0.9,0.2,1.5-0.2,2-0.9c0.2-0.2,0.3-0.5,0.4-0.7c0.1-1.1,0-2-0.7-2.8c-0.7-0.8-1.5-0.8-2.3-0.9c-0.2,0.1-0.3,0.2-0.5,0.3
			c1.3-3.3,2.7-6,3.7-7.9c0.8-1.5,0.6-3.4-0.6-4.7c-0.5-0.5-1.1-0.8-1.7-1c0.1,0,0.2,0,0.2,0c0.5-0.3,0.5-0.3,0.8-0.9
			c0.1-0.8-0.1-1.5-1-1.9c-1-0.3-1.7,0.5-1.5,1.7c0.3,0.6,0.5,0.8,0.8,1c-0.8-0.1-1.6,0-2.3,0.4c-10.7,5.3-20,8.5-27.8,9.5
			c-0.2-0.1-0.3-0.3-0.5-0.4c-0.6-0.4-1.2-0.7-1.9-0.8c-1.2-0.2-2.3,0.1-3.1,0.9c-0.2,0.2-0.3,0.4-0.5,0.6
			c-6.3-0.2-11.2-2.2-14.7-6.2c-5.1-5.7-6.5-14.1-6.8-19.9c0.1-0.1,0.3-0.3,0.4-0.5c0.5-0.9,0.6-2.2,0.1-3.2
			c-0.1-0.3-0.3-0.6-0.5-0.8c0-1.3,0.1-2.2,0.1-2.2c0.2-1.9-1-3.7-2.8-4.3c-1.8-0.6-3.8,0.3-4.7,2c-2.1,4.1-4.3,7.8-6.4,10.9
			c-1.3,0.4-2.1,1.4-2.3,3.2c-1.4,1.9-2.9,3.5-4.3,4.9c-0.4-0.2-0.8-0.3-1.2-0.4c-1.4-0.3-2.6,0-3.6,0.8c-0.8,0.7-1.3,1.7-1.4,2.9
			c0,0.5,0,1,0.2,1.4c-2.9,1.7-5.8,2.5-8.7,2.5c-2,0-3.9-0.4-5.8-1.1c0.6-0.2,1.1-0.5,1.6-0.9c0.8-0.7,1.4-1.7,1.4-2.9
			c0-1.3-0.5-2.5-1.4-3.4c-0.8-0.9-1.9-1.5-3.2-1.7c-1.3-0.2-2.5,0.2-3.4,0.9c-0.9,0.7-1.4,1.7-1.4,2.9c0,0.6,0.1,1.1,0.3,1.6
			c-8.2-6.1-14.8-16.7-17.2-21.7c0,0,0,0,0,0c0.8,0,1.4-0.1,1.9-0.5c0.6-0.5,0.6-1.2,0.8-1.6c-0.2-1.7-1.2-2.7-2.9-3.1
			c-0.7,0.1-1.4,0.1-2,0.5c-0.6,0.4-0.6,1.2-0.9,1.7c0.1,0.3,0.2,0.6,0.3,0.9c-0.5-0.1-1-0.1-1.5,0c-1.8,0.3-3.1,1.8-3.2,3.6
			c-0.7,8.8-2.1,16.1-4.1,21.9c-2.6-0.4-4.6,1.4-4.7,3.6c-0.1,1.3,0.6,2.5,1.5,3.4c-1.3,2.1-2.7,3.9-4.3,5.4
			c-0.8-1.5-2.5-2.7-4.2-2.9c-2.8-0.3-4.9,1.6-5,3.8c0,1.2,0.5,2.3,1.4,3.2c-1.3,0.3-2.7,0.5-4.2,0.5c-4.8,0-9.7-1.5-13.9-3.4
			c0.3-0.4,0.4-0.8,0.4-1.2c0-0.4,0-0.9,0-1.3c-0.5-1.1-1.3-1.8-2.7-2.3c-0.5,0-1.3-0.1-1.8-0.2c-1.2,0.2-2,0.8-2.5,1.6
			c-3.3-2-5.4-3.6-5.4-3.7c-1.6-1.3-3.9-1.2-5.3,0.3c-1.4,1.4-1.6,3.7-0.3,5.3c5.3,6.7,9,12.8,11.1,18.4L50,106.5
			c-2.7,0.8-4.2,3.6-3.4,6.2l6.1,20.9c-8.6,4.3-17.3,5.7-17.5,5.8c-1.7,0.3-3,1.6-3.3,3.3c-0.3,1.7,0.5,3.4,2,4.2
			c2.1,1.2,4.1,2.4,6,3.7c0.3,1.1,1.4,1.9,2.9,2.4c0.2,0,0.4,0,0.5,0c3.8,2.9,6.8,6.1,9.1,9.3c0.1,0.4,0.3,0.8,0.7,1.2
			c0.1,0.1,0.1,0.1,0.2,0.2c2.1,3.4,3.5,7.1,4,10.8c0.2,1.9,0.3,3.7,0.2,5.5c-0.5,0-1.1,0-1.8,0.1c-2.4,1-3.5,2.5-3,4.7
			c0.8,1.4,1.9,2.3,3.5,2.5c-3.6,11.9-12.7,21-12.8,21.1c-1.3,1.3-1.6,3.3-0.7,4.9c0.9,1.6,2.8,2.3,4.6,1.8
			c3.8-1.1,7.4-1.7,10.6-1.7c3.3,0,6.2,0.6,8.7,1.8c-0.3,0.5-0.5,1-0.5,1.5c0.1,2,1.7,3.3,3.8,3.1c0.7-0.1,1.3-0.3,1.9-0.6
			c8,9,7.3,25.4,7.3,25.6c-0.1,1.3,0.5,2.4,1.4,3.2c-0.1,0.5-0.1,0.6,0.2,1.6c0.3,0.2,0.5,0.4,0.7,0.6c0.4,0,0.8,0.1,1.2,0.1
			c0.4,0,0.7-0.3,1-0.4c0.3-0.3,0.6-0.6,0.9-0.8c0-0.2,0.1-0.3,0.1-0.4c0.4-0.2,0.8-0.4,1.2-0.8c4.1-3.9,8.1-7,12-9.5l15.7-4.6
			c0,0,0,0,0,0c0,2.4,2,4,4.5,3.7c2.6-0.3,4.5-2.3,4.5-4.6c0-0.4-0.1-0.8-0.1-1.1c19.6,2.8,30.8,25.5,31,25.9
			c0.7,1.4,2.1,2.3,3.6,2.3c0.1,0,0.2,0,0.3,0c1.6-0.1,3-1.2,3.5-2.8c0.8-2.6,1.7-4.9,2.7-7.1c0.3-0.4,0.4-0.8,0.6-1.2
			c1.4-2.9,2.9-5.5,4.6-7.7c0.5,0.2,1.1,0.3,1.7,0.1c2.6,0,4.6-2.6,4.3-4.6c0.1-0.5,0-1-0.2-1.4c3.3-2.5,7-4,11.1-4.6l3.2,0.4
			c-0.7,0.2-1.4,0.7-2,1.3c-0.8,0.8-1.1,1.9-1.2,2.9c0.3,2.5,1.5,3.5,4,3.6c0.9-0.3,1.8-0.7,2.6-1.5c0.8-0.8,1-1.9,1.2-2.9
			c-0.2-1.5-0.7-2.5-1.6-3.1l9.9,1.2c0.9,0.3,1.7,0.6,2.5,0.9c0.2,1.6,1.5,2.6,3.2,2.6c0.5-0.1,0.9-0.3,1.4-0.5
			c3.1,1.6,5.1,2.9,5.1,2.9c0.2,0.2,0.5,0.3,0.7,0.4c0,0-0.1,0.1-0.1,0.1c-0.5,0.5-0.5,1.2-0.7,1.9c0.2,0.6,0.3,1.3,0.7,1.7
			c0.5,0.4,1.1,0.3,1.6,0.5c0.7-0.3,1.3-0.5,1.7-1c0.4-0.5,0.5-1.2,0.7-1.8c-0.2-0.5-0.2-1-0.5-1.4c0.1-0.1,0.3-0.1,0.4-0.2
			c1.3-0.8,2-2.3,1.8-3.8c0.1,0,0.2,0,0.3,0c1.5,0,2.8-0.6,3.7-1.7c0.1,0,0.2,0,0.2,0c1.4-0.1,2.5-1.6,2.6-2.9c0-1-0.5-1.8-1.3-2.2
			l1.7-13.8c0.1-0.3,0.3-0.6,0.4-0.9c0.2-0.6,0.2-1.3,0-2.1l1.4-12c2.8-1.5,6.1-2.3,9.9-2.5c0.4,0.2,1,0.4,1.5,0.3
			c0.5,0,0.9-0.2,1.3-0.4c4.5,0.1,7.9,1.1,8,1.1c1.7,0.5,3.4-0.2,4.4-1.6c0.4-0.5,0.6-1.1,0.7-1.7c0.2,0.2,0.4,0.3,0.7,0.2
			c0.3,0,0.7-0.1,1-0.1c0.4-0.2,0.7-0.7,1-1.1c0.2-0.2,0.3-0.5,0.3-0.8c0-0.4,0-0.8,0-1.3c-0.4-0.4-0.8-0.8-1.2-1.3
			c-0.4,0-0.8,0.1-1.1,0.1c-0.2,0-0.4,0.1-0.5,0.2c-0.3,0.3-0.6,0.7-0.9,1.1c0,0-0.1-0.1-0.1-0.1c-1.3-1.7-2.5-3.4-3.6-5.1
			c0.2-0.4,0.4-0.8,0.6-1.2c0-0.3,0.1-0.6,0.2-1.1c0,0,0,0-0.1-0.1c0-0.1-0.1-0.2-0.1-0.2c0-0.7-0.3-1.2-0.7-1.7
			c-0.3-0.5-1.1-0.8-1.7-0.8c-0.1,0-0.3-0.1-0.3-0.1c-0.3,0.1-0.5,0.1-0.8,0.2c-3.3-6.9-4.3-13.5-2.9-19.6c0.7-3,2-5.8,3.5-8.2
			c1.7,0,3.3-1.8,3.3-3.6c0-0.2,0-0.4-0.1-0.6c1.8-2,3.7-3.7,5.4-5.1c0,0,0,0,0,0c0.5-0.2,0.9-0.5,1.2-0.9c2.9-2.1,5.1-3.2,5.1-3.3
			c1.7-0.8,2.6-2.8,2.1-4.6C265.5,135.1,265.4,134.8,265.2,134.5z M175.5,63.2c1,6.2,3.3,13.2,8.1,18.6c9.6,10.8,25.9,11.9,48.2,2.8
			c-1.2,3-2.4,6.6-3.5,10.4L154.2,86l-1.3-4.4c0-0.1-0.1-0.1-0.1-0.2C160.8,79.6,168.4,73.5,175.5,63.2z M117.4,61.4
			c4.9,7,12.4,15.5,21.7,19l-36.5,10.7C109,86.2,114.6,77.3,117.4,61.4z M71.6,92.6c4.3,1.8,9.1,3.2,14.1,3.4l-11.2,3.3
			C73.7,97.1,72.7,94.9,71.6,92.6z M45.9,144.9c2.8-0.9,5.9-2,9.1-3.5l5.4,18.6C57.1,154.5,52.3,149.5,45.9,144.9z M56,205.5
			c4.6-6.7,9.8-16.8,9.5-28.1l10.1,34.5C70.5,207.2,63.9,205.1,56,205.5z M91.3,229.9L57.6,114.7l87.1-25.5l33.7,115.3L91.3,229.9z
			 M170.4,141.4l-8-27.3l11.1,1.3L170.4,141.4z M156.2,246.9c-4.2-6.1-11.3-14.5-21.2-19.4l6.8-2l28,3.4
			C164.8,232.7,160,238.4,156.2,246.9z M216.2,224.5l-50.1-6l17.5-5.1l23.4,2.8c0.1,0,0.3,0,0.4,0c1.7,0,3.3-1.3,3.5-3.1l3-25.1
			c0.2-1.9-1.1-3.7-3.1-3.9l-29-3.5l-6.5-22.2l5.5-45.7c0.1-0.9-0.1-1.8-0.7-2.6s-1.4-1.2-2.3-1.3l-17.6-2.1l-3-10.3l73.3,8.8
			L216.2,224.5z M189.5,207c0-0.2-0.1-0.4-0.1-0.6l-5.4-18.5l22.5,2.7l-2.2,18.2L189.5,207z M237.3,159.9
			c-2.2,9.2-0.3,18.8,5.5,28.8c-0.6,0-1.2,0-1.8,0c-3.8,0-7.3,0.5-10.5,1.5l6.6-55.2c3.5,2.3,7.8,3.9,12.9,4.8
			C244.9,144.3,239.4,151,237.3,159.9z"/>
		<path fill="#5980B7" d="M222.4,116c-0.6-0.7-1.4-1.2-2.3-1.3l-28-3.4c-0.9-0.1-1.9,0.1-2.6,0.7c-0.7,0.6-1.2,1.4-1.3,2.3
			l-1.6,13.2c-0.2,1.9,1.1,3.7,3.1,3.9l28,3.4c0.1,0,0.3,0,0.4,0c1.7,0,3.3-1.3,3.5-3.1l1.6-13.2C223.2,117.7,222.9,116.8,222.4,116
			z M215,127.5l-21-2.5l0.8-6.3l21,2.5L215,127.5z"/>
		<path fill="#5980B7" d="M216.5,141.2l-28-3.4c-0.9-0.1-1.9,0.1-2.6,0.7c-0.7,0.6-1.2,1.4-1.3,2.3l-3.4,28.5
			c-0.2,1.9,1.1,3.7,3.1,3.9l28,3.4c0.1,0,0.3,0,0.4,0c0.8,0,1.5-0.3,2.2-0.7c0.7-0.6,1.2-1.4,1.3-2.3l3.4-28.5
			C219.7,143.2,218.4,141.5,216.5,141.2z M209.6,169.3l-21-2.5l2.6-21.5l21,2.5L209.6,169.3z"/>
		<path fill="#5980B7" d="M154.5,164.7c0.7-2.7,0.9-4.6,0.9-4.8c0.1-1.7-0.7-3.3-2-4.3c-0.3-0.2-1.5-1.1-3.6-2
			c-7.4-12.7-19.7-21-32.5-21c-2.7,0-5.3,0.4-7.9,1.1c-7.5,2.2-13.8,7.4-17.7,14.8c-3.8,7.1-5.2,15.7-4.2,24.4
			c-1.1,1.9-1.5,3.3-1.6,3.4c-0.5,1.6-0.1,3.4,1,4.7c0.1,0.1,1.3,1.5,3.3,3.1c6.2,17.2,20.9,29.1,36.3,29.1c2.7,0,5.3-0.4,7.9-1.1
			c7.5-2.2,13.8-7.4,17.7-14.8C157,188,157.9,176.2,154.5,164.7z M143.2,163.6c0,0-0.7,5.8-6.8,7.7c-6.1,1.9-10.3-2.5-10.3-2.5
			s2.4-4,8.1-5.7S143.2,163.6,143.2,163.6z M98.7,152.3c3-5.5,7.4-9.3,12.9-10.9c1.8-0.5,3.7-0.8,5.7-0.8c7.7,0,15.4,4.2,21.3,11
			c-2.5,0.1-5,0.5-7.5,1.3c-5.9,1.8-10.2,4.9-13.1,7.8c-5.2-0.9-10.5-0.6-15.4,0.9c-2.9,0.9-5.3,2.1-7.3,3.4
			C95.5,160.4,96.7,156.1,98.7,152.3z M116.1,171.9c0,0-0.7,5.8-6.8,7.7c-6.1,1.9-10.3-2.5-10.3-2.5s1.4-3.7,7.1-5.4
			S116.1,171.9,116.1,171.9z M144.9,193.6c-3,5.5-7.4,9.3-12.9,10.9c-1.8,0.5-3.7,0.8-5.7,0.8c-9.3,0-18.6-6.1-24.6-15.4
			c1.4,0.3,2.8,0.4,4.4,0.4c2.2,0,4.4-0.3,6.5-1c4.9-1.5,8.9-4.5,11.7-8.7c2.7,1.1,5.5,1.6,8.3,1.6c2.2,0,4.4-0.3,6.5-1
			c3.9-1.2,6.9-3.2,9.2-5.5C148.9,182.2,147.7,188.4,144.9,193.6z"/>
		<path fill="#5980B7" d="M141.2,114.7c0.4-0.8,0.5-1.8,0.3-2.7l-3.1-10.3c-0.6-1.8-2.5-2.9-4.4-2.3l-63.5,19.2
			c-0.9,0.3-1.6,0.9-2.1,1.7c-0.4,0.8-0.5,1.8-0.3,2.7l3.1,10.3c0.5,1.5,1.8,2.5,3.3,2.5c0.3,0,0.7,0,1-0.2l63.5-19.2
			C140,116.1,140.8,115.5,141.2,114.7z M77,127.9l-1.1-3.6l56.8-17.2l1.1,3.6L77,127.9z"/>
	</g>
</g>
</svg>
