<?xml version="1.0" encoding="utf-8"?>
<!-- Generator: Adobe Illustrator 18.1.1, SVG Export Plug-In . SVG Version: 6.00 Build 0)  -->
<svg version="1.1" id="Layer_1" xmlns="http://www.w3.org/2000/svg" xmlns:xlink="http://www.w3.org/1999/xlink" x="0px" y="0px"
	 viewBox="0 0 300 300" enable-background="new 0 0 300 300" xml:space="preserve">
<g>
	<path fill="#CCCCCC" d="M127,44v5.7c11,4.5,20,11.7,27,20.9V44H127z"/>
	<rect x="165" y="44" fill="#CCCCCC" width="27" height="27"/>
	<rect x="203" y="44" fill="#CCCCCC" width="27" height="27"/>
	<path fill="#CCCCCC" d="M192,107.4V82h-27v9.9c2,5.9,2.2,12.1,2.4,18.1h15.2L192,107.4z"/>
	<polygon fill="#CCCCCC" points="230,82 203,82 203,103.5 230,94.1 	"/>
	<path fill="#FFFFFF" d="M230,121.6v-17.1L165.9,127c-0.5,2.2-1,4.3-1.7,6.4L230,121.6z"/>
	<path fill="#FFFFFF" d="M230,131.7l-59.3,10.6c19.8,1.8,37,13.3,46.7,29.9l12.6-10V131.7z"/>
	<path fill="#FFFFFF" d="M225.2,213.5c0.3,1,0.3,2,0,3c-0.8,2.6-1.6,4.9-2.3,7c-0.5,1.4-1,2.8-1.5,4.2l29.2,17
		c0.8-4.3-0.4-6.3-2.1-8.9c-1.7-2.7-3.9-6.1-4.2-11.7c-0.4-8.3,4.4-10.7,6.9-12c2-1,3.1-1.6,2.9-7.6c-0.1-3.1-1.5-4.7-3.9-7.2
		c-3.4-3.6-8.5-9.1-2.1-19.4c3.6-5.8,0.9-12.3-1.5-16.3l-24.8,19.9c2.7,7,4.2,14.7,4.2,22.7C225.9,207.4,225.7,210.4,225.2,213.5z"
		/>
	<path fill="#FFFFFF" d="M82.7,177.9c6.4,10.3,1.3,15.8-2.1,19.4c-2.4,2.6-3.7,4.2-3.9,7.2c-0.2,6,0.9,6.5,2.9,7.6
		c2.6,1.3,7.3,3.7,6.9,12c-0.3,5.6-2.6,9.1-4.4,11.8c-1.7,2.6-2.9,4.5-2.1,8.8l9-5.2v-61.4c-2-0.5-4.8-1.1-7-1.8
		C82.2,176.8,82.4,177.3,82.7,177.9z"/>
	<path fill="#FFFFFF" d="M145.9,161.8c-5.3,4.9-11.3,8.9-17.9,11.9l63.6,74.9c5.6-3.5,10.5-8.1,14.4-13.5L145.9,161.8z"/>
	<path fill="#FFFFFF" d="M215.8,201.2c-1.3-23.4-17.7-42.7-39.2-47.8L215.8,201.2z"/>
	<path fill="#FFFFFF" d="M155.9,255.4l-41.2-49.8C115.3,230.4,132.9,250.9,155.9,255.4z"/>
	<path fill="#CCCCCC" d="M211.1,223.9c0.8-2.2,1.8-4.8,2.8-7.8l-51.5-62.7c-2.8,0.3-5.7,0.7-8.2,1.1L211.1,223.9z"/>
	<path fill="#CCCCCC" d="M170,255.1c3.7-0.8,7.5-1.7,10.6-2.5l-60.1-70.7c-1.1,2.5-2.3,5.6-3.5,9.2L170,255.1z"/>
	<path fill="#FFFFFF" d="M118,166.9c-1.9,0.2-3.7,0.2-5.4,0.2c-12,0-21.1-3.9-27.7-8.4c-16.5-11.4-24.4-32.4-22.5-46.2
		c3.8-27.4,19.5-40.9,44.1-38.1c19,2.2,26.6,15.7,27.4,27.6c0.9,13.5-6.4,29.6-20.2,33c-8.8,2.2-14.3-0.4-17.4-2.9
		c-8-6.5-7.7-18.6-7.7-20c0.1-3,2.7-5.4,5.7-5.3c3,0.1,5.4,2.7,5.3,5.7c-0.1,2.1,0.5,8.5,3.7,11.1c1.7,1.4,4.3,1.6,7.8,0.7
		c7.1-1.8,12.6-11.7,11.9-21.6c-0.4-5.8-3.2-15.8-17.7-17.4c-18.5-2.1-29,7.3-32,28.7c-1.2,8.9,4.3,26.3,17.8,35.6
		c14.1,9.7,33.1,8.4,55-3.7c0.2-0.1,0.4-0.2,0.6-0.3c6.7-9.4,10.6-21.1,10.6-33.6c0-31.6-25-57.3-55.7-57.3
		c-30.7,0-55.7,25.8-55.7,57.4c0,29.1,21.2,52.9,48.5,56.9h14.5C112,168,115.1,167.9,118,166.9z"/>
	<rect x="100" y="180" fill="#CCCCCC" width="4" height="72"/>
	<g>
		<path fill="#5980B7" d="M215.5,239.1c-0.4,0.6-0.8,0.9-1.3,1.9h9.8l-6.7-3.9C216.9,237.9,216.3,238.6,215.5,239.1z"/>
		<path fill="#5980B7" d="M254.3,223.6c-0.1-1.4,0.1-1.8,0.1-1.8c0.2-0.2,0.9-0.5,1.3-0.7c4.3-2.2,8.8-5.4,8.4-16.9
			c-0.3-6.9-3.9-10.8-6.6-13.7c-3-3.1-3.3-3.5-0.9-7.3c9.5-15.4-4.7-31.4-5.3-32.1c-1.8-2-4.5-2.2-6.6-0.5l-3.6,3.1V116V77.1V38.1
			c0-3-3.2-5.1-6.2-5.1h-37.9h-37.9h-37.9c-3,0-4.9,2.1-4.9,5.1v8.1c2,0.5,4.1,1.1,6.2,1.8c-2.1-0.7-4.4-1.3-6.6-1.8
			c-4.4-1-9.1-1.5-13.8-1.5c-36.3,0-65.8,30.2-65.8,67.3c0,25.7,14.1,48.1,34.9,59.5c0,0,0,0,0,0c0,3.7,0.9,7.7,3.3,11.5
			c2.4,3.8,2.1,4.2-0.9,7.3c-2.6,2.8-6.3,6.7-6.5,13.6c-0.5,11.5,4.1,14.7,8.4,16.9c0.5,0.2,1.2,0.6,1.3,0.7c0,0,0.2,0.4,0.2,1.9
			c-0.1,2.9-1.2,4.5-2.7,6.8c-3.7,5.6-6.4,11.2-1.5,23.6c0.5,1.4,1.6,2.4,3,2.9c0.5,0.2,1.1,0.3,1.6,0.3c0.9,0,1.9-0.2,2.7-0.7
			l9.4-5.4v6.4c0,3,2.2,5.5,5.3,5.5h14.8c3,0,5.9-2.5,5.9-5.5v-19.3c11,16.9,29.3,28.1,50.5,28.1c0.2,0,0.2,0,0.4,0
			c-0.5-0.2-0.9-0.5-1.3-0.8c0.4,0.3,0.8,0.6,1.2,0.8c0.7,0.3,1.4,0.4,2.1,0.4c0.4,0,0.7,0,1.1-0.1c0.9-0.2,2.3-0.5,3.9-0.8
			c3.7-0.8,8.8-2,13-3.2c2.9-0.8,5.4-1.7,6.8-2.4c0.7-0.4,1.3-0.9,1.8-1.6c7.8-4.4,14.5-10.5,19.7-17.8c0.4-0.6,0.9-1.2,1.3-1.8
			c0.8-0.5,1.5-1.2,1.9-2.1l6.7,3.9l26.9,15.7c0.8,0.4,1.6,0.7,2.5,0.7c0.6,0,1.1-0.1,1.6-0.3c1.4-0.5,2.5-1.5,3-2.9
			c4.9-12.4,2.3-18-1.2-23.6C255.5,228.1,254.4,226.5,254.3,223.6z M165.8,127c0,0,0.2,0,0.2,0l64-22.5v17.1l4-0.7
			c0.4-0.1,0.6-0.1,0.9-0.1c-0.3,0-0.7,0-1,0.1l-4.1,0.7L164,133.4C164.7,131.3,165.3,129.2,165.8,127z M237.5,93.4
			c-0.8-0.6-1.7-0.9-2.7-0.9C235.8,92.4,236.8,92.7,237.5,93.4c1.4,0.9,2,2.5,2,4.1C239.6,95.8,238.9,94.3,237.5,93.4z M230,94
			l-0.3,0.1l-26.7,9.4V82h27V94z M154.3,150.5c0,0.8-0.1,1.6-0.4,2.4c0,0,0,0,0,0C154.2,152.1,154.4,151.3,154.3,150.5z
			 M162.3,153.4l51.5,62.7c-1,3-1.9,5.6-2.8,7.8l-56.9-69.4C156.6,154.1,159.5,153.7,162.3,153.4z M230,131.8v30.4l9.8-8l0.3-0.2
			l-0.3,0.2l-10,8l-12.5,10c-9.8-16.6-26.7-28.1-46.5-29.9L230,131.8z M203,44h27v27h-0.7H203V44z M165,44h27v27h-0.7H165V44z
			 M127,49.7V44h27v26.6c0,0.3,0.1,0.5,0.4,0.5c0.4,1,0.6,1,0.9,1.5c0.8-0.8,1.8-1.2,3-1.4c-1.1,0.2-1.9,0.9-2.8,1.6
			c4,5.7,7.5,12.3,9.5,19.1V82h27v0.6v24.8l-0.5,0.1l-8.9,3.1l-15.3,5.4c0-0.1,0-0.3,0-0.4l15.2-5.5h-15.2c0,1,0,1.3,0,1.8
			c0,0,0,0.1,0,0.1c0-0.5,0-1,0-1.5c-0.1-6.5-1.2-12.7-3-18.6c-2.1-6.8-5.2-13.2-9.2-18.9c-0.3-0.5-0.7-1-1-1.5
			c-0.2-0.3-0.5-0.7-0.8-1c-7-9.1-16.3-16.4-26.9-20.9c-0.6-0.2-0.9-0.4-1.4-0.7C125.6,49.3,126,49.5,127,49.7z M89,239.5l-9,5.2
			c-0.8-4.2,0.5-6.2,2.2-8.8c1.8-2.8,4.1-6.2,4.4-11.8c0.4-8.3-4.4-10.7-7-12c-2-1-3.1-1.6-2.9-7.6c0.1-3.1,1.5-4.7,3.9-7.2
			c3.4-3.6,8.5-9.1,2.1-19.4c-0.3-0.5-0.3-1-0.6-1.5c2.2,0.7,4.9,1.3,6.9,1.8V239.5z M104,252h-4v-72h4V252z M94.4,169
			c-27.3-4-48.5-27.8-48.5-56.9c0-31.6,25-57.4,55.7-57.4c30.7,0,55.7,25.7,55.7,57.3c0,12.5-3.9,24.1-10.6,33.6c0,0,0,0,0,0
			c-0.2,0.1-0.4,0.2-0.6,0.3c-21.9,12.1-40.9,13.4-55,3.7c-13.6-9.3-19.1-26.7-17.8-35.6c3-21.4,13.4-30.8,32-28.7
			C119.8,87,122.6,97,123,102.8c0.7,10-4.8,19.9-11.9,21.6c-3.5,0.9-6.1,0.6-7.8-0.7c-3.2-2.6-3.7-9-3.7-11.1c0.1-3-2.3-5.6-5.3-5.7
			c-3-0.1-5.6,2.2-5.7,5.3c-0.1,1.4-0.3,13.5,7.7,20c3.1,2.5,8.7,5.1,17.4,2.9c13.8-3.4,21.1-19.5,20.2-33
			c-0.8-11.9-8.4-25.4-27.4-27.6c-24.6-2.8-40.3,10.7-44.1,38.1c-1.9,13.8,6,34.8,22.5,46.2c6.6,4.5,15.7,8.4,27.7,8.4
			c1.7,0,3.5-0.1,5.4-0.3c9.5-0.9,20.7-4.2,33.5-11.3c-12.8,7.1-24,10.5-33.5,11.3c-2.9,0.9-6,1.1-9.1,2.1H94.4z M114.7,205.6
			l41.3,49.8C132.9,250.9,115.3,230.4,114.7,205.6z M170,255.1l-53-64c1.2-3.6,2.4-6.7,3.5-9.2l60.1,70.7
			C177.5,253.5,173.7,254.3,170,255.1z M191.7,248.6L128,173.7c6.6-3,12.6-7,17.9-11.9c2.2-2.1,4.3-4.3,6.2-6.6
			c-1.9,2.4-4,4.6-6.2,6.6l60.1,73.3C202.1,240.5,197.3,245.1,191.7,248.6z M176.6,153.4c21.6,5.1,38,24.4,39.2,47.8L176.6,153.4z
			 M251.2,212.1c-2.6,1.3-7.3,3.7-6.9,12c0.3,5.6,2.4,9,4.2,11.7c1.7,2.6,2.9,4.6,2.1,8.9l-29.2-17c0.6-1.4,1.1-2.8,1.5-4.2
			c0.7-2.1,1.5-4.4,2.3-7c0.3-1,0.3-2.1,0-3c0.4-3,0.7-6.1,0.7-9.3c0-8-1.5-15.7-4.2-22.7l24.8-19.9c2.4,4,5.1,10.5,1.5,16.3
			c-6.4,10.3-1.3,15.8,2.1,19.4c2.4,2.6,3.8,4.1,3.9,7.2C254.3,210.5,253.2,211,251.2,212.1z"/>
		<path fill="#5980B7" d="M186,262.6c-4.2,1.2-9.3,2.4-13,3.2C177.5,265.2,181.8,264.1,186,262.6z"/>
	</g>
</g>
</svg>
