<?xml version="1.0" encoding="utf-8"?>
<!-- Generator: Adobe Illustrator 18.1.1, SVG Export Plug-In . SVG Version: 6.00 Build 0)  -->
<svg version="1.1" id="Layer_1" xmlns="http://www.w3.org/2000/svg" xmlns:xlink="http://www.w3.org/1999/xlink" x="0px" y="0px"
	 viewBox="0 0 300 300" enable-background="new 0 0 300 300" xml:space="preserve">
<g>
	<path fill="#FFFFFF" d="M187,78v8h11.4c3,0,5.6,3.1,5.6,6.1v61.2l6-7.3V78H187z"/>
	<path fill="#FFFFFF" d="M198.4,254H71.1c-3,0-5.1-2.3-5.1-5.3V92.1c0-3,2-6.1,5.1-6.1H83v-8H61v183h149v-63.9l-6,7.3v44.3
		C204,251.7,201.4,254,198.4,254z"/>
	<path fill="#FFFFFF" d="M187,97v4.8c0,3-2.8,5.2-5.8,5.2h-93c-3,0-5.2-2.2-5.2-5.2V97h-6v146h116v-27.7l-17.2,11.1
		c-0.9,0.6-2,0.9-3,0.9c-1.1,0-2.3-0.4-3.2-1c-1.8-1.3-2.7-3.7-2.1-5.9l6.8-25.5c0.2-0.7,0.5-1.3,0.9-1.8l17.8-24.5V97H187z
		 M171,182.8c0,3-2.8,5.2-5.8,5.2H152v11.8c0,3-2.8,5.2-5.8,5.2h-24c-3,0-5.2-2.2-5.2-5.2V188h-11.8c-3,0-5.2-2.2-5.2-5.2v-24
		c0-3,2.1-5.8,5.2-5.8H117v-13.2c0-3,2.1-5.8,5.2-5.8h24c3,0,5.8,2.7,5.8,5.8V153h13.2c3,0,5.8,2.7,5.8,5.8V182.8z"/>
	<path fill="#CCCCCC" d="M110.1,71c-1,1.4-2.7,2-4.4,2H94v23h82V73h-11.5c-1.7,0-3.4-0.7-4.4-2.1c-1-1.4-1.4-3.1-0.9-4.8
		c0.1-0.3,0.2-1.7,0.2-3.3c0-13.4-10.9-24.2-24.4-24.2s-24.4,10.9-24.4,24.2c0,1.6,0.1,3,0.2,3.4C111.4,67.9,111.1,69.6,110.1,71z
		 M121,63.5c0-7.6,6.2-13.7,13.7-13.7s13.7,6.2,13.7,13.7s-6.2,13.7-13.7,13.7S121,71.1,121,63.5z"/>
	<path fill="#FFFFFF" d="M134.7,69.2c3.2,0,5.7-2.6,5.7-5.7s-2.6-5.7-5.7-5.7s-5.7,2.6-5.7,5.7S131.6,69.2,134.7,69.2z"/>
	<polygon fill="#CCCCCC" points="237.2,139.8 230.7,135.1 184.6,198.6 181.8,209.4 191.1,203.3 	"/>
	<path fill="#CCCCCC" d="M141,158.8V145h-13v13.8c0,3-2.8,5.2-5.8,5.2H111v13h11.2c3,0,5.8,2.7,5.8,5.8V194h13v-11.2
		c0-3,2.1-5.8,5.2-5.8H160v-13h-13.8C143.1,164,141,161.8,141,158.8z"/>
	<g>
		<path fill="#5980B7" d="M248.1,134.1l-15.4-11.2c-1.2-0.9-2.7-1.2-4.1-1c-1.4,0.2-2.6,1-3.4,2.2l-4.2,6V72.6c0-3-3.3-5.6-6.3-5.6
			h-28c0,0,0-0.1,0-0.2c-0.4-2.7-2.7-4.8-5.4-4.8h-10.7c-0.3-19-16.1-34.7-35.4-34.7C115.8,27.3,100,43,99.7,62H88.2
			c-2.8,0-5.1,2.1-5.4,4.8c0,0.1,0,0.2,0,0.2H54.8c-3,0-4.8,2.5-4.8,5.6V267c0,3,1.7,5,4.8,5h159.9c3,0,6.3-1.9,6.3-5v-85.8
			l28.5-39.5C251.2,139.3,250.5,135.9,248.1,134.1z M198.4,86H187v-8h23v67.3l-0.7,0.7l-5.2,7.3l-0.1,0.3V92.1
			C204,89.1,201.4,86,198.4,86z M186.7,67.8c0-0.2,0-0.3,0-0.5C186.6,67.4,186.7,67.6,186.7,67.8z M94,73h11.7c1.7,0,3.4-0.6,4.4-2
			c1-1.4,1.4-3.1,0.9-4.8c-0.1-0.4-0.2-1.9-0.2-3.4c0-13.3,10.9-24.2,24.4-24.2s24.4,10.9,24.4,24.3c0,1.7-0.2,3.1-0.2,3.4
			c-0.5,1.7-0.2,3.3,0.9,4.7c1,1.4,2.7,2.1,4.4,2.1H176v23H94V73z M88.2,107h93c3,0,5.8-2.2,5.8-5.2v-4.2V97h6v71.8L175.3,193
			c-0.4,0.5-0.8,1.2-0.9,1.8l-6.8,25.5c-0.6,2.2,0.2,4.5,2.1,5.9c1,0.7,2.1,1,3.2,1c1,0,2.2-0.3,3.2-0.9l17-10.9V243H77V97h6v0.6
			v4.2C83,104.8,85.1,107,88.2,107z M82.7,67.3c0,0.2,0,0.3,0,0.5C82.7,67.6,82.7,67.4,82.7,67.3z M61,261V78h22v8H71.1
			c-3,0-5.1,3.1-5.1,6.1v156.6c0,3,2,5.3,5.1,5.3h127.3c3,0,5.6-2.3,5.6-5.3v-44l0.1-0.3l5.4-7.3l0.6-0.7V261H61z M191.1,203.3
			l-9.3,6l2.8-10.7l46.1-63.5l6.5,4.7L191.1,203.3z"/>
		<path fill="#5980B7" d="M134.7,49.8c-7.6,0-13.7,6.2-13.7,13.7s6.2,13.7,13.7,13.7s13.7-6.2,13.7-13.7S142.3,49.8,134.7,49.8z
			 M134.7,69.2c-3.2,0-5.7-2.6-5.7-5.7s2.6-5.7,5.7-5.7s5.7,2.6,5.7,5.7S137.9,69.2,134.7,69.2z"/>
		<path fill="#5980B7" d="M105.2,188H117v11.8c0,3,2.1,5.2,5.2,5.2h24c3,0,5.8-2.2,5.8-5.2V188h13.2c3,0,5.8-2.2,5.8-5.2v-24
			c0-3-2.8-5.8-5.8-5.8H152v-13.2c0-3-2.8-5.8-5.8-5.8h-24c-3,0-5.2,2.7-5.2,5.8V153h-11.8c-3,0-5.2,2.7-5.2,5.8v24
			C100,185.8,102.1,188,105.2,188z M111,164h11.2c3,0,5.8-2.2,5.8-5.2V145h13v13.8c0,3,2.1,5.2,5.2,5.2H160v13h-13.8
			c-3,0-5.2,2.7-5.2,5.8V194h-13v-11.2c0-3-2.8-5.8-5.8-5.8H111V164z"/>
	</g>
</g>
</svg>
