<?xml version="1.0" encoding="utf-8"?>
<!-- Generator: Adobe Illustrator 18.1.1, SVG Export Plug-In . SVG Version: 6.00 Build 0)  -->
<svg version="1.1" id="Layer_1" xmlns="http://www.w3.org/2000/svg" xmlns:xlink="http://www.w3.org/1999/xlink" x="0px" y="0px"
	 viewBox="0 0 300 300" enable-background="new 0 0 300 300" xml:space="preserve">
<g>
	<g>
		<path fill="#FFFFFF" d="M83.3,138h44.3l0-0.7L119,127H80.5c-2.5,0-4.5-2-4.5-4.5s2-4.5,4.5-4.5h27.2l-14.8-11h-5.4h-7
			c-2.5,0-4.5-2-4.5-4.5s2-4.5,4.5-4.5h7h16.8h28.2c2.5,0,4.5,2,4.5,4.5s-2,4.5-4.5,4.5h-18.6l9.3,11h9.3c2.5,0,4.5,1.9,4.5,4.3
			c0,0.4,0.2,0.6,0.1,1L154,98.1V86h-25.1c-1.3,0-2.4-0.7-3.3-1.6s-1.3-2-1.2-3.2L126,60H63v108h16v-26.1
			C79,139.4,80.8,138,83.3,138z"/>
		<path fill="#FFFFFF" d="M130.8,127l2.1,2.4l2.3-3.4c-0.7,0.6-1.7,1-2.7,1H130.8z"/>
		<polygon fill="#CDCCCC" points="133.7,77 146.6,77 134.5,65.9 		"/>
		<path fill="#CDCCCC" d="M246.4,152.9l0-0.7c0,0-0.1,0-0.2,0c1.1-0.1,2-2.3,1.5-6.5c-0.4-3.2-1.3-3.8-8-4.6
			c-3.8-0.5-8.2-1-12.1-3.5c-5.1-3.2-6-7.6-6.7-10.8c-0.1-0.6-0.2-1.1-0.3-1.6c-0.6,0.7-1.4,1.1-2.3,1.3l-29.4,4.8
			c-0.8,0.3-1.7,0.5-2.6,0.7c-1,0.2-1.9,0.2-2.7,0.2l-24.3,4L246.4,152.9z"/>
		<path fill="#FFFFFF" d="M137.7,141c0.1,0.3,0.3,0.6,0.3,0.9V158h15c0.6,0,1.3-0.5,2-0.5s1.4,0.5,2,0.5h18c2.5,0,5,1.7,5,4.2v5.4
			c12,6.1,22.4,17,27.7,30.5l5.5,2.1l28.8-39L137.7,141z"/>
		<polygon fill="#FFFFFF" points="102.2,107 92.9,107 107.7,118 111.4,118 		"/>
		<path fill="#FFFFFF" d="M262.4,219.6c-0.8-6.8-6.5-11.9-13.3-11.9c-0.5,0-1,0-1.5,0.1c-3.6,0.4-6.8,2.2-9,5
			c-2.2,2.8-3.2,6.3-2.8,9.9c0.8,6.8,6.5,11.9,13.3,11.9c0.5,0,1,0,1.5-0.1C257.9,233.7,263.2,227,262.4,219.6z"/>
		<polygon fill="#CDCCCC" points="58.4,206 38,206 38,227 62.9,227 79,227 79,206 		"/>
		<polygon fill="#CDCCCC" points="83.3,177 63,177 63,197 83.3,197 104,197 104,177 		"/>
		<path fill="#CDCCCC" d="M113,183.4c2-2.6,4-4.4,6.4-6.4H113V183.4z"/>
		<polygon fill="#CDCCCC" points="88,147 88,168 108.2,168 129,168 129,147 		"/>
		<path fill="#CDCCCC" d="M88,227h8.6l3.9-2c-0.2-1.7-0.3-3.9-0.3-5.4c0-4.7,0.6-8.6,1.6-13.6H88V227z"/>
		<path fill="#FFFFFF" d="M169.1,119.1c-0.3,0-0.5,0.1-0.7,0.1c-1.6,0-3.1-1-3.7-2.5c-0.7-1.8-0.1-3.8,1.5-4.8l9.3-6.1l-13-6.5
			l-21,31.6l63.3-10.3l-11.8-5.9L169.1,119.1z"/>
		<path fill="#FFFFFF" d="M188.7,104.9c-0.1,1-0.6,1.9-1.4,2.6l2-0.4l2.7-12.9c-0.7-0.1-1.4-0.3-2.1-0.5L188.7,104.9z"/>
		<path fill="#CDCCCC" d="M189.5,84.5c1.1,1.5,2.9,2.5,4.8,2.5c1,0,2-0.3,2.9-0.8l29.9-16.9c2.2-1.3,3.8-3.4,4.4-5.9
			s0.1-5.1-1.4-7.2c-1.7-2.4-4.4-3.8-7.3-3.8c-2.1,0-4.1,0.7-5.8,2.1l-26.4,22C188.2,78.5,187.7,82,189.5,84.5z"/>
		<path fill="#FFFFFF" d="M180,188.7c0,2.5-2.3,4.7-4.7,4.7s-4.7-2.3-4.7-4.3H160v12.7c0,2.5-2,4.5-4.5,4.5s-4.5-2-4.5-4.5V189
			h-12.5c0,2-1.8,4.3-4.3,4.3s-4.3-2.2-4.3-4.7v-9c-13,8.8-20.5,23.4-20.5,40c0,2.1,0.3,6.2,0.5,7.7c0.2,2-0.9,3.9-2.8,4.6l-5.8,2.4
			l0,4.8c8,2,29.6,6.7,54.6,6.7c24,0,46-4.8,54.1-6.7l0-4.3l-5.3-2.2c-1.9-0.8-3-2.7-2.8-4.7c0.2-1.6,0.9-6.1,0.9-8.4
			c0-17.8-9.8-33.4-22.8-41.8V188.7z M188.5,237h-67c-2.5,0-4.5-2-4.5-4.5s2-4.5,4.5-4.5h67c2.5,0,4.5,2,4.5,4.5S191,237,188.5,237z
			"/>
		<rect x="139" y="167" fill="#FFFFFF" width="12" height="22"/>
		<rect x="160" y="167" fill="#FFFFFF" width="11" height="22"/>
		<path fill="#5A81B8" d="M188.5,228h-67c-2.5,0-4.5,2-4.5,4.5s2,4.5,4.5,4.5h67c2.5,0,4.5-2,4.5-4.5S191,228,188.5,228z"/>
	</g>
	<path fill="#5A81B8" d="M271.3,218.6c-1.3-11.3-10.9-19.9-22.3-19.9c-0.9,0-1.7,0-2.6,0.1c-5.9,0.7-11.3,3.6-15,8.3l-9.7-3.7
		l31.5-42.7c0.8-1,1-2.4,0.8-3.6c2.3-3,3.1-7.2,2.5-12.5c-1.2-10.7-10-11.8-15.8-12.6c-3.2-0.4-6.2-0.8-8.5-2.2
		c-1.7-1.1-2-2.1-2.6-5c-0.9-4.4-2.2-11-13.5-14.8c-5.6-1.9-10.2-1.4-13.9,0.2l-4.9-2.5l3.1-15c0.1,0,0.2-0.1,0.2-0.1l29.9-16.9
		c4-2.3,6.9-6.2,8-10.7c1-4.5,0.1-9.3-2.6-13.1c-3.1-4.3-8.1-6.9-13.4-6.9c-3.8,0-7.6,1.4-10.5,3.8l-26.4,22c-4.8,4-6.1,11-3.2,16.4
		l-1.4,12.3l-18.4-9.2c-0.1,0,0-0.1,0-0.1c0,0,0.2,0,0.2,0v-8.2c0-0.1-0.2-0.2-0.2-0.2c0.2-1.5-0.4-2.9-1.5-4l-8.1-7.4l-0.3-0.2
		L133.8,52c-0.8-0.8-2-1-3.1-1H58.4c-2.5,0-4.4,1.5-4.4,4v116.7V197H33.5c-2.5,0-4.5,2.1-4.5,4.6v29.8c0,2.5,2,4.6,4.5,4.6h24.9
		h24.9h9.2l0,0h-0.2l0,0.2l0,6.6c0,2,1.3,3.7,3.2,4.3c1.1,0.3,27.6,7.9,60.4,7.9c31.4,0,58.7-7.6,59.9-7.9c1.9-0.5,3.3-2.3,3.3-4.4
		l0-10.8c0-1.8-1.1-3.5-2.8-4.2l-5-2c0.2-2,0.4-4.3,0.4-6c0-3.6-0.3-7.2-1-10.7l2.4,0.9c0.3,0.1,0.6,0.2,0.9,0.2l13.4,5.1
		c-0.7,2.7-1,5.6-0.7,8.5c1.3,11.3,10.9,19.9,22.3,19.9c0.9,0,1.7,0,2.6-0.1C263.9,242,272.7,230.9,271.3,218.6z M218.2,126.4
		c0.9-0.2,1.7-0.6,2.3-1.3c0.1,0.5,0.2,1,0.3,1.6c0.7,3.2,1.6,7.7,6.7,10.8c3.9,2.4,8.3,3,12.1,3.5c6.6,0.8,7.6,1.4,8,4.6
		c0.5,4.3-0.4,6.4-1.5,6.5c0.1,0,0.2,0,0.2,0l0,0.7L159.2,136l24.3-4c0.8,0,1.7,0,2.7-0.2c0.9-0.1,1.8-0.4,2.6-0.7L218.2,126.4z
		 M190.5,76.6l26.4-22c1.6-1.4,3.6-2.1,5.8-2.1c2.9,0,5.7,1.4,7.3,3.8c1.5,2.1,2,4.7,1.4,7.2s-2.1,4.6-4.4,5.9l-29.9,16.9
		c-0.9,0.5-1.9,0.8-2.9,0.8c-1.9,0-3.7-0.9-4.8-2.5C187.7,82,188.2,78.5,190.5,76.6z M188.7,104.9l1.3-11.3c0.7,0.2,1.4,0.4,2.1,0.5
		l-2.7,12.9l-2,0.4C188.1,106.8,188.6,105.9,188.7,104.9z M162.4,99.2l13,6.5l-9.3,6.1c-1.6,1-2.2,3.1-1.5,4.8
		c0.6,1.5,2.1,2.5,3.7,2.5c0.2,0,0.5,0,0.7-0.1l23.9-4.5l11.8,5.9l-63.3,10.3L162.4,99.2z M134.5,65.9L146.6,77h-12.9L134.5,65.9z
		 M63,60h62.9l-1.6,21c-0.1,1.2,0.3,2.6,1.2,3.5s2,1.5,3.3,1.5H154v12.1l3.9-6.3c0.8-1.2,1.9-1.8,3.3-1.8c-1.3,0-2.7,0.6-3.4,1.8
		l-4.2,6.3l-16.7,25.2c0.1-0.3,0.1-0.5,0.1-0.9c0-2.5-2-4.3-4.5-4.3h-9.3l-9.3-11h18.6c2.5,0,4.5-2,4.5-4.5s-2-4.5-4.5-4.5h-28.2
		H87.5h-7c-2.5,0-4.5,2-4.5,4.5s2,4.5,4.5,4.5h7h5.4h9.3l9.3,11h-3.7H80.5c-2.5,0-4.5,2-4.5,4.5s2,4.5,4.5,4.5H119l8.6,10.3l0,0.7
		H83.3c-2.5,0-4.3,1.4-4.3,3.9v25.3v0.7H62.9H63V60z M132.9,129.2l0,0.2l-2.1-2.4h1.8c1,0,1.9-0.5,2.7-1.1L132.9,129.2z M108.2,168
		H88v-21h41v21H108.2z M119,177c-2.2,2-5,3.9-6,6.3V177h-0.3H119z M79,206.1V227H62.9H38v-21h20.4L79,206.1L79,206.1z M63,197v-20
		h20.3H104v20H83.3H63z M96.4,227h-0.6H88v-21h13.7c0,0-0.1,0-0.1,0.1c-1,4.3-1.4,8.9-1.4,13.6c0,1.5,0.1,3.7,0.3,5.4L96.4,227z
		 M155.9,245.9c-25,0-46.6-4.7-54.6-6.7l0-4.8l5.8-2.4c1.8-0.8,2.9-2.7,2.7-4.6c-0.2-1.4-0.3-5.6-0.3-7.7c0-16.6,7.5-31.2,20.5-40v9
		c0,2.5,2,4.5,4.5,4.5s4.5-2,4.5-4.5V167h12v21.7v13c0,2.5,2,4.5,4.5,4.5s4.5-2,4.5-4.5v-13V167h11v21.7c0,2.5,2,4.5,4.5,4.5
		s4.5-2,4.5-4.5v-10.9c13,8.4,22.8,24,22.8,41.8c0,2.3-0.6,6.8-0.8,8.4c-0.2,2,0.8,4,2.7,4.7l5.3,2.2l0,4.3
		C201.9,241.1,179.9,245.9,155.9,245.9z M213.1,200.1l-5.4-2.1c-5.3-13.4-15.7-24.3-27.7-30.5v-5.4c0-2.5-2.5-4.2-5-4.2h-18
		c-0.6,0-1.3-0.5-2-0.5s-1.4,0.5-2,0.5h-15.4h0.4v-16.1c0-0.3-0.2-0.6-0.3-0.9c-0.1-0.5-0.2-0.5-0.1,0l104.2,20.2L213.1,200.1z
		 M250.6,234.5c-0.5,0.1-1,0.1-1.5,0.1c-6.8,0-12.6-5.1-13.3-11.9c-0.4-3.6,0.6-7.1,2.8-9.9c2.2-2.8,5.4-4.6,9-5
		c0.5-0.1,1-0.1,1.5-0.1c6.8,0,12.6,5.1,13.3,11.9C263.2,227,257.9,233.7,250.6,234.5z"/>
</g>
</svg>
