<?xml version="1.0" encoding="utf-8"?>
<!-- Generator: Adobe Illustrator 18.1.1, SVG Export Plug-In . SVG Version: 6.00 Build 0)  -->
<svg version="1.1" id="Layer_1" xmlns="http://www.w3.org/2000/svg" xmlns:xlink="http://www.w3.org/1999/xlink" x="0px" y="0px"
	 viewBox="0 0 300 300" enable-background="new 0 0 300 300" xml:space="preserve">
<g>
	<path fill="#CCCCCC" d="M100.5,38.8c-12.1,0-22.4,9.4-25.8,22.5c2.1-0.4,4.3-0.6,6.4-0.6c7.6,0,14.3,2.4,19.4,7
		c5.1-4.5,11.8-7,19.4-7c2.1,0,4.3,0.2,6.4,0.6C122.9,48.3,112.6,38.8,100.5,38.8z"/>
	<path fill="#FFFFFF" d="M39.7,145.2c-3.5,3.8-5.9,9.9-5.9,16.6c0,9.6,4.6,17.8,10.8,20c-0.3-2.8-0.6-5.7-0.6-8.6v-18.3
		c0-0.3-0.4-0.7-0.6-1.2C42,150.8,40.9,148,39.7,145.2z"/>
	<path fill="#FFFFFF" d="M104.5,173h-4.6c-1.1,10-9.6,17.3-19.9,17.3c-11,0-20-8.6-20-19.2s9-19.4,20-19.4c8.1,0,15.1,5.3,18.3,11.3
		h7.8c0,0,0.1,0.2,0.1,0.2c3.1-6.7,10.1-11.4,18.3-11.4c2,0,3.9,0.3,5.7,0.8c0.1-1.6,0.3-3.2,0.5-4.9c-10.1-5.2-21.9-12.8-30.1-23.5
		c-13.5,17.4-36.4,27-46.4,30.5v18.4c0,30.5,21.2,55.3,47.2,55.3c11.4,0,21.9-4.8,30.1-12.7c-4.5-5.6-7.2-13.3-7.2-21.8
		c0-1.2,0.1-2.5,0.2-3.6C114,190.3,105.6,183,104.5,173z"/>
	<path fill="#CCCCCC" d="M157.5,108c-1.1-7.9-4.1-15.2-9.1-21.9c-6.8-9.1-18.2-15.3-28.5-15.3c-4.6,0-11.1,1.3-15.4,7.3
		c-0.9,1.3-2.5,2.1-4.1,2.1s-3.1-0.8-4.1-2.1c-4.3-6-10.7-7.3-15.4-7.3c-10.3,0-21.7,6.1-28.5,15.3c-12,16.2-12.7,35.2-2,59.4
		c9.8-3.5,34.9-13.9,45.5-32.6c0.9-1.6,2.5-2.5,4.4-2.5s3.5,1,4.4,2.5c6.3,11,17.5,19.2,27.7,24.7
		C138.4,115.9,150.1,109.7,157.5,108z"/>
	<path fill="#FFFFFF" d="M124.4,161.9c-5.5,0-10,4.2-10,9.3s4.5,9.3,10,9.3c0.8,0,1.6-0.1,2.3-0.3c1.3-3.2,3-6.1,5-8.5
		c-0.7-2.6-1.2-5.3-1.5-8.1C128.5,162.5,126.5,161.9,124.4,161.9z"/>
	<path fill="#FFFFFF" d="M80,180.5c5.5,0,10-4.2,10-9.3s-4.5-9.3-10-9.3s-10,4.2-10,9.3S74.4,180.5,80,180.5z"/>
	<path fill="#FFFFFF" d="M136.6,182.8c-1.4,3.2-2.2,7-2.2,11.1c0,9.3,4.5,17.4,10.5,19.8V192C141,189.4,138.8,186.4,136.6,182.8z"/>
	<path fill="#CCCCCC" d="M141.4,144.8c-2.6,12.8-1.4,23.9,3.6,32v-27.9c0-9.2,2.1-17.8,5.9-25.5C147.3,127.4,143.6,134,141.4,144.8z
		"/>
	<path fill="#FFFFFF" d="M259,193v19c4-3.5,7.3-10.4,7.3-18.1c0-2.5-0.2-4.9-0.8-7.1C263.6,189.1,261,191.2,259,193z"/>
	<path fill="#CCCCCC" d="M263.5,144.8c-2.7-13.5-7.4-20.4-11.9-23.9c4.7,8.3,7.4,17.8,7.4,27.9v30
		C264,170.7,266.3,158.8,263.5,144.8z"/>
	<path fill="#FFFFFF" d="M249,148.9c0-26-21-47.1-47-47.1s-47,21.1-47,47.1v78.6c0,19.4,15.3,34.6,34.6,34.6h23.9
		c19.4,0,35.5-15.2,35.5-34.6V148.9z M208.1,212c-2.8,0-5.1-1.9-5.1-4.7V201h-5v6.3c0,2.8-1.7,4.7-4.5,4.7h-30.2
		c-2.8,0-5.3-1.9-5.3-4.7v-21.9c0-2.8,2.5-5.4,5.3-5.4h30.2c2.8,0,4.5,2.6,4.5,5.4v5.6h5v-5.6c0-2.8,2.3-5.4,5.1-5.4h30.2
		c2.8,0,4.7,2.6,4.7,5.4v21.9c0,2.8-1.9,4.7-4.7,4.7H208.1z"/>
	<rect x="168" y="190" fill="#FFFFFF" width="20" height="12"/>
	<rect x="213" y="190" fill="#FFFFFF" width="20" height="12"/>
	<g>
		<path fill="#5980B7" d="M271.6,175.8c3.5-9.2,4-20.5,1.6-33c-6.6-32.9-25.7-35.5-31.3-35.5c-0.4,0-0.7,0-1,0
			c-10.2-9.7-24-15.6-39.2-15.6c-13,0-25,4.4-34.7,11.8c-1.6,1.2-3.1,2.5-4.5,3.8c0,0,0,0,0,0c-1.2,0-2.9,0.1-4.9,0.6
			c-7.4,1.7-19.2,7.9-25,29.6c-10.2-5.5-21.5-13.7-27.7-24.7c-0.9-1.6-2.5-2.5-4.4-2.5s-3.5,1-4.4,2.5
			c-10.6,18.7-35.7,29.1-45.5,32.6c-10.7-24.2-10-43.2,2-59.4c6.8-9.1,18.2-15.3,28.5-15.3c4.6,0,11.1,1.3,15.4,7.3
			c0.9,1.3,2.5,2.1,4.1,2.1s3.1-0.8,4.1-2.1c4.3-6,10.7-7.3,15.4-7.3c10.3,0,21.7,6.1,28.5,15.3c5,6.8,8,14,9.1,21.9
			c2-0.5,3.7-0.6,4.9-0.6c1.4-1.3,2.9-2.6,4.5-3.8c-1.6-8.4-5.1-16.2-10.5-23.5c-5-6.7-11.8-12.1-19.3-15.4
			c-2.7-20.2-18.1-35.8-36.7-35.8c-18.5,0-34,15.6-36.7,35.8c-7.5,3.4-14.3,8.7-19.3,15.4c-11.6,15.7-14.4,33.8-8.3,55
			c-7.4,5.2-12.4,15.3-12.4,26.7c0,16.3,10.1,29.7,22.9,30.6c0,0,0,0,0,0c7.2,26.7,28.9,46.1,54.6,46.1c14.4,0,27.6-6.2,37.7-16.3
			c-2.9-1.5-5.4-3.7-7.6-6.4c-8.2,7.9-18.7,12.7-30.1,12.7c-26,0-47.2-24.8-47.2-55.3v-18.3c0.1,0,0.2-0.1,0.3-0.1
			c10-3.5,32.8-13,46.3-30.5c8.2,10.6,19.9,18.3,30,23.5c-0.2,1.7-0.4,3.3-0.5,4.9c-1.8-0.5-3.7-0.8-5.7-0.8
			c-8.1,0-15.1,4.6-18.3,11.3c0,0-0.1-0.2-0.1-0.2h-7.8c-3.1-6-10.1-11.3-18.3-11.3c-11,0-20,8.7-20,19.4s9,19.2,20,19.2
			c10.3,0,18.8-7.3,19.9-17.3h4.6c1.1,10,9.5,17.3,19.8,17.3c0.3-3.6,1.2-7,2.4-10.2c-0.7,0.2-1.5,0.3-2.3,0.3c-5.5,0-10-4.2-10-9.3
			s4.5-9.3,10-9.3c2.2,0,4.2,0.7,5.8,1.7c0.3,2.8,0.8,5.5,1.5,8.1c0,0,0,0,0,0.1c-2,2.4-3.7,5.3-5,8.4c-1.2,3.1-2.1,6.6-2.4,10.3
			c-0.1,1.1-0.2,2.3-0.2,3.4c0,8.5,2.8,16.3,7.2,21.8c2.2,2.7,5,4.9,7.9,6.4c1.7,0.9,3.8,1.6,5.8,2v3.3c0,24.9,19.8,44.6,44.6,44.6
			h23.9c24.9,0,45.5-19.7,45.5-44.6v-4.1c10-3.7,17.3-15.5,17.3-29.4C276.3,187.1,274.5,180.9,271.6,175.8z M100.5,38.8
			c12.1,0,22.4,9.4,25.8,22.5c-2.1-0.4-4.3-0.6-6.4-0.6c-7.6,0-14.3,2.4-19.4,7c-5.1-4.5-11.8-7-19.4-7c-2.1,0-4.3,0.2-6.4,0.6
			C78.2,48.3,88.5,38.8,100.5,38.8z M44,154.9v18.3c0,2.9,0.3,5.8,0.6,8.6c-6.1-2.3-10.8-10.5-10.8-20c0-6.7,2.4-12.8,5.9-16.6
			c1.1,2.8,2.4,5.6,3.7,8.5c0.2,0.4,0.5,0.8,0.8,1.2c0.9,1,2.2,1.6,3.6,1.7c0,0-0.1,0-0.1,0C46.4,156.5,45,155.9,44,154.9z
			 M80,180.5c-5.5,0-10-4.2-10-9.3s4.5-9.3,10-9.3s10,4.2,10,9.3S85.5,180.5,80,180.5z M145,213.7c-6-2.5-10.7-10.5-10.7-19.8
			c0-4,0.7-7.8,2.2-11.1c-1.2-1.9-2.2-3.9-3-6c0.9,2.1,2,4.1,3.2,6c2.2,3.5,4.4,6.6,8.4,9.2V213.7z M145,148.9v27.9
			c-5-8-6.1-19.1-3.6-32c2.2-10.9,5.6-17.4,9.2-21.4c2-3.9,4.4-7.6,7.1-11c-2.7,3.4-5,7-7,11C146.9,131.1,145,139.7,145,148.9z
			 M249,227.4c0,19.4-16.1,34.6-35.5,34.6h-23.9c-19.4,0-34.6-15.2-34.6-34.6v-78.6c0-26,21-47.1,47-47.1s47,21.1,47,47.1V227.4z
			 M251.6,121.2c4.4,3.6,9.2,10.5,11.8,23.6c2.8,14,0.5,25.9-4.5,34v-30C259,138.8,256.2,129.4,251.6,121.2z M259,212v-19
			c2-1.8,4.4-3.8,6.3-6.1c0.6,2.2,1.1,4.5,1.1,7C266.4,201.6,263,208.5,259,212z"/>
		<path fill="#5980B7" d="M203,185.4v5.6h-4.5H198v-5.6c0-2.8-1.7-5.4-4.5-5.4h-30.2c-2.8,0-5.3,2.6-5.3,5.4v21.9
			c0,2.8,2.5,4.7,5.3,4.7h30.2c2.8,0,4.5-1.9,4.5-4.7V201h0.5h4.5v6.3c0,2.8,2.3,4.7,5.1,4.7h30.2c2.8,0,4.7-1.9,4.7-4.7v-21.9
			c0-2.8-1.9-5.4-4.7-5.4h-30.2C205.3,180,203,182.6,203,185.4z M188,202h-20v-12h20V202z M213,190h20v12h-20V190z"/>
	</g>
</g>
</svg>
