<?xml version="1.0" encoding="utf-8"?>
<!-- Generator: Adobe Illustrator 18.1.1, SVG Export Plug-In . SVG Version: 6.00 Build 0)  -->
<svg version="1.1" id="Layer_1" xmlns="http://www.w3.org/2000/svg" xmlns:xlink="http://www.w3.org/1999/xlink" x="0px" y="0px"
	 viewBox="0 0 300 300" enable-background="new 0 0 300 300" xml:space="preserve">
<g>
	<path fill="none" d="M204.1,169.5c-0.5,1.3-1.2,2.6-1.7,3.9c5.3,3.1,9.6,7.1,13.6,11.9v-29.5c0-0.1-0.9-0.3-1.3-0.6
		C212.2,160.8,208.6,165.6,204.1,169.5z"/>
	<path fill="#FFFFFF" d="M99.8,105c0.2-1.8,1.5-3.1,3.2-3.5c0.1,0,13.2-2.8,43.5-19.1c1.4-0.8,3.1-0.6,4.4,0.4
		c0.1,0.1,9.7,7.5,22.7,13c1-0.1,1.9-0.1,2.9-0.1c0.7,0,1.4,0,2.2,0.1c0.2,0,0.5,0,0.7,0.1c0.5,0,1,0.1,1.4,0.1
		c0.3,0,0.6,0.1,0.9,0.1c0.4,0.1,0.8,0.1,1.2,0.2c0.3,0,0.6,0.1,0.9,0.2c0.4,0.1,0.8,0.1,1.1,0.2c0.3,0.1,0.6,0.1,0.9,0.2
		c0.4,0.1,0.7,0.2,1.1,0.2c0.3,0.1,0.6,0.2,1,0.3c0.3,0.1,0.7,0.2,1,0.3c0.3,0.1,0.6,0.2,0.9,0.3c0.3,0.1,0.7,0.2,1,0.3
		c0.3,0.1,0.6,0.2,0.9,0.4c0.3,0.1,0.7,0.3,1,0.4c0.3,0.1,0.6,0.3,0.9,0.4c0.3,0.1,0.6,0.3,0.9,0.4c0.3,0.1,0.6,0.3,0.9,0.5
		c0.3,0.2,0.6,0.3,0.9,0.5c0.3,0.2,0.6,0.3,0.9,0.5c0.3,0.2,0.6,0.3,0.9,0.5c0.3,0.2,0.6,0.4,0.8,0.5c0.3,0.2,0.6,0.4,0.9,0.6
		c0.3,0.2,0.6,0.4,0.8,0.6c0.3,0.2,0.6,0.4,0.8,0.6c0.3,0.2,0.5,0.4,0.8,0.6c0.3,0.2,0.5,0.4,0.8,0.6c0.3,0.2,0.5,0.4,0.8,0.7
		c0.3,0.2,0.5,0.4,0.8,0.7c0.3,0.2,0.5,0.5,0.7,0.7c0.2,0.2,0.5,0.5,0.7,0.7c0.2,0.2,0.5,0.5,0.7,0.7c0.2,0.2,0.4,0.5,0.7,0.7
		c0.2-6.2,0.1-11.4,0-14.4c-0.1,0-0.1,0-0.2,0c-27.2,0-52-15.9-59.6-21.2c-30.8,15.7-48.8,19.7-56.4,20.7c-1.5,19.2,0,37.1,4.7,53.6
		c1.9,0.3,3.1,2,3.1,3.9v6.1c0,0.1,0.5-0.1,0.5-0.1h6.4C100.8,144,97.8,126.6,99.8,105z"/>
	<path fill="#FFFFFF" d="M129.8,195.5c0-0.1,0.1-0.2,0.1-0.3c0,0-0.1-0.1-0.1-0.1V195.5z"/>
	<path fill="#FFFFFF" d="M134.3,137.8c0-17.7,11-32.9,26.6-39.1c-5.9-3.2-10.4-6.2-12.9-8c-22.3,11.8-35.2,16.3-40.5,17.9
		c-1.5,19.7,1.5,35.7,6.5,48.5V136c0-2.2,1.8-4,4-4s4,1.8,4,4v22h3.8c2.2,0,4.2,2.1,4.2,4.3v21c1,1.7,2.8,3.2,4.2,4.6
		c4.6-6.6,10.7-12.1,17.9-15.8C141.4,164.5,134.3,151.9,134.3,137.8z"/>
	<path fill="#FFFFFF" d="M81,166v62h41v-62H95.5H81z M101.8,222.8c-6.1,0-11.1-4.8-11.1-10.6s5-10.6,11.1-10.6
		c6.1,0,11.1,4.8,11.1,10.6S107.9,222.8,101.8,222.8z M110.1,192h-18c-1.7,0-3-1.3-3-3s1.3-3,3-3h18c1.7,0,3,1.3,3,3
		S111.8,192,110.1,192z M110.1,174c1.7,0,3,1.3,3,3s-1.3,3-3,3h-18c-1.7,0-3-1.3-3-3s1.3-3,3-3H110.1z"/>
	<rect x="81" y="156" fill="#FFFFFF" width="10" height="2"/>
	<path fill="#CDCCCC" d="M101.8,207.5c-2.8,0-5.1,2.1-5.1,4.6c0,2.6,2.3,4.6,5.1,4.6c2.8,0,5.1-2.1,5.1-4.6
		C106.9,209.6,104.6,207.5,101.8,207.5z"/>
	<path fill="#FFFFFF" d="M190.3,197.8l-10.7,20c-0.7,1.3-2.1,2.1-3.5,2.1s-2.8-0.8-3.5-2.1l-20-36.8c-11.6,7.2-19.5,20.1-19.5,34.7
		V228h86v-12.4c0-14.6-7.9-27.5-19.5-34.7L190.3,197.8C190.4,197.8,190.3,197.8,190.3,197.8z"/>
	<path fill="#FFFFFF" d="M186.1,188.7l6.1-11.3c-0.2-0.1-0.4-0.2-0.6-0.2c-2.4,0.9-5,1.7-7.6,2.1l-2.7,3.4L186.1,188.7z"/>
	<path fill="#FFFFFF" d="M166,188.7l5.1-6.3l-1.9-3.1c-2.9-0.5-5.6-1.3-8.3-2.3c-0.3,0.1-0.7,0.2-1,0.4L166,188.7z"/>
	<polygon fill="#CDCCCC" points="176.1,189.1 170.1,196.3 176.1,207.3 182,196.3 	"/>
	<path fill="#FFFFFF" d="M194.9,156.1c-8.4,0-12.2-4.1-14.1-8.1h-8.6c-1.9,4-5.8,8.1-14.1,8.1c-6.3,0-10.5-2.2-13-5.1
		c5.2,12.3,17.3,20.9,31.4,20.9c14.1,0,26.2-8.6,31.4-20.8C205.3,153.9,201.2,156.1,194.9,156.1z"/>
	<path fill="#FFFFFF" d="M174,141.4c0,0.2-0.1,0.6-0.1,0.6h5.2c0,0-0.1-0.4-0.1-0.6c-0.4-2.4,1-4.8,3.4-5.6c2.2-0.8,5.1-1.6,8.6-2
		c-6.3-4.5-11.1-9.8-14.2-13.7c-2.8,3.9-7.6,9.2-15,13.7c3.5,0.4,6.6,1.3,8.8,2C172.9,136.6,174.4,138.9,174,141.4z"/>
	<path fill="#CDCCCC" d="M210.2,133.4c-2.2-16.7-16.5-29.7-33.8-29.7c-17.1,0-31.3,12.6-33.7,29.1c22.9-5.6,29.9-21.6,30-21.8
		c0.6-1.4,1.9-2.3,3.4-2.4c0.1,0,0.2,0,0.3,0c1.4,0,2.7,0.7,3.4,1.9C180,110.7,192.5,130.5,210.2,133.4z"/>
	<g>
		<path fill="#5A81B8" d="M101.8,201.5c-6.1,0-11.1,4.8-11.1,10.6s5,10.6,11.1,10.6c6.1,0,11.1-4.8,11.1-10.6
			S107.9,201.5,101.8,201.5z M101.8,216.8c-2.8,0-5.1-2.1-5.1-4.6c0-2.6,2.3-4.6,5.1-4.6c2.8,0,5.1,2.1,5.1,4.6
			C106.9,214.7,104.6,216.8,101.8,216.8z"/>
		<path fill="#5A81B8" d="M89.1,177c0,1.7,1.3,3,3,3h18c1.7,0,3-1.3,3-3s-1.3-3-3-3h-18C90.5,174,89.1,175.3,89.1,177z"/>
		<path fill="#5A81B8" d="M110.1,186h-18c-1.7,0-3,1.3-3,3s1.3,3,3,3h18c1.7,0,3-1.3,3-3S111.8,186,110.1,186z"/>
		<path fill="#5A81B8" d="M223.1,155.9c2.2-0.4,3.9-2.3,3.9-4.7v-13c0-2.6-2.1-5.2-4.7-5.2h-4h0h0c0,0-0.1-0.5-0.1-0.9
			c0-0.3-0.1-0.6-0.1-1c-0.1-0.4-0.1-0.7-0.2-1c-0.1-0.3-0.1-0.7-0.2-1c-0.1-0.4-0.2-0.7-0.2-1c-0.1-0.3-0.2-0.7-0.2-1
			c-0.1-0.3-0.2-0.7-0.3-1c-0.1-0.3-0.2-0.6-0.3-1c-0.1-0.3-0.2-0.7-0.3-1c-0.1-0.3-0.2-0.6-0.3-0.9c-0.1-0.3-0.2-0.6-0.3-0.8
			c1.9-18.6,0.6-31.8,0.5-32.6c-0.3-2.4-2.3-4.2-4.8-4c-1.3,0.1-2.7,0.1-4,0.1c-28.9,0-56.2-20.8-56.5-21c-1.4-1.1-3.3-1.2-4.8-0.4
			c-40.5,21-58.1,21.3-58.8,21.3c-2.4-0.1-4.4,1.7-4.6,4.1c-2.2,22.5-0.1,42.2,4.3,58.2h-9.9c-2.2,0-4.1,1.8-4.1,4v10.3v69.8
			c0,2.2,1.9,3.8,4.1,3.8h48.7c0.7,0,1.1-0.1,1.7-0.4c-1.3-0.7-2.3-1.9-2.3-3.5c0,1.5,1,2.8,2.3,3.5c0.6,0.3,1.3,0.4,2,0.4h93.2
			c2.2,0,4.4-1.6,4.4-3.8v-16.5c0-6.5-2-12.6-4-18.3L223.1,155.9C223,155.9,223,155.9,223.1,155.9z M202.4,173.4
			c0.6-1.3,1.2-2.6,1.7-3.9c-1.1,1-2.3,1.9-3.6,2.8c1.2-0.9,2.4-1.8,3.5-2.8c4.5-3.9,8-8.7,10.5-14.2c0.4,0.3,0.9,0.5,1.4,0.6
			c0,0,0,0,0,0v29.4C212,180.5,207.7,176.5,202.4,173.4z M186.1,188.7l-4.9-6l2.7-3.4c2.6-0.5,5.2-1.2,7.6-2.1
			c0.2,0.1,0.4,0.2,0.6,0.2L186.1,188.7z M142,141C142,141,142,141,142,141c-0.2,1-0.2,1.9-0.1,2.9c0.3,2.3,1.3,4.9,3.2,7
			c2.5,2.9,6.7,5.2,13,5.2c8.4,0,12.2-4.1,14.1-8.1h8.6c1.9,4,5.8,8.1,14.1,8.1c6.2,0,10.3-2.2,12.9-5
			c-5.2,12.2-17.3,20.8-31.3,20.8c-14.1,0-26.2-8.6-31.4-20.9c-1.9-2.2-2.9-4.8-3.2-7.1C141.7,142.9,141.8,142,142,141z
			 M178.9,141.4c0,0.2,0.1,0.6,0.1,0.6h-5.2c0,0,0.1-0.4,0.1-0.6c0.4-2.4-1-4.8-3.4-5.6c-2.2-0.8-5.2-1.6-8.8-2
			c7.4-4.5,12.2-9.8,15-13.7c3.1,3.9,7.9,9.2,14.2,13.7c-3.5,0.4-6.4,1.3-8.6,2C180,136.6,178.5,138.9,178.9,141.4z M179.9,110.5
			c-0.7-1.2-2-1.9-3.4-1.9c-0.1,0-0.2,0-0.3,0c-1.5,0.1-2.8,1.1-3.4,2.4c-0.1,0.2-7.1,16.1-30,21.8c2.4-16.4,16.6-29.1,33.7-29.1
			c17.3,0,31.6,13,33.8,29.7C192.5,130.5,180,110.7,179.9,110.5z M161,177c2.6,1,5.4,1.8,8.3,2.3l1.9,3.1l-5.1,6.3l-6.1-11.3
			C160.3,177.2,160.6,177.1,161,177z M176.1,189.1l5.9,7.3l-5.9,11l-5.9-11L176.1,189.1z M91.2,94.5c7.6-1,25.6-4.9,56.4-20.7
			c7.6,5.3,32.5,21.2,59.6,21.2c0.1,0,0.1,0,0.2,0c0.2,3,0.3,8.2,0,14.4c-0.2-0.2-0.4-0.5-0.7-0.7c-0.2-0.2-0.5-0.5-0.7-0.7
			c-0.2-0.2-0.5-0.5-0.7-0.7c-0.2-0.2-0.5-0.5-0.7-0.7c-0.2-0.2-0.5-0.4-0.8-0.7c-0.3-0.2-0.5-0.4-0.8-0.7c-0.3-0.2-0.5-0.4-0.8-0.6
			c-0.3-0.2-0.5-0.4-0.8-0.6c-0.3-0.2-0.5-0.4-0.8-0.6c-0.3-0.2-0.5-0.4-0.8-0.6c-0.3-0.2-0.6-0.4-0.9-0.6c-0.3-0.2-0.6-0.4-0.8-0.5
			c-0.3-0.2-0.6-0.3-0.9-0.5c-0.3-0.2-0.6-0.3-0.9-0.5c-0.3-0.2-0.6-0.3-0.9-0.5c-0.3-0.2-0.6-0.3-0.9-0.5c-0.3-0.2-0.6-0.3-0.9-0.4
			c-0.3-0.1-0.6-0.3-0.9-0.4c-0.3-0.1-0.7-0.3-1-0.4c-0.3-0.1-0.6-0.2-0.9-0.4c-0.3-0.1-0.7-0.2-1-0.3c-0.3-0.1-0.6-0.2-0.9-0.3
			c-0.3-0.1-0.7-0.2-1-0.3c-0.3-0.1-0.6-0.2-1-0.3c-0.4-0.1-0.7-0.2-1.1-0.2c-0.3-0.1-0.6-0.2-0.9-0.2c-0.4-0.1-0.8-0.1-1.1-0.2
			c-0.3-0.1-0.6-0.1-0.9-0.2c-0.4-0.1-0.8-0.1-1.2-0.2c-0.3,0-0.6-0.1-0.9-0.1c-0.5,0-1-0.1-1.4-0.1c-0.2,0-0.5,0-0.7-0.1
			c-0.7,0-1.4-0.1-2.2-0.1c-1,0-2,0-2.9,0.1c-13-5.5-22.5-12.9-22.7-13c-1.3-1-3-1.1-4.4-0.4c-30.3,16.2-43.4,19.1-43.5,19.1
			c-1.7,0.3-3,1.6-3.2,3.4c-2,21.7,1.1,39,6.2,53h-6.4H99v-6c0-2-1.2-3.6-3.1-3.9c-0.1,0-0.1,0-0.2,0c0.1,0,0.3,0,0.4,0
			C91.4,131.5,89.8,113.6,91.2,94.5z M81,156h10v2H81V156z M122,228H81v-62h14.5H122V228z M219,228h-86v-12.4
			c0-14.6,7.9-27.5,19.5-34.7l-1.6-3.1c-1-1.9-0.3-4.2,1.5-5.3c-0.2-0.1-0.3-0.2-0.5-0.4c-7.2,3.7-13.3,9.1-17.9,15.7
			c-1.4-1.4-3.1-2.9-4.1-4.5v-21c0-2.2-2-4.3-4.2-4.3H122v-22c0-2.2-1.8-4-4-4s-4,1.8-4,4v21.2c-5-12.8-8-28.9-6.5-48.5
			c5.4-1.6,18.2-6.1,40.5-17.9c2.5,1.8,7.1,4.9,12.9,8c-15.6,6.2-26.6,21.4-26.6,39.1c0,1.2,0.5,2.3,1.4,3.1c0.7,0.6,1.7,1,2.6,1
			c0.1,0,0.2,0,0.3,0c-0.1,0-0.2,0-0.3,0c-0.9,0-1.9-0.3-2.6-1c-0.9-0.8-1.4-1.9-1.4-3.1c0,14.1,7,26.6,17.7,34.3
			c0.2,0.1,0.3,0.3,0.5,0.4h0c-1.8,1.1-2.5,3.4-1.5,5.3l1.7,3.1l19.8,36.8c0.7,1.3,2.1,2.1,3.5,2.1s2.8-0.8,3.5-2.1l10.7-20
			c0,0,0,0,0,0l9-16.8l1.7-3.1l-1.4,3.1c7.4,4.6,13.3,11.5,16.6,19.7c0.1,0.4,0.2,0.8,0.4,1.2c1.6,4.3,2.4,9,2.4,13.8V228z"/>
	</g>
</g>
</svg>
