<?xml version="1.0" encoding="utf-8"?>
<!-- Generator: Adobe Illustrator 18.1.1, SVG Export Plug-In . SVG Version: 6.00 Build 0)  -->
<svg version="1.1" id="Layer_1" xmlns="http://www.w3.org/2000/svg" xmlns:xlink="http://www.w3.org/1999/xlink" x="0px" y="0px"
	 viewBox="0 0 300 300" enable-background="new 0 0 300 300" xml:space="preserve">
<g>
	<path fill="none" d="M150.9,120.7c-7.6-6.1-17.6-9.2-29.2-9.2c-4.2,0-8.7,0-10.7,0.1v75.3c0,0.2,0.2,0.1,0.2,0.2
		c0.5,0.1,1.9-0.1,4.2-0.1h1.9c6.4,0,12.2-0.4,17.2-1.6c-0.1-1.3-0.2-2.6-0.2-3.9c0-10.9,3.2-20.2,9.5-27.8c5-6,10.9-9.6,17.7-11
		C160.8,133.1,157.3,125.9,150.9,120.7z"/>
	<path fill="#FFFFFF" d="M170.5,102.7c-12.6-10.3-28.4-15.4-47.1-15.6c-0.7,0-3.9,0.1-9.5,0.2c-5.7,0.1-9.2,0.2-10.5,0.2
		C84,87.5,84,95.6,84,98.6l0.4,62.7l-0.2,41c0,2.3,0.8,4.3,2.3,6.1c1.6,1.8,3.3,2.8,5.3,3c2,0.2,8.3,0.4,27,0.4
		c9.2-0.1,17.5-1,24.9-2.7c-3.6-4.5-6.2-10-7.7-15.7c-5.5,1.3-11.7,1.6-18.6,1.6h-1.9c-2.6,0-4.3,0.3-5.5,0.1
		c-1.8-0.3-4-0.9-5.3-2.2c-1.5-1.5-2.8-3.4-2.8-6.1v-79.3c0-2.2,2.3-4,4.5-4.1c3.2-0.1,8.4-0.2,15.1-0.2c13.5,0,25.1,3.7,34.3,11
		c8.2,6.6,12.5,15.9,13.6,27.8c5.1,0.3,9.5,1.7,13.5,4.3V137h-5.8c-2.2,0-5.2-1.1-5.2-3.4v-15.7c0-2.2,3-4.9,5.2-4.9h3.2
		C177.7,109,174.4,105.9,170.5,102.7z"/>
	<path fill="#FFFFFF" d="M181,192.8c2-2.1,3-5.8,3-11.1c0-5.3-1-9.2-3-11.1c-2-2-4.2-3-6.7-3c-3,0-5.1,1-6.6,3.3
		c-1.8,2.6-2.8,6.2-2.8,10.8c0,4.3,0.9,7.9,2.8,10.7c1.6,2.4,3.6,3.4,6.7,3.4C176.9,195.9,179,194.9,181,192.8z"/>
	<path fill="#CDCCCC" d="M205,200.3V121h-25v8h7.8c2.2,0,3.2,2.4,3.2,4.6v21.7c0,1.7-0.6,3.2-2.2,3.8c-1.6,0.6-3.2,0.1-4.2-1.2
		c-4.4-5.3-9.7-7.9-16.5-7.9c-7.1,0-12.9,2.9-17.9,8.8c-5.2,6.2-7.6,13.6-7.6,22.6c0,9,2.5,16.4,7.5,22.6c4.8,6,10.7,8.9,18.1,8.9
		c6,0,11.6-2.6,16.9-7.9c1.2-1.2,2.5-1.5,4-0.9c1.5,0.6,2.1,2.1,2.1,3.7v3.1h25v-7h-6.4C207.4,204,205,202.5,205,200.3z
		 M186.8,198.4c-3.5,3.6-7.7,5.5-12.5,5.5c-5.7,0-10.3-2.4-13.4-7.1c-2.7-4.2-4.1-9.3-4.1-15.2c0-6.2,1.4-11.4,4.2-15.4
		c3.1-4.4,7.6-6.7,13.2-6.7c4.7,0,8.8,1.8,12.4,5.3c3.6,3.6,5.4,9.1,5.4,16.8C192.1,189.2,190.3,194.8,186.8,198.4z"/>
	<g>
		<path fill="#5A81B8" d="M220.9,196H213v-78.1c0-2.2-1.1-4.9-3.4-4.9H190c-3.5-6-8.3-11.8-14.2-16.7
			c-14.1-11.5-31.6-17.2-52.3-17.5c-0.8,0-4,0.1-9.7,0.2c-5.6,0.1-9.1,0.2-10.4,0.2c-22.9,0-27.7,10.5-27.7,19.4l0.4,62.7l-0.2,40.9
			c0,4.4,1.5,8.3,4.5,11.6c2.9,3.3,6.5,5.2,10.4,5.7c0.1,0,0.1-0.5,0.2-0.5c3,0.3,12.1-0.1,27.8-0.1c0,0,0,0,0,0
			c11.9,0,22.4-1,31.7-3.7c0.1,0,0.1,0.3,0.2,0.3c5,3.5,10.9,5.4,17.4,5.4c5.5,0,10.8-2.1,15.7-5.2c0.1,2.1,1.9,3.2,4,3.2h33
			c2.2,0,3.1-0.7,3.1-2.9v-15.7C224,198.1,223.1,196,220.9,196z M118.9,211.7c-18.7,0-25.1-0.2-27.1-0.4c-2-0.3-3.7-1.3-5.3-3
			c-1.6-1.8-2.4-3.8-2.4-6.1l0.2-40.9L84,98.6c0-3,0-11.1,19.4-11.1c1.3,0,4.8,0,10.5-0.1c5.6-0.1,8.8-0.1,9.5-0.1
			c18.7,0.2,34.5,5.1,47.1,15.4c3.9,3.2,7.2,6.3,9.9,10.3h-3.2c-2.2,0-5.2,2.7-5.2,4.9v15.7c0,2.2,3,3.4,5.2,3.4h5.8v9.4
			c-4-2.6-8.3-4.6-13.4-4.9c-0.6,0-0.8-0.6-1.4-0.6c0,0,0,0,0,0c0.6,0,1.2,0.5,1.8,0.6c-1.1-11.9-5.8-21-14-27.6
			c-9.2-7.3-20.6-10.9-34.1-10.9c-6.6,0-12.2,0.1-15.4,0.3c-2.2,0.1-4.5,2-4.5,4.2v79.3c0,2.7,1.3,4.8,2.8,6.2c1.3,1.3,3.2,1.8,5,2
			c1.1,0.2,3.2-0.1,5.7-0.1h1.9c6.8,0,13-0.3,18.6-1.6c0,0,0.2,0.2,0.2,0.2c1.5,5.7,3.8,10.9,7.8,15.5v0
			C136,210.7,128.2,211.7,118.9,211.7z M134.6,185.6c0.2,2.6,0.6,5.1,1.2,7.5c-0.6-2.4-1-5.1-1.2-7.6c-5,1.2-10.8,1.6-17.2,1.6h-1.9
			c-2.3,0-3.7,0.1-4.2,0.1c0-0.1-0.2-0.1-0.2-0.2v-75.3c2-0.1,6.5-0.1,10.7-0.1c11.6,0,21.4,3.1,29.1,9.2c6.4,5.1,10,12.3,10.9,21.9
			c0,0,0,0,0,0c-6.8,1.4-12.7,5.1-17.7,11.1c-6.3,7.6-9.5,16.9-9.5,27.8C134.5,182.9,134.5,184.3,134.6,185.6z M143.8,209.2
			c0.4,0.5,0.8,0.9,1.2,1.3C144.6,210.1,144.2,209.7,143.8,209.2z M216,211h-25v-3.1c0-1.6-0.6-3.1-2.1-3.7c-1.5-0.6-3-0.3-4.2,0.9
			c-5.3,5.3-10.8,7.9-16.8,7.9c-7.3,0-13.2-2.9-18-8.9c-5-6.2-7.5-13.6-7.5-22.6c0-9.1,2.5-16.5,7.7-22.6c5-5.9,10.9-8.8,18-8.8
			c6.8,0,12.2,2.6,16.6,7.9c1.1,1.3,2.4,1.8,4,1.2c1.6-0.6,2.2-2.1,2.2-3.8v-21.7c0-2.2-0.9-4.6-3.2-4.6H180v-8h25v79.3
			c0,2.2,2.4,3.7,4.6,3.7h6.4V211z"/>
		<path fill="#5A81B8" d="M174.3,159.6c-5.6,0-10.1,2.3-13.2,6.7c-2.8,4-4.2,9.2-4.2,15.4c0,5.9,1.4,11,4.1,15.2
			c3,4.6,7.7,7.1,13.4,7.1c4.7,0,8.9-1.8,12.5-5.5c3.5-3.6,5.3-9.2,5.3-16.7c0-7.7-1.8-13.2-5.4-16.8
			C183.1,161.4,178.9,159.6,174.3,159.6z M181,192.8c-2,2-4.2,3-6.7,3c-3,0-5.1-1.1-6.7-3.4c-1.9-2.8-2.8-6.4-2.8-10.7
			c0-4.5,0.9-8.2,2.8-10.8c1.6-2.2,3.7-3.3,6.6-3.3c2.5,0,4.7,1,6.7,3c2,2,3,5.8,3,11.1C184,187.1,183,190.8,181,192.8z"/>
	</g>
</g>
</svg>
