<?xml version="1.0" encoding="utf-8"?>
<!-- Generator: Adobe Illustrator 18.1.1, SVG Export Plug-In . SVG Version: 6.00 Build 0)  -->
<svg version="1.1" id="Layer_1" xmlns="http://www.w3.org/2000/svg" xmlns:xlink="http://www.w3.org/1999/xlink" x="0px" y="0px"
	 viewBox="0 0 300 300" enable-background="new 0 0 300 300" xml:space="preserve">
<g>
	<path fill="none" d="M152.2,222c0.2,0,0.3-0.1,0.5-0.1c-0.2,0-0.3,0-0.5-0.1V222z"/>
	<path fill="#FFFFFF" d="M109.6,111.3c-1.4,0-2.7,0.5-3.7,1.5c-2.1,2-2.2,5.3-0.2,7.4c1,1,2.3,1.6,3.8,1.6c1.4,0,2.7-0.5,3.7-1.5
		c2.1-2,2.2-5.3,0.2-7.4C112.4,111.9,111.1,111.3,109.6,111.3z"/>
	<path fill="#FFFFFF" d="M182,159.9V186h5v-27.5c-1,0.7-1.3,1.1-2.2,1.2L182,159.9z"/>
	<path fill="#FFFFFF" d="M66.7,126H91l0.7-0.6c-0.6-1.1-1-2.2-1.3-3.4l-4.5-0.1c-0.7,0-1.3-0.3-1.7-0.8c-0.5-0.5-0.7-1.1-0.7-1.8
		l0.2-6.7c0-0.7,0.3-1.3,0.8-1.7c0.5-0.5,1.1-0.7,1.8-0.7l4.4,0.1c0.4-1.2,0.9-2.4,1.5-3.5l-3-3.2c-1-1-0.9-2.6,0.1-3.5l4.8-4.6
		c0.5-0.5,1.1-0.7,1.8-0.7c0.7,0,1.3,0.3,1.7,0.8l3,3.1c1.2-0.6,2.3-1.1,3.6-1.4l0.1-4.3c0-0.7,0.3-1.3,0.8-1.7s1.1-0.7,1.8-0.7
		l6.7,0.2c0.7,0,1.3,0.3,1.7,0.8s0.7,1.1,0.7,1.8l-0.1,4.2c1.2,0.4,2.4,0.9,3.6,1.6l3.1-2.9c1-1,2.6-0.9,3.5,0.1l4.6,4.8
		c0.5,0.5,0.7,1.1,0.7,1.8c0,0.7-0.3,1.3-0.8,1.7l-3.1,2.6c0.3,0.7,0.6,1.7,0.9,1.7h14.3c0.4-2,1.1-4,2-6l-6.3-5
		c-1.5-1.2-1.7-3.4-0.5-4.8l7.3-8.8c0.6-0.7,1.4-1.1,2.4-1.2c0.9-0.1,1.8,0.2,2.6,0.8l6.2,5.1c2.1-1.5,4.3-2.7,6.7-3.6l-0.8-7.9
		c-0.2-1.9,1.2-3.6,3.2-3.8l11.4-1.1c0.9-0.1,1.8,0.2,2.6,0.8c0.7,0.6,1.2,1.4,1.3,2.4l0.7,7.8c2.5,0.5,5,1.2,7.4,2.3l5-6.1
		c0.6-0.7,1.4-1.2,2.4-1.3c0.9-0.1,1.8,0.2,2.6,0.8l8.8,7.3c0.7,0.6,1.2,1.4,1.3,2.4c0.1,0.9-0.2,1.8-0.8,2.6l-5,6.1
		c1.5,2.1,2.7,4.4,3.6,6.8l7.8-0.7c1.9-0.2,3.6,1.2,3.8,3.2l1.1,11.4c0.1,0.9-0.2,1.8-0.8,2.6c-0.6,0.7-1.4,1.2-2.4,1.3l-7.9,0.7
		c-0.2,1.1-0.5,2.3-0.8,3.3h26.8c2.8,0,4.8,2.4,4.8,5.1v40.3c6-6.9,9-15.7,9-25.3c0-16.8-10.8-32-26.6-37.8c-2-0.7-3.5-2.6-3.5-4.7
		c0,0,0-0.1,0-0.1c0-24.3-19.6-44-43.9-44c-16,0-30.7,8.7-38.5,22.8c-0.7,1.3-2,2.3-3.5,2.5c-1.5,0.2-3-0.2-4.2-1.3
		c-5.2-4.9-12-7.6-19.2-7.6c-15.4,0-28,12.5-28,28c0,2.1-1.3,3.9-3.2,4.7c-15.5,5.9-25.8,21-25.8,37.6c0,10.2,3.2,19.5,10.2,26.6
		v-41.6C62,128.4,64,126,66.7,126z"/>
	<path fill="#FFFFFF" d="M184.5,124.1c4.3-5.2,3.6-12.8-1.5-17c-2.2-1.8-4.8-2.7-7.6-2.7c-3.6,0-7,1.3-9.4,4.1
		c-0.2,0.3-0.4,0.5-0.6,0.5h11.7c2.8,0,4.9,2.9,4.9,5.6v11.7C183,125.7,183.8,125,184.5,124.1z"/>
	<path fill="#FFFFFF" d="M114.8,135.8l-0.1,4.4c0,0.7-0.6,1.3-1.1,1.7c-0.1,0.1,0.4,0.2-0.6,0.3V186h8v-48.8l-2.6-2.7
		C117.3,135,116,135.5,114.8,135.8z"/>
	
		<line fill="none" stroke="#CCCCCC" stroke-width="0" stroke-linecap="round" stroke-linejoin="round" x1="152" y1="221" x2="152" y2="222"/>
	<path fill="#CCCCCC" d="M204.8,116.1l7.2-0.7l-0.4-4.4l-7.1,0.7c-1.7,0.2-3.2-0.9-3.7-2.5c-1-3.5-2.7-6.6-5-9.4
		c-1.1-1.3-1.1-3.2,0-4.5l4.5-5.5l-3.4-2.8l-4.5,5.5c-1.1,1.3-2.9,1.6-4.4,0.8c-3.2-1.7-6.6-2.8-10.2-3.1c-1.7-0.2-3-1.5-3.2-3.2
		l-0.7-7.1l-4.4,0.4l0.7,7.2c0.2,1.7-0.9,3.2-2.5,3.7c-3.4,1-6.5,2.7-9.3,5c-1.3,1.1-3.2,1.1-4.5,0l-5.6-4.7l-2.8,3.4l5.7,4.7
		c1.3,1.1,1.6,2.6,0.9,4c-1,1.8-1.7,3.3-2.2,5.3h7.8c0.7-2,1.7-3.3,3.1-5c3.7-4.4,9-6.8,14.8-6.8c4.4,0,8.7,1.6,12.1,4.4
		c7.3,6.1,8.9,16.5,4.1,24.4c0.2,0,0.4-0.1,0.7-0.1h7.6c0.9-3,1.5-4.5,1.7-6.9C201.8,117.5,203.1,116.2,204.8,116.1z"/>
	<path fill="#CCCCCC" d="M182,142.1c0-0.1,0.3-0.2,0.4-0.2c1.6-0.5,3.6-1.1,4.6-1.8v-8.8c-1,1.3-3,2.3-5,3V142.1z"/>
	<path fill="#CCCCCC" d="M122.5,105.4l2.7-2.5l-1.2-1.2l-2.7,2.5c-0.9,0.8-2.2,0.9-3.2,0.2c-1.7-1.2-3.5-2-5.5-2.4
		c-1.2-0.3-2-1.3-2-2.5l0.1-3.7l-1.7,0l-0.1,3.7c0,1.2-0.9,2.2-2.1,2.4c-2,0.3-3.9,1.1-5.6,2.2c-1,0.7-2.3,0.5-3.2-0.4l-2.6-2.8
		l-1.2,1.2l2.7,2.8c0.8,0.9,0.9,2.2,0.2,3.2c-1.1,1.6-1.9,3.5-2.4,5.4c-0.3,1.2-1.3,2-2.5,2l-3.9-0.1l0,1.7l3.9,0.1
		c1.2,0,2.2,0.9,2.4,2.1c0.3,1.9,1.1,3.7,2.1,5.4c0.3,0.5,0.4,0.5,0.4,1.5h8.6c-1.4-1-2.7-1.3-3.8-2.4c-3.9-4.1-3.7-10.5,0.4-14.4
		c1.9-1.8,4.4-2.8,7.1-2.8c2.8,0,5.4,1.1,7.4,3.2c3.9,4.1,3.7,10.6-0.4,14.5c-1.6,1.5-3.6,2.5-5.7,2.7c1.6,0.8,2.7,2.4,2.7,4.3
		c1.4-0.4,2.7-1,3.9-1.7c1-0.6,2.4-0.5,3.2,0.4l0.3,0.3v-15.3c0-1.8,0.9-3.3,2.2-4.2c-0.3-0.7-0.7-1.3-1.1-2
		C121.5,107.5,121.7,106.2,122.5,105.4z"/>
	<path fill="#FFFFFF" d="M172,119h-41v88h41V119z M164.2,145c1.4,0,2.5,1.1,2.5,2.5s-1.1,2.5-2.5,2.5h-26c-1.4,0-2.5-1.1-2.5-2.5
		s1.1-2.5,2.5-2.5H164.2z M164.2,163h-26c-1.4,0-2.5-1.1-2.5-2.5s1.1-2.5,2.5-2.5h26c1.4,0,2.5,1.1,2.5,2.5S165.6,163,164.2,163z
		 M166.7,172.5c0,1.4-1.1,2.5-2.5,2.5h-26c-1.4,0-2.5-1.1-2.5-2.5s1.1-2.5,2.5-2.5h26C165.6,170,166.7,171.1,166.7,172.5z
		 M162.1,128.8c2.2,0,4,1.8,4,4s-1.8,4-4,4s-4-1.8-4-4S159.9,128.8,162.1,128.8z"/>
	<path fill="#FFFFFF" d="M229,136h-32v64h32V136z M223.2,174h-20c-1.4,0-2.5-1.1-2.5-2.5s1.1-2.5,2.5-2.5h20c1.4,0,2.5,1.1,2.5,2.5
		S224.6,174,223.2,174z M223.2,161h-20c-1.4,0-2.5-1.1-2.5-2.5s1.1-2.5,2.5-2.5h20c1.4,0,2.5,1.1,2.5,2.5S224.6,161,223.2,161z
		 M221.1,142.8c2.2,0,4,1.8,4,4s-1.8,4-4,4s-4-1.8-4-4S218.9,142.8,221.1,142.8z"/>
	<path fill="#FFFFFF" d="M103,136H72v64h31V136z M94.1,142.8c2.2,0,4,1.8,4,4s-1.8,4-4,4s-4-1.8-4-4S91.9,142.8,94.1,142.8z
		 M77.2,156h21c1.4,0,2.5,1.1,2.5,2.5s-1.1,2.5-2.5,2.5h-21c-1.4,0-2.5-1.1-2.5-2.5S75.8,156,77.2,156z M77.2,169h21
		c1.4,0,2.5,1.1,2.5,2.5s-1.1,2.5-2.5,2.5h-21c-1.4,0-2.5-1.1-2.5-2.5S75.8,169,77.2,169z"/>
	<rect x="143" y="235" fill="#CCCCCC" width="17" height="5"/>
	<g>
		<path fill="#5980B7" d="M228.4,100.3c-1.7-28.3-25.3-50.8-54-50.8c-17.7,0-34.2,8.7-44.2,23c-6.3-4.3-13.7-6.5-21.3-6.5
			C89,65.9,72.7,81.1,71,100.5c-17.7,8.1-29.2,26.1-29.2,45.7c0,16.4,7.2,31,20.2,40.2V205c0,2.8,2,5,4.7,5H83v6.4
			c0,2.5,2,4.5,4.5,4.5s4.5-2,4.5-4.5V210h16.6c2.8,0,4.4-2.3,4.4-5v-9h8v16.2c0,2.8,2.2,4.8,4.9,4.8h22.3c0,2,1.5,3.9,3.5,4.4
			c-1.8,0.4-3.2,1.6-3.5,3.6h-10.4c-2.8,0-4.9,3.1-4.9,5.8v14.9c0,2.8,2.1,4.3,4.9,4.3h27.3c2.8,0,4.8-1.6,4.8-4.3v-3.4
			c1,0.7,2,0.8,3.2,0.8h12c2.5,0,4.5-2,4.5-4.5s-2-4.5-4.5-4.5h-12c-1.2,0-2.2,0.9-3.2,1.6v-4.8c0-2.8-2.1-5.8-4.8-5.8h-8
			c-0.3-2-1.7-3.2-3.5-3.6c2-0.4,3.6-2.4,3.6-4.4h19.9c2.8,0,4.9-2.1,4.9-4.8V196h5v9c0,2.8,2.5,5,5.3,5H208v8.4
			c0,2.5,2,4.5,4.5,4.5s4.5-2,4.5-4.5V210h17.2c2.8,0,4.8-2.3,4.8-5v-19.5c12-9.2,19-23.4,19-39.3
			C258,126.3,246.3,108.3,228.4,100.3z M160,235v5h-17v-5H160z M103,200H72v-64h31V200z M121,186h-8v-43.7c1-0.1,0.5-0.2,0.6-0.3
			c0.5-0.5,0.9-1.1,0.9-1.7l0.2-4.4c1.2-0.3,2.5-0.8,3.6-1.3l2.7,2.7V186z M123.2,110.4c-1.4,0.9-2.2,2.5-2.2,4.3v15.3l-0.3-0.3
			c-0.8-0.9-2.2-1-3.2-0.4c-1.2,0.8-2.7,1.3-4.1,1.7c-0.1-1.9-1-3.3-2.6-4.1c-0.7-0.3-1.3-0.4-2.1-0.4c0.8,0,1.6,0.1,2.3,0.4
			c2.1-0.3,4.2-1.3,5.7-2.8c4.1-3.9,4.3-10.5,0.4-14.5c-1.9-2-4.6-3.2-7.4-3.2c-2.7,0-5.2,1-7.1,2.8c-4.1,3.9-4.3,10.3-0.4,14.4
			c1.1,1.1,2.4,1.4,3.8,2.4h-8.6c0-1-0.1-1-0.4-1.5c-1.1-1.7-1.8-3.5-2.1-5.4c-0.2-1.2-1.2-2-2.4-2.1l-3.9-0.1l0-1.7l3.9,0.1
			c1.2,0,2.3-0.8,2.5-2c0.4-2,1.2-3.8,2.4-5.4c0.7-1,0.6-2.3-0.2-3.2l-2.7-2.8l1.2-1.2l2.6,2.8c0.8,0.9,2.2,1,3.2,0.4
			c1.7-1.1,3.6-1.8,5.6-2.2c1.2-0.2,2-1.2,2.1-2.4l0.1-3.7l1.7,0l-0.1,3.7c0,1.2,0.8,2.3,2,2.5c2,0.4,3.9,1.2,5.5,2.4
			c1,0.7,2.3,0.6,3.2-0.2l2.7-2.5l1.2,1.2l-2.7,2.5c-0.9,0.8-1,2.1-0.4,3.2C122.6,109.1,122.9,109.7,123.2,110.4
			c0.7-0.5,1.6-0.9,2.6-0.9C124.9,109.4,124,109.8,123.2,110.4z M105.7,120.2c-2-2.1-1.9-5.4,0.2-7.4c1-0.9,2.3-1.5,3.7-1.5
			c1.4,0,2.8,0.6,3.8,1.6c2,2.1,1.9,5.4-0.2,7.4c-1,0.9-2.3,1.5-3.7,1.5C108.1,121.8,106.7,121.2,105.7,120.2z M172,207h-41v-88h41
			V207z M177.1,109h-11.7c0.2,0,0.4-0.2,0.6-0.5c2.3-2.8,5.7-4.3,9.4-4.3c2.8,0,5.4,1,7.6,2.8c5.1,4.2,5.7,11.9,1.5,17
			c-0.7,0.9-1.5,1.6-2.5,2.3v-11.7C182,111.9,179.9,109,177.1,109z M187,186h-5v-26.1l2.8-0.3c0.9-0.1,1.2-0.5,2.2-1.2V186z
			 M187,140c-1,0.7-2.9,1.4-4.6,1.8c-0.2,0.1-0.4,0.1-0.4,0.2v-7.8c2-0.7,4-1.7,5-3V140z M191.5,126.1c-2.4,0.3-4.4,2.4-4.4,4.9
			C187.2,128.5,189.1,126.5,191.5,126.1c4.8-7.9,3.3-18.4-4.1-24.4c-3.4-2.8-7.7-4.3-12.1-4.3c-5.7,0-11.1,2.2-14.8,6.6
			c-1.3,1.6-2.4,3-3.1,5h-7.8c0.5-2,1.3-3.5,2.2-5.3c0.8-1.5,0.4-3.1-0.9-4.2l-5.7-4.6l2.8-3.4l5.6,4.7c1.3,1.1,3.2,1.1,4.5,0
			c2.8-2.3,5.9-4,9.3-5c1.6-0.5,2.6-2,2.5-3.7l-0.7-7.2l4.4-0.4l0.7,7.1c0.2,1.7,1.5,3,3.2,3.2c3.6,0.3,7,1.4,10.2,3.1
			c1.5,0.8,3.3,0.5,4.4-0.8l4.5-5.5l3.4,2.8l-4.5,5.5c-1.1,1.3-1.1,3.2,0,4.5c2.3,2.8,4,6,5,9.4c0.5,1.6,2,2.7,3.7,2.5l7.1-0.7
			l0.4,4.4l-7.2,0.7c-1.7,0.2-3,1.4-3.2,3.1c-0.2,2.4-0.8,3.9-1.7,6.9h-7.6C192,126,191.8,126.1,191.5,126.1z M229,200h-32v-64h32
			V200z M239,171.4v-40.3c0-2.8-2.1-5.1-4.8-5.1h-26.8c0.3-1,0.6-2.1,0.8-3.3l7.9-0.8c0.9-0.1,1.8-0.5,2.4-1.2
			c0.6-0.7,0.9-1.6,0.8-2.5l-1.1-11.4c-0.2-1.9-1.9-3.3-3.8-3.1l-7.8,0.7c-0.9-2.4-2.1-4.7-3.6-6.8l5-6c0.6-0.7,0.9-1.6,0.8-2.6
			c-0.1-0.9-0.5-1.8-1.3-2.4l-8.8-7.3c-0.7-0.6-1.6-0.9-2.6-0.8c-0.9,0.1-1.8,0.5-2.4,1.3l-5,6.1c-2.4-1-4.8-1.8-7.4-2.3l-0.7-7.8
			c-0.1-0.9-0.5-1.8-1.3-2.4c-0.7-0.6-1.6-0.9-2.6-0.8l-11.4,1.1c-1.9,0.2-3.3,1.9-3.2,3.8l0.8,7.9c-2.4,0.9-4.6,2.2-6.7,3.6
			l-6.2-5.1c-0.7-0.6-1.6-0.9-2.6-0.8c-0.9,0.1-1.8,0.5-2.4,1.3l-7.3,8.8c-1.2,1.5-1,3.7,0.5,4.9l6.3,4.9c-0.9,2-1.5,4-2,6h-14.3
			c-0.3,0-0.5-1-0.9-1.7l3.1-2.7c0.5-0.5,0.8-1,0.8-1.7c0-0.7-0.2-1.3-0.7-1.8l-4.6-4.8c-1-1-2.5-1-3.5-0.1l-3.1,2.9
			c-1.1-0.6-2.3-1.2-3.6-1.6l0.1-4.2c0-0.7-0.2-1.3-0.7-1.8s-1.1-0.8-1.7-0.8l-6.7-0.2c-0.7,0-1.3,0.2-1.8,0.7s-0.8,1.1-0.8,1.7
			l-0.1,4.3c-1.2,0.4-2.4,0.8-3.6,1.4l-3-3.1c-0.5-0.5-1.1-0.8-1.7-0.8c-0.7,0-1.3,0.2-1.8,0.7l-4.8,4.6c-1,1-1,2.5-0.1,3.5l3,3.2
			c-0.6,1.1-1.1,2.3-1.5,3.5l-4.4-0.1c-0.7,0-1.3,0.2-1.8,0.7c-0.5,0.5-0.8,1.1-0.8,1.7l-0.2,6.7c0,0.7,0.2,1.3,0.7,1.8
			c0.5,0.5,1.1,0.8,1.7,0.8l4.5,0.1c0.3,1.2,0.8,2.3,1.3,3.4L91,126H66.7c-2.8,0-4.7,2.4-4.7,5.1v41.6c-7-7.1-10.2-16.4-10.2-26.6
			c0-16.6,10.4-31.7,25.9-37.6c1.9-0.7,3.2-2.6,3.2-4.7c0-15.4,12.6-28,28-28c7.1,0,13.9,2.7,19.2,7.6c1.1,1.1,2.7,1.5,4.2,1.3
			c1.5-0.2,2.8-1.2,3.6-2.5c7.8-14,22.6-22.8,38.6-22.8c24.3,0,44,19.7,44.1,44c0,0,0,0.1,0,0.1c0,2.1,1.3,4,3.3,4.7
			c15.8,5.8,26.3,21,26.3,37.8C248,155.7,245,164.5,239,171.4z"/>
		<path fill="#5980B7" d="M212.6,231.7c-1.8,0-3.2,0.3-3.9,2.3h-5.5c-2.5,0-4.5,2-4.5,4.5s2,4.5,4.5,4.5h9.5c2.5,0,4.3-1.6,4.3-4.1
			v-2.5C217,233.9,215.1,231.7,212.6,231.7z"/>
		<path fill="#5980B7" d="M125.2,234h-12c-2.5,0-4.5,2-4.5,4.5s2,4.5,4.5,4.5h12c2.5,0,4.5-2,4.5-4.5S127.7,234,125.2,234z"/>
		<path fill="#5980B7" d="M95.2,234h-3c0-3-2.1-4.3-4.6-4.3s-4.6,2.2-4.6,4.7v4.5c0,2.5,2.2,4.1,4.7,4.1h7.5c2.5,0,4.5-2,4.5-4.5
			S97.7,234,95.2,234z"/>
		<path fill="#5980B7" d="M203.2,161h20c1.4,0,2.5-1.1,2.5-2.5s-1.1-2.5-2.5-2.5h-20c-1.4,0-2.5,1.1-2.5,2.5S201.8,161,203.2,161z"
			/>
		<path fill="#5980B7" d="M203.2,174h20c1.4,0,2.5-1.1,2.5-2.5s-1.1-2.5-2.5-2.5h-20c-1.4,0-2.5,1.1-2.5,2.5S201.8,174,203.2,174z"
			/>
		<path fill="#5980B7" d="M77.2,161h21c1.4,0,2.5-1.1,2.5-2.5s-1.1-2.5-2.5-2.5h-21c-1.4,0-2.5,1.1-2.5,2.5S75.8,161,77.2,161z"/>
		<path fill="#5980B7" d="M77.2,174h21c1.4,0,2.5-1.1,2.5-2.5s-1.1-2.5-2.5-2.5h-21c-1.4,0-2.5,1.1-2.5,2.5S75.8,174,77.2,174z"/>
		<path fill="#5980B7" d="M138.2,150h26c1.4,0,2.5-1.1,2.5-2.5s-1.1-2.5-2.5-2.5h-26c-1.4,0-2.5,1.1-2.5,2.5S136.8,150,138.2,150z"
			/>
		<path fill="#5980B7" d="M138.2,163h26c1.4,0,2.5-1.1,2.5-2.5s-1.1-2.5-2.5-2.5h-26c-1.4,0-2.5,1.1-2.5,2.5S136.8,163,138.2,163z"
			/>
		<path fill="#5980B7" d="M138.2,175h26c1.4,0,2.5-1.1,2.5-2.5s-1.1-2.5-2.5-2.5h-26c-1.4,0-2.5,1.1-2.5,2.5S136.8,175,138.2,175z"
			/>
		<circle fill="#5980B7" cx="162.1" cy="132.8" r="4"/>
		<circle fill="#5980B7" cx="221.1" cy="146.8" r="4"/>
		<circle fill="#5980B7" cx="94.1" cy="146.8" r="4"/>
	</g>
</g>
</svg>
