<?xml version="1.0" encoding="utf-8"?>
<!-- Generator: Adobe Illustrator 18.1.1, SVG Export Plug-In . SVG Version: 6.00 Build 0)  -->
<svg version="1.1" id="Layer_1" xmlns="http://www.w3.org/2000/svg" xmlns:xlink="http://www.w3.org/1999/xlink" x="0px" y="0px"
	 viewBox="0 0 300 300" enable-background="new 0 0 300 300" xml:space="preserve">
<g>
	<path fill="none" d="M212.6,186.7c0.3-3.1,1.3-5.7,2.5-7.7h-81.5c-0.4,0-0.7,0-1.1,0H102v8h58.9c2.9-3,5.8-5.4,6.1-5.6
		c2.1-1.4,4.8-1.2,6.7,0.4c1.9,1.7,3.5,3.2,4.9,5.2h34C212.6,187,212.6,186.9,212.6,186.7z"/>
	<path fill="none" d="M200,209.9c0-3,1.8-5.9,4.8-5.9h12.6c-1.3-2-2.4-4-3.2-6h-30.7c0.3,2,0.4,2.9,0.4,4.3c0,4.8-1.5,9.7-3.4,12.7
		h6.8c3,0,5.6,2.8,5.6,5.8V237h7V209.9z"/>
	<path fill="none" d="M243,91.7V157c0,0,0,0,0,0v16c0,2.6-2.1,4.6-4.5,5.2c1.5,2.9,2.1,5.8,2.4,8.8h9.2V78H141l8.1,8h87.7
		C239.8,86,243,88.7,243,91.7z"/>
	<path fill="none" d="M190,52.4c-2.7,4.5-7.6,7.5-13.2,7.5c-5.7,0-10.7-3.1-13.4-7.7L144.7,67h63L190,52.4z"/>
	<path fill="#FFFFFF" d="M232,157.7c-2-7-5.8-14.9-8.6-14.9c-0.1,0-0.3,0-0.3,0c-3.5,0.4-6.5,2.5-10.1,5.1
		c-4.5,3.2-10.1,7.3-18.2,8.4c-1.8,0.2-3.5,0.4-5.1,0.4c-18.4,0-28-14.8-35.1-25.8c-2.9-4.4-5.9-9-8.4-10.8
		c-0.1,0.1-0.2,0.4-0.4,0.5l-6.7,47.4H232V157.7z"/>
	<path fill="#FFFFFF" d="M150.2,109.7c5.4,2.7,9.1,8.4,13.5,15.1c8.6,13.2,15.7,22.4,29.5,20.5c5.4-0.7,9.2-3.5,13.3-6.4
		c4.4-3.1,9.2-6.4,15.5-7.1c3.9-0.5,7.1,0.8,10.1,2.9V97h-72.4l1.8,2c2.1,2.2,2,5.7-0.2,7.8c-1.1,1-2.4,1.6-3.8,1.6
		c-1.4,0-2.9-0.6-4-1.7l-5.1-5.3l-1.1,7.5C148.3,109,149.3,109.3,150.2,109.7z M192.2,101.4c10,0,18.1,7.9,18.1,17.6
		c0,9.7-8.1,17.6-18.1,17.6s-18.1-7.9-18.1-17.6C174.2,109.3,182.3,101.4,192.2,101.4z"/>
	<path fill="#CCCCCC" d="M192.2,125.6c3.9,0,7.1-3,7.1-6.6c0-3.6-3.2-6.6-7.1-6.6s-7.1,3-7.1,6.6
		C185.2,122.6,188.3,125.6,192.2,125.6z"/>
	<path fill="#FFFFFF" d="M127.8,168l10.8-75.8L98.2,49.4l-2.4,2.4L56.6,92.2L69.9,168h25.2c0.4,0,0.8-0.1,1.2-0.1s0.8,0.1,1.2,0.1
		H127.8z M84,73.6c0-7.4,6.1-13.4,13.5-13.4s13.5,6,13.5,13.4v17.7c0,3-2.5,5.6-5.5,5.6H89.6c-3,0-5.6-2.6-5.6-5.6V73.6z
		 M68.7,135.3c0-15.9,12.9-28.8,28.8-28.8s28.8,12.9,28.8,28.8s-12.9,28.8-28.8,28.8S68.7,151.2,68.7,135.3z"/>
	<path fill="#FFFFFF" d="M97.5,117.5c-9.8,0-17.8,8-17.8,17.8s8,17.8,17.8,17.8s17.8-8,17.8-17.8S107.3,117.5,97.5,117.5z
		 M103.7,143h-7.5c-3,0-5.2-2.4-5.2-5.4v-11.5c0-3,2.5-5.5,5.5-5.5s5.5,2.5,5.5,5.5v5.9h1.7c3,0,5.5,2.5,5.5,5.5
		S106.8,143,103.7,143z"/>
	<path fill="#CCCCCC" d="M85,247.6c0,6.9,5.6,12.5,12.5,12.5s12.5-5.6,12.5-12.5s-5.6-12.5-12.5-12.5S85,240.7,85,247.6z"/>
	<path fill="#CCCCCC" d="M97.5,71.2c-1.3,0-2.5,1.1-2.5,2.4V86h5V73.6C100,72.3,98.8,71.2,97.5,71.2z"/>
	<path fill="#FFFFFF" d="M181.2,44.3c0-2.5-2-4.5-4.5-4.5s-4.5,2-4.5,4.5s2,4.5,4.5,4.5S181.2,46.8,181.2,44.3z"/>
	<polygon fill="#CCCCCC" points="187.4,248 151.8,248 146.2,248 149.5,253 249.3,253 252.5,248 247,248 204.8,248 	"/>
	<rect x="158" y="226" fill="#FFFFFF" width="24" height="11"/>
	<rect x="211" y="215" fill="#FFFFFF" width="31" height="22"/>
	<path fill="#FFFFFF" d="M230,189.6c0-3-1.1-5.9-3.3-8.7c-1.4,1.7-2.8,4.2-3.2,7.1c-0.4,3.4,0.8,7,3.4,10.8
		C228.5,196.4,230,193.1,230,189.6z"/>
	<path fill="#FFFFFF" d="M173,202.6c0-3-1.1-5.9-3.3-8.7c-1.4,1.7-2.8,4.2-3.2,7.1c-0.4,3.4,0.8,7,3.4,10.8
		C171.5,209.4,173,206.1,173,202.6z"/>
	<g>
		<path fill="#5980B7" d="M210.3,119c0-9.7-8.1-17.6-18.1-17.6s-18.1,7.9-18.1,17.6c0,9.7,8.1,17.6,18.1,17.6S210.3,128.7,210.3,119
			z M185.2,119c0-3.6,3.2-6.6,7.1-6.6s7.1,3,7.1,6.6c0,3.6-3.2,6.6-7.1,6.6S185.2,122.6,185.2,119z"/>
		<path fill="#5980B7" d="M68.7,135.3c0,15.9,12.9,28.8,28.8,28.8s28.8-12.9,28.8-28.8s-12.9-28.8-28.8-28.8S68.7,119.4,68.7,135.3z
			 M115.3,135.3c0,9.8-8,17.8-17.8,17.8s-17.8-8-17.8-17.8s8-17.8,17.8-17.8S115.3,125.5,115.3,135.3z"/>
		<path fill="#5980B7" d="M97.5,60.2c-7.4,0-13.5,6-13.5,13.4v17.7c0,3,2.6,5.6,5.6,5.6h15.9c3,0,5.5-2.6,5.5-5.6V73.6
			C111,66.2,104.9,60.2,97.5,60.2z M100,86h-5V73.6c0-1.3,1.2-2.4,2.5-2.4s2.5,1.1,2.5,2.4V86z"/>
		<path fill="#5980B7" d="M91,126.1v11.5c0,3,2.2,5.4,5.2,5.4h7.5c3,0,5.5-2.5,5.5-5.5s-2.5-5.5-5.5-5.5H102v-5.9
			c0-3-2.5-5.5-5.5-5.5S91,123,91,126.1z"/>
		<path fill="#5980B7" d="M267.2,239.8c-1-1.7-2.8-2.8-4.8-2.8H253v-27.1c0-3-3-5.9-6-5.9h-10.4c1-1,2-3.6,2.8-5.7
			c0-0.1,0.1-0.3,0.1-0.3h16.2c3,0,5.3-2.1,5.3-5.1V72.3c0-3-2.3-5.3-5.3-5.3h-30.3l-0.3-0.2l-33.8-27.6c-2.1-6-7.8-10.2-14.5-10.3
			c0,0,0,0-0.1,0c0,0,0,0,0,0c-6.6,0-12.2,4.1-14.4,9.9L129,65.3l-26.6-27.7c-0.9-0.9-2-1.4-3.2-1.6c-0.2,0-0.4-0.1-0.5-0.1
			c-0.1,0-0.1,0-0.2,0c0,0,0,0-0.1,0c-1.5,0-2.9,0.6-3.9,1.6l-0.1,0.1c0,0-0.1,0-0.1,0.1L93,39l-5.1,5.1L33.7,98.7
			c-2.1,2.2-2.1,5.6,0,7.8c2.2,2.1,5.6,2.1,7.8,0l5.5-5.1l12.8,73c0.5,2.6,2.7,4.7,5.4,4.7H91v46.1C81,228,74.2,237,74.2,247.6
			c0,13,10.5,23.5,23.4,23.5s23.6-10.5,23.6-23.5c0-11.5-8.2-21.1-19.2-23.1v-26.1V198h53.8c0.2-1,0.2-1.1,0,0.3
			c-0.1,0.4-0.2,0.9-0.2,1.3c-0.6,5.1,0.6,10.4,3.4,15.4h-7.2c-3,0-4.8,2.8-4.8,5.8V237h-10.6c-2,0-3.8,1.1-4.8,2.9
			s-0.9,3.9,0.1,5.6l10,16.1c1,1.6,2.8,2.4,4.7,2.4h106c1.9,0,3.7-0.8,4.7-2.4l10-16.2C268.1,243.7,268.2,241.6,267.2,239.8z
			 M242,215v22h-31v-22H242z M187.4,215h-6.7c1.8-3,3.2-7.6,3.2-12.4c0-1.5-0.1-2.9-0.4-4.3c-0.3-1.6-0.3-1.3,0-0.3h30.6
			c0,0,0.1,0.2,0.1,0.3c0.8,1.9,1.8,3.7,3,5.7h-12.4c-3,0-4.8,2.8-4.8,5.9V237h-7v-16.2C193,217.8,190.5,215,187.4,215z M161.4,99.1
			l-1.8-1.9l-0.2-0.2H232v38c0-0.1-0.3-0.2-0.4-0.3c-2.6-2.1-6-3.4-9.8-2.9c-6.3,0.7-10.9,4-15.2,7.1c-4.1,2.9-7.9,5.7-13.3,6.4
			c-13.8,1.9-20.9-7.3-29.5-20.5c-4.3-6.7-8.1-12.5-13.5-15.1c-0.9-0.5-1.9-0.7-2.9-0.9l1-7.1l5.2,4.9c1.1,1.1,2.5,1.7,4,1.7
			c1.4,0,2.7-0.5,3.8-1.5C163.5,104.8,163.5,101.3,161.4,99.1z M145.6,120.3L145.6,120.3c0.2-0.1,0.3-0.2,0.5-0.3
			c2.5,1.8,5.5,6.4,8.4,10.8c7.2,11,16.7,25.8,35.1,25.8c1.6,0,3.3-0.1,5.1-0.4c8.1-1.1,13.7-5.2,18.2-8.4c3.7-2.6,6.5-4.7,10-5.1
			c0.1,0,0.1,0,0.2,0c2.8,0,6.7,7.9,8.3,14.9c0,0.2,0.2,0.3,0.2,0.5c0.1,0.3,0.4,0.7,0.4,1v8.9h-93.3L145.6,120.3z M230,189.6
			c0,3.5-1.4,6.8-3,9.2c-2.6-3.8-3.8-7.4-3.4-10.8c0.3-2.9,1.7-5.3,3.2-7.1C228.8,183.8,229.9,186.7,230,189.6z M176.7,39.9
			c2.5,0,4.5,2,4.5,4.5s-2,4.5-4.5,4.5s-4.5-2-4.5-4.5S174.3,39.9,176.7,39.9z M144.7,66.8L163.4,52c2.7,4.6,7.7,7.8,13.4,7.8
			c5.6,0,10.5-3,13.2-7.5l17.8,14.5L208,67h-63.6L144.7,66.8z M250,78v109h-9.2c0.1,1,0.1,1.6,0.1,2.4c0,0.1,0,0.1,0,0.2
			c0-0.7,0-1.5-0.1-2.2c-0.3-3-1-6-2.5-8.8c2.3-0.7,4.7-3,4.7-5.5v-16c0,0,0,0,0,0c0-0.1,0-0.2,0-0.3c0-0.9,0-1.8,0-1.7V91.7
			c0-3-3.2-5.7-6.2-5.7h-87.9l-7.7-8H250z M110,247.6c0,6.9-5.6,12.5-12.5,12.5S85,254.5,85,247.6s5.6-12.5,12.5-12.5
			S110,240.7,110,247.6z M69.9,168L56.6,92.2l39.2-40.3l-9.2,9.3l9.2-9.4l2.4-2.5l0.1-0.1l0.3,0.3l-0.3-0.3l-0.1,0.1l40.4,42.9
			L127.8,168H69.9z M102,187v-8h-0.1h29.4h1.2h82.3c-1.1,2-2,4.8-2.3,7.6c0,0.2-1.4,0.4-1.4,0.4h-33c-1.3-1-2.9-3.3-4.7-4.9
			c-1.9-1.7-4.6-1.9-6.7-0.5c-0.2,0.1-3,2.4-5.8,5.4H102z M173,202.6c0,3.5-1.4,6.8-3,9.2c-2.6-3.8-3.8-7.4-3.4-10.8
			c0.3-2.9,1.7-5.3,3.2-7.1C171.8,196.8,172.9,199.7,173,202.6z M158,226h24v11h-24V226z M249.3,253h-99.8l-3.2-5h5.6h35.6h17.4H247
			h5.6L249.3,253z"/>
	</g>
</g>
</svg>
