<?xml version="1.0" encoding="utf-8"?>
<!-- Generator: Adobe Illustrator 18.1.1, SVG Export Plug-In . SVG Version: 6.00 Build 0)  -->
<svg version="1.1" id="Layer_1" xmlns="http://www.w3.org/2000/svg" xmlns:xlink="http://www.w3.org/1999/xlink" x="0px" y="0px"
	 viewBox="0 0 300 300" enable-background="new 0 0 300 300" xml:space="preserve">
<g>
	<path fill="#FFFFFF" d="M150.6,203.3l14.6-1.9c-0.4-0.9-0.8-1.8-1.3-2.7L149,201L150.6,203.3z"/>
	<path fill="#FFFFFF" d="M108.8,71L78,102.8v83.9l28.6,29.3h46.1l-1.7-1.9l-2.2,0.4c-0.2,0-0.5,0.1-0.7,0.1c-1.8,0-3.5-0.8-4.5-2.3
		l-6.7-9.6c-1.8,0-3.4-0.9-4.4-2.4l-6.8-10.2l-2.6,0.5c-2.5,0.5-5-0.8-6-3.1l-6.5-14.2c-0.7-1.4-0.7-3.1,0-4.5s1.9-2.5,3.4-3
		l30.7-9.5l-4.8-11.9c-0.4-1-0.5-2.2-0.3-3.2l2.1-10c-4.6-0.7-9.4-1.1-13.7-1.4c-10.6-0.8-19.8-1.4-24.2-7.7
		c-2.3-3.3-2.8-7.6-1.4-12.7c2.3-8,8.8-14.7,18.5-18.8c17.1-7.3,39.4-5.2,59.7,5.6c2.7,1.4,3.7,4.8,2.3,7.4
		c-1.4,2.7-4.8,3.7-7.4,2.3c-20.5-10.9-39.4-9.8-50.2-5.2c-6.4,2.8-10.9,7-12.2,11.7c-0.5,1.9-0.5,3-0.2,3.4c1.4,2,9.8,2.6,16,3
		c5.9,0.4,12.4,0.9,18.9,2.3c1.3-0.1,2.6,0.2,3.7,0.9l13.4,8.9c0.9,0.6,1.6,1.4,2,2.4l6.6,15.1c0.3,0.1,0.5,0.2,0.8,0.3l40.9,20
		c1.4,0.7,2.4,1.9,2.8,3.3l2.2,7.1v-78.5L191.3,71H108.8z"/>
	<path fill="#FFFFFF" d="M166.2,215.7l5.2-0.9c-0.4-0.9-0.8-1.9-1.3-3l-6.3,0.8L166.2,215.7z"/>
	<path fill="#FFFFFF" d="M139.3,190.8c0.5,0,1,0.1,1.5,0.3l18.2-2.7c-0.7-1.5-1.4-2.9-2-4.2l-19.6,3.7L139.3,190.8z"/>
	<polygon fill="#FFFFFF" points="197,214.2 200.5,213.8 197.6,211.3 	"/>
	<path fill="#CCCCCC" d="M146.1,121.6c0.5-0.2,1-0.3,1.4-0.4c-6.5-1.4-13-1.9-18.9-2.3c-6.2-0.4-14.6-1-16-3
		c-0.2-0.3-0.3-1.4,0.2-3.4c1.3-4.7,5.8-8.9,12.2-11.7c10.9-4.6,29.8-5.7,50.2,5.2c2.7,1.4,6,0.4,7.4-2.3c1.4-2.7,0.4-6-2.3-7.4
		c-20.3-10.8-42.6-12.9-59.7-5.6c-9.7,4.1-16.2,10.8-18.5,18.8c-1.4,5.1-1,9.3,1.4,12.7c4.4,6.2,13.6,6.9,24.2,7.7
		c4.3,0.3,9.1,0.7,13.7,1.4l1.2-5.8C143.2,123.7,144.4,122.2,146.1,121.6z"/>
	<path fill="#FFFFFF" d="M125.2,179l1.9-0.4c0,0,0,0,0,0l24.7-4.7l-3-7.4l-25.6,7.9L125.2,179z"/>
	<path fill="#CCCCCC" d="M157.1,139.3l-5.3-3.6l-1.3,6.2l9.3,22.7l6-3.5c0.3-0.1,0.5-0.3,0.8-0.4L157.1,139.3z"/>
	<path fill="#FFFFFF" d="M195.8,243h32.8l-2.2-7L208,177.6L180,164l5.1,11.6c0.4,0.8,0.7,1.7,0.7,2.6c0,0.1,0,0.2,0,0.3
		c5.6,6.3,12,12.5,17.3,15.5c2.7,1.5,3.6,4.8,2.2,7.5c-1.2,2.2-3.7,3.2-6,2.7c-0.5-0.1-1-0.3-1.5-0.6c-11.5-6.4-24.7-22.7-30.6-30.4
		l-2.6,1.5c4.3,8.7,13.4,27.4,17.3,36.7c3.7,8.9,10.5,14.5,12.3,15.9c0.3,0.2,0.5,0.3,0.5,0.3c1.7,1.2,2.6,3,2.4,5L195.8,243z"/>
	<polygon fill="#CCCCCC" points="65.7,92.4 69.3,96 99.9,64.2 96.3,60.6 	"/>
	<polygon fill="#CCCCCC" points="230.7,96 234.3,92.4 203.8,60.6 200.1,64.2 	"/>
	<polygon fill="#CCCCCC" points="96.4,229.2 100.1,225.5 69.5,193.7 65.8,197.3 	"/>
	<path fill="#5980B7" d="M234.5,107.7l11.4-11.4c2.1-2.1,2.2-5.5,0.1-7.7L231,73l0-0.1v-7.6c0-3-2.5-5.3-5.5-5.3h-6.7l-0.4-0.3
		l-10.5-10.9c-1-1.1-2.4-1.6-3.9-1.7c-1.5,0-2.9,0.6-3.9,1.6l-11,11l-0.4,0.3c0,0,0-0.1,0-0.1h-77c0,0,0,0.1,0,0.1l-0.4-0.3l-11-11
		c-1-1-2.5-1.6-3.9-1.6c-1.5,0-2.9,0.6-3.9,1.7L81.7,59.7L81.3,60h-8.8c-3,0-5.5,2.3-5.5,5.3v9.8l2.7-2.8L67,75.1L54,88.6
		c-2.1,2.2-2.1,5.6,0.1,7.7l11.4,11.4c0.4,0.4,1,0.7,1.5,1c0.7,0.4,1.6,0.5,2.4,0.5c-0.8,0-1.4-0.1-2.4-0.5V181
		c1-0.4,1.7-0.6,2.6-0.6c0,0,0,0,0,0c-0.9,0-1.8,0.2-2.6,0.6c-0.5,0.3-0.9,0.6-1.3,1l-11.4,11.4c-2.1,2.1-2.2,5.5-0.1,7.7L67,214.4
		l3.5,3.5l-3.4-3.5v7.6c0,3,2.4,5,5.5,5h6.9l0.3,0.4l12.8,13.1c1,1.1,2.4,1.5,3.9,1.5c0,0,0,0,0.1,0c1.5,0,2.9-0.3,3.9-1.4
		l11.4-11.3c0.6-0.6,1-1.3,1.3-2c0-0.1,0-0.3,0.1-0.3h65.7c0.1,0,0.1,0.3,0.2,0.4c2.5,3.1,5,5.5,6.8,7l-1.4,12.2
		c-0.3,3,1.8,5.8,4.8,6.1c0.2,0,0.4,0,0.6,0c2.8,0,5.1-2.1,5.5-4.9l0.5-4.7l1.2-10.6c0.2-2-0.7-4-2.4-5.2c0,0-0.2-0.1-0.5-0.3
		c-1.8-1.4-8.6-7-12.3-15.9c-3.9-9.3-13-28-17.3-36.7l2.6-1.5c5.8,7.7,19.1,24,30.6,30.4c0.5,0.3,1,0.4,1.5,0.6
		c2.3,0.5,4.8-0.5,6-2.7c1.5-2.7,0.5-6-2.2-7.5c-5.3-3-11.7-9.2-17.3-15.5c0-0.1,0-0.2,0-0.3c0-0.9-0.2-1.8-0.7-2.6L180,164l28,13.7
		l18.4,58.4l2.2,7.1l0.4,1.4c0.7,2.4,2.9,3.9,5.2,3.9c0.5,0,1.1-0.1,1.6-0.3c2.9-0.9,4.5-4,3.6-6.9l-8.4-27.1l0-0.3V109.3
		c0,0-0.2-0.1-0.3-0.1c0.1,0,0.2,0,0.3,0C232.3,109.2,233.6,108.7,234.5,107.7z M69.3,96l-3.6-3.6l30.6-31.8l3.6,3.6L69.3,96z
		 M96.4,229.2l-30.6-31.8l3.6-3.6l30.6,31.8L96.4,229.2z M171.4,214.9l-5.2,0.9l-2.5-3.1l6.3-0.8C170.5,212.9,171,213.9,171.4,214.9
		z M165.2,201.4l-14.6,1.9L149,201l14.9-2.2C164.4,199.6,164.8,200.5,165.2,201.4z M125.2,179l-2.1-4.6l25.6-7.9l3,7.4l-24.7,4.7
		c0,0,0,0,0,0L125.2,179z M137.3,187.9l19.6-3.7c0.6,1.3,1.3,2.7,2,4.2l-18.2,2.7c-0.5-0.2-1-0.3-1.5-0.3L137.3,187.9z M165.8,161.1
		l-6,3.5l-9.3-22.7l1.3-6.2l5.3,3.6l9.4,21.5C166.3,160.8,166,161,165.8,161.1z M226.7,107.6l-6.7-7v78.3l-2.2-6.8
		c-0.5-1.4-1.5-2.6-2.9-3.3l-41-20c-0.3-0.1-0.5-0.2-0.8-0.3l-6.6-15.1c-0.4-1-1.1-1.8-2-2.4l-13.4-8.9c-1.1-0.7-2.4-1-3.7-0.9
		c-0.5,0.1-1,0.2-1.4,0.4c-1.7,0.7-2.9,2.2-3.3,3.9l-1.2,5.8l-2.1,10c-0.2,1.1-0.1,2.2,0.3,3.2l4.8,11.9l-30.7,9.5
		c-1.5,0.5-2.8,1.6-3.4,3s-0.6,3.1,0,4.5l6.5,14.2c1.1,2.3,3.5,3.6,6,3.1l2.6-0.5l6.8,10.2c1,1.5,2.7,2.4,4.4,2.4l6.7,9.6
		c1,1.5,2.7,2.4,4.5,2.4c0.2,0,0.5,0,0.7,0l2.2-0.4l1.5,1.7h-45.8l5.1,5.4c1,1,1.5,2.4,1.5,3.8c-0.1-1.2-0.6-2.4-1.5-3.4l-5.1-5.3
		L78,186.7l0-0.1v-83.7l0-0.1l30.7-32l2.8-2.9c1-1,1.5-2.4,1.5-3.7c0,1.4-0.5,2.7-1.5,3.8l-2.8,3h82.5l-2.8-3
		c-1.1-1.1-1.6-2.5-1.5-3.9c0,1.3,0.5,2.7,1.5,3.7l2.8,2.9l28.7,29.9L226.7,107.6c1,1.1,2.4,1.6,3.9,1.6
		C229.2,109.3,227.7,108.7,226.7,107.6z M200.1,64.2l3.6-3.6l30.6,31.8l-3.6,3.6L200.1,64.2z"/>
</g>
</svg>
