<?xml version="1.0" encoding="utf-8"?>
<!-- Generator: Adobe Illustrator 18.1.1, SVG Export Plug-In . SVG Version: 6.00 Build 0)  -->
<svg version="1.1" id="Layer_1" xmlns="http://www.w3.org/2000/svg" xmlns:xlink="http://www.w3.org/1999/xlink" x="0px" y="0px"
	 viewBox="0 0 300 300" enable-background="new 0 0 300 300" xml:space="preserve">
<g>
	<path fill="none" d="M173,158c-1.7,0-3.3-0.6-4.4-2c-1-1.4-1.4-3.1-0.9-4.7l10.5-37.6c-6.7,4.7-15.1,7.8-23.1,8.7v45.9
		c0,0,0.1,0,0.2,0c13.1,0,21.6,8.1,22.9,21.8c1.1,11.6-3.4,24-12.4,33.9c-12,13.2-30,20.4-51,20.4c-0.6,0-1.7,0-1.7,0v14.2l28.9-8.9
		c1.8-0.6,3.7,0.5,4.3,2.3c0.6,1.8-0.5,3.8-2.4,4.4l-21.2,6.5l13.2,4l72.2-72.1V158H173z"/>
	<path fill="#FFFFFF" d="M139,91.2c2.3,0,4,0.4,7,1v-7c0-0.1-0.4-0.1-0.4-0.2L134.1,74c-1.8-1.7-1.9-4.6-0.1-6.4
		c1.7-1.8,4.7-1.8,6.5-0.1l5.5,5.2V60.5c0-2.5,2-4.5,4.5-4.5s4.5,2,4.5,4.5v30.6l8.4-6.7c2-1.5,4.7-1.2,6.2,0.8
		c1.5,2,1.2,4.8-0.8,6.3l-13.5,10.6c0.7,2.7,0.7,5.8,0.1,9.1c13-1.9,23.8-10.3,29.2-21.8l0,0l1.3-4.7c0.2-0.8,0.6-1.5,1.1-2.1
		c0.7-3,1.1-6,1.1-9.2c0-21.2-17.2-38.4-38.4-38.4c-21.2,0-38.4,17.2-38.4,38.4c0,8.8,3,17,8,23.4c0.9-0.4,1.9-0.7,2.7-1
		C128.4,93.2,133.4,91.2,139,91.2z"/>
	<polygon fill="#CCCCCC" points="246.7,147 232.1,91 195.4,91 180.2,147 	"/>
	<path fill="#FFFFFF" d="M149.3,223.6c-0.2,0.1-0.4,0.1-0.6,0.2c-4.5,1.8-9.1,2.8-13.7,3.1c-0.8,0-1.5,0.1-2.2,0.1
		c-8.8,0-16.7-3-22.6-8.5c-8.8-8.3-8.8-18.3-8.8-26.4c0-9-0.5-12.3-6.1-14.5c-5.5-2.2-7.1-0.3-10.3,3.4c-3,3.6-9.3,11-20,2.2
		c-11.1-9.1-8.1-28.3-5.2-46.8c1.5-9.3,2.8-18.2,2.4-24.8c-0.4-6.2-2.3-8.5-3.1-8.5c0,0,0,0,0,0c-0.4,0-0.9,0.4-1.4,0.8
		c-0.4,0.5-0.9,1.3-1.5,2.3c-6.2,11.1-7.4,29.7-4,63.9c2.7,27.1,14.6,60.1,56.4,63C124.5,234.1,138.6,230.8,149.3,223.6z"/>
	<path fill="#FFFFFF" d="M69.7,137.9c-2.4,15-5,32,1.7,37.5c2.2,1.8,3.2,1.9,3.2,1.9c0.6-0.2,2-1.8,2.8-2.8
		c3.3-3.9,9.4-11.1,21.6-6.3c12.3,4.9,12.3,15.2,12.3,23.6c0,2.6,0,5.2,0.3,7.2h53c0.1,0,0.2,0.3,0.3,0.3c0.1-0.1,0.2-0.1,0.3-0.2
		c0.5-0.6,1-0.9,1.6-1.2c0.4-2.3,0.5-4.6,0.2-6.8c-0.8-8.1-4.6-11.8-12-11.8c-3.9,0-7.3,1.1-8.5,1.6c-3,1.1-5.5,1.7-7.9,1.7
		c-3.9,0-7.2-1.6-9.3-4.6c-4-5.7-3.2-15.7,2.7-32.4c1.5-4.4,3.3-8.8,5-13c4.2-10.7,9.5-24.1,7.4-28.5c-0.2-0.4-0.4-0.7-1.4-1.1
		c-1.5-0.5-2.8-0.7-4.2-0.7c-3.5,0-7.3,1.5-12.6,3.6c-6.7,2.7-16,6.3-29.7,8.8c-1.3,0.2-2.7,0.4-4.1,0.4c-7.7,0-14.5-3.6-20.5-7.1
		c0.1,1,0.3,2,0.3,3.1C72.8,118.8,71.3,128.1,69.7,137.9z"/>
	<path fill="#CCCCCC" d="M135.4,217.9c0.5,0,0.9-0.1,1.4-0.1c16.1,0,21.5-6.8,23.4-11.8h-47.4C114.4,211,119.4,217.5,135.4,217.9z"
		/>
	<path fill="#FFFFFF" d="M244.5,190c0-3,2.5-5.5,5.5-5.5v-16.4L152.4,265H250v-9.5c-3,0-5.5-2.5-5.5-5.5s2.5-5.5,5.5-5.5v-9
		c-3,0-5.5-2.5-5.5-5.5s2.5-5.5,5.5-5.5v-10c-3,0-5.5-2.5-5.5-5.5s2.5-5.5,5.5-5.5v-8C247,195.5,244.5,193,244.5,190z M237,250
		c0,3-2.8,5-5.8,5h-38.9c-2.2,0-4.2-1.1-5.1-3.1c-0.9-2-0.4-4.3,1.1-5.8l38.9-40.2c1.6-1.6,4.1-2.1,6.2-1.2c2.1,0.8,3.6,2.9,3.6,5.1
		V250z"/>
	<g>
		<path fill="#5980B7" d="M259.2,150.9C259.2,150.9,259.1,150.9,259.2,150.9l-17.5-66.5c-0.6-2.4-2.9-4.4-5.4-4.4h-37.7
			c0.4-2,0.5-4.6,0.5-7.1c0-27.2-22.1-49.2-49.4-49.2c-27.2,0-49.4,22.2-49.4,49.4c0,10.1,3,19.5,8.2,27.3c4.1-1.3,7.7-2.5,10.8-3.8
			c-5-6.5-8-14.6-8-23.4c0-21.2,17.2-38.4,38.4-38.4c21.2,0,38.4,17.2,38.4,38.4c0,3.2-0.4,6.3-1.1,9.2c-0.5,0.6-0.9,1.3-1.1,2.1
			l-1.3,4.7l0,0c-5.3,11.5-16.2,19.9-29.2,21.8c0.5-3.3,0.5-6.4-0.2-9.1l13.5-10.6c2-1.5,2.3-4.4,0.8-6.3c-1.5-2-4.2-2.3-6.1-0.8
			l-8.4,6.7V60.5c0-2.5-2-4.5-4.5-4.5s-4.5,2-4.5,4.5v12.3l-5.5-5.2c-1.8-1.7-4.7-1.7-6.4,0.1c-1.7,1.8-1.7,4.6,0,6.4l11.5,11.1
			c0.1,0.1,0.4,0.1,0.4,0.2v7c-3-0.7-4.7-1-7-1c-5.6,0-10.6,1.9-16.8,4.4c-0.8,0.3-1.8,0.7-2.7,1c-3.1,1.2-6.7,2.5-10.8,3.8
			c-4.1,1.2-8.7,2.4-14.2,3.4c-0.7,0.1-1.4,0.2-2.2,0.2c-5.3,0-10.8-3.2-16.1-6.2c-5.5-3.2-10.6-6.1-16.1-6.1
			c-5.6,0-10.2,3.1-13.6,9.2c-7.5,13.4-8.8,33.2-5.2,70.3c4.3,43.5,26.6,69.2,64.6,72.7v13.6l-26.2-8c-1.8-0.6-3.9,0.5-4.5,2.3
			c-0.6,1.8,0.4,3.8,2.3,4.4l21.1,6.5l-21.2,6.5c-1.8,0.6-2.9,2.5-2.3,4.4c0.5,1.5,1.8,2.5,3.3,2.5c0.3,0,0.7,0,1-0.2l31.1-9.5
			l23.6,7c0.9,1.8,2.8,2.7,4.9,2.7h116.1c3,0,5.8-2,5.8-5V154.8C261,153.3,260.2,151.9,259.2,150.9z M219,158h24.7L219,183.6V158z
			 M195.4,91h36.6l14.7,56h-66.5L195.4,91z M146,169.6c-2,0.3-2.5,0.7-3.2,1c-2.2,0.8-3.5,1-4.1,1c-0.2,0-0.3,0-0.4,0
			c-0.4-0.8-1.7-5.4,4.3-22.2c1-2.9,2.4-5.8,3.4-8.7V169.6z M92.3,115c1.4,0,2.8-0.1,4.1-0.4c13.7-2.5,23-6.1,29.7-8.8
			c5.3-2.1,9.2-3.6,12.6-3.6c1.4,0,2.8,0.2,4.2,0.7c1,0.3,1.2,0.7,1.4,1.1c2,4.4-3.2,17.8-7.4,28.5c-1.7,4.2-3.4,8.6-5,13
			c-5.9,16.7-6.7,26.6-2.7,32.4c2.1,2.9,5.4,4.6,9.3,4.6c2.4,0,4.9-0.6,7.9-1.7c1.3-0.5,4.6-1.6,8.5-1.6c7.4,0,11.2,3.8,12,11.8
			c0.2,2.3,0.1,4.6-0.2,6.9c-0.6,0.3-1.2,0.7-1.6,1.3c-0.1,0.1-0.2,0-0.3,0.1c-0.1,0-0.2-0.3-0.3-0.3h-53c-0.3-2-0.3-4.7-0.3-7.2
			c0-8.4,0-18.8-12.3-23.7c-12.2-4.9-18.3,2.4-21.6,6.3c-0.8,1-2.3,2.7-2.8,2.9c0,0-1,0-3.2-1.9c-6.7-5.5-4-22.5-1.7-37.5
			c1.5-9.8,3-19.1,2.5-26.9c-0.1-1.1-0.2-2.1-0.3-3.1C77.9,111.4,84.6,115,92.3,115z M135.4,217.9c-16.1-0.4-21-6.9-22.6-11.9h47.4
			c-1.8,5-7.3,11.8-23.4,11.8C136.4,217.8,135.9,217.9,135.4,217.9z M52.2,170.1c-3.4-34.2-2.2-52.7,4-63.9c0.5-1,1-1.9,1.5-2.4
			c0.5-0.3,1-0.8,1.4-0.8c0,0,0,0,0,0c0.8,0,2.7,2.3,3.1,8.5c0.5,6.7-0.9,15.5-2.4,24.7c-2.9,18.5-5.9,37.7,5.2,46.8
			c10.7,8.8,17,1.4,20-2.2c3.2-3.8,4.8-5.6,10.3-3.4c5.5,2.2,6,5.6,6.1,14.5c0,8,0,18,8.8,26.4c5.8,5.5,13.8,8.5,22.6,8.5
			c0.7,0,1.5,0,2.2-0.1c4.6-0.3,9.2-1.3,13.7-3.1c0.2-0.1,0.4-0.1,0.6-0.2c-10.7,7.2-24.8,10.6-40.7,9.5
			C66.8,230.2,54.9,197.2,52.2,170.1z M135.8,266.6l-13.1-4l21.1-6.5c1.8-0.6,2.9-2.5,2.3-4.4c-0.6-1.8-2.4-2.9-4.2-2.3l-29,8.9
			v-14.2c0,0,1.1,0,1.7,0c21.1,0,39.1-7.2,51.1-20.4c9-9.9,13.4-22.2,12.3-33.9c-1.3-13.6-9.8-21.8-22.8-21.8c-0.1,0-0.2,0-0.2,0
			v-45.9c8-0.8,16.4-3.9,23.1-8.6l-10.4,37.7c-0.5,1.7-0.1,3.2,0.9,4.6c1,1.4,2.6,2,4.3,2h35v36.6L135.8,266.6z M250,265h-97.6
			l97.6-96.9v16.4c-3,0-5.5,2.5-5.5,5.5s2.5,5.5,5.5,5.5v8c-3,0-5.5,2.5-5.5,5.5s2.5,5.5,5.5,5.5v10c-3,0-5.5,2.5-5.5,5.5
			s2.5,5.5,5.5,5.5v9c-3,0-5.5,2.5-5.5,5.5s2.5,5.5,5.5,5.5V265z"/>
		<path fill="#5980B7" d="M233.4,204.7c-2.1-0.8-4.5-0.3-6.1,1.3l-39,40.2c-1.5,1.6-2,3.7-1.1,5.7c0.9,2,2.8,3.1,5,3.1h38.9
			c3,0,5.8-2,5.8-5v-40.2C237,207.5,235.5,205.5,233.4,204.7z M226,244h-20.8l20.8-20.6V244z"/>
	</g>
</g>
</svg>
