<?xml version="1.0" encoding="utf-8"?>
<!-- Generator: Adobe Illustrator 18.1.1, SVG Export Plug-In . SVG Version: 6.00 Build 0)  -->
<svg version="1.1" id="Layer_1" xmlns="http://www.w3.org/2000/svg" xmlns:xlink="http://www.w3.org/1999/xlink" x="0px" y="0px"
	 viewBox="0 0 300 300" enable-background="new 0 0 300 300" xml:space="preserve">
<g>
	<path fill="none" d="M124.5,199.4c0.9,1.4,1.6,2.8,2,4.3l4,1.3c0.9-2.8,3.8-4.4,6.7-3.6c5.2,1.4,14,6.3,14,15.8c0,0.3,0,0.9,0,0.9
		h8.2c1.3,0,2.6,0,3.5,1h1.1v-27.5c0-8.7-9.7-15.7-21.5-15.7c-20.4,0-21.5,16.2-21.5,19.6C122.3,196.6,123.5,197.9,124.5,199.4z"/>
	<path fill="none" d="M115.4,205.5c-1.7-2.5-5.4-4.1-10.4-4.3v9.9v6.9h8.8c0.2-1,0.6-2.4,1.2-3.6C116,212.3,117.4,208.5,115.4,205.5
		z"/>
	<path fill="none" d="M94,201.1c-5,0.2-9.2,1.7-10.9,4.3c-2,3-0.7,6.9,0.3,8.9c0.6,1.2,1,2.6,1.2,3.6H94v-6.9V201.1z"/>
	<path fill="#CCCCCC" d="M204.8,88.2c0-0.2-0.1-0.5-0.3-0.8c-0.1-0.1-0.2-0.1-0.2-0.2c0,0.3-0.1,0.7-0.2,1c-0.2,0.4-0.4,0.9-0.6,1.2
		c0.2-0.1,0.4-0.2,0.5-0.3C204.4,88.9,204.8,88.5,204.8,88.2z"/>
	<path fill="#CCCCCC" d="M198.3,91.7c-0.3,0-0.7-0.1-1-0.2c-1.1-0.4-2.1-0.8-3.1-1.2c-2.8,2-6.6,4.7-10.9,7.8
		C189.3,95.6,194.5,93.3,198.3,91.7z"/>
	<path fill="#FFFFFF" d="M64.1,212c-0.2,0-5.9,1.9-5.9,5.2c0,0.9,0,3.4,3.7,4.9c4.1,1.6,9.9,0.7,11.6-1.2c0.2-0.3,0.5-0.5-0.1-1.7
		c-2.6-5.3-3.1-10.8-1.7-15.5l-4,1.3c0,0.1,0.1,0.2,0.1,0.2C68.7,208.2,67,211.2,64.1,212z"/>
	<path fill="#FFFFFF" d="M134.2,212c-2.9-0.8-4.6-3.9-3.8-6.8c0-0.1,0-0.1,0.1-0.2l-4-1.3c1.4,4.4,1,9.3-1.2,14.3h14.7
		c0,0,0.1-0.6,0.1-0.9C140.2,213.8,134.3,212,134.2,212z"/>
	<path fill="#FFFFFF" d="M132.5,87.1c-3.7-3.2-10.3-8-19.8-11.1c-2.3-0.7-3.7-2.8-3.7-5.2V63H89v6.4c0,2.5-1.7,4.6-4,5.3
		c-10.3,2.9-16.4,8.4-19.4,11.8c12.6,14.5,24.8,29.6,11.6,49.9c-5.5,8.4-4.8,17.9-3.2,24.8c0.9-13.6,14.9-24.1,32.5-24.1h15.6
		c-0.1,0-0.3-0.4-0.4-0.7C108.6,116.3,120.2,101.4,132.5,87.1z"/>
	<path fill="#FFFFFF" d="M205,148h-98.5c-11.9,0-21.5,6.6-21.5,14.6V189h25.5c2.5-13,12.6-24.2,31.9-24.2c17.9,0,32.5,12,32.5,26.8
		V218h51v-22.1v-31.2v-2.1C226,154.5,216.7,148,205,148z M94,165.1c0-3,2.5-5.5,5.5-5.5s5.5,2.5,5.5,5.5v10c0,3-2.5,5.5-5.5,5.5
		s-5.5-2.5-5.5-5.5V165.1z M201.1,206.7c-11.3,0-20.6-8.9-20.6-19.9c0-11,9.2-19.9,20.6-19.9s20.6,8.9,20.6,19.9
		C221.6,197.8,212.4,206.7,201.1,206.7z"/>
	<path fill="#FFFFFF" d="M201.1,178c-5.3,0-9.6,4-9.6,8.9c0,4.9,4.3,8.9,9.6,8.9s9.6-4,9.6-8.9C210.6,182,206.3,178,201.1,178z"/>
	<path fill="#CCCCCC" d="M238.4,237c0.6,0,1.6-0.3,1.6-1v-4.5c0-0.6-1-1.5-1.6-1.5h-74.8l-1.4,7H238.4z"/>
	<path fill="#CCCCCC" d="M79,231.5v4.5c0,0.6,0.8,1,1.4,1h18.2L84,230h-3.5C79.8,230,79,230.9,79,231.5z"/>
	<rect x="237" y="170" fill="#FFFFFF" width="5" height="20"/>
	<rect x="177" y="134" fill="#CCCCCC" width="15" height="3"/>
	<polygon fill="#FFFFFF" points="148.6,248.2 152.6,229 107.2,229 	"/>
	<g>
		<path fill="#5980B7" d="M160.4,55.5c0.1-0.1,0.3-0.3,0.8-0.6c3.4-2.5,17.1-11.6,27.9-0.6c2.4,2.4,2.4,3.6-2.4,10.1
			c-1.7,2.3-3.7,4.9-4.7,7.8c-0.9,2.3-1.2,4.8-0.3,7.4c0.5,1.7,1.4,3.2,2.7,4.6c-14,10-38.1,27.6-44.2,32c-2.2,1.6-2.8,4.6-1.5,6.9
			c1,1.7,2.8,2.7,4.7,2.7c0.7,0,1.4-0.1,2-0.4c10-4.1,60-24.8,63.9-27c0.2-0.1,0.3-0.2,0.5-0.3c1.1,0.4,2.4,0.9,3.8,1.5
			c7.5,3.2,17.8,9,19.8,16.2c1,3.6-0.3,7.5-3.9,11.9c-0.4,0.4-0.7,0.9-1.2,1.3c-2,2.2-1.8,5.6,0.4,7.5c1,0.9,2.3,1.4,3.6,1.4
			c1.5,0,2.9-0.6,4-1.8c7-7.8,9.5-15.6,7.4-23.3c-3.6-13.1-19.8-20.9-28.1-24.1c0.2-2.9-0.7-5.9-2.7-8.3c-2.6-3.2-6.9-5.2-11.3-5.2
			c-2.6,0-5,0.6-7.2,1.8c-0.2,0.1-0.6,0.3-1,0.6c-1.3-0.9-1.5-1.5-1.5-1.5c-0.1-1,2.2-4,3.4-5.6c3.8-5.1,10.8-14.5,1.5-24
			c-15.3-15.6-34.9-6.5-43.2,0.5c-2.2,1.9-2.5,5.3-0.6,7.5S158.1,57.4,160.4,55.5z M183.3,98.1c4.3-3.1,8-5.8,10.9-7.8
			c1,0.4,2,0.8,3.1,1.2c0.3,0.1,0.7,0.2,1,0.2C194.5,93.3,189.3,95.6,183.3,98.1z"/>
		<path fill="#5980B7" d="M201.1,206.7c11.3,0,20.6-8.9,20.6-19.9c0-11-9.2-19.9-20.6-19.9s-20.6,8.9-20.6,19.9
			C180.5,197.8,189.7,206.7,201.1,206.7z M201.1,178c5.3,0,9.6,4,9.6,8.9c0,4.9-4.3,8.9-9.6,8.9s-9.6-4-9.6-8.9
			C191.5,182,195.8,178,201.1,178z"/>
		<path fill="#5980B7" d="M247.5,159h-10.9c-2-13-15.2-22-31.7-22h-2v-8.9c0-3-2.7-5.1-5.7-5.1h-25.6c-3,0-5.7,2-5.7,5.1v8.9h-31.6
			c-0.9-2-2-4.5-3.5-6.7c-8.8-13.5-2-22.4,11.9-38.3l1.5-1.7c1.8-2,1.8-5,0.1-7.1C144,82.8,136,73.1,120,66.9v-9.3
			c0-3-2.5-5.6-5.6-5.6H105v-4.9c0-3-2.5-5.5-5.5-5.5S94,44,94,47.1V52H83.4c-3,0-5.4,2.5-5.4,5.6v7.8c-17,6.2-23.9,18.2-24.2,18.7
			c-1.1,2-0.9,4.5,0.6,6.3l1.7,2c13.7,15.8,20.5,24.6,11.8,38c-13.5,20.8-0.8,44.4-0.2,45.4c0.4,0.7,1,1.4,1.7,1.9
			c0.7,0.5,2.5,1.3,4.5,2.2v14.7c0,1.2,0.4,2.3,1,3.3c-0.4,0.5-0.8,1-1.2,1.5c-0.9,1.4-1.6,2.8-2.1,4.3c-1.5,4.7-0.9,10.1,1.7,15.5
			c0.6,1.2,0.3,1.4,0.1,1.7c-1.8,1.9-7.5,2.8-11.6,1.2c-3.7-1.5-3.7-4-3.7-4.9c0-3.3,5.8-5.2,5.9-5.2c2.9-0.8,4.6-3.8,3.8-6.8
			c0-0.1-0.1-0.2-0.1-0.2c-0.9-2.8-3.8-4.4-6.7-3.6c-5.2,1.4-14,6.4-14,15.8c0,6.9,3.9,12.5,10.7,15.1c2.8,1.1,5.7,1.6,8.7,1.6
			c0.5,0,1.4,0,1.4-0.1v2.2c0,6.7,5.7,12,12.4,12H122l0.3,0.2l28,13c0.7,0.3,1.5,0.5,2.3,0.5c0.8,0,1.7-0.2,2.5-0.6
			c1.5-0.8,2.6-2.1,2.9-3.8l1.9-9.2l0-0.2h78.5c6.7,0,12.6-5.2,12.6-12v-4.5c0-6.7-5.9-12.5-12.6-12.5H237v-18h10.5
			c3,0,5.5-2,5.5-5.1v-31.2C253,161.7,250.6,159,247.5,159z M177,134h15v3h-15V134z M171.7,148h25.6h7.7c11.8,0,21,6.5,21,14.6v2.1
			v31.2V218h-51v-26.5c0-14.7-14.6-26.8-32.5-26.8c-19.3,0-29.5,11.2-31.9,24.2H85v-26.4c0-8,9.6-14.6,21.5-14.6H171.7z M78.7,219.5
			c-0.8,0.7-1.4,1.7-1.7,2.9c-0.1,0.3-0.1,0.6-0.1,0.9c0-0.3,0-0.7,0.1-1c0.2-1.1,0.7-2.1,1.5-2.8c0,0,0,0,0,0
			c1-0.9,2.4-1.4,3.8-1.4C81,218.1,79.7,218.6,78.7,219.5z M83.4,214.4c-1-2.1-2.3-5.9-0.3-9c1.7-2.6,5.9-4.1,10.9-4.3v10v6.9h-9.4
			C84.4,217,84,215.6,83.4,214.4z M105,211.1v-9.9c5,0.3,8.7,1.8,10.4,4.3c2,3,0.6,6.9-0.4,8.9c-0.6,1.2-1,2.6-1.2,3.6H105V211.1z
			 M74,161.1c-1.7-6.8-2.3-16.4,3.2-24.8c13.2-20.3,1-35.4-11.6-49.9c3-3.4,9.1-8.9,19.4-11.8c2.4-0.7,4-2.8,4-5.3V63h20v7.7
			c0,2.4,1.5,4.5,3.7,5.2c9.5,3.1,16.2,8,19.8,11.1c-12.4,14.3-23.9,29.2-10.9,49.3c0.2,0.2,0.3,0.7,0.4,0.7h-15.6
			C88.9,137,74.9,147.5,74,161.1z M79,236v-4.5c0-0.6,0.8-1.5,1.4-1.5h2.9l0.6,0.3l14.4,6.7H80.4C79.8,237,79,236.7,79,236z
			 M148.6,248.2L107.2,229h45.4L148.6,248.2z M238.4,230c0.6,0,1.6,0.9,1.6,1.5v4.5c0,0.6-1,1-1.6,1h-76.2l1.4-6.7l0.1-0.3H238.4z
			 M164.9,223.4c0-1.2-0.5-2.4-1.2-3.3c-0.1-0.1-0.2-0.2-0.3-0.3c0.1,0,0.2,0,0.3,0.1C164.5,221,164.9,222.2,164.9,223.4z
			 M162.9,219c0.1,0,0.1,0.4,0.2,0.5c-0.1-0.1-0.1-0.1-0.2-0.2c-1-0.8-2.2-1.3-3.5-1.3h-8.2c0,0,0-0.5,0-0.9c0-9.4-8.8-14.3-14-15.8
			c-2.8-0.8-5.8,0.8-6.7,3.6c0,0.1,0,0.1-0.1,0.2c-0.8,2.9,0.9,5.9,3.8,6.8c0.1,0,5.9,1.8,5.9,5.2c0,0.2,0,0.9-0.1,0.9h-14.7
			c2.1-5,2.5-9.9,1.2-14.3c-0.5-1.5-1.1-3-2-4.3c-1-1.5-2.5-2.8-3.5-4c0,0,0,0,0,0c0-3.4,1.1-19.6,21.5-19.6
			c11.9,0,21.5,7.1,21.5,15.7V219H162.9z M242,190h-5v-20h5V190z"/>
		<path fill="#5980B7" d="M99.5,159.6c-3,0-5.5,2.5-5.5,5.5v10c0,3,2.5,5.5,5.5,5.5s5.5-2.5,5.5-5.5v-10
			C105,162,102.5,159.6,99.5,159.6z"/>
	</g>
</g>
</svg>
