<?xml version="1.0" encoding="utf-8"?>
<!-- Generator: Adobe Illustrator 18.1.1, SVG Export Plug-In . SVG Version: 6.00 Build 0)  -->
<svg version="1.1" id="Layer_1" xmlns="http://www.w3.org/2000/svg" xmlns:xlink="http://www.w3.org/1999/xlink" x="0px" y="0px"
	 viewBox="0 0 300 300" enable-background="new 0 0 300 300" xml:space="preserve">
<g>
	<path fill="none" d="M113,172.4v15.7c11,0,19.9-0.1,27.3-0.2c-0.2-1.7,0-3.8,0-5.6c0-6.2,1.4-12.3,3.6-17.3h-29.8
		C114.1,167,113,169.7,113,172.4z"/>
	<path fill="#FFFFFF" d="M154.3,144.2c-0.9-0.6-3.2-2.1-8.7-2.1c-8.3,0.3-18-0.1-28.9-0.1h-6.2c-2.3,0-4.6-0.8-4.6-3.1v-1.4v-17.8
		v-13.3c0-2.3,2.7-5.3,4.9-5.3h6.8c32,0,40.4,0.3,42.4,0.1c1.4-0.5,3.8-1.3,3.5-7.5c-0.1-2.2-0.7-3.7-1.9-4.9
		c-1.1-1.1-3-1.6-5.6-1.6c-0.9,0-6.4-0.1-16.5,0c-10.1,0.1-21.2,0-33,0h-7.8c-3.4,0-6.1,1-8.1,2.5c-1.1,0.8-2.5,2.3-2.6,5.7
		c0,5,0,12.5-0.1,22.3C88,127.6,88,135,88,140c0,7.9-0.1,16.7-0.2,26c-0.1,9.3-0.3,16.8-0.4,22.2c-0.2,7.2-0.2,8.4-0.2,8.6
		c0,0.1,0,0.2,0,0.3c-0.1,1.4,0,3.4,0.2,5.7c0,0,0,0.1,0,0.1c0.3,3.7,1.3,5.7,2.9,6.6c1.3,0.7,4.8,1.5,14,1.5h49.1
		c-0.5,0-1-0.4-1.5-0.9c-4.3-4.1-7.4-8.7-9.3-14.2c-8.7,0.2-20.1,0.4-33.1,0.4c-2.3,0-4.6-1.7-4.6-4v-19.9c0-5.2,0.5-9,0.6-11.3
		c0.1-2.2,2.4-4.1,4.5-4.1H148c0.3,0,0.6,0.2,0.8,0.1c1-1.4,2.2-2.6,3.4-3.9c1.1-1.1,2.3-2.1,3.5-3.1c0-0.1,0-0.1,0-0.2
		C155.8,146.4,155.1,144.7,154.3,144.2z"/>
	<path fill="#CDCCCC" d="M183.5,207.1c-4.8,0-9.5-1.6-13.7-4.6c-4.6-3.3-7.2-8.8-7.6-16.2c-0.1-1.1,0.3-2.7,1.1-3.5
		c0.8-0.8,1.8-1.7,2.9-1.7h46.7c-0.3-5-1.3-9.5-2.9-13.8c-1.9-5.1-5.3-9.1-10.4-12.6c-5-3.5-10.9-5.1-18-5.1
		c-9.7,0-17.5,3.1-23.7,9.4c-6.2,6.3-9.3,14.1-9.3,23.6c0,9.3,2.9,16.5,8.9,22.1c5.9,5.6,14.5,8.4,25.4,8.4
		c11.6,0,20.4-3.5,26.7-10.6l-9.3-3C194.8,204.5,189.2,207.1,183.5,207.1z M180.5,156.1c5.4,0,9.8,1.8,13.1,5.3
		c3,3.3,4.9,7.3,5.5,11.9c0.2,1.1-0.2,1.9-1,2.7s-1.9,0.9-3,0.9h-28.6c-1.2,0-2.3-0.1-3-1c-0.8-0.9-1.1-1.8-0.9-3
		C164.2,162,170.6,156.1,180.5,156.1z"/>
	<g>
		<path fill="#5A81B8" d="M217.5,196.6l-16.9-5.4c-1.4-0.5-3-0.1-4.1,1c-4.5,4.5-8.9,6.9-13,6.9c-3.2,0-6.1-1.5-9.1-3.6
			c-1.8-1.3-3-3.4-3.6-6.4h46.3c2.2,0,4-1.3,4-3.5c0-7.7-1.2-14.5-3.6-20.9c-2.5-6.6-7-12.1-13.3-16.5c-6.4-4.4-13.9-6.6-22.5-6.6
			c-6.6,0-12.7,1.1-18,3.6c0,0,0,0,0,0c-0.7-3.6-2.2-6.3-4.7-7.9c-3-2-7.3-2.9-13.3-2.9c0,0-0.1-0.4-0.1-0.4c-8.2,0.3-17.9,0-28.7,0
			h-2l-0.8-14.2V110h3.8c35.4,0,41.9-0.1,43.8-0.4c0.2,0,0.4,0,0.6,0c3.8-1.1,10.2-4.7,9.8-16.1c-0.2-4.3-1.6-7.8-4.3-10.5
			c-2.7-2.7-6.6-4.1-11.5-4.1c-0.9,0-6.4,0-16.6,0.1C129.5,79,118.4,79,106.7,79h-7.8c-5.2,0-9.5,1.4-13,3.9c-3.7,2.8-5.8,7-6,12.1
			c0,0,0,0.1,0,0.2c0,4.9,0,12.5-0.1,22.3c-0.1,10.1-0.1,17.5-0.1,22.5c0,7.9-0.1,16.6-0.2,25.9c-0.1,9.3-0.3,16.7-0.4,22.1
			c-0.2,6.7-0.2,8.2-0.2,8.6c-0.1,1.9-0.1,4.2,0.2,7c0.5,6.6,2.9,10.6,7,13c3.6,2.1,9.4,2.5,18.1,2.5h53.4c0,0,0.1,0.6,0.1,0.6
			c2.8-0.1,5.2-0.4,7.3-1.3c0.1,0,0.2,0.2,0.2,0.2c5.2,1.8,11,2.7,17.6,2.7c16.5,0,28.8-6.2,36.7-18.6c0.7-1.1,0.8-2.3,0.4-3.5
			C219.6,197.9,218.7,197,217.5,196.6z M104.3,211c-9.2,0-12.7-0.8-14-1.5c-1.7-1-2.6-3.1-2.9-6.8c0,0,0,0,0,0
			c-0.2-2.3-0.3-4.2-0.2-5.6c0-0.1,0-0.2,0-0.3c0-0.2,0-1.4,0.2-8.6c0.1-5.4,0.3-12.8,0.4-22.1c0.1-9.3,0.2-18,0.2-26
			c0-5,0-12.4,0.1-22.5c0.1-9.8,0.1-17.3,0.1-22.3c0.1-3.4,1.5-5.1,2.6-5.9c2-1.5,4.7-2.5,8.1-2.5h7.8c11.8,0,22.9,0.2,33,0.1
			c10.1-0.1,15.6-0.1,16.5-0.1c2.6,0,4.5,0.6,5.6,1.8c1.2,1.2,1.8,2.9,1.9,5.1c0.2,6.2-2.1,6.8-3.5,7.3c-2,0.2-10.4-0.1-42.4-0.1
			h-6.8c-2.3,0-4.9,3.1-4.9,5.3v13.3v17.8v1.4c0,2.3,2.3,3.1,4.6,3.1h6.2c10.9,0,20.6,0.4,28.9,0.1c5.5,0,7.8,1.2,8.7,1.8
			c0.7,0.5,1.4,2.4,1.4,6c0,0.1,0,0.2,0,0.3c0.3-0.3,0.7-0.5,1-0.8c-0.3,0.3-0.7,0.5-1,0.8c-1.2,1-2.4,2-3.5,3.1
			c-1.2,1.3-2.4,2.6-3.4,3.9c-0.1,0.1-0.1-0.2-0.2-0.1c-0.2,0-0.4-0.2-0.6-0.2h-37.8c-2.2,0-4.4,1.9-4.5,4.1
			c-0.1,2.3-0.6,6.1-0.6,11.3v19.9c0,2.3,2.3,4.1,4.6,4.1c13,0,24.2-0.1,32.9-0.3c1.9,5.5,5.1,10,9.4,14.1c0.4,0.4,1,0.8,1.4,0.8
			H104.3z M140.9,187.9c0.2,2.1,0.6,4.2,1.2,6.2c-0.6-2-1.5-4-1.7-6.2c-7.4,0.1-16.4,0.2-27.4,0.2v-15.7c0-2.7,1.1-5.4,1.2-7.4h29.7
			c-2.2,5-3.3,11.1-3.3,17.2C140.6,184,140.7,186.2,140.9,187.9z M182.9,213.1c-10.9,0-19.5-2.8-25.4-8.4c-6-5.6-8.9-12.8-8.9-22.1
			c0-9.5,3-17.2,9.3-23.6c6.2-6.3,14-9.4,23.7-9.4c7,0,12.9,1.7,18,5.2c5.1,3.5,8.4,7.2,10.4,12.4c1.6,4.3,2.6,8.8,2.9,13.8h-46.7
			c-1.1,0-2.2,0.9-2.9,1.7c-0.8,0.8-1.2,2.1-1.1,3.2c0.4,7.5,2.9,13,7.6,16.4c4.3,3.1,8.9,4.7,13.7,4.7c5.7,0,11.3-2.5,16.9-7.5
			l9.3,3C203.4,209.7,194.6,213.1,182.9,213.1z"/>
		<path fill="#5A81B8" d="M166.6,177h28.6c1.2,0,2.3-0.1,3-0.9s1.1-1.8,1-3c-0.6-4.6-2.5-8.5-5.5-11.8c-3.3-3.5-7.7-5.3-13.1-5.3
			c-10,0-16.4,6.1-18,17.2c-0.2,1.2,0.2,1.9,0.9,2.8C164.3,176.9,165.4,177,166.6,177z M180.5,163.7c3.1,0,5.5,0.7,7.2,2.5
			c0.8,0.9,1.5,1.8,2.1,2.8h-18.1C173.6,164,177.2,163.7,180.5,163.7z"/>
	</g>
</g>
</svg>
