<?xml version="1.0" encoding="utf-8"?>
<!-- Generator: Adobe Illustrator 18.1.1, SVG Export Plug-In . SVG Version: 6.00 Build 0)  -->
<svg version="1.1" id="Layer_1" xmlns="http://www.w3.org/2000/svg" xmlns:xlink="http://www.w3.org/1999/xlink" x="0px" y="0px"
	 viewBox="0 0 300 300" enable-background="new 0 0 300 300" xml:space="preserve">
<g>
	<path fill="none" d="M205.3,138.2c0.1,0,0.2,0,0.3,0C205.5,138.2,205.4,138.2,205.3,138.2z"/>
	<path fill="none" d="M221.9,142.6c0.5,0.2,1,0.5,1.6,0.8C223,143.1,222.5,142.9,221.9,142.6z"/>
	<path fill="none" d="M169.8,141.6c1.2,0.7,2.4,1.5,3.5,2.5C172.2,143.1,171,142.3,169.8,141.6z"/>
	<path fill="none" d="M182.1,140.5c2.7-0.8,7.6-2.1,13.5-2.5C189.5,138.4,184.7,139.7,182.1,140.5z"/>
	<path fill="none" d="M200,137.9c0,0-0.1,0-0.1,0c0.1,0,0.2,0,0.4,0C200.2,137.9,200.1,137.9,200,137.9z"/>
	<path fill="none" d="M101.2,186.6c-0.4,0-0.9-0.1-1.3-0.2c-0.7-0.2-1.4-0.5-2.1-1c-1.3-1-2.1-2.6-2.1-4.3c0,1.7,0.7,3.2,2,4.3
		c0.6,0.5,1,0.8,2,1C100.4,186.5,100.8,186.6,101.2,186.6z"/>
	<path fill="none" d="M104.1,144.4c1.7-1.4,3.4-2.6,5.2-3.5C107.5,141.7,105.8,142.9,104.1,144.4z"/>
	<path fill="none" d="M122.6,186.3c2,0.4,4,1,5.9,1.7C126.5,187.3,124.6,186.7,122.6,186.3z"/>
	<path fill="none" d="M134.9,191.7c-0.1-0.1-0.2-0.1-0.3-0.2C134.7,191.6,134.8,191.7,134.9,191.7z"/>
	<path fill="none" d="M176.2,186.6c-0.7,0-1.4-0.1-2-0.4c0,0-0.3-0.1-0.9-0.3c0.5,0.2,0.8,0.3,0.8,0.3
		C174.8,186.4,175.5,186.6,176.2,186.6z"/>
	<path fill="none" d="M218.2,141.1c-2.4-0.9-4.8-1.6-7.1-2c-1.4-0.3-2.7-0.5-4-0.7c1.2,0.2,2.5,0.4,3.8,0.7
		C213.1,139.6,215.4,140.2,218.2,141.1z"/>
	<path fill="none" d="M161.5,121.6c0.3,0.4,0.7,0.7,1,1.1C162.2,122.3,161.9,122,161.5,121.6z"/>
	<path fill="none" d="M139.2,105.1c1,0.4,2.3,1.1,4,2C141.6,106.1,140.2,105.5,139.2,105.1z"/>
	<path fill="#FFFFFF" d="M56,232h164.4h0.6v-89.8c0-0.1-0.3-0.1-0.5-0.2c-0.8-0.3-1.5-0.6-2.2-0.9c-2.7-0.9-5.3-1.6-7.3-2v77.8
		c0,3-2.4,6.2-5.5,6.2H70.4c-3,0-5.4-3.1-5.4-6.2v-93.1c0-3,2.4-5.8,5.4-5.8h87.4c-4.1-4-8.2-6.9-11.6-9c0,0-0.1,0-0.1,0H56V232z"/>
	<path fill="#FFFFFF" d="M76,212h124v-74.1c-2,0-2.9,0-4.3,0.1c-5.9,0.4-10.9,1.7-13.5,2.5c-1.3,0.4-2.1,0.7-2.1,0.7
		c-2.7,1.1-5.9,0-7.1-2.7c-1.6-3.4-3.4-6.4-5.3-9.2c-0.1-0.2-0.2-0.4-0.3-0.4H76V212z M89,154.9c0-3,2.4-4.9,5.5-4.9h4.6
		c0.1,0,0.2-0.4,0.3-0.5c1.5-1.9,3.1-3.6,4.7-5.1c1.7-1.5,3.4-2.7,5.2-3.5c3-1.5,6.1-2.3,9.5-2.3c8.6,0,16,5.3,20.5,9.4
		c4.3-4.1,11.4-9.4,20-9.4c3.7,0,7.3,1,10.6,2.9c1.2,0.7,2.4,1.5,3.5,2.5c1.7,1.5,3.4,3.3,5,5.4c0.1,0.1,0.2,0.5,0.3,0.5h4
		c3,0,5.4,1.8,5.4,4.9v41.7c0,3-2.4,5.4-5.4,5.4H94.5c-3,0-5.5-2.4-5.5-5.4V154.9z"/>
	<path fill="#FFFFFF" d="M180.6,129.5c8.4-2.4,26.3-5.6,45.4,3l8.4-20.5l-43.1-1c-1.5,0-2.9-0.6-3.9-1.7l-32.3-34l-8.7,21.1
		C154.6,100.5,170,110.3,180.6,129.5z"/>
	<path fill="#FFFFFF" d="M198.7,68.7c1.4-2.7,4.8-3.7,7.4-2.3L250.5,90l-36.8-38.8L146,49.6l47.9,50.4l54.4,1.3L201,76.1
		C198.3,74.7,197.3,71.4,198.7,68.7z"/>
	<path fill="#CCCCCC" d="M265.8,130.9l-0.9-0.4c-0.7-0.3-1.4-0.5-2.1-0.5c-1.6,0-3,0.8-3.6,2.1l-4.3,10.5l9,4l4.4-10.7
		C269.1,134.2,267.9,131.9,265.8,130.9z"/>
	<path fill="#FFFFFF" d="M50,243H34.6c-2.1,0-3.6,1.5-3.6,3.5v0.4c0,2.1,1.5,4.1,3.6,4.1h206.8c2.1,0,3.6-2,3.6-4.1v-0.4
		c0-2.1-1.5-3.5-3.6-3.5h-15.4H50z"/>
	<path fill="#CCCCCC" d="M176.3,186.6c-0.7,0-1.4-0.1-2.2-0.4c0,0-0.3-0.1-0.8-0.3c-1.3-0.4-3.8-0.8-7.2-0.8
		c-4.7,0-11.9,0.9-20.3,5.9H177v-4.5C177,186.5,176.5,186.6,176.3,186.6z"/>
	<path fill="#CCCCCC" d="M122.6,186.3c-3.3-0.7-6.5-0.9-9.3-0.9c-6.1,0-10.7,1-10.7,1c-0.4,0.1-0.8,0.1-1.2,0.1
		c-0.4,0-1.3-0.1-1.3-0.2v4.6h33.6c-1.6-1-3.3-2.1-5.1-2.9C126.5,187.4,124.6,186.7,122.6,186.3z"/>
	<path fill="#FFFFFF" d="M171,174.2v-16.5c-4-5.4-7.6-8.1-11.6-8.1c-5.7,0-11.4,5.3-14.4,8.4v20.8c8-4,16-5,21.3-5
		C168,174,169,174.1,171,174.2z"/>
	<path fill="#FFFFFF" d="M134,178.4v-20.2c-3-3.2-9.1-8.5-15.1-8.5c-4.2,0-7.9,2.7-11.9,8.1v17c2-0.2,4-0.3,6.4-0.3
		C119.3,174.4,127,175.2,134,178.4z"/>
	<g>
		<path fill="#5980B7" d="M279.7,109.6c0.9-2,0.5-4.4-1-6L220.1,42c-1-1.1-2.4-1.7-3.9-1.7l-83.1-1.9c-2.2,0-4.3,1.2-5.2,3.3
			c-0.9,2-0.5,4.4,1,6l17.7,18.7l-12.3,30.8c-0.1,0.2-0.2,0.6-0.2,0.8c0,0,0,0.1,0,0.1H50c-3,0-5,2.3-5,5.3V232h-0.5h-9.9
			c-8.1,0-14.6,6.4-14.6,14.5v0.4c0,8.1,6.4,15.1,14.6,15.1h206.8c8.1,0,14.6-6.9,14.6-15.1v-0.4c0-8.1-6.5-14.5-14.6-14.5H232
			v-87.4c1-0.6,1.6-1.5,2-2.5l11.9-29.9l0.4,0l18.4,0.4l-2.6,6.4c-5.8,0.3-10.9,3.7-13,8.9l-6.4,15.5c-1.1,2.7,0.1,5.9,2.8,7.1
			l19.1,8.6c0.7,0.3,1.5,0.5,2.3,0.5c0.7,0,1.4-0.1,2-0.4c1.4-0.6,2.5-1.6,3-3l6.6-16c2.7-6.6,0.1-14-5.8-18l4-9.7
			C278,112,279.1,111,279.7,109.6z M56,109h90.2c0,0,0.1,0,0.1,0c3.4,2.1,7.4,5,11.6,9H70.4c-3,0-5.4,2.7-5.4,5.8v93.1
			c0,3,2.4,6.2,5.4,6.2h135.1c3,0,5.5-3.1,5.5-6.2V139c0,0,0.1,0,0.1,0c2.3,0.5,4.7,1.2,7.1,2c0.8,0.3,1.6,0.6,2.3,0.9
			c0.1,0.1,0.5,0.1,0.5,0.2V232h-0.6H56V109z M167.2,129c0.1,0,0.2,0.2,0.3,0.4c1.9,2.8,3.7,5.8,5.3,9.2c1.3,2.7,4.4,3.8,7.1,2.7
			c0,0,0.8-0.3,2.1-0.8c2.6-0.8,7.4-2.1,13.5-2.5c1.3-0.1,2.7-0.2,4.2-0.2c0,0,0.1,0,0.1,0c0,0,0,0,0,0V212H76v-83H167.2z M245,247
			c0,2.1-1.7,4-3.6,4H34.3c-1.9,0-3.3-2-3.3-4v-0.5c0-2.1,1.4-3.4,3.3-3.4h207.1c1.9,0,3.6,1.4,3.6,3.4V247z M226,132.4
			c-19.2-8.5-37.1-5.3-45.4-3c-10.6-19.2-26-29-34-33.1L155,75l0.3,0.3l32.3,34c1,1.1,2.4,1.7,3.9,1.7l42.7,1L226,132.4z M193.9,100
			L146,49.6l67.6,1.6L250.5,90l-44.3-23.6c-2.7-1.4-6-0.4-7.4,2.3c-1.4,2.7-0.4,6,2.3,7.4l47.3,25.2L193.9,100z M268.3,136
			l-4.4,10.7l-9-4l4.3-10.5c0.5-1.3,1.9-2.1,3.6-2.1c0.7,0,1.4,0.2,2.1,0.5l0.9,0.4C267.9,131.9,269.1,134.2,268.3,136z"/>
		<path fill="#5980B7" d="M94.5,202h88.1c3,0,5.4-2.4,5.4-5.4v-41.7c0-3-2.4-4.9-5.4-4.9h-4c-0.1,0-0.2-0.4-0.3-0.5
			c-1.6-2.1-3.3-3.9-5-5.3c-1.1-1-2.3-1.8-3.5-2.5c-3.3-1.9-6.8-3-10.6-3c-8.6,0-15.7,5.2-20,9.4c-4.5-4.1-11.9-9.4-20.5-9.4
			c-3.3,0-6.5,0.8-9.5,2.2c-1.8,0.9-3.5,2.1-5.2,3.5c-1.6,1.4-3.2,3.2-4.7,5.1c-0.1,0.1-0.2,0.5-0.3,0.5h-4.6c-3,0-5.5,1.8-5.5,4.9
			v41.7C89,199.6,91.4,202,94.5,202z M174.2,186.1c0.6,0.3,1.4,0.4,2.1,0.4c0.2,0,0.7,0,0.7,0v4.5h-31.1c8.4-5,15.5-5.9,20.2-5.9
			c3.4,0,5.9,0.5,7.2,0.8C173.9,186.1,174.2,186.1,174.2,186.1z M159.4,149.6c4,0,7.6,2.7,11.6,8.1v16.5c-2-0.2-3-0.3-4.7-0.3
			c-5.2,0-13.3,1-21.3,5v-20.8C148,155,153.6,149.6,159.4,149.6z M107,157.8c4-5.4,7.7-8.1,11.9-8.1c6,0,12.1,5.3,15.1,8.5v20.2
			c-7-3.1-14.7-3.9-20.6-3.9c-2.4,0-4.4,0.1-6.4,0.3V157.8z M100,186.4c0.4,0.1,0.8,0.2,1.2,0.2c0.4,0,0.9,0,1.3-0.1
			c0,0,4.6-1,10.7-1c2.8,0,6,0.2,9.3,0.9c2,0.4,3.9,1.1,5.9,1.8c1.8,0.7,3.5,1.9,5.1,2.9H100L100,186.4
			C99,186.2,99.3,186.2,100,186.4z"/>
	</g>
</g>
</svg>
