<?xml version="1.0" encoding="utf-8"?>
<!-- Generator: Adobe Illustrator 18.1.1, SVG Export Plug-In . SVG Version: 6.00 Build 0)  -->
<svg version="1.1" id="Layer_1" xmlns="http://www.w3.org/2000/svg" xmlns:xlink="http://www.w3.org/1999/xlink" x="0px" y="0px"
	 viewBox="0 0 300 300" enable-background="new 0 0 300 300" xml:space="preserve">
<g>
	<g>
		<path fill="none" d="M104.5,56.4C94.2,56.4,86,64.7,86,75v10.4c2-0.4,5.1-0.6,7.7-0.6c10.8,0,20.3,3.2,29.3,8.7V75
			C123,64.7,114.8,56.4,104.5,56.4z"/>
		<path fill="#CDCCCC" d="M218,179.2v21.1l31.3-43.3h-29.5c-1.2,0-2.3-0.8-3.1-1.7s-1.1-2.3-0.9-3.4l7.6-42.5L183.4,160h15.1
			C209.1,160,218,168.5,218,179.2z"/>
		<path fill="#FFFFFF" d="M73.9,141.4c-0.6,0-1.2,0-1.8,0.1c-2.5,0.4-3.8,1.6-3.9,3.9c-0.2,3.1,2.2,7.2,6.2,8.2
			c2.6,0.7,5.4,1.2,8.3,1.5c-0.4-5-1.5-9.1-3.5-11.5C78.3,142.6,76.8,141.4,73.9,141.4z"/>
		<path fill="#FFFFFF" d="M116.5,144.8c-0.6-1.6-2.7-2.9-4.9-3.1c-0.2,0-0.4,0-0.6,0c-1.3,0-3.1,0.4-4.3,2.2c-1.9,3-3,6.9-3.5,11.3
			c5.1-0.8,9.3-2.2,11.2-4.4C115.8,149.2,117.3,146.9,116.5,144.8z"/>
		<path fill="#FFFFFF" d="M89.9,163.1c-0.4,14-4,29.9-6.1,37.9h18.9c-2.5-8-6.6-23.3-6.8-37.7C93.8,163.4,91.8,163.2,89.9,163.1z"/>
		<path fill="#FFFFFF" d="M139.5,139.1c0-25.5-20.8-46.3-46.3-46.3s-46.3,21-46.3,46.7c0,12,4.5,24,11.7,31.2c0.3,0.3,0.5,1,0.7,1.3
			c10.4,11.7,14.1,23,15.3,29h1.9c3.1-11,6-26.4,6.4-38.5c-3.9-0.4-7.4-1.2-10.2-1.9c-7.6-1.9-11.8-9.4-11.5-15.4
			c0.3-5.6,4-9.6,9.8-10.5c7-1,11.2,1.8,13.4,4.4c3.3,3.8,4.9,9.8,5.3,16.7c2.1,0.1,4.3,0.1,6.3,0c0.5-5.8,1.9-11.2,4.7-15.6
			c2.4-3.8,6.7-5.9,11.4-5.4c4.9,0.4,9.2,3.4,10.8,7.5c1,2.4,1.8,7.4-3.4,13.2c-3.4,3.9-9.7,6.3-16.8,7.2
			c0.1,13.5,4.2,29.4,7.1,38.4h1v-21.8c0-10.6,8.3-19.2,18.9-19.2h2.9C137.4,153,139.5,145.9,139.5,139.1z"/>
		<polygon fill="#CDCCCC" points="111,224 111,211.3 83.7,224 		"/>
		<polygon fill="#CDCCCC" points="105.2,209 76,209 76,221.6 		"/>
		<path fill="#CDCCCC" d="M93,240.9c4.9,0,9.9-3.9,13.6-7.9H79.5C83.1,237,88.1,240.9,93,240.9z"/>
		<rect x="158" y="58" fill="#CDCCCC" width="3" height="14"/>
		<rect x="181" y="58" fill="#CDCCCC" width="3" height="14"/>
		<path fill="#FFFFFF" d="M154,103.1c0,6.7,5.3,12.9,12.1,12.9h9c6.7,0,13-6.2,13-12.9V93h-34V103.1z"/>
		<rect x="146" y="79" fill="#FFFFFF" width="48" height="7"/>
		<path fill="#FFFFFF" d="M210,179.3c0-6.2-5-11.3-11.3-11.3h-68.5c-6.2,0-11.3,5-11.3,11.3v53.5c0,6.2,5,11.3,11.3,11.3h68.5
			c6.2,0,11.3-5,11.3-11.3V179.3z M150,204h-14v-26h14V204z M177.7,235h-27.5c0,0-1.4-19.9,13.8-19.9
			C179.1,215.1,177.7,235,177.7,235z M194,204h-15v-26h15V204z"/>
		<g>
			<rect x="136" y="178" fill="#5A81B8" width="14" height="26"/>
			<rect x="179" y="178" fill="#5A81B8" width="15" height="26"/>
			<path fill="#5A81B8" d="M163.9,215.1c-15.1,0-13.8,19.9-13.8,19.9h27.5C177.7,235,179.1,215.1,163.9,215.1z"/>
		</g>
	</g>
	<path fill="#5A81B8" d="M260.7,150.9c-0.7-1.3-2.1-1.9-3.6-1.9h-32.6l9.5-53.8c0.3-1.8-0.6-3.8-2.3-4.5c-1.7-0.8-3.6-0.3-4.8,1.1
		L173.2,160h-31.1c1.6-3,2.8-6.2,3.7-9.1c1.1,0.1,2.6,0.1,3.8,0.1c15.5,0,25.5-9.8,25.5-25.3V123h0c10.6,0,20-9.3,20-19.9V93h2.5
		c1.9,0,3.5-2.3,3.5-4.2V75.1c0-1.9-1.5-3.1-3.5-3.1H191h0V54c0-1.9-1.6-3-3.5-3h-10.5c-1.9,0-2.9,1.1-2.9,3v18h-0.6h-5.8h0.4V54
		c0-1.9-1.9-3-3.9-3h-10.5c-1.9,0-2.6,1.1-2.6,3v18h-0.9h-7.5c-1.9,0-3.6,1.2-3.6,3.1v13.6c0,1.9,1.6,4.2,3.6,4.2h4.4v10.1
		c0,10.6,8.5,19.9,19.1,19.9h0.3h0.6v2.6c0,6.4-2.5,17.2-17.5,17.2c-0.5,0-1.5,0-2.1-0.1c0,0,0-0.1,0-0.1c0.1-1.2,0.4-2.4,0.4-3.6
		c0-15.4-6.7-29.3-16.7-39.2V75c0-14.7-11.8-26.6-26.5-26.6C89.8,48.4,78,60.3,78,75v12.1c0,0-0.4,0-0.5,0.1
		C55.3,94,39,114.9,39,139.5c0,13.6,5,27.3,13.2,36c0.1,0.2,0.7,0.5,0.9,0.7C64.8,189.1,67,200.7,68,204.4v22.7
		c-1,0.4-0.5,0.7-0.5,1.1c-0.1,0.9,0,1.7,0.5,2.5c0.5,0.7,11.2,17.8,25.1,17.8c7.5,0,14-5,18.6-9.7c-0.6-1.9-1-3.9-1-6
		c0,2.1,0.4,4.1,1,6c2.5,7.7,9.8,13.2,18.3,13.2h68.5c10.6,0,19.6-8.6,19.6-19.2V214l42.5-59.1C261.4,153.6,261.4,152.2,260.7,150.9
		z M181,58h3v14h-3V58z M158,58h3v14h-3V58z M146,86v-7h48v7H146z M166.1,116c-6.7,0-12.1-6.2-12.1-12.9V93h-0.1h33.3h0.8v10.1
		c0,6.7-6.3,12.9-13,12.9H166.1z M86,75c0-10.3,8.2-18.6,18.5-18.6c10.3,0,18.5,8.4,18.5,18.6v18.3c0,0-0.2,0-0.2,0
		c-8.5-5.5-18.5-8.5-29.3-8.5c-2.6,0-5.5,0.2-7.5,0.5V75z M104.5,209L76,221.4V209H104.5z M83.7,201c0,0,0.1-0.4,0.1-0.5
		c2.1-8,5.7-23.7,6.1-37.7c2,0.1,4,0.1,6,0c0.2,14.4,4.4,29.9,6.8,37.7c0,0.1,0.1,0.5,0.1,0.5h-0.1H83.7L83.7,201z M93,240.9
		c-4.9,0-9.9-3.9-13.6-7.9h27.1C102.9,237,97.9,240.9,93,240.9z M111,223.2v0.8H84l27-12.7V223.2z M111,179.2v21.1v0.7h-1
		c0,0-0.1-0.4-0.1-0.5c-2.9-8.8-7-24.6-7.1-38.1c7.1-0.9,13.3-3,16.8-6.9c5.2-5.8,4.3-10.8,3.4-13.2c-1.6-4.1-5.9-7-10.8-7.5
		c-4.8-0.4-9,1.6-11.4,5.4c-2.7,4.3-4.1,9.7-4.7,15.6c-2.1,0.1-4.2,0.1-6.3,0c-0.4-6.9-2-12.9-5.3-16.7c-2.3-2.6-6.4-5.5-13.4-4.4
		c-5.8,0.9-9.5,4.9-9.8,10.5c-0.3,6,3.9,13.4,11.5,15.3c2.8,0.7,6.3,1.3,10.2,1.8c-0.4,12.1-3.3,27.2-6.4,38.3
		c0,0.1-0.1,0.5-0.1,0.5h-1.8c-1.3-6-4.9-17.3-15.3-29c-0.2-0.3-0.4-0.8-0.7-1.1c-7.2-7.2-11.7-19.3-11.7-31.3
		c0-25.8,20.8-46.8,46.3-46.8s46.3,20.8,46.3,46.3c0,6.7-2.1,13.8-6.6,20.8h-2.9C119.3,160,111,168.5,111,179.2z M103.2,155.2
		c0.5-4.3,1.6-8.2,3.5-11.3c1.1-1.8,3-2.2,4.3-2.2c0.2,0,0.4,0,0.6,0c2.2,0.2,4.3,1.5,4.9,3.1c0.8,2.1-0.7,4.4-2.1,6
		C112.4,153,108.3,154.4,103.2,155.2z M82.7,155.1c-2.9-0.4-5.7-0.9-8.3-1.5c-4-1-6.4-5-6.2-8.2c0.1-2.2,1.4-3.5,3.9-3.9
		c0.7-0.1,1.3-0.1,1.8-0.1c2.9,0,4.4,1.2,5.3,2.2C81.2,146,82.3,150.1,82.7,155.1z M210,232.7c0,6.2-5,11.3-11.3,11.3h-68.5
		c-6.2,0-11.3-5-11.3-11.3v-53.5c0-6.2,5-11.3,11.3-11.3h68.5c6.2,0,11.3,5,11.3,11.3V232.7z M218,200.3v-21.1
		c0-10.6-8.9-19.2-19.6-19.2h-15.1l40.1-50.8l-7.6,42.5c-0.2,1.2,0.1,2.7,0.9,3.6s1.9,1.7,3.1,1.7h29.5L218,200.3z"/>
</g>
</svg>
