<?xml version="1.0" encoding="utf-8"?>
<!-- Generator: Adobe Illustrator 18.1.1, SVG Export Plug-In . SVG Version: 6.00 Build 0)  -->
<svg version="1.1" id="Layer_1" xmlns="http://www.w3.org/2000/svg" xmlns:xlink="http://www.w3.org/1999/xlink" x="0px" y="0px"
	 viewBox="0 0 300 300" enable-background="new 0 0 300 300" xml:space="preserve">
<g>
	<polygon fill="none" points="83,208 83,230 95,230 101.6,208 	"/>
	<polygon fill="none" points="217,230 217,208 205.8,208 199.7,208 206,230 	"/>
	<path fill="#CCCCCC" d="M231.1,58.8c0-4.5-3.6-8.1-8.1-8.1s-8.1,3.6-8.1,8.1c0,4.5,3.6,8.1,8.1,8.1S231.1,63.3,231.1,58.8z"/>
	<path fill="#CCCCCC" d="M86,58.8c0-4.5-3.6-8.1-8.1-8.1c-4.5,0-8.1,3.6-8.1,8.1c0,4.5,3.6,8.1,8.1,8.1C82.4,66.9,86,63.3,86,58.8z"
		/>
	<path fill="#FFFFFF" d="M173.4,116l4.4,15.2L202.2,99h-22.6l-0.1,0.4l-6.2,8.1l-3.4,4.5C171.6,112.6,172.9,114.2,173.4,116z"/>
	<polygon fill="#FFFFFF" points="139.4,99 116.8,99 116.6,99.3 91.4,132 114,132 	"/>
	<polygon fill="#FFFFFF" points="48,99 48,132 51.2,132 76.5,99 	"/>
	<polygon fill="#FFFFFF" points="217.1,132 252,132 252,99 242.6,99 242.3,99.3 	"/>
	<polygon fill="#FFFFFF" points="48,164 48,197 51.2,197 76.5,164 	"/>
	<polygon fill="#FFFFFF" points="113.5,168.2 91.3,197 104.9,197 	"/>
	<polygon fill="#FFFFFF" points="191.3,178.3 202.2,164 187.2,164 	"/>
	<polygon fill="#FFFFFF" points="252,164 242.5,164 242.3,164.2 217.1,197 252,197 	"/>
	<polygon fill="#CCCCCC" points="90.4,99 65,132 77.4,132 102.7,99 	"/>
	<polygon fill="#CCCCCC" points="165.6,99 153.3,99 143.9,111 156.2,111 	"/>
	<polygon fill="#CCCCCC" points="203.1,132 228.5,99 216.1,99 190.8,132 	"/>
	<polygon fill="#CCCCCC" points="90.4,164 65,197 77.4,197 102.7,164 	"/>
	<polygon fill="#CCCCCC" points="203.1,197 228.5,164 216.1,164 195,191.5 196.5,197 	"/>
	<polygon fill="#FFFFFF" points="163.9,122 138.7,122 129.9,152 172.3,152 	"/>
	<polygon fill="#FFFFFF" points="175.4,163 126.6,163 116.4,197 185.1,197 	"/>
	<polygon fill="#FFFFFF" points="113.1,208 106.5,230 194.5,230 188.2,208 	"/>
	<rect x="83" y="241" fill="#FFFFFF" width="135" height="8"/>
	<path fill="#5980B7" d="M257.8,143c3,0,5.2-1.7,5.2-4.8V94.3c0-3-2.2-6.3-5.2-6.3H228V77.2c8.1-2.2,14.1-9.6,14.1-18.4
		c0-10.5-8.6-19.1-19.1-19.1s-19.1,8.6-19.1,19.1c0,8.4,5.5,15.6,13.1,18.1V88H83V77.2c8.1-2.2,14-9.6,14-18.4
		c0-10.5-8.6-19.1-19.1-19.1c-10.5,0-19.1,8.6-19.1,19.1c0,8.4,5.5,15.6,13.1,18.1V88H42.3c-3,0-5.3,3.3-5.3,6.3v43.9
		c0,3,2.3,4.8,5.3,4.8H72v10H42.3c-3,0-5.3,3.2-5.3,6.2v43.9c0,3,2.3,4.8,5.3,4.8H72v46.5v0.9c0,0.1,0,0.2,0,0.3c0,0.1,0,0.1,0,0.2
		c0,0,0-0.1,0-0.2c0,0.1,0.1,0,0.1,0.1c0.4,2.6,2.8,4.2,5.5,4.2H223c3,0,6-2.1,6-5.1l0.2-46.9h28.5c3,0,5.2-1.8,5.2-4.8v-43.9
		c0-3-2.2-6.2-5.2-6.2H228v-10H257.8z M214.9,58.8c0-4.5,3.6-8.1,8.1-8.1s8.1,3.6,8.1,8.1c0,4.5-3.6,8.1-8.1,8.1
		S214.9,63.3,214.9,58.8z M228.5,99l-25.4,33h-12.3l25.4-33H228.5z M91.3,197l22.2-28.5l0.1-0.2l1.2-4.3h0l-1.2,4.4l-8.7,29.1
		l-2.7,8.7l2.7-9.2H91.3z M101.6,208L95,230H83v-22H101.6z M175.4,163l9.6,34h-68.6l10.2-34H175.4z M129.9,152l8.8-30h25.2l8.4,30
		H129.9z M121,143.1l-2.9,9.9H83v-10h33.7L121,143.1L121,143.1L121,143.1z M113.1,208h75.1l6.3,22h-88.1L113.1,208z M191.3,178.9
		l-4.1-14.4l-0.1-0.5h15.2l-0.1,0.4L191.3,178.9z M184.1,153l-2.8-9.8l-0.1-0.2h0h7.9h16.6H217v10H184.1z M173.3,107.6l6.2-8.2
		l0.1-0.4h16.8h5.9h0.2l-0.2,0.3L177.8,131h0l-4.4-15.2c-0.5-1.8-1.8-3.2-3.5-3.8c0,0,0,0-0.1,0L173.3,107.6z M153.3,99h12.3
		l-9.4,12h-12.3L153.3,99z M116.6,99.3l0.2-0.3h22.7l-0.2,0.2L114.2,132H114H91.4L116.6,99.3z M69.9,58.8c0-4.5,3.6-8.1,8.1-8.1
		c4.5,0,8.1,3.6,8.1,8.1c0,4.5-3.6,8.1-8.1,8.1C73.5,66.9,69.9,63.3,69.9,58.8z M51.3,132h-0.1H48V99h28.7l-0.2,0.2L51.3,132z
		 M65,132l25.4-33h12.3l-25.4,33H65z M51,197.6V197h-3v-33h28.5h0h0.1l-0.2,0.4L51,197.6z M77.4,197H65l25.4-33h12.3L77.4,197z
		 M218,249H83v-8h135V249z M199.7,208h6.1H217v22h-11L199.7,208z M242.3,164.2l0.1-0.2h9.5v33h-34.9L242.3,164.2z M228.5,164
		l-25.4,33H197v0.6l-1.8-5.4l-0.1-0.5l21-27.6H228.5z M217.1,132l25.2-32.7l0.2-0.3h9.4v33H217.1z"/>
</g>
</svg>
