<?xml version="1.0" encoding="utf-8"?>
<!-- Generator: Adobe Illustrator 18.1.1, SVG Export Plug-In . SVG Version: 6.00 Build 0)  -->
<svg version="1.1" id="Layer_1" xmlns="http://www.w3.org/2000/svg" xmlns:xlink="http://www.w3.org/1999/xlink" x="0px" y="0px"
	 viewBox="0 0 300 300" enable-background="new 0 0 300 300" xml:space="preserve">
<g>
	<path fill="#FFFFFF" d="M147,167.1c-4-0.6-10.6-2.4-15.5-7.5c-5.2-5.3-7.8-13-7.6-22.8l0-2.2l2.2-0.2c0.1,0,0.7-0.1,1.7-0.1
		c3.6,0,12.7,0.7,19.3,7.6c2,2.1,3.6,4.5,4.8,7.4c1.2-2.8,2.8-5.3,4.8-7.4c6.6-6.8,15.7-7.6,19.3-7.6c1,0,1.7,0.1,1.7,0.1l2.2,0.2
		l0,2.2c0.2,9.8-2.3,17.4-7.6,22.8c-6.3,6.4-14.5,7.6-18.5,7.7V190h13.3c1.5-8,6.7-14.5,11.7-20.2c6.2-7,12.1-13.6,12.1-26.2
		c0-20-18.7-38.2-39.3-38.2c-22.5,0-39.3,20.4-39.3,38.6c0,13.3,6.7,21.4,13.3,29.3c4.5,5.4,8.7,10.8,10.3,16.8H147V167.1z"/>
	<rect x="137" y="197" fill="#CDCCCC" width="30" height="13"/>
	<path fill="#CDCCCC" d="M151.7,221.5c3.7,0,7.3-1.5,10.3-4.5h-20.5C144.4,220,148.1,221.5,151.7,221.5z"/>
	<path fill="#FFFFFF" d="M163.8,152c1,1,1,2.5,0.1,3.5l-6.1,6.3c3.4-0.7,7.7-2.2,11.1-5.7c3.8-3.9,5.9-9.5,6.2-16.8
		c-3.4,0.1-10,1.1-14.7,6c-2.9,3-4.7,7.2-5.5,12.3l5.5-5.7C161.3,151.1,162.9,151.1,163.8,152z"/>
	<path fill="#FFFFFF" d="M140,152c1-1,2.6-0.9,3.5,0.1l5.5,5.7c-0.7-5.2-2.5-9.3-5.5-12.3c-4.7-4.9-11.3-5.9-14.7-6
		c0.3,7.2,2.3,12.8,6.2,16.8c3.4,3.5,7.7,5.1,11.1,5.7l-6.1-6.3C139,154.6,139,153,140,152z"/>
	<g>
		<path fill="#5A81B8" d="M151.8,98.4c-24.7,0-46.3,21.3-46.3,45.6c0,15.9,8.4,25.8,15,33.9c4.6,5.6,8.4,10.4,9.4,16.1v18.3
			c0,1.1-0.3,2.3,0.4,3.2c0,0,0,0,0,0c0.4,0.5,9.6,12.9,21.3,12.9c10.7,0,19.3-10.3,21-12.5c0.2-0.2,0.3-0.4,0.3-0.4
			c0,0-0.1,0.2-0.2,0.4c0.7-0.6,1.2-1.6,1.2-2.6v-17.9c0-9.2,4.7-14.6,10.3-20.9c6.5-7.3,13.8-15.6,13.8-30.9
			C198.1,119.6,176.5,98.4,151.8,98.4z M151.7,221.5c-3.6,0-7.3-1.5-10.2-4.5H162C159,220,155.4,221.5,151.7,221.5z M137,210v-13h30
			v13H137z M163.8,152c-1-1-2.6-0.9-3.5,0.1l-5.5,5.7c0.7-5.2,2.5-9.3,5.5-12.3c4.7-4.9,11.3-5.9,14.7-6c-0.3,7.2-2.3,12.8-6.2,16.8
			c-3.4,3.5-7.7,5.1-11.1,5.7l6.1-6.3C164.9,154.6,164.8,153,163.8,152z M140,155.6l6.1,6.3c-3.4-0.7-7.7-2.2-11.1-5.7
			c-3.8-3.9-5.9-9.5-6.2-16.8c3.4,0.1,10,1.1,14.7,6c2.9,3,4.7,7.2,5.5,12.3l-5.5-5.7c-1-1-2.5-1-3.5-0.1
			C139,153,139,154.6,140,155.6z M179,169.8c-5.1,5.7-10.2,12.2-11.7,20.2H154v-22.6c4-0.2,12.2-1.3,18.5-7.7
			c5.2-5.3,7.8-13,7.6-22.8l-0.1-2.2l-2.2-0.2c-0.1,0-0.7-0.1-1.7-0.1c-3.6,0-12.7,0.7-19.3,7.6c-2,2.1-3.6,4.5-4.8,7.4
			c-1.2-2.8-2.8-5.3-4.8-7.4c-6.6-6.8-15.7-7.6-19.3-7.6c-1,0-1.7,0.1-1.7,0.1l-2.2,0.2l0,2.2c-0.2,9.8,2.4,17.4,7.7,22.8
			c4.9,5,11.5,6.8,15.5,7.5V190h-10.9c-1.6-6-5.8-11.3-10.3-16.8c-6.5-7.9-13.3-16-13.3-29.3c0-18.2,16.8-38.5,39.3-38.5
			c20.6,0,39.3,18.3,39.3,38.3C191.1,156.3,185.2,162.8,179,169.8z"/>
		<path fill="#5A81B8" d="M209.8,189.7l-3.5,0.5c31-36,13.4-69.8,3.8-83.4c-1.3-1.8-3.8-2.2-5.6-0.9c-1.8,1.3-2.2,3.8-0.9,5.6
			c10.5,14.9,23.1,43.3-3.6,73.9l0.2-3.6c0.1-2.2-1.5-4.1-3.7-4.3c-2.2-0.1-4.1,1.5-4.3,3.7l-0.9,14.4c0,0,0,0,0,0
			c0,0.3,0,0.6,0,0.8c0,0,0,0.1,0,0.1c0,0.2,0.1,0.5,0.2,0.7c0,0.1,0.1,0.2,0.1,0.2c0.1,0.2,0.2,0.3,0.3,0.5
			c0.1,0.1,0.1,0.2,0.2,0.3c0.1,0.1,0.1,0.2,0.2,0.3c0,0,0.1,0.1,0.1,0.1c0,0,0.1,0.1,0.1,0.1c0.1,0.1,0.2,0.1,0.2,0.2
			c0.1,0.1,0.2,0.1,0.3,0.2c0.1,0.1,0.3,0.2,0.4,0.2c0.1,0,0.2,0.1,0.3,0.1c0.2,0.1,0.3,0.1,0.5,0.1c0.1,0,0.1,0.1,0.1,0.1
			c0.3,0,0.7,0.1,0.7,0.1v0.1c0,0,0.2,0,0.2,0c0.3,0,0.5-0.1,0.8-0.1l15-2.3c2.2-0.3,3.7-2.4,3.4-4.6S212,189.4,209.8,189.7z"/>
		<path fill="#5A81B8" d="M111.7,194.6c-14.4-10.8-34.7-33.9-19-71.1l0.9,3.5c0.5,1.8,2.1,3,3.9,3c0.3,0,0.7,0,1-0.1
			c2.1-0.5,3.4-2.7,2.9-4.9l-3.6-14c0,0,0,0,0,0c-0.1-0.3-0.2-0.5-0.3-0.8c0,0,0-0.1,0-0.1c-0.1-0.2-0.3-0.4-0.4-0.6
			c-0.1-0.1-0.1-0.1-0.2-0.2c-0.1-0.1-0.3-0.3-0.4-0.4c-0.1-0.1-0.2-0.1-0.3-0.2c-0.1-0.1-0.2-0.1-0.3-0.2c-0.1,0-0.1,0-0.2-0.1
			c0,0-0.1-0.1-0.1-0.1c-0.1,0-0.1,0-0.2-0.1c-0.2-0.1-0.3-0.1-0.5-0.2c-0.1,0-0.2-0.1-0.3-0.1c-0.2,0-0.3,0-0.5,0
			c-0.1,0-0.2,0-0.3,0c-0.2,0-0.3,0-0.5,0.1c-0.1,0-0.2,0-0.3,0.1c-0.2,0.1-0.5,0.1-0.7,0.2c0,0-0.1,0-0.1,0l-13.7,6.9
			c-2,1-2.8,3.4-1.8,5.4c1,2,3.4,2.8,5.4,1.8l3.2-1.6c-18.1,43.4,8.6,70.2,21.8,80.1c0.7,0.5,1.6,0.8,2.4,0.8c1.2,0,2.4-0.5,3.2-1.6
			C113.8,198.4,113.5,195.9,111.7,194.6z"/>
		<path fill="#5A81B8" d="M106.3,98.1c1,0,2-0.4,2.7-1.1c13.4-12.5,39.9-28.8,73.9-6.3l-3.6,0.2c-2.2,0.1-3.9,2.1-3.7,4.3
			c0.1,2.1,1.9,3.7,4,3.7c0.1,0,0.2,0,0.3,0l14.4-1c0,0,0,0,0,0c0.3,0,0.6-0.1,0.8-0.1c0,0,0.1,0,0.1,0c0.2-0.1,0.5-0.2,0.7-0.3
			c0.1,0,0.2-0.1,0.2-0.1c0.2-0.1,0.3-0.2,0.5-0.3c0.1-0.1,0.2-0.2,0.2-0.2c0.1-0.1,0.2-0.2,0.2-0.2c0,0,0.1-0.1,0.1-0.2
			c0,0,0.1-0.1,0.1-0.1c0-0.1,0.1-0.1,0.1-0.2c0.1-0.2,0.2-0.3,0.3-0.5c0-0.1,0.1-0.2,0.1-0.3c0.1-0.2,0.1-0.3,0.1-0.5
			c0-0.1,0-0.2,0.1-0.3c0-0.2,0-0.4,0-0.6c0-0.1,0-0.2,0-0.3c0-0.3-0.1-0.5-0.1-0.8c0,0,0,0,0-0.1l0,0c0,0,0,0,0,0l-4.3-14.7
			c-0.6-2.1-2.8-3.3-5-2.7c-2.1,0.6-3.3,2.8-2.7,5l1,3.4c-39.8-26-71.1-4-83.3,7.4c-1.6,1.5-1.7,4-0.2,5.7
			C104.2,97.6,105.2,98.1,106.3,98.1z"/>
	</g>
</g>
</svg>
