<?xml version="1.0" encoding="utf-8"?>
<!-- Generator: Adobe Illustrator 18.1.1, SVG Export Plug-In . SVG Version: 6.00 Build 0)  -->
<svg version="1.1" id="Layer_1" xmlns="http://www.w3.org/2000/svg" xmlns:xlink="http://www.w3.org/1999/xlink" x="0px" y="0px"
	 viewBox="0 0 300 300" enable-background="new 0 0 300 300" xml:space="preserve">
<g>
	<path fill="#FFFFFF" d="M153,89.5c-33.9,0-61.4,14.5-71,20.2l5.5,14.3c18.5-6.3,41.3-11.4,66.7-11.4c20.7,0,40.7,3.4,59.9,10.2
		l4.3-13.3C198.3,96.2,176.3,89.5,153,89.5z"/>
	<path fill="#FFFFFF" d="M251.3,153.9c-29.9-20.1-62.5-30.3-97-30.3c-51.7,0-93,23-105,30.5l21,54.7c13-5.8,47.5-19,88.2-19
		c27.7,0,52.9,6.2,75.1,18.3L251.3,153.9z M175,165.8c0,2.5-2,4.2-4.5,4.2H162v7.8c0,2.5-2,4.2-4.5,4.2h-18c-2.5,0-4.5-1.7-4.5-4.2
		V170h-6.5c-2.5,0-4.5-1.7-4.5-4.2v-19c0-2.5,2-4.8,4.5-4.8h6.5v-6.2c0-2.5,2-4.8,4.5-4.8h18c2.5,0,4.5,2.3,4.5,4.8v6.2h8.5
		c2.5,0,4.5,2.3,4.5,4.8V165.8z"/>
	<path fill="#CCCCCC" d="M153,146.8V140h-9v6.8c0,2.5-2,4.2-4.5,4.2H133v10h6.5c2.5,0,4.5,2.3,4.5,4.8v7.2h9v-7.2
		c0-2.5,2-4.8,4.5-4.8h8.5v-10h-8.5C155,151,153,149.3,153,146.8z"/>
	<g>
		<path fill="#5980B7" d="M261,147.2c-11.8-8.3-24-15.1-36.5-20.4l5.8-17.8c0.8-2.3-0.1-4.8-2.1-6.2c-23-16.2-48.3-24.4-75.1-24.4
			c-45.6,0-79.5,23.5-80.9,24.5c-2.1,1.5-2.9,4.1-2,6.5l7.1,18.4c-22.7,9-36.8,18.8-37.9,19.6c-2.1,1.5-2.9,4.1-2,6.5l24.7,64.4
			c0.6,1.5,1.7,2.6,3.2,3.2c1.5,0.6,3.1,0.5,4.5-0.2c0.4-0.2,40.5-20.4,88.7-20.4c28.1,0,53.5,6.8,75.3,20.2
			c0.9,0.5,1.9,0.8,2.9,0.8c0.6,0,1.3-0.1,1.9-0.3c1.6-0.6,2.8-1.9,3.3-3.5l21.1-64.6C263.8,151.2,262.9,148.6,261,147.2z
			 M82.1,109.7c9.5-5.7,37-20.2,71-20.2c23.3,0,45.3,6.8,65.5,20.1l-4.3,13.3c-19.2-6.8-39.2-10.2-59.9-10.2
			c-25.4,0-48.2,5.1-66.7,11.4L82.1,109.7z M233.5,208.1c-22.2-12.2-47.4-18.3-75.1-18.3c-40.7,0-75.2,13.3-88.2,19l-21-54.7
			c12-7.5,53.3-30.5,105-30.5c34.5,0,67.1,10.2,97,30.3L233.5,208.1z"/>
		<path fill="#5980B7" d="M135,135.8v6.2h-6.5c-2.5,0-4.5,2.3-4.5,4.8v19c0,2.5,2,4.2,4.5,4.2h6.5v7.8c0,2.5,2,4.2,4.5,4.2h18
			c2.5,0,4.5-1.7,4.5-4.2V170h8.5c2.5,0,4.5-1.7,4.5-4.2v-19c0-2.5-2-4.8-4.5-4.8H162v-6.2c0-2.5-2-4.8-4.5-4.8h-18
			C137,131,135,133.3,135,135.8z M144,146.8V140h9v6.8c0,2.5,2,4.2,4.5,4.2h8.5v10h-8.5c-2.5,0-4.5,2.3-4.5,4.8v7.2h-9v-7.2
			c0-2.5-2-4.8-4.5-4.8H133v-10h6.5C142,151,144,149.3,144,146.8z"/>
	</g>
</g>
</svg>
