<?xml version="1.0" encoding="utf-8"?>
<!-- Generator: Adobe Illustrator 18.1.1, SVG Export Plug-In . SVG Version: 6.00 Build 0)  -->
<svg version="1.1" id="Layer_1" xmlns="http://www.w3.org/2000/svg" xmlns:xlink="http://www.w3.org/1999/xlink" x="0px" y="0px"
	 viewBox="0 0 300 300" enable-background="new 0 0 300 300" xml:space="preserve">
<g>
	<path fill="none" d="M113.1,199.7c-4.2-7.5-7.5-14.7-10-21.7H85.7C92.4,188,102,195.3,113.1,199.7z"/>
	<path fill="none" d="M99.9,167c-1.5-6-2.4-12-2.8-17H75.3c0.6,6,2.2,12,4.5,17.5c0.7-0.3,1.4-0.5,2.2-0.5H99.9z"/>
	<path fill="none" d="M111.1,167h17.3c-0.4-2-0.7-4.8-0.8-7.6c-0.1-3.2,0.8-6.4,2.2-9.4H108C108.5,156,109.5,161,111.1,167z"/>
	<path fill="none" d="M130,178h-15.1c3.3,8,7.8,16.7,13.4,25.3c0.6,0.1,0.7,0,1.7,0V178z"/>
	<path fill="none" d="M114.6,111H130V87.4C126,92,119.4,100,114.6,111z"/>
	<path fill="none" d="M141.1,203.2c0.6-0.9,1.2-1.9,1.8-2.8c-0.6-1.9-1-3.7-2-5.3v8.1C141,203.2,141.1,203.2,141.1,203.2z"/>
	<path fill="none" d="M141,122v12.8c3-2.6,4.9-4.4,6.2-5.6c1.2-2.1,2.2-4.2,3-7.2H141z"/>
	<path fill="none" d="M115.9,87.2C103.1,91.5,92.2,100,84.9,111h17.8C106.4,101,111.4,93.2,115.9,87.2z"/>
	<path fill="none" d="M149.4,82c1.7,9.3,2.5,16.7,2.7,23c-3.7-6.8-8-12.2-11-15.9V111h11c0.1-2,0.1-3.8,0.1-5.9
		C151.9,98.8,151.1,91.2,149.4,82c-0.1-0.8-0.3-1.5-0.4-2.3c-1-5.1-2.2-10.6-3.7-16.8c-0.1-0.4-0.1-0.7-0.2-1.1
		c0,0.4,0.1,0.8,0.2,1.2c1.5,6.1,2.7,11.8,3.7,16.8C149.1,80.8,149.2,81.3,149.4,82C149.4,82,149.4,82,149.4,82z"/>
	<path fill="none" d="M147.3,79.8c0.1,0.2,0.3,0.4,0.4,0.5C147.6,80.2,147.5,80,147.3,79.8z"/>
	<path fill="none" d="M82,122c-0.9,0-1.8-0.2-2.6-0.6c-2.3,5.5-3.7,11.6-4.2,17.6h21.8c0.3-6,1.1-12,2.3-17H82z"/>
	<path fill="none" d="M110.6,122c-1.6,6-2.5,11-2.8,17H130v-17H110.6z"/>
	<rect x="127" y="60" fill="#CCCCCC" width="18" height="9"/>
	<path fill="#FFFFFF" d="M191.8,136.8l-16.4-2l16.9,24.4c1.5-8.7,2.5-16.5,3.2-23.3C194.5,136.6,193.1,136.9,191.8,136.8z"/>
	<path fill="#FFFFFF" d="M161.3,123c1-0.5,2.1-0.8,3.2-0.6l28.5,3.5c1.2,0.1,2.3,0.7,3.1,1.5c0.5-8.6,0.5-14.9,0.4-18.5
		c-2.8-5.8-5.6-11-8-15.2l-30.9-25.9C163.7,94.9,164,111.5,161.3,123z"/>
	<path fill="#FFFFFF" d="M170.2,181.7c-0.4,0-0.7,0-1.1-0.1c3.3,11.9,6.8,22.5,10,29.6c4.4-13.2,7.6-25.4,10.1-36.6l-17.1,6.7
		C171.5,181.6,170.8,181.7,170.2,181.7z"/>
	<path fill="#FFFFFF" d="M183.2,165.2L159.4,131c-0.2-0.2-0.3-0.4-0.4-0.7c-0.4,1.1-0.9,2.1-1.4,3c2.3,11.5,5.5,25.5,9,38.8
		c0.5-0.4,1-0.8,1.6-1L183.2,165.2z"/>
	<path fill="#CCCCCC" d="M159,245h5.4l8.4-22.4c-9.9-15.5-20.2-59.6-24.5-79.6c-5.1,5.3-9.8,11.6-9.7,16c0.2,8.8,3.3,14.4,5.8,18.9
		c0.5,0.9,0.9,1.7,1.3,2.4c0.3,0.6,0.6,1.2,1,1.9c3,5.4,8.5,15.7,9.4,29.8c0.6,10.5,0.1,25-0.3,33h2.6H159z"/>
	<path fill="#FFFFFF" d="M249.3,155.6c-0.6-5.5-1.3-11.2-2.3-17.1l-5,10.3L249.3,155.6z"/>
	<path fill="#FFFFFF" d="M214.6,236c1.4,15.8,4.8,24,6.5,27h13c3-5,9.9-20.5,13.8-43.9c0-0.2,0-0.4,0.1-0.5
		c-4.8,6.2-10.8,11.1-18,11.6c-0.4,0-0.9,0-1.3,0c-4.1,0-7.9-1.5-11-4.3c-1.4-1.3-2.7-2.9-3.7-4.6
		C213.9,225.5,214.1,230.4,214.6,236z"/>
	<path fill="#FFFFFF" d="M250.5,171.7L237,159.2l-18.1,37.5c0.3,6.6,2.1,17.1,6.3,21c1.2,1.1,2.4,1.5,4,1.4c9-0.7,18-19.4,21.5-29.4
		C250.8,184.1,250.8,178.1,250.5,171.7z"/>
	<path fill="#FFFFFF" d="M221.8,145.1c1.2,5.3,1.9,10.4,1.9,15.3c0,0.3,0,0.6,0,1l4.8-10L221.8,145.1z"/>
	<polygon fill="#FFFFFF" points="233.6,141 238.9,130.1 224.9,132.9 	"/>
	<path fill="#FFFFFF" d="M243,118c-2.6-11.3-5.9-23.2-10.1-35.7c-0.2-0.5-0.3-1.1-0.3-1.6l-39.1-0.6c4.2,6.9,14.3,24.5,21.7,43.6
		L243,118z"/>
	<g>
		<path fill="#5980B7" d="M69.7,91.6c-0.1-1.3-1.1-2.4-2.4-2.4c-0.4,0-10.8-0.3-10.8-10.8c0-1.4-1.1-2.5-2.5-2.5s-2.5,1.1-2.5,2.5
			c0,9.6-9.8,10.7-11,10.8c-1.3,0.1-2.3,1.2-2.3,2.4c0,1.3,0.9,2.4,2.2,2.5c0.5,0.1,11.1,1.4,11.1,10.8c0,1.4,1.1,2.5,2.5,2.5
			s2.5-1.1,2.5-2.5c0-9.3,10.6-10.7,11-10.8C68.8,94,69.8,92.9,69.7,91.6z M53.9,96.5c-1.4-2.1-3.3-3.6-5.3-4.8
			c1.9-1.1,3.8-2.6,5.2-4.6c1.4,2.1,3.2,3.6,5.1,4.7C57.1,93.1,55.3,94.6,53.9,96.5z"/>
		<path fill="#5980B7" d="M106.8,224c-1,0-6-0.5-6-6c0-1.1-0.9-2-2-2s-2,0.9-2,2c0,5.3-5.5,5.9-6.1,6c-1,0.1-1.8,0.9-1.8,2
			c0,1,0.7,1.9,1.8,2c0.3,0,6.2,0.8,6.2,6c0,1.1,0.9,2,2,2s2-0.9,2-2c0-5.1,5.6-5.9,6.2-6c1-0.1,1.8-1,1.8-2.1
			C108.7,224.8,107.9,224,106.8,224z M98.8,228c-0.6-0.8-1.4-1.5-2.2-2c0.8-0.5,1.5-1.1,2.1-1.9c0.6,0.8,1.4,1.5,2.1,2
			C100.1,226.7,99.4,227.3,98.8,228z"/>
		<path fill="#5980B7" d="M261.7,189.1c0.1-6,0.1-12.3-0.3-19c0.1-0.7,0.1-1.3-0.1-2c-1.4-24.9-6.4-54.8-18.1-89.2
			c-1-2.9-4.1-4.4-7-3.5c-2.4,0.8-3.8,3-3.7,5.4c0,0.5,0.1,1.1,0.3,1.6c4.2,12.6,7.5,24.5,10.1,35.7l-27.8,5.7
			c-7.4-19.1-17.5-36.7-21.7-43.6c-1-1.7-1.7-2.8-1.9-3c-1.6-2.6-5-3.3-7.6-1.7c-2.6,1.6-3.3,5-1.7,7.6c0.1,0.1,2.6,4.2,6.2,10.6
			c2.4,4.2,5.2,9.4,8,15.2c0.1,3.7,0.2,10-0.4,18.5c-0.8-0.8-1.9-1.3-3.1-1.5l-28.5-3.5c-1.1-0.1-2.3,0.1-3.2,0.6
			c2.7-11.5,2.4-28.1-3.6-55.3c-0.5-2.2-1-4.4-1.6-6.7c0-0.2-0.1-0.4-0.1-0.6v-5.7c0-3-2.3-5.7-5.4-5.7H141V31.8
			c0-3-2.5-5.5-5.5-5.5s-5.5,2.5-5.5,5.5V49h-8.7c-3,0-5.3,2.8-5.3,5.8c0,0,0,20.2,0,20.8c0,0,0-0.1,0-0.1
			c-28.9,8-50.5,33.8-51.9,64.9c0,0-0.1,3.1,0.1,7.7c2.1,33.4,27.3,60.5,59.8,65.5c0.3,0.1,0.6,0.1,0.8,0.1c3.3,0.5,6.6,0.7,10,0.7
			c3.4,0,6.8-0.3,10.1-0.7c0,0,0.1,0.1,0.1,0.1c1,10,0.3,24.1-0.1,31.1H114c-3,0-5.5,2.5-5.5,5.5s2.5,5.5,5.5,5.5h56
			c2.2,0,4.2-1.4,5-3.4c15.4-35.1,23.7-65.8,28.1-90.1c1.4-5.2,2.3-10.6,2.5-16.1c0.6-4.8,1.1-9.3,1.4-13.4
			c3.4,9.6,5.7,19.2,5.8,27.4c0.1,13.1-2.1,21-4.6,29.4c-3.3,11.4-6.7,23.2-4.6,47.1c1.2,13.7,5.8,37,15.3,37h18.4
			c1.9,0,3.6-1,4.6-2.6c0.5-0.7,11.3-17.5,16.8-49.8c1.4-8.4,2.6-18.5,3-30C261.9,190.8,261.9,189.9,261.7,189.1z M159,130.3
			c0.1,0.2,0.3,0.5,0.4,0.7l23.8,34.2l-15,5.9c-0.6,0.2-1.2,0.6-1.6,1c-3.5-13.3-6.6-27.3-9-38.8C158,132.4,158.5,131.4,159,130.3z
			 M152,103.8c0,0.4,0,0.9,0,1.3c0.1,2.1,0,3.9-0.1,5.9h-11V89.1c3,3.7,7.4,9.1,11,15.9C152,104.6,152,104.2,152,103.8z M150.3,122
			c-0.8,3-1.8,5.1-3,7.2c-1.4,1.1-3.2,3-6.2,5.6V122H150.3z M145.3,62.9c0.1,0.2,0.1,0.4,0.1,0.7C145.4,63.4,145.3,63.2,145.3,62.9
			c-0.1-0.3-0.1-0.7-0.2-1.1C145.2,62.2,145.2,62.5,145.3,62.9z M115.9,87.2c-4.5,6-9.5,13.8-13.3,23.8H84.9
			C92.2,100,103.1,91.5,115.9,87.2z M79.2,122H82h2.4h14.9c-1.2,5-2.1,11-2.3,17H75.2C75.8,133,77.1,127,79.2,122z M82,167
			c-0.8,0-1.5,0.2-2.2,0.5c-2.3-5.5-3.9-11.5-4.5-17.5h21.8c0.4,5,1.3,11,2.8,17H82z M85.7,178h17.5c2.5,7,5.7,14.2,10,21.7
			C102,195.3,92.4,188,85.7,178z M128.4,167h-17.3c-1.6-6-2.6-11-3.1-17h21.9c-1.4,3-2.3,6.3-2.2,9.4C127.7,162.2,128,165,128.4,167
			z M130,203.3c-1,0-1.1,0-1.7,0c-5.6-8.6-10.1-17.3-13.4-25.3H130V203.3z M130,139h-22.1c0.3-6,1.2-11,2.8-17H130V139z M130,111
			h-15.4c4.8-11,11.4-19,15.4-23.6V111z M127,69v-9h18v9H127z M141.1,203.2c0,0-0.1,0-0.1,0v-8.1c1,1.6,1.4,3.4,2,5.3
			C142.4,201.3,141.8,202.3,141.1,203.2z M164.4,245H159h-0.4h-2.6c0.4-8,1-22.5,0.3-33c-0.9-14.1-6.4-24.3-9.4-29.7
			c-0.4-0.7-0.7-1.4-1-1.9c-0.4-0.8-0.8-1.6-1.3-2.5c-2.5-4.5-5.6-10.1-5.8-18.9c-0.1-4.4,4.5-10.7,9.7-16
			c4.3,20,14.6,64.1,24.5,79.6L164.4,245z M179.1,211.2c-3.2-7-6.7-17.7-10-29.6c0.3,0.1,0.7,0.1,1.1,0.1c0.7,0,1.3-0.1,2-0.4
			l17.1-6.7C186.8,185.8,183.5,198,179.1,211.2z M192.3,159.2l-16.9-24.4l16.4,2c1.4,0.2,2.7-0.2,3.7-0.9
			C194.9,142.7,193.9,150.5,192.3,159.2z M247,138.5c1,5.9,1.7,11.6,2.3,17.1l-7.3-6.8L247,138.5z M238.9,130.1l-5.3,10.9l-8.7-8.1
			L238.9,130.1z M228.6,151.3l-4.8,10c0-0.3,0-0.6,0-1c-0.1-4.8-0.8-10-1.9-15.3L228.6,151.3z M248,219.1
			c-3.9,23.5-10.8,38.9-13.8,43.9h-13c-1.7-3-5.1-11.2-6.5-27c-0.5-5.6-0.7-10.5-0.6-14.8c1.1,1.7,2.3,3.3,3.7,4.6
			c3.1,2.8,6.9,4.3,11,4.3c0.4,0,0.9,0,1.3-0.1c7.2-0.5,13.2-5.4,18-11.6C248,218.7,248,218.9,248,219.1z M250.7,189.7
			c-3.4,10.1-12.5,28.8-21.5,29.4c-1.6,0.1-2.8-0.3-4-1.4c-4.2-3.9-6.1-14.4-6.3-21l18.1-37.5l13.5,12.6
			C250.8,178.1,250.8,184.1,250.7,189.7z"/>
	</g>
</g>
</svg>
