<?xml version="1.0" encoding="utf-8"?>
<!-- Generator: Adobe Illustrator 18.1.1, SVG Export Plug-In . SVG Version: 6.00 Build 0)  -->
<svg version="1.1" id="Layer_1" xmlns="http://www.w3.org/2000/svg" xmlns:xlink="http://www.w3.org/1999/xlink" x="0px" y="0px"
	 viewBox="0 0 300 300" enable-background="new 0 0 300 300" xml:space="preserve">
<g>
	<path fill="#CCCCCC" d="M161.2,224l11.9-20.2c-10.6,4.9-23.8,8.3-40.2,8.3c-17,0-30.5-3.6-41.2-8.8l12,20.7H161.2z"/>
	<path fill="#FFFFFF" d="M132.9,165.3c-11.9,0-21.9-8.3-24.5-19.3l-45.5,10.1c4.8,13,21.7,45,70.2,45c48,0,65.2-32.2,70.2-45
		l-45.6-10.6C155.1,156.8,145,165.3,132.9,165.3z"/>
	<path fill="#CCCCCC" d="M132.9,144c-5,0-9.8-1.2-14.2-3.4c0.3,7.6,6.5,13.7,14.2,13.7s13.9-6.1,14.2-13.7
		C142.7,142.8,137.9,144,132.9,144z"/>
	<path fill="#FFFFFF" d="M132.9,133c15.6,0,28.4-17.5,28.4-39s-12.7-39-28.4-39c-15.6,0-28.4,17.5-28.4,39S117.3,133,132.9,133z"/>
	<rect x="85" y="235" fill="#FFFFFF" width="96" height="10"/>
	<polygon fill="#FFFFFF" points="212,67.4 198.5,86.9 206.7,93 220.3,73.7 	"/>
	<g>
		<path fill="#5980B7" d="M173.2,203.8L161.2,224h-57.5l-12-20.8c-9.3-4.5-16.4-10.2-21.9-15.9L91,224H79.4c-3,0-5.4,2.4-5.4,5.4
			v21.2c0,3,2.4,5.4,5.4,5.4h106.9c3,0,5.7-2.4,5.7-5.4v-21.2c0-3-2.6-5.4-5.7-5.4H174l20.9-35.4C189.5,194,182.3,199.5,173.2,203.8
			z M181,235v10H85v-10H181z"/>
		<path fill="#5980B7" d="M215.7,151.5c-0.1-0.8-0.3-1.6-0.7-2.3c-1-1.7-2.7-2.7-4.6-2.8l-17.6-4.1l6.7-19.9l2,0.8
			c0.7,0.3,1.4,0.4,2.1,0.4c2.2,0,4.2-1.3,5.1-3.4c1.1-2.8-0.2-6-3-7.2l-15.9-6.4c-2.8-1.1-6,0.2-7.2,3c-1.1,2.8,0.2,6,3,7.2
			l3.7,1.5l-7.4,21.5l-23.9-5.5v-2c-3,3.5-6.9,6.3-11,8.3c-0.3,7.6-6.5,13.7-14.2,13.7s-14.1-6.1-14.4-13.7
			c-2.5-1.2-4.6-2.8-6.9-4.6c2.2,1.8,4.6,3.4,7.1,4.6c4.4,2.2,9.2,3.4,14.2,3.4s9.8-1.2,14.2-3.4c4-2,7.8-4.8,11-8.3
			c8.6-9.2,14.1-23,14.1-38.4c0-27.6-17.7-50-39.4-50c-21.7,0-39.4,22.4-39.4,50c0,15.4,5.5,29.2,14.1,38.4c1.2,1.3,2.4,2.5,3.7,3.6
			c-1.4-1.1-2.4-2.3-4.4-3.6v2.5l-51.6,11.5l0,0c-1.8,0.1-3.4,1.1-4.4,2.7c-0.2,0.4-0.3,0.8-0.5,1.1c0,0.1-0.1,0.2-0.1,0.3
			c0,0,0,0,0,0.1c-0.1,0.5-0.2,1-0.2,1.4c0,0.1,0,0.2,0,0.4c0,0.1,0,0.3,0.1,0.4c0,0.2,0,0.3,0.1,0.5c0.1,0.6,3.5,15.1,15.4,29.5
			c1.2,1.5,2.6,3,4.1,4.6c5.4,5.6,12.6,11.4,21.9,15.9c10.7,5.2,24.3,8.8,41.2,8.8c16.4,0,29.6-3.4,40.2-8.3
			c9.1-4.3,16.3-9.7,21.8-15.2c1.9-1.9,3.7-3.9,5.2-5.8c11.9-14.5,15.3-28.9,15.4-29.5c0.1-0.4,0.1-0.8,0.1-1.2c0-0.1,0-0.1,0-0.2
			C215.7,151.7,215.7,151.6,215.7,151.5z M104.5,93.9c0-21.5,12.7-39,28.4-39c15.6,0,28.4,17.5,28.4,39s-12.7,39-28.4,39
			C117.3,133,104.5,115.5,104.5,93.9z M133,201c-48.5,0-65.4-32-70.2-45l45.3-10.1c2.7,11.1,12.7,19.3,24.6,19.3
			c12.1,0,22.3-8.5,24.8-19.9c0.4-1.7,0.7-3.5,0.7-5.4c0,1.8-0.3,3.6-0.7,5.4l45.6,10.6C198.3,168.9,181.1,201,133,201z"/>
		<path fill="#5980B7" d="M225.3,85.7l7.1-10c1.7-2.4,1.2-5.7-1.1-7.5l-17-13.1c-1.2-0.9-2.7-1.3-4.2-1.1c-1.5,0.2-2.8,1.1-3.7,2.3
			L186.4,85c-1.7,2.4-1.1,5.8,1.2,7.5l16.9,12.6c1,0.7,2.1,1.1,3.3,1.1c0.3,0,0.6,0,0.9-0.1c1.5-0.2,2.8-1,3.6-2.3l6.8-9.6
			l24.5,17.1l6.1-8.6L225.3,85.7z M206.7,93l-8.2-6.1L212,67.4l8.3,6.4L206.7,93z"/>
		<path fill="#5980B7" d="M170.7,125.3l2.2,5.6c0.8,2.2,2.9,3.5,5.1,3.5c0.7,0,1.3-0.1,2-0.4c2.8-1.1,4.2-4.3,3.1-7.1l-2.2-5.6
			c-1.1-2.8-4.3-4.2-7.1-3.1C171,119.2,169.6,122.4,170.7,125.3z"/>
		<path fill="#5980B7" d="M204.4,128.7c-2.8,1.1-4.2,4.3-3.1,7.1c0.8,2.2,2.9,3.5,5.1,3.5c0.7,0,1.3-0.1,2-0.4l2.8-1.1
			c2.8-1.1,4.2-4.3,3.1-7.1c-1.1-2.8-4.3-4.2-7.1-3.1L204.4,128.7z"/>
	</g>
</g>
</svg>
