<?xml version="1.0" encoding="utf-8"?>
<!-- Generator: Adobe Illustrator 18.1.1, SVG Export Plug-In . SVG Version: 6.00 Build 0)  -->
<svg version="1.1" id="Layer_1" xmlns="http://www.w3.org/2000/svg" xmlns:xlink="http://www.w3.org/1999/xlink" x="0px" y="0px"
	 viewBox="0 0 300 300" enable-background="new 0 0 300 300" xml:space="preserve">
<g>
	<path fill="#FFFFFF" d="M190.4,161c-3,0-5.4-2.5-5.4-5.5v-30v-21.4l-24.9-13.7l-9.7-5.2L116,104.1v51.4c0,3-2.5,5.5-5.6,5.5h-1H75
		v51.2V247h48v-34.3c0-3,2.2-5.7,5.3-5.7h43.2c3,0,5.5,2.7,5.5,5.7V247h49v-34.8V161H190.4z M112,195.5c0,3-2.5,5.5-5.5,5.5h-20
		c-3,0-5.5-2.5-5.5-5.5v-20c0-3,2.5-5.5,5.5-5.5h20c3,0,5.5,2.5,5.5,5.5V195.5z M148,195.5c0,3-2.5,5.5-5.5,5.5h-20
		c-3,0-5.5-2.5-5.5-5.5v-20c0-3,2.5-5.5,5.5-5.5h20c3,0,5.5,2.5,5.5,5.5V195.5z M126.6,126.8c0-12.9,10.5-23.3,23.3-23.3
		s23.3,10.5,23.3,23.3c0,12.9-10.5,23.3-23.3,23.3S126.6,139.6,126.6,126.8z M183,195.5c0,3-2.5,5.5-5.5,5.5h-20
		c-3,0-5.5-2.5-5.5-5.5v-20c0-3,2.5-5.5,5.5-5.5h20c3,0,5.5,2.5,5.5,5.5V195.5z M219,195.5c0,3-2.5,5.5-5.5,5.5h-20
		c-3,0-5.5-2.5-5.5-5.5v-20c0-3,2.5-5.5,5.5-5.5h20c3,0,5.5,2.5,5.5,5.5V195.5z"/>
	<polygon fill="#CCCCCC" points="156,218.2 156,246 166,246 166,218 156,218 	"/>
	<polygon fill="#CCCCCC" points="145,218 134,218 134,246 145,246 145,218.2 	"/>
	<path fill="#FFFFFF" d="M149.9,114.4c-6.8,0-12.3,5.5-12.3,12.3c0,6.8,5.5,12.3,12.3,12.3s12.3-5.5,12.3-12.3
		C162.2,120,156.7,114.4,149.9,114.4z M154.9,133h-6c-1.7,0-2.9-1.4-2.9-3v-10c0-1.7,1.3-3,3-3s3,1.3,3,3v7h2.9c1.7,0,3,1.3,3,3
		S156.6,133,154.9,133z"/>
	<rect x="92" y="181" fill="#FFFFFF" width="9" height="9"/>
	<rect x="128" y="181" fill="#FFFFFF" width="9" height="9"/>
	<rect x="163" y="181" fill="#FFFFFF" width="9" height="9"/>
	<rect x="199" y="181" fill="#FFFFFF" width="9" height="9"/>
	<polygon fill="#CCCCCC" points="206.6,131 196,131 196,150 220.1,150 	"/>
	<polygon fill="#CCCCCC" points="104,131 92.9,131 79.4,150 104,150 	"/>
	<polygon fill="#CCCCCC" points="155,54.9 155,64.8 166.4,58.1 	"/>
	<path fill="#FFFFFF" d="M261,231.5c-1.4,0-3.1,0.4-4.9,1.2c-1.7,0.7-3.6,0.6-5.1-0.4c-1.5-1-2.5-2.6-2.6-4.4
		c-0.1-2.8-1.8-14-6.9-14c-0.9,0-2.5,0.3-4.5,1.4V247h33.2C269.3,241,266.7,231.5,261,231.5z"/>
	<path fill="#FFFFFF" d="M55.3,215.1c-2.6,2.6-3.3,9-3.2,12.4c0.1,1.9-0.8,3.7-2.4,4.7c-1.6,1.1-3.6,1.3-5.3,0.5
		c-1.9-0.8-3.5-1.2-5-1.2c-5.9,0-8.5,9.5-9.6,15.5H64v-31.5c-3-1.2-4.6-1.5-5.7-1.5C57,213.9,56.1,214.3,55.3,215.1z"/>
	<g>
		<path fill="#5980B7" d="M173.2,126.8c0-12.9-10.5-23.3-23.3-23.3s-23.3,10.5-23.3,23.3c0,12.9,10.5,23.3,23.3,23.3
			S173.2,139.6,173.2,126.8z M149.9,139.1c-6.8,0-12.3-5.5-12.3-12.3c0-6.8,5.5-12.3,12.3-12.3s12.3,5.5,12.3,12.3
			C162.2,133.6,156.7,139.1,149.9,139.1z"/>
		<path fill="#5980B7" d="M112,175.5c0-3-2.5-5.5-5.5-5.5h-20c-3,0-5.5,2.5-5.5,5.5v20c0,3,2.5,5.5,5.5,5.5h20c3,0,5.5-2.5,5.5-5.5
			V175.5z M101,190h-9v-9h9V190z"/>
		<path fill="#5980B7" d="M148,175.5c0-3-2.5-5.5-5.5-5.5h-20c-3,0-5.5,2.5-5.5,5.5v20c0,3,2.5,5.5,5.5,5.5h20c3,0,5.5-2.5,5.5-5.5
			V175.5z M137,190h-9v-9h9V190z"/>
		<path fill="#5980B7" d="M183,175.5c0-3-2.5-5.5-5.5-5.5h-20c-3,0-5.5,2.5-5.5,5.5v20c0,3,2.5,5.5,5.5,5.5h20c3,0,5.5-2.5,5.5-5.5
			V175.5z M172,190h-9v-9h9V190z"/>
		<path fill="#5980B7" d="M219,175.5c0-3-2.5-5.5-5.5-5.5h-20c-3,0-5.5,2.5-5.5,5.5v20c0,3,2.5,5.5,5.5,5.5h20c3,0,5.5-2.5,5.5-5.5
			V175.5z M199,181h9v9h-9V181z"/>
		<path fill="#5980B7" d="M154.9,127H152v-7c0-1.7-1.3-3-3-3s-3,1.3-3,3v10c0,1.7,1.3,3,2.9,3h6c1.7,0,3-1.3,3-3
			S156.6,127,154.9,127z"/>
		<path fill="#5980B7" d="M261,220.5c-0.8,0-1.7,0.1-2.5,0.2c-1.9-8.4-6.7-17.8-16.9-17.8c-1.5,0-3.5,0.2-4.5,0.6v-48.1
			c0-2-1.1-3.8-2.8-4.8l-20.3-28.4c-1-1.4-2.7-2.3-4.5-2.3H196v-10.4c2,0.8,5.3-0.2,6.6-2.6c1.4-2.7,0.4-6-2.3-7.4l-35-18.8
			l-8.1-4.5L183,61.1c1.9-1.1,3-3.3,2.7-5.4c-0.3-2.2-1.8-4-4-4.6l-30.8-8.7c-1.7-0.5-3.4-0.1-4.8,0.9c-1.4,1-2.2,2.7-2.2,4.4V76
			l-44.6,24.2c-2.7,1.5-3.7,4.8-2.2,7.5c1,1.8,2.9,2.9,4.8,2.9c0.9,0,1.8-0.2,2.7-0.7l0.3-0.2V120H90.1c-1.8,0-3.4,0.8-4.5,2.3
			l-21.4,30c-1.2,1.7-1.3,3.9-0.4,5.7c0,0.1,0.2,0.1,0.2,0.2v45.6c-2-0.6-3.9-0.8-5.7-0.8c-4.3,0-8,1.6-10.9,4.6
			c-3.5,3.7-5.1,8.9-5.8,13.1c-0.7-0.1-1.4-0.1-2.1-0.1c-16.1,0-20.9,20-21.2,31.8c0,1.5,0.5,2.9,1.6,4c1,1.1,2.5,1.7,3.9,1.7h45.7
			h162h44.8c1.5,0,2.9-0.6,3.9-1.7s1.6-2.5,1.6-3.9C281.6,240.6,277,220.5,261,220.5z M64,247H29.9c1.1-6,3.7-15.5,9.6-15.5
			c1.4,0,3.1,0.4,5,1.2c1.7,0.8,3.7,0.6,5.3-0.5c1.6-1.1,2.5-2.9,2.4-4.7c-0.1-3.4,0.7-9.7,3.2-12.4c0.8-0.8,1.7-1.2,3-1.2
			c1.1,0,2.7,0.3,5.7,1.5V247z M206.6,131l13.5,19H196v-19H206.6z M155,54.9l11.4,3.2L155,64.8V54.9z M92.9,131H104v19H79.4
			L92.9,131z M166,218v28h-10v-27.8V218H166z M145,218.2V246h-11v-28h11V218.2z M171.5,207h-43.2c-3,0-5.3,2.7-5.3,5.7V247H75v-34.8
			V161h34.4h1c3,0,5.6-2.5,5.6-5.5v-51.4l34.4-18.9l9.7,5.2l24.9,13.7v21.4v30c0,3,2.4,5.5,5.4,5.5H226v51.2V247h-49v-34.3
			C177,209.7,174.5,207,171.5,207z M237,247v-31.7c2-1.1,3.6-1.4,4.5-1.4c5.1,0,6.7,11.3,6.9,14c0.1,1.8,1,3.5,2.6,4.4
			c1.5,1,3.4,1.1,5.1,0.4c1.9-0.8,3.5-1.2,4.9-1.2c5.8,0,8.3,9.5,9.3,15.5H237z"/>
	</g>
</g>
</svg>
