<?xml version="1.0" encoding="utf-8"?>
<!-- Generator: Adobe Illustrator 18.1.1, SVG Export Plug-In . SVG Version: 6.00 Build 0)  -->
<svg version="1.1" id="Layer_1" xmlns="http://www.w3.org/2000/svg" xmlns:xlink="http://www.w3.org/1999/xlink" x="0px" y="0px"
	 viewBox="0 0 300 300" enable-background="new 0 0 300 300" xml:space="preserve">
<g>
	<path fill="#FFFFFF" d="M177.3,242.3c6.9-6.1,22.7-17.3,44.5-17.3c0.2,0,0.4,0,0.6,0l-0.6-25.9l-42,18.3c-0.7,0.3-1.5,0.5-2.2,0.5
		c-1,0-1.9-0.2-2.8-0.7l-23.5-13.6l-9.6,21.8C151.8,227.4,164.7,232,177.3,242.3z"/>
	<path fill="#FFFFFF" d="M155.9,193.4l22.1,12.8l54.6-23.8l-43-3.3c-3-0.2-5.3-2.9-5.1-5.9c0.2-3,2.8-5.3,5.9-5.1l38.3,2.9l-53.5-22
		L155.9,193.4z"/>
	<path fill="#CCCCCC" d="M259.7,204.5l-1.1,0h0c-1.4,0-2.7,0.5-3.6,1.5c-0.9,0.9-1.4,2.1-1.3,3.4l0.3,13.2l10.9,0.1l-0.3-13.5
		C264.5,206.6,262.3,204.5,259.7,204.5z"/>
	<path fill="#FFFFFF" d="M130.3,196.4c-1,0.9-2.3,1.4-3.6,1.4c-1.2,0-2.4-0.4-3.4-1.2l-20.8-16.7l24.2,52.7l23.6-53.6L130.3,196.4z"
		/>
	<path fill="#CCCCCC" d="M54.9,78l36.8,79.6l34.8,27.8l33.1-28.6L195.7,78H54.9z M92,150.7v-14.1c0-2.2,2-3.6,4.2-3.6H99v-27h-2.8
		c-2.2,0-4.2-2.5-4.2-4.7v-14c0-2.2,2-3.3,4.2-3.3h33.5c22.4,0,36.8,13.5,36.8,34.9c0,22.1-14.4,36.1-36.8,36.1H96.2
		C94,155,92,152.9,92,150.7z"/>
	<path fill="#CCCCCC" d="M141.1,118.8c0-4.5-1.5-11.8-11.3-11.8H125v25h4.7C139.6,132,141.1,123.8,141.1,118.8z"/>
	<rect x="35" y="56" fill="#FFFFFF" width="184" height="11"/>
	<path fill="#FFFFFF" d="M158.5,118.9c0-17-10.8-26.9-28.8-26.9H100v6h3c2.2,0,4,1.1,4,3.3v35.3c0,2.2-1.8,4.4-4,4.4h-3v6h29.7
		C147.8,147,158.5,136.6,158.5,118.9z M117,135.6v-33.4c0-2.2,1.3-3.1,3.6-3.1h9.2c11.7,0,19.3,7.6,19.3,19.8
		c0,13-7.6,21.2-19.3,21.2h-9.2C118.3,140,117,137.8,117,135.6z"/>
	<path fill="#FFFFFF" d="M240.3,128.6c-0.2-0.4-0.3-0.9-0.4-1.3C239.9,127.7,240,128.1,240.3,128.6z"/>
	<path fill="#FFFFFF" d="M244.1,131.3c-0.7-0.1-1.3-0.3-1.8-0.6C242.8,131,243.4,131.2,244.1,131.3z"/>
	<path fill="#FFFFFF" d="M225.9,114c-7.7,0-13.9,6-13.9,13.7c0,7.7,6.2,13.8,13.9,13.8s13.9-6.3,13.9-14c0-0.1,0-0.3,0-0.4
		c0-0.2,0-0.1,0-0.4c0-2.8,2.2-4.7,5-4.7h12l3.7-8H225.9z M225.6,133.9c-3.8,0-6.9-3.1-6.9-6.9s3.1-6.9,6.9-6.9s6.9,3.1,6.9,6.9
		S229.4,133.9,225.6,133.9z"/>
	<g>
		<path fill="#5980B7" d="M275.5,208.9c-0.2-7.7-5.8-13.9-13.2-15.1c-0.8-0.1-1.7-0.3-2.6-0.3c0.9,0,1.7,0.1,2.6,0.3l-0.3-12.5
			c1.1-1,1.7-2.5,1.7-4c0-2.2-1.4-4.2-3.4-5L179.9,139l6.7-15.3l1.8-3.6L207.8,78h16.2c3,0,5.9-3.4,5.9-6.4v-22c0-3-2.9-4.6-5.9-4.6
			H29.4c-3,0-5.4,1.5-5.4,4.6v22c0,3,2.4,6.4,5.4,6.4h13.3l79,170.9c0.9,2,2.9,3.1,5,3.1c0,0,0,0,0,0c2.2,0,4.1-1.5,5-3.5l5.5-12.6
			c9.6,1.7,23.6,6.1,36.6,18c1,0.9,2.3,1.4,3.7,1.4c0.1,0,0.2,0,0.3,0c1.5-0.1,2.8-0.7,3.8-1.8c0.2-0.2,18.1-20,45.9-17.1
			c1.6,0.2,3.1-0.4,4.3-1.4c1.2-1.1,1.8-2.6,1.8-4.2l-0.8-36.3l18.4-8l-0.1-2.5l-18.5-1.4L178,206.2l-22.1-12.8l19.5-44.3l53.4,22
			l-38.3-2.9c-3.1-0.2-5.7,2-5.9,5.1c-0.2,3,2,5.7,5.1,5.9l43,3.3l18.5,1.4l0.1,2.5l0.2,8.8c-1.6,0.8-3,1.8-4.3,3.1
			c-3,3-4.6,7.1-4.5,11.3l0.4,18.6c0.1,3,2.5,5.5,5.5,5.5l21.9,0.3c0,0,0,0,0,0c1.5,0,2.9-0.7,3.9-1.8c1-1.1,1.6-2.6,1.6-4.1
			L275.5,208.9z M35,67V56h184v11H35z M54.9,78h140.9l-36.1,78.6l-33.1,28.8l-34.8-27.6L54.9,78z M126.6,232.6l-24.2-52.7l20.8,16.7
			c1,0.8,2.2,1.2,3.4,1.2c1.3,0,2.6-0.5,3.6-1.4l20-17.5L126.6,232.6z M174.9,217.2c0.8,0.5,1.8,0.7,2.8,0.7c0.7,0,1.5-0.2,2.2-0.5
			l42-18.3l0.6,25.9c-0.2,0-0.4,0-0.6,0c-21.9,0-37.6,11.2-44.5,17.3c-12.6-10.2-25.6-14.9-35.5-16.9l9.6-21.8L174.9,217.2z
			 M253.9,222.6l-0.3-13.2c0-1.3,0.4-2.4,1.3-3.4c0.9-1,2.2-1.5,3.6-1.5h0l1.1,0c2.7,0,4.8,2.1,4.9,4.6l0.3,13.5L253.9,222.6z"/>
		<path fill="#5980B7" d="M96.2,155h33.5c22.4,0,36.8-14,36.8-36.1c0-21.3-14.4-34.9-36.8-34.9H96.2C94,84,92,85,92,87.3v14
			c0,2.2,2,4.7,4.2,4.7H99v27h-2.8c-2.2,0-4.2,1.4-4.2,3.6v14.1C92,152.9,94,155,96.2,155z M100,141h3c2.2,0,4-2.2,4-4.4v-35.3
			c0-2.2-1.8-3.3-4-3.3h-3v-6h29.7c18,0,28.8,9.9,28.8,26.9c0,17.8-10.8,28.1-28.8,28.1H100V141z"/>
		<path fill="#5980B7" d="M149.1,118.8c0-12.2-7.6-19.8-19.3-19.8h-9.2c-2.2,0-3.6,0.9-3.6,3.1v33.4c0,2.2,1.3,4.4,3.6,4.4h9.2
			C141.5,140,149.1,131.8,149.1,118.8z M125,107h4.7c9.9,0,11.3,7.3,11.3,11.8c0,5-1.5,13.2-11.3,13.2H125V107z"/>
		<path fill="#5980B7" d="M202,127.7c0,13.2,10.7,24.1,23.9,24.1c11.8,0,21.7-8.8,23.6-19.8H260c2,0,3.7-1.4,4.5-3.2l8.3-18.2
			c0.7-1.5,0.6-3.1-0.3-4.6s-2.5-2.1-4.2-2.1h-42.4C212.7,104,202,114.5,202,127.7z M239.8,127.2c0.1,0.5,0.2,0.9,0.4,1.3
			C240,128.1,239.9,127.7,239.8,127.2z M242.3,130.7c0.5,0.3,1.2,0.5,1.8,0.6C243.4,131.2,242.8,131,242.3,130.7z M256.8,122h-12
			c-2.8,0-5,1.9-5,4.7c0,0.2,0,0.3,0,0.5c0,0.1,0,0.2,0,0.3c0,7.7-6.2,13.8-13.9,13.8s-13.9-6-13.9-13.7c0-7.7,6.2-13.7,13.9-13.7
			h34.6L256.8,122z"/>
		<circle fill="#5980B7" cx="225.6" cy="126.9" r="6.9"/>
		<path fill="#5980B7" d="M222,87.4v7c0,2.8,2.2,5,5,5s5-2.2,5-5v-7c0-2.8-2.2-5-5-5S222,84.6,222,87.4z"/>
		<path fill="#5980B7" d="M240.5,100.2c1.4,0,2.8-0.6,3.8-1.7l2.2-2.5c1.8-2.1,1.6-5.2-0.5-7.1c-2.1-1.8-5.2-1.6-7.1,0.5l-2.2,2.5
			c-1.8,2.1-1.6,5.2,0.5,7.1C238.2,99.8,239.3,100.2,240.5,100.2z"/>
		<path fill="#5980B7" d="M213.1,100.2c1.2,0,2.3-0.4,3.3-1.2c2.1-1.8,2.3-5,0.5-7.1l-2.2-2.5c-1.8-2.1-5-2.3-7.1-0.5
			c-2.1,1.8-2.3,5-0.5,7.1l2.2,2.5C210.3,99.6,211.6,100.2,213.1,100.2z"/>
	</g>
</g>
</svg>
