<?xml version="1.0" encoding="utf-8"?>
<!-- Generator: Adobe Illustrator 18.1.1, SVG Export Plug-In . SVG Version: 6.00 Build 0)  -->
<svg version="1.1" id="Layer_1" xmlns="http://www.w3.org/2000/svg" xmlns:xlink="http://www.w3.org/1999/xlink" x="0px" y="0px"
	 viewBox="0 0 300 300" enable-background="new 0 0 300 300" xml:space="preserve">
<g>
	<path fill="none" d="M115.6,230.4c-0.7-10.4,3.7-19.6,12.2-25.8c6.2-4.6,8.1-12.2,4.6-18.6c3.5,6.4,1.6,14-4.7,18.6
		C119.3,210.8,115,220,115.6,230.4c1,16.2,17.6,29.8,37.8,31c1,0.1,2,0.1,3,0.1c0,0,0,0,0,0c-1,0-2,0-3-0.1
		C133.3,260.2,116.7,246.6,115.6,230.4z"/>
	<path fill="none" d="M159.5,158.8c-1-0.1-2-0.1-3-0.1C157.5,158.7,158.5,158.7,159.5,158.8c10.1,0.9,18.4,6.7,21.1,14.3
		C177.9,165.5,169.6,159.8,159.5,158.8z"/>
	<path fill="none" d="M150.6,148.1c-1.2,0.2-2.6,0.5-4.1,0.9c1.5-0.4,3-0.7,4.6-0.9c1.7-0.2,3.5-0.3,5.3-0.3c0,0-0.1,0-0.1,0
		C154.4,147.7,152.6,147.8,150.6,148.1z"/>
	<path fill="#FFFFFF" d="M232.7,86.8L157,42.5V57h18.9c3,0,6.1,2.5,6.1,5.6v38.7c0,3-3.1,5.7-6.1,5.7h-2.9h0.1v9.1L232.7,86.8z
		 M192.3,66.8c3.6,0,6.6,2.8,6.6,6.3s-2.9,6.3-6.6,6.3c-3.6,0-6.6-2.8-6.6-6.3S188.7,66.8,192.3,66.8z M192.3,86.7
		c3.6,0,6.6,2.8,6.6,6.3c0,3.5-2.9,6.3-6.6,6.3c-3.6,0-6.6-2.8-6.6-6.3C185.8,89.5,188.7,86.7,192.3,86.7z"/>
	<path fill="#FFFFFF" d="M110.6,196.2l4,5.5c2-2.2,4.2-4.2,6.7-6.1c1.4-1,2.5-2.7,1.5-4.4c-0.3-0.5-0.5-1.1-0.8-1.6L110.6,196.2
		L110.6,196.2z"/>
	<path fill="#FFFFFF" d="M109.6,139.7c-3.9-6.3-11.2-10.2-18.9-10.2c-4,0-7.9,1-11.4,3c-5.1,2.9-8.6,7.5-10,13
		c-1.3,5.3-0.4,10.7,2.5,15.4c3.9,6.3,11.2,10.2,18.9,10.2c0.7,0,1.4,0,2-0.1l16.4-9.4c1.3-2,2.3-4.1,2.9-6.5
		C113.4,149.8,112.6,144.3,109.6,139.7z"/>
	<polygon fill="#CCCCCC" points="118.7,178.8 114.7,171.1 98.9,180.2 104.1,187.3 	"/>
	<path fill="#CCCCCC" d="M151.1,107L151.1,107l-0.1,41.1c2-0.2,3.6-0.3,5.5-0.3c0,0,0,0,0,0c0,0,0,0,0,0c1.3,0,2.8,0.1,4.2,0.2
		c0.4,0,0.3,0.1,1.3,0.1v-41H151.1z"/>
	<path fill="#FFFFFF" d="M159.7,158.8c-1-0.1-1.9-0.1-2.9-0.1c-13.8,0-24.8,8.8-24.8,19.6v0.5c0,3-0.2,5.4,0.7,7.1
		c3.5,6.4,1.5,14-4.8,18.6c-8.5,6.3-12.9,15.4-12.3,25.8c1,16.2,17.6,29.8,37.8,31c1,0.1,2,0.1,3,0.1c11.1,0,21.5-3.5,29.3-9.9
		c7.5-6.2,11.6-14.3,11.6-22.8c0-10.6-3.8-18.7-11.2-24.2c-4.6-3.4-6.9-8.4-6.3-13.4c-0.2-1.5,0.1-2.9,0.4-4.4
		c0.1-0.5-0.4-0.9,0.6-1.4v-12.2C178,165.5,169.8,159.8,159.7,158.8z M156.5,181.9c6,0,10.9,4.7,10.9,10.5c0,5.8-4.9,10.5-10.9,10.5
		c-6,0-10.9-4.7-10.9-10.5C145.6,186.6,150.5,181.9,156.5,181.9z M181.1,225.5c0,3-2.5,5.5-5.5,5.5h-38c-3,0-5.5-2.5-5.5-5.5
		s2.5-5.5,5.5-5.5h38C178.6,220,181.1,222.5,181.1,225.5z"/>
	<rect x="143" y="68" fill="#FFFFFF" width="28" height="28"/>
	<path fill="#CCCCCC" d="M191.1,190.6c0.6,1.4,2.7,3.4,6.3,4.4c1.4,0.4,2.9,0.6,4.4,0.6c3.8,0,6.5-1.5,7.1-2.8
		c0.1-0.2,0.3-0.7-0.1-1.6c-0.6-1.4-2.7-3.4-6.3-4.4c-1.4-0.4-2.9-0.6-4.4-0.6c-3.8,0-6.5,1.5-7.1,2.8
		C190.9,189.1,190.6,189.6,191.1,190.6z"/>
	<path fill="#CCCCCC" d="M248.3,198.7c-1.4-0.4-2.9-0.6-4.4-0.6c-3.8,0-6.5,1.5-7.1,2.8c-0.1,0.2-0.3,0.7,0.1,1.6
		c0.6,1.4,2.7,3.4,6.3,4.4c1.4,0.4,2.9,0.6,4.4,0.6c0,0,0,0,0,0c3.8,0,6.5-1.5,7.1-2.8c0.1-0.2,0.3-0.7-0.1-1.6
		C253.9,201.7,251.9,199.7,248.3,198.7z"/>
	<polygon fill="#FFFFFF" points="192,151.1 225,157.6 225,149.7 192,142.3 	"/>
	<g>
		<path fill="#5980B7" d="M69.3,116.6c13.4-8,27.8-3.1,28.1-3c2.8,1,6-0.4,7-3.3c1-2.9-0.4-6-3.3-7.1c-0.8-0.3-19.4-6.9-37.5,3.8
			c-20.4,12.1-21.7,28.8-22.3,36c-0.2,3,2,5.7,5,5.9c0.1,0,0.3,0,0.4,0c2.8,0,5.2-2.2,5.5-5.1C52.9,137.6,53.8,125.8,69.3,116.6z"/>
		<path fill="#5980B7" d="M44.5,117.7c8.4-16.1,26.3-19.2,26.5-19.3c3-0.5,5-3.3,4.6-6.3c-0.5-3-3.3-5.1-6.3-4.6
			c-1,0.1-23.6,3.9-34.6,25.1c-1.4,2.7-0.3,6,2.3,7.4c0.8,0.4,1.7,0.6,2.5,0.6C41.6,120.7,43.6,119.6,44.5,117.7z"/>
		<ellipse fill="#5980B7" cx="156.5" cy="192.3" rx="10.9" ry="10.5"/>
		<path fill="#5980B7" d="M175.6,220h-38c-3,0-5.5,2.5-5.5,5.5s2.5,5.5,5.5,5.5h38c3,0,5.5-2.5,5.5-5.5S178.6,220,175.6,220z"/>
		<ellipse fill="#5980B7" cx="192.3" cy="93" rx="6.6" ry="6.3"/>
		<ellipse fill="#5980B7" cx="192.3" cy="73.1" rx="6.6" ry="6.3"/>
		<ellipse fill="#5980B7" cx="119.8" cy="93" rx="6.6" ry="6.3"/>
		<ellipse fill="#5980B7" cx="119.8" cy="73.1" rx="6.6" ry="6.3"/>
		<path fill="#5980B7" d="M264.6,198.4c-2.2-4.7-7-8.5-13.1-10.3c-2.4-0.7-4.8-1.1-7.3-1.1c-3.1,0-6.2,0.5-8.2,1.5v-24.3v-19
			c0-2.6-2-4.8-4.5-5.4l-44.1-9.8c-1.6-0.4-3.2,0-4.5,1.1c-1.3,1-1.9,2.6-1.9,4.3v20.1c-3-1.8-4.9-3.3-7.6-4.5
			c-0.1-0.1-0.4-0.1-0.4-0.1v-22.6l73.6-36.2c1.8-0.9,3-2.7,3.1-4.7c0.1-2-1-3.9-2.7-4.9l-93-54.3c-1.7-1-3.6-1-5.3,0
			c-1.7,1-2.6,2.8-2.6,4.8V57h-9.3c-3,0-4.7,2.5-4.7,5.6v38.7c0,3,1.7,5.7,4.7,5.7h3.3v24.8v19.3v0.2c-7,3.1-12.4,7.9-15.7,13.8
			l-2.3-4.2c0,0-0.1,0-0.1,0c0,0,0,0,0,0c0.4-1,0.7-2.1,0.9-3.1c2-8.2,0.7-16.7-3.9-23.9c-6-9.6-16.6-15.3-28.2-15.3
			c-5.9,0-11.8,1.6-16.9,4.5c-7.7,4.4-13.1,11.5-15.1,19.9c-2,8.2-0.7,16.7,3.9,23.9c5.3,8.4,14,13.8,23.9,15l8.6,11.8l-8.6-11.8
			l16.8,23l1.9,2.5l3,4.3c-1.5,3.2-2.5,6.6-3.1,10.2c-8.4-6.9-19.9-13.7-31.9-13.9c-8.8-0.2-14.5,2.3-17.3,7.3
			c-4.3,8,2.1,17.9,2.8,19c1.7,2.5,5.1,3.2,7.6,1.5c1.3-0.9,2.1-2.2,2.3-3.6c0.2-1.4,0-2.8-0.8-4c-1.4-2.1-3-6.3-2.3-7.6
			c0.3-0.6,2.3-1.7,7.4-1.6c12.7,0.2,25.5,11.1,32.6,18.3c0,0.1,0.1,0.3,0.1,0.4c0.1,0.4,0.2,0.7,0.3,1.1
			c5.1,18.3,23.9,32.6,46.9,33.9c1.2,0.1,2.5,0.4,3.7,0.4c0,0,0,0,0,0c13.7,0,26.6-4.7,36.3-12.7c10.1-8.3,15.6-19.5,15.6-31.4
			c0-8.4-2-15.9-5.8-22.2c-0.3,0-0.3,0,0.1,0c7.6-0.3,13.7-3.9,16.1-9.4c1.5-3.4,1.4-7.2-0.2-10.7c-2.2-4.7-7-8.5-13.1-10.3
			c-2.4-0.7-5-1.1-7.5-1.1c-2,0-3.9,0.2-5.7,0.6c0-0.2,0.1-0.4,0.1-0.6c-0.1-1.2-0.5-2.4-0.5-3.6v-9.2l33,6.5v33.9
			c0,1.9,0.8,3.6,2.3,4.6c2.2,4.7,6.9,8.6,13,10.4c2.4,0.7,4.9,1.3,7.4,1.3c0,0,0,0,0,0c8,0,14.6-3.8,17.2-9.7
			C266.3,205.9,266.2,201.9,264.6,198.4z M157,42.5l75.7,44.3L173,116.1V107h-0.1h2.9c3,0,6.1-2.7,6.1-5.7V62.6c0-3-3.1-5.6-6.1-5.6
			H157V42.5z M143,68h28v28h-28V68z M162,107v41c-1,0-0.9-0.1-1.3-0.1c-1.3-0.1-2.8-0.2-4.1-0.2c0,0-0.1,0-0.2,0
			c-1.8,0-3.4,0.1-5.2,0.3c-0.2,0-0.3,0.1-0.3,0.1v-0.1v-16.3V107h0.1H162z M92.8,171c-0.7,0.1-1.4,0.1-2,0.1
			c-7.7,0-14.9-3.9-18.9-10.2c-2.9-4.6-3.8-10.1-2.5-15.4c1.4-5.5,4.9-10.1,10-13c3.4-2,7.4-3,11.4-3c7.7,0,14.9,3.9,18.9,10.2
			c2.9,4.6,3.8,10.1,2.5,15.4c-0.6,2.4-1.6,4.5-2.9,6.5h0L92.8,171L92.8,171z M104.1,187.3l-5.2-7.1l15.8-9.1l4,7.8L104.1,187.3z
			 M113.4,200l-2.8-3.8l0,0l11.4-6.6l0,0c0.2,0.5,0.5,1.1,0.8,1.6c1,1.8-0.1,3.5-1.5,4.4c-2.5,1.8-4.7,3.9-6.7,6.1L113.4,200z
			 M185.8,251.5c-7.8,6.4-18.2,9.9-29.3,9.9c0,0,0,0,0,0c-1,0-2,0-3-0.1c-20.2-1.2-36.8-14.8-37.8-31c-0.7-10.4,3.7-19.6,12.2-25.8
			c6.2-4.6,8.4-12.2,4.9-18.6c-1-1.8-0.7-4.1-0.7-7.1v-0.5c0-10.8,11-19.6,24.7-19.6c1,0,1.9,0,2.9,0.1c10.1,0.9,18.4,6.7,21,14.3
			c0,0-0.9,16.5-0.7,18c-0.6,5,1.6,10,6.3,13.4c7.4,5.4,11.2,13.6,11.2,24.2C197.4,237.2,193.3,245.3,185.8,251.5z M198,186.1
			c1.5,0,2.9,0.2,4.4,0.6c3.6,1.1,5.6,3,6.3,4.4c0.4,0.9,0.2,1.4,0.1,1.6c-0.6,1.4-3.3,2.8-7.1,2.8c-1.5,0-2.9-0.2-4.4-0.6
			c-3.6-1.1-5.6-3-6.3-4.4c-0.4-0.9-0.2-1.4-0.1-1.6C191.6,187.6,194.2,186.1,198,186.1z M225,157.6l-33-6.5v-8.8l33,7.4V157.6z
			 M254.7,204.7c-0.6,1.4-3.3,2.8-7.1,2.8c0,0,0,0,0,0c-1.5,0-2.9-0.2-4.4-0.6c-3.6-1.1-5.6-3-6.3-4.4c-0.4-0.9-0.2-1.4-0.1-1.6
			c0.6-1.4,3.3-2.8,7.1-2.8c1.5,0,2.9,0.2,4.4,0.6c3.6,1.1,5.6,3,6.3,4.4C255,204,254.8,204.5,254.7,204.7z"/>
	</g>
</g>
</svg>
