<?xml version="1.0" encoding="utf-8"?>
<!-- Generator: Adobe Illustrator 18.1.1, SVG Export Plug-In . SVG Version: 6.00 Build 0)  -->
<svg version="1.1" id="Layer_1" xmlns="http://www.w3.org/2000/svg" xmlns:xlink="http://www.w3.org/1999/xlink" x="0px" y="0px"
	 viewBox="0 0 300 300" enable-background="new 0 0 300 300" xml:space="preserve">
<g>
	<path fill="#FFFFFF" d="M61,87v57.4c3-4.3,5.6-8.9,8.5-13.5c15.7-25.2,26.6-34.2,35.7-30.2c6.5,2.8,12,9.7,17.7,17.1
		c8.4,10.9,17.2,22.1,28.5,19.9c6.4-1.3,10.2-3.9,14.2-6.7c4.3-3,8.9-6.4,16.4-7.2c5-0.5,9.1,1.3,12.1,4.2V87H61z M150.8,128.3
		c-10,0-18.1-8.1-18.1-18.1s8.1-18.1,18.1-18.1c10,0,18.1,8.1,18.1,18.1S160.7,128.3,150.8,128.3z"/>
	<path fill="#FFFFFF" d="M194,150.5c-2-5.5-5.7-16.3-11-15.7c-4.6,0.5-7.3,2.5-11.2,5.2c-4.3,3-9.6,6.8-18.3,8.5
		c-18,3.5-29.7-11.7-39.2-23.9c-4.5-5.8-9.2-11.9-13-13.7c-0.8,0.2-7.5,1.7-23.3,27.5c-5,8.1-9.4,16.6-12.5,21.6H92v-0.4
		c0-3,3.1-5.6,6.1-5.6h59.6c3,0,5.3,2.6,5.3,5.6v0.4h31V150.5z"/>
	<rect x="103" y="165" fill="#FFFFFF" width="49" height="5"/>
	<path fill="#CCCCCC" d="M150.8,103.2c-3.9,0-7.1,3.2-7.1,7.1s3.2,7.1,7.1,7.1c3.9,0,7.1-3.2,7.1-7.1S154.7,103.2,150.8,103.2z"/>
	<path fill="#FFFFFF" d="M236,120.9l-8.9-3.2c-0.4-0.2-0.9-0.2-1.3-0.2c-1.7,0-3.1,1-3.7,2.6l-16.6,46l16.3,6l16.6-46
		C239.1,123.9,238,121.6,236,120.9z"/>
	<path fill="#FFFFFF" d="M181.7,232c-0.8,2.3,0.4,4.9,2.7,5.8l7.8,2.8c0.5,0.2,1,0.3,1.5,0.3c1.9,0,3.6-1.2,4.3-3l20-55.6l-16.3-6
		L181.7,232z"/>
	<g>
		<path fill="#5980B7" d="M150.8,128.3c10,0,18.1-8.1,18.1-18.1s-8.1-18.1-18.1-18.1c-10,0-18.1,8.1-18.1,18.1
			S140.8,128.3,150.8,128.3z M150.8,103.2c3.9,0,7.1,3.2,7.1,7.1s-3.2,7.1-7.1,7.1c-3.9,0-7.1-3.2-7.1-7.1S146.9,103.2,150.8,103.2z
			"/>
		<path fill="#5980B7" d="M246.6,186.2l-14.9-9.5l17-47.1c2.8-7.8-1.2-16.3-9-19.1l-8.9-3.2c-1.6-0.6-3.3-0.9-5.1-0.9
			c-6.3,0-12.2,4-14.3,9.9l-6.4,17.1V81.9c0-3-2.1-5.9-5.2-5.9H133V53.6c0-3-2.5-5.5-5.5-5.5s-5.5,2.5-5.5,5.5V76H56.5
			c-3,0-6.5,2.9-6.5,5.9v85.5c0,0,0.3,0,0.3,0c0.1,3.9,3.4,4,3.4,4l38.4,0.2v0.4v4.5c0,3,3.1,4.5,6.1,4.5h3.4l-26.9,54.3
			c-1.4,2.7-0.4,6.2,2.4,7.5c0.8,0.4,1.6,0.7,2.4,0.7c2,0,3.9-1.1,4.9-3l29.1-58.8l0.2-0.7h8.4v41.6c0,3,2.5,5.5,5.5,5.5
			s5.5-2.5,5.5-5.5V181h11.3l0.2,0.7l25.9,52.2c0.2,6.2,4.1,12,10.2,14.2l7.8,2.9c1.7,0.6,3.5,0.9,5.3,0.9c6.5,0,12.4-4.1,14.6-10.3
			l17.3-48.1l5.9,12.9c0.9,2,2.9,3.2,5,3.2c0.8,0,1.5-0.2,2.3-0.5c2.8-1.3,4-4.5,2.7-7.3l-3.8-8.2l2.9,1.8c0.9,0.6,1.9,0.9,2.9,0.9
			c1.8,0,3.6-0.9,4.6-2.5C250,191.2,249.2,187.8,246.6,186.2z M61,145.2V87h133.5l-0.2,40.7c-3.2-2.9-7.3-4.6-12.3-4.1
			c-7.4,0.8-12.3,4.2-16.5,7.2c-4,2.8-7.8,5.5-14.1,6.8c-11.3,2.2-20-9-28.4-19.9c-5.7-7.3-11.1-14.3-17.5-17.1
			c-9.2-4-19.8,5.1-35.5,30.2c-2.9,4.6-5.8,9.2-8.2,13.5C61.5,144.7,61,144.9,61,145.2z M98.1,154c-3,0-6.1,2.6-6.1,5.6v0.4H65.6
			c3-5,7.4-13.4,12.3-21.4c15.8-25.8,22.4-27.7,23.3-27.9c3.8,1.8,8.5,7.9,13.1,13.7c9.5,12.2,21.3,27.5,39.2,24
			c8.7-1.7,14.1-5.5,18.4-8.5c3.9-2.8,6.7-4.7,11.3-5.2c5.3-0.5,9.7,10.2,11.1,15.7c0.1,0.2-0.2,0.4-0.1,0.6c0,0.1-0.2,0.1-0.2,0.2
			v8.8h-31v-0.4c0-3-2.2-5.6-5.3-5.6H98.1z M152,170h-49v-5h49V170z M174.5,218L156,182v-1h1.7c3,0,5.3-1.5,5.3-4.5V172v-1h30.6
			L174.5,218z M198,237.9c-0.6,1.8-2.4,3-4.3,3c-0.5,0-1-0.1-1.5-0.3l-7.8-2.8c-2.3-0.8-3.6-3.4-2.7-5.8l20-55.7l16.3,6L198,237.9z
			 M221.8,171.9l-16.3-6l16.6-46c0.6-1.6,2.1-2.6,3.7-2.6c0.5,0,0.9,0.1,1.3,0.2l8.9,3.2c2,0.7,3.1,3,2.4,5L221.8,171.9z"/>
	</g>
</g>
</svg>
