<?xml version="1.0" encoding="utf-8"?>
<!-- Generator: Adobe Illustrator 18.1.1, SVG Export Plug-In . SVG Version: 6.00 Build 0)  -->
<svg version="1.1" id="Layer_1" xmlns="http://www.w3.org/2000/svg" xmlns:xlink="http://www.w3.org/1999/xlink" x="0px" y="0px"
	 viewBox="0 0 300 300" enable-background="new 0 0 300 300" xml:space="preserve">
<g>
	<g>
		<ellipse fill="#CCCCCC" cx="150" cy="222.8" rx="79.8" ry="21.5"/>
	</g>
	<g>
		<circle fill="#FFFFFF" cx="150" cy="149.2" r="88"/>
	</g>
	<g>
		<circle fill="#5980B7" cx="103" cy="208.1" r="3.3"/>
		<circle fill="#5980B7" cx="117.9" cy="208.1" r="3.3"/>
		<circle fill="#5980B7" cx="132.8" cy="208.1" r="3.3"/>
		<circle fill="#5980B7" cx="147.7" cy="208.1" r="3.3"/>
		<circle fill="#5980B7" cx="162.6" cy="208.1" r="3.3"/>
		<circle fill="#5980B7" cx="177.6" cy="208.1" r="3.3"/>
		<circle fill="#5980B7" cx="192.5" cy="208.1" r="3.3"/>
		<circle fill="#5980B7" cx="124.9" cy="220.4" r="3.3"/>
		<circle fill="#5980B7" cx="139.8" cy="220.4" r="3.3"/>
		<circle fill="#5980B7" cx="154.7" cy="220.4" r="3.3"/>
		<circle fill="#5980B7" cx="169.7" cy="220.4" r="3.3"/>
		<circle fill="#5980B7" cx="88" cy="183.6" r="3.3"/>
		<circle fill="#5980B7" cx="103" cy="183.6" r="3.3"/>
		<path fill="#5980B7" d="M117.9,186.9c1.8,0,3.3-1.5,3.3-3.3c0-0.3-0.1-0.6-0.1-0.9c-2-0.3-4-0.6-5.9-1c-0.4,0.5-0.6,1.2-0.6,1.9
			C114.6,185.4,116.1,186.9,117.9,186.9z"/>
		<path fill="#5980B7" d="M132.8,186.9c1.8,0,3.3-1.5,3.3-3.3c0-0.2,0-0.4-0.1-0.5c-2,0.2-4,0.3-6,0.3c-0.2,0-0.4,0-0.5,0
			c0,0.1,0,0.2,0,0.3C129.5,185.4,131,186.9,132.8,186.9z"/>
		<path fill="#5980B7" d="M147.7,186.9c1.8,0,3.3-1.5,3.3-3.3c0-1.3-0.7-2.4-1.8-2.9c-1.4,0.4-2.8,0.8-4.3,1.1
			c-0.4,0.5-0.6,1.2-0.6,1.9C144.4,185.4,145.9,186.9,147.7,186.9z"/>
		<circle fill="#5980B7" cx="162.6" cy="183.6" r="3.3"/>
		<circle fill="#5980B7" cx="177.6" cy="183.6" r="3.3"/>
		<circle fill="#5980B7" cx="192.5" cy="183.6" r="3.3"/>
		<circle fill="#5980B7" cx="207.4" cy="183.6" r="3.3"/>
		<circle fill="#5980B7" cx="95.1" cy="195.8" r="3.3"/>
		<circle fill="#5980B7" cx="110" cy="195.8" r="3.3"/>
		<circle fill="#5980B7" cx="124.9" cy="195.8" r="3.3"/>
		<circle fill="#5980B7" cx="139.8" cy="195.8" r="3.3"/>
		<circle fill="#5980B7" cx="154.7" cy="195.8" r="3.3"/>
		<circle fill="#5980B7" cx="169.7" cy="195.8" r="3.3"/>
		<circle fill="#5980B7" cx="184.6" cy="195.8" r="3.3"/>
		<circle fill="#5980B7" cx="199.5" cy="195.8" r="3.3"/>
		<path fill="#5980B7" d="M74,155.8c-0.3-0.1-0.5-0.1-0.8-0.1c-1.8,0-3.3,1.5-3.3,3.3s1.5,3.3,3.3,3.3c1.8,0,3.3-1.5,3.3-3.3
			c0-0.1,0-0.1,0-0.2C75.6,157.8,74.7,156.8,74,155.8z"/>
		<circle fill="#5980B7" cx="192.5" cy="159" r="3.3"/>
		<circle fill="#5980B7" cx="207.4" cy="159" r="3.3"/>
		<circle fill="#5980B7" cx="222.3" cy="159" r="3.3"/>
		<circle fill="#5980B7" cx="80.1" cy="171.3" r="3.3"/>
		<path fill="#5980B7" d="M95.1,174.6c0.3,0,0.5,0,0.7-0.1c-1.3-0.7-2.6-1.5-3.9-2.3C92.3,173.5,93.5,174.6,95.1,174.6z"/>
		<path fill="#5980B7" d="M169.7,174.6c1.8,0,3.3-1.5,3.3-3.3c0-0.7-0.2-1.4-0.6-1.9c-1.8,1.3-3.6,2.5-5.5,3.7
			C167.5,173.9,168.5,174.6,169.7,174.6z"/>
		<circle fill="#5980B7" cx="184.6" cy="171.3" r="3.3"/>
		<circle fill="#5980B7" cx="199.5" cy="171.3" r="3.3"/>
		<circle fill="#5980B7" cx="214.4" cy="171.3" r="3.3"/>
		<circle fill="#5980B7" cx="207.4" cy="133.5" r="3.3"/>
		<circle fill="#5980B7" cx="222.3" cy="133.5" r="3.3"/>
		<circle fill="#5980B7" cx="199.5" cy="145.8" r="3.3"/>
		<circle fill="#5980B7" cx="214.4" cy="145.8" r="3.3"/>
		<circle fill="#5980B7" cx="207.4" cy="108.9" r="3.3"/>
		<path fill="#5980B7" d="M200.9,118.2c-0.2,2.1-0.4,4.2-0.8,6.2c1.6-0.3,2.7-1.6,2.7-3.2C202.8,119.9,202,118.7,200.9,118.2z"/>
		<circle fill="#5980B7" cx="214.4" cy="121.2" r="3.3"/>
		<path fill="#5980B7" d="M195.8,84.3c0-1.2-0.6-2.2-1.6-2.8c0.5,1.1,1.1,2.3,1.5,3.5C195.8,84.8,195.8,84.5,195.8,84.3z"/>
		<path fill="#5980B7" d="M202.8,96.6c0-1.8-1.5-3.3-3.3-3.3c-0.3,0-0.6,0.1-0.9,0.1c0.6,2.1,1,4.2,1.4,6.4
			C201.6,99.6,202.8,98.3,202.8,96.6z"/>
		<path fill="#5980B7" d="M150,55.7c-51.6,0-93.6,42-93.6,93.6s42,93.6,93.6,93.6s93.6-42,93.6-93.6S201.6,55.7,150,55.7z M91,206.7
			c-0.3-0.6-0.8-1.2-1.4-1.5c-2.3-2.5-4.5-5.2-6.5-7.9c0.2-0.4,0.3-0.9,0.3-1.4c0-1.8-1.5-3.3-3.3-3.3c-0.1,0-0.1,0-0.2,0
			c-1.5-2.3-2.8-4.8-4-7.3c0.3-0.5,0.5-1.1,0.5-1.8c0-1.6-1.2-3-2.7-3.2c-3.9-9.6-6.1-20.1-6.1-31.1c0-0.4,0-0.8,0-1.2
			c0.2-0.3,0.4-0.5,0.6-0.9c-0.2-0.3-0.4-0.7-0.5-1c1.6-44,37.9-79.4,82.3-79.4c24.6,0,46.6,10.8,61.7,27.9
			c-0.4,0.5-0.6,1.2-0.6,1.9c0,1.8,1.5,3.3,3.3,3.3c0.5,0,0.9-0.1,1.4-0.3c1.6,2.1,3.1,4.4,4.5,6.7c-0.8,0.6-1.3,1.5-1.3,2.6
			c0,1.8,1.5,3.3,3.3,3.3c0.4,0,0.8-0.1,1.2-0.2c1.2,2.3,2.3,4.7,3.2,7.2c-0.4,0.6-0.7,1.2-0.7,2c0,1.6,1.1,2.9,2.6,3.2
			c2,6.3,3.3,13,3.7,19.8c-0.6-1.1-1.6-1.8-2.9-1.8c-1.8,0-3.3,1.5-3.3,3.3c0,1.8,1.5,3.3,3.3,3.3c1.4,0,2.5-0.8,3-2
			c0,0.7,0.1,1.4,0.1,2.1c0,6.5-0.8,12.8-2.2,18.9c-0.3-0.1-0.6-0.1-0.9-0.1c-1.8,0-3.3,1.5-3.3,3.3c0,1.5,1,2.8,2.4,3.2
			c-0.9,2.7-1.9,5.4-3.1,8c-0.5-1.3-1.7-2.2-3.1-2.2c-1.8,0-3.3,1.5-3.3,3.3c0,1.8,1.5,3.3,3.3,3.3c0.4,0,0.7-0.1,1.1-0.2
			c-1.7,3.3-3.6,6.5-5.7,9.5c0-0.1,0-0.2,0-0.3c0-1.8-1.5-3.3-3.3-3.3c-1.8,0-3.3,1.5-3.3,3.3c0,1.8,1.5,3.3,3.3,3.3
			c0.5,0,0.9-0.1,1.3-0.3c-1.9,2.4-3.8,4.8-6,7c-0.6-0.6-1.4-1-2.4-1c-1.8,0-3.3,1.5-3.3,3.3c0,0.9,0.4,1.8,1,2.3
			c-5.6,5-11.8,9.3-18.6,12.6c0.8-0.6,1.4-1.6,1.4-2.7c0-1.8-1.5-3.3-3.3-3.3c-1.8,0-3.3,1.5-3.3,3.3c0,1.8,1.5,3.3,3.3,3.3
			c0.4,0,0.8-0.1,1.1-0.2c-6.5,3.1-13.5,5.4-20.8,6.8c-0.6-0.5-1.4-0.9-2.2-0.9c-1.2,0-2.3,0.7-2.8,1.6c-2.9,0.4-5.9,0.6-9,0.6
			c-0.4-1.3-1.7-2.2-3.1-2.2c-1.4,0-2.6,0.9-3.1,2.1c-3.3-0.2-6.5-0.6-9.7-1.2c-0.6-0.5-1.4-0.9-2.2-0.9c-0.4,0-0.7,0.1-1.1,0.2
			c-6.8-1.5-13.2-3.9-19.3-7c0.5-0.6,0.8-1.3,0.8-2.2c0-1.8-1.5-3.3-3.3-3.3c-1.5,0-2.7,1-3.1,2.3C101.1,215.8,95.7,211.6,91,206.7z
			"/>
	</g>
</g>
</svg>
