<?xml version="1.0" encoding="utf-8"?>
<!-- Generator: Adobe Illustrator 18.1.1, SVG Export Plug-In . SVG Version: 6.00 Build 0)  -->
<svg version="1.1" id="Layer_1" xmlns="http://www.w3.org/2000/svg" xmlns:xlink="http://www.w3.org/1999/xlink" x="0px" y="0px"
	 viewBox="0 0 300 300" enable-background="new 0 0 300 300" xml:space="preserve">
<g>
	<path fill="#CCCCCC" d="M187.9,44.4c-4.6,2.7-13,7-26.6,11.7c12.8,0.9,24.2,3.2,34.1,7.1C194.4,56.3,191.8,49.9,187.9,44.4z"/>
	<path fill="#CCCCCC" d="M150.3,25.3c-20.7,0-38.2,13.3-43.7,31.5c10.8-4.2,32.5-14,49.8-31.1C154.4,25.4,152.4,25.3,150.3,25.3z"/>
	<path fill="#CCCCCC" d="M168.5,29c-7.8,8.6-16.5,15.6-25.1,21.3c19.3-5.6,30.7-10.9,36.7-14.1C176.7,33.2,172.8,30.8,168.5,29z"/>
	<path fill="#FFFFFF" d="M229.7,207.4c4-1.5,9-7.9,11-17.1c1.6-7.2,1-14.4-1.7-18.5c-0.9-1.4-1.9-2.2-3-2.4c-0.2,0-0.4-0.1-0.7-0.1
		c-0.4,0-0.9,0.1-1.3,0.2c0.1,6-0.2,12.4-0.9,19.1C232.5,195,231.3,201.3,229.7,207.4z"/>
	<path fill="#FFFFFF" d="M61.2,171.5c-0.1,0.1-0.2,0.3-0.3,0.4c-2.6,4-3.3,11.3-1.7,18.5c2.2,9.9,7.8,16.7,12,17.3
		c-1.7-6.1-3-12.4-3.9-18.8c-0.7-5-1.1-9.8-1.2-14.5c-1.4-0.7-2.3-0.9-2.3-0.9C62.7,173.1,61.8,172.4,61.2,171.5z"/>
	<path fill="#CCCCCC" d="M150.9,253.9c6.9,0,13.6-5.9,18.5-11.7c-5,1.1-10,1.5-14.9,1.5c-8.6,0-16.7-1.3-23.1-2.8
		C136.3,247.1,143.5,253.9,150.9,253.9z"/>
	<path fill="#CCCCCC" d="M135.1,232.5c9.2,2,21.7,3.4,33.2,0.7c-4.6-2.2-10.7-4.3-17.4-4.3C145,228.9,139.5,230.6,135.1,232.5z"/>
	<path fill="#FFFFFF" d="M223,165.9c-2.2-0.6-4.4-1.3-6.5-2c-0.2,1.1-0.8,2.2-1.9,2.9c-0.1,0.1-0.2,0.1-0.3,0.2
		c-0.7,0.4-1.5,0.6-2.3,0.6c-1.4,0-2.8-0.7-3.7-1.9c-1.6-2.3-3.5-4.3-5.7-5.9c-0.7-0.5-1.2-1.3-1.5-2c-3.1-1.5-6-3-8.7-4.6
		c-0.9,0.9-2.2,1.5-3.6,1.4c-2.8-0.2-5.6-0.1-8.3,0.5c-0.3,0.1-0.6,0.1-1,0.1c-2,0-3.7-1.3-4.3-3.2c0-0.1-0.1-0.2-0.1-0.3
		c-0.5-2.4,1-4.8,3.4-5.4c0.9-0.2,1.9-0.4,2.8-0.5c-9.6-7.3-16.5-15.1-21.4-22c-4.1-5.9-7.2-11.5-9.4-16.6c-2,5-4.8,10.6-8.7,16.4
		c-10,15-29.1,33.8-64.7,43.1c0,1.3-0.1,2.5,0,3.8c1.5,1.5,1.7,3.9,0.4,5.7c-0.1,0.1-0.2,0.2-0.3,0.4c0.2,3.5,0.5,7.1,1,10.9
		c2.6,19.8,9.7,37.4,19,51.4c0.3-2.1,2-3.8,4.2-3.9c2.5-0.1,4.6,1.8,4.7,4.3c0.1,2.9,0.2,5.9,0.2,9l0,1.3c0,0.4-0.1,0.7-0.1,1.1
		c13.5,15.3,29.7,24.2,43.9,24.2c14.8,0,31.2-9.2,45.1-25.2c14.7-16.9,24.5-39.5,26.9-62C223.1,179.8,223.3,172.6,223,165.9z
		 M176.8,177.5c0,0.2,0,0.3,0,0.5c0.1,2.6,1,4.7,2.6,6.1c1.6,1.3,3.9,2.1,6.5,2.1c4.4,0,10.5-2.5,10.9-8.1c0-0.2,0-0.3,0-0.5
		c0-2.5,2-4.5,4.5-4.5s4.5,2,4.5,4.5c0,11-10.1,17.6-19.9,17.6c-4.7,0-9.1-1.5-12.3-4.2c-2.6-2.2-5.8-6.4-5.8-13.4
		c0-2.5,2-4.5,4.5-4.5S176.8,175,176.8,177.5z M166.7,203.1c0.1-0.1,0.1-0.2,0.2-0.3c1.3-1.9,3.9-2.6,6-1.4c2.4,1.4,5,2.4,7.8,3
		c2.3,0.5,3.8,2.7,3.5,5c0,0.1,0,0.2,0,0.3c-0.5,2.1-2.3,3.6-4.4,3.6c-0.3,0-0.6,0-0.9-0.1c-3.6-0.8-7.1-2.1-10.3-4
		C166.2,208,165.5,205.2,166.7,203.1z M154.6,164.6c1.7-3.3,3.9-6.3,6.6-9c1.8-1.7,4.6-1.7,6.4,0.1c0.1,0.1,0.1,0.2,0.2,0.3
		c1.5,1.8,1.4,4.4-0.3,6.1c-2,2-3.6,4.2-4.9,6.6c-0.8,1.6-2.4,2.5-4,2.5c-0.6,0-1.2-0.1-1.7-0.3c-0.1,0-0.2-0.1-0.3-0.1
		C154.3,169.5,153.5,166.8,154.6,164.6z M155.1,179.2c0.1,0,0.2,0,0.4,0c2.3-0.1,4.4,1.5,4.7,3.9c0.4,2.7,1.2,5.3,2.5,7.8
		c1.1,2.1,0.3,4.6-1.7,5.9c-0.1,0.1-0.2,0.1-0.3,0.2c-0.7,0.3-1.4,0.5-2,0.5c-1.6,0-3.2-0.9-4-2.5c-1.7-3.4-2.8-7-3.4-10.7
		C150.9,181.8,152.7,179.5,155.1,179.2z M87.5,196.9c-1.4-2.9-3-5.6-4.8-8c-1.4-2-0.9-4.8,1.1-6.3c2-1.4,4.8-0.9,6.3,1.1
		c2,2.8,3.8,5.9,5.4,9.2c1.1,2.2,0.2,4.9-2,6c-0.6,0.3-1.3,0.5-2,0.5C89.9,199.4,88.3,198.5,87.5,196.9z M100.7,225.9
		c-0.3,0-0.5,0.1-0.8,0.1c-2.2,0-4.1-1.5-4.4-3.7c-0.6-3.2-1.2-6.4-2-9.4c-0.6-2.4,0.8-4.9,3.2-5.5c2.4-0.6,4.9,0.8,5.5,3.2
		c0.9,3.2,1.6,6.7,2.2,10.1C104.7,223.2,103.1,225.5,100.7,225.9z M96.8,177.5c0-2.5,2-4.5,4.5-4.5s4.5,2,4.5,4.5c0,0.2,0,0.3,0,0.5
		c0.4,5.6,6.5,8.1,10.9,8.1c2.6,0,4.9-0.7,6.5-2.1c1.6-1.4,2.5-3.4,2.6-6.1c0-0.2,0-0.3,0-0.5c0-2.5,2-4.5,4.5-4.5s4.5,2,4.5,4.5
		c0,7-3.1,11.2-5.8,13.4c-3.2,2.7-7.6,4.2-12.3,4.2C106.9,195.2,96.8,188.6,96.8,177.5z M184.1,236.6c-1.1,0.6-2.2,1.2-3.3,1.8
		c-3.2,5.2-15,22.5-29.8,22.5c-15.3,0-27.4-18.4-30.1-23c-1.6-0.5-2.6-0.9-2.9-1c-2.3-0.9-3.4-3.5-2.5-5.8c0.9-2.3,3.5-3.4,5.8-2.5
		c0.1,0,1.5,0.6,3.8,1.3c5.1-3.1,14.7-7.9,25.9-7.9c11.5,0,21.3,5,26.3,8.1c0.8-0.4,1.6-0.8,2.4-1.3c2.1-1.3,4.9-0.5,6.2,1.6
		C186.9,232.6,186.2,235.4,184.1,236.6z M208.2,206.7c-3,2.2-6.2,4-9.8,5.2c-0.5,0.2-1,0.3-1.5,0.3c-1.9,0-3.6-1.2-4.2-3
		c0-0.1,0-0.2-0.1-0.3c-0.6-2.3,0.6-4.6,2.8-5.4c2.6-0.9,5.1-2.2,7.3-3.9c1.9-1.4,4.5-1.1,6.1,0.6c0.1,0.1,0.2,0.2,0.2,0.2
		C210.5,202.4,210.1,205.2,208.2,206.7z M221,179.7c0,3.8-0.2,7.5-1.5,11c-0.6,1.9-2.1,3-3.9,3c-0.5,0-1-0.1-1.4-0.3
		c-0.1,0-0.2-0.1-0.3-0.2c-2.1-0.9-3.6-3.4-2.8-5.6c0.9-2.6,1-5.3,1-8.1v-0.1c0-2.5,2.2-4.5,4.6-4.5c0,0,0,0,0,0
		c2.4,0.1,4.3,2,4.3,4.5V179.7z"/>
	<path fill="#CCCCCC" d="M132.4,118c10.8-16,12.2-30.7,12.3-30.9c0.3-2.8,2.6-5.1,5.4-5.1c0,0,0.1,0,0.1,0c2.8,0,5.1,2.1,5.5,4.9
		c0,0.1,2.2,14.9,13.7,30.9c14.5,20.2,36.6,33.6,65.8,39.7c1.4-16,1.8-61.7-34.8-78.9c-16.8-7.9-34.2-11.9-51.8-11.9
		c-26.3,0-43.5,9-43.7,9.1c-0.1,0.1-0.2,0.1-0.3,0.1c-36.9,16.9-37.3,64.9-36.2,81.5C97.3,151.3,118.9,138.1,132.4,118z"/>
	<g>
		<path fill="#5980B7" d="M248.3,165.9c-0.8-1.3-1.7-2.3-2.7-3.3c0.7-5.5,2-19.8-0.6-36c-3.8-23.2-14.1-41.1-30.1-52.2
			c-2.5-2-5.2-3.9-8.1-5.6c0-13.4-5.1-25.6-13.4-35.1c0,0,0-0.1,0-0.1c-0.1-0.1-0.1-0.1-0.2-0.2c-6.4-7.3-14.8-12.9-24.4-16.1
			c-0.2-0.1-0.3-0.1-0.5-0.2c-5.7-1.9-11.7-2.9-18-2.9c-31.2,0-56.5,24.5-56.5,54.7c0,0.1,0,0.1,0,0.2c-5.7,3.4-10.8,7.5-15.2,12.5
			c-0.5,0.6-1.1,1.1-1.6,1.7c-13.1,14.9-19.8,35.5-19.9,60.3c-0.2,7,0.1,12.9,0.4,16.7c-2.2,1.3-4.2,3.2-5.8,5.6
			c-4.2,6.6-5.4,16.6-3.1,26.8c3.4,15.1,13.2,26,23.4,26c0,0,0,0,0,0c1,0,2-0.1,2.9-0.3c5.3,14.2,13,27.4,22.6,38.5
			c15.8,18.3,35,28.8,52.9,28.8c18,0,37.4-10.6,53.4-29c9.7-11.2,17.3-24.2,22.5-38.2c0.6,0.1,1.3,0.1,1.9,0.1
			c10.2,0,20-10.9,23.4-26C253.8,182.5,252.6,172.5,248.3,165.9z M161.3,56.1c13.6-4.7,22-9,26.6-11.7c3.9,5.5,6.6,11.9,7.5,18.9
			C185.5,59.4,174.1,57,161.3,56.1z M168.5,29c4.3,1.8,8.2,4.2,11.7,7.1c-6,3.3-17.4,8.5-36.7,14.1C152,44.6,160.8,37.6,168.5,29z
			 M150.3,25.3c2.1,0,4.1,0.1,6.1,0.4c-17.3,17.1-39,26.9-49.8,31.1C112.1,38.6,129.6,25.3,150.3,25.3z M104.5,76
			c0.1,0,0.2-0.1,0.3-0.1c0.2-0.1,17.4-9.1,43.7-9.1c17.5,0,35,4,51.8,11.9c36.6,17.2,36.1,62.9,34.8,78.9
			c-29.2-6.2-51.3-19.5-65.8-39.7c-11.5-16.1-13.7-30.8-13.7-30.9c-0.4-2.7-2.7-4.9-5.5-4.9c0,0-0.1,0-0.1,0c-2.8,0-5.1,2.3-5.4,5.1
			c0,0.1-1.5,14.9-12.3,30.9c-13.5,20.1-35.1,33.4-64.1,39.5C67.3,140.8,67.6,92.9,104.5,76z M59.3,190.3c-1.6-7.2-1-14.4,1.7-18.5
			c0.1-0.1,0.2-0.3,0.3-0.4c0.6,0.9,1.5,1.7,2.6,2c0,0,0.9,0.3,2.3,0.9c0.2,4.7,0.6,9.5,1.2,14.5c0.8,6.4,2.2,12.7,3.9,18.8
			C67.1,207,61.5,200.2,59.3,190.3z M222.2,187.5c-2.4,22.5-12.2,45.1-26.9,62c-13.9,16-30.3,25.2-45.1,25.2
			c-14.2,0-30.4-8.9-43.9-24.2c0.1-0.3,0.1-0.7,0.1-1.1l0-1.3c0-3-0.1-6.1-0.2-9c-0.1-2.5-2.2-4.4-4.7-4.3c-2.2,0.1-3.9,1.8-4.2,3.9
			c-9.3-14-16.4-31.6-19-51.4c-0.5-3.7-0.8-7.3-1-10.9c0.1-0.1,0.2-0.2,0.3-0.4c1.2-1.8,1-4.2-0.4-5.7c0-1.3,0-2.6,0-3.8
			c35.6-9.2,54.7-28.1,64.7-43.1c3.9-5.8,6.6-11.4,8.7-16.4c2.2,5,5.3,10.7,9.4,16.6c4.9,6.9,11.8,14.7,21.4,22
			c-0.9,0.1-1.9,0.3-2.8,0.5c-2.4,0.5-4,2.9-3.4,5.4c0,0.1,0.1,0.2,0.1,0.3c0.6,1.9,2.3,3.2,4.3,3.2c0.3,0,0.6,0,1-0.1
			c2.7-0.6,5.5-0.8,8.3-0.5c1.4,0.1,2.7-0.4,3.6-1.4c2.7,1.6,5.6,3.1,8.7,4.6c0.3,0.8,0.8,1.5,1.5,2c2.2,1.7,4.2,3.7,5.7,5.9
			c0.9,1.3,2.3,1.9,3.7,1.9c0.8,0,1.6-0.2,2.3-0.6c0.1-0.1,0.2-0.1,0.3-0.2c1-0.7,1.7-1.8,1.9-2.9c2.1,0.7,4.3,1.4,6.5,2
			C223.3,172.6,223.1,179.8,222.2,187.5z M240.7,190.3c-2,9.1-7,15.6-11,17.1c1.6-6.1,2.8-12.4,3.5-18.7c0.7-6.7,1-13.1,0.9-19.1
			c0.4-0.1,0.9-0.2,1.3-0.2c0.2,0,0.5,0,0.7,0.1c1.1,0.2,2.1,1,3,2.4C241.7,175.9,242.3,183.1,240.7,190.3z"/>
		<path fill="#5980B7" d="M156.6,170.6c0.1,0.1,0.2,0.1,0.3,0.1c0.6,0.2,1.1,0.3,1.7,0.3c1.6,0,3.2-0.9,4-2.5
			c1.2-2.4,2.9-4.7,4.9-6.6c1.7-1.7,1.8-4.3,0.3-6.1c-0.1-0.1-0.1-0.2-0.2-0.3c-1.7-1.8-4.6-1.8-6.4-0.1c-2.7,2.6-4.9,5.7-6.6,9
			C153.5,166.8,154.3,169.5,156.6,170.6z"/>
		<path fill="#5980B7" d="M154.6,194.9c0.8,1.6,2.4,2.5,4,2.5c0.7,0,1.4-0.2,2-0.5c0.1-0.1,0.2-0.1,0.3-0.2c2-1.2,2.7-3.8,1.7-5.9
			c-1.3-2.5-2.1-5.1-2.5-7.8c-0.3-2.3-2.4-4-4.7-3.9c-0.1,0-0.2,0-0.4,0c-2.5,0.3-4.2,2.6-3.8,5.1
			C151.8,188,152.9,191.5,154.6,194.9z"/>
		<path fill="#5980B7" d="M166.7,203.1c-1.2,2.2-0.5,4.9,1.7,6.1c3.2,1.8,6.7,3.2,10.3,4c0.3,0.1,0.6,0.1,0.9,0.1
			c2.1,0,3.9-1.4,4.4-3.6c0-0.1,0-0.2,0-0.3c0.3-2.3-1.2-4.5-3.5-5c-2.7-0.6-5.3-1.6-7.8-3c-2.1-1.2-4.6-0.5-6,1.4
			C166.8,202.9,166.8,203,166.7,203.1z"/>
		<path fill="#5980B7" d="M208.8,200.2c-1.5-1.8-4.2-2.1-6.1-0.6c-2.2,1.7-4.7,3-7.3,3.9c-2.2,0.8-3.5,3.2-2.8,5.4
			c0,0.1,0,0.2,0.1,0.3c0.6,1.9,2.4,3,4.2,3c0.5,0,1-0.1,1.5-0.3c3.5-1.2,6.8-3,9.8-5.2c2-1.5,2.4-4.3,0.9-6.3
			C209,200.3,208.9,200.3,208.8,200.2z"/>
		<path fill="#5980B7" d="M216.8,175.1c0,0-0.2,0-0.2,0c-2.5,0-4.6,2-4.6,4.5v0.1c0,2.8-0.1,5.5-1,8.1c-0.8,2.2,0.6,4.6,2.8,5.6
			c0.1,0,0.2,0.1,0.4,0.2c0.5,0.2,1,0.3,1.5,0.3c1.9,0,3.2-1.2,3.9-3c1.2-3.5,1.5-7.3,1.5-11v-0.1
			C221,177.1,219.2,175.1,216.8,175.1z"/>
		<path fill="#5980B7" d="M129,190.9c2.6-2.2,5.8-6.4,5.8-13.4c0-2.5-2-4.5-4.5-4.5s-4.5,2-4.5,4.5c0,0.2,0,0.3,0,0.5
			c-0.1,2.6-1,4.7-2.6,6.1c-1.6,1.3-3.9,2.1-6.5,2.1c-4.4,0-10.5-2.5-10.9-8.1c0-0.2,0-0.3,0-0.5c0-2.5-2-4.5-4.5-4.5
			s-4.5,2-4.5,4.5c0,11,10.1,17.6,19.9,17.6C121.4,195.2,125.8,193.7,129,190.9z"/>
		<path fill="#5980B7" d="M205.8,177.5c0-2.5-2-4.5-4.5-4.5s-4.5,2-4.5,4.5c0,0.2,0,0.3,0,0.5c-0.4,5.6-6.5,8.1-10.9,8.1
			c-2.6,0-4.9-0.7-6.5-2.1c-1.6-1.4-2.5-3.4-2.6-6.1c0-0.2,0-0.3,0-0.5c0-2.5-2-4.5-4.5-4.5s-4.5,2-4.5,4.5c0,7,3.1,11.2,5.8,13.4
			c3.2,2.7,7.6,4.2,12.3,4.2C195.7,195.2,205.8,188.6,205.8,177.5z"/>
		<path fill="#5980B7" d="M179.5,228.8c-0.8,0.4-1.6,0.9-2.4,1.3c-5-3.1-14.8-8.1-26.3-8.1c-11.2,0-20.8,4.8-25.9,7.9
			c-2.3-0.7-3.7-1.3-3.8-1.3c-2.3-0.9-4.9,0.2-5.8,2.5c-0.9,2.3,0.2,4.9,2.5,5.8c0.2,0.1,1.2,0.5,2.9,1c2.7,4.5,14.8,23,30.1,23
			c14.9,0,26.7-17.4,29.8-22.5c1.1-0.5,2.2-1.1,3.3-1.8c2.1-1.3,2.9-4,1.6-6.2C184.4,228.3,181.7,227.6,179.5,228.8z M150.9,228.9
			c6.7,0,12.8,2.1,17.4,4.3c-11.5,2.7-24,1.3-33.2-0.7C139.5,230.6,145,228.9,150.9,228.9z M150.9,253.9c-7.4,0-14.6-6.8-19.5-13
			c6.4,1.5,14.5,2.8,23.1,2.8c4.9,0,10-0.4,14.9-1.5C164.5,248,157.8,253.9,150.9,253.9z"/>
		<path fill="#5980B7" d="M102.1,210.6c-0.6-2.4-3.1-3.8-5.5-3.2c-2.4,0.6-3.8,3.1-3.2,5.5c0.8,3,1.5,6.1,2,9.4
			c0.4,2.2,2.3,3.7,4.4,3.7c0.3,0,0.5,0,0.8-0.1c2.4-0.4,4.1-2.7,3.7-5.2C103.7,217.3,103,213.8,102.1,210.6z"/>
		<path fill="#5980B7" d="M95.6,192.9c-1.6-3.3-3.5-6.3-5.4-9.2c-1.4-2-4.2-2.5-6.3-1.1c-2,1.4-2.5,4.2-1.1,6.3
			c1.7,2.4,3.3,5.1,4.8,8c0.8,1.6,2.4,2.5,4,2.5c0.7,0,1.4-0.2,2-0.5C95.8,197.8,96.7,195.1,95.6,192.9z"/>
	</g>
</g>
</svg>
