<?xml version="1.0" encoding="utf-8"?>
<!-- Generator: Adobe Illustrator 18.1.1, SVG Export Plug-In . SVG Version: 6.00 Build 0)  -->
<svg version="1.1" id="Layer_1" xmlns="http://www.w3.org/2000/svg" xmlns:xlink="http://www.w3.org/1999/xlink" x="0px" y="0px"
	 viewBox="0 0 300 300" enable-background="new 0 0 300 300" xml:space="preserve">
<g>
	<path fill="none" d="M194.5,95.8c0.4,0,0.8-0.1,1.3-0.1c0.3,0,0.6,0,0.9,0c-0.3,0-0.9,0-0.9,0C195.4,95.7,194.9,95.7,194.5,95.8z"
		/>
	<path fill="none" d="M205,97.3c-2-0.7-3.5-1.2-5.2-1.5c1.7,0.3,3.3,0.8,4.9,1.5c4.1,1.8,7.3,5,9.3,9c1,0,2.1,0.1,3.1,0.2L205,91
		V97.3z"/>
	<path fill="none" d="M189,92.7l-10.9,13.9c0.5-0.1,0.8-0.1,1.3-0.1c2-4,5.3-7.3,9.5-9.1c0.9-0.4,2-0.7,3-1c-1.1,0.3-1.9,0.6-2.9,1
		V92.7z"/>
	<path fill="none" d="M178,249c-4,4.4-9.9,7.1-16.3,7.1c6.5,0,12.3-2.6,16.3-7c1.1-1.2,2.1-2.6,2.9-4.1
		C180,246.4,179.1,247.8,178,249z"/>
	<path fill="none" d="M167.7,195c0-1.2-0.1-2.3-1-3c-0.7-0.6-1.6-0.9-2.6-0.9c1,0,1.7,0.3,2.4,0.9
		C167.4,192.8,167.7,193.8,167.7,195z"/>
	<path fill="none" d="M203.9,89.9c-0.9,0.7-1.8,1.3-2.9,1.7C202.1,91.2,203.1,90.7,203.9,89.9L203.9,89.9z"/>
	<path fill="none" d="M196.6,92.5c-0.3,0-0.6,0-0.9,0c-2-0.1-3.9-0.8-5.5-1.8l0,0c1.6,1,3.5,1.7,5.4,1.8
		C195.7,92.5,196.3,92.5,196.6,92.5z"/>
	<path fill="none" d="M197.7,92.2c0.4,0,0.8,0,1.3-0.1c-0.5,0.1-0.9,0-1.4,0c-0.3,0-0.6-0.2-0.9-0.2c0,0,0,0,0,0
		C197,92,197.7,92.2,197.7,92.2z"/>
	<path fill="none" d="M196.7,96C196.7,96,196.7,96,196.7,96c0.3,0,0.6-0.2,0.9-0.1c0.6,0,1.1,0,1.7,0.1c-0.6-0.1-1.1,0-1.5,0
		C197.7,95.9,197,96,196.7,96z"/>
	<path fill="#CDCCCC" d="M111.1,93.8l-6.7-3.6c-0.3-0.2-0.6-0.4-0.9-0.7L98.1,84l-2.8-0.7l-1.6,6.1C93.3,91,91.9,92,90.3,92H80
		l-2.2,2.4l33.1-0.2C111,94.1,111,93.9,111.1,93.8z"/>
	<path fill="#FFFFFF" d="M97.4,52.7c-0.4-0.6-1.1-0.9-1.7-0.9c-0.4,0-0.7,0.1-0.9,0.3c-0.4,0.3-0.6,0.8-0.6,1.1
		c-0.1,0.6,0.1,1.2,0.5,1.7L117,84.2c0.9-0.8,1.9-1.5,2.9-2L97.4,52.7z"/>
	<path fill="#CDCCCC" d="M237,224.7l-14.3-4.7c-1.5-0.5-2.6-1.8-2.8-3.4l-1.8-18.3l-10.1-2.5c-1.1-0.3-2-1-2.5-1.9l-8.7-14.9h-7.9
		l-6,11.5c7.8,36.5,33.2,40.3,34.5,40.5c2,0.3,3.6,2,3.6,4v13h16V224.7z"/>
	<path fill="#CDCCCC" d="M196.6,69C196.7,69,196.7,69,196.6,69c0.4,0,1.4,0.2,1.4,0.2V50.8c0-0.5-0.5-0.9-1-0.9s-1,0.4-1,0.9v18.5
		C196,69.2,196.3,69,196.6,69C196.6,69,196.6,69,196.6,69C196.6,69,196.6,69,196.6,69z"/>
	<path fill="#CDCCCC" d="M198,96v-4c0,0-1,0-1.3,0c0,0,0,0,0,0c0,0,0,0,0,0c0,0,0,0,0,0c-0.3,0-0.6,0-0.6,0v3.9c0,0,0.3,0.1,0.6,0.1
		c0,0,0,0,0,0c0,0,0,0,0,0c0,0,0,0,0,0C197,96,198,95.9,198,96z"/>
	<path fill="#FFFFFF" d="M196.6,85.5c2.6,0,4.7-2.1,4.7-4.7s-2.1-4.7-4.7-4.7s-4.7,2.1-4.7,4.7S194.1,85.5,196.6,85.5z"/>
	<path fill="#FFFFFF" d="M209.1,129.9l17.6,37.4l20.3-22l-14-23.4c-1.5-1.4-8.5-7.2-17.1-8.4c0,0.5,0.1,1,0.1,1.5
		C216.1,121,213.4,126.3,209.1,129.9z"/>
	<path fill="#FFFFFF" d="M147.4,147.5l15.8,15.5h6.6l15.3-32.5c-4.7-3.5-7.8-9.2-7.8-15.5c0-0.4,0-0.9,0.1-1.3
		c-7.9,1.5-14.3,6.8-15.8,8.2L147.4,147.5z"/>
	<path fill="#FFFFFF" d="M196.6,102.6c-6.8,0-12.4,5.6-12.4,12.4s5.6,12.4,12.4,12.4s12.4-5.6,12.4-12.4S203.5,102.6,196.6,102.6z
		 M196.6,123c-4.4,0-8-3.6-8-8c0-4.4,3.6-8,8-8s8,3.6,8,8C204.7,119.4,201.1,123,196.6,123z"/>
	<circle fill="#CDCCCC" cx="196.6" cy="115" r="3"/>
	<path fill="#FFFFFF" d="M168,212.9c0,0,0.1,0.1,0.3,0.1c9,2.8,15.5,11.2,15.5,21.1c0,4-1.1,7.6-2.9,10.8c-0.8,1.5-1.8,3.1-2.9,4.1
		h35v-10.8c-4-1.2-11.6-4-18.9-10.6c-9.4-8.5-20.6-25.6-21.5-56.6H167v21c1,0.7,1,1.8,1,3V212.9z"/>
	<polygon fill="#FFFFFF" points="160,199 143,199 80.2,199 67.7,199 61.7,199 62,199 62,212 67.3,212 160,212 	"/>
	<path fill="#FFFFFF" d="M139,171.7L114.3,146H85v45h54V171.7z M134.5,184.8c-0.7,1.4-2.1,2.2-3.6,2.2h-25.2c-0.9,0-1.8-0.3-2.5-0.9
		l-13.9-11.4c-0.9-0.8-1.3-1.9-1.3-3.1v-12.6c0-2.2,1.5-4.1,3.7-4.1h20.6c1.2,0,2.4,0.6,3.2,1.6l18.6,24
		C135,181.8,135.1,183.4,134.5,184.8z"/>
	<polygon fill="#CDCCCC" points="96,163 96,169.8 107.1,179 122.7,179 110.4,163 	"/>
	<path fill="#CDCCCC" d="M175.8,234c0-7.8-6.3-14-14.1-14H67.3c-7.8,0-14.1,6.2-14.1,14c0,7.8,6.3,14,14.1,14h94.4
		C169.4,248,175.8,241.8,175.8,234z M69.7,247.3c-7.4,0-13.4-6-13.4-13.4s6-13.4,13.4-13.4s13.4,6,13.4,13.4S77.1,247.3,69.7,247.3z
		 M99.8,247.3c-7.4,0-13.4-6-13.4-13.4s6-13.4,13.4-13.4s13.4,6,13.4,13.4S107.2,247.3,99.8,247.3z M128.3,247.3
		c-7.4,0-13.4-6-13.4-13.4s6-13.4,13.4-13.4c7.4,0,13.4,6,13.4,13.4S135.7,247.3,128.3,247.3z M145,233.8c0-7.4,6-13.4,13.4-13.4
		s13.4,6,13.4,13.4s-6,13.4-13.4,13.4S145,241.2,145,233.8z"/>
	<path fill="#FFFFFF" d="M69.7,228.4c-3,0-5.4,2.4-5.4,5.4s2.4,5.4,5.4,5.4s5.4-2.4,5.4-5.4S72.7,228.4,69.7,228.4z"/>
	<path fill="#FFFFFF" d="M99.8,228.4c-3,0-5.4,2.4-5.4,5.4s2.4,5.4,5.4,5.4s5.4-2.4,5.4-5.4S102.8,228.4,99.8,228.4z"/>
	<path fill="#FFFFFF" d="M128.3,228.4c-3,0-5.4,2.4-5.4,5.4s2.4,5.4,5.4,5.4c3,0,5.4-2.4,5.4-5.4S131.3,228.4,128.3,228.4z"/>
	<path fill="#FFFFFF" d="M158.5,228.4c-3,0-5.4,2.4-5.4,5.4s2.4,5.4,5.4,5.4s5.4-2.4,5.4-5.4S161.5,228.4,158.5,228.4z"/>
	<rect x="62" y="175" fill="#CDCCCC" width="2" height="16"/>
	<path fill="#FFFFFF" d="M80.7,126.5l28.8-0.5c2-0.6,10.1-3.5,15.7-9.9c-7.3-1.5-13.1-7.4-14.4-14.8l-37,0.2L80.7,126.5z"/>
	<path fill="#FFFFFF" d="M128.9,109.6c6.3,0,11.4-5.1,11.4-11.4s-5.1-11.4-11.4-11.4c-6.3,0-11.4,5.1-11.4,11.4
		S122.6,109.6,128.9,109.6z M128.9,90.3c4.4,0,7.9,3.6,7.9,7.9s-3.6,7.9-7.9,7.9c-4.4,0-7.9-3.6-7.9-7.9S124.5,90.3,128.9,90.3z"/>
	<path fill="#CDCCCC" d="M128.9,101.1c1.6,0,2.9-1.3,2.9-2.9c0-1.6-1.3-2.9-2.9-2.9c-1.6,0-2.9,1.3-2.9,2.9
		C126,99.8,127.3,101.1,128.9,101.1z"/>
	<g>
		<path fill="#5A81B8" d="M196.6,107c-4.4,0-8,3.6-8,8c0,4.4,3.6,8,8,8s8-3.6,8-8C204.7,110.6,201.1,107,196.6,107z M196.6,118
			c-1.7,0-3-1.4-3-3s1.4-3,3-3s3,1.4,3,3S198.3,118,196.6,118z"/>
		<path fill="#5A81B8" d="M91.7,155c-2.2,0-3.7,1.9-3.7,4.1v12.6c0,1.2,0.4,2.3,1.3,3.1l13.9,11.4c0.7,0.6,1.5,0.9,2.5,0.9h25.2
			c1.5,0,2.9-0.8,3.6-2.2c0.7-1.4,0.5-3-0.4-4.2l-18.6-24c-0.8-1-1.9-1.6-3.2-1.6H91.7z M122.7,179h-15.6L96,169.8V163h14.4
			L122.7,179z"/>
		<path fill="#5A81B8" d="M69.7,220.4c-7.4,0-13.4,6-13.4,13.4s6,13.4,13.4,13.4s13.4-6,13.4-13.4S77.1,220.4,69.7,220.4z
			 M69.7,239.3c-3,0-5.4-2.4-5.4-5.4s2.4-5.4,5.4-5.4s5.4,2.4,5.4,5.4S72.7,239.3,69.7,239.3z"/>
		<path fill="#5A81B8" d="M99.8,220.4c-7.4,0-13.4,6-13.4,13.4s6,13.4,13.4,13.4s13.4-6,13.4-13.4S107.2,220.4,99.8,220.4z
			 M99.8,239.3c-3,0-5.4-2.4-5.4-5.4s2.4-5.4,5.4-5.4s5.4,2.4,5.4,5.4S102.8,239.3,99.8,239.3z"/>
		<path fill="#5A81B8" d="M128.3,220.4c-7.4,0-13.4,6-13.4,13.4s6,13.4,13.4,13.4c7.4,0,13.4-6,13.4-13.4S135.7,220.4,128.3,220.4z
			 M128.3,239.3c-3,0-5.4-2.4-5.4-5.4s2.4-5.4,5.4-5.4c3,0,5.4,2.4,5.4,5.4S131.3,239.3,128.3,239.3z"/>
		<path fill="#5A81B8" d="M171.9,233.8c0-7.4-6-13.4-13.4-13.4s-13.4,6-13.4,13.4s6,13.4,13.4,13.4S171.9,241.2,171.9,233.8z
			 M158.5,239.3c-3,0-5.4-2.4-5.4-5.4s2.4-5.4,5.4-5.4s5.4,2.4,5.4,5.4S161.5,239.3,158.5,239.3z"/>
		<path fill="#5A81B8" d="M65.6,97.8c0,0.1,0.1,0.3,0.1,0.4c-0.1,0.5-0.1,1.1,0.1,1.6l2.7,9.3c0.1,0.2,0.1,0.4,0.2,0.6l6,21.6
			c0.4,1.5,1.8,2.8,3.4,2.8c0,0,0,0,0.1,0l32-0.8c0.3,0,0.6-0.3,0.9-0.4c6.8-1.9,17.3-7.4,22.9-17c7.7-2.2,13.4-9.3,13.4-17.7
			c0-10.1-8.3-18.4-18.4-18.4c-0.6,0-1.3,0-1.9,0.1l-24.1-31.4c-1.7-2.3-4.5-3.6-7.3-3.6c-1.8,0-3.6,0.6-5.1,1.6
			c-1.9,1.4-3.1,3.4-3.4,5.8c-0.4,2.4,0.3,5,1.8,6.9l19.3,25.2l-0.2-0.1l-5.7-5.9c-0.5-0.5-1-0.8-1.7-1l-7.1-1.8
			c-1.9-0.5-3.8,0.6-4.2,2.5L87.6,85h-9.2c-1,0-1.9,0.5-2.6,1.2l-4.1,4.5c-0.6-1.4-2-2.4-3.6-2.2c-1.9,0.2-3.3,1.9-3.1,3.9
			L65.6,97.8z M109.5,126.1l-28.8,0.5l-6.9-25l37-0.2c1.3,7.4,7.1,13.3,14.4,14.8C119.6,122.6,111.5,125.5,109.5,126.1z M128.9,86.8
			c6.3,0,11.4,5.1,11.4,11.4s-5.1,11.4-11.4,11.4c-6.3,0-11.4-5.1-11.4-11.4S122.6,86.8,128.9,86.8z M94.5,54.9
			c-0.4-0.5-0.5-1.1-0.5-1.7c0-0.3,0.2-0.8,0.6-1.1c0.3-0.2,0.6-0.3,0.9-0.3c0.6,0,1.3,0.3,1.7,0.9l22.6,29.4c-1,0.6-2,1.3-2.9,2
			L94.5,54.9z M80,92h10.4c1.6,0,3-1,3.4-2.6l1.6-6.1l2.8,0.7l5.4,5.6c0.3,0.3,0.5,0.5,0.9,0.7l6.7,3.6c0,0.1-0.1,0.3-0.1,0.4
			l-33.1,0.2L80,92z"/>
		<path fill="#5A81B8" d="M128.9,106.1c4.4,0,7.9-3.6,7.9-7.9s-3.6-7.9-7.9-7.9c-4.4,0-7.9,3.6-7.9,7.9S124.5,106.1,128.9,106.1z
			 M128.9,95.3c1.6,0,2.9,1.3,2.9,2.9c0,1.6-1.3,2.9-2.9,2.9c-1.6,0-2.9-1.3-2.9-2.9C126,96.6,127.3,95.3,128.9,95.3z"/>
	</g>
	<path fill="#5A81B8" d="M218.3,179c0.7,0.9,1.7,1.4,2.8,1.4c0.7,0,1.4-0.2,2.1-0.7l4.1-3c0.2-0.1,0.3-0.3,0.5-0.4
		c0.2-0.1,0.4-0.3,0.6-0.5l25.6-27.7c1.1-1.1,1.2-2.8,0.4-4.2l-15.6-26.1c-0.2-0.3-0.3-0.5-0.6-0.7c-0.3-0.2-3.8-3.6-9.3-6.6
		l-21-26.9c0,0,0,0,0-0.1c0.2-0.9,0.5-1.9,0.5-2.8c0-3.3-1.5-6.3-3.5-8.5v-0.1v-0.1V50.8c0-4.4-3.6-7.9-8-7.9s-8,3.5-8,7.9v21.5
		c0-0.1,0.1-0.2,0.2-0.3c-0.1,0.1-0.3,0.2-0.4,0.2c-2.3,2.1-3.8,5.2-3.8,8.6c0,1.5,0.2,2.9,0.7,4.2c0,0,0,0,0,0L166,110.4
		c-5.8,3-9.5,6.6-9.8,6.8c-0.2,0.2-0.5,0.5-0.6,0.8L140,146.5c-0.8,1.4-0.4,3.1,0.7,4.2l18.3,17.9V191h-12v0v-20.9
		c0-1-0.4-2-1.1-2.8l-27-28.3c-0.8-0.8-1.8-1-2.9-1H80.2c-2.2,0-3.2,1.4-3.2,3.6V191v0h-5v0v-20.4c0-2.2-2.1-3.6-4.3-3.6H67v-8.1
		c0-6.5-4.9-11.9-10.1-11.9h-4.6c-2.2,0-4,1.8-4,4c0,2.2,1.8,4,4,4h4.6c0.3,0,2.2,1.7,2.2,3.9v8.1h-0.8h-0.4c-2.2,0-3.8,1.4-3.8,3.6
		v23.6v0.8v21c0,0.2-0.1,0.4-0.1,0.6c3.7-2.9,8.3-4.6,13.3-4.6H62v-13h-0.3h6h12.5H143h17v13H67.3c-5.1,0-9.7,1.7-13.5,4.6
		c-5.3,4-8.7,10.3-8.7,17.4c0,12.2,9.9,22,22.1,22h93.1c0.7,1,1.5,1,2.4,1h54c1,0,1.9,0,2.6-1h21.4c2.2,0,4.3-1.7,4.3-3.9v-30.3
		c0-1.7-1.2-3.2-2.9-3.8l-14.5-4.8l-1.8-18.6c-0.2-1.7-1.4-3.1-3.1-3.5l-11.3-2.7l-9-15.4c-0.7-1.2-2-2-3.5-2h-12.6
		c-1.5,0-2.9,0.9-3.5,2.2l-1.9,3.7c-0.2-3.1-0.4-6.4-0.4-9.9c0-1.9-1.3-3.5-3.1-3.9l13.9-29.5c0,0,0,0,0,0c1.7,0.5,3.5,0.8,5.3,0.8
		c2.2,0,4.4-0.4,6.4-1.1l18.4,39.1l-2.4,1.7C217.5,175.3,217.1,177.5,218.3,179z M64,191h-2v-16h2V191z M139,191H85v-45h29.3
		l24.7,25.7V191z M196,95.9v-3.4v-0.2c0,0-0.1,0-0.1,0c0.3,0,0.4-0.2,0.7-0.2c0,0,0,0,0,0c0,0,0,0,0,0c0.3,0,0.8,0.2,1.1,0.2
		c0,0,0.3,0,0.3,0v0.2v3.2v0.2c0,0-0.1,0-0.1,0C197.5,95.9,196,95.9,196,95.9z M205,97.3V91l12,15.6c-1-0.1-1.9-0.2-2.9-0.2
		C212.2,102.4,209,99.3,205,97.3L205,97.3z M196,50.8c0-0.5,0.5-0.9,1-0.9s1,0.4,1,0.9v12.1v6.3c0,0-0.2-0.1-0.3-0.1
		c-0.3,0-0.8-0.1-1.1-0.1c0,0,0,0,0,0c0,0,0,0,0,0c-0.3,0-0.4,0.1-0.7,0.1c0,0,0.1,0,0.1,0V50.8z M196.6,76.2c2.6,0,4.7,2.1,4.7,4.7
		s-2.1,4.7-4.7,4.7s-4.7-2.1-4.7-4.7S194.1,76.2,196.6,76.2z M192.9,69.8c-0.8,0.3-1.5,0.6-2.1,1C191.4,70.4,192.1,70,192.9,69.8z
		 M67.3,248c-7.8,0-14.1-6.2-14.1-14c0-7.8,6.3-14,14.1-14h94.4c7.8,0,14.1,6.2,14.1,14c0,7.8-6.3,14-14.1,14H67.3z M188.9,179h7.9
		l8.7,14.9c0.5,0.9,1.5,1.6,2.5,1.9l10.1,2.5l1.7,18.3c0.1,1.6,1.3,2.9,2.8,3.4l14.3,4.7V248h-16v-13c0-2-1.6-3.7-3.6-4
		c-1.3-0.2-26.6-4.1-34.4-40.5L188.9,179z M194.1,227.6c7.3,6.6,14.9,9.5,18.9,10.6V249h-35c-4,4-9.9,7-16.3,7
		c6.5,0,12.3-2.7,16.3-7.1c1.1-1.2,2.1-2.6,2.9-4c1.8-3.2,2.9-6.9,2.9-10.9c0-9.9-6.4-18.3-15.5-21.1c-0.1,0-0.3-0.1-0.3-0.1V195
		c0-1.2-0.5-2.3-1.3-3c-0.7-0.6-1.3-0.9-2.3-0.9c1,0,1.6,0.3,2.6,0.9v-21h5.7C173.5,202,184.8,219.1,194.1,227.6z M169.8,163h-6.6
		l-15.8-15.5l14.1-25.6c1.5-1.4,7.8-6.7,15.8-8.2c0.2-2.6,0.9-5.1,2-7.3c-0.5,0-0.8,0.1-1.2,0.1L189,92.7v4.6v0
		c-4,1.8-7.6,5-9.6,9.1c-1.1,2.2-1.9,4.7-2.1,7.3c0,0.4-0.1,0.9-0.1,1.3c0,6.4,3.1,12,7.8,15.5L169.8,163z M196.6,127.4
		c-6.8,0-12.4-5.6-12.4-12.4s5.6-12.4,12.4-12.4s12.4,5.6,12.4,12.4S203.5,127.4,196.6,127.4z M209.1,129.9
		c4.2-3.6,6.9-8.9,6.9-14.8c0-0.5,0-1-0.1-1.5c8.6,1.2,15.5,7.1,17.1,8.4l14,23.4l-20.3,22L209.1,129.9z"/>
</g>
</svg>
