<?xml version="1.0" encoding="utf-8"?>
<!-- Generator: Adobe Illustrator 18.1.1, SVG Export Plug-In . SVG Version: 6.00 Build 0)  -->
<svg version="1.1" id="Layer_1" xmlns="http://www.w3.org/2000/svg" xmlns:xlink="http://www.w3.org/1999/xlink" x="0px" y="0px"
	 viewBox="0 0 300 300" enable-background="new 0 0 300 300" xml:space="preserve">
<g>
	<path fill="#FFFFFF" d="M121.2,146c-2.3,0-4.2-1.6-4.2-3.9v-35.3c0-2.3,1.9-3.9,4.2-3.9H169c3-1,6.1-1.2,6.1-8.7
		c0-2.2-0.6-3.9-1.7-5.1c-1.1-1.2-2.4-1.7-4.1-1.7c-3.9,0-7.1,0-9.3,0.2c0,0-0.1,0.1-0.1,0.1c-4.8,0.1-19.5,0.3-43.7,0.3h-9.7
		c-2.6,0-4.6,0.8-6.3,2.6c-1.7,1.9-2.4,4.2-2.2,7c0,0.1,0,0.1,0,0.1l0.6,23.2c0,0,0,0.1,0,0.1L98.3,171c0,2.7,0,5.8-0.1,9.2
		c-0.1,3.3-0.1,6.4-0.1,9.1c0,1.9,0,4.5-0.1,8c-0.1,3.4-0.1,5.4-0.1,6.1c0,3.6,0.7,6.1,2,7.4c1.3,1.3,4.1,1.9,7.9,1.9
		c6.4,0,8.7-2.4,8.7-8.5l-0.4-22.8v-15.6c0-2.3,2.4-3.7,4.6-3.7h15.6c1.7,0,3.8-0.4,6.8-0.4v-14c0-0.5,0.5-1.1,0.7-1.6l-6.3,0H121.2
		z"/>
	<path fill="#CDCCCC" d="M192.3,131.6l8.3-6.5c-3.9-3.4-9.4-5-16.9-5c-7.7,0-13.3,1.9-17,5.9c-3.8,4.1-5.7,9.1-5.7,15.3v6.3
		c0,2.2-1.7,4.4-3.9,4.4H151v7h6.1c2.2,0,3.9,2.1,3.9,4.4v36.8c0,2.2-1.7,3.8-3.9,3.8H151v8h34v-8h-6.1c-2.2,0-4.9-1.6-4.9-3.8
		v-36.8c0-2.2,2.7-4.4,4.9-4.4h6.1v-7h-6.1c-2.2,0-4.9-2.2-4.9-4.4v-7.5c0-12.2,7.2-13.5,10.1-13.5
		C186.5,126.7,189.9,127.7,192.3,131.6z"/>
	<path fill="none" d="M121.2,146c-2.3,0-4.2-1.6-4.2-3.9v-35.3c0-2.3,1.9-3.9,4.2-3.9H169c3-1,6.1-1.2,6.1-8.7c0-2.2-0.6-4-1.7-5.2
		c-1.1-1.2-2.4-1.7-4.1-1.7c-3.9,0-7.1,0.1-9.3,0.2c0,0-0.1,0-0.1,0c-4.8,0.1-19.5,0.3-43.7,0.3h-9.7c-2.6,0-4.6,0.8-6.3,2.6
		c-1.7,1.9-2.4,4.1-2.2,7c0,0.1,0,0.1,0,0.2l0.6,23.2c0,0,0,0.1,0,0.1L98.3,171c0,2.7,0,5.8-0.1,9.2c-0.1,3.3-0.1,6.4-0.1,9.1
		c0,1.9,0,4.5-0.1,8c-0.1,3.4-0.1,5.4-0.1,6.1c0,3.6,0.7,6.1,2,7.4c1.3,1.3,4.1,1.9,7.9,1.9c6.4,0,8.6-2.4,8.6-8.5l-0.4-22.8v-15.6
		c0-2.3,2.4-3.7,4.6-3.7h15.6c1.7,0,3.8-0.4,6.8-0.4v-14c0-0.5,0.5-0.8,0.7-1.3c0,0,0.2-0.1,0.2-0.1l-6.5-0.2H121.2z"/>
	<path fill="none" d="M166.7,126c-3.8,4.1-5.7,9.1-5.7,15.3v6.3c0,2.2-1.7,4.4-3.9,4.4H151v7h6.1c2.2,0,3.9,2.1,3.9,4.4v36.8
		c0,2.2-1.7,3.8-3.9,3.8H151v8h34v-8h-6.1c-2.2,0-4.9-1.6-4.9-3.8v-36.8c0-2.2,2.7-4.4,4.9-4.4h6.1v-7h-6.1c-2.2,0-4.9-2.2-4.9-4.4
		v-7.5c0-12.2,7.2-13.5,10.1-13.5c2.4,0,5.7,1,8,5l8.4-6.5c-3.9-3.4-9.5-5-17-5C175.9,120.1,170.3,122,166.7,126z"/>
	<path fill="#5A81B8" d="M183.6,112.1c-9.9,0-17.6,2.9-22.8,8.5c-4.4,4.7-7.1,10.5-7.8,17.1c0,0,0,0,0,0l-15.6,0.3H125v-27h44.1
		c0.1,0,0.2,0,0.2,0c5.2-0.3,14-2.9,14-16.8c0-4.3-1.3-7.9-3.9-10.7c-2.6-2.8-6.2-4.3-10.1-4.3c-4,0-7.3,0.3-9.7,0.4
		c-4.8,0.1-19.4,0.4-43.5,0.4h-9.7c-5,0-9.1,1.6-12.4,5.2c-3.2,3.6-4.7,7.8-4.4,13l0.6,23L90,171c0,2.7,0,5.7-0.1,9.1
		c-0.1,3.4-0.1,6.5-0.1,9.2c0,1.8,0,4.4-0.1,7.8c-0.1,3.5-0.1,5.6-0.1,6.2c0,5.9,1.5,10.4,4.5,13.3c3,2.9,7.5,4.3,13.7,4.3
		c10.9,0,16.8-6.1,16.8-16.8l-0.6-22.8V170h12.2c2.3,0,5.9-0.1,11.8,0c1.6,0,3-0.1,4,0v26h-4.8c-2.2,0-4.2,2-4.2,4.2v15.7
		c0,2.2,2,4.1,4.2,4.1h42.4c2.2,0,3.4-1.8,3.4-4.1v-15.7c0-2.2-1.2-4.2-3.4-4.2H182v-29h7.6c2.2,0,3.4-1.4,3.4-3.6v-15.7
		c0-2.2-1.2-3.6-3.4-3.6H182v-3.9c0-1.3,0.6-5.4,2.1-5.4c0,0,1.3,0.6,2.4,4.4c0.4,1.3,1.5,2.3,2.7,2.7c1.3,0.4,2.7,0.2,3.8-0.7
		l15.8-12.4c1.7-1.3,2.1-3.7,0.8-5.5C204.4,115.9,195.6,112.1,183.6,112.1z M143.7,146.4c-0.2,0.5-0.7,0.7-0.7,1.3v14
		c-3,0-5.1,0.4-6.8,0.4h-15.6c-2.3,0-4.6,1.4-4.6,3.7v15.6l0.4,22.8c0,6.1-2.4,8.5-8.8,8.5c-3.8,0-6.6-0.7-7.9-1.9
		c-1.3-1.2-1.9-3.8-1.9-7.4c0-0.6,0-2.7,0.1-6.1c0.1-3.4,0.1-6.1,0.1-8c0-2.7,0-5.8,0.1-9.1c0.1-3.4,0.1-6.5,0.1-9.2l0.2-49.9
		c0,0,0-0.1,0-0.1l-0.6-23.2c0-0.1,0-0.1,0-0.2c-0.2-2.9,0.5-5.1,2.2-7c1.7-1.9,3.7-2.6,6.3-2.6h9.7c24.2,0,38.9-0.2,43.7-0.3
		c0,0,0.1,0,0.1,0c2.3-0.1,5.4-0.2,9.3-0.2c1.7,0,3,0.5,4.1,1.7c1.1,1.2,1.7,3,1.7,5.2c0,7.4-3.1,7.7-6.1,8.7h-47.8
		c-2.3,0-4.2,1.6-4.2,3.9v35.3c0,2.3,1.9,3.9,4.2,3.9h16.2l6.5,0.2C143.9,146.3,143.7,146.3,143.7,146.4z M192.3,131.6
		c-2.4-4-5.8-5-8.2-5c-2.9,0-10.1,1.3-10.1,13.5v7.5c0,2.2,2.7,4.4,4.9,4.4h6.1v7h-6.1c-2.2,0-4.9,2.1-4.9,4.4v36.8
		c0,2.2,2.7,3.8,4.9,3.8h6.1v8h-34v-8h6.1c2.2,0,3.9-1.6,3.9-3.8v-36.8c0-2.2-1.7-4.4-3.9-4.4H151v-7h6.1c2.2,0,3.9-2.2,3.9-4.4
		v-6.3c0-6.2,1.9-11.2,5.7-15.3c3.7-4,9.2-5.9,16.9-5.9c7.5,0,13.1,1.7,17,5L192.3,131.6z"/>
</g>
</svg>
