<?xml version="1.0" encoding="utf-8"?>
<!-- Generator: Adobe Illustrator 18.1.1, SVG Export Plug-In . SVG Version: 6.00 Build 0)  -->
<svg version="1.1" id="Layer_1" xmlns="http://www.w3.org/2000/svg" xmlns:xlink="http://www.w3.org/1999/xlink" x="0px" y="0px"
	 viewBox="0 0 300 300" enable-background="new 0 0 300 300" xml:space="preserve">
<g>
	<path fill="#CDCCCC" d="M57,154.1c-2.9,3.7-4,8.8-3.2,15.2c0.9,7,7.3,13,13.9,17.4c0.3-2.2,1.4-4.8,4.4-7.2
		c8.4-6.6,10.3-11.1,10.6-13.5c-8.1-3.7-15.1-9.3-20.4-16.3C60.5,150.8,58.6,152.1,57,154.1z"/>
	<path fill="#FFFFFF" d="M148.1,128.4c0.2-0.7,0.3-1.4,0.5-2.1c-0.3-1.9-0.5-3.9-0.7-5.9c-7.4-2.3-22.2-8.2-35.4-21.5
		c-7.1,6.9-24.7,20.9-51.3,20.9c-0.3,0-0.6,0-0.8,0c1.3,23.4,20.8,42.1,44.5,42.1c1.4,0,2.8-0.1,4.2-0.2
		c5.6-10.4,14.7-18.4,25.8-22.8c2.9-1.1,5.8-2,8.8-2.6C143.5,133.1,145.2,130,148.1,128.4z"/>
	<path fill="#CDCCCC" d="M108.8,73l-0.6,0c-38.3,0-46,27-47.5,37.8c0.2,0,0.3,0,0.5,0c30.4,0,47.6-21.1,47.8-21.3
		c0.8-1,2.1-1.7,3.4-1.7c0,0,0.1,0,0.1,0c1.3,0,2.5,0.6,3.4,1.5c11.2,12.7,24.6,19,32.2,21.8C144.2,93.6,129.5,73.2,108.8,73z"/>
	<path fill="#FFFFFF" d="M246.4,119.6c-0.3,0-0.6,0-0.9,0c-26.8,0-44.9-13.9-52.1-20.7c-13.9,14-29.5,19.9-36.5,22
		c0.3,3.4,0.9,6.7,1.9,9.8c0.4,0.6,0.8,1.2,1.1,2c0.3,0.8,0.5,1.7,0.6,2.5c0.1,0.2,0.2,0.4,0.3,0.6c15.9,2.3,29.7,12,37.3,26.3
		c1.2,0.1,2.4,0.2,3.6,0.2C225.6,162.3,245.3,143.3,246.4,119.6z"/>
	<path fill="#CDCCCC" d="M199.4,72.9c-0.8,0-1.7,0-2.6,0.1c-20.4,0.8-36.5,16.9-39.5,38.3c7.6-2.7,21.3-9,32.7-21.9
		c0.9-1,2.1-1.5,3.4-1.5c1.3,0,2.5,0.6,3.4,1.6c0.2,0.2,18.4,21.1,48.6,21.1C242.4,99.4,231.9,72.9,199.4,72.9z"/>
	<path fill="#FFFFFF" d="M153.4,227.4c5.2,0,10.3-1,15.2-2.9c10.3-4.1,18.4-11.9,22.8-22.1c1.7-3.8,2.7-7.8,3.2-11.8l-82.5-0.2
		c0.4,3.7,1.3,7.3,2.7,10.8C121.1,217,136.2,227.4,153.4,227.4z"/>
	<path fill="#FFFFFF" d="M152.6,145.2c-12.9,6.3-13.4,31.7-13.4,36.4l28,0c-0.4-5.1-1.8-16.9-6.6-26.9
		C158.6,151,156,147.6,152.6,145.2z"/>
	<path fill="#CDCCCC" d="M113.8,179.5l16.2,0.2c0-7.1,1-20.5,6.8-31.8c-1.7,0.7-3.5,1.6-5.3,2.7c0,0-0.1,0.1-0.1,0.1
		c-0.3,0.2-0.7,0.4-1,0.7c-0.3,0.2-0.6,0.4-0.9,0.6c-0.2,0.2-0.5,0.3-0.7,0.5c-0.2,0.1-0.3,0.2-0.5,0.3
		C121.6,157.8,115.4,166.1,113.8,179.5z"/>
	<path fill="#CDCCCC" d="M172.8,150.6c-2-1.2-3.9-2.1-5.8-2.9c0.4,0.7,0.8,1.5,1.2,2.3c6.2,11.2,7.7,24.5,8,29.7l15.6,0
		C190,166.8,183.7,157.1,172.8,150.6z"/>
	<g>
		<path fill="#5A81B8" d="M148.1,111.2c0-0.1,0-0.2-0.1-0.3C148,111,148,111,148.1,111.2C148,111.1,148.1,111.2,148.1,111.2z"/>
		<path fill="#5A81B8" d="M255.5,117.5c0-29.7-24.1-53.8-53.8-53.8c-2.4,0-4.8,0.2-7.2,0.5c-18.4,1.5-33.7,13.1-41.4,29.8
			c-5.3-10.9-14.3-19.8-25.2-25.1c0.9,0.5,1.8,1,2.7,1.6c-0.9-0.6-1.8-1.1-2.8-1.6c-4.5-2.4-9.4-4-14.8-4.6
			c-1.4-0.2-2.8-0.3-4.2-0.3l-0.6,0c0,0,0,0,0,0l0.6,0c1.4,0,2.9,0.1,4.2,0.3c-2.7-0.4-5.4-0.6-8.2-0.6c-7.9,0-15.4,1.7-22.2,4.8
			c0,0,0,0,0,0c-17.3,7-25.1,20.8-28.5,31.5c0,0.1,0,0.2-0.1,0.2c-1.1,3.4-1.9,6.9-2.3,10.5c-0.1,0.7-0.2,1.3-0.2,1.8
			c-0.2,1.6-0.2,2.5-0.2,2.5c0,0,0,0,0,0.1c0,0,0,0,0,0c0,0.7-0.1,1.4-0.1,2.1c0,9,2.2,17.5,6.2,24.9c-2.6,1.4-5.2,3.4-7.4,6.3
			c-4.5,5.7-6.3,13.1-5.2,22c2.4,19.8,30.7,30.6,31.9,31c0.5,0.2,1,0.3,1.6,0.3c1.6,0,3.2-0.9,4-2.4c1.1-2,0.5-4.5-1.4-5.8
			c-1.8-1.2-4.3-3.9-4.3-5.4c0-0.4,0.4-0.9,1.1-1.5c7.6-6,12.1-11.9,13.6-17.5c4.3,1.1,8.9,1.8,13.6,1.8c0.1,0,0.2,0,0.3,0
			c-3.4,11-3,22.7,1.3,33.5c7.7,19.4,26.1,32,47,32c6.3,0,12.6-1.2,18.5-3.5c12.5-5,22.4-14.5,27.8-26.9c2.2-5,3.5-9.9,4-15.2
			l12.1,0.3c0,0,0,0,0,0c2.5,0,4.5-2.2,4.5-4.7c0-2.5-2-4.6-4.5-4.6l-12-0.1c-0.3-3.5-1-6.9-2-10.3
			C231.4,171.3,255.5,147.1,255.5,117.5z M196.8,73c0.9,0,1.7-0.1,2.6-0.1c32.5,0,43,26.4,46,37.7c-30.3-0.1-48.4-20.9-48.6-21.1
			c-0.8-1-2.1-1.6-3.4-1.6c-1.3,0-2.6,0.5-3.4,1.5c-11.4,12.9-25,19.2-32.7,21.9C160.3,89.9,176.5,73.8,196.8,73z M160.6,154.7
			c0,0.1,0,0.3,0.1,0.4c4.7,10,6.1,21.9,6.5,26.9h-27.8c0-5,0.4-30.3,13.3-36.6C156,147.8,158.6,151,160.6,154.7z M167.1,147.7
			c1.9,0.8,3.8,1.7,5.8,2.9c10.8,6.4,17.2,16.2,19,29.1l-15.6,0c-0.3-5.2-1.8-18.5-8-29.7C167.9,149.2,167.5,148.5,167.1,147.7z
			 M148,111.1c-7.7-2.8-21-9.1-32.2-21.7c-0.9-1-2.1-1.5-3.4-1.5c0,0-0.1,0-0.1,0c-1.3,0-2.6,0.6-3.4,1.7
			c-0.2,0.2-17.4,21.3-47.8,21.3c-0.2,0-0.3,0-0.5,0C62.2,100,69.9,73,108.2,73l0.6,0c20.6,0.1,35.3,20.4,39.3,37.9 M72.1,179.5
			c-3,2.4-4.1,5-4.4,7.2c-6.6-4.3-13-10.4-13.9-17.4c-0.8-6.4,0.3-11.5,3.2-15.2c1.6-2,3.5-3.4,5.3-4.3c5.3,7,12.3,12.6,20.4,16.3
			C82.4,168.4,80.4,172.9,72.1,179.5z M104.9,161.8c-23.7,0-43.2-18.6-44.5-42.1c0.3,0,0.6,0,0.8,0c26.6,0,44.2-14,51.3-20.9
			c13.2,13.3,28,19.2,35.4,21.5c0-0.5,0-0.4,0,0c0.1,2,0.3,4,0.7,5.9c-0.1,0.7-0.3,1.4-0.5,2.1c-2.9,1.6-4.6,4.7-4.4,7.9
			c-3,0.6-5.9,1.4-8.8,2.6c-11.1,4.4-20.2,12.4-25.8,22.8C107.7,161.8,106.3,161.8,104.9,161.8z M136.8,147.8
			c-5.8,11.3-6.8,24.7-6.8,31.8l-16.2-0.2c1.5-12.4,6.9-20.4,13-25.5c0.5-0.4,1-0.8,1.5-1.2c0.2-0.1,0.3-0.2,0.5-0.3
			c0.2-0.2,0.5-0.3,0.7-0.5c0.3-0.2,0.6-0.4,0.9-0.6c0.3-0.2,0.7-0.5,1-0.7c0,0,0.1-0.1,0.1-0.1
			C133.4,149.4,135.1,148.5,136.8,147.8z M191.5,202.4c-4.4,10.2-12.5,18-22.8,22.1c-4.9,1.9-10,2.9-15.2,2.9
			c-17.2,0-32.3-10.3-38.6-26.3c-1.4-3.5-2.3-7.1-2.7-10.8l82.5,0.2C194.2,194.5,193.1,198.5,191.5,202.4z M201.6,162.3
			c-1.2,0-2.4-0.1-3.6-0.2c-7.5-14.3-21.3-24-37.3-26.3c-0.1-0.2-0.2-0.4-0.3-0.6c-0.1-0.9-0.2-1.7-0.6-2.5c-0.3-0.7-0.7-1.4-1.1-2
			c-1-3.1-1.6-6.4-1.9-9.8c2.7-0.7,22.6-8,36.5-22c7.2,6.8,25.3,20.7,52.1,20.7c0.3,0,0.6,0,0.9,0c1.6,0,3.2-0.1,4.8-0.2
			c1.2-0.1,2.4-0.7,3.2-1.7c0.8-1,1.1-2.2,1-3.5c-0.1-0.5-1.9-12.7-9.5-25c-7.3-11.6-21.3-25.5-46.8-25.4
			c25.5-0.1,39.6,13.7,46.8,25.4c7.7,12.3,9.5,24.5,9.5,25c0.2,1.2-0.2,2.5-1,3.5c-0.8,1-1.9,1.6-3.2,1.7c-1.6,0.1-3.2,0.2-4.8,0.2
			C245.3,143.3,225.6,162.3,201.6,162.3z"/>
	</g>
</g>
</svg>
