<?xml version="1.0" encoding="utf-8"?>
<!-- Generator: Adobe Illustrator 18.1.1, SVG Export Plug-In . SVG Version: 6.00 Build 0)  -->
<svg version="1.1" id="Layer_1" xmlns="http://www.w3.org/2000/svg" xmlns:xlink="http://www.w3.org/1999/xlink" x="0px" y="0px"
	 viewBox="0 0 300 300" enable-background="new 0 0 300 300" xml:space="preserve">
<g>
	<path fill="#FFFFFF" d="M78.2,194.3c0-9.5,7.5-17.2,17-17.2c1.8,0,3.8,0.3,4.8,0.8v-18.4c-1,0.5-3,0.8-4.8,0.8
		c-9.5,0-17.1-7.7-17.1-17.2c0-9.5,7.8-17.2,17.3-17.2c4.6,0,8.7,1.8,11.8,4.7c6.3-8.6,16.5-14.2,28-14.2c5,0,9.8,1.1,14,2.9
		l15.8-13V100h-2.4c-3,0-5.6-2.6-5.6-5.6V77.1c0-5.8,3-10.8,8-13.5V61H69v176h38.7c-4.5-6-7.7-13.2-7.7-21.2v-2.4v-2.7
		c-1,0.5-3,0.8-4.8,0.8C85.7,211.5,78.2,203.8,78.2,194.3z M138.1,74.5c9.5,0,17.2,7.7,17.2,17.2c0,9.5-7.7,17.2-17.2,17.2
		s-17.2-7.7-17.2-17.2C120.8,82.2,128.6,74.5,138.1,74.5z M95.5,74.5c9.5,0,17.2,7.7,17.2,17.2c0,9.5-7.7,17.2-17.2,17.2
		c-9.5,0-17.2-7.7-17.2-17.2C78.2,82.2,86,74.5,95.5,74.5z"/>
	<path fill="#CCCCCC" d="M95.5,97.9c3.4,0,6.2-2.8,6.2-6.2c0-3.4-2.8-6.2-6.2-6.2c-3.4,0-6.2,2.8-6.2,6.2
		C89.2,95.1,92,97.9,95.5,97.9z"/>
	<path fill="#CCCCCC" d="M138.1,97.9c3.4,0,6.2-2.8,6.2-6.2c0-3.4-2.8-6.2-6.2-6.2s-6.2,2.8-6.2,6.2
		C131.8,95.1,134.6,97.9,138.1,97.9z"/>
	<path fill="#CCCCCC" d="M95.5,136.8c-3.4,0-6.2,2.8-6.2,6.2c0,3.4,2.8,6.2,6.2,6.2c2.3,0,4.3-1.3,5.4-3.2c0.2-1.3,0.4-2.6,0.8-3.8
		C101.2,139.2,98.6,136.8,95.5,136.8z"/>
	<path fill="#CCCCCC" d="M95.2,188.1c-3.4,0-6.1,2.8-6.1,6.2c0,3.4,2.6,6.2,6,6.2c2.1,0,3.9-1,4.9-2.6v-7.2
		C99,189.1,97.3,188.1,95.2,188.1z"/>
	<path fill="#FFFFFF" d="M176,108.6c0,1.6-0.7,3.2-2,4.2l-15.2,12.7c2.7,2.5,5,5.5,6.8,8.5h49.6c3,0,5.8,2.5,5.8,5.5v76.1
		c0,3-2.8,5.4-5.8,5.4H199c-1,5-3.3,11-6.6,15H230V134.4l-26-21.6c-1.3-1-2-2.6-2-4.2V100h-26V108.6z"/>
	<path fill="#FFFFFF" d="M210,89V77.1c0-2.6-2.2-5.1-4.8-5.1h-32.4c-2.6,0-4.8,2.5-4.8,5.1V89H210z"/>
	<path fill="#CCCCCC" d="M210,145h-40.6c0.3,2,0.6,3.9,0.6,6V180c15,2.6,27,15,29.2,30H210V145z"/>
	<path fill="#FFFFFF" d="M135,127.2c-13.1,0-24,10.6-24,23.7v24.4l48,2.3V151C159,137.9,148.1,127.2,135,127.2z"/>
	<path fill="#CCCCCC" d="M111,186.3v27.1c0,14.4,10.9,26.1,24,26.1c1,0,2.5-0.2,3.5-0.3c-6-6.4-10-14.8-10-24.2
		c0-10.9,4.7-20.7,12.5-27.2L111,186.3z"/>
	<path fill="#FFFFFF" d="M144.5,229.7c4.5,5.9,11.6,9.7,19.5,9.7c13.5,0,24.5-11,24.5-24.5c0-1.4-0.1-2.8-0.4-4.2L144.5,229.7z"/>
	<path fill="#FFFFFF" d="M183.8,200.6c-4.5-6.1-11.7-10.1-19.8-10.1c-13.5,0-24.5,11-24.5,24.5c0,1.6,0.2,3.2,0.5,4.7L183.8,200.6z"
		/>
	<g>
		<path fill="#5980B7" d="M95.5,108.9c9.5,0,17.2-7.7,17.2-17.2c0-9.5-7.7-17.2-17.2-17.2c-9.5,0-17.2,7.7-17.2,17.2
			C78.2,101.2,86,108.9,95.5,108.9z M95.5,85.5c3.4,0,6.2,2.8,6.2,6.2c0,3.4-2.8,6.2-6.2,6.2c-3.4,0-6.2-2.8-6.2-6.2
			C89.2,88.2,92,85.5,95.5,85.5z"/>
		<path fill="#5980B7" d="M138.1,108.9c9.5,0,17.2-7.7,17.2-17.2c0-9.5-7.7-17.2-17.2-17.2s-17.2,7.7-17.2,17.2
			C120.8,101.2,128.6,108.9,138.1,108.9z M138.1,85.5c3.4,0,6.2,2.8,6.2,6.2c0,3.4-2.8,6.2-6.2,6.2s-6.2-2.8-6.2-6.2
			C131.8,88.2,134.6,85.5,138.1,85.5z"/>
		<path fill="#5980B7" d="M239,127.6L213,106v-6h2.4c3,0,5.6-2.6,5.6-5.6V77.1c0-8.7-7.2-16.1-15.8-16.1H176v-5.5
			c0-3-2.6-5.5-5.7-5.5H63.2c-3,0-5.2,2.4-5.2,5.5v187c0,3,2.1,5.5,5.2,5.5h59.7c3.8,2,7.8,2.3,12.1,2.3c-4.2,0-8.2-0.3-12-2.3h0.1
			c3.7,2,7.8,2.4,12,2.4c4.4,0,8.8-0.8,12.7-2.4c-3.3,1.4-6.9,2.2-10.6,2.5c3.9-0.2,7.7-1.1,11.2-2.5c0.4-0.2,0.9-0.4,1.3-0.6
			c0.4,0.2,0.9,0.4,1.4,0.6c4,1.6,8.4,2.4,13.1,2.4c5.3,0,10.2-1.4,14.7-3.4h56.8c3,0,5.5-2.2,5.5-5.2V131.9
			C241,130.2,240.3,128.7,239,127.6z M168,77.1c0-2.6,2.2-5.1,4.8-5.1h32.4c2.6,0,4.8,2.5,4.8,5.1V89h-42V77.1z M100,213.4v2.4
			c0,8,3,15.2,7.5,21c0.1,0.1,0.2,0.1,0.2,0.1H69V61h96v2.4c-0.1,0-0.1,0.1-0.2,0.1c-4.7,2.7-7.8,7.8-7.8,13.6v17.3
			c0,3,2.5,5.6,5.6,5.6h2.3h0.2v6l-0.2,0.1l-15.7,13c-4.3-1.9-9-2.9-13.9-2.9c-11.5,0-21.7,5.6-28,14.2c-2.6,3.5-4.5,7.5-5.6,11.8
			c-0.3,1.3-0.8,2.5-1,3.8c-0.2,1.2-0.4,2.4-0.5,3.7c0.1-1.2,0.4-2.5,0.5-3.7c-1.1,1.9-3,3.2-5.3,3.2c-3.4,0-6.2-2.8-6.2-6.2
			c0-3.4,2.8-6.2,6.2-6.2c3.2,0,5.8,2.4,6.2,5.4c1.1-4.3,3.1-8.3,5.6-11.8c-3.1-2.9-7.2-4.7-11.8-4.7c-9.5,0-17.2,7.7-17.2,17.2
			c0,9.5,7.5,17.2,17,17.2c1.8,0,3.8-0.3,4.8-0.8v18.4c-1-0.5-3-0.8-4.8-0.8c-9.5,0-17.1,7.7-17.1,17.2c0,9.5,7.5,17.2,17,17.2
			c1.8,0,3.9-0.3,4.9-0.8V213.4C100,228.4,100,228.3,100,213.4z M159,151v26.7l-0.1,0l-47.5-2.3l-0.5,0V151
			c0-13.1,10.9-23.7,24-23.7C148.1,127.2,159,137.9,159,151z M100,190.7v7.2c-1,1.6-2.7,2.6-4.8,2.6c-3.4,0-6.1-2.8-6.1-6.2
			c0-3.4,2.6-6.2,6-6.2C97.2,188.1,99,189.1,100,190.7z M135,239.5c-13.1,0-24-11.7-24-26.1v-27.1l29.9,1.4
			c-7.7,6.5-12.5,16.2-12.5,27c0,9.4,3.8,18.2,9.8,24.5C137.2,239.5,136,239.5,135,239.5z M139.5,215c0-13.5,11-24.5,24.5-24.5
			c8.2,0,15.4,4,19.8,10.1L140,219.7C139.7,218.2,139.5,216.6,139.5,215z M164,239.5c-8,0-15.1-3.8-19.5-9.7l43.7-19
			c0.2,1.4,0.4,2.8,0.4,4.2C188.5,228.5,177.5,239.5,164,239.5z M170,180C170,180,169.9,180,170,180C170,180,170,180,170,180l0-29.1
			c0-1.9-0.2-4-0.5-6H210v65h-10.8c0,0,0,0,0,0C197,194.7,185.1,182.6,170,180z M230,236h-37.6c3.3-4,5.5-9,6.5-15h16.3
			c3,0,5.8-2.4,5.8-5.4v-76.1c0-3-2.8-5.5-5.8-5.5h-49.5c0,0-0.1,0-0.1-0.1c-1.8-3.2-4.1-6-6.8-8.5c0,0,0,0,0,0l15.2-12.6
			c1.3-1,2-2.6,2-4.2V100h26v8.6c0,1.6,0.7,3.2,2,4.2l26,21.6V236z"/>
		<path fill="#5980B7" d="M137.1,250.5c-0.6,0-1.2,0.1-1.9,0.1C135.9,250.5,136.5,250.5,137.1,250.5z"/>
		<path fill="#5980B7" d="M137.1,250C137.1,250,137.1,250,137.1,250C137.1,250,137.1,250,137.1,250z"/>
	</g>
</g>
</svg>
