<?xml version="1.0" encoding="utf-8"?>
<!-- Generator: Adobe Illustrator 18.1.1, SVG Export Plug-In . SVG Version: 6.00 Build 0)  -->
<svg version="1.1" id="Layer_1" xmlns="http://www.w3.org/2000/svg" xmlns:xlink="http://www.w3.org/1999/xlink" x="0px" y="0px"
	 viewBox="0 0 300 300" enable-background="new 0 0 300 300" xml:space="preserve">
<g>
	<path fill="none" d="M86.6,76.9c-1.7-1.7-3.6-2.4-6.1-2.4c-1.7,0-3.5,0.4-5.3,1c0,0,0,0,0,0L72.5,90l20.1,55.7l2.1-0.8l3.2-50.3
		C97.6,93.4,95.9,86.2,86.6,76.9z"/>
	<path fill="none" d="M138.1,138.7c-5.2-10-5.1-21.9,0.3-31.6c2.8-5.1,6.9-9.2,11.7-12.2c0-0.3,0-0.5,0-0.8c0.3-2,0.2-5.8-1-7.2
		c-0.2-0.2-0.5-0.6-1.6-0.6c-4.9,0-13.1,5.9-17.5,9.9l2.9,51.9L138.1,138.7z"/>
	<path fill="#CDCCCC" d="M237.5,121l16-27l-16-27h-32.2l-16,26.8l6.9,11.5c0.7,1.1,1.4,2.3,1.9,3.4l7.2,12.3H237.5z M221.4,76.1
		c9.5,0,17.2,7.7,17.2,17.2s-7.7,17.2-17.2,17.2s-17.2-7.7-17.2-17.2S211.9,76.1,221.4,76.1z"/>
	<path fill="#FFFFFF" d="M221.4,102.5c5.1,0,9.2-4.1,9.2-9.2s-4.1-9.2-9.2-9.2s-9.2,4.1-9.2,9.2S216.3,102.5,221.4,102.5z"/>
	<path fill="#FFFFFF" d="M158.2,234h50.1c13.5-10,21.3-24.2,21.3-39.5c0-0.4,0-0.8,0-1.2c-0.3-0.5-0.4-1.2-0.5-1.8
		c0-0.2-0.8-9.7-5.1-19.5c-6.7-12.3-18.8-21.3-33-23.7c-5.4,4.9-12.4,8-20,8.6l-8,14.4c5.2-5.2,12.4-8.5,20.3-8.5
		c15.8,0,28.6,12.8,28.6,28.6c0,15.8-12.8,28.6-28.6,28.6s-28.6-12.8-28.6-28.6c0-2.2,0.3-4.4,0.8-6.5l-7,12.7
		c4.6,8.9,5.1,19.5,1.2,28.6C152.2,229,155,232,158.2,234z"/>
	<path fill="#CDCCCC" d="M183.3,211c10.8,0,19.6-8.8,19.6-19.6s-8.8-19.6-19.6-19.6s-19.6,8.8-19.6,19.6S172.5,211,183.3,211z"/>
	<path fill="#FFFFFF" d="M146.3,111.4c-4.3,7.7-4,17.2,0.8,24.9c0.9,1.4,0.9,3.1,0.1,4.6L133.8,165l0.7,11.8l14.9-26.3
		c0.8-1.4,2.6-1.9,4.1-1.1c1.4,0.8,1.9,2.6,1.1,4.1l-19.5,34.4l2,36.1c0.2,1.9,0.1,3.8-0.2,5.6c1.2-1.4,2.4-2.9,3.3-4.6
		c4.3-7.7,4-17.3-0.8-24.9c-0.9-1.4-0.9-3.1-0.1-4.6l25-45.1c0.8-1.4,2.3-2.3,3.9-2.3c9,0,17.3-4.8,21.6-12.6
		c3.8-6.8,3.9-15,0.8-21.9L180,132.6c-0.6,1-1.5,1.8-2.7,2.1c-1.1,0.3-2.4,0.2-3.4-0.4l-18.3-10.1c-2.2-1.2-3-3.9-1.8-6.1l10.3-18.6
		l-1.9,0C155.5,101,149.6,105.3,146.3,111.4z"/>
	<path fill="#CDCCCC" d="M93,70.6c8.1,8.2,11.5,15.2,12.9,19.4l17.7,0c4-3.6,14.8-12.7,23.8-12.7c3.5,0,6.4,1.3,8.5,3.7
		c2.3,2.7,3.1,6.3,3.3,9.2l7.5,0l0.1-33.4l-8.6,0c-2,3.4-6.2,8.7-12.8,8.7c-4.8,0-9.6-2.9-14.3-8.7l-39.6-0.1
		c-0.8,0-14,0.2-22.4,7.9l2.1,2.9c3-1.2,6.2-1.9,9.5-1.9C85.4,65.5,89.6,67.2,93,70.6z"/>
	<path fill="#FFFFFF" d="M121.1,99l-14.5,0l-2.9,44.6c0.8,0.5,1.4,1.3,1.7,2.2l21.6,59.9L121.1,99z"/>
	<path fill="#CDCCCC" d="M63.4,89.5l2.7-13.8L54.3,60L47,62.6l0.7,19.9L58,91.5c0.6,0.5,1,1.1,1.3,1.9l20.5,56.9l4.3-1.5L63.6,91.8
		C63.3,91.1,63.2,90.3,63.4,89.5z"/>
	<path fill="#FFFFFF" d="M78.3,178.5l20.5,57c1.7,4.6,6.1,7.8,11,7.8c1.4,0,2.7-0.2,4-0.7l4-1.4c2.9-1.1,5.3-3.2,6.6-6s1.5-6,0.4-9
		l-20.5-57L78.3,178.5z M86.1,189.6c-0.7-2.1,0.3-4.4,2.4-5.1c2.1-0.7,4.4,0.3,5.1,2.4L107,224c0.7,2.1-0.3,4.4-2.4,5.1
		c-0.4,0.2-0.9,0.2-1.4,0.2c-1.6,0-3.2-1-3.8-2.6L86.1,189.6z M104.3,183l13.4,37.2c0.7,2.1-0.3,4.4-2.4,5.1
		c-0.4,0.2-0.9,0.2-1.4,0.2c-1.6,0-3.2-1-3.8-2.6l-13.4-37.2c-0.7-2.1,0.3-4.4,2.4-5.1C101.2,179.9,103.5,180.9,104.3,183z"/>
	
		<rect x="82.9" y="147.7" transform="matrix(0.3389 0.9408 -0.9408 0.3389 209.4658 25.0362)" fill="#FFFFFF" width="8.1" height="27.7"/>
	<path fill="#CDCCCC" d="M228.1,160.7l-0.5-14.3l-8.4,4.1C222.8,153.5,225.7,157,228.1,160.7z"/>
	<g>
		<path fill="#5A81B8" d="M221.4,110.5c9.5,0,17.2-7.7,17.2-17.2s-7.7-17.2-17.2-17.2s-17.2,7.7-17.2,17.2S211.9,110.5,221.4,110.5z
			 M221.4,84.1c5.1,0,9.2,4.1,9.2,9.2s-4.1,9.2-9.2,9.2s-9.2-4.1-9.2-9.2S216.3,84.1,221.4,84.1z"/>
		<path fill="#5A81B8" d="M201.4,128.5c0.5,0.2,1,0.5,1.5,0.5h36.8c1.4,0,2.7-0.9,3.4-2.1l18.4-31.1c0.7-1.3,0.7-2.9,0-4.1
			l-18.4-30.8c-0.7-1.2-2-1.8-3.4-1.8H203c-1.4,0-2.7,0.6-3.4,1.8l-18.4,30.9c-0.7,1.3-0.7,2.8,0,4l4.7,7.8l-11.5,20.8l-10.4-5.8
			l12-21.7c0.7-1.3,0.8-2.8,0.1-4.2c-0.1-0.2-0.2-0.4-0.3-0.5l0.1-39.9c0-2.5-2-4.4-4.5-4.4L155.4,48c0,0,0,0,0,0
			c-1.8,0-3.5,1-4.2,2.7c-0.5,1.2-3,5.9-5.9,5.9c-2.2,0-5.3-2.6-8.4-6.9c-0.8-1.2-2.2-1.9-3.6-1.9l-41.8-0.1
			c-7.7,0-19.4,2.4-27.9,9.6l-4.1-5.4c-1.2-1.6-3.3-2.2-5.1-1.5l-13.5,4.8c-1.8,0.7-3,2.4-3,4.4l0.9,25.1c0,1.2,0.6,2.4,1.5,3.2
			l10.9,9.6l20.1,55.8l-6.1,2.2c-1.1,0.4-2,1.2-2.5,2.3s-0.6,2.3-0.2,3.4l27.9,77.3c3,8.2,10.8,13.7,19.5,13.7c2.4,0,4.8-0.4,7-1.2
			l4-1.4c2.8-1,5.2-2.5,7.3-4.5c6.6-1.9,12.4-5.8,16.7-11.1c2.8,2.8,5.9,5.6,9.4,8c0.7,0.5,1.6,1,2.5,1h0.6h52.4h42.8
			c2.4,0,4.4-2,4.5-4.4l0.7-13.2c0.1-2.5-1.8-4.7-4.2-4.8c-2.5-0.1-4.6,1.9-4.7,4.4l-0.5,9h-26.2c10.6-11,16.5-24.8,16.5-39.5
			c0-3-0.2-6.1-0.7-8.9l-1.5-46.3c0-1.5-0.9-2.9-2.2-3.7c-1.3-0.8-2.9-0.9-4.3-0.2l-20.5,10c-3.8-2.1-7.9-3.7-12.1-4.8
			c0.1-0.2,0.3-0.3,0.4-0.5C199.7,136.3,200.9,132.5,201.4,128.5z M91.4,56.7l39.6,0.1c4.7,5.8,9.5,8.7,14.3,8.7
			c6.6,0,10.8-5.2,12.8-8.7l8.6,0l-0.1,33.4l-7.5,0c-0.2-2.9-1-6.5-3.3-9.2c-2.1-2.4-5-3.7-8.5-3.7c-9,0-19.9,9.1-23.8,12.7
			l-17.7-0.2c-1.4-4.2-4.8-11.1-12.9-19.3c-3.4-3.4-7.6-5.1-12.4-5.1c-3.2,0-6.4,0.8-9.5,2l3.4,4.5c0.6,0.8,0.9,1.7,0.9,2.6
			c0-0.9-0.3-1.8-0.9-2.6l-3.4-4.5L69,64.6C77.4,56.9,90.6,56.7,91.4,56.7z M138.1,138.7l-5.2,9.4l-2.9-51.9
			c4.4-3.9,12.6-9.9,17.5-9.9c1.1,0,1.5,0.4,1.6,0.6c1.2,1.4,1.3,5.1,1,7.2c0,0.3,0,0.5,0,0.8c-4.8,3-8.8,7.1-11.7,12.2
			C133,116.8,132.9,128.7,138.1,138.7z M59.3,93.4C59,92.7,58.6,92,58,91.5l-10.4-9.1L47,62.6l7.2-2.6l11.8,15.7l-2.7,13.8
			c-0.2,0.8-0.1,1.6,0.2,2.4l20.5,56.9l-4.3,1.5L59.3,93.4z M72.5,162.4l26-9.4l2.8,7.6l-26,9.4L72.5,162.4z M124.5,235.1
			c-1.3,2.8-3.7,5-6.6,6l-4,1.4c-1.3,0.5-2.6,0.7-4,0.7c-4.9,0-9.4-3.1-11-7.8l-20.5-57l26-9.4l20.5,57
			C126,229.1,125.8,232.3,124.5,235.1z M127.1,205.7l-21.6-59.9c-0.3-0.9-0.9-1.7-1.7-2.2c-0.2-0.1-0.4-0.3-0.6-0.4
			c-1.1-0.5-2.3-0.6-3.4-0.2l-5.1,1.8l-2.1,0.8L72.5,90l2.7-14.5c0,0-0.1,0-0.1,0c0,0,0,0,0,0c2-0.6,3.7-1,5.4-1
			c2.5,0,4.4,0.8,6.1,2.4c9.3,9.3,11.1,16.4,11.3,17.7l-3.2,50.3l5.1-1.8c1.1-0.4,2.4-0.3,3.4,0.2c0.2,0.1,0.4,0.2,0.6,0.4l2.9-44.6
			l14.5,0L127.1,205.7L127.1,205.7z M139.4,200.1c4.8,7.6,5.1,17.2,0.8,24.9c-0.9,1.7-2,3.2-3.3,4.6c0.3-1.8,0.3-3.7,0.2-5.6
			l-2-36.1l19.5-34.4c0.8-1.4,0.3-3.3-1.1-4.1c-1.4-0.8-3.3-0.3-4.1,1.1l-14.9,26.3l-0.7-11.8l13.4-24.1c0.8-1.4,0.7-3.2-0.1-4.6
			c-4.8-7.6-5.1-17.2-0.8-24.9c3.4-6.1,9.2-10.4,15.9-11.9l1.9,0l-10.3,18.6c-1.2,2.2-0.4,4.9,1.8,6.1l18.3,10.1
			c1,0.6,2.3,0.7,3.4,0.4c1.1-0.3,2.1-1.1,2.7-2.1l10.5-19.1c3.2,6.9,3,15.1-0.8,21.9c-4.3,7.7-12.5,12.6-21.6,12.6
			c-1.6,0-3.1,0.9-3.9,2.3l-25,45.1C138.5,196.9,138.6,198.7,139.4,200.1z M227.6,146.4l0.5,14.3c-2.4-3.7-5.3-7.2-8.9-10.1
			L227.6,146.4z M224,172c4.4,9.8,5.1,19.3,5.1,19.5c0,0.6,0.2,1.2,0.5,1.7c0,0.4,0,0.9,0,1.3c0,15.3-7.7,29.5-21.3,39.5h-50.1
			c-3.2-2-6.1-5-8.6-7.7c3.8-9.1,3.4-19.6-1.2-28.5l7-12.8c-0.5,2.1-0.8,4.2-0.8,6.5c0,15.8,12.8,28.6,28.6,28.6
			s28.6-12.8,28.6-28.6c0-15.8-12.8-28.6-28.6-28.6c-7.9,0-15.1,3.3-20.3,8.5l8-14.4c7.5-0.6,14.5-3.7,20-8.6
			C205.2,150.7,217.2,159.7,224,172z M163.7,191.4c0-10.8,8.8-19.6,19.6-19.6s19.6,8.8,19.6,19.6s-8.8,19.6-19.6,19.6
			S163.7,202.2,163.7,191.4z M196.1,105.2l-6.9-11.4l16-26.8h32.2l16,27l-16,27h-32.2l-7.2-12.3
			C197.5,107.6,196.8,106.3,196.1,105.2z"/>
		<path fill="#5A81B8" d="M93.6,186.9c-0.8-2.1-3-3.2-5.1-2.4c-2.1,0.7-3.2,3-2.4,5.1l13.4,37.2c0.6,1.6,2.1,2.6,3.8,2.6
			c0.5,0,0.9-0.1,1.4-0.2c2.1-0.7,3.2-3,2.4-5.1L93.6,186.9z"/>
		<path fill="#5A81B8" d="M104.3,183c-0.7-2.1-3-3.2-5.1-2.4c-2.1,0.7-3.2,3-2.4,5.1l13.4,37.2c0.6,1.6,2.1,2.6,3.8,2.6
			c0.5,0,0.9-0.1,1.4-0.2c2.1-0.7,3.2-3,2.4-5.1L104.3,183z"/>
	</g>
</g>
</svg>
