<?xml version="1.0" encoding="utf-8"?>
<!-- Generator: Adobe Illustrator 18.1.1, SVG Export Plug-In . SVG Version: 6.00 Build 0)  -->
<svg version="1.1" id="Layer_1" xmlns="http://www.w3.org/2000/svg" xmlns:xlink="http://www.w3.org/1999/xlink" x="0px" y="0px"
	 viewBox="0 0 300 300" enable-background="new 0 0 300 300" xml:space="preserve">
<g>
	<path fill="#FFFFFF" d="M159.3,110.5c0-6.7,2.1-12.7,5.8-17.7l-15.3-15.2l-15.3,15.4c3.6,5.1,5.8,10.9,5.8,17.5c0,0.3,0,0.6,0,0.6
		h19.2C159.3,111,159.3,110.8,159.3,110.5z"/>
	<path fill="#FFFFFF" d="M140.1,188.5c0,6.7-2.1,13.2-5.8,18.2l15.3,15.5L165,207c-3.6-5.1-5.8-11.8-5.8-18.5c0-0.3,0-0.5,0-1.5
		h-19.2C140.1,188,140.1,188.2,140.1,188.5z"/>
	<path fill="#FFFFFF" d="M190.1,158.3c6.7,0,12.8,2.1,17.9,5.8l14.1-14.1L208,135.9c-5.1,3.6-11.2,5.8-17.9,5.8
		c-0.7,0-1.1,0-2.1-0.1v16.8C189,158.4,189.4,158.3,190.1,158.3z"/>
	<path fill="#FFFFFF" d="M91.4,164.1c5.1-3.6,11.5-5.8,18.2-5.8c0.7,0,1.4,0,2.4,0.1v-16.8c-1,0.1-1.7,0.1-2.4,0.1
		c-6.7,0-13-2.1-18-5.8L77.4,150L91.4,164.1z"/>
	<path fill="#FFFFFF" d="M117.2,111h11.3c0,0,0-0.2,0-0.5c0-10.6-8.6-19-19.2-19s-19.2,8.7-19.2,19.3c0,10.6,8.8,19.2,19.4,19.2
		c0.7,0,1.4,0,2.4-0.1v-12.4C112,114.4,114.1,111,117.2,111z"/>
	<path fill="#FFFFFF" d="M188,117.5v12.4c1,0.1,1.4,0.1,2.1,0.1c10.6,0,19.2-8.6,19.2-19.2c0-10.6-8.6-19.2-19.2-19.2
		s-19.2,8.2-19.2,18.8c0,0.3,0,0.5,0,0.5h11.3C185.3,111,188,114.4,188,117.5z"/>
	<path fill="#FFFFFF" d="M112,182.5v-12.4c-1-0.1-1.7-0.1-2.4-0.1c-10.6,0-19.3,8.6-19.3,19.2s8.5,19.2,19.1,19.2
		s19.2-9.2,19.2-19.8c0-0.3-0.1-0.5-0.1-1.5h-11.3C114.1,187,112,185.6,112,182.5z"/>
	<path fill="#FFFFFF" d="M182.2,187h-11.3c0,1,0,1.2,0,1.5c0,10.6,8.6,19.5,19.2,19.5s19.2-8.5,19.2-19s-8.6-19.1-19.1-19.1
		c-0.7,0-1.1,0.1-2.1,0.2v12.4C188,185.6,185.3,187,182.2,187z"/>
	<rect x="123" y="122" fill="#CCCCCC" width="54" height="54"/>
	<path fill="#5980B7" d="M234.8,145.5l-18.5-18.5c-0.1,0.2-0.2,0.3-0.3,0.5c-2.1,3.3-4.8,6.2-8,8.4l14.1,14.1L208,164.1
		c-5.1-3.6-11.2-5.8-17.9-5.8c-0.7,0-1.1,0-2.1,0.1v-16.8c1,0.1,1.4,0.1,2.1,0.1c6.7,0,12.8-2.1,17.9-5.8c3.2-2.3,5.9-5.1,8-8.4
		c0.1-0.2,0.2-0.3,0.3-0.5c2.9-4.7,4.5-10.2,4.5-16.1c0-17-13.8-30.8-30.8-30.8c-5.9,0-11.4,1.7-16.1,4.5l-19.7-19.7
		c-2.5-2.5-6.6-2.5-9.1,0l-19.7,19.7c0,0,0,0,0,0c-4.7-2.9-10.2-4.5-16.1-4.5c-17,0-30.8,13.8-30.8,30.8c0,5.9,1.7,11.4,4.5,16.1
		c0.1,0.2,0.2,0.3,0.3,0.5c1.8,2.9,4.2,5.4,6.8,7.5c-2.7-2.1-5-4.7-6.8-7.5L65,145.9c-2.3,2.3-2.3,5.9,0,8.2l18.4,18.4
		c2.1-3.3,4.8-6.2,8-8.4L77.3,150l14.1-14.1c5.1,3.6,11.5,5.8,18.2,5.8c0.7,0,1.4,0,2.4-0.1v16.8c-1-0.1-1.7-0.1-2.4-0.1
		c-6.7,0-13,2.1-18,5.8c-3.2,2.3-6,5.1-8.1,8.4c-0.1,0.2-0.3,0.3-0.4,0.5c-2.9,4.7-4.6,10.2-4.6,16.1c0,17,13.8,30.8,30.8,30.8
		c5.9,0,11.4-1.7,16.1-4.5l19.7,19.7c1.3,1.3,2.9,1.9,4.5,1.9s3.3-0.6,4.5-1.9l19.7-19.7c-0.2-0.1-0.3-0.2-0.5-0.3
		c-3.3-2.1-6.2-4.8-8.4-8l-15.3,15.3l-15.3-15.3c3.6-5.1,5.8-11.8,5.8-18.5c0-0.3,0-0.5,0-1.5h19.2c0,1,0,1.2,0,1.5
		c0,6.7,2.1,13.2,5.8,18.2c2.3,3.2,5.1,6,8.4,8.2c0.2,0.1,0.3,0.3,0.5,0.4c4.7,2.9,10.2,4.6,16.1,4.6c17,0,30.8-13.8,30.8-30.8
		c0-5.9-1.7-11.4-4.5-16.1l18.5-18.5C237.3,152,237.3,148,234.8,145.5z M190.1,91.7c10.6,0,19.2,8.6,19.2,19.2
		c0,10.6-8.6,19.2-19.1,19.2c-0.7,0-1.1,0-2.1-0.1v-12.4c0-3.1-2.7-6.5-5.8-6.5h-11.3c0,0,0-0.2,0-0.5
		C170.9,99.9,179.5,91.7,190.1,91.7z M130.3,88.3c-0.6-0.5-1.1-1-1.7-1.5C129.1,87.3,129.7,87.8,130.3,88.3z M128.1,86.5
		c-0.6-0.5-1.3-0.9-2-1.4C126.8,85.5,127.5,86,128.1,86.5z M132.3,90.4c-0.5-0.6-1-1.1-1.5-1.6C131.3,89.3,131.8,89.8,132.3,90.4z
		 M134.1,92.6c-0.4-0.6-0.9-1.2-1.4-1.7C133.3,91.5,133.7,92,134.1,92.6z M134.4,92.9l15.3-15.3L165,92.9
		c-3.6,5.1-5.8,10.8-5.8,17.5c0,0.3,0,0.5,0,0.5h-19.2c0,0,0-0.2,0-0.5C140.1,103.8,138,98,134.4,92.9z M109.6,130.1
		c-10.6,0-19.3-8.6-19.3-19.2c0-10.6,8.5-19.2,19.1-19.2s19.2,8.2,19.2,18.8c0,0.3-0.1,0.5-0.1,0.5h-11.3c-3.1,0-5.2,3.4-5.2,6.5
		v12.4C111,130,110.3,130.1,109.6,130.1z M128.5,188.5c0,10.6-8.6,19.5-19.2,19.5s-19.2-8.5-19.2-19s8.8-19.1,19.4-19.1
		c0.7,0,1.4,0.1,2.4,0.2v12.4c0,3.1,2.1,4.5,5.2,4.5h11.3C128.5,188,128.5,188.2,128.5,188.5z M123,176v-54h54v54H123z M190,208.3
		c-10.6,0-19.2-9.2-19.2-19.8c0-0.3,0.1-0.5,0.1-1.5h11.3c3.1,0,5.8-1.4,5.8-4.5v-12.4c1-0.1,1.4-0.1,2.1-0.1
		c10.6,0,19.2,8.6,19.2,19.2S200.6,208.3,190,208.3z"/>
</g>
</svg>
