<?xml version="1.0" encoding="utf-8"?>
<!-- Generator: Adobe Illustrator 18.1.1, SVG Export Plug-In . SVG Version: 6.00 Build 0)  -->
<svg version="1.1" id="Layer_1" xmlns="http://www.w3.org/2000/svg" xmlns:xlink="http://www.w3.org/1999/xlink" x="0px" y="0px"
	 viewBox="0 0 300 300" enable-background="new 0 0 300 300" xml:space="preserve">
<g>
	<path fill="#CCCCCC" d="M113.1,72.5c3.5-2.6,8.4-3.3,12.9-1.9c0.4,0.1,0.9,0.2,1.3,0.4c5.1,1.3,8.6,3.6,10.7,9.7l38.2,11.1
		c0.2,0.1,0.3,0.1,0.5,0.2l10.6,4.4c0.7,0.3,1.2,0.7,1.7,1.2c9.2,9.7,7.8,21.6,4.8,29.3l10.8,7.4c0.7,0.5,1.3,1.1,1.7,1.9l16.1,35
		H245V90h-57c-2.8,0-5-2-5-4.7V39h-76v45.9C107.6,78,110.6,74.4,113.1,72.5z"/>
	<path fill="#CCCCCC" d="M91.7,134.1l14-9.7c-0.1-7,0.3-15.1,0.7-22.7c0.3-5.5,0.5-10.6,0.5-14.2c0-0.5,0-1.1,0-1.5
		c-0.4,2.3-2.5,3.9-4.9,3.9H55v81h18.9L90,136C90.3,135.2,90.9,134.7,91.7,134.1z"/>
	<path fill="#FFFFFF" d="M197.8,141.6l-6-4.1l-1.1,29.1l7.9,6.5c2.1,1.8,2.4,4.9,0.6,7c-1.8,2.1-4.9,2.4-7,0.6L164,157.4v12.2
		l19.6,23c0.8,0.9,1.2,2.2,1.2,3.4c0,1-0.2,24.1,26.9,33c2.6,0.9,4.1,3.7,3.2,6.3c-0.7,2.1-2.6,3.4-4.7,3.4c-0.5,0-1-0.1-1.5-0.3
		c-14.7-4.8-22.6-13.3-27.6-21.5v7.8c0,1.8-0.2,3.5-0.4,5.2l17,16.7c1,0.9,1.5,2.2,1.5,3.6v4.4l5.8,5.6l19.3-21.6l4.9-17.7
		l-0.9-13.2L197.8,141.6z"/>
	<path fill="#FFFFFF" d="M98.5,246.6l15.9-15.4c-0.4-2.1-0.4-4.2-0.4-6.4v-5.2c-5,7.2-12.7,14.3-25.4,18.6c2.4,5.2,5.2,9.9,8.4,13.1
		v-1.1C97,248.8,97.5,247.5,98.5,246.6z"/>
	<path fill="#FFFFFF" d="M154,171.4v-24.7c0-1.9,1.1-3.7,2.9-4.5s3.8-0.6,5.3,0.7l18.7,15.6l1.2-29.7c0-0.9,0.3-1.8,0.8-2.5
		c0.3-0.5,7.1-11.5-0.1-20.7c0.5,4.9-0.3,9.4-0.6,10.8c-0.5,2.4-2.6,4-4.9,4c-0.3,0-0.7,0-1-0.1c-2.7-0.5-4.5-3.2-3.9-5.9
		c0.8-4,0.9-10.8-1.1-12.6c-0.1-0.1-0.4-0.3-0.8-0.4c-0.5-0.1-1-0.3-1.5-0.6c0.5,4,0.1,8.1-0.5,11.3c-0.5,2.4-2.6,4-4.9,4
		c-0.3,0-0.7,0-1-0.1c-2.7-0.5-4.5-3.2-3.9-5.9c1-4.9,0.7-12.5-1.8-13c-0.5-0.1-1-0.3-1.5-0.6c0.5,4,0.1,8.1-0.5,11.3
		c-0.5,2.4-2.6,4-4.9,4c-0.3,0-0.7,0-1-0.1c-2.7-0.5-4.5-3.2-3.9-5.9c1-4.9,0.7-12.5-1.8-13c-0.7-0.1-1.3-0.4-1.8-0.8l-1.4-0.4
		c0.2,2.9,0.4,6.3,0.4,10.2c0,2.8-2.2,5-5,5s-5-2.2-5-5c0-9.7-0.8-16.1-2.3-19.1c-0.7-1.4-1.1-1.5-3.2-2c-0.6-0.2-1.2-0.3-1.8-0.5
		c-1.2-0.4-2.8-0.5-4,0.4c-1.4,1-2.2,3.5-2.2,7c0,3.8-0.2,9.1-0.5,14.6c-0.5,11.9-1.3,28.2,0.3,34.1c1.4,5.1,3.3,11.7,4.8,16.8
		l12.3-10.2c0.8-0.7,1.8-1.1,2.9-1.1c3.5-3.7,7.2-9.3,9.6-17.4c0.8-2.6,3.6-4.1,6.2-3.3c2.6,0.8,4.1,3.6,3.3,6.2
		c-3.4,11.1-8.9,18.5-13.8,23.2v20.9c0,1.2-0.4,2.3-1.2,3.2l-17,20.3c0,0.3,0.2,0.6,0.2,0.9v28.9c0,14.1,10.5,25.6,23.5,25.6
		s23.5-11.5,23.5-25.6v-31.3c0-0.1-0.1-0.2,0-0.4l-15.7-18.4C154.5,173.8,154,172.6,154,171.4z"/>
	<path fill="#FFFFFF" d="M111.3,196c0-1.2,0.4-2.4,1.2-3.4l19.5-23v-12c-0.2,0.1-0.3,0.1-0.3,0.1c0,0-0.1,0-0.1,0l-8.4,7.1
		c-0.5,0.8-1.2,1.4-2.2,1.8l-16.9,14.1c-2.1,1.8-5.3,1.5-7-0.6c-1.8-2.1-1.5-5.3,0.6-7l15.5-13c-1.5-5-4.3-14.4-6.1-21.1
		c-0.2-0.8-0.4-1.8-0.6-2.8l-8,5.5l-21.4,46.7l1,17.9c0,0,2.2,11.1,6.5,22.7C111.8,219.9,111.4,196.2,111.3,196z"/>
	<path fill="#5980B7" d="M250,80h-57V34.3c0-2.8-2.2-5.3-5-5.3h-86c-2.8,0-5,2.5-5,5.3V80H50c-2.8,0-5,2.5-5,5.3v91
		c0,2.8,2.2,4.7,5,4.7h19.3l-10.6,23.2c-0.3,0.5-0.4,1.2-0.4,1.8L54,266.6c-0.2,2.8,1.9,5.2,4.6,5.4c0.1,0,0.2,0,0.4,0
		c2.6,0,4.8-2,5-4.6l4.2-59.6l8.9-19.4l21.4-46.7l8-5.5c0.2,1,0.4,2,0.6,2.8c1.8,6.7,4.6,16.2,6.1,21.1l-15.5,13
		c-2.1,1.8-2.4,4.9-0.6,7c1.8,2.1,4.9,2.4,7,0.6l16.9-14.1c0.9-0.4,1.6-1,2.2-1.8l8.4-7.1c0,0,0.1,0,0.1,0c0,0,0.2-0.1,0.3-0.1v12
		l-19.5,23c-0.8,0.9-1.2,2.2-1.2,3.4c0,0.2,0.4,23.9-26.7,32.9c0,0-0.1,0-0.1,0c-2.6,0.9-4.1,3.7-3.2,6.3c0.7,2.1,2.6,3.4,4.7,3.4
		c0.5,0,1-0.1,1.6-0.3c0.3-0.1,0.7-0.2,1-0.3c12.7-4.4,20.4-11.5,25.4-18.6v5.2c0,2.1,0.1,4.2,0.4,6.2l-15.9,15.6
		c-1,0.9-1.5,2.2-1.5,3.6v1.1v15c0,2.8,2.2,5,5,5s5-2.2,5-5v-14l10.8-10.6c0,0,0,0,0,0.1c5.7,11.1,16.7,18.6,29.4,18.6
		c13.1,0,24.4-7.9,30-19.5l11.7,11.5v14c0,2.8,2.2,5,5,5s5-2.2,5-5v-11.7v-4.4c0-1.3-0.5-2.6-1.5-3.6l-17-16.6c0,0,0,0,0-0.1
		c0.2-1.7,0.4-3.4,0.4-5.2V217c5,8.2,12.9,16.6,27.6,21.5c0.5,0.2,1,0.3,1.5,0.3c2.1,0,4-1.3,4.7-3.4c0.9-2.6-0.6-5.4-3.2-6.3
		c-27-8.9-26.9-32-26.9-33c0-1.2-0.4-2.5-1.2-3.4l-19.6-23v-12.2l28.1,23.4c2.1,1.8,5.3,1.5,7-0.6c1.8-2.1,1.5-5.3-0.6-7l-7.9-6.5
		l1.1-29.1l6,4.1l30.3,66.1l0.9,13.2l3.3,46.4c0.2,2.6,2.4,4.6,5,4.6c0.1,0,0.2,0,0.4,0c2.8-0.2,4.8-2.6,4.6-5.3l-4.3-60.5
		c0-0.6-0.2-1.3-0.4-1.9L227,181h23c2.8,0,5-2,5-4.7v-91C255,82.5,252.8,80,250,80z M106.9,87.6c0,3.6-0.2,8.7-0.5,14.2
		c-0.3,7.6-0.7,15.7-0.7,22.7l-14,9.7c-0.7,0.5-1.3,1.1-1.7,1.9l-16.1,35H55V90h47c2.4,0,4.5-1.6,4.9-3.9
		C106.9,86.5,106.9,87.1,106.9,87.6z M182.9,126.3c-0.5,0.8-0.8,1.6-0.8,2.5l-1.2,29.7l-18.7-15.6c-1.5-1.2-3.6-1.5-5.3-0.7
		s-2.9,2.6-2.9,4.5v24.7c0,1.2,0.4,2.3,1.2,3.2l15.8,18.4l0,31.7c0,14.1-10.5,25.6-23.5,25.6S124,238.8,124,224.7
		c0,0-0.2-29.5-0.2-29.8c0,0,0,0,0-0.1l17.1-20.2c0.8-0.9,1.1-2,1.1-3.2v-20.9c4.9-4.7,10.4-12.1,13.8-23.2c0.8-2.6-0.7-5.4-3.3-6.2
		c-2.6-0.8-5.4,0.7-6.2,3.3c-2.4,8.1-6.2,13.6-9.6,17.4c-1,0.1-2,0.5-2.9,1.1l-12.3,10.2c-1.5-5.1-3.5-11.7-4.8-16.8
		c-1.6-5.9-0.9-22.2-0.3-34.1c0.3-5.6,0.5-10.9,0.5-14.6c0-3.5,0.8-6,2.2-7c1.2-0.9,2.8-0.8,4-0.4c0.6,0.2,1.2,0.3,1.8,0.5
		c2.1,0.5,2.5,0.6,3.2,2c1.5,3,2.3,9.5,2.3,19.1c0,2.8,2.2,5,5,5s5-2.2,5-5c0-3.9-0.1-7.2-0.4-10.2l1.4,0.4c0.5,0.4,1.2,0.7,1.8,0.8
		c2.6,0.6,2.8,8.1,1.8,13c-0.5,2.7,1.2,5.3,3.9,5.9c0.3,0.1,0.7,0.1,1,0.1c2.3,0,4.4-1.6,4.9-4c0.6-3.2,1-7.3,0.5-11.3
		c0.5,0.3,0.9,0.5,1.5,0.6c2.6,0.6,2.8,8.1,1.8,13c-0.5,2.7,1.2,5.3,3.9,5.9c0.3,0.1,0.7,0.1,1,0.1c2.3,0,4.4-1.6,4.9-4
		c0.6-3.2,1-7.3,0.5-11.3c0.5,0.3,0.9,0.5,1.5,0.6c0.4,0.1,0.6,0.2,0.8,0.4c1.9,1.8,1.9,8.6,1.1,12.6c-0.5,2.7,1.2,5.3,3.9,5.9
		c0.3,0.1,0.7,0.1,1,0.1c2.3,0,4.4-1.6,4.9-4c0.3-1.4,1.1-5.9,0.6-10.8C190,114.8,183.2,125.8,182.9,126.3z M245,171h-22.6l-16.1-35
		c-0.4-0.8-1-1.5-1.7-2l-10.8-7.4c3.1-7.7,4.4-19.6-4.8-29.3c-0.5-0.5-1.1-0.9-1.7-1.2l-10.6-4.4c-0.2-0.1-0.3-0.1-0.5-0.2L138,80.6
		c-2.1-6.1-5.6-8.4-10.7-9.7c-0.4-0.1-0.9-0.2-1.3-0.4c-4.5-1.4-9.3-0.7-12.9,1.9c-2.5,1.9-5.5,5.5-6.1,12.4V39h76v46.3
		c0,2.8,2.2,4.7,5,4.7h57V171z"/>
</g>
</svg>
