<?xml version="1.0" encoding="utf-8"?>
<!-- Generator: Adobe Illustrator 18.1.1, SVG Export Plug-In . SVG Version: 6.00 Build 0)  -->
<svg version="1.1" id="Layer_1" xmlns="http://www.w3.org/2000/svg" xmlns:xlink="http://www.w3.org/1999/xlink" x="0px" y="0px"
	 viewBox="0 0 300 300" enable-background="new 0 0 300 300" xml:space="preserve">
<g>
	<path fill="none" d="M223.7,109h-4.8c-8,0-15.1-3.7-19.7-9.5c-4.6,5.8-11.8,9.5-19.7,9.5h-4.8c-8,0-15.1-3.7-19.7-9.5
		c-4.6,5.8-11.8,9.5-19.7,9.5h-4.8c-8,0-15.1-3.7-19.7-9.5c-4.6,5.8-11.8,9.5-19.7,9.5H86c-5.3,0-10-1.8-14-4.6v30l31.4-15.4
		c2.1-1,4.4-0.6,6,0.9l10.8-5.1c2.4-1.2,5.4-0.4,6.9,1.9l10.3,15.2c0.9,1.4,1.2,3.1,0.7,4.7c-0.5,1.6-1.6,2.9-3.1,3.5l-13.1,5.5
		c-1.5,8.8,2.3,15.9,6.4,20.8c1.8-4,5-7.3,9.4-9c0.3-0.1,0.6-0.2,1-0.4c-1.8-8.2,2.5-16.8,10.5-20c2.1-0.8,4.2-1.2,6.4-1.2
		c2.6,0,5.1,0.6,7.4,1.6c1.9-2.7,4.6-4.8,7.7-6.1c0.3-0.1,0.6-0.2,1-0.4c-1.8-8.2,2.5-16.8,10.5-20c2.1-0.8,4.2-1.2,6.4-1.2
		c6.2,0,11.8,3.2,15,8.4c0.3-0.1,0.6-0.3,0.9-0.4c2.1-0.8,4.2-1.2,6.4-1.2c7.2,0,13.6,4.3,16.3,11.1c1,2.6,1.4,5.2,1.2,7.8
		c4.2,1.2,7.8,3.9,10.2,7.8c0.3-0.1,0.8-0.3,1.1-0.4c0.4-0.2,0.3-0.3,1.3-0.4v-40.1C236,106.3,230.2,109,223.7,109z"/>
	<polygon fill="none" points="87.6,44 75.6,67 106.5,67 114.1,44 	"/>
	<polygon fill="none" points="191.8,67 185.2,44 164,44 161.1,67 	"/>
	<path fill="none" d="M134,224.9v-37.2c-1-1-2.6-2.2-3.6-3.5c-0.7,0-1.3,0-2,0c-11.9,0-20.8-3.3-26.5-9.7c-2.2-2.5-3.5-5.2-4.4-7.7
		l-0.5,0.6v7.5h2.1c1.8,0,3.5,0.9,4.5,2.4c1,1.5,21.2,31.6,18.2,65.6H241v-13h-45.8h-55.8C136.4,230,134,228,134,224.9z"/>
	<polygon fill="#CCCCCC" points="152.9,44 125.7,44 118.1,67 150,67 	"/>
	<polygon fill="#CCCCCC" points="234.3,62.7 223.7,44 196.7,44 203.3,67 236.7,67 	"/>
	<path fill="#FFFFFF" d="M72,78v5.5C72,91.4,78.1,98,86,98h4.8c7.9,0,14.2-6.6,14.2-14.5V78H72z"/>
	<path fill="#CCCCCC" d="M116,78v5.5c0,7.9,6.4,14.5,14.3,14.5h4.8c7.9,0,13.9-6.6,13.9-14.5V78H116z"/>
	<path fill="#FFFFFF" d="M160,78v5.5c0,7.9,6.7,14.5,14.6,14.5h4.8c7.9,0,14.6-6.6,14.6-14.5V78H160z"/>
	<path fill="#CCCCCC" d="M205,83.5c0,7.9,6,14.5,13.9,14.5h4.8c7.9,0,14.3-6.6,14.3-14.5V78h-33V83.5z"/>
	<path fill="#FFFFFF" d="M104.4,203c-3.1-8-6.4-14-8.3-17H82.2c-2.7,6-4.3,12-5,17H104.4z"/>
	<path fill="#FFFFFF" d="M81.4,241.1c1.1,2.8-0.3,6.1-3.1,7.2c-0.7,0.3-1.3,0.4-2,0.4c-2.2,0-4.3-1.4-5.1-3.6
		c-0.4-0.9-5.4-14.1-5.7-31.1h-17c-6,21-0.9,36,1.8,42h57.8c4.7-15,3.2-29-0.1-42H76.5C76.8,229,81.3,240.9,81.4,241.1z"/>
	<path fill="#FFFFFF" d="M66,203c0.7-5,2-11,4.2-17h-7.5c-4.3,6-7.6,12-10.1,17H66z"/>
	<rect x="72" y="169" fill="#CCCCCC" width="14" height="4"/>
	<polygon fill="#CCCCCC" points="120.6,126.7 115,129.4 118.1,135.1 124.6,132.4 	"/>
	<path fill="#FFFFFF" d="M62.7,150.8l6.1,7.2h21.7l7-6c1-0.9,2.3-1.3,3.7-1.3c0.9,0,1.7,0.2,2.5,0.7c2,1.1,3.2,3.3,2.9,5.5
		c0,0-0.5,6.1,3.6,10.6c2.1,2.3,5,3.9,8.8,4.9c-5.2-6.5-9.7-15.8-8.1-27.4l-7.5-13.8L62.7,150.8z"/>
	<path fill="#CCCCCC" d="M159,209.2c-5.6,0-11-2.7-14-7V219h34c0,0,0,0.2,0,0.1c-0.9-2.3-1.3-4.7-1.3-7.1c-3.9-0.6-7.3-2.5-9.9-5.3
		c-0.8,0.5-1.5,0.9-2.4,1.2C163.3,208.8,161.2,209.2,159,209.2z"/>
	<path fill="#CCCCCC" d="M225.3,219H251v-19.6c-1,0.2-2.1-0.4-3.3-0.4c0,0,0.1,0,0.1,0c-1.9,0-3.8,0.1-5.6-0.6
		c-1.9,3.6-4.9,6.5-8.9,8C232.7,211.6,229.9,216,225.3,219z"/>
	<path fill="#FFFFFF" d="M229.1,163.8c3.5-1,7.3,0.8,8.7,4.3c1.5,3.7-0.3,8-4,9.5c-0.8,0.3-1.6,0.5-2.3,0.5c0.9,4.9-0.3,10-3.2,13.9
		c1.1,1.1,2.1,2.3,2.9,3.7c1.4-1.3,2.3-3.2,2.2-5.2c-0.1-2.4,1.3-4.5,3.4-5.4c2.2-0.9,4.7-0.3,6.2,1.5c1.3,1.5,3.1,2.3,5,2.3
		c0,0,0,0,0,0c0.8,0,1.6-0.2,2.3-0.5c1.6-0.6,2.8-1.9,3.5-3.5c0.7-1.6,0.7-3.4,0-5c-0.8-2.1-2.7-3.6-4.9-4c-2.4-0.5-4.3-2.5-4.4-5
		c-0.2-2.5,1.3-4.8,3.7-5.6l0.3-0.1c3.3-1.3,4.8-5.1,3.5-8.5c-1-2.5-3.4-4.2-6.1-4.2c-0.8,0-1.6,0.2-2.4,0.5
		c-1.7,0.7-2.7,1.9-3.2,2.8c-1.3,2.2-3.9,3.3-6.3,2.6c-2.5-0.7-4.1-3-3.9-5.6c0.1-1-0.1-2-0.5-2.9c-0.6-1.6-1.8-2.8-3.2-3.5
		c1.1,1.3,1.9,2.8,2.6,4.5C230.7,155,230.7,159.6,229.1,163.8z"/>
	<path fill="#FFFFFF" d="M153.2,147.1c-3.3,1.3-4.9,5.1-3.5,8.5c0.4,0.9,0.9,1.7,1.6,2.4c1.9,1.7,2.3,4.6,1,6.8
		c-1.3,2.2-3.9,3.3-6.4,2.5c-1.4-0.4-2.9-0.4-4.2,0.2c-3.3,1.3-4.9,5.1-3.5,8.5c1,2.5,3.4,4.2,6.1,4.2c0.8,0,1.5-0.1,2.3-0.4
		l0.3-0.1c0.7-0.3,1.5-0.5,2.2-0.5c1.6,0,3.2,0.7,4.3,2c1.6,1.9,1.7,4.7,0.2,6.7c-1.3,1.8-1.6,4.2-0.7,6.3c1,2.5,3.4,4.2,6.1,4.2
		c0.8,0,1.6-0.2,2.4-0.5c0.7-0.3,1.3-0.7,1.9-1.2c-0.8-7.6,3.4-15.1,10.8-18.1c0.3-0.1,0.6-0.2,1-0.4c-0.6-2.6-0.5-5.3,0.1-7.8
		c-0.5-1.8-0.7-3.6-0.6-5.4c-6-1-11.1-5-13.4-10.8c-0.8-1.9-1.2-3.9-1.2-5.8c-1.1-1-2.6-1.5-4.2-1.5
		C154.8,146.7,154,146.8,153.2,147.1z M160.4,165c3.7-1.5,7.9,0.4,9.4,4.1s-0.3,8-4,9.5c-3.7,1.5-7.9-0.4-9.4-4.1
		S156.7,166.5,160.4,165z"/>
	<path fill="#FFFFFF" d="M191.9,156.9c3.6,0,7,1.1,9.8,3c0,0,0,0,0,0c2.2-0.9,4.7-0.3,6.2,1.5c1.2,1.4,2.9,2.2,4.7,2.3
		c0.4,0,0.8-0.1,1.3-0.1c0.5-0.1,1-0.2,1.4-0.4c1.6-0.6,2.8-1.9,3.5-3.5c0.7-1.6,0.7-3.4,0-5c-0.8-2.1-2.7-3.6-4.9-4
		c-2.4-0.5-4.3-2.5-4.4-5c-0.2-2.5,1.3-4.8,3.7-5.6l0.3-0.1c3.3-1.3,4.8-5.1,3.5-8.5c-1-2.5-3.4-4.2-6.1-4.2c-0.8,0-1.6,0.2-2.4,0.5
		c-1.7,0.7-2.7,1.9-3.2,2.8c-1.3,2.2-3.9,3.3-6.3,2.6c-2.5-0.7-4.1-3-3.9-5.6c0.1-1-0.1-2-0.5-2.9c-1-2.5-3.4-4.2-6.1-4.2
		c-0.8,0-1.6,0.2-2.4,0.5c-3.3,1.3-4.9,5.1-3.5,8.5c0.4,0.9,0.9,1.7,1.6,2.4c1.9,1.7,2.3,4.6,1,6.8c-1.3,2.2-3.9,3.3-6.4,2.5
		c-1.4-0.4-2.9-0.4-4.2,0.2c-1.6,0.6-2.8,1.9-3.5,3.5c-0.7,1.6-0.7,3.4,0,5c1,2.5,3.4,4.2,6.1,4.2c0.8,0,1.5-0.1,2.3-0.4l0.3-0.1
		c0.7-0.3,1.5-0.5,2.2-0.5c1.6,0,3.2,0.7,4.3,2c0.6,0.7,1,1.5,1.1,2.4C188.9,157.1,190.4,156.9,191.9,156.9z M193.4,139
		c3.7-1.5,7.9,0.4,9.4,4.1s-0.3,8-4,9.5c-3.7,1.5-7.9-0.4-9.4-4.1S189.7,140.5,193.4,139z"/>
	<path fill="#FFFFFF" d="M211.3,208.7c1.3,1.5,3.1,2.3,5,2.3c0,0,0,0,0,0c0.8,0,1.6-0.2,2.3-0.5c3.3-1.3,4.9-5.1,3.5-8.5
		c-0.8-2.1-2.7-3.6-4.9-4c-2.4-0.5-4.3-2.5-4.4-5c-0.2-2.5,1.3-4.8,3.7-5.6l0.3-0.1c3.3-1.3,4.8-5.1,3.5-8.5c-1-2.5-3.4-4.2-6.1-4.2
		c-0.8,0-1.6,0.2-2.4,0.5c-1.7,0.7-2.7,1.9-3.2,2.8c-1.3,2.2-3.9,3.3-6.3,2.6c-2.5-0.7-4.1-3-3.9-5.6c0.1-1-0.1-2-0.5-2.9
		c-1-2.5-3.4-4.2-6.1-4.2c-0.8,0-1.6,0.2-2.4,0.5c-3.3,1.3-4.9,5.1-3.5,8.5c0.4,0.9,0.9,1.7,1.6,2.4c1.9,1.7,2.3,4.6,1,6.8
		c-1.3,2.2-3.9,3.3-6.4,2.5c-1.4-0.4-2.9-0.4-4.2,0.2c-3.3,1.3-4.9,5.1-3.5,8.5c1,2.5,3.4,4.2,6.1,4.2c0.8,0,1.5-0.1,2.3-0.4
		l0.3-0.1c0.7-0.3,1.5-0.5,2.2-0.5c1.6,0,3.2,0.7,4.3,2c1.6,1.9,1.7,4.7,0.2,6.7c-1.3,1.8-1.6,4.2-0.7,6.3c1,2.5,3.4,4.2,6.1,4.2
		c0.8,0,1.6-0.2,2.4-0.5c2.6-1,4.2-3.6,4-6.4c-0.1-2.4,1.3-4.5,3.4-5.4C207.3,206.3,209.8,206.9,211.3,208.7z M202.1,199.8
		c-3.7,1.5-7.9-0.4-9.4-4.1c-1.5-3.7,0.3-8,4-9.5c3.7-1.5,7.9,0.4,9.4,4.1S205.8,198.3,202.1,199.8z"/>
	<g>
		<path fill="#5980B7" d="M264.1,175.7c-0.9-2.3-2.3-4.4-4.1-6.1c3.5-4.7,4.6-11.2,2.2-17.1c-1.9-4.9-6.1-9.3-10.4-10.1
			c0,0-0.3-67.2-0.2-68.9c0.1-1-0.1-2.1-0.7-3.1l-7-12.5l-12.2-21.8L244,57.9l-11.6-21.8c-1-1.8-2.8-3.1-4.8-3.1h-0.7c0,0,0,0,0,0
			c-0.4,0-0.7,0-0.7,0H121.8c0,0-37.5,0-37.5,0c-2.1,0-3.9,1.4-4.9,3.2L62.4,68.8c1-0.9,1.1-0.9,0.1,0.1c-1.1,1-1.6,2.6-1.6,4.2v0.7
			v65.8l-0.2,0.1l-9.2,4.4c-1.5,0.7-2.6,2.1-3,3.8s0.1,3.4,1.1,4.7l11,13.2L61,166v9h-1.1c-1.7,0-3.3,0.9-4.4,2.3
			c-36.4,47.4-14.4,85.5-13.4,87.1c1,1.7,2.8,2.6,4.7,2.6H112c2.3,0,4.3-1.3,5.1-3.4c1.2-3.2,2.2-6.4,2.9-9.5c0,0,0-0.1,0-0.1h126.2
			c3,0,5.8-2.2,5.8-5.2V230h4.9c3,0,5.1-2,5.1-5.1v-32.2c0-0.2,0.3-0.4,0.4-0.7c0.6-0.9,1.1-1.9,1.6-3
			C265.8,184.8,265.8,180.1,264.1,175.7z M197,44h26.6l0.1,0.3L234.3,63l2.3,4h-33.3L197,44.5V44z M238,78v5.5
			c0,7.9-6.5,14.5-14.3,14.5h-4.8C211,98,205,91.4,205,83.5V78H238z M164,44.2l0-0.2h21.2l0.1,0.2l6.5,22.8h-30.6L164,44.2z M160,78
			h34v0.6v4.6c0,7.9-6.8,14.8-14.6,14.8h-4.8c-7.9,0-14.6-6.6-14.6-14.5V78z M125.7,44.2l0.1-0.2H153v0.5L150,67h-31.8L125.7,44.2z
			 M116,78h33v0.6v4.9c0,1-0.2,1.7-0.3,2.8C147.5,93,141.2,98,135.1,98h-4.8c-7.9,0-14.3-6.6-14.3-14.5V78z M87.6,44h26.7l0,0.3
			L107,67.6V67H75.6L87.6,44z M72,78h33v0.6v4.9c0,0.5,0,1,0,1.5c-0.6,7.3-6.8,13-14.2,13H86c-7.9,0-14-6.6-14-14.5V78z M72,104.7
			c4,2.8,8.7,4.3,14,4.3h4.8c8,0,15.1-4,19.7-9.7c4.6,5.8,11.8,9.7,19.8,9.7h4.8c7.9,0,15-3.9,19.6-9.7c4.6,5.7,11.9,9.7,19.9,9.7
			h4.8c8,0,15.2-3.9,19.8-9.7c0,0,0,0,0,0c4.6,5.8,11.6,9.7,19.6,9.7h4.8c6.6,0,12.6-2.6,17.1-6.7c0.1-0.1,0.3,0,0.3-0.1v40
			c0,0-0.2,0-0.2,0c-0.4,0.1-0.8,0.3-1.2,0.4c-0.3,0.1-0.6,0.3-0.9,0.4c-2.3-3.8-5.9-6.6-10.2-7.8c0.2-2.6-0.2-5.2-1.2-7.8
			c-2.7-6.7-9.1-11.1-16.3-11.1c-2.2,0-4.4,0.4-6.4,1.2c-0.3,0.1-0.6,0.3-0.9,0.4c-3.2-5.2-8.8-8.4-15-8.4c-2.2,0-4.4,0.4-6.4,1.2
			c-8,3.2-12.3,11.8-10.5,20c-0.3,0.1-0.6,0.2-1,0.4c-3.1,1.3-5.8,3.4-7.7,6.1c-2.3-1.1-4.8-1.6-7.4-1.6c-2.2,0-4.4,0.4-6.4,1.2
			c-8,3.2-12.3,11.8-10.5,20c-0.3,0.1-0.6,0.2-1,0.4c-4.3,1.7-7.6,5-9.4,9c-4.1-4.9-7.8-12-6.4-20.8L135,140
			c1.5-0.6,2.7-1.9,3.1-3.5c0.5-1.6,0.2-3.3-0.7-4.7l-10.3-15.2c-1.5-2.2-4.4-3-6.9-1.9l-10.8,5.1c-1.6-1.5-4-1.9-6-0.9L72,134.3
			V104.7z M225,219.6c-0.5,0.5-1.1,0.7-1.6,0.8C224,220.2,224.5,219.9,225,219.6z M189.7,202.3c-1.1-1.3-2.6-2-4.3-2
			c-0.8,0-1.5,0.2-2.2,0.5l-0.3,0.1c-0.7,0.3-1.5,0.4-2.3,0.4c-2.7,0-5.1-1.6-6.1-4.2c-1.3-3.4,0.2-7.2,3.5-8.5
			c1.3-0.5,2.8-0.6,4.2-0.2c2.4,0.8,5.1-0.3,6.4-2.5c1.3-2.2,0.9-5-1-6.8c-0.7-0.7-1.3-1.5-1.6-2.4c-1.3-3.4,0.2-7.2,3.5-8.5
			c0.8-0.3,1.5-0.5,2.4-0.5c2.7,0,5.1,1.6,6.1,4.2c0.4,0.9,0.5,1.9,0.5,2.9c-0.2,2.6,1.5,4.9,3.9,5.6c2.5,0.7,5.1-0.3,6.3-2.6
			c0.5-0.9,1.5-2.1,3.2-2.8c0.8-0.3,1.5-0.5,2.4-0.5c2.7,0,5.1,1.6,6.1,4.2c1.3,3.4-0.2,7.1-3.5,8.5l-0.3,0.1
			c-2.3,0.8-3.8,3.1-3.7,5.6c0.2,2.5,2,4.5,4.4,5c2.2,0.4,4,1.9,4.9,4c1.3,3.4-0.2,7.2-3.5,8.5c-0.8,0.3-1.5,0.5-2.3,0.5
			c0,0,0,0,0,0c-1.9,0-3.7-0.8-5-2.3c-1.5-1.8-4-2.4-6.2-1.5c-2.2,0.9-3.6,3.1-3.4,5.4c0.2,2.8-1.4,5.4-4,6.4
			c-0.8,0.3-1.5,0.5-2.4,0.5c-2.7,0-5.1-1.6-6.1-4.2c-0.8-2.1-0.6-4.4,0.7-6.3C191.3,207,191.2,204.2,189.7,202.3z M163.1,196.6
			c-0.5,0.5-1.2,0.9-1.9,1.2c-0.8,0.3-1.5,0.5-2.4,0.5c-2.7,0-5.1-1.6-6.1-4.2c-0.8-2.1-0.6-4.4,0.7-6.3c1.4-2,1.3-4.8-0.2-6.7
			c-1.1-1.3-2.6-2-4.3-2c-0.8,0-1.5,0.2-2.2,0.5l-0.3,0.1c-0.7,0.3-1.5,0.4-2.3,0.4c-2.7,0-5.1-1.6-6.1-4.2
			c-1.3-3.4,0.2-7.2,3.5-8.5c1.3-0.5,2.8-0.6,4.2-0.2c2.4,0.7,5.1-0.3,6.4-2.5c1.3-2.2,0.9-5-1-6.8c-0.7-0.7-1.3-1.5-1.6-2.4
			c-1.3-3.4,0.2-7.2,3.5-8.5c0.8-0.3,1.5-0.5,2.4-0.5c1.6,0,3,0.6,4.2,1.5c0.1,2,0.5,3.9,1.2,5.8c2.3,5.8,7.4,9.9,13.4,10.8
			c-0.1,1.8,0.1,3.6,0.6,5.4c-0.6,2.5-0.7,5.2-0.1,7.8c-0.3,0.1-0.6,0.2-1,0.4C166.6,181.4,162.3,189,163.1,196.6z M184.3,132
			c-0.7-0.7-1.3-1.5-1.6-2.4c-1.3-3.4,0.2-7.2,3.5-8.5c0.8-0.3,1.5-0.5,2.4-0.5c2.7,0,5.1,1.6,6.1,4.2c0.4,0.9,0.5,1.9,0.5,2.9
			c-0.2,2.6,1.5,4.9,3.9,5.6c2.5,0.7,5.1-0.3,6.3-2.6c0.5-0.9,1.5-2.1,3.2-2.8c0.8-0.3,1.5-0.5,2.4-0.5c2.7,0,5.1,1.6,6.1,4.2
			c1.3,3.4-0.2,7.1-3.5,8.5l-0.3,0.1c-2.3,0.8-3.8,3.1-3.7,5.6c0.2,2.5,2,4.5,4.4,5c2.2,0.4,4,1.9,4.9,4c0.7,1.6,0.6,3.4,0,5
			c-0.7,1.6-1.9,2.8-3.5,3.5c-0.5,0.2-0.9,0.3-1.4,0.4c-0.4,0-0.8,0-1.3,0.1c-1.8-0.1-3.5-0.9-4.7-2.3c-1.5-1.8-4-2.4-6.2-1.5
			c0,0,0,0,0,0c-2.8-1.9-6.2-3-9.8-3c-1.5,0-3,0.2-4.4,0.6c-0.2-0.9-0.6-1.7-1.1-2.4c-1.1-1.3-2.6-2-4.3-2c-0.8,0-1.5,0.2-2.2,0.5
			l-0.3,0.1c-0.7,0.3-1.5,0.4-2.3,0.4c-2.7,0-5.1-1.6-6.1-4.2c-0.7-1.6-0.6-3.4,0-5c0.7-1.6,1.9-2.8,3.5-3.5
			c1.3-0.5,2.8-0.6,4.2-0.2c2.5,0.7,5.1-0.3,6.4-2.5C186.6,136.6,186.2,133.8,184.3,132z M118.1,135.1l-3.1-5.8l5.7-2.7l3.9,5.7
			L118.1,135.1z M103.4,131.2l7.5,13.7c-1.6,11.6,2.9,20.9,8.1,27.4c-3.8-1-6.7-2.6-8.8-4.9c-4.1-4.5-3.6-10.6-3.6-10.6
			c0.3-2.3-0.9-4.5-2.9-5.5c-0.8-0.4-1.7-0.6-2.5-0.6c-1.3,0-2.6,0.3-3.7,1.2l-7,6H68.7l-6.1-7.2L103.4,131.2z M82.2,186h13.9
			c1.9,3,5.2,9,8.3,17H77.1C77.9,198,79.4,192,82.2,186z M72,173v-4h13.6H86v4H72z M62.7,186h7.5c0.2,0,0.2,0,0,0
			c-2.2,0-3.5,12-4.2,17H52.6C55.1,198,58.4,192,62.7,186z M108.1,256H50.3c-2.7-6-7.8-21-1.8-42h17c0.3,17,5.3,30.2,5.7,31.1
			c0.8,2.2,2.9,3.6,5.1,3.6c0.7,0,1.3-0.1,2-0.3c2.8-1.1,4.2-4.4,3.1-7.2c-0.1-0.2-4.6-12.1-4.9-27.1H108
			C111.3,227,112.8,241,108.1,256z M120.9,250.3c0.4-2.3,0.7-4.6,0.9-6.9C121.6,245.9,121.3,248.1,120.9,250.3z M241,243H121.8
			c3-34-17.2-64.1-18.2-65.6c-1-1.5-2.7-2.4-4.5-2.4H97v-7.7l0.3-0.3c0.9,2.5,2.4,5.2,4.6,7.7c5.7,6.4,14.6,9.7,26.5,9.7
			c0.6,0,1.3,0,1.9,0c1,1.3,2.2,2.5,3.6,3.5c2.2,1.6,4.7,2.7,7.5,3.1c-0.1,2.4,0.3,4.9,1.3,7.2c0.6,1.5,1.4,2.8,2.3,4.1
			c3.3,4.4,8.4,7,14,7c2.2,0,4.4-0.4,6.4-1.2c0.8-0.3,1.6-0.7,2.4-1.2c2.6,2.8,6.1,4.6,9.9,5.2c-0.1,2.4,0.3,5,1.2,7H145v-16.8
			c-1-1.2-1.7-2.6-2.3-4.1c-0.9-2.3-1.3-4.8-1.2-7.2c-2.7-0.5-5.4-1.5-7.4-3.1v37.2c0,3,2.4,5.1,5.4,5.1H193c0.8,0,1.5,0.2,2.3,0.2
			c0.7,0,1.5-0.2,2.2-0.2h43.3h0.3V243z M251,219h-25.4c4.4-3,7.2-7.2,7.9-12.2c3.9-1.6,7-4.4,8.9-8c1.8,0.6,3.7,1,5.6,1
			c0,0,0.1,0,0.1,0c1,0,2-0.1,3-0.2V219z M253.8,184.9c-0.7,1.6-1.9,2.8-3.5,3.5c-0.8,0.3-1.5,0.5-2.3,0.5c0,0,0,0,0,0
			c-1.9,0-3.7-0.8-5-2.3c-1.5-1.8-4-2.4-6.2-1.5c-2.2,0.9-3.6,3.1-3.4,5.4c0.1,2-0.7,4-2.2,5.2c-0.8-1.4-1.8-2.6-2.9-3.7
			c2.9-3.9,4.1-8.9,3.2-13.9c0.8,0,1.6-0.2,2.3-0.5c3.7-1.5,5.5-5.7,4-9.5c-1.4-3.5-5.2-5.3-8.7-4.3c1.7-4.2,1.7-8.8,0-13
			c-0.7-1.6-1.5-3.1-2.6-4.5c1.4,0.7,2.6,1.9,3.2,3.5c0.4,0.9,0.5,1.9,0.5,2.9c-0.2,2.6,1.5,4.9,3.9,5.6c2.5,0.7,5.1-0.3,6.3-2.6
			c0.5-0.9,1.5-2.1,3.2-2.8c0.8-0.3,1.5-0.5,2.4-0.5c2.7,0,5.1,1.6,6.1,4.2c1.3,3.4-0.2,7.1-3.5,8.5l-0.3,0.1
			c-2.3,0.8-3.8,3.1-3.7,5.6c0.2,2.5,2,4.5,4.4,5c2.2,0.4,4,1.9,4.9,4C254.5,181.5,254.5,183.2,253.8,184.9z"/>
		
			<ellipse transform="matrix(0.9285 -0.3714 0.3714 0.9285 -52.1424 72.8472)" fill="#5980B7" cx="163.1" cy="171.8" rx="7.2" ry="7.3"/>
		
			<ellipse transform="matrix(0.3714 0.9285 -0.9285 0.3714 258.6159 -90.4158)" fill="#5980B7" cx="196.1" cy="145.8" rx="7.3" ry="7.2"/>
		
			<ellipse transform="matrix(0.3714 0.9285 -0.9285 0.3714 304.5581 -63.8113)" fill="#5980B7" cx="199.4" cy="193" rx="7.3" ry="7.2"/>
	</g>
</g>
</svg>
