<?xml version="1.0" encoding="utf-8"?>
<!-- Generator: Adobe Illustrator 18.1.1, SVG Export Plug-In . SVG Version: 6.00 Build 0)  -->
<svg version="1.1" id="Layer_1" xmlns="http://www.w3.org/2000/svg" xmlns:xlink="http://www.w3.org/1999/xlink" x="0px" y="0px"
	 viewBox="0 0 300 300" enable-background="new 0 0 300 300" xml:space="preserve">
<g>
	<path fill="#FFFFFF" d="M84.4,169.9c0-18.8,7.8-35.9,20.4-47.9H88.2c-10.6,0-20.2,9.2-20.2,19.5v64.1C68,216,77.4,224,88.2,224
		h23.9C95.3,212,84.4,192.2,84.4,169.9z"/>
	<path fill="#FFFFFF" d="M184.5,112.7c0.1-3.4,0.2-10.5,0.1-25.1l0-7.1c0-3.7-2.5-6.6-6.1-6.6h-54.8c-3.9,0-7.7,3.3-7.7,6.8v5.6
		c0,2.3,0.8,19.3,1.2,26.4c9.9-5.8,21.5-9.1,33.7-9.1C163.1,103.7,174.7,107,184.5,112.7z M129.6,91c0-3.9,3.1-7,7-7h30
		c3.9,0,7,3.1,7,7s-3.1,7-7,7h-30C132.7,98,129.6,94.9,129.6,91z"/>
	<path fill="#FFFFFF" d="M217.8,169.9c0,22.2-10.9,42.1-27.7,54.1H214c10.2,0,17-7.5,17-18.4v-64.1c0-11-6.8-19.5-17-19.5h-16.6
		C209.9,134,217.8,151.1,217.8,169.9z"/>
	<path fill="#FFFFFF" d="M151.1,226.1c30.7,0,55.7-25,55.7-55.7s-25-55.7-55.7-55.7s-55.7,25-55.7,55.7S120.4,226.1,151.1,226.1z
		 M151.1,125.4c24.8,0,45,20.2,45,45s-20.2,45-45,45s-45-20.2-45-45S126.3,125.4,151.1,125.4z"/>
	<path fill="#CCCCCC" d="M117.1,170.4c0,18.7,15.2,34,34,34s34-15.2,34-34s-15.2-34-34-34S117.1,151.7,117.1,170.4z M144,145.8
		c2.8-3.2,6.9-5,11.6-5c5.1,0,10.6,2.2,14.9,6c8.7,7.6,10.7,19.1,4.6,26.1c-2.8,3.2-6.9,5-11.6,5c-5.1,0-10.6-2.2-14.9-6
		C139.8,164.3,137.8,152.9,144,145.8z"/>
	<path fill="#FFFFFF" d="M155.8,163.6c2.3,2,5.2,3.2,7.7,3.2c1,0,2.4-0.2,3.3-1.2c1.8-2,0.6-7-3.5-10.6c-2.3-2-5.2-3.2-7.7-3.2
		c-1,0-2.4,0.2-3.3,1.2C150.5,155.1,151.6,160,155.8,163.6z"/>
	<g>
		<path fill="#5980B7" d="M214,111h-18.4c0.1-4,0.1-11.6,0.1-23.6l0-6.9c0-9.9-7.4-17.4-17.1-17.4h-54.8c-10,0-18.7,8.2-18.7,17.8
			v5.6c0,0.9,0.5,8.2,0.8,15.5c0.1,4,0.6,7.1,0.7,9.1h-6.4c0,0,0-0.3,0-0.5c0-3-2.5-5.5-5.5-5.5h-11c-3,0-5.5,2.7-5.5,5.7
			c0,0.7-0.2,1.5,0.1,2.2c-12.1,4-21.2,15.4-21.2,28.6v64.1C57,222,71.3,235,88.2,235h48.3c4.7,1,9.6,1.6,14.6,1.6s9.9-0.6,14.6-1.6
			H214c16.3,0,28-12.4,28-29.4v-64.1C242,124.4,230.3,111,214,111z M116,80.8c0-3.5,3.8-6.8,7.7-6.8h54.8c3.6,0,6.1,2.8,6.1,6.6l0,7
			c0.1,14.6,0,21.7-0.1,25.2c-9.8-5.7-21.2-9-33.4-9c-12.2,0-24,3.3-33.8,9.1c-0.4-7.1-1.2-24.1-1.2-26.4V80.8z M88.2,224
			c-10.8,0-20.2-8-20.2-18.4v-64.1c0-10.3,9.6-19.5,20.2-19.5h16.6c-12.6,12-20.4,29.1-20.4,47.9c0,22.2,10.9,42.1,27.7,54.1H88.2z
			 M151.1,226.1c-30.7,0-55.7-25-55.7-55.7s25-55.7,55.7-55.7s55.7,25,55.7,55.7S181.8,226.1,151.1,226.1z M231,205.6
			c0,11-6.8,18.4-17,18.4h-23.9c16.8-12,27.7-31.8,27.7-54.1c0-18.8-7.8-35.9-20.4-47.9H214c10.2,0,17,8.5,17,19.5V205.6z"/>
		<path fill="#5980B7" d="M151.1,125.4c-24.8,0-45,20.2-45,45s20.2,45,45,45s45-20.2,45-45S175.9,125.4,151.1,125.4z M151.1,204.4
			c-18.7,0-34-15.2-34-34s15.2-34,34-34s34,15.2,34,34S169.8,204.4,151.1,204.4z"/>
		<path fill="#5980B7" d="M136.6,98h30c3.9,0,7-3.1,7-7s-3.1-7-7-7h-30c-3.9,0-7,3.1-7,7S132.7,98,136.6,98z"/>
		<path fill="#5980B7" d="M170.5,146.8c-4.3-3.8-9.8-6-14.9-6c-4.7,0-8.8,1.8-11.6,5c-6.2,7.1-4.1,18.5,4.6,26.1
			c4.3,3.8,9.8,6,14.9,6c4.7,0,8.8-1.8,11.6-5C181.2,165.8,179.2,154.4,170.5,146.8z M166.8,165.7c-0.9,1-2.3,1.2-3.3,1.2
			c-2.5,0-5.3-1.2-7.7-3.2c-4.2-3.6-5.3-8.6-3.5-10.6c0.9-1,2.3-1.2,3.3-1.2c2.5,0,5.3,1.2,7.7,3.2
			C167.4,158.7,168.5,163.7,166.8,165.7z"/>
	</g>
</g>
</svg>
