<?xml version="1.0" encoding="utf-8"?>
<!-- Generator: Adobe Illustrator 18.1.1, SVG Export Plug-In . SVG Version: 6.00 Build 0)  -->
<svg version="1.1" id="Layer_1" xmlns="http://www.w3.org/2000/svg" xmlns:xlink="http://www.w3.org/1999/xlink" x="0px" y="0px"
	 viewBox="0 0 300 300" enable-background="new 0 0 300 300" xml:space="preserve">
<g>
	<path fill="#CCCCCC" d="M164.3,95.4l-26.6,1.2c-2,0.1-3.8-0.9-4.9-2.6c-1.1-1.7-1.1-3.8-0.2-5.5l11.1-20.8l-15.1,10.5
		c-1.6,1.1-3.6,1.3-5.3,0.5c-1.7-0.8-3-2.3-3.3-4.2l-3.1-20.6l-3.1,20.6c-0.3,1.9-1.5,3.5-3.3,4.2c-1.8,0.7-3.8,0.5-5.3-0.6
		l-15-10.5l11,20.7c0.9,1.7,0.8,3.8-0.2,5.5c-1.1,1.7-2.9,2.6-4.9,2.6l-26.8-1.2c10.8,5.3,19.8,10,23.2,11.4
		c6.7-2.6,14-3.7,21.6-3.7h2.9c8.1,0,15.8,1.2,22.9,4.2c0.2,0,0.3-0.3,0.5-0.3C142.9,106,152.5,101.2,164.3,95.4z"/>
	<polygon fill="#FFFFFF" points="147.6,150.4 134.4,136.6 121,150.8 134.2,164.7 	"/>
	<path fill="#FFFFFF" d="M77.8,156.2L65,169.7v0.9l12.9,13.6c0.6-0.4,1.1-0.8,1.7-1.2l11.7-12.5L77.8,156.2z"/>
	<path fill="#FFFFFF" d="M67.9,145.7c-1.4,3.9-2.3,7.9-2.7,12.2l7.1-7.5L67.9,145.7z"/>
	<path fill="#FFFFFF" d="M118.2,159.5l-2.7-2.9l-13.2,14l2.8,2.9c1.7-0.2,3.3-0.4,5-0.5C112.4,166.2,115.7,162,118.2,159.5z"/>
	<path fill="#FFFFFF" d="M107.4,113.7c-5.8,0.8-11.3,2.6-16.3,5.3l5.6,5.9L107.4,113.7z"/>
	<path fill="#FFFFFF" d="M139.8,170.4c7.3,1.5,13.6,4.7,18.7,8.1l1.4-1.5c0.6-3.8,1.6-7.4,2.9-10.7l-9.6-10L139.8,170.4z"/>
	<path fill="#FFFFFF" d="M125.7,167.4c-0.7,0.7-1.5,1.7-2.4,3c1.5-0.3,3-0.6,4.6-0.7L125.7,167.4z"/>
	<path fill="#FFFFFF" d="M165.8,157.9c-0.4-4.2-1.3-8.3-2.7-12.2l-4.5,4.7L165.8,157.9z"/>
	<path fill="#FFFFFF" d="M65,196.9c2-2.7,4.2-5.3,6.7-7.6l-6.7-7.1V196.9z"/>
	<polygon fill="#FFFFFF" points="102.2,130.8 115.5,144.9 128.8,130.8 115.5,116.8 	"/>
	<polygon fill="#FFFFFF" points="83.4,150.4 96.9,164.7 110,150.8 96.6,136.6 	"/>
	<path fill="#FFFFFF" d="M139.9,119c-5-2.7-10.5-4.5-16.3-5.3l10.7,11.2L139.9,119z"/>
	<path fill="#FFFFFF" d="M153.1,144.6l6.3-6.7c-3.2-5.6-7.6-10.5-12.7-14.5l-6.9,7.3L153.1,144.6z"/>
	<path fill="#FFFFFF" d="M91.1,130.7l-6.9-7.3c-5.1,3.9-9.4,8.9-12.7,14.5l6.3,6.7L91.1,130.7z"/>
	<path fill="#FFFFFF" d="M170.2,185.3c0,1,0.1,2.1,0.1,3.2c0.2,0.3,0.4,0.4,0.5,0.5c1.2,1.4,1.6,3.4,1.1,5.2c-0.5,1.8-2,3.2-3.8,3.7
		c-1.8,0.5-3.5,0.9-5.3,1.3c3.8,5.7,6.5,12.1,7.8,19l44.4-19.2c2.7-1.2,5.9,0,7.1,2.7c0.5,1,11.7,25,2.4,48.4
		c-2.2,5.6-5.4,10.6-9.6,15.1c17.7-6,30.3-21.3,30.3-39.2c0-12.2-5.9-23.8-16.3-31.8c-1.5-1.1-2.3-3-2.1-4.9c0.1-1.4,0.2-2.7,0.2-4
		c0-19.5-12.8-35.3-28.4-35.3c0,0,0,0,0,0c0,0,0,0,0,0C183,150,170.2,165.9,170.2,185.3z"/>
	<path fill="#CCCCCC" d="M222.5,130c8.3,0,16.6-3.2,24.6-9.4c-3.7-1.7-9-3.3-15.3-3.3c-8.5,0-17,2.9-25.4,8.7
		C210.2,128,215.8,130,222.5,130z"/>
	<path fill="#FFFFFF" d="M150.3,200.9c-0.9,0-1.8,0.1-2.6,0.1c-14.5,0-23.7-5.2-29.3-10.3c0,1.8,0,3.7,0.2,5.8
		c0.3-0.1,0.6-0.3,1-0.4c2.8-1.3,6-0.1,7.3,2.7c1.3,2.8,0.1,6-2.7,7.3c-4,1.8-7.7,2.5-10.8,2.5c-5,0-8.7-1.6-10.7-3.1l5.1-6.7
		c-0.5-5.5-0.4-10.2,0.1-14.5c-23.7,2.5-42.3,21.5-42.3,44.6c0,24.7,21.4,44.9,47.6,44.9c4.1,0,8.1-0.5,11.9-1.4
		c-10.8-9.5-16-20.2-16.4-21c-0.6-1.3-0.7-2.9-0.2-4.3c0.5-1.4,1.6-2.5,3-3.1l48.9-21.1C159.1,214.6,155.6,207.1,150.3,200.9z
		 M91.7,256.6c0-2.6,2.2-4.7,4.9-4.7s4.9,2.1,4.9,4.7c0,2.6-2.2,4.7-4.9,4.7S91.7,259.2,91.7,256.6z M77.2,247
		c0-2.6,2.2-4.7,4.9-4.7c2.7,0,4.9,2.1,4.9,4.7c0,2.6-2.2,4.7-4.9,4.7C79.4,251.7,77.2,249.6,77.2,247z M99.8,240.7
		c0,2.6-2.2,4.7-4.9,4.7s-4.9-2.1-4.9-4.7c0-2.6,2.2-4.7,4.9-4.7S99.8,238.1,99.8,240.7z"/>
	<path fill="#CCCCCC" d="M124.6,181.4c3.7,3.8,10.8,8.5,23.1,8.5c2.3,0,4.7-0.2,7.2-0.5c-5.7-4.2-14-8.9-23.4-8.9
		C129.2,180.6,126.9,180.9,124.6,181.4z"/>
	<path fill="#FFFFFF" d="M210.8,245.5c-3.9,9.8-11.7,17.5-23.2,22.7c-0.1,0-0.1,0.1-0.2,0.1c-0.1,0-0.1,0.1-0.2,0.1
		c-1.1,0.5-2.2,1-3.4,1.4c-6.5,2.5-12.9,3.8-19,3.8c-22.4,0-35.1-16.4-39.6-23.7l-3.8,1.6c5.6,8.5,19.3,24.8,42.1,24.8
		c6.7,0,13.9-1.4,21.3-4.3c15-5.8,24.9-14.5,29.5-25.8c5.3-13.3,2.2-27.4-0.2-34.7l-3.5,1.5C212.8,219.4,215.9,232.6,210.8,245.5z"
		/>
	<path fill="#FFFFFF" d="M200.9,218.7l-18.5,8l19.9,8C203.1,228.5,202,222.7,200.9,218.7z"/>
	<path fill="#FFFFFF" d="M187.6,255.8c4.9-2.9,8.6-6.5,11.1-10.6l-19.7-8L187.6,255.8z"/>
	<path fill="#FFFFFF" d="M168.2,240l-10,21.9c2.1,0.4,4.2,0.7,6.6,0.7c4.1,0,8.4-0.8,12.8-2.2L168.2,240z"/>
	<path fill="#FFFFFF" d="M157.3,237.5l-21,9.1c2.4,3.4,6.3,7.9,11.8,11.2L157.3,237.5z"/>
	<g>
		<path fill="#5980B7" d="M222.5,141c13.2,0,26-5.8,37.8-17.3c1.1-1.1,1.7-2.5,1.7-4.1s-0.8-3.1-2-4.1c-0.5-0.4-11.4-9.2-28.2-9.2
			c-8.8,0-17.6,2.4-26.1,7.1c-2.1,3-3.9,7.7-3.9,14.8c0-7,1.9-11.7,3.9-14.8c2.3-3.4,4.9-4.8,5.2-4.9c2.7-1.2,4-4.5,2.8-7.2
			c-1.2-2.8-4.5-4-7.2-2.8c-0.9,0.4-20.6,9.5-14.5,41.3c-6.1,1.3-11.8,4.2-16.6,8.3c-3.4-14.1-11.9-26.3-23.3-34.5
			c-0.5-0.4-1-0.7-1.5-1c0.5,0.3,1,0.7,1.5,1c4.1-1.9,9.7-4.6,16.6-8c12-5.9,23.9-11.9,24-11.9c2.3-1.2,3.5-3.8,2.8-6.3
			c-0.7-2.5-3-4.2-5.6-4.1l-43,2l17.3-32.3c1.2-2.2,0.7-5-1.2-6.7c-1.9-1.7-4.7-1.9-6.8-0.4l-26.6,18.3l-7.2-46.6
			c-0.4-2.7-2.7-4.5-5.4-4.5h-0.2c-2.7,0-5,1.8-5.4,4.5l-7.1,46.7L77.6,45.4c-2.1-1.5-4.9-1.3-6.8,0.4c-1.9,1.7-2.4,4.4-1.2,6.7
			L86.9,85l-43.1-1.9c-2.6-0.1-4.9,1.6-5.6,4.1s0.5,5.1,2.8,6.3c0.1,0.1,12.1,6.1,24,12c6.1,3,11.1,5.4,15,7.3
			c0.8-0.5,1.7-1.1,2.5-1.5c-0.9,0.5-1.7,1.1-2.6,1.6C64.4,123.7,54,141.7,54,162.3v57.6c0,2.6,0.2,5.1,0.5,7.5c0,0,0,0,0,0.1
			c0,0.5,0,0.9,0,1.4c0,30.8,26.3,55.9,58.6,55.9c8.2,0,16-1.6,23.1-4.5c7.5,4.2,16.6,7.1,27.4,7.1c8.1,0,16.6-1.7,25.2-5
			c2.6-1,5.2-2.1,7.5-3.3c0.8,0,1.5,0.1,2.3,0.1c31.8,0,57.6-23.7,57.6-52.9c0-14.7-6.6-28.6-18.2-38.6c0-0.7,0-1.4,0-2.1
			c0-23.8-15.4-43.4-35.1-46c0,0,0,0,0,0c-0.3-1.1-0.5-2-0.7-3.1C207.4,138.6,214.3,141,222.5,141C222.5,141,222.5,141,222.5,141z
			 M163.1,145.7c1.4,3.9,2.3,8,2.7,12.2l-7.1-7.5L163.1,145.7z M110,150.8l-13.2,14l-13.5-14.3l13.2-13.9L110,150.8z M91.1,119
			c5-2.7,10.5-4.5,16.3-5.3l-10.7,11.2L91.1,119z M115.5,156.6l2.7,2.9c-2.5,2.5-5.8,6.7-8.1,13.5c-1.7,0.1-3.4,0.2-5,0.5l-2.8-2.9
			L115.5,156.6z M115.5,144.9l-13.3-14.2l13.3-14l13.3,14L115.5,144.9z M123.6,113.7c5.8,0.8,11.3,2.6,16.3,5.3l-5.6,5.9
			L123.6,113.7z M134.4,136.6l13.2,13.9l-13.5,14.3l-13.2-14L134.4,136.6z M125.7,167.4l2.2,2.3c-1.5,0.1-3.1,0.4-4.6,0.7
			C124.2,169.1,125.1,168.1,125.7,167.4z M131.5,180.6c9.4,0,17.7,4.7,23.4,8.9c-2.5,0.3-4.9,0.5-7.2,0.5c-12.3,0-19.4-4.7-23.1-8.5
			C126.9,180.9,129.2,180.6,131.5,180.6z M139.8,170.4l13.4-14.2l9.6,10c-1.3,3.4-2.3,7-2.9,10.7l-1.4,1.5
			C153.4,175.1,147,171.9,139.8,170.4z M159.5,137.9l-6.3,6.7l-13.2-13.9l6.9-7.3C151.9,127.3,156.2,132.2,159.5,137.9z M69.2,95.2
			L96,96.4c2,0.1,3.8-0.9,4.9-2.6c1.1-1.7,1.1-3.8,0.2-5.5l-11-20.7l15,10.5c1.6,1.1,3.6,1.3,5.3,0.6c1.8-0.7,3-2.3,3.3-4.2
			l3.1-20.6l3.1,20.6c0.3,1.9,1.5,3.5,3.3,4.2c1.7,0.8,3.7,0.6,5.3-0.5l15.1-10.5l-11.1,20.8c-0.9,1.7-0.9,3.9,0.2,5.5
			c1.1,1.7,2.9,2.6,4.9,2.6l26.6-1.2c-11.8,5.8-21.4,10.4-23.9,11.3c-0.1,0-0.5,0.3-0.9,0.4c-7-2.8-14.6-4-22.5-4h-2.9
			c-7.5,0-14.6,1-21.2,3.5C89,104.9,79.5,100.3,69.2,95.2z M68.3,134.4l3.3,3.5c3.2-5.6,7.6-10.5,12.7-14.5l6.9,7.3l-13.2,13.9
			l-6.3-6.7L68.3,134.4c-0.4-0.4-0.8-0.7-1.3-0.9C67.5,133.7,67.9,134,68.3,134.4z M67.9,145.7l4.4,4.7l-7.1,7.5
			C65.6,153.6,66.6,149.5,67.9,145.7z M65,169.7l12.8-13.4l13.5,14.3L79.6,183c-0.6,0.4-1.2,0.8-1.7,1.2L65,170.5V169.7z M65,182.2
			l6.7,7.1c-2.4,2.3-4.7,4.9-6.7,7.6V182.2z M113.1,273.7c-26.2,0-47.6-20.1-47.6-44.9c0-23,18.5-42.1,42.3-44.6
			c-0.4,4.2-0.5,9-0.1,14.5l-5.1,6.7c2,1.5,5.7,3.1,10.7,3.1c3.2,0,6.9-0.7,10.8-2.5c2.8-1.3,4-4.5,2.7-7.3c-1.3-2.8-4.5-4-7.3-2.7
			c-0.3,0.2-0.7,0.3-1,0.4c-0.1-2.1-0.2-4-0.2-5.8c5.6,5.1,14.9,10.3,29.3,10.3c0.9,0,1.8,0,2.6-0.1c5.2,6.2,8.7,13.6,9.9,21.8
			l-48.9,21.1c-1.4,0.6-2.4,1.7-3,3.1c-0.5,1.4-0.5,3,0.2,4.3c0.4,0.8,5.7,11.5,16.4,21C121.2,273.2,117.2,273.7,113.1,273.7z
			 M168.2,240l9.4,20.3c-4.4,1.5-8.7,2.2-12.8,2.2c-2.3,0-4.5-0.2-6.6-0.7L168.2,240z M157.3,237.5l-9.2,20.3
			c-5.5-3.4-9.4-7.8-11.8-11.2L157.3,237.5z M184.9,271.9c-7.4,2.8-14.6,4.3-21.3,4.3c-22.9,0-36.6-16.3-42.1-24.8l3.8-1.6
			c4.5,7.3,17.2,23.7,39.6,23.7c6.1,0,12.5-1.3,19-3.8c1.2-0.4,2.3-0.9,3.4-1.4c0.1,0,0.1-0.1,0.2-0.1c0.1,0,0.1-0.1,0.2-0.1
			c11.5-5.2,19.3-12.9,23.2-22.7c5.2-12.9,2-26.1-0.2-32.5l3.5-1.5c2.4,7.3,5.5,21.4,0.2,34.7C209.8,257.5,199.9,266.2,184.9,271.9z
			 M198.7,245.1c-2.5,4.2-6.2,7.7-11.1,10.6l-8.6-18.6L198.7,245.1z M182.4,226.7l18.5-8c1.1,4,2.3,9.8,1.4,16L182.4,226.7z
			 M227.1,185.4c0,1.3-0.1,2.6-0.2,4c-0.2,1.9,0.6,3.7,2.1,4.9c10.3,8,16.3,19.6,16.3,31.8c0,17.9-12.6,33.3-30.3,39.2
			c4.1-4.5,7.3-9.5,9.6-15.1c9.3-23.4-1.9-47.4-2.4-48.4c-1.3-2.7-4.4-3.8-7.1-2.7l-44.4,19.2c-1.4-6.9-4.1-13.3-7.8-19
			c1.7-0.4,3.5-0.8,5.3-1.3c1.8-0.5,3.3-1.9,3.8-3.7c0.5-1.8,0.1-3.8-1.1-5.2c-0.1-0.1-0.2-0.2-0.5-0.5c-0.1-1.1-0.1-2.2-0.1-3.2
			c0-19.5,12.8-35.3,28.4-35.3c-2.4,0,0.5,0,0,0C214.3,150.1,227.1,165.9,227.1,185.4z M231.7,117.3c6.3,0,11.6,1.7,15.3,3.3
			c-8,6.2-16.2,9.4-24.6,9.4c-6.7,0-12.3-2-16.2-4C214.7,120.2,223.2,117.3,231.7,117.3z"/>
		<ellipse fill="#5980B7" cx="96.6" cy="256.6" rx="4.9" ry="4.7"/>
		<ellipse fill="#5980B7" cx="94.9" cy="240.7" rx="4.9" ry="4.7"/>
		<ellipse fill="#5980B7" cx="82.1" cy="247" rx="4.9" ry="4.7"/>
	</g>
</g>
</svg>
