<?xml version="1.0" encoding="utf-8"?>
<!-- Generator: Adobe Illustrator 18.1.1, SVG Export Plug-In . SVG Version: 6.00 Build 0)  -->
<svg version="1.1" id="Layer_1" xmlns="http://www.w3.org/2000/svg" xmlns:xlink="http://www.w3.org/1999/xlink" x="0px" y="0px"
	 viewBox="0 0 300 300" enable-background="new 0 0 300 300" xml:space="preserve">
<g>
	<path fill="#FFFFFF" d="M118.4,92c9.9,0,19,4.1,25.6,10.9V56.9c-21.2,1.3-40.4,10-55,23.5l14.7,14.7c4.5-2,9.4-3.1,14.7-3.1
		C118.3,92,118.4,92,118.4,92z"/>
	<path fill="#FFFFFF" d="M215,127.5c0,4.6-1.1,9.5-3,14.5H239c-1-21-9.4-40.3-22.5-55.1l-13.8,13.8C210.2,107.2,215,116.8,215,127.5
		z"/>
	<path fill="#FFFFFF" d="M207.4,152c4.4,5,7.2,11.3,7.2,18.4c0,6.5-2.3,12.6-6.3,17.4c5.3,2.9,9.8,6.8,13.5,11.4
		c9.8-13.4,16-29.2,17.1-47.2H207.4z"/>
	<path fill="#FFFFFF" d="M83,128.2c0,0,0-0.1,0-0.1l-0.1-1.5c0.3-10.4,5-19.6,12.2-25.9L82,87.6C69.2,102.3,61.1,121,60.1,142h25.4
		C83.9,137,83,132.7,83,128.2z"/>
	<path fill="#FFFFFF" d="M179.2,92c0,0,0.1,0,0.1,0c5.3,0,10.2,1.1,14.7,3.2l15.3-15.4c-14.8-13.4-34.1-21.9-55.4-22.9v45.5
		C160.5,95.9,169.4,92,179.2,92z"/>
	<path fill="#FFFFFF" d="M60.1,152c1.1,17,7.1,33.2,16.6,46.5c3.5-4.3,7.8-8,12.7-10.7c-4-4.8-6.3-10.9-6.3-17.4
		c0-6.9,2.6-13.1,6.8-17.9c-0.1-0.2-0.2-0.4-0.2-0.4H60.1z"/>
	<path fill="#CCCCCC" d="M205,127.5c0-14.1-11.6-25.6-25.7-25.6c-13,0-23.9,9.9-25.5,22.6c-0.3,2.5-2.4,4.5-4.9,4.5c0,0,0,0,0,0
		c-2.5,0-4.6-2-5-4.5c-1.7-12.7-12.6-22.4-25.5-22.4c-14,0-25.2,10.9-25.7,24.8l0,1.3c0,5.7,1.9,11.8,5,18c3.8-2,8-3.1,12.6-3.1
		c6,0,11.5,1.9,16,5.2c5.7-5.7,13.5-9.2,22.2-9.2c8.8,0,16.7,3.6,22.4,9.5c4.6-3.4,10.2-5.5,16.4-5.5c4.3,0,8.3,1,11.9,2.7
		C202.8,139.3,205,133,205,127.5z"/>
	<path fill="#FFFFFF" d="M171.9,191.4c15.4,7.9,25.8,22.6,27.3,40.6h21.3c0.3-2,0.5-3.7,0.5-5.7c0-14.6-9.7-28-23.5-32.4
		c-1.9-0.6-3.2-2.2-3.4-4.2c-0.2-1.9,0.7-3.8,2.3-4.9c5.1-3.2,8.1-8.6,8.1-14.6c0-9.5-7.7-17.2-17.2-17.2c-4,0-7.7,1.4-10.6,3.7
		c2,4.1,3.1,8.8,3.1,13.7C179.9,178.3,177,185.7,171.9,191.4z"/>
	<path fill="#FFFFFF" d="M93.2,170.3c0,6,3,11.5,8.1,14.6c1.7,1,2.6,2.9,2.3,4.9c-0.2,1.9-1.6,3.6-3.4,4.1
		c-13.9,4.4-23.5,17.8-23.5,32.4c0,1.9,0.2,3.6,0.5,5.6h20.7c1.6-17,11.9-32.7,27.4-40.6c-5.1-5.7-8-13.1-8-20.9c0-5,1.2-9.8,3.3-14
		c-2.9-2.1-6.4-3.4-10.2-3.4C100.9,153.1,93.2,160.8,93.2,170.3z"/>
	<path fill="#FFFFFF" d="M189.5,236.6c0-17.9-11.5-33.6-28.6-39c-1.9-0.6-3.2-2.2-3.4-4.2c-0.2-1.9,0.7-3.8,2.3-4.9
		c6.3-3.9,10.1-10.7,10.1-18.1c0-11.8-9.6-21.3-21.3-21.3c-11.8,0-21.3,9.6-21.3,21.3c0,7.4,3.8,14.2,10.1,18.1
		c1.7,1,2.6,2.9,2.3,4.9c-0.2,1.9-1.6,3.6-3.4,4.1c-17.1,5.4-28.6,21.2-28.6,39.1c0,2.4,0.2,4.3,0.7,7.3h80.5
		C189.3,241,189.5,239.1,189.5,236.6z"/>
	<path fill="#5980B7" d="M249.1,146.3c0-54.9-44.7-99.6-99.6-99.6c-27.4,0-52.2,11.1-70.3,29.1c-0.4,0.2-1.7,1.6-2,2
		C60.4,95.7,50,119.8,50,146.3c0,23,7.9,44.3,21,61.1c-2.8,5.8-4.3,12.2-4.3,18.9c0,4.1,0.6,7.6,1.5,11.7c0.5,2.3,2.5,3.9,4.9,3.9
		h24.9c0.3,3,0.8,5.5,1.6,8.3c0.6,2.2,2.6,3.7,4.8,3.7h88.5c2.3,0,4.2-1.5,4.8-3.7c0.7-2.8,1.3-5.3,1.5-8.3h25.5
		c2.3,0,4.4-1.6,4.9-3.9c0.9-4,1.5-7.6,1.5-11.8c0-6.4-1.3-12.4-3.8-18C240.9,191.3,249.1,169.8,249.1,146.3z M92.8,128.2l0-1.4
		c0.5-13.9,11.7-24.8,25.7-24.8c12.9,0,23.8,9.7,25.5,22.4c0.3,2.5,2.4,4.5,5,4.5c0,0,0,0,0,0c2.5,0,4.6-2,4.9-4.5
		c1.6-12.8,12.5-22.6,25.5-22.6c14.1,0,25.7,11.5,25.7,25.6c0,5.5-2.2,11.8-5.8,18.4c-3.6-1.7-7.6-2.7-11.9-2.7
		c-6.1,0-11.8,2-16.4,5.5c-5.7-5.9-13.6-9.5-22.4-9.5c-8.7,0-16.5,3.5-22.2,9.2c-4.5-3.3-10-5.2-16-5.2c-4.5,0-8.8,1.1-12.6,3.1
		C94.7,140,92.8,133.9,92.8,128.2z M202.7,100.7l13.8-13.7c13.2,14.8,21.5,34.1,22.5,55.1H212c1.9-5,3-9.9,3-14.5
		C215,116.8,210.2,107.2,202.7,100.7z M194,95.2c-4.5-2-9.5-3.2-14.7-3.2c0,0-0.1,0-0.1,0c-9.8,0-18.7,3.9-25.2,10.4V56.9
		c21.2,1.1,40.5,9.6,55.4,22.9L194,95.2z M144,56.9v45.9c-6.5-6.7-15.6-10.9-25.6-10.9c0,0-0.1,0-0.1,0c-5.2,0-10.2,1.1-14.7,3.1
		L89,80.4C103.6,66.9,122.8,58.2,144,56.9z M82,87.6l13.1,13.1c-7.2,6.3-11.8,15.5-12.2,25.9l0.1,1.5c0,0,0,0.1,0,0.1
		c0,4.5,0.9,8.8,2.4,13.8H60.1C61.1,121,69.2,102.3,82,87.6z M60.1,152h29.6c0.1,0,0.2,0.3,0.2,0.4c-4.2,4.8-6.8,11-6.8,17.9
		c0,6.5,2.3,12.6,6.3,17.4c-4.9,2.7-9.2,6.4-12.7,10.7C67.2,185.2,61.2,169,60.1,152z M97.9,232H77.1c-0.3-2-0.5-3.7-0.5-5.6
		c0-14.7,9.7-28,23.5-32.4c1.9-0.6,3.2-2.2,3.4-4.2c0.2-1.9-0.7-3.8-2.3-4.9c-5.1-3.2-8.1-8.6-8.1-14.6c0-9.5,7.7-17.2,17.2-17.2
		c3.8,0,7.3,1.3,10.2,3.4c-2.1,4.2-3.3,9-3.3,14c0,7.9,2.9,15.3,8,20.9C109.8,199.3,99.5,215,97.9,232z M188.8,244h-80.5
		c-0.4-3-0.7-4.9-0.7-7.3c0-17.9,11.5-33.6,28.6-39.1c1.9-0.6,3.2-2.2,3.4-4.2c0.2-1.9-0.7-3.8-2.3-4.9
		c-6.3-3.9-10.1-10.7-10.1-18.1c0-11.8,9.6-21.3,21.3-21.3c11.8,0,21.3,9.6,21.3,21.3c0,7.4-3.8,14.2-10.1,18.1
		c-1.7,1-2.6,2.9-2.3,4.9c0.2,1.9,1.6,3.6,3.4,4.1c17.1,5.4,28.6,21.1,28.6,39C189.5,239.1,189.3,241,188.8,244z M220.6,232h-21.3
		c-1.6-18-11.9-32.7-27.3-40.6c5.1-5.7,8-13,8-20.9c0-4.9-1.1-9.5-3.1-13.7c2.9-2.3,6.6-3.7,10.6-3.7c9.5,0,17.2,7.7,17.2,17.2
		c0,6-3,11.5-8.1,14.6c-1.7,1-2.6,2.9-2.3,4.9c0.2,1.9,1.6,3.6,3.4,4.1c13.9,4.4,23.5,17.7,23.5,32.4
		C221.1,228.3,220.9,230,220.6,232z M208.3,187.7c4-4.8,6.3-10.9,6.3-17.4c0-7.1-2.7-13.4-7.2-18.4h31.5c-1.1,18-7.3,33.8-17.1,47.2
		C218.2,194.5,213.6,190.6,208.3,187.7z"/>
</g>
</svg>
