<?xml version="1.0" encoding="utf-8"?>
<!-- Generator: Adobe Illustrator 18.1.1, SVG Export Plug-In . SVG Version: 6.00 Build 0)  -->
<svg version="1.1" id="Layer_1" xmlns="http://www.w3.org/2000/svg" xmlns:xlink="http://www.w3.org/1999/xlink" x="0px" y="0px"
	 viewBox="0 0 300 300" enable-background="new 0 0 300 300" xml:space="preserve">
<g>
	<path fill="#FFFFFF" d="M128.5,139c0,2.3,0.6,3.9,1.8,5.2c1.1,1.2,2.7,1.8,4.9,1.8h16.5c1.5-3,3.3-5.8,5.6-8.4
		c2-2.3,4.2-4.6,6.5-5.6h-28C130.5,132,128.5,133.9,128.5,139z"/>
	<path fill="#FFFFFF" d="M101,170.3c-7.8-8.7-11.8-20.6-11.8-35.4c0-12.9,4.5-24,13.2-33.1c8.8-9.1,19.1-13.7,30.6-13.7
		c9,0,17.3,2.1,24.6,6.2c0,0,0.1,0,0.1,0.1c3.6,2.2,7,3.3,9.9,3.3c1.8,0,3.2-0.7,4.4-2.4c1.5-1.9,2.2-4,2.2-6.2
		c0-2.7-2.1-5.3-6.3-7.7c-9.5-5.7-21.1-8.6-34.5-8.6c-17.4,0-31.9,6-44.5,18.2c-12.6,12.2-18.7,27.1-18.7,45.4
		c0,18.5,5.7,34,17.1,45.8c11.4,12,25.1,17.8,41.9,17.8c11,0,20.6-2,28.7-5.8c-0.3-0.3-0.6-0.6-0.8-0.9c-3.3-3.9-5.8-8.5-7.3-13.6
		c-4.9,2.6-10.7,3.9-17.2,3.9C119.5,183.6,108.9,179.2,101,170.3z"/>
	<path fill="#FFFFFF" d="M187.4,179.1c2.7,0,4.8-1,6.7-3.2c2-2.3,3-5.7,3-10.2c0-4.6-1-8.1-2.8-10.6c-1.7-2.2-3.8-3.2-6.8-3.2
		c-3,0-5.1,1-6.6,3.2c-1.8,2.6-2.7,6.1-2.7,10.4c0,4.3,0.9,7.8,2.8,10.3C182.5,178,184.6,179.1,187.4,179.1z"/>
	<path fill="#CDCCCC" d="M205,139.8c0,1.7-1,3.2-2.6,3.8c-1.6,0.6-3.4,0.1-4.4-1.2c-4.4-5.4-9.8-8-16.6-8c-7.1,0-13,2.8-18,8.5
		c-5.1,5.9-7.6,13.3-7.6,22.7c0,9.4,2.4,16.8,7.4,22.7c4.8,5.7,10.4,8.5,17.1,8.5c5.7,0,11.8-2.9,18.1-8.5c1.2-1.1,2.8-1.3,4.3-0.7
		c1.4,0.6,2.3,2.1,2.3,3.7v5.2c0,8.5-2.2,14.5-6.5,17.8c-4,3-8.9,4.5-14.6,4.5c-5.2,0-10.3-1.3-15.4-3.9l-5.9,8.1
		c5.9,3,13.8,4.5,24.2,4.5c21.6,0,31.3-9.5,31.3-29.8v-50.5c0-2.2,2.7-4.1,4.9-4.1h7.1v-7h-25V139.8z M200.2,181.2
		c-3.4,3.9-7.7,5.9-12.7,5.9c-5.4,0-9.9-2.3-13-6.6c-2.9-4-4.3-9-4.3-15c0-6,1.4-11,4.1-15c3-4.4,7.6-6.7,13.2-6.7
		c5.5,0,10,2.2,13.2,6.4c3,3.9,4.5,9.1,4.5,15.5C205.2,172.2,203.5,177.4,200.2,181.2z"/>
	<path fill="none" d="M157.3,137.7c2-2.3,4.1-3.7,6.4-5.7h-27.8c-5.3,0-7.4,1.8-7.4,6.9c0,2.3,0.6,4,1.8,5.3
		c1.1,1.2,2.7,1.8,4.9,1.8h16.5C152.7,144,155,140.4,157.3,137.7z"/>
	<path fill="none" d="M187.4,151.9c-3,0-5.1,1-6.6,3.2c-1.8,2.6-2.7,6.1-2.7,10.4c0,4.3,0.9,7.8,2.8,10.3c1.6,2.2,3.7,3.2,6.5,3.2
		c2.7,0,4.8-1,6.7-3.2c2-2.3,3-5.7,3-10.2c0-4.6-1-8.1-2.8-10.6C192.6,152.9,190.4,151.9,187.4,151.9z"/>
	<path fill="none" d="M149.7,179.8C149.7,179.8,149.7,179.8,149.7,179.8c-4.9,2.6-10.7,3.9-17.2,3.9c-13,0-23.6-4.5-31.5-13.4
		c-7.8-8.7-11.8-20.6-11.8-35.4c0-12.9,4.5-24,13.2-33.1c8.8-9.1,19.1-13.7,30.6-13.7c9,0,17.3,2.1,24.6,6.2c0,0,0.1,0,0.1,0.1
		c3.6,2.2,7,3.3,9.9,3.3c1.8,0,3.2-0.7,4.4-2.4c1.5-1.9,2.2-4,2.2-6.2c0-2.7-2.1-5.3-6.3-7.7c-9.5-5.7-21.1-8.6-34.5-8.6
		c-17.4,0-31.9,6-44.5,18.2c-12.6,12.2-18.7,27.1-18.7,45.4c0,18.5,5.7,34,17.1,45.8c11.4,12,25.1,17.8,41.9,17.8
		c11,0,20.6-2,28.7-5.8c-0.3-0.3-0.6-0.6-0.8-0.9C153.7,189.4,151.3,184.9,149.7,179.8z"/>
	<path fill="none" d="M205,139.8c0,1.7-1,3.2-2.6,3.8c-1.6,0.6-3.5,0.1-4.5-1.2c-4.4-5.4-9.8-8-16.5-8c-7.1,0-13,2.8-18,8.5
		c-5.1,5.9-7.6,13.3-7.6,22.7c0,9.4,2.4,16.8,7.4,22.7c4.8,5.7,10.5,8.5,17.2,8.5c5.7,0,11.8-2.9,18.1-8.5c1.2-1.1,2.7-1.3,4.2-0.7
		c1.4,0.6,2.3,2.1,2.3,3.7v5.2c0,8.5-2.2,14.5-6.5,17.8c-4,3-9,4.5-14.8,4.5c-5.2,0-10.3-1.3-15.4-3.9l-5.9,8.1
		c5.9,3,13.9,4.5,24.3,4.5c21.6,0,31.3-9.5,31.3-29.8v-50.5c0-2.2,2.7-4.1,4.9-4.1h7.1v-7h-25V139.8z M200.2,181.2
		c-3.4,3.9-7.7,5.9-12.7,5.9c-5.4,0-9.9-2.3-13-6.6c-2.9-4-4.3-9-4.3-15c0-6,1.4-11,4.1-15c3-4.4,7.6-6.7,13.2-6.7
		c5.5,0,10,2.2,13.2,6.4c3,3.9,4.5,9.1,4.5,15.5C205.2,172.2,203.5,177.4,200.2,181.2z"/>
	<path fill="#5A81B8" d="M234.2,128h-33.1c-2,0-3.7,1.2-4,3.1c-2.7-1.8-5.7-3.2-8.8-3.9c-0.1,0-0.2,0-0.3,0c-2.9-2.3-7-3.2-12.2-3.2
		h-39.9c-9.9,0-15.6,5.5-15.6,15.1c0,4.4,1.3,7.9,3.9,10.8c2.6,2.9,6.3,4.6,10.8,4.8c0.1,0,13.9,0.1,13.9,0.1
		c-0.7,3.3-1.1,6.9-1.1,10.7c0,2,0.1,3.9,0.3,5.7c-4.2,2.8-9.3,4.2-15.5,4.2c-10.7,0-19-3.5-25.4-10.6c-6.4-7.2-9.7-17.2-9.7-29.9
		c0-10.8,3.6-19.7,10.9-27.3c7.3-7.5,15.4-11.2,24.7-11.2c7.5,0,14.4,1.7,20.5,5.1c4.9,3,9.7,4.5,14.2,4.5c4.4,0,8.2-1.9,11-5.6
		c2.6-3.4,3.9-7.1,3.9-11.2c0-5.8-3.5-10.8-10.4-14.8c-10.7-6.5-23.8-9.7-38.8-9.7c-19.3,0-36.3,6.9-50.3,20.5
		c-14.1,13.7-21.2,31-21.2,51.4c0,20.7,6.5,38.1,19.4,51.6c12.9,13.5,29,20.4,47.9,20.4c13.8,0,25.6-2.8,35.4-8.2v0
		c4.7,3,9.9,4.6,15.7,4.6c5.5,0,11-1.8,16.6-5.3c-0.3,3.3-1.1,6.7-3.3,8.3c-2.6,2-5.8,2.9-9.8,2.9c-4.8,0-9.6-1.5-14.5-4.5
		c-1.8-1.1-4.1-0.6-5.4,1.1l-10.6,14.5c-1.3,1.8-0.9,4.3,0.9,5.6c7.5,5.5,17.8,8.2,32.4,8.2c26,0,39.3-13.1,39.3-37.9V151h8.2
		c2.2,0,3.8-1.7,3.8-3.9v-15.7C238,129.2,236.4,128,234.2,128z M135.2,146c-2.2,0-3.8-0.7-4.9-1.9c-1.2-1.3-1.8-2.8-1.8-5.2
		c0-5.1,2-6.9,7.4-6.9h27.8c-2.3,2-4.4,3.5-6.4,5.7c-2.3,2.6-4.6,6.3-5.6,8.3H135.2z M129.2,200.1c-16.8,0-30.5-5.8-41.9-17.8
		C76,170.4,70.2,155,70.2,136.5c0-18.4,6.1-33.2,18.7-45.4c12.6-12.3,27.2-18.2,44.5-18.2c13.5,0,25.1,2.9,34.5,8.6
		c4.2,2.4,6.3,5,6.3,7.7c0,2.2-0.7,4.2-2.2,6.2c-1.2,1.6-2.6,2.4-4.4,2.4c-3,0-6.3-1.1-9.9-3.3c0,0-0.1-0.1-0.1-0.1
		c-7.3-4.1-15.6-6.2-24.6-6.2c-11.5,0-21.8,4.6-30.6,13.7c-8.8,9.1-13.2,20.2-13.2,33.1c0,14.7,4,26.7,11.8,35.4
		c7.9,8.9,18.5,13.4,31.5,13.4c6.5,0,12.3-1.3,17.2-3.9c0,0,0,0,0,0c1.5,5.1,4,9.6,7.3,13.6c0.3,0.3,0.6,0.6,0.8,0.9
		C149.8,198.2,140.2,200.1,129.2,200.1z M230,143h-7.1c-2.2,0-4.9,1.9-4.9,4.1v50.5c0,20.3-9.6,29.8-31.3,29.8
		c-10.5,0-18.6-1.5-24.5-4.5l6-8.1c5.1,2.6,10.3,3.9,15.5,3.9c5.7,0,10.6-1.5,14.6-4.5c4.4-3.3,6.6-9.3,6.6-17.8v-5.2
		c0-1.6-0.9-3-2.3-3.7c-1.4-0.6-3.1-0.4-4.3,0.7c-6.3,5.6-12.4,8.5-18.1,8.5c-6.7,0-12.3-2.8-17.1-8.5c-5-5.9-7.4-13.3-7.4-22.7
		c0-9.4,2.5-16.8,7.6-22.7c5-5.7,10.9-8.5,18-8.5c6.7,0,12.2,2.6,16.6,8c1.1,1.3,2.8,1.8,4.4,1.2c1.6-0.6,2.6-2.1,2.6-3.8V136h25
		V143z"/>
	<path fill="#5A81B8" d="M187.4,143.9c-5.6,0-10.2,2.3-13.2,6.7c-2.7,4-4.1,9-4.1,15c0,6,1.5,11.1,4.3,15c3.1,4.3,7.6,6.6,13,6.6
		c5,0,9.3-2,12.7-5.9c3.3-3.8,5-9,5-15.5c0-6.4-1.5-11.6-4.5-15.5C197.5,146.1,192.9,143.9,187.4,143.9z M194.1,175.9
		c-1.9,2.2-4,3.2-6.7,3.2c-2.8,0-4.9-1-6.5-3.2c-1.9-2.6-2.8-6-2.8-10.3c0-4.3,0.9-7.8,2.7-10.4c1.5-2.2,3.6-3.2,6.6-3.2
		c3,0,5.1,1,6.8,3.2c1.9,2.5,2.8,6,2.8,10.6C197.1,170.2,196.1,173.6,194.1,175.9z"/>
</g>
</svg>
