<?xml version="1.0" encoding="utf-8"?>
<!-- Generator: Adobe Illustrator 18.1.1, SVG Export Plug-In . SVG Version: 6.00 Build 0)  -->
<svg version="1.1" id="Layer_1" xmlns="http://www.w3.org/2000/svg" xmlns:xlink="http://www.w3.org/1999/xlink" x="0px" y="0px"
	 viewBox="0 0 300 300" enable-background="new 0 0 300 300" xml:space="preserve">
<g>
	<rect x="187" y="230" fill="none" width="24" height="15"/>
	<path fill="none" d="M145,187.9V156c0-2.8,2.4-5,5.1-5h96.9c2.8,0,4.9,2.2,4.9,5v52.4c0,2.8-2.2,4.6-4.9,4.6h-89.2c0.7,3,1.4,5,2,7
		h21.8h33.9H258v-76H139v38.6C141,183.9,143,185.7,145,187.9z"/>
	<path fill="#FFFFFF" d="M183,96.8v19.8l18.2-7.8c0.6-0.3,1.3-0.4,2-0.4c0.6,0,1.2,0.1,1.8,0.3l21,8.2V96.8c0-1,0.3-2,0.9-2.8
		l11.2-16.5l-20.2-5.6c-1.3-0.3-2.3-1.2-3-2.3L205.1,53l-11.2,16.4c-0.6,0.9-1.6,1.6-2.7,2l-19.8,6.1l10.8,16.7
		C182.7,94.9,183,95.9,183,96.8z M209,83c0-2.8,2.2-5,5-5s5,2.2,5,5v9c0,2.8-2.2,5-5,5s-5-2.2-5-5V83z M190,83c0-2.8,2.2-5,5-5
		s5,2.2,5,5v9c0,2.8-2.2,5-5,5s-5-2.2-5-5V83z"/>
	<rect x="155" y="161" fill="#CCCCCC" width="87" height="42"/>
	<path fill="#FFFFFF" d="M130.7,228.3c-1.3,0.4-2.7,0.6-4.2,0.6c-7.7,0-13.9-6.2-13.9-13.9s6-13.9,13.7-13.9c1,0,2.7,0.1,2.7,0.3
		v-11.3c0,0-0.3,0-0.6,0c-3.9,0-6.1,1.2-9.3,2.8c-4.5,2.3-10.1,5.2-21.1,5.2c-12.1,0-18.3-3.8-23.2-6.8c-3.9-2.4-6.7-4.1-12.1-4.1
		c-3.7,0.5-13.8,17.9-18.5,41.1c-3.1,15.6-1.1,22.2,0,22.9c0.6,0.1,1.3,0.1,1.9,0.1c5.7,0,12.5-3.9,19.8-8.1
		c10-5.7,21.3-12.3,34.9-12.3c13.9,0,23.1,6.2,31.2,11.6c6.8,4.5,12.6,8.4,20.4,8.6c1.3-1.9,1.7-10.1-0.7-21.1h-17.5
		C132.9,230,131.6,229.3,130.7,228.3z M81,219h-4v5c0,2.8-2.2,5-5,5s-5-2.2-5-5v-5h-6c-2.8,0-5-2.2-5-5s2.2-5,5-5h6v-5
		c0-2.8,2.2-5,5-5s5,2.2,5,5v5h4c2.8,0,5,2.2,5,5S83.8,219,81,219z"/>
	<path fill="#FFFFFF" d="M145,208.4v-0.3c-2-4.6-4-8.2-6-11v12.8c1,1.6,1.2,3.3,1.2,5.1c0,1.8-0.1,3-0.7,5h9.9
		c-0.4-1-0.8-2.6-1.2-3.9c-0.5-1.4-1-2.8-1.5-4.1C145.7,211.1,145,209.8,145,208.4z"/>
	<path fill="#FFFFFF" d="M139,209.9v-12.8c-2-4.2-5.1-6.4-6.6-6.6c-1.2-0.2-2.4-0.3-3.4-0.4v11.3C134,202.4,138,205.6,139,209.9z"/>
	<path fill="#FFFFFF" d="M130.7,228.3c0.9,1,2.2,1.7,3.7,1.7h17.5c-0.6-3-1.5-6-2.5-10h-9.9C138,224,134.7,227,130.7,228.3z"/>
	<path fill="#FFFFFF" d="M145,208.4c0,1.4,0.6,2.7,1.5,3.6c-0.5-1.4-0.5-2.7-1.5-3.9V208.4z"/>
	<path fill="#CCCCCC" d="M126.3,211.1c-2.2,0-3.8,1.8-3.8,3.9s1.6,3.9,3.7,3.9c1.2,0,2.7-0.5,2.7-1.3v-5.2
		C129,211.6,127.5,211.1,126.3,211.1z"/>
	<path fill="#CCCCCC" d="M129,212.4v5.2c1-0.7,1-1.6,1-2.6S130,213.1,129,212.4z"/>
	<path fill="#CCCCCC" d="M46,97.5v31.6c0,2.1,1.2,3.9,3.3,3.9H56V94h-6.7C47.2,94,46,95.4,46,97.5z"/>
	<path fill="#CCCCCC" d="M150,129.1V97.5c0-2.1-1.4-3.5-3.4-3.5h-6.3c0,3-0.2,5.5-0.2,6.4v20.7V133h6.6
		C148.6,133,150,131.2,150,129.1z"/>
	<path fill="#FFFFFF" d="M97.9,61.3c-12.8,0-21.9,3.2-27.1,9.4c-1.3,1.6-2.3,3.3-3,5c6.6-4.5,16.8-8.2,32.3-8.2
		c11.5,0,19.6,2.9,25.5,6.9c-0.7-1.3-1.6-2.5-2.6-3.6C117.6,64.5,109.2,61.3,97.9,61.3z"/>
	<path fill="#FFFFFF" d="M99,163.4c-0.7-2.4,0.5-4.8,2.6-5.9c-0.5-0.1-1-0.2-1.5-0.2c-3.1,0-5.5,2.1-5.5,4.7s2.5,4.7,5.5,4.7
		c0.5,0,1-0.1,1.5-0.2C100.4,165.9,99.4,164.8,99,163.4z"/>
	<path fill="#FFFFFF" d="M105.6,162c0-2.1-1.7-3.9-4-4.5c-2.1,1.1-3.3,3.5-2.6,5.9c0.4,1.4,1.4,2.5,2.6,3.1
		C103.9,166,105.6,164.2,105.6,162z"/>
	<g>
		<path fill="#5980B7" d="M173,98.3v25.9c0,1.7,0.8,3.3,2.3,4.2c1.4,0.9,3.2,1.1,4.7,0.4l23.3-10l25.9,10.1c0.6,0.2,1.2,0.3,1.8,0.3
			c1,0,2-0.3,2.8-0.9c1.4-0.9,2.2-2.5,2.2-4.1V98.4l14.2-21c0.9-1.3,1.1-3,0.6-4.5c-0.6-1.5-1.8-2.7-3.4-3.1l-24.9-6.9l-12.8-21.7
			c-0.9-1.5-2.4-2.4-4.1-2.5c-1.7-0.1-3.3,0.8-4.3,2.2l-14.6,21.4l-24.4,7.5c-1.5,0.5-2.7,1.6-3.2,3.1c-0.5,1.5-0.4,3.1,0.5,4.4
			L173,98.3z M193.9,69.4L205.1,53l9.8,16.6c0.7,1.1,1.7,1.9,3,2.3l20.2,5.6L226.9,94c-0.6,0.8-0.9,1.8-0.9,2.8v20.1l-21-8.2
			c-0.6-0.2-1.2-0.3-1.8-0.3c-0.7,0-1.3,0.1-2,0.4l-18.2,7.8V96.8c0-1-0.3-1.9-0.8-2.7l-10.8-16.7l19.8-6.1
			C192.3,71,193.3,70.3,193.9,69.4z"/>
		<path fill="#5980B7" d="M195,97c2.8,0,5-2.2,5-5v-9c0-2.8-2.2-5-5-5s-5,2.2-5,5v9C190,94.8,192.2,97,195,97z"/>
		<path fill="#5980B7" d="M214,97c2.8,0,5-2.2,5-5v-9c0-2.8-2.2-5-5-5s-5,2.2-5,5v9C209,94.8,211.2,97,214,97z"/>
		<path fill="#5980B7" d="M262.7,134H159.3c0.7-1,0.7-3,0.7-4.9V97.5c0-7.6-5.9-13.5-13.4-13.5h-7.2c-1.1-7-3.6-13.6-8.8-19.6
			c-7.3-8.6-18.3-13-32.7-13c-16,0-27.7,4.5-34.9,13.3C57.8,71,56.1,78,55.7,84h-6.4C41.7,84,36,89.9,36,97.5v31.6
			c0,7.6,5.7,13.9,13.3,13.9H61c2.8,0,5-2.4,5-5.1V92.4c1-2.7,7.5-14.9,34.2-14.9c28,0,29.8,20.2,29.8,22.7c0,0,0,0,0,0
			c0,0.1,0,0.2,0,0.3v20.6c0,0-0.1,8.1-0.1,16.4s-7,13.6-14,15.7l-2.8,0.8c-2.8-4-7.6-6.7-13-6.7c-8.6,0-15.5,6.6-15.5,14.7
			s7.2,14.7,15.8,14.7c7.9,0,14.7-5.6,15.7-12.9c0,0,0,0,0,0l2.9-1c4-1.2,7.1-3,10.1-5.4v22.7c0,0-0.3,0-0.6,0c-6.3,0-10,2-13.8,3.9
			c-4.1,2.1-8,4.1-16.6,4.1c-9.3,0-13.5-2.6-18-5.3c-4.3-2.6-9.1-5.5-17.3-5.5c-7,0-13.8,7.7-20.2,22.8c-5.1,12-8.8,26.5-9.7,37.7
			c-1.4,17.7,4.6,22.5,9.9,23.3c1.1,0.2,2.3,0.3,3.5,0.3c8.4,0,16.3-4.6,24.8-9.4c9.3-5.4,19-10.9,30-10.9c10.9,0,18.1,4.8,25.7,9.9
			c7.5,5,15.3,10.3,26.3,10.3c2.9,0,9.6-1.3,10.6-13.5c0.4-4.7-0.1-10.6-1.4-17.6H177v16h-7c-2.8,0-5,2.2-5,5s2.2,5,5,5h56
			c2.8,0,5-2.2,5-5s-2.2-5-5-5h-5v-16h41.7c2.8,0,5.3-2.2,5.3-5v-85.7C268,136.6,265.5,134,262.7,134z M94.5,162
			c0-2.6,2.5-4.7,5.5-4.7c0.5,0,1,0.1,1.5,0.2c2.3,0.6,4,2.4,4,4.5c0,2.1-1.7,3.9-4,4.5c-0.5,0.1-1,0.2-1.5,0.2
			C97,166.7,94.5,164.6,94.5,162z M152.6,251.1c-7.8-0.1-13.7-4-20.4-8.6c-8.1-5.4-17.3-11.6-31.2-11.6c-13.6,0-24.9,6.5-34.9,12.3
			c-7.3,4.2-14.1,8.1-19.8,8.1c-0.6,0-1.3,0-1.9-0.1c-1.1-0.7-3.1-7.3,0-22.9c4.6-23.2,14.8-40.5,18.5-41.1c5.4,0,8.2,1.7,12.1,4.1
			c5,3,11.1,6.8,23.3,6.8c11,0,16.6-2.9,21.2-5.2c3.2-1.6,5.3-2.8,9.2-2.8c0.3,0,0.6,0,0.6,0c1,0,2.2,0.2,3.4,0.4
			c1.5,0.2,4.6,2.4,6.6,6.6c2,2.8,4,6.4,6,11c1,1.2,1.1,2.3,1.6,3.7c0,0,0.1,0,0.1,0.1c0.5,1.3,1,2.7,1.4,4.1c0.4,1.3,0.9,3,1.2,4
			c1.1,4,1.9,7,2.5,10C154.3,241,153.9,249.1,152.6,251.1z M150.6,208h-0.1c0,0,0-0.1,0-0.1C150.5,208,150.6,208,150.6,208z
			 M155,203v-42h87v42H155z M146.6,94c2.1,0,3.4,1.4,3.4,3.5v31.6c0,2.1-1.4,3.9-3.4,3.9H140v-0.1v-11.8v-20.7c0-1,0.2-3.4,0.2-6.4
			H146.6z M46,129.1V97.5c0-2.1,1.2-3.5,3.3-3.5H56v39h-6.7C47.2,133,46,131.2,46,129.1z M97.9,61.3c11.3,0,19.7,3.2,25,9.4
			c1,1.1,1.8,2.4,2.6,3.6c-5.8-4-14-6.9-25.5-6.9c-15.6,0-25.8,3.8-32.3,8.2c0.7-1.7,1.7-3.4,3-5C76,64.5,85.1,61.3,97.9,61.3z
			 M211,245h-24v-15h23.6h0.4V245z M258,220h-98.2c-0.6-2-1.3-4-2-7h89.2c2.8,0,4.9-1.9,4.9-4.6V156c0-2.8-2.2-5-4.9-5h-96.9
			c-2.8,0-5.1,2.2-5.1,5v31.9c-2-2.2-4-4-6-5.3V144h119V220z"/>
		<path fill="#5980B7" d="M129,139.7"/>
		<path fill="#5980B7" d="M130.5,228.3c4-1.3,7.5-4.3,9-8.3c0.6-2,0.7-3.2,0.7-5c0-1.8-0.2-3.6-1.2-5.1c-1-4.3-5-7.5-10-8.5
			c0-0.2-1.7-0.3-2.7-0.3c-7.7,0-13.8,6.2-13.8,13.9s6.3,13.9,14,13.9C127.9,228.9,129.1,228.7,130.5,228.3 M129,217.6
			c0,0.8-1.5,1.3-2.7,1.3c-2.2,0-3.8-1.8-3.8-3.9s1.6-3.9,3.7-3.9c1.2,0,2.7,0.5,2.7,1.3c1,0.7,1,1.6,1,2.6S130,216.9,129,217.6z"/>
		<path fill="#5980B7" d="M81,209h-4v-5c0-2.8-2.2-5-5-5s-5,2.2-5,5v5h-6c-2.8,0-5,2.2-5,5s2.2,5,5,5h6v5c0,2.8,2.2,5,5,5s5-2.2,5-5
			v-5h4c2.8,0,5-2.2,5-5S83.8,209,81,209z"/>
	</g>
</g>
</svg>
