<?xml version="1.0" encoding="utf-8"?>
<!-- Generator: Adobe Illustrator 18.1.1, SVG Export Plug-In . SVG Version: 6.00 Build 0)  -->
<svg version="1.1" id="Layer_1" xmlns="http://www.w3.org/2000/svg" xmlns:xlink="http://www.w3.org/1999/xlink" x="0px" y="0px"
	 viewBox="156 246 300 300" enable-background="new 156 246 300 300" xml:space="preserve">
<g>
	<path fill="#FFFFFF" d="M376,365.4V361h18v7.6c5-0.3,10.8-1.8,14.4-3.2c-9.2-16.7-21.2-25.2-35.8-25.2c-5.1,0-9.8,1.1-13.5,2.3
		c1.2,3.7,1.9,7.5,2.6,11.4C366.1,359.1,371,363,376,365.4z"/>
	<path fill="#FFFFFF" d="M203.7,365.6c4,1.5,9.9,3.4,16.6,3.4c0,0,0,0,0,0c7.4,0,14.2-2.1,20.3-6.2c0.4-7.9,1.7-15.3,3.9-22.1
		c-1.6-0.2-3.3-0.3-5.1-0.3C224.8,340.4,212.8,348.8,203.7,365.6z"/>
	<path fill="#CCCCCC" d="M329.4,423.3c3.3,1,6.5,2.1,9.5,3.4c-0.8-10.4,2.3-18.3,5.5-26.5c3.4-8.8,6.9-17.9,6.9-32.5
		c0-13.6-3.9-26.1-10.5-36.1c-2,3.7-4,7.8-5.9,12.2C322.8,371.9,320.9,398.6,329.4,423.3z"/>
	<path fill="#CCCCCC" d="M262.1,330.8c-6.3,9.8-9.8,22.4-9.8,36.9c0,17,3.6,27,6.7,35.8c2.8,8,5.4,15.3,4.1,24.7
		c3.3-1.7,6.8-3.1,10.7-4.3C286.4,387.7,274.1,352.9,262.1,330.8z"/>
	<path fill="#FFFFFF" d="M324.1,338.8c2.7-6.3,5.6-12,8.5-16.9c-8.5-8-19.2-12.9-30.9-12.9c-12.4,0-23.2,4.4-31.5,12.1
		c3,5.2,6.1,11.1,9,17.8c12.2,28.2,14.9,56.4,7.9,82c5-0.8,10.2-1.2,15.6-1.2c4.7,0,9.2,0.3,13.5,0.9
		C309.3,395,311.9,366.9,324.1,338.8z"/>
	<path fill="#FFFFFF" d="M302.7,431.5c-27,0-49.7,11.8-49.7,25.8s22.8,25.8,49.7,25.8c27,0,49.7-11.8,49.7-25.8
		S329.6,431.5,302.7,431.5z"/>
	<path fill="#5980B7" d="M421.7,365.7c-14.4-30.8-34.7-37.3-49.2-37.3c-7,0-13.2,1.5-18.1,3.2c-2.1-3.9-4.4-7.6-7.1-11
		c5.4-8.5,9.7-13.5,9.8-13.5c2.2-2.5,1.9-6.2-0.6-8.4c-2.5-2.1-6.2-1.9-8.4,0.6c-0.3,0.3-4.2,4.8-9.3,12.5
		c-10.3-9.1-23.2-14.5-37.2-14.5c-14.3,0-27.4,4.8-37.9,13.7c-4.8-7.1-8.4-11.3-8.7-11.6c-2.1-2.5-5.9-2.7-8.4-0.6
		c-2.5,2.1-2.7,5.9-0.6,8.4c0.1,0.2,4.1,4.8,9.2,12.6c-2.4,3-4.5,6.3-6.3,9.7c-3-0.6-6.3-0.9-9.8-0.9c-14.4,0-34.7,6.5-49.1,37.3
		l-2.3,4.9l4.6,2.9c0.5,0.3,12.3,7.5,27.7,7.5c0,0,0,0,0,0c6.1,0,13.2-1.2,20.4-4.6c1,14,4.3,23.4,7.1,31.1c3.8,10.6,6,17,0.2,29.9
		l-2.5,5.6c-2.9,4.4-4.4,9.2-4.4,14.2c0,21.1,27,37.6,61.6,37.6s61.6-16.5,61.6-37.6c0-8.5-4.4-16.2-11.8-22.4
		c-3.9-12.8-1-20.3,2.9-30.4c3.2-8.2,7-18.4,7.6-33.2c4.5,3.2,9.1,5.4,13.1,6.8V393h18v-12.6c14-0.6,25-6.9,25.4-7.2l4.6-2.7
		L421.7,365.7z M240.6,362.8c-6.1,4.1-12.8,6.2-20.3,6.2c0,0,0,0,0,0c-6.7,0-12.7-1.9-16.6-3.4c9.2-16.7,21.2-25.2,35.7-25.2
		c1.7,0,3.4,0.1,5.1,0.3C242.2,347.5,240.9,354.9,240.6,362.8z M301.8,309c11.7,0,22.4,4.8,30.9,12.9c-2.8,5-5.8,10.7-8.5,16.9
		c-12.2,28.1-14.9,56.2-7.9,81.7c-4.3-0.6-8.9-0.9-13.5-0.9c-5.4,0-10.6,0.4-15.6,1.2c7-25.7,4.4-53.8-7.9-82
		c-2.9-6.6-6-12.6-9-17.8C278.6,313.4,289.4,309,301.8,309z M262.1,330.8c12,22.1,24.3,56.8,11.6,93.1c-3.8,1.2-7.4,2.7-10.7,4.3
		c1.3-9.5-1.3-16.7-4.1-24.7c-3.1-8.8-6.7-18.8-6.7-35.8C252.3,353.3,255.8,340.6,262.1,330.8z M302.7,483
		c-27,0-49.7-11.8-49.7-25.8s22.8-25.8,49.7-25.8c27,0,49.7,11.8,49.7,25.8S329.6,483,302.7,483z M344.3,400.2
		c-3.2,8.2-6.2,16-5.5,26.5c-3-1.3-6.1-2.4-9.5-3.4c-8.5-24.7-6.6-51.4,5.5-79.4c1.9-4.4,3.9-8.5,5.9-12.2
		c6.6,10,10.5,22.5,10.5,36.1C351.3,382.3,347.7,391.4,344.3,400.2z M394,368.6V361h-18v4.4c-5-2.4-9.8-6.2-14.2-11.3
		c0-0.1,0-0.2,0-0.2c-0.7-3.9-1.6-7.7-2.9-11.4c3.8-1.2,8.4-2.3,13.5-2.3c14.5,0,26.7,8.5,35.8,25.2
		C404.8,366.7,399,368.3,394,368.6z"/>
</g>
</svg>
