<?xml version="1.0" encoding="utf-8"?>
<!-- Generator: Adobe Illustrator 18.1.1, SVG Export Plug-In . SVG Version: 6.00 Build 0)  -->
<svg version="1.1" id="Layer_1" xmlns="http://www.w3.org/2000/svg" xmlns:xlink="http://www.w3.org/1999/xlink" x="0px" y="0px"
	 viewBox="0 0 300 300" enable-background="new 0 0 300 300" xml:space="preserve">
<g>
	<path fill="none" d="M192.5,74C192.5,74,192.4,74,192.5,74c2.2,0,4.5,0,6.6,0.3c0.1,0,0.2,0,0.3,0c-0.1,0-0.2,0.1-0.3,0.1
		C197.1,74.1,194.7,74,192.5,74z"/>
	<path fill="none" d="M77.5,82.8c-0.8-1.9-0.4-4,1-5.4l0,0l0,0C77.1,78.8,76.7,81,77.5,82.8c0.8,1.9,2.6,3.1,4.6,3.1l46,0l0,0l-46,0
		C80.1,85.9,78.3,84.7,77.5,82.8z"/>
	<path fill="none" d="M185.5,74.2c-3.3,0.4-5.9,1.2-8.4,2.1C179.8,75.4,182.6,74.7,185.5,74.2z"/>
	<path fill="none" d="M233,225h2.8c3.1,0,5.5-2.4,5.5-5.5s-2.5-5.5-5.5-5.5H233v10.6V225z"/>
	<polygon fill="none" points="118,224.6 118,225 181,225 181,224.6 181,214 118,214 	"/>
	<path fill="none" d="M58.7,219.5c0,3.1,2.5,5.5,5.5,5.5H67v-0.4V214h-2.8C61.2,214,58.7,216.4,58.7,219.5z"/>
	<polygon fill="#CCCCCC" points="97,253 107,253 107,186 97,186 97,191.3 97,246.8 	"/>
	<rect x="78" y="197" fill="#CCCCCC" width="8" height="45"/>
	<polygon fill="#CCCCCC" points="192,186 192,253 202,253 202,246.8 202,191.3 202,186 	"/>
	<rect x="213" y="197" fill="#CCCCCC" width="9" height="45"/>
	<path fill="#FFFFFF" d="M199,74.2V71h0.1H186v3.1c2-0.3,4.3-0.1,6.4-0.1c0,0,0,0,0,0c0,0,0,0,0,0C194.7,74,197,73.9,199,74.2z"/>
	<path fill="#FFFFFF" d="M192.4,154.1c19.4,0,35.2-15.8,35.2-35.2s-15.8-35.2-35.2-35.2c-19.4,0-35.2,15.8-35.2,35.2
		S173,154.1,192.4,154.1z M221.1,117h1c1.9,0,3.5,1.6,3.5,3.5s-1.6,3.5-3.5,3.5h-1c-1.9,0-3.5-1.6-3.5-3.5S219.2,117,221.1,117z
		 M196,149.6c0,1.9-1.6,3.5-3.5,3.5s-3.5-1.6-3.5-3.5v-2c0-1.9,1.6-3.5,3.5-3.5s3.5,1.6,3.5,3.5V149.6z M209.8,97.5l1.2-1.2
		c1.4-1.4,3.6-1.4,4.9,0c1.4,1.4,1.4,3.6,0,5l-1.2,1.2c-0.7,0.7-1.6,1-2.5,1s-1.8-0.3-2.5-1C208.5,101.1,208.5,98.9,209.8,97.5z
		 M209.8,137c1.4-1.4,3.6-1.4,5,0l1.2,1.2c1.4,1.4,1.4,3.6,0,5c-0.7,0.7-1.6,1-2.5,1c-0.9,0-1.8-0.3-2.5-1l-1.2-1.2
		C208.5,140.6,208.5,138.4,209.8,137z M189,90.6c0-1.9,1.6-3.5,3.5-3.5s3.5,1.6,3.5,3.5v2c0,1.9-1.6,3.5-3.5,3.5s-3.5-1.6-3.5-3.5
		V90.6z M186.1,118.9l4.2-16.7c0.3-1,1.3-1.6,2.3-1.4c0.7,0.2,1.2,0.7,1.4,1.4l4.2,16.7c0.8,3.3-1.2,6.7-4.5,7.5
		c-3.3,0.8-6.7-1.2-7.5-4.5C185.9,120.9,185.9,119.9,186.1,118.9z M175.3,142l-1.2,1.2c-0.7,0.7-1.6,1-2.5,1s-1.8-0.3-2.5-1
		c-1.4-1.4-1.4-3.6,0-5l1.2-1.2c1.4-1.4,3.6-1.4,5,0C176.6,138.4,176.6,140.6,175.3,142z M169.1,96.4c1.4-1.4,3.6-1.4,4.9,0l1.2,1.2
		c1.4,1.4,1.4,3.6,0,5c-0.7,0.7-1.6,1-2.5,1s-1.8-0.3-2.5-1l-1.2-1.2C167.8,99.9,167.8,97.7,169.1,96.4z M163.1,124
		c-1.9,0-3.5-1.6-3.5-3.5s1.6-3.5,3.5-3.5h2c1.9,0,3.5,1.6,3.5,3.5s-1.6,3.5-3.5,3.5H163.1z"/>
	<rect x="176" y="56" fill="#CCCCCC" width="33" height="4"/>
	<rect x="88" y="87" fill="#CCCCCC" width="35" height="20"/>
	<rect x="99" y="47" fill="#CCCCCC" width="12" height="3"/>
	<path fill="#FFFFFF" d="M108.6,69.1c-1-0.9-1.6-2.2-1.6-3.6V63h-5v2.5c0,1.3-0.5,2.6-1.4,3.5L94,75.9l21.7,0L108.6,69.1z"/>
	<path fill="#FFFFFF" d="M123,140.2c-6-7.9-5.3-16.2-2.8-22.2H90.7c3.3,8,2.3,16.3-3.7,23.2V158h36V140.2z"/>
	<g>
		<path fill="#5980B7" d="M235.8,203H233v-0.5v-11.2c0-3-2.7-5.3-5.7-5.3h-13.9H213v-5.9c0-3-2.1-5.1-5.2-5.1H187c-3,0-6,2.1-6,5.1
			v22.4v0.5h-63v-0.5v-22.4c0-3-2.1-5.1-5.2-5.1H92c-3,0-6,2.1-6,5.1v5.9H72.6c-3,0-5.6,2.2-5.6,5.3v11.2v0.5h-2.8
			c-9.1,0-16.5,7.4-16.5,16.5S55.1,236,64.2,236H67v10.8c0,3,2.5,6.2,5.6,6.2H86v4.9c0,3,3,6.1,6,6.1h20.8c3,0,5.2-3,5.2-6.1V236h63
			v21.9c0,3,3,6.1,6,6.1h20.8c3,0,5.2-3,5.2-6.1V253h0.3h13.9c3,0,5.7-3.2,5.7-6.2V236h2.8c9.1,0,16.5-7.4,16.5-16.5
			S244.9,203,235.8,203z M67,224.6v0.4h-2.8c-3.1,0-5.5-2.4-5.5-5.5s2.5-5.5,5.5-5.5H67V224.6z M78,242v-45h8v45H78z M107,253H97
			v-6.2v-55.5V186h10V253z M181,224.6v0.4h-63v-0.4V214h63V224.6z M202,253h-10v-67h10v5.3v55.5V253z M222,242h-9v-45h9V242z
			 M235.8,225H233v-0.4V214h2.8c3.1,0,5.5,2.4,5.5,5.5S238.8,225,235.8,225z"/>
		<path fill="#5980B7" d="M192.4,164.1c24.9,0,45.2-20.3,45.2-45.2c0-10.5-3.6-20.2-9.6-27.9l6.4-8.2c1.7-2.2,1.3-5.3-0.9-7
			c-2.2-1.7-5.3-1.3-7,0.9l-5.6,7.2c-3.5-2.9-7.5-5.2-11.8-6.9c-1.3-0.5-2.6-0.9-3.9-1.3c1.4,0.4,2.8,0.8,3.8,1.3V71h5.3
			c3,0,5.7-3.2,5.7-6.3V50.1c0-3-2.7-5.1-5.7-5.1h-43.5c-3,0-5.8,2.1-5.8,5.1v14.6c0,3,2.8,6.3,5.8,6.3h5.2h0v5.7c0,0,0,0-0.1,0
			c-4.9,1.9-9.4,4.7-13.3,8.1l-6.4-8.2c-1.7-2.2-4.8-2.6-7-0.9c-2.2,1.7-2.6,4.8-0.9,7l7.4,9.5c-5.4,7.5-8.7,16.7-8.7,26.6
			C147.2,143.9,167.5,164.1,192.4,164.1z M192.4,74c-2.1,0-4.4-0.2-6.4,0.1V71h13.1H199v3.2c0,0,0.2,0,0.3,0.1c-0.1,0-0.2,0-0.3-0.1
			c-2.2-0.3-4.4-0.5-6.7-0.5c-2.2,0-4.3,0.4-6.3,0.7C188.1,74.1,190.3,74,192.4,74C192.4,74,192.4,74,192.4,74z M176,56h33v4h-33V56
			z M185.5,74.2c-2.9,0.4-5.7,1.2-8.4,2.1C179.6,75.4,182.2,74.7,185.5,74.2z M192.4,83.7c19.4,0,35.2,15.8,35.2,35.2
			s-15.8,35.2-35.2,35.2c-19.4,0-35.2-15.8-35.2-35.2S173,83.7,192.4,83.7z"/>
		<path fill="#5980B7" d="M193.6,126.4c3.3-0.8,5.3-4.2,4.5-7.5l-4.2-16.7c-0.2-0.7-0.7-1.2-1.4-1.4c-1-0.3-2,0.4-2.3,1.4l-4.2,16.7
			c-0.2,0.9-0.3,2,0,3C187,125.2,190.3,127.2,193.6,126.4z"/>
		<path fill="#5980B7" d="M192.5,96.1c1.9,0,3.5-1.6,3.5-3.5v-2c0-1.9-1.6-3.5-3.5-3.5s-3.5,1.6-3.5,3.5v2
			C189,94.5,190.6,96.1,192.5,96.1z"/>
		<path fill="#5980B7" d="M192.5,144.1c-1.9,0-3.5,1.6-3.5,3.5v2c0,1.9,1.6,3.5,3.5,3.5s3.5-1.6,3.5-3.5v-2
			C196,145.7,194.4,144.1,192.5,144.1z"/>
		<path fill="#5980B7" d="M221.1,124h1c1.9,0,3.5-1.6,3.5-3.5s-1.6-3.5-3.5-3.5h-1c-1.9,0-3.5,1.6-3.5,3.5S219.2,124,221.1,124z"/>
		<path fill="#5980B7" d="M163.1,124h2c1.9,0,3.5-1.6,3.5-3.5s-1.6-3.5-3.5-3.5h-2c-1.9,0-3.5,1.6-3.5,3.5S161.2,124,163.1,124z"/>
		<path fill="#5980B7" d="M170.3,102.5c0.7,0.7,1.6,1,2.5,1s1.8-0.3,2.5-1c1.4-1.4,1.4-3.6,0-5l-1.2-1.2c-1.4-1.4-3.6-1.4-4.9,0
			c-1.4,1.4-1.4,3.6,0,5L170.3,102.5z"/>
		<path fill="#5980B7" d="M211,143.2c0.7,0.7,1.6,1,2.5,1c0.9,0,1.8-0.3,2.5-1c1.4-1.4,1.4-3.6,0-5l-1.2-1.2c-1.4-1.4-3.6-1.4-5,0
			c-1.4,1.4-1.4,3.6,0,4.9L211,143.2z"/>
		<path fill="#5980B7" d="M212.3,103.5c0.9,0,1.8-0.3,2.5-1l1.2-1.2c1.4-1.4,1.4-3.6,0-5c-1.4-1.4-3.6-1.4-4.9,0l-1.2,1.2
			c-1.4,1.4-1.4,3.6,0,5C210.5,103.2,211.4,103.5,212.3,103.5z"/>
		<path fill="#5980B7" d="M170.3,137l-1.2,1.2c-1.4,1.4-1.4,3.6,0,5c0.7,0.7,1.6,1,2.5,1s1.8-0.3,2.5-1l1.2-1.2
			c1.4-1.4,1.4-3.6,0-4.9C173.9,135.7,171.7,135.7,170.3,137z"/>
		<path fill="#5980B7" d="M82.1,168h46c2.8,0,4.9-2.6,4.9-5.4v-24.2c0-1.2-0.4-2.4-1.2-3.3c-7.8-8.9-0.1-18.2,0.8-19.2
			c0.7-0.7,1.1-1.6,1.2-2.6c0-0.1,0-0.1,0-0.2c0.1-0.5,0.2-1,0.2-1.5V80.9c0-2.6-2-4.8-4-5.4v0c0,0-0.2,0-0.2,0L117,63.4V61
			c3,0,5-2.5,5-5.5V41c0-3-1.9-5-4.9-5H93.9c-3,0-5.9,2-5.9,5v14.5c0,2.4,2,4.5,4,5.2v2.7L79.9,75.9l-0.2,0.2l-1.2,1.3l0,0
			c-0.9,0.9-1.4,2.1-1.4,3.3c0-1.2,0.5-2.4,1.4-3.3l0,0l1.2-1.3C78.1,77,77,78.8,77,80.9v30.7c0,0.7,0.2,1.4,0.4,2.1
			c0.1,0.4,0.3,0.8,0.4,1.1c0.1,0.2,0.2,0.4,0.4,0.6c6.9,9.8,3.9,15.8,1.7,18.6c-1.7,0.8-3,2.5-3,4.5v24C77,165.4,79.4,168,82.1,168
			z M123,158H87v-16.8c6-6.9,7-15.2,3.7-23.2h29.5c-2.5,6-3.2,14.3,2.8,22.2V158z M102,65.5V63h5v2.5c0,1.4,0.6,2.7,1.6,3.6l7.1,6.8
			l-21.7,0l6.7-6.9C101.5,68.1,102,66.8,102,65.5z M133.2,80.6c0,0.7-0.1,1.5-0.3,2.2c-0.1,0.3-0.2,0.5-0.4,0.8
			c0.1-0.2,0.3-0.5,0.4-0.8c0.2-0.5,0.3-1,0.3-1.5C133.2,81,133.2,80.8,133.2,80.6z M88,87h35v20H88V87z M129.8,75.5l1.8,1.8
			c0.3,0.3,0.6,0.6,0.8,1c0,0.1,0.1,0.1,0.1,0.2c0,0-0.1,0-0.1,0c0.3,0.6,0.5,1.3,0.5,2c0,0,0,0,0,0.1c0-1.2-0.5-2.4-1.5-3.3
			L129.8,75.5C129.7,75.5,129.8,75.5,129.8,75.5z M99,47h12v3H99V47z"/>
	</g>
</g>
</svg>
