<?xml version="1.0" encoding="utf-8"?>
<!-- Generator: Adobe Illustrator 18.1.1, SVG Export Plug-In . SVG Version: 6.00 Build 0)  -->
<svg version="1.1" id="Layer_1" xmlns="http://www.w3.org/2000/svg" xmlns:xlink="http://www.w3.org/1999/xlink" x="0px" y="0px"
	 viewBox="156 246 300 300" enable-background="new 156 246 300 300" xml:space="preserve">
<g>
	<path fill="#FFFFFF" d="M236.7,400.7c0.1,1.7-0.4,3.3-1.6,4.4c-1.2,1.2-2.8,1.7-4.5,1.5c0,0-5.9-0.6-9.6,3
		c-1.7,1.7-2.8,4.4-3.2,7.4H248v-29.2C243,389.1,236,392.4,236.7,400.7z"/>
	<path fill="#FFFFFF" d="M379.4,406.7c-1.7,0.2-3.3-0.3-4.5-1.5c-1.2-1.2-1.7-2.8-1.6-4.4c0.5-7.1-5.2-10.6-9.2-12.2V417h28.2
		c-0.4-3-1.5-5.7-3.3-7.4C385.3,406.1,379.4,406.7,379.4,406.7z"/>
	<path fill="#FFFFFF" d="M353,380.9c0-0.1,0-0.2,0-0.3v-37.5L335.3,322l-29.1-10.7L276.3,322L259,342.4V417h17v-37.5
		c0-3,2.7-5.5,5.8-5.5h47c3,0,5.3,2.4,5.3,5.5V417h19v-34.6C352,381.9,352.9,381.4,353,380.9z M322,360h-32v-32h32V360z"/>
	<polygon fill="#CCCCCC" points="323,385 296.9,385 323,409.8 	"/>
	<polygon fill="#CCCCCC" points="287,417 314.9,417 287,390.9 	"/>
	<rect x="301" y="339" fill="#FFFFFF" width="10" height="10"/>
	<g>
		<path fill="#5980B7" d="M322,328h-32v32h32V328z M311,349h-10v-10h10V349z"/>
		<path fill="#5980B7" d="M400.3,453c3,0,5.5-2.5,5.5-5.5s-2.5-5.5-5.5-5.5H311v-13.3V428h17.8h35c0,0,36.2,0.5,37,0
			c2.8-0.3,4.9-2.6,4.9-5.5c0-1.8-0.9-3.5-2.3-4.5c-0.4-7-2.7-12.5-6.9-16.5c-4-3.8-9-5.3-12.7-5.8c-2.4-17.4-19.9-18.9-19.9-18.9
			v-25.8l9.7-7.4l-29.3-35.1l-37.2-16.7l-40,16.7l-29.5,35.2l10.6,8.8l-0.1,23.7c0,0-19.3,2.6-22.3,19.4c-3.7,0.5-8.7,1.9-12.7,5.8
			c-5.1,4.9-7.3,13.4-7.3,23.4v69c0,3,2.5,5.5,5.5,5.5s5.5-2.5,5.5-5.5v-66h13v66c0,3,2.5,5.5,5.5,5.5s5.5-2.5,5.5-5.5v-66h7.5h5.5
			v0.7V494c0,3,2.5,5.5,5.5,5.5s5.5-2.5,5.5-5.5v-65.3V428h13v0.7V494c0,3,2.5,5.5,5.5,5.5s5.5-2.5,5.5-5.5v-65.3V428h11v0.7V494
			c0,1.6,0.9,3.1,2,4.1c1,1.1,2.6,1.9,4.3,1.9h94c3,0,5.5-2.5,5.5-5.5s-2.5-5.5-5.5-5.5H311v-12h89.3c3,0,5.5-2.5,5.5-5.5
			s-2.5-5.5-5.5-5.5H311v-13H400.3z M323,409.8L296.9,385H323V409.8z M373,400.7c-0.1,1.7,0.6,3.3,1.8,4.4c1.2,1.2,2.9,1.7,4.6,1.5
			c0.1,0,5.9-0.5,9.6,2.9c1.8,1.7,2.9,4.4,3.3,7.4H364v-28.3C369,390.4,373.5,393.9,373,400.7z M217.8,417c0.4-3,1.5-5.7,3.2-7.4
			c3.7-3.6,9.6-3,9.6-3c1.7,0.2,3.3-0.3,4.5-1.5c1.2-1.2,1.7-2.8,1.6-4.4c-0.6-8.2,6.2-11.6,11.2-12.9V417H217.8z M259.4,417H259
			v-74.4l0.3-0.2l17.1-20.4l29.7-10.7l29.1,10.7l17.5,21.1l0.3,0.5V417h-0.2H334v-37.5c0-3-2.2-5.5-5.3-5.5h-47
			c-3,0-5.8,2.4-5.8,5.5V417H259.4z M287,417v-26.1l27.9,26.1H287z"/>
	</g>
</g>
</svg>
