<?xml version="1.0" encoding="utf-8"?>
<!-- Generator: Adobe Illustrator 18.1.1, SVG Export Plug-In . SVG Version: 6.00 Build 0)  -->
<svg version="1.1" id="Layer_1" xmlns="http://www.w3.org/2000/svg" xmlns:xlink="http://www.w3.org/1999/xlink" x="0px" y="0px"
	 viewBox="0 0 300 300" enable-background="new 0 0 300 300" xml:space="preserve">
<g>
	<path fill="#FFFFFF" d="M130.9,143.7c-7.3,0.1-12.3,0.3-15.3,0.3h-16c-2.3,0-4.6-2.2-4.6-4.5V93c0-2.6-1-3.7-1.9-4.4
		c-1.7-1.2-4-1.9-7-1.9c-9.3,0-10,4.1-10,7.9l0.8,42.6c0.1,8.6,0.1,21-0.1,36.7c-0.2,15.7-0.3,26.2-0.3,31.3c0,3.4,0.7,7,9.1,7
		c10.3,0,10.3-4.3,10.3-6.6l-0.2-41.9c0-1.1,0.4-2,1.2-2.8c0.8-0.8,1.8-1.1,2.9-1.1H152v-16.7l-6,0.3
		C142.8,143.5,138,143.6,130.9,143.7z"/>
	<path fill="#FFFFFF" d="M175.5,88.6c-1.6-1.4-4-2.1-7.1-2.1c-8.5,0-9.9,3.7-10.1,7.7c0,3.3,0.1,10.2,0.2,20.2c0,0.5,0,0.6,0,1.6h19
		c0.1-13,0.1-20.4,0.1-21.4C177.7,91.1,176.4,89.5,175.5,88.6z"/>
	<path fill="#CDCCCC" d="M214,202.2v-29.1c0-18.8-8.6-21.2-16.4-21.2c-5.2,0-10.7,2.2-16.9,6.5c-1.2,0.9-3,1-4.4,0.3
		c-1.3-0.7-2.4-2.1-2.4-3.6V124h-25v7h7.9c2.2,0,3.1,2.3,3.1,4.5v66.7c0,2.2-0.9,3.8-3.1,3.8H149v8h35v-8h-5.3
		c-2.2,0-4.7-1.6-4.7-3.8V170c0-1.4,1-2.7,2.2-3.4c5.2-3.3,9.9-4.9,14-4.9c3.4,0,6.1,1,8,3c1.9,2,2.8,5.1,2.8,9.4V214h23v-8h-5
		C216.8,206,214,204.4,214,202.2z"/>
	<path fill="none" d="M158.5,116h19c0.1-13,0.1-20.4,0.1-21.4c0-3.5-1.2-5.2-2.2-6c-1.6-1.4-4-2.1-7.1-2.1c-8.5,0-9.9,3.7-10.1,7.7
		c0,3.3,0.1,10.1,0.2,20.2C158.5,114.9,158.5,115,158.5,116z"/>
	<path fill="none" d="M214,202.2v-29.1c0-18.8-8.5-21.2-16.4-21.2c-5.2,0-10.6,2.2-16.8,6.5c-1.2,0.9-3.1,1-4.4,0.3
		c-1.3-0.7-2.4-2.1-2.4-3.6V124h-25v7h7.9c2.2,0,3.1,2.3,3.1,4.5v66.7c0,2.2-0.9,3.8-3.1,3.8H149v8h35v-8h-5.3
		c-2.2,0-4.7-1.6-4.7-3.8V170c0-1.4,1.1-2.7,2.2-3.4c5.2-3.3,9.9-4.9,14-4.9c3.4,0,6,1,7.9,3c1.9,2,2.8,5.1,2.8,9.4V214h23v-8h-5
		C216.8,206,214,204.4,214,202.2z"/>
	<path fill="none" d="M152,159.7v-16.4l-6,0.3c-3.2,0-8.1,0.1-15.3,0.2c-7.3,0.1-12.1,0.3-15.2,0.3h-16c-2.3,0-4.6-2.2-4.6-4.5V93
		c0-2.6-1-3.7-1.9-4.4c-1.7-1.2-4.1-1.9-7.1-1.9c-9.3,0-10,4.1-10,7.9l0.8,42.6c0.1,8.6,0.1,21-0.1,36.7
		c-0.2,15.7-0.3,26.2-0.3,31.3c0,3.4,0.7,7,9.1,7c10.3,0,10.3-4.3,10.3-6.6l-0.2-41.8c0-1.1,0.4-2.1,1.2-2.9
		c0.8-0.8,1.8-1.1,2.9-1.1H152V159.7z"/>
	<path fill="#5A81B8" d="M229,198h-7v-24.9c0-24.1-13.1-29.2-24.5-29.2c-4,0-7.9,0.9-12.1,2.7c0.2-33.4,0.4-50.5,0.4-52.1
		c0-5.1-1.7-9.2-5-12.1c-3.2-2.7-7.4-4.1-12.5-4.1c-15.3,0-18.1,9.8-18.3,15.6c0,0.1,0,0.1,0,0.2c0,3.3,0.1,10.2,0.2,20.4
		c0,0.5,0,0.5,0,1.5h-4.3c-2.2,0-4.9,1.5-4.9,3.8v15.4c-3,0-6.2-0.1-10.6-0.1c-7.2,0.1-11.9-0.1-14.8-0.1H103V92.9
		c0-0.1,0.4-0.1,0.4-0.2c-0.2-4.6-1.9-8.4-5.5-10.9c-3.2-2.3-7.1-3.4-11.8-3.4c-16,0-18.3,10.2-18.3,16.3l0.8,42.6
		c0.1,8.5,0.1,20.8-0.1,36.5c-0.2,15.7-0.3,26.3-0.3,31.4c0,9.7,6.3,15.2,17.4,15.2c16.1,0,18.6-9.3,18.6-14.9l-0.2-37.7h46.3
		l-0.2,22.1v7.9h0.4h-4.5c-2.2,0-4.9,2-4.9,4.2v15.7c0,2.2,2.7,4.1,4.9,4.1h42.5c2.2,0,3.6-1.9,3.6-4.1v-15.7c0-2.2-1.4-4.2-3.6-4.2
		h-2.2l-0.4-27.3c1.7-0.7,3.2-1,4.5-1c1.1,0,1.8,0.2,2.2,0.6c0,0,0.5,0.8,0.5,3.8v43.8c0,2.2,2,4.1,4.2,4.1H229c2.2,0,3-1.9,3-4.1
		v-15.7C232,200,231.3,198,229,198z M168.4,86.6c3.1,0,5.5,0.7,7.1,2.1c0.9,0.8,2.2,2.4,2.2,6c0,1,0,8.4-0.1,21.4h-19
		c0-1,0-1.1,0-1.6c-0.1-10.1-0.2-16.9-0.2-20.2C158.5,90.3,159.9,86.6,168.4,86.6z M99.8,160c-1.1,0-2.2,0.3-2.9,1.1
		c-0.8,0.8-1.2,1.8-1.2,2.9l0.2,41.8c0,2.3,0,6.6-10.3,6.6c-8.4,0-9.1-3.6-9.1-7c0-5.1,0.1-15.6,0.3-31.3
		c0.2-15.8,0.2-28.2,0.1-36.7l-0.8-42.6c0-3.8,0.8-7.9,10.1-7.9c3,0,5.2,0.6,6.9,1.9C94,89.3,95,90.4,95,93v46.5
		c0,2.3,2.3,4.5,4.6,4.5h16c3,0,8-0.2,15.3-0.3c7.1-0.1,11.9-0.2,15.1-0.2l6-0.3v16.4v0.3H99.8z M224,214h-23v-39.9
		c0-4.3-0.8-7.4-2.7-9.4c-1.9-2-4.6-3-8-3c-4.1,0-8.9,1.6-14.1,4.9c-1.2,0.7-2.2,2-2.2,3.4v32.2c0,2.2,2.4,3.8,4.7,3.8h5.3v8h-35v-8
		h7.9c2.2,0,3.1-1.6,3.1-3.8v-66.7c0-2.2-0.9-4.5-3.1-4.5H149v-7h25v31.1c0,1.5,1.2,2.9,2.5,3.6c1.3,0.7,3.1,0.6,4.3-0.3
		c6.1-4.3,11.5-6.5,16.7-6.5c7.9,0,16.5,2.4,16.5,21.2v29.1c0,2.2,2.8,3.8,5,3.8h5V214z"/>
</g>
</svg>
