<?xml version="1.0" encoding="utf-8"?>
<!-- Generator: Adobe Illustrator 18.1.1, SVG Export Plug-In . SVG Version: 6.00 Build 0)  -->
<svg version="1.1" id="Layer_1" xmlns="http://www.w3.org/2000/svg" xmlns:xlink="http://www.w3.org/1999/xlink" x="0px" y="0px"
	 viewBox="0 0 300 300" enable-background="new 0 0 300 300" xml:space="preserve">
<g>
	<path fill="#FFFFFF" d="M56.5,140.5c0.2,0.1,0.5,0.3,1.2,0.3c0.2,0,0.5,0,0.8,0c7.7-0.3,35.4-3.8,43.5-11c1.8-1.6,3.6-3.1,5.3-4.4
		c-0.2-1.1-0.4-2.3-0.5-3.4c0-0.6-0.1-1.1-0.1-1.7c0-3,0.6-6,1.6-8.7c-6.6-1.1-11.9-6-13.6-12.4c-5.2-4.2-8.2-9.5-9.6-14.5
		c-7.3,5.4-18.1,16.4-18,34c2.9-0.3,5.8-0.6,8.7-1.2c11-2.3,17.2-8.7,17.2-8.8c2.1-2.2,5.5-2.4,7.8-0.3c2.2,2.1,2.4,5.5,0.3,7.8
		c-0.2,0.2-3.6,3.8-9.7,7.1c-3.5,1.9-8,3.8-13.4,4.9c-1.1,0.2-2.2,0.4-3.2,0.6c-2.7,0.4-5.2,0.7-7.6,0.9c-10,1-11.8,1.8-12.5,5.4
		C54.3,137.4,54.9,139.2,56.5,140.5z"/>
	<path fill="none" d="M107.1,222.8c-0.6,0-1.3-0.1-2-0.3c-0.9,0.1-1.9,0.2-2.9,0.2c-0.2,4.8-1.5,10.3-4.9,16.3H108v-10.2v-6.1
		C108,222.8,107.4,222.8,107.1,222.8z"/>
	<path fill="none" d="M120.2,159h12.3l-1.7-6C127.5,155,123.9,157,120.2,159z"/>
	<path fill="#FFFFFF" d="M207.4,100.2c6.5,4.5,10.6,12,10.6,20.1c0,8.1-3.9,15.2-10,19.7v24.8c0,3-2.5,5.5-5.5,5.5s-5.5-2.5-5.5-5.5
		v-20.3c-1.1,0.2-2.3,0.2-3.5,0.2c-0.1,0-0.1,0-0.2,0l-9.3,30.4v6.9h18.8H231h18v-67.1c0-14.7-12-26.9-26.7-26.9h-11.8
		c-0.9,0-1.8,0.2-2.7,0.3c0.2,1.6,0.2,3.2,0.2,4.8C208,95.5,207.8,97.9,207.4,100.2z M225,115.8c0-3,2.5-5.5,5.5-5.5
		s5.5,2.5,5.5,5.5v49c0,3-2.5,5.5-5.5,5.5s-5.5-2.5-5.5-5.5V115.8z"/>
	<path fill="#CCCCCC" d="M217,228.8V240h0.5c4.4,0,7.5-3.8,7.5-8.2V193h-8v16.5V228.8z"/>
	<path fill="#FFFFFF" d="M112.1,135.6c-1,0.8-1.9,1.6-2.9,2.5C95.9,150,58,151.8,57.7,151.8c-2.2,0-4.3-0.5-6.2-1.5
		c-0.2,0.1-0.4,0.1-0.6,0.3c-0.3,0.2-1.1,1.3-1.1,4.6c0,1.3,0.4,2,1,2.5c0.5,0.4,1.1,0.2,1.8,1.2h38.5c10.8-3,23.7-9.4,33.3-15.1
		C119.5,142.5,115.3,139.5,112.1,135.6z"/>
	<path fill="#FFFFFF" d="M101.5,211.7c1.5,0,3-0.1,4.4-0.3c0.7-0.5,1.1-1.1,2.1-1.6v-0.3v-19.3c0-3,2.3-5.2,5.3-5.2H124
		c1.7-7,1.8-12,1.7-15H81.3C81,177,81.9,197.3,101.5,211.7z"/>
	<path fill="#FFFFFF" d="M70.3,170H53.8c1.9,18,12.8,32,28.5,38.3C71.1,193.5,70.1,177,70.3,170z"/>
	<path fill="#FFFFFF" d="M135.3,185h4.8l-3.4-11.7C136.6,176.5,136.3,180,135.3,185z"/>
	<path fill="#FFFFFF" d="M89.8,229.7l-3.6,5.7C87.9,233.6,89,231.6,89.8,229.7z"/>
	<path fill="#CCCCCC" d="M116.8,93.2c0-0.1,0-0.3,0-0.4c-0.9-2.3-3-3.9-5.6-3.9c-3.3,0-6,2.7-6,6s2.7,6,6,6c2.7,0,4.9-1.8,5.7-4.2
		C116.8,95.5,116.8,94.3,116.8,93.2z"/>
	<path fill="#CCCCCC" d="M151.6,185h17.7l13.3-42.7c-1.5-0.8-3-1.8-4.3-2.9c-4.3,3.5-9.7,5.4-15.4,5.4c-5.9,0-11.5-2.1-15.8-5.8
		c-2.2,1.9-4.8,3.5-7.5,4.5L151.6,185z"/>
	<path fill="#FFFFFF" d="M127.8,93.2c0,2.9,0.4,5.7,1.1,8.5c0.7,2.6-0.7,5.3-3.1,6.4c-4.8,2.2-8,7-8,12.3c0,7.4,6,13.4,13.4,13.4
		c4.5,0,8.7-2.3,11.2-6.1c1-1.5,2.7-2.5,4.6-2.5c1.8,0,3.6,0.9,4.6,2.5c2.5,3.8,6.7,6.1,11.2,6.1c4.3,0,8.4-2.1,10.9-5.6
		c1-1.4,2.7-2.3,4.5-2.3s3.4,0.8,4.5,2.3c2.5,3.5,6.6,5.6,10.9,5.6c7.4,0,13.4-6,13.4-13.4c0-5.3-3.1-10.1-8-12.3
		c-2.4-1.1-3.7-3.8-3.1-6.4c0.7-2.8,1.1-5.6,1.1-8.5c0-19.1-15.5-34.6-34.6-34.6C143.3,58.6,127.8,74.1,127.8,93.2z M171.6,68.4
		c2-2.3,5.5-2.5,7.8-0.5l4.9,4.3c2.3,2,2.5,5.5,0.5,7.8c-1.1,1.2-2.6,1.9-4.1,1.9c-1.3,0-2.6-0.4-3.6-1.4l-4.9-4.3
		C169.8,74.2,169.6,70.7,171.6,68.4z M165.2,90.8l7.6,1.7c3,0.6,4.9,3.6,4.2,6.5c-0.6,2.6-2.8,4.3-5.4,4.3c-0.4,0-0.8,0-1.2-0.1
		l-7.6-1.7c-3-0.6-4.9-3.6-4.2-6.5C159.3,92,162.2,90.1,165.2,90.8z M142.2,77.1l8.5-3.9c2.8-1.3,6-0.1,7.3,2.7
		c1.3,2.8,0.1,6-2.7,7.3l-8.5,3.9c-0.7,0.3-1.5,0.5-2.3,0.5c-2.1,0-4.1-1.2-5-3.2C138.3,81.7,139.5,78.4,142.2,77.1z"/>
	<rect x="119" y="196" fill="#CCCCCC" width="87" height="8"/>
	<rect x="119" y="215" fill="#FFFFFF" width="87" height="9"/>
	<rect x="119" y="235" fill="#CCCCCC" width="87" height="8"/>
	<path fill="none" d="M124.4,143.9c-4.9-1.4-9.1-4.4-12.2-8.3c-1,0.8-1.9,1.6-2.9,2.5C95.9,150,58,151.8,57.7,151.8
		c-2.2,0-4.3-0.5-6.2-1.5c-0.2,0.1-0.4,0.2-0.6,0.3c-0.3,0.2-1.1,1.3-1.1,4.6c0,1.3,0.4,1.9,1,2.5c0.5,0.4,1.1,0.2,1.8,1.2h38.5
		C101.9,156,114.8,149.7,124.4,143.9z"/>
	<path fill="none" d="M111.2,100.8c2.7,0,4.9-1.8,5.7-4.2c-0.1-1.2-0.1-2.3-0.1-3.5c0-0.1,0-0.3,0-0.4c-0.9-2.3-3-3.9-5.6-3.9
		c-3.3,0-6,2.7-6,6S107.9,100.8,111.2,100.8z"/>
	<path fill="none" d="M70.3,170H53.8c1.9,18,12.8,32,28.5,38.3C71.1,193.5,70.1,177,70.3,170z"/>
	<path fill="none" d="M130.8,152.9c-3.3,2-6.9,4.1-10.6,6.1h12.3L130.8,152.9L130.8,152.9z"/>
	<path fill="none" d="M105.1,222.5c-0.9,0.1-1.9,0.1-2.8,0.2c-0.2,4.8-1.4,10.3-4.9,16.3H108v-10.2v-6.1c0,0-0.6,0.1-0.9,0.1
		C106.4,222.8,105.7,222.7,105.1,222.5z"/>
	<path fill="none" d="M135.3,185h4.8l-3.4-11.8C136.6,176.4,136.3,180,135.3,185z"/>
	<path fill="none" d="M169.3,185l13.3-43c0,0,0,0,0,0c-1.5,0-3-1.6-4.3-2.7c-4.3,3.5-9.7,5.5-15.4,5.5c-5.9,0-11.5-2.1-15.8-5.8
		c-2.2,1.9-4.8,3.4-7.5,4.4c-2.6,0.9-2.6,1.1,0,0.1l12.1,41.5H169.3z"/>
	<path fill="none" d="M131.2,133.8c4.5,0,8.7-2.3,11.2-6.1c1-1.5,2.7-2.5,4.6-2.5c1.8,0,3.6,0.9,4.6,2.5c2.5,3.8,6.7,6.1,11.2,6.1
		c4.3,0,8.4-2.1,10.9-5.6c1-1.4,2.7-2.3,4.5-2.3s3.4,0.8,4.5,2.3c2.5,3.5,6.6,5.6,10.9,5.6c7.4,0,13.4-6,13.4-13.4
		c0-5.3-3.1-10.1-8-12.3c-2.4-1.1-3.7-3.8-3.1-6.4c0.7-2.8,1.1-5.6,1.1-8.5c0-19.1-15.5-34.6-34.6-34.6c-19.1,0-34.6,15.5-34.6,34.6
		c0,2.9,0.4,5.7,1.1,8.5c0.7,2.6-0.7,5.3-3.1,6.4c-4.8,2.2-8,7-8,12.3C117.7,127.7,123.8,133.8,131.2,133.8z M171.6,68.4
		c2-2.3,5.5-2.5,7.8-0.5l4.9,4.3c2.3,2,2.5,5.5,0.5,7.8c-1.1,1.2-2.6,1.9-4.1,1.9c-1.3,0-2.6-0.4-3.6-1.4l-4.9-4.3
		C169.8,74.2,169.6,70.7,171.6,68.4z M165.2,90.8l7.6,1.7c3,0.6,4.9,3.6,4.2,6.5c-0.6,2.6-2.8,4.3-5.4,4.3c-0.4,0-0.8,0-1.2-0.1
		l-7.6-1.7c-3-0.6-4.9-3.6-4.2-6.5C159.3,92,162.2,90.1,165.2,90.8z M142.2,77.1l8.5-3.9c2.8-1.3,6-0.1,7.3,2.7
		c1.3,2.8,0.1,6-2.7,7.3l-8.5,3.9c-0.7,0.3-1.5,0.5-2.3,0.5c-2.1,0-4.1-1.2-5-3.2C138.3,81.7,139.5,78.4,142.2,77.1z"/>
	<path fill="none" d="M125.6,170.1C125.6,170,125.6,170,125.6,170.1L81.3,170c-0.3,7,0.6,27.3,20.1,41.7c1.5,0,3.8,0.1,4.4-0.3
		c0.7-0.5,1.1-1,2.1-1.6v-0.3v-19.3c0-3,2.3-5.2,5.3-5.2H124C125.6,178,125.8,173.1,125.6,170.1z"/>
	<polygon fill="none" points="119,204 205.9,204 206,204 206,196 119,196 	"/>
	<path fill="none" d="M217,193.2v16.3v19.3v10.9v0.2h0.5c4.4,0,7.5-3.8,7.5-8.2V193h-8V193.2z"/>
	<polygon fill="none" points="119,224 205.9,224 206,224 206,215 119,215 	"/>
	<rect x="119" y="235" fill="none" width="87" height="8"/>
	<path fill="#FFFFFF" d="M44.5,141.7c-0.3-0.8-0.5-1.8-0.5-2.7v3.3c0,0,0-0.1,0-0.1C44.2,142,44.4,141.9,44.5,141.7z"/>
	<path fill="#5980B7" d="M222.3,77h-11.8c-1.8,0-3.5,0.3-5.2,0.5c1.2,3.4,2.1,7,2.5,10.7c0.9-0.1,1.8-0.2,2.7-0.2h11.8
		c14.7,0,26.7,12.2,26.7,26.9V182h-18h-28.2H184v-7.5l9.2-29.7c-0.3,0-0.5,0-0.8-0.1c0.3,0,0.5,0,0.8,0c0.1,0,0.2,0,0.3,0
		c1.2,0,2.3-0.1,3.5-0.2v20.3c0,3,2.5,5.5,5.5,5.5s5.5-2.5,5.5-5.5V140c6-4.5,10-11.6,10-19.7c0-8.1-4-15.6-10.6-20.1
		c0.4-2.3,0.5-4.7,0.5-7c0-1.6-0.1-3.2-0.2-4.7c-0.4-3.7-1.2-7.4-2.5-10.8c-6.4-17.5-23.2-30.1-42.9-30.1
		c-20.5,0-37.8,13.6-43.6,32.2c-2.3-1.2-4.9-1.8-7.6-1.8c-5.5,0-10.5,2.7-13.6,6.8c-0.1,0.2-0.3,0.3-0.4,0.5
		c-2.3-4.3-2.4-8.5-2.3-9.4c0.1-1.9-0.8-3.8-2.4-4.8c-1.6-1.1-3.6-1.2-5.4-0.4C75.5,76,55.3,93,56.2,120.3
		c-5.7,1.6-10.7,4.8-12.2,12.7c-0.1,0.4-0.1,0.7-0.2,1.1c-0.3,1.8-0.2,3.5,0,5c0.1,1,0.4,1.9,0.7,2.7c-0.2,0.1-0.4,0.3-0.5,0.4
		c0,0-0.1,0.1-0.1,0.1c-3.3,2.8-5,7.2-5,13c0,3.8,1.3,7.1,3.8,9.7c0.3,29.7,20.6,52.7,48.7,56.9c0,2-0.3,4.8-1.5,7.8
		c-0.8,1.9-1.9,4-3.6,5.8c-1.3,1.3-2.9,2.6-4.8,3.6H74c-3,0-5.5,2.5-5.5,5.5S71,250,74,250h34c0,0,0.1-0.1,0.1-0.1c0,0,0,0.1,0,0.1
		c0.7,2.2,2.7,4,5.1,4h98.1c2.1,0,3.9-1.2,4.9-3c0,0,0,0,0,0h1.2c10.5,0,18.5-8.8,18.5-19.2v-38.5V193h18.4c3,0,5.6-2.2,5.6-5.3
		v-72.8C260,94.2,243,77,222.3,77z M125.7,108c2.4-1.1,3.7-3.8,3.1-6.4c-0.7-2.8-1.1-5.6-1.1-8.5c0-19.1,15.5-34.6,34.6-34.6
		c19.1,0,34.6,15.5,34.6,34.6c0,2.9-0.4,5.7-1.1,8.5c-0.7,2.6,0.7,5.3,3.1,6.4c4.8,2.2,8,7,8,12.3c0,7.4-6,13.4-13.4,13.4
		c-4.3,0-8.4-2.1-10.9-5.6c-1-1.4-2.7-2.3-4.5-2.3s-3.4,0.8-4.5,2.3c-2.5,3.5-6.6,5.6-10.9,5.6c-4.5,0-8.7-2.3-11.2-6.1
		c-1-1.5-2.7-2.5-4.6-2.5c-1.8,0-3.6,0.9-4.6,2.5c-2.5,3.8-6.7,6.1-11.2,6.1c-7.4,0-13.4-6-13.4-13.4
		C117.7,115,120.9,110.2,125.7,108z M139.5,143.5c-2.6,0.9-2.6,0.8,0-0.1c2.7-1,5.3-2.5,7.5-4.4c4.4,3.7,9.9,5.8,15.8,5.8
		c5.6,0,11-2,15.4-5.5c1.3,1.1,2.8,2.7,4.3,2.7c0,0,0,0,0,0l-13.3,43h-17.7L139.5,143.5z M140.1,185h-4.8c0.9-5,1.3-8.6,1.3-11.8
		L140.1,185z M132.5,159h-12.3c3.7-2,7.3-4.1,10.6-6.1l0,0.1L132.5,159z M111.2,88.9c2.5,0,4.7,1.6,5.6,3.9c0,0.1,0,0.3,0,0.4
		c0,1.2,0,2.3,0.1,3.5c-0.8,2.4-3,4.2-5.7,4.2c-3.3,0-6-2.7-6-6S107.9,88.9,111.2,88.9z M54.7,135c0.7-3.6,2.6-4.4,12.5-5.4
		c2.3-0.2,4.9-0.5,7.6-0.9c1.1-0.2,2.1-0.4,3.2-0.6c5.3-1.1,9.8-3,13.4-4.9c6.1-3.4,9.5-6.9,9.7-7.1c2.1-2.2,1.9-5.7-0.3-7.8
		c-2.2-2.1-5.7-1.9-7.8,0.3c-0.1,0.1-6.2,6.4-17.2,8.8c-2.9,0.6-5.8,0.9-8.7,1.2c-0.1-17.6,10.7-28.6,18-34c1.5,5,4.4,10.3,9.6,14.5
		c1.7,6.4,7,11.3,13.6,12.4c-1,2.7-1.6,5.7-1.6,8.7c0,0.6,0,1.1,0.1,1.7c0.1,1.2,0.2,2.3,0.5,3.4c-1.7,1.4-3.5,2.8-5.3,4.4
		c-8.1,7.2-35.8,10.7-43.5,11c-0.3,0-0.6,0-0.8,0c-0.7,0-1-0.2-1.2-0.3C54.9,139.2,54.3,137.4,54.7,135z M50.8,157.8
		c-0.6-0.5-1-1.2-1-2.5c0-3.4,0.9-4.4,1.1-4.6c0.2-0.2,0.4-0.3,0.6-0.3c1.9,1,4,1.5,6.2,1.5c0.4,0,38.2-1.9,51.6-13.7
		c1-0.9,2-1.7,2.9-2.5c3.1,3.9,7.3,6.8,12.2,8.3c-9.6,5.8-22.5,12.1-33.3,15.1H52.6C51.9,158,51.3,158.2,50.8,157.8z M53.8,170h16.5
		c-0.3,7,0.7,23.5,12,38.3C66.6,202,55.7,188,53.8,170z M108,228.8V239H97.4c3.4-6,4.7-11.5,4.9-16.3c1,0,1.9-0.1,2.8-0.2
		c0.6,0.2,1.4,0.3,2,0.3c0.3,0,0.9,0,0.9-0.1V228.8z M108,190.2v19.3v0.3c-1,0.5-1.4,1-2.1,1.6c-0.6,0.5-3,0.3-4.4,0.3
		C81.9,197.3,81,177,81.3,170h44.3c0,0,0,0,0,0.1c0.1,3,0,7.9-1.7,14.9h-10.7C110.3,185,108,187.1,108,190.2z M206,243h-87v-8h87
		V243z M206,224L206,224h-87v-9h87V224z M206,204L206,204h-87v-8h87V204z M225,231.8c0,4.4-3.1,8.2-7.5,8.2H217v-0.2v-10.9v-19.3
		v-16.3V193h8V231.8z"/>
	<path fill="#5980B7" d="M236,164.8v-49c0-3-2.5-5.5-5.5-5.5s-5.5,2.5-5.5,5.5v49c0,3,2.5,5.5,5.5,5.5S236,167.8,236,164.8z"/>
	<path fill="#5980B7" d="M144.5,87.6c0.8,0,1.6-0.2,2.3-0.5l8.5-3.9c2.8-1.3,4-4.5,2.7-7.3c-1.3-2.8-4.5-4-7.3-2.7l-8.5,3.9
		c-2.8,1.3-4,4.5-2.7,7.3C140.5,86.4,142.5,87.6,144.5,87.6z"/>
	<path fill="#5980B7" d="M177,80.4c1,0.9,2.3,1.4,3.6,1.4c1.5,0,3-0.6,4.1-1.9c2-2.3,1.8-5.8-0.5-7.8l-4.9-4.3
		c-2.3-2-5.8-1.8-7.8,0.5c-2,2.3-1.8,5.8,0.5,7.8L177,80.4z"/>
	<path fill="#5980B7" d="M162.9,101.5l7.6,1.7c0.4,0.1,0.8,0.1,1.2,0.1c2.5,0,4.8-1.8,5.4-4.3c0.6-3-1.2-5.9-4.2-6.5l-7.6-1.7
		c-3-0.6-5.9,1.2-6.5,4.2C158,98,159.9,100.9,162.9,101.5z"/>
</g>
</svg>
