<?xml version="1.0" encoding="utf-8"?>
<!-- Generator: Adobe Illustrator 18.1.1, SVG Export Plug-In . SVG Version: 6.00 Build 0)  -->
<svg version="1.1" id="Layer_1" xmlns="http://www.w3.org/2000/svg" xmlns:xlink="http://www.w3.org/1999/xlink" x="0px" y="0px"
	 viewBox="0 0 300 300" enable-background="new 0 0 300 300" xml:space="preserve">
<g>
	<path fill="#CDCCCC" d="M238.7,150c0-48.9-39.8-88.7-88.7-88.7S61.3,101.1,61.3,150s39.8,88.7,88.7,88.7S238.7,198.9,238.7,150z
		 M151,233.6c-46.1,0-83.6-37.5-83.6-83.6s37.5-83.6,83.6-83.6s83.6,37.5,83.6,83.6S197.1,233.6,151,233.6z"/>
	<path fill="#FFFFFF" d="M179,112.5c5,3.7,9.2,8.5,12.4,13.9l26-14.6c-5.7-9.8-13.5-18.3-22.8-24.8c0,0.1-0.1,0.2-0.1,0.3L179,112.5
		z"/>
	<path fill="#FFFFFF" d="M124.3,111.6l-14.5-26c0,0,0-0.1-0.1-0.1c-9.5,6.1-17.6,14.2-23.6,23.7l25.4,15.6
		C114.9,119.6,119.2,115.1,124.3,111.6z"/>
	<path fill="#FFFFFF" d="M104.6,156h-30c0.8,11,4,21.5,9.1,30.8l26-14.5C107.1,167.3,105.3,162,104.6,156z"/>
	<path fill="#FFFFFF" d="M112.9,177.2l-26.1,14.6c5.9,9,13.5,16.6,22.5,22.5l15.6-25.4C120.3,185.7,116.2,181.7,112.9,177.2z"/>
	<path fill="#FFFFFF" d="M191.2,174l25.4,15.7c6.1-10,9.9-21.8,10.8-33.8h-30C196.6,162,194.4,168.6,191.2,174z"/>
	<path fill="#FFFFFF" d="M129.6,108.5c5.5-2.9,12.4-4.7,18.4-5.1V73.7c0-0.1-0.1-0.2-0.1-0.2c-11.8,0.5-23.1,3.7-32.9,9
		c0.1,0.1,0.2,0.1,0.2,0.2L129.6,108.5z"/>
	<path fill="#FFFFFF" d="M108.7,130.3l-25.5-15.6c-5.6,10.6-8.7,22.4-8.8,35.4h29.8C104.3,143,105.8,136.2,108.7,130.3z"/>
	<path fill="#FFFFFF" d="M154,196.7v29.9c11-0.4,21.2-3.1,30.6-7.6L170,192.8C165,195,160,196.4,154,196.7z"/>
	<path fill="#FFFFFF" d="M175.1,190.1l14.6,26c9.3-5.5,17.4-12.8,23.6-21.6l-25.5-15.7C184.3,183.3,180,187.1,175.1,190.1z"/>
	<path fill="#FFFFFF" d="M154,103.3c7,0.4,14.1,2.5,20.1,6l15.4-25.1c0.1-0.1,0.1-0.2,0.2-0.3c-10.6-6.2-22.8-10-35.9-10.4
		c0,0.1,0.2,0.2,0.2,0.3V103.3z"/>
	<path fill="#FFFFFF" d="M130.3,191.9l-15.6,25.5c9.9,5.4,21.3,8.7,33.3,9.2v-29.9C142,196.2,135.7,194.5,130.3,191.9z"/>
	<path fill="#FFFFFF" d="M197.8,150h29.8c0-12-2.7-22.8-7.4-32.7L194.1,132C196.4,137.5,197.7,143,197.8,150z"/>
	<path fill="#FFFFFF" d="M110.6,156c0.7,4,2.2,9.2,4.4,13.3l6.7-3.7c-1.5-3-2.5-6.6-3.1-9.6H110.6z"/>
	<path fill="#FFFFFF" d="M171,114.4c-5.1-2.9-11-4.7-17-5.1v6.9c5,0.4,9.3,1.9,13.3,4.3L171,114.4z"/>
	<path fill="#FFFFFF" d="M113.8,133.4c-2.3,5-3.5,10.6-3.6,16.6h7.9c0-5,0.9-8.6,2.4-12.4L113.8,133.4z"/>
	<path fill="#FFFFFF" d="M179.5,133.1l6.7-3.7c-2.7-4.5-6.2-8.5-10.3-11.7l-3.8,6.2C175,126.5,177.5,129.6,179.5,133.1z"/>
	<path fill="#FFFFFF" d="M133.5,186.8c4.4,2.1,9.5,3.5,14.5,3.9v-6.9c-4-0.4-7.4-1.5-10.7-3.1L133.5,186.8z"/>
	<path fill="#FFFFFF" d="M186.1,170.9c2.7-4.5,4.5-9.9,5.3-14.9h-8c-0.6,4-2,7.6-3.8,11L186.1,170.9z"/>
	<path fill="#FFFFFF" d="M148,116.2v-6.9c-5,0.4-10.8,2-15.4,4.4l3.4,6.1c0.2-0.1,0.6-0.2,0.9-0.4C140.2,117.8,144,116.6,148,116.2z
		"/>
	<path fill="#FFFFFF" d="M154,190.7c5-0.3,8.9-1.4,13-3.1l-3.4-6.2c-3,1.3-5.6,2.1-9.6,2.4V190.7z"/>
	<path fill="#FFFFFF" d="M181.9,138.7c1.2,3.5,1.9,7.3,1.9,11.3h7.9c0-6-1.1-10.4-3-15L181.9,138.7z"/>
	<path fill="#FFFFFF" d="M168.7,178.6l3.5,6.3c4-2.4,7.5-5.5,10.5-9.2l-6.4-4C174.1,174.4,171.5,176.7,168.7,178.6z"/>
	<path fill="#FFFFFF" d="M128.2,125.6c0.8-0.8,1.7-1.6,2.6-2.4l-3.5-6.3c-4.2,3-7.8,6.8-10.6,11.1l6.5,4
		C124.6,129.6,126.3,127.5,128.2,125.6z"/>
	<path fill="#FFFFFF" d="M124.8,170.5l-6.6,3.7c2.7,3.7,6.1,6.9,9.9,9.5l3.8-6.1C129.2,175.6,126.8,173.2,124.8,170.5z"/>
	<path fill="#FFFFFF" d="M151,177.9c12.7,0,23.3-9.1,26.1-21.4c-1.5-6.6-6.8-9.1-11.4-9.1c-2.2,0-4.3,0.5-5.9,1.5
		c-2.3,1.4-4.4,3.7-6.7,5.8c-4.7,4.3-9.6,9.2-16.3,9.2c0,0,0,0,0,0c-1.1,0-2.3-0.5-3.5-0.7c-3.3-0.8-5.8-2.3-7.7-4.1
		C129.2,170.1,139.2,177.9,151,177.9z M168.4,160.2c0,2.9-2.4,5.3-5.3,5.3s-5.3-2.4-5.3-5.3c0-2.9,2.4-5.3,5.3-5.3
		S168.4,157.2,168.4,160.2z"/>
	<path fill="#CDCCCC" d="M134.5,158c0.8,0.2,1.6,0.3,2.4,0.3c0,0,0,0,0,0c4.8,0,8.7-3.7,12.9-7.5c2.4-2.2,4.8-4.4,7.5-6.1
		c2.4-1.5,5.4-2.3,8.5-2.3c4,0,8.6,1.4,12,4.9c-1.3-14.2-12.8-25.3-26.7-25.3c-12.3,0-22.6,8.6-25.8,20.3
		C124.8,147,125.5,155.9,134.5,158z M137.5,139.1c2.9,0,5.3,2.4,5.3,5.3c0,2.9-2.4,5.3-5.3,5.3s-5.3-2.4-5.3-5.3
		C132.2,141.5,134.6,139.1,137.5,139.1z"/>
	<g>
		<path fill="#5A81B8" d="M150,55.3c-52.2,0-94.7,42.5-94.7,94.7s42.5,94.7,94.7,94.7s94.7-42.5,94.7-94.7S202.2,55.3,150,55.3z
			 M150,238.7c-48.9,0-88.7-39.8-88.7-88.7s39.8-88.7,88.7-88.7s88.7,39.8,88.7,88.7S198.9,238.7,150,238.7z"/>
		<path fill="#5A81B8" d="M151,66.4c-46.1,0-83.6,37.5-83.6,83.6s37.5,83.6,83.6,83.6s83.6-37.5,83.6-83.6S197.1,66.4,151,66.4z
			 M148,190.6c-5-0.4-10.1-1.8-14.5-3.9l3.8-6c3.3,1.6,6.7,2.7,10.7,3.1V190.6z M110.6,156h8c0.6,3,1.6,6.5,3.1,9.5l-6.7,3.8
			C112.8,165.3,111.3,160,110.6,156z M113.8,133.4l6.7,4.2c-1.5,3.8-2.3,7.4-2.4,12.4h-7.9C110.3,144,111.5,138.5,113.8,133.4z
			 M125.2,142.3c3.2-11.7,13.6-20.3,25.8-20.3c14,0,25.5,11.1,26.7,25.3c-3.4-3.5-8-4.9-12-4.9c-3.1,0-6.1,0.8-8.5,2.3
			c-2.7,1.6-5.1,3.9-7.5,6.1c-4.2,3.9-8.1,7.5-12.9,7.5c0,0,0,0,0,0c-0.8,0-1.6-0.1-2.4-0.3C125.5,155.9,124.8,147,125.2,142.3z
			 M133.3,163.3c1.2,0.3,2.3,0.7,3.5,0.7c0,0,0,0,0,0c6.7,0,11.6-4.8,16.3-9.2c2.3-2.1,4.4-4.4,6.7-5.7c1.6-1,3.7-1.6,5.9-1.6
			c4.6,0,9.8,2.4,11.4,9c-2.8,12.3-13.5,21.4-26.1,21.4c-11.8,0-21.8-7.8-25.4-18.8C127.5,161,130,162.5,133.3,163.3z M172,123.9
			l3.8-6.2c4.1,3.2,7.6,7.1,10.3,11.7l-6.7,3.7C177.5,129.6,175,126.5,172,123.9z M167.3,120.4c-4-2.4-8.3-3.8-13.3-4.3v-6.9
			c6,0.4,11.9,2.2,17.1,5.1L167.3,120.4z M148,116.2c-4,0.4-7.8,1.5-11.3,3.3c-0.3,0.1-0.6,0.2-0.8,0.4l-3.3-6.1
			c4.6-2.4,10.4-3.9,15.4-4.4V116.2z M128.2,125.6c-1.9,1.9-3.6,4.1-5,6.4l-6.5-4c2.8-4.4,6.4-8.1,10.6-11.1l3.5,6.3
			C129.8,123.9,129,124.8,128.2,125.6z M124.8,170.5c2,2.7,4.4,5.1,7.1,7.1l-3.8,6.1c-3.8-2.6-7.2-5.8-9.9-9.5L124.8,170.5z
			 M154,183.8c4-0.3,6.5-1.1,9.6-2.4l3.5,6.2c-4.1,1.7-8.1,2.8-13.1,3.1V183.8z M176.2,171.7l6.4,4c-2.9,3.6-6.5,6.7-10.5,9.2
			l-3.5-6.3C171.5,176.7,174.1,174.4,176.2,171.7z M179.6,166.9c1.9-3.4,3.2-6.9,3.8-10.9h8c-0.8,5-2.6,10.4-5.3,15L179.6,166.9z
			 M183.8,150c0-4-0.7-7.8-1.9-11.3l6.9-3.8c1.9,4.6,2.9,9,3,15H183.8z M194.1,131.9l26.1-14.5c4.7,9.9,7.4,20.6,7.4,32.6h-29.8
			C197.7,143,196.4,137.4,194.1,131.9z M217.4,111.8l-26,14.6c-3.2-5.4-7.4-10.1-12.4-13.9l15.5-25.2c0.1-0.1,0.1-0.2,0.1-0.3
			C203.9,93.5,211.7,102,217.4,111.8z M189.6,83.9c-0.1,0.1-0.2,0.2-0.2,0.3l-15.3,25.1c-6.1-3.4-13.1-5.6-20.1-6V73.7
			c0-0.1-0.2-0.2-0.2-0.3C166.9,73.9,179,77.6,189.6,83.9z M147.9,73.4c0,0.1,0.1,0.2,0.1,0.2v29.7c-6,0.5-12.9,2.3-18.4,5.1
			l-14.5-25.8c0-0.1-0.1-0.1-0.1-0.2C124.8,77.1,136,74,147.9,73.4z M109.7,85.5c0,0,0,0.1,0.1,0.1l14.5,26
			c-5.1,3.5-9.4,8-12.8,13.3l-25.4-15.6C92.2,99.7,100.2,91.6,109.7,85.5z M83.2,114.6l25.5,15.8c-2.8,6-4.4,12.7-4.4,19.7H74.4
			C74.4,137,77.6,125.1,83.2,114.6z M104.6,156c0.7,6,2.5,11.2,5.2,16.2l-26,14.6c-5.1-9.3-8.3-19.9-9.1-30.9H104.6z M86.8,191.8
			l26.1-14.6c3.3,4.6,7.4,8.6,12,11.7l-15.6,25.4C100.3,208.4,92.7,200.8,86.8,191.8z M130.3,191.9c5.3,2.7,11.7,4.3,17.7,4.8v29.9
			c-12-0.5-23.3-3.8-33.3-9.2L130.3,191.9z M154,226.6v-29.9c6-0.3,11-1.7,15.9-3.9l14.7,26.1C175.3,223.5,165,226.2,154,226.6z
			 M189.7,216.1l-14.6-26c4.9-2.9,9.2-6.8,12.7-11.2l25.5,15.7C207,203.3,199,210.6,189.7,216.1z M216.6,189.7l-25.4-15.6
			c3.3-5.5,5.4-12.1,6.2-18.1h30C226.5,168,222.7,179.7,216.6,189.7z"/>
		<circle fill="#5A81B8" cx="163.1" cy="160.2" r="5.3"/>
		<circle fill="#5A81B8" cx="137.5" cy="144.4" r="5.3"/>
	</g>
</g>
</svg>
