<?xml version="1.0" encoding="utf-8"?>
<!-- Generator: Adobe Illustrator 18.1.1, SVG Export Plug-In . SVG Version: 6.00 Build 0)  -->
<svg version="1.1" id="Layer_1" xmlns="http://www.w3.org/2000/svg" xmlns:xlink="http://www.w3.org/1999/xlink" x="0px" y="0px"
	 viewBox="0 0 300 300" enable-background="new 0 0 300 300" xml:space="preserve">
<g>
	<path fill="#FFFFFF" d="M242,247V140h-43v107H242z M210,150h20c3,0,5.5,2.5,5.5,5.5S233,161,230,161h-20c-3,0-5.5-2.5-5.5-5.5
		S207,150,210,150z M210,170h20c3,0,5.5,2.5,5.5,5.5S233,181,230,181h-20c-3,0-5.5-2.5-5.5-5.5S207,170,210,170z M210,190h20
		c3,0,5.5,2.5,5.5,5.5S233,201,230,201h-20c-3,0-5.5-2.5-5.5-5.5S207,190,210,190z M210,210h20c3,0,5.5,2.5,5.5,5.5S233,221,230,221
		h-20c-3,0-5.5-2.5-5.5-5.5S207,210,210,210z"/>
	<path fill="#FFFFFF" d="M57,247h43V140H57V247z M68,150h20c3,0,5.5,2.5,5.5,5.5S91,161,88,161H68c-3,0-5.5-2.5-5.5-5.5
		S65,150,68,150z M68,170h20c3,0,5.5,2.5,5.5,5.5S91,181,88,181H68c-3,0-5.5-2.5-5.5-5.5S65,170,68,170z M68,190h20
		c3,0,5.5,2.5,5.5,5.5S91,201,88,201H68c-3,0-5.5-2.5-5.5-5.5S65,190,68,190z M68,210h20c3,0,5.5,2.5,5.5,5.5S91,221,88,221H68
		c-3,0-5.5-2.5-5.5-5.5S65,210,68,210z"/>
	<path fill="#FFFFFF" d="M174.8,104h-51.4c-3,0-5.4-1.9-5.4-4.9V83h-7v164h17v-33.2c0-3,2.8-5.8,5.9-5.8h30.5c3,0,5.6,2.8,5.6,5.8
		V247h17V83h-7v16.1C180,102.1,177.9,104,174.8,104z M137,185h-11c-3,0-5.5-2.5-5.5-5.5s2.5-5.5,5.5-5.5h11c3,0,5.5,2.5,5.5,5.5
		S140,185,137,185z M137,165h-11c-3,0-5.5-2.5-5.5-5.5s2.5-5.5,5.5-5.5h11c3,0,5.5,2.5,5.5,5.5S140,165,137,165z M137,145h-11
		c-3,0-5.5-2.5-5.5-5.5s2.5-5.5,5.5-5.5h11c3,0,5.5,2.5,5.5,5.5S140,145,137,145z M137,125h-11c-3,0-5.5-2.5-5.5-5.5
		s2.5-5.5,5.5-5.5h11c3,0,5.5,2.5,5.5,5.5S140,125,137,125z M172,185h-11c-3,0-5.5-2.5-5.5-5.5s2.5-5.5,5.5-5.5h11
		c3,0,5.5,2.5,5.5,5.5S175,185,172,185z M172,165h-11c-3,0-5.5-2.5-5.5-5.5s2.5-5.5,5.5-5.5h11c3,0,5.5,2.5,5.5,5.5S175,165,172,165
		z M172,145h-11c-3,0-5.5-2.5-5.5-5.5s2.5-5.5,5.5-5.5h11c3,0,5.5,2.5,5.5,5.5S175,145,172,145z M172,125h-11c-3,0-5.5-2.5-5.5-5.5
		s2.5-5.5,5.5-5.5h11c3,0,5.5,2.5,5.5,5.5S175,125,172,125z"/>
	<rect x="139" y="219" fill="#CCCCCC" width="20" height="28"/>
	<path fill="#FFFFFF" d="M129,93h40V53h-40V93z M144,58h11v9h9v11h-9v8h-11v-8h-8V67h8V58z"/>
	<g>
		<path fill="#5980B7" d="M247.8,129H198v-0.1V77.8c0-3-2-5.8-5-5.8h-13v0.3V47.7c0-3-2.1-5.7-5.2-5.7h-51.4c-3,0-5.4,2.7-5.4,5.7
			v24.6V72h-12.7c-3,0-5.3,2.7-5.3,5.8v51.1v0.1H51.1c-3,0-5.1,2.4-5.1,5.4V253c0,3,2.1,5,5.1,5h54.2h0.3h28.3h30.5H193
			c0.1,0-0.1,0.1-0.1,0.1c0.3,0,0.7-0.1,1-0.1h53.9c3,0,5.2-1.9,5.2-5V134.4C253,131.4,250.8,129,247.8,129z M57,140h43v107H57V140z
			 M129,53h40v40h-40V53z M159,247h-20v-28h20V247z M187,247h-17v-33.2c0-3-2.6-5.8-5.6-5.8h-30.5c-3,0-5.9,2.8-5.9,5.8V247h-17V83
			h7v16.1c0,3,2.4,4.9,5.4,4.9h51.4c3,0,5.2-1.9,5.2-4.9V83h7V247z M242,247h-43V140h43V247z"/>
		<path fill="#5980B7" d="M210,161h20c3,0,5.5-2.5,5.5-5.5S233,150,230,150h-20c-3,0-5.5,2.5-5.5,5.5S207,161,210,161z"/>
		<path fill="#5980B7" d="M210,181h20c3,0,5.5-2.5,5.5-5.5S233,170,230,170h-20c-3,0-5.5,2.5-5.5,5.5S207,181,210,181z"/>
		<path fill="#5980B7" d="M210,201h20c3,0,5.5-2.5,5.5-5.5S233,190,230,190h-20c-3,0-5.5,2.5-5.5,5.5S207,201,210,201z"/>
		<path fill="#5980B7" d="M210,221h20c3,0,5.5-2.5,5.5-5.5S233,210,230,210h-20c-3,0-5.5,2.5-5.5,5.5S207,221,210,221z"/>
		<path fill="#5980B7" d="M88,150H68c-3,0-5.5,2.5-5.5,5.5S65,161,68,161h20c3,0,5.5-2.5,5.5-5.5S91,150,88,150z"/>
		<path fill="#5980B7" d="M88,170H68c-3,0-5.5,2.5-5.5,5.5S65,181,68,181h20c3,0,5.5-2.5,5.5-5.5S91,170,88,170z"/>
		<path fill="#5980B7" d="M88,190H68c-3,0-5.5,2.5-5.5,5.5S65,201,68,201h20c3,0,5.5-2.5,5.5-5.5S91,190,88,190z"/>
		<path fill="#5980B7" d="M88,210H68c-3,0-5.5,2.5-5.5,5.5S65,221,68,221h20c3,0,5.5-2.5,5.5-5.5S91,210,88,210z"/>
		<path fill="#5980B7" d="M137,114h-11c-3,0-5.5,2.5-5.5,5.5s2.5,5.5,5.5,5.5h11c3,0,5.5-2.5,5.5-5.5S140,114,137,114z"/>
		<path fill="#5980B7" d="M172,114h-11c-3,0-5.5,2.5-5.5,5.5s2.5,5.5,5.5,5.5h11c3,0,5.5-2.5,5.5-5.5S175,114,172,114z"/>
		<path fill="#5980B7" d="M137,134h-11c-3,0-5.5,2.5-5.5,5.5s2.5,5.5,5.5,5.5h11c3,0,5.5-2.5,5.5-5.5S140,134,137,134z"/>
		<path fill="#5980B7" d="M172,134h-11c-3,0-5.5,2.5-5.5,5.5s2.5,5.5,5.5,5.5h11c3,0,5.5-2.5,5.5-5.5S175,134,172,134z"/>
		<path fill="#5980B7" d="M137,154h-11c-3,0-5.5,2.5-5.5,5.5s2.5,5.5,5.5,5.5h11c3,0,5.5-2.5,5.5-5.5S140,154,137,154z"/>
		<path fill="#5980B7" d="M172,154h-11c-3,0-5.5,2.5-5.5,5.5s2.5,5.5,5.5,5.5h11c3,0,5.5-2.5,5.5-5.5S175,154,172,154z"/>
		<path fill="#5980B7" d="M137,174h-11c-3,0-5.5,2.5-5.5,5.5s2.5,5.5,5.5,5.5h11c3,0,5.5-2.5,5.5-5.5S140,174,137,174z"/>
		<path fill="#5980B7" d="M172,174h-11c-3,0-5.5,2.5-5.5,5.5s2.5,5.5,5.5,5.5h11c3,0,5.5-2.5,5.5-5.5S175,174,172,174z"/>
		<polygon fill="#5980B7" points="155,58 144,58 144,67 136,67 136,78 144,78 144,86 155,86 155,78 164,78 164,67 155,67 		"/>
	</g>
</g>
</svg>
