<?xml version="1.0" encoding="utf-8"?>
<!-- Generator: Adobe Illustrator 18.1.1, SVG Export Plug-In . SVG Version: 6.00 Build 0)  -->
<svg version="1.1" id="Layer_1" xmlns="http://www.w3.org/2000/svg" xmlns:xlink="http://www.w3.org/1999/xlink" x="0px" y="0px"
	 viewBox="0 0 300 300" enable-background="new 0 0 300 300" xml:space="preserve">
<g>
	<polygon fill="none" points="115,221 144.5,221 144.6,215 115,215 	"/>
	<path fill="#FFFFFF" d="M111.5,142.7c-3,0-5.5,2.5-5.5,5.5v4.7h11v-4.7C117,145.2,114.5,142.7,111.5,142.7z"/>
	<polygon fill="#CCCCCC" points="59,229 59,235 144.4,235 144.4,229 	"/>
	<path fill="#FFFFFF" d="M86.8,162C71.5,162,59,174.2,59,189.5V206h85.7l0.1-14.8c-7.6-4.1-13.1-11.3-15.3-20.6
		c-1-2.8-1.6-5.6-1.8-8.6H86.8z"/>
	<path fill="#FFFFFF" d="M216.5,173.1c0,0-0.1,0-0.1,0c-2.4,0-4.4-1.9-4.5-4.4c0-0.1-0.2-5.8-1.8-12.8l-7.4,14l11.2,53.3l26.4-5.5
		L229,164.3l-9.9-8.8c1.5,6.9,1.7,12.3,1.7,12.9C220.9,170.9,218.9,173,216.5,173.1z"/>
	<path fill="#CCCCCC" d="M171.4,238.1c0,0.1,0,0.2,0.1,0.3l2.3-2c0,0,0.1-0.1,0.1-0.1c3.6-2.9,5.1-8.2,3.8-13.8l-4.3-20l-0.2,18.8
		c0,4.2-1.1,8.1-3,11.6L171.4,238.1z"/>
	<path fill="#FFFFFF" d="M159.4,136.8c-12.5,0-22.7,10.1-22.8,22.6c-0.1,9.5,5.6,18,14.4,21.4c1.7,0.7,2.9,2.4,2.9,4.2l-0.5,50
		c0,0.2,0,0.4,0.1,0.5l3.7-1.7c4.2-2.1,7.2-7.2,7.2-12.6l0.3-36c0-1.9,1.2-3.5,2.9-4.2c8.8-3.3,14.6-11.6,14.7-21.2
		c0.1-9.1-5.2-17.1-13-20.8c-2,3-3.2,6.5-4.1,10.1c1,1.3,1.6,2.9,1.4,4.7c-0.3,3.7-3.5,6.5-7.2,6.3s-6.5-3.5-6.3-7.2
		c0.2-2.3,1.4-4.2,3.2-5.3c0.9-4,2.2-7.6,3.8-10.8c-0.2,0-0.4,0-0.5,0L159.4,136.8z"/>
	<path fill="#CCCCCC" d="M90.7,95.9c0,0.3,0,1,0.5,1.5c0.3,0.3,0.8,0.4,1.3,0.3l15.7-5.7l-15.3,1.5l-1.3,0.9
		C90.9,94.9,90.7,95.6,90.7,95.9z"/>
	<path fill="#FFFFFF" d="M118.3,71.6c-0.3-0.1-0.6-0.1-0.8,0L76.9,81.9c-1,0.3-1.3,1.2-1.4,1.6c-0.1,0.3-0.3,1.4,0.5,2.1
		c0.3,0.3,0.6,0.4,0.9,0.4l33.3-3.3c4.6-0.5,9.3,0.7,13.2,3.2l24.9,13.5c1.7,0.9,2.6,2.9,2.3,4.8c-0.4,1.9-2,3.4-3.9,3.6l-33.4,3.7
		c-0.7,0.1-1.2,0.6-1.4,0.9c-0.2,0.3-0.6,1.1-0.2,2.1c0,0,0,0.1,0,0.1c0.2,0.5,0.6,0.9,1.1,1l56.2,9.8c0.3,0.1,0.7,0,1-0.2
		l25.5-15.7l-17.3-22.5L118.3,71.6z"/>
	<polygon fill="#CCCCCC" points="211.4,117.1 220.2,109.4 183.8,62.1 175,69.8 	"/>
	<g>
		<path fill="#5980B7" d="M161,242.1l-1.6,0.9h4.2c-0.3-1-0.5-1.3-0.7-1.9C162.3,241.5,161.7,241.7,161,242.1z"/>
		<path fill="#5980B7" d="M93,134.4c0.9,0,1.8-0.3,2.5-0.9c1.7-1.4,1.9-3.9,0.5-5.6l-7-8.5c-1.4-1.7-3.9-1.9-5.6-0.5
			c-1.7,1.4-1.9,3.9-0.5,5.6l7,8.5C90.7,133.9,91.8,134.4,93,134.4z"/>
		<path fill="#5980B7" d="M70.6,139.3c-0.6,2.1,0.6,4.3,2.7,5l11.5,3.5c0.4,0.1,0.8,0.2,1.2,0.2c1.7,0,3.3-1.1,3.8-2.8
			c0.6-2.1-0.6-4.3-2.7-5l-11.5-3.5C73.5,136,71.3,137.2,70.6,139.3z"/>
		<path fill="#5980B7" d="M250,220.3L237.5,161c-0.2-0.9-0.7-1.8-1.4-2.4l-21.3-19.1c-0.4-0.4-0.9-0.7-1.5-0.9
			c-4.1-7.8-10.6-14.6-20.5-16.7l8.3-5.1l6.6,8.5c0.7,0.9,1.7,1.4,2.8,1.5c0.1,0,0.3,0,0.4,0c1,0,1.9-0.3,2.6-1l14.9-13
			c1.6-1.4,1.8-3.8,0.5-5.5l-41.3-53.7c-0.7-0.9-1.7-1.4-2.8-1.5c-1.1-0.1-2.2,0.2-3,1l-14.9,13c-1.6,1.4-1.8,3.8-0.5,5.5l3,3.9
			l-48.7-12.7c-1.7-0.5-3.6-0.5-5.4-0.1L74.6,73.2c-3.8,1-6.9,4-7.9,8c-1,4,0.1,8.1,3,10.9c2.1,2,4.8,3,7.7,2.9c0.1,0,0.2,0,0.2,0
			l5.2-0.5c0,0.3-0.1,0.6-0.1,0.9c-0.2,3,0.8,5.9,3,7.9c1.7,1.6,4,2.6,6.4,2.6c1.1,0,2.2-0.2,3.2-0.6l26.8-9.8l9.4,5.1l-19.2,2.1
			c-3.3,0.3-6.2,2.2-8,5.1c-1.9,3-2.3,6.6-1.1,9.9c0,0,0,0.1,0,0.1c1.3,3.6,4.4,6.2,8.1,6.9l34.9,6.1c-8.9,4.1-15.6,12.3-17.8,22.1
			c0,0.1,0,0.2,0,0.2H126v-4.7c0-8-6.5-14.5-14.5-14.5S97,140.3,97,148.3v4.7h-0.4h-9.8C66.6,153,50,169.2,50,189.5v20.8
			c0,2.5,2.1,4.8,4.6,4.8H106v6H54.6c-2.2,0-3.6,1.6-3.6,3.8v13.8c0,2.2,1.4,4.3,3.6,4.3h93.2c-0.2,0-0.4-0.5-0.7-0.7
			c-1.8-1.9-2.8-4.5-2.8-7.2l0-0.1c0,2.7,1,5.2,2.8,7c0.2,0.2,0.4,0.4,0.7,0.6c1.6,1.3,3.5,2,5.5,2c0,0,0,0,0,0
			c1.3,0,2.5-0.3,3.7-0.8l2.5-1.2l1.6-0.8c0.6-0.3,1.3-0.7,1.9-1.1c0.2,0.6,0.4,1.2,0.7,1.8c1.6,3.1,4.5,5.1,7.8,5.1
			c1.9,0,3.6-0.6,5.1-1.8c0,0,0.1-0.1,0.1-0.1l2.9-2.6c6.2-5,8.8-13.7,6.9-22.7l-6.9-32.3c9.4-7.3,13.8-19.1,11.5-31
			c-0.5-7.5-3.7-14.5-9.1-20c-1.8-1.8-3.8-3.4-6-4.8c3-1.6,6.8-2.5,11.4-2.2c9.1,0.5,14.8,6.7,18.3,14l-12.1,22.9
			c-0.5,0.9-0.6,2-0.4,3l12.4,59.3c0.4,2.1,2.3,3.6,4.4,3.6c0.3,0,0.6,0,0.9-0.1l35.3-7.3c1.2-0.2,2.2-0.9,2.9-1.9
			C250,222.7,250.2,221.5,250,220.3z M183.8,62.1l36.4,47.3l-8.8,7.7L175,69.8L183.8,62.1z M92.5,97.7c-0.5,0.2-0.9,0.1-1.3-0.3
			c-0.5-0.5-0.5-1.2-0.5-1.5c0-0.3,0.2-1.1,0.8-1.5l1.3-0.9l15.3-1.5L92.5,97.7z M112.8,115.7c-0.5-0.1-1-0.5-1.1-1c0,0,0-0.1,0-0.1
			c-0.4-1,0-1.8,0.2-2.1c0.2-0.3,0.6-0.8,1.4-0.9l33.4-3.7c2-0.2,3.5-1.7,3.9-3.6c0.4-1.9-0.5-3.9-2.3-4.8l-24.9-13.5
			c-3.9-2.5-8.6-3.7-13.2-3.2L76.9,86c-0.3,0-0.7-0.1-0.9-0.4c-0.8-0.8-0.6-1.8-0.5-2.1c0.1-0.4,0.4-1.3,1.4-1.6l40.6-10.4
			c0.2-0.1,0.5-0.1,0.8,0l60,15.6l17.3,22.5l-25.5,15.7c-0.3,0.2-0.7,0.3-1,0.2L112.8,115.7z M106,148.3c0-3,2.5-5.5,5.5-5.5
			s5.5,2.5,5.5,5.5v4.7h-0.4H106V148.3z M144,234.9C144,235,144,235,144,234.9L59,235v-6h85.4l-0.2,5.7L144,234.9z M145,221h-30v-6
			h29.6l0.4,5.8V221z M144.7,205.7l0,0.3H59v-16.5c0-15.3,12.5-27.5,27.8-27.5h40.9c-0.1-1-0.1-1.7-0.1-2.5c0,0,0,0,0-0.1
			c0,0.8,0,1.6,0.1,2.4c0.2,3,0.8,5.9,1.8,8.6c2.1,9.3,7.6,16.5,15.3,20.7L144.7,205.7z M173.9,236.3c0,0-0.1,0.1-0.1,0.1l-2.3,2
			c0-0.1-0.1-0.2-0.1-0.3l-1.1-5.3c1.9-3.4,3-7.4,3-11.6l0.2-18.8l4.3,20C179,228.1,177.5,233.4,173.9,236.3z M182.3,159.8
			c-0.1,9.6-5.9,17.9-14.7,21.2c-1.7,0.6-2.9,2.3-2.9,4.2l-0.3,36c-0.1,5.5-3,10.6-7.2,12.6l-3.7,1.7c0-0.1-0.1-0.3-0.1-0.5l0.5-50
			c0-1.9-1.1-3.5-2.9-4.2c-8.8-3.5-14.5-11.9-14.4-21.4c0.1-12.5,10.4-22.6,22.8-22.6l0.2,0c0.2,0,0.4,0,0.5,0
			c-1.6,3.2-2.9,6.7-3.8,10.8c-1.8,1.1-3,3-3.2,5.3c-0.3,3.7,2.6,7,6.3,7.2s7-2.6,7.2-6.3c0.1-1.7-0.4-3.4-1.4-4.7
			c0.8-3.6,2.1-7.1,4.1-10.1C177.1,142.7,182.4,150.7,182.3,159.8z M213.8,223.2l-11.2-53.3l7.4-14c1.6,6.9,1.8,12.6,1.8,12.8
			c0.1,2.4,2.1,4.4,4.5,4.4c0,0,0.1,0,0.1,0c2.5-0.1,4.4-2.1,4.4-4.6c0-0.6-0.2-6-1.7-12.9l9.9,8.8l11.2,53.4L213.8,223.2z"/>
	</g>
</g>
</svg>
