<?xml version="1.0" encoding="utf-8"?>
<!-- Generator: Adobe Illustrator 18.1.1, SVG Export Plug-In . SVG Version: 6.00 Build 0)  -->
<svg version="1.1" id="Layer_1" xmlns="http://www.w3.org/2000/svg" xmlns:xlink="http://www.w3.org/1999/xlink" x="0px" y="0px"
	 viewBox="0 0 300 300" enable-background="new 0 0 300 300" xml:space="preserve">
<g>
	<path fill="#FFFFFF" d="M128,94.1c0-2.3-0.5-3.8-2-4.9c-1.7-1.4-3.9-2-6.7-2c-3.1,0-5.8,0.7-7.8,2.3c-1,0.8-2.4,2.3-2.4,6.1
		c0,0,0,0.1,0,0.1c0,5.1,0.2,12,0.3,21.1c0.1,8.9,0.2,14.9,0.2,17.9l-0.3,52.4c0,2,0,5.1-0.1,9.2c-0.1,4.1-0.1,6.9-0.1,8.3
		c0,0,0,0.1,0,0.1c-0.1,3.6,1.2,5.1,2.2,5.9c1.8,1.5,4.3,2.3,7.5,2.3c3.1,0,5.5-0.7,7.4-2.2c1-0.8,2.2-2.2,2.2-5.8l-0.3-34.3V94.1z"
		/>
	<path fill="#5A81B8" d="M136,94.1c0-4.8-1.6-8.7-5-11.4c-3.2-2.5-7.1-3.8-11.8-3.8c-4.9,0-9.1,1.3-12.6,4c-2.6,2-5.7,5.9-5.5,12.9
		c0,5.2,0,12.1,0.1,21.1c0.1,8.9,0.1,14.8,0.1,17.8l-0.4,52.4c0,1.9,0,5-0.1,9.1c-0.1,4.1-0.1,6.9-0.1,8.4
		c-0.2,6.6,2.7,10.5,5.2,12.5c3.3,2.8,7.6,4.2,12.8,4.2c4.9,0,9.1-1.3,12.5-3.9c2.5-1.9,5.3-5.7,5.3-12.4l-0.4-34.3V94.1z
		 M126.1,210.7c-1.9,1.4-4.3,2.2-7.4,2.2c-3.2,0-5.6-0.7-7.5-2.3c-1-0.8-2.3-2.3-2.2-5.9c0,0,0-0.1,0-0.1c0-1.4,0-4.2,0.1-8.3
		c0.1-4.1,0.1-7.2,0.1-9.2l0.4-52.4c0-3,0-8.9-0.1-17.9c-0.1-9.1-0.1-16-0.1-21.1c0,0,0-0.1,0-0.1c-0.1-3.9,1.2-5.3,2.3-6.1
		c2-1.5,4.5-2.3,7.6-2.3c2.8,0,4.9,0.7,6.7,2c1.5,1.2,2,2.7,2,4.9v76.6l0.3,34.3C128.3,208.5,127.1,210,126.1,210.7z"/>
	<path fill="#CDCCCC" d="M174.9,136.2c2.2,0,4-0.7,5.6-2.3c1.6-1.6,2.3-3.3,2.3-5.6c0-2.2-0.7-4-2.3-5.6c-1.6-1.6-3.3-2.3-5.6-2.3
		c-2.2,0-4,0.7-5.6,2.3c-1.6,1.6-2.3,3.4-2.3,5.6c0,2.2,0.7,3.9,2.3,5.5C171,135.5,172.7,136.2,174.9,136.2z"/>
	<path fill="#CDCCCC" d="M181,200.5V152h-24v8h6.8c2.2,0,3.2,1.4,3.2,3.6v36.8c0,2.2-1,4.5-3.2,4.5H157v7h34v-7h-5.4
		C183.3,205,181,202.7,181,200.5z"/>
	<path fill="#5A81B8" d="M195.7,197H189v-49.1c0-2.2-1.2-3.9-3.4-3.9h-7.2c2.9-1,5.6-2.1,7.8-4.4c3.1-3.1,4.7-6.9,4.7-11.3
		c0-4.4-1.6-8.2-4.6-11.3c-3.1-3.1-6.9-4.7-11.3-4.7c-4.4,0-8.2,1.6-11.3,4.7c-3.1,3.1-4.7,6.9-4.7,11.3c0,4.3,1.6,8.2,4.7,11.3
		c2.3,2.3,4.9,3.4,7.8,4.4h-18.1c-2.2,0-4.4,1.7-4.4,3.9v15.7c0,2.2,2.2,4.4,4.4,4.4h5.6v29h-5.6c-2.2,0-4.4,1.3-4.4,3.5v15.7
		c0,2.2,2.2,3.8,4.4,3.8h42.3c2.2,0,3.3-1.6,3.3-3.8v-15.7C199,198.3,197.9,197,195.7,197z M191,212h-34v-7h6.8
		c2.2,0,3.2-2.3,3.2-4.5v-36.8c0-2.2-1-3.6-3.2-3.6H157v-8h24v48.5c0,2.2,2.3,4.5,4.6,4.5h5.4V212z M169.3,122.7
		c1.6-1.6,3.4-2.3,5.6-2.3c2.3,0,4,0.7,5.6,2.3c1.6,1.6,2.3,3.4,2.3,5.6c0,2.2-0.7,4-2.3,5.6c-1.6,1.6-3.4,2.3-5.6,2.3
		c-2.2,0-4-0.7-5.6-2.3c-1.6-1.6-2.3-3.4-2.3-5.5C167,126.1,167.7,124.3,169.3,122.7z"/>
</g>
</svg>
