<?xml version="1.0" encoding="utf-8"?>
<!-- Generator: Adobe Illustrator 18.1.1, SVG Export Plug-In . SVG Version: 6.00 Build 0)  -->
<svg version="1.1" id="Layer_1" xmlns="http://www.w3.org/2000/svg" xmlns:xlink="http://www.w3.org/1999/xlink" x="0px" y="0px"
	 viewBox="0 0 300 300" enable-background="new 0 0 300 300" xml:space="preserve">
<g>
	<polygon fill="none" points="68.2,132 82.2,132 75.2,120.4 	"/>
	<polygon fill="none" points="75.2,106.6 82.2,95 68.2,95 	"/>
	<polygon fill="none" points="102.9,74.3 94.6,88 111.2,88 	"/>
	<polygon fill="none" points="99,146.3 109.5,139 94.6,139 	"/>
	<polygon fill="none" points="123.6,95 126.1,99.1 136.2,95 	"/>
	<path fill="none" d="M109.9,109.3c-0.8-2,0.1-4.4,2.2-5.2l7.4-2.6l-4.1-6.4h-25l-11.1,18.5L90.4,132h25l0.6-2.1v-18.8l-0.9,0.4
		C113.1,112.3,110.8,111.3,109.9,109.3z"/>
	<path fill="#FFFFFF" d="M210.1,78.9c-3.3-1.1-6.8-1.7-10.3-1.7c-10.7,0-20.6,5.3-26.6,14c-1.5,2.2-2.7,4.5-3.6,6.9l14.8,6.1
		c0.5-4.5,2.2-8.9,4.8-12.8C194,84.3,201.7,79.8,210.1,78.9z"/>
	<path fill="#FFFFFF" d="M185.1,136.2l6.8,4.3c2.5,0.6,5.1,1,7.8,1c6.3,0,12.3-1.8,17.4-5.1c-1.3,0.2-2.7,0.3-4,0.3
		c-5.8,0-11.5-1.7-16.3-5c-6.4-4.4-10.7-11-12.2-18.6c0-0.2,0-0.3-0.1-0.5c-0.5,0-1-0.1-1.5-0.3l-2.1-0.9v22L185.1,136.2z"/>
	<path fill="#CDCCCC" d="M222,229.6c-1.7-0.1-3.4-0.1-5.1-0.1c-11.6,0-19.9,2.5-25.6,5.5h34.6L222,229.6z"/>
	<path fill="#CDCCCC" d="M165,235c-5.6-3-13.9-5.6-25.5-5.6c-2.5,0-5,0.3-7.7,0.5L129,235H165z"/>
	<path fill="#FFFFFF" d="M114.3,169H113c-1.5,0-3,0.9-3,2.5V190h7v-18.5C117,169.9,115.8,169,114.3,169z"/>
	<path fill="#FFFFFF" d="M188.5,169h-1.3c-1.5,0-3.2,0.9-3.2,2.5V190h7v-18.5C191,169.9,190,169,188.5,169z"/>
	<path fill="#FFFFFF" d="M180.7,142.9l-6.1-3.9c-1.6-1-2.6-3.1-1.6-4.8v-24.7l-23-10.7l-1.9-0.8l-7.3,3l-16.8,8.5v26.2
		c0,1.3-0.6,2.5-1.7,3.3L92,159.8V217h31l10-15.8v-23.1c0-9.1,7.1-16.2,16.2-16.2h2.7c9.1,0,16.1,7.1,16.1,16.2v22.6
		c5,2.2,8,4.8,10.1,7.6c5.7-7.2,16.9-10.9,27.9-12.3v-36.3L180.7,142.9z M124,192.9c0,1.9-1.5,4.1-3.4,4.1h-13.9
		c-1.9,0-3.7-2.1-3.7-4.1v-21.4c0-5.4,4.6-9.5,10-9.5h1.3c5.4,0,9.7,4.1,9.7,9.5V192.9z M148.1,146.2c-8.9,0-16.1-7.2-16.1-16.1
		c0-8.9,7.2-16.1,16.1-16.1s16.1,7.2,16.1,16.1C164.2,139,157,146.2,148.1,146.2z M194.8,197h-13.9c-1.9,0-3.9-2.1-3.9-4.1v-21.4
		c0-5.4,4.8-9.5,10.2-9.5h1.3c5.4,0,9.5,4.1,9.5,9.5v21.4C198,194.9,196.7,197,194.8,197z"/>
	<path fill="#FFFFFF" d="M148.1,121c-5,0-9.1,4.1-9.1,9.1c0,5,4.1,9.1,9.1,9.1c5,0,9.1-4.1,9.1-9.1C157.2,125.1,153.2,121,148.1,121
		z"/>
	<path fill="#CDCCCC" d="M151.9,169h-2.7c-5.2,0-9.2,3.9-9.2,9.2v17.3c3,0,12,0.3,21,2.8v-20.1C161,172.9,157.1,169,151.9,169z"/>
	<path fill="#FFFFFF" d="M140.8,203.5l-11.6,18.2c3.5-0.4,6.9-0.6,10.2-0.6c17.1,0,28.6,5.1,34.6,9.5V220
		C174,205,147.3,203.6,140.8,203.5z"/>
	<path fill="#FFFFFF" d="M182,220.1v10.6c7-4.4,17.7-9.5,34.8-9.5c3.3,0,6.8,0.2,10.3,0.6l-11.7-18.2
		C208.9,203.6,183,205.1,182,220.1z"/>
	<g>
		<polygon fill="#5A81B8" points="111.2,88 94.6,88 90.4,95 115.4,95 		"/>
		<path fill="#5A81B8" d="M148.1,146.2c8.9,0,16.1-7.2,16.1-16.1c0-8.9-7.2-16.1-16.1-16.1s-16.1,7.2-16.1,16.1
			C132.1,139,139.3,146.2,148.1,146.2z M148.1,121c5,0,9.1,4.1,9.1,9.1c0,5-4.1,9.1-9.1,9.1c-5,0-9.1-4.1-9.1-9.1
			C139.1,125.1,143.1,121,148.1,121z"/>
		<path fill="#5A81B8" d="M194.8,197c1.9,0,3.2-2.1,3.2-4.1v-21.4c0-5.4-4.1-9.5-9.5-9.5h-1.3c-5.4,0-10.2,4.1-10.2,9.5v21.4
			c0,1.9,2,4.1,3.9,4.1H194.8z M184,171.5c0-1.5,1.6-2.5,3.2-2.5h1.3c1.5,0,2.5,0.9,2.5,2.5V190h-7V171.5z"/>
		<path fill="#5A81B8" d="M114.3,162H113c-5.4,0-10,4.1-10,9.5v21.4c0,1.9,1.7,4.1,3.7,4.1h13.9c1.9,0,3.4-2.1,3.4-4.1v-21.4
			C124,166.1,119.7,162,114.3,162z M117,190h-7v-18.5c0-1.5,1.4-2.5,3-2.5h1.3c1.5,0,2.7,0.9,2.7,2.5V190z"/>
		<polygon fill="#5A81B8" points="226.1,103 216.5,103 224.3,108.1 221.3,116.8 229,111.1 236.8,116.8 233.8,108.1 241.5,103 
			232,103 229,93.9 		"/>
	</g>
	<path fill="#5A81B8" d="M235.3,231c2.2,0,4-1.8,4-4c0-0.9-0.3-1.8-0.8-2.5L221,197.3c-0.7-1.1-1.9-1.8-3.2-1.8c0,0-0.5,0-1.2,0
		c-0.8,0-1.5,0-2.5,0v-31.3l7,4.4c0.7,0.4,1.4,0.6,2.2,0.6c1.3,0,2.6-0.7,3.4-1.8c1.2-1.9,0.6-4.3-1.2-5.5L204,148.3
		c11.3-1.2,21.6-7.3,28.1-16.8c1-1.4,1.9-3,2.7-4.6c0.8-1.6,0.3-3.4-1.1-4.4c-1.4-1-3.4-0.8-4.5,0.5c-4.1,4.4-10,6.9-16,6.9
		c-4.4,0-8.7-1.3-12.4-3.8c-4.9-3.3-8.1-8.3-9.2-14.1s0.1-11.6,3.4-16.5c4.1-6,10.9-9.6,18.2-9.6c4.2,0,8.3,1.2,11.9,3.5
		c0.6,0.4,1.3,0.6,1.9,0.6c1.9,0,3.5-1.6,3.5-3.5c0-1-0.4-1.9-1.1-2.5c-2.2-2.6-4.8-4.8-7.6-6.7c-6.5-4.5-14.1-6.8-22-6.8
		c-13,0-25.1,6.4-32.4,17.1c-1.8,2.6-3.2,5.3-4.3,8.2l-10.1-4l-1.1-0.4V91V75h0.4h9.6v-8h-9.6H152V57h-8v10h-0.2H134v8h9.8h0.2v12.2
		V88h-18.7h-5.7l-0.2-0.5l-13.5-22.4c-0.6-1-1.8-1.8-3-1.8s-2.4,0.6-3,1.7L86.4,87.5L86.3,88h-7H62c-1.3,0-2.4,0.3-3,1.4
		c-0.6,1.1-0.6,2.3,0.1,3.3l12.1,20l-12.1,20c-0.7,1.1-0.7,2.9-0.1,4c0.6,1.1,1.8,2.2,3,2.2h24.5l6.7,10.6l-7.3,4.9
		c-1.1,0.7-1.8,1.9-1.8,3.2v62.8c0,2.2,1.9,4.5,4.1,4.5h29.8l5.1-8H92v-57.2l30.3-20.9c1.1-0.7,1.7-2,1.7-3.3v-26.2l16.8-8.5l7.3-3
		l1.9,0.8l23,10.7v24.7c-1,1.7,0,3.8,1.6,4.8l6.1,3.9l25.3,16.9v36.3c-11,1.4-22.1,5.1-27.8,12.3c-2.1-2.8-5.3-5.4-9.9-7.6
		c-0.1,0-0.3-0.1-0.3-0.1v-22.5c0-9.1-7-16.2-16.1-16.2h-2.7c-9.1,0-16.2,7.1-16.2,16.2v22.5l-0.3,0.5l-9.7,15.3l-5.1,8l-0.2,0.3
		c-0.9,1.3-0.8,3.1,0.1,4.4c0.9,1.3,2.5,2,4.1,1.7c0.4-0.1,0.8-0.1,1.3-0.2l-3.2,5.6c-0.6,1.1-0.6,2.7,0,3.7c0.6,1.1,1.8,2,3,2h51.6
		c0.2,0,0.3,0.1,0.3,0.1c0,0,0-0.1,0.1-0.1c0.2,0.2,0.3,0.3,0.5,0.5c0,0,0.1,0.1,0.1,0.1c0.2,0.2,0.4,0.3,0.7,0.4c0,0,0.1,0,0.1,0
		c0.1,0.1,0.3,0.1,0.4,0.2c0.1,0,0.2,0,0.2,0.1c0.1,0,0.1,0,0.2,0.1c0.3,0.1,0.5,0.1,0.8,0.1c0,0,0,0,0,0s0,0,0,0c0.1,0,0.3,0,0.4,0
		c0.1,0,0.3,0,0.4-0.1c0.1,0,0.1,0,0.2-0.1c0.1,0,0.2,0,0.2-0.1c0.2-0.1,0.3-0.1,0.4-0.2c0,0,0.1,0,0.1,0c0.2-0.1,0.5-0.3,0.7-0.4
		c0.1,0,0.1-0.1,0.1-0.1c0.2-0.2,0.4-0.3,0.5-0.6c0,0,0,0.2,0,0.2c0,0,0.1-0.1,0.3-0.1H233c1.3,0,2.5-1,3.1-2.2
		c0.6-1.2,0.5-2.7-0.4-3.8l-4.2-5.5c1,0.2,1.9,0.3,2.9,0.5C234.8,231,235,231,235.3,231z M94.6,87.5l8.3-13.9l8.3,13.9l0.2,0.4H94.5
		L94.6,87.5z M68.2,95h11.1H82l-6.9,11.1l0,0.2L68.2,95z M68.2,132l7-11.9l7,11.9H68.2z M99,145.5l-0.2,0.2l-4.2-6.8h14.2L99,145.5z
		 M109.9,109.3c0.8,2,3.1,3,5.2,2.2l0.9-0.4v18.8l-0.6,2.1h-25l-11.1-18.8v0.1l11-18.4h25.3l4,6.3l-7.4,2.9
		C110.1,105,109.1,107.3,109.9,109.3z M126.1,98.6l0,0.1l-2.3-3.7h1.5h10.3L126.1,98.6z M169.6,98.2c0.9-2.4,2.1-4.7,3.6-6.9
		c6-8.8,15.9-14,26.6-14c3.5,0,7,0.6,10.3,1.7c-8.4,0.9-16,5.4-20.9,12.5c-2.7,3.9-4.3,8.3-4.8,12.8L169.6,98.2z M192,140.6
		l-6.9-4.3l-4.1-2.7v-22l2.1,0.9c0.5,0.2,1,0.3,1.5,0.3c0,0.2,0.1,0.3,0.1,0.5c1.4,7.6,5.8,14.2,12.2,18.6c4.8,3.3,10.5,5,16.3,5
		c1.3,0,2.7-0.1,4-0.3c-5.1,3.3-11.1,5.1-17.4,5.1C197.1,141.5,194.5,141.2,192,140.6z M167.3,200.3c-0.5-0.2-1.1-0.5-1.7-0.7
		C166.2,199.9,166.8,200.1,167.3,200.3z M161.9,198.4c-0.1,0-0.3-0.1-0.4-0.1C161.7,198.3,161.8,198.4,161.9,198.4z M140,196v-17.8
		c0-5.2,4-9.2,9.2-9.2h2.7c5.2,0,9.1,3.9,9.1,9.2v20c-9-2.4-17.7-2.2-21.3-2.2C139.8,196,140,196,140,196z M138.6,195.5
		c0,0,0.2,0,0.6,0C138.9,195.5,138.7,195.5,138.6,195.5C138.6,195.5,138.6,195.5,138.6,195.5z M129,235l2.8-5.2
		c2.6-0.2,5.2-0.3,7.7-0.3c11.6,0,19.9,2.5,25.5,5.5H129z M174,230.6c-6-4.4-17.5-9.5-34.6-9.5c-3.3,0-6.7,0.2-10.3,0.6l11.6-18.2
		c6.5,0.1,33.2,1.6,33.2,16.5V230.6z M191.3,235c5.7-3,14-5.6,25.6-5.6c1.7,0,3.4,0.2,5.1,0.3l4,5.3H191.3z M216.8,221.1
		c-17.1,0-27.8,5.1-34.8,9.5v-10.6c1-15,26.9-16.5,33.4-16.6l11.7,18.2C223.6,221.3,220.1,221.1,216.8,221.1z"/>
</g>
</svg>
