<?xml version="1.0" encoding="utf-8"?>
<!-- Generator: Adobe Illustrator 18.1.1, SVG Export Plug-In . SVG Version: 6.00 Build 0)  -->
<svg version="1.1" id="Layer_1" xmlns="http://www.w3.org/2000/svg" xmlns:xlink="http://www.w3.org/1999/xlink" x="0px" y="0px"
	 viewBox="0 0 300 300" enable-background="new 0 0 300 300" xml:space="preserve">
<g>
	<rect x="180" y="115" fill="none" width="25" height="16"/>
	<rect x="150" y="142" fill="none" width="35" height="15"/>
	<rect x="196" y="142" fill="none" width="35" height="15"/>
	<path fill="none" d="M238.7,168c-0.8,1-1.7,1-2.7,1h-91.6c-1,0-1.9,0-2.7-1h-13.3c-0.4,0-0.9,0.2-1.3,0.2c-0.5,0-0.9-0.2-1.3-0.2
		H96c-2,0-3.8-1-4.8-2.7l-5.4-9.3H46.5l4.3,12h21.8c3,0,5.5,2.5,5.5,5.5s-2.5,5.5-5.5,5.5H54.8l4.6,13c0.1,0.4,0.2,0.9,0.3,1.3
		c0.6,0.7,1.1,1.6,1.3,2.5c0.3,1.4,3.6,14,17.8,14c15,0,19.7-14.3,19.7-14.4c0.7-2.3,2.8-3.8,5.2-3.8c0,0,0.1,0,0.1,0
		c2.5,0.1,4.6,1.7,5.2,4.1c0.2,0.6,4,14.2,16.9,14.2c13.3,0,18.3-14.4,18.3-14.5c0.8-2.3,2.9-3.8,5.3-3.8c2.4,0,4.5,1.7,5.2,4
		c0.2,0.6,4.4,14.3,19,14.3c14.1,0,17.4-12.6,17.8-14c0.6-2.4,2.7-4.2,5.2-4.2c2.5-0.1,4.7,1.6,5.4,4c0.2,0.5,4.2,13.6,16.2,13.6
		c8.4,0,14.4-6.3,17.5-10.6l13.9-30.5H238.7z M163.9,187.7c-3.1,0-5.7-2.5-5.7-5.7s2.5-5.7,5.7-5.7s5.7,2.5,5.7,5.7
		S167,187.7,163.9,187.7z M184.4,187.7c-3.1,0-5.7-2.5-5.7-5.7s2.5-5.7,5.7-5.7s5.7,2.5,5.7,5.7S187.5,187.7,184.4,187.7z
		 M203.8,187.7c-3.1,0-5.7-2.5-5.7-5.7s2.5-5.7,5.7-5.7s5.7,2.5,5.7,5.7S206.9,187.7,203.8,187.7z"/>
	<rect x="216" y="115" fill="#CCCCCC" width="15" height="16"/>
	<rect x="150" y="115" fill="#CCCCCC" width="19" height="16"/>
	<path fill="#FFFFFF" d="M56,103v12h26.6c3,0,5.5,2.5,5.5,5.5s-2.5,5.5-5.5,5.5H56v19h33.1c2,0,3.8,1,4.8,2.7l5.4,9.3h19.4L95,103
		H56z"/>
	<path fill="#CCCCCC" d="M104,89.9c0-0.5-0.4-0.9-0.9-0.9H47.9c-0.5,0-0.9,0.4-0.9,0.9v1.1c0,0.5,0.4,0.9,0.9,0.9h55.1
		c0.5,0,0.9-0.4,0.9-0.9V89.9z"/>
	<g>
		<circle fill="#5980B7" cx="163.9" cy="182.1" r="5.7"/>
		<circle fill="#5980B7" cx="184.4" cy="182.1" r="5.7"/>
		<circle fill="#5980B7" cx="203.8" cy="182.1" r="5.7"/>
		<path fill="#5980B7" d="M282,211.1c-1.2-2.8-4.4-4.1-7.2-3c-6.1,2.6-11.4,2.8-15.7,0.7c-6.1-3-9.2-10-10.1-12.5l14.4-31.4
			c0.8-1.7,0.6-3.8-0.4-5.4c-1-1.6-2.8-2.7-4.6-2.7H242v-17.7c-1,1.8-3,3-5.2,3c2.1,0,3.9-1.2,4.8-3c0.4-0.7,0.6-1.6,0.6-2.5
			s-0.2-1.7-0.6-2.5c-0.9-1.8-2.6-3-4.7-3c2.1,0,4.2,1.2,5.2,3v-24.6c0-3-2.9-5.7-6-5.7h-91.6c-3,0-5.4,2.6-5.4,5.7V157h-8.4
			l-23.9-54.6c0,0,0.2,0.1,0.2,0.1c4.6-1.7,8.1-6,8.1-11.2v-1.2c0-6.6-5.8-12.2-12.4-12.2H47.8C41.3,78,36,83.6,36,90.2v1.2
			c0,5.5,3.8,10.1,8.9,11.5c0,0,0.1,0,0.1,0V145h-6.3c-1.8,0-3.5,1-4.5,2.5c-1,1.5-1.3,3.4-0.7,5.1L49,195.8
			c0.2,0.4,0.4,0.8,0.6,1.2c-7.4,16.4-22.9,11.7-24.7,11.1c-2.9-1-6,0.5-7,3.4c-1,2.9,0.5,6,3.4,7c8.1,2.8,23.8,3.6,33.9-9.4
			c4.5,6.1,12,11.8,23.5,11.8c11.7,0,19.7-5.8,24.7-12c4.4,6.2,11.8,12,22.6,12c11.6,0,19-6.3,23.4-12.2
			c4.8,6.3,12.7,12.2,24.4,12.2c11.4,0,18.8-5.5,23.3-11.6c4.4,5.8,11.4,11,21.3,11c10.8,0,18.7-6,23.6-11.6
			c0.2-0.1,0.4-0.2,0.6-0.3c2.5,3.9,6.3,8,11.6,10.6c3.5,1.7,7.2,2.5,11.1,2.5c4.3,0,8.8-1,13.6-3
			C281.8,217.2,283.1,213.9,282,211.1z M185,142v15h-35v-15h-0.1H185z M196,157v-15h34.5h0.5v15H196z M231,131h-0.5H216v-16h15V131z
			 M205,131h-25v-16h25V131z M150,115h19v16h-19.1h0.1V115z M104,91.1c0,0.5-0.4,0.9-0.9,0.9H47.9c-0.5,0-0.9-0.4-0.9-0.9v-1.1
			c0-0.5,0.4-0.9,0.9-0.9h55.1c0.5,0,0.9,0.4,0.9,0.9V91.1z M56,126h26.6c3,0,5.5-2.5,5.5-5.5s-2.5-5.5-5.5-5.5H56v-12h39l23.6,54
			H99.2l-5.4-9.3c-1-1.7-2.8-2.7-4.8-2.7H56V126z M218.4,209.1c-12,0-16-13.1-16.2-13.6c-0.7-2.4-2.9-4-5.4-4
			c-2.5,0.1-4.7,1.8-5.2,4.2c-0.3,1.4-3.7,14-17.8,14c-14.6,0-18.8-13.7-19-14.3c-0.7-2.3-2.8-3.9-5.2-4c-2.4,0-4.6,1.5-5.3,3.8
			c0,0.1-5,14.5-18.3,14.5c-12.9,0-16.8-13.6-16.9-14.2c-0.6-2.4-2.7-4-5.2-4.1c0,0-0.1,0-0.1,0c-2.4,0-4.5,1.6-5.2,3.8
			c0,0.1-4.7,14.4-19.7,14.4c-14.2,0-17.5-12.5-17.8-13.9c-0.2-1-0.7-1.8-1.3-2.5c0-0.4-0.1-0.9-0.3-1.3l-4.6-13h17.9
			c3,0,5.5-2.5,5.5-5.5s-2.5-5.5-5.5-5.5H50.8l-4.3-12h39.3l5.4,9.3c1,1.7,2.8,2.7,4.8,2.7h29.7c0.4,0,0.9,0.2,1.3,0.2
			c0.4,0,0.9-0.2,1.3-0.2h12.9c0.1,0,0.1,0.1,0.2,0.1c0.8,0.5,1.9,0.9,2.9,0.9H236c1,0,2-0.4,2.8-0.9c0.1,0,0.1-0.1,0.2-0.1h10.8
			l-13.9,30.5C232.8,202.8,226.8,209.1,218.4,209.1z"/>
	</g>
</g>
</svg>
