<?xml version="1.0" encoding="utf-8"?>
<!-- Generator: Adobe Illustrator 18.1.1, SVG Export Plug-In . SVG Version: 6.00 Build 0)  -->
<svg version="1.1" id="Layer_1" xmlns="http://www.w3.org/2000/svg" xmlns:xlink="http://www.w3.org/1999/xlink" x="0px" y="0px"
	 viewBox="0 0 300 300" enable-background="new 0 0 300 300" xml:space="preserve">
<g>
	<path fill="#FFFFFF" d="M226.5,92l-1.3,41.1c4.3-2.6,8.6-3.8,12.5-4.3L236.6,92H226.5z"/>
	<path fill="#FFFFFF" d="M238.3,213h2l-0.1-2.3C239.6,211.5,238.9,213,238.3,213z"/>
	<polygon fill="#FFFFFF" points="227,74 222,74 222,81 241,81 241,74 236,74 	"/>
	<path fill="#CCCCCC" d="M189.3,147c2.2,0,4.2,0.1,5.9,0.4l-1.1-30.4h-10.1l-1.2,30.6c2-0.5,4.2-0.6,6.5-0.6
		C189.2,147,189.3,147,189.3,147z"/>
	<rect x="180" y="100" fill="#CCCCCC" width="18" height="6"/>
	<rect x="88" y="193" fill="#FFFFFF" width="62" height="20"/>
	<path fill="#FFFFFF" d="M56,180.9v32c1-0.2,2.8,0.1,4.3,0.1H77v-64.6C64.6,154,56,166.5,56,180.9z"/>
	<path fill="#FFFFFF" d="M150,145.8c-1.7-0.3-3.4,0-5.1-0.1c-0.3,14.3-12,26.3-26.4,26.3H117c-14.4,0-26.1-12-26.4-26.3
		c-0.9,0-1.8-0.4-2.7-0.3V182h62V145.8z"/>
	<path fill="#FFFFFF" d="M166.1,181.3c-1.6-10.7-0.5-19.1,3.5-25.2c-2.5-2.6-5.4-4.7-8.6-6.5V213h19v-4.8
		C175,202.5,167.7,192.2,166.1,181.3z"/>
	<path fill="#FFFFFF" d="M117,161h1.5c8.5,0,15.5-7.8,15.5-16.3v-2.2c-5,1.7-9.7,3.4-14.9,3.4h-2.6c-5.2,0-10.5-1.7-14.5-3.4v2.2
		C102,153.2,108.6,161,117,161z"/>
	<path fill="#CCCCCC" d="M248.3,139.8c-1.6-0.4-3.6-0.7-5.9-0.7c-6.4,0-12.1,2.6-17,7.7c1.9-0.7,3.9-1.1,6.2-1.1
		c3.2,0,6.4,0.8,9.7,2.5c0.4,0.2,0.8,0.4,1.2,0.6C245,146.5,246.9,143.5,248.3,139.8z"/>
	<path fill="#FFFFFF" d="M245.8,175.5c0.9-8.1-2.1-13.7-9.4-17.4c-1.8-0.9-3.4-1.4-4.8-1.4c-2.7,0-5.1,1.6-7.9,3.4
		c-3.4,2.2-7.1,4.7-12.1,4.7c-5.9,0-9.1-2.4-11.6-4.2c-2.4-1.8-4.4-3.3-10.6-3.3c-4.5,0-7.6,1.2-9.7,3.6c-3.1,3.6-4.1,10.1-2.8,18.8
		c2.1,14.1,18.2,29.8,22.8,32.4c0.9-0.1,1.9-0.3,3-0.6c2-0.4,4.5-1,7.4-1c2.9,0,4.4,0.9,5.7,1.6c0.3,0.2,0.9,0.8,3.9,0.8h1.7
		C226.3,212,243.9,192.3,245.8,175.5z"/>
	<path fill="#FFFFFF" d="M101.4,245c0,2.6-0.6,5-1.6,7h10.8c-1-2-1.6-4.4-1.6-7c0-2.6,0.6-5,1.6-7H99.8
		C100.9,240,101.4,242.4,101.4,245z"/>
	<path fill="#FFFFFF" d="M189.6,252h10.8c-1-2-1.6-4.4-1.6-7c0-2.6,0.6-5,1.6-7h-10.8c1,2,1.6,4.4,1.6,7
		C191.2,247.6,190.6,250,189.6,252z"/>
	<path fill="#FFFFFF" d="M65.8,238h-4.2c-3.8,0-6.6,2-6.6,5.8v0.5c0,3.8,2.7,7.7,6.6,7.7h4.2c-1-2-1.6-4.4-1.6-7
		C64.2,242.4,64.8,240,65.8,238z"/>
	<path fill="#FFFFFF" d="M146.3,245c0,2.6-0.6,5-1.6,7h10.8c-1-2-1.6-4.4-1.6-7c0-2.6,0.6-5,1.6-7h-10.8
		C145.7,240,146.3,242.4,146.3,245z"/>
	<path fill="#FFFFFF" d="M234.4,252h4.7c3.8,0,6.9-3.9,6.9-7.7v-0.5c0-3.8-3-5.8-6.9-5.8h-4.7c1,2,1.6,4.4,1.6,7
		C236,247.6,235.5,250,234.4,252z"/>
	<path fill="#FFFFFF" d="M154,224H84c-0.5,0-1,0.2-1.5,0.2s-1-0.2-1.5-0.2H60.3c-11,0-20.3,8.6-20.3,19.6v1c0,11,9.3,20.4,20.3,20.4
		h180.1c11,0,19.6-9.4,19.6-20.4v-1c0-11-8.6-19.6-19.6-19.6H157c-0.5,0-1,0.2-1.5,0.2S154.5,224,154,224z M257,245.1
		c0,9.9-8,17.9-17.9,17.9H61.9C52,263,44,255,44,245.1v-0.2c0-9.9,8-17.9,17.9-17.9h177.2c9.9,0,17.9,8,17.9,17.9V245.1z"/>
	<path fill="#CCCCCC" d="M75.2,244.1c0,3.7,3.4,6.7,7.6,6.7s7.6-3,7.6-6.7s-3.4-6.7-7.6-6.7S75.2,240.4,75.2,244.1z"/>
	<path fill="#CCCCCC" d="M120.1,244.1c0,3.7,3.4,6.7,7.6,6.7s7.6-3,7.6-6.7s-3.4-6.7-7.6-6.7S120.1,240.4,120.1,244.1z"/>
	<path fill="#CCCCCC" d="M164.9,244.1c0,3.7,3.4,6.7,7.6,6.7s7.6-3,7.6-6.7s-3.4-6.7-7.6-6.7S164.9,240.4,164.9,244.1z"/>
	<path fill="#CCCCCC" d="M217.4,237.3c-4.2,0-7.6,3-7.6,6.7s3.4,6.7,7.6,6.7s7.6-3,7.6-6.7S221.6,237.3,217.4,237.3z"/>
	<path fill="#FFFFFF" d="M85,102.8c0,17.3,14.1,32.2,31.5,32.2h2.6c17.3,0,31.9-14.9,31.9-32.2V90H85V102.8z"/>
	<path fill="#FFFFFF" d="M130.5,66.2c-3,0-5.5-2.2-5.5-5.2h-15c0,3-2.5,5.2-5.5,5.2S99,63.3,99,60.3V46.7C85.7,52.6,75.8,65,73.7,79
		h88.1c-2.1-14-12.2-26.7-25.8-32.6v13.9C136,63.3,133.5,66.2,130.5,66.2z"/>
	<rect x="110" y="36" fill="#FFFFFF" width="15" height="25"/>
	<g>
		<path fill="#5980B7" d="M215.3,91.2c0.1,0,0.1,0,0.2,0l-1.6,52c3.6-4.7,7.5-7.7,11.3-10.1l1.3-41.1h10.1l1.1,36.7
			c1.6-0.2,3.2-0.5,4.7-0.5c2.3,0,4.5,0.2,6.4,0.5l-1.2-37.5c0.1,0,0.1,0,0.2-0.1c2.3-0.6,4.2-2.7,4.2-5.3V68.3c0-3-2.8-5.3-5.9-5.3
			h-4.8h-19.7h-4.8c-3,0-5.9,2.2-5.9,5.3v17.6C211,88.4,212.9,90.5,215.3,91.2z M222,74h5h9h5v7h-19V74z"/>
		<path fill="#5980B7" d="M183.9,117h10.1l1.1,30c5.7,0.9,8.8,3.1,11.2,4.8l-1.3-35.6c2.3-0.7,3.9-2.8,3.9-5.3V93.4
			c0-3-2.4-4.4-5.4-4.4h-29.2c-3,0-5.4,1.3-5.4,4.4V111c0,2.5,1.6,4.6,4,5.2c0.5,0.1,0.9,0.1,1.4,0.1c-0.5,0-1,0-1.5-0.1l-1,27.4
			c2.1,1.6,4,3.3,5.8,5.2c1.6-0.8,3.3-1.1,5.1-1.5L183.9,117z M180,100h18v6h-18V100z"/>
		<path fill="#5980B7" d="M251.2,214.5c-3.4-1.3-6.9-2.2-10.8-2.2c3.9,0,7.6,0.9,11,2.2l-0.6-20c2.3-4.5,4.1-9,5.1-13.2
			c2.4-10.3,0.7-19-4.7-25.6c4.4-4.6,7.5-10.7,9.2-18.1c0.5-2.4-0.6-4.9-2.8-6.1c-0.5-0.3-3.8-1.9-8.8-2.8c-1.9-0.3-4-0.6-6.4-0.6
			c-1.5,0-3,0.1-4.7,0.3c-3.9,0.5-8.2,1.9-12.5,4.4c-3.8,2.3-7.7,5.7-11.3,10.4c-2.1,2.7-4.1,5.9-5.9,9.6l0,0
			c-0.4-0.3-0.9-0.6-1.4-1c0,0-0.1-0.1-0.1-0.1c-2.4-1.8-5.5-3.7-11.2-4.6c-1.7-0.3-3.6-0.1-5.9-0.1c0,0-0.1,0-0.1,0
			c-2.3,0-4.4-0.1-6.5,0.3c-1.8,0.4-3.5,0.8-5.1,1.6c-1.8-1.9-3.7-3.7-5.8-5.3c-3.6-2.7-7.6-5-11.9-6.5c-1-1.4-2.6-2.3-4.4-2.3
			c-0.7,0-1.4,0.1-2.1,0.4c-1.9-0.4-3.8-0.7-5.8-0.8c0,0,0,0,0,0c8.7-7.8,14.4-19.1,14.4-31.6V90h5.7c0,0,0,0,0,0
			c3,0,5.5-2.8,5.5-5.8c0-0.2,0-0.5,0-0.7c-0.2-22.1-16-41.6-37.2-48.8v-4.9c0-3-2.5-4.8-5.5-4.8h-26c-3,0-5.5,1.8-5.5,4.8v5.1
			c-21.1,7.4-36.7,27.2-36.7,49.3c0,3,2.5,5.8,5.5,5.8H74v12.8c0,12.5,5.5,23.8,14.2,31.6c0,0,0,0,0,0c-1.5,0.1-3,0.3-4.4,0.5
			c2.5,0.5,4.3,2.7,4.3,5.4c0-2.6-1.9-4.8-4.3-5.4c-0.4-0.1-0.8-0.1-1.2-0.1c-1.3,0-2.4,0.4-3.3,1.1c0,0,0,0,0,0
			c-19.7,5.5-34.2,23.6-34.2,45v35.6c-0.1,0-0.1,0.1-0.2,0.1c-9.3,5.3-15.8,15.5-15.8,27v1c0,17.1,14.2,31.4,31.3,31.4h180.1
			c17.1,0,30.6-14.3,30.6-31.4v-1C271,230.4,262.9,218.9,251.2,214.5z M240.3,213h-2c0.7,0,1.3-1.3,2-2.1L240.3,213z M242.4,139.1
			c2.2,0,4.3,0.3,5.9,0.7c-1.4,3.7-3.3,6.7-5.8,9c0,0,0,0,0,0c-0.4-0.2-0.8-0.4-1.2-0.6c-3.4-1.7-6.5-2.5-9.7-2.5
			c-2.3,0-4.4,0.4-6.2,1.1C230.3,141.6,236,139.1,242.4,139.1z M179.6,160.9c2.1-2.4,5.2-3.6,9.7-3.6c6.2,0,8.3,1.6,10.6,3.3
			c2.5,1.9,5.7,4.2,11.6,4.2c5,0,8.8-2.5,12.1-4.7c2.8-1.9,5.2-3.5,7.9-3.5c1.5,0,3,0.4,4.8,1.3c7.4,3.7,10.3,9.4,9.4,17.5
			c-1.9,16.8-19.5,36.5-24.6,37.5h-1.7c-2.9,0-3.5-0.6-3.9-0.8c-1.3-0.7-2.8-1.5-5.7-1.5c-2.9,0-5.4,0.5-7.4,0.9
			c-1.1,0.2-2.1,0.4-3,0.5c-4.6-2.6-20.7-18.4-22.8-32.4C175.5,171,176.5,164.5,179.6,160.9z M165.9,181.3
			c1.6,10.9,8.9,21.2,13.7,27c0.1,0.2,0.3,0.3,0.4,0.5v4.3h-0.4H161v-63.4c3.1,1.7,6,3.9,8.5,6.5
			C165.5,162.2,164.3,170.6,165.9,181.3z M152.7,223c-1.6-0.7-2.7-2.7-2.7-4.7C150,220.3,151.1,222.1,152.7,223z M150,213H88v-20h62
			V213z M79.7,223c-1.6-0.7-2.7-2.7-2.7-4.7C77,220.3,78.1,222.1,79.7,223z M88,218.3c0,2-1.1,4-2.7,4.7
			C86.9,222.1,88,220.3,88,218.3z M161,218.3c0,2-1.1,4-2.7,4.7C159.9,222.1,161,220.3,161,218.3z M134,142.6v2.2
			c0,8.5-7,16.3-15.5,16.3H117c-8.5,0-15-7.8-15-16.3v-2c4.5,1.6,9.4,3.3,14.5,3.3h2.6c5.2,0,10.2-1.3,14.8-3.1
			c4-1.5,7.7-3.8,11-6.3c0.4-0.3,0.9-0.8,1.4-1.1c-0.4,0.4-0.8,0.7-1.3,1C142,139,138,141.1,134,142.6z M73.7,79
			c2.1-14,12-26.4,25.3-32.3v13.6c0,3,2.5,5.5,5.5,5.5s5.5-2.5,5.5-5.5V36h15v24.3c0,3,2.5,5.5,5.5,5.5s5.5-2.5,5.5-5.5V46.4
			c13.6,5.8,23.7,18.6,25.8,32.6H73.7z M85,102.8V90h0h65.5h0.5v12.8c0,17.3-14.6,32.2-31.9,32.2h-2.6C99.1,135,85,120.1,85,102.8z
			 M88,145.4c0.9-0.1,1.9-0.1,2.8-0.2c0-0.2,0.2-0.3,0.2-0.5c0,0.2-0.2,0.8-0.2,1C91.1,160,102.7,172,117,172h1.5
			c14.4,0,26.1-12,26.4-26.3c0,0,0-0.2,0-0.3c1.7,0,3.4,0,5.1,0.3V182H88V145.4z M77,148.4V213H60.3c-1.5,0-2.9-0.4-4.3-0.2v-31.8
			C56,166.5,64.6,154,77,148.4z M260,244.6c0,11-8.6,20.4-19.6,20.4H60.3c-11,0-20.3-9.4-20.3-20.4v-1c0-11,9.3-19.6,20.3-19.6h19.9
			c0.3,0,0.5-0.1,0.8,0c0.5,0.1,1,0,1.5,0s1,0.2,1.5,0.1c0.3-0.1,0.5,0,0.8,0h68.5c0.3,0,0.5-0.1,0.8,0c0.5,0.1,1,0,1.5,0
			s1,0.2,1.5,0.1c0.3-0.1,0.5,0,0.8,0h82.6c11,0,19.6,8.6,19.6,19.6V244.6z"/>
		<path fill="#5980B7" d="M257,244.9c0-9.9-8-17.9-17.9-17.9H61.9C52,227,44,235,44,244.9v0.2c0,9.9,8,17.9,17.9,17.9h177.2
			c9.9,0,17.9-8,17.9-17.9V244.9z M217.4,237.3c4.2,0,7.6,3,7.6,6.7s-3.4,6.7-7.6,6.7s-7.6-3-7.6-6.7S213.2,237.3,217.4,237.3z
			 M172.6,237.3c4.2,0,7.6,3,7.6,6.7s-3.4,6.7-7.6,6.7s-7.6-3-7.6-6.7S168.4,237.3,172.6,237.3z M127.7,237.3c4.2,0,7.6,3,7.6,6.7
			s-3.4,6.7-7.6,6.7s-7.6-3-7.6-6.7S123.5,237.3,127.7,237.3z M82.8,237.3c4.2,0,7.6,3,7.6,6.7s-3.4,6.7-7.6,6.7s-7.6-3-7.6-6.7
			S78.6,237.3,82.8,237.3z M61.6,252c-3.8,0-6.6-3.9-6.6-7.7v-0.5c0-3.8,2.7-5.8,6.6-5.8h4.1c-0.9,2-1.4,4-1.4,6.4
			c0,2.6,0.6,4.8,1.6,7c0.3,0.7,0.7,1.5,1,2.1c-0.4-0.6-0.7-1.6-1-1.6H61.6z M75.2,260.3c2.3,1,4.9,1.6,7.6,1.6s5.3-0.6,7.6-1.6
			c-2.3,1-4.9,1.6-7.6,1.6S77.5,261.3,75.2,260.3z M99.8,252c-0.3,0-0.7,0.9-1,1.5c0.4-0.6,0.7-1.4,1-2.1c1-2.2,1.6-4.4,1.6-6.9
			c0-2.4-0.5-4.5-1.4-6.5h10.5c-0.9,2-1.4,4-1.4,6.4c0,2.6,0.6,4.8,1.6,7c0.3,0.7,0.7,1.5,1,2.1c-0.4-0.6-0.7-1.6-1-1.6H99.8z
			 M120.1,260.3c2.3,1,4.9,1.6,7.6,1.6s5.3-0.6,7.6-1.6c-2.3,1-4.9,1.6-7.6,1.6S122.4,261.3,120.1,260.3z M144.7,252
			c-0.3,0-0.7,0.9-1,1.5c0.4-0.6,0.7-1.4,1-2.1c1-2.2,1.6-4.4,1.6-6.9c0-2.4-0.5-4.5-1.4-6.5h10.5c-0.9,2-1.4,4-1.4,6.4
			c0,2.6,0.6,4.8,1.6,7c0.3,0.7,0.7,1.5,1,2.1c-0.4-0.6-0.7-1.6-1-1.6H144.7z M164.9,260.3c2.3,1,4.9,1.6,7.6,1.6s5.3-0.6,7.6-1.6
			c-2.3,1-4.9,1.6-7.6,1.6S167.3,261.3,164.9,260.3z M189.6,252c-0.3,0-0.7,0.9-1,1.5c0.4-0.6,0.7-1.4,1-2.1c1-2.2,1.6-4.4,1.6-6.9
			c0-2.4-0.5-4.5-1.4-6.5h10.5c-0.9,2-1.4,4-1.4,6.4c0,2.6,0.6,4.8,1.6,7c0.3,0.7,0.7,1.5,1,2.1c-0.4-0.6-0.7-1.6-1-1.6H189.6z
			 M209.8,260.3c2.3,1,4.9,1.6,7.6,1.6s5.3-0.6,7.6-1.6c-2.3,1-4.9,1.6-7.6,1.6S212.1,261.3,209.8,260.3z M246,244.3
			c0,3.8-3,7.7-6.9,7.7h-4.7c-0.3,0-0.7,0.9-1,1.5c0.4-0.6,0.7-1.4,1-2.1c1-2.2,1.6-4.4,1.6-6.9c0-2.4-0.5-4.5-1.4-6.5h4.6
			c3.8,0,6.9,2,6.9,5.8V244.3z"/>
	</g>
</g>
</svg>
