<?xml version="1.0" encoding="utf-8"?>
<!-- Generator: Adobe Illustrator 18.1.1, SVG Export Plug-In . SVG Version: 6.00 Build 0)  -->
<svg version="1.1" id="Layer_1" xmlns="http://www.w3.org/2000/svg" xmlns:xlink="http://www.w3.org/1999/xlink" x="0px" y="0px"
	 viewBox="0 0 300 300" enable-background="new 0 0 300 300" xml:space="preserve">
<g>
	<path fill="#FFFFFF" d="M199.7,111.8c1.5-0.3,2.5-1.8,2.2-3.3c-0.3-1.3-1.4-2.3-2.8-2.3c-0.2,0-0.4,0-0.6,0.1
		c-1.5,0.3-2.5,1.8-2.2,3.3C196.6,111,198.1,112.1,199.7,111.8z"/>
	<path fill="#FFFFFF" d="M89.1,200.8c-0.5,0-1.1,0.1-1.6,0.2c-2.1,0.4-3.9,1.6-5.1,3.4s-1.6,3.9-1.2,6c0.8,3.7,4,6.4,7.8,6.4
		c0.5,0,1.1-0.1,1.6-0.2c4.3-0.9,7.1-5.1,6.2-9.4C96.2,203.5,92.9,200.8,89.1,200.8z"/>
	<path fill="#FFFFFF" d="M209.7,215.9c0.4,0.1,0.9,0.1,1.3,0.1c4.1,0,7.6-3,8.2-7c0.3-2.2-0.2-4.4-1.5-6.2c-1.3-1.8-3.2-3-5.4-3.3
		c-0.4-0.1-0.9-0.1-1.3-0.1c-4.1,0-7.6,3-8.2,7c-0.3,2.2,0.2,4.4,1.5,6.2C205.6,214.4,207.5,215.6,209.7,215.9z"/>
	<path fill="#FFFFFF" d="M194.1,158.3c0-24.1-19.6-43.7-43.7-43.7s-43.7,19.6-43.7,43.7s19.6,43.7,43.7,43.7
		S194.1,182.4,194.1,158.3z M155.4,190.2l-9.2,4.9c-0.4,0.2-0.9,0.3-1.4,0.3c-1.1,0-2.1-0.6-2.7-1.6l-7.7-14.5
		c-0.9,0.2-1.9,0.3-2.8,0.3c-4.5,0-8.6-2.5-10.7-6.5c-1.5-2.9-1.8-6.1-0.9-9.2s3.1-5.6,5.9-7.1l7.2-3.8c0.1-0.1,0.1-0.3,0.2-0.4
		l16.2-30.5c0.5-1,1.5-2.2,2.6-2.2c0,0,0,0,0,0c1.1,0,2.1,1.2,2.6,2.2l8,15.4l8.6-0.1c1.1,0,2.2,0.6,2.7,1.6l4.7,8.9
		c0.6,1.1,0.4,2.5-0.4,3.4l-5.3,5.9l7.7,14.6c0.3,0.5,0.5,1.1,0.5,1.7c0,1.7-1.3,3-3,3c0,0,0,0,0,0c-0.1,0-0.2,0-0.3,0l-27.8-2.7
		l6.4,12.1C157.5,187.7,156.9,189.5,155.4,190.2z"/>
	<polygon fill="#FFFFFF" points="173.1,170.3 152.1,130.6 139.6,153.8 146.9,167.7 	"/>
	<polygon fill="#CDCCCC" points="170.2,151.7 172.6,149 169.7,143.6 166,143.7 	"/>
	<path fill="#FFFFFF" d="M135.4,158.7l-6.6,3.5c-1.4,0.8-2.5,2-3,3.6c-0.5,1.6-0.3,3.2,0.4,4.6c1.1,2,3.1,3.3,5.4,3.3
		c1,0,2-0.2,2.8-0.7l6.6-3.5L135.4,158.7z"/>
	
		<rect x="138.5" y="179.4" transform="matrix(-0.4672 -0.8841 0.8841 -0.4672 52.1293 394.6344)" fill="#CDCCCC" width="13" height="4.4"/>
	<path fill="#CDCCCC" d="M105.9,97.9c0.5-3.4-0.3-6.7-2.3-9.5c-2-2.7-5-4.6-8.3-5.1c-0.7-0.1-1.3-0.2-2-0.2
		c-6.3,0-11.6,4.5-12.6,10.8c-1.1,6.9,3.7,13.5,10.6,14.6c0.7,0.1,1.3,0.2,2,0.2C99.7,108.7,105,104.1,105.9,97.9z"/>
	<g>
		<path fill="#5A81B8" d="M213.6,191.6c-0.8-0.1-1.7-0.2-2.6-0.2c-3.8,0-7.3,1.3-10.1,3.5l-7.8-7.4c5.7-8.3,9-18.3,9-29.1
			c0-13.2-5-25.2-13.1-34.3l5.8-5.1c1.3,0.6,2.8,0.9,4.3,0.9c0.7,0,1.4-0.1,2.2-0.2c5.8-1.2,9.6-6.9,8.5-12.7c-1-5-5.5-8.7-10.6-8.7
			c-0.7,0-1.4,0.1-2.2,0.2c-5.8,1.2-9.6,6.9-8.4,12.7c0.1,0.7,0.4,1.4,0.7,2.1l-5.9,5.2c-8.9-7.3-20.3-11.7-32.7-11.7
			c-11.7,0-22.5,3.9-31.1,10.5l-9.3-8.9c1.9-2.6,3.3-5.7,3.8-9.2c0.9-5.5-0.5-11-3.7-15.4c-3.3-4.5-8.1-7.4-13.5-8.3
			c-1.1-0.2-2.2-0.3-3.2-0.3c-10.3,0-18.9,7.4-20.5,17.5c-1.8,11.3,6,21.9,17.3,23.7c1.1,0.2,2.2,0.3,3.2,0.3c3.9,0,7.6-1.1,10.7-3
			l9.2,8.8c-9,9.3-14.5,21.9-14.5,35.8c0,9.9,2.8,19.2,7.7,27.1l-10.4,9.1c-2.1-1-4.5-1.6-7-1.6c-1.1,0-2.1,0.1-3.2,0.3
			c-4.2,0.8-7.8,3.3-10.2,6.8c-2.4,3.6-3.2,7.8-2.3,12c1.5,7.4,8.1,12.8,15.7,12.8c1.1,0,2.1-0.1,3.2-0.3
			c8.6-1.8,14.3-10.2,12.5-18.9c-0.4-2.2-1.3-4.2-2.5-5.9l9-7.9c9.5,11.1,23.5,18.1,39.2,18.1c14.8,0,28.2-6.3,37.6-16.3l7.9,7.6
			c-0.5,1.2-0.9,2.6-1.1,4c-0.7,4.3,0.4,8.6,2.9,12.2c2.6,3.5,6.4,5.8,10.7,6.5c0.8,0.1,1.7,0.2,2.5,0.2c8.1,0,14.9-5.8,16.1-13.8
			C228.6,201.3,222.5,193,213.6,191.6z M198.5,106.2c0.2,0,0.4-0.1,0.6-0.1c1.3,0,2.5,0.9,2.8,2.3c0.3,1.5-0.7,3-2.2,3.3
			c-1.5,0.3-3-0.7-3.3-2.2C196,108,197,106.5,198.5,106.2z M93.4,108.7c-0.7,0-1.3-0.1-2-0.2c-6.9-1.1-11.7-7.6-10.6-14.6
			c1-6.2,6.3-10.8,12.6-10.8c0.7,0,1.3,0.1,2,0.2c3.4,0.5,6.3,2.3,8.3,5.1c2,2.7,2.8,6.1,2.3,9.5C105,104.1,99.7,108.7,93.4,108.7z
			 M90.7,216.7c-0.5,0.1-1.1,0.2-1.6,0.2c-3.8,0-7.1-2.7-7.8-6.4c-0.4-2.1,0-4.2,1.2-6s3-3,5.1-3.4c0.5-0.1,1.1-0.2,1.6-0.2
			c3.8,0,7.1,2.7,7.8,6.4C97.8,211.6,95,215.8,90.7,216.7z M150.5,202c-24.1,0-43.7-19.6-43.7-43.7s19.6-43.7,43.7-43.7
			s43.7,19.6,43.7,43.7S174.5,202,150.5,202z M219.3,209c-0.6,4-4.2,7-8.2,7c-0.4,0-0.9,0-1.3-0.1c-2.2-0.3-4.1-1.5-5.4-3.3
			c-1.3-1.8-1.8-4-1.5-6.2c0.6-4.1,4.1-7,8.2-7c0.4,0,0.9,0,1.3,0.1c2.2,0.3,4.1,1.5,5.4,3.3C219.1,204.6,219.6,206.8,219.3,209z"/>
		<path fill="#5A81B8" d="M180.9,172l-7.7-14.6l5.3-5.9c0.8-0.9,1-2.3,0.4-3.4l-4.7-8.9c-0.5-1-1.6-1.6-2.7-1.6l-8.6,0.2l-8-15.6
			c-0.5-1-1.5-2.2-2.6-2.2c0,0,0,0,0,0c-1.1,0-2.1,1.2-2.6,2.2l-16.2,30.3c-0.1,0.1-0.1,0.4-0.2,0.5l-7.2,3.8
			c-2.9,1.5-5,4.1-5.9,7.2s-0.6,6.4,0.9,9.2c2.1,4,6.2,6.5,10.7,6.5c0.9,0,1.9-0.1,2.8-0.3l7.7,14.5c0.5,1,1.6,1.6,2.7,1.6
			c0.5,0,1-0.1,1.4-0.3l9.2-4.9c1.5-0.8,2-2.6,1.3-4.1l-6.4-12.1l27.8,2.7c0.1,0,0.2,0,0.3,0c0,0,0,0,0,0c1.7,0,3-1.4,3-3
			C181.4,173.1,181.2,172.5,180.9,172z M169.7,143.6l2.9,5.4l-2.4,2.7l-4.2-8L169.7,143.6z M131.7,173.7c-2.3,0-4.3-1.2-5.4-3.3
			c-0.8-1.4-0.9-3.1-0.4-4.6c0.5-1.6,1.5-2.8,3-3.6l6.6-3.5l5.7,10.8l-6.6,3.5C133.6,173.5,132.7,173.7,131.7,173.7z M146.1,188.4
			l-6.1-11.5l3.9-2.1l6.1,11.5L146.1,188.4z M146.9,167.7l-7.4-13.9l12.6-23.2l21,39.7L146.9,167.7z"/>
	</g>
</g>
</svg>
