<?xml version="1.0" encoding="utf-8"?>
<!-- Generator: Adobe Illustrator 18.1.1, SVG Export Plug-In . SVG Version: 6.00 Build 0)  -->
<svg version="1.1" id="Layer_1" xmlns="http://www.w3.org/2000/svg" xmlns:xlink="http://www.w3.org/1999/xlink" x="0px" y="0px"
	 viewBox="0 0 300 300" enable-background="new 0 0 300 300" xml:space="preserve">
<g>
	<path fill="#FFFFFF" d="M152.5,161c0.6-1.4,2-2.4,3.5-2.6l21.3-2.9c0.9-0.1,1.7,0,2.7,0.4v-33h-44v45.7l13,5.1c0,0-0.1,0-0.1,0
		l8.4-1.8l-4.4-6.7C152,164.1,151.9,162.4,152.5,161z"/>
	<polygon fill="#FFFFFF" points="140,108 140,113 176,113 176,108 174.5,108 141,108 	"/>
	<polygon fill="#CCCCCC" points="146,95 146,99 170,99 170,95 166.6,95 148.8,95 	"/>
	<rect x="154" y="81" fill="#FFFFFF" width="8" height="5"/>
	<path fill="#FFFFFF" d="M210.8,140.8c3,0,5.5-2.4,5.5-5.4s-2.4-5.4-5.5-5.4c-3,0-5.5,2.4-5.5,5.4S207.8,140.8,210.8,140.8z"/>
	<path fill="#FFFFFF" d="M236.4,168.9c3,0,5.5-2.4,5.5-5.4c0-3-2.4-5.4-5.5-5.4c-3,0-5.5,2.4-5.5,5.4
		C231,166.5,233.4,168.9,236.4,168.9z"/>
	<path fill="#FFFFFF" d="M182.9,100.7c0,3,2.4,5.4,5.5,5.4c3,0,5.5-2.4,5.5-5.4s-2.4-5.4-5.5-5.4C185.3,95.3,182.9,97.8,182.9,100.7
		z"/>
	<polygon fill="#CCCCCC" points="119,215.4 172,240.5 172,215.2 150.2,205.9 119,192.9 	"/>
	<path fill="#FFFFFF" d="M181,241.4l7-2.3v-11.4c0-2.5,2-4.5,4.5-4.5s4.5,2,4.5,4.5v8.5l9-3v-10.5c0-2.5,2-4.5,4.5-4.5
		s4.5,2,4.5,4.5v7.5l5-1.6v-10.9c0-2.5,2-4.5,4.5-4.5s4.5,2,4.5,4.5v7.9l3-1v-22.3l-43.2,11.3l-7.8,2.1V241.4z"/>
	<path fill="#FFFFFF" d="M203.5,196.6c-2,1.4-4.8,0.9-6.3-1.1l-1.1-1.5l-12.3,2.8c0.4,1.8-0.3,3.7-1.9,4.8c-0.8,0.5-1.6,0.7-2.5,0.7
		c-1.5,0-2.9-0.7-3.8-2l-13.2-20.1l-33.5,7.1l47.3,20.2l45.1-11.8l-17.2-5.9l0.4,0.6C206,192.3,205.6,195.2,203.5,196.6z"/>
	<path fill="#FFFFFF" d="M196.2,194l-20.5-29.1l-11.4,1.5l19,28.9c0.3,0.5,0.5,1,0.6,1.5L196.2,194z"/>
	<polygon fill="#FFFFFF" points="118.6,171.9 118.7,180.1 131.9,177 	"/>
	<rect x="71" y="137" fill="#CCCCCC" width="32" height="8"/>
	<polygon fill="#FFFFFF" points="65,154 65,235 110,235 110,154 107.5,154 66,154 	"/>
	<path fill="#5980B7" d="M251,163.5c0-7.9-6.6-14.4-14.5-14.4c-8,0-14.3,6.4-14.3,14.4c0,6.3,3.8,11.6,9.8,13.5v12.6l-34.7-11.8
		l16-13.2c1-0.9,1.7-2.1,1.7-3.5v-11.8c6-1.7,10.4-7.2,10.4-13.8c0-7.9-6.6-14.4-14.5-14.4c-8,0-14.3,6.4-14.3,14.4
		c0,6.1,3.5,11.3,9.5,13.4V159l-14.7,12.1l-2-2.9l-0.3-0.5v-49.8c0-0.6,0-1.2,0-1.7V115c7-0.2,13.9-6.5,13.9-14.3
		c0-7.9-6.6-14.4-14.5-14.4c-3.6,0-6.8,1.3-9.4,3.4c0,0,0,0.2,0,0.2c-0.1-2.4-2.1-3.9-4.5-3.9H171v-0.7v-9.1c0-2.5-1.9-4.3-4.4-4.3
		H164V51h-12v21h-3.2c-2.5,0-3.8,1.8-3.8,4.3v9.1V86h-4c-2.5,0-4,1.4-4,3.8V99h-1.6c-2.5,0-4.4,1.9-4.4,4.4v10c-2,0-4,2-4,4.5v47.4
		l9,3.4V123h44v33c-1-0.4-1.8-0.5-2.7-0.4l-21.3,2.9c-1.5,0.2-2.9,1.2-3.5,2.6c-0.6,1.4-0.5,3,0.3,4.3l4.4,6.8l-8.5,1.9c0,0,0,0,0,0
		l-13.3-5.2l-8.8-3.5l-7.7-3.1v-13.2c0-2.5-2.4-4.1-4.9-4.1h-2h0v-13.3c0-2.5-2-3.7-4.5-3.7h-2.9c0.4-7,1-13,1.8-18.3
		c2.2-15.2,5.5-25.6,8.6-32.4c1.8-0.1,3.6-0.9,5.1-2.1c0.9-0.8,1.6-1.7,2.2-2.6c1.8-3.2,1.5-7.3-0.9-10.3c-3.2-3.9-9-4.5-12.9-1.2
		c-3.8,3.1-4.4,8.7-1.6,12.6C102,84.3,97.2,101,95.7,128H92V64.5c0-0.1,0-0.1,0.1-0.2c2.4-1.6,4-4.4,4-7.5c0-5-4.1-9-9-9s-9,4-9,9
		c0,3.2,1.9,6.1,4.5,7.7c0.1,0.1,0.4,0.1,0.4,0.1V128h-5.6c-1.6-28-6.5-44.1-11.4-54.7c0.1-0.2,0.2-0.4,0.3-0.6
		c1.8-3.2,1.5-7.3-0.9-10.3c-3.2-3.9-9-4.5-12.9-1.2c-3.9,3.2-4.4,9-1.2,12.9c1.5,1.9,3.6,2.9,5.9,3.2c0.2,0,0.4,0,0.6,0.1
		c0.1,0,0.2,0,0.3,0c3,6.7,6.4,17.3,8.5,32.4c0.8,5.3,1.4,11.3,1.8,18.3H66c-2.5,0-4,1.2-4,3.7V145h-0.5h-1.7
		c-2.5,0-3.8,1.6-3.8,4.1v90.3c0,2.5,1.4,4.6,3.8,4.6h54.2c2.5,0,4.9-2.1,4.9-4.6v-14.1l55.1,26.1c0.1,0.1,0.2,0.2,0.4,0.2
		c0.2,0.1,0.4,0.2,0.7,0.2c0.1,0,0.1,0,0.2,0.1c0.3,0.1,0.6,0.1,0.9,0.1c0.2,0,0.4,0,0.7-0.1c0.1,0,0.1,0,0.2,0
		c0.2,0,0.3-0.1,0.4-0.1c0,0,0.1,0,0.1,0l60.2-19.8c1.8-0.6,3.2-2.3,3.2-4.3v-50.6C247,175.4,251,170,251,163.5z M205.3,135.5
		c0-3,2.4-5.4,5.5-5.4c3,0,5.5,2.4,5.5,5.4s-2.4,5.4-5.5,5.4C207.8,140.8,205.3,138.4,205.3,135.5z M103,137v8H71v-8H103z M110,235
		H65v-81h1h41.5h2.5V235z M231,163.5c0-3,2.4-5.4,5.5-5.4c3,0,5.5,2.4,5.5,5.4c0,3-2.4,5.4-5.5,5.4C233.4,168.9,231,166.5,231,163.5
		z M188.3,95.3c3,0,5.5,2.4,5.5,5.4s-2.4,5.4-5.5,5.4c-3,0-5.5-2.4-5.5-5.4S185.3,95.3,188.3,95.3z M162,81v5h-8v-5H162z M166.6,95
		h3.4v4h-24v-4h2.8H166.6z M174.5,108c0.3,0,0.6,0,0.9,0h0.6v5h-36v-5h1H174.5z M162.5,180.1l13.2,20.1c0.9,1.3,2.3,2,3.8,2
		c0.8,0,1.7-0.2,2.5-0.7c1.6-1.1,2.3-3,1.9-4.8c-0.1-0.5-0.3-1-0.6-1.5l-19-28.9l11.4-1.5l20.5,29.1l1.1,1.5c1.4,2,4.2,2.5,6.3,1.1
		c2-1.4,2.5-4.2,1.1-6.3l-0.4-0.6l17.2,5.9l-45.1,11.8L129,187.2L162.5,180.1z M132.2,177l-13.2,3.1V172L132.2,177z M174.4,216.5
		l-2.4-1.2v25.2l-53-25.1v-22.5l29.1,12.2l1.9,0.8l21.8,9.3l2.5,1.2c0.6,0.2,1.1,0.5,1.7,0.5c0,0,0,0,0,0
		C175.4,217,175,216.7,174.4,216.5z M229,225.6v-7.9c0-2.5-2-4.5-4.5-4.5s-4.5,2-4.5,4.5v10.9l-5,1.6v-7.5c0-2.5-2-4.5-4.5-4.5
		s-4.5,2-4.5,4.5v10.5l-9,3v-8.5c0-2.5-2-4.5-4.5-4.5s-4.5,2-4.5,4.5v11.4l-7,2.3v-25.7l7.5-2l0.2,0l43.3-11.3v22.3L229,225.6z"/>
</g>
</svg>
