<?xml version="1.0" encoding="utf-8"?>
<!-- Generator: Adobe Illustrator 18.1.1, SVG Export Plug-In . SVG Version: 6.00 Build 0)  -->
<svg version="1.1" id="Layer_1" xmlns="http://www.w3.org/2000/svg" xmlns:xlink="http://www.w3.org/1999/xlink" x="0px" y="0px"
	 viewBox="0 0 300 300" enable-background="new 0 0 300 300" xml:space="preserve">
<g>
	<path fill="none" d="M247.6,187.4c-2.1-3.1-3.5-6.6-4.5-9.6l-3.8,1.1c1.5,3.6,3.4,6.8,5.2,9.4L247.6,187.4z"/>
	<path fill="none" d="M220.9,112.8l-3.4,2.8c3.8,4.3,8,7.7,11.6,10.3l3-2.5C227.6,120.7,223.7,116.3,220.9,112.8z"/>
	<path fill="#CCCCCC" d="M145.1,83c3.1,1.3,5.3,3.6,6.4,6.6c1,2.8,0.7,5.8,0.1,8.2l2.9,1.2l9.4-24.2l-4.4-1.8
		c-2.2,1.6-5.5,3.4-9.3,3.4c-4.5,0-10.3-2.3-13.7-13l-30.4-12.7c0,0-5.3-2.1-11.5-2.1c-2.8,0-5.3,0.3-7.5,1.3c0,0,0,0,0.1,0
		c8.8,0,15.3,3.8,18.1,10.7c3.6,8.7,4.3,15.3,4.2,19.5l12.2,5.1c3.5-1.3,10.3-3.5,16.4-3.5C140.8,81.8,143.1,82.2,145.1,83z"/>
	<polygon fill="#FFFFFF" points="106.4,90.8 97.9,109.2 107.2,117.5 114.8,94.3 	"/>
	<path fill="#FFFFFF" d="M39,71.6V105h4.5c3,0,5.5,2.5,5.5,5.5s-2.5,5.5-5.5,5.5H39v17h4.5c3,0,5.5,2.5,5.5,5.5s-2.5,5.5-5.5,5.5H39
		v19h4.5c3,0,5.5,2.5,5.5,5.5s-2.5,5.5-5.5,5.5H39v18h4.5c3,0,5.5,2.5,5.5,5.5s-2.5,5.5-5.5,5.5H39v19h23.5l1.3-0.6
		c-0.2-2.6-0.7-5.9-0.7-8.1c0-9.1,2-17.9,4-26v-48.5c0-2.2,1.5-4.2,3.5-5s4.5-0.5,6.1,1l16.1,15.2c4.2-3.4,9.3-6.4,13.3-8.9v-9.4
		L39,71.6z"/>
	<path fill="#CCCCCC" d="M236.9,168.2l8.6-2.6c1.5-0.5,3.1-0.2,4.5,0.6c1.3,0.8,2.3,2.2,2.5,3.8c0.7,4.3,3.2,11.5,6.1,13.4
		c0.4,0.2,0.8,0.4,1.3,0.3c1.6-3,0-15.8-6.6-22.9c-4.3-4.6-9-5-14.9-1.5C237.3,162.3,236.9,165.3,236.9,168.2z"/>
	<path fill="#FFFFFF" d="M236.4,195.8c-5.1-7-11.4-18.4-10.4-31.2l-17.6,6.9c5.1,8.8,8.7,18.6,10.3,29.1L236.4,195.8z"/>
	<path fill="#CCCCCC" d="M222.8,99.4c1.6,0.2,2.9,1.1,3.8,2.5c3.2,5.1,10,12.9,14.2,13.6c0.3,0.1,0.6,0.1,0.8,0
		c0.1-4.9-9.8-21.3-21.6-25.9c-5.5-2.2-9.5-0.8-12.9,4.3c0.4,4.6,1.9,8.9,4,12.8l7.4-6.1C219.7,99.6,221.3,99.2,222.8,99.4z"/>
	<path fill="#FFFFFF" d="M224.7,136.8c-0.2-0.2-0.3-0.5-0.5-0.7c-8.6-5.9-21.4-16.8-26.3-32.1l-23.2,23.2c0.3,0.7,0.3,1.5,0.3,2.3
		v11.2c9,4.3,16.5,10.2,23,17.3l26.9-20.8C224.7,136.9,224.8,136.8,224.7,136.8z"/>
	<path fill="#FFFFFF" d="M219.1,234.3L211,231c-2.3-0.9-3.7-3.3-3.4-5.8c0.3-2.2,0.7-8.7,0.7-12c0-25.6-13.4-48-33.4-60.1v15.8
		c0,3-2.5,5.5-5.5,5.5s-5.5-2.5-5.5-5.5V135h-18v33.9v18c0,3-2.5,5.5-5.5,5.5s-5.5-2.5-5.5-5.5v-18V135h-18v33.9
		c0,3-2.5,5.5-5.5,5.5s-5.5-2.5-5.5-5.5v-15.2c-19,12.3-32,34.4-32,59.5c0,3,0.7,8.9,0.9,11c0.3,2.4-1,4.7-3.3,5.7l-8.7,3.7l0,8.1
		c10.8,2.7,42.2,9.7,78.4,9.7c34.8,0,66.7-7,77.7-9.7L219.1,234.3z M188.5,236h-95c-3,0-5.5-2.5-5.5-5.5s2.5-5.5,5.5-5.5h95
		c3,0,5.5,2.5,5.5,5.5S191.5,236,188.5,236z"/>
	<g>
		<path fill="#5980B7" d="M256.3,149.1c-4.3-2.7-13.3-6-24.9,1.6l-12.5,4.9l19.4-15.1c1.5-1.2,2.3-3,2.1-4.9
			c-0.1-1.3-0.7-2.5-1.7-3.4l10.1-8.4c0,0,0,0,0,0c2-1.6,4.9-5.4,2.8-13.1c-3.3-12.1-18.1-30.9-33.8-32.9
			c-4.9-0.6-14.1,0.1-20.9,11.4L162.6,124h-45.9l9.3-28.5c3.2-1.1,8.2-2.7,12.1-2.7c1.6,0,2.4,0.2,2.7,0.4c0.1,0,0.2,0.1,0.2,0.1
			c0.2,0.8-0.3,3.1-1.3,4.9c-0.8,1.4-0.9,3-0.4,4.5c0.5,1.5,1.6,2.7,3.1,3.3l13.1,5.5c0.7,0.3,1.4,0.4,2.1,0.4
			c0.7,0,1.5-0.1,2.2-0.4c1.4-0.6,2.4-1.7,3-3.1l13.4-34.5c1.1-2.8-0.3-5.9-3-7.1l-12.5-5.2c-2.1-0.9-4.6-0.3-6.1,1.3
			c-1,1-3.1,2.5-4.3,2.5c-0.8,0-2.5-2-3.7-7.3c-0.4-1.7-1.6-3.1-3.2-3.8l-32.9-13.7c-0.3-0.1-7.3-3-15.8-3c-13,0-22.7,6.7-27.5,18.9
			c-0.8,2.1-0.3,4.4,1.3,5.9s3.9,2,6,1.1c0.1,0,6.7-2.7,12.8-2.7c6.3,0,7.5,2.7,7.9,3.9c4,9.8,3.4,15.8,3.2,17.2l-9,19.5L37.6,55.2
			c-1.6-1.4-4.2-1.8-6.1-0.9c-2,0.9-3.5,2.9-3.5,5v168.1c0,3,2.9,5.6,6,5.6h18.1L52,246c0,2.5,1.6,4.6,4,5.3
			c1.6,0.5,39.1,11.2,85.5,11.2c44.4,0,83.1-10.7,84.7-11.2c2.4-0.7,4-2.9,4-5.3l-0.1-15.4c0-2.2-1.3-4.2-3.3-5c0,0-0.1,0-0.1-0.1
			l-7.7-3.1c0.1-1.3,0.3-2.9,0.4-4.4c0.1-1.7,0.2-3.4,0.2-4.7c0-0.5,0-1,0-1.4l28-7.6c1.9-0.5,3.4-2,3.9-3.9
			c0.2-0.8,0.2-1.7,0.1-2.5l12-3.6c0,0,0,0,0,0c2.5-0.7,6.6-3.1,7.7-10.6C272.9,172.7,267.1,155.8,256.3,149.1z M253.3,160.8
			c6.7,7.1,8.3,19.9,6.6,22.9c-0.5,0.1-0.9-0.1-1.3-0.3c-2.9-1.9-5.4-9.1-6.1-13.4c-0.3-1.6-1.2-2.9-2.5-3.8c-1.3-0.8-3-1-4.5-0.6
			l-8.6,2.6c-0.1-2.9,0.3-5.9,1.5-8.9C244.3,155.7,249.1,156.2,253.3,160.8z M239.4,179l3.8-1.1c0.9,3,2.4,6.6,4.5,9.6l-3,0.9
			C242.8,185.8,240.8,182.6,239.4,179z M229.1,126c-3.6-2.6-7.8-6-11.6-10.3l3.4-2.8c2.7,3.5,6.7,7.8,11.1,10.7L229.1,126z
			 M220,89.6c11.7,4.6,21.7,21,21.6,25.9c-0.2,0.1-0.4,0.1-0.8,0c-4.2-0.7-10.9-8.6-14.2-13.6c-0.8-1.3-2.2-2.2-3.8-2.5
			c-1.6-0.2-3.1,0.2-4.4,1.2l-7.4,6.1c-2.1-3.9-3.6-8.2-4-12.8C210.5,88.8,214.5,87.4,220,89.6z M197.9,103.9
			c4.9,15.3,17.7,26.2,26.3,32.1c0.1,0.3,0.3,0.5,0.5,0.7c0.1,0.1,0.2,0.2,0.2,0.3l-27,20.8c-6.5-7.1-14-13-23-17.3v-11.2
			c0-0.8,0-1.6-0.3-2.3L197.9,103.9z M87.1,50C87.1,50,87.1,50,87.1,50c2.1-1,4.6-1.3,7.4-1.3c6.2,0,11.5,2.1,11.5,2.1l30.4,12.7
			c3.3,10.6,9.2,13,13.7,13c3.8,0,7.1-1.7,9.3-3.4l4.4,1.8l-9.4,24.2l-2.9-1.2c0.6-2.5,0.9-5.4-0.1-8.2c-1-3-3.2-5.3-6.4-6.6
			c-2-0.8-4.3-1.2-7-1.2c-6.1,0-12.9,2.2-16.4,3.5l-12.2-5.1c0.1-4.2-0.6-10.8-4.2-19.5C102.4,53.8,96,50,87.1,50z M106.4,90.8
			l8.4,3.5l-7.5,23.2l-9.3-8.4L106.4,90.8z M39,222v-19h4.5c3,0,5.5-2.5,5.5-5.5s-2.5-5.5-5.5-5.5H39v-18h4.5c3,0,5.5-2.5,5.5-5.5
			s-2.5-5.5-5.5-5.5H39v-19h4.5c3,0,5.5-2.5,5.5-5.5s-2.5-5.5-5.5-5.5H39v-17h4.5c3,0,5.5-2.5,5.5-5.5s-2.5-5.5-5.5-5.5H39V71.6
			l67,60v9.4c-4,2.5-9.1,5.5-13.2,8.9l-16.2-15.2c-1.6-1.5-4.1-1.9-6.1-1s-3.5,2.9-3.5,5v48.5c-2,8.2-4,16.9-4,26
			c0,2.3,0.4,5.6,0.6,8.1l-1.2,0.6H39z M84.5,157.5c-2.3,2.5-4.5,5.2-6.5,8v-14.1L84.5,157.5z M219.1,234.3l0,7.4
			c-11,2.7-42.9,9.7-77.7,9.7c-36.3,0-67.6-7-78.4-9.7l0-8.1l8.7-3.7c2.2-0.9,3.6-3.3,3.3-5.7c-0.2-2-1.1-8-1.1-11
			c0-25.2,13-47.3,32-59.5v15.2c0,3,2.5,5.5,5.5,5.5s5.5-2.5,5.5-5.5V135h18v33.9v18c0,3,2.5,5.5,5.5,5.5s5.5-2.5,5.5-5.5v-18V135
			h18v33.9c0,3,2.5,5.5,5.5,5.5s5.5-2.5,5.5-5.5v-15.8c20,12.1,33.4,34.5,33.4,60.1c0,3.3-0.6,9.7-0.9,12c-0.3,2.5,1.1,4.8,3.5,5.8
			L219.1,234.3z M218.6,200.7c-1.6-10.5-5.2-20.3-10.3-29.1l17.6-6.9c-1.1,12.8,5.3,24.2,10.4,31.2L218.6,200.7z"/>
		<path fill="#5980B7" d="M188.5,225h-95c-3,0-5.5,2.5-5.5,5.5s2.5,5.5,5.5,5.5h95c3,0,5.5-2.5,5.5-5.5S191.5,225,188.5,225z"/>
	</g>
</g>
</svg>
