<?xml version="1.0" encoding="utf-8"?>
<!-- Generator: Adobe Illustrator 18.1.1, SVG Export Plug-In . SVG Version: 6.00 Build 0)  -->
<svg version="1.1" id="Layer_1" xmlns="http://www.w3.org/2000/svg" xmlns:xlink="http://www.w3.org/1999/xlink" x="0px" y="0px"
	 viewBox="0 0 300 300" enable-background="new 0 0 300 300" xml:space="preserve">
<g>
	<path fill="none" d="M160.4,145.6c-0.1,5.4,4.2,9.9,9.7,10c0.1,0,0.2,0,0.3,0c5.3,0,9.8-4.3,9.9-9.5c0.1-2.6-0.9-5.1-2.7-7
		c-1.8-1.9-4.3-3-7-3.1c-0.1,0-0.2,0-0.3,0C165,136,160.5,140.3,160.4,145.6z"/>
	<path fill="none" d="M173.9,82.6c-45.8,0-55.9,22.2-56.9,26V147h10.4l0.2-7.3c0.1-4.3,3.7-7.7,8-7.7c0.1,0,0.1,0,0.2,0l3.4,0.1
		l-2.4-2.5c-3-3.2-2.9-8.3,0.3-11.3l7.2-6.8c1.5-1.5,3.5-2.2,5.5-2.2c2.1,0,4.2,0.8,5.8,2.5l2.4,2.5l0.1-3.4c0.1-4.3,3.7-7.8,8-7.8
		c0.1,0,0.1,0,0.2,0l9.9,0.2c4.4,0.1,7.9,3.8,7.8,8.2l-0.1,3.4c0,0,0,0,0.1,0l2.4-2.3c1.5-1.5,3.5-2.2,5.5-2.2
		c2.1,0,4.2,0.8,5.8,2.5l6.8,7.2c1.5,1.5,2.3,3.6,2.2,5.7c-0.1,2.1-0.9,4.1-2.5,5.6l-2.3,2.2c0,0.1,0,0.1,0.1,0.2l3.2,0.1
		c2.1,0.1,4.1,0.9,5.6,2.5c1.5,1.5,2.3,3.6,2.2,5.7l-0.2,9.9c-0.1,4.3-3.7,7.8-8,7.8c-0.1,0-0.1,0-0.2,0l-3.2-0.1c0,0,0,0.1-0.1,0.1
		l2.2,2.3c1.5,1.5,2.3,3.6,2.2,5.7c-0.1,2.1-0.9,4.1-2.5,5.6l-7.2,6.8c-1.5,1.4-3.5,2.2-5.5,2.2c-0.1,0-0.1,0-0.2,0
		c-2.1-0.1-4.1-0.9-5.6-2.5l-2.3-2.4c0,0,0,0-0.1,0l-0.1,3.4c-0.1,2.1-0.9,4.1-2.5,5.6c-1.5,1.4-3.5,2.2-5.5,2.2c-0.1,0-0.1,0-0.2,0
		l-9.9-0.2c-4.4-0.1-7.9-3.8-7.8-8.2l0.1-3.4l-0.4,0.4c0,2.7-2.2,4.9-5,4.9h-12v22h13c2.1,0,3.8,1.3,4.6,3c4-4.7,10.1-7.6,17-7.6
		c8.5,0,15.8,4.6,19.4,11.2l7-2c14.3-4.2,24-16.1,24-29.7v-24.1v-33.3C224,119.3,221.9,82.6,173.9,82.6z"/>
	<path fill="#CCCCCC" d="M148.5,159.6l-6.9,6.5l5.6,5.9h2.5l5.6-5.3c2.7,2,5.9,3.4,9.3,4.2l-0.2,9.4l9.9,0.2l0.2-9.3
		c3.5-0.6,6.8-1.8,9.7-3.6l6.4,6.7l7.2-6.8l-6.3-6.6c2-2.8,3.5-6,4.2-9.5l9.1,0.2l0.2-9.9l-9.1-0.2c-0.6-3.5-1.9-6.8-3.8-9.7
		l6.6-6.3l-6.8-7.2l-6.7,6.4c-2.8-2-6-3.4-9.5-4.1l0.2-9.3L166,111l-0.2,9.4c-3.4,0.6-6.7,1.9-9.5,3.7l-6.5-6.9l-7.2,6.8l6.6,6.9
		c-1.9,2.7-3.3,5.9-4.1,9.3l-9.6-0.2l-0.2,7.3c1.5,0.3,2.8,1.3,3.5,2.6l6,0.1C145.5,153.5,146.7,156.7,148.5,159.6z M170.3,128
		c0.2,0,0.3,0,0.5,0c9.9,0.2,17.7,8.4,17.5,18.2c-0.2,9.7-8.2,17.3-17.9,17.3c-0.2,0-0.3,0-0.5,0c-9.9-0.2-17.7-8.4-17.5-18.2
		C152.6,135.7,160.6,128,170.3,128z"/>
	<path fill="#CCCCCC" d="M107,133.9V108H87.8c-2.1,0-3.8,2.1-3.8,4.1v21c1,0.8,1,1.8,1,2.9V147h21v-10.9
		C106,135.3,106,134.5,107,133.9z"/>
	<path fill="#CCCCCC" d="M234,121.8v33V176h18.4c2.1,0,3.6-1.3,3.6-3.4v-60.5c0-2.1-1.5-4.1-3.6-4.1h-18.2
		C234.5,115,234,120.3,234,121.8z"/>
	<path fill="#FFFFFF" d="M173.6,72.6c25.4,0,39.9,9.3,48.1,18.9c-1.8-6.4-4.8-13-9.6-18.6c-9.1-10.6-23.2-16-42-16
		c-21.3,0-36.6,5.4-45.4,16.2c-4.7,5.7-7,12.2-8,17.9C125.8,82.1,142.7,72.6,173.6,72.6z"/>
	<path fill="#FFFFFF" d="M185.3,219.8c0-5.7-5.3-10.3-11.7-10.3s-11.7,4.6-11.7,10.3s5.3,10.3,11.7,10.3S185.3,225.5,185.3,219.8z"
		/>
	<path fill="#FFFFFF" d="M129,225v-68H62v68H129z M116,206c0,2.8-2.2,5-5,5H81c-2.8,0-5-2.2-5-5v-30c0-2.8,2.2-5,5-5h30
		c2.8,0,5,2.2,5,5V206z"/>
	<rect x="86" y="181" fill="#CCCCCC" width="20" height="20"/>
	<g>
		<path fill="#5980B7" d="M169.9,163.6c0.2,0,0.3,0,0.5,0c9.7,0,17.7-7.7,17.9-17.3c0.2-9.8-7.6-18-17.5-18.2c-0.2,0-0.3,0-0.5,0
			c-9.7,0-17.7,7.7-17.9,17.3C152.1,155.2,160,163.4,169.9,163.6z M170.3,136c0.1,0,0.2,0,0.3,0c2.7,0.1,5.1,1.2,7,3.1
			c1.8,1.9,2.8,4.4,2.7,7c-0.1,5.3-4.6,9.5-9.9,9.5c-0.1,0-0.2,0-0.3,0c-5.5-0.1-9.8-4.6-9.7-10C160.5,140.3,165,136,170.3,136z"/>
		<path fill="#5980B7" d="M116,176c0-2.8-2.2-5-5-5H81c-2.8,0-5,2.2-5,5v30c0,2.8,2.2,5,5,5h30c2.8,0,5-2.2,5-5V176z M86,181h20v20
			H86V181z"/>
	</g>
	<path fill="#5980B7" d="M252.4,98h-19h0h0c-1.5-10-5.2-21.9-13.6-31.7c-11.1-12.9-27.8-19.4-49.6-19.4c-24.4,0-42.3,6.7-53.1,19.8
		c-8.6,10.5-10.8,22.3-11,31.3h0.1v0.4c0,0.3-0.1,0.6-0.1,1c0-0.4,0-1.3,0-1.3H87.8c-7.6,0-13.8,6.6-13.8,14.1v2.8v0v32H57.1
		c-2.8,0-5.1,2.5-5.1,5.3V172H39c-2.8,0-5,2.2-5,5s2.2,5,5,5h13v22H40c-2.8,0-5,2.2-5,5s2.2,5,5,5h12v15.6c0,2.8,2.4,5.4,5.1,5.4H75
		v13.1c0,2.8,2.2,5,5,5s5-2.2,5-5V235h21v13.1c0,2.8,2.2,5,5,5s5-2.2,5-5V235h18.5c2.8,0,4.5-2.6,4.5-5.4V214h13c0.2,0,0.5,0,0.7,0
		c-0.6,1.8-0.9,3.8-0.9,5.8c0,11.2,9.8,20.3,21.7,20.3c11.8,0,21.4-8.8,21.7-19.8c0-0.2,0-0.4,0-0.6c0-3.3-0.8-6.4-2.3-9.2
		c-3.6-6.6-10.9-11.2-19.4-11.2c-6.9,0-13,3-17,7.6c-0.8-1.8-2.5-3-4.6-3h-13v-22h12c2.7,0,5-2.2,5-4.9l0.4-0.4l-0.1,3.4
		c-0.1,4.4,3.4,8.1,7.8,8.2l9.9,0.2c0.1,0,0.1,0,0.2,0c2.1,0,4-0.8,5.5-2.2c1.5-1.5,2.4-3.5,2.5-5.6l0.1-3.4c0,0,0,0,0.1,0l2.3,2.4
		c1.5,1.5,3.5,2.4,5.6,2.5c0.1,0,0.1,0,0.2,0c2.1,0,4-0.8,5.5-2.2l7.2-6.8c1.5-1.5,2.4-3.5,2.5-5.6c0.1-2.1-0.7-4.2-2.2-5.7
		l-2.2-2.3c0,0,0-0.1,0.1-0.1l3.2,0.1c0.1,0,0.1,0,0.2,0c4.3,0,7.9-3.5,8-7.8l0.2-9.9c0.1-2.1-0.7-4.2-2.2-5.7
		c-1.5-1.5-3.5-2.4-5.6-2.5l-3.2-0.1c0-0.1,0-0.1-0.1-0.2l2.3-2.2c1.5-1.5,2.4-3.5,2.5-5.6c0.1-2.1-0.7-4.2-2.2-5.7l-6.8-7.2
		c-1.6-1.7-3.7-2.5-5.8-2.5c-2,0-4,0.7-5.5,2.2l-2.4,2.3c0,0,0,0-0.1,0l0.1-3.4c0.1-4.4-3.4-8.1-7.8-8.2l-9.9-0.2
		c-0.1,0-0.1,0-0.2,0c-4.3,0-7.9,3.5-8,7.8l-0.1,3.4l-2.4-2.5c-1.6-1.7-3.7-2.5-5.8-2.5c-2,0-4,0.7-5.5,2.2l-7.2,6.8
		c-3.2,3-3.3,8.1-0.3,11.3l2.4,2.5l-3.4-0.1c-0.1,0-0.1,0-0.2,0c-4.3,0-7.9,3.3-8,7.7l-0.2,7.3H117v-38.3v-1.2
		c2.6-5.9,14.2-24.9,56.6-24.9c48,0,50.1,36.7,50.1,38.9c0,0,0,0,0,0.1c0,0.5,0.1,1.1,0.3,1.6v31.7v15.8v8.3
		c0,13.6-9.8,25.5-24,29.7l-6.9,2c1.5,2.8,2.3,5.9,2.3,9.2c0,0.2,0,0.4,0,0.6l7.3-2.2c16-4.7,27.6-17,30.5-31.8c0-0.1,0-0.4,0.1-0.4
		h19.3c7.6,0,13.6-5.8,13.6-13.4v-60.5C266,104.6,260,98,252.4,98z M173.6,209.4c6.5,0,11.7,4.6,11.7,10.3s-5.3,10.3-11.7,10.3
		s-11.7-4.6-11.7-10.3S167.1,209.4,173.6,209.4z M135.4,147.2l0.2-7.3l9.6,0.3c0.7-3.4,2.1-6.5,4.1-9.3l-6.6-6.9l7.2-6.8l6.5,6.9
		c2.8-1.8,6-3.1,9.5-3.7l0.2-9.4l9.9,0.2l-0.2,9.3c3.5,0.7,6.7,2.1,9.5,4.1l6.7-6.4l6.8,7.2l-6.6,6.3c1.9,2.9,3.2,6.2,3.8,9.7
		l9.1,0.2l-0.2,9.9l-9.1-0.2c-0.8,3.5-2.2,6.7-4.2,9.5l6.3,6.6l-7.2,6.8l-6.4-6.7c-2.9,1.8-6.2,3.1-9.7,3.6l-0.2,9.3l-9.9-0.2
		l0.2-9.4c-3.4-0.8-6.6-2.3-9.3-4.2l-5.6,5.3h-2.5l-5.6-5.9l6.9-6.6c-1.8-2.8-3-6-3.6-9.4l-6.2-0.1c-0.7-1.3-1.9-2.4-3.4-2.7
		c-0.3-0.1-0.5-0.2-0.8-0.2C134.8,147.1,135.1,147.2,135.4,147.2z M87.8,108H106v39H85v-33.5C84.9,108.7,86.7,108,87.8,108z
		 M129,157v68H62v-68H129z M173.6,72.6c-30.9,0-47.8,9.5-56.9,18.4c1-5.7,3.3-12.2,8-17.9c8.8-10.7,24.1-16.2,45.4-16.2
		c18.8,0,32.9,5.4,42,16c4.8,5.6,7.8,12.1,9.6,18.6C213.5,82,199,72.6,173.6,72.6z M256,172.6c0,2.1-1.5,3.4-3.6,3.4H234v-5.4v-15.8
		v-33v-2.9c0.2-2.4,0.4-6.1,0.3-10.6c0-0.1,0-0.3,0-0.3h0h9h9.1c2.1,0,3.6,2.1,3.6,4.1V172.6z"/>
</g>
</svg>
