<?xml version="1.0" encoding="utf-8"?>
<!-- Generator: Adobe Illustrator 18.1.1, SVG Export Plug-In . SVG Version: 6.00 Build 0)  -->
<svg version="1.1" id="Layer_1" xmlns="http://www.w3.org/2000/svg" xmlns:xlink="http://www.w3.org/1999/xlink" x="0px" y="0px"
	 viewBox="0 0 300 300" enable-background="new 0 0 300 300" xml:space="preserve">
<g>
	<path fill="#FFFFFF" d="M169.3,135.5c0-6-0.1-14.2-0.3-24.5c-0.2-10.4-0.3-18.2-0.3-23.3c0-4.6-1.9-6.1-2.5-6.6
		c-2-1.6-4.7-2.3-8.2-2.3c-3.1,0-5.4,0.8-7.1,2.5c-1.7,1.7-2.4,3.7-2.4,6.4l1.2,56.1c0,14.2-1.3,24.5-3.9,31.7
		c-3,8.3-9.2,12.7-18,12.7c-4.8,0-9.4-1.6-13.9-4.9c-4.5-3.2-7.4-3.9-9.1-3.9c-2.1,0-3.8,0.7-5.3,2.3c-1.6,1.6-2.3,3.6-2.3,6
		c0,3.2,1.6,6.1,4.8,9c7,5.8,15.3,8.7,25.1,8.7c26.9,0,40.5-15.4,41.6-47.2C169.1,148.8,169.3,141.1,169.3,135.5z"/>
	<path fill="#CDCCCC" d="M195,99.9c-2.2,0-4,0.7-5.6,2.4c-1.6,1.6-2.4,3.4-2.4,5.6c0,2.2,0.7,3.9,2.3,5.6c1.5,1.6,3.3,2.3,5.6,2.3
		c2.2,0,4-0.7,5.6-2.3c1.6-1.6,2.3-3.4,2.3-5.6c0-2.2-0.7-4-2.3-5.6S197.3,99.9,195,99.9z"/>
	<path fill="#CDCCCC" d="M178,139h6.8c2.2,0,4.2,1.4,4.2,3.6v52.6c0,4.3-0.4,7.2-1.2,9.1c-0.9,2.4-2.7,4.4-5.4,5.8
		c-2.4,1.2-5.8,1.9-10.8,1.9c0,0-0.7,0-0.7,0v9.3c1,0,2.7,0.1,4.1,0.1c8,0,14.1-1,18-3.1c3.6-1.9,5.8-4.4,7-7.6
		c1.4-3.7,1.9-9.6,1.9-17.6v-62h-24V139z"/>
	<path fill="#5A81B8" d="M206.6,123h-6.3c2.2-1,4.2-2.1,6-3.9c3.1-3.1,4.7-6.9,4.7-11.3c0-4.4-1.6-8.2-4.7-11.3s-6.9-4.7-11.3-4.7
		c-4.3,0-8.1,1.6-11.2,4.7c-3.1,3.1-4.7,6.9-4.7,11.2c0,4.3,1.5,8.1,4.5,11.2c1.8,1.9,3.8,3,6.1,4h-12.3c0-4-0.1-7.7-0.2-12.1
		c-0.2-10.3-0.3-18.1-0.3-23.1c0-5.7-1.9-10.2-5.7-13.1c-3.5-2.7-7.9-4.1-13.3-4.1c-5.3,0-9.6,1.6-12.9,4.9c-3.4,3.3-5,7.6-4.9,12.6
		l1.2,56c0,13-1.1,22.6-3.4,28.8c-1.8,5-5,7.2-10.2,7.2c-3,0-6-1.1-9.1-3.3c-5.2-3.7-9.7-5.4-13.9-5.4c-4.4,0-8.2,1.6-11.3,4.9
		c-3,3.2-4.5,7.1-4.5,11.7c0,5.6,2.6,10.8,7.7,15.3c8.5,7.1,18.8,10.7,30.5,10.7c15.8,0,28.1-4.8,36.5-14.2
		c8.3-9.2,12.8-22.9,13.4-40.9c0.1-4.4,0.2-8.8,0.3-11.8h3.6v48.2c0,4.5-0.5,6-0.7,6.3c-0.2,0.5-0.7,0.9-1.6,1.3
		c-0.5,0.3-2.3,0.9-7.1,0.9c-1.1,0-2.3-0.1-3.6-0.2c-1.1-0.1-2.6,0.2-3.5,1s-1.7,1.9-1.7,3v17.6c0,2,1.8,3.8,3.8,4
		c2.2,0.3,5.1,0.4,8.4,0.4c9.4,0,16.6-1.3,21.7-4c5.4-2.8,8.8-6.8,10.7-11.9c1.7-4.6,2.3-11.3,2.3-20.5v-66.1
		C210,124.7,208.8,123,206.6,123z M168.9,158.3c-1.1,31.8-14.7,47.2-41.6,47.2c-9.9,0-18.1-2.9-25.1-8.7c-3.2-2.8-4.8-5.8-4.8-9
		c0-2.5,0.7-4.4,2.3-6c1.5-1.6,3.2-2.3,5.3-2.3c1.6,0,4.5,0.7,9.1,3.9c4.5,3.2,9.2,4.9,13.9,4.9c8.8,0,15-4.4,18-12.7
		c2.6-7.1,3.9-17.5,3.9-31.7l-1.2-56.1c-0.1-2.7,0.7-4.8,2.4-6.4c1.7-1.7,4.1-2.5,7.1-2.5c3.5,0,6.2,0.8,8.2,2.3
		c0.6,0.5,2.5,2,2.5,6.6c0,5,0.1,12.9,0.3,23.3c0.2,10.3,0.3,18.5,0.3,24.5C169.3,141.1,169.1,148.8,168.9,158.3z M189.4,113.3
		c-1.6-1.6-2.3-3.4-2.3-5.6c0-2.2,0.7-4,2.4-5.6c1.6-1.6,3.4-2.4,5.6-2.4c2.2,0,4,0.7,5.6,2.3s2.3,3.4,2.3,5.6c0,2.2-0.7,4-2.3,5.6
		c-1.6,1.6-3.4,2.3-5.6,2.3C192.7,115.7,191,114.9,189.4,113.3z M202,193c0,8-0.4,14-1.8,17.6c-1.2,3.2-3.4,5.7-7.1,7.6
		c-3.9,2.1-10.2,3.1-18.1,3.1c-1.4,0-3,0-4-0.1V212c0,0,0.7,0,0.7,0c4.9,0,8.4-0.7,10.7-1.9c2.6-1.4,4.5-3.3,5.4-5.7
		c0.7-1.9,1.2-4.9,1.2-9.2v-52.6c0-2.2-2-3.6-4.2-3.6H178v-8h24V193z"/>
</g>
</svg>
