<?xml version="1.0" encoding="utf-8"?>
<!-- Generator: Adobe Illustrator 18.1.1, SVG Export Plug-In . SVG Version: 6.00 Build 0)  -->
<svg version="1.1" id="Layer_1" xmlns="http://www.w3.org/2000/svg" xmlns:xlink="http://www.w3.org/1999/xlink" x="0px" y="0px"
	 viewBox="0 0 300 300" enable-background="new 0 0 300 300" xml:space="preserve">
<g>
	<path fill="none" d="M88,206.8L88,206.8l5.7-0.2c3.5,0,5.4,1.3,5.4,3.9c0,0,0.1,0,0.1,0c0-2.6-2-3.9-5.5-3.9L88,206.8z"/>
	<path fill="none" d="M93.4,199.2c1.3,0,2.5-0.4,3.3-1.1c0.8-0.7,1.3-1.7,1.3-3.1c0,0,0,0,0,0c0,1.3-0.5,2.3-1.3,3.1
		C95.9,198.8,94.7,199.2,93.4,199.2c-0.3,0-1.4,0-2.7,0s-1.6,0-2.6,0c1,0,1.3,0,2.6,0S93,199.2,93.4,199.2z"/>
	<path fill="none" d="M171.5,122c-1,0.8-2.3,1.2-3.8,1.2c-2.2,0-3.6-0.9-4.3-2.7c-1.2-3-2-5-2.2-5.8c0.2,0.8,1,3,2.2,5.9
		c0.7,1.7,2.1,2.6,4.3,2.6C169.2,123.3,170.5,122.9,171.5,122c1-0.8,1.5-1.7,1.5-2.7c0,0,0,0,0,0C173,120.3,172.5,121.2,171.5,122z"
		/>
	<path fill="none" d="M142.8,103.4l6.6-16c0.4-1,1.1-1.7,2.1-2.3c1-0.5,2-0.8,3.1-0.8c3,0,4.9,1.1,5.7,3.3c1.5,3.4,3.9,9.2,7.1,17.3
		c0.3,0.5,0.6,1.2,1,2.1c0.1,0.2,0.2,0.5,0.3,0.7c-0.1-0.2-0.2-0.5-0.3-0.7c-0.4-0.9-0.8-1.6-1-2.1c-3.2-8.1-5.6-13.9-7.1-17.3
		c-0.8-2.2-2.7-3.3-5.7-3.3c-1.1,0-2.1,0.3-3.1,0.8c-1,0.5-1.7,1.3-2.1,2.3L142.8,103.4c-1.4,3.5-3,7.3-4.9,11.3
		c-0.7,1.6-1.1,3-1.1,4c0,0,0,0,0,0c0-1.1,0.4-2.4,1.1-4C139.8,110.7,141.4,106.9,142.8,103.4z"/>
	<path fill="#CCCCCC" d="M198,137.2V72.6c0-6.3-4.7-11.6-11-11.6h-64.5c-5,0-9.3,3.3-10.9,7.8c0,0.2,0.1,0.6,0.1,0.8
		c0.1,0.7,0,1.4-0.2,2.1l-0.5,1.6v63.8c0,6.3,5.1,10.8,11.4,10.8h2.7h50H187C193.3,148,198,143.5,198,137.2z M194,132.3
		c0,6.5-5.2,11.7-11.7,11.7h-54.6c-6.5,0-11.7-5.2-11.7-11.7V77.7c0-6.5,5.2-11.7,11.7-11.7h54.6c6.5,0,11.7,5.2,11.7,11.7V132.3z"
		/>
	<path fill="#FFFFFF" d="M183,77.7c0-0.4-0.3-0.7-0.7-0.7h-54.6c-0.4,0-0.7,0.3-0.7,0.7v54.6c0,0.4,0.3,0.7,0.7,0.7h54.6
		c0.4,0,0.7-0.3,0.7-0.7V77.7z M173,119.4c0,1-0.5,1.9-1.5,2.7c-1,0.8-2.3,1.2-3.8,1.2c-2.2,0-3.6-0.9-4.3-2.6c-1.2-3-2-5.3-2.2-6.2
		c-0.8,0-3.4-0.5-7.9-0.5h-5l-2,6c-0.8,1.9-2.1,3.1-3.9,3.1c-1.5,0-2.8-0.3-3.9-1c-1.1-0.7-1.7-1.8-1.7-3.3c0,0,0,0,0,0c0,0,0,0,0,0
		c0-1.1,0.4-2.4,1.1-4c1.9-4,3.5-7.8,4.9-11.3l6.6-16c0.4-1,1.1-1.7,2.1-2.3c1-0.5,2-0.8,3.1-0.8c3,0,4.9,1.1,5.7,3.3
		c1.5,3.4,3.9,9.2,7.1,17.3c0.3,0.5,0.6,1.2,1,2.1c0.1,0.2,0.2,0.5,0.3,0.7c1.8,4.5,3,7.5,3.6,8.8C172.8,117.5,173,118.4,173,119.4
		C173,119.3,173,119.3,173,119.4C173,119.4,173,119.4,173,119.4z"/>
	<path fill="#FFFFFF" d="M154.8,95.5c-0.4,1.4-1.1,3.5-2,6.4c-0.9,2.9-1.6,4.7-1.9,5.6c2.6,0,5.2,0,7.8-0.1c-0.1-0.3-0.7-2-1.7-5.3
		C155.8,98.9,155.1,96.7,154.8,95.5z"/>
	<path fill="#CCCCCC" d="M69,159h-8.4c-6.3,0-11.6,5.8-11.6,12.2v64.5c0,6.3,5.3,11.3,11.6,11.3h64.5c6.3,0,11.9-4.9,11.9-11.3
		v-64.5c0-6.3-5.5-12.2-11.9-12.2h-2.7h-48c-0.9,0-1.8,0.2-2.8,0.2C70.8,159.2,69.9,159,69,159z M132,230.3
		c0,6.5-5.2,11.7-11.7,11.7H65.7c-6.5,0-11.7-5.2-11.7-11.7v-54.6c0-6.5,5.2-11.7,11.7-11.7h54.6c6.5,0,11.7,5.2,11.7,11.7V230.3z"
		/>
	<path fill="#FFFFFF" d="M93.9,206.6l-5.4,0l0.1,7.4h5.7c1.5,0,2.7-0.2,3.6-0.9c0.9-0.6,1.4-1.5,1.4-2.8
		C99.2,207.8,97.4,206.6,93.9,206.6z"/>
	<path fill="#FFFFFF" d="M93.4,199.2c1.3,0,2.4-0.4,3.2-1.1c0.8-0.7,1.2-1.7,1.2-3.1c0-1.1-0.4-2.1-1.2-2.8c-0.8-0.7-1.8-1.3-3-1.3
		h-1.5H90h-2v8.3c1,0,1.3,0,2.6,0S93,199.2,93.4,199.2z"/>
	<path fill="#FFFFFF" d="M121,175.7c0-0.4-0.3-0.7-0.7-0.7H65.7c-0.4,0-0.7,0.3-0.7,0.7v54.6c0,0.4,0.3,0.7,0.7,0.7h54.6
		c0.4,0,0.7-0.3,0.7-0.7V175.7z M79.9,185.3c0.6-0.8,1.4-1.3,2.4-1.4c1.8-0.3,5.6-0.4,11.5-0.4c3.9,0,7.1,1.1,9.5,3.2
		c2.4,2.1,3.7,4.7,3.7,7.8c0,1.8-0.5,3.3-1.4,4.7s-2.1,2.3-3.5,2.8c1.9,0.4,3.5,1.4,4.8,2.8c1.3,1.5,2,3.2,2,5.3
		c0,3.6-0.9,6.4-2.8,8.3s-4.5,3.1-7.8,3.4c-2,0.2-5.3,0.3-10,0.3l-4.9-0.1c-1.2,0-2.1-0.4-2.9-1.2s-1.2-1.9-1.3-3.3l0.1-6.1l0.1-7.4
		c0-1.8,0-4.4-0.1-7.9c-0.1-3.5-0.1-6.2-0.1-7.9C78.9,187.2,79.2,186.1,79.9,185.3z"/>
	<path fill="#CCCCCC" d="M239.6,159H187h-11.9c-6.3,0-11.1,5.8-11.1,12.2v64.5c0,6.3,4.8,11.3,11.1,11.3h64.5
		c6.3,0,11.4-4.9,11.4-11.3v-64.5C251,164.8,246,159,239.6,159z M247,230.3c0,6.5-5.2,11.7-11.7,11.7h-54.6
		c-6.5,0-11.7-5.2-11.7-11.7v-54.6c0-6.5,5.2-11.7,11.7-11.7h54.6c6.5,0,11.7,5.2,11.7,11.7V230.3z"/>
	<path fill="#FFFFFF" d="M236,175.7c0-0.4-0.3-0.7-0.7-0.7h-54.6c-0.4,0-0.7,0.3-0.7,0.7v54.6c0,0.4,0.3,0.7,0.7,0.7h54.6
		c0.4,0,0.7-0.3,0.7-0.7V175.7z M218.2,221.8c-2.8,1.2-5.8,1.8-9.2,1.7c-2.3,0-4.5-0.5-6.7-1.4c-2.2-0.9-4.1-2.1-5.9-3.7
		s-3.1-3.6-4.1-6c-1-2.5-1.5-5.2-1.4-8.1c0.1-4,1.1-7.6,3-10.7c1.9-3.2,4.3-5.5,7.2-7.1c2.9-1.6,5.9-2.3,9-2.3
		c3.4,0.1,6.2,0.6,8.3,1.5c1.1,0.5,2,1.1,2.6,1.7c0.6,0.6,0.9,1.5,0.8,2.6c0,1.3-0.4,2.4-1,3.2s-1.6,1.2-2.9,1.2
		c-0.8,0-1.8-0.3-3.1-0.8c-1.6-0.6-3.3-1-5.2-1c-2.5,0-4.7,1.1-6.5,3.2s-2.8,4.9-2.8,8.4c0,3.2,0.9,5.7,2.9,7.6
		c2,1.9,4.2,2.9,6.6,2.9c1.6,0,3.4-0.3,5.5-1.1c1.4-0.8,2.5-1.1,3.3-1.1c1.2,0,2.1,0.5,2.8,1.6c0.7,1,1,2.2,0.9,3.5
		C222.4,219.2,221,220.6,218.2,221.8z"/>
	<path fill="#CCCCCC" d="M68.8,148l1.3,0.4c0.5,0.2,1.1,0.3,1.7,0.3c2.4,0,4.6-1.6,5.3-3.9l1.7-5.6l-11.9-3.7l-1.7,5.6
		c-0.4,1.4-0.3,2.9,0.4,4.2C66.2,146.6,67.3,147.6,68.8,148z"/>
	<g>
		<path fill="#5980B7" d="M194,77.7c0-6.5-5.2-11.7-11.7-11.7h-54.6c-6.5,0-11.7,5.2-11.7,11.7v54.6c0,6.5,5.2,11.7,11.7,11.7h54.6
			c6.5,0,11.7-5.2,11.7-11.7V77.7z M183,132.3c0,0.4-0.3,0.7-0.7,0.7h-54.6c-0.4,0-0.7-0.3-0.7-0.7V77.7c0-0.4,0.3-0.7,0.7-0.7h54.6
			c0.4,0,0.7,0.3,0.7,0.7V132.3z"/>
		<path fill="#5980B7" d="M168.7,107.8c-0.1-0.2-0.2-0.5-0.3-0.7c-0.4-0.9-0.8-1.6-1-2.1c-3.2-8.1-5.6-13.9-7.1-17.3
			c-0.8-2.2-2.7-3.3-5.7-3.3c-1.1,0-2.1,0.3-3.1,0.8c-1,0.5-1.7,1.3-2.1,2.3l-6.6,16c-1.4,3.6-3,7.3-4.9,11.3c-0.7,1.6-1.1,3-1.1,4
			c0,0,0,0,0,0c0,1.5,0.6,2.6,1.7,3.4c1.1,0.7,2.4,1.1,3.9,1.1c1.9,0,3.2-1.4,3.9-3.2l2-6h5c4.5,0,7.1,0.5,7.9,0.5
			c0.2,0.8,1,3,2.2,5.9c0.7,1.7,2.1,2.7,4.3,2.7c1.5,0,2.8-0.4,3.8-1.2c1-0.8,1.5-1.7,1.5-2.6c0,0,0,0,0,0c0-0.9-0.2-1.8-0.7-2.8
			C171.7,115.2,170.5,112.3,168.7,107.8z M150.9,107.6c0.3-0.9,0.9-2.8,1.9-5.6c0.9-2.9,1.6-5,2-6.4c0.3,1.1,1,3.3,2.1,6.6
			c1.1,3.3,1.7,5,1.7,5.3C156.1,107.5,153.5,107.6,150.9,107.6z"/>
		<path fill="#5980B7" d="M132,175.7c0-6.5-5.2-11.7-11.7-11.7H65.7c-6.5,0-11.7,5.2-11.7,11.7v54.6c0,6.5,5.2,11.7,11.7,11.7h54.6
			c6.5,0,11.7-5.2,11.7-11.7V175.7z M121,230.3c0,0.4-0.3,0.7-0.7,0.7H65.7c-0.4,0-0.7-0.3-0.7-0.7v-54.6c0-0.4,0.3-0.7,0.7-0.7
			h54.6c0.4,0,0.7,0.3,0.7,0.7V230.3z"/>
		<path fill="#5980B7" d="M247,175.7c0-6.5-5.2-11.7-11.7-11.7h-54.6c-6.5,0-11.7,5.2-11.7,11.7v54.6c0,6.5,5.2,11.7,11.7,11.7h54.6
			c6.5,0,11.7-5.2,11.7-11.7V175.7z M236,230.3c0,0.4-0.3,0.7-0.7,0.7h-54.6c-0.4,0-0.7-0.3-0.7-0.7v-54.6c0-0.4,0.3-0.7,0.7-0.7
			h54.6c0.4,0,0.7,0.3,0.7,0.7V230.3z"/>
		<path fill="#5980B7" d="M101.9,202c1.4-0.5,2.6-1.5,3.5-2.8s1.4-2.9,1.4-4.7c0-3.1-1.2-5.6-3.7-7.8c-2.4-2.1-5.6-3.2-9.5-3.2
			c-5.9,0-9.7,0.1-11.5,0.4c-0.9,0.2-1.7,0.6-2.4,1.4c-0.6,0.8-0.9,1.8-0.9,3c0,1.8,0,4.4,0.1,7.9c0.1,3.5,0.1,6.2,0.1,7.9l-0.1,7.4
			l-0.1,6.1c0.1,1.4,0.6,2.5,1.3,3.3s1.7,1.2,2.9,1.2l4.9,0.1c4.6,0,8-0.1,10-0.3c3.3-0.3,5.9-1.5,7.8-3.4s2.8-4.7,2.8-8.3
			c0-2.1-0.7-3.8-2-5.3C105.4,203.3,103.8,202.4,101.9,202z M88,191h2h2.2h1.5c1.2,0,2.3,0.6,3.1,1.3c0.8,0.7,1.2,1.7,1.2,2.8
			c0,0,0,0,0,0c0,1.3-0.5,2.3-1.3,3.1c-0.8,0.7-1.9,1.1-3.3,1.1c-0.4,0-1.5,0-2.8,0s-1.7,0-2.7,0V191z M99.2,210.4
			c0,1.3-0.5,2.1-1.4,2.7c-0.9,0.6-2.1,0.9-3.6,0.9h-5.7l-0.5-7.2v0l5.7-0.2C97.2,206.6,99.2,207.9,99.2,210.4
			C99.2,210.4,99.2,210.4,99.2,210.4z"/>
		<path fill="#5980B7" d="M218.7,212.6c-0.8,0-1.9,0.3-3.3,1.1c-2.1,0.8-3.9,1.2-5.5,1.1c-2.4,0-4.6-1-6.6-2.9c-2-1.9-3-4.4-2.9-7.6
			c0-3.4,1-6.2,2.8-8.4s4-3.2,6.5-3.2c1.9,0,3.6,0.3,5.2,1c1.3,0.5,2.3,0.8,3.1,0.8c1.3,0,2.2-0.4,2.9-1.2s1-1.9,1-3.2
			c0-1.1-0.2-2-0.8-2.6c-0.6-0.6-1.4-1.2-2.6-1.7c-2.1-0.9-4.9-1.4-8.3-1.5c-3.1-0.1-6.2,0.7-9,2.3c-2.9,1.6-5.3,4-7.2,7.1
			c-1.9,3.2-2.9,6.7-3,10.7c0,2.9,0.4,5.6,1.4,8.1c1,2.5,2.4,4.5,4.1,6s3.7,2.8,5.9,3.7c2.2,0.9,4.4,1.4,6.7,1.4
			c3.4,0.1,6.4-0.5,9.2-1.7s4.2-2.6,4.2-4.2c0-1.3-0.3-2.4-0.9-3.5C220.8,213.1,219.9,212.6,218.7,212.6z"/>
		<path fill="#5980B7" d="M239.6,148h-33.3c2-3,2.7-6.6,2.7-10.8V72.6c0-12.4-9.6-22.6-22-22.6h-64.5c-5.3,0-10.1,1.9-14,4.9l0,0
			l-2-9c-0.4-1.9-1.8-3.4-3.7-4c-1.9-0.6-3.9-0.1-5.4,1.2L80,59c-0.7,0.7-1.2,1.5-1.5,2.4L58,126.9c0,0,0,0,0,0l-3.4,10.8
			c-1.2,3.9-1,7.9,0.6,11.6c0.2,0.3,0.3,0.7,0.5,1c-0.2-0.3-0.4-0.7-0.5-1c-9.8,2.4-17.2,11.3-17.2,21.9v64.5
			c0,12.4,10.2,22.3,22.6,22.3h64.5c12.4,0,22.9-9.9,22.9-22.3v-64.5c0-4.2-1.3-8.5-3.3-11.8c0,0-0.1-0.3-0.1-0.3h11.2
			c1.1-2,2.4-3,4-4.5c-1.5,1.4-2.7,3.1-3.8,4.9c-2,3.4-3,7.5-3,11.7v64.5c0,12.4,9.7,22.3,22.1,22.3h64.5c12.4,0,22.4-9.9,22.4-22.3
			v-64.5C262,158.8,252.1,148,239.6,148z M103.1,148H87.4c0,0,0.1,0,0.1-0.2l1-2.9c0,0,0,0,0,0l11.4-36.5l0.1-0.3v0.3v10.2v18.4
			C100,141.4,101.1,145,103.1,148z M88.6,66.1l9.2-8.5l2.7,12.2l-18.4,58.9L70.1,125L88.6,66.1z M65.1,141l1.7-5.6l11.9,3.7
			l-1.7,5.6c-0.7,2.3-2.9,3.9-5.3,3.9c-0.6,0-1.1-0.1-1.7-0.3l-1.3-0.4c-1.4-0.4-2.6-1.4-3.3-2.7C64.8,144,64.7,142.4,65.1,141z
			 M137,235.7c0,6.3-5.5,11.3-11.9,11.3H60.6c-6.3,0-11.6-4.9-11.6-11.3v-64.5c0-6.3,5.3-12.2,11.6-12.2H69c0.9,0,1.8,0.2,2.7,0.2
			c0.9,0,1.9-0.2,2.8-0.2h48h2.7c6.3,0,11.9,5.8,11.9,12.2V235.7z M125.1,148h-2.7c-6.3,0-11.4-4.5-11.4-10.8v-18.4V73.3v-0.3
			l0.4-1.4c0.2-0.6,0.3-1.3,0.2-2c0-0.2,0-0.7-0.1-0.9c1.6-4.5,5.8-7.8,10.9-7.8H187c6.3,0,11,5.3,11,11.6v64.5
			c0,6.3-4.7,10.8-11,10.8h-11.9H125.1z M251,235.7c0,6.3-5,11.3-11.4,11.3h-64.5c-6.3,0-11.1-4.9-11.1-11.3v-64.5
			c0-6.3,4.8-12.2,11.1-12.2H187h52.7c6.3,0,11.4,5.8,11.4,12.2V235.7z"/>
	</g>
</g>
</svg>
