<?xml version="1.0" encoding="utf-8"?>
<!-- Generator: Adobe Illustrator 18.1.1, SVG Export Plug-In . SVG Version: 6.00 Build 0)  -->
<svg version="1.1" id="Layer_1" xmlns="http://www.w3.org/2000/svg" xmlns:xlink="http://www.w3.org/1999/xlink" x="0px" y="0px"
	 viewBox="0 0 300 300" enable-background="new 0 0 300 300" xml:space="preserve">
<g>
	<path fill="none" d="M183.2,230.2c0.2,0.5,0.3,1.3,0.5,1.9c0.6-0.2,1.2-0.2,1.8-0.2h6.5v-11h-9c0,0,0.1,0.1,0.1,0.2
		C184.1,224.3,184.1,227.3,183.2,230.2z"/>
	<path fill="#CCCCCC" d="M101.6,128.9c-1.9-1-3.5-2.3-4.9-3.8c-1.3,0.3-2.7,0.4-4.1,0.4c-4,0-7.8-1.2-10.9-3.2
		c-5,0.9-9.4,2.4-13.1,4.3c-4.7,2.4-8.2,5.6-10.8,9.6c6.4-3.7,14.4-7,22.2-7c5.7,0,13.3,1.7,19.2,9.7h0.6c0,0-0.1-1.2-0.1-1.7
		C99.6,134.3,100.3,131.4,101.6,128.9z"/>
	<path fill="#FFFFFF" d="M135.2,166c0,5,0.1,10.7,0.4,16.9c1.3,23.6,4.9,28.1,5.6,28.7c1.9,0.4,4.3,0.5,7.7,0.5
		c2.1,0,4.5-0.1,6.7-0.2c2.3-0.1,4.7-0.2,6.9-0.2c0.6,0,1.3,0,2.1,0c0.1-0.1,0.1-0.2,0.2-0.2l19.2-42.9l0.8-2.6H135.2z"/>
	<path fill="#FFFFFF" d="M160.9,150c-1.8,2-3.9,4-6.4,5h35.7c0.6-1,1.8-2.1,2.8-2.6V150H160.9z"/>
	<path fill="#FFFFFF" d="M134.7,153.2c0.3,0.6,0.5,0.8,0.6,1.8h2.6C136.8,154,135.7,153.9,134.7,153.2z"/>
	<path fill="#CCCCCC" d="M194.7,76.1c2.9-2.6,5.8-4.8,8.4-6.6c-2.1-0.2-4.1-0.3-6-0.3c-2.7,0-5.3,0.2-7.8,0.6
		c-0.1,0.1-0.1,0.2-0.2,0.3C191.4,71.7,193.3,73.7,194.7,76.1z"/>
	<path fill="#CCCCCC" d="M238.7,136c-3.6-12.9-11.2-20.5-23.1-23.2c-1.7,2.5-4.1,4.6-6.8,6.1c1,2.1,1.7,4.3,1.9,6.7
		c0.7-0.1,1.4-0.1,2-0.1C221.9,125.4,231.5,130.8,238.7,136z"/>
	<path fill="#CCCCCC" d="M104.9,41.6c1.2,1.4,2.6,2.8,3.9,4.4c2,0.3,3.9,0.8,5.7,1.7c1-0.9,2.1-1.8,3.2-2.5
		C113.8,43.3,109.6,42,104.9,41.6z"/>
	<path fill="#FFFFFF" d="M186.2,108.2c0,4.5-3.8,8.2-8.6,8.2c-1.4,0-2.6-0.3-3.8-0.9c-1.1,5.7-4.8,10.6-9.9,13.3
		c1,1.9,1.6,4.1,1.8,6.3c3.1-0.6,5.6-2.6,6.6-5.4c0.8-2.2,2.9-3.7,5.2-3.7s4.4,1.5,5.2,3.7c1.2,3.3,4.5,5.6,8.3,5.6
		c4.8,0,8.7-3.6,8.7-8.1c0-2.7-1.5-5.3-4-6.8c-2.1-1.3-3.1-3.9-2.4-6.3c0.7-2.4,3-4.1,5.5-4l0.4-0.1c0,0,0,0,0,0
		c4.8,0,8.7-3.5,8.7-8c0-4.5-3.9-8.1-8.7-8.1c-2,0-3.9,0.7-5.5,1.9c-2,1.5-4.9,1.5-6.8-0.1c-2-1.6-2.6-4.4-1.4-6.7
		c0.5-1.1,0.8-2.2,0.8-3.4c0-3.3-2.1-6.1-5-7.4c1.2,2.5,1.8,5.2,1.8,8.1c0,5.3-2.3,10.1-5.9,13.6c0.1,0,0.2,0,0.4,0
		C182.4,100,186.2,103.6,186.2,108.2z"/>
	<path fill="#FFFFFF" d="M112.2,93.1c0.3,0,0.7,0,1,0.1c0.1-0.6,0.2-1.3,0.4-1.9C113.2,91.9,112.8,92.6,112.2,93.1z"/>
	<path fill="#FFFFFF" d="M102.6,94.9c-3-1.3-5.1-4.2-5.1-7.5c0-4.5,3.8-8.2,8.6-8.2s8.6,3.7,8.6,8.2c0,0.4,0,0.7-0.1,1.1
		c0.6-1.5,1.4-2.9,2.4-4.1c0.2-2.2,0.9-4.4,1.9-6.3c-6.1-3.3-10.2-9.5-10.2-16.7c0-1.4,0.2-2.7,0.4-4c-0.9-0.3-2-0.5-3-0.5
		c-4.8,0-8.7,3.6-8.7,8.1c0,1.2,0.3,2.3,0.8,3.4c1.1,2.3,0.5,5.1-1.4,6.7c-2,1.6-4.8,1.7-6.8,0.1c-1.6-1.2-3.5-1.8-5.5-1.8
		c-4.8,0-8.7,3.6-8.7,8.1s3.9,8.1,8.7,8.1l0.4,0c2.5-0.1,4.8,1.5,5.5,3.9c0.7,2.4-0.3,5-2.4,6.3c-2.5,1.5-4,4.1-4,6.8
		c0,4.2,3.4,7.6,7.7,8.1c-0.1-0.8-0.2-1.5-0.2-2.3C91.4,104.6,96,98,102.6,94.9z"/>
	<path fill="#FFFFFF" d="M149.3,85.3c0.2,0,0.4-0.1,0.7-0.1c2.3,0,4.4,1.5,5.2,3.7c0.8,2.3,2.6,4,4.9,4.9c0.4,0.1,0.7,0.2,1,0.3
		c0.8,0.2,1.5,0.3,2.3,0.3c4.8,0,8.7-3.6,8.7-8.1c0-2.7-1.5-5.3-4-6.8c-2.1-1.3-3.1-3.9-2.4-6.3c0.7-2.4,2.9-3.7,5.5-3.6
		c0.1,0,0.3,0.3,0.4,0.3c0,0,0,0,0,0c4.8,0,8.7-3.9,8.7-8.4c0-4.5-3.9-8.3-8.7-8.3c-2,0-3.9,0.6-5.5,1.8c-2,1.5-4.9,1.5-6.8-0.2
		s-2.6-4.4-1.4-6.7c0.5-1.1,0.8-2.2,0.8-3.4c0-4.5-3.9-8.1-8.7-8.1c-4.8,0-8.7,3.6-8.7,8.1c0,1.2,0.3,2.3,0.8,3.4
		c1.1,2.3,0.5,5.1-1.4,6.7c-2,1.6-4.8,1.7-6.8,0.1c-1.6-1.2-3.5-1.8-5.5-1.8c-4.8,0-8.7,3.6-8.7,8.1s3.9,8.1,8.7,8.1
		c0.1,0,0.3,0,0.4,0c2.5-0.1,4.7,1.5,5.5,3.9c0.3,1.1,0.3,2.3-0.1,3.3C140.5,77,146,80.4,149.3,85.3z M150,59.1
		c4.7,0,8.6,3.7,8.6,8.2c0,4.5-3.8,8.2-8.6,8.2s-8.6-3.7-8.6-8.2C141.4,62.8,145.2,59.1,150,59.1z"/>
	<path fill="#FFFFFF" d="M127.6,139.8c0.8-2.2,2.9-3.7,5.2-3.7s4.4,1.5,5.2,3.7c1.2,3.3,4.5,5.6,8.3,5.6c4.8,0,8.7-3.6,8.7-8.1
		c0-2.7-1.5-5.3-4-6.8c-2.1-1.3-3.1-3.9-2.4-6.3s3-4.1,5.5-4l0.4-0.1c0,0,0,0,0,0c4.8,0,8.7-3.5,8.7-8c0-4.5-3.9-8.1-8.7-8.1
		c-2,0-3.9,0.7-5.5,1.9c-2,1.5-4.9,1.5-6.8-0.1c-2-1.6-2.6-4.4-1.4-6.7c0.5-1.1,0.8-2.2,0.8-3.4c0-4.5-3.9-8.1-8.7-8.1
		c-4.8,0-8.7,3.6-8.7,8.1c0,1.2,0.3,2.3,0.8,3.4c1.1,2.3,0.5,5.1-1.4,6.7c-2,1.6-4.8,1.7-6.8,0.1c-1.6-1.2-3.5-1.8-5.5-1.8
		c-4.8,0-8.7,3.6-8.7,8.1s3.9,8.1,8.7,8.1l0.4,0c2.5-0.1,4.8,1.5,5.5,3.9c0.7,2.4-0.3,5-2.4,6.3c-2.5,1.5-4,4.1-4,6.8
		c0,4.5,3.9,8.1,8.7,8.1C123.1,145.4,126.4,143.1,127.6,139.8z M132.8,126.4c-4.7,0-8.6-3.7-8.6-8.2s3.8-8.2,8.6-8.2
		s8.6,3.7,8.6,8.2S137.5,126.4,132.8,126.4z"/>
	<path fill="#CCCCCC" d="M170.2,245.1c0.8-0.8,1.3-1.8,1.6-2.9c-0.7,0.3-1.4,0.6-2.2,0.9C169.9,243.7,170.1,244.4,170.2,245.1z"/>
	<path fill="#FFFFFF" d="M171.9,228.8c1-1.4,1.2-2.7,0.7-4.3c0,0-0.7-1.7-10-1.7c-2.1,0-4.3,0.1-6.6,0.1c-2.3,0.1-4.7,0.2-7,0.2
		c-4.3,0-7.6-0.3-10.3-0.9c-8.2-1.8-12.3-12.7-13.8-36.7c-0.6-9.5-0.6-18.5-0.5-24.5h-47c0,1,0,2,0,2h39.1c1.5,0,2.9,0.5,4,1.6
		c1,1.1,1.6,2.5,1.5,4c0,0.1-0.5,13.1,0.3,26.8c1.3,23.2,5,27.9,5.6,28.5c1.8,0.4,4.1,0.5,7.2,0.5c2.3,0,4.9-0.1,7.3-0.2
		c2.5-0.1,5.1-0.2,7.6-0.2c4.6,0,15,0,18.9,7.3C170.2,230.6,171.2,229.7,171.9,228.8z"/>
	<path fill="#CCCCCC" d="M139.8,258c-0.7,0-1.5,0-2.3,0c-5.1-0.2-9.8-0.5-14.4-0.7c-4.5-0.3-8.8-0.5-12.7-0.6
		c0.8,0.2,1.6,0.4,2.6,0.6c1.8,0.5,3.4,0.9,4.9,1.3c6.6,1.9,11,3.1,21.1,3.1c1.9,0,4.1,0,6.4-0.1c10-0.4,12.4-3.1,13.3-7.3
		C153.6,256.6,147.2,258,139.8,258C139.8,258,139.8,258,139.8,258z"/>
	<path fill="#CCCCCC" d="M86,258.8c-3.8,0-7.7-0.5-11.2-1.6c0,1.9,0.1,3.5,0.3,4.6c2.3,0.7,5.5,1.5,9.1,1.5h0c3.1,0,6.1-0.6,8.8-1.8
		c3-1.3,4.3-2.3,5.3-3.1c0.6-0.5,1.4-1.1,2.4-1.6c-2.2,0.2-4,0.5-5.6,0.9C92.3,258.4,89.2,258.8,86,258.8z"/>
	<path fill="#FFFFFF" d="M63.8,174c-0.1,11,3.2,19.7,6.2,27.4c2.3,6.1,4.3,11.3,4.3,16.8c0,6.1-0.9,8.9-2,11.9
		c-0.8,2-1.4,3.8-1.4,9.4c0,6.6,9.8,8.4,15,8.4c2.2,0,4.4-0.3,6.2-0.7c3.9-1,8.5-1.5,14.6-1.5c5.1,0,10.9,0.3,17,0.7
		c4.5,0.3,9.2,0.5,14.2,0.7c0.6,0,1.3,0,1.9,0c0,0,0,0,0,0c10.5,0,16.5-3.1,18.6-6.1c1-1.3,1.2-2.7,0.7-4.2c0,0-0.6-1.6-9.3-1.6
		c-2.3,0-4.6,0.1-7.2,0.2c-2.6,0.1-5.2,0.2-7.7,0.2c-4.1,0-7.2-0.3-9.8-0.9c-8.2-1.8-12.3-12.6-13.8-36.4
		c-0.6-9.4-0.6-18.2-0.5-24.2H63.8z"/>
	<path fill="#CCCCCC" d="M177.6,210h35.8c-1.6-2-2.9-5.5-3.6-8.7l-14.8-30.7L177.6,210z"/>
	<rect x="191" y="243" fill="#FFFFFF" width="10" height="18"/>
	<rect x="229" y="243" fill="#FFFFFF" width="9" height="18"/>
	<g>
		<ellipse fill="#5980B7" cx="150" cy="67.4" rx="8.6" ry="8.2"/>
		<ellipse fill="#5980B7" cx="132.8" cy="118.2" rx="8.6" ry="8.2"/>
		<path fill="#5980B7" d="M252.5,164c-3,0-5.5,2.5-5.5,5.5v25.8c0,6.1-3.3,11.2-8,13.5c0,0,0,0,0,0v-37.9c0-3-2.5-5.5-5.5-5.5
			s-5.5,2.5-5.5,5.5v37.8c-1-0.7-2.5-1.5-3.5-2.6c0,0-0.1,0-0.1,0c0,0-3.7-3.1-4.4-8.9s-0.2-27.7-0.2-27.7c0-3-2.4-5.5-5.4-5.5
			s-5.4,2.5-5.4,5.5v5l-5.2-11.2c0.1-1.2,0.2-2.8,0.2-3.2v-15.6c0-0.3-0.2-1.1-0.2-1.8c0.3-0.5,0.5-0.9,0.7-1.3c1.1-1,2-2,2.8-3.2
			c1.9-1.4,3.9-1.7,5.4-1.7c10.5,0,25,12.4,29.7,17.1c1.1,1.1,2.5,1.5,3.9,1.5c0,0,0,0,0.1,0c3,0,5.5-2.4,5.5-5.4
			c0-0.3,0-0.4-0.1-0.7c-2-31.4-18-42.8-32.8-46.6c0-0.1,0-0.2,0-0.2c0-9.3-6.9-17.1-16-18.8c9.4-7.9,17.7-11.3,17.8-11.3
			c2.2-0.9,3.6-3,3.5-5.4c-0.1-2.4-1.7-4.4-4-5c-8.2-2.3-16-3.5-23.2-3.5c-2,0-4,0.1-5.9,0.3c-1.4-9.2-9.6-16.3-19.5-16.3
			c-0.7,0-1.4,0-2.1,0.1c-1.3-9.3-9.6-16.6-19.5-16.6c-9.2,0-16.9,6.1-19.1,14.4c-8-5.8-17.7-9.7-29.3-9.7c-3.4,0-6.8,0.3-10.3,1
			c-2.1,0.4-3.7,1.9-4.2,4c-0.5,2,0.1,4.2,1.7,5.6c2,1.8,4.6,4.3,7.5,7.4c-5.2,2.9-8.9,8-9.7,14c-0.7-0.1-1.4-0.1-2.1-0.1
			c-10.9,0-19.7,8.6-19.7,19.1c0,5.5,2.4,10.5,6.3,14c0.6,0.8,1.5,1.5,2.5,1.9c0.5,0.3,0.9,0.6,1.4,0.8c-1.3,2.6-2,5.4-2,8.3
			c0,2.2,0.4,4.3,1.1,6.3c-19,5.2-30,17.8-31.6,36.8c-0.2,2.2,1,4.4,3,5.4c0.8,0.4,1.6,0.6,2.4,0.6c1.3,0,2.6-0.5,3.7-1.4
			c4.3-3.8,17.9-13.8,28.5-13.8c4.6,0,8,1.9,11,5.8v3.9h-0.3H72c-2.8,0-5.2,2.2-5.5,5c-0.3,2.8-0.3,6-0.3,8h-7.7
			c-2.8,0-5.2,2.1-5.5,4.9c-1.5,16.1,3,27.9,6.6,37.4c1.9,5.1,3.6,9.5,3.6,12.8c0,4.6-0.6,6.1-1.3,8c-1.2,3.2-2.1,6.2-2.1,13.3
			c0,4.6,1.5,8.3,4,11.2c-0.1,1.6-0.2,3.5-0.2,5.4c-0.1,6.8,0.6,14.1,6.3,15.8l0.6,0.2c2.8,0.9,7.6,2.3,13.4,2.3l0,0
			c4.6,0,9-0.9,13.2-2.7c4.2-1.8,6.4-3.5,7.7-4.5c0.1-0.1,0.2-0.2,0.3-0.2c1.3,0.1,3.9,0.8,4.9,1.1c1.7,0.4,3.3,0.9,4.7,1.3
			c7,1.9,12.5,3.5,24.1,3.5c2.1,0,4.4,0,6.9-0.1c16.4-0.7,21.4-8,23.2-14.5c0,0,0.1,0,0.1,0c5.5-1.6,8.8-4.4,10.8-7.4v15.9
			c0,3,2.5,5.5,5.5,5.5h20.6c3,0,5.8-2.5,5.8-5.5v-29.3c0-3-2.8-5.2-5.8-5.2H203v-11h19.8c1.1,0,2.2-0.4,3.1-1.1
			c0.6,0.2,1.4,0.4,2,0.5c0,0,0.1,0,0.1,0V232h-4.9c-3,0-5.1,2.1-5.1,5.2v29.3c0,3,2.1,5.5,5.1,5.5h20.6c3,0,5.2-2.5,5.2-5.5v-29.3
			c0-3-2.2-5.2-5.2-5.2H239v-11.5c0,0,0,0,0,0c10.8-2.6,19-12.9,19-25.3v-25.8C258,166.4,255.5,164,252.5,164z M215.6,112.8
			c11.9,2.7,19.5,10.3,23.1,23.2c-7.2-5.2-16.8-10.6-26-10.6c-0.7,0-1.3,0-2,0.1c-0.2-2.3-0.8-4.6-1.9-6.7
			C211.6,117.4,213.9,115.3,215.6,112.8z M189.3,69.8c2.5-0.4,5.1-0.6,7.8-0.6c2,0,4,0.1,6,0.3c-2.6,1.8-5.5,4-8.4,6.6
			c-1.4-2.3-3.3-4.4-5.5-5.9C189.2,70,189.2,69.9,189.3,69.8z M186.3,85.7c0,1.2-0.3,2.3-0.8,3.4c-1.1,2.3-0.5,5,1.4,6.7
			c2,1.6,4.8,1.7,6.8,0.1c1.6-1.2,3.5-1.9,5.5-1.9c4.8,0,8.7,3.6,8.7,8.1c0,4.5-3.9,8-8.7,8c0,0,0,0,0,0l-0.4,0.1
			c-2.5-0.1-4.8,1.7-5.5,4.1c-0.7,2.4,0.3,5,2.4,6.3c2.5,1.5,4,4,4,6.8c0,4.5-3.9,8.1-8.7,8.1c-3.8,0-7.1-2.2-8.3-5.6
			c-0.8-2.2-2.9-3.7-5.2-3.7s-4.4,1.5-5.2,3.7c-1,2.8-3.6,4.9-6.6,5.4c-0.2-2.2-0.9-4.3-1.8-6.3c5.1-2.7,8.8-7.6,9.9-13.3
			c1.1,0.5,2.4,0.9,3.8,0.9c4.7,0,8.6-3.7,8.6-8.2s-3.8-8.2-8.6-8.2c-0.1,0-0.2,0-0.4,0c3.6-3.5,5.9-8.3,5.9-13.6
			c0-2.8-0.6-5.6-1.8-8.1C184.3,79.6,186.3,82.4,186.3,85.7z M193.9,152c-0.3,0.1-0.6,0.1-0.9,0.2C193.2,152.1,193.6,152,193.9,152z
			 M116.9,124.2c-0.7-2.4-3-4-5.5-3.9l-0.4,0c-4.8,0-8.7-3.6-8.7-8.1s3.9-8.1,8.7-8.1c2,0,3.9,0.6,5.5,1.8c2,1.5,4.9,1.5,6.8-0.1
			c2-1.6,2.6-4.4,1.4-6.7c-0.5-1.1-0.8-2.2-0.8-3.4c0-4.5,3.9-8.1,8.7-8.1c4.8,0,8.7,3.6,8.7,8.1c0,1.2-0.3,2.3-0.8,3.4
			c-1.1,2.3-0.5,5,1.4,6.7c2,1.6,4.8,1.7,6.8,0.1c1.6-1.2,3.5-1.9,5.5-1.9c4.8,0,8.7,3.6,8.7,8.1c0,4.5-3.9,8-8.7,8c0,0,0,0,0,0
			l-0.4,0.1c-2.5-0.1-4.8,1.7-5.5,4.1s0.3,5,2.4,6.3c2.5,1.5,4,4,4,6.8c0,4.5-3.9,8.1-8.7,8.1c-3.8,0-7.1-2.2-8.3-5.6
			c-0.8-2.2-2.9-3.7-5.2-3.7s-4.4,1.5-5.2,3.7c-1.2,3.3-4.5,5.6-8.3,5.6c-4.8,0-8.7-3.6-8.7-8.1c0-2.7,1.5-5.3,4-6.8
			C116.7,129.1,117.7,126.6,116.9,124.2z M112.2,93.1c0.5-0.5,1-1.2,1.4-1.8c-0.2,0.6-0.3,1.2-0.4,1.9
			C112.9,93.1,112.5,93.1,112.2,93.1z M135.2,154.9c0,0.1,0,0.2,0,0.3C135.2,155,135.2,155,135.2,154.9z M184.9,166l-0.6,1.8
			l-0.3,0.6l-19.2,43.2c-0.1,0.1-0.1,0.1-0.2,0.2c-0.8,0-1.5,0-2.1,0c-2.3,0-4.7,0.1-6.9,0.1c-2.2,0.1-4.5,0.1-6.7,0.1
			c-3.3,0-5.8-0.2-7.7-0.6c-0.7-0.7-4.3-5.1-5.6-28.8c-0.3-6.1-0.4-11.7-0.4-16.7H184.9z M153.9,155c0.2,0,0.5-0.3,0.7-0.4
			c2.4-1.1,4.6-2.7,6.4-4.6c0,0,0.1,0,0.1,0h9.7c0,0,0,0,0,0H193v2.3c0,0-0.3,0.1-0.4,0.1c-0.9,0.5-1.8,1.3-2.3,2.2
			c-0.1,0.1-0.2,0.4-0.2,0.4H153.9z M128.3,53.2c2,0,3.9,0.6,5.5,1.8c2,1.5,4.9,1.5,6.8-0.1c2-1.6,2.6-4.4,1.4-6.7
			c-0.5-1.1-0.8-2.2-0.8-3.4c0-4.5,3.9-8.1,8.7-8.1c4.8,0,8.7,3.6,8.7,8.1c0,1.2-0.3,2.3-0.8,3.4c-1.1,2.3-0.5,5.1,1.4,6.7
			s4.8,1.7,6.8,0.2c1.6-1.2,3.5-1.8,5.5-1.8c4.8,0,8.7,3.8,8.7,8.3c0,4.5-3.9,8.4-8.7,8.4c0,0,0,0,0,0c-0.1,0-0.3-0.3-0.4-0.3
			c-2.5-0.1-4.7,1.3-5.5,3.7c-0.7,2.4,0.3,5,2.4,6.3c2.5,1.5,4,4,4,6.8c0,4.5-3.9,8.1-8.7,8.1c-0.8,0-1.6-0.1-2.3-0.3
			c-0.3-0.1-0.7-0.2-1-0.3c-2.3-0.9-4.1-2.6-4.9-4.9c-0.8-2.2-2.9-3.7-5.2-3.7c-0.2,0-0.4,0-0.7,0.1c-3.3-4.9-8.8-8.3-15.2-8.7
			c0.3-1,0.4-2.2,0.1-3.3c-0.7-2.4-3-4-5.5-3.9c-0.1,0-0.3,0-0.4,0c-4.8,0-8.7-3.6-8.7-8.1S123.5,53.2,128.3,53.2z M117.7,45.2
			c-1.2,0.7-2.2,1.5-3.2,2.5c-1.8-0.8-3.7-1.4-5.7-1.7c-1.4-1.6-2.7-3.1-3.9-4.4C109.6,42,113.8,43.3,117.7,45.2z M84.3,73.2
			c2,0,3.9,0.6,5.5,1.8c2,1.5,4.9,1.5,6.8-0.1c2-1.6,2.6-4.4,1.4-6.7c-0.5-1.1-0.8-2.2-0.8-3.4c0-4.5,3.9-8.1,8.7-8.1
			c1.1,0,2.1,0.2,3,0.5c-0.3,1.3-0.4,2.6-0.4,4c0,7.2,4.1,13.5,10.2,16.7c-1,2-1.6,4.1-1.9,6.3c-1,1.3-1.8,2.7-2.4,4.1
			c0.1-0.4,0.1-0.7,0.1-1.1c0-4.5-3.8-8.2-8.6-8.2s-8.6,3.7-8.6,8.2c0,3.4,2.1,6.3,5.1,7.5c-6.6,3.1-11.2,9.6-11.2,17.2
			c0,0.8,0.1,1.6,0.2,2.3c-4.3-0.5-7.7-3.9-7.7-8.1c0-2.7,1.5-5.3,4-6.8c2.1-1.3,3.1-3.9,2.4-6.3c-0.7-2.4-3-4-5.5-3.9l-0.4,0
			c-4.8,0-8.7-3.6-8.7-8.1S79.5,73.2,84.3,73.2z M79.9,129.3c-7.8,0-15.7,3.3-22.2,7c2.5-4,6.1-7.2,10.8-9.6
			c3.7-1.9,8.1-3.4,13.1-4.3c0,0,0,0,0,0c3.1,2,6.9,3.2,10.9,3.2c1.4,0,2.7-0.2,4.1-0.4c1.4,1.5,3.1,2.8,4.9,3.8
			c-1.3,2.6-2,5.5-2,8.4c0,0.5,0,1.7,0.1,1.7h-0.6C93.2,131,85.6,129.3,79.9,129.3z M98.2,258.4c-1,0.8-2.3,1.8-5.3,3.1
			c-2.8,1.2-5.7,1.8-8.8,1.8h0c-3.6,0-6.7-0.8-9.1-1.5c-0.2-1.1-0.3-2.7-0.3-4.6c3.5,1.1,7.4,1.6,11.2,1.6c3.2,0,6.4-0.4,9.1-1.1
			c1.6-0.4,3.4-0.7,5.6-0.9C99.6,257.3,98.9,257.9,98.2,258.4z M145.4,261.5c-2.3,0.1-4.5,0.1-6.4,0.1c-10.1,0-14.5-1.2-21.1-3.1
			c-1.5-0.4-3.1-0.9-4.9-1.3c-0.9-0.2-1.8-0.5-2.6-0.6c3.9,0.1,8.2,0.3,12.7,0.6c4.6,0.3,9.3,0.6,14.4,0.8c0.8,0,1.5,0,2.3,0
			c0,0,0,0,0,0c7.3,0,13.8-1.4,18.9-3.8C157.8,258.4,155.4,261.1,145.4,261.5z M158.4,240.9c-2.1,2.9-8.2,6.1-18.6,6.1c0,0,0,0,0,0
			c-0.6,0-1.2,0-1.9,0c-5-0.2-9.6-0.4-14.2-0.7c-6.1-0.4-11.9-0.7-17-0.7c-6.1,0-10.8,0.5-14.6,1.5c-1.8,0.5-4,0.7-6.2,0.7
			c-5.2,0-15-1.8-15-8.4c0-5.6,0.7-7.4,1.4-9.4c1.1-3,2-5.8,2-11.9c0-5.4-2-10.6-4.3-16.7c-3-7.8-6.3-16.4-6.2-27.4h47
			c-0.1,6-0.1,14.8,0.5,24.2c1.5,23.8,5.6,34.6,13.8,36.5c2.6,0.6,5.8,0.8,9.8,0.8c2.5,0,5.2-0.1,7.7-0.2c2.5-0.1,4.9-0.2,7.2-0.2
			c8.7,0,9.3,1.6,9.3,1.6C159.6,238.2,159.4,239.6,158.4,240.9z M170.2,245.1c-0.1-0.7-0.3-1.3-0.5-1.9c0.7-0.3,1.4-0.6,2.1-0.9
			C171.5,243.3,171,244.2,170.2,245.1z M171.9,228.8c-0.7,0.9-1.7,1.8-3.1,2.7c-3.9-7.3-14.3-7.3-18.9-7.3c-2.5,0-5.1,0.1-7.6,0.2
			c-2.4,0.1-5,0.2-7.3,0.2c-3,0-5.4-0.2-7.2-0.5c-0.6-0.6-4.3-5.4-5.6-28.6c-0.8-13.7-0.3-26.7-0.3-26.9c0.1-1.5-0.5-2.9-1.5-3.9
			c-1-1.1-2.5-1.6-4-1.6H77.3c0,0,0-1,0-2h47c-0.1,6-0.1,14.9,0.5,24.5c1.5,24,5.6,34.9,13.8,36.7c2.7,0.6,6,0.9,10.3,0.9
			c2.3,0,4.7-0.1,7-0.2c2.3-0.1,4.5-0.2,6.6-0.2c9.4,0,10,1.7,10,1.7C173.1,226,172.9,227.4,171.9,228.8z M179.8,237.2
			c0-0.4,0.1-0.7,0.2-1c0,0,0,0,0,0C179.9,236.5,179.8,236.8,179.8,237.2z M183.7,232.2c-0.5,0.2-1.1,0.4-1.5,0.7
			c-0.3,0.2-0.6,0.5-0.8,0.8c0.3-0.3,0.5-0.6,0.8-0.8c0.5-0.3,1-0.6,1.5-0.8c-0.1-0.6-0.3-1.2-0.5-1.7c0.9-2.9,0.8-6-0.2-9.1
			c0-0.1-0.1-0.2-0.1-0.2h9v11h-6.5C184.9,232,184.3,232,183.7,232.2z M201,261h-10v-18h10V261z M177.6,210l17.5-39.4l14.6,30.8
			c0.7,3.1,2,6.6,3.7,8.6H177.6z M233.5,209.8C233.5,209.8,233.5,209.8,233.5,209.8C233.5,209.8,233.5,209.8,233.5,209.8
			C233.5,209.8,233.5,209.8,233.5,209.8z M235.7,220.9c-0.7,0.1-1.5,0.1-2.2,0.1c0,0,0,0,0,0C234.2,221,235,221,235.7,220.9z
			 M238,261h-9v-18h9V261z"/>
	</g>
</g>
</svg>
