<?xml version="1.0" encoding="utf-8"?>
<!-- Generator: Adobe Illustrator 18.1.1, SVG Export Plug-In . SVG Version: 6.00 Build 0)  -->
<svg version="1.1" id="Layer_1" xmlns="http://www.w3.org/2000/svg" xmlns:xlink="http://www.w3.org/1999/xlink" x="0px" y="0px"
	 viewBox="0 0 300 300" enable-background="new 0 0 300 300" xml:space="preserve">
<g>
	<path fill="#CCCCCC" d="M216.9,129h-17.3l-1.8,5l6.7,9.1c1.8-0.3,3.7-0.4,5.6-0.4c1.1,0,2.3,0.1,3.4,0.2l6.1-8.3L216.9,129z"/>
	<path fill="#FFFFFF" d="M94,217.2l12.4,20.8h61.7l10.9-19.1c-12.4,8-26.1,12.2-40.5,12.2C120.9,231.1,106,225.1,94,217.2z"/>
	<path fill="#FFFFFF" d="M136.7,166.7c16.1,0,22.7-8.4,25.1-13.4l-4-2.3c-1.7-1-2.8-2.8-2.8-4.8V123h-34v22.6c0,2-1,3.9-2.8,4.8
		l-4.8,2.7C115.1,158.1,120.4,166.7,136.7,166.7z"/>
	<path fill="#FFFFFF" d="M145.5,177c4.2,8.6,9.1,21.8,4.5,30c-1.7,3.1-5.5,6.8-13.4,6.8c-8.7,0-12.7-3.9-14.4-7.3
		c-4.5-8.3,0.8-21.2,5.3-29.6c-13.6-2.6-20.7-10.9-23.8-18.4l-33.5,18.4c7.7,12,31.4,43.5,68.4,43.5c37,0,57.6-31.6,64-43.4
		l-31.2-18.1C167.6,166.2,159.6,174.5,145.5,177z"/>
	<path fill="#CCCCCC" d="M131.9,201.3c0.7,1.3,3.3,1.5,4.7,1.5c1.4,0,3.2-0.2,3.8-1.2c1.6-2.8-0.5-10.5-4-18
		C132.7,191,130.3,198.5,131.9,201.3z"/>
	<path fill="#CCCCCC" d="M146.2,95.9c0.6,1,2.2,1.5,4.7,1.5c1.4,0,3.8-0.2,4.4-1.3c1.5-2.9-1.1-10.8-5.1-18.6
		C146.8,84.9,144.4,92.8,146.2,95.9z"/>
	<path fill="#CCCCCC" d="M113.5,95.9c0.6,1,2.2,1.5,4.7,1.5c1.4,0,3.8-0.2,4.4-1.3c1.5-2.9-1.1-10.8-5.1-18.6
		C114.1,84.9,111.8,92.8,113.5,95.9z"/>
	<g>
		<path fill="#5980B7" d="M224.8,146.3l5.6-7.4c1.3-1.7,1.5-4,0.5-5.8l-5.9-11.7c-0.9-1.8-2.8-3.3-4.9-3.3h-24.4
			c-2.3,0-4.3,1.7-5.1,3.8l-4.3,11.2c-0.7,1.8-0.4,3.8,0.7,5.3l6.6,8.8c-3.2,1.9-6.1,4.3-8.5,7L166,143.1v-25.1c0-3-2.3-6.1-5.4-6.1
			h-45c-3,0-5.6,3-5.6,6.1v24.3L59.9,170c-2.4,1.3-3.4,4.1-2.5,6.6c0.1,0.2,0.2,0.5,0.3,0.7c0,0,0,0,0,0.1c0,0,0,0,0,0.1
			c0.1,0.2,0.3,0.5,0.5,1c0.4,0.8,1.1,2,2.1,3.5l38.2,64.6c1,1.7,2.8,2.4,4.7,2.4h68.1c2,0,3.8-0.8,4.8-2.5l22.8-40.2
			c3.5,1.3,7.3,2,11.2,2c18.1,0,32.8-14.7,32.8-32.8C242.9,162.7,235.6,151.7,224.8,146.3z M197.8,134l1.8-5h17.3l2.8,5.7l-6.1,8.1
			c-1.1-0.1-2.3-0.1-3.4-0.1c-1.9,0-3.8,0.1-5.6,0.4L197.8,134z M118.2,150.5c1.8-1,2.8-2.8,2.8-4.8V123h34v23.3
			c0,2,1.1,3.8,2.8,4.8l4,2.3c-2.5,5-9,13.4-25.1,13.4c-16.3,0-21.6-8.6-23.4-13.6L118.2,150.5z M136.4,183.6c3.5,7.6,5.6,15.2,4,18
			c-0.5,1-2.4,1.2-3.8,1.2c-1.5,0-4.1-0.2-4.7-1.5C130.3,198.5,132.7,191,136.4,183.6z M103.7,158.5c3.1,7.4,10.2,15.8,23.8,18.4
			c-4.5,8.4-9.7,21.3-5.3,29.6c1.8,3.3,5.7,7.3,14.4,7.3c7.9,0,11.6-3.7,13.4-6.8c4.6-8.2-0.3-21.4-4.5-30
			c14.1-2.5,22.1-10.8,25.9-18.1l31.2,18.1c-6.4,11.8-27.1,43.4-64,43.4c-37,0-60.7-31.4-68.4-43.5L103.7,158.5z M168.2,238h-61.7
			L94,217.2c12,8,26.8,14.1,44.6,14.1c14.5,0,28.2-4.4,40.5-12.4L168.2,238z M210.1,197.4c-2,0-3.9-0.3-5.7-0.7l10.4-18.5
			c1-1.7,0.9-3.8,0-5.4c-0.4-1.1-1.2-2.1-2.3-2.7L195,159.9c2.2-2.1,4.9-3.8,7.8-4.8c0.7-0.1,1.5-0.3,2.2-0.6
			c1.7-0.4,3.4-0.6,5.1-0.6c12,0,21.8,9.8,21.8,21.8S222.2,197.4,210.1,197.4z"/>
		<path fill="#5980B7" d="M136.6,101.3c1.8,3.3,5.8,7.2,14.3,7.2c8.5,0,12.3-3.9,14.1-7.1c6.2-11.7-7.2-32.9-10.4-37.7
			c1.6-1.3,2.6-3.3,2.6-5.6c0-4-3.3-7.3-7.3-7.3c-4,0-7.3,3.3-7.3,7.3c0,2.2,1,4.2,2.6,5.6C142.4,68.1,130,89.4,136.6,101.3z
			 M155.3,96.2c-0.6,1.1-3,1.3-4.4,1.3c-2.6,0-4.2-0.5-4.7-1.5c-1.8-3.2,0.6-11,4-18.3C154.2,85.4,156.8,93.3,155.3,96.2z"/>
		<path fill="#5980B7" d="M103.9,101.3c1.8,3.3,5.8,7.2,14.3,7.2c8.5,0,12.3-4,14.1-7.2c6.2-11.6-6.9-32.7-10.3-37.7
			c1.5-1.3,2.5-3.3,2.5-5.5c0-4-3.3-7.3-7.3-7.3c-4,0-7.3,3.3-7.3,7.3c0,2.2,1,4.2,2.5,5.5C109.5,68.2,97.4,89.5,103.9,101.3z
			 M122.6,96.2c-0.6,1.1-3,1.3-4.4,1.3c-2.6,0-4.2-0.5-4.7-1.5c-1.8-3.2,0.6-11,4-18.3C121.5,85.4,124.2,93.3,122.6,96.2z"/>
	</g>
</g>
</svg>
