<?xml version="1.0" encoding="utf-8"?>
<!-- Generator: Adobe Illustrator 18.1.1, SVG Export Plug-In . SVG Version: 6.00 Build 0)  -->
<svg version="1.1" id="Layer_1" xmlns="http://www.w3.org/2000/svg" xmlns:xlink="http://www.w3.org/1999/xlink" x="0px" y="0px"
	 viewBox="0 0 300 300" enable-background="new 0 0 300 300" xml:space="preserve">
<g>
	<path fill="none" d="M182.6,102.7c1.8,5.1,3.4,11.2,4.3,18.1c0.4,3.2,0.7,6.7,0.6,10.4c1.2-0.3,2.5-0.5,3.9-0.5
		c8,0,14.5,6.5,14.5,14.5v7.4c2,0.1,4.5,0.8,6.4,1.9c6.3-11.7,9.1-25.4,7.1-39.6c-6.9-10.5-17.1-15.8-25.9-18.4
		C191.5,100,187.6,102.2,182.6,102.7z"/>
	<path fill="none" d="M141.9,99c4.7,0,9,1.7,12.4,4.4l6.7-7.8c-2.5-2-4.6-4.3-6.1-6.7c-0.4-0.7-0.8-1.4-1.1-2.1
		c-2.9-0.3-6.1-0.4-9.5-0.2c-15.3,0.9-29.3,7.1-41.7,18.7c2.4-0.5,4.9-0.7,7.5-0.7c5.5,0,10.7,1.1,15.5,3.1
		C129,102.5,135.1,99,141.9,99z"/>
	<path fill="none" d="M144.2,79.7c2.8-0.1,5.5-0.1,8.1,0.1c0.1-1.5,0.5-2.9,1.1-4.2c1.4-2.8,3.9-4.9,7.2-6
		c-5.3-5.9-11.7-8.6-13.4-9.2c-0.4,0.1-0.8,0.1-1.2,0.2c-17,2.6-31.9,11.7-42,25.6c-3.8,5.2-6.7,10.8-8.8,16.7
		C112.9,85.1,131.1,80.3,144.2,79.7z"/>
	<path fill="none" d="M195,89.5c6.6,1.9,13.9,5.1,20.5,10.6c-4.8-12.2-13.2-22.4-23.7-29.5l-4.8,5.6C191.7,80.1,194.6,84.9,195,89.5
		z"/>
	<path fill="none" d="M168.8,68.6c3.9,0.3,7.9,1.4,11.7,3.4c0.2,0.1,0.4,0.2,0.6,0.3l4.6-5.3c-7.6-4-16.2-6.4-25.2-7.1
		C163.3,62.1,166.3,65,168.8,68.6z"/>
	<path fill="none" d="M156.3,180c2-3.8,5.9-6.6,10.4-7c-1.4-2.1-2.3-4.7-2.3-7.4c0-7.1,5.7-12.9,12.7-13.1v-7.4
		c0-3.6,1.3-6.9,3.5-9.4c0.3-4.5,0.1-9.1-0.5-13.8c-1-7.6-3-14.4-5.1-19.7c-2.7-0.5-5.4-1.5-8.1-2.8l-8,9.3c1.7,2.9,2.7,6.3,2.7,10
		c0,8.2-5,15.3-12.2,18.2c0.5,2.5,0.8,5.1,0.8,7.8c0,9.3-3.2,17.8-8.5,24.6C147.8,171.6,152.7,175.4,156.3,180z"/>
	<path fill="#CDCCCC" d="M167,75.6c-3.6,0-6.3,1.2-7.3,3.1c-0.8,1.7-0.4,4.1,1.1,6.6c1.9,3,5.2,5.9,9.2,7.9
		c3.5,1.7,7.2,2.7,10.4,2.7c3.6,0,6.3-1.2,7.3-3.1c1.8-3.5-2-10.3-10.3-14.5C173.9,76.5,170.2,75.6,167,75.6z"/>
	<path fill="#FFFFFF" d="M191.5,137.6c-4.1,0-7.5,3.4-7.5,7.5v6.9h15v-6.9C199,141,195.6,137.6,191.5,137.6z"/>
	<path fill="#FFFFFF" d="M161.1,230h70.4c3.4,0,6.1-2.6,6.1-6s-2.7-6-6.1-6h-8.8h-57.3C164.8,222,163.4,226,161.1,230z"/>
	<path fill="#CDCCCC" d="M228.7,205c0-3.4-2.7-6-6.1-6h-6.3c-0.4,0-0.7,0-1.1,0h-47.3c-0.4,0-0.7,0-1.1,0h-3.7c0,1-0.2,3.2-0.5,4.7
		c1.4,2.2,2.2,4.3,2.6,7.3h57.4C226,211,228.7,208.4,228.7,205z"/>
	<path fill="#FFFFFF" d="M215.1,192c3.4,0,6.1-3.1,6.1-6.5s-2.7-6.5-6.1-6.5h-47.3c-3.4,0-6.1,3.1-6.1,6.5s2.7,6.5,6.1,6.5H215.1z"
		/>
	<path fill="#CDCCCC" d="M177.4,171h28.2c3.4,0,6.1-2.6,6.1-6s-2.7-6-6.1-6h-28.2c-3.4,0-6.1,2.6-6.1,6S174.1,171,177.4,171z"/>
	<path fill="#FFFFFF" d="M110.1,225.3c-0.5,0-0.9-0.1-1.3-0.3c-0.3-0.1-2.9-1.2-6.4-3.2c0.9,3.4,1.1,6.6,0.6,9.7
		c1.3,0.4,3.1,0.5,5.5,0.5c0,0,0,0,0,0c3,0,6.4-0.3,10.1-1.3c-0.3-3.5,0.1-7.2,1.3-11c-4.3,3-7.8,4.9-8.2,5.1
		C111.2,225.1,110.6,225.3,110.1,225.3z"/>
	<path fill="#CDCCCC" d="M123.3,208.2c-0.6-4,0.5-8.2,3.3-11.7c2.1-2.8,3-5.3,2.6-7.7c-0.3-2.1-1.6-3.7-2.7-4.8
		c-1.3-0.5-2.7-0.9-4.2-0.9c-0.2,0-0.4,0-0.5,0c-1.4,0.4-2.9,0.8-4.4,1.1c-2.2,1.1-4,2.8-4.8,5.1c-0.5,1.4-1.8,2.3-3.3,2.3
		s-2.8-0.9-3.3-2.3c-0.9-2.5-3-4.6-5.7-5.6c-0.7-0.2-1.4-0.4-2-0.6c-0.6-0.1-1.3-0.2-2-0.2c-1.4,0-2.6,0.2-3.8,0.7
		c-1.1,1-2.7,2.8-3.1,5.1c-0.4,2.3,0.5,4.9,2.6,7.7c2.7,3.5,3.8,7.6,3.3,11.5c0.3,0.4,0.7,0.8,1,1.3c5.2,4.3,11,7.3,13.7,8.6
		C113.5,215.9,118.7,212.4,123.3,208.2z"/>
	<path fill="#FFFFFF" d="M155.1,192.5c-2.3-7.7-8.7-15.4-18.5-17.7c-1.7,1.5-3.5,2.8-5.4,4c1.8,1.8,4.1,4.7,4.8,8.7
		c0.8,4.4-0.6,8.8-3.9,13.2c-0.7,0.9-1.2,1.9-1.6,2.9c5.3-4.7,11.7-7.4,17.7-7.4c2.8,0,5.4,0.6,7.7,1.7
		C155.9,196.1,155.6,194.3,155.1,192.5z"/>
	<path fill="#FFFFFF" d="M82.5,187.5c0.7-4.1,3.1-7,4.9-8.8l-0.4-1.1c-1.4-1-2.7-2-3.9-3.1c-10.5,2-17.3,10-19.7,18
		c-0.7,2.3-1,4.9-0.9,7.5c0.2-0.1,0.3-0.3,0.5-0.4c2.9-2.2,6.5-3.3,10.4-3.3c4.1,0,8.5,1.3,12.5,3.6
		C82.9,195.8,81.8,191.6,82.5,187.5z"/>
	<path fill="#FFFFFF" d="M154.6,118.7c0-7-5.7-12.7-12.7-12.7c-4.1,0-7.8,2-10.1,5c7,4.5,12.6,11.2,15.7,19.1
		C151.7,128.1,154.6,123.8,154.6,118.7z"/>
	<path fill="#FFFFFF" d="M78.7,106c-7,0-12.7,5.7-12.7,12.7c0,4.8,2.7,9.1,6.7,11.2c3.2-7.9,8.8-14.6,16-19.2
		C86.3,107.9,82.7,106,78.7,106z"/>
	<path fill="#FFFFFF" d="M88.3,163.6c0-4.7,2.1-9,5.5-12.2c-2-0.9-3.4-2.9-3.4-5.2c0-3.2,2.6-5.8,5.8-5.8c3.2,0,5.8,2.6,5.8,5.8
		c0,0.2,0,0.3,0,0.5c1.9-0.7,4-1.1,6.2-1.2c-0.1-0.3-0.1-0.5-0.1-0.8v-4c0-1.1,1-2,2-2v-7c-1,0-2-0.9-2-2v-6c0-1.1,1-2,2-2v-7
		c-1,0-2-0.9-2-2v-0.8c-17,1.1-31.1,15.5-31.1,33.1c0,11,5.3,20.7,13.6,26.8C89.1,169.1,88.3,166.5,88.3,163.6z"/>
	<path fill="#FFFFFF" d="M110,114.5v7c1,0,2,0.9,2,2v6c0,1.1-1,2-2,2v7c1,0,2,0.9,2,2v4c0,0.3-0.1,0.6-0.2,0.8c2,0.1,4,0.5,5.8,1.1
		c0-0.1,0-0.2,0-0.3c0-3.2,2.6-5.8,5.8-5.8c3.2,0,5.8,2.6,5.8,5.8c0,2.2-1.2,4.1-3.1,5.1c3.5,3.3,5.7,7.6,5.7,12.4
		c0,2.8-0.8,5.5-2.1,7.9c8.2-6,13.7-15.8,13.7-26.8c0-17.7-13.2-32.1-31.2-33.1v0.8C112,113.6,111,114.5,110,114.5z"/>
	<path fill="#FFFFFF" d="M92.3,163.6c0,7.9,7.9,14.3,17.7,14.3s17.7-6.4,17.7-14.3s-7.9-14.3-17.7-14.3S92.3,155.7,92.3,163.6z
		 M108.5,163.1C108.5,163.1,108.5,163.1,108.5,163.1c-2.7-0.6-4.7-2.3-4.7-4.3c0-2.5,3-4.5,6.7-4.5s6.7,2,6.7,4.5
		c0,2.2-2.4,4.1-5.6,4.4c0,0.2,0,0.4,0,0.5c0.1,2.2,0.7,5.2,3.5,5.2c2.7,0,3.2-2.9,3.2-3c0.1-0.8,0.9-1.4,1.7-1.2
		c0.8,0.1,1.4,0.9,1.2,1.7c-0.3,1.9-2.1,5.5-6.2,5.5c-2.2,0-3.9-0.9-5-2.7c-1.1,1.7-2.8,2.7-5,2.7c-4.1,0-5.8-3.6-6.2-5.5
		c-0.1-0.8,0.4-1.6,1.2-1.7c0.8-0.1,1.6,0.4,1.7,1.2c0.1,0.3,0.6,3,3.2,3c2.8,0,3.4-3,3.5-5.2C108.5,163.5,108.5,163.3,108.5,163.1z
		"/>
	<path fill="#FFFFFF" d="M153,230.1c6.8-9,7.4-20.4,1.4-24.9c-1.7-1.3-3.8-1.9-6.2-1.9c-6,0-12.6,3.9-17.4,10.2
		c-6.8,9-7.4,20.4-1.4,24.9c1.7,1.3,3.8,1.9,6.2,1.9C141.6,240.3,148.3,236.4,153,230.1z"/>
	<path fill="#FFFFFF" d="M90.7,213.5c-4.7-6.3-11.4-10.2-17.4-10.2c-2.4,0-4.5,0.6-6.2,1.9c-6,4.5-5.3,15.9,1.4,24.9
		c4.7,6.3,11.4,10.2,17.4,10.2c2.4,0,4.5-0.6,6.2-1.9C98.1,233.9,97.4,222.5,90.7,213.5z"/>
	
		<line fill="none" stroke="#FFFFFF" stroke-width="0" stroke-linecap="round" stroke-linejoin="round" x1="110" y1="114" x2="110" y2="121"/>
	
		<line fill="none" stroke="#FFFFFF" stroke-width="0" stroke-linecap="round" stroke-linejoin="round" x1="110" y1="131" x2="110" y2="138"/>
	<g>
		<path fill="#5A81B8" d="M234,211.7c1.1-1.9,1.7-4.1,1.7-6.4c0-5.9-3.9-10.7-9.3-12.3c-0.8,1.4-1.9,2.6-3.2,3.6
			c1.3-1,2.4-2.3,3.2-3.7c1.1-1.9,1.8-4.3,1.8-6.7c0-6.8-5.2-12.5-11.9-13.2c-2.4,3.4-6.3,5.6-10.8,5.6c4.5,0,8.4-2.2,10.8-5.6
			c1.4-2.1,2.3-4.6,2.3-7.3c0-2.1-0.5-4-1.3-5.7c8-13.6,11.5-30,8.9-46.8c0,0,0,0,0,0c0,0,0,0,0,0C223.6,96.1,215,80.7,202,69.7
			c-2.9-2.4-5.9-4.6-9.1-6.6c-0.1,0-0.1-0.1-0.2-0.1c-11.1-6.7-23.8-10.3-36.7-10.3c-3.7,0-7.4,0.3-11,0.9
			c-18.8,2.9-35.4,13-46.6,28.3c-4.4,6.1-7.8,12.6-10.1,19.6c-2.8-1.6-6.1-2.4-9.5-2.4C67.8,99,59,107.9,59,118.7
			c0,8,4.8,14.9,11.7,18c-0.5,2.6-0.8,5.3-0.8,8.1c0,9.1,3,17.5,8.2,24.2c-11.2,3.5-18.6,12.6-21.3,21.7c-1.9,6.3-1.6,12.2,0.5,17.1
			c-2.5,7.7-0.6,17.9,5.8,26.4c6,8,14.8,13,22.9,13c3.9,0,7.5-1.1,10.4-3.3c1.9-1.5,3.5-3.6,4.6-5.7c1.9,0.6,4.4,0.8,7.6,0.8
			c0,0,0,0,0,0c3.7,0,7.6-0.4,11.9-1.5c1.1,2.5,3,4.7,5.1,6.4c2.9,2.2,6.5,3.4,10.5,3.4v0c7,0,14.3-3.7,20-9.8c1-1,1.8-2.1,2.7-3.2
			c0.2-0.3,0.4-0.6,0.6-1c-0.2,0.3-0.5,0.4-0.7,0.7c-0.9,1.1-1.8,2-2.8,3h75.6c7.2,0,13.1-5.6,13.1-12.8
			C244.5,217.9,240,212.9,234,211.7z M222.6,199c3.4,0,6.1,2.6,6.1,6s-2.7,6-6.1,6h-57.4c0,0,0,0.1,0,0c-0.4-2.7-1.3-5.1-2.7-7.2
			c0.3-1.5,0.5-3,0.5-4.7c0,0.1,0-0.1,0-0.1h3.8c-0.2,0-0.4,0-0.5-0.1c0.2,0,0.4-0.1,0.5,0c0.4,0,0.7,0.1,1.1,0.1h47.3
			c0.4,0,0.7,0.1,1.1,0c0.9-0.1,1.7-0.4,2.5-0.6c-0.8,0.3-1.6,0.6-2.5,0.6H222.6z M165.5,214.7c0-0.5,0-1.1-0.1-1.6
			C165.5,213.6,165.5,214.2,165.5,214.7z M165.4,212.4c0-0.1,0-0.1,0-0.2C165.3,212.3,165.3,212.4,165.4,212.4z M110,149.3
			c9.8,0,17.7,6.4,17.7,14.3s-7.9,14.3-17.7,14.3s-17.7-6.4-17.7-14.3S100.3,149.3,110,149.3z M136.1,187.5c-0.7-4-3-6.9-4.8-8.7
			c1.9-1.2,3.7-2.5,5.4-4c9.8,2.3,16.2,10,18.5,17.7c0.5,1.7,0.8,3.6,0.9,5.5c-2.3-1.1-5-1.7-7.7-1.7c-6,0-12.4,2.7-17.7,7.4
			c0.3-1,0.8-2,1.6-2.9C135.5,196.3,136.8,191.9,136.1,187.5z M141.7,169.4c5.3-6.8,8.5-15.4,8.5-24.6c0-2.7-0.3-5.3-0.8-7.8
			c7.1-3,12.2-10,12.2-18.2c0-3.6-1-7-2.7-10l8-9.3c2.7,1.3,5.4,2.3,8.1,2.8c2.1,5.3,4.1,12,5.1,19.7c0.6,4.6,0.7,9.2,0.5,13.7
			c0,0,0,0.1,0,0.1c-2.2,2.5-3.5,5.8-3.5,9.4v7.4c0,0,0.3,0,0.5,0c-0.1,0-0.3,0-0.5,0c-7,0.2-12.7,6-12.7,13.1
			c0,2.7,0.8,5.2,2.3,7.3c-4.5,0.4-8.4,3.2-10.4,7c2.6,3.3,4.5,7.1,5.6,10.8c0.8,2.6,1.2,5.1,1.2,7.5c0.6,0.2,1.2,0.5,1.8,0.7
			c-0.6,0-1.2,0-1.8-0.2c0-0.1,0-0.3,0-0.4c-0.1-2.4-0.5-4.9-1.2-7.5c-1.1-3.7-3-7.4-5.6-10.8C152.7,175.4,147.8,171.6,141.7,169.4z
			 M110,104.6c-2.6,0-5.1,0.3-7.5,0.7c12.4-11.5,26.4-17.8,41.7-18.7c3.4-0.2,6.6-0.1,9.5,0.2c0.3,0.7,0.7,1.4,1.1,2.1
			c1.5,2.4,3.6,4.7,6.1,6.7l-6.7,7.8c-3.4-2.7-7.7-4.4-12.4-4.4c-6.8,0-12.8,3.5-16.4,8.7C120.7,105.7,115.5,104.6,110,104.6z
			 M167,75.6c3.3,0,7,1,10.4,2.7c8.3,4.1,12,10.9,10.3,14.5c-1,1.9-3.7,3.1-7.3,3.1c-3.3,0-7-1-10.4-2.7c-3.9-2-7.3-4.9-9.2-7.9
			c-1.6-2.5-2-4.9-1.1-6.6C160.6,76.7,163.3,75.6,167,75.6z M199,152h-15h0v-6.9c0-4.1,3.4-7.5,7.5-7.5s7.5,3.4,7.5,7.5V152z
			 M141.9,106c7,0,12.7,5.7,12.7,12.7c0,5-2.9,9.4-7.2,11.4c-3.1-7.9-8.6-14.6-15.7-19.1C134.1,108,137.7,106,141.9,106z
			 M163.1,199.1c0-0.1,0-0.2,0-0.2C163.1,198.8,163.1,198.9,163.1,199.1z M215.1,179c3.4,0,6.1,3.1,6.1,6.5s-2.7,6.5-6.1,6.5h-47.3
			c-3.4,0-6.1-3.1-6.1-6.5s2.7-6.5,6.1-6.5H215.1z M205.6,171h-28.2c-3.4,0-6.1-2.6-6.1-6s2.7-6,6.1-6h28.2c3.4,0,6.1,2.6,6.1,6
			S209,171,205.6,171z M212.4,154.4c-1.9-1.1-4-1.8-6.3-1.9c-0.1,0-0.2,0-0.4,0c0.1,0,0.4,0,0.4,0v-7.4c0-8-6.5-14.5-14.5-14.5
			c-1.3,0-2.6,0.2-3.9,0.5c0-3.7-0.3-7.2-0.7-10.4c-0.9-6.8-2.5-12.9-4.3-18.1c5-0.5,8.9-2.7,10.9-6.2c8.8,2.6,18.9,7.8,25.9,18.4
			C221.4,129,218.7,142.7,212.4,154.4z M215.5,100.1c-6.6-5.5-13.9-8.7-20.5-10.6c-0.5-4.6-3.4-9.4-8.1-13.4l4.8-5.6
			C202.3,77.7,210.7,87.9,215.5,100.1z M185.7,66.9l-4.6,5.3c-0.2-0.1-0.4-0.2-0.6-0.3c-3.9-1.9-7.9-3.1-11.7-3.4
			c-2.5-3.6-5.5-6.5-8.3-8.8C169.5,60.5,178,63,185.7,66.9z M104,86c10.1-13.9,25.1-22.9,42-25.6c0.4-0.1,0.8-0.1,1.2-0.2
			c1.7,0.6,8.1,3.3,13.4,9.2c-3.3,1.1-5.8,3.2-7.2,6c-0.7,1.3-1,2.7-1.1,4.2c-2.5-0.2-5.2-0.2-8.1-0.1c-13,0.7-31.3,5.4-49,23.1
			C97.2,96.8,100.2,91.2,104,86z M66,118.7c0-7,5.7-12.7,12.7-12.7c4,0,7.6,1.9,9.9,4.8c-7.2,4.5-12.8,11.2-16,19.2
			C68.7,127.8,66,123.6,66,118.7z M76.9,144.8c0-17.6,14.1-32,31.1-33.1v0.8c0,1.1,0.9,2,2,2s2-0.9,2-2v-0.8
			c18,1,31.2,15.4,31.2,33.1c0,11-5.4,20.7-13.6,26.8c1.4-2.4,2.1-5.1,2.1-7.9c0-4.8-2.2-9.1-5.7-12.4c1.8-1,3-2.9,3-5.1
			c0-3.2-2.6-5.8-5.8-5.8c-3.2,0-5.8,2.6-5.8,5.8c0,0.1,0,0.2,0,0.3c-1.8-0.6-3.7-0.9-5.8-1.1c0.1-0.3,0.2-0.5,0.2-0.8v-4
			c0-1.1-0.9-2-2-2s-2,0.9-2,2v4c0,0.3,0,0.6,0.1,0.8c-2.1,0.2-4.2,0.6-6.2,1.2c0-0.2,0-0.3,0-0.5c0-3.2-2.6-5.8-5.8-5.8
			c-3.2,0-5.8,2.6-5.8,5.8c0,2.3,1.4,4.3,3.4,5.2c-3.4,3.2-5.5,7.5-5.5,12.2c0,2.8,0.8,5.5,2.2,7.9
			C82.2,165.5,76.9,155.8,76.9,144.8z M63,199.6c-0.2,0.1-0.3,0.3-0.5,0.4c-0.2-2.6,0.2-5.1,0.9-7.5c2.4-8,9.2-16,19.7-18
			c1.2,1.1,2.6,2.2,3.9,3.1l0.4,1.1c-1.8,1.7-4.2,4.7-4.9,8.8c-0.7,4.1,0.4,8.3,3.3,12.4c-4-2.3-8.3-3.6-12.5-3.6
			C69.5,196.3,65.9,197.4,63,199.6z M92.1,238.4c-1.7,1.3-3.8,1.9-6.2,1.9c-6,0-12.6-3.9-17.4-10.2c-6.8-9-7.4-20.4-1.4-24.9
			c1.7-1.3,3.8-1.9,6.2-1.9c6,0,12.6,3.9,17.4,10.2C97.4,222.5,98.1,233.9,92.1,238.4z M95.3,208c0.5-3.9-0.6-8-3.3-11.5
			c-2.1-2.8-3-5.3-2.6-7.7c0.4-2.4,2-4.2,3.1-5.1c1.2-0.4,2.5-0.7,3.8-0.7c0.7,0,1.3,0.1,2,0.2c0.7,0.2,1.3,0.4,2,0.6
			c2.7,1,4.8,3,5.7,5.6c0.5,1.4,1.8,2.3,3.3,2.3s2.8-0.9,3.3-2.3c0.8-2.2,2.5-4,4.8-5.1c1.5-0.3,2.9-0.6,4.4-1.1c0.2,0,0.4,0,0.5,0
			c1.5,0,2.9,0.3,4.2,0.9c1,1,2.3,2.7,2.7,4.8c0.4,2.3-0.5,4.9-2.6,7.7c-2.7,3.6-3.9,7.7-3.3,11.7c-4.5,4.2-9.8,7.7-13.3,9.7
			c-2.7-1.3-8.5-4.3-13.7-8.6C96,208.8,95.6,208.4,95.3,208z M108.5,232C108.5,232,108.5,232,108.5,232c-2.4,0-4.3-0.1-5.5-0.5
			c0.4-3.2,0.2-6.4-0.6-9.9c3.5,2,6.1,3.1,6.4,3.3c0.4,0.2,0.9,0.3,1.3,0.3c0.6,0,1.1-0.1,1.6-0.4c0.4-0.2,3.8-2,8.2-5
			c-1.2,3.8-1.7,7.3-1.3,10.8C114.9,231.7,111.5,232,108.5,232z M153,230.1c-4.7,6.3-11.4,10.2-17.4,10.2c-2.4,0-4.5-0.6-6.2-1.9
			c-6-4.5-5.3-15.9,1.4-24.9c4.7-6.3,11.4-10.2,17.4-10.2c2.4,0,4.5,0.6,6.2,1.9C160.4,209.7,159.8,221.1,153,230.1z M231.4,230
			h-70.4c0,0,0,0.3,0,0.3c0,0,0,0.1,0,0.1c2.3-4,3.7-8.1,4.2-12.1c0.1-0.5,0.1-1.3,0.2-1.9c0,0.6-0.1,1.6-0.2,1.6h57.3h8.8
			c3.4,0,6.1,2.6,6.1,6S234.8,230,231.4,230z M165.5,214.8c0,0.5,0,1,0,1.6C165.5,215.8,165.5,215.3,165.5,214.8z"/>
		<path fill="#5A81B8" d="M110,131.5c1.1,0,2-0.9,2-2v-6c0-1.1-0.9-2-2-2s-2,0.9-2,2v6C108,130.6,108.9,131.5,110,131.5z"/>
		<path fill="#5A81B8" d="M105.1,172c2.2,0,3.9-0.9,5-2.7c1.1,1.7,2.8,2.7,5,2.7c4.1,0,5.8-3.6,6.2-5.5c0.1-0.8-0.4-1.6-1.2-1.7
			c-0.8-0.1-1.6,0.4-1.7,1.2c0,0.1-0.6,3-3.2,3c-2.8,0-3.4-3-3.5-5.2c0-0.2,0-0.4,0-0.5c3.2-0.3,5.6-2.2,5.6-4.4
			c0-2.5-3-4.5-6.7-4.5s-6.7,2-6.7,4.5c0,2,2,3.7,4.7,4.3c0,0,0,0,0,0.1c0,0.2,0,0.4,0,0.6c-0.1,2.2-0.7,5.2-3.5,5.2
			c-2.6,0-3.2-2.7-3.2-3c-0.1-0.8-0.9-1.4-1.7-1.2c-0.8,0.1-1.4,0.9-1.2,1.7C99.2,168.4,100.9,172,105.1,172z"/>
	</g>
</g>
</svg>
