<?xml version="1.0" encoding="utf-8"?>
<!-- Generator: Adobe Illustrator 18.1.1, SVG Export Plug-In . SVG Version: 6.00 Build 0)  -->
<svg version="1.1" id="Layer_1" xmlns="http://www.w3.org/2000/svg" xmlns:xlink="http://www.w3.org/1999/xlink" x="0px" y="0px"
	 viewBox="0 0 300 300" enable-background="new 0 0 300 300" xml:space="preserve">
<g>
	<path fill="#FFFFFF" d="M162.2,103.8c2.8-3.1,4.2-5.9,4.2-8.3c0-1.8-1-3.5-3.1-5.4c-2.2-2-4.5-2.9-7-2.9c-2.9,0-5.9,1.9-9.1,5.7
		l-44,51.6c-1.1,1.3-3,1.8-4.6,1.2c-1.6-0.6-2.7-2.2-2.7-3.9c0.1-10.3,0.2-26.2,0.2-47.1c0-3.5-1.2-4.9-2.1-5.7
		c-1.6-1.4-4.1-2.1-7.4-2.1c-3.1,0-5.5,0.7-7.3,2.2c-1,0.8-2.3,2.3-2.3,5.9c0,12.8,0,28.2-0.1,47.2c-0.1,18.4-0.1,33.8-0.1,45.8
		c0,3,0,6.4-0.1,10.1c-0.1,3.7-0.1,6.1-0.1,7.2c0,3.5,1.3,5,2.3,5.8c1.7,1.4,4.1,2.1,7.3,2c8.5-0.2,9.6-3.7,9.6-7.4l-0.2-31.9
		c0-1,0.3-1.9,1-2.7c0.5-0.6,1.5-1.8,5.6-5.9c2.8-2.9,4.8-5.6,6-7.1c0.8-1,2-2.1,3.3-2.1c0,0,0,0,0,0c1.3,0,2.5,0.8,3.3,1.8
		l29.7,39.2h6.6v-19.8l-24.6-29.8c-1.4-1.6-1.2-4.1,0.3-5.6c0.2-0.2,0.8-0.8,2.6-2.8c1.5-1.6,2.5-2.7,3.2-3.4
		c2.6-2.7,5.5-5.3,7.5-7.7v-8.6c0-2.2,1.9-4.2,4.1-4.2h7.9C156.2,110,159.6,106.8,162.2,103.8C162.2,103.7,162.2,103.8,162.2,103.8z
		"/>
	<path fill="#CDCCCC" d="M215.5,203.9l-18.2-21.5c-1.4-1.7-1.2-4.1,0.5-5.6l20-17.4c0.7-0.6,1.7-1.4,2.6-1.4h2.7v-6h-33v5h10.3
		c1.7,0,3.2,1.6,3.8,3.2c0.6,1.6,0.1,3.7-1.3,4.7l-20.3,16.5l26.4,31.6H224v-8h-5.5C217.3,205,216.2,204.8,215.5,203.9z"/>
	<path fill="#CDCCCC" d="M176.8,206c-2.2,0-3.8-1.4-3.8-3.6V123h-25v7h7.1c2.2,0,3.9,2.7,3.9,5v66.7c0,2.2-1.7,3.4-3.9,3.4H148v8h33
		v-7H176.8z"/>
	<path fill="#5A81B8" d="M228,197h-7.6L206,179.6l15.8-13.6h5.4c2.2,0,3.9-0.9,3.9-3.1v-13.8c0-2.2-1.6-5.1-3.9-5.1h-41.3
		c-2.2,0-3.9,2.8-3.9,5.1v13.1c0,2.2,1.6,3.9,3.9,3.9h3.1l-8,6.8v-53.5c0-2.2-2-4.2-4.2-4.2h-13.6c2-3,3.7-4.1,5.2-5.8
		c4.2-4.6,6.3-9.2,6.3-13.8c0-4.2-2-8.1-5.9-11.5c-3.8-3.3-8-5-12.5-5c-5.4,0-10.6,2.9-15.4,8.7l-36.6,43c0.1-9.5,0.1-21.4,0.1-35.8
		c0-5.2-1.7-9.2-5.1-12c-3.2-2.6-7.4-4-12.7-4c-5,0-9.2,1.4-12.5,4c-2.5,2-5.4,5.8-5.4,12.4c0,12.8,0,28.2-0.1,47.1
		c-0.1,18.4-0.1,33.8-0.1,45.8c0,3,0,6.3-0.1,10c-0.1,3.7-0.1,6.2-0.1,7.4c0,6.4,2.9,10.2,5.3,12.2c3.1,2.6,7.1,3.9,11.9,3.9
		c0.3,0,0.6,0,0.8,0c15.4-0.4,17.7-10,17.7-15.7l-0.2-30.3c0.8-0.8,2-2.1,4.2-4.3c1.2-1.2,2.2-2.3,3.2-3.3l28.6,37.6l0.2,0.3v11.8
		c0,2.2,1.9,3.6,4.1,3.6h14.7h4.1h22.2c2.2,0,3.9-1.4,3.9-3.6v-15c0-0.1,0.1-0.2,0-0.2l14.9,17.6c0.8,0.9,1.9,1.2,3.1,1.2h21
		c2.2,0,4-1.4,4-3.6v-15.7C232,199.4,230.2,197,228,197z M114.6,157.8c-0.8-1-2-1.8-3.3-1.8c0,0,0,0,0,0c-1.3,0-2.5,1.1-3.3,2.1
		c-1.2,1.5-3.2,4-6,6.9c-4,4.1-5.1,5.5-5.6,6c-0.6,0.8-1,1.8-1,2.7l0.2,31.9c0,3.7-1.2,7.1-9.6,7.4c-3.1,0.1-5.5-0.5-7.3-2
		c-1-0.8-2.3-2.3-2.3-5.8c0-1.2,0-3.6,0.1-7.2c0.1-3.7,0.1-7.1,0.1-10.1c0-12,0-27.4,0.1-45.8c0.1-18.9,0.1-34.4,0.1-47.2
		c0-3.6,1.3-5.1,2.3-5.9c1.9-1.5,4.3-2.2,7.3-2.2c3.3,0,5.7,0.7,7.4,2.1c0.9,0.8,2.1,2.2,2.1,5.7c0,20.9-0.1,36.7-0.2,47.1
		c0,1.7,1.1,3.3,2.7,3.9c1.6,0.6,3.5,0.1,4.6-1.2l44-51.6c3.2-3.8,6.2-5.7,9.1-5.7c2.5,0,4.8,1,7,2.9c2.1,1.9,3.1,3.6,3.1,5.4
		c0,2.4-1.4,5.2-4.2,8.3c0,0-0.1,0-0.1,0c-2.5,3-5.9,6.2-10.1,11.2h-7.9c-2.2,0-4.1,2-4.1,4.2v8.6c-2,2.4-4.8,5-7.4,7.7
		c-0.7,0.7-1.8,1.8-3.3,3.4c-1.8,2-2.4,2.6-2.6,2.8c-1.5,1.5-1.7,3.9-0.3,5.6l24.6,29.8V197h-6.6L114.6,157.8z M141.8,137.7
		c0.7,0.5,1.4,0.3,2.3,0.3h6.9v26.2l-15.9-19.3c0.1-0.1,0.2-0.2,0.3-0.3c1.4-1.5,2.4-2.7,3-3.4C139.5,140.2,140.8,138.7,141.8,137.7
		z M181,213h-33v-8h7.1c2.2,0,3.9-1.1,3.9-3.4V135c0-2.2-1.7-5-3.9-5H148v-7h25v79.4c0,2.2,1.6,3.6,3.8,3.6h4.2V213z M185.1,198H181
		v-5.7l5.1,6C185.8,198.2,185.4,198,185.1,198z M224,213h-15.1l-26.4-31.4l20.3-16.4c1.3-1.1,1.8-3.4,1.3-5
		c-0.6-1.6-2.1-3.2-3.8-3.2H190v-5h33v6h-2.7c-1,0-1.9,0.8-2.6,1.4l-20,17.3c-1.7,1.4-1.9,4.1-0.5,5.8l18.2,21.4
		c0.8,0.9,1.9,1.2,3.1,1.2h5.5V213z"/>
</g>
</svg>
