<?xml version="1.0" encoding="utf-8"?>
<!-- Generator: Adobe Illustrator 18.1.1, SVG Export Plug-In . SVG Version: 6.00 Build 0)  -->
<svg version="1.1" id="Layer_1" xmlns="http://www.w3.org/2000/svg" xmlns:xlink="http://www.w3.org/1999/xlink" x="0px" y="0px"
	 viewBox="0 0 300 300" enable-background="new 0 0 300 300" xml:space="preserve">
<g>
	<path fill="#FFFFFF" d="M120.7,196.6c-2.3,0-4.7-1.9-4.7-4.1v-23.4c0-15.6,0.6-27.3,0.7-34.9c0.3-21.8,0.7-35,0.7-39.3
		c0-4.5-1.3-7.4-8.4-7.4c-3.1,0-5.6,0.7-7.6,2.2c-1.7,1.2-2.5,3-2.6,5.4c0,5.2,0,14,0.1,26.2C99,134,99,142.9,99,148.7
		c0,6-0.2,14.4-0.6,25.1c-0.4,10.5-0.6,17.7-0.6,21.3c0,2.2,0.1,4.5,0.4,7c0.3,3.2,1.1,7.2,3.5,8.6c1.1,0.7,4,1.8,11.2,1.8
		c1.2,0,2.5,0,3.9-0.1c5.5-0.3,13.9-0.4,25.6-0.4L154,212v-13.2c0-1.2,0.8-2.2,1.5-3l-16.7,0.6C136.1,196.6,130,196.6,120.7,196.6z"
		/>
	<path fill="#CDCCCC" d="M190,198.8V112h-27v9h8c2.5,0,4,1.4,4,3.9v73.9c0,2.5-1.5,4.2-4,4.2h-8v9h38v-9h-5.8
		C192.7,203,190,201.3,190,198.8z"/>
	<path fill="#5A81B8" d="M206.1,194H199v-86.6c0-2.5-1.4-4.4-3.8-4.4h-36.1c-2.5,0-5.1,2-5.1,4.4v17.4c0,2.5,2.7,4.1,5.1,4.1h6.9
		v59.1c-1,0-28.1,0.1-28.1,0.1c-2.2,0.1-6.9,0.2-13.9,0.2v-19.2c0-15.5,0.7-27.2,0.9-34.8c0.3-21.9,0.7-35.1,0.7-39.4
		c0-9.9-6-15.6-16.6-15.6c-4.9,0-9.1,1.3-12.5,3.8c-3.7,2.8-5.8,6.9-5.9,11.9c0,0,0,0.1,0,0.1c0,5.2,0,14.1,0.1,26.3
		c0.1,12.6,0.1,21.5,0.1,27.2c0,5.9-0.2,14.2-0.6,24.8c-0.4,10.6-0.6,17.9-0.6,21.6c0,2.5,0.1,5.1,0.4,7.8c0.6,7.4,3.2,12.4,7.6,15
		c3.3,2,8.4,2.9,15.4,2.9c1.3,0,2.8,0,4.3-0.1c5.4-0.3,13.9-0.4,25.5-0.4l14.5,0.1c0,0,0.1,0.1,0.1,0.1c0.6,0.2,1.1,0.5,1.7,0.5
		h46.9c2.5,0,3.9-2.3,3.9-4.7v-17.4C210,196.4,208.5,194,206.1,194z M154,198.8V212l-11.5-0.1c-11.7,0-20.2,0.1-25.7,0.4
		c-1.4,0.1-2.6,0.1-3.8,0.1c-7.2,0-10.1-1.1-11.2-1.8c-2.4-1.4-3.2-5.5-3.5-8.6c-0.2-2.4-0.4-4.8-0.4-7c0-3.6,0.2-10.7,0.6-21.3
		c0.4-10.7,0.6-19.1,0.6-25.1c0-5.8,0-14.7-0.1-27.3c-0.1-12.2-0.1-21-0.1-26.2c0.1-2.5,0.9-4.2,2.6-5.4c2-1.5,4.5-2.2,7.7-2.2
		c7.1,0,8.5,2.8,8.5,7.4c0,4.2-0.7,17.5-0.9,39.3c-0.1,7.6-0.7,19.4-0.7,34.9v23.4c0,2.3,2.4,4.1,4.7,4.1c9.4,0,15.6-0.1,18.3-0.2
		l16.4-0.6C154.9,196.3,154,197.7,154,198.8z M201,212h-38v-9h8c2.5,0,4-1.7,4-4.2v-73.9c0-2.5-1.5-3.9-4-3.9h-8v-9h27v86.8
		c0,2.5,2.7,4.2,5.2,4.2h5.8V212z"/>
</g>
</svg>
