<?xml version="1.0" encoding="utf-8"?>
<!-- Generator: Adobe Illustrator 18.1.1, SVG Export Plug-In . SVG Version: 6.00 Build 0)  -->
<svg version="1.1" id="Layer_1" xmlns="http://www.w3.org/2000/svg" xmlns:xlink="http://www.w3.org/1999/xlink" x="0px" y="0px"
	 viewBox="0 0 300 300" enable-background="new 0 0 300 300" xml:space="preserve">
<g>
	<path fill="#FFFFFF" d="M215.9,181.5l-14.4,5.4l-1.2,0.5c-5.1,16.4-16.2,29.7-30.5,37.9c2.4,3.9,4.2,8.2,5.3,12.8
		C196.1,226.6,211.6,206,215.9,181.5z"/>
	<path fill="#FFFFFF" d="M70.5,167.7c0-7.8,1.4-15.5,4-22.6c-4.3-2.4-8.1-5.6-11.1-9.5c-4.4,10-6.8,20.9-6.8,32.1
		c0,26.6,13,50.1,32.9,64.7c1.7-4.4,4.1-8.4,7-12C80.7,208.3,70.5,189.2,70.5,167.7z"/>
	<path fill="#FFFFFF" d="M151.1,142.3C151.1,142.3,151.1,142.3,151.1,142.3l19.3-18.5c0,0,0,0,0,0l2.5-2.4L101.6,47L89.4,58.7
		L79.7,68c0,0,0,0,0,0l-2.5,2.4l9.6,10c1.3-0.2,2.7-0.3,4.1-0.3c19,0,34.5,15.5,34.5,34.5c0,1.9-0.2,3.7-0.4,5.5l23.5,24.5
		L151.1,142.3z"/>
	
		<rect x="80" y="42" transform="matrix(0.6927 0.7212 -0.7212 0.6927 61.8471 -43.3974)" fill="#CCCCCC" width="3.8" height="17.8"/>
	
		<rect x="159.4" y="139" transform="matrix(0.7212 -0.6927 0.6927 0.7212 -50.6715 155.8415)" fill="#CCCCCC" width="17.8" height="3.8"/>
	
		<rect x="176.9" y="146.8" transform="matrix(0.7212 -0.6927 0.6927 0.7212 -56.0873 167.8824)" fill="#FFFFFF" width="7.2" height="13.6"/>
	<path fill="#FFFFFF" d="M91,140.3c14.1,0,25.5-11.5,25.5-25.5S105,89.2,91,89.2c-14.1,0-25.5,11.5-25.5,25.5S76.9,140.3,91,140.3z
		 M91,96.6c10,0,18.1,8.1,18.1,18.1S101,132.9,91,132.9s-18.1-8.1-18.1-18.1S80.9,96.6,91,96.6z"/>
	<path fill="#CCCCCC" d="M100.1,114.7c0-5-4.1-9.1-9.1-9.1s-9.1,4.1-9.1,9.1s4.1,9.1,9.1,9.1S100.1,119.8,100.1,114.7z"/>
	<path fill="#FFFFFF" d="M131.4,212.5c-17.2,0-31.7,12.5-35.1,28.5h19.7c-0.4-1-0.6-2.8-0.6-4.3c0-8.8,7.2-16,16-16s16,7.1,16,15.9
		c0,1.5-0.2,3.3-0.6,4.3h19.7C163.1,225,148.7,212.5,131.4,212.5z"/>
	<path fill="#CCCCCC" d="M131.4,229.8c-3.9,0-7,3-7,6.9c0,1.7,0.6,3.3,1.6,4.3h10.9c1-1,1.6-2.6,1.6-4.3
		C138.5,232.8,135.3,229.8,131.4,229.8z"/>
	<rect x="55" y="250" fill="#CCCCCC" width="181" height="8"/>
	<path fill="#CCCCCC" d="M224.6,91.1c0.3-2.2-0.2-4.3-1.5-6.1c-1.3-1.8-3.2-2.9-5.3-3.3c-0.4-0.1-0.9-0.1-1.3-0.1
		c-4,0-7.4,2.9-8.1,6.9c-0.7,4.5,2.3,8.7,6.8,9.4c0.4,0.1,0.9,0.1,1.3,0.1C220.6,98,224,95.1,224.6,91.1z"/>
	<path fill="#CCCCCC" d="M178.4,76.6c-0.2,0-0.5-0.1-0.7-0.1c-2.2,0-4.2,1.7-4.5,3.9c-0.4,2.5,1.3,4.9,3.8,5.3
		c2.5,0.4,4.9-1.4,5.3-3.8C182.6,79.4,180.9,77,178.4,76.6z"/>
	<path fill="#CCCCCC" d="M226.6,137.2c0.2,0,0.5,0.1,0.7,0.1c2.3,0,4.2-1.6,4.5-3.9c0.2-1.2-0.1-2.4-0.8-3.4s-1.8-1.7-3-1.9
		c-0.2,0-0.5-0.1-0.7-0.1c-2.2,0-4.2,1.7-4.5,3.9C222.4,134.4,224.1,136.8,226.6,137.2z"/>
	<path fill="#CCCCCC" d="M237.7,62.2c3.3,0,6.1-2.4,6.7-5.7c0.3-1.8-0.1-3.6-1.2-5c-1.1-1.5-2.6-2.4-4.4-2.7
		c-0.4-0.1-0.7-0.1-1.1-0.1c-3.3,0-6.1,2.4-6.7,5.7c-0.6,3.7,1.9,7.1,5.6,7.7C237,62.2,237.3,62.2,237.7,62.2z"/>
	<g>
		<path fill="#5980B7" d="M103,213.9c-14.2-10.4-23.5-27.3-23.5-46.2c0-6.7,1.2-13.3,3.4-19.4c2.6,0.6,5.3,1,8,1
			c13.6,0,25.3-7.9,31-19.3l23.3,23.9c0.8,0.9,2,1.1,3.2,1.1c0,0,0.1,0,0.1,0c1.2,0,2.3-0.2,3.1-1l2.5-2.2l0,0.1l5.7,6
			c0.9,0.9,2.1,1.4,3.2,1.4c1.1,0,2.2-0.4,3.1-1.3l0.5-0.5l12.5,13c0.9,0.9,2.1,1.4,3.2,1.4c1.1,0,2.2-0.4,3.1-1.3l11.7-11.2
			c0.9-0.8,1.4-2,1.4-3.2s-0.4-2.3-1.3-3.2l-12.5-13l0.5-0.5c1.8-1.7,1.8-4.6,0.1-6.4l-5.7-6l2.5-2.4c1.8-1.7,1.8-4.6,0.1-6.4
			l-77.6-80.8c-0.8-0.9-2-1.4-3.2-1.4c-1.2,0-2.3,0.4-3.2,1.3l-2.5,2.4l3.1,3.2c0.8,0.9,1.3,2,1.3,3.2c0,0,0,0,0,0
			c0-1.2-0.4-2.3-1.3-3.2l-3.1-3.2l-5.7-6c-0.8-0.9-2-1.4-3.2-1.4c-1.2,0-2.3,0.4-3.2,1.3L64.7,52.3c-1.8,1.7-1.8,4.6-0.1,6.4l5.7,6
			l-2.5,2.4c-1.8,1.7-1.8,4.6-0.1,6.4l9.4,9.8c-12.1,5.4-20.6,17.5-20.6,31.6c0,3.8,0.6,7.5,1.8,11c1.2,3.6,3,6.9,5.2,9.8
			c3,3.9,6.8,7.2,11.1,9.5c-2.6,7.1-4,14.8-4,22.6c0,21.5,10.2,40.6,26.1,52.7C98.5,218,100.6,215.9,103,213.9z M163.2,148.4
			l-2.6-2.7l12.8-12.3l2.6,2.7L163.2,148.4z M187.8,156l-5.2,5l-9.4-9.8l5.2-5L187.8,156z M101.6,47l71.3,74.3l-2.5,2.4c0,0,0,0,0,0
			l-19.3,18.5c0,0,0,0,0,0l-2.5,2.4L125,120.2c0.3-1.8,0.4-3.6,0.4-5.5c0-19-15.5-34.5-34.5-34.5c-1.4,0-2.8,0.1-4.1,0.3l-9.5-10
			L80,68c0,0,0,0,0,0l9.5-9.3l9.6-9.3c0,0,0,0,0,0L101.6,47z M86.9,43.4l2.6,2.7L76.8,58.4l-2.6-2.7L86.9,43.4z M65.4,114.7
			c0-14.1,11.5-25.5,25.5-25.5c14.1,0,25.5,11.5,25.5,25.5S105,140.3,91,140.3C76.9,140.3,65.4,128.8,65.4,114.7z"/>
		<path fill="#5980B7" d="M109.1,114.7c0-10-8.1-18.1-18.1-18.1s-18.1,8.1-18.1,18.1s8.1,18.1,18.1,18.1S109.1,124.7,109.1,114.7z
			 M81.8,114.7c0-5,4.1-9.1,9.1-9.1s9.1,4.1,9.1,9.1s-4.1,9.1-9.1,9.1S81.8,119.8,81.8,114.7z"/>
		<path fill="#5980B7" d="M241.7,171.7c2.3-0.9,3.5-3.5,2.6-5.8c-0.9-2.3-3.5-3.5-5.8-2.6l-17.1,6.5c-0.6,0-1.2,0.1-1.7,0.3
			l-21.3,8.4l-42.7,16.1c-2.3,0.9-3.5,3.5-2.6,5.8c0.7,1.8,2.4,2.9,4.2,2.9c0.5,0,1.1-0.1,1.6-0.3l30.2-11.4
			c-5.2,11.4-14,20.6-24.7,26.4c2.1,2.2,3.9,4.6,5.5,7.2c14.3-8.2,25.4-21.5,30.5-37.9l1.2-0.5l14.4-5.4l9.6-3.6L241.7,171.7z"/>
		<path fill="#5980B7" d="M240.1,241h-52.7c3.6-3,7-5.1,10.2-8.1c15.7-14.6,25.5-34,27.9-55.1l-9.6,3.6
			c-4.3,24.5-19.8,45.2-40.8,56.7c-1.1-4.6-2.9-8.9-5.3-12.8c-1.6-2.6-3.4-5-5.5-7.2c-8.2-8.8-19.9-14.3-32.8-14.3
			c-10.8,0-20.7,3.8-28.5,10.2c-2.3,1.9-4.5,4.1-6.4,6.4c-2.9,3.6-5.3,7.7-7,12.1c-20-14.6-32.9-38.2-32.9-64.8
			c0-11.3,2.4-22.2,6.8-32.2c-2.2-2.9-4-6.3-5.2-9.8c-6.8,12.7-10.6,26.9-10.6,41.9c0,30.5,15.4,57.4,38.7,73.4H50.2
			c-2.5,0-4.2,2.2-4.2,4.7v17.1c0,2.5,1.7,4.2,4.2,4.2h189.9c2.5,0,4.9-1.7,4.9-4.2v-17.1C245,243.2,242.6,241,240.1,241z
			 M131.4,212.5c17.2,0,31.7,12.5,35.1,28.5h-19.7c0.4-1,0.6-2.8,0.6-4.3c0-8.8-7.2-16-16-16s-16,7.1-16,15.9c0,1.5,0.2,3.3,0.6,4.3
			H96.3C99.8,225,114.2,212.5,131.4,212.5z M124.4,236.7c0-3.9,3.1-7,7-7s7,3.1,7,6.9c0,1.7-0.6,3.3-1.6,4.3H126
			C125,240,124.4,238.4,124.4,236.7z M236,258H55v-8h181V258z"/>
		<path fill="#5980B7" d="M250.4,46.2c-2.5-3.4-6.1-5.7-10.3-6.3c-0.8-0.1-1.7-0.2-2.5-0.2c-7.8,0-14.3,5.6-15.5,13.3
			c-0.8,4.8,0.8,9.5,3.8,12.9l-5.1,7.3c-0.5-0.1-1-0.2-1.5-0.3c-0.9-0.1-1.8-0.2-2.7-0.2c-7.7,0-14.3,5-16.4,12.3l-8.9-2.1
			c0.8-7.2-4.1-13.9-11.4-15c-0.7-0.1-1.4-0.2-2.2-0.2c-6.7,0-12.4,4.8-13.4,11.5c-1.2,7.4,3.9,14.4,11.3,15.6
			c0.7,0.1,1.4,0.2,2.2,0.2c3.6,0,7-1.4,9.4-3.8l12.8,3c1.7,6.4,7,11.6,13.9,12.7c0.1,0,0.2,0,0.2,0l7,13.7
			c-3.7,1.9-6.4,5.5-7.2,9.9c-1.2,7.4,3.9,14.4,11.3,15.6c0.7,0.1,1.4,0.2,2.2,0.2c6.7,0,12.4-4.8,13.4-11.5
			c0.6-3.6-0.3-7.2-2.4-10.1c-1.9-2.6-4.7-4.5-7.8-5.2l-7.1-13.9c5.2-2.3,9.1-7.1,10-13c0.7-4.5-0.4-9.1-3.1-12.8
			c-0.5-0.8-1.2-1.4-1.8-2.1l4.9-7c0.5,0.1,1.1,0.3,1.6,0.4c0.8,0.1,1.7,0.2,2.5,0.2c7.8,0,14.3-5.6,15.5-13.3
			C253.9,53.8,252.9,49.6,250.4,46.2z M176.9,85.7c-2.5-0.4-4.2-2.8-3.8-5.3c0.4-2.2,2.3-3.9,4.5-3.9c0.2,0,0.5,0,0.7,0.1
			c2.5,0.4,4.2,2.8,3.8,5.3C181.8,84.3,179.4,86.1,176.9,85.7z M231.9,133.3c-0.4,2.3-2.3,3.9-4.5,3.9c-0.2,0-0.5,0-0.7-0.1
			c-2.5-0.4-4.2-2.8-3.8-5.3c0.4-2.2,2.3-3.9,4.5-3.9c0.2,0,0.5,0,0.7,0.1c1.2,0.2,2.3,0.9,3,1.9S232.1,132.1,231.9,133.3z
			 M224.6,91.1c-0.6,4-4,6.9-8.1,6.9c-0.4,0-0.9,0-1.3-0.1c-4.5-0.7-7.5-4.9-6.8-9.4c0.6-4,4-6.9,8.1-6.9c0.4,0,0.9,0,1.3,0.1
			c2.2,0.3,4.1,1.5,5.3,3.3C224.4,86.8,225,88.9,224.6,91.1z M244.3,56.5c-0.5,3.3-3.3,5.7-6.7,5.7c-0.4,0-0.7,0-1.1-0.1
			c-3.7-0.6-6.2-4.1-5.6-7.7c0.5-3.3,3.3-5.7,6.7-5.7c0.4,0,0.7,0,1.1,0.1c1.8,0.3,3.3,1.2,4.4,2.7
			C244.2,52.9,244.6,54.7,244.3,56.5z"/>
	</g>
</g>
</svg>
