<?xml version="1.0" encoding="utf-8"?>
<!-- Generator: Adobe Illustrator 18.1.1, SVG Export Plug-In . SVG Version: 6.00 Build 0)  -->
<svg version="1.1" id="Layer_1" xmlns="http://www.w3.org/2000/svg" xmlns:xlink="http://www.w3.org/1999/xlink" x="0px" y="0px"
	 viewBox="0 0 300 300" enable-background="new 0 0 300 300" xml:space="preserve">
<g>
	<path fill="#FFFFFF" d="M115.5,124.2c0,0,0-0.2,0.1-0.2h67.8c6,0,11.4,4.4,12.9,10.2l4.9,17.9c0.5,1.7,0.1,3.4-0.9,4.8
		c-1,1.4-2.7,2.1-4.4,2.1h-92.1c-1.7,0-3.3-0.7-4.3-2c-1-1.3-1.4-3-1-4.6l2.4-10.2c-1.8,0.6-3.7,1-5.8,1.3l-0.5,1.6
		c-1.1,4.1-3.2,7.8-6.1,10.9L77,167.7l0,1.3h13.2c12.1,0,21.9,10.6,21.9,23.3c0,3-2.5,5.7-5.5,5.7H77.1l0,9H222v-9h-28.8
		c-3,0-5.5-2.6-5.5-5.7c0-12.8,9.8-23.3,21.9-23.3H222v-1l-11.1-11.7c-3.2-3.3-5.4-7.5-6.5-12l-3.6-15.1c-1.7-7.1-8-12.2-15.2-12.2
		h-69.8C115.9,119,115.8,121.8,115.5,124.2z M177,189h-52c-3,0-5.5-2.5-5.5-5.5s2.5-5.5,5.5-5.5h52c3,0,5.5,2.5,5.5,5.5
		S180,189,177,189z"/>
	<path fill="#FFFFFF" d="M199.8,187H222v-7h-12.5C205.3,180,201.6,183,199.8,187z"/>
	<path fill="#FFFFFF" d="M90.1,180H77l0,7h22.8C98,183,94.4,180,90.1,180z"/>
	<path fill="#CCCCCC" d="M84,227.3c0,0.9,0.6,0.7,1.1,0.7h23.2c0.5,0,0.7,0.1,0.7-0.7V219H84V227.3z"/>
	<path fill="#CCCCCC" d="M191,227.3c0,0.9,0.7,0.7,1.2,0.7h23.2c0.5,0,0.6,0.1,0.6-0.7V219h-25V227.3z"/>
	<path fill="#CCCCCC" d="M185.6,137c-0.3-1-1.2-2-2.3-2h-67.8c-1.1,0-2.1,1-2.4,2.1l-2.6,10.9h77.9L185.6,137z"/>
	<path fill="#FFFFFF" d="M103.4,127.2c5.3-10-4.5-33-13.9-49.3C79.8,94,69.8,117,75.1,127c0.8,1.4,3.1,5.8,14.4,5.8
		C100.4,132.8,102.7,128.5,103.4,127.2z"/>
	<path fill="#FFFFFF" d="M120.6,104.6c0.5,1,2.9,1.1,3.9,1.1s3.3-0.1,3.9-1.1c1.4-2.5-0.6-9.3-3.9-16.1
		C121.3,95.3,119.2,102.1,120.6,104.6z"/>
	<g>
		<path fill="#5980B7" d="M237.6,146h-20.4c-0.9-2-1.6-2.8-1.9-4.4l-3.6-15.1c-2.9-12-13.6-20.5-26-20.5h-46.2
			c0.6-14-8-28.5-10.3-32c-1-1.6-2.7-2.4-4.6-2.4s-3.6,1-4.6,2.6c-1.6,2.5-7.3,11.8-9.6,21c-5.9-15.1-14.5-28.7-16.2-31.2
			c-1-1.5-2.7-2.9-4.6-2.9c0,0,0,0,0,0c-1.8,0-3.5,1.4-4.6,2.9c-3.2,4.7-30.8,46.9-19.5,68.1c3.4,6.3,9.4,9.9,18.1,11
			c0,0-0.9,2-1.4,3H61.5c-2.6,0-4.5,3-4.5,6.5v7.7c0,3.5,1.8,5.8,4.5,5.8H66l0.2,46.6c0,3,2.5,5.4,5.5,5.4H73v9.3
			c0,6.9,5.5,11.7,12.1,11.7h23.2c6.6,0,11.7-4.8,11.7-11.7V218h60v9.3c0,6.9,5.6,11.7,12.2,11.7h23.2c6.6,0,11.6-4.8,11.6-11.7V218
			h0.9c3,0,5.1-1.9,5.1-4.9v-36.4c0-0.5,0-10.7,0-10.7h0.4h4.2c2.6,0,4.4-2.4,4.4-5.8v-7.7C242,149,240.2,146,237.6,146z
			 M124.5,88.5c3.3,6.8,5.3,13.5,3.9,16.1c-0.5,1-2.9,1.1-3.9,1.1s-3.3-0.1-3.9-1.1C119.2,102.1,121.3,95.3,124.5,88.5z M222,187
			h-22.2c1.8-4,5.5-7,9.7-7H222V187z M115.6,116.2c0,0,0-0.1,0-0.1C115.6,116.1,115.6,116.1,115.6,116.2z M113.2,137.1
			c0.3-1.1,1.2-2.1,2.4-2.1h67.8c1.1,0,2,1,2.3,2l3,11h-77.9L113.2,137.1z M75.1,127c-5.3-10,4.7-33,14.3-49.2
			c9.5,16.3,19.3,39.4,13.9,49.3c-0.7,1.4-3,5.6-13.9,5.6C78.2,132.8,75.9,128.4,75.1,127z M77,180h13.1c4.2,0,7.9,3,9.7,7H77
			L77,180z M109,227.3c0,0.9-0.3,0.7-0.7,0.7H85.1c-0.5,0-1.1,0.1-1.1-0.7V219h25V227.3z M77.1,207l0-9h29.4c3,0,5.5-2.6,5.5-5.7
			c0-12.8-9.8-23.3-21.9-23.3H77l0-1.3l11.5-12c2.9-3.1,5-6.9,6.1-11L95,143c0,0,0,0,0,0c2.1,0,4-0.5,5.8-1l-2.4,10.4
			c-0.4,1.6,0,3.2,1,4.6c1,1.3,2.6,2,4.3,2h92.1c1.7,0,3.3-0.7,4.4-2.1c1-1.4,1.4-3.1,0.9-4.7l-4.9-18c-1.6-5.8-6.9-10.2-12.9-10.2
			h-67.8c0,0,0,0-0.1,0c0.3-2.2,0.4-4,0.3-7h69.8c7.3,0,13.6,5.1,15.3,12.2l3.6,15.1c1.1,4.5,3.2,8.7,6.4,12L222,168v1h-12.5
			c-12.1,0-21.9,10.6-21.9,23.3c0,3,2.5,5.7,5.5,5.7H222v9H77.1z M216,227.3c0,0.9-0.2,0.7-0.6,0.7h-23.2c-0.5,0-1.2,0.1-1.2-0.7
			V219h25V227.3z"/>
		<path fill="#5980B7" d="M177,178h-52c-3,0-5.5,2.5-5.5,5.5s2.5,5.5,5.5,5.5h52c3,0,5.5-2.5,5.5-5.5S180,178,177,178z"/>
		<path fill="#5980B7" d="M185.2,86c0.3,0,6.9,0.9,6.9,6.2c0,3,2.5,5.5,5.5,5.5s5.5-2.5,5.5-5.5c0-5.1,5.7-6.1,6.8-6.2
			c2.9-0.3,5-2.8,4.9-5.7c-0.1-2.9-2.5-5.2-5.4-5.2c-1.5,0-6.3-0.6-6.3-6.2c0-3-2.5-5.5-5.5-5.5s-5.5,2.5-5.5,5.5
			c0,5.2-5.1,6.1-6.6,6.2c-2.8,0.2-5,2.5-5.1,5.4C180.3,83.2,182.4,85.7,185.2,86z"/>
		<path fill="#5980B7" d="M210.6,105.3c-0.1,2.9,2.1,5.3,5,5.7c0.2,0,1.2,0.3,1.4,0.6c0,0,0,0.1,0,0.2c0,3,2.5,5.5,5.5,5.5
			s5.5-2.5,5.5-5.5c0-0.1,0-0.2,0-0.2c0.2-0.2,0.9-0.5,1.3-0.6c2.9-0.2,5.1-2.7,5-5.6c-0.1-2.9-2.6-5.3-5.5-5.3c0,0-0.6-0.1-0.8-0.3
			c0-0.1,0-0.2,0-0.5c0-3-2.5-5.5-5.5-5.5s-5.5,2.5-5.5,5.5c0,0.2,0,0.3,0,0.3c-0.2,0.2-0.7,0.4-1.2,0.5
			C212.9,100.2,210.7,102.5,210.6,105.3z"/>
		<path fill="#5980B7" d="M224.3,77.9c0.2,0,1.2,0.3,1.4,0.6c0,0,0,0.1,0,0.2c0,3,2.5,5.5,5.5,5.5s5.5-2.5,5.5-5.5
			c0-0.1,0-0.2,0-0.2c0.2-0.2,0.9-0.5,1.3-0.6c3-0.2,5.3-2.8,5.1-5.8c-0.2-3-2.6-5.3-5.6-5.2c-0.3,0-0.7-0.2-0.9-0.3
			c0-0.1,0-0.2,0-0.5c0-3-2.5-5.5-5.5-5.5s-5.5,2.5-5.5,5.5c0,0.2,0,0.3,0,0.3c-0.2,0.2-0.8,0.4-1.2,0.5c-2.8,0.1-5,2.4-5.1,5.3
			C219.2,75.1,221.4,77.6,224.3,77.9z"/>
	</g>
</g>
</svg>
