<?xml version="1.0" encoding="utf-8"?>
<!-- Generator: Adobe Illustrator 18.1.1, SVG Export Plug-In . SVG Version: 6.00 Build 0)  -->
<svg version="1.1" id="Layer_1" xmlns="http://www.w3.org/2000/svg" xmlns:xlink="http://www.w3.org/1999/xlink" x="0px" y="0px"
	 viewBox="0 0 300 300" enable-background="new 0 0 300 300" xml:space="preserve">
<g>
	<path fill="none" d="M214.8,221.8c0.9,0,1.8,0,2.7-0.3C216.6,221.7,215.7,221.8,214.8,221.8z"/>
	<path fill="none" d="M152,247.4c0.2,0.2,0.4,0.5,0.6,0.6C152.4,247.9,152.2,247.7,152,247.4z"/>
	<path fill="#FFFFFF" d="M217.4,221.6c-0.9,0.3-1.8,0.4-2.7,0.4H191v6h9.7c3,0,5.5,2.5,5.5,5.5s-2.5,5.5-5.5,5.5H191v4.9
		c0,1-0.6,2.1-1.1,3.1h34.6c-3.3-5-4.7-11.2-4.1-16.7c0.4-3.5,1.6-6.3,3-9.3h-2.3c-0.7,0-1.5,0.3-2.3,0.4
		C218.4,221.5,217.9,221.6,217.4,221.6z"/>
	<polygon fill="#FFFFFF" points="161.5,247 180.2,247 171.2,239.3 	"/>
	<path fill="#FFFFFF" d="M151,239H95.7c-3,0-5.5-2.5-5.5-5.5s2.5-5.5,5.5-5.5H151v-6H81.7c-7,1-12.2,6.2-12.2,12.3
		c0,7.1,7,12.7,15.7,12.7h66.4c-0.5-1-0.6-2-0.6-3.1V239z"/>
	<path fill="#FFFFFF" d="M151,200H98.7c-3,0-5.5-2.5-5.5-5.5s2.5-5.5,5.5-5.5h105c3,0,5.5,2.5,5.5,5.5s-2.5,5.5-5.5,5.5H191v10.4
		v0.6h23.8c8.6,0,15.7-7.6,15.7-17s-7-17-15.7-17H107.1H88.7h-7.2h-7c4.1,7,5.8,14.8,5,22.1c-0.5,4.7-2.1,7.9-3.9,11.9H151v-0.6V200
		z"/>
	<path fill="#CCCCCC" d="M175,227.8l5,4.2v-31.8l-18-0.3v32.7l6.1-4.9C170.1,226,173,226,175,227.8z"/>
	<path fill="#FFFFFF" d="M83,142h-1.5c-6.6,0-12,5.4-12,12c0,6.6,5.4,12,12,12H83v-0.6V142z"/>
	<path fill="#FFFFFF" d="M230.4,154c0-6.6-5.4-12-12-12H216v23.4v0.6h2.5C225.1,166,230.4,160.6,230.4,154z"/>
	<polygon fill="#FFFFFF" points="187,165.4 187,142 113,142 113,165.4 113,166 187,166 	"/>
	<rect x="198" y="142" fill="#CCCCCC" width="7" height="24"/>
	<rect x="94" y="142" fill="#CCCCCC" width="8" height="24"/>
	<path fill="#FFFFFF" d="M161.7,82.1c-1.5,0.1-3,0.2-4.7,0.3c-2.2,0.2-4.5,0.4-6.8,0.4c-2.5,0.1-5.1-0.1-7.5-0.3
		c-2-0.1-4-0.3-5.8-0.3c-6.4,0-8.6,1.5-9.8,6.9c-2.8,12.8,6.2,27.8,14.6,34.2c0.1-0.1,0.2-0.2,0.3-0.3c1.9-1.7,4.4-3.9,8-3.9
		c3.7,0,6.2,2.4,8,4.2c0,0,0.1,0.1,0.1,0.1c9.2-6.8,17.2-21.7,14.8-34.5c-0.7-3.5-1.8-5.4-4.1-6.3c-0.6,0.1-1.2,0.1-1.9,0.1
		C165.2,82.8,163.4,82.6,161.7,82.1z"/>
	<path fill="#CCCCCC" d="M174.8,68.6c-3.2-2.5-6.4-3.8-9.6-3.8c-2.9,0-5.5,1.1-7.4,2.3c3.1,3.1,6.2,4.7,9.2,4.7
		C170.1,71.8,172.8,70.2,174.8,68.6z"/>
	<path fill="#5980B7" d="M239.6,248.2c-6-6-8.7-11.6-8.2-16.6c0.7-6.9,7.4-11.3,7.5-11.3c2.1-1.3,3.1-3.8,2.4-6.2
		c-0.6-2.2-2.6-3.9-4.9-4.1c3.2-4.6,5.1-10.4,5.1-16.5c0-8.6-3.7-16.1-9.5-21.2c-3.8,2.8-8.4,4.6-13.5,4.6c5,0,9.7-1.8,13.5-4.6
		c5.7-4.2,9.5-10.8,9.5-18.4c0-12.7-10.3-22.8-23-22.8h-8.2h-18.4h-24.5c-1.8,1-1.8,1.1,0-0.5c11-9.6,19.5-27.2,16.4-43.5
		c-0.7-3.7-2-6.6-3.5-8.7c4.2-3,6.6-6.4,6.8-6.6c1.5-2.1,1.3-5-0.4-7c-6.7-7.2-13.9-10.8-21.5-10.8c-4.9,0-9.1,1.6-12.3,3.4
		c0.3-2.3,0.9-4.7,2-7.1c1.3-2.7,0.2-6-2.6-7.3c-2.7-1.3-6-0.2-7.3,2.6c-4.9,10.3-3.3,20.5-1.7,26.2c-2.1-0.1-4.3-0.3-6.5-0.3
		c-4.3,0-17.2,0-20.5,15.6c-3.4,15.7,5.4,33.9,16.6,43.7c1.5,1.3,1.5,1.5,0,0.5H81.5c-12.7,0-23,10-23,22.7c0,4.5,1.3,8.8,3.6,12.3
		c-1.3,0.5-2.4,1.3-3,2.6c-0.9,1.9-0.6,4.1,0.7,5.8c6.6,8,9.5,15.6,8.8,22.7c-1,9-7.8,14.5-7.8,14.5c-1.9,1.4-2.6,4.1-1.9,6.3
		c0.6,1.8,2.1,2.9,3.8,3.9c-2.6,3-4.1,7.8-4.1,12.5c0,13.2,12,23.7,26.7,23.7h150.7c0,0,0,0,0,0c3,0,5.5-2.5,5.5-5.6
		C241.5,250.8,240.7,249.2,239.6,248.2z M230.4,154c0,6.6-5.4,12-12,12H216v-0.6V142h2.5C225.1,142,230.4,147.4,230.4,154z M198,142
		h7v24h-7V142z M165.2,64.9c3.1,0,6.3,1.3,9.6,3.8c-2,1.6-4.7,3.2-7.8,3.2c-3,0-6.1-1.6-9.2-4.7C159.7,65.9,162.3,64.9,165.2,64.9z
		 M127.1,89.2c1.1-5.3,3.3-6.9,9.8-6.9c1.8,0,3.7,0.1,5.8,0.3c2.5,0.2,5,0.3,7.5,0.3c2.3,0,4.6-0.2,6.8-0.4c1.6-0.1,3.2-0.3,4.7-0.3
		c1.8,0.5,3.6,0.7,5.4,0.7c0.6,0,1.3,0,1.9-0.1c2.3,0.9,3.4,2.8,4.1,6.3c2.5,12.8-5.5,27.7-14.8,34.5c0,0-0.1-0.1-0.1-0.1
		c-1.8-1.8-4.4-4.2-8-4.2c-3.6,0-6.1,2.3-8,3.9c-0.1,0.1-0.2,0.2-0.3,0.3C133.4,116.9,124.4,102,127.1,89.2z M187,142v23.4v0.6h-74
		v-0.6V142H187z M94,142h8v24h-8V142z M191.9,177h18.4h4.5c8.6,0,15.7,7.6,15.7,17s-7,17-15.7,17H191v-0.6V200h12.7
		c3,0,5.5-2.5,5.5-5.5s-2.5-5.5-5.5-5.5h-41.6l-5.8-0.1c-0.4,0-0.8,0.1-1.1,0.1H98.7c-3,0-5.5,2.5-5.5,5.5s2.5,5.5,5.5,5.5H151v10.4
		v0.6H75.6c1.8-4,3.4-7.2,3.9-11.9c0.8-7.3-0.8-15.1-5-22.1H191.9z M180,200.1v31.8l-5-4.2c-2-1.7-4.9-1.8-7-0.1l-6.1,4.9v-32.7
		L180,200.1z M81.5,142H83v23.4v0.6h-1.5c-6.6,0-12-5.4-12-12C69.5,147.4,74.9,142,81.5,142z M85.2,247c-8.6,0-15.7-5.6-15.7-12.7
		c0-6.1,5.2-11.3,12.2-12.3H151v6H95.7c-3,0-5.5,2.5-5.5,5.5s2.5,5.5,5.5,5.5H151v4.9c0,1,0,2.1,0.6,3.1H85.2z M161.5,247l9.7-7.7
		l9,7.7H161.5z M189.9,247c0.5-1,1.1-2,1.1-3.1V239h9.7c3,0,5.5-2.5,5.5-5.5s-2.5-5.5-5.5-5.5H191v-6h23.8c0.9,0,1.8-0.2,2.7-0.4
		c0.5-0.1,1-0.1,1.4-0.2c0.8-0.1,1.5-0.4,2.3-0.4h2.3c-1.5,3-2.6,5.8-3,9.3c-0.6,5.5,0.7,11.7,4.1,16.7H189.9z"/>
</g>
</svg>
