<?xml version="1.0" encoding="utf-8"?>
<!-- Generator: Adobe Illustrator 18.1.1, SVG Export Plug-In . SVG Version: 6.00 Build 0)  -->
<svg version="1.1" id="Layer_1" xmlns="http://www.w3.org/2000/svg" xmlns:xlink="http://www.w3.org/1999/xlink" x="0px" y="0px"
	 viewBox="0 0 300 300" enable-background="new 0 0 300 300" xml:space="preserve">
<g>
	<path fill="#FFFFFF" d="M151.4,171.2c-3.1,0-7.1,0.9-11.1,2.7l-1.3,2.7V198h7.8c0.1,0,0.3,0.1,0.4,0.1l8.7-23.4
		C155.1,171.2,153,171.2,151.4,171.2z"/>
	<path fill="#FFFFFF" d="M192,90c-1-1.5-3.6-2.5-7.5-3c-1.3-0.1-3.4,0-6.2,0.2c-0.6,0.1-1.1,0.2-1.7,0.5c-0.6,0.3-1.1,0.6-1.6,1.1
		c-0.7,0.6-1.2,1.2-1.7,1.6c-0.2,0.3-0.6,0.8-1.2,1.7c-0.7,1.2-0.9,1.6-0.9,1.6c-0.2,0.4-0.4,1.1-0.8,2.1c-0.1,0.2-0.2,0.4-0.3,0.6
		l-0.6,1.1c-6.8,18.6-12.7,34.5-17.7,47.5c1.9-0.3,3.9-0.4,5.8-0.4c3.2,0,6.2,0.4,9,1.1l6.1-16.5c0.6-1.6,2.2-2.7,3.9-2.7
		c0.2,0,0.4,0,0.5,0c1.9,0.3,3.4,1.8,3.6,3.7c0.6,7.1,1.3,13.9,1.8,20.2c5.5-2.9,11.1-4.7,16.9-5.5c-2-16.6-3.5-29.1-4.6-37.1
		C193.5,97,192.6,92.2,192,90z"/>
	<path fill="#FFFFFF" d="M94.2,87.4c-0.3,0-0.6,0-0.9,0c-3.1,0-6,0.6-8.6,1.7c-2.2,1-3.4,2.2-3.9,4.1c-0.7,4.6-2.1,14.8-4.3,30.4
		c-2.2,15.8-4.4,31.2-6.4,45.8c-2.1,14.5-3.8,26.1-5.3,34.4c-0.3,2.7,0.3,4.8,1.9,6.4c1.7,1.8,4,2.6,7.1,2.6c5.8,0,8.6-2.2,9.6-7.3
		c0.3-1.4,1.1-8.4,4-34c2.3-20.7,3.9-35,5-42.6c0.3-1.9,1.8-3.4,3.7-3.6c1.9-0.2,3.7,0.7,4.3,2.5l5.9,17h14.8l-16.5-48.2
		C101.5,88.3,97.2,87.5,94.2,87.4z"/>
	<path fill="#FFFFFF" d="M202,177.9c0-6.2-2.5-6.7-5.3-6.7c-3.6,0-7.7,1-11.7,3.1v13.1c1,3.9,1.9,6.6,2.2,10.6h6.2
		c2.2,0,3.6,2,3.6,4.2V213c2,0,4-0.5,5-1.4V177.9z"/>
	<path fill="#CDCCCC" d="M224,202.2v-26c0-6.6-0.1-11.6-1.3-14.6c-1-2.7-2.6-4.7-5.4-6.4c-2.9-1.7-6.8-2.6-11.7-2.6
		c-8.7,0-17.2,2.9-25.2,8.6c-1.8,1.2-4.1,0.9-5.5-0.8c-4.1-5.2-9.7-7.8-17.3-7.8c-6.6,0-13.3,2-20.1,6.1c-1.2,0.7-3,0.8-4.3,0
		c-1.3-0.7-2.3-2-2.3-3.5V153h-25v8h7.7c2.2,0,3.3,2.2,3.3,4.4v36.8c0,2.2-1,3.8-3.3,3.8H106v7h36v-7h-6.4c-2.2,0-4.6-1.6-4.6-3.8
		v-30.3c0-1.5,1.1-2.9,2.4-3.6c6.5-3.4,12-5.1,17.2-5.1c3.9,0,12.4,1.5,12.4,15.4V213h25v-7h-5.9c-2.2,0-5.1-1.6-5.1-3.8v-30.3
		c0-1.5,1.4-2.8,2.6-3.5c6.2-3.4,11.9-5.2,17.4-5.2c8.4,0,13,5.4,13,14.7V213h25v-7h-6.1C226.7,206,224,204.4,224,202.2z"/>
	<path fill="#5A81B8" d="M240.2,198H232v-21.8c0-7.7-0.3-13.4-1.8-17.4c-1.6-4.4-4.4-7.9-8.8-10.5c-3.7-2.2-8.2-3.7-13.7-3.9
		c-0.7,0-1.3-0.3-2-0.3c0,0,0,0,0,0c0.7,0,1.4,0.3,2.1,0.3c-2-17-3.6-29.6-4.7-37.7c-1.3-10-2.5-16.3-3.5-19.6
		c-0.1-0.2-0.2-0.4-0.3-0.7c-2.2-4.3-7-6.8-14.1-7.6c0,0-0.1,0-0.1,0c-1.8-0.2-4.3-0.1-7.7,0.2c-0.1,0-0.1,0-0.2,0
		c-1.5,0.2-2.9,0.6-4.3,1.2c-1.4,0.6-2.6,1.5-3.7,2.5c-0.9,0.8-1.6,1.6-2.2,2.2c-0.7,0.8-1.4,1.8-2.1,3c-0.7,1.2-1.2,2-1.4,2.6
		c-0.2,0.4-0.5,1.1-0.8,2.1l-0.6,1.1c-0.1,0.2-0.2,0.4-0.3,0.6c-7.9,21.5-14.5,39.3-19.9,53.2c-0.9,0.3-1.7,0.4-2.6,0.8
		c-0.4-1.7-2-3.3-3.9-3.3h-5.7l-17.4-51c-4.5-12.3-12.3-14.9-18-15c-4.6-0.1-9,0.7-13,2.5c-4.6,2-7.6,5.5-8.7,10
		c0,0.1-0.1,0.3-0.1,0.4c-0.7,4.5-2.1,14.8-4.3,30.7c-2.2,15.8-4.4,31.2-6.4,45.8c-2.1,14.5-3.8,26-5.2,34.3c0,0.1,0,0.1,0,0.2
		c-0.7,5.3,0.8,9.9,4.2,13.4c3.3,3.4,7.7,5.1,13,5.1c9.8,0,16.1-5,17.7-14.1c0.3-1.4,1-6.5,4-34.6c1-9.6,2-17.8,2.8-24.6l0.2,0.6
		c0.4-1.7,2-3,3.9-3c-1.9,0-3.6,1.3-4.1,3c-0.1,0.3-0.4,0.7-0.4,1v15.7c0,2.2,2.2,3.6,4.5,3.6h3.2l3.3,12.2V198h-6.5
		c-2.2,0-4.5,2-4.5,4.2V218c0,2.2,2.2,3,4.5,3h44.4c2.2,0,3.2-0.8,3.2-3v-8.3c2-1.5,5-11.9,5-11.9V218c0,2.2,3.1,3,5.3,3h33.1
		c0.8,0,1.7,0.2,2.4-0.2c0.5,0.1,1.2,0.3,1.6,0.3c2.3,0,4.4-0.6,6.4-1.3c0.7,0.9,1.9,1.1,3.2,1.1h33.1c2.2,0,2.8-0.8,2.8-3v-15.7
		C243,200,242.4,198,240.2,198z M169.6,97.5l0.6-1.1c0.1-0.2,0.2-0.4,0.3-0.6c0.4-1,0.6-1.6,0.8-2.1c0-0.1,0.2-0.5,0.9-1.6
		c0.6-0.9,1-1.4,1.2-1.7c0.4-0.5,1-1,1.7-1.6c0.5-0.4,1-0.8,1.6-1.1c0.6-0.3,1.1-0.4,1.7-0.5c2.8-0.2,4.9-0.3,6.2-0.2
		c3.8,0.4,6.5,1.5,7.5,3c0.6,2.1,1.6,7,3,17.9c1.1,8,2.6,20.4,4.6,37.1c0,0,0,0,0,0c-5.8,0.8-11.4,2.6-16.9,5.5
		c-0.6-6.3-1.2-13-1.8-20.2c-0.2-1.9-1.7-3.5-3.6-3.7c-0.2,0-0.4,0-0.5,0c-1.7,0-3.3,1.1-3.9,2.7l-6.1,16.5c1.5,0.4,2.5,0.7,3,0.8
		c-0.5-0.1-1.6-0.4-3-0.8c-2.8-0.7-5.8-1.1-9-1.1c-1.9,0-3.9,0.2-5.8,0.4C156.9,132,162.8,116.1,169.6,97.5z M100.4,128
		c-0.6-1.8-2.4-2.8-4.3-2.6c-1.9,0.2-3.4,1.7-3.7,3.6c-1,7.6-2.7,21.9-5,42.6c-2.8,25.6-3.7,32.6-4,34c-0.9,5.1-3.8,7.3-9.6,7.3
		c-3,0-5.3-0.9-7.1-2.6c-1.6-1.7-2.2-3.7-1.9-6.4c1.4-8.3,3.2-19.9,5.3-34.4c2.1-14.6,4.2-30,6.4-45.8c2.2-15.7,3.6-25.8,4.3-30.4
		c0.5-1.9,1.7-3.2,3.9-4.1c2.6-1.1,5.5-1.7,8.6-1.7c0.3,0,0.5,0,0.9,0c3,0.1,7.3,0.8,10.4,9.4l16.5,48.2h-14.8L100.4,128z
		 M155.9,178.6c0-1.6,0.1-2.8-0.2-3.7l-8.7,23.4c-0.1,0-0.1-0.2-0.2-0.2H139v-21.4l1.5-2.7c-0.3,0.1-0.6,0.2-0.7,0.4
		c0.1-0.1,0.6-0.2,0.9-0.4c4.1-1.8,7.7-2.7,10.8-2.7c1.5,0,3.5,0,4.3,3.6C156,175.8,155.9,177,155.9,178.6z M202,211.6
		c-1,0.9-3,1.3-5,1.4v-10.8c0-2.2-1.4-4.2-3.6-4.2h-6.2c-0.3-4-1.2-6.6-2.2-10.6v-13.1c4-2,8.2-3.1,11.7-3.1c2.8,0,5.3,0.5,5.3,6.7
		V211.6z M235,213h-25v-35.1c0-9.4-4.3-14.7-12.7-14.7c-5.5,0-11.7,1.7-17.9,5.2c-1.3,0.7-2.4,2.1-2.4,3.5v30.3
		c0,2.2,2.9,3.8,5.1,3.8h5.9v7h-25v-34.4c0-13.9-8.4-15.4-12.2-15.4c-5.2,0-11.1,1.7-17.7,5.1c-1.3,0.7-2.1,2.1-2.1,3.6v30.3
		c0,2.2,2.3,3.8,4.6,3.8h6.4v7h-36v-7h7.7c2.2,0,3.3-1.6,3.3-3.8v-36.8c0-2.2-1-4.4-3.3-4.4H106v-8h25v2.2c0,1.4,1,2.8,2.3,3.5
		c1.3,0.7,2.9,0.7,4.2,0c6.8-4,13.6-6.1,20.2-6.1c7.6,0,13.2,2.5,17.3,7.8c1.3,1.7,3.7,2,5.5,0.8c8.1-5.7,16.6-8.6,25.3-8.6
		c4.9,0,8.9,0.9,11.8,2.6c2.8,1.6,4.1,3.7,5.1,6.4c1.1,3.1,1.3,8,1.3,14.6v26c0,2.2,2.7,3.8,4.9,3.8h6.1V213z"/>
</g>
</svg>
