<?xml version="1.0" encoding="utf-8"?>
<!-- Generator: Adobe Illustrator 18.1.1, SVG Export Plug-In . SVG Version: 6.00 Build 0)  -->
<svg version="1.1" id="Layer_1" xmlns="http://www.w3.org/2000/svg" xmlns:xlink="http://www.w3.org/1999/xlink" x="0px" y="0px"
	 viewBox="0 0 300 300" enable-background="new 0 0 300 300" xml:space="preserve">
<g>
	<path fill="none" d="M123.7,193.1L123.7,193.1c4.3,6,11.3,9.9,19.2,9.9h0C135,203.1,128,199.1,123.7,193.1z"/>
	<path fill="none" d="M143,173c8.7,0,15.3,1.9,20.2,4.3C158.3,174.9,151.7,173,143,173C143,173,143,173,143,173z"/>
	<path fill="none" d="M112.5,195.9C112.5,195.9,112.5,195.9,112.5,195.9C112.5,195.9,112.5,195.9,112.5,195.9
		c5.5,10.1,15.9,17.2,28,18.1C128.4,213.1,118,206,112.5,195.9z"/>
	<path fill="none" d="M80.4,182.7C80.4,182.7,80.4,182.7,80.4,182.7c-0.1,0-0.1,0-0.2,0C80.3,182.7,80.4,182.7,80.4,182.7z"/>
	<path fill="none" d="M147.5,43C147.5,43,147.5,43,147.5,43c2.9,0,5.8,0.5,8.4,1.6C153.3,43.5,150.4,43,147.5,43z"/>
	<path fill="none" d="M108.5,179.5c0,5.4,1.2,10.6,3.4,15.2c0,0,0,0,0,0C109.7,190,108.5,184.9,108.5,179.5z"/>
	<path fill="none" d="M165.1,193.4c-0.1-0.1-0.6-0.9-1.8-1.9c0,0,0,0,0,0C164.4,192.5,165,193.3,165.1,193.4c1,1.6,2.8,2.5,4.5,2.5
		C167.8,195.9,166.1,195,165.1,193.4z"/>
	<path fill="#CCCCCC" d="M161.3,48c-1.7-1.2-3.5-2.2-5.4-2.9c-2.7-1-5.5-1.6-8.4-1.6c-7.5,0-14.6,3.6-19,9.6l-67.2,92.3
		c-7.6,10.4-5.2,25.1,5.2,32.8c4,2.9,8.8,4.5,13.8,4.5c0.1,0,0.3,0,0.4,0c2.7,0,5.3-0.5,8.3-1.4v-11.2c0-17.2,7-32.5,20-42.6v-4.7
		c0-19.1,15.2-34.6,34.3-34.6c5.5,0,10.5,1.3,15.2,3.6l8-11.1C174.1,70.3,171.7,55.6,161.3,48z"/>
	<path fill="#FFFFFF" d="M178,143.2v36.3c0,19.1-15.7,34.6-34.8,34.6c-0.8,0-1.7,0-2.6-0.1c-12.1-0.8-22.6-7.9-28.1-18.1
		c0,0,0,0,0,0c-0.1-0.2-0.2-0.3-0.3-0.5c-0.1-0.3,0-0.5-0.1-0.8c-2.2-4.6-3.2-9.7-3.2-15.2v-36.3c-6,7.4-9,16.8-9,26.9V261h87v-90.8
		C187,160,184,150.7,178,143.2z"/>
	<path fill="#FFFFFF" d="M99.4,261.9c0.1,0,0.1,0.1,0.1,0.1v-0.2h-0.1C99.4,261.8,99.4,261.9,99.4,261.9z"/>
	<path fill="#FFFFFF" d="M142.9,185.1c-11.2,0-16.8,5.1-19.2,8.1c4.3,6,11.3,9.9,19.2,9.9c8.6,0,16.2-4.7,20.3-11.6c0,0,0,0,0,0
		c0,0,0,0,0,0C160.5,189,154.2,185.1,142.9,185.1z"/>
	<path fill="#FFFFFF" d="M143,173C143,173,143,173,143,173c8.7,0,15.3,2.5,20.2,4.9c1.2,0.6,2.6,1.5,3.6,2.2c0-0.3,0.2-0.3,0.2-0.6
		v-56.6c0-13-10.5-23.6-23.5-23.6S120,109.9,120,122.9v56.6c0,0.8-0.3,1-0.2,1.8C124.6,177.3,131.9,173,143,173
		C143,173,143,173,143,173z"/>
	<polygon fill="#FFFFFF" points="198,145.7 198,170.2 198,256 208,256 208,145.7 203,136.4 	"/>
	<g>
		<path fill="#5980B7" d="M207.4,121.6c-0.9-1.9-2.8-3.1-4.9-3.1s-4,1.2-4.9,3.1l-9,18.1l-1.3,2.3l1.5-2.3
			c-3.1-4.6-6.7-8.6-10.7-12.1v-4.7c0-9.6-4.2-18.3-10.5-24.6c-0.7-0.7-1.5-1.3-2.2-1.9c0.7,0.6,1.4,1.3,2.1,1.9l8-11
			c11.2-15.3,7.8-36.9-7.6-48.1c-5.9-4.3-12.9-6.6-20.3-6.6c-11,0-21.4,5.3-27.9,14.2L52.4,139c-5.4,7.4-7.6,16.5-6.2,25.6
			c1.4,9.1,6.3,17.1,13.7,22.5c5.9,4.3,13.4,6.6,20.7,6.6c2.7,0,5.3-0.3,8.3-0.9V262c0,3,2,5.4,5,5.4c3,0,5.4-2.9,5.5-5.8
			c0-0.1-0.1-0.5-0.1-0.5h0.6v-90.8c0-10.1,3-19.5,9-26.9v36.3c0,14.7,8.5,32.4,31.7,34.5c0.8,0.1,1.7,0.1,2.6,0.1
			c19.1,0,34.7-15.5,34.7-34.6v-36.3c6,7.4,9,16.8,9,26.9v91.6v0.2v0v0.3c0,3,2.3,4.7,5.3,4.7h20.3c3,0,6.4-1.7,6.4-4.7V144.5
			c0-0.8-0.6-1.7-1-2.4L207.4,121.6z M167,179.5c0,0.3-0.2,0.6-0.2,0.8c-1-0.6-2.3-1.8-3.5-2.4c-4.9-2.4-11.6-4.9-20.3-4.9
			c0,0,0,0,0,0c-11.1,0-18.6,4.3-23.4,8.3c0,0,0.2,0.2,0.2,0.2c-0.1-0.7,0.2-1.3,0.2-2v-56.6c0-13,10.5-23.6,23.5-23.6
			s23.5,10.6,23.5,23.6V179.5z M109,122.9v4.7c-13,10.1-20,25.4-20,42.6v11.2c-3,0.9-5.6,1.7-8.3,1.7c0,0-0.1,0-0.1,0
			c-0.1,0-0.2-0.2-0.2-0.2c-4.9,0-9.8-1.7-13.8-4.6c-10.4-7.6-12.8-22.3-5.2-32.8l67.2-92.6c4.4-6,11.5-9.9,18.9-9.9c0,0,0,0,0,0
			c2.9,0,5.8,0.8,8.4,1.8c1.9,0.7,3.7,1.8,5.4,3c10.4,7.6,12.7,22.4,5.1,32.8l-8.1,11.1l0,0c0,0,0,0,0,0c-4.6-2.3-9.5-3.6-15-3.6
			C124.2,88.3,109,103.8,109,122.9z M163.3,191.5C163.3,191.5,163.3,191.5,163.3,191.5c-4.1,6.9-11.7,11.6-20.3,11.6h0
			c-7.9,0-14.9-3.9-19.2-9.9v0c2.4-3,8-8.1,19.2-8.1C154.2,185.1,160.5,189,163.3,191.5C164.4,192.5,164.4,192.5,163.3,191.5z
			 M208,256h-10v-85.8v-24.4l5-9.3l5,9.3V256z"/>
		<path fill="#5980B7" d="M216.2,88c-0.5,0-12.6-0.4-12.6-12.5c0-1.9-1.6-3.5-3.5-3.5s-3.5,1.6-3.5,3.5c0,11.1-11.5,12.4-12.8,12.5
			c-1.8,0.1-3.2,1.6-3.2,3.4s1.3,3.3,3.1,3.5c0.5,0.1,12.9,1.7,12.9,12.5c0,1.9,1.6,3.5,3.5,3.5s3.5-1.6,3.5-3.5
			c0-10.9,12.4-12.5,12.9-12.5c1.8-0.2,3.2-1.8,3.1-3.6S218,88.1,216.2,88z"/>
		<path fill="#5980B7" d="M242.3,116.6c-0.9,0-5.1-0.3-5.1-5c0-1.9-1.6-3.5-3.5-3.5s-3.5,1.6-3.5,3.5c0,4.3-4.4,5-5.3,5
			c-1.8,0.1-3.2,1.6-3.2,3.4c0,1.8,1.3,3.3,3.1,3.5c0.2,0,5.4,0.7,5.4,5.1c0,1.9,1.6,3.5,3.5,3.5s3.5-1.6,3.5-3.5
			c0-4.1,4.5-4.9,5.4-5.1c1.8-0.2,3.2-1.8,3.1-3.6C245.6,118.1,244.1,116.6,242.3,116.6z"/>
		<path fill="#5980B7" d="M250.9,77c-1.5-0.1-5.1-0.7-5.1-5c0-1.9-1.6-3.5-3.5-3.5s-3.5,1.6-3.5,3.5c0,4.3-4.4,5-5.3,5
			c-1.8,0.1-3.2,1.6-3.2,3.4s1.3,3.3,3.1,3.5c0.2,0,5.4,0.7,5.4,5.1c0,1.9,1.6,3.5,3.5,3.5s3.5-1.6,3.5-3.5c0-4.1,4.5-4.9,5.4-5.1
			c1.8-0.2,3.2-1.8,3.1-3.6C254.2,78.5,252.7,77,250.9,77z"/>
	</g>
</g>
</svg>
