<?xml version="1.0" encoding="utf-8"?>
<!-- Generator: Adobe Illustrator 18.1.1, SVG Export Plug-In . SVG Version: 6.00 Build 0)  -->
<svg version="1.1" id="Layer_1" xmlns="http://www.w3.org/2000/svg" xmlns:xlink="http://www.w3.org/1999/xlink" x="0px" y="0px"
	 viewBox="0 0 300 300" enable-background="new 0 0 300 300" xml:space="preserve">
<g>
	<path fill="#FFFFFF" d="M218,95c-2.1,6.9-4,17.6,2.7,21.3c1.5,0.8,2.9,1.2,4.4,1.2c4.9,0,9.8-4.5,13-8.2L218,95z"/>
	<path fill="#FFFFFF" d="M187.1,87.4c0.6,0.1,1.2,0.1,1.7,0.1c0,0,0,0,0,0c1.1,0,1.8-0.2,2-0.6c1.3-2.2,0.2-8.2-1.9-14.4
		c-3.6,5.5-6.2,11-5.3,13.3C183.9,86.7,185.6,87.2,187.1,87.4z"/>
	<path fill="#FFFFFF" d="M97,175h1.2c3,0,5.8,2.4,5.8,5.4V233h50V81H95.9l-0.1,75.2c0,1,1.3,2.5,1.3,3.8V175z M111,194.8v-5.5v-15.2
		v-5.5v-26.2V137v-15.2v-5.5V85h39v31.3v5.5V137v5.5v26.2v5.5v15.2v5.5V226h-39V194.8z"/>
	<rect x="122" y="96" fill="#FFFFFF" width="17" height="15"/>
	<rect x="122" y="122" fill="#CCCCCC" width="17" height="15"/>
	<rect x="122" y="148" fill="#FFFFFF" width="17" height="15"/>
	<rect x="122" y="174" fill="#CCCCCC" width="17" height="15"/>
	<rect x="122" y="200" fill="#FFFFFF" width="17" height="15"/>
	<path fill="#FFFFFF" d="M165,233h46v-50h-9.4H192v16.1c3,1.8,5,5.2,5,8.9v11c0,5.8-4.7,10.5-10.5,10.5s-10.5-4.7-10.5-10.5v-11
		c0-3.8,2-7.1,5-8.9V183h-8.5H165V233z"/>
	<rect x="178" y="136" fill="#FFFFFF" width="18" height="36"/>
	<polygon fill="#FFFFFF" points="61.7,186 60,186 60,233 93,233 93,186 91.2,186 	"/>
	<path fill="#FFFFFF" d="M82.9,133.9L70,121.2V154h13v-18.9C83,134.4,83,134,82.9,133.9z"/>
	<rect x="67" y="165" fill="#CCCCCC" width="19" height="10"/>
	<g>
		<path fill="#5980B7" d="M111,116.3v5.5v15.3v5.4v26.2v5.5v14.9v5.8V226h39v-31.2v-5.8v-14.9v-5.5v-26.2v-5.4v-15.3v-5.5V85h-39
			V116.3z M139,163h-0.3h-16.4H122v-15h17V163z M139,215h-17v-15h17V215z M138.7,189h-16.4H122v-15h17v15H138.7z M138.7,137h-16.4
			H122v-15h17v15H138.7z M122,96h17v15h-0.3h-16.4H122V96z"/>
		<path fill="#5980B7" d="M248.9,103.5l-30.5-21.6c-1.3-0.9-3-1.2-4.6-0.8c-1.6,0.4-2.9,1.5-3.6,3c-4.7,10.2-9.1,28.3,0.4,38.3
			c0,0,0.1,0.1,0.1,0.1l-4,6.6c0,0,0,0,0-0.1c-0.7-2.3-2.7-4-5.1-4h-13.1l3.1-26.7c4.6-0.8,7.2-3.3,8.5-5.5c6.1-9.8-2.3-28.1-5-33.5
			c-0.8-1.6-2.4-2.8-4.2-3c-1.8-0.2-3.6,0.4-4.8,1.8c-4.1,4.6-17,20.5-12.9,31.7c0.9,2.5,3,5.5,7.4,7.3c0,0,0,0,0,0l-3.2,28h-5
			c-3,0-5.5,2.6-5.5,5.6V172h-2V75.5c0-3-3-5.5-6.1-5.5h-69c-3,0-4.9,2.5-4.9,5.5v44.5l-8.9-8.1c-1.9-1.8-4.2-2.8-6.7-2.8
			c-5.9,0-10.4,5.3-10.4,12V155c0,0-0.2,0.1-0.3,0.1c-1.5,1-2.7,2.9-2.7,4.9v14.9v0.1h-1.2c-3,0-5.8,2.4-5.8,5.4v58.5
			c0,3,2.7,5.1,5.8,5.1h162c3,0,5.2-2.1,5.2-5.1V178c0-3-2.2-6-5.2-6H207v-21.2l13.3-22.9c1.6,0.4,3.2,0.6,4.8,0.6
			c14.4,0,24.3-15.9,25.4-17.7C252,108.3,251.3,105.2,248.9,103.5z M70,121.2l12.9,12.6c0.1,0.1,0.1,0.6,0.1,1.2V154H70V121.2z
			 M67,165h19v10H67V165z M93,233H60v-47h1.7h29.5H93V233z M154,178v55h-50v-52.6c0-3-2.8-5.4-5.8-5.4H97v-0.1V160
			c0-2.9-1.3-4-1.3-4l0.1-75H154V178z M188.9,72.6c2.2,6.2,3.3,12.2,1.9,14.4c-0.2,0.4-0.9,0.6-2,0.6c0,0,0,0,0,0
			c-0.5,0-1.1,0-1.7-0.1c-1.5-0.2-3.3-0.7-3.5-1.5C182.7,83.7,185.2,78.1,188.9,72.6z M178,136h18v36h-18V136z M211,183v50h-46v-50
			h7.5h8.5v0.5v15.6c-3,1.8-5,5.2-5,8.9v11c0,5.8,4.7,10.5,10.5,10.5s10.5-4.7,10.5-10.5v-11c0-3.8-2-7.1-5-8.9v-15.6V183h9.6H211z
			 M225.1,117.5c-1.5,0-2.9-0.4-4.4-1.2c-6.7-3.7-4.8-14.3-2.7-21.3l20.1,14.3C234.9,113.1,230,117.5,225.1,117.5z"/>
	</g>
</g>
</svg>
