<?xml version="1.0" encoding="utf-8"?>
<!-- Generator: Adobe Illustrator 18.1.1, SVG Export Plug-In . SVG Version: 6.00 Build 0)  -->
<svg version="1.1" id="Layer_1" xmlns="http://www.w3.org/2000/svg" xmlns:xlink="http://www.w3.org/1999/xlink" x="0px" y="0px"
	 viewBox="0 0 300 300" enable-background="new 0 0 300 300" xml:space="preserve">
<g>
	<path fill="#FFFFFF" d="M132.8,190.6l16.8-50.1c-1.1-0.4-2.4-0.5-3.9-0.1c-2.8,0.8-9.9,5.3-16,28.7c-0.7,2.5-3,4.3-5.6,4.1
		c-2.6-0.2-4.8-2.1-5.1-4.7l-10.3-73.4l-8.3-3.5l8.5,57.9c0.4,3-1.6,5.8-4.6,6.2c-0.3,0-0.5,0.1-0.8,0.1c-2.7,0-5-2-5.4-4.7
		l-9.5-64.4l-1.4-0.6l-4.5,4.5l9.4,61.8c0.5,3-1.6,5.8-4.6,6.3c-0.3,0-0.6,0.1-0.8,0.1c-2.7,0-5-1.9-5.4-4.7l-8.2-53.7l-4.7,4.8
		l9.2,49.5c0.6,3-1.4,5.9-4.4,6.4c-0.3,0.1-0.7,0.1-1,0.1c-2.6,0-4.9-1.8-5.4-4.5l-7.8-42l-4.4,4.4l11.9,63.3
		c1.7,9-0.7,18.4-6.5,25.3l-17.8,22.5l51.9,14.8c0.2-0.6,0.4-1.2,0.8-1.7L132.8,190.6z"/>
	<path fill="#FFFFFF" d="M238.4,167l19-61.2l-3.9-5L241,141.2c-0.7,2.4-2.9,3.9-5.3,3.9c-0.5,0-1.1-0.1-1.6-0.2
		c-2.9-0.9-4.5-4-3.6-6.9l14.8-47.9l-4.2-5.4l-14.3,52c-0.7,2.4-2.9,4-5.3,4c-0.5,0-1-0.1-1.5-0.2c-2.9-0.8-4.7-3.8-3.9-6.8
		l16.5-60.1l-4-5.2l-1.3,0.4l-16.8,62.6c-0.7,2.5-2.9,4.1-5.3,4.1c-0.5,0-1-0.1-1.4-0.2c-2.9-0.8-4.7-3.8-3.9-6.7l15.1-56.5
		l-8.7,2.3l-18.6,71.4c-0.7,2.5-3,4.3-5.6,4.1c-2.6-0.2-4.8-2.1-5.1-4.7c-3.4-24.4-10.1-29.7-12.9-30.8c-1.3-0.5-2.5-0.6-3.6-0.4
		l11,51.9l31.6,57.5c0.3,0.6,0.5,1.2,0.6,1.9l53.1-7.7l-15.1-24.7C237,185.4,235.7,175.7,238.4,167z"/>
	<path fill="#CCCCCC" d="M146.9,246.7c0.6,1.2,2.6,4.7,11.9,4.7c9.7,0,11.7-3.7,12.3-4.9c4.6-8.7-3.9-28.6-12.3-43.1
		C150.5,218,142.2,238.1,146.9,246.7z"/>
	<g>
		<path fill="#5980B7" d="M268.8,106.3c0.5-1.7,0.2-3.6-0.9-5l-32.6-42.4c-1.4-1.8-3.6-2.5-5.8-2l-28.9,7.7c-1.9,0.5-3.4,2-3.9,3.9
			l-13.9,53.2c-3.5-9.2-8.2-14.9-14.3-17.5c-7.3-3.1-14.4-0.2-17.4,2c-1.8,1.3-2.6,3.5-2.1,5.6l3.8,18.1c-2.9-0.9-6.3-1.2-9.9-0.2
			c-6.2,1.8-11.6,6.9-16,15.4l-7.7-54.8c-0.3-1.9-1.5-3.6-3.3-4.3L88,74.5c-2.1-0.9-4.5-0.4-6,1.2l-37.2,37.7
			c-1.3,1.3-1.8,3.1-1.5,4.9l12.4,66.2c1.1,5.8-0.4,11.9-4.1,16.2c0,0-0.1,0.1-0.1,0.1l-19.3,24.4c-1.9,2.4-1.5,5.8,0.9,7.7
			c2.4,1.9,5.8,1.5,7.7-0.9l1.4-1.8L60,207.7c5.8-6.8,8.2-16.3,6.5-25.3l-11.9-63.3l4.4-4.4l7.8,42c0.5,2.6,2.8,4.5,5.4,4.5
			c0.3,0,0.7,0,1-0.1c3-0.6,5-3.4,4.4-6.4l-9.2-49.5l4.7-4.8l8.2,53.7c0.4,2.7,2.8,4.7,5.4,4.7c0.3,0,0.6,0,0.8-0.1
			c3-0.5,5.1-3.3,4.6-6.3l-9.4-61.8l4.5-4.5l1.4,0.6l9.5,64.4c0.4,2.7,2.8,4.7,5.4,4.7c0.3,0,0.5,0,0.8-0.1c3-0.4,5.1-3.2,4.6-6.2
			l-8.5-57.9l8.3,3.5l10.3,73.4c0.4,2.6,2.5,4.6,5.1,4.7c2.6,0.2,5-1.6,5.6-4.1c6.1-23.4,13.3-27.9,16-28.7c1.4-0.4,2.8-0.3,3.9,0.1
			l-16.8,50.1l-38,52.8c-0.4,0.5-0.6,1.1-0.8,1.7c-0.6,2.2,0.1,4.6,2.1,6c1,0.7,2.1,1,3.2,1c1.7,0,3.4-0.8,4.5-2.3l38.4-53.5
			c0.3-0.4,0.6-0.9,0.7-1.5l14.4-42.9l3.6,17.1c0.1,0.5,0.3,1,0.6,1.5l32,58.3c1,1.8,2.9,2.9,4.8,2.9c0.9,0,1.8-0.2,2.6-0.7
			c2.1-1.1,3.1-3.4,2.8-5.6c-0.1-0.6-0.3-1.3-0.6-1.9l-31.6-57.5l-11-51.9c1.1-0.2,2.3-0.1,3.6,0.4c2.7,1.2,9.4,6.5,12.9,30.8
			c0.4,2.6,2.5,4.6,5.1,4.7c2.6,0.2,5-1.6,5.6-4.1l18.6-71.4l8.7-2.3l-15.1,56.5c-0.8,2.9,1,5.9,3.9,6.7c0.5,0.1,1,0.2,1.4,0.2
			c2.4,0,4.7-1.6,5.3-4.1l16.8-62.6l1.3-0.4l4,5.2l-16.5,60.1c-0.8,2.9,0.9,6,3.9,6.8c0.5,0.1,1,0.2,1.5,0.2c2.4,0,4.6-1.6,5.3-4
			l14.3-52l4.2,5.4l-14.8,47.9c-0.9,2.9,0.7,6,3.6,6.9c0.5,0.2,1.1,0.2,1.6,0.2c2.3,0,4.5-1.5,5.3-3.9l12.5-40.4l3.9,5l-19,61.2
			c-2.7,8.7-1.4,18.4,3.5,25.9l15.1,24.7l1.2,2c1.6,2.6,5,3.4,7.6,1.8c2.6-1.6,3.4-5,1.8-7.6l-16.4-26.8c0-0.1-0.1-0.1-0.1-0.2
			c-3.2-4.8-4-11-2.2-16.7L268.8,106.3z"/>
		<path fill="#5980B7" d="M151,67.3C133.5,69,126.5,83,125.2,90.2c-0.5,3,1.5,5.8,4.5,6.4c0.3,0.1,0.6,0.1,1,0.1
			c2.6,0,4.9-1.9,5.4-4.5c0-0.1,2.4-12.6,15.9-13.9c13.1-1.2,17.7,9.4,18.2,10.6c1.1,2.8,4.2,4.3,7.1,3.2c2.8-1.1,4.3-4.2,3.2-7.1
			C177.9,78.2,168.4,65.7,151,67.3z"/>
		<path fill="#5980B7" d="M115,74.6c0.4,0.1,0.8,0.1,1.1,0.1c2.5,0,4.8-1.8,5.4-4.3c0.2-0.8,4.5-19.4,27.8-21.6
			c23.2-2.2,31,15.3,31.3,16c1.2,2.8,4.4,4.2,7.2,3c2.8-1.2,4.2-4.4,3-7.2c-3.7-8.9-17.3-25.2-42.5-22.8
			c-25.2,2.4-35.6,20.9-37.5,30.3C110.2,71.1,112.1,74,115,74.6z"/>
		<path fill="#5980B7" d="M158.8,187C158.8,187,158.7,187,158.8,187c-1.9,0-3.6,1.2-4.6,2.7c-2.8,4.3-27.4,42.7-16.9,62
			c2.6,4.8,8.4,10.6,21.5,10.6c13.5,0,19.4-5.7,22.1-10.6c10.3-19.4-14.6-57.8-17.5-62.1C162.3,188.1,160.6,187,158.8,187z
			 M171.1,246.6c-0.6,1.2-2.6,4.9-12.3,4.9c-9.3,0-11.2-3.6-11.9-4.7c-4.7-8.6,3.6-28.7,11.9-43.3
			C167.3,217.9,175.7,237.9,171.1,246.6z"/>
	</g>
</g>
</svg>
