<?xml version="1.0" encoding="utf-8"?>
<!-- Generator: Adobe Illustrator 18.1.1, SVG Export Plug-In . SVG Version: 6.00 Build 0)  -->
<svg version="1.1" id="Layer_1" xmlns="http://www.w3.org/2000/svg" xmlns:xlink="http://www.w3.org/1999/xlink" x="0px" y="0px"
	 viewBox="0 0 300 300" enable-background="new 0 0 300 300" xml:space="preserve">
<g>
	<path fill="#FFFFFF" d="M88.6,135.2c6.3-1.5,15.1-10.9,20.6-19.5c3.7-5.7,8.2-9.5,12.2-12.8c6.1-5.1,8.8-7.6,8-13.4
		c-0.9-6-7.5-10-16.5-10c-8.9,0-18.2,3.7-26.3,10.5C75,99.8,72,117,75.8,127.5c1.4,3.7,4.1,8.2,9.6,8.2
		C86.4,135.6,87.5,135.5,88.6,135.2z"/>
	<path fill="#FFFFFF" d="M149,210.3c-2.8,0-5-2.2-5-5V197c-2.8,3-6.2,5.2-10,6.7c0.1,3.1,0.7,8.3,3.9,11.9c2.5,2.8,6.3,4.2,11.5,4.2
		c5.1,0,8.7-1.4,11.1-4.1c3.1-3.5,3.7-8.7,3.7-12c-3.9-1.5-7.4-3.9-10.3-7v8.6C154,208,151.8,210.3,149,210.3z"/>
	<path fill="#FFFFFF" d="M211.8,90.1c-8.1-6.8-17.5-10.5-26.3-10.5c-9,0-15.7,4-16.5,10c-0.8,5.8,1.8,8.3,8,13.4
		c4,3.3,8.5,7,12.2,12.8c5.5,8.5,14.3,17.9,20.6,19.5c1.1,0.3,2.1,0.4,3.1,0.4c5.5,0,8.3-4.4,9.6-8.2
		C226.3,117,223.3,99.8,211.8,90.1z"/>
	<path fill="#CCCCCC" d="M170.4,140.5c-0.7-1.9-9.6-5.8-23.4-5.8c-13,0-20.4,3.6-20.5,6c-0.4,8.9,14.5,16.5,21.9,19.3
		C158.1,155.5,170.4,147,170.4,140.5z"/>
	<g>
		<path fill="#5980B7" d="M209.2,172.1c-2.9-0.2-5.5,2-5.7,4.9c-0.2,1.9-2.3,18.3-26.4,18.3c-6.6,0-11.6-1.9-15.3-5.8
			c-5.8-6.3-6.8-16.1-6.9-20.7c8.5-4.3,26.1-14.8,26.1-28.2c0-11.4-17.1-16.5-34-16.5c-18.8,0-30.7,6.2-31.2,16.2
			c-0.7,16.2,18.9,25.8,27.4,29.2c-0.2,4.9-1.4,14-6.8,19.9c-3.7,3.9-8.7,5.9-15.3,5.9c-24,0-26.2-16.4-26.4-18.3
			c-0.2-2.9-2.8-5.1-5.7-4.9c-2.9,0.2-5.2,2.8-4.9,5.7c0.7,9.7,9.3,28.2,37,28.2c0.8,0,1.5,0,2.2-0.1c0.4,4.8,1.8,11.5,6.4,16.8
			c4.6,5.2,11.2,7.8,19.5,7.8c8.2,0,14.7-2.6,19.2-7.8c4.5-5.2,5.9-11.9,6.3-16.8c0.7,0,1.5,0.1,2.2,0.1c27.7,0,36.3-18.4,37-28.2
			C214.3,174.9,212.1,172.3,209.2,172.1z M126.5,140.8c0.1-2.5,7.5-6,20.5-6c13.8,0,22.7,3.9,23.4,5.8c0,6.5-12.3,15-22,19.5
			C141,157.2,126.2,149.7,126.5,140.8z M160.5,215.7c-2.4,2.8-6.1,4.1-11.1,4.1c-5.2,0-9-1.4-11.5-4.2c-3.2-3.6-3.8-8.9-3.9-11.9
			c3.8-1.5,7.1-3.7,10-6.7v8.3c0,2.8,2.2,5,5,5s5-2.2,5-5v-8.6c2.9,3.1,6.3,5.4,10.3,7C164.2,207,163.6,212.2,160.5,215.7z"/>
		<path fill="#5980B7" d="M218.7,82c-10-8.4-21.8-13-33.2-13c-14.5,0-25.4,7.7-27.1,19.2c-1.8,12,5.4,17.9,11.7,23.1
			c3.6,2.9,7.3,6,10.1,10.4c2.2,3.5,14,20.9,27.1,24c1.9,0.5,3.8,0.7,5.6,0.7c0,0,0,0,0,0c9,0,16.2-5.5,19.7-15.2
			C237.7,117,233.9,94.7,218.7,82z M222.5,127.5c-1.4,3.7-4.1,8.2-9.6,8.2c-1,0-2-0.1-3.1-0.4c-6.3-1.5-15.1-10.9-20.6-19.5
			c-3.7-5.7-8.2-9.5-12.2-12.8c-6.1-5.1-8.8-7.6-8-13.4c0.9-6,7.5-10,16.5-10c8.9,0,18.2,3.7,26.3,10.5
			C223.3,99.8,226.3,117,222.5,127.5z"/>
		<path fill="#5980B7" d="M91.1,145.6c13-3.2,24.8-20.6,27.1-24c2.8-4.4,6.5-7.4,10.1-10.4c6.3-5.2,13.5-11.2,11.7-23.1
			c-1.7-11.5-12.6-19.2-27.1-19.2c-11.4,0-23.2,4.6-33.2,13c-15.2,12.8-19,35-13.9,49.2c3.5,9.7,10.7,15.2,19.7,15.2
			C87.3,146.3,89.2,146.1,91.1,145.6z M75.8,127.5C72,117,75,99.8,86.5,90.1c8.1-6.8,17.5-10.5,26.3-10.5c9,0,15.7,4,16.5,10
			c0.8,5.8-1.8,8.3-8,13.4c-4,3.3-8.5,7-12.2,12.8c-5.5,8.5-14.3,17.9-20.6,19.5c-1.1,0.3-2.1,0.4-3.1,0.4
			C79.9,135.6,77.2,131.2,75.8,127.5z"/>
	</g>
</g>
</svg>
