<?xml version="1.0" encoding="utf-8"?>
<!-- Generator: Adobe Illustrator 18.1.1, SVG Export Plug-In . SVG Version: 6.00 Build 0)  -->
<svg version="1.1" id="Layer_1" xmlns="http://www.w3.org/2000/svg" xmlns:xlink="http://www.w3.org/1999/xlink" x="0px" y="0px"
	 viewBox="0 0 300 300" enable-background="new 0 0 300 300" xml:space="preserve">
<g>
	<rect x="166" y="110" fill="#FFFFFF" width="27" height="15"/>
	<polygon fill="#CCCCCC" points="166,136 166,160.4 193,160.5 193,136 	"/>
	<rect x="157" y="91" fill="#FFFFFF" width="45" height="8"/>
	<path fill="#FFFFFF" d="M97.8,164.5c0.5-2.5,2.8-4.5,5.4-4.5c0,0,0,0,0,0l32.3,0.2L125.2,131c-0.2-0.6-0.2-1.2-0.2-1.8V72h-24v57.2
		c0,0.7-0.3,1.3-0.6,2L77.3,185h19.1C96,173,97.7,165,97.8,164.5z"/>
	<path fill="#CCCCCC" d="M51.8,245h69.6c-12.7-12-20.9-28.5-23.9-47.2c-0.1-0.6-0.2-0.8-0.3-1.8H72.7L51.8,245z"/>
	<rect x="86" y="53" fill="#FFFFFF" width="53" height="8"/>
	<path fill="#CCCCCC" d="M223.5,240.7c-2.1,2-4.2,3.8-6.3,5.5c11.2-1.8,23.2-7.3,31-20.5c-1.4-0.1-2.9-0.2-4.6-0.2
		c-2.7,0-5.6,0.2-8.6,0.6C232,231.3,228.2,236.2,223.5,240.7z"/>
	<path fill="#FFFFFF" d="M244,138.7c3.1-2.8,4.7-6.4,4.3-10c-0.4-4.1-3.4-7.9-8.4-10.8c-1.5-0.9-2.8-1.3-3.9-1.3
		c-1.9,0-5.7,2-9.3,15.7c-1.2,4.5-8.6,16.2-16.8,28.3l16.4,0C232.6,151.4,239.2,143,244,138.7z"/>
	<path fill="#FFFFFF" d="M230.7,171.8l-122.8-0.3c-0.4,3-0.7,7.5-0.6,12.5h119.4c1.5-1,2.9-1.5,4-2.2
		C231,178.5,231,175.3,230.7,171.8z"/>
	<path fill="#FFFFFF" d="M108.3,195c0.1,1,0.1,1,0.2,1.4c3.4,20.8,13.5,37.6,30.2,48.6h27.2h0.2h24.2c-0.1-18,6.9-35.1,20.6-48.6
		c0.5-0.5,1-0.4,1.5-1.4H108.3z"/>
	<path fill="#CCCCCC" d="M201.2,243.9c11.4-6.6,32.2-22.4,31.3-50.3C221.7,200.1,201.7,215.8,201.2,243.9z"/>
	<g>
		<path fill="#5980B7" d="M38.4,248.6c0,0.1-0.1,0.2-0.1,0.3C38.3,248.8,38.3,248.7,38.4,248.6L38.4,248.6z"/>
		<path fill="#5980B7" d="M261.4,218.7c-0.7-1.4-2.1-2.5-3.7-2.8c-0.2-0.1-5.9-1.3-14.1-1.3c-1,0-2.1,0-3.3,0.1
			c3.2-9.5,4-19.8,2.2-30.6c-0.1-0.8-0.4-1.5-0.8-2.1c0.3-5.3,0.1-10.9-0.7-16.6c-0.2-1.5-1-2.7-2.1-3.6c4.6-6.4,9.1-11.9,12.5-14.9
			c5.8-5.2,8.7-12.2,7.9-19.3c-0.8-7.6-5.7-14.5-13.8-19.2c-3.2-1.9-6.4-2.8-9.4-2.8c-13.7,0-18.3,18-19.8,23.9
			c-0.7,2.5-5.3,10.5-12.3,20.7V131v-21h-0.2h3.4c3,0,5.8-1.9,5.8-4.9V85.3c0-3-2.8-5.3-5.8-5.3h-56.3c-3,0-4.9,2.2-4.9,5.3v19.8
			c0,3,1.9,4.9,4.9,4.9h3.4h0.7v21v29h-0.7l-7,0.2L136,128.3V72h8.2c3,0,5.8-2.1,5.8-5.1V48.1c0-3-2.8-6.1-5.8-6.1H80.4
			c-3,0-5.4,3-5.4,6.1v18.8c0,3,2.4,5.1,5.4,5.1H90v56.1L38.4,248h0.1l0.4,0.6c0,0,0,0,0,0c0,0.1-0.4,0.2-0.4,0.3
			c0,0.1-0.2,0.2-0.3,0.3c0,0.2-0.2,0.3-0.2,0.5c0,0.1-0.1,0.1-0.1,0.2c0,0.2-0.1,0.4-0.1,0.6c0,0,0,0,0,0.1c0,0.2,0,0.4,0,0.6
			c0,0,0,0,0,0.1c0,0.2,0,0.4,0.1,0.6c0,0,0,0.1,0,0.1c0,0.2,0.1,0.3,0.1,0.5c0,0,0,0.1,0,0.1c0.1,0.1,0.1,0.3,0.2,0.4
			c0,0.1,0.1,0.1,0.1,0.2c0.1,0.1,0.1,0.2,0.2,0.3c0,0.1,0.2,0.2,0.2,0.2c0,0,0.1,0,0.1,0c0,0,0,0,0,0c0,0.1,0,0.1,0.1,0.2
			c0.1,0.1,0.1,0.2,0.2,0.3c0,0,0,0.1,0.1,0.1c0.1,0.1,0.2,0.3,0.4,0.4c0,0,0.1,0.1,0.1,0.1c0.1,0.1,0.3,0.2,0.4,0.3
			c0.1,0.1,0.2,0.1,0.3,0.2c0.1,0.1,0.2,0.1,0.3,0.2c0.1,0.1,0.3,0.1,0.5,0.2c0.1,0,0.1,0,0.2,0.1c0.2,0.1,0.4,0.1,0.5,0.2
			c0,0,0.1,0,0.1,0c0.2,0,0.4,0.1,0.5,0.1c0,0,0.1-0.1,0.1-0.1c0.2,0,0.5-0.1,0.7-0.1H137h36.8h16.8c0.1,0,0.2,0.2,0.4,0.3
			c0.1,0,0.6,0.2,1.5,0.4c0.2,0.2,0.5,0.4,0.8,0.6c0.9,0.5,1.8,0.8,2.8,0.8c0.7,0,1.4-0.1,2-0.4c0,0,0.2,0,0.3-0.1
			c2.4,0.3,5.5,0.5,8.5,0.5v0c15,0,42.2-4.5,54.7-34.7C262.3,221.9,262.2,220.2,261.4,218.7z M226.8,132.3
			c3.6-13.7,7.4-15.7,9.3-15.7c1.1,0,2.4,0.5,3.9,1.3c5,2.9,8,6.7,8.4,10.8c0.4,3.5-1.2,7.2-4.3,10c-4.8,4.3-11.5,12.7-17.6,21.9
			l-16.4,0C218.2,148.5,225.6,136.8,226.8,132.3z M157,91h45v8h-45V91z M166,125v-15h27v15H166z M193,136v24.5l-27.3-0.5h0.3v-24
			H193z M230.7,171.8c0.3,3.5,0.3,6.7,0,10.1c-1.2,0.6-2.5,1.2-4,2.2H107.4c-0.1-5,0.2-9.5,0.6-12.5L230.7,171.8z M86,61v-8h53v8H86
			z M100.4,131.2c0.3-0.7,0.6-1.3,0.6-2V72h24v57.2c0,0.6-0.1,1.3,0.2,1.9l10.4,29.1l-32.4-0.2c0,0,0,0,0,0c-2.6,0-4.8,2-5.4,4.5
			C97.7,165,96,173,96.4,185H77.3L100.4,131.2z M51.8,245l20.9-49h24.6c0.1,1,0.2,1.2,0.3,1.8c3,18.8,11.1,35.2,23.9,47.2H51.8z
			 M190.2,245H166h-0.2h-27.2c-16.7-11-26.8-27.8-30.2-48.6c-0.1-0.5-0.1-0.4-0.2-1.4h104c-0.5,1-1,0.9-1.5,1.4
			C197.2,209.9,190.1,227,190.2,245z M201.2,243.9c0.5-28.1,20.5-43.8,31.3-50.3C233.4,221.5,212.6,237.3,201.2,243.9z M217.2,246.2
			c2.1-1.6,4.2-3.5,6.3-5.5c4.7-4.5,8.6-9.4,11.6-14.6c3-0.4,5.9-0.6,8.6-0.6c1.7,0,3.2,0.1,4.6,0.2
			C240.4,239,228.4,244.4,217.2,246.2z"/>
	</g>
</g>
</svg>
