<?xml version="1.0" encoding="utf-8"?>
<!-- Generator: Adobe Illustrator 18.1.1, SVG Export Plug-In . SVG Version: 6.00 Build 0)  -->
<svg version="1.1" id="Layer_1" xmlns="http://www.w3.org/2000/svg" xmlns:xlink="http://www.w3.org/1999/xlink" x="0px" y="0px"
	 viewBox="0 0 300 300" enable-background="new 0 0 300 300" xml:space="preserve">
<g>
	<path fill="none" d="M95,133.3c0-3.7,1.7-7.3,3.6-10.3H89v50.5c2-1.7,4-3.2,6-4.4V133.3z"/>
	<path fill="#FFFFFF" d="M195,69h-62v28h62V69z M188,88.5c0,2.5-2,4.5-4.5,4.5h-38c-2.5,0-4.5-2-4.5-4.5v-10c0-2.5,2-4.5,4.5-4.5h38
		c2.5,0,4.5,2,4.5,4.5V88.5z"/>
	<rect x="89" y="206" fill="#FFFFFF" width="150" height="11"/>
	<path fill="#FFFFFF" d="M170.9,175h-12.7h-42.8h-6.8C98,175,89,183.5,89,194.1v2.9h150v-2.9c0-10.5-8-19.1-18.6-19.1h-6.8H170.9z"
		/>
	<rect x="221" y="226" fill="#CCCCCC" width="19" height="6"/>
	<rect x="89" y="226" fill="#CCCCCC" width="18" height="6"/>
	<path fill="#FFFFFF" d="M115.4,140h42.8c2.5,0,3.8,2.4,3.8,4.9V166h4v-21.1c0-2.5,2.4-4.9,4.9-4.9h42.8c2.5,0,4.4,2.4,4.4,4.9V166
		h2.4h3.6v-32.7c0-5.3-3.9-9.3-9.2-9.3H114.2c-5.3,0-10.2,4.1-10.2,9.3V166h4.6h1.4v-21.1C110,142.4,112.9,140,115.4,140z"/>
	<rect x="119" y="149" fill="#FFFFFF" width="34" height="17"/>
	<rect x="175" y="149" fill="#FFFFFF" width="34" height="17"/>
	<polygon fill="#CCCCCC" points="111,115 102.2,68 71.7,68 60.6,115 	"/>
	<g>
		<path fill="#5980B7" d="M204,64.5c0-2.5-2-4.5-4.5-4.5h-71c-2.5,0-4.5,2-4.5,4.5v37c0,2.5,2,4.5,4.5,4.5h71c2.5,0,4.5-2,4.5-4.5
			V64.5z M133,69h62v28h-62V69z"/>
		<path fill="#5980B7" d="M188,78.5c0-2.5-2-4.5-4.5-4.5h-38c-2.5,0-4.5,2-4.5,4.5v10c0,2.5,2,4.5,4.5,4.5h38c2.5,0,4.5-2,4.5-4.5
			V78.5z"/>
		<path fill="#5980B7" d="M233,169.1v-35.8c0-10.2-7.9-18.3-18.2-18.3H119l0-0.2l-9.6-51.5c-0.4-1.9-2-3.3-3.9-3.3h-37
			c-1.9,0-3.5,1.3-3.9,3.1l-12.9,55.2c-0.3,1.2,0,2.3,0.8,3.3s1.9,1.4,3.1,1.4H81v0.3v63.5c0,2.3-1,4.7-1,7.3v4.2v23.2
			c0,0,0,9,0,12.5s2,6.1,5,6.1h26.3c2.2,0,3.7-1.4,3.7-3.7v-10.4v0.1h98v-0.1v10.4c0,2.2,2.5,3.7,4.7,3.7H244c2.2,0,4-1.4,4-3.7
			v-12.9v-2v-27.4C248,183.2,242,173.8,233,169.1z M239,194.1v2.9H89.5H89v-2.9c0-10.5,9-19.1,19.6-19.1h6.8h42.8h12.7h42.8h6.8
			C231,175,239,183.5,239,194.1z M89,173.5v-50.2V123h9.6c-1.9,3-3.6,6.6-3.6,10.3v35.8C93,170.3,91,171.8,89,173.5z M119,166v-17
			h34v17H119z M175,166v-17h34v17H175z M214.8,124c5.3,0,9.2,4.1,9.2,9.3V166h-3.6H218v-21.1c0-2.5-1.9-4.9-4.4-4.9h-42.8
			c-2.5,0-4.9,2.4-4.9,4.9V166h-4v-21.1c0-2.5-1.4-4.9-3.8-4.9h-42.8c-2.5,0-5.4,2.4-5.4,4.9V166h-1.4H104v-32.7
			c0-5.3,4.9-9.3,10.2-9.3H214.8z M60.6,115l11.1-47h30.5l8.8,47H60.6z M107,232H89v-6h18V232z M89,217v-1.1V206h0.5H239v11H89z
			 M240,232h-19v-6h19V232z"/>
	</g>
</g>
</svg>
