<?xml version="1.0" encoding="utf-8"?>
<!-- Generator: Adobe Illustrator 18.1.1, SVG Export Plug-In . SVG Version: 6.00 Build 0)  -->
<svg version="1.1" id="Layer_1" xmlns="http://www.w3.org/2000/svg" xmlns:xlink="http://www.w3.org/1999/xlink" x="0px" y="0px"
	 viewBox="0 0 300 300" enable-background="new 0 0 300 300" xml:space="preserve">
<g>
	<path fill="#FFFFFF" d="M197.3,144.1c-0.5,1.4-1.4,2.5-2.7,3.2l-22.9,11.6c-0.8,0.4-1.7,0.6-2.5,0.6c-2,0-3.9-1.1-4.9-3l-11.1-21.7
		l-1.9,1l-15.7,8.6l14.5,28.4c1.9-0.8,3.9-1.4,5.9-1.8c2.1-0.4,4.3-0.7,6.5-0.7c10.8,0,20.6,5.5,26.4,14.1l42.1-21.4l-27.4-53.7
		l-17.8,9.1l11.1,21.7C197.6,141.2,197.8,142.7,197.3,144.1z"/>
	
		<rect x="166.5" y="125.4" transform="matrix(0.8911 -0.4538 0.4538 0.8911 -42.2811 93.59)" fill="#CCCCCC" width="14.6" height="18.9"/>
	<path fill="#FFFFFF" d="M183,197.9c-2-9.7-10.6-16.7-20.4-16.7c-1.4,0-2.9,0.1-4.3,0.4c-5.5,1.1-10.2,4.3-13.2,9
		c-3.1,4.7-4.1,10.2-3,15.7c2,9.7,10.6,16.7,20.4,16.7c1.4,0,2.9-0.1,4.3-0.4c5.5-1.1,10.2-4.3,13.2-9
		C183.1,208.9,184.2,203.4,183,197.9z M164.2,209.8c-4.3,0.9-8.4-1.9-9.3-6.1s1.9-8.4,6.1-9.3c4.3-0.9,8.4,1.9,9.3,6.1
		S168.4,209,164.2,209.8z"/>
	<path fill="#FFFFFF" d="M169.6,101.7c-0.4,1.4-1.4,2.6-2.7,3.3l-23.5,12.8c-0.8,0.5-1.7,0.7-2.6,0.7c-1.9,0-3.8-1-4.8-2.8
		l-7.4-13.4l-12.7,6.9l14.1,25.7l55.8-30.5l-14.1-25.7l-10,5.5l7.4,13.3C169.8,98.7,170,100.2,169.6,101.7z"/>
	<polygon fill="#CCCCCC" points="156.8,98 152,89.4 138.2,97 142.9,105.5 	"/>
	<path fill="#CCCCCC" d="M80.1,100.7c0.1-0.1,0.2-0.2,0.3-0.3c0-0.1,0-0.3-0.1-0.4l-2.4-4.2c-0.1-0.3-0.4-0.3-0.5-0.3
		c-0.1,0-0.2,0-0.3,0.1L57,107.2c-0.1,0.1-0.2,0.2-0.3,0.3c0,0.1,0,0.3,0.1,0.4l2.4,4.2c0.1,0.3,0.4,0.3,0.5,0.3
		c0.1,0,0.2,0,0.3-0.1L80.1,100.7z"/>
	<g>
		<path fill="#5980B7" d="M253,157.9c-1.3-2.7-4.6-3.9-7.4-2.5l-4.8,2.3L211,99.2c-0.7-1.3-1.8-2.3-3.2-2.7
			c-1.4-0.5-2.9-0.3-4.2,0.3l-7.5,3.8l-17.5-32c-1.5-2.7-4.8-3.6-7.5-2.2l-39,21.3l-4.1,2.3c0,0,0,0,0,0l-18.8,10.3l-8.9-15.2
			c-0.7-1.3-2-2.2-3.4-2.6c-1.4-0.4-3-0.1-4.2,0.7l-7.4,4.6c-2.1-2-5-3.2-8-3.2c-2,0-4,0.5-5.8,1.5L51.5,97.7c-2.7,1.5-4.6,4-5.4,7
			c-0.8,3-0.4,6.1,1.1,8.8l2.4,4.2c2.1,3.6,5.9,5.8,10,5.8c2,0,4-0.5,5.8-1.5l20.1-11.6c2.7-1.5,4.6-4,5.4-7c0.5-2,0.5-4.1,0-6
			l2.8-1.7l36.4,62.1l8.4,16.2c-0.7-0.4-1.5-0.8-2.4-0.8h-49c-3,0-5.5,2.5-5.5,5.5s2.5,5.5,5.5,5.5H136c0,0,0,0-0.1,0.1
			c-2.6,4-4.3,8.9-4.9,12.9h-16.9c-3,0-5.5,2.5-5.5,5.5s2.5,5.5,5.5,5.5h17.2c0,0,0,0,0,0.1c1.2,5.7,3.9,10.9,7.6,14.9H69.1
			c-3,0-5.5,2.5-5.5,5.5s2.5,5.5,5.5,5.5h169c3,0,5.5-2.5,5.5-5.5s-2.5-5.5-5.5-5.5h-51.9c1.1-1,2.1-2.2,3-3.6
			c4.7-7.1,6.3-15.5,4.6-23.8c-0.1-0.5-0.2-0.8-0.3-1.3l47.5-24.1c0.5-0.2,0.9-0.5,1.2-0.8l8.2-4C253.2,163.9,254.3,160.6,253,157.9
			z M80.3,100.4c0,0.1-0.1,0.3-0.3,0.3L60,112.3c-0.1,0.1-0.2,0.1-0.3,0.1c-0.1,0-0.3,0-0.5-0.3l-2.4-4.2c-0.1-0.1-0.1-0.3-0.1-0.4
			c0-0.1,0.1-0.3,0.3-0.3l20.1-11.6c0.1,0,0.2-0.1,0.3-0.1c0.1,0,0.3,0,0.5,0.3l2.4,4.2C80.4,100.1,80.4,100.3,80.3,100.4z
			 M184.7,140l-13.1,6.6l-8.6-16.8l13.1-6.6L184.7,140z M156.8,98l-13.8,7.6l-4.7-8.5l13.8-7.5L156.8,98z M128.6,102.3l7.4,13.4
			c1,1.8,2.9,2.8,4.8,2.8c0.9,0,1.8-0.2,2.6-0.7l23.5-12.8c1.3-0.7,2.2-1.9,2.7-3.3c0.4-1.4,0.2-2.9-0.5-4.2l-7.4-13.3l10-5.5
			l14.1,25.7l-55.8,30.5l-14.1-25.7L128.6,102.3z M180,213.6c-3.1,4.7-7.8,7.9-13.2,9c-1.4,0.3-2.8,0.4-4.3,0.4
			c-9.8,0-18.4-7-20.4-16.7c-1.1-5.5-0.1-11,3-15.7c3.1-4.7,7.8-7.9,13.2-9c1.4-0.3,2.8-0.4,4.3-0.4c9.8,0,18.4,7,20.4,16.7
			C184.2,203.4,183.1,208.9,180,213.6z M189,184.3c-5.8-8.5-15.6-14.1-26.4-14.1c-2.2,0-4.3,0.2-6.5,0.7c-2.1,0.4-4,1-5.9,1.8
			l-14.5-28.4l15.7-8.6l1.9-1l11.1,21.7c1,1.9,2.9,3,4.9,3c0.8,0,1.7-0.2,2.5-0.6l22.9-11.6c1.3-0.7,2.3-1.8,2.7-3.2
			s0.3-2.9-0.3-4.2l-11.1-21.7l17.8-9.1l27.4,53.7L189,184.3z"/>
		<circle fill="#5980B7" cx="162.6" cy="202.1" r="7.9"/>
		<path fill="#5980B7" d="M115.1,161c3,0,5.5-2.5,5.5-5.5s-2.5-5.5-5.5-5.5h-11c-3,0-5.5,2.5-5.5,5.5s2.5,5.5,5.5,5.5H115.1z"/>
	</g>
</g>
</svg>
