<?xml version="1.0" encoding="utf-8"?>
<!-- Generator: Adobe Illustrator 18.1.1, SVG Export Plug-In . SVG Version: 6.00 Build 0)  -->
<svg version="1.1" id="Layer_1" xmlns="http://www.w3.org/2000/svg" xmlns:xlink="http://www.w3.org/1999/xlink" x="0px" y="0px"
	 viewBox="0 0 300 300" enable-background="new 0 0 300 300" xml:space="preserve">
<g>
	<polygon fill="#FFFFFF" points="66.5,194 104.1,194 99.8,174 70.8,174 	"/>
	<polygon fill="#FFFFFF" points="73.1,163 97.4,163 95.2,152 75.4,152 	"/>
	<polygon fill="#FFFFFF" points="62,224 110.3,224 109.7,221 62,221 	"/>
	<path fill="#FFFFFF" d="M144,107.2c0-3,1.7-6.2,4.8-6.2H177V90H62v31h82V107.2z M131.7,112h-25c-3,0-5.5-2.5-5.5-5.5
		s2.5-5.5,5.5-5.5h25c3,0,5.5,2.5,5.5,5.5S134.8,112,131.7,112z"/>
	<path fill="#FFFFFF" d="M177,47H62v32h115V47z M131.7,67h-25c-3,0-5.5-2.5-5.5-5.5s2.5-5.5,5.5-5.5h25c3,0,5.5,2.5,5.5,5.5
		S134.8,67,131.7,67z"/>
	<path fill="#FFFFFF" d="M241,190.4c0,3-3,5.6-6,5.6h-86.2c-3,0-4.8-2.6-4.8-5.6V134h-10.5c0.9,2,1.5,4.9,1.5,7.4v5.8
		c0,3-2.6,4.8-5.7,4.8H123v1.1l13.6,71.9h12.2h89.5h19.5h3.1v-91h-20V190.4z"/>
	<path fill="#FFFFFF" d="M195.9,141.4c1-2.4,3.7-3.8,6.2-3.4l27.9,4.3V112h-75v73h23.5L195.9,141.4z"/>
	<rect x="244" y="236" fill="#CCCCCC" width="9" height="5"/>
	<polygon fill="#CCCCCC" points="144,241 144,236 138.7,236 139.7,241 	"/>
	<polygon fill="#FFFFFF" points="63.3,210 107.3,210 106.5,205 64.1,205 	"/>
	<polygon fill="#FFFFFF" points="127.8,253 130.7,253 111.8,152 106.4,152 	"/>
	<polygon fill="#FFFFFF" points="58.8,152 39.9,253 42.8,253 64.1,152 	"/>
	<path fill="#CCCCCC" d="M124,141v0.4c0-4.8-4.1-9.4-8.9-9.4H51.2c-4.8,0-8.2,4.6-8.2,9.4V141H124z"/>
	<polygon fill="#CCCCCC" points="228.7,183 229.4,153.3 204.5,149.3 190.9,183 	"/>
	<g>
		<polygon fill="#5980B7" points="62,224 62,221 109.7,221 107.3,210 63.3,210 60.9,221 57.9,235 112.7,235 110.3,224 		"/>
		<polygon fill="#5980B7" points="97.4,163 73.1,163 70.8,174 99.8,174 		"/>
		<path fill="#5980B7" d="M131.7,56h-25c-3,0-5.5,2.5-5.5,5.5s2.5,5.5,5.5,5.5h25c3,0,5.5-2.5,5.5-5.5S134.8,56,131.7,56z"/>
		<path fill="#5980B7" d="M131.7,101h-25c-3,0-5.5,2.5-5.5,5.5s2.5,5.5,5.5,5.5h25c3,0,5.5-2.5,5.5-5.5S134.8,101,131.7,101z"/>
		<path fill="#5980B7" d="M266.2,123h-0.9c8.7-11,6.8-25.2,6.7-25.8c-0.4-3-3.2-5-6.2-4.6c-3,0.4-5.1,3.2-4.7,6.2
			c0,0.1,1.4,10.9-5.1,18.3c-2.5,2.8-5.8,4.9-10,5.9h-5v-15.8V94.6c10-0.9,18-4.6,23.5-10.9c9.8-11.2,7.7-26.5,7.6-27.1
			c-0.4-3-3.2-5.1-6.2-4.7c-3,0.4-5.1,3.2-4.7,6.2c0,0.1,1.5,11.1-5,18.5c-3.4,3.9-8.2,6.2-15.2,7V65.5c3-1.9,5.2-5.3,5.2-9.3
			c0-5.9-4.9-10.8-10.8-10.8s-10.6,4.8-10.6,10.8c0,3.9,2.3,7.3,5.3,9.2v18.1c-7-0.8-11.9-3.2-15.3-7c-6.5-7.4-5.2-18.3-5.2-18.5
			c0.4-3-1.7-5.8-4.7-6.2c-3-0.4-5.8,1.7-6.2,4.7c-0.1,0.6-2,15.9,7.8,27.1c5.5,6.3,13.7,10,23.7,10.9v6.4h-20.7
			c0-1,0.1-2.4,0.1-2.5c0.4-3-1.7-5.6-4.7-6c-3-0.4-5.8,1.4-6.2,4.4c0,0.2-0.2,2.1-0.2,4.1H188V42.1c0-3-2.8-6.1-5.9-6.1h-126
			c-3,0-5.2,3.1-5.2,6.1v79.4c-10,0.3-19,9.2-19,19.9v5.8c0,3,2,4.8,5,4.8h10.6L27.8,257.4c-0.3,1.6,0.1,3.3,1.2,4.6s2.6,2,4.2,2h14
			c2.6,0,4.8-1.7,5.4-4.2l5.3-24.8l3-14l2.3-11l0.9-4.3l0.1-0.6h42.1l0.1,0.6l0.9,4.2l2.3,11l0.7,3.1l2.3,11l5.3,24.8
			c0.5,2.5,2.8,4.2,5.4,4.2h14c1.6,0,3.2-0.6,4.2-1.9s1.5-2.9,1.2-4.5l-1-5.1l-2.1-11.1l-1-5.4h5.3v5h-4.3l2.1,11h7.1
			c3,0,6.1-1.9,6.1-4.9V236h78v11.1c0,3,2.3,4.9,5.3,4.9h19.5c3,0,6.1-1.9,6.1-4.9V236h2.2c3,0,5.8-2.4,5.8-5.4V128.8
			C272,125.7,269.3,123,266.2,123z M230,112v30.4l-0.4,0l-27.7-4.4c-2.5-0.4-5,1-6,3.4l-17.4,43.4l-0.2,0.3H155v-73H230z
			 M229.4,153.3l-0.6,29.7h-37.8l13.5-33.7L229.4,153.3z M62,47h115v32h-0.4H62V47z M62,90h114.6h0.4v11h-0.4h-27.8
			c-3,0-4.8,3.1-4.8,6.2V121h-28.9H62V90z M42.8,253h-3l19-101h5.3L42.8,253z M66.6,194l4.2-19.9l2.3-11.3l2.2-10.9h19.8l2.2,10.9
			l2.3,11l4.3,20H66.6z M42.7,141c0.1-4,3.7-9,8.5-9h63.9c4.7,0,8.5,5,8.6,9H42.7z M127.8,253l-21.3-101h5.3l19,101H127.8z M253,241
			h-9v-5h9V241z M261,225h-3.1h-19.5h-89.5h-12.2l0,0L123,152.9V152h0h0h0h6.3c3,0,5.7-1.8,5.7-4.8v-5.8c0-2.5-0.6-4.9-1.4-7.1
			c-0.9-2.3-2.3-4.6-4-6.5c1.7,1.8,3,4.2,3.9,6.2H144v0.3v56.1c0,3,1.7,5.6,4.8,5.6H235c3,0,6-2.6,6-5.6v-41.5l-0.9,40l0.9-40v-14.6
			V134h20V225z"/>
	</g>
</g>
</svg>
