<?xml version="1.0" encoding="utf-8"?>
<!-- Generator: Adobe Illustrator 18.1.1, SVG Export Plug-In . SVG Version: 6.00 Build 0)  -->
<svg version="1.1" id="Layer_1" xmlns="http://www.w3.org/2000/svg" xmlns:xlink="http://www.w3.org/1999/xlink" x="0px" y="0px"
	 viewBox="0 0 300 300" enable-background="new 0 0 300 300" xml:space="preserve">
<g>
	<path fill="#FFFFFF" d="M170.4,87.4c-2.7,0-6.1,0.4-7.8,2.2c-1,1.1-2.1,3.4-2.1,8.8l0.4,37.2c0,2.8,0,5.3,0,8.3H178
		c0.5,0,0,0.7,1,0.8V96.7C179,90,176.7,87.4,170.4,87.4z"/>
	<path fill="#FFFFFF" d="M93.9,89.1c-1.5-1.1-3.4-1.6-5.9-1.6c-3.4,0-6.7,0.8-9.4,2.5c-2.1,1.3-3.6,2.9-3.6,5.1v64
		c0,22.2,0.2,37.6,0.2,45.9c0.2,4,1.8,7.7,10.3,7.7c5.1,0,8.6-1.6,8.6-9.5c0-5-0.1-16.8-0.3-35c-0.3-18.3-0.3-31.8-0.2-40.2
		c0-1.8,1.2-3.4,2.9-3.9c0.4-0.1,0.8-0.2,1.2-0.2c1.3,0,2.6,0.5,3.4,1.7l50.1,71.6h0.7v-27.6l-0.5-1.4h-5.7c-2.2,0-4.8-1.4-4.8-3.6
		V154L99.8,95.8C97.5,92.7,95.8,90.4,93.9,89.1z"/>
	<path fill="#CDCCCC" d="M214,201.2V174c0-19.8-8.5-22.4-16.3-22.4c-5.9,0-11.6,2.2-17.5,6.6c-1.2,0.9-2.8,1.1-4.1,0.4
		c-1.4-0.7-2.1-2.1-2.1-3.6v-3h-25v8h7.2c2.2,0,3.8,2.1,3.8,4.4v36.8c0,2.2-1.6,3.8-3.8,3.8H149v7h33v-7h-4c-2.2,0-4-1.6-4-3.8
		v-30.8c0-1.3,0.6-2.5,1.7-3.3c4.9-3.4,9.9-5.2,14.7-5.2c4.5,0,6.5,2,7.7,3.7c1.6,2.1,1.8,5.3,1.8,10V212h25v-7h-6.3
		C216.5,205,214,203.4,214,201.2z"/>
	<path fill="#5A81B8" d="M229,197h-7v-23c0-25.1-13.1-30.4-24.3-30.4c-3.5,0-7.1,0.6-10.5,1.8c0,0-0.2,0-0.2,0v0v-12.8V96.7
		c0-11.2-5.9-17.6-16.7-17.6c-6.2,0-10.8,1.6-13.8,4.8c-3,3.2-4.4,7.9-4.4,14.6l0.4,37.2c0,2.8,0,5.2,0.1,8.2h-6.9
		c-0.2,0-0.5,0.3-0.7,0.4c0,0,0,0.1,0,0.1l-38.2-53.6c-2.9-3.9-5.5-6.6-8-8.5c-2.9-2.1-6.5-3.2-10.8-3.2c-4.9,0-9.4,1.3-13.4,3.8
		c-4.5,2.8-7.2,6.9-7.3,11.9c0,0-0.2,0.1-0.2,0.2V159c0,22.6,0,37.7,0,46c0,0.1,0.1,0.1,0.1,0.2c0.3,5.8,3.1,15.6,18.4,15.6
		c10.7,0,16.8-6.5,16.8-17.8c0-5.1-0.1-16.9-0.4-35.1c-0.2-10.7-0.2-19.7-0.2-27l40.5,58.1c0,0-0.3,0.1-0.3,0.1c-0.4,0.6-1,1.2-1,2
		v15.7c0,2.2,2.5,3.1,4.8,3.1h40.8c2.2,0,3.5-0.8,3.5-3.1v-15.7c0-0.7,0.1-1.4-0.2-2c-0.7-1.3-1.7-2.2-3.3-2.2H182v-24.5
		c2-1.7,5.5-2.5,8-2.6c0.1,0,0.3,0,0.4,0c0.9,0,1.1,0.2,1.3,0.4c0,0,0.3,1.1,0.3,5.2v41.4c0,2.2,2.7,3.1,4.9,3.1H229
		c2.2,0,4-0.8,4-3.1v-15.7C233,199,231.2,197,229,197z M162.7,89.6c1.7-1.8,5.1-2.2,7.8-2.2c6.3,0,8.6,2.6,8.6,9.3v35.8v12.3v0.1
		c0,0,0.1-0.3,0.1-0.4c-0.4-0.1-0.6-0.5-1-0.5h-17.1c0-3,0-5.5,0-8.3l-0.4-37.4C160.5,92.9,161.7,90.7,162.7,89.6z M101.1,125.4
		c-0.8-1.1-2.1-1.7-3.4-1.7c-0.4,0-0.8,0.1-1.2,0.2c-1.7,0.5-2.9,2.1-2.9,3.9c-0.1,8.4-0.1,22,0.2,40.3c0.3,18.2,0.4,30,0.4,35
		c0,7.9-3.4,9.5-8.5,9.5c-8.5,0-10.2-3.7-10.5-7.7c0-8.2-0.2-23.7-0.2-45.9v-64c0-2.2,1.5-3.8,3.6-5.1c2.7-1.7,5.8-2.5,9.2-2.5
		c2.5,0,4.5,0.5,6,1.6c1.9,1.4,3.7,3.7,6,6.8L141,154v10.4c0,2.2,2.5,3.6,4.8,3.6h5.7h0.1l0.4,1.4V197h-0.7L101.1,125.4z M225,212
		h-25v-36.4c0-4.7-0.3-7.9-1.8-10c-1.2-1.7-3.4-3.7-8-3.7c-4.9,0-9.7,1.7-14.6,5.2c-1.1,0.8-1.6,2-1.6,3.3v30.8c0,2.2,1.8,3.8,4,3.8
		h4v7h-33v-7h7.2c2.2,0,3.8-1.6,3.8-3.8v-36.8c0-2.2-1.6-4.4-3.8-4.4H149v-8h25v3c0,1.5,0.9,2.9,2.2,3.6c1.4,0.7,3,0.5,4.2-0.4
		c5.8-4.4,11.4-6.6,17.3-6.6c7.8,0,16.3,2.5,16.3,22.4v27.2c0,2.2,2.5,3.8,4.7,3.8h6.3V212z"/>
</g>
</svg>
