<?xml version="1.0" encoding="utf-8"?>
<!-- Generator: Adobe Illustrator 18.1.1, SVG Export Plug-In . SVG Version: 6.00 Build 0)  -->
<svg version="1.1" id="Layer_1" xmlns="http://www.w3.org/2000/svg" xmlns:xlink="http://www.w3.org/1999/xlink" x="0px" y="0px"
	 viewBox="0 0 300 300" enable-background="new 0 0 300 300" xml:space="preserve">
<g>
	<path fill="#CDCCCC" d="M85.1,120.7c-0.2-0.3-0.4-0.6-0.5-1c-1.4-4.1-2.2-11.1,0.5-17.6c-3.1-4-6.9-7.7-10.7-8.4
		c-1.6-0.3-4-0.3-7.4,2.8c-5.4,5.1-4.2,12-2.9,15.6c2.4,7.3,8.6,13.5,14.9,15.3C80.9,125,82.9,122.7,85.1,120.7z"/>
	<path fill="#CDCCCC" d="M128.8,83.5c-3.1-4.5-6.7-6.1-11-4.9c-3.5,1-5.8,2.8-7.2,5.6c-0.9,1.8-1.4,4-1.5,6.3
		c8.9,3.7,13.2,14.8,13.7,16.1c0,0,0,0.1,0,0.1c3.1,0.1,6,0.5,9,1.1C134.6,100.8,133.5,90.3,128.8,83.5z"/>
	<path fill="#CDCCCC" d="M113.2,107.1c-1.5-3-4.3-7.1-7.7-8.4c-1.9-0.7-3.8-0.5-6.1,0.6c-7.9,4.1-7.5,11.9-6.8,15.5
		C98.8,110.9,105.7,108.2,113.2,107.1z"/>
	<path fill="#FFFFFF" d="M113.9,137.7c0.4-1.6,1.7-2.7,3.2-3.1c1.6-0.4,3.2,0.1,4.3,1.3c0.4,0.5,6.1,6.3,14.9,10.1
		c0.5-0.8,1-1.6,1.5-2.4c3.7-6.9,8.6-11.8,13.8-15.2c-7.9-7.9-18.8-12.8-30.8-12.8c-24.1,0-43.6,19.6-43.6,43.6c0,2.5,0.2,5,0.6,7.4
		C106,164.4,113.8,138,113.9,137.7z"/>
	<g>
		<path fill="#FFFFFF" d="M69.9,172.1c-1-4.1-1.6-8.5-1.6-12.9c0-5.7,0.9-11.1,2.6-16.3c0.9-2.7,1.9-5.2,3.2-7.7
			c-2.5-1-4.9-2.4-7.1-4.1c-1.4-1.1-2.7-2.3-4-3.7c-19.3,17.3-10.6,34.3-3.5,48.1c1.2,2.4,2.4,4.6,3.2,6.6
			c3.5,8.2,0.8,15.8-3.2,21.3c12.3-0.5,19.2-5.7,22.4-9c-5.6-6.2-9.8-13.8-11.9-22.2C69.9,172.2,69.9,172.1,69.9,172.1z"/>
		<path fill="#FFFFFF" d="M128.7,182.2c-1.1-8.2-0.3-16.3,2.1-23.7c0.3-0.9,0.6-1.8,0.9-2.7c0,0,0,0,0,0c0.1-0.2,0.1-0.4,0.2-0.6
			c0.2-0.4,0.3-0.9,0.5-1.3c-5.2-2.3-9.4-5.1-12.4-7.4c-2.3,4.8-6.4,11.6-13,17.4c-6.3,5.6-15,10.3-26.6,11.6
			c6.4,16.1,22.2,27.4,40.5,27.4c4.7,0,9.3-0.8,13.6-2.2C131.6,195,129.6,188.8,128.7,182.2z"/>
	</g>
	<path fill="#FFFFFF" d="M196.2,132.1c-0.3-0.4-0.6-0.7-1-1.1c-7.6,1-13.3,6.8-17.2,13.1c-3.7,6.8-5.3,13.8-5.8,17.3l27.8,7.1
		C202.1,161.6,206,144.1,196.2,132.1z"/>
	<path fill="#FFFFFF" d="M137.7,181c3,23.3,23,40.8,46.4,40.8c2,0,4.1-0.1,6.1-0.4c12.4-1.6,23.5-8,31.1-17.9
		c4.2-5.5,7.1-11.7,8.6-18.3l-90.9-23C137.4,168.2,136.8,174.5,137.7,181z"/>
	<path fill="#CDCCCC" d="M143.8,152.4l18.7,4.9c1.1-3.8,3.5-10.7,7.5-17.4c2-3.6,4.4-7.2,7.6-10.4c-3,0.1-6.1,0.5-9.2,1.3
		c-9.3,3.3-17.1,9.4-22.6,17.3C145.1,149.4,144.4,150.8,143.8,152.4z"/>
	<path fill="#CDCCCC" d="M211.2,170.2l18,4c1.2-12.6-3.1-23.1-12.9-31.2c-2.1-1.7-4.2-3.2-6.2-4.4
		C214.5,151.7,212.2,165.5,211.2,170.2z"/>
	<path fill="#5A81B8" d="M254.2,182.2l-14.3-3.6c0.2-3.6,0.1-7.2-0.4-10.8c-2.6-19.9-15.6-36.3-33.1-44c0.3-1.1,0.4-2.3,0.2-3.5
		c-0.7-5.2-5.4-8.8-10.6-8.1c-4,0.5-7,3.5-7.9,7.1c-1.3-0.1-2.6-0.2-4-0.2c-2.4,0-4.9,0.2-7.3,0.5c-3.9,0.5-7.7,1.4-11.4,2.7
		c-1.8,0.5-3.7,1-5.5,1.8c-5.4-6-12.1-10.7-19.6-13.7c4-10.4,1.4-23.7-4.2-31.9c-5.2-7.6-12.8-10.8-20.8-8.5
		c-6,1.7-10.3,5.2-12.9,10.3c-1.4,2.9-2.2,6.2-2.4,9.4c-1.6,0.3-3.2,0.9-4.8,1.7c-1.8,0.9-3.4,2-4.7,3.2c-3.9-4.5-8.8-8.6-14.4-9.7
		c-3.7-0.7-9.4-0.4-15.2,5c-6.6,6.2-8.6,15.3-5.3,25c0.6,1.8,1.3,3.4,2.2,5c-25.5,22.2-13.1,46.4-6.3,59.6c1.1,2.2,2.2,4.3,2.9,6
		c4.1,9.6-7.2,17.6-7.7,18c-1.5,1-2.3,2.9-1.8,4.7c0.4,1.8,1.9,3.2,3.7,3.4c3.3,0.5,6.4,0.7,9.3,0.7c16.4,0,26-7.2,30.5-11.9
		c9,7,20.2,11.3,32.5,11.3c6.5,0,12.8-1.2,18.5-3.4c10.3,13.7,26.6,22.4,44.6,22.4c2.4,0,4.9-0.2,7.3-0.5c14.8-1.9,28-9.5,37.1-21.3
		c5-6.5,8.4-13.8,10.2-21.5l13.4,3.4c0.4,0.1,0.7,0.1,1.1,0.1c2,0,3.8-1.4,4.4-3.4C258.1,185.2,256.6,182.8,254.2,182.2z M178,144.1
		c3.9-6.3,9.5-12.1,17.2-13.1c0.3,0.4,0.7,0.7,1,1.1c9.8,12,5.9,29.5,3.8,36.4l-27.8-7.1C172.8,157.9,174.3,150.8,178,144.1z
		 M216.3,143.1c9.8,8.1,14.1,18.6,12.9,31.2l-18-4c1-4.7,3.3-18.5-1.1-31.5C212.1,139.9,214.2,141.4,216.3,143.1z M168.4,130.8
		c3.1-0.8,6.2-1.1,9.2-1.3c-3.1,3.2-5.6,6.8-7.6,10.4c-4.1,6.7-6.4,13.6-7.5,17.4l-18.7-4.9c0.6-1.5,1.3-3,2-4.3
		C151.3,140.2,159.1,134.1,168.4,130.8z M151.8,128.3c-5.2,3.4-10,8.3-13.8,15.2c-0.5,0.8-1,1.6-1.5,2.4
		c-8.8-3.8-14.5-9.6-14.9-10.1c-1.1-1.2-2.8-1.6-4.3-1.3c-1.6,0.4-2.8,1.6-3.2,3.1c-0.1,0.3-8,26.7-36,28.8
		c-0.4-2.4-0.6-4.9-0.6-7.4c0-24.1,19.6-43.6,43.6-43.6C133,115.5,143.9,120.4,151.8,128.3z M110.6,84.2c1.4-2.8,3.8-4.7,7.2-5.6
		c4.2-1.2,7.9,0.5,11,4.9c4.7,6.8,5.7,17.4,2.9,24.2c-2.9-0.6-5.9-1-9-1.1c0,0,0-0.1,0-0.1c-0.5-1.3-4.7-12.4-13.7-16.1
		C109.3,88.2,109.7,86,110.6,84.2z M99.5,99.3c2.3-1.2,4.2-1.4,6.1-0.6c3.4,1.3,6.2,5.4,7.7,8.4c-7.5,1.1-14.4,3.8-20.6,7.7
		C92,111.2,91.6,103.4,99.5,99.3z M67.1,96.5c3.3-3.1,5.8-3.1,7.4-2.8c3.8,0.7,7.6,4.4,10.7,8.4c-2.7,6.5-1.9,13.5-0.5,17.6
		c0.1,0.3,0.3,0.7,0.5,1c-2.2,2.1-4.3,4.3-6.1,6.7c-6.3-1.8-12.5-8-14.9-15.3C62.9,108.5,61.7,101.6,67.1,96.5z M59.5,203.4
		c4-5.6,6.7-13.1,3.2-21.3c-0.9-2-2-4.2-3.2-6.6c-7.1-13.8-15.8-30.8,3.5-48.1c1.2,1.3,2.6,2.6,4,3.7c2.2,1.7,4.6,3.1,7.1,4.1
		c-1.3,2.5-2.3,5-3.2,7.7c-1.7,5.1-2.6,10.6-2.6,16.3c0,4.4,0.6,8.8,1.6,12.9c0,0,0,0.1,0,0.1c2.1,8.4,6.3,16,11.9,22.2
		C78.7,197.7,71.8,203,59.5,203.4z M121,202.8c-18.3,0-34.1-11.4-40.5-27.4c11.6-1.3,20.2-6,26.6-11.6c6.6-5.8,10.7-12.6,13-17.4
		c3,2.3,7.3,5.1,12.4,7.4c-0.2,0.4-0.4,0.8-0.5,1.3c-0.1,0.2-0.2,0.4-0.2,0.6c0,0,0,0,0,0c-0.3,0.9-0.6,1.8-0.9,2.7
		c-2.3,7.5-3.1,15.5-2.1,23.7c0.9,6.6,2.9,12.8,5.8,18.5C130.3,202,125.7,202.8,121,202.8z M221.3,203.5
		c-7.6,9.9-18.7,16.3-31.1,17.9c-2,0.3-4.1,0.4-6.1,0.4c-23.4,0-43.4-17.6-46.4-40.8c-0.8-6.5-0.3-12.8,1.4-18.8l90.9,23
		C228.4,191.8,225.5,198.1,221.3,203.5z"/>
</g>
</svg>
