<?xml version="1.0" encoding="utf-8"?>
<!-- Generator: Adobe Illustrator 18.1.1, SVG Export Plug-In . SVG Version: 6.00 Build 0)  -->
<svg version="1.1" id="Layer_1" xmlns="http://www.w3.org/2000/svg" xmlns:xlink="http://www.w3.org/1999/xlink" x="0px" y="0px"
	 viewBox="0 0 300 300" enable-background="new 0 0 300 300" xml:space="preserve">
<g>
	<path fill="#FFFFFF" d="M101.2,64.8c-0.1,0.9,1.8,5.3,11.7,13.1c5.3-9.1,12.2-18,20.4-26.1c-13.9,2.7-27.4,8.5-32,12.8
		C101.3,64.7,101.2,64.8,101.2,64.8z"/>
	<path fill="#FFFFFF" d="M199.5,141.1c0.7-1.7,1.3-3.5,1.9-5.3c-7.5,6.2-15.4,11.3-23.4,15.3c6,1.5,9.7,4,12.6,6.2
		C193.2,150.7,196.2,145.4,199.5,141.1z"/>
	<path fill="#FFFFFF" d="M129.4,117.5c2-0.2,3.9,0.7,5.1,2.3c0.8,1.1,8.8,12.8,16.8,29.3c15.9-2.7,33.4-12,48.5-26
		c4.7-4.3,8.7-9,12.2-13.8c-30.7-2.2-49.6-33.4-50.4-34.9c-1.5-2.5-0.7-5.7,1.8-7.2c2.5-1.5,5.7-0.7,7.2,1.8
		c0.2,0.4,19.6,32.1,48.1,29.7c9.8-17.8,13.2-36.2,13.1-46.7l-12,2.8c-2,0.5-4-0.2-5.3-1.8c-1.3-1.6-1.5-3.7-0.6-5.6l6-12.5
		c-5.1-2.7-11.5-4.1-18.7-4.1c-18.8,0-40.2,9.5-57.5,25.4C125,73.7,112.8,96,111,114.8c3.2,5.4,6.4,11.2,9.4,17.3
		c2.7-6.9,4.5-11.1,4.5-11.2C125.7,119,127.4,117.7,129.4,117.5z M185,48.2c3.4-3.2,8.7-2.8,11.7,0.7c3,3.6,2.7,9-0.7,12.2
		c-3.4,3.2-8.7,2.8-11.7-0.7S181.6,51.3,185,48.2z"/>
	<path fill="#CCCCCC" d="M45.1,100.7c-2.2-7.5-3.6-13.3-4.4-17.9c-2.6,7.5-3.2,19.1-1.2,33.3c3.6-0.1,7-0.4,10.2-0.9
		C48,110,46.5,105.2,45.1,100.7z"/>
	<path fill="#CCCCCC" d="M80.5,111.3c3.4,6.4,6.8,13.2,10.2,20.3c4.3-3,8-6.6,11.2-10.6c-3.9-6.6-8-12.7-12-18
		C87.1,106.1,84,108.9,80.5,111.3z"/>
	<path fill="#CCCCCC" d="M69.8,166.4c-2.4-5.5-4.8-11-7-16.4c-4.7,0.8-9.6,1.4-14.7,1.7c1.8,5.3,3.8,10.8,6.1,16.4
		c1.1-0.6,2.6-0.6,3.9-0.7C62.2,167.2,66.1,166.9,69.8,166.4z"/>
	<path fill="#CCCCCC" d="M77.2,105.1c3.2-2.2,5.9-4.8,8.4-7.7C75.4,84.9,65.5,76.9,57.7,74c3.1,4,7.1,9.7,12,17.9
		C72.1,96,74.6,100.4,77.2,105.1z"/>
	<path fill="#CCCCCC" d="M63.3,174.1c3.9,1.6,8.1,3.4,12.3,5.3c-1-2.1-1.9-4.2-2.9-6.4C69.7,173.5,66.6,173.9,63.3,174.1z"/>
	<path fill="#CCCCCC" d="M93.7,138c2.5,5.3,5,10.8,7.5,16.4c0.1,0.1,0.1,0.2,0.1,0.3c4.5-3.3,8.4-7.2,11.5-11.7
		c0.1-0.2,0.2-0.3,0.4-0.5c-2.5-5.3-5-10.3-7.6-15.1C102.1,131.5,98.2,135,93.7,138z"/>
	<path fill="#CCCCCC" d="M104.2,161.3c1,2.4,2,4.8,3,7.2c1.5-4.7,3-9.2,4.6-13.4C109.5,157.4,106.9,159.4,104.2,161.3z"/>
	<path fill="#CCCCCC" d="M60.2,143.3c-3-7.4-5.7-14.6-8.1-21.5c-3.6,0.6-7.4,0.9-11.4,1.1c1.2,6.8,3,14.1,5.3,21.8
		C50.9,144.5,55.7,144,60.2,143.3z"/>
	<path fill="#CCCCCC" d="M46.9,72.8c-0.3,2.6,0.1,10.1,5.9,29.2c1.1,3.7,2.4,7.7,3.8,11.8c5.3-1.2,10.2-2.9,14.5-5.1
		c-2.3-4.2-4.5-8.1-6.7-11.8C54.3,79.7,49,74.4,46.9,72.8z"/>
	<path fill="#CCCCCC" d="M98.2,165c-5.4,2.9-11.6,5.1-18.3,6.6c1.9,4.1,3.8,8.2,5.6,12.2c1.7,0.8,3.5,1.6,5.2,2.5
		c3.4,1.6,6.6,3.3,9.8,4.9c1.1-3.9,2.2-8,3.5-12.2C102.1,174.4,100.2,169.7,98.2,165z"/>
	<path fill="#CCCCCC" d="M87.7,141.7c-5.4,2.9-11.4,5.1-17.9,6.8c2.3,5.5,4.6,11.1,7.1,16.7c6.9-1.5,13-3.7,18.4-6.6
		c-0.2-0.4-0.4-0.9-0.6-1.3C92.5,152,90.1,146.8,87.7,141.7z"/>
	<path fill="#CCCCCC" d="M74.5,114.9c-4.6,2.4-9.8,4.2-15.4,5.6c2.4,6.8,5.2,14,8.1,21.4c6.5-1.6,12.4-3.8,17.6-6.6
		C81.3,128.1,77.8,121.3,74.5,114.9z"/>
	<path fill="#FFFFFF" d="M97.7,202c-3.6-1.9-7.6-3.8-11.8-5.9c-18.3-8.8-36.6-16.2-47.5-20.3c4,13.4,12.6,38.3,26.3,56.3H93
		C93.5,224,95,213.6,97.7,202z"/>
	<path fill="#FFFFFF" d="M133.7,201.5c-2.6-18.7,0-32.5,7.9-41.6c0.5-0.6,1.1-1.1,1.6-1.7c-4.3-9.4-8.9-17.7-12.3-23.4
		c-12,30.1-25.3,71.2-26.9,97.2h42.1C140.7,224,135.3,212.7,133.7,201.5z"/>
	<path fill="#CCCCCC" d="M211.4,156.5c5.4-3.7,11.5-8,19.9-8c2.8,0,5.6,0.5,8.4,1.4c1.8-3.5,3-7.6,3.8-12.4c-2.8-1-7.1-2.2-12-2.2
		c-13.5,0-23.9,8.9-30.9,26.4C204.1,161.6,207.5,159.2,211.4,156.5z"/>
	<path fill="#FFFFFF" d="M240,161.9c-3.1-1.6-5.9-2.4-8.6-2.4c-5,0-9.2,2.9-13.7,6c-4.8,3.3-10.2,7.1-17.1,7.1
		c-8.2,0-12.4-3-16.1-5.9c-3.9-3-7.5-5.6-17.9-5.6h-0.1c-7.3,0-12.9,1.9-16.6,6.2c-5.6,6.5-7.5,17.7-5.3,32.9
		c1.5,11.1,7.9,22.9,14.9,31.9h79.7c7.2-10,13.8-22.6,16.2-35.1C258.6,180.4,253.6,169,240,161.9z"/>
	<path fill="#FFFFFF" d="M67,250.9c0,3-2.5,5.5-5.5,5.5s-5.5-2.5-5.5-5.5V243H41v26h223v-26h-19v7.9c0,3-2.5,5.5-5.5,5.5
		s-5.5-2.5-5.5-5.5V243h-21v7.9c0,3-2.5,5.5-5.5,5.5s-5.5-2.5-5.5-5.5V243h-17v7.9c0,3-2.5,5.5-5.5,5.5s-5.5-2.5-5.5-5.5V243h-19
		v7.9c0,3-2.5,5.5-5.5,5.5s-5.5-2.5-5.5-5.5V243h-19v7.9c0,3-2.5,5.5-5.5,5.5s-5.5-2.5-5.5-5.5V243H97v7.9c0,3-2.5,5.5-5.5,5.5
		s-5.5-2.5-5.5-5.5V243H67V250.9z"/>
	<g>
		<path fill="#5980B7" d="M196,61.1c3.4-3.2,3.7-8.6,0.7-12.2c-3-3.6-8.3-3.9-11.7-0.7s-3.7,8.6-0.7,12.2S192.6,64.3,196,61.1z"/>
		<path fill="#5980B7" d="M269.5,232h-17.1c6.1-10,10.7-20.1,13-29.5c5.1-20.8-0.5-37.5-15.7-47.7c2.6-5.3,4.5-12,5.3-20.2
			c0.2-2.2-0.9-4.3-2.8-5.3c-0.4-0.2-9.2-5-20.7-5c-5.3,0-11.3,1-17.2,4c0.4-2,0.8-4.2,1.2-6.3c23.4-27.6,28.8-63.4,26-77.3
			c-0.3-1.4-1.1-2.6-2.3-3.4s-2.7-1-4-0.7l-7.1,1.7l3.3-6.8c1.1-2.3,0.4-5-1.6-6.5c-7.4-5.6-17.3-8.5-28.6-8.5
			c-17.2,0-36.3,6.9-53,18.8c-0.2,0-0.5,0-0.7,0c-20,0-44.7,9.1-53.5,17.2c-2.7,2.5-4,5.9-3.6,9.6c0.8,7.5,9.2,15.5,17.5,21.7
			c-2.1,4.7-3.8,9.4-5.1,14c-17.1-24.7-35.9-40-51-40c-3,0-5.8,0.6-8.4,1.7c-11.4,5.1-17,20.4-15.7,43.2c1,17.3,5.8,37.7,13.7,58.5
			c-5.6-2.1-9.1-3.3-9.2-3.4c-1.9-0.7-4-0.3-5.5,1c-1.5,1.3-2.1,3.2-1.7,5.1c0.5,2.4,8.4,36.9,26.4,63.9H35.8c-3,0-5.8,2.7-5.8,5.7
			v36.7c0,3,2.7,5.6,5.8,5.6h233.8c3,0,5.5-2.5,5.5-5.6v-36.7C275,234.7,272.6,232,269.5,232z M255.4,196.9
			c-2.4,12.4-9,25.1-16.2,35.1h-79.7c-7.1-9-13.4-20.9-14.9-31.9c-2.1-15.2-0.3-26.5,5.3-32.9c3.7-4.3,9.3-6.1,16.6-6.1h0.1
			c10.4,0,14.1,2.6,17.9,5.6c3.7,2.9,7.9,5.9,16.1,5.9c6.8,0,12.3-3.8,17.1-7.1c4.5-3.1,8.7-6,13.7-6c2.7,0,5.5,0.8,8.6,2.5
			C253.6,169,258.6,180.4,255.4,196.9z M104.1,232c1.7-26,14.9-67.1,26.9-97.2c3.4,5.7,8,13.9,12.3,23.3c2.7-2.6,5.8-4.6,9.4-6
			c0,0,0,0,0,0c-3.6,1.4-6.7,3.4-9.4,6c-0.6,0.5-1.1,1.1-1.6,1.7c-7.9,9.1-10.6,22.8-7.9,41.6c1.6,11.2,7,22.5,12.5,30.5H104.1z
			 M52.9,102c-5.8-19.2-6.2-26.6-5.9-29.2c2.1,1.6,7.4,6.9,17.5,24.1c2.2,3.7,4.4,7.6,6.7,11.8c-4.3,2.2-9.1,3.9-14.5,5.1
			C55.3,109.7,54,105.8,52.9,102z M105.6,127.5c2.6,4.7,5.2,9.8,7.6,15.1c-0.1,0.1-0.3,0.3-0.4,0.5c-3.1,4.6-7,8.5-11.5,11.7
			c-0.1-0.1-0.1-0.2-0.1-0.3c-2.5-5.6-4.9-11.1-7.5-16.4C98.2,135,102.1,131.5,105.6,127.5z M107.2,168.5c-1-2.4-2-4.8-3-7.2
			c2.7-1.9,5.3-4,7.6-6.3C110.3,159.3,108.7,163.9,107.2,168.5C107.2,168.5,107.2,168.5,107.2,168.5z M94.8,157.2
			c0.2,0.4,0.4,0.9,0.6,1.3c-5.4,2.9-11.5,5.1-18.4,6.6c-2.5-5.6-4.9-11.2-7.1-16.7c6.6-1.7,12.5-3.9,17.9-6.8
			C90.1,146.8,92.5,152,94.8,157.2z M58.1,167.3c-1.3,0-2.8,0.1-3.9,0.7c-2.3-5.6-4.4-11.1-6.1-16.4c5.2-0.3,10.1-0.9,14.7-1.7
			c2.2,5.4,4.5,10.9,7,16.4C66.1,166.9,62.2,167.2,58.1,167.3z M67.1,141.9c-3-7.4-5.7-14.6-8.1-21.4c5.7-1.3,10.8-3.2,15.4-5.6
			c3.4,6.4,6.8,13.2,10.2,20.4C79.5,138.1,73.6,140.3,67.1,141.9z M60.2,143.3c-4.5,0.7-9.2,1.2-14.2,1.4c-2.3-7.7-4.1-15-5.3-21.8
			c4-0.2,7.8-0.5,11.4-1.1C54.5,128.7,57.2,135.9,60.2,143.3z M72.8,173c1,2.1,1.9,4.3,2.9,6.4c-4.3-1.9-8.4-3.7-12.3-5.3
			C66.6,173.9,69.7,173.5,72.8,173z M85.5,183.8c-1.9-4-3.8-8.1-5.6-12.2c6.7-1.6,12.9-3.8,18.3-6.6c2,4.7,4,9.4,5.8,14
			c-1.3,4.2-2.4,8.3-3.5,12.2c-0.2,0.9-0.5,1.7-0.7,2.5c0.2-0.8,0.4-1.7,0.7-2.5c-3.1-1.6-6.4-3.2-9.8-4.9
			C89,185.5,87.2,184.7,85.5,183.8C85.5,183.8,85.5,183.8,85.5,183.8z M199.5,141.1c-3.2,4.3-6.2,9.6-8.9,16.2
			c-2.9-2.2-6.6-4.8-12.6-6.2c8-4,15.9-9.1,23.4-15.3C200.8,137.6,200.1,139.4,199.5,141.1z M231.6,135.3c4.9,0,9.2,1.2,12,2.2
			c-0.8,4.7-2,8.8-3.8,12.4c-2.9-1-5.7-1.4-8.4-1.4c-8.4,0-14.5,4.3-19.9,8c-4,2.7-7.4,5.2-10.7,5.2
			C207.7,144.2,218,135.3,231.6,135.3z M101.2,64.8c0,0,0-0.1,0.2-0.2c4.6-4.3,18.1-10.1,32-12.8c-8.2,8.1-15.1,17-20.4,26.1
			C103,70.1,101.1,65.7,101.2,64.8z M143.7,56.4C160.9,40.5,182.4,31,201.2,31c7.2,0,13.5,1.4,18.7,4.1l-6,12.5
			c-0.9,1.8-0.6,4,0.6,5.6c1.3,1.6,3.3,2.3,5.3,1.8l12-2.8c0.1,10.5-3.2,28.9-13.1,46.7c-28.5,2.4-47.8-29.3-48.1-29.7
			c-1.5-2.5-4.7-3.3-7.2-1.8c-2.5,1.5-3.3,4.7-1.8,7.2c0.9,1.5,19.8,32.7,50.4,34.9c-3.5,4.8-7.5,9.5-12.2,13.8
			c-15.1,14-32.6,23.2-48.5,26c0,0,0,0,0,0c-8-16.5-16.1-28.2-16.8-29.3c-1.1-1.6-3.1-2.5-5.1-2.3c-2,0.2-3.7,1.5-4.5,3.3
			c0,0.1-1.8,4.3-4.5,11.2c0,0,0,0,0,0c-3-6-6.1-11.8-9.4-17.3C112.8,96,125,73.7,143.7,56.4z M90.7,131.6
			c-3.4-7.1-6.9-13.9-10.2-20.3c3.5-2.4,6.7-5.2,9.4-8.3c4,5.4,8,11.4,12,18C98.7,125.1,95,128.6,90.7,131.6z M85.5,97.3
			c-2.4,2.9-5.2,5.5-8.4,7.7c-2.6-4.7-5.1-9.1-7.5-13.1c-4.9-8.3-8.9-14-12-17.9C65.5,76.9,75.4,84.9,85.5,97.3z M40.7,82.7
			c0.8,4.6,2.2,10.5,4.4,17.9c1.3,4.5,2.9,9.4,4.6,14.4c-3.2,0.5-6.6,0.8-10.2,0.9C37.6,101.8,38.1,90.3,40.7,82.7z M38.5,175.7
			c10.9,4.1,29.2,11.5,47.5,20.3c4.2,2.1,8.2,4.1,11.8,6C95,213.7,93.5,224,93,232H64.8C51,214,42.5,189.2,38.5,175.7z M264,269H41
			v-26h15v0.2v7.7c0,3,2.5,5.5,5.5,5.5s5.5-2.5,5.5-5.5v-7.7V243h19v0.2v7.7c0,3,2.5,5.5,5.5,5.5s5.5-2.5,5.5-5.5v-7.7V243h17v0.2
			v7.7c0,3,2.5,5.5,5.5,5.5s5.5-2.5,5.5-5.5v-7.7V243h19v0.2v7.7c0,3,2.5,5.5,5.5,5.5s5.5-2.5,5.5-5.5v-7.7V243h19v0.2v7.7
			c0,3,2.5,5.5,5.5,5.5s5.5-2.5,5.5-5.5v-7.7V243h17v0.2v7.7c0,3,2.5,5.5,5.5,5.5s5.5-2.5,5.5-5.5v-7.7V243h21v0.2v7.7
			c0,3,2.5,5.5,5.5,5.5s5.5-2.5,5.5-5.5v-7.7V243h19V269z"/>
	</g>
</g>
</svg>
