<?xml version="1.0" encoding="utf-8"?>
<!-- Generator: Adobe Illustrator 18.1.1, SVG Export Plug-In . SVG Version: 6.00 Build 0)  -->
<svg version="1.1" id="Layer_1" xmlns="http://www.w3.org/2000/svg" xmlns:xlink="http://www.w3.org/1999/xlink" x="0px" y="0px"
	 viewBox="0 0 300 300" enable-background="new 0 0 300 300" xml:space="preserve">
<g>
	<path fill="none" d="M139.3,111c-9.1,0-16.5,3.6-22.6,10.9c-6.3,7.4-9.4,17.1-9.4,28.6c0,11.5,3.2,20.4,9.8,27.3
		c6.5,6.9,14.5,10.2,24.3,10.2c2.7,0,5.2-0.3,7.6-1c-0.1-1.5-0.2-3-0.2-4.5c0-12.2,3.9-22,11.7-29.2c4.1-3.8,8.8-6.6,14-8.3
		c-0.7-9.7-4.1-17.5-10.3-23.7C157.1,114.3,149,111,139.3,111z"/>
	<path fill="#FFFFFF" d="M140.7,86c-0.4,0-0.7,0-1,0c-15.5,0-29,6-41.3,18.3c-12.4,12.4-18.7,28.6-18.7,48.3
		c0,18.3,5.9,32.7,18.1,44c12.3,11.4,26.2,16.9,42.4,16.9c6.8,0,13.2-1,19.1-2.9c-4.3-4.3-7.3-9.5-9-15.5c-2.9,0.7-5.9,1.1-9.1,1.1
		c-12,0-22.2-4.3-30.3-12.8c-8-8.4-12-19.5-12-33c0-13.5,3.8-25,11.4-33.9c7.7-9.2,17.5-13.8,29-13.8c11.9,0,22.2,4.3,30.6,12.7
		c7.3,7.3,11.5,16.6,12.6,27.7c2-0.3,4-0.4,6.1-0.4c4.7,0,9.2,0.7,13.3,1.9c-0.7-16.5-6.6-29.9-18-41C171.6,91.8,157.5,86,140.7,86z
		"/>
	<path fill="#FFFFFF" d="M195.3,170.8c-1.7-2.2-3.8-3.3-6.7-3.3c-2.8,0-9.5,0-9.5,15.5c0,4.5,0.9,8.2,2.7,11
		c1.5,2.3,3.6,3.3,6.8,3.3c2.8,0,5-1,6.7-3.2c1.9-2.3,2.9-6.5,2.9-12.1C198.1,177.1,197.2,173.3,195.3,170.8z"/>
	<path fill="#CDCCCC" d="M211.4,159.2c-6.2-5.7-13.7-8.5-22.8-8.5c-9.1,0-16.6,2.8-22.8,8.5c-6.1,5.6-9.1,13.2-9.1,23.3
		c0,10,3,17.6,9.1,23.3c6.2,5.7,13.7,8.5,22.8,8.5c9.3,0,16.8-2.8,22.9-8.6c6.1-5.7,9-13.3,9-23.2
		C220.5,172.4,217.5,164.8,211.4,159.2z M175,198.3c-2.7-4.1-4-9.3-4-15.3c0-20.4,11-23.5,17.5-23.5c5.4,0,10,2.3,13.2,6.5
		c3,4,4.5,9.4,4.5,16.1c0,7.7-1.5,13.3-4.7,17.1c-3.3,4-7.7,6.1-13,6.1C182.7,205.3,178,202.9,175,198.3z"/>
	<g>
		<path fill="#5A81B8" d="M216.9,153.3c-2.1-1.9-4.3-3.6-6.6-5c0-0.1,0-0.2,0-0.2c0-20.2-6.9-37.1-20.6-50.4
			c-13.7-13.2-30.1-20-48.9-20c-17.9-0.3-34.2,6.7-48.2,20.7c-14,14-21.1,32.2-21.1,54.2c0,20.5,7,37.3,20.8,50.1
			c13.7,12.7,29.9,19.1,48,19.1c9.6,0,18.5-1.7,26.7-5.2c6.3,3.8,13.5,5.7,21.6,5.7c11.3,0,20.8-3.6,28.4-10.8
			c7.7-7.2,11.5-17,11.5-29C228.5,170.2,224.6,160.4,216.9,153.3z M140.3,213.5c-16.2,0-30.1-5.5-42.4-16.9
			c-12.2-11.3-18.1-25.7-18.1-44c0-19.7,6.3-35.9,18.7-48.3C110.7,92,124.2,86,139.7,86c0.3,0,0.6,0,1,0c16.8,0,31,5.8,43.2,17.6
			c11.4,11.1,17.3,24.5,18,41c-4.1-1.3-8.6-1.9-13.3-1.9c-2.1,0-4.1,0.1-6.1,0.4c-1.1-11.1-5.3-20.4-12.6-27.7
			c-8.4-8.4-18.7-12.7-30.6-12.7c-11.5,0-21.2,4.7-29,13.8c-7.6,9-11.4,20.4-11.4,33.9c0,13.5,4.1,24.6,12,33
			c8,8.5,18.2,12.8,30.3,12.8c3.1,0,6.2-0.4,9.1-1.1c1.7,6,4.7,11.2,9,15.5C153.4,212.5,147.1,213.5,140.3,213.5z M148.8,187
			c-2.4,0.7-4.9,1-7.6,1c-9.8,0-17.8-3.3-24.3-10.2c-6.6-6.9-9.8-15.9-9.8-27.3c0-11.5,3.2-21.2,9.4-28.6
			c6.2-7.3,13.6-10.9,22.6-10.9c9.7,0,17.8,3.4,24.7,10.3c6.2,6.2,9.6,14,10.3,23.7c-5.2,1.8-9.8,4.5-14,8.3
			c-7.8,7.1-11.7,17-11.7,29.2C148.7,184,148.7,185.5,148.8,187z M211.5,205.7c-6.1,5.8-13.6,8.6-22.9,8.6c-9.1,0-16.6-2.8-22.8-8.5
			c-6.1-5.6-9.1-13.2-9.1-23.3c0-10,3-17.6,9.1-23.3c6.2-5.7,13.7-8.5,22.8-8.5c9.2,0,16.6,2.8,22.8,8.5c6.1,5.6,9.1,13.2,9.1,23.3
			C220.5,192.4,217.6,199.9,211.5,205.7z"/>
		<path fill="#5A81B8" d="M188.5,159.5c-6.5,0-17.5,3.1-17.5,23.5c0,6.1,1.3,11.2,4,15.3c3,4.6,7.6,7,13.5,7c5.2,0,9.7-2.1,13-6.1
			c3.1-3.9,4.7-9.5,4.7-17.1c0-6.7-1.5-12.1-4.5-16.1C198.5,161.7,194,159.5,188.5,159.5z M195.2,194.1c-1.8,2.2-3.9,3.2-6.7,3.2
			c-3.2,0-5.3-1-6.8-3.3c-1.8-2.8-2.7-6.5-2.7-11c0-15.5,6.6-15.5,9.5-15.5c2.9,0,5,1,6.7,3.3c1.9,2.5,2.9,6.3,2.9,11.2
			C198.1,187.6,197.1,191.8,195.2,194.1z"/>
	</g>
</g>
</svg>
