<?xml version="1.0" encoding="utf-8"?>
<!-- Generator: Adobe Illustrator 18.1.1, SVG Export Plug-In . SVG Version: 6.00 Build 0)  -->
<svg version="1.1" id="Layer_1" xmlns="http://www.w3.org/2000/svg" xmlns:xlink="http://www.w3.org/1999/xlink" x="0px" y="0px"
	 viewBox="0 0 300 300" enable-background="new 0 0 300 300" xml:space="preserve">
<g>
	<path fill="#FFFFFF" d="M175.9,171h15c0.1,0,0.1-0.2,0.2-0.2c8.4-9,14.6-21.9,16.6-33.9c-2.7-0.8-4.7-1.1-4.9-1.1
		c-2-0.2-3.6-2-3.5-4.1s1.6-3.8,3.7-3.9c0.3,0,2.5-0.2,5.4-1.1c-0.5-10.1-4.8-19.3-11.4-26.2c-6.1,4.7-11.2,12-11.2,23.2
		c0,2.5-2,4.5-4.5,4.5s-4.5-2-4.5-4.5c0-11.5-5.3-20.3-15.8-26.1c-4.8-2.7-9.6-4.1-12.8-4.9c-0.4,0.2-0.7,0.4-1.1,0.6
		c-1.7,1-3.8,1-5.5,0c-6.2-3.5-13.1-5.4-20.2-5.4c-6.7,0-12.5,1.6-18.5,4.5v34.9c0,3-2.6,5.7-5.7,5.7H80.6
		c1.2,13,8.2,28.8,18.1,38.9c1.1,1.1,1.7,2.6,1.6,4.1c-1.9,35.2,3.4,61.3,14.6,71.7c0.2,0.2,0.3,0.2,0.4,0.2c0.4,0,1.6-0.5,2.7-1.9
		c5.8-6.8,9.4-15.3,13.9-32.2c1.5-5.5,3-11.1,4.6-16.7c1.1-3.8,4.5-6.3,8.4-6.3c3.9,0,7.3,2.5,8.4,6.3c1.6,5.6,3.5,11.2,4.9,16.7
		c3.6,13.5,6.6,22.5,12.6,30v-46.9v-20.5C171,173.4,172.8,171,175.9,171z"/>
	<path fill="#FFFFFF" d="M181,70.9c-4.1,7.4-10.2,12.1-15.7,15.1c-1.2,0.7-2.5,1.3-3.7,1.8c7.5,3.5,15,9.1,19.6,17.5
		c4.4-8.1,11.6-13.6,18.9-17.2c-0.9-0.4-1.9-0.8-2.8-1.3C191.5,83.9,185.1,79,181,70.9z"/>
	<path fill="#FFFFFF" d="M227.5,141.8c2.7-4.2,6.5-7.4,10.5-9.6c-4.1-2.1-7.9-5.2-10.6-9.7c-2.8,4.3-6.7,7.4-10.8,9.5
		C220.7,134.2,224.7,137.4,227.5,141.8z"/>
	<path fill="#FFFFFF" d="M240.8,73.8c2.3-3.6,5.6-6.3,9-8.2c-3.5-1.8-6.8-4.5-9.1-8.4c-2.4,3.7-5.8,6.3-9.3,8.1
		C234.9,67.3,238.3,70.1,240.8,73.8z"/>
	<polygon fill="#CCCCCC" points="44,248 51,248 51,127.3 51,62 44,62 	"/>
	<rect x="62" y="66" fill="#FFFFFF" width="30" height="8"/>
	<rect x="62" y="98" fill="#FFFFFF" width="30" height="8"/>
	<rect x="62" y="82" fill="#FFFFFF" width="30" height="8"/>
	<rect x="62" y="114" fill="#FFFFFF" width="30" height="8"/>
	<rect x="182" y="202" fill="#FFFFFF" width="47" height="46"/>
	<rect x="182" y="182" fill="#CCCCCC" width="46" height="9"/>
	<g>
		<path fill="#5980B7" d="M219.3,68.7c0.7,0.1,18,2.3,18,17.6c0,1.9,1.6,3.5,3.5,3.5s3.5-1.6,3.5-3.5c0-15.3,17.3-17.5,18-17.6
			c1.8-0.2,3.2-1.8,3.1-3.6s-1.6-3.3-3.4-3.3c-0.7,0-17.7-0.5-17.7-17.6c0-1.9-1.6-3.5-3.5-3.5s-3.5,1.6-3.5,3.5
			c0,16-17.1,17.6-17.9,17.6c-1.8,0.1-3.2,1.6-3.2,3.4C216.1,66.9,217.5,68.5,219.3,68.7z M240.6,57.2c2.3,3.9,5.6,6.6,9.1,8.4
			c-3.4,1.9-6.7,4.6-9,8.2c-2.4-3.8-5.9-6.5-9.4-8.4C234.8,63.6,238.2,60.9,240.6,57.2z"/>
		<g>
			<path fill="#5980B7" d="M174.9,259.3L174.9,259.3c-0.1-0.1-0.2,0-0.3,0C174.6,259.3,174.9,259.3,174.9,259.3z"/>
			<path fill="#5980B7" d="M263.2,181.3c-2.9-0.9-6,0.8-6.9,3.7c-1.4,4.6-3.5,7.5-6.4,8.7c-3.3,1.4-9.9-0.5-9.9-0.4v-16.9
				c0-3-3-5.4-6-5.4h-0.3H205c6-9,10.5-18.8,12.7-28.7c3.3,3,5.8,7.5,5.8,13.8c0,2.2,1.8,4,4,4s4-1.8,4-4c0-17.7,20-20.3,20.8-20.4
				c2.1-0.2,3.6-2,3.5-4.1c-0.1-2.1-1.8-3.8-3.9-3.8c-2.1-0.1-20.5-1.1-20.5-20.4c0-2.2-1.8-4-4-4s-4,1.8-4,4
				c0,5.9-2.1,10.2-4.9,13.2c-1.6-9.7-5.8-18.4-11.9-25.6c5.8-2.3,10.7-2.9,11.2-3c2.4-0.3,4.1-2.3,4-4.7c-0.1-2.4-2-4.2-4.4-4.3
				c-1.3,0-31.8-1.1-31.8-31.7c0-2.5-2-4.5-4.5-4.5s-4.5,2-4.5,4.5c0,13.5-6.8,21.3-14.1,25.8c-6.4,0.6-12.6,2.3-18.3,5.1
				c-7.1-3.5-14.9-5.4-22.9-5.4c-6.5,0-12.5,1.2-18.5,3.4V60.9c0-3-2.6-5.9-5.7-5.9H61.3c-0.6-2-2.8-4-5.3-4H38.2
				c-3,0-5.2,2.7-5.2,5.7v196.8c0,3,2.2,5.4,5.2,5.4h17.7c3,0,6.1-2.4,6.1-5.4V133h7.6c1.1,15,8.7,32.8,19.6,44.8
				c-1.1,23,0.2,61.3,18.2,77.9c2.2,2.1,4.9,3.1,7.8,3.1c4,0,8-2.1,11.1-5.8c7.9-9.3,11.9-20.5,16.1-36.5c0.8-2.9,1.6-5.9,2.4-8.9
				c0.8,3,1.6,6,2.4,8.9c4.4,16.5,9.2,27,16.2,36.3c2.8,3.8,7.4,6.2,11.4,6.2v0.1c0,0-0.1-0.1-0.1-0.1c0.4,0.1,0.5-0.1,0.9-0.1H234
				c3,0,6-2.4,6-5.4v-48.8c2,0.4,3.8,0.7,5.8,0.7c2.7,0,5.4-0.4,8.2-1.5c6.2-2.5,10.5-7.8,12.9-15.8
				C267.8,185.2,266.1,182.2,263.2,181.3z M51,127.3V248h-7V62h7V127.3z M228,182v9h-46v-9H228z M227.3,122.5
				c2.7,4.5,6.6,7.7,10.6,9.7c-4,2.2-7.8,5.3-10.5,9.6c-2.8-4.4-6.8-7.6-11-9.8C220.6,129.9,224.5,126.8,227.3,122.5z M165.3,86
				c5.5-3,11.6-7.7,15.7-15.1c4.1,8.1,10.5,13,16.3,15.9c0.9,0.5,1.9,0.9,2.8,1.3c-7.3,3.5-14.4,9-18.9,17.2
				c-4.6-8.4-12.1-14-19.6-17.5C162.8,87.2,164,86.6,165.3,86z M62,66h30v8h-0.2H62V66z M62,82h29.8H92v8h-0.2H62V82z M62,98h29.8
				H92v8h-0.2H62V98z M62,122v-8h29.8H92v8H62z M171,176.4v20.5v46.9c-6-7.5-9.1-16.5-12.6-30c-1.4-5.5-3.2-11.1-4.8-16.7
				c-1.1-3.8-4.6-6.3-8.5-6.3c-3.9,0-7.4,2.5-8.5,6.3c-1.6,5.6-3.2,11.2-4.7,16.7c-4.5,17-8.1,25.4-13.9,32.2
				c-1.1,1.4-2.3,1.9-2.7,1.9c0,0-0.1,0-0.4-0.2c-11.2-10.4-16.5-36.5-14.6-71.7c0.1-1.5-0.5-3-1.6-4.1c-10-10.1-17-25.9-18.1-38.9
				h16.7c3,0,5.7-2.6,5.7-5.7V92.4c6-2.8,11.8-4.5,18.5-4.5c7.1,0,14.1,1.9,20.2,5.4c1.7,1,3.7,1,5.4,0c0.4-0.2,0.7-0.4,1.1-0.6
				c3.2,0.7,8,2.2,12.8,4.9c10.5,5.9,15.8,14.6,15.8,26.1c0,2.5,2,4.5,4.5,4.5s4.5-2,4.5-4.5c0-11.2,5.1-18.5,11.2-23.2
				c6.6,6.9,10.8,16,11.4,26.2c-2.9,0.9-5.1,1.1-5.4,1.1c-2.1,0.2-3.7,1.8-3.7,3.9s1.5,3.8,3.5,4.1c0.3,0,2.3,0.3,4.9,1.1
				c-2.1,11.9-8.2,25-16.6,33.9c-0.1,0.1-0.1,0.2-0.2,0.2h-15C172.8,171,171,173.4,171,176.4z M229,248h-47v-46h46.5h0.5V248z"/>
		</g>
	</g>
</g>
</svg>
