<?xml version="1.0" encoding="utf-8"?>
<!-- Generator: Adobe Illustrator 18.1.1, SVG Export Plug-In . SVG Version: 6.00 Build 0)  -->
<svg version="1.1" id="Layer_1" xmlns="http://www.w3.org/2000/svg" xmlns:xlink="http://www.w3.org/1999/xlink" x="0px" y="0px"
	 viewBox="0 0 300 300" enable-background="new 0 0 300 300" xml:space="preserve">
<g>
	<path fill="#FFFFFF" d="M68,130.8c2,0.7,2.4,2,2.7,3.6l5.1,27.7c0.3,0.3,0.6,0.6,0.9,1l14.4,25h13.5c2.8,0,5,2.2,5,5s-2.2,5-5,5H93
		v8h11.6c2.8,0,5,2.2,5,5s-2.2,5-5,5H93v11h110V127c0,0-0.5,0-0.7,0c-25.8,0-42.2-11-51.3-20.1c-7.1-7-11.1-13.9-12.8-17.9H125v20
		h20.6c2.8,0,5,2.2,5,5s-2.2,5-5,5h-26c-2.8,0-4.6-2-4.6-4.7v-30c0-2.8,1.8-5.3,4.6-5.3h19.6c1.5-2,4-6,7.5-10H68V130.8z M185.6,193
		c0,2.8-2.2,5-5,5H168v8h12.6c2.8,0,5,2.2,5,5s-2.2,5-5,5h-18c-2.8,0-4.6-2-4.6-4.7v-18c0-2.8,1.8-5.3,4.6-5.3h18
		C183.4,188,185.6,190.2,185.6,193z M147,139.3c0-2.8,1.8-5.3,4.6-5.3h26c2.8,0,5,2.2,5,5s-2.2,5-5,5H157v15h20.6c2.8,0,5,2.2,5,5
		s-2.2,5-5,5h-26c-2.8,0-4.6-2-4.6-4.7V139.3z M141.6,188c2.8,0,5,2.2,5,5s-2.2,5-5,5H128v8h13.6c2.8,0,5,2.2,5,5s-2.2,5-5,5h-19
		c-2.8,0-4.6-2-4.6-4.7v-18c0-2.8,1.8-5.3,4.6-5.3H141.6z M85,139.3c0-2.8,1.8-5.3,4.6-5.3h27c2.8,0,5,2.2,5,5s-2.2,5-5,5H95v15
		h21.6c2.8,0,5,2.2,5,5s-2.2,5-5,5h-27c-2.8,0-4.6-2-4.6-4.7V139.3z"/>
	<path fill="#CCCCCC" d="M55,55.5v1.2c0,1.3,0.5,2.3,1.8,2.3h6.2h94c2.5-2,5.3-4,8.4-6H56.8C55.5,53,55,54.2,55,55.5z"/>
	<rect x="44" y="238" fill="#FFFFFF" width="39" height="9"/>
	<rect x="44" y="197" fill="#FFFFFF" width="39" height="9"/>
	<polygon fill="#FFFFFF" points="55.7,170 46.7,187 78.9,187 69.5,170 	"/>
	<rect x="44" y="216" fill="#CCCCCC" width="39" height="12"/>
	<polygon fill="#FFFFFF" points="65.4,160 61.7,140.4 58.6,160 	"/>
	<path fill="#FFFFFF" d="M168.7,85c0-14.3,9.1-26.4,21.8-31c-25.6,4.9-39.4,24.9-43.2,31.2c3.2,6.6,15.2,26.9,44.3,31
		C178.3,112,168.7,99.6,168.7,85z"/>
	<path fill="#FFFFFF" d="M217.2,56.1c1.9,0.8,3.6,2,5.1,3.4c7.4,6,12.1,15.2,12.1,25.5c0,14.9-10,27.5-23.6,31.5
		c30.3-3.5,42.2-24.8,45.1-31.3c-3.6-6.5-17.2-27.6-44.5-31.6C213.4,54.3,215.4,55.1,217.2,56.1z"/>
	<path fill="#CCCCCC" d="M210.8,87.7c-0.1,0-0.3,0-0.4,0c-1.1,3.8-4.7,6.5-8.8,6.5c-5.1,0-9.2-4.1-9.2-9.2c0-2.9,1.3-5.4,3.4-7.1
		c-0.9-2-1.4-4.3-1.4-6.6c0-3.2,0.9-6.1,2.4-8.6C186.5,64.8,178.7,74,178.7,85c0,12.6,10.3,22.9,22.9,22.9s22.9-10.3,22.9-22.9
		c0-1.4-0.1-2.8-0.4-4.1C221.1,85,216.2,87.7,210.8,87.7z"/>
	<path fill="#FFFFFF" d="M217.2,71.2c0-3.6-2.9-6.4-6.4-6.4s-6.4,2.9-6.4,6.4c0,3.6,2.9,6.4,6.4,6.4S217.2,74.8,217.2,71.2z"/>
	<g>
		<path fill="#5980B7" d="M121.6,164c0-2.8-2.2-5-5-5H95v-15h21.6c2.8,0,5-2.2,5-5s-2.2-5-5-5h-27c-2.8,0-4.6,2.5-4.6,5.3v25
			c0,2.8,1.8,4.7,4.6,4.7h27C119.4,169,121.6,166.8,121.6,164z"/>
		<path fill="#5980B7" d="M182.6,164c0-2.8-2.2-5-5-5H157v-15h20.6c2.8,0,5-2.2,5-5s-2.2-5-5-5h-26c-2.8,0-4.6,2.5-4.6,5.3v25
			c0,2.8,1.8,4.7,4.6,4.7h26C180.4,169,182.6,166.8,182.6,164z"/>
		<path fill="#5980B7" d="M141.6,198c2.8,0,5-2.2,5-5s-2.2-5-5-5h-19c-2.8,0-4.6,2.5-4.6,5.3v18c0,2.8,1.8,4.7,4.6,4.7h19
			c2.8,0,5-2.2,5-5s-2.2-5-5-5H128v-8H141.6z"/>
		<path fill="#5980B7" d="M180.6,198c2.8,0,5-2.2,5-5s-2.2-5-5-5h-18c-2.8,0-4.6,2.5-4.6,5.3v18c0,2.8,1.8,4.7,4.6,4.7h18
			c2.8,0,5-2.2,5-5s-2.2-5-5-5H168v-8H180.6z"/>
		<path fill="#5980B7" d="M265.9,82.9c-0.6-1.4-13.8-29-45-37.5c-0.1,0-0.3-0.2-0.4-0.2c-1.9-1.3-4.3-2.2-6.7-2.2h-4.9
			c-0.6,0-1.3,0-1.9,0c-1.6-0.1-3.2-0.1-4.8-0.1c-1.6,0-3.2,0-4.8,0.1c-0.7,0-1.4,0.1-2.1,0.1H56.8C49.9,43,45,48.7,45,55.5v1.2
			C45,63.5,49.9,69,56.8,69H58v61h-0.4c-2.5,0-4.7,1.9-5.1,4.4l-4.9,29.5c0,0-13.8,24.5-13.8,28.2c0,0.6,0.2,41.4,0.2,41.4v19.1
			c0,2.8,1.5,4.4,4.3,4.4h49.2c2.8,0,5.4-1.7,5.4-4.4v-15V237h38v0.6v9.7c0,2.8,2.2,5,5,5s5-2.2,5-5v-9.7V237h66.7
			c2.8,0,5.3-1.7,5.3-4.4V126.4c0,0-0.2,0-0.1,0c19.8-2.5,32.5-11.6,40.1-19.4c9.7-10,13.1-20,13.2-20.4
			C266.6,85.4,266.5,84,265.9,82.9z M224.4,85c0,12.6-10.3,22.9-22.9,22.9S178.7,97.6,178.7,85c0-11,7.8-20.1,18.1-22.4
			c-1.5,2.5-2.4,5.4-2.4,8.6c0,2.4,0.5,4.6,1.4,6.6c-2.1,1.7-3.4,4.3-3.4,7.1c0,5.1,4.1,9.2,9.2,9.2c4.2,0,7.7-2.8,8.8-6.5
			c0.1,0,0.3,0,0.4,0c5.5,0,10.3-2.7,13.3-6.8C224.3,82.2,224.4,83.6,224.4,85z M190.6,54c-12.7,4.5-21.8,16.7-21.8,31
			c0,14.6,9.6,27.1,22.9,31.3c-29.1-4.1-41.1-24.4-44.3-31C151.1,78.9,164.9,58.9,190.6,54z M210.8,77.7c-3.6,0-6.4-2.9-6.4-6.4
			c0-3.6,2.9-6.4,6.4-6.4s6.4,2.9,6.4,6.4C217.2,74.8,214.3,77.7,210.8,77.7z M56.8,59c-1.3,0-1.8-1-1.8-2.3v-1.2
			c0-1.3,0.5-2.5,1.8-2.5h108.3c-3,2-5.7,3.8-8.1,5.8c-0.1,0.1-0.2,0.2-0.3,0.2H62.9H56.8z M65.4,160h-6.8l3.1-19.6L65.4,160z
			 M55.7,170h13.7l9.4,17H46.7L55.7,170z M65.8,130.3c0.6,0,1.3,0.1,1.6,0.3C66.9,130.4,66.3,130.3,65.8,130.3z M82.6,197H83v9h-0.4
			H44v-9H82.6z M44,216h39v12H44V216z M83,247H44v-9h38.6H83V247z M93,227v-11h11.6c2.8,0,5-2.2,5-5s-2.2-5-5-5H93v-8h11.6
			c2.8,0,5-2.2,5-5s-2.2-5-5-5H91v0.3l-14.3-25.1c-0.2-0.4-0.5-0.8-0.9-1.1l0-0.1l-5.1-27.6c-0.3-1.6-1.2-2.9-2.6-3.6
			c-0.1-0.1-0.1-0.1-0.1-0.1V69h-0.1h78.6c-3.4,4-5.8,8-7.3,10h-19.6c-2.8,0-4.6,2.5-4.6,5.3v30c0,2.8,1.8,4.7,4.6,4.7h26
			c2.8,0,5-2.2,5-5s-2.2-5-5-5H125V89h13.2c1.8,4,5.9,10.9,12.9,17.9C160.2,116,177,127,203,127v100H93z M202.8,127 M210.8,116.5
			c13.6-4,23.6-16.6,23.6-31.5c0-10.3-4.7-19.4-12.1-25.5c-1.5-1.4-3.2-2.6-5.1-3.4c-1.8-1-3.8-1.8-5.8-2.5
			c27.3,4,40.9,25.1,44.5,31.6C253,91.7,241.1,113,210.8,116.5z"/>
	</g>
</g>
</svg>
