<?xml version="1.0" encoding="utf-8"?>
<!-- Generator: Adobe Illustrator 18.1.1, SVG Export Plug-In . SVG Version: 6.00 Build 0)  -->
<svg version="1.1" id="Layer_1" xmlns="http://www.w3.org/2000/svg" xmlns:xlink="http://www.w3.org/1999/xlink" x="0px" y="0px"
	 viewBox="0 0 300 300" enable-background="new 0 0 300 300" xml:space="preserve">
<g>
	<path fill="#FFFFFF" d="M99.1,127.6c-4,4.6-7.4,9.4-10,15.4h22.8C107.1,139,102.7,133.7,99.1,127.6z"/>
	<path fill="#FFFFFF" d="M127.9,234.5c-2.1-3-4-6.3-5.8-10.2c-3-6.6-5.4-14.3-7.1-22.3H90.2C98.1,217,111.6,228.8,127.9,234.5z"/>
	<path fill="#FFFFFF" d="M177.7,224.2c-1.8,3.9-3.7,7.4-5.8,10.4c16.3-5.7,29.8-17.6,37.7-32.6h-24.8
		C183.1,210,180.7,217.6,177.7,224.2z"/>
	<path fill="#FFFFFF" d="M112,171.4c0-6.3,0.4-12.4,1-18.4H85.4c-1.7,6-2.6,12-2.6,18.4c0,7.2,1.2,13.6,3.3,20.6h27.3
		C112.5,185,112,178.5,112,171.4z"/>
	<path fill="#FFFFFF" d="M213.7,192c2.1-7,3.3-13.4,3.3-20.6c0-6.4-0.9-12.4-2.6-18.4h-5.2c-3.4,7-8.6,15.7-21.5,22.1
		c-0.1,5.8-0.6,10.9-1.3,16.9H213.7z"/>
	<path fill="#FFFFFF" d="M122.5,159l11.9-2.3c-2.6-1.1-5.3-2.7-8-3.7h-3.3C122.9,155,122.7,156.9,122.5,159z"/>
	<path fill="#FFFFFF" d="M177.6,178.8c-4.5,1.3-9.7,2.5-15.7,3.2l-10.2,10h24.6C176.9,188,177.3,183.3,177.6,178.8z"/>
	<path fill="#FFFFFF" d="M140,203.2c-0.9,0.9-2.2,1.3-3.5,1.3c-0.5,0-1,0.1-1.5-0.1c-0.2-0.1-2.7-0.4-5.9-2.4h-3.9
		c5.1,22,15.2,36.5,24.6,36.5s19.6-14.5,24.6-36.5h-33.1L140,203.2z"/>
	<path fill="#CCCCCC" d="M162,56.6c-7.5,10.9-11.6,25.5-11.2,40.7c11.6,11.3,22,19.8,27.6,20.7c2.6,0.4,4.9,0.6,7,0.6
		c1.9,0,3.4-0.2,4.7-0.5L162,56.6z"/>
	<path fill="#FFFFFF" d="M107.5,121.6c14.2,25.3,47.9,30.7,48.3,30.7c2.4,0.4,4.2,2.4,4.3,4.8c0.1,2.4-1.6,4.5-4,5l-32.3,6.6
		c-1.9,5.3-2,10.1-0.2,14.1c2.6,5.7,8.4,9.1,11.8,10.7l20.8-20.2c0.8-0.8,1.9-1.3,3-1.4c31.2-3.2,37.5-16.3,42.1-25.9
		c1.4-2.8,2.7-5.5,4.5-7.6c4.7-5.4,12.1-7.6,17.7-8.4c-1.9-2.7-5.3-5.6-11.7-6.1c-1-0.1-2-0.1-2.9-0.1c-4.6,0-7.2,1-10.2,2.1
		c-3.3,1.3-7.1,2.7-13.2,2.7c-2.6,0-5.4-0.3-8.6-0.8c-3.4-0.6-13.7-2.2-46-36.8c-9.5-10.2-18.2-20.3-23.6-26.7
		C99,87.4,99.1,106.6,107.5,121.6z"/>
	<path fill="#CCCCCC" d="M65.5,239.8c4.1,3.2,10.8,7.2,19.3,7.2c3.6,0,7.3-0.7,11-2.1c-4.9-3.2-12.5-7-20.6-7
		C71.8,237.8,68.6,238.4,65.5,239.8z"/>
	<path fill="#CCCCCC" d="M64.7,211.6c-4-7.1-12-17.5-24.6-18.4C43.1,199.8,50,209.9,64.7,211.6z"/>
	<path fill="#CCCCCC" d="M59.4,170.8c-0.2-8.2-2.4-21-13.3-27.7C45.7,150.3,47,162.4,59.4,170.8z"/>
	<path fill="#CCCCCC" d="M224.8,238.7c-8.1,0-15.6,3.8-20.6,7c3.7,1.4,7.4,2.1,11,2.1c8.5,0,15.2-3.9,19.3-7.2
		C231.4,239.4,228.2,238.7,224.8,238.7z"/>
	<path fill="#CCCCCC" d="M235.3,212.5c14.7-1.7,21.6-11.8,24.6-18.4C247.3,195,239.3,205.4,235.3,212.5z"/>
	<path fill="#CCCCCC" d="M253.9,144c-10.7,6.7-13,19.5-13.2,27.7C252.9,163.4,254.3,151.2,253.9,144z"/>
	<g>
		<path fill="#5980B7" d="M221.3,199.8c0.7-0.9,1.2-1.9,1.2-3.2c2.9-8,4.4-16.7,4.4-25.7c0-10.7-2.2-20.9-6.2-30.2
			c3.3-0.9,6.8-1.3,9.2-1.3l0.3,0c1.5,0,2.9-0.5,3.8-1.6c1-1.1,1.4-2.5,1.3-4c-0.8-6.3-6.6-18.7-22.9-19.9c-1.3-0.1-2.5-0.2-3.7-0.2
			c-2.6,0-4.7,0.2-6.6,0.6c-1.4-1.3-2.9-2.6-4.5-3.8l-30-65.6c-0.7-1.5-2.1-2.6-3.7-2.9c-1.6-0.3-3.3,0.3-4.5,1.5
			c-10.4,11-16.9,26.7-18.4,43.8c-11.4-12-23-25.4-31.6-35.9c-1.1-1.4-2.8-2.1-4.6-1.8c-1.7,0.2-3.2,1.4-3.9,3
			c-10.6,25-12.7,46.7-6.5,64.6c-13.5,13.9-21.8,32.8-21.8,53.6c0,42.5,34.6,77.1,77.1,77.1C182.2,248,209.9,228.1,221.3,199.8z
			 M176.3,192h-24.6l10.2-10.1c6-0.7,11.1-1.7,15.7-3C177.3,183.4,176.9,188,176.3,192z M187.7,175.1c12.8-6.3,18.1-15.1,21.5-22.1
			h5.2c1.7,6,2.6,12,2.6,18.4c0,7.2-1.2,13.6-3.3,20.6h-27.3C187.1,186,187.6,180.9,187.7,175.1z M162,56.6l28.2,61.6
			c-1.4,0.3-2.9,0.5-4.7,0.5c-2,0-4.3-0.2-7-0.6c-5.6-0.9-16.1-9.4-27.6-20.7C150.4,82.1,154.5,67.5,162,56.6z M107.2,64.4
			c5.3,6.3,14.1,16.5,23.6,26.7c32.4,34.6,42.7,36.3,46,36.8c3.2,0.5,6,0.8,8.6,0.8c6.1,0,9.9-1.4,13.2-2.7c3-1.1,5.6-2.1,10.2-2.1
			c0.9,0,1.9,0,2.9,0.1c6.4,0.5,9.8,3.4,11.7,6.1c-5.6,0.8-13,2.9-17.7,8.4c-1.8,2.1-3.1,4.8-4.5,7.6c-4.6,9.6-10.9,22.7-42.1,25.9
			c-1.1,0.1-2.2,0.6-3,1.4l-20.8,20.2c-3.4-1.6-9.3-5-11.8-10.7c-1.8-4-1.8-8.7,0.2-14.1l32.3-6.6c2.4-0.5,4.1-2.6,4-5
			c-0.1-2.4-1.9-4.5-4.3-4.8c-0.3-0.1-34.1-5.4-48.3-30.7C99.1,106.6,99,87.4,107.2,64.4z M82.8,171.4c0-6.4,0.9-12.4,2.6-18.4h27.7
			c-0.7,6-1,12.1-1,18.4c0,7.1,0.5,13.6,1.3,20.6H86.1C84,185,82.8,178.6,82.8,171.4z M123.1,153h3.3c2.7,1,5.4,2.5,8,3.6l-11.9,2.5
			C122.7,157,122.9,155,123.1,153z M99.1,127.6c3.5,6.1,8,11.4,12.7,15.4H89.1C91.8,137,95.1,132.2,99.1,127.6z M90.2,202H115
			c1.7,8,4.1,15.6,7.1,22.2c1.8,3.9,3.7,7.4,5.8,10.4C111.6,229,98.1,217,90.2,202z M125.2,202h3.9c3.2,2,5.7,2.3,5.9,2.3
			c0.5,0.1,1,0.1,1.5,0.1c1.3,0,2.5-0.3,3.5-1.3l1.4-1.2h33.1c-5.1,22-15.2,36.5-24.6,36.5S130.3,224,125.2,202z M171.9,234.5
			c2.1-3,4-6.3,5.8-10.2c3-6.6,5.4-14.3,7.1-22.3h24.8C201.7,217,188.2,228.8,171.9,234.5z"/>
		<path fill="#5980B7" d="M75.2,227.8c-7.5,0-14.6,2.3-20.9,7c-1.1,0.8-1.8,2-2,3.4c-0.2,1.4,0.2,2.7,1.1,3.8
			c0.5,0.6,12.4,15,31.4,15h0c7.7,0,15.4-2.4,23-7c1.3-0.8,2.2-2.2,2.4-3.7c0.2-1.5-0.4-3.1-1.5-4.1
			C108,241.5,93.3,227.8,75.2,227.8z M84.8,246.9c-8.4,0-15.2-3.9-19.3-7.2c3.1-1.3,6.3-2,9.7-2c8.1,0,15.6,3.8,20.6,7
			C92.1,246.2,88.4,246.9,84.8,246.9z"/>
		<path fill="#5980B7" d="M69,222c1.3,0,2.6-0.1,4-0.2c1.6-0.1,3-0.9,3.8-2.2c0.9-1.3,1.1-3,0.5-4.4c-0.5-1.3-11.4-31.9-39-31.9
			c-1.9,0-3.9,0.1-5.9,0.4c-1.4,0.2-2.6,0.9-3.3,2.1s-1.1,2.7-0.8,4C30.7,200.8,42.2,222,69,222C69,222,69,222,69,222z M40.2,193.2
			c12.5,0.9,20.5,11.2,24.6,18.4C50,209.9,43.1,199.8,40.2,193.2z"/>
		<path fill="#5980B7" d="M61.9,183.6c0.6,0.3,1.3,0.4,2,0.4c0.8,0,1.7-0.2,2.4-0.6c1.4-0.8,2.3-2.1,2.5-3.6
			c2-13.2-0.7-40.4-25.1-48.7c-1.3-0.4-2.7-0.3-3.9,0.3c-1.2,0.6-2.1,1.7-2.5,3.1C34,146.2,34.7,171.7,61.9,183.6z M46.1,143.1
			c10.9,6.7,13.1,19.6,13.3,27.7C47,162.4,45.7,150.3,46.1,143.1z"/>
		<path fill="#5980B7" d="M245.7,235.7c-6.3-4.6-13.4-7-20.9-7c-18.1,0-32.8,13.7-33.4,14.3c-1.1,1.1-1.7,2.6-1.5,4.1
			c0.2,1.5,1,2.9,2.4,3.7c7.6,4.6,15.3,7,23,7c19.1,0,30.9-14.4,31.4-15c0.9-1.1,1.3-2.4,1.1-3.8
			C247.5,237.7,246.8,236.5,245.7,235.7z M215.2,247.9c-3.6,0-7.3-0.7-11-2.1c4.9-3.2,12.5-7,20.6-7c3.4,0,6.6,0.7,9.7,2
			C230.4,243.9,223.7,247.9,215.2,247.9z"/>
		<path fill="#5980B7" d="M270.8,186.6c-0.8-1.1-2-1.9-3.3-2.1c-2-0.3-3.9-0.5-5.9-0.5c-27.6,0-38.5,30.6-39,31.9
			c-0.5,1.5-0.3,3.1,0.5,4.4c0.9,1.3,2.3,2.1,3.8,2.2c1.3,0.1,2.7,0.1,4,0.1c26.9,0,38.3-21.1,40.6-32.3
			C271.9,189.2,271.6,187.8,270.8,186.6z M235.3,212.5c4-7.1,12-17.5,24.6-18.4C256.9,200.7,250,210.9,235.3,212.5z"/>
		<path fill="#5980B7" d="M231.1,180.7c0.2,1.5,1.2,2.9,2.5,3.6c0.8,0.4,1.6,0.6,2.4,0.6c0.7,0,1.4-0.1,2-0.4
			c27.2-11.9,28-37.4,24.6-49.2c-0.4-1.3-1.3-2.4-2.5-3.1c-1.2-0.6-2.6-0.7-3.9-0.3C231.8,140.3,229.1,167.5,231.1,180.7z
			 M253.9,144c0.4,7.2-1,19.3-13.2,27.7C240.9,163.6,243.2,150.8,253.9,144z"/>
	</g>
</g>
</svg>
