<?xml version="1.0" encoding="utf-8"?>
<!-- Generator: Adobe Illustrator 18.1.1, SVG Export Plug-In . SVG Version: 6.00 Build 0)  -->
<svg version="1.1" id="Layer_1" xmlns="http://www.w3.org/2000/svg" xmlns:xlink="http://www.w3.org/1999/xlink" x="0px" y="0px"
	 viewBox="0 0 300 300" enable-background="new 0 0 300 300" xml:space="preserve">
<g>
	<path fill="none" d="M139.2,106.7c-3.3-1.6-8-2.4-14.3-2.4c-5,0-8.8,0-11.6,0.1c0,1.8,0.1,4.3,0.1,7.3c0.1,6.7,0.2,12.5,0.2,17.3
		c0,1.4,0,3.7,0.1,6.4c0,0.9,0,1.6,0.1,2.6h4.7c0,0,0.1,0,0.1,0c1.7,0.1,3.3,0,4.8,0c0,0,0,0,0,0c4.2,0,6.5-0.4,9.5-0.8v-12
		c0-2.2,2.4-4.2,4.6-4.2h9.7c0,0,0.1-0.6,0.1-1C147.4,113.4,144.9,109.2,139.2,106.7z"/>
	<path fill="none" d="M189.3,148.7c-1.7-2-3.8-3-6.7-3c-2.9,0-5.1,1-6.9,3.1c-1.9,2.3-2.9,6-2.9,11c0,4.5,1,8,3,10.6
		c1.8,2.3,4,3.4,7,3.4c2.7,0,4.8-1,6.5-3c1.9-2.2,2.8-6,2.8-11.2C192.1,154.6,191.1,150.9,189.3,148.7z"/>
	<path fill="#FFFFFF" d="M157.6,88.6c-8.8-5.6-19.9-8.3-32.7-8.1c-21.5,0.5-27.6,0.7-28.9,0.8c-5,0.5-7.9,2.6-9.3,6.8
		c-0.3,0.8-0.5,1.9-0.6,3.1c-0.1,1.4-0.2,2.7-0.2,3.8c0,1.2,0,2.8,0.1,4.7c0.1,2.1,0.1,3.6,0.1,4.5c0,1.9,0.1,6.4,0.2,13.4
		c0.1,7.1,0.2,11.6,0.2,13.7c-0.3,34.4-0.4,57.3-0.4,68c0,3.4,0.7,7,9.3,7c8.9,0,10.1-3.6,10.1-7.5c0-3.1-0.1-8.4-0.2-15.8
		c-0.1-7.5-0.1-13.1,0-17.1c0.1-2.2,1.9-3.8,4.1-3.8h8c12.6,0,20.6-0.7,24.6-1.5V145h-4.4c-0.1,0-0.2-0.1-0.2-0.1
		c-3.3,0.8-7.9,1.1-13.9,1.1c0,0,0,0,0,0c-1.6,0-3.2,0-5,0h-8.7c-1.1,0-2.2-0.4-2.9-1.2c-0.8-0.8-1.2-1.8-1.2-2.9
		c0-1.5,0-3.6-0.1-6.4c-0.1-2.8-0.1-5-0.1-6.4c0-4.8-0.1-10.5-0.2-17.2c-0.1-6.9-0.2-10.5-0.2-11.5c0-2.2,1.7-4,3.9-4.1
		c2.3-0.1,7.6-0.2,16-0.2c7.6,0,13.4,1,17.8,3.1c8.5,3.9,13,11.1,12.9,21.1c0,0.3,0,0.8-0.1,0.8H169c2.2,0,4,1.8,4,4
		c0.1-0.1,0.3-0.1,0.4-0.2c0.1-1.1,0.2-2.2,0.2-3.3C174.1,106.6,168.9,95.9,157.6,88.6z"/>
	<path fill="#CDCCCC" d="M207.4,137.2c-4.4-6.1-10.4-9.1-18.1-9.1c-6.4,0-12.1,2.7-17.4,8.4c-1.1,1.2-3.4,1.6-4.9,1
		c-1.5-0.6-3-2.1-3-3.7V129h-23v8h6.2c2.2,0,3.8,1.7,3.8,3.9v67.7c0,2.2-1.6,4.4-3.8,4.4H139v7h39v-7h-9c-2.2,0-5-2.2-5-4.4v-22.1
		c0-1.6,1.4-3.1,2.9-3.7c1.5-0.6,3.4-0.3,4.6,0.8c5.3,5,11,7.4,17.3,7.4c7.7,0,13.8-2.8,18.4-8.5c4.8-6,7.2-13.3,7.2-22.6
		C214.4,151.2,212.2,143.8,207.4,137.2z M195.4,176c-3.2,3.8-7.6,5.9-12.7,5.9c-5.4,0-10.1-2.3-13.3-6.5c-3.1-4-4.6-9.2-4.6-15.5
		c0-7,1.6-12.4,4.8-16.2c3.3-4,7.7-6,13.1-6c5.2,0,9.6,2,12.9,5.9c3.1,3.7,4.6,9.1,4.6,16C200.1,166.8,198.6,172.2,195.4,176z"/>
	<g>
		<path fill="#5A81B8" d="M213.9,132.5c-6-8.2-14.3-12.4-24.6-12.4c-2.5,0-5,0.3-7.4,1c0.4-17.4-6.3-30.6-19.8-39.4
			c-9.8-6.3-21.8-9.4-35.6-9.4c-0.6,0-1.2,0-1.8,0c-17.9,0.4-27.5,0.7-29.4,0.8c0,0-0.1,0-0.1,0c-8.2,0.8-13.9,5.1-16.4,12.4
			c-0.5,1.5-0.8,3.2-1,5.1c-0.1,1.7-0.2,3.2-0.2,4.5c0,1.3,0,2.9,0.1,5c0.1,2,0.1,3.4,0.1,4.3c0,2,0.1,6.5,0.2,13.5
			c0.1,7,0.2,11.5,0.2,13.5c-0.3,34.4-0.4,57.3-0.4,68c0,4.6,1.7,15.2,17.6,15.2c16,0,18.4-9.9,18.4-15.8c0-3.1-0.1-8.5-0.2-15.9
			c-0.1-5.1-0.1-9.8-0.1-12.8h3.9c12,0,19.6-0.4,24.6-1.2V205h-6.3c-2.2,0-4.7,1.4-4.7,3.6v15.7c0,2.2,2.5,3.7,4.7,3.7h47
			c2.2,0,3.3-1.5,3.3-3.7v-15.7c0-2.2-1.1-3.6-3.3-3.6H172v-10.4c5,3,10.8,4.5,16.5,4.5c10.2,0,18.7-3.8,24.8-11.4
			c5.9-7.3,9.1-16.6,9.1-27.7C222.4,149.6,219.6,140.4,213.9,132.5z M117.4,162h-8c-2.2,0-4.1,1.6-4.1,3.8c-0.1,3.9-0.1,9.7,0,17.2
			c0.1,7.4,0.2,12.7,0.2,15.8c0,3.9-1.2,7.5-10.1,7.5c-8.6,0-9.3-3.6-9.3-7c0-10.7,0.1-33.6,0.4-68c0-2.1-0.1-6.6-0.2-13.7
			c-0.1-6.9-0.2-11.4-0.2-13.4c0-0.9,0-2.4-0.1-4.5c-0.1-2-0.1-3.6-0.1-4.7c0-1.1,0.1-2.4,0.2-3.8c0.1-1.2,0.3-2.3,0.6-3.1
			c1.4-4.2,4.3-6.3,9.3-6.8c1.3-0.1,7.5-0.3,28.9-0.8c12.9-0.2,23.9,2.5,32.7,8.1c11.3,7.3,16.5,18,16,32.8c0,1.1-0.1,2.3-0.2,3.4
			c-0.1,0.1-0.3,0.1-0.4,0.2c0-2.2-1.8-4-4-4h-13.4c0,0,0-0.5,0.1-0.8c0.2-9.9-4.3-17.2-12.9-21.1C138.4,97,132.6,96,125,96
			c-8.5,0-13.7,0.1-16,0.2c-2.2,0.1-3.9,1.9-3.9,4.1c0,0.9,0.1,4.6,0.2,11.5c0.1,6.6,0.2,12.4,0.2,17.2c0,1.5,0,3.6,0.1,6.4
			c0.1,2.8,0.1,4.9,0.1,6.4c0,1.1,0.4,2.2,1.2,2.9c0.8,0.8,1.8,1.2,2.9,1.2h8.7c1.7,0,3.4,0,5,0c0,0,0,0,0,0
			c5.9,0,10.4-0.3,13.8-1.1c0.1,0,0.1,0,0.2,0c0.1,0,0.1,0.1,0.2,0.1h4.4v15.5C138,161.3,130,162,117.4,162z M133,125.2v12
			c-3,0.4-5.3,0.8-9.5,0.8c0,0,0,0,0,0c-1.5,0-3.1,0-4.8,0c0,0-0.1,0-0.1,0h-4.7c0-1,0-1.7-0.1-2.6c-0.1-2.7-0.1-4.9-0.1-6.3
			c0-4.8-0.1-10.7-0.2-17.4c-0.1-3-0.1-5.5-0.1-7.3c2.8,0,6.6-0.1,11.6-0.1c6.2,0,11,0.8,14.3,2.4c5.6,2.6,8.2,6.8,8.1,13.4
			c0,0.4,0,1-0.1,1h-9.7C135.4,121,133,122.9,133,125.2z M207.3,182.6c-4.6,5.7-10.6,8.5-18.3,8.5c-6.3,0-11.9-2.4-17.2-7.4
			c-1.2-1.1-3.4-1.4-4.8-0.8c-1.5,0.6-2.9,2.1-2.9,3.7v22.1c0,2.2,2.8,4.4,5,4.4h9v7h-39v-7h8.2c2.2,0,3.8-2.2,3.8-4.4v-67.7
			c0-2.2-1.6-3.9-3.8-3.9H141v-8h23v4.7c0,1.6,1.5,3.1,3,3.7c1.5,0.6,3.5,0.2,4.7-1c5.3-5.6,11.1-8.4,17.5-8.4
			c7.7,0,13.7,3,18.2,9.1c4.7,6.5,7.1,14,7.1,22.7C214.4,169.2,212.1,176.6,207.3,182.6z"/>
		<path fill="#5A81B8" d="M182.6,137.7c-5.3,0-9.7,2-13.1,6c-3.2,3.8-4.8,9.2-4.8,16.2c0,6.3,1.6,11.5,4.6,15.5
			c3.3,4.3,7.9,6.5,13.3,6.5c5.1,0,9.4-2,12.7-5.9c3.2-3.7,4.7-9.1,4.7-16.4c0-6.9-1.6-12.3-4.6-16
			C192.3,139.7,187.8,137.7,182.6,137.7z M189.3,170.8c-1.7,2.1-3.8,3-6.5,3c-3,0-5.2-1.1-7-3.4c-2-2.6-3-6.1-3-10.6
			c0-5,1-8.7,2.9-11c1.8-2.1,4-3.1,6.9-3.1c2.9,0,5,1,6.7,3c1.8,2.2,2.8,5.9,2.8,10.8C192.1,164.8,191.1,168.6,189.3,170.8z"/>
	</g>
</g>
</svg>
