<?xml version="1.0" encoding="utf-8"?>
<!-- Generator: Adobe Illustrator 18.1.1, SVG Export Plug-In . SVG Version: 6.00 Build 0)  -->
<svg version="1.1" id="Layer_1" xmlns="http://www.w3.org/2000/svg" xmlns:xlink="http://www.w3.org/1999/xlink" x="0px" y="0px"
	 viewBox="0 0 300 300" enable-background="new 0 0 300 300" xml:space="preserve">
<g>
	<path fill="none" d="M110.3,159.3c-1.6,0.1-3.2,0.2-4.9,0.2c-0.9,0-1.8,0-2.7-0.1c-0.1,0-0.2,0.2-0.3,0.2c-1.2,0.1-2.4,0.3-3.6,0.3
		c0,0,0,0,0,0c-1.6,0-3.2-0.2-4.7-0.4c0.4,0.4,0.7,0.7,1.1,1c3,3.3,5.2,6.9,7,10.5c1.7-3.6,4-7.2,7-10.5
		C109.5,160.2,109.9,159.7,110.3,159.3z"/>
	<path fill="#FFFFFF" d="M91.7,93.8c0.6,11.1,6.6,19.9,10.5,24.5c6.5-7.3,9.9-15.3,10.2-23.8c0.4-12.6-6-23.7-10.3-29.7
		C94.6,74.4,91.2,84.2,91.7,93.8z"/>
	<path fill="#FFFFFF" d="M139.4,126.9c2.8-6.1,4.1-12.3,4.7-16.6c-11.6,1.3-20.6,5.5-26.8,12.5c-7.4,8.3-9.3,18.8-9.7,25.1
		c0,0.2,0,0.4,0,0.6C122.5,147.8,133.2,140.6,139.4,126.9z"/>
	<path fill="#FFFFFF" d="M60,110.3c1.6,11.8,8.4,36.9,36.6,38.2c-0.4-6.3-2.2-17.2-9.8-25.7C80.7,115.8,71.7,111.6,60,110.3z"/>
	<path fill="#FFFFFF" d="M132.4,182.7c1.2-1.3,2.3-2.7,3.3-4.2l8.1-23.1c-11.5,1.4-20.5,5.6-26.6,12.5c-5,5.6-7.5,12.2-8.7,17.9
		c5.3,0.1,9.9,1.6,13.3,4.2C124.9,187.2,128.3,184.7,132.4,182.7z"/>
	<path fill="#FFFFFF" d="M86.8,167.8c-6.2-6.9-15.2-11.1-26.8-12.4c1.4,10.3,6.8,30.7,26.7,36.6c3-1.7,6.1-3.1,9.2-4.1
		C94.9,181.8,92.5,174.1,86.8,167.8z"/>
	<path fill="#FFFFFF" d="M60,200.5c0.7,4.9,2.2,12.1,5.8,18.9c0.7-5.9,3.2-11.2,7-15.9C69,202,64.8,201,60,200.5z"/>
	<path fill="#CCCCCC" d="M197.3,123.7c5.6-27.3,5.2-44.2,3.2-48.9c-3.3,2.4-9.7,11.9-17,28.9c5.7,1.8,9.7,5,10.3,5.4
		c2.3,2,2.6,5.4,0.7,7.7c-1.1,1.3-2.6,2-4.2,2c-1.2,0-2.5-0.4-3.5-1.3c-0.1-0.1-3.2-2.6-7.3-3.6c-2,5.4-4.1,11.3-6.1,17.8
		c6.1,1.7,10.3,5.1,10.8,5.6c2.3,2,2.6,5.4,0.7,7.7c-1.1,1.3-2.6,2-4.2,2c-1.2,0-2.5-0.4-3.5-1.3c-0.1-0.1-3-2.4-6.9-3.5
		c-0.1,0.5-0.3,1-0.4,1.5c-0.4,1.6-0.9,3.1-1.3,4.6l12.5,4.4c1.6-3.2,3.2-6.3,5-9.5C187.1,141.2,191.3,133.3,197.3,123.7z"/>
	<path fill="#CCCCCC" d="M240.7,88c-3.7,1.5-11.8,9.1-22.3,23.6c4.4,2.6,7,5.9,7.4,6.5c1.8,2.4,1.3,5.9-1.2,7.7
		c-1,0.7-2.1,1.1-3.3,1.1c-1.7,0-3.3-0.8-4.4-2.2c-0.1-0.1-2-2.5-4.9-3.9c-3.4,5.1-7,10.9-10.7,17.3c4.9,2.6,7.9,6.4,8.3,6.9
		c1.8,2.4,1.3,5.9-1.2,7.7c-1,0.7-2.1,1.1-3.3,1.1c-1.7,0-3.3-0.8-4.4-2.2c-0.1-0.1-1.9-2.5-4.8-3.9c-0.2,0.3-0.3,0.6-0.5,1
		c-1.5,2.7-2.9,5.4-4.2,8l20.9,7.4c0.9-1.6,1.8-3.2,2.7-4.9C236,119.9,241.9,94.5,240.7,88z"/>
	<path fill="#FFFFFF" d="M154.2,178.1c13.4,0,23.1,4.2,29.9,9.9c4-2,8.5-3.1,13.4-3.1c4.8,0,9.8,1,14.5,2.9l3.9-10.9l-60.3-21.3
		l-8.1,22.9C149.6,178.3,151.8,178.1,154.2,178.1z"/>
	<path fill="#FFFFFF" d="M197.5,195.9c-1.7,0-3.7,0.2-5.8,0.8c3.9,6.1,5.8,12.5,6.3,17.3c0.3,3-1.9,5.7-4.9,6c-3,0.3-5.7-1.9-6-4.9
		c0-0.1,0-0.5-0.1-0.5c-0.6-4-5.2-25.5-32.8-25.5c-27.8,0-32.7,21.5-33.4,25.5c-0.1,0-0.1,0.6-0.1,0.6c-0.3,2.8-2.7,4.8-5.5,4.8
		c-0.2,0-0.4,0-0.7,0c-3-0.4-5.2-3.1-4.8-6.1c0.5-4.3,2.2-9.9,5.4-15.3c-2-1.5-4.8-1.9-7-1.9c-12.4,0-31.4,11.4-31.4,25.5
		c0,9.2,4.2,14.7,11.5,16.7h128.5c9.6-4,9.7-13.2,9.7-16.7C226.4,207.2,211.1,195.9,197.5,195.9z"/>
	<path fill="#CCCCCC" d="M237.3,250H67.1c-1.5,0-2.7,1.5-2.7,3s1.2,3,2.7,3h170.2c1.5,0,2.7-1.5,2.7-3S238.8,250,237.3,250z"/>
	<path fill="#5980B7" d="M237.3,239h-4.2c2.8-4,4.3-10.1,4.3-16.7c0-12.3-6.6-22.4-15.6-29l6.3-17.8c1-2.9-0.5-6-3.4-7l-2-0.7
		c0.9-1.6,1.6-2.9,2-3.6c10.4-19.3,18.7-38.2,23.3-53.5c5.6-18.7,5.1-29.2-1.7-32.8c-1.3-0.7-2.8-1.1-4.4-1.1
		c-8.6,0-19.8,11.7-29.9,25.3c0.3-2.3,0.5-4.5,0.6-6.7c1.4-19.5-1.4-29.6-8.9-31.6c-0.8-0.2-1.6-0.3-2.4-0.3
		c-4.4,0-11.4,2.5-22.3,24.3c-7,14-14,33-19.7,53.3c-0.4,1.3-0.7,2.6-1.1,3.9l-4-1.4c-1.4-0.5-2.9-0.4-4.2,0.2
		c-0.2,0.1-0.4,0.2-0.5,0.3c-2.9,0.1-5.7,0.3-8.3,0.7c3.8-4.2,6.5-8.9,8.5-13.2c6.1-13.3,6.1-26.5,6.1-27.1c0-0.8,0.4-1.5-0.6-2.2
		V82.7c0-3-2.5-5.5-5.5-5.5s-5.5,2.5-5.5,5.5v16.6c-8,0.8-15.9,3-22.3,6.4c1-3.5,1.5-7,1.6-10.7C123.8,74.6,111,58,107,53.6V38.7
		c0-3-2.5-5.5-5.5-5.5S96,35.6,96,38.7v15.9C85,67.5,79.8,80.9,80.6,94.6c0.2,4,0.9,7.7,2,11.1C75.9,102.2,68,100,59,99.2V82.7
		c0-3-2.5-5.5-5.5-5.5S48,79.6,48,82.7v23c0,0.8,0.3,1.6,0.6,2.2c0.4,4.9,1.8,14.2,6.1,23.6c2,4.3,4.7,9,8.5,13.2
		c-2.9-0.4-5.9-0.7-9-0.8c-1.5,0-2.9,0.5-4,1.6c-1.1,1-1.7,2.5-1.6,4c0,0.6,0.2,13.7,6.3,27.1c2,4.3,4.7,9,8.5,13.2
		c-2.9-0.4-5.9-0.7-9.1-0.8c-1.5,0-2.9,0.5-4,1.6c-1.1,1-1.7,2.5-1.6,4c0,0.6,0.2,13.7,6.3,27c2.7,5.9,6.8,12.4,12.9,17.4h-0.6
		c-7.5,0-13.7,6.5-13.7,14s6.1,14,13.7,14h170.2c7.5,0,13.7-6.5,13.7-14S244.9,239,237.3,239z M240.7,88c1.2,6.5-4.6,31.9-25.7,71.1
		c-0.9,1.7-1.8,3.3-2.7,4.9l-20.9-7.4c1.3-2.6,2.7-5.2,4.2-8c0.2-0.3,0.4-0.6,0.5-1c2.9,1.4,4.7,3.8,4.8,3.9
		c1.1,1.4,2.7,2.2,4.4,2.2c1.1,0,2.3-0.3,3.3-1.1c2.4-1.8,3-5.2,1.2-7.7c-0.4-0.6-3.3-4.4-8.3-6.9c3.7-6.4,7.3-12.2,10.7-17.3
		c2.9,1.4,4.8,3.8,4.9,3.9c1.1,1.4,2.7,2.2,4.4,2.2c1.1,0,2.3-0.3,3.3-1.1c2.4-1.8,3-5.2,1.2-7.7c-0.4-0.5-3-3.9-7.4-6.5
		C228.9,97.2,237,89.5,240.7,88z M169.7,143.9c0.1-0.5,0.3-1,0.4-1.5c3.9,1.1,6.8,3.4,6.9,3.5c1,0.9,2.3,1.3,3.5,1.3
		c1.6,0,3.1-0.7,4.2-2c2-2.3,1.7-5.8-0.7-7.7c-0.6-0.5-4.8-3.9-10.8-5.6c2-6.5,4.1-12.4,6.1-17.8c4.1,1,7.2,3.5,7.3,3.6
		c1,0.9,2.3,1.3,3.5,1.3c1.6,0,3.1-0.7,4.2-2c2-2.3,1.7-5.8-0.7-7.7c-0.6-0.5-4.5-3.7-10.3-5.4c7.2-17.1,13.7-26.6,17-28.9
		c2,4.7,2.4,21.5-3.2,48.9c-5.9,9.6-10.2,17.4-11.4,19.7c-1.7,3.2-3.4,6.4-5,9.5l-12.5-4.4C168.8,147,169.2,145.5,169.7,143.9z
		 M155.5,155.6l60.3,21.3l-3.9,10.9c-4.7-1.9-9.7-2.9-14.5-2.9c-4.9,0-9.5,1.1-13.4,3.1c-6.8-5.8-16.5-9.9-29.9-9.9
		c-2.4,0-4.6,0.1-6.8,0.4L155.5,155.6z M143.9,155.4l-8.1,23.1c-1,1.5-2.1,2.9-3.3,4.2c-4.1,2-7.6,4.5-10.5,7.3
		c-2.8,2.7-5,5.6-6.8,8.6c-3.3,5.5-4.9,11.1-5.4,15.3c-0.4,3,1.8,5.8,4.8,6.1c0.2,0,0.4,0,0.7,0c2.7,0,5.1-2.1,5.5-4.8
		c0-0.1,0-0.3,0.1-0.7c0.7-4.1,5.7-25.5,33.4-25.5c27.7,0,32.2,21.7,32.8,25.5c0,0.3,0.1,0.5,0.1,0.5c0.3,3,3,5.2,6,4.9
		c3-0.3,5.2-3,4.9-6c-0.5-4.8-2.4-11.2-6.3-17.3c2-0.6,4.1-0.8,5.8-0.8c13.7,0,29,11.2,29,26.3c0,3.5,0,12.7-9.7,16.7H88.2
		c-7.4-2-11.5-7.5-11.5-16.7c0-14.1,19-25.6,31.4-25.6c2.2,0,5,0.4,7,1.9c1.8-3,4-5.9,6.8-8.6c-3.5-2.7-8-4.1-13.3-4.2
		c1.2-5.6,3.7-12.2,8.7-17.9C123.5,161,132.4,156.8,143.9,155.4z M109.1,160.6c-3,3.3-5.2,6.9-7,10.5c-1.7-3.6-4-7.2-7-10.5
		c-0.3-0.4-0.7-0.6-1.1-1c1.5,0.1,3.1,0.4,4.7,0.4c0,0,0,0,0,0c1.2,0,2.4-0.3,3.6-0.3c0.1,0,0.2-0.1,0.3-0.1c0.9,0,1.8,0,2.7,0
		c1.7,0,3.3-0.1,4.9-0.2C109.9,159.8,109.5,160.2,109.1,160.6z M144.1,110.3c-0.6,4.3-1.9,10.5-4.7,16.6
		c-6.2,13.7-16.9,20.9-31.8,21.6c0-0.2,0-0.4,0-0.6c0.4-6.3,2.3-16.8,9.7-25.1C123.5,115.8,132.5,111.6,144.1,110.3z M102.1,64.8
		c4.3,6.1,10.7,17.2,10.3,29.7c-0.3,8.5-3.7,16.5-10.2,23.8c-4-4.7-9.9-13.4-10.5-24.5C91.2,84.2,94.6,74.4,102.1,64.8z M60,110.3
		c11.6,1.3,20.6,5.5,26.8,12.4c7.6,8.5,9.4,19.5,9.8,25.7C68.5,147.2,61.7,122.1,60,110.3z M86.8,167.8c5.6,6.3,8.1,14,9.1,20.1
		c-3.1,1-6.2,2.4-9.2,4.1c0,0,0,0,0,0c-20-5.9-25.3-26.3-26.7-36.6C71.7,156.7,80.7,160.9,86.8,167.8z M60.1,200.4
		c4.7,0.5,8.9,1.6,12.9,3.1v0c-4,4.6-6.4,10-7,15.9c-0.1,0.5-0.1,0.4,0-0.1C62.3,212.4,60.8,205.3,60.1,200.4z M237.3,256H67.1
		c-1.5,0-2.7-1.5-2.7-3s1.2-3,2.7-3h170.2c1.5,0,2.7,1.5,2.7,3S238.8,256,237.3,256z"/>
</g>
</svg>
