<?xml version="1.0" encoding="utf-8"?>
<!-- Generator: Adobe Illustrator 18.1.1, SVG Export Plug-In . SVG Version: 6.00 Build 0)  -->
<svg version="1.1" id="Layer_1" xmlns="http://www.w3.org/2000/svg" xmlns:xlink="http://www.w3.org/1999/xlink" x="0px" y="0px"
	 viewBox="0 0 300 300" enable-background="new 0 0 300 300" xml:space="preserve">
<g>
	<path fill="none" d="M123.1,149.3c-0.9-1-2.1-1.3-3.4-1.3C121,148.1,122.2,148.4,123.1,149.3c12.2,13.8,26.7,20.4,34.8,23.3
		c-0.2,2-0.4,4-0.4,6c0-2,0.2-4,0.4-6C149.8,169.7,135.3,163.2,123.1,149.3z"/>
	<path fill="none" d="M157.8,181.9"/>
	<path fill="none" d="M162.2,183.3C162.2,183.3,162.2,183.3,162.2,183.3C162.2,183.3,162.2,183.3,162.2,183.3
		C162.1,183.3,162.2,183.3,162.2,183.3z"/>
	<path fill="none" d="M262.3,149c8.1,13.2,9.3,26.2,9.3,26.8c0.1,1.2-0.3,2.4-1.1,3.3c-0.8,0.9-1.9,1.5-3.1,1.6
		c-1.6,0.1-3.2,0.3-4.8,0.3c-0.4,0-0.8,0.1-1.3,0.1c0,0,0,0,0,0c0.4,0,0.8-0.1,1.3-0.1c1.6,0,3.2-0.1,4.8-0.2
		c1.2-0.1,2.3-0.7,3.1-1.6c0.8-0.9,1.2-2.1,1.1-3.3C271.6,175.2,270.4,162.2,262.3,149c-4-6.5-10.2-13.7-19.4-19
		C252.2,135.3,258.3,142.5,262.3,149z"/>
	<path fill="none" d="M205.9,158.6c-14.9,15.1-31.8,21.4-39.1,23.6c-2.2,0.6-3.5,0.9-3.8,1c0,0-0.1,0-0.1,0c0,0,0.1,0,0.1,0
		c0.2,0,1.6-0.3,3.7-1C174.1,180.1,191,173.8,205.9,158.6C205.9,158.6,205.9,158.6,205.9,158.6z"/>
	<path fill="none" d="M231.9,125.2c2,0.6,4,1.4,5.8,2.2C235.9,126.5,233.9,125.8,231.9,125.2z"/>
	<path fill="none" d="M220.8,122.7c1.6,0.2,3.2,0.5,4.7,0.8C223.9,123.2,222.4,122.9,220.8,122.7z"/>
	<path fill="none" d="M237.7,127.3c1.8,0.8,3.6,1.7,5.2,2.6C241.3,129,239.5,128.1,237.7,127.3z"/>
	<path fill="#CDCCCC" d="M74.5,111.3c-0.9,0-1.8,0-2.6,0.1c-13.2,4-16.8,14.8-20.4,25.3c-2.4,7.1-5.1,14.9-11.4,18.4
		c4.4,4.8,10.8,7.3,16.9,8.3c1.8-6.4,4.7-12.4,8.4-17.7c5.8-8.9,15.3-18.3,30.5-22.1C91.5,116.2,83.5,111.3,74.5,111.3z"/>
	<path fill="#FFFFFF" d="M65.2,180C65.2,180,65.2,180,65.2,180c-0.4,0-0.9,0-1.3,0c0.8,25.6,21.9,46.3,47.7,46.3
		c23,0,42.3-16.4,46.8-38.1c-0.3-2.1-0.6-4.2-0.7-6.3c-7.8-2.5-23.8-9-38-23.4C112.3,165.5,93.6,180,65.2,180z"/>
	<path fill="#CDCCCC" d="M158,172.6c0.1-0.5,0.2-1,0.2-1.6c-3.6-22-20.3-38.3-41.9-40c-1.8-0.1-3.5-0.2-5.2-0.2
		c-34.8,0-44.1,28.7-46.5,40.3c0.2,0,0.4-0.2,0.6-0.2c0,0,0,0,0,0c32.2,0,50.9-21.5,51.1-21.7c0.8-1,2.1-1.3,3.4-1.3c0,0,0,0,0.1,0
		c1.3,0,2.5,0.3,3.4,1.3C135.3,163.1,149.8,169.7,158,172.6z"/>
	<path fill="#FFFFFF" d="M261.4,181C261.4,181,261.4,181,261.4,181c-28.7,0-48-15.2-55.5-22.3c-14.9,15.1-31.8,21.4-39.1,23.6
		c1.8,24.9,22.6,44.6,47.9,44.6c25.8,0,46.9-20.4,48-45.9C262.2,180.9,261.8,181,261.4,181C261.4,181,261.4,181,261.4,181z"/>
	<path fill="#CDCCCC" d="M202.5,149.3c0.9-1,2.1-1.3,3.4-1.3c0,0,0,0,0.1,0c1.3,0,2.5,0.4,3.4,1.4c0.2,0.2,19.7,22.5,52.1,22.5
		c0.2,0,0.3,0,0.5,0c-2.5-11.7-12.6-40.9-51.4-40.9h-0.3c-21.6,0-39.8,18.2-43,41.6C175.2,169.8,190.1,163.3,202.5,149.3z"/>
	<path fill="#FFFFFF" d="M161.5,123.9c6.9-4.3,29.2-19.6,29.2-36.3c0-0.1,0-0.3,0-0.4c0-7.4-6-13.7-13.2-13.7
		c-5.8,0-10.8,3.6-12.5,8.9c-0.6,1.9-2.3,3.1-4.3,3.1c-2,0-3.7-1.3-4.3-3.1c-1.8-5.5-6.9-9.3-12.5-9.3c-7.3,0-13.2,5.9-13.2,13.2
		C130.7,106.1,154.3,120.1,161.5,123.9z"/>
	<g>
		<path fill="#5A81B8" d="M214.7,121.8c-2.1,0-4.2,0.1-6.2,0.3c-13.6,0.5-26.2,6.6-35.7,17.4c-4,4.5-7.2,9.6-9.7,15
			c-2.4-5.2-5.7-10-9.5-14.2c-9-10.3-21.6-17-36.1-18.2c0,0,0,0-0.1,0c-0.1,0-0.3,0-0.4,0c-0.2,0-0.4,0-0.6,0
			c-1.6-0.1-3.2-0.2-4.8-0.2c-0.3,0-0.5,0-0.8,0c-2,0-3.8,0.1-5.6,0.3c-5.4-11.8-17.3-19.8-30.8-19.8c-1.4,0-2.7,0.1-4.1,0.2
			c-0.2,0-0.5,0.1-0.7,0.1c-17.9,5.2-23,20.2-26.8,31.1c-3.4,10-5.3,14-10.3,14.2c-1.5,0-3,0.9-3.7,2.2c-0.8,1.3-0.8,3-0.1,4.3
			c4.8,9.4,14.6,15.8,26.5,17.7c0,0.3-0.1,0.7-0.1,1c-0.2,1.1-0.2,1.8-0.2,1.9c0,0.4,0,0.7,0,1c0,0.8-0.1,1.6-0.1,2.4
			c0,31.3,25.5,56.8,56.8,56.8c22.6,0,42.2-13.3,51.3-32.5c9.1,19.5,28.8,33,51.7,33c31.4,0,57-25.6,57-57S246.1,121.8,214.7,121.8z
			 M220.8,122.7c1.6,0.2,3.2,0.5,4.7,0.8c2.3,0.5,4.4,1,6.4,1.7c2,0.6,4,1.4,5.8,2.2c1.8,0.8,3.6,1.7,5.2,2.6
			c9.3,5.3,15.4,12.5,19.4,19c8.1,13.2,9.3,26.2,9.3,26.8c0,0.3,0,0.6,0,0.9c0-0.3,0-0.6,0-0.9c0-0.6-1.2-13.6-9.3-26.8
			c-4-6.5-10.2-13.7-19.4-19c-1.6-0.9-3.4-1.8-5.2-2.6c-1.8-0.8-3.8-1.5-5.8-2.2c-2-0.6-4.2-1.2-6.4-1.7
			C223.9,123.2,222.4,122.9,220.8,122.7c-3.2-0.4-6.6-0.7-10.3-0.7C214.1,122.1,217.6,122.3,220.8,122.7z M210.2,131h0.3
			c38.9,0,48.9,29.2,51.4,40.9c-0.2,0-0.3,0-0.5,0c-32.4,0-51.9-22.3-52.1-22.6c-0.8-1-2.1-1.4-3.4-1.4c0,0,0,0-0.1,0
			c-1.3,0-2.5,0.4-3.4,1.3c-12.4,14-27.3,20.5-35.3,23.3C170.4,149.2,188.6,131,210.2,131z M162.2,183.3
			C162.2,183.3,162.2,183.3,162.2,183.3C162.2,183.3,162.1,183.3,162.2,183.3C162.2,183.3,162.2,183.3,162.2,183.3z M111.1,130.8
			c1.7,0,3.5,0.1,5.2,0.2c21.6,1.7,38.2,18,41.9,40c-0.1,0.5-0.2,1-0.2,1.6c-0.2,2-0.3,2,0,0c-8.1-2.9-22.6-9.5-34.9-23.3
			c-0.9-1-2-1.3-3.3-1.3c0,0,0,0-0.1,0c-1.3,0-2.6,0.3-3.4,1.3c-0.2,0.2-18.8,21.7-51.1,21.7c0,0,0,0,0,0c-0.2,0-0.4,0.2-0.6,0.2
			C67,159.5,76.3,130.8,111.1,130.8z M40.1,155.1c6.3-3.5,8.9-11.3,11.4-18.4c3.6-10.5,7.2-21.3,20.4-25.3c0.9-0.1,1.8-0.1,2.6-0.1
			c9.1,0,17.1,4.9,21.4,12.3c-15.3,3.8-24.8,13.2-30.5,22.1c-3.8,5.3-6.7,11.3-8.4,17.7C50.9,162.4,44.5,159.9,40.1,155.1z
			 M111.7,226.3c-25.8,0-46.9-20.7-47.7-46.3c0.4,0,0.9,0,1.3,0c0,0,0,0,0,0c28.4,0,47.1-14.5,54.5-21.5
			c14.2,14.4,30.2,20.9,38,23.4c0-0.6,0-0.5,0,0c0.1,2.1,0.4,4.3,0.7,6.3C154,209.9,134.7,226.3,111.7,226.3z M214.7,226.8
			c-25.3,0-46.1-19.7-47.9-44.6c-2.2,0.6-2.2,0.6,0,0c7.3-2.2,24.2-8.5,39.1-23.6c0,0,0,0.1,0,0.1c7.5,7.1,26.8,22.3,55.5,22.3
			c0,0,0,0,0,0c0.4,0,0.8-0.1,1.3-0.1C261.5,206.4,240.5,226.8,214.7,226.8z"/>
		<path fill="#5A81B8" d="M159.9,133.2c0.6,0.3,1.2,0.4,1.9,0.4c0.8,0,1.5-0.2,2.2-0.6c1.4-0.8,34-19.5,35.7-43.5
			c0.1-0.3,0.1-0.6,0.1-1c0-0.2,0-0.3,0-0.5l0-0.1l0-0.7c0-12.3-10.2-22.7-22.2-22.7c-6.6,0-12.7,2.8-16.8,7.5
			c-4.1-4.9-10.2-7.9-16.9-7.9c-12.2,0-22.2,10-22.2,22.2C121.7,115.3,158.3,132.4,159.9,133.2z M143.9,73.2
			c5.6,0,10.8,3.8,12.5,9.3c0.6,1.9,2.3,3.1,4.3,3.1c2,0,3.7-1.3,4.3-3.1c1.7-5.3,6.8-8.9,12.5-8.9c7.1,0,13.2,6.3,13.2,13.7
			c0,0.1,0,0.3,0,0.4c0,16.7-22.3,31.9-29.2,36.3c-7.2-3.8-30.8-17.9-30.8-37.6C130.7,79.1,136.6,73.2,143.9,73.2z"/>
	</g>
</g>
</svg>
