<?xml version="1.0" encoding="utf-8"?>
<!-- Generator: Adobe Illustrator 18.1.1, SVG Export Plug-In . SVG Version: 6.00 Build 0)  -->
<svg version="1.1" id="Layer_1" xmlns="http://www.w3.org/2000/svg" xmlns:xlink="http://www.w3.org/1999/xlink" x="0px" y="0px"
	 viewBox="0 0 300 300" enable-background="new 0 0 300 300" xml:space="preserve">
<g>
	<path fill="#FFFFFF" d="M38.4,142.5c-0.7-1.5-1.2-2.9-1.7-4.2c-1,1.3-0.8,5.1,1.7,10.5c3.1,6.7,9,14.3,16.3,20.9c2,1.8,4,3.5,6,5
		l3.9-1.8c-2.5-1.9-4.9-3.9-7.4-6.1C48.9,159.3,42.2,150.6,38.4,142.5z"/>
	<path fill="#FFFFFF" d="M46.5,132.5C46.5,132.5,46.5,132.5,46.5,132.5c0.3,1.5,0.9,3.3,1.9,5.4c3.1,6.7,9,14.3,16.3,20.9
		c4,3.6,7.9,6.6,11.6,8.9l2-0.9c-4.3-2.8-8.7-6.1-12.9-9.9C57,149.2,50.3,140.6,46.5,132.5z"/>
	<path fill="#FFFFFF" d="M73.1,121c-6-3.3-11.2-4.8-14.7-4.8c-1,0-2.7,0.1-3.4,1c-1.1,1.2-1.1,5,1.6,10.7c3.1,6.7,9,14.3,16.3,20.9
		c6.3,5.8,12.6,9.8,17.9,12.4l0,0C81.4,150,75.1,136.2,73.1,121z"/>
	<path fill="#FFFFFF" d="M101.6,137.4c0.3-1.6,0.9-3.2,1.7-4.7c0.8-1.5,0.9-3.2,0.3-4.8s-1.7-2.8-3.3-3.4
		c-6.7-2.7-10.8-9.1-10.5-16.4c0.3-7.2,5-13.3,11.9-15.4c1.6-0.5,2.9-1.6,3.6-3.1c0.7-1.5,0.7-3.2,0.1-4.8
		c-2.2-5.3-1.7-11.1,1.4-15.8c3.2-4.8,8.4-7.7,14.1-7.7c2.7,0,5.4,0.7,7.9,2c0.9,0.5,1.8,0.7,2.7,0.7h0c2.4,0,4.5-1.4,5.4-3.7
		c2.6-6.5,8.6-10.5,15.6-10.5c7.6,0,13.9,4.7,16.1,11.9c0.8,2.5,3,4.1,5.6,4.1c0.8,0,1.5-0.2,2.3-0.5c2.2-0.9,4.4-1.4,6.7-1.4
		c5.8,0,11.3,3.2,14.4,8.3c3,5.1,3.2,11.2,0.4,16.5c-0.8,1.5-0.9,3.2-0.3,4.8s1.7,2.8,3.3,3.4c4.8,2,8.3,5.8,9.8,10.6
		c2.8,1.2,5.2,3,7.1,5.2c0-0.7,0.1-1.4,0.1-2c0-37.1-30.2-67.3-67.3-67.3c-37.1,0-67.3,30.2-67.3,67.3c0,13.6,4.1,26.2,11,36.8
		C95.6,143.5,98.2,139.9,101.6,137.4z"/>
	<path fill="#CCCCCC" d="M196.8,107.2c-4.4-1.8-7.8-5.4-9.4-9.8c-1.6-4.5-1.3-9.5,0.9-13.7c1.4-2.6,0.5-4.7-0.1-5.7
		c-1.1-1.8-3-2.9-5-2.9c-0.8,0-1.6,0.2-2.4,0.5c-2.1,0.9-4.3,1.3-6.6,1.3c-7.5,0-13.9-4.8-16.1-11.9c-0.9-3.1-3.5-4.1-5.6-4.1
		c-0.9,0-4,0.7-5.4,4.1c-2.6,6.4-8.7,11-15.6,11c0,0,0,0,0,0c-2.7,0-5.5-1.1-7.9-2.4c-0.9-0.5-1.8-1-2.8-1c-1.9,0-3.8,0.9-4.9,2.6
		c-0.6,0.9-1.5,2.9-0.5,5.4c1.9,4.4,1.8,9.3-0.2,13.7c-2,4.3-5.8,7.6-10.3,9c-3.7,1.1-4.1,4.4-4.1,5.3s0.1,4.2,3.7,5.7
		c4.4,1.8,7.9,5.4,9.5,9.9c1.1,3.1,1.3,6.4,0.6,9.5c6.8,0.5,12.6,4.5,15.7,10.2c0.5,0,1,0.1,1.5,0.2c0.9,0.3,11.2,3.7,22,10.4
		c5.7-12.5,16.5-22.5,30.1-27.8c0-0.4-0.1-0.7-0.1-1.1C183.7,117.1,189.2,109.9,196.8,107.2z M150.7,136.4
		c-14.1,0-25.6-11.5-25.6-25.6s11.5-25.6,25.6-25.6s25.6,11.5,25.6,25.6S164.8,136.4,150.7,136.4z"/>
	<path fill="#FFFFFF" d="M150.7,96.2c-8.1,0-14.6,6.6-14.6,14.6s6.6,14.6,14.6,14.6s14.6-6.6,14.6-14.6S158.8,96.2,150.7,96.2z"/>
	<polygon fill="#FFFFFF" points="46,255 164.2,255 161.1,241 46,241 	"/>
	<path fill="#FFFFFF" d="M46,196v15h93.2c-1.5-3-2.4-5.7-2.4-8.9c0-2.1,0.4-4.1,1-6.1H46z"/>
	<path fill="#FFFFFF" d="M132.3,156c-1.4,9.4-9.5,16.6-19.3,16.6c-4.5,0-8.6-1.2-11.9-3.8L66.4,185h81.2c0.8-1,1.7-1.1,2.6-1.4
		c-0.5-2.8-0.8-6-0.8-9c0-3.1,0.3-6.2,0.9-9.2C144,161.3,137.4,158,132.3,156z"/>
	<polygon fill="#CCCCCC" points="47,230 158.6,230 156.7,222 47,222 	"/>
	<polygon fill="#CCCCCC" points="211.3,257 218.5,220 191.8,220 199,257 	"/>
	<polygon fill="#CCCCCC" points="236.8,257 244.1,220 229.7,220 222.5,257 	"/>
	<polygon fill="#CCCCCC" points="175.9,257 187.8,257 180.6,220 167.6,220 	"/>
	<path fill="#FFFFFF" d="M203.2,145.1c-6.5,0-12.2-3.2-15.7-8c-16,6.4-27.1,20.7-27.1,37.4c0,4.1,0.7,8,1.9,11.5
		c0.6,1.7,0.4,3.9-0.7,5.4c-1,1.5-2.7,2.7-4.5,2.7h-1.1c-4.6,0-8.3,4.2-8.3,7.9c0,3.9,3.8,7.1,8.3,7.1h99.8c4.4,0,8.1-3.7,8.1-7.7
		v-0.1c0-3.7-3.6-7.2-8.1-7.2h-1.1c-1.8,0-3.5-1.2-4.5-2.7c-1-1.5-1.3-3.5-0.7-5.2c1.3-3.5,1.9-7.4,1.9-11.4
		c0-18.2-13.3-33.8-31.6-39.1C216.6,141.3,210.3,145.1,203.2,145.1z"/>
	<path fill="#CCCCCC" d="M211.7,125.6c0-4.7-3.8-8.5-8.5-8.5s-8.5,3.8-8.5,8.5s3.8,8.5,8.5,8.5S211.7,130.3,211.7,125.6z"/>
	<path fill="#CCCCCC" d="M113.1,161.6c4.7,0,8.5-3.8,8.5-8.5s-3.8-8.5-8.5-8.5s-8.5,3.8-8.5,8.5S108.4,161.6,113.1,161.6z"/>
	<g>
		<path fill="#5980B7" d="M150.7,85.2c-14.1,0-25.6,11.5-25.6,25.6s11.5,25.6,25.6,25.6s25.6-11.5,25.6-25.6S164.8,85.2,150.7,85.2z
			 M150.7,125.4c-8.1,0-14.6-6.6-14.6-14.6s6.6-14.6,14.6-14.6s14.6,6.6,14.6,14.6S158.8,125.4,150.7,125.4z"/>
		<path fill="#5980B7" d="M261.8,183.3c0.5-2.8,0.8-5.7,0.8-8.7c0-21.7-14.6-40.4-35.1-48.2c1-5.1,1.6-10.3,1.6-15.6
			c0-43.2-35.1-78.3-78.3-78.3c-42.4,0-77,33.9-78.3,76c-5.1-2.2-9.9-3.3-14.1-3.3c-6.1,0-9.7,2.5-11.6,4.6
			c-1.2,1.3-2.6,3.5-3.2,6.7c-2.2,0.9-3.8,2.2-4.9,3.3c-1.3,1.4-2.7,3.7-3.3,7c-3.3,0.9-5.4,2.5-6.7,4c-2.7,2.9-6.3,9.8-0.3,22.7
			c3.7,8.1,10.5,16.8,18.9,24.4c0.7,0.7,1.5,1.3,2.2,2l-11.5,5.3c-2,0.9-3.1,2.9-3.1,5v69.7c0,3,2.3,6.2,5.3,6.2h127.2
			c0.1,0,0.1,0.1,0.2,0.2c1,1,2.4,1.8,3.9,1.8h69.9c2.6,0,4.9-2.1,5.4-4.6l8.6-43.4h0.5c10.4,0,19.1-8.7,19.1-18.7v-0.1
			C275,193,269.3,185.8,261.8,183.3z M150.7,43.5c37.1,0,67.3,30.2,67.3,67.3c0,0.7,0,1.4-0.1,2c-1.9-2.2-4.4-4-7.1-5.2l0,0
			c-1.5-4.7-4.9-8.6-9.8-10.6c-1.6-0.6-2.7-1.8-3.3-3.4s-0.5-3.3,0.3-4.8c2.8-5.3,2.6-11.5-0.4-16.5c-3.1-5.1-8.6-8.3-14.4-8.3
			c-2.3,0-4.5,0.5-6.7,1.4c-0.7,0.3-1.5,0.5-2.3,0.5c-2.6,0-4.8-1.7-5.6-4.1c-2.2-7.2-8.6-11.9-16.1-11.9c-7,0-13,4-15.6,10.5
			c-0.9,2.2-3,3.7-5.4,3.7h0c-1,0-1.9-0.2-2.7-0.7c-2.5-1.3-5.2-2-7.9-2c-5.6,0-10.9,2.9-14.1,7.7c-3.1,4.7-3.7,10.5-1.4,15.8
			c0.7,1.5,0.6,3.2-0.1,4.8c-0.7,1.5-2,2.6-3.6,3.1c-6.9,2.1-11.6,8.2-11.9,15.4c-0.3,7.2,3.8,13.6,10.5,16.4
			c1.6,0.6,2.7,1.8,3.3,3.4s0.5,3.3-0.3,4.8c-0.8,1.5-1.3,3.1-1.7,4.7c-3.4,2.5-6,6.1-7.2,10.2c-7-10.6-11-23.2-11-36.8
			C83.4,73.7,113.6,43.5,150.7,43.5z M183.8,126.7c-13.5,5.3-24.4,15.3-30.1,27.8c-10.8-6.7-21.1-10.1-22-10.4
			c-0.5-0.2-1-0.2-1.5-0.2c-3.1-5.7-8.9-9.7-15.7-10.2c0.7-3.1,0.5-6.4-0.6-9.5c-1.6-4.5-5.1-8.1-9.5-9.9c-3.6-1.4-3.7-4.7-3.7-5.7
			s0.5-4.2,4.1-5.4c4.6-1.4,8.3-4.7,10.3-9c2-4.3,2.1-9.3,0.2-13.7c-1.1-2.5-0.2-4.5,0.5-5.5c1.1-1.7,3-2.7,4.9-2.7
			c0.9,0,1.9,0.7,2.8,1.2c2.4,1.3,5.2,2.4,7.9,2.4c0,0,0,0,0,0c6.9,0,13-4.6,15.6-11c1.4-3.4,4.5-3.9,5.4-3.9c2.1,0,4.7,1,5.6,4
			c2.2,7.1,8.7,11.9,16.1,11.9c2.3,0,4.5-0.5,6.6-1.4c0.8-0.3,1.6-0.5,2.4-0.5c2,0,3.9,1.1,5,2.9c0.6,1,1.5,3.1,0.1,5.7
			c-2.2,4.2-2.6,9.2-0.9,13.7c1.6,4.4,5,8,9.4,9.8c-7.6,2.7-13.1,9.9-13.1,18.4C183.7,126,183.8,126.3,183.8,126.7z M150.2,183.6
			c-0.9,0.3-1.8,0.4-2.6,1.4H66.4l34.8-16.1c3.3,2.6,7.4,3.9,11.9,3.9c9.8,0,17.8-7.3,19.3-16.7c5.1,2,11.7,5.1,17.9,9.3
			c-0.6,3-0.9,6.1-0.9,9.3C149.4,177.6,149.7,180.8,150.2,183.6z M156.7,221.3l1.9,8.7H47v-8h109.7l-0.4-2.2L156.7,221.3z
			 M139.2,211H46v-15h91.8c-0.7,2-1,3.5-1,5.6c0,3.2,0.9,6,2.4,8.5c1.1,1.9,2.5,3.8,4.2,5.2C141.7,214,140.3,212,139.2,211z
			 M113.1,144.6c4.7,0,8.5,3.8,8.5,8.5s-3.8,8.5-8.5,8.5s-8.5-3.8-8.5-8.5S108.4,144.6,113.1,144.6z M203.2,117.1
			c4.7,0,8.5,3.8,8.5,8.5s-3.8,8.5-8.5,8.5s-8.5-3.8-8.5-8.5S198.5,117.1,203.2,117.1z M54.9,117.2c0.8-0.8,2.5-1,3.4-1
			c3.5,0,8.7,1.5,14.7,4.8c2,15.2,8.3,29,17.7,40.1l0,0c-5.4-2.6-11.6-6.6-17.9-12.4c-7.3-6.6-13.2-14.2-16.3-20.9
			C53.9,122.2,53.9,118.3,54.9,117.2z M46.5,132.5c3.7,8.1,10.5,16.8,18.9,24.4c4.2,3.8,8.6,7.1,12.9,9.9l-2,0.9
			c-3.7-2.3-7.6-5.3-11.6-8.9c-7.3-6.6-13.2-14.2-16.3-20.9C47.5,135.8,46.9,134,46.5,132.5C46.5,132.5,46.5,132.5,46.5,132.5z
			 M54.8,169.8c-7.3-6.6-13.2-14.2-16.3-20.9c-2.5-5.4-2.6-9.2-1.7-10.5c0.5,1.3,1,2.7,1.7,4.2c3.7,8.1,10.5,16.8,18.9,24.4
			c2.4,2.2,4.9,4.2,7.4,6.1l-3.9,1.8C58.8,173.3,56.8,171.6,54.8,169.8z M46,255v-14h115.1l0.1,0.3l3.1,13.7H46z M195.3,265.9
			c-0.4,0.1-0.7,0.1-1.1,0.1c-2.6,0-4.9-1.3-5.4-3.9l-1.1-5h-11.9l-8.3-37h13l7.2,36.3l1.1,5.4c0.5,2.6,2.8,4.4,5.4,4.4
			C194.6,266,195,265.9,195.3,265.9c2.6-0.6,4.4-2.8,4.4-5.3C199.8,263.2,198,265.4,195.3,265.9z M211.2,257h-12.1l-0.1-0.4
			l-7.2-36.6h26.6l-7.2,36.6L211.2,257z M236.8,257h-14.3l-1.1,5c-0.5,2.6-2.8,4.2-5.4,4.2c-0.3,0-0.7-0.2-1.1-0.2
			c-2.7-0.5-4.5-2.8-4.4-5.3c0.1,2.5,1.9,4.7,4.4,5.2c0.4,0.1,0.7,0.1,1.1,0.1c2.6,0,4.9-1.8,5.4-4.5l1.1-5.2l7.2-36.3h14.5
			L236.8,257z M264,201.3c0,3.9-3.7,7.7-8.1,7.7h-99.8c-4.5,0-8.3-3.2-8.3-7.1c0-3.6,3.6-7.9,8.3-7.9h1.1c1.8,0,3.5-1.2,4.5-2.7
			c1-1.5,1.3-3.5,0.7-5.2c-1.2-3.4-1.9-7.5-1.9-11.6c0-16.7,11.2-31.1,27.1-37.5c3.5,4.9,9.3,8,15.7,8c7.1,0,13.3-3.9,16.7-9.6
			c18.3,5.3,31.6,20.8,31.6,39.1c0,4-0.6,7.9-1.9,11.4c-0.6,1.7-0.4,3.9,0.7,5.4c1,1.5,2.7,2.7,4.5,2.7h1.1c4.5,0,8.1,3.5,8.1,7.2
			V201.3z"/>
	</g>
</g>
</svg>
