<?xml version="1.0" encoding="utf-8"?>
<!-- Generator: Adobe Illustrator 18.1.1, SVG Export Plug-In . SVG Version: 6.00 Build 0)  -->
<svg version="1.1" id="Layer_1" xmlns="http://www.w3.org/2000/svg" xmlns:xlink="http://www.w3.org/1999/xlink" x="0px" y="0px"
	 viewBox="0 0 300 300" enable-background="new 0 0 300 300" xml:space="preserve">
<g>
	<path fill="none" d="M210.8,194.6l12.8,3.3c0.2-2.1,0.4-4.4,0.7-6.7c0.5-4,1.5-8.1,2.7-12.3l-7.8-3.1L210.8,194.6z"/>
	<path fill="none" d="M151,64v35.6c3-3.3,13.6-14.6,14.6-35.6H151z"/>
	<path fill="none" d="M189.6,198.4c-1.8-0.5-3.6,0-4.8,1.3l-1.4,2.3l-13.1,24.3c7.2,3.3,16.3,6.2,27.1,7.5
		c12.6,1.5,22.6,1.3,30.5,0.4c-2.1-5.3-4.5-14.2-4.5-27.2l-33.6-8.6C189.7,198.5,189.7,198.4,189.6,198.4z"/>
	<path fill="none" d="M202,192.3l8.8-19.6l-4.4-1.5c-0.6-0.2-1.1-0.4-1.7-0.6c-0.8-0.3-1.7-0.6-2.2-0.7c-0.3,0.3-0.7,0.9-1.5,2.2
		l-10.2,17.4c0.4,0.1,0.8,0.2,1.2,0.3L202,192.3z"/>
	<path fill="none" d="M208.2,101.9c-5.3-5.8-13-17.9-13.8-37.9h-21.8c-0.7,20-8.8,32.4-14.3,38.3c10.8,5.5,13.4,18.7,14,26.7h21.3
		C194.3,121,197,107.5,208.2,101.9z"/>
	<path fill="none" d="M50.3,173.4c-0.4,0.5-0.9,1.7-1.1,4.2c-0.1,1.7-0.1,3.8,0.5,5.4c1.8-2.7,1.6-7.4,0.7-9.3
		C50.4,173.6,50.3,173.5,50.3,173.4z"/>
	<path fill="none" d="M151,107.1V129h14.3C164.6,122,162,108.8,151,107.1z"/>
	<path fill="none" d="M214,98.2V64h-12.6C202.3,83,210,94.1,214,98.2z"/>
	<path fill="none" d="M200.7,129H214v-22C204,109.5,201.4,122,200.7,129z"/>
	<rect x="143" y="137" fill="#CDCCCC" width="80" height="4"/>
	<path fill="#CDCCCC" d="M98.8,75.3c0.5,0,1,0,1.5,0c-1.9-6.8-8.1-11.7-15.4-11.7c-8.8,0-16,7.2-16,16c0,4,1.5,7.6,3.9,10.4
		C78,81.3,87.7,75.3,98.8,75.3z"/>
	<path fill="#FFFFFF" d="M102.9,113.2c1-0.7,1.5-1.5,1.5-2.6c0-1-0.5-1.8-1.5-2.3c-0.2-0.1-0.5-0.2-0.8-0.3l0.1,5.6
		C102.4,113.5,102.7,113.3,102.9,113.2z"/>
	<path fill="#FFFFFF" d="M94.2,100.8c0,0.4,0.1,0.8,0.4,1.1c0.2,0.3,0.5,0.6,0.8,0.7c0.2,0.1,0.4,0.2,0.6,0.3l-0.1-4.8
		c-0.1,0-0.1,0.1-0.2,0.1C94.7,98.9,94.2,99.8,94.2,100.8z"/>
	<path fill="#FFFFFF" d="M150.7,199.3c0.6-1.9,2.3-3.3,4.3-3.3h4.1v-15h-4.2c-2,0-3.7-1.1-4.3-3c-2.1-6.7-9.9-14.8-15.7-19.8
		c-1-0.9-1.8-2-1.8-3.4v-13.4c-2,1.8-4.1,4.2-6.9,7.4c-1.2,1.4-2.9,1.9-4.6,1.4c-4.7-1.4-8.2-2-12.6-2c-23.5,0-43.3,17.3-43.3,37.7
		c0,12.1,5.1,22.5,14.6,29.2c1.2,0.8,1.7,2.2,1.7,3.7V235h13v-7.3c0-1.3,0.7-2.5,1.7-3.3c0.9-0.9,2.3-1.3,3.6-1.2l0.8,0.1
		c2.4,0.2,3.6,0.3,5.4,0.3c1.8,0,3.2-0.1,5-0.3c1.3-0.1,2.3,0.3,3.2,1.2c0.9,0.9,1.3,2.1,1.3,3.3v7.2h14v-15.3c0-1.5,1-2.9,2.2-3.7
		c1.3-0.9,2.8-1.8,4.1-2.7C142.6,209.2,148.7,205.3,150.7,199.3z M117.4,162h-21c-1.9,0-3.5-1.6-3.5-3.5s1.6-3.5,3.5-3.5h21
		c1.9,0,3.5,1.6,3.5,3.5S119.4,162,117.4,162z M131.9,178.1c0-3.4,1.8-6.2,4-6.2c2.2,0,4,2.8,4,6.2s-1.8,6.2-4,6.2
		C133.7,184.4,131.9,181.6,131.9,178.1z"/>
	<g>
		<path fill="#5A81B8" d="M69.3,98c-0.7,2.5-1,5.1-1,7.8c0,16.8,13.7,30.4,30.4,30.4s30.4-13.7,30.4-30.4c0-13.3-8.6-24.7-20.5-28.8
			c-1.3-12-11.5-21.4-23.9-21.4c-13.2,0-24,10.8-24,24C60.8,87,64.1,93.6,69.3,98z M120.2,105.8c0,11.8-9.6,21.4-21.4,21.4
			s-21.4-9.6-21.4-21.4s9.6-21.4,21.4-21.4S120.2,94,120.2,105.8z M84.8,63.6c7.3,0,13.5,5,15.4,11.7c-0.5,0-1,0-1.5,0
			c-11,0-20.7,5.9-26.1,14.7c-2.4-2.8-3.9-6.4-3.9-10.4C68.8,70.8,76,63.6,84.8,63.6z"/>
		<ellipse fill="#5A81B8" cx="135.9" cy="178.1" rx="4" ry="6.2"/>
		<path fill="#5A81B8" d="M117.4,155h-21c-1.9,0-3.5,1.6-3.5,3.5s1.6,3.5,3.5,3.5h21c1.9,0,3.5-1.6,3.5-3.5S119.4,155,117.4,155z"/>
	</g>
	<path fill="#5A81B8" d="M264.3,126.9c1.5-2,1-4.8-1-6.3c-2-1.5-4.8-1-6.3,1c-0.9,1.3-17.5,24.4-26.8,48.4l-8.1-2.8l-28.5-11.4
		c-6.2-2.5-13.3-1-18.1,3.7c-1.8,1.7-1.8,4.6,0,6.4c1.7,1.8,4.6,1.8,6.4,0c2.2-2.2,5.5-2.9,8.4-1.7l4.2,1.7
		c-0.4,0.6-0.8,1.1-1.2,1.8l-15.8,26.9c-0.8,1-1.5,2.2-2.1,3.5l-13.1,24.2c-5.2-3.1-9-6.3-11.3-8.3c2.8-2.4,5.2-5.8,6.9-8.8h6
		c2.5,0,4.1-1.7,4.1-4.2v-24c0-2.5-1.6-4.8-4.1-4.8h-6c-3.7-8-11.9-15.6-15.9-19.2V149h85.8c2.2,0,3.2-1.9,3.2-4.1v-12
		c0-2.2-1-3.9-3.2-3.9h-4H223V59.8c0-2.2-1-3.8-3.2-3.8H147c-2.2,0-4,1.6-4,3.8v1V129h0h-2.2c-0.1,0-0.2,0-0.3-0.1
		c-0.1-0.1-0.2-0.1-0.3-0.1c-1.1-0.7-2.5-0.8-3.8-0.4c-1,0.4-6.3,2.5-15.1,12.3c-4.3-1.1-8.1-1.5-12.4-1.5
		c-28.7,0-52,20.7-52.3,46.3c-1,0.2-1.9,0.3-2.8,0.3c3-4.4,2.6-11.1,1.1-14.3c-1.1-2.4-3.2-3.7-5.5-3.3c-1.4,0.3-4.8,1.7-5.3,9
		c-0.2,3,0.1,5.6,0.9,7.6c-1.8-0.2-3-0.9-3.9-2c-2-2.8-1.4-8-1-9.7c0.3-1.3-0.5-2.7-1.9-3c-1.3-0.3-2.7,0.5-3,1.9
		c-0.2,0.9-1.9,8.6,1.8,13.8c1.7,2.4,4.3,3.8,7.6,4.1c1.6,0.2,3,0,4.2-0.4c1.6,0.9,3.4,1.3,5.2,1.3c0.9,0,1.6-0.1,2.5-0.2
		c1.2,12.3,7.3,23,16.3,30.5v18.7c0,2.5,2.4,4.2,4.9,4.2h22c2.5,0,4.1-1.7,4.1-4.2v-7.2c1,0,2,0.1,3,0v7.2c0,2.5,2.4,4.2,4.9,4.2h23
		c2.5,0,4.1-1.7,4.1-4.2v-17.7c1-0.4,1.4-0.8,2.1-1.2c0.8-0.5,1.7-1,2.5-1.5c5.6,5.4,23,19.8,52.7,23.3c7,0.8,13.3,1.2,19,1.2
		c7.7,0,14.2-0.7,19.7-1.7c0.4,0,0.9-0.1,1.3-0.2c16.5-3.3,23-9.7,23.4-10.1c1.7-1.8,1.7-4.6-0.1-6.4c-1.8-1.7-4.6-1.7-6.4,0.1
		c-0.1,0.1-4.6,4.3-16.2,7c-2.3-4.9-6.6-17.6-3.7-40.4C236.8,165.2,264,127.3,264.3,126.9z M172.6,64h21.8h0
		c0.8,20,8.5,32,13.7,37.7c-11.2,5.6-13.9,19.3-14.5,27.3h-21.3c-0.6-8-3.2-21.5-14-26.9C163.8,96.2,171.8,84,172.6,64L172.6,64z
		 M214,107v22h-13.3C201.4,122,204,109.5,214,107z M201.4,64H214v34.2C210,94.1,202.3,83,201.4,64z M151,64h14.6
		C164.7,85,155,95.6,151,99.2V64z M151,107.3c11,2,13.6,14.7,14.3,21.7H151V107.3z M150.8,99.7c-0.1,0.1-0.3,0.2-0.4,0.3
		C150.5,100,150.5,99.9,150.8,99.7z M143,137h80v4h-80V137z M49.7,183c-0.6-1.6-0.6-3.7-0.5-5.4c0.2-2.5,0.7-3.7,1.1-4.2
		c0,0.1,0.1,0.1,0.1,0.2C51.3,175.7,51.5,180.3,49.7,183z M136.4,213.4c-1.3,0.9-2.9,1.7-4.2,2.6c-1.2,0.8-2.2,2.2-2.2,3.7V235h-14
		v-7.2c0-1.3-0.3-2.5-1.3-3.3c-0.9-0.9-2.1-1.3-3.3-1.2c-1.8,0.2-3.2,0.3-4.9,0.3c-1.8,0-2.9-0.1-5.4-0.3l-0.8-0.1
		c-1.3-0.1-2.7,0.3-3.7,1.2c-0.9,0.9-1.7,2.1-1.7,3.3v7.3H82v-16.2c0-1.5-0.5-2.8-1.7-3.7c-9.6-6.7-14.7-17.1-14.7-29.2
		c0-20.4,19.9-37.7,43.3-37.7c4.4,0,7.9,0.5,12.6,2c1.7,0.5,3.4,0,4.5-1.4c2.8-3.3,4.9-5.7,6.9-7.4v13.4c0,1.3,0.8,2.6,1.8,3.4
		c5.9,4.9,13.5,13,15.6,19.7c0.6,1.9,2.4,3,4.4,3h4.2v15h-4.1c-2,0-3.7,1.4-4.3,3.3C148.7,205.3,142.7,209.3,136.4,213.4z
		 M219.3,175.7l7.8,3.1c-1.3,4.2-2.2,8.3-2.7,12.3c-0.3,2.3-0.5,4.5-0.7,6.7l-12.8-3.3L219.3,175.7z M201,172.1
		c0.8-1.3,1.2-1.9,1.5-2.2c0.5,0.1,1.4,0.5,2.2,0.7c0.5,0.2,1.1,0.4,1.7,0.6l4.4,1.5l-8.8,19.6l-9.9-2.5c-0.4-0.1-0.8-0.2-1.2-0.3
		L201,172.1z M197.3,233.8c-10.8-1.3-19.8-4.2-27.1-7.5l13.1-24.3l1.4-2.3c1.2-1.2,3.1-1.8,4.8-1.3c0,0,0.1,0,0.1,0l33.6,8.6
		c0,13,2.4,21.9,4.5,27.2C219.9,235.1,209.9,235.3,197.3,233.8z"/>
</g>
<path fill="#FFFFFF" d="M98.8,84.3c-11.8,0-21.4,9.6-21.4,21.4s9.6,21.4,21.4,21.4s21.4-9.6,21.4-21.4S110.6,84.3,98.8,84.3z"/>
</svg>
