<?xml version="1.0" encoding="utf-8"?>
<!-- Generator: Adobe Illustrator 18.1.1, SVG Export Plug-In . SVG Version: 6.00 Build 0)  -->
<svg version="1.1" id="Layer_1" xmlns="http://www.w3.org/2000/svg" xmlns:xlink="http://www.w3.org/1999/xlink" x="0px" y="0px"
	 viewBox="0 0 300 300" enable-background="new 0 0 300 300" xml:space="preserve">
<g>
	<polygon fill="#FFFFFF" points="247.4,130.3 208.4,103.5 231.8,175.6 	"/>
	<polygon fill="#FFFFFF" points="162.8,238 210.3,238 226.2,191.8 	"/>
	<polygon fill="#FFFFFF" points="150,63 118,85 181.9,85 	"/>
	<polygon fill="#FFFFFF" points="73.8,191.5 89.7,238 137.3,238 	"/>
	<polygon fill="#FFFFFF" points="52.6,130.2 68.2,175.7 91.7,103.4 	"/>
	<polygon fill="#CCCCCC" points="222.1,181.4 213.5,154.8 196.7,199.9 	"/>
	<polygon fill="#CCCCCC" points="105.5,96 96.3,124.6 134.9,96 	"/>
	<polygon fill="#CCCCCC" points="194.5,96 165,96 204,125.2 	"/>
	<polygon fill="#CCCCCC" points="78,181.2 103.2,199.6 86.4,155.2 	"/>
	<polygon fill="#CCCCCC" points="150,233.7 167.5,221 132.7,221 	"/>
	<polygon fill="#FFFFFF" points="92.8,141 118.9,210 181.1,210 206.8,141.1 150,98.6 	"/>
	<path fill="#5980B7" d="M257,123.6L153.1,52c-1.9-1.3-4.4-1.3-6.2,0L43,123.5c-2,1.4-2.9,4-2.1,6.3l39.7,115.6
		c0.8,2.2,2.9,3.6,5.2,3.6h128.4c2.3,0,4.4-1.4,5.2-3.6l39.7-115.6C259.9,127.5,259.1,125,257,123.6z M181.1,210h-62.2l-26.1-69
		L150,98.7l56.8,42.4L181.1,210z M167.5,221L150,233.7L132.7,221H167.5z M86.4,155.2l16.7,44.4L78,181.2L86.4,155.2z M96.3,124.6
		l9.3-28.6h29.4L96.3,124.6z M213.5,154.8l8.6,26.5l-25.3,18.5L213.5,154.8z M165,96h29.5l9.4,29.2L165,96z M150,63l31.9,22H118
		L150,63z M91.7,103.4l-23.4,72.3l-15.6-45.5L91.7,103.4z M89.7,238l-15.9-46.5l63.5,46.5H89.7z M210.3,238h-47.5l63.3-46.2
		L210.3,238z M231.8,175.6l-23.3-72.2l38.9,26.8L231.8,175.6z"/>
</g>
</svg>
