<?xml version="1.0" encoding="utf-8"?>
<!-- Generator: Adobe Illustrator 18.1.1, SVG Export Plug-In . SVG Version: 6.00 Build 0)  -->
<svg version="1.1" id="Layer_1" xmlns="http://www.w3.org/2000/svg" xmlns:xlink="http://www.w3.org/1999/xlink" x="0px" y="0px"
	 viewBox="0 0 300 300" enable-background="new 0 0 300 300" xml:space="preserve">
<g>
	<path fill="#FFFFFF" d="M165,135h8v-30h-0.6H122v33h25.1c3,0,5.9,2.4,5.9,5.5v28.2v9c2-1.3,4-2.4,7-3.4v-36.1
		C160,138.1,161.9,135,165,135z"/>
	<path fill="#FFFFFF" d="M62,177v60h59.9h17.8c-5.3-7-7.6-14.1-7.6-22.2c0-9.5,3.9-18,9.9-25V177H62z M122.7,208h-41
		c-3,0-5.5-2.5-5.5-5.5s2.5-5.5,5.5-5.5h41c3,0,5.5,2.5,5.5,5.5S125.8,208,122.7,208z"/>
	<path fill="#CCCCCC" d="M187,146h-16v28.2c2-0.4,5.3-0.6,8-0.6s5,0.2,8,0.6V146z"/>
	<path fill="#FFFFFF" d="M167.2,202h24c3,0,5.8,2.7,5.8,5.8V237h5.8c7.7-7,11.3-14.3,11.3-22.1c0-16.8-16-30.4-35.6-30.4
		s-35.6,13.6-35.6,30.5c0,7.9,3.5,15,11.3,22h7.8v-29.2C162,204.7,164.2,202,167.2,202z"/>
	<rect x="173" y="213" fill="#FFFFFF" width="13" height="24"/>
	<path fill="#FFFFFF" d="M229.8,168.5c-4.7,0-8.6,3.8-8.6,8.6c0,4.7,3.8,8.6,8.6,8.6c4.7,0,8.6-3.8,8.6-8.6
		C238.4,172.4,234.6,168.5,229.8,168.5z"/>
	<rect x="142" y="63" fill="#FFFFFF" width="10" height="18"/>
	<polygon fill="#CCCCCC" points="163.9,92 157.1,92 136.6,92 129.9,92 129,94 164.8,94 	"/>
	<rect x="62" y="149" fill="#CCCCCC" width="80" height="17"/>
	<g>
		<path fill="#5980B7" d="M229.8,157.5c-1.2,0-2.4,0.1-3.6,0.3c-3.7-5.2-8.1-8.9-13.7-11c-5.2-2-10.6-2.2-14.6-1.6v-4.1
			c0-3-3-6.1-6-6.1h-8h0v-34.8c0-3-2.5-6.2-5.5-6.2H177v0.7l-3.6-9.9c-0.8-2.2-3.2-3.8-5.5-3.8H163V57.9c0-3-2.8-5.9-5.9-5.9h-20.5
			c-3,0-5.6,2.9-5.6,5.9V81h-5.1c-2.4,0-4.3,1.4-5.1,3.7l-3.1,9.3h-1.3c-3,0-5.4,3.2-5.4,6.2V138H56.2c-3,0-5.2,2.4-5.2,5.5v99.6
			c0,3,2.2,4.9,5.2,4.9h148.7c1.4,0,2.7-0.4,3.7-1.3c11.1-9.9,16.4-20.3,16.4-31.8c0-8.5-2.9-16.5-7.9-23.1c3.4,3,7.9,4.8,12.7,4.8
			c10.8,0,19.6-8.8,19.6-19.6C249.4,166.3,240.6,157.5,229.8,157.5z M198,156.3c3-0.5,7-0.6,10.8,0.9c2.9,1.1,5.4,3.1,7.6,5.8
			c0,0-0.1,0-0.1,0c-0.8,0.7-1.5,1.5-2.1,2.4c-2.4,3.3-3.9,7.3-3.9,11.7c0,3.9,1.3,7.5,3.3,10.6c-4.3-4.4-9.5-7.9-15.5-10.4v-18.9
			V156.3z M187,146v28.2c0,0-0.3,0-0.4,0c-2.6-0.4-5.2-0.6-7.9-0.6c-2.6,0-4.7,0.2-7.7,0.6V146H187z M142,63h10v18h-0.4h-9.5H142V63
			z M129.9,92h6.7h20.5h6.8l0.9,2H129L129.9,92z M121.9,105h50.5h0.6v30h-8c-3,0-5,3.1-5,6.1v36c0,0-0.2,0.1-0.2,0.1
			c-2.4,0.9-4.8,2.1-6.8,3.3v-8.9v-3v-25.2c0-3-2.9-5.5-5.9-5.5h-25.2h0.1L121.9,105L121.9,105z M62,149h80v17H62V149z M62,237v-60
			h79.6h0.4v12.7c0,0-0.2,0.1-0.3,0.1c-6.1,7-9.7,15.7-9.7,25.2c0,7.9,2.4,15,7.5,22h-17.6H62z M173,237v-24h13v24H173z M202.8,237
			H197v-29.2c0-3-2.7-5.8-5.8-5.8h-24c-3,0-5.2,2.7-5.2,5.8V237h-7.8c-7.8-7-11.3-14.1-11.3-22c0-16.8,16-30.5,35.6-30.5
			s35.6,13.6,35.6,30.3C214,222.7,210.4,230,202.8,237z M229.8,185.7c-4.7,0-8.6-3.8-8.6-8.6c0-4.7,3.8-8.6,8.6-8.6
			c4.7,0,8.6,3.8,8.6,8.6C238.4,181.8,234.6,185.7,229.8,185.7z"/>
		<path fill="#5980B7" d="M171.8,70h15.7c1.7,0,3.1-1.5,3.1-3s-1.4-3-3.1-3h-15.7c-1.7,0-3.1,1.5-3.1,3S170.1,70,171.8,70z"/>
		<path fill="#5980B7" d="M173.4,73.5c-1.5-0.7-3.3-0.2-4.1,1.2c-0.8,1.4-0.2,3.1,1.3,3.8l6.1,3c0.5,0.2,1,0.3,1.4,0.3
			c1.1,0,2.2-0.5,2.7-1.5c0.8-1.4,0.2-3.1-1.3-3.8L173.4,73.5z"/>
		<path fill="#5980B7" d="M172,60.6c0.5,0,1-0.1,1.4-0.3l6.1-3c1.5-0.7,2.1-2.4,1.3-3.8c-0.8-1.4-2.7-1.9-4.1-1.2l-6.1,3
			c-1.5,0.7-2.1,2.4-1.3,3.8C169.9,60,170.9,60.6,172,60.6z"/>
		<path fill="#5980B7" d="M122.7,197h-41c-3,0-5.5,2.5-5.5,5.5s2.5,5.5,5.5,5.5h41c3,0,5.5-2.5,5.5-5.5S125.8,197,122.7,197z"/>
	</g>
</g>
</svg>
