<?xml version="1.0" encoding="utf-8"?>
<!-- Generator: Adobe Illustrator 18.1.1, SVG Export Plug-In . SVG Version: 6.00 Build 0)  -->
<svg version="1.1" id="Layer_1" xmlns="http://www.w3.org/2000/svg" xmlns:xlink="http://www.w3.org/1999/xlink" x="0px" y="0px"
	 viewBox="0 0 300 300" enable-background="new 0 0 300 300" xml:space="preserve">
<g>
	<path fill="none" d="M86.9,160c0.4-2.7,2.6-4.7,5.3-4.7l48-1.6c-4.6-10.2-13.5-18.3-25.1-21.3c-3.2-0.9-6.5-1.3-9.8-1.3
		c-17.3,0-32.5,11.7-36.9,28.4c-5,19,6.3,39.3,25,46C83.4,186,86.7,161.2,86.9,160z"/>
	<path fill="#CCCCCC" d="M107.7,207.4c0.1,0.1,0.2,0.2,0.3,0.3c16-0.8,29.9-12.4,34.2-28.6c1.3-4.9,1.6-9.8,1-14.5l-45.8,1.5
		C96.9,175.1,97.1,195.2,107.7,207.4z"/>
	<path fill="#CCCCCC" d="M126.5,73.1c-3.4-0.7-6,0.1-8.4,2.7c-6.7,7.3-8.8,24.9-9.1,40.4c3.3,0.2,6.6,0.8,9.9,1.6
		c8.6,2.3,16.1,6.6,22.3,12.2C143.7,110.1,144.2,76.6,126.5,73.1z"/>
	<path fill="#CCCCCC" d="M160.3,231.7c0.2,1,0.8,4.2,6.3,6.8c2.7,1.3,5.3,1.9,7.7,1.9c8.4,0,14.5-7.8,17.5-12.9l-24.1-14.3
		C164,218,159.2,225.9,160.3,231.7z"/>
	<path fill="#CCCCCC" d="M232.5,139.6c-1.6-1.2-3.3-1.8-5.1-1.8c-12.7,0-30.9,26.7-41,46.2l24.2,14.4c9.8-11.6,27.5-35.9,26.2-50.7
		C236.5,144.1,235.1,141.6,232.5,139.6z"/>
	<g>
		<path fill="#5980B7" d="M201.9,220.7l-32.6-19.3c-2.2-1.3-5-0.9-6.8,0.9c-1.6,1.7-15.7,17.1-13,31.4c0.8,4.4,3.7,10.6,12.4,14.7
			c4.1,2,8.3,2.9,12.4,2.9c19.8,0,29.5-22.9,29.9-23.9C205.2,225,204.3,222,201.9,220.7z M174.3,240.4c-2.4,0-5-0.6-7.7-1.9
			c-5.5-2.6-6.1-5.7-6.3-6.8c-1.1-5.8,3.7-13.7,7.4-18.5l24.1,14.3C188.8,232.5,182.7,240.4,174.3,240.4z"/>
		<path fill="#5980B7" d="M247.8,146.6c-0.6-6.6-3.5-11.9-8.6-15.8c-3.6-2.7-7.5-4.1-11.8-4.1c-25,0-50.4,51.1-53.2,56.9
			c-1.2,2.6-0.3,5.7,2.1,7.1l32.6,19.3c0.9,0.5,1.8,0.8,2.8,0.8c1.5,0,3-0.6,4.1-1.8C219.3,205.2,250,170.8,247.8,146.6z
			 M210.6,198.3l-24.2-14.4c10.1-19.5,28.3-46.2,41-46.2c1.8,0,3.5,0.6,5.1,1.8c2.6,2,4,4.5,4.3,8
			C238.2,162.4,220.5,186.7,210.6,198.3z"/>
		<path fill="#5980B7" d="M158.2,164.1c-0.4-3.7-1.1-7.4-2.3-10.9c-1.3-4.2-3.2-8.2-5.5-12c0.1-0.3,0.2-0.5,0.2-0.8
			c0.1-0.7,3.3-17.2,2.7-34.8c-1.2-32-14.1-41.2-24.8-43.2c-7.2-1.4-13.7,0.8-18.6,6.1c-9.3,10.2-11.7,31.4-12,48.2
			c-21,2.9-38.6,18.2-44.1,39.1c-3.6,13.7-1.5,28.1,6,40.6c2.5,4.2,5.5,7.9,8.9,11.2l-13.9,20.4c-2.3,3.4-1.5,8.1,2,10.4
			c1.3,0.9,2.8,1.3,4.2,1.3c2.4,0,4.8-1.1,6.2-3.3l13.7-20c3.7,2,7.7,3.6,11.8,4.7c4.4,1.2,8.9,1.8,13.4,1.8c1,0,2,0,3-0.1
			c7-0.4,13.8-2.3,19.9-5.3c13.3-6.7,23.7-19,27.8-34.4C158.4,176.6,158.9,170.2,158.2,164.1z M118.1,75.8c2.3-2.6,4.9-3.4,8.4-2.7
			c17.8,3.5,17.3,37,14.7,56.9c-6.1-5.6-13.7-9.9-22.3-12.2c-3.2-0.9-6.5-1.4-9.9-1.6C109.4,100.7,111.5,83.1,118.1,75.8z
			 M68.4,159.5c3.8-14.4,15.6-25.1,29.9-27.8c2.3-0.4,4.6-0.7,7-0.7c1.3,0,2.7,0.1,4,0.2c2,0.2,3.9,0.5,5.8,1.1
			c1.5,0.4,3,0.9,4.5,1.5c6,2.4,11.1,6.2,15.1,11c2.2,2.7,4.1,5.7,5.5,8.8l-48,1.6c-2.7,0.1-4.9,2.1-5.3,4.7
			c-0.2,1.2-3.4,26,6.5,45.5C74.7,198.8,63.3,178.5,68.4,159.5z M142.2,179c-4.3,16.3-18.2,27.8-34.2,28.6c-0.1-0.1-0.2-0.2-0.3-0.3
			c-10.6-12.2-10.9-32.3-10.4-41.3l45.8-1.5C143.8,169.3,143.5,174.2,142.2,179z"/>
		<path fill="#5980B7" d="M164,72.5c2.3,0,5.1-1,8.3-3.1c4-2.8,8.1-4.1,12.1-4.1c3.5,0,6.5,0.9,9,2.8s3.7,4.3,3.7,7.4
			c0,2.1-0.9,4-2.7,5.9c-1.5,1.6-5.4,4.1-11.5,7.4c-7.2,3.9-10.8,8.9-10.8,14.9c0,3.6,1,6.4,2.9,8.5s4.5,3.1,7.7,3.1
			c2.8,0,5-0.7,6.6-2c1.6-1.3,2.4-3.1,2.4-5.2c0-0.7,0-1.2-0.1-1.5c-0.1-0.3-0.1-0.7-0.1-1.3c0-2.8,2.2-5.3,6.5-7.5
			c5.6-2.9,10.1-6,13.5-9.4c3.5-3.4,5.2-7.7,5.2-13c0-7.7-3.1-14-9.2-19.1c-6.1-5-13.7-7.6-22.7-7.6c-8.4,0-16.5,2.5-24,7.6
			c-3.5,2.1-5.2,4.6-5.2,7.8c0,1.9,0.9,3.7,2.7,5.6C160.1,71.5,162,72.5,164,72.5z"/>
		<path fill="#5980B7" d="M191.1,125.3c-2.1-1.8-4.8-2.7-8.1-2.7c-3.5,0-6.3,0.9-8.5,2.8c-2.2,1.9-3.3,4.2-3.3,7.1
			c0,3,1.1,5.4,3.2,7.1c2.1,1.7,4.8,2.5,8.2,2.5c3.3,0,6-0.8,8.3-2.5c2.3-1.7,3.4-4.1,3.4-7.2C194.2,129.4,193.2,127.1,191.1,125.3z
			"/>
	</g>
</g>
</svg>
