<?xml version="1.0" encoding="utf-8"?>
<!-- Generator: Adobe Illustrator 18.1.1, SVG Export Plug-In . SVG Version: 6.00 Build 0)  -->
<svg version="1.1" id="Layer_1" xmlns="http://www.w3.org/2000/svg" xmlns:xlink="http://www.w3.org/1999/xlink" x="0px" y="0px"
	 viewBox="0 0 300 300" enable-background="new 0 0 300 300" xml:space="preserve">
<g>
	<path fill="none" d="M108.7,122.4c2.3-6.6,3-12,3-16.1c-4.6,8.9-9.5,19.2-14.7,30.9C101.1,135,105.8,130.7,108.7,122.4z"/>
	<path fill="none" d="M135.2,77.2c3.9-6.8,4.8-12.3,4.6-16.4c-4.8,6.1-11.1,15.1-18.5,27.9C125.6,87.5,131,84.5,135.2,77.2z"/>
	<path fill="none" d="M86.4,174c2.7-7.6,3-13.4,2.5-17.7c-4.1,10.1-8.4,21-12.7,33C79.6,186.7,83.5,182.1,86.4,174z"/>
	<path fill="none" d="M178,251.5c8.8,0,16.6-4.9,21.3-12.4c-2.3-5.6-4.6-5.6-6.6-5.6c-1.4,0-3.2,0.3-5.3,0.8
		c-8.1,2-15.5,3.1-21.8,3.1c-3.8,0-7.2-0.4-10.4-1.1C159.6,245.3,168.2,251.5,178,251.5z"/>
	<path fill="none" d="M173.7,206.2c1.8,3,8.3,6.3,15.1,6.3c4.1,0,9.9-1.2,13.7-6.6c0.5-0.7,0.5-1.3,1.5-1.9v-22.5
		c-4,0.6-7.9,1-11.8,1.3c-4.9,0.4-9.6,0.9-14.2,1.8C175.3,187.4,168,196.7,173.7,206.2z"/>
	
		<rect x="42.3" y="237.5" transform="matrix(-0.3318 0.9433 -0.9433 -0.3318 297.3521 269.6653)" fill="#CCCCCC" width="21.8" height="5.3"/>
	<path fill="#FFFFFF" d="M65.6,202.5c-1.1-0.4-2.2-0.6-3.4-0.6c-4.3,0-8.2,2.7-9.6,6.8c-1.9,5.3,0.9,11.1,6.2,12.9
		c1.1,0.4,2.2,0.6,3.4,0.6c4.3,0,8.2-2.7,9.6-6.8c0.9-2.6,0.8-5.3-0.4-7.8S68.1,203.4,65.6,202.5z"/>
	<path fill="#CCCCCC" d="M185,224.6c2.9-0.7,5.4-1.1,7.7-1.1c11.9,0,15.9,9.8,18.3,19.5c0.4,1.5,1.3,5.3,8.4,6
		c-1.7-4.7-2.3-10.3-2.1-13.9c0.1-3-4-4.6-4.1-4.6c-2.1-0.7-3.5-2.7-3.4-4.9c0.1-2.2,1.5-4.1,3.7-4.7c4.7-1.3,4.7-2.3,4.4-8.5
		c-0.1-1.3-0.1-2.8-0.1-4.3c0-1.1,0.1-2,0.2-3c-2.6,1.3-5,3.5-7.2,6.5c-4.9,7-12.7,10.9-21.9,10.9c-9.9,0-19.9-4.7-23.8-11.2
		c-4.4-7.5-4.1-15-1.9-21.3c-1.3,0.8-2.6,1.7-3.9,2.7c-16.1,12.8-8.4,28.1-5.6,32.6C160.6,228.2,171.4,228,185,224.6z"/>
	<path fill="#FFFFFF" d="M135.6,118.4l4.1,4.7c4.1-2.3,8.5-4.3,13.2-5.9C147.8,116.7,141.9,116.9,135.6,118.4z"/>
	<path fill="#FFFFFF" d="M207.5,148.6c0.1-1.4,0.8-2.7,1.9-3.6l12.6-10.1c-4.4-5-15-13.9-35.1-13.9c-9.2,0-19.4,1.9-30.4,5.6
		c-18.8,6.3-32.6,19.2-38.5,34.8l32.8-6.4c2.7-0.5,5.3,1.2,5.9,3.9c0.5,2.7-1.2,5.3-3.9,5.8l0.4,1.8c1.9-0.4,3.9,0.3,5.1,2
		c1.6,2.2,1.1,5.4-1.2,7l-23.2,16.6c-0.9,0.6-1.9,0.9-2.9,0.9c-1.3,0-2.6-0.5-3.6-1.5L115,178.9c0.3,16.8,9.5,31.3,25.4,40.6
		c-2.6-10.4-1.2-23.6,12.7-34.6c5.9-4.6,11.9-7.3,18-9c-4.9-3.4-8.4-7.5-10.4-12.2c-4.2-9.8-0.2-18.5,0-18.8
		c1.2-2.5,4.2-3.6,6.7-2.4c2.5,1.2,3.6,4.1,2.4,6.6c-0.1,0.1-0.6,1.3-0.8,3.1c-0.3,2-0.2,4.7,1,7.6c1.9,4.2,6,7.9,12,10.8
		c1.8,0.9,3.8,1.7,5.9,2.4c1.1-0.1,2.3-0.2,3.4-0.3c10.6-1,20.7-1.9,29.9-7.8l-12.3-12.7C207.9,151.3,207.4,150,207.5,148.6z
		 M188.5,146.5c-4,0-7.2-3.2-7.2-7.2c0-4,3.2-7.2,7.2-7.2s7.2,3.2,7.2,7.2C195.7,143.2,192.5,146.5,188.5,146.5z"/>
	<path fill="#FFFFFF" d="M121.1,170.9l10.4,10.6l19.8-14.1c0.6-0.4,1.2-0.7,1.9-0.8l-0.4-1.8c0,0,0,0-0.1,0L121.1,170.9z"/>
	<path fill="#FFFFFF" d="M51.5,141.8c2.7-0.4,5.1-1.5,7.7-2.6c2.7-1.2,5.5-2.5,8.7-3c-4.3-3.7-11.3-7.9-17.5-7.9c-4,0-6.5,1.9-8,5.9
		c-0.7,1.9-0.6,3.4,0.3,4.7c1.3,1.9,4.1,3,7.2,3C50.4,141.9,50.9,141.9,51.5,141.8z"/>
	<path fill="#FFFFFF" d="M69.3,106.1c-0.3,0.5-0.2,1.6,0.6,2.7c0.9,1.3,2.5,2.7,4.2,4.1c0.7,0.6,1.4,1.2,2.1,1.9
		c-0.1-3.4-0.6-6.6-2-8.2c-0.5-0.6-1.2-1.2-2.8-1.2C70.9,105.4,69.7,105.4,69.3,106.1z"/>
	<g>
		<circle fill="#5980B7" cx="188.5" cy="139.2" r="7.2"/>
		<path fill="#5980B7" d="M262.1,122H260V96.4c0-16.7-12.6-30.3-28-30.3s-28,13.6-28,30.3V113c1,0.3,2.4,0.7,3.4,1
			c-1.1-0.4-2.2-0.7-3.5-1c-5-1.3-10.6-2.1-17.1-2.1c-4.4,0-9,0.4-13.7,1.1c-3.2-1.4-11.2-4.4-21.2-5V46.5c1-1.6,0.2-3.3-0.8-4.7
			c-1.8-2.4-5.2-3-7.7-1.2C142,41.8,107.3,68.5,62.7,194c-0.2,0-0.4,0-0.6,0c-7.7,0-14.6,4.9-17.1,12.1c-2.1,6-0.8,12.4,2.8,17.1
			l-9.7,27.5c-0.7,2.1,0.4,4.4,2.4,5.1l12.5,4.4c0.4,0.2,0.9,0.2,1.3,0.2c0.6,0,1.2-0.1,1.7-0.4c1-0.5,1.7-1.3,2-2.3l9.9-28.1
			c0-0.1,0.1-0.3,0.1-0.4c5.1-1.8,9.2-5.8,11.1-11.1c1.6-4.6,1.3-9.5-0.8-13.9c-0.9-1.9-2.2-3.6-3.7-5.1c5.9-2.4,14-8.2,19-22.5
			c5-14.2,3.1-24,0.6-29.6c6.6-1.8,16.5-7.1,21.7-21.8c4.5-12.8,3.7-22.2,2.1-27.8c7.4-0.7,17.1-4.7,23.7-16.2
			c0.7-1.3,1.9-2.5,1.9-3.8V107c-6,0.4-12.4,1.6-19.1,4.2c-1.5,0.6-2.6,1.9-3,3.5c-0.4,1.6,0,3.3,1.1,4.5l8.2,9.3
			c-16.3,12.1-26.1,29.9-26.2,49.2c-0.2,24.5,14.9,45,40.6,55.3c4.2,15.3,17.2,26.4,32.5,26.4c9.5,0,18.1-4.3,24.2-11.1
			c3,6.8,9.8,10.7,19.3,10.7c5,0,9-1,9.2-1.1c2.4-0.6,4-3,3.7-5.5c-0.3-2.3-2.1-4-4.3-4.3c-1.3-1.5-3.1-7.5-2.9-12.7
			c0.2-3.8-1.2-6.9-3.1-9.2c4.2-4.2,3.9-9.9,3.7-14.4c-0.1-1.2-0.1-2.5-0.1-3.8c0-2.8,1-3.2,2-3.3c2.3-0.1,4.3-1.7,4.8-4
			c0.5-2.3-0.8-4.7-3-5.6c-0.3-0.1-3.4-1.4-7.8-1.4c-3.3,0-7.6,0.7-11.6,3.1v-17.1c-3,0.7-5,1.2-8,1.6v22.4c0,0,0,0.1-0.1,0.1
			c-0.5,0.6-1,1.3-1.4,1.9c-3.8,5.5-9.6,6.6-13.7,6.6c-6.8,0-13.3-3.3-15.1-6.3c-5.6-9.6,1.7-18.8,4.3-21.7
			c4.6-0.9,9.4-1.3,14.2-1.8c3.9-0.4,7.8-0.7,11.8-1.3c2.7-0.4,5.3-0.9,8-1.6c6.8-1.8,13.5-4.8,20-10.4c1.1-0.9,1.7-2.2,1.8-3.6
			c0.1-1.4-0.4-2.7-1.4-3.7l-12.5-12.8l12-9.7c1.9-1.5,2.4-4.2,1.3-6.3c-0.3-0.6-6.3-11.2-21.2-17.6c-0.3-0.1-0.6-0.2-0.8-0.3
			c0.3,0.1,0.9,0.2,0.9,0.3V96.4c0-12.3,9-22.3,20-22.3s20,10,20,22.3V122h-0.3h-6.6c-2.2,0-4,1.8-4,4s1.8,4,4,4h6.2
			c0.9,8,0.6,17.9-1.6,20.5c-0.2,0.3-0.3,0.2-0.4,0.2c-1,0-2.2-0.2-2.7-0.8c-0.7-0.9-0.6-3.3-0.2-4.6c0.6-2.1-0.6-4.3-2.7-5
			c-2.1-0.6-4.3,0.6-5,2.7c-0.2,0.7-2,7,1.4,11.6c1.4,1.8,4.1,4,9.1,4c2.5,0,4.8-0.9,6.5-2.9c4.8-5.6,4.3-18.7,3.5-25.7h2.7
			c2.2,0,4-1.8,4-4S264.3,122,262.1,122z M52,251.3l-5-1.8l7.2-20.6l5,1.8L52,251.3z M71.8,215.5c-1.4,4.1-5.3,6.8-9.6,6.8
			c-1.1,0-2.3-0.2-3.4-0.6c-5.3-1.9-8.1-7.7-6.2-12.9c1.4-4.1,5.3-6.8,9.6-6.8c1.1,0,2.3,0.2,3.4,0.6c2.6,0.9,4.6,2.7,5.8,5.2
			S72.7,212.9,71.8,215.5z M86.4,174c-2.9,8.1-6.8,12.7-10.3,15.3c4.4-11.9,8.6-22.9,12.7-33C89.4,160.6,89,166.4,86.4,174z
			 M108.7,122.4c-2.9,8.3-7.6,12.6-11.8,14.8c5.2-11.7,10.1-22,14.7-30.9C111.7,110.5,111,115.8,108.7,122.4z M135.2,77.2
			c-4.2,7.3-9.6,10.3-14,11.6c7.4-12.9,13.7-21.8,18.5-27.9C140,64.9,139.1,70.4,135.2,77.2z M135.6,118.4
			c6.3-1.5,12.2-1.7,17.3-1.2c-4.7,1.6-9.1,3.6-13.2,5.9L135.6,118.4z M178,251.5c-9.8,0-18.4-6.2-22.8-15.2
			c3.2,0.7,6.6,1.1,10.4,1.1c6.3,0,13.7-1,21.8-3.1c2.1-0.5,3.8-0.8,5.3-0.8c2,0,4.3,0,6.6,5.6C194.6,246.6,186.8,251.5,178,251.5z
			 M211,197.5c-2.1,1.4-4.3,3.2-6.4,5.7C206.3,200.8,208.6,198.9,211,197.5z M165,211.3c3.8,6.5,13.8,11.2,23.8,11.2
			c9.2,0,17-3.9,21.9-10.9c2.2-3.1,4.6-5.3,7.2-6.5c-0.2,0.9-0.2,1.9-0.2,3c0,1.6,0.1,3,0.1,4.3c0.3,6.2,0.4,7.2-4.4,8.5
			c-2.1,0.6-3.6,2.5-3.7,4.7c-0.1,2.2,1.3,4.2,3.4,4.9c0,0,4.2,1.5,4.1,4.6c-0.2,3.6,0.4,9.2,2.1,13.9c-7.1-0.6-8.1-4.5-8.4-6
			c-2.4-9.6-6.4-19.5-18.3-19.5c-2.3,0-4.8,0.4-7.7,1.1c-13.6,3.4-24.4,3.6-31.3,0.7c-2.8-4.5-10.5-19.8,5.6-32.6
			c1.3-1,2.6-1.9,3.9-2.7C161,196.3,160.6,203.8,165,211.3z M221.9,134.8L209.3,145c-1.1,0.9-1.8,2.2-1.9,3.6
			c-0.1,1.4,0.4,2.8,1.4,3.8l12.3,12.7c-9.3,5.9-19.3,6.8-29.9,7.8c-1.1,0.1-2.3,0.2-3.4,0.3c-2.1-0.7-4.1-1.5-5.9-2.4
			c-6.1-2.9-10.2-6.6-12-10.8c-1.3-2.9-1.3-5.7-1-7.6c0.3-1.8,0.8-3,0.8-3.1c1.1-2.5,0.1-5.4-2.4-6.6c-2.5-1.2-5.5-0.1-6.7,2.4
			c-0.2,0.4-4.2,9,0,18.8c2,4.7,5.5,8.8,10.4,12.2c-6.1,1.7-12.1,4.4-18,9c-13.9,11-15.3,24.2-12.7,34.6
			c-15.9-9.2-25.2-23.7-25.4-40.6l12.5,12.6c1,1,2.3,1.5,3.6,1.5c1,0,2-0.3,2.9-0.9l23.2-16.6c2.2-1.6,2.8-4.7,1.2-7
			c-1.2-1.7-3.2-2.4-5.1-2c-0.7,0.1-1.3,0.4-1.9,0.8l-19.8,14.1l-10.4-10.6l31.6-6.2c0,0,0,0,0.1,0c2.7-0.6,4.4-3.2,3.9-5.8
			c-0.5-2.7-3.2-4.5-5.9-3.9l-32.8,6.4c5.9-15.6,19.7-28.5,38.5-34.8c11-3.7,21.2-5.6,30.4-5.6C207,120.9,217.6,129.8,221.9,134.8z"
			/>
		<path fill="#5980B7" d="M50,149.9c1,0,1.8-0.1,2.7-0.2c3.8-0.5,6.9-2,9.7-3.3c3-1.3,5.6-2.5,8.4-2.5c1.3,0,2.5,0.3,3.8,0.8
			c0.4,0.2,0.9,0.3,1.4,0.3c0,0,0,0,0,0c2.2,0,4-1.8,4-4c0-0.3,0-0.6-0.1-0.9c-1.4-7.9-17.2-19.7-29.6-19.7
			c-7.3,0-12.8,3.9-15.5,11.1c-1.6,4.3-1.1,8.6,1.3,12C38.9,147.4,44,149.9,50,149.9L50,149.9z M42.6,138.9c-0.9-1.3-1-2.8-0.3-4.7
			c1.5-4,4-5.9,8-5.9c6.2,0,13.1,4.2,17.5,7.9c-3.2,0.5-6,1.8-8.7,3c-2.6,1.2-5,2.2-7.7,2.6c-0.5,0.1-1.1,0.1-1.7,0.1
			C46.7,141.9,43.9,140.7,42.6,138.9z"/>
		<path fill="#5980B7" d="M68.9,119c2.8,2.4,5.6,4.8,6.5,7.8c0.5,1.7,2.1,2.9,3.8,2.9c0,0,0.1,0,0.1,0c1.8-0.1,3.4-1.3,3.8-3.1
			c0.4-1.8,3.5-17.2-2.6-24.8c-2.2-2.7-5.3-3.8-9-3.8c0,0-0.1,0-0.1,0c-4.1,0-7.4,1.5-9.1,4.7c-1.7,3.3-1.3,7.2,1,10.6
			C64.7,115.5,66.8,117.2,68.9,119z M69.3,106.1c0.3-0.6,1.6-0.7,2.1-0.7c1.6,0,2.3,0.6,2.8,1.2c1.3,1.6,1.9,4.8,2,8.2
			c-0.7-0.7-1.4-1.3-2.1-1.9c-1.7-1.5-3.3-2.9-4.2-4.1C69.2,107.7,69.1,106.6,69.3,106.1z"/>
	</g>
</g>
</svg>
