<?xml version="1.0" encoding="utf-8"?>
<!-- Generator: Adobe Illustrator 18.1.1, SVG Export Plug-In . SVG Version: 6.00 Build 0)  -->
<svg version="1.1" id="Layer_1" xmlns="http://www.w3.org/2000/svg" xmlns:xlink="http://www.w3.org/1999/xlink" x="0px" y="0px"
	 viewBox="0 0 300 300" enable-background="new 0 0 300 300" xml:space="preserve">
<g>
	<path fill="#CCCCCC" d="M183.4,15.4c-0.3-0.1-0.5-0.1-0.8-0.2c10.1,5.7,20.7,14.8,23.1,20.6c1.4,3.3,0.8,6.6-1.4,8.8
		c-1,1-2.9,2.2-5.8,2.2c-3.9,0-9-2.1-17.1-5.6c-1.4-0.6-2.9-1.3-4.5-1.9c0.2,0.1,0.4,0.3,0.5,0.4c7.8,5.3,17.4,11.8,23.6,20.3
		c6.3,8.7,12.7,14.4,17,17.6c4.8-3.2,10.7-5,15.3-5.1C228.9,41.1,195.8,18.1,183.4,15.4z"/>
	<path fill="#FFFFFF" d="M216.7,118.6c-1.4,1.4-2.8,3.3-3.9,5.6c3.2,3.3,5.9,6.8,7.6,10.7c2.7-0.7,5.4-1.3,8.1-1.8
		c0.7-0.9,1.3-1.9,1.8-2.9C224.3,129.3,219.9,124.5,216.7,118.6z"/>
	<path fill="#FFFFFF" d="M232,118L232,118c3.1,0,13.3-10.2,14.1-21.4c0.3-3.4-0.6-6-2.5-8.1c-2.6-2.8-6.7-4-9.7-4
		c-3.5,0-8.9,2-11.5,5.1c-1.3,1.6-1.3,2.6-1.2,3.3C223.4,107.3,229.3,118,232,118z"/>
	<path fill="#CCCCCC" d="M97.1,60c6.1-8.5,15.8-15,23.6-20.3c0.2-0.1,0.4-0.2,0.6-0.4c-1.5,0.7-3.1,1.4-4.5,2
		c-8,3.5-13.1,5.7-17.1,5.7c0,0,0,0,0,0c-3,0-4.8-1.3-5.8-2.3c-2.2-2.2-2.8-5.6-1.4-8.8c2.4-5.8,13-14.9,23.1-20.6
		c-0.3,0-0.5,0.1-0.8,0.2c-12.4,2.7-45.6,25.7-49.9,57.1c4.6,0.1,10.5,1.9,15.3,5.1C84.4,74.4,90.9,68.7,97.1,60z"/>
	<path fill="#FFFFFF" d="M83.1,120.3c-0.5-0.6-1-1.2-1.5-1.8c-3.2,5.9-7.6,10.8-13.6,11.6c1.4,2.8,3.7,5.4,6.1,7.6
		C74.8,132.4,77.2,126.3,83.1,120.3z"/>
	<path fill="#FFFFFF" d="M66.2,118.3c2.7,0,8.6-10.8,10.9-25.2c0.1-0.7,0.1-1.9-1.2-3.4c-2.6-3.1-8.1-5.1-11.5-5.1
		c-2.9,0-7.1,1.3-9.7,4.1c-2,2.1-2.8,4.8-2.5,8.2C53,108,63.1,118,66.2,118.3L66.2,118.3z"/>
	<path fill="#FFFFFF" d="M189.7,121.2c-1.7-1.2-3.6-2.2-5.5-3.2c-1.9,0.6-3.8,0.9-5.9,0.9c-6.3,0-11.9-2.8-15.8-7.3
		c-8.8-1.4-16.3-1.6-18.7-1.6c-0.2,0-0.4,0-0.5,0c-3.1,0.4-6,0.9-8.8,1.4c-3.8,4.6-9.5,7.5-15.9,7.5c-2.7,0-5.2-0.5-7.6-1.5
		c-15.5,5.6-24.2,13.4-25.1,22.7c3.8-0.3,7.7-0.4,11.6-0.4c20.3,0,41.7,3.9,63.5,11.6c8.9-2.7,19.3-4.5,28.9-4.5
		c1.1,0,2.2,0,3.3,0.1c5.1-3.1,10.3-5.8,15.6-8C206.4,134.1,200.7,128.6,189.7,121.2z"/>
	<path fill="#FFFFFF" d="M178.3,106.9c4.8,0,8.7-3.9,8.7-8.7s-3.9-8.7-8.7-8.7s-8.7,3.9-8.7,8.7S173.5,106.9,178.3,106.9z"/>
	<path fill="#FFFFFF" d="M118.6,106.9c4.8,0,8.7-3.9,8.7-8.7s-3.9-8.7-8.7-8.7s-8.7,3.9-8.7,8.7S113.8,106.9,118.6,106.9z"/>
	<path fill="#FFFFFF" d="M35.1,164.7c-4.1,2-6.8,5.1-7.5,8.4c-0.6,2.6,0.2,5.3,2.2,7.6l38.8,46.8c3.2,3.8,9,6.3,15.2,6.4l-21.6-79.4
		C52.8,157,43.8,160.4,35.1,164.7z"/>
	<path fill="#FFFFFF" d="M137.4,171l-16,50.8c5.9-2.7,13.1-5,20.6-5c0.6,0,1.2,0,1.7,0.1l0.5-0.6c0.7-8.4,3.5-17.3,8-26.1
		C145.4,184.5,138.6,177.5,137.4,171z"/>
	<path fill="#FFFFFF" d="M140.6,161c0.3-0.3,0.6-0.5,0.9-0.8c1.2-0.9,2.6-1.9,4.3-2.8c-1.2-0.4-2.5-0.7-3.7-1L140.6,161z"/>
	<path fill="#FFFFFF" d="M131.8,153.9c-11.7-2.5-23.2-3.7-34.3-3.7c-8.5,0-16.9,0.7-25.1,2.2L94.6,234h9.8c0.3-1,1-2.2,1.9-3
		c0.1-0.1,0.7-0.5,1.6-1.2L131.8,153.9z"/>
	<path fill="#CCCCCC" d="M110.4,245C110.4,245,110.4,245,110.4,245H90.6c0,0,0,0,0,0c0,0,0,0,0,0h-6.1H73.3l-10.8,17.5
		c0.3,0.5,1.9,1.5,4.4,1.5h65.5c2.7,0,4.3-1.4,4.5-1.9l-3-7.7c-5-4.1-11.3-7.4-16.6-9.4H110.4C110.4,245,110.4,245,110.4,245z"/>
	<path fill="#FFFFFF" d="M149.3,169.3c0.6,2.2,4.3,6.1,9.4,10.4c4.8-6.9,10.6-13.6,17.3-19.7C164.1,162.1,153.4,166.1,149.3,169.3z"
		/>
	<path fill="#FFFFFF" d="M224,262c3.7-3.2,9.2-11.5,13.6-21.4c-6.9,4.7-14,8.5-21.1,11.4C219.4,257.2,222.2,261.1,224,262z"/>
	<path fill="#FFFFFF" d="M204.1,181c-1.6-2.9-0.6-6.5,2.3-8.2c2.9-1.6,6.5-0.6,8.2,2.3c0.2,0.4,16.6,29.1,42.8,28.5
		c9.2-14.6,13.1-29.7,13.7-39l-10.2,1.8c-2.3,0.4-4.6-0.5-5.9-2.4c-1.3-1.9-1.5-4.4-0.3-6.4l5.5-9.8c-5-2.6-11.3-3.9-18.5-3.9
		c-17.2,0-36.2,7.4-52.2,20.3c-21.5,17.3-34.8,41.1-33.2,59.3c0.2,2-0.6,3.9-2.2,5.2c-1.5,1.3-3.6,1.7-5.5,1.1
		c-2-0.6-4.2-0.9-6.5-0.9c-6.7,0-13.4,2.6-18.6,5.3c7.8,3.4,17.8,8.9,24.3,16.9c5.9,7.4,9.2,17.2,11,25.2c4.2-6.7,8.2-15.8,7.1-25
		c-0.2-2,0.6-4,2.1-5.3c1.6-1.3,3.7-1.7,5.6-1.1c3.6,1.1,7.6,1.7,11.9,1.7c16.4,0,36.3-8.1,53-21.5c3.9-3.1,7.3-6.5,10.4-10
		C220.9,210.6,204.9,182.4,204.1,181z M239.2,158.7c2.7,3.4,2.2,8.3-1.2,11c-3.4,2.7-8.3,2.2-11-1.2c-2.7-3.4-2.2-8.3,1.2-11
		S236.5,155.3,239.2,158.7z"/>
	<g>
		<path fill="#5980B7" d="M282.8,156.5c-0.3-1.6-1.1-3-2.5-3.9c-1.3-0.9-2.9-1.3-4.5-1l-4.5,0.8l2.1-3.7c1.4-2.6,0.8-5.8-1.5-7.6
			c-7.4-5.9-17.6-9.1-29.3-9.2c0.8-2.3,1.3-4.7,1.4-7c7.3-6.3,13.4-17.1,14.1-27.2c0.5-6.7-1.5-12.7-5.7-17.2c-2-2.1-4.3-3.8-6.6-5
			c-1.3-20.8-12.8-37.2-22.7-47.6c-13.3-14-28.6-22.4-37.1-24.2c-2.5-0.5-5-0.8-7.6-0.8c-9.8,0-20,4.4-20,11.6
			c0,2.8,1.6,5.3,4.3,6.6c1.5,0.7,3.3,1,5.4,1c2.5,0,7.2,2.4,12.1,5.6c-5.8-2.4-11-4.2-15.3-4.2c-5.4,0-7.8,2.9-8.7,4.7
			c-1.3,2.5-2.6,7.5,3.6,13.4c2.7,2.6,6.5,5.2,10.9,8.1c7,4.7,15.7,10.6,20.6,17.4c6.8,9.4,13.9,15.8,18.8,19.7
			c-1.1,2.6-1.4,5.4-0.9,8.2c0.3,2,1.1,6.7,2.7,12c-3.3,2.2-6.1,5.4-8.5,9.3c-2.3-1.7-4.7-3.4-7-5c-0.4-0.3-0.9-0.6-1.4-0.9
			c2.5-3.4,4-7.6,4-12.2c0-11.4-9.3-20.7-20.7-20.7s-20.7,9.3-20.7,20.7c0,0.2,0,0.4,0,0.7c-6.1-0.7-11.1-0.8-13.8-0.8
			c-0.7,0-1.1,0-1.1,0c-0.2,0-0.4,0-0.6,0c-1,0.1-1.9,0.3-2.8,0.4c0-0.1,0-0.2,0-0.3c0-11.4-9.3-20.7-20.7-20.7s-20.7,9.3-20.7,20.7
			c0,3.8,1.1,7.4,2.9,10.5c-3.1,1.4-5.8,2.8-8.2,4.3c-1.9-2.5-4-4.5-6.3-6.1c1.6-5.3,2.4-10,2.7-12c0.4-2.8,0.1-5.6-0.9-8.2
			c5-3.9,12-10.3,18.8-19.7c4.9-6.8,13.6-12.7,20.6-17.4c4.4-3,8.2-5.5,10.9-8.1c6.2-5.9,5-10.9,3.6-13.4c-0.9-1.8-3.3-4.7-8.7-4.7
			c-4.2,0-9.5,1.8-15.2,4.2c4.8-3.1,9.6-5.6,12.1-5.6c9.5,0,9.8-6.9,9.8-7.7c0-7.3-10.2-11.6-20-11.6c-2.5,0-5.1,0.3-7.6,0.8
			c-8.5,1.8-23.7,10.2-37.1,24.2c-9.9,10.4-21.4,26.8-22.7,47.6c-2.4,1.2-4.7,2.8-6.6,5C41.6,85,39.7,91,40.2,97.7
			c0.7,10.1,6.9,20.9,14.1,27.2c0.2,3.5,1.1,7.2,3,10.7c1.4,2.8,3.4,5.5,5.7,8c-11.3,2.6-22.1,6.5-32.6,11.8
			c-7,3.5-11.8,9.2-13.1,15.7c-1.2,5.8,0.3,11.6,4.4,16.5l38.8,46.8c1.3,1.5,2.7,2.9,4.4,4.1L53,257.5c-0.2,0.3-0.3,0.6-0.5,1
			c-1.2,3.3-0.7,6.7,1.4,9.6c2.7,3.8,7.5,5.9,13,5.9h65.5c4.8,0,9.1-1.6,11.9-4.6c0,0,0,0.1,0,0.1c3.9,10.5,4.5,21.8,4.5,21.9
			c0.1,2.4,1.6,4.4,3.8,5.3c0.7,0.3,1.4,0.4,2.2,0.4c1.6,0,3.1-0.6,4.2-1.7c0.8-0.8,17-17.1,18.8-37.3c2.5,0.3,5,0.5,7.6,0.5
			c6.3,0,12.8-0.9,19.5-2.7c6.5,12.5,12.6,18.3,19.2,18.3c0,0,0,0,0,0c2.5,0,4.9-0.9,7-2.6c8.1-6.5,19.9-26.5,23.7-45.4
			C278.2,201.9,284.9,169.4,282.8,156.5z M246.1,96.6c-0.8,11.2-11,21.4-14.1,21.4h0c-2.7,0-8.6-10.7-10.9-25
			c-0.1-0.7-0.1-1.7,1.2-3.3c2.6-3.1,8.1-5.1,11.5-5.1c2.9,0,7.1,1.2,9.7,4C245.5,90.7,246.3,93.3,246.1,96.6z M201.1,60
			c-6.1-8.5-15.8-15-23.6-20.3c-0.2-0.1-0.4-0.2-0.5-0.4c1.5,0.7,3.1,1.3,4.5,1.9c8,3.5,13.1,5.6,17.1,5.6c3,0,4.8-1.2,5.8-2.2
			c2.2-2.2,2.8-5.5,1.4-8.8c-2.4-5.8-13-14.9-23.1-20.6c0.3,0,0.5,0.1,0.8,0.2c12.4,2.7,45.6,25.7,49.9,57.1
			c-4.6,0.1-10.5,1.9-15.3,5.1C213.8,74.4,207.3,68.7,201.1,60z M216.7,118.6c3.2,5.9,7.6,10.8,13.6,11.6c-0.5,1-1.1,2-1.8,2.9
			c-2.7,0.5-5.4,1.1-8.1,1.8c-1.7-3.9-4.4-7.4-7.6-10.7C213.9,121.9,215.2,120,216.7,118.6z M178.3,89.4c4.8,0,8.7,3.9,8.7,8.7
			s-3.9,8.7-8.7,8.7s-8.7-3.9-8.7-8.7S173.5,89.4,178.3,89.4z M118.6,89.4c4.8,0,8.7,3.9,8.7,8.7s-3.9,8.7-8.7,8.7s-8.7-3.9-8.7-8.7
			S113.8,89.4,118.6,89.4z M111,117.5c2.4,0.9,4.9,1.5,7.6,1.5c6.4,0,12.1-2.9,15.9-7.5c2.8-0.5,5.8-1,8.8-1.4c0.1,0,0.3,0,0.5,0
			c2.4,0,9.9,0.1,18.7,1.6c3.8,4.4,9.5,7.3,15.8,7.3c2,0,4-0.3,5.9-0.9c1.9,0.9,3.8,2,5.5,3.2c11,7.4,16.7,12.8,19.1,17.5
			c-5.3,2.2-10.5,4.9-15.6,8c-1.1-0.1-2.2-0.1-3.3-0.1c-9.6,0-20,1.9-28.9,4.5c-21.8-7.7-43.2-11.6-63.5-11.6
			c-3.9,0-7.7,0.2-11.6,0.4C86.8,130.9,95.5,123.1,111,117.5z M143.8,216.9c-0.6,0-1.2-0.1-1.7-0.1c-7.5,0-14.7,2.3-20.6,5l16-50.8
			c1.2,6.5,8,13.5,14.9,19.2c-4.5,8.8-7.3,17.6-8,26.1L143.8,216.9z M145.7,157.4c-1.7,0.9-3.2,1.9-4.3,2.8
			c-0.3,0.2-0.6,0.5-0.9,0.8l1.5-4.6C143.2,156.7,144.5,157,145.7,157.4z M149.3,169.3c4.2-3.2,14.8-7.3,26.6-9.3
			c-6.7,6.1-12.5,12.8-17.3,19.7C153.5,175.4,149.8,171.5,149.3,169.3z M83.1,120.3c-5.9,5.9-8.3,12.1-9,17.4
			c-2.5-2.2-4.7-4.8-6.1-7.6c6-0.8,10.4-5.6,13.6-11.6C82.1,119.1,82.6,119.7,83.1,120.3z M114.8,15.4c0.3-0.1,0.5-0.1,0.8-0.2
			c-10.1,5.7-20.7,14.8-23.1,20.6c-1.4,3.3-0.8,6.6,1.4,8.9c1,1,2.9,2.3,5.8,2.3c0,0,0,0,0,0c3.9,0,9-2.2,17.1-5.7
			c1.4-0.6,2.9-1.3,4.5-2c-0.2,0.1-0.4,0.2-0.6,0.4C112.9,45,103.3,51.6,97.1,60c-6.3,8.7-12.7,14.4-17,17.6
			c-4.8-3.2-10.7-5-15.3-5.1C69.3,41.1,102.4,18.1,114.8,15.4z M52.1,96.8c-0.3-3.4,0.6-6.1,2.5-8.2c2.6-2.8,6.7-4.1,9.7-4.1
			c3.5,0,8.9,2.1,11.5,5.1c1.3,1.6,1.3,2.7,1.2,3.4c-2.3,14.4-8.2,25.2-10.9,25.2v0C63.1,118,53,108,52.1,96.8z M64.3,143
			C64.3,143,64.3,143,64.3,143c0.1,0,0.1,0.1,0.2,0.1c0.2-0.1,0.4,0,0.6,0c2.6-0.4,5.2,1.2,5.9,3.8l1.5,5.5
			c8.2-1.5,16.6-2.2,25.1-2.2c11.1,0,22.6,1.3,34.3,3.7l-23.9,75.9c-0.9,0.7-1.5,1.1-1.6,1.2c-0.9,0.8-1.6,1.8-1.9,3
			c-0.1,0.5-0.2,1-0.2,1.5c0-0.5,0.1-1.5,0.2-1.5h-9.8l1.1,3.9c0.1,0.4,0.2,0.8,0.2,1.2c0-0.3-0.1-0.7-0.2-1l-1.1-3.9l-22.2-81.7
			l-1.5-5.5c-0.7-2.6-3.3-4.2-5.9-3.8c-0.2,0-0.4,0-0.6,0.1c-0.1,0-0.1,0-0.2,0.1c-2.3,0.7-3.8,2.8-3.7,5.2
			C60.4,146.1,61.9,144,64.3,143z M29.7,180.8c-2-2.4-2.7-5-2.2-7.6c0.7-3.3,3.4-6.4,7.5-8.4c8.7-4.3,18-7.7,27-10.1v0L83.7,234
			h-0.6c-6-1-11.6-2.7-14.6-6.4L29.7,180.8z M132.4,264H66.9c-2.5,0-4.1-1-4.4-1.5L73.3,245h11.2h6.1c0,0,0,0,0,0c0,0,0,0,0,0h19.8
			c0,0,0,0,0,0c0,0,0,0,0,0h6.9c-1.2-1-2.4-1-3.4-1.4c-0.8,0.7-1.8,1.1-2.8,1.3c1.1-0.2,2.1-0.8,2.8-1.5c-2.2-0.8-4-1.5-5.3-1.8
			c-1.4-0.4-2.6-1.2-3.4-2.4c0,0,0,0,0-0.1c-0.4-0.6-0.7-1.4-0.9-2.2c0,0,0-0.1,0-0.1c0,0,0,0.1,0,0.1c0.2,0.8,0.5,1.5,0.9,2.1
			c0.8,1.2,2,2,3.4,2.4c1.3,0.3,3.1,0.9,5.3,1.7c1.1,0.4,2.2,0.8,3.4,1.3c5.3,2.2,11.6,5.4,16.6,9.5l3,8
			C136.7,262.6,135.1,264,132.4,264z M140.7,261.9c0.1,0.2,0.2,0.4,0.4,0.6C141,262.4,140.9,262.1,140.7,261.9z M138.4,258.6
			c0.5,0.7,1,1.4,1.5,2.1C139.4,260,138.9,259.3,138.4,258.6z M224,262c-1.9-1-4.6-4.8-7.5-10c7.1-2.9,14.3-6.7,21.1-11.4
			C233.2,250.5,227.7,258.8,224,262z M257.4,203.7c-26.2,0.6-42.6-28.1-42.8-28.5c-1.6-2.9-5.3-3.9-8.2-2.3
			c-2.9,1.6-3.9,5.3-2.3,8.2c0.8,1.4,16.8,29.5,44.8,34c-3.1,3.5-6.5,6.9-10.4,10c-16.7,13.5-36.5,21.5-53,21.5
			c-4.3,0-8.4-0.6-11.9-1.7c-1.9-0.6-4.1-0.2-5.6,1.1c-1.6,1.3-2.4,3.3-2.1,5.3c1.1,9.2-2.9,18.3-7.1,25c-1.8-8.1-5-17.9-11-25.2
			c-6.5-8-16.4-13.5-24.3-16.9c5.2-2.7,11.8-5.3,18.6-5.3c2.3,0,4.5,0.3,6.5,0.9c1.9,0.6,4,0.2,5.5-1.1c1.5-1.3,2.4-3.2,2.2-5.2
			c-1.6-18.2,11.7-42,33.2-59.3c16-12.9,35-20.3,52.2-20.3c7.2,0,13.5,1.3,18.5,3.9l-5.5,9.8c-1.1,2-1,4.5,0.3,6.4
			c1.3,1.9,3.7,2.8,5.9,2.4l10.2-1.8C270.5,174,266.6,189.1,257.4,203.7z"/>
		<circle fill="#5980B7" cx="233.1" cy="163.6" r="7.8"/>
	</g>
</g>
</svg>
