<?xml version="1.0" encoding="utf-8"?>
<!-- Generator: Adobe Illustrator 18.1.1, SVG Export Plug-In . SVG Version: 6.00 Build 0)  -->
<svg version="1.1" id="Layer_1" xmlns="http://www.w3.org/2000/svg" xmlns:xlink="http://www.w3.org/1999/xlink" x="0px" y="0px"
	 viewBox="0 0 300 300" enable-background="new 0 0 300 300" xml:space="preserve">
<g>
	<g>
		<path fill="none" d="M162.9,194.4c0.1-0.1,0.3-0.2,0.2-0.6c-0.8-3.5-8.1-8.9-14.1-13.1v15C155,197.6,160.5,197.8,162.9,194.4z"/>
		<path fill="none" d="M233.9,121h-91.4l-0.9,11.7c-0.2,2.3-2.1,4.3-4.5,4.3h-4.5c-3.7,0-18.7,3.4-19.1,10.9c0,0.4,0,1.1,0,1.1h30.7
			c2.5,0,4.9,1.7,4.9,4.2v16.9c6,3.6,20.8,12.7,22.9,21.6c0,0.2,0.1,0.3,0.1,0.5v-38.7c0-2.5,1.6-3.5,4.1-3.5h8.9v-14.1
			c0-2.5,2-3.9,4.5-3.9H244v-30h-6v14.2C238,118.7,236.3,121,233.9,121z"/>
		<polygon fill="#FFFFFF" points="229,85 145.2,85 143.1,112 229,112 		"/>
		<rect x="181" y="159" fill="#CDCCCC" width="18" height="76"/>
		<path fill="#FFFFFF" d="M104.4,147.4c0.8-14.8,22.1-19.4,28.1-19.4h0.4l0.6-8H66.4l1,8.2c7.3,1.2,24.5,5.6,25.2,19.1
			c0,0.6,0,1.8,0,1.8h11.6C104.4,149,104.4,148,104.4,147.4z"/>
		<path fill="#FFFFFF" d="M135.3,97l2.6-34h-19.4l-0.7,20.1c-0.1,2.4-2.1,4.2-4.5,4.2c0,0-0.1-0.1-0.1-0.1c-2.5-0.1-4.4-1.9-4.4-4.4
			l0.6-19.9h-24l0.7,10.3c0.2,2.5-1.7,4.5-4.2,4.7c-0.1,0-0.2-0.1-0.3-0.1c-2.3,0-4.3-1.6-4.5-3.9L76.4,63h-17l4.1,34H135.3z"/>
		<polygon fill="#CDCCCC" points="134.1,111 134.5,106 64.8,106 65.4,111 		"/>
		<path fill="#FFFFFF" d="M139.6,191.8c0.1,0.1-0.6,0.1,0.4,0.2v-2.5C139,190.3,139.8,191,139.6,191.8z"/>
		<path fill="#FFFFFF" d="M105.3,187.7c0-9.1,7.9-16.5,17.4-16.5c8.9,0,16.3,6.5,17.3,14.7v-21.6l-46,10.2v17.4
			c0,6.6-5.3,11.8-12,11.8s-12-5.2-12-11.8V177h-0.1c-0.9,6-5.3,9.5-11.2,9.5c-0.6,0-1.7-0.3-1.7-0.4v40.2c0,6.1,4.6,11.7,10.8,11.7
			h60.6c6.1,0,11.6-5.6,11.6-11.7v-24.4c-2-0.7-3.7-1.5-5.3-2.4c-3.1,2.9-7.4,4.7-12.1,4.7C113.1,204.2,105.3,196.8,105.3,187.7z"/>
		<path fill="#FFFFFF" d="M122.5,180.3c-4.5,0-8.2,3.4-8.2,7.5s3.7,7.5,8.2,7.5c1.1,0,2.2-0.2,3.2-0.6c-2.4-1.5-4.2-2.7-4.8-3.2
			c-2-1.4-2.5-4.2-1.1-6.3c1.4-2,4.2-2.5,6.3-1.1c1.3,0.9,2.9,2,4.6,3C130.2,183.3,126.7,180.3,122.5,180.3z"/>
		<path fill="#CDCCCC" d="M56,160v14.5c0,0.7,0.2,2.8,2.5,2.8s2.5-2.2,2.5-2.8v-2.5c0-2.5,2-3.9,4.5-3.9h9c2.5,0,4.5,1.5,4.5,3.9
			v20.2c0,1.6,1.3,2.8,3,2.8s3-1.2,3-2.8v-21c0-2.1,1.5-3.6,3.5-4.1l32.2-7H56z"/>
	</g>
	<path fill="#5A81B8" d="M248.5,93h-10.1H238V80.2c0-2.5-1.7-4.2-4.1-4.2h-88l1.3-17.4c0.1-1.2-0.3-2.3-1.2-3.3
		c-0.9-0.9-2-1.3-3.3-1.3H54.4c-1.3,0-2.5,0.3-3.4,1.2c-0.9,1-1.3,2.1-1.1,3.4l9,74.2c0.3,2.3,2.2,4.2,4.5,4.2h0.2
		c5.3,0,19.7,3.5,20.1,10.9c0,0.4,0,1.1,0,1.1H52.1c-2.2,0-4,1.7-4.4,3.8c0,0,0-0.1-0.1,0c-0.4,0.7-0.7,1.4-0.7,2.2v19.5
		c0,1.4,0.2,2.7,0.6,4c0.1,0.3,0.2,0.6,0.4,0.9v46.9c0,11.1,8.7,20.7,19.8,20.7h60.6c11.1,0,20.6-9.6,20.6-20.7v-12.7V205
		c2.6,0.6,5.1,1,7.5,1c5.4,0,10.2-1.7,13.5-6.4c0.8-1.1,1.3-2.3,1.6-3.6c0.2-1.2,0.2-2.5,0-3.8c0-0.2-0.1-0.3-0.1-0.5
		c-2.1-8.7-16-17.6-22.5-21.3v-0.3v-10.7v-6.3c0-2.5-2.5-4.2-4.9-4.2h-30.7c0,0,0-0.7,0-1.1c0.4-7.5,15.4-10.9,19.1-10.9h4.5
		c2.4,0,4.3-2.1,4.5-4.4l0.9-11.5l0-0.1h91.4c2.5,0,4.1-2.3,4.1-4.8V102h0.4h5.6v30h-54.5c-2.5,0-4.5,1.5-4.5,3.9V150h-8.9
		c-2.5,0-4.1,1-4.1,3.5v38.7c0,1.3,0,2.6,0,3.8v43c0,2.5,1.6,5,4.1,5h27.4c2.5,0,4.5-2.5,4.5-5v-85.5c0-2.5-2-3.5-4.5-3.5H194v-9
		h54.5c2.5,0,4.5-2.6,4.5-5.1v-39C253,94.5,251,93,248.5,93z M149,195.6v-14.7c6.5,4.2,13,9.5,13.8,12.9c0.1,0.4,0,0.5-0.1,0.6
		c-2.4,3.4-7.7,3.2-13.7,1.4V195.6z M147,159.2c0,0.1,0,0.2,0,0.3h0C147,159.3,147,159.2,147,159.2z M140,164.3L140,164.3v6.7
		c-0.5,1.2-0.5,2.4,0,3.5V186v3.5v2.5v0.2c-0.1-0.1-0.3-0.1-0.4-0.2c-0.1-0.1-0.3-0.1-0.4-0.2c0.2-0.7,0.4-1.5,0.4-2.3
		c0.1-0.6,0.1-1.2,0.1-1.7c0-0.6,0-1.2-0.1-1.7c-0.9-8.3-8.2-14.7-17.1-14.7c-9.5,0-17.2,7.4-17.2,16.5c0,9.1,7.7,16.5,17.2,16.5
		c4.7,0,8.9-1.8,12-4.7c1.6,0.8,3.3,1.6,5.1,2.4c0.1,0.1,0.3,0.1,0.4,0.2v11.6v12.7c0,6.1-5.4,11.7-11.6,11.7H67.8
		c-6.1,0-10.8-5.6-10.8-11.7v-40.1c0.5,0.1,1,0.4,1.5,0.4c5.9,0,10.5-3.5,11.4-9.5H70v15.1c0,6.6,5.3,11.8,12,11.8s12-5.2,12-11.8
		v-17.4l45.6-10.2L140,164.3z M120.8,191.4c0.7,0.5,2.4,1.7,4.8,3.2c-1,0.4-2.1,0.6-3.2,0.6c-4.5,0-8.2-3.3-8.2-7.5s3.7-7.5,8.2-7.5
		c4.3,0,7.8,3,8.1,6.8c-1.7-1-3.3-2.1-4.6-3c-2-1.4-4.8-0.9-6.3,1.1C118.3,187.2,118.8,190,120.8,191.4z M120.7,160l-32.2,7
		c-2.1,0.5-3.5,2-3.5,4.1v21c0,1.6-1.3,2.8-3,2.8s-3-1.2-3-2.8v-20.2c0-2.5-2-3.9-4.5-3.9h-9c-2.5,0-4.5,1.5-4.5,3.9v2.5
		c0,0.7-0.2,2.8-2.5,2.8s-2.5-2.2-2.5-2.8V160H120.7z M132.9,128h-0.4c-6,0-27.3,4.6-28.1,19.4c0,0.6,0,1.6-0.1,1.6H92.7
		c0,0,0-1.3,0-1.9c-0.7-13.4-17.9-17.6-25.2-18.8l-1-8.3h67.1L132.9,128z M134.1,111H65.4l-0.6-5h69.7L134.1,111z M135.3,97H63.6
		l-4.1-34h17l0.8,10.9c0.2,2.4,2.1,4,4.5,4c0.1,0,0.2-0.1,0.3-0.1c2.5-0.2,4.3-2.1,4.2-4.6L85.5,63h24l-0.6,19.8
		c-0.1,2.5,1.9,4.4,4.4,4.5c0,0,0.1-0.1,0.1-0.1c2.4,0,4.4-1.7,4.5-4.1l0.7-20.2h19.4L135.3,97z M229,112h-85.9l2-26.7l0-0.3H229
		V112z M199,159v76h-18v-76H199z"/>
</g>
</svg>
