<?xml version="1.0" encoding="utf-8"?>
<!-- Generator: Adobe Illustrator 18.1.1, SVG Export Plug-In . SVG Version: 6.00 Build 0)  -->
<svg version="1.1" id="Layer_1" xmlns="http://www.w3.org/2000/svg" xmlns:xlink="http://www.w3.org/1999/xlink" x="0px" y="0px"
	 viewBox="0 0 300 300" enable-background="new 0 0 300 300" xml:space="preserve">
<g>
	<path fill="#FFFFFF" d="M168.9,175.1l-3.2-1.2c-1.8-0.7-2.7-2.7-2-4.6c0.5-1.3,1.7-2.1,3-2.2l-19-67.5c-0.7,1-1.9,1.7-3.3,1.7
		c-0.5,0-0.9-0.1-1.3-0.2l-17.7,65.1l1.7-0.6c1.9-0.6,3.9,0.4,4.5,2.3c0.6,1.9-0.4,3.9-2.3,4.5l-6.2,1.9L108.2,229h75.9L168.9,175.1
		z M140,114.3c0-2.2,1.8-4,4-4s4,1.8,4,4v8c0,2.2-1.8,4-4,4s-4-1.8-4-4V114.3z M140,139.3c0-2.2,1.8-4,4-4s4,1.8,4,4v8
		c0,2.2-1.8,4-4,4s-4-1.8-4-4V139.3z M154.4,165.8c-0.5,1.4-1.9,2.3-3.3,2.3c-0.4,0-0.9-0.1-1.3-0.2l-3-1.2l-1.2,0.4
		c-1.9,0.6-3.9-0.4-4.5-2.3c-0.6-1.9,0.4-3.9,2.3-4.5l2.5-0.8c0.8-0.3,1.6-0.2,2.4,0.1l4.2,1.6C154.2,161.9,155.1,163.9,154.4,165.8
		z"/>
	<path fill="#FFFFFF" d="M223.8,194.6l-1.7-2.7c0,0.1,0,0.1-0.1,0.2c-0.5,1.4-1.9,2.3-3.3,2.3c-0.4,0-0.9-0.1-1.3-0.2l-6.6-2.6
		c-1.8-0.7-2.7-2.8-2-4.6c0.7-1.8,2.8-2.7,4.6-2l5.7,2.2l-62.3-97l37.7,134.1L223.8,194.6z M186.2,178.2c0.7-1.8,2.8-2.7,4.6-2
		l6.6,2.6c1.8,0.7,2.7,2.8,2,4.6c-0.5,1.4-1.9,2.3-3.3,2.3c-0.4,0-0.9-0.1-1.3-0.2l-6.6-2.6C186.4,182.1,185.5,180,186.2,178.2z"/>
	<path fill="#CCCCCC" d="M81.1,180.8c1.9-0.6,3.9,0.4,4.5,2.3c0.6,1.9-0.4,3.9-2.3,4.5l-6.5,2.2l21.7,32L132.1,98l-52,83.1
		L81.1,180.8z M97.3,175.4l6.8-2.2c1.9-0.6,3.9,0.4,4.5,2.3c0.6,1.9-0.4,3.9-2.3,4.5l-6.8,2.2c-0.4,0.1-0.7,0.2-1.1,0.2
		c-1.5,0-2.9-0.9-3.4-2.4C94.4,178.1,95.5,176.1,97.3,175.4z"/>
	<g>
		<path fill="#5980B7" d="M235.5,192.5l-84.1-131c-1-1.6-2.8-2.4-4.6-2.4c0,0,0,0,0,0c-1.4,0-2.9,0.6-3.9,1.4
			c-1.5,0.6-2.8,2.2-2.8,3.9v0l-75.7,121c-1.2,1.8-1,4.2,0.2,6l30.4,44.9c0.3,2.2,1.9,3.9,4.2,4.5c1.6,0.4,3.2,0.2,4.5-0.8h85.2
			c0.9,1,1.9,1,2.9,1c0.5,0,1,0,1.5-0.1c1.9-0.5,3.4-2,3.9-3.8l37.5-37.9C236.6,197.4,236.9,194.6,235.5,192.5z M98.4,221.7
			l-21.7-32l6.5-2.2c1.9-0.6,2.9-2.6,2.3-4.5c-0.6-1.9-2.6-2.9-4.5-2.3l-1,0.3l52-83.1L98.4,221.7z M108.2,229l14.9-54.7l6.2-2
			c1.9-0.6,2.9-2.6,2.3-4.5c-0.6-1.9-2.6-2.9-4.5-2.2l-1.7,0.6l17.7-65.1c0.4,0.1,0.9,0.2,1.3,0.2c1.3,0,2.5-0.7,3.3-1.7l19,67.5
			c-1.3,0.1-2.5,0.9-3,2.2c-0.7,1.8,0.2,3.9,2,4.6l3.2,1.1l15.2,53.9H108.2z M194.5,224.2L156.8,90.1l62.3,97l-5.7-2.2
			c-1.8-0.7-3.9,0.2-4.6,2c-0.7,1.8,0.2,3.9,2,4.6l6.6,2.6c0.4,0.2,0.9,0.2,1.3,0.2c1.4,0,2.8-0.9,3.3-2.3c0-0.1,0-0.1,0.1-0.2
			l1.7,2.7L194.5,224.2z"/>
		<path fill="#5980B7" d="M152.4,161.1l-4.2-1.6c-0.8-0.3-1.6-0.3-2.4-0.1l-2.5,0.8c-1.9,0.6-2.9,2.6-2.3,4.5
			c0.6,1.9,2.6,2.9,4.5,2.3l1.2-0.4l3,1.2c0.4,0.2,0.9,0.2,1.3,0.2c1.4,0,2.8-0.9,3.3-2.3C155.1,163.9,154.2,161.9,152.4,161.1z"/>
		<path fill="#5980B7" d="M197.5,178.7l-6.6-2.6c-1.8-0.7-3.9,0.2-4.6,2c-0.7,1.8,0.2,3.9,2,4.6l6.6,2.6c0.4,0.2,0.9,0.2,1.3,0.2
			c1.4,0,2.8-0.9,3.3-2.3C200.2,181.5,199.3,179.4,197.5,178.7z"/>
		<path fill="#5980B7" d="M108.6,175.5c-0.6-1.9-2.6-2.9-4.5-2.3l-6.8,2.2c-1.9,0.6-2.9,2.6-2.3,4.5c0.5,1.5,1.9,2.4,3.4,2.4
			c0.4,0,0.7-0.1,1.1-0.2l6.8-2.2C108.2,179.3,109.2,177.3,108.6,175.5z"/>
		<path fill="#5980B7" d="M144,151.3c2.2,0,4-1.8,4-4v-8c0-2.2-1.8-4-4-4s-4,1.8-4,4v8C140,149.5,141.8,151.3,144,151.3z"/>
		<path fill="#5980B7" d="M144,126.3c2.2,0,4-1.8,4-4v-8c0-2.2-1.8-4-4-4s-4,1.8-4,4v8C140,124.5,141.8,126.3,144,126.3z"/>
	</g>
</g>
</svg>
