<?xml version="1.0" encoding="utf-8"?>
<!-- Generator: Adobe Illustrator 18.1.1, SVG Export Plug-In . SVG Version: 6.00 Build 0)  -->
<svg version="1.1" id="Layer_1" xmlns="http://www.w3.org/2000/svg" xmlns:xlink="http://www.w3.org/1999/xlink" x="0px" y="0px"
	 viewBox="0 0 300 300" enable-background="new 0 0 300 300" xml:space="preserve">
<g>
	<path fill="none" d="M231.9,110.3L231.9,110.3C231.9,110.3,231.9,110.3,231.9,110.3L231.9,110.3z"/>
	<path fill="#CCCCCC" d="M250.9,189.8c-7.1,24.8-25.7,46.1-51.3,58.8c0,0-0.1,0-0.1,0.1c-0.5,0.3-1.1,0.5-1.6,0.8
		c-16,7.6-34,11.6-52.1,11.6c-39.3,0-75.6-18.4-94.7-48c0,0,0,0,0,0c0,0,0,0,0-0.1c-12.1-18.8-16.3-40.4-12.1-61.4
		c-1.1,2.6-2,5.3-2.8,8c-6.3,22.2-2.4,45.5,10.9,65.6c19.8,29.7,57.6,48.1,98.7,48.1c19,0,37.9-4.1,54.6-11.7
		c27.6-12.7,47.6-34.5,54.8-59.9c4.7-16.7,3.7-34-2.7-50.1C255,164.1,254.5,177.1,250.9,189.8z"/>
	<path fill="#FFFFFF" d="M222.4,192.5c1.6-1.3,2.8-2.3,3.9-3l-5.7-1.5C221.6,189.3,222.2,190.9,222.4,192.5z"/>
	<path fill="#FFFFFF" d="M166.9,186c0-4.8,3.3-8.8,8-10.4l-19.5-5.3l12.3,19.4C167.1,188.5,166.9,187.3,166.9,186z"/>
	<path fill="#FFFFFF" d="M108.5,111.2c-6.1,2.3-11.3,2.3-15.5,2.2c-5.1-0.1-6.9,0.1-8.6,2.3c-4.1,5.2-4,7.3-3.8,10.9
		c0.1,3.5,0.3,7.7-2.5,14.5l59.6,16.1L108.5,111.2z M105.4,141c-6.8,0-12.3-5-12.3-11.1c0-6.1,5.5-11.1,12.3-11.1
		c6.8,0,12.3,5,12.3,11.1C117.7,136,112.2,141,105.4,141z"/>
	<path fill="#FFFFFF" d="M197.9,193.9c0-4.5,3-8.4,7.2-10.1l-16-4.3c1.5,1.8,2.4,4.1,2.4,6.6c0,6.1-5.5,11.1-12.3,11.1
		c-3.8,0-7.1-1.5-9.4-4l19.8,31.3c0.9,0.1,1.8,0.2,2.7,0.3c2.2,0.4,3.3,0.5,7.6-2c5.1-3.1,5.6-4.8,6.6-8.2c0.7-2.5,1.6-5.6,4.3-9.6
		c-0.2,0-0.3,0-0.5,0C203.4,205,197.9,200,197.9,193.9z"/>
	<path fill="#FFFFFF" d="M48.1,147.3c-5.6,19.7-2.8,40.2,7.7,58.3l9.3-4.5c0,0,0-0.1,0-0.1c-0.7-3-1.5-6.4-2.8-10.3
		c-0.6-1.7-1.9-3.4-3.4-5.3c-3.5-4.5-8.3-10.6-5.7-20.9c1.4-5.5,4.1-8.2,7-11c1.9-1.9,3.9-3.9,6.1-7.2l-16.4-4.4
		C49.3,143.6,48.6,145.5,48.1,147.3z"/>
	<path fill="#FFFFFF" d="M128.8,230.7c0.8,0.6,1.7,1.1,2.5,1.7c4.9,3.3,9.4,6.4,13.7,6.6c6.8,0.4,11.1-1.7,20.5-6.3
		c2.8-1.4,5.9-2.9,9.6-4.6c2.2-1,4.2-1.8,5.9-2.4l-32.6-51.4L128.8,230.7z M168,220.5c0,6.1-5.5,11.1-12.3,11.1
		c-6.8,0-12.3-5-12.3-11.1s5.5-11.1,12.3-11.1C162.5,209.4,168,214.4,168,220.5z"/>
	<path fill="#FFFFFF" d="M114.2,248.7l5-14.5c-2.1-1.1-4.3-2.1-6.5-2.7c-3.5-0.9-6.6-1-10-1.1c-7.3-0.3-15.6-0.6-26.4-9.4
		c-5-4.1-7.5-8-9-12.1l-7.1,3.4C72.8,229.7,92,242.4,114.2,248.7z"/>
	<path fill="#FFFFFF" d="M128,204.3c-6.8,0-12.3-5-12.3-11.1s5.5-11.1,12.3-11.1c3.2,0,6,1.1,8.2,2.9l3.9-11.2l-45,21.8
		c1.1-0.3,2.3-0.5,3.6-0.5c6.8,0,12.3,5,12.3,11.1s-5.5,11.1-12.3,11.1c-6.8,0-12.3-5-12.3-11.1c0-3.5,1.8-6.6,4.5-8.6l-16.4,7.9
		c1.2,3.5,2.9,6.2,6.8,9.4c8.7,7.1,14.7,7.3,21.6,7.6c3.6,0.1,7.4,0.3,11.7,1.4c2.5,0.6,4.9,1.6,7.1,2.8l7.7-22.3
		C129.1,204.3,128.6,204.3,128,204.3z"/>
	<path fill="#FFFFFF" d="M113.5,159c0,0.4,0.1,0.7,0.1,1.1c0,6.1-5.5,11.1-12.3,11.1c-6.8,0-12.3-5-12.3-11.1c0-2.7,1-5.1,2.8-7
		l-17.3-4.7c-3.1,5.3-6.1,8.3-8.5,10.7c-2.5,2.5-4,4-4.9,7.3c-0.5,2.1-0.6,3.8-0.4,5.4c2.3-2.5,5.7-4.2,9.6-4.2
		c6.8,0,12.3,5,12.3,11.1c0,6.1-5.4,11-12,11.1c0.9,2.8,1.5,5.3,2.1,7.6l65.7-31.9L113.5,159z"/>
	<path fill="#FFFFFF" d="M214.7,137.5l-53.7,26l70.5,19.1c0.1-0.4,0.2-0.7,0.3-1.1c3.2-11.5,1.3-22.2-0.5-31.6
		c-0.2-0.8-0.3-1.6-0.4-2.5c-1.2,0.4-2.6,0.6-4,0.6C220.4,148,215.1,143.4,214.7,137.5z M206,171.5c-6.8,0-12.3-5-12.3-11.1
		c0-6.1,5.5-11.1,12.3-11.1c6.8,0,12.3,5,12.3,11.1C218.3,166.5,212.8,171.5,206,171.5z"/>
	<path fill="#FFFFFF" d="M239.3,136.8c0,0.1,0,0.1,0,0.2c0,1.7-0.4,3.3-1.2,4.7c0.3,2.1,0.7,4.4,1.2,6.8c1.8,9.8,4,22,0.3,35.2
		c-0.1,0.4-0.2,0.7-0.3,1l4.4,1.2C247.9,169.4,246.4,152.4,239.3,136.8z"/>
	<path fill="#FFFFFF" d="M72.5,126.9c-0.2-4.3-0.3-8.7,5.5-16.2c4.3-5.5,9.8-5.4,15-5.3c3.5,0,7,0.1,11-1.2l-7.3-11.5
		c-19.7,9.3-35,24.1-43.7,41.6l17.1,4.6C72.7,133.2,72.6,130,72.5,126.9z"/>
	<path fill="#FFFFFF" d="M148.5,104.6c-1.1,5.2-6.1,9.1-12.1,9.1c-6.8,0-12.3-5-12.3-11.1c0-3.1,1.4-6,3.8-8c-3.5,1-3.9,1.8-4.9,4
		c-1.1,2.5-2.6,5.7-7.4,8.9l30.7,48.5l5.5-15.8c-0.6,0.1-1.2,0.1-1.9,0.1c-6.8,0-12.3-5-12.3-11.1c0-6.1,5.5-11.1,12.3-11.1
		c2.9,0,5.5,0.9,7.6,2.4l5.2-17.7C158.5,104.2,153.5,105.2,148.5,104.6z"/>
	<path fill="#FFFFFF" d="M241.2,193.5l-5-1.3c-0.7,0.9-1.7,1.6-3,2.4c-1.7,1-4.6,2.7-10.5,8.6c-6.5,6.4-7.6,10.3-8.6,13.6
		c-1.1,4-2.3,8.1-10.2,12.8c-4,2.4-6.6,3.2-9,3.3l4.3,6.8C219.1,229,234.1,212.6,241.2,193.5z"/>
	<path fill="#FFFFFF" d="M145.7,253c16.1,0,32-3.4,46.3-9.7l-6.7-10.5c-1.7,0.4-3.9,1.2-7,2.6c-3.6,1.7-6.7,3.2-9.4,4.5
		c-9.2,4.5-14.6,7.2-22.3,7.2c-0.7,0-1.4,0-2.2-0.1c-6.4-0.4-12.1-4.3-17.7-8c-0.2-0.2-0.5-0.3-0.7-0.5l-4.2,12.1
		C129.7,252.2,137.6,253,145.7,253z"/>
	<path fill="#FFFFFF" d="M104.2,89.6l7.1,11.2c2.8-1.9,3.6-3.7,4.4-5.5c1.6-3.6,3.5-6.7,10.4-8.5c8.6-2.3,13,2.1,16.1,5.3
		c0.6,0.6,1.1,1.1,1.7,1.6c0.6,0.4,1.1,0.8,1.6,1.3c1.1,0.8,2.3,1.3,3.9,1.6c5.8,0.9,12.5-1.9,16.3-3.9l2.5-8.5
		c-7.3-1.4-14.9-2.2-22.6-2.2C131.3,81.9,117.2,84.6,104.2,89.6z"/>
	<path fill="#CCCCCC" d="M154.2,129.2c0-1.7-2-3.1-4.3-3.1s-4.3,1.4-4.3,3.1c0,1.7,2,3.1,4.3,3.1S154.2,130.9,154.2,129.2z"/>
	<path fill="#CCCCCC" d="M132.1,102.5c0,1.7,2,3.1,4.3,3.1s4.3-1.4,4.3-3.1c0-0.5-0.2-1.1-0.6-1.5c-0.4-0.3-0.8-0.7-1.2-1
		c-0.7-0.4-1.6-0.6-2.5-0.6C134.1,99.4,132.1,100.8,132.1,102.5z"/>
	<path fill="#CCCCCC" d="M105.4,126.7c-2.3,0-4.3,1.4-4.3,3.1s2,3.1,4.3,3.1s4.3-1.4,4.3-3.1S107.7,126.7,105.4,126.7z"/>
	<path fill="#CCCCCC" d="M101.2,157c-2.3,0-4.3,1.4-4.3,3.1s2,3.1,4.3,3.1s4.3-1.4,4.3-3.1S103.5,157,101.2,157z"/>
	<path fill="#CCCCCC" d="M74.5,178.8c0-1.7-2-3.1-4.3-3.1s-4.3,1.4-4.3,3.1s2,3.1,4.3,3.1S74.5,180.5,74.5,178.8z"/>
	<path fill="#CCCCCC" d="M94.4,206.1c0,1.7,2,3.1,4.3,3.1s4.3-1.4,4.3-3.1s-2-3.1-4.3-3.1S94.4,204.4,94.4,206.1z"/>
	<path fill="#CCCCCC" d="M128,190.1c-2.3,0-4.3,1.4-4.3,3.1s2,3.1,4.3,3.1c2.3,0,4.3-1.4,4.3-3.1S130.4,190.1,128,190.1z"/>
	<path fill="#CCCCCC" d="M155.7,217.4c-2.3,0-4.3,1.4-4.3,3.1s2,3.1,4.3,3.1s4.3-1.4,4.3-3.1S158,217.4,155.7,217.4z"/>
	<path fill="#CCCCCC" d="M179.2,189.1c2.3,0,4.3-1.4,4.3-3.1s-2-3.1-4.3-3.1s-4.3,1.4-4.3,3.1S176.9,189.1,179.2,189.1z"/>
	<path fill="#CCCCCC" d="M214.5,193.9c0-1.7-2-3.1-4.3-3.1s-4.3,1.4-4.3,3.1s2,3.1,4.3,3.1S214.5,195.6,214.5,193.9z"/>
	<path fill="#CCCCCC" d="M206,157.2c-2.3,0-4.3,1.4-4.3,3.1c0,1.7,2,3.1,4.3,3.1s4.3-1.4,4.3-3.1C210.3,158.6,208.4,157.2,206,157.2
		z"/>
	<path fill="#CCCCCC" d="M222.7,136.9c0,1.7,2,3.1,4.3,3.1c1.1,0,2-0.3,2.8-0.8c-0.1-1.6-0.2-3.2-0.2-4.8c-0.7-0.4-1.6-0.7-2.6-0.7
		C224.7,133.8,222.7,135.2,222.7,136.9z"/>
	<path fill="#CCCCCC" d="M195.1,136.2c-1.4-1.9-2.1-4.2-2.1-6.7V120l-4,1v4.1c0,5.4-3.6,9.4-8.5,9.4c-4.7,0-8.3-3.7-8.5-8.8
		l-6.9,1.8l-10,29.7L195.1,136.2z"/>
	<path fill="#CCCCCC" d="M222.3,112.6l-7.3,1.8v11.4l13.2-6.9C226.8,117.2,224.8,115.1,222.3,112.6z"/>
	<path fill="#FFFFFF" d="M247.6,95.7c-1.7-2.5-2-5-2.3-7.5c-0.3-2.6-0.6-5.4-2.8-8.9c-1.5-2.5-2.1-2.5-4.4-2.7
		c-2.4-0.2-5.7-0.4-9.9-3.4c-5.7-4-6.3-8.1-6.8-11.5c-0.3-2-0.6-3.8-1.9-5.9c-0.9-1.4-1.5-1.7-5.8-0.7c-2.7,0.6-6.1,1.4-9.1-0.3
		c-6.6-3.7-8.5-10-9.3-14.5c-0.1-0.7-2.3-1.8-4.9-2.4l-24,81.1l8.8-2.3c1.2-0.3,2.5,0,3.5,0.7c1,0.8,1.6,1.9,1.6,3.2v4.6
		c0,0.8,0.2,1.3,0.3,1.4c0,0,0.3,0,0.3,0c0.1-0.1,0.4-0.5,0.4-1.4v-7.2c0-1.8,1.2-3.4,3-3.9l12-3c0.3-0.1,0.6-0.1,1-0.1
		c0.9,0,1.8,0.3,2.5,0.8c1,0.8,1.6,1.9,1.6,3.2v14.6c0,1.9,1.3,3.3,3,3.3s3-1.5,3-3.3v-18.2c0-1.8,1.2-3.5,3-3.9l25-6.1
		c1.2-0.3,2.5,0,3.4,0.7c1,0.8,1.5,1.9,1.5,3.1v9.1c0,0.8,0.2,1.3,0.3,1.4c0,0,0.3,0,0.3,0c0.1-0.1,0.4-0.5,0.4-1.4v-11.8
		c0-1.8,1.2-3.5,3-3.9l5.1-1.2C248.5,96.9,248,96.3,247.6,95.7z M196.5,55.3c5.9,0,10.8,4.9,10.8,11s-4.8,11-10.8,11
		s-10.8-4.9-10.8-11S190.6,55.3,196.5,55.3z M189.7,107.9c-6.8,0-12.3-5.7-12.3-12.6s5.5-12.6,12.3-12.6c6.8,0,12.3,5.7,12.3,12.6
		S196.5,107.9,189.7,107.9z M218.2,102c-7.8,0-14.2-6.5-14.2-14.5s6.4-14.5,14.2-14.5c7.8,0,14.2,6.5,14.2,14.5S226.1,102,218.2,102
		z"/>
	<path fill="#FFFFFF" d="M203,38.7c0.9,4.7,2.5,7.4,5.4,9c0.5,0.2,2.4-0.2,3.5-0.5c3.8-0.9,10.2-2.3,14.3,4.3c2.2,3.6,2.7,6.6,3.1,9
		c0.4,2.8,0.6,4.1,3.5,6.1c2.4,1.7,3.9,1.8,5.9,1.9c3.8,0.3,7.2,1,10.6,6.5c3.1,5.1,3.6,9.2,3.9,12.2c0.2,2,0.4,3.1,0.9,3.8
		c1.1,1.5,3.8,2.9,5.8,3.7l5.7-1.4C263.5,88,259,78,251,67.2c-14.8-20-34.2-33.4-57.7-39.8l-0.8,2.8C196.5,31.1,202,33.4,203,38.7z"
		/>
	<path fill="#CCCCCC" d="M218.2,80.9c-3.4,0-6.2,2.9-6.2,6.5s2.8,6.5,6.2,6.5c3.4,0,6.2-2.9,6.2-6.5S221.7,80.9,218.2,80.9z"/>
	<path fill="#CCCCCC" d="M189.7,90.7c-2.4,0-4.3,2.1-4.3,4.6s1.9,4.6,4.3,4.6c2.4,0,4.3-2.1,4.3-4.6S192.1,90.7,189.7,90.7z"/>
	<ellipse fill="#CCCCCC" cx="196.5" cy="66.3" rx="2.8" ry="3"/>
	<g>
		<path fill="#5980B7" d="M105.4,141c6.8,0,12.3-5,12.3-11.1c0-6.1-5.5-11.1-12.3-11.1c-6.8,0-12.3,5-12.3,11.1
			C93.1,136,98.6,141,105.4,141z M105.4,126.7c2.3,0,4.3,1.4,4.3,3.1s-2,3.1-4.3,3.1s-4.3-1.4-4.3-3.1S103.1,126.7,105.4,126.7z"/>
		<path fill="#5980B7" d="M155.7,231.7c6.8,0,12.3-5,12.3-11.1s-5.5-11.1-12.3-11.1c-6.8,0-12.3,5-12.3,11.1
			S148.9,231.7,155.7,231.7z M155.7,217.4c2.3,0,4.3,1.4,4.3,3.1s-2,3.1-4.3,3.1s-4.3-1.4-4.3-3.1S153.4,217.4,155.7,217.4z"/>
		<path fill="#5980B7" d="M206,171.5c6.8,0,12.3-5,12.3-11.1c0-6.1-5.5-11.1-12.3-11.1c-6.8,0-12.3,5-12.3,11.1
			C193.7,166.5,199.2,171.5,206,171.5z M206,157.2c2.3,0,4.3,1.4,4.3,3.1c0,1.7-2,3.1-4.3,3.1s-4.3-1.4-4.3-3.1
			C201.7,158.6,203.7,157.2,206,157.2z"/>
		<path fill="#5980B7" d="M274.7,95.1c-0.2-0.6-4.6-15.5-17.1-32.4c-11.5-15.6-32.3-35.9-66.1-44c-2.1-0.5-4.2,0.7-4.8,2.8
			l-16.3,55.1c-8.1-1.6-16.4-2.5-24.9-2.5c-16.8,0-33.6,3.5-48.7,10c0,0,0,0,0,0c-1.2,0.5-2.3,1-3.5,1.6
			c-12.4,5.9-23.2,13.7-31.9,23c-16.2,13.2-27.8,30.1-33.1,48.8c-7,24.5-2.7,50,12,72.1C61.6,261.3,102,281,145.8,281c0,0,0,0,0,0
			c20.1,0,40.2-4.1,57.9-12.3c29.8-13.7,51.4-37.3,59.2-64.9c7-24.5,2.7-50.1-12-72.2c-2-3.1-4.2-6-6.6-8.8c2.8-1.5,4.7-4.6,4.7-8.4
			v-8.7l10.6-2.6c0.3,0.1,0.6,0.1,0.8,0.1c0.9,0,1.8-0.3,2.5-0.9l8.8-2.1c1.1-0.3,2-0.9,2.5-1.9C274.9,97.3,275,96.1,274.7,95.1z
			 M145.6,81.9c7.7,0,15.3,0.8,22.6,2.2l-2.5,8.5c-3.8,2-10.5,4.8-16.3,3.9c-1.6-0.2-2.8-0.8-3.9-1.6c-0.5-0.5-1-0.9-1.6-1.3
			c-0.5-0.5-1.1-1.1-1.7-1.6c-3.2-3.2-7.5-7.6-16.1-5.3c-6.9,1.8-8.8,4.9-10.4,8.5c-0.8,1.8-1.6,3.5-4.4,5.5l-7.1-11.2
			C117.2,84.6,131.3,81.9,145.6,81.9z M195.1,136.2l-40.1,21l10-29.7l6.9-1.8c0.2,5.1,3.8,8.8,8.5,8.8c4.9,0,8.5-3.9,8.5-9.4V121
			l4-1v9.5C193,132,193.8,134.3,195.1,136.2z M199.3,239.8l-4.3-6.8c2.4-0.1,5-1,9-3.3c7.9-4.7,9-8.8,10.2-12.8
			c1-3.4,2.1-7.2,8.6-13.6c5.9-5.9,8.8-7.6,10.5-8.6c1.4-0.8,2.3-1.5,3-2.4l5,1.3C234.1,212.6,219.1,229,199.3,239.8z M48.1,147.3
			c0.5-1.9,1.1-3.7,1.8-5.5l16.4,4.4c-2.2,3.3-4.2,5.4-6.1,7.2c-2.9,2.9-5.6,5.6-7,11c-2.6,10.3,2.2,16.4,5.7,20.9
			c1.5,1.9,2.8,3.6,3.4,5.3c1.3,3.9,2.1,7.3,2.8,10.3c0,0,0,0.1,0,0.1l-9.3,4.5C45.3,187.6,42.5,167,48.1,147.3z M80.5,126.6
			c-0.1-3.6-0.2-5.8,3.8-10.9c1.7-2.2,3.5-2.3,8.6-2.3c4.3,0.1,9.4,0.1,15.5-2.2l29.1,46L78,141.1C80.7,134.3,80.6,130.1,80.5,126.6
			z M140.7,102.5c0,1.7-2,3.1-4.3,3.1s-4.3-1.4-4.3-3.1s2-3.1,4.3-3.1c0.9,0,1.8,0.2,2.5,0.6c0.4,0.3,0.8,0.7,1.2,1
			C140.5,101.5,140.7,102,140.7,102.5z M136.4,113.7c6,0,11-3.9,12.1-9.1c5,0.7,10-0.4,14.1-1.8l-5.2,17.7c-2.1-1.5-4.7-2.4-7.6-2.4
			c-6.8,0-12.3,5-12.3,11.1c0,6.1,5.5,11.1,12.3,11.1c0.6,0,1.3-0.1,1.9-0.1l-5.5,15.8l-30.7-48.5c4.8-3.3,6.3-6.5,7.4-8.9
			c1-2.2,1.4-3.1,4.9-4c-2.3,2-3.8,4.9-3.8,8C124.1,108.7,129.6,113.7,136.4,113.7z M229.8,139.3c-0.8,0.5-1.7,0.8-2.8,0.8
			c-2.3,0-4.3-1.4-4.3-3.1s2-3.1,4.3-3.1c1,0,1.9,0.3,2.6,0.7C229.6,136,229.6,137.6,229.8,139.3z M214.7,137.5
			c0.4,5.9,5.7,10.5,12.3,10.5c1.4,0,2.7-0.2,4-0.6c0.1,0.8,0.3,1.6,0.4,2.5c1.7,9.4,3.7,20.1,0.5,31.6c-0.1,0.4-0.2,0.7-0.3,1.1
			L161,163.6L214.7,137.5z M98.7,217.3c6.8,0,12.3-5,12.3-11.1S105.5,195,98.7,195c-1.2,0-2.5,0.2-3.6,0.5l45-21.8l-3.9,11.2
			c-2.2-1.8-5-2.9-8.2-2.9c-6.8,0-12.3,5-12.3,11.1s5.5,11.1,12.3,11.1c0.5,0,1,0,1.5-0.1l-7.7,22.3c-2.3-1.1-4.6-2.1-7.1-2.8
			c-4.3-1.1-8.1-1.2-11.7-1.4c-6.9-0.3-12.9-0.5-21.6-7.6c-3.9-3.2-5.6-5.9-6.8-9.4l16.4-7.9c-2.8,2-4.5,5.1-4.5,8.6
			C86.4,212.3,91.9,217.3,98.7,217.3z M94.4,206.1c0-1.7,2-3.1,4.3-3.1s4.3,1.4,4.3,3.1s-2,3.1-4.3,3.1S94.4,207.8,94.4,206.1z
			 M183.5,186c0,1.7-2,3.1-4.3,3.1s-4.3-1.4-4.3-3.1s2-3.1,4.3-3.1S183.5,184.3,183.5,186z M167.6,189.7l-12.3-19.4l19.5,5.3
			c-4.7,1.6-8,5.6-8,10.4C166.9,187.3,167.1,188.5,167.6,189.7z M128,196.3c-2.3,0-4.3-1.4-4.3-3.1s2-3.1,4.3-3.1
			c2.3,0,4.3,1.4,4.3,3.1S130.4,196.3,128,196.3z M148.4,174.3l32.6,51.4c-1.7,0.6-3.6,1.3-5.9,2.4c-3.7,1.7-6.8,3.2-9.6,4.6
			c-9.4,4.6-13.7,6.7-20.5,6.3c-4.2-0.3-8.8-3.4-13.7-6.6c-0.8-0.5-1.6-1.1-2.5-1.7L148.4,174.3z M192.2,224.8
			c-0.9-0.1-1.7-0.3-2.7-0.3l-19.8-31.3c2.3,2.4,5.6,4,9.4,4c6.8,0,12.3-5,12.3-11.1c0-2.5-0.9-4.7-2.4-6.6l16,4.3
			c-4.3,1.8-7.2,5.6-7.2,10.1c0,6.1,5.5,11.1,12.3,11.1c0.2,0,0.3,0,0.5,0c-2.7,4-3.6,7.1-4.3,9.6c-1,3.4-1.5,5.1-6.6,8.2
			C195.6,225.3,194.4,225.1,192.2,224.8z M214.5,193.9c0,1.7-2,3.1-4.3,3.1s-4.3-1.4-4.3-3.1s2-3.1,4.3-3.1S214.5,192.2,214.5,193.9
			z M220.6,188l5.7,1.5c-1.1,0.7-2.3,1.7-3.9,3C222.2,190.9,221.6,189.3,220.6,188z M149.8,132.3c-2.3,0-4.3-1.4-4.3-3.1
			c0-1.7,2-3.1,4.3-3.1s4.3,1.4,4.3,3.1C154.2,130.9,152.2,132.3,149.8,132.3z M101.2,157c2.3,0,4.3,1.4,4.3,3.1s-2,3.1-4.3,3.1
			s-4.3-1.4-4.3-3.1S98.9,157,101.2,157z M91.6,153.1c-1.7,1.9-2.8,4.4-2.8,7c0,6.1,5.5,11.1,12.3,11.1c6.8,0,12.3-5,12.3-11.1
			c0-0.4,0-0.7-0.1-1.1l24.8,6.7l-65.7,31.9c-0.5-2.3-1.2-4.8-2.1-7.6c6.7-0.1,12-5.1,12-11.1c0-6.1-5.5-11.1-12.3-11.1
			c-3.9,0-7.3,1.6-9.6,4.2c-0.2-1.6-0.1-3.3,0.4-5.4c0.8-3.3,2.3-4.8,4.9-7.3c2.5-2.4,5.4-5.4,8.5-10.7L91.6,153.1z M65.9,178.8
			c0-1.7,2-3.1,4.3-3.1s4.3,1.4,4.3,3.1s-2,3.1-4.3,3.1S65.9,180.5,65.9,178.8z M67.3,209c1.5,4.1,4,8,9,12.1
			c10.8,8.8,19.1,9.1,26.4,9.4c3.4,0.1,6.6,0.2,10,1.1c2.2,0.6,4.4,1.5,6.5,2.7l-5,14.5c-22.2-6.3-41.4-19-53.9-36.3L67.3,209z
			 M126.1,238.5c0.2,0.2,0.5,0.3,0.7,0.5c5.5,3.7,11.2,7.6,17.7,8c0.8,0,1.5,0.1,2.2,0.1c7.7,0,13.1-2.7,22.3-7.2
			c2.7-1.3,5.8-2.8,9.4-4.5c3-1.4,5.2-2.2,7-2.6l6.7,10.5c-14.3,6.4-30.3,9.7-46.3,9.7c-8.1,0-16.1-0.8-23.8-2.4L126.1,238.5z
			 M243.6,185.9l-4.4-1.2c0.1-0.3,0.2-0.7,0.3-1c3.7-13.3,1.5-25.5-0.3-35.2c-0.4-2.4-0.9-4.7-1.2-6.8c0.8-1.4,1.2-3,1.2-4.7
			c0-0.1,0-0.1,0-0.2C246.4,152.4,247.9,169.4,243.6,185.9z M231.9,110.4C231.9,110.3,231.9,110.3,231.9,110.4L231.9,110.4
			L231.9,110.4z M228.2,118.9l-13.2,6.9v-11.4l7.3-1.8C224.8,115.1,226.7,117.2,228.2,118.9z M96.8,92.8l7.3,11.5
			c-4,1.2-7.6,1.2-11,1.2c-5.3-0.1-10.8-0.1-15,5.3c-5.9,7.5-5.7,11.9-5.5,16.2c0.1,3.1,0.2,6.3-2.3,12.1l-17.1-4.6
			C61.8,116.9,77.1,102.1,96.8,92.8z M255.2,201.7c-7.2,25.4-27.2,47.2-54.8,59.9c-16.7,7.7-35.6,11.7-54.6,11.7
			c-41.1,0-78.9-18.4-98.7-48.1c-13.4-20.1-17.2-43.4-10.9-65.6c0.8-2.7,1.7-5.4,2.8-8c-4.2,21,0,42.6,12.1,61.4c0,0,0,0,0,0.1
			c0,0,0,0,0,0c19.1,29.6,55.4,48,94.7,48c18.1,0,36.1-4,52.1-11.6c0.5-0.3,1.1-0.5,1.6-0.8c0,0,0.1,0,0.1-0.1
			c25.6-12.7,44.2-34,51.3-58.8c3.6-12.7,4.1-25.7,1.6-38.3C258.9,167.6,259.9,184.9,255.2,201.7z M244,98.6c-1.8,0.4-3,2-3,3.9
			v11.8c0,0.8-0.3,1.3-0.4,1.4c0,0-0.3,0-0.3,0c-0.1-0.1-0.3-0.5-0.3-1.4v-9.1c0-1.2-0.6-2.4-1.6-3.1c-1-0.8-2.2-1-3.4-0.7l-25,6.1
			c-1.8,0.4-3,2-3,3.9v18.2c0,1.9-1.3,3.3-3,3.3s-3-1.5-3-3.3v-14.6c0-1.2-0.6-2.4-1.6-3.2c-0.7-0.6-1.6-0.8-2.5-0.8
			c-0.3,0-0.7,0-1,0.1l-12,3c-1.8,0.4-3,2-3,3.9v7.2c0,0.8-0.3,1.3-0.4,1.4c0,0-0.3,0-0.3,0c-0.1-0.1-0.3-0.5-0.3-1.4v-4.6
			c0-1.2-0.6-2.4-1.6-3.2c-1-0.8-2.3-1-3.5-0.7l-8.8,2.3l24-81.1c2.6,0.6,4.8,1.7,4.9,2.4c0.9,4.5,2.8,10.8,9.3,14.5
			c3.1,1.7,6.4,0.9,9.1,0.3c4.2-1,4.9-0.7,5.8,0.7c1.4,2.2,1.6,3.9,1.9,5.9c0.5,3.3,1.1,7.5,6.8,11.5c4.2,2.9,7.5,3.2,9.9,3.4
			c2.3,0.2,2.8,0.2,4.4,2.7c2.2,3.6,2.5,6.3,2.8,8.9c0.3,2.5,0.6,5,2.3,7.5c0.4,0.6,1,1.2,1.5,1.7L244,98.6z M259.9,94.8
			c-2-0.8-4.8-2.2-5.8-3.7c-0.6-0.8-0.7-1.9-0.9-3.8c-0.4-3-0.8-7.1-3.9-12.2c-3.4-5.5-6.8-6.2-10.6-6.5c-2-0.2-3.5-0.3-5.9-1.9
			c-2.9-2.1-3.1-3.3-3.5-6.1c-0.4-2.4-0.8-5.4-3.1-9c-4.1-6.6-10.5-5.1-14.3-4.3c-1.1,0.3-3,0.7-3.5,0.5c-2.8-1.6-4.5-4.3-5.4-9
			c-1-5.3-6.5-7.6-10.5-8.5l0.8-2.8c23.5,6.4,42.9,19.8,57.7,39.8c8,10.8,12.5,20.9,14.6,26.2L259.9,94.8z"/>
		<path fill="#5980B7" d="M218.2,72.9c-7.8,0-14.2,6.5-14.2,14.5s6.4,14.5,14.2,14.5c7.8,0,14.2-6.5,14.2-14.5
			S226.1,72.9,218.2,72.9z M218.2,94c-3.4,0-6.2-2.9-6.2-6.5s2.8-6.5,6.2-6.5c3.4,0,6.2,2.9,6.2,6.5S221.7,94,218.2,94z"/>
		<path fill="#5980B7" d="M189.7,82.7c-6.8,0-12.3,5.7-12.3,12.6s5.5,12.6,12.3,12.6c6.8,0,12.3-5.7,12.3-12.6
			S196.5,82.7,189.7,82.7z M189.7,99.9c-2.4,0-4.3-2.1-4.3-4.6s1.9-4.6,4.3-4.6c2.4,0,4.3,2.1,4.3,4.6S192.1,99.9,189.7,99.9z"/>
		<path fill="#5980B7" d="M207.3,66.3c0-6.1-4.8-11-10.8-11s-10.8,4.9-10.8,11s4.8,11,10.8,11S207.3,72.4,207.3,66.3z M196.5,69.3
			c-1.5,0-2.8-1.4-2.8-3s1.3-3,2.8-3s2.8,1.4,2.8,3S198.1,69.3,196.5,69.3z"/>
	</g>
</g>
</svg>
