<?xml version="1.0" encoding="utf-8"?>
<!-- Generator: Adobe Illustrator 18.1.1, SVG Export Plug-In . SVG Version: 6.00 Build 0)  -->
<svg version="1.1" id="Layer_1" xmlns="http://www.w3.org/2000/svg" xmlns:xlink="http://www.w3.org/1999/xlink" x="0px" y="0px"
	 viewBox="0 0 300 300" enable-background="new 0 0 300 300" xml:space="preserve">
<g>
	<g>
		<path fill="#FFFFFF" d="M91.2,198.9c-1.3-0.7-2.1-2-2.1-3.5l-0.3-77c0-1.5,0.8-2.8,2-3.5c7.2-4,11.6-11.6,11.6-19.7
			c0-7.2-3.6-13.9-9.4-18l0.1,20.1c0,1.1-0.4,2.1-1.2,2.8s-1.8,1.5-2.8,1.5L70.2,102c0,0,0,0,0,0c-2.2,0-4-2-4-4.2l-0.1-20.2
			c-5.7,4.2-9.2,10.8-9.1,18c0,8.1,4.6,15.5,11.8,19.5c1.3,0.7,2.1,2,2.1,3.5l0.3,77c0,1.5-0.8,2.8-2,3.5
			c-7.2,4-11.6,11.6-11.6,19.7c0,7.2,3.6,13.9,9.4,18l-0.1-20.1c0-1.1,0.4-2.1,1.2-2.8s1.8-0.9,2.8-0.9l19.1,0.2c0,0,0,0,0,0
			c0.8,0,1.6,0,2.3,0.4c1.2-3.5,2.9-6.9,5-9.8C95.4,201.8,93.4,200.1,91.2,198.9z M83,185.4c0,1.9-1.6,3.5-3.5,3.5s-3.5-1.6-3.5-3.5
			v-58c0-1.9,1.6-3.5,3.5-3.5s3.5,1.6,3.5,3.5V185.4z"/>
		<path fill="#FFFFFF" d="M130,69h-0.9c-1.6,0-3.1,0.3-3.1,1.8V175h7V70.8C133,69.3,131.5,69,130,69z"/>
		<path fill="#CDCCCC" d="M141.7,198c-0.5,0.1-0.9,0-1.4,0h-3.5h-14.5h-3.5c-0.7,0-1.3,0.1-2-0.1c-10.6,4.6-18.2,15.1-19,27.1h62.6
			C159.7,213,152.2,202.6,141.7,198z"/>
		<path fill="#CDCCCC" d="M97.5,233c-1.8,0-3.5,0.6-3.5,2.4v0.9c0,1.8,1.8,3.7,3.5,3.7h55.8c-0.1-1-0.3-1.8-0.3-2.4v-0.9
			c0-1.6,0.5-2.6,1.1-3.6H97.5z"/>
		<path fill="#CDCCCC" d="M118.8,190h7.5h6.5h7.5c1.7,0,2.7-1.9,2.7-3.6v-0.9c0-1.7-1-2.5-2.7-2.5h-21.5c-1.7,0-2.8,0.8-2.8,2.5v0.9
			C116,188.1,117.1,190,118.8,190z"/>
		<path fill="#FFFFFF" d="M218,67v-0.2c0-1.7-1.6-2.8-3.3-2.8h-24c-1.7,0-2.7,1.1-2.7,2.8V67H218z"/>
		<path fill="#FFFFFF" d="M188.9,103c1.5,0,2.9,0.6,3.6,2c2,4.1,5.5,5.9,10.9,5.9c5.3,0,8.9-1.8,10.9-5.8c0.7-1.4,2.1-2,3.6-2h4.9
			c3.1,0,10.2,0.5,10.2,10.8v7.2h10v-11.3c0-7-2.4-14.7-14.2-14.7h-11c-1.4,0-2.7-1-3.4-2.2c-2.3-3.9-6.4-6.3-11-6.3
			s-8.7,2.5-11,6.4c-0.7,1.2-2,2.2-3.4,2.2h-10v8H188.9z"/>
		<rect x="165" y="83" fill="#CDCCCC" width="6" height="29"/>
		<path fill="#FFFFFF" d="M208,141.5c0-1.9-1.6-3.5-3.5-3.5h-40c-1.9,0-3.5,1.6-3.5,3.5v1c0,1.9,1.6,3.5,3.5,3.5h40
			c1.9,0,3.5-1.6,3.5-3.5V141.5z"/>
		<path fill="#FFFFFF" d="M161,236.6v0.9c0,1.9,1.7,4.4,3.7,4.4h40.4c1.9,0,3.9-2.5,3.9-4.4v-0.9c0-1.9-2-2.6-3.9-2.6h-3.4
			c-0.5,0-1,0-1.6,0h-31c-0.6,0-1.1,0-1.6,0h-2.8C162.7,234,161,234.7,161,236.6z"/>
		<path fill="#FFFFFF" d="M197.8,183.8c-1.1-0.7-1.8-2-1.8-3.3V155h-23v71h23v-12.7c0-1.6,1-3.1,2.5-3.7l26.6-10.9l-9.3-20.4
			l-14.3,5.9C200.3,184.7,198.9,184.5,197.8,183.8z"/>
		<path fill="#FFFFFF" d="M228.7,167.4c-0.7-1.5-2.2-2.4-3.8-2.4c-0.5,0-1.1,0.1-1.6,0.3c-1,0.4-1.9,1.3-2.3,2.3
			c-0.4,1.1-0.4,2.2,0.1,3.2l13.4,29.3c0.7,1.5,2.2,2.4,3.8,2.4c0.5,0,1.1-0.1,1.6-0.3c1-0.4,1.9-1.3,2.3-2.3
			c0.4-1.1,0.4-2.2-0.1-3.2L228.7,167.4z"/>
		<g>
			<path fill="#5A81B8" d="M240,153.9c16,0,0-22.4,0-22.4S224,153.9,240,153.9z"/>
			<path fill="#5A81B8" d="M228.8,87h-8.9c-3.2-4-7.9-7.3-13.1-8.1c-1.1-0.2-2.2-0.4-3.3-0.4c0,0,0.1-0.1,0.1-0.1
				c1.2,0,2.4,0,3.4,0.2V75h14.8c2.2,0,4.2-1.9,4.2-4.1v-4.1c0-6.1-5.2-10.8-11.3-10.8H207v-1.4c0-2.3-2.1-3.6-4.4-3.6H202
				c-2.3,0-4,1.2-4,3.6V56h-0.2h-7.1c-6.1,0-10.7,4.7-10.7,10.8v4.1c0,2.2,1.4,4.1,3.7,4.1h14.2h0.2v4c0,0-0.1,0.3-0.2,0.3
				c-4.4,1.2-8.2,3.7-11,7.7H179v-5.2c0-4.2-3-6.8-7.2-6.8h-10.7c-2.2,0-4.1,0.9-4.1,3.1v37.6c0,2.2,1.9,4.3,4.1,4.3h10.7
				c4.2,0,7.2-3.7,7.2-8v-1h7.6c3.6,5,9.3,8.3,16.8,8.3s13.2-3.3,16.8-8.3h2.6c1.5,0,2.2-0.6,2.2,2.8v10.6c0,2.2,1.8,4.6,4,4.6h18
				c2.2,0,4-2.4,4-4.6v-14.7C251,95.4,242.5,87,228.8,87z M171,112h-6V83h6V112z M188.1,67c0.1-2,1.1-3,2.7-3h24c1.6,0,3.1,1,3.3,3
				H188.1z M243,121h-10v-7.2c0-10.3-7.1-10.8-10.2-10.8h-4.9c-1.5,0-2.9,0.6-3.6,2c-2,4.1-5.5,5.9-10.9,5.9
				c-5.3,0-8.9-1.8-10.9-5.8c-0.7-1.4-2.1-2-3.6-2H179v-8h10c1.4,0,2.7-1,3.4-2.2c2.3-3.9,6.4-6.3,11-6.3s8.7,2.5,11,6.4
				c0.7,1.2,2,2.2,3.4,2.2h11c11.7,0,14.2,7.7,14.2,14.7V121z"/>
			<path fill="#5A81B8" d="M79.5,123.9c-1.9,0-3.5,1.6-3.5,3.5v58c0,1.9,1.6,3.5,3.5,3.5s3.5-1.6,3.5-3.5v-58
				C83,125.5,81.4,123.9,79.5,123.9z"/>
		</g>
	</g>
	<path fill="#5A81B8" d="M249.4,193.4L236,164c-2-4.3-6.3-7.1-11-7.1c-1.6,0-3.2,0.3-4.6,0.9c-3.1,1.3-5.4,3.7-6.6,6.8
		c-0.8,2-1,4.1-0.7,6.2l-8.9,3.7V154h1.1c6.4,0,11.9-6.1,11.9-12.5v-0.9c0-6.4-5.6-10.6-11.9-10.6h-40.4c-6.4,0-11.7,4.2-11.7,10.6
		v0.9c0,6.4,5.3,12.5,11.7,12.5h0.3v56c-3-7.3-8.7-13.3-15.5-17.5c1.1-1.7,1.5-3.9,1.5-6.1v-0.9c0-5.9-4.5-10.8-10.4-11
		c-0.2,0-0.2,0-0.3,0c0.2,0,0.7,0.1,0.7,0.1V70.8c0-6-5-9.8-11-9.8h-0.9c-6,0-11.1,3.8-11.1,9.8v103.7c0,0,0.6-0.1,0.8-0.1
		c-0.2,0-0.2,0-0.4,0c-5.9,0.3-10.4,5.1-10.4,11v0.9c0,2.1,0.3,4.1,1.4,5.8c-2.6,1.5-4.9,3.2-7.1,5.3c-2,1.8-3.7,3.8-5.3,6
		c-2.1,3-3.8,6.2-5,9.7l0,0c0,0,0,0.3,0,0.3c-0.6-0.4-1.4-0.4-2.2-0.4c0,0,0,0,0,0l-19.1-0.2c-1.1,0-2.1,0.3-2.8,1.1
		s-1.2,1.7-1.2,2.8l0.1,20c-5.7-4.1-9.3-10.8-9.4-18c0-8.1,4.4-15.7,11.6-19.7c1.3-0.7,2-2.1,2-3.5l-0.3-77c0-1.5-0.8-2.8-2.1-3.5
		C61.5,111,57,103.6,57,95.5c0-7.2,3.5-13.9,9.1-18.1l0.1,20.4c0,2.2,1.8,4.2,4,4.2c0,0,0,0,0,0l19.1-0.4c1.1,0,2.1-0.6,2.8-1.3
		s1.2-1.8,1.2-2.9l-0.1-20.1c5.7,4.1,9.3,10.7,9.4,18c0,8.1-4.4,15.6-11.6,19.7c-1.3,0.7-2,2-2,3.5l0.3,77c0,1.5,0.8,2.8,2.1,3.5
		c2.2,1.2,4.2,2.7,5.8,4.5c1.5-2.2,3.3-4.2,5.3-6.1c-1.5-1.6-3.3-3-5.1-4.2l-0.3-72.5c8.5-5.7,13.7-15.2,13.6-25.4
		c-0.1-12.6-8.1-24-20-28.3c-1.2-0.4-2.6-0.3-3.7,0.5c-1.1,0.8-1.7,2-1.7,3.3l0.1,22.7l-11.1,0.1l-0.1-22.7c0-1.3-0.7-2.5-1.7-3.3
		c-1.1-0.7-2.4-0.9-3.7-0.5C56.8,71.4,48.9,82.9,49,95.5c0.1,10.2,5.3,19.7,13.9,25.3l0.3,72.5c-8.5,5.7-13.7,15.3-13.6,25.5
		c0.1,12.6,8.1,24.3,20.1,28.6c0.4,0.2,0.9,0.6,1.4,0.6c0,0,0,0,0,0c2.2,0,4-2.1,4-4.4c0-0.1,0-0.5,0-0.6l-0.1-22.4l11.1-0.1
		l0.1,22.7c0,1.3,0.7,2.5,1.7,3.3c1.1,0.7,2.4,0.9,3.7,0.4c0.5-0.2,0.8-0.4,1.2-0.6c-2.8-1.4-5.1-3.9-6-6.9l0,0c0.9,3,3.2,5.8,6,7.2
		c1.5,0.7,3.3,1.4,5,1.4h61c0.1,0,0.2,0.2,0.3,0.2c1.7,1,3.7,1.8,5.9,1.8h40.4c6.4,0,11.9-6.1,11.9-12.4v-0.9
		c0-6.4-5.6-10.6-11.9-10.6H204v-0.9V216l24.7-10.1c2.3,2.9,5.8,4.7,9.6,4.7c1.6,0,3.2-0.3,4.7-0.9c3.1-1.3,5.4-3.7,6.7-6.8
		S250.8,196.4,249.4,193.4z M208,142.5c0,1.9-1.6,3.5-3.5,3.5h-40c-1.9,0-3.5-1.6-3.5-3.5v-1c0-1.9,1.6-3.5,3.5-3.5h40
		c1.9,0,3.5,1.6,3.5,3.5V142.5z M126,70.8c0-1.6,1.6-1.8,3.1-1.8h0.9c1.6,0,3,0.3,3,1.8V175h-0.2h-6.5H126V70.8z M116,185.5
		c0-1.7,1.1-2.5,2.8-2.5h21.5c1.7,0,2.7,0.8,2.7,2.5v0.9c0,1.7-1,3.6-2.7,3.6h-7.5h-6.5h-7.5c-1.7,0-2.8-1.9-2.8-3.6V185.5z
		 M153.3,240H97.5c-1.8,0-3.5-2-3.5-3.7v-0.9c0-1.8,1.8-2.4,3.5-2.4H154c-0.6,1-1,2.1-1,3.6v0.9C153,238.2,153.2,239,153.3,240z
		 M97.9,225c0.8-12,8.3-22.4,18.9-27c0.6,0,1.5,0,2,0h3.5h14.5h3.5c0.3,0,0.9-0.3,1.4-0.3c0,0,0,0.1-0.1,0.2
		c10.5,4.6,18,15.1,18.8,27.1H97.9z M206.5,234c1.4,1,2.5,1.2,2.5,2.6v0.9c0,1.9-2,4.4-3.9,4.4h-40.4c-1.9,0-3.7-2.5-3.7-4.4v-0.9
		c0-1.5,1-1.6,2.3-2.6H206.5z M198.5,209.6c-1.5,0.6-2.5,2.1-2.5,3.7V226h-23v-71h23v25.5c0,1.3,0.7,2.6,1.8,3.3
		c1.1,0.7,2.5,0.9,3.8,0.4l14.3-5.9l9.3,20.4L198.5,209.6z M242.2,199.9c-0.4,1.1-1.2,1.9-2.3,2.3c-0.5,0.2-1,0.3-1.6,0.3
		c-1.6,0-3.1-0.9-3.8-2.4l-13.4-29.3c-0.5-1-0.5-2.2-0.1-3.2c0.4-1.1,1.2-1.9,2.3-2.3c0.5-0.2,1-0.3,1.6-0.3c1.6,0,3.1,0.9,3.8,2.4
		l13.4,29.3C242.6,197.7,242.7,198.9,242.2,199.9z"/>
</g>
</svg>
