<?xml version="1.0" encoding="utf-8"?>
<!-- Generator: Adobe Illustrator 18.1.1, SVG Export Plug-In . SVG Version: 6.00 Build 0)  -->
<svg version="1.1" id="Layer_1" xmlns="http://www.w3.org/2000/svg" xmlns:xlink="http://www.w3.org/1999/xlink" x="0px" y="0px"
	 viewBox="0 0 300 300" enable-background="new 0 0 300 300" xml:space="preserve">
<g>
	<path fill="none" d="M171,179.3c-7.6-2.8-15.5-5.7-20.5-12.9c-7.8-11.2-4.7-20.9-1-32c2-6.1,4.3-13,5.5-21.8
		c1.5-11-6.1-28.3-14.8-43.6c-0.8,6.8-1.6,14-2.3,21.4c-5.6,55.8-2.6,68.3-1.1,71c8.4,15.2,49.2,32.3,56.5,31.2c0,0,0.1,0,0.1,0
		C186.7,185,178.8,182.1,171,179.3z"/>
	<path fill="#FFFFFF" d="M164.8,114c-1.3,9.7-3.9,17.3-5.9,23.5c-3.6,11.1-5.1,16.3-0.3,23.2c3.2,4.6,8.7,6.7,15.7,9.2
		c10,3.6,22.2,8.1,31.3,22.6c8.6,0.7,17.8,2.6,20.8,5.2c1.7,1.4,2.1,3.1,2.1,4.1c0,0.2,0.1,0.5,0.2,0.8c0.6,2.7,1.9,8.6-1.1,14
		c5.3,1.9,11,2.1,17.4,2.3c2,0.1,4.2,0.2,6.3,0.3c8.3,0.5,11.6-0.8,12.9-2c1.2-1.1,1.7-3.2,1.7-7.4c0-2-0.3-2.5-0.3-2.5
		c-0.8-0.8-5.7-1.3-10-1.8c-1.4-0.2-2.9-0.3-4.6-0.5c-13.2-1.5-17-16.6-22-35.7c-2.3-9-4.9-19.2-8.8-29.6
		c-10-26.5-19.4-76.7-20.5-99.7h-56c-0.5,3-1.1,8-1.7,12.8C153,70,167.3,96.5,164.8,114z M189.8,100c2.2-1.7,5.3-1.3,7,0.9
		c1.7,2.2,1.4,5.3-0.8,7c-0.7,0.6-2,1.7-3,3c0,0-9.4,5.3-0.3,19c0,0,3.1,4,4,5c1.8,2.1,1.5,5.3-0.6,7c-0.9,0.8-2.1,1.2-3.3,1.2
		c-1.4,0-2.8-0.6-3.8-1.7c-0.9-1.1-9.3-11.1-10-21.1C178.3,109.2,188.6,100.9,189.8,100z"/>
	<path fill="#FFFFFF" d="M206.9,216.1c6-0.4,10.2-1.8,11.8-4c1.4-1.9,1-4.6,0.4-7.2c-4.3-1.5-16.9-3.5-24.3-2.4
		c-0.5,0.1-1.1,0.1-1.7,0.1c-13.9,0-55-18.2-65-36.3c-2.9-5.1-6-18.8-0.1-77c1.9-19.1,4.3-37.3,5.8-49.3H71.8
		c2.4,18,6.7,52.4,8.1,68.6c0.3,3.2,0.6,6.5,0.9,9.6c0.3,3.1,0.6,6.2,0.9,9.3c0.1,0.1,0.1,0.1,0.2,0.2c17.5,19,17.7,37.3,13.4,51
		c5-1.8,10.1-2.7,15.1-2.7c21.5,0,34.5,16.8,35.1,17.5c1.3,1.7,1.2,4.1-0.3,5.7c-6.9,7.5-14.3,12.7-21.9,15.5c2.9-0.6,6-1,9.2-1.2
		c10.2-0.6,15.6,2,20.9,4.4c5.1,2.4,9.9,4.6,20.3,4.6c10.2,0,12-1,14.1-2.1C191.5,218.4,195.2,216.8,206.9,216.1z"/>
	<path fill="#CCCCCC" d="M72.9,241h16.2c-2.6-3-4.8-6-6.6-9h-4.2C76.7,236,74.9,239,72.9,241z"/>
	<path fill="#CCCCCC" d="M282,241v-9H127.9c1.2,3,2,6,2.6,9H282z"/>
	<path fill="#FFFFFF" d="M71.3,208.9c-4.8,3.4-9.8,5.8-14.9,7.1c-7.7,6.1-15.1,16.8-18.5,35.5c10.2-1.4,32.3-8.1,37.3-39.2
		c-0.3-1.4-0.4-2.8-0.6-3.9C73.5,208.4,72.4,208.6,71.3,208.9z"/>
	<path fill="#FFFFFF" d="M83.6,208.8c1.4,11,8.1,35.2,39.2,39.9c-1.1-7.6-4.5-21.9-15.2-31.4C98,216.8,89.7,212.9,83.6,208.8z"/>
	<path fill="#FFFFFF" d="M69.3,193.2c-4.8-3.8-12.4-8.2-21.9-8.2c-9.1,0-18.4,3.7-27.9,11.3c4.8,4.4,14.8,11.7,26.9,11.7
		c0,0,0,0,0,0c8.6,0,17.1-3.6,25.2-11c0-0.2-0.1-0.3-0.1-0.4C70.7,195.4,69.9,194.3,69.3,193.2z"/>
	<path fill="#FFFFFF" d="M109.4,208C109.4,208,109.4,208,109.4,208c9,0,17.9-3.9,26.3-12.1c-4.2-4.1-13.2-11-25.3-11
		c-6.8,0-13.7,2.2-20.8,6.5c-1.7,2.9-3.4,5.2-4.8,6.9C90.1,202.7,98.9,208,109.4,208z"/>
	<path fill="#FFFFFF" d="M78.9,191.6c6.6-8.7,18.4-30.1-0.4-53.9C72.4,145.2,61.2,164.8,78.9,191.6z"/>
	<g>
		<path fill="#5980B7" d="M189.1,141.4c1,1.2,2.4,1.7,3.8,1.7c1.1,0,2.3-0.4,3.2-1.2c2.1-1.8,2.3-4.9,0.6-7c-0.9-1-2.4-3-3.8-5.4
			c-1.8-3-3.6-6.7-3.8-9.9c-0.2-3.1,1.8-6.3,3.8-8.7c1.2-1.4,2.3-2.4,3.1-3c2.2-1.7,2.6-4.8,0.9-7c-1.7-2.2-4.8-2.6-7-0.9
			c-1.2,0.9-11.5,9.3-10.7,20.3C179.8,130.3,188.1,140.2,189.1,141.4z"/>
		<path fill="#5980B7" d="M287.1,222h-14.2c2.7-3,3.2-8,3.2-12.5c0-12.2-8.1-12.9-19.3-14.1c-1.4-0.1-2.9-0.2-4.5-0.4
			c-6.4-0.7-9.5-12.8-13.4-28.2c-2.4-9.2-5.1-19.7-9.2-30.6c-10-26.6-18.8-75.2-19.9-96.2h-10c1.1,23,10.5,73.2,20.5,99.7
			c3.9,10.3,6.5,20.5,8.8,29.5c4.9,19.1,8.8,34.1,22,35.7c1.6,0.2,3.2,0.4,4.6,0.5c4.3,0.5,9.3,1,10,1.8c0,0,0.3,0.5,0.3,2.5
			c0,4.2-0.5,6.3-1.7,7.4c-1.3,1.2-4.6,2.6-12.9,2c-2.2-0.1-4.3-0.2-6.3-0.3c-6.5-0.2-12.1-0.5-17.4-2.3c-0.3,0.5-0.6,0.9-1,1.4
			c0.4-0.5,0.7-0.9,1-1.4c3.1-5.4,1.7-11.3,1.1-14c-0.1-0.3-0.1-0.6-0.2-0.8c-0.1-1-0.4-2.9-2.1-4.4c-3-2.6-12.2-4.4-20.8-5.4
			c0,0,0,0,0,0c-9.1-14-21.3-18.7-31.3-22.3c-7-2.6-12.5-4.4-15.7-9.1c-4.8-6.9-3.4-12,0.3-23.2c2-6.2,4.5-13.8,5.9-23.5
			c2.4-17.4-11.8-44-22.7-61.2c0.6-4.8,1.2-9.8,1.7-12.8h-10.1c-1.6,12-3.9,30.2-5.8,49.3c-5.8,58.2-2.7,71.8,0.1,77
			c10.1,18.1,51.1,36.3,65,36.3c0.6,0,1.2,0,1.7-0.1c7.4-1.1,20,0.9,24.3,2.4c0.6,2.6,1,5.3-0.4,7.2c-1.6,2.2-5.8,3.6-11.8,4
			c-11.7,0.7-15.4,2.2-19,4.2c-2.1,1.2-3.9,2-14.1,2c-10.5,0-15.3-2.1-20.3-4.4c-5.3-2.4-10.7-4.8-20.9-4.3
			c-3.2,0.2-6.3,0.6-9.2,1.2c7.6-2.8,14.9-8,21.9-15.5c1.5-1.6,1.6-4,0.3-5.7c-0.5-0.7-13.5-17.5-35.1-17.5c-5,0-10,0.9-15.1,2.7
			c4.3-13.7,4-32-13.4-51c-0.1-0.1-0.1-0.1-0.2-0.2c-0.3-3.1-0.6-6.2-0.9-9.3c-0.3-3.1-0.6-6.5-0.9-9.7C78.6,92.4,74.2,58,71.8,40
			H61.7c2.3,18,6.8,53.2,8.2,69.4c0.3,3.3,0.6,6.6,0.9,9.8c0.4,4.2,0.8,8.2,1.1,12.2c-5.9,7.4-16.4,24.6-9.1,47.6
			c-4.5-1.8-9.7-3-15.5-3c-12.5,0-25.1,5.7-37.5,16.9c-1.8,1.6-2,4.3-0.4,6.2c0.6,0.7,13.9,16.3,33.3,18
			c-6.7,8.4-12.3,20.7-14.6,38.6c-0.2,1.3,0.2,2.5,1,3.5s2,1.5,3.3,1.6c0,0,0.2,0,0.6,0c2.7,0,16.6-0.6,29.3-9.5
			c0.1-0.1,0.2-0.4,0.3-0.4h39.2c0.1,0,0.2,0.3,0.4,0.4c6.7,3.5,15,6.1,25.3,6.8c0.1,0,0.2,0,0.3,0c1.2,0,2.3-0.4,3.1-1.2
			c0.9-0.9,1.4-2.1,1.4-3.4c0-0.1,0-1-0.2-2.3c-0.1-0.7-0.1-0.3,0-0.3h154.9c2.8,0,4.9-1.7,4.9-4.5v-18.9
			C292,224.8,289.9,222,287.1,222z M136.7,161.5c-1.5-2.8-4.5-15.3,1.1-71c0.7-7.3,1.5-14.6,2.3-21.4c0,0,0-0.1,0-0.1
			c0,0,0,0.1,0,0.1c8.7,15.3,16.3,32.6,14.8,43.6c-1.2,8.8-3.5,15.7-5.5,21.8c-3.6,11.2-6.8,20.8,1,32c5,7.3,12.9,10.1,20.5,12.9
			c7.8,2.8,15.7,5.8,22.4,13.3c0,0-0.1,0-0.1,0C185.9,193.8,145.2,176.7,136.7,161.5z M110.4,185c12.1,0,21.1,6.9,25.3,11
			c-8.5,8.1-17.3,12.1-26.3,12.1c0,0,0,0,0,0c-10.4,0-19.2-5.3-24.6-9.7c1.4-1.8,3.1-4.1,4.8-7C96.7,187.1,103.6,185,110.4,185z
			 M78.5,232h3.9c0.1,0,0.1,0.2,0.2,0.3c1.7,3,3.9,5.7,6.4,8.7H73c1.9-2,3.8-5.4,5.3-8.7C78.4,232.2,78.4,232,78.5,232z M78.4,137.6
			c18.9,23.9,7,45.2,0.4,53.9C61.2,164.8,72.4,145.2,78.4,137.6z M19.4,196.3c9.5-7.6,18.9-11.4,27.9-11.4c9.5,0,17.1,4.4,21.9,8.2
			c0.7,1.1,1.4,2.3,2.2,3.4c0,0.2,0,0.2,0.1,0.4c-8.1,7.5-16.6,11.1-25.2,11.1c0,0,0,0,0,0C34.2,208,24.2,200.7,19.4,196.3z
			 M37.9,251.4c3.4-18.7,10.7-29.4,18.5-35.5c5.1-1.3,10.1-3.7,14.9-7.1c1.2-0.3,2.3-0.5,3.3-0.6c0.1,1.2,0.3,2.5,0.6,3.9
			C70.2,243.3,48.1,250,37.9,251.4z M65.9,248.8c-0.3,0.3-0.6,0.5-0.9,0.7C65.3,249.3,65.6,249,65.9,248.8z M83.6,208.8
			c6.1,4.1,14.3,8,24,8.4c10.7,9.5,14.1,23.8,15.2,31.4C91.8,244,85.1,219.8,83.6,208.8z M282,241H130.5c0.1,1,0.1,0.9,0,0.4
			c-0.6-2.7-1.5-5.8-2.6-9c-0.5-1.3-0.5-1.4,0-0.4H282V241z"/>
	</g>
</g>
</svg>
