<?xml version="1.0" encoding="utf-8"?>
<!-- Generator: Adobe Illustrator 18.1.1, SVG Export Plug-In . SVG Version: 6.00 Build 0)  -->
<svg version="1.1" id="Layer_1" xmlns="http://www.w3.org/2000/svg" xmlns:xlink="http://www.w3.org/1999/xlink" x="0px" y="0px"
	 viewBox="0 0 300 300" enable-background="new 0 0 300 300" xml:space="preserve">
<g>
	<path fill="#CCCCCC" d="M74,215.5c0-2.2,0.5-4.3,1.4-6.2C69,210.9,64.1,216.2,63,223c-0.3,2.2-2.3,3.8-4.5,3.8c-0.2,0-0.4,0-0.6,0
		c-8.8,0.2-16,7.2-16.5,16.2h33.8c-0.8-2-1.2-3.7-1.2-5.7c0-4.4,2-8.3,5.1-10.9C76,223.8,74,219.8,74,215.5z"/>
	<path fill="#CCCCCC" d="M219.2,226.3c3.1,2.6,5.1,6.6,5.1,10.9c0,2-0.4,3.7-1.2,5.7h35.5c-0.6-9-7.8-15.8-16.6-16
		c-0.2,0-0.3,0-0.5,0c0,0,0,0-0.1,0c-2.2,0-4.1-1.6-4.4-3.8c-1.1-7.5-7-13.1-14.2-14.1c1,1.9,1.6,4.1,1.6,6.4
		C224.3,219.8,222.3,223.7,219.2,226.3z"/>
	<path fill="#FFFFFF" d="M213.7,94.8c-1.8-9.2-9.9-15.9-19.2-15.9c-1.3,0-2.5,0.1-3.8,0.4c-5.1,1-9.6,3.9-12.5,8.3
		c-2.5,3.8-3.7,8.2-3.3,12.7l24.6,17.2C209.4,114.9,215.7,105,213.7,94.8z"/>
	<polygon fill="#FFFFFF" points="89,104 89,123.7 99,117 99,104 	"/>
	<path fill="#FFFFFF" d="M168,223h30.1c-1.3-2-2.1-4.7-2.1-7.4c0-2.4,0.6-4.6,1.6-6.6H168V223z"/>
	<path fill="#FFFFFF" d="M167.5,157c0,0.4,0,1-0.1,1H203c1,0,1.9,0.4,2.6,1.1c0.1,0,0.2,0,0.2-0.1l-23.1-17h-23.2
		C164.3,145,167.5,150.7,167.5,157z"/>
	<path fill="#FFFFFF" d="M131.5,158c0,0-0.1-0.7-0.1-1c0-6.2,3.2-12,8-15h-23.3l-22.1,16.1c0.3-0.1,0.5-0.1,0.8-0.1H131.5z"/>
	<path fill="#FFFFFF" d="M131,197.7c0-2.5,1.5-4.7,4-4.7h29c2.5,0,4,2.2,4,4.7v4.3h30.6c-1.6-2-2.6-5.1-2.6-8.2
		c0-2.1,0.5-3.8,1.3-5.8h-96.2c0.8,2,1.3,3.7,1.3,5.8c0,3-1,6.2-2.6,8.2H131V197.7z"/>
	<path fill="#FFFFFF" d="M102.3,215.6c0,2.7-0.8,5.4-2.1,7.4H131v-14h-30.3C101.7,211,102.3,213.2,102.3,215.6z"/>
	<path fill="#FFFFFF" d="M196,172.5c0-2.8,0.8-5.5,2.2-7.5h-32.7c-3,6-9,9.9-16.1,9.9s-13.1-3.9-16.1-9.9h-33.3
		c1.4,2,2.2,4.7,2.2,7.5c0,3.2-1.1,6.5-2.9,8.5h99.4C197.1,179,196,175.7,196,172.5z"/>
	<path fill="#FFFFFF" d="M168,230v11h28.6c-0.4-1-0.6-2.5-0.6-3.9c0-2.7,0.8-5.1,2.1-7.1H168z"/>
	<path fill="#FFFFFF" d="M100.3,230c1.3,2,2.1,4.4,2.1,7.1c0,1.4-0.2,2.9-0.6,3.9H131v-11H100.3z"/>
	<polygon fill="#FFFFFF" points="173.1,135 149.6,117.6 125.8,135 	"/>
	<path fill="#FFFFFF" d="M210.2,244.4c3.9,0,7.2-3.2,7.2-7.2s-3.2-7.2-7.2-7.2c-3.9,0-7.2,3.2-7.2,7.2S206.2,244.4,210.2,244.4z"/>
	<path fill="#FFFFFF" d="M210.2,222.6c3.9,0,7.2-3.2,7.2-7.2s-3.2-7.2-7.2-7.2c-3.9,0-7.2,3.2-7.2,7.2S206.2,222.6,210.2,222.6z"/>
	<path fill="#FFFFFF" d="M210.2,200.9c3.9,0,7.2-3.2,7.2-7.2s-3.2-7.2-7.2-7.2c-3.9,0-7.2,3.2-7.2,7.2S206.2,200.9,210.2,200.9z"/>
	<path fill="#FFFFFF" d="M210.2,179.6c3.9,0,7.2-3.2,7.2-7.2s-3.2-7.2-7.2-7.2c-3.9,0-7.2,3.2-7.2,7.2S206.2,179.6,210.2,179.6z"/>
	<path fill="#FFFFFF" d="M88.2,244.4c3.9,0,7.2-3.2,7.2-7.2s-3.2-7.2-7.2-7.2c-3.9,0-7.2,3.2-7.2,7.2S84.2,244.4,88.2,244.4z"/>
	<path fill="#FFFFFF" d="M81,215.5c0,3.9,3.2,7.2,7.2,7.2c3.9,0,7.2-3.2,7.2-7.2s-3.2-7.2-7.2-7.2C84.2,208.3,81,211.5,81,215.5z"/>
	<path fill="#FFFFFF" d="M88.2,200.9c3.9,0,7.2-3.2,7.2-7.2s-3.2-7.2-7.2-7.2c-3.9,0-7.2,3.2-7.2,7.2S84.2,200.9,88.2,200.9z"/>
	<path fill="#FFFFFF" d="M88.2,179.6c3.9,0,7.2-3.2,7.2-7.2s-3.2-7.2-7.2-7.2c-3.9,0-7.2,3.2-7.2,7.2S84.2,179.6,88.2,179.6z"/>
	<rect x="140" y="202" fill="#CCCCCC" width="19" height="40"/>
	<path fill="#FFFFFF" d="M78.6,158.2l68.4-49.9c1.6-1.2,3.7-1.2,5.3,0l68.4,50.4c1.7,1.3,3.3,1.9,4.6,1.9c1.4,0,3-0.8,4.9-2.5
		c1-0.9,1.5-2.2,1.4-3.7c-0.1-2.3-1.5-4.5-3.7-6.2l-73.9-51.8c-1.3-1-2.8-1.4-4.4-1.4c-1.5,0-3,0.5-4.3,1.4l-75.9,51.7
		c-1.7,1.2-3.9,3.2-4.3,5.4c-0.2,1.4,0.3,2.9,1.5,4.6c1.3,1.8,3,2.7,5.1,2.7C73.8,160.9,76.3,159.9,78.6,158.2z"/>
	<path fill="#FFFFFF" d="M160.5,156.9c0-6.1-4.9-11-11-11s-11,4.9-11,11s4.9,11,11,11S160.5,162.9,160.5,156.9z"/>
	<g>
		<path fill="#5980B7" d="M245.1,218.1c-3-10-11.7-17.1-22.2-18.1c0.9-1.9,1.5-4,1.5-6.3c0-4.3-1.9-8.1-4.9-10.7
			c3-2.6,4.9-6.4,4.9-10.7c0-1-0.1-1.9-0.3-2.8c0.4,0,0.8,0.1,1.2,0.1c3.7,0,7.3-1.6,10.9-4.7c3-2.7,4.6-6.7,4.4-10.9
			c-0.3-5-3-9.8-7.5-13l-24.8-17.3c10.6-5.8,16.7-18,14.3-30.5c-2.6-13.4-14.4-23.2-28.1-23.2c-1.8,0-3.7,0.2-5.5,0.5
			c-7.5,1.5-14,5.8-18.3,12.1c-2.4,3.5-3.9,7.5-4.6,11.6l-7-4.9c-2.8-2-6.1-3.1-9.6-3.1c-3.4,0-6.7,1.1-9.4,3l-32,21.8l-9,6.1
			l-9.8,6.7l-9,6.1l-16.1,10.9c-4.6,3.3-7.3,7.1-8,11.3c-0.6,3.8,0.4,7.6,3.1,11.3c3,4.2,7.4,6.5,12.4,6.5c0,0,0,0,0,0
			c0.9,0,1.7-0.1,2.6-0.2c-0.2,0.9-0.3,1.8-0.3,2.8c0,4.3,1.9,8.1,4.9,10.7c-3,2.6-4.9,6.4-4.9,10.7c0,2.3,0.6,4.4,1.5,6.4
			c-9.8,1.6-17.7,8.5-20.6,17.9c-12.7,1.7-22.6,12.7-22.6,26c0,1.3,0.1,2.9,0.3,4.1c0.3,2.2,2.2,3.9,4.4,3.9h15.4h29.6h135.9h17.3
			h27.7c2.2,0,4.1-1.7,4.4-3.9c0.2-1.3,0.3-2.8,0.3-4.1C267.7,230.8,257.8,219.8,245.1,218.1z M178.2,87.6c2.9-4.3,7.4-7.3,12.5-8.3
			c1.2-0.2,2.5-0.4,3.8-0.4c9.4,0,17.5,6.7,19.2,15.9c2,10.2-4.3,20.1-14.2,22.7l-24.6-17.2C174.5,95.8,175.6,91.4,178.2,87.6z
			 M78.6,158.2c-2.3,1.7-4.8,2.6-6.9,2.6c-2.1,0-3.8-0.9-5.1-2.7c-1.2-1.7-1.7-3.2-1.5-4.6c0.4-2.2,2.6-4.2,4.3-5.4l75.9-51.7
			c1.3-0.9,2.7-1.4,4.3-1.4c1.6,0,3.1,0.5,4.4,1.4l73.9,51.8c2.3,1.6,3.6,3.9,3.7,6.2c0.1,1.5-0.4,2.8-1.4,3.7
			c-1.8,1.7-3.4,2.5-4.9,2.5c-1.3,0-2.8-0.6-4.6-1.9l-68.4-50.4c-1.6-1.2-3.7-1.2-5.3,0L78.6,158.2z M205.9,243
			c-1.7-1-2.8-3.4-2.8-5.7c0-3.9,3.2-7.2,7.2-7.2c3.9,0,7.2,3.2,7.2,7.2c0,2.3-1.1,4.7-2.8,5.7H205.9z M83.9,243
			c-1.7-1-2.8-3.4-2.8-5.7c0-3.9,3.2-7.2,7.2-7.2c3.9,0,7.2,3.2,7.2,7.2c0,2.3-1.1,4.7-2.8,5.7H83.9z M210.2,200.9
			c-3.9,0-7.2-3.2-7.2-7.2s3.2-7.2,7.2-7.2c3.9,0,7.2,3.2,7.2,7.2S214.1,200.9,210.2,200.9z M217.3,215.5c0,3.9-3.2,7.2-7.2,7.2
			c-3.9,0-7.2-3.2-7.2-7.2s3.2-7.2,7.2-7.2C214.1,208.3,217.3,211.5,217.3,215.5z M203,158h-35.6c0,0,0.1-0.7,0.1-1
			c0-6.2-3.2-12-8-15h23.2l23.1,17c-0.1,0-0.2,0.1-0.2,0.1C204.9,158.4,204,158,203,158z M196.5,241H168v-11h30.1
			c-1.3,2-2.1,4.6-2.1,7.3C196,238.6,196.2,240,196.5,241z M168,223v-14h29.6c-1,2-1.6,4.2-1.6,6.6c0,2.7,0.8,5.4,2.1,7.4H168z
			 M168,202v-4.3c0-2.5-1.6-4.7-4-4.7h-29c-2.5,0-4,2.2-4,4.7v4.3H99.7c1.6-2,2.6-5.1,2.6-8.2c0-2.1-0.5-3.8-1.3-5.8h96.2
			c-0.8,2-1.3,3.7-1.3,5.8c0,3,1,6.2,2.6,8.2H168z M159,202v40h-19v-40H159z M100.3,230H131v11h-29.2c0.3-1,0.5-2.4,0.5-3.7
			C102.3,234.6,101.6,232,100.3,230z M100.2,223c1.3-2,2.1-4.7,2.1-7.4c0-2.4-0.6-4.6-1.6-6.6H131v14H100.2z M99.5,181
			c1.8-2,2.9-5.3,2.9-8.5c0-2.8-0.8-5.5-2.2-7.5h33.3c3,6,9,9.9,16.1,9.9s13.1-3.9,16.1-9.9h32.7c-1.4,2-2.2,4.7-2.2,7.5
			c0,3.2,1.1,6.5,2.9,8.5H99.5z M138.5,156.9c0-6.1,4.9-11,11-11s11,4.9,11,11s-4.9,11-11,11S138.5,162.9,138.5,156.9z M125.8,135
			l23.8-17.4l23.6,17.4H125.8z M139.5,142c-4.8,3-8,8.7-8,15c0,0.4,0,1,0.1,1H95c-0.3,0-0.6,0-0.8,0.1l22.1-16.1H139.5z M95.3,172.4
			c0,3.9-3.2,7.2-7.2,7.2c-3.9,0-7.2-3.2-7.2-7.2s3.2-7.2,7.2-7.2C92.1,165.3,95.3,168.5,95.3,172.4z M88.2,186.6
			c3.9,0,7.2,3.2,7.2,7.2s-3.2,7.2-7.2,7.2c-3.9,0-7.2-3.2-7.2-7.2S84.2,186.6,88.2,186.6z M88.2,208.3c3.9,0,7.2,3.2,7.2,7.2
			s-3.2,7.2-7.2,7.2c-3.9,0-7.2-3.2-7.2-7.2S84.2,208.3,88.2,208.3z M210.2,179.6c-3.9,0-7.2-3.2-7.2-7.2s3.2-7.2,7.2-7.2
			c3.9,0,7.2,3.2,7.2,7.2S214.1,179.6,210.2,179.6z M52.5,243H41.4c0.5-9,7.7-16,16.5-16.2c0.2,0,0.4,0,0.6,0c2.2,0,4.2-1.6,4.5-3.8
			c1.1-6.8,6-12.1,12.4-13.7c-0.9,1.9-1.4,4-1.4,6.2c0,4.4,2,8.3,5.1,10.9c-3.1,2.6-5.1,6.5-5.1,10.9c0,2,0.4,3.7,1.2,5.7H52.5z
			 M235.2,243h-12.1c0.8-2,1.2-3.7,1.2-5.7c0-4.4-2-8.3-5.1-10.9c3.1-2.6,5.1-6.5,5.1-10.9c0-2.3-0.6-4.5-1.6-6.4
			c7.3,1,13.1,6.7,14.2,14.1c0.3,2.2,2.2,3.8,4.4,3.8c0,0,0,0,0.1,0c0.2,0,0.4,0,0.5,0c8.8,0.2,16,7,16.6,16H235.2z"/>
		<path fill="#5980B7" d="M182.7,60c0.4,2.1,2.3,3.6,4.4,3.6c0.3,0,0.6,0,0.9-0.1c2.4-0.5,4-2.8,3.6-5.3l-1.3-6.6
			c-0.5-2.4-2.8-4-5.3-3.6c-2.4,0.5-4,2.8-3.6,5.3L182.7,60z"/>
		<path fill="#5980B7" d="M231.4,96.4c0.3,0,0.6,0,0.9-0.1l6.6-1.3c2.4-0.5,4-2.8,3.6-5.3c-0.5-2.4-2.8-4-5.3-3.6l-6.6,1.3
			c-2.4,0.5-4,2.8-3.6,5.3C227.4,94.9,229.3,96.4,231.4,96.4z"/>
		<path fill="#5980B7" d="M212.2,71.3c0.8,0.5,1.6,0.8,2.5,0.8c1.4,0,2.9-0.7,3.7-2l3.8-5.7c1.4-2.1,0.8-4.9-1.2-6.2
			c-2.1-1.4-4.9-0.8-6.2,1.2L211,65C209.6,67.1,210.1,69.9,212.2,71.3z"/>
		<path fill="#5980B7" d="M153.7,77.8l5.7,3.8c0.8,0.5,1.6,0.8,2.5,0.8c1.4,0,2.9-0.7,3.7-2c1.4-2.1,0.8-4.9-1.2-6.2l-5.7-3.8
			c-2.1-1.4-4.9-0.8-6.2,1.2C151.1,73.6,151.6,76.4,153.7,77.8z"/>
		<path fill="#5980B7" d="M220.3,117.3c-1.4,2.1-0.8,4.9,1.2,6.2l5.7,3.8c0.8,0.5,1.6,0.8,2.5,0.8c1.4,0,2.9-0.7,3.7-2
			c1.4-2.1,0.8-4.9-1.2-6.2l-5.7-3.8C224.5,114.7,221.7,115.2,220.3,117.3z"/>
		<path fill="#5980B7" d="M89,104h10v13l9-6.1V99.4c0-2.5-2-4.4-4.4-4.4H84.8c-2.5,0-4.8,2-4.8,4.4v30.4l9-6.1V104z"/>
	</g>
</g>
</svg>
