<?xml version="1.0" encoding="utf-8"?>
<!-- Generator: Adobe Illustrator 18.1.1, SVG Export Plug-In . SVG Version: 6.00 Build 0)  -->
<svg version="1.1" id="Layer_1" xmlns="http://www.w3.org/2000/svg" xmlns:xlink="http://www.w3.org/1999/xlink" x="0px" y="0px"
	 viewBox="0 0 300 300" enable-background="new 0 0 300 300" xml:space="preserve">
<g>
	<g>
		<path fill="none" d="M181,105.6V93h-13v11h4.5c2.2,0,3.5,1.4,3.5,3.6V119h5v-11.4c0-0.2,0-0.4,0.1-0.6c0-0.2-0.1-0.4-0.1-0.6
			V105.6z"/>
		<path fill="none" d="M117,166v7h13v-9.1c-2,0.8-3.6,2.1-6,2.1H117z"/>
		<rect x="87" y="166" fill="#CDCCCC" width="22" height="7"/>
		<path fill="#FFFFFF" d="M116.2,145.8c-4.9,3.9-11.1,6.2-17.8,6.2c-15.8,0-28.7-12.9-28.7-28.7s12.9-28.7,28.7-28.7
			c8.2,0,15.6,3.7,20.8,9.2c0.1,0,0.2,0.2,0.3,0.2H136v-1.5c0-7.1-4.9-12.5-12-12.5H72.9C65.8,90,59,95.4,59,102.5v41.7
			c0,7.1,6.8,13.8,13.9,13.8h10.2h30.6H124c1.3,0,2.6-0.6,3.8-1l-10-9.7C117.1,147,116.6,146.4,116.2,145.8z"/>
		<path fill="#FFFFFF" d="M70,181c3,6,10.8,15.5,30,15.5c19.2,0,26-10.5,28.3-15.5H70z"/>
		<path fill="#FFFFFF" d="M98.2,102.6c-11.4,0-20.6,9.3-20.6,20.7c0,11.4,9.1,20.7,20.5,20.7c7.1,0,12.9-3.6,16.9-9.1v-23.3
			C111,106.2,105.3,102.6,98.2,102.6z M98.4,139.5c-8.9,0-16.2-7.2-16.2-16.2c0-8.9,7.2-16.2,16.2-16.2c8.9,0,16.2,7.2,16.2,16.2
			C114.6,132.2,107.4,139.5,98.4,139.5z"/>
		<path fill="#CDCCCC" d="M98.4,115.2c-4.5,0-8.2,3.7-8.2,8.2c0,4.5,3.7,8.2,8.2,8.2c4.5,0,8.2-3.7,8.2-8.2
			C106.6,118.8,102.9,115.2,98.4,115.2z"/>
		<path fill="#FFFFFF" d="M220.5,103L214,91.6c-0.6-1-0.5-2.2,0.1-3.2l6.1-8.5H204v9.8c0,1.2-0.4,2.4-1.3,2.9l-10,10.3H220.5z"/>
		<path fill="#CDCCCC" d="M129.8,148l7.4,7h42.9c3.7-1,8.6-2.8,14.7-5.4l1.6-1.6H129.8z"/>
		<path fill="#FFFFFF" d="M139.5,127c-2.2,0-4.5-2.2-4.5-4.4V112h-12v28h78v-28h-12v10.6c0,2.2-1.2,4.4-3.5,4.4h-13
			c-2.2,0-4.5-2.2-4.5-4.4V112h-12v10.6c0,2.2-1.2,4.4-3.5,4.4H139.5z"/>
		<path fill="#FFFFFF" d="M138,199h33c-3.5-10-5.7-22-4.6-36H138V199z"/>
		<path fill="#CDCCCC" d="M129.6,207c-0.5,0-1.6-0.1-1.6,0.4v8.6h51.4c-1.7-3-3.4-6-5-9H135H129.6z"/>
		<path fill="#FFFFFF" d="M119.5,224c-0.5,0-1.5-0.3-1.5,0.2v7.8h76.3c-2.8-2-5.8-5-8.8-8h-60.8H119.5z"/>
		<polygon fill="#CDCCCC" points="194.1,93 187,93 187,99.2 		"/>
		<rect x="169" y="67" fill="#FFFFFF" width="29" height="20"/>
		<path fill="#FFFFFF" d="M241.5,164.1c-11.6,0.6-29.5-9.3-35-12.5c-17.6,8.5-28.2,11-33.1,11.6c-3.2,44.5,27,65.4,34.2,69.7
			C240.2,214.9,241.8,176.3,241.5,164.1z M209,223.2c-0.5,0.3-1.1,0.4-1.6,0.4c-0.6,0-1.1-0.1-1.6-0.4c-1.2-0.6-28.9-15.5-25.2-53.1
			c0.2-1.8,1.8-3.2,3.6-3.2c0,0,6.4-0.1,21.2-7.6c1.1-0.6,2.4-0.5,3.5,0.2c3.4,2.2,13.5,7.9,19.2,7.9c0.6,0,1.2-0.1,1.5-0.2
			c1-0.4,2.1-0.3,3,0.3c0.9,0.6,1.5,1.5,1.6,2.6C234.4,171.6,237.9,207.8,209,223.2z"/>
		<path fill="#FFFFFF" d="M206.7,166.4c-9.6,4.7-15.9,6.5-19.4,7.1c-1.4,26.2,14.9,39.1,20.1,42.5c18.2-10.9,20-33.1,19.9-41.7
			C220.2,174,210.7,168.8,206.7,166.4z"/>
		<g>
			<path fill="#5A81B8" d="M98.4,107.2c-8.9,0-16.2,7.2-16.2,16.2c0,8.9,7.2,16.2,16.2,16.2c8.9,0,16.2-7.2,16.2-16.2
				C114.6,114.4,107.4,107.2,98.4,107.2z M98.4,131.5c-4.5,0-8.2-3.7-8.2-8.2c0-4.5,3.7-8.2,8.2-8.2c4.5,0,8.2,3.7,8.2,8.2
				C106.6,127.8,102.9,131.5,98.4,131.5z"/>
			<path fill="#5A81B8" d="M232.6,167.4c-0.9-0.6-2-0.7-3-0.3c-0.4,0.1-0.9,0.2-1.5,0.2c-5.7,0-15.8-5.7-19.2-7.9
				c-1-0.7-2.4-0.7-3.5-0.2c-14.7,7.5-21.2,7.6-21.2,7.6c-1.8,0-3.4,1.3-3.6,3.2c-3.7,37.6,24,52.5,25.2,53.1
				c0.5,0.3,1.1,0.4,1.6,0.4c0.6,0,1.1-0.1,1.6-0.4c28.9-15.4,25.3-51.6,25.2-53.1C234.1,169,233.5,168,232.6,167.4z M207.4,216
				c-5.2-3.4-21.5-16.3-20.1-42.5c3.5-0.6,9.8-2.4,19.4-7.1c4,2.4,13.5,7.6,20.7,7.9C227.4,183,225.7,205.1,207.4,216z"/>
		</g>
	</g>
	<path fill="#5A81B8" d="M248.3,159.6c-0.1-1.1-0.7-2-1.6-2.6c-0.9-0.6-2-0.7-3-0.3c-0.9,0.3-1.9,0.5-3.2,0.5
		c-10.2,0-26.8-9.5-30.9-11.9c0.5-1,0.3-2.3-0.1-3.4c0,0-0.3,0-0.3-0.1V109h16.8c1.1,0,2.1-0.8,2.6-1.7s0.5-2.2,0-3.1l-8.2-14.1
		l8.4-11.8c0.7-0.9,0.7-1.9,0.2-2.9s-1.5-1.4-2.7-1.4H204V63.5c0-1.7-0.7-2.5-2.4-2.5H168v-1h-10v44h-5.5c-2.2,0-4.5,1.4-4.5,3.6
		V119h-3.1H144v-16.5C144,91,135.5,82,124,82H72.9C61.4,82,51,91,51,102.5v41.7c0,11.5,10.4,21.8,21.9,21.8h6.2H79v7h0.1H64.3
		c-1.2,0-2.3,0.3-3.1,1.2c-0.8,0.9-1.1,2-0.9,3.2c0,0.3,4.9,26.8,39.1,26.8c16.6,0,25.5-6.2,30.5-12.7v7.6h-0.4
		c-4.9,0-9.6,3.5-9.6,8.4v8.6h-0.5c-4.9,0-9.5,3.2-9.5,8.2V236c0,2.2,2.4,4,4.6,4H205c0.3,0,0.6,0.1,0.7,0.2c0.1,0,0.1,0,0.2,0
		c0.5,0.2,1,0.3,1.6,0.3c0.5,0,1.1-0.2,1.6-0.4c0,0,0.1-0.1,0.1-0.1c0.2-0.1,4.9-2.8,5-2.9c15.9-10,26.8-25.8,31.6-46.2
		C249.8,174.1,248.3,160.2,248.3,159.6z M202.7,92.3c1-0.5,1.3-1.4,1.3-2.6V80h16.2l-6.1,8.4c-0.7,1-0.7,2.4-0.1,3.4l6.6,11.3h-27.9
		l-1,0.8l1-1.2L203,92.4c-0.4,0.2-1,0.2-1.5,0.2C202,92.6,202.2,92.6,202.7,92.3z M187,99.2V93h7.1L187,99.2z M169,67h29v20h-29V67z
		 M168,93h13v12.6v0.8c0,0.2,0,0.4,0.1,0.6c0,0.2-0.1,0.4-0.1,0.6V119h-5v-11.4c0-2.2-1.2-3.6-3.5-3.6H168V93z M166.8,92.6
		c-0.5,0-1.1,0-1.2-0.1C166,92.5,166.4,92.6,166.8,92.6z M139.5,127h13c2.2,0,3.5-2.2,3.5-4.4V112h12v10.6c0,2.2,2.3,4.4,4.5,4.4h13
		c2.2,0,3.5-2.2,3.5-4.4V112h12v28h-78v-28h12v10.6C135,124.8,137.3,127,139.5,127z M171,198.7c0.4,1.2,0.9,2.5,1.4,3.7
		c-0.5-1.1-1-2.4-1.4-3.4h-32h-1v-36h28.4C165.3,177,167.4,188.9,171,198.7z M137.2,155l-7.4-7h66.5l-1.6,1.4
		c-6.1,2.6-10.9,4.4-14.7,5.4c0,0-0.1,0.1-0.1,0.1H137.2z M72.9,158c-7.1,0-13.9-6.7-13.9-13.8v-41.7C59,95.4,65.8,90,72.9,90H124
		c7.1,0,12,5.4,12,12.5v1.5h-16.5c-0.1,0-0.2-0.2-0.3-0.2c-5.2-5.5-12.6-9.1-20.8-9.1c-15.8,0-28.7,12.8-28.7,28.7
		s12.9,28.7,28.7,28.7c6.7,0,12.9-2.3,17.8-6.2c0.4,0.5,0.9,1,1.5,1.3l9.8,9.5l3,3.1l-3-2.6c-1.2,0.4-2.2,1-3.5,1h-10.2H83.1H72.9z
		 M115,111.7V135c-4,5.5-9.7,9.1-16.8,9.1c-11.4,0-20.6-9.3-20.6-20.7c0-11.4,9.1-20.7,20.5-20.7C105.2,102.6,111,106.2,115,111.7z
		 M109,166v7H87v-7H109z M100,196.5c-19.2,0-27-9.5-30-15.5h58.3C125.9,186,119.2,196.5,100,196.5z M117.8,173H117v-7h0.8h6.2
		c2.5,0,4-1.3,6-2.1v9.1H117.8z M128,207.4c0-0.5,1.1-0.4,1.6-0.4h5.4h39.4c-0.1-1-0.2-0.7-0.3-1c0.1,0.2,0.2,0.3,0.3,0.6
		c1.6,3.2,3.3,6.3,5,8.9c0.1,0.1,0.2-0.5,0.2,0.5h-0.2h-18.3h-32.5H128V207.4z M118,232v-7.8c0-0.5,1-0.2,1.5-0.2h5.1h36.5h24.3h0.3
		c2.7,3,5.5,5,8,8H118z M207.5,232.9c-7.2-4.3-37.3-25.3-34.2-69.7c5-0.7,15.5-3.1,33.1-11.6c5.5,3.3,23.4,13.2,35,12.5
		C241.8,176.3,240.2,214.9,207.5,232.9z"/>
</g>
</svg>
