<?xml version="1.0" encoding="utf-8"?>
<!-- Generator: Adobe Illustrator 18.1.1, SVG Export Plug-In . SVG Version: 6.00 Build 0)  -->
<svg version="1.1" id="Layer_1" xmlns="http://www.w3.org/2000/svg" xmlns:xlink="http://www.w3.org/1999/xlink" x="0px" y="0px"
	 viewBox="0 0 300 300" enable-background="new 0 0 300 300" xml:space="preserve">
<g>
	<path fill="#FFFFFF" d="M137.4,167c-1.3,6.6-1.4,10-1.5,12.2c-0.1,2.6-0.2,4.4-1.7,7.3c-1.2,2.2-3.2,3.4-5.7,3.4
		c-5.3,0-11.8-6.4-13.9-18.5l-0.2-0.9c-1.3-7.6-4.7-27.9-11.1-27.9c-1.5,0-3.4,1-5.5,2.9c-0.2,1.8-0.3,3.6-0.3,5.5
		c0,30.3,24.7,55,55,55c1.7,0,3.4-0.1,5.1-0.2c-7.4-10.9-14.1-26.8-13.6-48C140.9,160.1,138.2,162.6,137.4,167z"/>
	<path fill="#FFFFFF" d="M164.2,125.2c1.4-7.1,13.6-13.8,22-17.7c-9.3-7.2-21-11.5-33.6-11.5c-7.4,0-14.5,1.5-20.9,4.1
		c-2.9,8.1-5.6,19.2-3.7,23c0.3,0.5,0.5,0.6,0.8,0.7c1.4,0.3,3,0.6,4.7,0.9c8.1,1.3,20.2,3.4,21.8,16.1c0.2,2,0.1,3.8-0.3,5.4
		c5.5-0.8,14-3,21.5-8.5c-3-0.7-6.4-2.1-9.7-5.3C164.6,130.4,163.7,127.8,164.2,125.2z"/>
	<path fill="#CDCCCC" d="M148.3,141.6c-0.9-7-6.9-8.5-16-10c-1.8-0.3-3.5-0.6-5.2-1c-2.4-0.6-4.2-2-5.4-4.2
		c-2.9-5.5-0.8-15.5,1.4-22.8c-17.6,10.8-23.4,24.9-25.4,33.5c1.9-1,3.7-1.4,5.6-1.4c12.3,0,15.9,21.1,18,33.7l0.2,0.9
		c1.5,8.7,5.2,12.1,6.6,12.6c0.6-1.2,0.6-1.8,0.7-3.9c0.1-2.5,0.2-6.2,1.6-13.3c1.6-8,7.1-11.9,11.5-15c1-0.7,2-1.4,2.8-2l0.2-2l2,0
		C148.1,145.2,148.5,143.7,148.3,141.6z"/>
	<path fill="#CDCCCC" d="M171.1,126.5c0,0.1-0.1,0.3,0.4,0.8c3.3,3.2,6.6,3.6,9.7,4.1c0.5,0.1,1.1,0.2,1.6,0.3l3.3-3.8l3.3,4.9
		c0.3,0.4,6,8.3,18.4,12.5c-1.5-10.6-5.4-23.8-14.8-33.1C182.6,116.5,171.7,123,171.1,126.5z"/>
	<path fill="#FFFFFF" d="M220,156.5c-18.1-1.2-29.3-9.6-34.5-14.8c-11.3,10.3-25.4,13-32.4,13.7c-2.3,40.3,24,60.1,32.3,65.3
		C215.8,197.4,219.7,167.3,220,156.5z M177.8,203.6c-6-7.3-14.1-24-1.5-34.6c7.3-6.2,14.8-6.2,21.7-6.2c0.5,0,1.1,0,1.6,0
		c2.8,0,5.1-0.1,7.3-0.6c1.2-0.3,2.4,0.3,2.9,1.5c2,5,3.1,16.2-7.3,23c-3.3,2.2-6.5,3.9-9.3,5.4c-7.1,3.9-10.7,6.1-11,10
		c-0.1,1-0.7,1.9-1.7,2.2c-0.3,0.1-0.5,0.1-0.8,0.1C179,204.6,178.3,204.2,177.8,203.6z"/>
	<path fill="#CDCCCC" d="M179,196.6c2.3-3.5,6.7-6,11.8-8.8c2.7-1.5,5.8-3.2,8.9-5.2c7.2-4.7,6.8-11.7,6-15
		c-1.9,0.3-3.9,0.3-6.1,0.3c-0.5,0-1.1,0-1.6,0c-0.5,0-1.1,0-1.6,0c-5.8,0-11.4,0.4-16.8,5C170.9,180.1,175.5,190.9,179,196.6z"/>
	<g>
		<path fill="#5A81B8" d="M226.8,106.2c-2.1-0.3-4,1.2-4.4,3.3c-4.8-8.8-11.6-16.7-20.3-23.4c-12.8-9.9-28.8-16.1-44.9-17.6
			c-34.8-3.2-64.7,15.2-80.2,49.4c-13.3,29.3-8.7,61.5,12.1,86c15.2,17.9,36,28,56,28c4.9,0,9.8-0.6,14.5-1.9
			c2.1-0.6,3.4-2.8,2.8-4.9s-2.8-3.4-4.9-2.8c-21,5.6-45.5-3.7-62.4-23.6c-18.8-22.2-22.9-51.1-10.9-77.6
			c14.2-31.3,40.5-47.6,72.1-44.7c26.2,2.4,49.6,18.2,60,39.1l-2-1.4c-1.8-1.2-4.3-0.8-5.6,1.1c-1.2,1.8-0.8,4.3,1.1,5.6l12.3,8.4
			c0,0,0.1,0,0.1,0.1c0.1,0,0.1,0.1,0.2,0.1c0.1,0.1,0.3,0.1,0.4,0.2c0.1,0,0.2,0.1,0.2,0.1c0.2,0.1,0.3,0.1,0.5,0.1
			c0.1,0,0.1,0,0.2,0c0.2,0,0.4,0,0.6,0c0,0,0,0,0.1,0c0.2,0,0.3,0,0.5-0.1c0.1,0,0.2,0,0.3,0c0,0,0,0,0.1,0c0.2,0,0.3-0.1,0.5-0.2
			c0.1,0,0.2,0,0.2-0.1c0,0,0,0,0,0c0,0,0.1,0,0.1-0.1c0.2-0.1,0.3-0.2,0.5-0.3c0,0,0.1-0.1,0.1-0.1c0.2-0.1,0.3-0.3,0.5-0.4
			c0,0,0.1-0.1,0.1-0.1c0.1-0.1,0.2-0.3,0.3-0.5c0,0,0.1-0.1,0.1-0.1c0.1-0.2,0.2-0.4,0.3-0.6c0,0,0-0.1,0-0.1
			c0.1-0.2,0.1-0.4,0.1-0.6c0-0.1,0-0.1,0-0.2c0,0,0-0.1,0-0.1l1.8-15.7C230.6,108.4,229,106.4,226.8,106.2z"/>
		<path fill="#5A81B8" d="M228.7,148h-4.2c-2.9,0-5.5-0.3-8-0.6c-1.9-33.6-29.8-60.3-63.9-60.3c-35.3,0-64,28.7-64,64s28.7,64,64,64
			c3.9,0,7.7-0.4,11.4-1c9.7,10.9,19.2,16,19.7,16.2l2.5,1.3l2.2-1.6c43.5-31.6,40.7-76,40.6-77.9L228.7,148z M181.2,131.4
			c-3.1-0.5-6.4-1-9.7-4.1c-0.5-0.4-0.4-0.6-0.4-0.8c0.7-3.5,11.6-10,22-14.3c9.4,9.2,13.2,22.4,14.8,33.1
			c-12.4-4.2-18.1-12.1-18.4-12.5l-3.3-4.9l-3.3,3.8C182.3,131.5,181.7,131.5,181.2,131.4z M186.2,107.5c-8.4,3.9-20.7,10.6-22,17.7
			c-0.5,2.6,0.4,5.2,2.5,7.2c3.4,3.2,6.8,4.6,9.7,5.3c-7.5,5.6-16,7.7-21.5,8.5c0.4-1.6,0.6-3.4,0.3-5.4
			c-1.5-12.7-13.7-14.8-21.8-16.1c-1.7-0.3-3.3-0.6-4.7-0.9c-0.3-0.1-0.5-0.2-0.8-0.7c-1.9-3.7,0.8-14.8,3.7-23
			c6.5-2.7,13.5-4.1,20.9-4.1C165.2,96,176.9,100.3,186.2,107.5z M142,150.7c-4.4,3.1-9.9,7-11.5,15c-1.4,7.1-1.5,10.8-1.6,13.3
			c-0.1,2.1-0.1,2.7-0.7,3.9c-1.4-0.5-5.2-3.9-6.6-12.6l-0.2-0.9c-2.1-12.6-5.7-33.7-18-33.7c-1.8,0-3.7,0.5-5.6,1.4
			c1.9-8.6,7.8-22.7,25.4-33.5c-2.2,7.4-4.3,17.4-1.4,22.8c1.2,2.2,3,3.7,5.4,4.2c1.6,0.4,3.3,0.7,5.2,1c9.1,1.5,15.1,3,16,10
			c0.3,2.1-0.2,3.6-1.4,5.1l-2,0l-0.2,2C143.9,149.3,143,149.9,142,150.7z M152.6,206c-30.3,0-55-24.7-55-55c0-1.8,0.1-3.7,0.3-5.5
			c2.1-1.9,4.1-2.9,5.5-2.9c6.4,0,9.8,20.3,11.1,27.9l0.2,0.9c2,12.1,8.5,18.5,13.9,18.5c2.4,0,4.5-1.2,5.7-3.4
			c1.6-2.9,1.6-4.7,1.7-7.3c0.1-2.2,0.2-5.6,1.5-12.2c0.9-4.4,3.6-6.9,6.7-9.2c-0.5,21.2,6.2,37.1,13.6,48
			C156,205.9,154.3,206,152.6,206z M185.4,220.8c-8.3-5.2-34.5-25.1-32.3-65.3c7-0.7,21.1-3.3,32.4-13.7
			c5.2,5.2,16.3,13.5,34.5,14.8C219.7,167.3,215.8,197.4,185.4,220.8z"/>
		<path fill="#5A81B8" d="M176.8,202.3c0.6,2.7,1.5,5.4,2.7,8.3c0.4,1,1.3,1.5,2.3,1.5c0.3,0,0.7-0.1,1-0.2c1.3-0.5,1.9-2,1.3-3.3
			c-0.8-2-1.5-3.9-2-5.7c0.1-0.2,0.2-0.5,0.2-0.8c0.2-3.9,3.9-6.1,11-10c2.8-1.5,5.9-3.3,9.3-5.4c10.4-6.8,9.4-18,7.3-23
			c-0.5-1.1-1.7-1.8-2.9-1.5c-2.1,0.5-4.5,0.6-7.3,0.6c-0.5,0-1.1,0-1.6,0c-6.9,0-14.4,0-21.7,6.2
			C164.4,179.1,170.9,194.4,176.8,202.3z M179.5,172.9c5.5-4.6,11.1-5,16.8-5c0.6,0,1.1,0,1.6,0c0.6,0,1.1,0,1.6,0
			c2.2,0,4.2-0.1,6.1-0.3c0.8,3.3,1.2,10.3-6,15c-3.2,2.1-6.2,3.8-8.9,5.2c-3.9,2.1-7.3,4-9.7,6.3c0.1-2,0.6-4,1.3-5.7
			c2.7-6.4,8.8-8.8,8.8-8.8c1.3-0.5,1.9-1.9,1.5-3.2c-0.5-1.3-1.9-2-3.2-1.5c-0.3,0.1-8,3-11.7,11.5c-0.7,1.6-1.2,3.3-1.5,5.1
			C174,185.7,173.1,178.3,179.5,172.9z"/>
	</g>
</g>
</svg>
