<?xml version="1.0" encoding="utf-8"?>
<!-- Generator: Adobe Illustrator 18.1.1, SVG Export Plug-In . SVG Version: 6.00 Build 0)  -->
<svg version="1.1" id="Layer_1" xmlns="http://www.w3.org/2000/svg" xmlns:xlink="http://www.w3.org/1999/xlink" x="0px" y="0px"
	 viewBox="0 0 300 300" enable-background="new 0 0 300 300" xml:space="preserve">
<g>
	<path fill="none" d="M134.7,96.1c-8.2,0-15.3,3.7-21.4,11.2c-6.4,7.8-9.5,16.9-9.5,27.7c0,11.6,3.2,20.8,9.6,28
		c6.3,7,14.8,10.5,25.8,10.7c1.1-0.1,2.1-0.3,3.1-0.4c-0.1-1.3-0.1-2.6-0.1-4c0-10.4,2.9-19.6,8.7-27.3c4.8-6.5,11.1-10.4,18.6-11.8
		c-0.5-10.1-3.8-18-10.1-24.1C152.5,99.4,144.4,96.1,134.7,96.1z"/>
	<path fill="#FFFFFF" d="M179.4,87.4c-12.1-11.2-26.9-16.6-43.9-16.6c-0.7,0-1,0.1-1.2,0.1c-0.3,0.1-0.6,0.2-1,0.2
		c-16.1,0.7-29.4,7.3-40.5,20c-11.1,12.7-16.7,27.6-16.7,44.4c0,9.7,1.5,18.5,4.6,26.1c3,7.6,7.1,13.7,12.1,18.3
		c5.2,4.8,10.9,8.6,16.8,11.5c5.9,2.8,12.4,4.8,19.2,5.9l2.4,0.2c0.1,0,0.1,0,0.2,0c5.6,0.7,11,3,16.1,6.6c1.7,1.2,5.3,4,11.1,8.6
		c5.7,4.4,9.2,7.4,11.5,8.9c1.8,1.2,3.9,2.5,6.9,4v-7.5c0-2.2,2.7-5.2,4.9-5.2h9.1v-3c-2,0-3.7-0.3-5.5-0.7
		c-1.2-0.3-2.4-0.8-3.7-1.3c-2.1,0.4-4.2,0.7-6.4,0.7c-10.7,0-19.1-4.1-24.9-12.3c-3.3-4.5-5.6-9.5-6.9-15c-1.2,0.2-2.5-0.1-3.8,0
		c-0.1,0-0.3-0.5-0.4-0.5c0,0,0,0,0,0c-13.4,0-24.1-4.2-32.1-13c-7.8-8.7-11.8-19.7-11.8-33.3c0-12.6,3.8-23.6,11.4-32.8
		c7.7-9.5,17.1-14.2,27.8-14.2c11.9,0,22.1,4.2,30.5,12.4c7.7,7.5,11.9,17.5,12.5,29.6c4.8,0.4,9.4,1.7,13.7,4.5
		c0-2.2,1.8-4.3,4-4.3h2.2C197.4,112,191.5,98.6,179.4,87.4z"/>
	<path fill="#FFFFFF" d="M182,155.3c-2.8,0-5,1-6.7,3c-1.8,2.2-2.8,5.8-2.8,10.5c0,5,0.9,8.9,2.8,11.5c1.6,2.2,3.6,3.3,6.5,3.3
		c2.6,0,4.7-1,6.6-3.2c2-2.3,3-6.2,3-11.7c0-4.6-0.9-8-2.8-10.3C186.9,156.3,184.8,155.3,182,155.3z"/>
	<path fill="#CDCCCC" d="M224,222h-6.9c-2.2,0-5.1-1.6-5.1-3.8v-67.7c0-2.2,2.9-4.5,5.1-4.5h6.9v-8h-25v5.3c0,1.6-0.8,3.1-2.4,3.7
		c-1.5,0.6-3.2,0.2-4.3-1c-5.3-5.6-10.9-8.4-17.2-8.4c-7.5,0-13.3,2.9-17.9,9c-4.8,6.4-7.1,13.8-7.1,22.5c0,8.7,2.3,16,6.9,22.4
		c4.3,6,10.3,8.9,18.4,8.9c6.4,0,12-2.4,17.1-7.4c1.2-1.1,2.7-1.4,4.2-0.8c1.5,0.6,2.3,2.1,2.3,3.7v22.1c0,2.2-1.4,3.8-3.7,3.8H185
		v7h39V222z M194.8,153.2c3.1,3.7,4.7,8.9,4.7,15.4c0,7.6-1.7,13.2-5.1,17c-3.5,3.9-7.7,5.9-12.6,5.9c-5.4,0-9.9-2.3-13-6.6
		c-2.8-4-4.3-9.4-4.3-16.2c0-6.6,1.6-11.9,4.6-15.6c3.2-3.9,7.7-5.9,12.9-5.9C187.2,147.3,191.6,149.3,194.8,153.2z"/>
	<g>
		<path fill="#5A81B8" d="M221,154h7.9c2.2,0,3.1-1.3,3.1-3.5v-15.7c0-2.2-0.9-4.8-3.1-4.8h-23.1c-0.1-20-7.1-36.1-20.8-48.7
			c-13.7-12.6-30.4-18.8-49.5-18.8c-1.4,0-2.3,0.2-3,0.3c-18,0.9-33.4,8.7-45.9,22.9c-12.4,14.2-18.8,31-18.8,49.9
			c0,10.7,1.7,20.6,5.2,29.2c3.5,8.7,8.2,15.9,14.2,21.4c5.8,5.3,12.1,9.6,18.8,12.9c6.7,3.2,14,5.5,21.6,6.7c0.1,0,0.2,0,0.3,0
			l2.4,0.2c4.2,0.6,8.3,2.3,12.2,5c1.5,1.1,5.2,4,11,8.4c5.9,4.6,10,7.6,12.6,9.3c2.6,1.7,6.1,3.5,10.7,5.6c0.4,0.2,0.7,0.4,1.2,0.5
			c-0.1-0.3-0.2-0.5-0.2-0.8c0,0.3,0.2,0.1,0.2,0.4c0.4,1.8,2.1,2.7,4.1,2.7h47c2.2,0,3.1-0.9,3.1-3.1v-8.2v-7.5
			c0-2.2-0.9-5.2-3.1-5.2H221v-26.4V154z M177,218.2v7.5c-3-1.5-5.1-2.8-6.9-4c-2.3-1.5-6.1-4.5-11.8-8.9c-5.9-4.5-9.4-7.3-11-8.6
			c-5.1-3.6-10.4-5.8-16-6.6c-0.1,0-0.1,0-0.2,0l-2.3-0.2c-6.8-1.1-13.2-3.1-19.1-5.9c-6-2.9-11.6-6.7-16.8-11.5
			c-5-4.6-9.1-10.8-12.1-18.3c-3-7.7-4.6-16.4-4.6-26.1c0-16.8,5.6-31.7,16.7-44.4c11.1-12.7,24.4-19.3,40.5-20c0.3,0,0.6-0.1,1-0.2
			c0.2,0,0.5,0,1.2,0c17,0,31.8,5.3,43.9,16.5c12.1,11.2,18,24.6,18.1,42.6h-2.2c-2.2,0-3.8,2.1-3.8,4.3c-4.3-2.8-9.5-4.2-13.5-4.6
			v0c-1-12.1-5-22.1-12.7-29.6c-8.4-8.2-18.7-12.4-30.5-12.4c-10.7,0-20.1,4.8-27.9,14.3c-7.5,9.2-11.4,20.3-11.4,32.9
			c0,13.6,4,24.4,11.8,33.1c7.9,8.8,18.7,13,32,13c0,0,0,0,0,0c0.1,0,0.3,0.5,0.4,0.5c1.3-0.1,2.6-0.1,3.8-0.3c0,0,0,0.1,0,0.2
			c1.4,5.4,3.7,10.5,6.9,15c5.9,8.1,14.2,11.8,24.9,11.8c2.2,0,4.5-0.1,6.6-1.1c0,0,0,0,0,0c0,0,0,0,0,0c1.3,1,2.3,1.5,3.5,1.8
			c1.8,0.4,3.4,1.2,5.4,1.2v3h-9.1C179.7,213,177,216,177,218.2z M142.3,173.2c-1,0.2-2,0.4-3.1,0.5c-11-0.2-19.4-3.7-25.8-10.7
			c-6.5-7.2-9.6-16.4-9.6-28c0-10.8,3.1-19.9,9.5-27.7c6.2-7.6,13.2-11.2,21.4-11.2c9.7,0,17.8,3.3,24.7,10
			c6.2,6.1,9.5,14,10.1,24.1c-7.5,1.3-13.7,5.2-18.6,11.8c-5.8,7.8-8.7,17-8.7,27.3C142.1,170.6,142.2,171.9,142.3,173.2z
			 M217.1,222h6.9v7h-39v-7h10.3c2.2,0,3.7-1.6,3.7-3.8v-22.1c0-1.6-0.8-3.1-2.3-3.7c-1.5-0.6-3.1-0.3-4.3,0.8
			c-5.1,5-10.7,7.4-17.1,7.4c-8.1,0-14.1-2.9-18.4-8.9c-4.6-6.4-6.9-13.7-6.9-22.4c0-8.7,2.3-16.1,7.1-22.5c4.5-6.1,10.4-9,17.9-9
			c6.3,0,11.9,2.7,17.3,8.4c1.1,1.2,2.7,1.6,4.2,1c1.5-0.6,2.4-2.1,2.4-3.7V138h25v8h-6.9c-2.2,0-5.1,2.3-5.1,4.5v67.7
			C212,220.4,214.9,222,217.1,222z"/>
		<path fill="#5A81B8" d="M182,147.3c-5.2,0-9.7,2.1-12.9,5.9c-3.1,3.7-4.6,9-4.6,15.6c0,6.8,1.4,12.2,4.3,16.2
			c3.1,4.3,7.6,6.6,13,6.6c4.9,0,9.1-2,12.6-5.9c3.4-3.8,5.1-9.4,5.1-17c0-6.5-1.6-11.7-4.7-15.4C191.6,149.3,187.2,147.3,182,147.3
			z M188.4,180.3c-2,2.2-4.1,3.2-6.6,3.2c-2.8,0-4.9-1-6.5-3.3c-1.8-2.6-2.8-6.4-2.8-11.5c0-4.7,0.9-8.2,2.8-10.5
			c1.7-2.1,3.8-3,6.7-3c2.8,0,4.9,1,6.6,3.1c1.9,2.3,2.8,5.7,2.8,10.3C191.5,174.1,190.4,178.1,188.4,180.3z"/>
	</g>
</g>
</svg>
