<?xml version="1.0" encoding="utf-8"?>
<!-- Generator: Adobe Illustrator 18.1.1, SVG Export Plug-In . SVG Version: 6.00 Build 0)  -->
<svg version="1.1" id="Layer_1" xmlns="http://www.w3.org/2000/svg" xmlns:xlink="http://www.w3.org/1999/xlink" x="0px" y="0px"
	 viewBox="0 0 300 300" enable-background="new 0 0 300 300" xml:space="preserve">
<g>
	<path fill="none" d="M147.8,114.8c-3.2-2.8-8.3-4.2-15-4.2c-5.8,0-10.3-0.3-13.6-0.3l0.2,31.6H131c6.4,0,11.6-1.1,15.6-3.9
		c3.6-2.5,5.4-6.2,5.5-11.6C152.3,121.1,150.9,117.4,147.8,114.8z"/>
	<path fill="#FFFFFF" d="M167.3,97.9c-7.9-6.8-18.6-10.9-31.6-10.9h-15.3c-4.5,0-9.4,0.6-14.5,0.8c-4.3,0.2-7.8,1.4-10.2,3.3
		c-2.2,1.7-3.2,4.1-3.2,7.5c0,1.9,0.1,5,0.2,9.2c0.1,4.3,0.2,7.5,0.2,9.6c0.1,32.7,0.1,61.5-0.2,85.6c0,3.9,0.8,6.6,2.1,7.8
		c0.9,0.8,3,1.7,7.5,1.7c0.5,0,1.1,0,1.7,0c4.4-0.3,7.4-1.9,7.4-8.9c0-2.8-0.1-8.4-0.2-16.6c-0.1-8.2-0.2-14.1-0.2-17.5
		c0-2.3,1.9-4.1,4.1-4.1c1.7,0,5,0,9.8,0.1c4.8,0.1,8,0.1,9.7,0.1c1.3,0,2.6,0.6,3.3,1.7c3.9,5.4,9.4,13.2,16.4,23.5
		c1.6,2.4,3.1,4.3,4.3,6.3h2.4v-25.4c-1-1.2-1.7-2.6-2.4-3.6h-5.5c-2.2,0-4.2-1.4-4.2-3.6v-15.7c0-1,0.4-2.3,1-3
		c-5.2,3.2-11.5,4.4-19,4.4h-15.8c-2.3,0-4.1-1.4-4.1-3.6l-0.2-39.9c0-2.2,1.7-3.9,4-4c2.9-0.1,8.8-0.1,17.9-0.1
		c8.8,0,15.6,2.1,20.4,6.2c5,4.3,7.4,10.4,7.3,18.3c-0.2,7.8-3,13.6-8.5,17.7c0.4-0.1,0.8-0.5,1.2-0.5h21.1c3.1-5,4.7-11.4,4.7-18.3
		C178.9,113.6,175.1,104.7,167.3,97.9z"/>
	<path fill="#CDCCCC" d="M208,164.4v-12.7c-5,0.1-8.7,1.6-12.2,4.5c-3.7,3.1-5.9,6.7-7,10.8c-0.5,2-2.3,3.3-4.3,3
		c-2-0.2-3.5-2-3.5-4v-14h-24v8h8c2.2,0,4,2.2,4,4.4v36.8c0,2.2-1.8,3.8-4,3.8h-9v7h40v-7h-9.2c-2.2,0-3.8-1.5-3.8-3.8v-8.4
		c0-6.3,1.2-11.9,3.8-16.6c2.7-5,6.2-8.4,10.6-9.9C200.4,165.3,204,164.6,208,164.4z"/>
	<g>
		<path fill="#5A81B8" d="M152,144.7c5.5-4.1,8.4-10,8.5-17.9c0.2-7.9-2.3-14.1-7.3-18.3c-4.8-4.1-11.6-6.2-20.4-6.2
			c-9.1,0-15,0.1-17.9,0.2c-2.2,0.1-4,1.9-4,4.2l0.2,39.6c0,2.3,1.9,3.6,4.1,3.6H131c7.4,0,13.8-1.2,19-4.4
			C150.6,145,151.2,145,152,144.7z M146.7,138.1c-4,2.8-9.3,3.9-15.6,3.9h-11.7l-0.2-31.6c3.2-0.1,7.8,0.1,13.6,0.1
			c6.7,0,11.8,1.5,15,4.3c3.1,2.6,4.5,6.4,4.4,11.7C152.1,131.9,150.3,135.6,146.7,138.1z"/>
		<path fill="#5A81B8" d="M212.3,143.7c-1.4,0-2.6-0.1-3.6-0.1c-6.9,0-12.9,2.2-18,6.4c-0.6,0.5-1.7,1-1.7,1.6v-2.9
			c0-2.2-1.8-4.7-4-4.7h-1.5c2.5-6,3.7-11.5,3.7-18.1c0-14.4-4.9-25.9-14.5-34.2c-9.4-8.1-21.8-12.6-37-12.6h-15.4
			c0,0-0.1,0.1-0.1,0.1c-4.6,0.1-9.5,0.4-14.7,0.6c-6,0.3-11,2-14.9,5c-4.2,3.2-6.4,8.1-6.4,14c0,2,0.1,5.2,0.2,9.4
			c0.1,4.2,0.2,7.3,0.2,9.3c0.1,32.7,0.1,61.5-0.2,85.5c0,6.6,1.7,11.4,5.1,14.2c2.9,2.5,7.1,3.6,12.8,3.6c0.7,0,1.3,0,2.1-0.1
			c9.8-0.7,15.2-6.8,15.2-17.2c0-2.9-0.1-8.4-0.2-16.7c-0.1-5.4-0.1-9.9-0.2-13.2c1.5,0,3.4,0,5.5,0.1c3.3,0,5.8,0.1,7.7,0.1
			c3.8,5.2,8.8,12.5,14.9,21.7c0.7,1.1,1.4,2.3,2.1,3.2c0,0-0.1,0-0.2,0c-0.7,0.7-1.3,1.5-1.3,2.6V217c0,2.2,2.2,3,4.4,3h19.3h3
			h25.7c2.2,0,3.6-0.8,3.6-3v-15.7c0-2.2-1.3-4.2-3.6-4.2H191v-4.2c0-4.9,0.9-9.2,2.8-12.8c1.8-3.3,3.8-5.3,6.4-6.2
			c3-1.1,6.9-1.6,12-1.6c2.2,0,3.8-1.8,3.8-4v-20.6C216,145.5,214.4,143.7,212.3,143.7z M137.9,167.3c-0.8-1.1-2-1.7-3.3-1.7
			c-1.7,0-4.9-0.1-9.7-0.1c-4.8-0.1-8.1-0.1-9.8-0.1c-2.3,0-4.1,1.8-4.1,4.1c0,3.4,0.1,9.3,0.2,17.5c0.1,8.2,0.2,13.8,0.2,16.6
			c0,7-3,8.6-7.4,8.9c-0.6,0-1.1,0-1.7,0c-4.5,0-6.5-0.9-7.5-1.7c-1.4-1.1-2.1-3.9-2.1-7.8c0.3-24,0.3-52.8,0.2-85.6
			c0-2.1-0.1-5.3-0.2-9.6c-0.1-4.1-0.2-7.2-0.2-9.1c0-3.4,1-5.8,3.2-7.4c2.5-1.9,5.9-3.2,10.2-3.5c5.1-0.3,10-0.8,14.5-0.8h15.3
			c13.1,0,23.7,4.1,31.6,10.9c7.8,6.8,11.6,15.7,11.6,27.8c0,6.8-1.6,13.3-4.7,18.3h-21.1c-0.4,0-0.8,0.4-1.2,0.5
			c-0.8,0.2-1.5,0.8-2,1.4c-0.6,0.7-1,1.7-1,2.7v15.7c0,2.2,1.9,3.6,4.2,3.6h5.5c0.7,1,1.4,2.4,2.4,3.6V197h-2.4
			c-1.3-2-2.7-3.9-4.3-6.3C147.3,180.4,141.8,172.6,137.9,167.3z M208,164.4c-4,0.2-7.5,0.9-10.6,2c-4.4,1.6-8,4.9-10.7,9.9
			c-2.6,4.7-3.7,10.3-3.7,16.6v8.4c0,2.2,1.6,3.8,3.8,3.8h9.2v7h-40v-7h9c2.2,0,4-1.5,4-3.8v-36.8c0-2.2-1.8-4.4-4-4.4h-8v-8h24v14
			c0,2,1.5,3.7,3.5,4c2,0.3,3.9-1.1,4.4-3c1-4.2,3.2-7.7,6.9-10.8c3.5-2.9,7.2-4.4,12.2-4.5V164.4z"/>
	</g>
</g>
</svg>
