<?xml version="1.0" encoding="utf-8"?>
<!-- Generator: Adobe Illustrator 18.1.1, SVG Export Plug-In . SVG Version: 6.00 Build 0)  -->
<svg version="1.1" id="Layer_1" xmlns="http://www.w3.org/2000/svg" xmlns:xlink="http://www.w3.org/1999/xlink" x="0px" y="0px"
	 viewBox="0 0 300 300" enable-background="new 0 0 300 300" xml:space="preserve">
<g>
	<path fill="#CCCCCC" d="M256.1,68c3,0,5.9,2.6,5.9,5.6v174.8c0,3-2.9,5.6-5.9,5.6H91.8c-3,0-5.8-2.6-5.8-5.6v-62.1
		c-1-0.2-2-0.4-3-0.7V258h183V63H165.1c1.2,1,2.3,3,3.4,5H256.1z"/>
	<path fill="#FFFFFF" d="M141.6,219c11.5,0,14.7-11,15.6-18h-30.6c0.2,3,1.1,10,5.2,14.2C134.2,217.7,137.4,219,141.6,219z"/>
	<path fill="#FFFFFF" d="M170,152h-2.1c-2.8,5-6,9-9.6,12H170V152z"/>
	<path fill="#FFFFFF" d="M251,243V79h-76.7c7.5,21,6.1,36,5.8,39h37c2.8,0,5,2.2,5,5s-2.2,5-5,5h-37v14h50c2.8,0,5,2.2,5,5
		s-2.2,5-5,5h-50v12h37c2.8,0,5,2.2,5,5s-2.2,5-5,5h-37v17h48c2.8,0,5,2.4,5,5.1c0,0.6-0.1,1.3-0.4,1.9c0.1,0.4,0.2,0.8,0.2,1.2
		c0,0.6,0.3,14.4-8.1,23c-4.3,4.5-10.1,6.7-17,6.7c-18.1,0-24.5-16-25.7-28h-2v14.3c0,2.8-2.2,5-5,5s-5-2.2-5-5V201h-2.7
		c-1.2,12-7.6,28-25.7,28c-6.9,0-12.7-2.2-17-6.7c-8.4-8.6-8.1-22.3-8.1-22.9c0-0.3,0.1-0.5,0.1-0.8c-0.4-0.7-0.6-1.7-0.6-2.5
		c0-2.8,2.2-5.1,5-5.1h49v-17h-23.6c-12.6,9-27.9,13.9-44.3,13.9c-1.7,0-3.1,0.1-5.1,0V243H251z"/>
	<path fill="#FFFFFF" d="M207.7,219c4.2,0,7.4-1.3,9.9-3.8c4.1-4.2,5-11.2,5.2-14.2h-30.6C193,208,196.2,219,207.7,219z"/>
	<path fill="#FFFFFF" d="M102.2,42.4C65.1,42.4,35,72.6,35,109.7S65.1,177,102.2,177s67.3-30.2,67.3-67.3S139.3,42.4,102.2,42.4z
		 M76.9,110.6c-0.2,0-0.4,0-0.6,0l-27.4-3.1c-2.5-0.3-4.4-2.4-4.4-5c0-1,0.3-23.7,20.8-37c2-1.3,4.7-1,6.4,0.8L89.8,86
		c0.9,1,1.4,2.3,1.3,3.7s-0.7,2.6-1.8,3.5c0,0-5.3,4.7-7.6,13.7C81.2,109.1,79.1,110.6,76.9,110.6z M102.2,91
		c10.3,0,18.7,8.4,18.7,18.7c0,10.3-8.4,18.7-18.7,18.7s-18.7-8.4-18.7-18.7C83.5,99.4,91.9,91,102.2,91z M127.7,157.1
		c1,2.3,0.1,5.1-2.1,6.3c-0.4,0.2-9.3,5.2-21.7,5.2c-7.3,0-14.3-1.7-20.8-5.1c-2.2-1.1-3.2-3.6-2.4-6l8.2-25.4
		c0.4-1.3,1.3-2.4,2.6-3c1.2-0.6,2.6-0.7,3.9-0.2c0,0,2.9,1,7.3,1c2.8,0,5.6-0.4,8.3-1.1c2.4-0.7,4.9,0.6,5.9,2.9L127.7,157.1z
		 M161,102.5c0,2.5-1.9,4.7-4.4,5l-27.4,3.1c-0.2,0-0.4,0-0.6,0c-2.3,0-4.3-1.5-4.8-3.8c-2.3-9-7.6-13.7-7.6-13.7
		c-1-0.9-1.6-2.2-1.7-3.5c-0.1-1.3,0.4-2.7,1.3-3.7l18.1-19.6c1.7-1.8,4.3-2.1,6.4-0.8C160.7,78.9,161,101.6,161,102.5z"/>
	<path fill="#CCCCCC" d="M93.5,109.7c0,4.8,3.9,8.7,8.7,8.7s8.7-3.9,8.7-8.7c0-4.8-3.9-8.7-8.7-8.7S93.5,104.9,93.5,109.7z"/>
	<path fill="#CCCCCC" d="M102.7,140c-2.2,0-4.1-0.2-5.7-0.4l-5.4,16.8c3.9,1.5,8.1,2.3,12.3,2.3c5.2,0,9.6-1.1,12.6-2.2l-7.2-17
		C107.1,139.8,104.9,140,102.7,140z"/>
	<path fill="#CCCCCC" d="M126.1,89.4c1.9,2.4,4.2,6.1,6,10.8l18.4-2.1c-1-5.4-3.8-14.6-12.4-21.7L126.1,89.4z"/>
	<path fill="#CCCCCC" d="M73.3,100.2c1.8-4.7,4.1-8.4,6-10.8l-12-13C58.8,83.5,55.9,92.7,55,98.1L73.3,100.2z"/>
	<g>
		<path fill="#5980B7" d="M271.1,53H156.4c0,0-0.1,0.1-0.1,0c-14.1-13.4-33.1-21.6-54-21.6C59.1,31.4,24,66.5,24,109.7
			c0,32.9,20.5,61.2,49.3,72.7c0.6,0.2,0.4,0.3-0.3,0v80.9c0,2.8,2.5,4.7,5.3,4.7h192.8c2.8,0,4.9-1.9,4.9-4.7V58.2
			C276,55.4,273.9,53,271.1,53z M35,109.7c0-37.1,30.2-67.3,67.3-67.3s67.3,30.2,67.3,67.3S139.3,177,102.2,177S35,146.8,35,109.7z
			 M97.3,187.8c1.6,0.1,3.3,0,5,0c16.4,0,31.6-4.9,44.2-13.9H170v17h-49c-2.8,0-5,2.4-5,5.1c0,0.9,0.2,17.6,8.6,26.2
			c4.3,4.5,10.1,6.6,17,6.6c18.1,0,24.5-16,25.7-28h2.7v14.3c0,2.8,2.2,5,5,5s5-2.2,5-5V201h2c1.2,12,7.6,28,25.7,28
			c6.9,0,12.7-2.3,17-6.7c8.4-8.6,8.2-25.5,8.2-26.1c0-2.8-2.2-5.1-5-5.1h-48v-17h37c2.8,0,5-2.2,5-5s-2.2-5-5-5h-37v-12h50
			c2.8,0,5-2.2,5-5s-2.2-5-5-5h-50v-14h37c2.8,0,5-2.2,5-5s-2.2-5-5-5h-37c0.3-3,1.8-19-5.7-39H251v164H97v-55.2
			C96.4,187.8,96.5,187.8,97.3,187.8z M170,152v12h-11.7c3.6-3,6.8-7,9.6-12H170z M157.2,201c-0.9,7-4.1,18-15.6,18
			c-4.2,0-7.4-1.3-9.8-3.7c-4.2-4.2-5-11.2-5.2-14.2H157.2z M192.1,201h30.6c-0.2,3-1.1,10.1-5.2,14.3c-2.4,2.5-5.7,3.6-9.9,3.6
			C196.2,218.9,193,208,192.1,201z M266,258H83l0.3-72.5c0,0,3.7,1,2.7,0.8v62.1c0,3,2.7,5.6,5.8,5.6h164.3c3,0,5.9-2.6,5.9-5.6
			V73.6c0-3-2.9-5.6-5.9-5.6h-87.5c0,0-0.1-0.1-0.1-0.2c-1-1.6-2.1-2.8-3.3-4.8H266V258z"/>
		<path fill="#5980B7" d="M83.5,109.7c0,10.3,8.4,18.7,18.7,18.7S121,120,121,109.7c0-10.3-8.4-18.7-18.7-18.7S83.5,99.4,83.5,109.7
			z M102.2,101c4.8,0,8.7,3.9,8.7,8.7c0,4.8-3.9,8.7-8.7,8.7s-8.7-3.9-8.7-8.7C93.5,104.9,97.4,101,102.2,101z"/>
		<path fill="#5980B7" d="M125.6,163.5c2.2-1.3,3.1-4,2.1-6.3l-10.8-25.4c-1-2.3-3.5-3.5-5.9-2.9c-2.8,0.7-5.6,1.1-8.3,1.1
			c-4.4,0-7.3-1-7.3-1c-1.3-0.5-2.7-0.4-3.9,0.2c-1.2,0.6-2.2,1.7-2.6,3l-8.2,25.4c-0.7,2.3,0.3,4.8,2.4,6
			c6.5,3.4,13.5,5.1,20.8,5.1C116.2,168.6,125.2,163.7,125.6,163.5z M97,139.6c1.6,0.2,3.5,0.4,5.7,0.4c2.2,0,4.4-0.2,6.7-0.5
			l7.2,17c-3,1-7.5,2.2-12.6,2.2c-4.3,0-8.4-0.8-12.3-2.3L97,139.6z"/>
		<path fill="#5980B7" d="M123.7,106.9c0.6,2.2,2.6,3.8,4.8,3.8c0.2,0,0.4,0,0.6,0l27.4-3.1c2.5-0.3,4.4-2.4,4.4-5
			c0-1-0.3-23.7-20.8-37c-2-1.3-4.7-1-6.4,0.8L115.7,86c-0.9,1-1.4,2.3-1.3,3.7c0.1,1.3,0.7,2.6,1.7,3.5
			C116.1,93.2,121.4,97.9,123.7,106.9z M138.1,76.4c8.6,7.1,11.4,16.3,12.4,21.7l-18.4,2.1c-1.8-4.7-4.1-8.4-6-10.8L138.1,76.4z"/>
		<path fill="#5980B7" d="M81.7,106.9c2.3-9,7.6-13.7,7.6-13.7c1-0.9,1.7-2.1,1.8-3.5S90.7,87,89.8,86L71.7,66.3
			c-1.7-1.8-4.3-2.1-6.4-0.8c-20.6,13.3-20.8,36-20.8,37c0,2.5,1.9,4.7,4.4,5l27.4,3.1c0.2,0,0.4,0,0.6,0
			C79.1,110.6,81.2,109.1,81.7,106.9z M73.3,100.2L55,98.1c1-5.4,3.9-14.6,12.4-21.7l12,13C77.4,91.8,75.1,95.4,73.3,100.2z"/>
	</g>
</g>
</svg>
