<?xml version="1.0" encoding="utf-8"?>
<!-- Generator: Adobe Illustrator 18.1.1, SVG Export Plug-In . SVG Version: 6.00 Build 0)  -->
<svg version="1.1" id="Layer_1" xmlns="http://www.w3.org/2000/svg" xmlns:xlink="http://www.w3.org/1999/xlink" x="0px" y="0px"
	 viewBox="0 0 300 300" enable-background="new 0 0 300 300" xml:space="preserve">
<g>
	<path fill="none" d="M132.4,147l5.3,32h24.1l5.9-32H132.4z M147,168.5c0,1.4-1.1,2.5-2.5,2.5s-2.5-1.1-2.5-2.5v-12
		c0-1.4,1.1-2.5,2.5-2.5s2.5,1.1,2.5,2.5V168.5z M159,168.5c0,1.4-1.1,2.5-2.5,2.5s-2.5-1.1-2.5-2.5v-12c0-1.4,1.1-2.5,2.5-2.5
		s2.5,1.1,2.5,2.5V168.5z"/>
	<rect x="143" y="137" fill="none" width="13" height="3"/>
	<path fill="#CDCCCC" d="M183.8,186.1c-0.4-0.4-0.7-0.8-0.9-1.3l-9.5,15.8l10.7,13.3c0.1-0.8,0.5-1.5,1.2-2.1
		c0.7-0.6,1.6-0.9,2.5-0.8l17.1,1.3c1.9-0.3,9.6-2.1,10.6-9.4L205,184.7l-18.5,2.2C185.6,187,184.6,186.7,183.8,186.1z"/>
	<path fill="#FFFFFF" d="M218.2,195.5l7.8-25.8c0.7-2.1,0.5-4.3-0.6-6.1l-16.2-27.2l-16,15.6L218.2,195.5z"/>
	<path fill="#CDCCCC" d="M109.1,170.8c0.5-0.2,1.1-0.2,1.6-0.1l-8.4-16.4l-17,2.1c1.3,1.2,1.6,3.2,0.5,4.7l-10.1,13.8
		c-0.7,1.8-3.3,9.3,2.4,14l21,0.7l7.9-16.9C107.4,171.8,108.2,171.1,109.1,170.8z"/>
	<path fill="#FFFFFF" d="M83.1,195.1l17.8,20.2c1.4,1.7,3.4,2.6,5.5,2.7l31.7,0.5l-4.8-21.8L83.1,195.1z"/>
	<path fill="#CDCCCC" d="M160.6,116.3c-0.2,0.5-0.5,1-0.9,1.3l18.1,3.4l8.7-14.7c-0.8,0.2-1.6,0-2.3-0.4c-0.8-0.4-1.4-1.2-1.7-2.1
		l-4.7-16.4c-0.8-1.3-4.5-7-10.3-7c-0.7,0-1.5,0.1-2.2,0.3L151.9,97l8.5,16.6C160.9,114.4,160.9,115.4,160.6,116.3z"/>
	<path fill="#FFFFFF" d="M125.4,119.5l32.1-38.7l-26.9,1.7c-2.2,0.1-4.2,1.1-5.5,2.7L105.2,110L125.4,119.5z"/>
	<g>
		<path fill="#5A81B8" d="M168.3,183.1l6.6-36.1h0.8c1.9,0,3.5-1.6,3.5-3.5s-1.6-3.5-3.5-3.5H172h-9v-6c0-1.9-1.9-4-3.8-4h-20
			c-1.9,0-3.2,2-3.2,4v6h-7.7h-4.6c-1.9,0-3.5,1.6-3.5,3.5s1.6,3.5,3.5,3.5h1.6l6,36.1c0.3,1.7,1.7,2.9,3.5,2.9h30
			C166.5,186,167.9,184.8,168.3,183.1z M143,137h13v3h-13V137z M161.9,179h-24.1l-5.3-32h35.3L161.9,179z"/>
		<path fill="#5A81B8" d="M144.5,154c-1.4,0-2.5,1.1-2.5,2.5v12c0,1.4,1.1,2.5,2.5,2.5s2.5-1.1,2.5-2.5v-12
			C147,155.1,145.9,154,144.5,154z"/>
		<path fill="#5A81B8" d="M156.5,154c-1.4,0-2.5,1.1-2.5,2.5v12c0,1.4,1.1,2.5,2.5,2.5s2.5-1.1,2.5-2.5v-12
			C159,155.1,157.9,154,156.5,154z"/>
		<path fill="#5A81B8" d="M230.5,160.5l-18.2-30.5c-0.5-0.8-1.3-1.3-2.2-1.4c-0.9-0.1-1.8,0.2-2.5,0.8l-20.4,19.8
			c-1,1-1.2,2.5-0.5,3.6l14.5,25.2l-11.7,1.4l-0.2-6.5c0-1.6-1.1-2.9-2.6-3.3c-1.5-0.4-3.1,0.2-3.9,1.6l-16.7,27.8
			c-0.8,1.3-0.6,2.9,0.3,4l17.8,22.1c0.7,0.8,1.7,1.3,2.7,1.3c0.3,0,0.7-0.1,1-0.2c1.4-0.4,2.3-1.6,2.5-3.1l0.4-5l14,1.1
			c0.2,0,0.5,0,0.7,0c6.1-0.8,17-5.5,17.2-17.7l9.1-30.1C232.9,167.8,232.5,163.8,230.5,160.5z M204.9,212.3l-17.1-1.3
			c-0.9-0.1-1.8,0.2-2.5,0.8c-0.6,0.5-1,1.3-1.2,2.1l-10.7-13.3l9.5-15.8c0.2,0.5,0.5,1,0.9,1.3c0.7,0.6,1.7,0.9,2.7,0.8l18.5-2.2
			l10.5,18.2C214.5,210.2,206.8,212,204.9,212.3z M226,169.7l-7.8,25.8L193.1,152l16-15.6l16.2,27.2
			C226.4,165.4,226.7,167.6,226,169.7z"/>
		<path fill="#5A81B8" d="M138.6,193.1c-0.3-1.3-1.5-2.3-2.8-2.4l-29-0.9l5-10.7l5.6,3.3c0.6,0.3,1.1,0.5,1.8,0.5
			c1.9,0,3.5-1.6,3.5-3.5c0-0.7-0.2-1.4-0.6-1.9l-14.7-28.6c-0.7-1.3-2.1-2.1-3.5-1.9l-28.1,3.5c-1.4,0.2-2.6,1.2-3,2.6
			c-0.4,1.4,0.2,2.9,1.3,3.7l4,2.9l-8.2,11.3c-0.1,0.2-0.3,0.4-0.4,0.6c-2.5,5.6-4.3,17.4,6.1,24l20.7,23.5c2.5,3,6.1,4.4,10,4.5
			l35.5,0.3c0,0,0,0,0,0c0.9,0,1.8-0.1,2.3-0.8c0.6-0.7,0.8-1.5,0.6-2.4L138.6,193.1z M75.8,174.9l10.1-13.8
			c1.1-1.5,0.8-3.5-0.5-4.7l17-2.1l8.4,16.4c-0.5-0.1-1.1-0.1-1.6,0.1c-0.9,0.3-1.7,1-2.1,1.9l-7.9,16.9l-21-0.7
			C72.5,184.2,75.1,176.7,75.8,174.9z M106.4,218c-2.1,0-4.1-1-5.5-2.7l-17.8-20.2l50.2,1.6l4.8,21.8L106.4,218z"/>
		<path fill="#5A81B8" d="M99.2,113.7l25.7,12.2c0.4,0.2,0.9,0.3,1.3,0.3c0.9,0,1.7-0.4,2.3-1.1l18.6-22.4l5.4,10.5l-6.1,2.4
			c-1.4,0.6-2.3,2-2.2,3.6s1.3,2.8,2.8,3.1l31.9,6c0.2,0,0.4,0.1,0.6,0.1c1.2,0,2.4-0.6,3-1.7l14.5-24.4c0.7-1.2,0.6-2.8-0.2-3.9
			c-0.9-1.1-2.4-1.6-3.7-1.2l-4.8,1.4l-3.9-13.5c-0.1-0.2-0.2-0.5-0.3-0.7c-0.2-0.4-5.9-11-16.6-11c-2,0-3.9,0.4-5.9,1.1l-31.4,1.9
			c-3.9,0.1-7.5,1.9-9.9,5l-22.2,27.7c-0.6,0.7-0.8,1.7-0.6,2.5C97.8,112.6,98.4,113.3,99.2,113.7z M165.3,80.8
			c0.8-0.2,1.5-0.3,2.2-0.3c5.8,0,9.5,5.7,10.3,7l4.7,16.4c0.3,0.9,0.9,1.6,1.7,2.1c0.7,0.4,1.5,0.5,2.3,0.4l-8.7,14.7l-18.1-3.4
			c0.4-0.4,0.7-0.8,0.9-1.3c0.3-0.9,0.3-1.9-0.2-2.8L151.9,97L165.3,80.8z M125.1,85.3c1.3-1.7,3.3-2.6,5.5-2.7l26.9-1.7l-32.1,38.7
			l-20.2-9.6L125.1,85.3z"/>
	</g>
</g>
</svg>
