<?xml version="1.0" encoding="utf-8"?>
<!-- Generator: Adobe Illustrator 18.1.1, SVG Export Plug-In . SVG Version: 6.00 Build 0)  -->
<svg version="1.1" id="Layer_1" xmlns="http://www.w3.org/2000/svg" xmlns:xlink="http://www.w3.org/1999/xlink" x="0px" y="0px"
	 viewBox="0 0 300 300" enable-background="new 0 0 300 300" xml:space="preserve">
<g>
	<polygon fill="#CCCCCC" points="219.2,155.2 153.8,143.5 84.3,169.9 160.4,173.3 	"/>
	<polygon fill="#FFFFFF" points="63,124.6 63,127.3 63,166.2 204,112.7 204,72.7 	"/>
	<polygon fill="#FFFFFF" points="237,161.3 99,203.7 99,227.3 237,176.3 	"/>
	<path fill="#5980B7" d="M248,153.6c0-0.1,0-0.2,0-0.3c0-0.2,0-0.4-0.1-0.6c0,0,0-0.1,0-0.1c0,0,0,0,0,0c-0.1-0.2-0.1-0.5-0.2-0.7
		c0-0.1,0-0.1-0.1-0.2c-0.1-0.2-0.2-0.3-0.2-0.5c0-0.1-0.1-0.1-0.1-0.2c-0.1-0.1-0.2-0.3-0.3-0.4c0-0.1-0.1-0.1-0.1-0.2
		c-0.1-0.2-0.3-0.3-0.4-0.4c0,0-0.1-0.1-0.1-0.1c-0.2-0.2-0.3-0.3-0.5-0.4c0,0,0,0,0,0c-0.1,0-0.1-0.1-0.2-0.1
		c-0.2-0.1-0.3-0.2-0.5-0.3c-0.1,0-0.1-0.1-0.2-0.1c-0.2-0.1-0.3-0.1-0.5-0.2c-0.1,0-0.2-0.1-0.2-0.1c-0.2-0.1-0.4-0.1-0.6-0.2
		c0,0-0.1,0-0.1,0l-69.7-12.5l37.7-14.3c2.1-0.8,3.5-2.9,3.5-5.1V64.8c0-1.8-0.9-3.5-2.4-4.5c-1.5-1-3.4-1.3-5-0.6l-152,56
		c0,0,0,0,0,0c-0.2,0.1-0.5,0.2-0.7,0.3c-0.1,0-0.1,0.1-0.2,0.1c-0.2,0.1-0.3,0.2-0.5,0.3c-0.1,0-0.1,0.1-0.2,0.1c0,0-0.1,0-0.1,0.1
		c-0.2,0.1-0.3,0.3-0.5,0.4c0,0,0,0-0.1,0.1c-0.2,0.2-0.3,0.3-0.4,0.5c0,0.1-0.1,0.1-0.1,0.2c-0.1,0.2-0.2,0.3-0.3,0.5
		c0,0.1-0.1,0.1-0.1,0.2c-0.1,0.2-0.2,0.4-0.3,0.7c0,0.1,0,0.1,0,0.2c-0.1,0.2-0.1,0.4-0.1,0.6c0,0.1,0,0.1,0,0.2
		c0,0.2-0.1,0.5-0.1,0.8v53.4c0,0.3,0,0.6,0.1,1c0,0.1,0,0.1,0,0.2c0.1,0.3,0.1,0.6,0.3,0.9c0,0.1,0.1,0.1,0.1,0.2
		c0.1,0.2,0.2,0.5,0.4,0.7c0,0,0.1,0.1,0.1,0.1c0.2,0.2,0.4,0.5,0.6,0.7c0,0,0.1,0.1,0.1,0.1c0.2,0.2,0.4,0.4,0.6,0.5
		c0,0,0.1,0.1,0.1,0.1c0,0,0,0,0,0c0.2,0.2,0.5,0.3,0.8,0.4c0.1,0,0.2,0.1,0.2,0.1c0.2,0.1,0.4,0.2,0.7,0.2c0.1,0,0.2,0.1,0.3,0.1
		c0.2,0,0.5,0.1,0.7,0.1c0.1,0,0.1,0,0.2,0l71.9,3.2l-37.3,11.5c-2.3,0.7-3.9,2.8-3.9,5.3v35.6c0,1.8,0.9,3.5,2.4,4.5
		c0.9,0.7,2,1,3.1,1c0.6,0,1.3-0.1,1.9-0.3l149-55.1c2.2-0.8,3.6-2.9,3.6-5.2v-26.3C248,153.7,248,153.7,248,153.6z M63,127.3v-2.7
		l141-51.9v40L63,166.2V127.3z M84.3,169.9l69.4-26.3l65.4,11.7l-58.8,18.1L84.3,169.9z M237,176.3l-138,51v-23.7l138-42.4V176.3z"
		/>
</g>
</svg>
