<?xml version="1.0" encoding="utf-8"?>
<!-- Generator: Adobe Illustrator 18.1.1, SVG Export Plug-In . SVG Version: 6.00 Build 0)  -->
<svg version="1.1" id="Layer_1" xmlns="http://www.w3.org/2000/svg" xmlns:xlink="http://www.w3.org/1999/xlink" x="0px" y="0px"
	 viewBox="0 0 300 300" enable-background="new 0 0 300 300" xml:space="preserve">
<g>
	<path fill="none" d="M128,116.9v-1c0-5.8,5.5-10.9,11.3-10.9h13.2c-2.8-5-7.3-7.9-12.9-9.3c-1.7-0.4-3.4-0.6-5.1-0.6
		c-9.8,0-18.2,6.7-20.6,16.2c-2.8,11.4,4.1,22.9,15.5,25.8c1.7,0.4,3.4,0.6,5.1,0.6c0.7,0,1.3,0,2-0.1l-2.2-11.3
		C130.8,124.6,128,121,128,116.9z"/>
	<polygon fill="none" points="231.6,149 214.9,149 210.7,178 222.2,178 	"/>
	<path fill="none" d="M213,100.7c0-3.3-2.7-5.9-6-5.9s-6,2.6-6,5.8c0,1.8,0.8,3.4,2,4.4h7.8C212.2,104,213,102.5,213,100.7z"/>
	<path fill="#CDCCCC" d="M153.3,76l3.8-15.3l-16.6-4.1l-3.8,15.3c-0.8,0-1.5-0.1-2.3-0.1c-5.4,0-10.6,1-15.5,2.8l-8.2-13.6
		l-14.6,8.8l8.2,13.7c-4.4,4-8,8.9-10.5,14.4l-15.7-3.9l-4.1,16.6l15.8,3.9c-0.3,6,0.7,12,2.8,17.4l-14,8.5l8.8,14.6l14.1-8.5
		c3.9,4.3,8.7,7.8,14.1,10.3l-4,16.1l16.6,4.1l4-16.1c0.8,0,1.5,0.1,2.3,0.1c1.9,0,3.8-0.1,5.6-0.4l-2.4-15.2
		c-1.1,0.1-2.1,0.2-3.2,0.2c-2.3,0-4.7-0.3-7.1-0.9c-15.7-3.9-25.2-19.8-21.3-35.4c3.3-13.3,15.2-22.2,28.4-22.2
		c2.3,0,4.7,0.1,7.1,0.7c9.4,2.3,16.5,9,20,17h3.5v-8.8c0-4.2,4-8.2,8.1-8.2h3.5c0.1,0,0.1,0.1,0.2-0.1l-2.5-2.3
		c-0.6-0.6-1.1-1.2-1.5-2l-5.1,3.1C163.8,82.3,158.9,78.6,153.3,76z"/>
	<path fill="#FFFFFF" d="M194.3,105c-0.5-1-0.8-2.8-0.8-4.3c0-7.5,6-13.4,13.5-13.4c7.5,0,13.5,6.1,13.5,13.5c0,2.2-0.6,4.2-1.5,6
		c3.1,1.9,5,5.2,5,9.1v1c0,2.3-0.7,4.4-1.9,6.2l5.4,5.4l6.8-6.8l-6.5-7c1.9-2.7,3.2-5.6,3.9-9.6h9.3v-9h-9.2c-0.6-4-1.9-6.5-3.8-9.2
		l6.4-6.3l-6.8-6.8l-6.8,6.4c-2.8-1.9-5.8-3.2-9.8-3.9V67h-9v9.1c-4,0.7-6.5,2-9.3,3.9l-6.3-6.3l-6.8,6.8l6.4,6.3
		c-1.9,2.8-3.1,5.2-3.8,9.2H173v9H194.3z"/>
	<path fill="#FFFFFF" d="M107.7,202c-1.4,0-2.8-0.4-3.5-1.6c-4.4-7.9-12.7-12.4-21.6-12.4h-0.1c-8.2,0-15.8,4.3-20.3,10.9l22.5-0.1
		c1.1,0,2.1,0.4,2.8,1.2c0.8,0.7,1.2,1.8,1.2,2.8l0.1,20.8c0,2.2-1.8,4-4,4l-22.5,0C66.8,234,74.4,238,82.5,238h0.1
		c8.9,0,17.2-4.9,21.6-12.9c0.7-1.3,2-1.8,3.5-1.8l34.4-0.2l3-7.2h-25.8c-1.7,0-3-1.3-3-3s1.3-3,3-3h28.3l0.3-0.4l-1.2-7.5
		L107.7,202C107.7,202,107.7,202,107.7,202z"/>
	<path fill="#FFFFFF" d="M142.2,243h70l-12.9-29h-44.6L142.2,243z M175.5,221.1c4.2,0,7.6,3.2,7.6,7.3c0,4-3.4,7.3-7.6,7.3
		s-7.6-3.2-7.6-7.3C167.9,224.3,171.3,221.1,175.5,221.1z"/>
	<path fill="#FFFFFF" d="M209.9,128h-66.8l12.4,77.8l43,0.3L209.9,128z M186.1,188.1c-0.1,0-0.3,0-0.4,0c-2.2-0.2-3.8-2.2-3.6-4.4
		l3.7-34.8c0.2-2.2,2.2-3.8,4.4-3.6c2.2,0.2,3.8,2.2,3.6,4.4l-3.7,34.8C189.9,186.6,188.2,188.1,186.1,188.1z M161.9,184.5
		l-3.7-34.8c-0.2-2.2,1.4-4.2,3.6-4.4c2.2-0.2,4.2,1.4,4.4,3.6l3.7,34.8c0.2,2.2-1.4,4.2-3.6,4.4c-0.1,0-0.3,0-0.4,0
		C163.8,188.1,162.1,186.6,161.9,184.5z"/>
	<path fill="#CDCCCC" d="M215,115.6c0-1.4-1.2-2.6-2.6-2.6h-73.8c-1.4,0-2.6,1.2-2.6,2.6v0.9c0,1.4,1.2,2.6,2.6,2.6h73.8
		c1.4,0,2.6-1.2,2.6-2.6V115.6z"/>
	<g>
		<path fill="#5A81B8" d="M240.9,88h-3.5c-0.1,0-0.1,0.1-0.2-0.1l2.5-2.3c1.4-1.4,2.2-3.2,2.2-5.2s-0.8-3.9-2.2-5.3l-6.8-6.8
			c-1.5-1.5-3.4-2.2-5.3-2.2c-1.9,0-3.9,0.7-5.3,2.2l-2.6,2.4c-0.2-0.1-0.7-0.1-0.7-0.2v-3.4c0-4.2-3-8.1-7.2-8.1h-9.6
			c-4.2,0-8.2,4-8.2,8.1v3.4c0,0.1,0,0.1-0.2,0.2l-2.2-2.4c-1.4-1.4-3.2-2.2-5.2-2.2s-3.9,0.8-5.3,2.2l-2.9,2.9l0,0
			c-0.3,0.1-0.6,0.3-1,0.5l-8.3,5c-2-1.7-4.1-3.3-6.4-4.7l2.3-9.4c0.5-2.1,0.2-4.2-0.9-6.1c-1.1-1.8-2.9-3.1-4.9-3.6l-16.6-4.1
			c-0.6-0.2-1.3-0.2-1.9-0.2c-1.4,0-2.9,0.4-4.1,1.1c-1.8,1.1-3.1,2.9-3.6,4.9l-2.3,9.4c-2.7,0.2-5.3,0.6-7.9,1.2l-5-8.3
			c-1.1-1.8-2.9-3.1-4.9-3.6c-0.6-0.2-1.3-0.2-1.9-0.2c-1.4,0-2.9,0.4-4.1,1.1L92,63c-3.8,2.3-5,7.2-2.7,11l5.1,8.4
			c-1.7,2-3.2,4.1-4.6,6.3l-9.6-2.4c-0.6-0.2-1.3-0.2-1.9-0.2c-1.4,0-2.9,0.4-4.1,1.1c-1.8,1.1-3.1,2.9-3.6,4.9l-4.1,16.6
			c-1.1,4.3,1.5,8.6,5.8,9.7l9.8,2.4c0.2,2.5,0.6,5,1.2,7.5l-8.7,5.3c-1.8,1.1-3.1,2.9-3.6,4.9s-0.2,4.2,0.9,6.1l8.8,14.6
			c1.5,2.5,4.1,3.9,6.9,3.9c1.4,0,2.8-0.4,4.1-1.1l8.9-5.3c1.9,1.6,3.9,3.1,6,4.4l-2.5,10.1c-0.5,2.1-0.2,4.2,0.9,6.1
			c1.1,1.8,2.9,3.1,4.9,3.6l16.6,4.1c0.6,0.2,1.3,0.2,1.9,0.2c3.6,0,6.9-2.4,7.8-6.1l2.5-10.1c1-0.1,2-0.2,2.9-0.3l-1.3-7.9
			c-1.9,0.2-3.7,0.4-5.6,0.4c-0.8,0-1.5,0-2.3-0.1l-4,16.1l-16.6-4.1l4-16.1c-5.4-2.5-10.2-6.1-14.1-10.3l-14.1,8.5l-8.8-14.6
			l14-8.5c-2-5.5-3-11.4-2.8-17.4l-15.8-3.9l4.1-16.6L93.9,98c2.5-5.6,6.1-10.5,10.5-14.4l-8.2-13.7l14.6-8.8l8.2,13.6
			c4.9-1.8,10.1-2.8,15.5-2.8c0.8,0,1.5,0,2.3,0.1l3.8-15.3l16.6,4.1L153.3,76c5.6,2.6,10.5,6.3,14.5,10.7l5.1-3.1
			c0.4,0.7,0.8,1.5,1.5,2.1l2.5,2.1c-0.1,0.1-0.1,0.1-0.2,0.1h-3.5c-4.2,0-8.1,4-8.1,8.2v8.8h-3.5c-3.4-8-10.6-14.7-20-17
			c-2.4-0.6-4.7-0.8-7.1-0.8c-13.1,0-25.1,8.9-28.4,22.2c-3.9,15.7,5.7,31.6,21.3,35.4c2.4,0.6,4.7,0.9,7.1,0.9
			c1.1,0,2.2-0.1,3.2-0.2l-1.3-7.9c-0.6,0.1-1.3,0.1-2,0.1c-1.7,0-3.4-0.2-5.1-0.6c-11.4-2.8-18.3-14.4-15.5-25.7
			c2.4-9.5,10.8-16.1,20.6-16.1c1.7,0,3.4,0.1,5.1,0.5c5.6,1.4,10.1,4.3,12.9,9.3h-13.2c-5.8,0-11.3,5-11.3,10.9v1
			c0,4.1,2.8,7.7,6.3,9.4c0.1,0,0.2,0.1,0.3,0.1l1.8,11.2l1.3,7.9l2.4,15.2l1.3,7.9l4.2,26l1.2,7.7l1.2,7.5l0.1,0.6l-0.1-0.8
			l-0.3,0.4h-28.3c-1.7,0-3,1.3-3,3s1.3,3,3,3h25.8l-3,7.2l-34.4,0.2c-1.5,0-2.8,0.5-3.5,1.7c-4.4,8-12.6,12.9-21.6,12.9h-0.1
			c-8.2,0-15.7-3.9-20.2-10.5l22.5,0c2.2,0,4-1.8,4-4l-0.1-20.7c0-1.1-0.4-2-1.2-2.8c-0.8-0.7-1.7-1.1-2.8-1.1l-22.5,0
			c4.5-6.7,12.1-10.9,20.3-10.9h0.1c8.9,0,17.2,4.5,21.6,12.4c0.7,1.3,2,1.6,3.5,1.6c0,0,0,0,0,0l39.1,0.1l-1.2-7.6l-35.7,0.3
			c-6.1-9.2-16.4-14.8-27.3-14.8h-0.2c-13.6,0-25.8,8.9-30.5,21.7c-0.4,1.2-0.3,2.4,0.5,3.5c0.8,1.1,2,1.8,3.3,1.8c0,0,0,0,0,0
			l25.1-0.2l0.1,12.6l-25.1,0.2c-1.3,0-2.5,0.7-3.3,1.8c-0.7,1.1-0.9,2.3-0.5,3.5c4.8,12.7,17,21.1,30.5,21.1h0.2
			c11,0,21.3-5.7,27.3-15.1l28.8-0.2l-6.5,15c-0.5,1.2-0.4,2.5,0.3,3.6c0.7,1.1,2,1.6,3.3,1.6h82.3c1.4,0,2.6-0.5,3.4-1.6
			c0.7-1.1,0.9-2.5,0.3-3.7l-16-36.1l3.4-23.6h15.6c1.7,0,3.3-0.9,3.8-2.6l12-36.9c0.4-1.2,0.2-2.7-0.6-3.7s-2-1.8-3.2-1.8h-21
			l-0.1,0.1v0c2-1.4,3-3.6,3-6.2v-3.8c0,0,0.3-0.1,0.4-0.1l2.8,2.7c1.5,1.5,3.4,2.2,5.4,2.2c1.9,0,3.9-0.7,5.3-2.2l6.8-6.8
			c1.4-1.4,2.2-3.3,2.2-5.3s-0.8-3.9-2.2-5.3l-2.6-2.8c0-0.1,0.1-0.5,0.1-0.5h3.6c4.2,0,7.1-3,7.1-7.2v-9.6
			C248,92,245.1,88,240.9,88z M215,116.4c0,1.4-1.2,2.6-2.6,2.6h-73.8c-1.4,0-2.6-1.2-2.6-2.6v-0.9c0-1.4,1.2-2.6,2.6-2.6h73.8
			c1.4,0,2.6,1.2,2.6,2.6V116.4z M201,100.7c0-3.3,2.7-5.9,6-5.9s6,2.6,6,5.8c0,1.8-0.8,3.4-2,4.4h-7.8
			C201.8,104,201,102.5,201,100.7z M143.1,128h66.8l-11.4,78.3l-43-0.5L143.1,128z M212.2,243h-70l12.5-29h44.6L212.2,243z
			 M231.6,149l-9.4,29h-11.5l4.2-29H231.6z M241,105h-9.3c-0.7,4-2,6.9-3.9,9.6l6.5,6.8l-6.8,6.9l-5.3-5.3c0,0-0.2,0-0.1,0
			c1.2-1.7,1.9-3.8,1.9-6.1v-1c0-3.8-2-7.1-5-9c0,0,0,0,0,0c0.9-1.8,1.5-3.8,1.5-6c0-7.5-6-13.5-13.5-13.5
			c-7.5,0-13.5,5.9-13.5,13.3c0,1.6,0.3,3.3,0.8,4.3H173v-9h9.2c0.6-4,1.9-6.5,3.8-9.2l-6.4-6.3l6.8-6.8l6.2,6.4
			c2.8-1.9,5.3-3.2,9.3-3.9V67h9v9.1c4,0.7,7,2,9.8,3.9l6.5-6.3l6.9,6.8l-6.3,6.3c1.9,2.8,3.2,5.2,3.8,9.2h9.2V105z"/>
		<ellipse fill="#5A81B8" cx="175.5" cy="228.3" rx="7.6" ry="7.3"/>
		<path fill="#5A81B8" d="M161.9,184.5c0.2,2.1,2,3.6,4,3.6c0.1,0,0.3,0,0.4,0c2.2-0.2,3.8-2.2,3.6-4.4l-3.7-34.8
			c-0.2-2.2-2.2-3.8-4.4-3.6c-2.2,0.2-3.8,2.2-3.6,4.4L161.9,184.5z"/>
		<path fill="#5A81B8" d="M185.7,188.1c0.1,0,0.3,0,0.4,0c2,0,3.8-1.5,4-3.6l3.7-34.8c0.2-2.2-1.4-4.2-3.6-4.4
			c-2.2-0.2-4.2,1.4-4.4,3.6l-3.7,34.8C181.9,185.9,183.5,187.8,185.7,188.1z"/>
	</g>
</g>
</svg>
