<?xml version="1.0" encoding="utf-8"?>
<!-- Generator: Adobe Illustrator 18.1.1, SVG Export Plug-In . SVG Version: 6.00 Build 0)  -->
<svg version="1.1" id="Layer_1" xmlns="http://www.w3.org/2000/svg" xmlns:xlink="http://www.w3.org/1999/xlink" x="0px" y="0px"
	 viewBox="0 0 300 300" enable-background="new 0 0 300 300" xml:space="preserve">
<g>
	<path fill="#FFFFFF" d="M96,143.5l1.3,18.5h1.1c3,0,5.6,3,5.6,6v20.3c0,0.6-0.2,1.2-0.3,1.7c12,21.6,35,35.7,60.6,35.7
		c5.8,0,11.7-0.7,17.4-2.2c35.4-9.1,57.4-44.1,51-79.5l-15.1,4.1c4.1,27-12.8,53.3-39.8,60.3c-4.4,1.1-9,1.7-13.5,1.7
		c-24.5,0-46-16.6-52.1-40.4c-7.4-28.8,9.9-58.2,38.7-65.6c2.2-0.6,4.4-1,6.6-1.3l0.7-15.8c-3.8,0.3-7.6,0.9-11.3,1.8
		C119.9,95.8,100.7,117.7,96,143.5z"/>
	<path fill="#CCCCCC" d="M164.3,113.4c-3.6,0-7.2,0.5-10.7,1.4c-22.9,5.9-36.7,29.3-30.8,52.2c4.9,18.9,21.9,32.2,41.5,32.2
		c3.6,0,7.2-0.5,10.7-1.4c22.9-5.9,36.7-29.3,30.8-52.2c-0.3-1-0.5-1.9-0.9-2.9c-0.8-2.4-2.4-6.2-5-10.3
		C192.1,120.8,178.9,113.4,164.3,113.4z M155.2,119.9c2.7-0.7,5.4,0.9,6.1,3.6s-0.9,5.4-3.6,6.1c-2.7,0.7-5.4-0.9-6.1-3.6
		S152.5,120.6,155.2,119.9z M131.2,155.2c-2.7-0.5-4.5-3.2-3.9-5.9c0.5-2.7,3.2-4.5,5.9-3.9c2.7,0.5,4.5,3.2,3.9,5.9
		C136.6,154,134,155.8,131.2,155.2z M145.5,184.2c-1.9,2-5.1,2.1-7,0.2c-2-1.9-2.1-5.1-0.2-7c1.9-2,5.1-2.1,7-0.2
		C147.3,179.1,147.4,182.2,145.5,184.2z M174.2,193.7c-2.7,0.7-5.4-0.9-6.1-3.6s0.9-5.4,3.6-6.1c2.7-0.7,5.4,0.9,6.1,3.6
		S176.9,193,174.2,193.7z M170.1,178.6c-1.9,0.5-3.8,0.7-5.8,0.7c-10.5,0-19.7-7.1-22.3-17.3c-3.2-12.3,4.3-24.9,16.6-28.1
		c1.9-0.5,3.8-0.7,5.8-0.7c10.5,0,19.7,7.1,22.3,17.3C189.8,162.8,182.4,175.5,170.1,178.6z M184.1,136.4c-2-1.9-2.1-5.1-0.2-7
		s5.1-2.1,7-0.2c2,1.9,2.1,5.1,0.2,7C189.3,138.3,186.1,138.3,184.1,136.4z M198.1,158.4c2.7,0.5,4.5,3.2,3.9,5.9
		c-0.5,2.7-3.2,4.5-5.9,3.9c-2.7-0.5-4.5-3.2-3.9-5.9C192.8,159.6,195.4,157.8,198.1,158.4z"/>
	<circle fill="#FFFFFF" cx="204.9" cy="101.8" r="5"/>
	<circle fill="#FFFFFF" cx="177.4" cy="88.6" r="5"/>
	<circle fill="#FFFFFF" cx="221.7" cy="127.8" r="5"/>
	<polygon fill="#CCCCCC" points="62.1,173 62,173 62,182 93,182 93,173 92.2,173 92.2,173 	"/>
	<polygon fill="#FFFFFF" points="68,162 86.3,162 83.1,117 71.2,117 	"/>
	<g>
		<path fill="#5980B7" d="M142,162c2.6,10.2,11.8,17.3,22.3,17.3c1.9,0,3.9-0.2,5.8-0.7c12.3-3.2,19.8-15.8,16.6-28.1
			c-2.6-10.2-11.8-17.3-22.3-17.3c-1.9,0-3.9,0.2-5.8,0.7C146.2,137.1,138.8,149.7,142,162z M164.3,144.2c5.5,0,10.3,3.7,11.7,9.1
			c1.7,6.4-2.2,13-8.7,14.7c-1,0.3-2,0.4-3,0.4c-5.5,0-10.3-3.7-11.7-9.1c-1.7-6.4,2.2-13,8.7-14.7
			C162.3,144.3,163.3,144.2,164.3,144.2z"/>
		<circle fill="#5980B7" cx="156.4" cy="124.7" r="5"/>
		<circle fill="#5980B7" cx="173" cy="188.9" r="5"/>
		<circle fill="#5980B7" cx="132.2" cy="150.3" r="5"/>
		<circle fill="#5980B7" cx="197.2" cy="163.2" r="5"/>
		<circle fill="#5980B7" cx="187.5" cy="132.8" r="5"/>
		<circle fill="#5980B7" cx="141.9" cy="180.8" r="5"/>
		<path fill="#5980B7" d="M249.1,134c-9.4-36.4-31.8-53.7-49-61.8c-18.5-8.7-34.8-8.8-35.5-8.8h0c-2.9,0-5.4,2.3-5.5,5.2l-0.3,7.4
			c-4.9,0.3-9.8,1.1-14.6,2.4C122,84.1,105,98.5,94,117.1v0l-0.4-5.8c-0.2-2.9-2.6-5.3-5.4-5.3H83v-4.6c0-3-2.5-5.5-5.5-5.5
			s-5.5,2.5-5.5,5.5v4.6h-5.9c-2.9,0-5.4,2.2-5.6,5.1L56.8,162h-0.9c-3,0-4.9,3-4.9,6v20.3c0,3,1.9,4.7,4.9,4.7h27.6l-0.5,3H65.8
			c-3,0-5.5,2.5-5.5,5.5s2.5,5.5,5.5,5.5h15.9l-0.3,3H69.8c-3,0-5.5,2.5-5.5,5.5s2.5,5.5,5.5,5.5h10.4l-0.3,3h-10
			c-3,0-5.5,2.5-5.5,5.5s2.5,5.5,5.5,5.5h15c2.8,0,5.2-1.9,5.5-4.7l3.8-34.7l0-0.2c14,24.9,40.5,41.2,70.1,41.2
			c6.8,0,13.5-0.8,20.1-2.5c41.3-10.7,66.9-51.7,58.9-93l1.9-0.5C248.1,139.9,249.8,136.9,249.1,134z M225.2,124.2
			c2,1.9,2.1,5.1,0.2,7c-1.9,2-5.1,2.1-7,0.2c-2-1.9-2.1-5.1-0.2-7C220,122.4,223.2,122.3,225.2,124.2z M208.5,105.2
			c-1.9,2-5.1,2.1-7,0.2c-2-1.9-2.1-5.1-0.2-7c1.9-2,5.1-2.1,7-0.2C210.3,100,210.4,103.2,208.5,105.2z M173.8,85.1
			c1.9-2,5.1-2.1,7-0.2c2,1.9,2.1,5.1,0.2,7c-1.9,2-5.1,2.1-7,0.2C172,90.3,171.9,87.1,173.8,85.1z M199.9,132.4
			c2.6,4.1,4.2,7.8,5,10.3c0.3,1,0.6,1.9,0.9,2.9c5.9,22.9-7.9,46.3-30.8,52.2c-3.5,0.9-7.1,1.4-10.7,1.4
			c-19.5,0-36.6-13.2-41.5-32.2c-5.9-22.9,7.9-46.3,30.8-52.2c3.5-0.9,7.1-1.4,10.7-1.4C178.9,113.4,192.1,120.8,199.9,132.4z
			 M71.2,117h11.9l3.2,45H68L71.2,117z M93,182H62v-9h0.1h30.1h0H93V182z M181.7,223.6c-5.7,1.5-11.6,2.2-17.4,2.2
			c-25.6,0-48.5-14.1-60.6-35.8c1-1.6,0.3-22,0.3-22c0-3-2.6-6-5.6-6h-1.1L96,143.8C100.8,118,120,96,147,89c3.7-1,7.5-1.6,11.3-1.9
			l-0.7,15.8c-2.2,0.3-4.4,0.7-6.6,1.3c-28.8,7.4-46.1,36.8-38.7,65.6c6.1,23.8,27.6,40.4,52.1,40.4c4.5,0,9.1-0.6,13.5-1.7
			c27-7,43.9-33.3,39.8-60.3l15.1-4.1C239,179.5,217.1,214.4,181.7,223.6z"/>
	</g>
</g>
</svg>
