<?xml version="1.0" encoding="utf-8"?>
<!-- Generator: Adobe Illustrator 18.1.1, SVG Export Plug-In . SVG Version: 6.00 Build 0)  -->
<svg version="1.1" id="Layer_1" xmlns="http://www.w3.org/2000/svg" xmlns:xlink="http://www.w3.org/1999/xlink" x="0px" y="0px"
	 viewBox="0 0 300 300" enable-background="new 0 0 300 300" xml:space="preserve">
<g>
	<path fill="#FFFFFF" d="M248.1,115.8c0-14.4-11.8-26.1-26.2-26.1s-26.2,11.7-26.2,26.1c0,10.2,5.8,19.2,14.3,23.2h7v-1.3
		c-1-0.2-0.7-0.3-0.9-0.5l-9.4-8.1c-1.9-1.6-2.1-4.5-0.5-6.3c1.6-1.9,4.6-2.1,6.5-0.4l4.4,3.7v-13c0-2.5,2-4.5,4.5-4.5
		s4.5,2,4.5,4.5v10.4l4.9-6.5c1.5-2,4.3-2.4,6.2-0.9c2,1.5,2.5,4.3,0.9,6.3l-12,16v0.8h7.8C242.3,135,248.1,126,248.1,115.8z"/>
	<path fill="#FFFFFF" d="M182,218.8v-24.1c0-2.5,1.7-4.7,4.2-4.7h41.9c2.5,0,4.9,2.2,4.9,4.7V232h11v-48h-70v31.4
		C177,216,180,217.2,182,218.8z"/>
	<polygon fill="#CCCCCC" points="248,175 249.5,175 231.6,148 174,148 174,175 	"/>
	<path fill="#FFFFFF" d="M165,143.8V126h-24c-1.3,0-2.5-0.8-3.3-1.7l-21.5-24l-20.7,24c-0.9,1-2.1,1.7-3.4,1.7H68v90.1
		c7,2.5,12.4,8.9,14.1,15.9H97v-31.7c0-2.5,2.2-4.3,4.7-4.3h28.9c2.5,0,4.4,1.8,4.4,4.3V232h11.9c2-8,9.1-15.1,18.1-16.7v-36V143.8z
		 M105,189.5c0,2.5-2,4.5-4.5,4.5h-20c-2.5,0-4.5-2-4.5-4.5v-20c0-2.5,2-4.5,4.5-4.5h20c2.5,0,4.5,2,4.5,4.5V189.5z M105,153.5
		c0,2.5-2,4.5-4.5,4.5h-20c-2.5,0-4.5-2-4.5-4.5v-20c0-2.5,2-4.5,4.5-4.5h20c2.5,0,4.5,2,4.5,4.5V153.5z M157,189.5
		c0,2.5-2,4.5-4.5,4.5h-20c-2.5,0-4.5-2-4.5-4.5v-20c0-2.5,2-4.5,4.5-4.5h20c2.5,0,4.5,2,4.5,4.5V189.5z M157,153.5
		c0,2.5-2,4.5-4.5,4.5h-20c-2.5,0-4.5-2-4.5-4.5v-20c0-2.5,2-4.5,4.5-4.5h20c2.5,0,4.5,2,4.5,4.5V153.5z"/>
	<path fill="#CCCCCC" d="M57.1,117h33l22.7-26.3c0.8-1,2.1-1.6,3.4-1.7c1.3,0,2.5,0.7,3.4,1.6L143,117h32.2l-8.3-31h-87H66.2
		L57.1,117z"/>
	<rect x="106" y="205" fill="#CCCCCC" width="20" height="27"/>
	<rect x="85" y="174" fill="#FFFFFF" width="11" height="11"/>
	<rect x="137" y="174" fill="#FFFFFF" width="11" height="11"/>
	<rect x="85" y="138" fill="#FFFFFF" width="11" height="12"/>
	<rect x="137" y="138" fill="#FFFFFF" width="11" height="12"/>
	<path fill="#FFFFFF" d="M191,231.4c0,0.3-0.1,0.6-0.1,0.6H224v-4h-33V231.4z"/>
	<rect x="191" y="214" fill="#FFFFFF" width="33" height="5"/>
	<rect x="191" y="199" fill="#FFFFFF" width="33" height="6"/>
	<rect x="68" y="67" fill="#FFFFFF" width="8" height="10"/>
	<path fill="#CCCCCC" d="M60.1,223.9c-5.9,0-10.9,4.1-12.8,9.1h25.6C71,228,66,223.9,60.1,223.9z"/>
	<path fill="#CCCCCC" d="M181.7,233c-1.9-5-6.9-9.1-12.8-9.1S158,228,156.1,233H181.7z"/>
	<g>
		<path fill="#5980B7" d="M105,169.5c0-2.5-2-4.5-4.5-4.5h-20c-2.5,0-4.5,2-4.5,4.5v20c0,2.5,2,4.5,4.5,4.5h20c2.5,0,4.5-2,4.5-4.5
			V169.5z M96,185H85v-11h11V185z"/>
		<path fill="#5980B7" d="M157,169.5c0-2.5-2-4.5-4.5-4.5h-20c-2.5,0-4.5,2-4.5,4.5v20c0,2.5,2,4.5,4.5,4.5h20c2.5,0,4.5-2,4.5-4.5
			V169.5z M148,185h-11v-11h11V185z"/>
		<path fill="#5980B7" d="M105,133.5c0-2.5-2-4.5-4.5-4.5h-20c-2.5,0-4.5,2-4.5,4.5v20c0,2.5,2,4.5,4.5,4.5h20c2.5,0,4.5-2,4.5-4.5
			V133.5z M96,150H85v-12h11V150z"/>
		<path fill="#5980B7" d="M157,133.5c0-2.5-2-4.5-4.5-4.5h-20c-2.5,0-4.5,2-4.5,4.5v20c0,2.5,2,4.5,4.5,4.5h20c2.5,0,4.5-2,4.5-4.5
			V133.5z M148,150h-11v-12h11V150z"/>
	</g>
	<path fill="#5980B7" d="M261.5,176.5l-20.8-30.8l-3-4.6l3,4.5c9.9-6.2,16.4-17.2,16.4-29.7c0-19.4-15.8-35.2-35.2-35.2
		s-35.2,15.7-35.2,35.1c0,8.9,3.4,17.2,8.9,23.2H174v-13h-0.2h7.4c0,0,0,0,0,0c2.5,0,4.5-2.2,4.5-4.7c0-0.6-0.1-1.2-0.3-1.7
		l-10.7-39.1c-0.5-2-2.3-3.5-4.3-3.5H85V62.8c0-2.5-2.6-4.8-5.1-4.8h-17c-2.5,0-3.9,2.3-3.9,4.8v18.3l-12,38.7
		c-0.4,1.4-0.3,3.1,0.5,4.2c0.8,1.1,2,2,3.5,2h7.4H59v88.9c0,0-0.4,0-0.5,0c-11.6,0.9-20.9,10.7-20.9,22.5c0,2.5,2,4.5,4.4,4.5h1
		c0,0,144,0,144,0c0,0,54.8,0,59.7,0c4.9,0,6.3-3.1,6.3-5.1V184h5c0,0,0,0,0,0c2.5,0,4.5-2.1,4.5-4.6
		C262.5,178.3,262.1,177.2,261.5,176.5z M221.9,89.7c14.4,0,26.2,11.7,26.2,26.1c0,10.2-5.8,19.2-14.3,23.2H226v-0.8l-0.4,0.4
		c-0.1,0.2-0.4,0.5-0.5,0.5h-0.3c0.3,0,0.5-0.3,0.7-0.6l0.2-0.3l12.1-15.9c1.5-2,1.1-4.8-0.9-6.3c-2-1.5-4.7-1.1-6.2,0.9l-4.9,6.5
		v-10.4c0-2.5-2-4.5-4.5-4.5s-4.5,2-4.5,4.5v13l-4.4-3.7c-1.9-1.6-4.8-1.4-6.4,0.4c-1.6,1.9-1.5,4.7,0.4,6.3l9.5,8.1
		c0.2,0.2-0.1,0.4,0.9,0.5v1.3h-7c-8.5-4-14.3-13-14.3-23.2C195.7,101.4,207.5,89.7,221.9,89.7z M223.4,133.5
		c-0.1-1.1-0.6-2.3-1.5-3.1l-0.9-0.8l0,0l0.9,0.8C222.8,131.2,223.3,132.3,223.4,133.5z M68,67h8v10h-8V67z M57.1,117l9.1-31h13.7
		h87l8.3,31H143l-23.6-26.4c-0.9-1-2.1-1.6-3.4-1.6c-1.3,0-2.5,0.7-3.4,1.7L90,117H57.1z M47.7,232c2.1-5,6.9-8.1,12.4-8.1
		s10.3,3.1,12.4,8.1H47.7z M126,232h-20v-27h20V232z M147.1,232h-0.1H135v-31.7c0-2.5-1.9-4.3-4.4-4.3h-28.9c-2.5,0-4.7,1.8-4.7,4.3
		V232H82.1H82c-1.8-7-7-13.2-14-15.8V126h24.1c1.3,0,2.5-0.8,3.4-1.8l20.7-23.9l21.5,24c0.9,0.9,2.1,1.6,3.3,1.6h24v17.8v35.5v36
		C155,217.7,149.2,223,147.1,232z M156.5,232c2.1-5,6.9-8.1,12.4-8.1s10.3,3.1,12.4,8.1H156.5z M224,232h-33.1h-0.1
		c0,0,0.2-0.2,0.2-0.2V228h32.6h0.4V232z M224,219h-0.4H191v-5h32.6h0.4V219z M224,205h-0.4H191v-6h33V205z M244,232h-11v-37.3
		c0-2.5-2.4-4.7-4.9-4.7h-41.9c-2.5,0-4.2,2.2-4.2,4.7v24.2c0,0-0.2-0.1-0.2-0.1c-2.3-1.6-4.9-2.8-7.8-3.4c0,0,0,0,0,0V184h69.5h0.5
		V232z M248,175h-74v-0.2v-26.5V148h57.6l17.9,27H248z"/>
</g>
</svg>
