<?xml version="1.0" encoding="utf-8"?>
<!-- Generator: Adobe Illustrator 18.1.1, SVG Export Plug-In . SVG Version: 6.00 Build 0)  -->
<svg version="1.1" id="Layer_1" xmlns="http://www.w3.org/2000/svg" xmlns:xlink="http://www.w3.org/1999/xlink" x="0px" y="0px"
	 viewBox="0 0 300 300" enable-background="new 0 0 300 300" xml:space="preserve">
<g>
	<path fill="#FFFFFF" d="M131.9,140c-2.7,6-7.3,9.7-12.6,9.7c-5.4,0-10-3.7-12.6-9.7H91v16h57v-16H131.9z"/>
	<path fill="#FFFFFF" d="M126,74.3V53h-13v21c0,10.2-6.1,19.8-12.2,28.6c-2.9,4.2-5.5,8.4-7.4,12.4h13.3c2.6-6,7.1-9.3,12.5-9.3
		c5.4,0,9.9,3.3,12.5,9.3h13.8c-1.9-4-4.7-8.4-7.6-12.7C132.1,93.7,126,84.3,126,74.3z"/>
	<rect x="109" y="37" fill="#CCCCCC" width="21" height="5"/>
	<path fill="#FFFFFF" d="M91,167v16.2c10-9.8,23.3-15.9,38.2-15.9c6.6,0,12.8,1.2,18.8,3.4V167H91z"/>
	<path fill="#FFFFFF" d="M110.5,129c2.5,0,4.7,1.4,5.3,3.8c1,3.9,2.7,5.4,3.4,5.4s2.4-1.4,3.4-5.3c0.6-2.4,2.8-3.9,5.3-3.9H147v-3
		h-19.2c-2.5,0-4.7-2-5.3-4.5c-0.9-3.6-2.5-5.4-3.3-5.4c-0.8,0-2.3,1.9-3.3,5.5c-0.6,2.4-2.8,4.4-5.3,4.4H91v3H110.5z"/>
	<rect x="191" y="104" fill="#FFFFFF" width="34" height="19"/>
	<path fill="#CCCCCC" d="M225,145.3V134h-35v11.3c0,8.7,7,17.9,17.5,17.9S225,154,225,145.3z"/>
	<path fill="#FFFFFF" d="M129.1,185.2c8.1,0,15.7,2.7,21.7,7.3c2-1.4,4-2.7,6.1-3.9c-7.5-6.4-17.2-10.3-27.8-10.3
		c-17.7,0-32.9,10.7-39.4,26c2.8-0.8,5.6-1.3,8.6-1.7C104.6,192.3,116,185.2,129.1,185.2z"/>
	<path fill="#FFFFFF" d="M142.1,199.9c-3.8-2.3-8.3-3.7-13-3.7c-6.4,0-12.2,2.4-16.6,6.4c7.8,0.9,15.2,3.2,21.9,6.8
		C136.7,206,139.3,202.8,142.1,199.9z"/>
	<path fill="#FFFFFF" d="M189.3,191.6c-19,0-35.8,9.4-45.7,24c2.2,1.8,4.3,3.6,6.3,5.6c8.4-13,22.9-21.3,39.5-21.3
		c23.1,0,42.3,17,46.2,39h8.5C240,212,217,191.6,189.3,191.6z"/>
	<path fill="#FFFFFF" d="M189.3,210.9c-14.1,0-26.3,8.3-32.2,20.1c1.6,2.5,3,5,4.2,8h1.5c3.5-11,14-19.5,26.4-19.5
		c12.4,0,22.9,8.5,26.4,19.5h8.5C220.5,223,206.3,210.9,189.3,210.9z"/>
	<path fill="#FFFFFF" d="M189.3,230.5c-6.2,0-11.6,3.5-14.5,8.5h29C200.9,234,195.5,230.5,189.3,230.5z"/>
	<path fill="#FFFFFF" d="M105.8,214c-18.5,0-34.6,10-43.2,25h7.8c7.8-11,20.7-18.4,35.3-18.4s27.5,7.4,35.3,18.4h7.8
		C140.4,224,124.2,214,105.8,214z"/>
	<path fill="#FFFFFF" d="M105.8,231.6c-7.8,0-15,2.4-20.5,7.4h41.1C120.7,234,113.6,231.6,105.8,231.6z"/>
	<polygon fill="#CCCCCC" points="73.4,264 225.6,264 243.1,250 56.5,250 	"/>
	<path fill="#5980B7" d="M263.7,242.3c-0.8-2.2-2.9-3.3-5.2-3.3h-3.5c-3.1-25-20.1-45.8-42.1-54.4v-11.3c9-1.8,17.2-8.3,20.8-16.9
		c1.4-3.4,2.2-7.1,2.2-11.1V145v-16.7V97.8c0-3-2.2-4.8-5.3-4.8h-45.7c-3,0-5.1,2.1-5.1,5.1l-0.2,48.2c0,13.8,9.2,24.3,22.2,27v8.2
		c-4-0.8-8.4-1.2-12.7-1.2c-7.5,0-14.8,1.3-21.5,3.6c0,0,0,0,0,0c-2.6-2.7-5.8-5.5-8.9-7.5c-0.5-0.3-0.8-0.3,0.2,0v-15.9v-37.5
		c0-9.8-6.1-18.6-11.8-27.1C142,88.2,137,81,137,74.3V52.1c0,0,0,0,0.1,0c2.3-0.6,3.9-2.8,3.9-5.3V30.8c0-3-2.3-4.8-5.4-4.8h-32.4
		c-3,0-5.2,1.7-5.2,4.8v16.1c0,2.7,1.8,5,4.4,5.4c0.3,0.1,0.5,0.1,0.8,0.1c-0.3,0-0.2,0-1.2-0.1V74c0,6.8-5.2,14.6-10.3,22.1
		c-4.6,6.7-9.2,13.6-11,20.9c1-1.6,1.1-1.6,0.1,0c-0.5,0.8-0.8,1.8-0.8,2.9v79.4c0-0.4,0.4-0.8,0.6-1.2c-0.2,0.4-0.4,0.8-0.6,1.2
		c-0.5,1.1-1,2.2-1.4,3.3l-32.8-42.7c-1.8-2.4-5.3-2.9-7.7-1c-2.4,1.8-2.9,5.3-1,7.7l35.2,46.2C62.7,219,55,228,50.3,239h-8.8
		c-2.3,0-4.4,1.1-5.2,3.3c-0.8,2.2-0.1,4.4,1.6,5.9l1.9,1.5l28.1,23.8c1,0.8,2.2,1.5,3.5,1.5h156.1c1.3,0,2.5-0.7,3.5-1.5l29.1-23.8
		l1.9-1.4C263.8,246.8,264.5,244.5,263.7,242.3z M191,104h34v19h-34V104z M190,145.3V134h35v11.3c0,8.7-7.3,17.9-17.5,17.9
		C197.3,163.1,190,154,190,145.3z M136.9,52.1c0,0.1-0.8,0.2-1.3,0.2C136.1,52.3,136.5,52.2,136.9,52.1z M109,37h21v5h-21V37z
		 M100.8,102.6C106.9,93.7,113,84.2,113,74V53h0.2H126v21.3c0,10.1,6.1,19.4,11.9,28c2.9,4.3,5.7,8.7,7.6,12.7h-13.8
		c-2.6-6-7.1-9.3-12.5-9.3c-5.4,0-9.9,3.3-12.5,9.3H93.4C95.3,111,97.9,106.8,100.8,102.6z M91,126h19.6c2.5,0,4.7-2,5.3-4.5
		c0.9-3.6,2.5-5.4,3.3-5.4c0.8,0,2.3,1.9,3.3,5.5c0.6,2.4,2.8,4.4,5.3,4.4H147v3h-19.1c-2.5,0-4.7,1.4-5.3,3.8
		c-1,3.9-2.7,5.4-3.4,5.4s-2.4-1.4-3.4-5.3c-0.6-2.4-2.8-3.9-5.3-3.9H91V126z M91,140L91,140h15.6c2.7,6,7.3,9.7,12.6,9.7
		c5.4,0,10-3.7,12.6-9.7h15.9h0.2v16h-0.2H91h0V140z M91,167h57v3.7c-5-1.4-12.3-3.4-18.9-3.4c-14.7,0-28,5.9-37.7,15.5
		c-0.1,0.1-0.4,0.2-0.4,0.4V167z M129.1,178.4c10.6,0,20.3,3.9,27.8,10.3c-2.1,1.2-4.1,2.5-6.1,3.9c-6-4.6-13.6-7.2-21.7-7.2
		c-13.1,0-24.5,7.6-30.8,17.6c0,0,0,0,0,0c0,0,0-0.1,0-0.1c-2.9,0.4-5.7,0.9-8.5,1.6C96.3,189.2,111.5,178.4,129.1,178.4z
		 M105.8,214c18.5,0,34.6,10,43.2,25h-7.8c-7.8-11-20.7-18.4-35.3-18.4S78.3,228,70.4,239h-7.8C71.2,224,87.3,214,105.8,214z
		 M126.3,239H85.3c5.6-5,12.7-7.4,20.5-7.4S120.7,234,126.3,239z M225.6,264H73.4l-16.9-14h186.5L225.6,264z M174.8,239
		c2.9-5,8.3-8.5,14.5-8.5c6.2,0,11.6,3.5,14.5,8.5H174.8z M235.5,239c-3.9-22-23.1-39.1-46.2-39.1c-16.5,0-31.1,8.4-39.5,21.4
		c2.7,2.9,5.2,5.9,7.3,9.3c5.9-11.8,18.1-19.6,32.2-19.6c17,0,31.2,12,35,28h-8.5c-3.5-11-14-19.5-26.4-19.5
		c-12.4,0-22.9,8.5-26.4,19.5h-1.5c-1.2-3-2.6-5.7-4.2-8.1c-2.1-3.4-4.6-6.7-7.3-9.5c-2-2.1-4-4.1-6.3-5.8c-2.9-2.3-5.9-4.4-9.2-6.1
		c-6.7-3.6-14-5.9-21.9-6.8c0,0,0,0-0.1,0c0,0,0,0,0.1,0c4.4-4,10.3-6.4,16.6-6.4c4.8,0,9.2,1.3,13,3.7c-2.9,2.9-5.5,6.1-7.8,9.5
		c3.3,1.7,6.3,3.8,9.2,6c10-14.6,26.7-23.9,45.7-23.9C217,191.6,240,212,244,239H235.5z"/>
</g>
</svg>
