<?xml version="1.0" encoding="utf-8"?>
<!-- Generator: Adobe Illustrator 18.1.1, SVG Export Plug-In . SVG Version: 6.00 Build 0)  -->
<svg version="1.1" id="Layer_1" xmlns="http://www.w3.org/2000/svg" xmlns:xlink="http://www.w3.org/1999/xlink" x="0px" y="0px"
	 viewBox="0 0 300 300" enable-background="new 0 0 300 300" xml:space="preserve">
<g>
	<path fill="#FFFFFF" d="M147.1,128c1.8-1.1,4.1-1.1,5.9,0l25.5,15.4l16.1-9.7L150,106.7l-44.6,26.9l16.1,9.7L147.1,128z"/>
	<polygon fill="#FFFFFF" points="94.4,140.3 78.2,150 94.4,159.7 110.5,150 	"/>
	<polygon fill="#FFFFFF" points="205.6,159.7 221.8,150 205.6,140.3 189.5,150 	"/>
	<path fill="#FFFFFF" d="M150,74l-71.8,43.3l16.1,9.7l52.7-31.8c1.8-1.1,4.1-1.1,5.9,0l52.7,31.8l16.1-9.7L150,74z"/>
	<path fill="#FFFFFF" d="M194.6,166.4l-16.1-9.7L152.9,172c-0.9,0.5-1.9,0.8-2.9,0.8c-1,0-2-0.3-2.9-0.8l-25.5-15.4l-16.1,9.7
		l44.6,26.9L194.6,166.4z"/>
	<path fill="#FFFFFF" d="M150,205.6c-1,0-2-0.3-2.9-0.8L94.4,173l-16.1,9.7L150,226l71.8-43.3l-16.1-9.7l-52.7,31.8
		C152,205.3,151,205.6,150,205.6z"/>
	<polygon fill="#CCCCCC" points="167.4,150 150,139.5 132.6,150 150,160.5 	"/>
	<path fill="#5980B7" d="M238.5,150c0-2-1-3.8-2.8-4.9l-19.1-11.5l19.1-11.5c1.7-1,2.8-2.9,2.8-4.9s-1-3.8-2.8-4.9l-82.8-49.9
		c-1.8-1.1-4.1-1.1-5.9,0l-82.8,49.9c-1.7,1-2.8,2.9-2.8,4.9s1,3.8,2.8,4.9l19.1,11.5l-19.1,11.5c-1.7,1-2.8,2.9-2.8,4.9
		s1,3.8,2.8,4.9l19.1,11.5l-19.1,11.5c-1.7,1-2.8,2.9-2.8,4.9s1,3.8,2.8,4.9l82.8,49.9c0.9,0.5,1.9,0.8,2.9,0.8c1,0,2-0.3,2.9-0.8
		l82.8-49.9c1.7-1,2.8-2.9,2.8-4.9s-1-3.8-2.8-4.9l-19.1-11.5l19.1-11.5C237.4,153.8,238.5,152,238.5,150z M78.2,117.2L150,74
		l71.8,43.3l-16.1,9.7l-52.7-31.8c-1.8-1.1-4.1-1.1-5.9,0L94.4,127L78.2,117.2z M147.1,172c0.9,0.5,1.9,0.8,2.9,0.8
		c1,0,2-0.3,2.9-0.8l25.5-15.4l16.1,9.7L150,193.3l-44.6-26.9l16.1-9.7L147.1,172z M132.6,150l17.4-10.5l17.4,10.5L150,160.5
		L132.6,150z M152.9,128c-1.8-1.1-4.1-1.1-5.9,0l-25.5,15.4l-16.1-9.7l44.6-26.9l44.6,26.9l-16.1,9.7L152.9,128z M78.2,150l16.1-9.7
		l16.1,9.7l-16.1,9.7L78.2,150z M221.8,182.8L150,226l-71.8-43.3l16.1-9.7l52.7,31.8c0.9,0.5,1.9,0.8,2.9,0.8c1,0,2-0.3,2.9-0.8
		l52.7-31.8L221.8,182.8z M205.6,159.7l-16.1-9.7l16.1-9.7l16.1,9.7L205.6,159.7z"/>
</g>
</svg>
