<?xml version="1.0" encoding="utf-8"?>
<!-- Generator: Adobe Illustrator 18.1.1, SVG Export Plug-In . SVG Version: 6.00 Build 0)  -->
<svg version="1.1" id="Layer_1" xmlns="http://www.w3.org/2000/svg" xmlns:xlink="http://www.w3.org/1999/xlink" x="0px" y="0px"
	 viewBox="0 0 300 300" enable-background="new 0 0 300 300" xml:space="preserve">
<g>
	<path fill="none" d="M164,190.9c2-0.5,3.8-0.9,5.7-0.9H182v-9h-0.3c-1.9,0-3.7-0.9-3.7-2.9V167h-14v3.6V190.9z"/>
	<path fill="#FFFFFF" d="M219.9,146c14.6,0,26.1-10.9,26.1-25.5V97.8c0-18-14.3-33.8-32.3-33.8h-1.1c-18,0-32.6,15.7-32.6,33.8v22.7
		c0,1.6,0.1,3.1,0.3,4.5c4.4,0.9,7,1.4,7,1.5c1.6,0.4,2.6,1.8,2.6,3.4v11.5c5,3.5,10.3,4.6,16.4,4.6H219.9z M191,87.5
		c0-8.8,7.1-15.5,15.9-15.5h12.6c8.8,0,15.9,6.7,15.9,15.5c0,8.8-7.1,15.5-15.9,15.5h-12.6C198.1,103,191,96.3,191,87.5z
		 M201.8,137.8c-0.8-1.1-1-2.5-0.5-3.8l1.9-5.3l-4.8-3.2c-1.6-1.1-2.3-3.3-1.7-5.1c0.6-1.8,2.2-3.4,4.2-3.4h6.2l2-5.7
		c0.6-1.8,2.2-2.8,4.1-2.8s3.5,0.9,4.1,2.7l2,5.8h6.2c1.9,0,3.6,1.5,4.2,3.4c0.5,1.8-0.2,3.9-1.7,4.9l-4.8,3.2l1.9,5.5
		c0.4,1.3,0.2,2.7-0.6,3.9c-0.8,1.2-2.2,1.8-3.6,1.8c-0.9,0-1.8-0.3-2.5-0.8l-5.2-3.7l-5.2,3.7c-0.7,0.5-1.6,0.8-2.5,0.8
		C204,139.7,202.6,139,201.8,137.8z"/>
	<path fill="#FFFFFF" d="M206.8,96h12.6c4.9,0,8.9-3.6,8.9-8.5c0-4.9-4-8.5-8.9-8.5h-12.6c-4.9,0-8.9,3.6-8.9,8.5
		C198,92.4,201.9,96,206.8,96z"/>
	<path fill="#FFFFFF" d="M119.2,145.2c-17,0-24.5-10.5-26.8-18.1c-17.9,1.6-32.4,4.5-38.4,5.7V160h19v-13.4c0-1.9,1.6-3.5,3.5-3.5
		s3.5,1.6,3.5,3.5v17.5v6.5v47.3c10,0.6,17.6,3.3,21.9,8.9c3.4,4.3,4.2,9.2,4.2,12.2h27.8c0.1-3,1-8.7,4.8-13.3
		c3.1-3.7,7.5-6,13-7.2c-1.3-2.7-2.1-5.6-2.1-8.7c0,0,0,0,0,0c0,0,0,0,0,0c0-3.2,0.8-6.1,2.1-8.7c0.1-0.2,0.2-0.3,0.2-0.5
		c0.1-0.2,0.3-0.5,0.4-0.7c0.2-0.3,0.4-0.7,0.6-1c0.1-0.1,0.1-0.2,0.1-0.3c1.1-1.5,2.8-2.9,3.8-4.1v-23.9v-6.5v-17.5
		c0-1.9,1.6-3.5,3.5-3.5s3.5,1.6,3.5,3.5V160h19v-27.3c-6-1.2-20.6-4.1-38.7-5.7C142.7,134.8,136.3,145.2,119.2,145.2z M141.6,170.1
		c0,0.3,0,0.5-0.1,0.7c-1.1,13.9-20,24.6-20.8,25c-0.5,0.3-1.1,0.4-1.7,0.4c-0.5,0-1-0.1-1.4-0.3c-0.9-0.4-22.3-10.3-22.3-27.1
		c0-7.4,6.1-13.4,13.6-13.4c3.7,0,7.1,1.5,9.6,4c2.5-2.4,5.9-3.8,9.5-3.8c7.5,0,13.6,6.1,13.6,13.7l0,0.3
		C141.6,169.8,141.6,170,141.6,170.1z"/>
	<path fill="#FFFFFF" d="M128,162.7c-2.9,0-5.4,1.7-6.3,4.3c-0.5,1.4-1.8,2.4-3.3,2.4s-2.9-1-3.3-2.4c-0.9-2.7-3.4-4.5-6.3-4.5
		c-3.6,0-6.6,2.9-6.6,6.4c0,10,12.2,17.5,16.6,19.9c5.5-3.4,15.7-11.4,15.7-19.2c0-0.1,0-0.2,0-0.3
		C134.5,165.7,131.5,162.7,128,162.7z"/>
	<path fill="#CDCCCC" d="M99.6,126.2c1.7,4.5,6.6,12,19.6,12c13.2,0,17-7.5,18.1-11.9c-6-0.7-12.4-1-19-1
		C110.2,125.3,103.5,125.8,99.6,126.2z"/>
	<path fill="#FFFFFF" d="M221,206.2v1.9c0,11.1-8.6,19.9-19.7,20.9c-1.2,0.2-2.2,0-3.4,0h-0.3c-0.4,0-0.7,0-1,0H194v11h20.7
		c0.7-11,9.3-19.4,20.3-20.9V200h-14v3.9V206.2z"/>
	<polygon fill="#FFFFFF" points="238,193 238,187 234.9,187 221,187 221,193 	"/>
	<path fill="#CDCCCC" d="M234.8,226.2c-7,1.4-12.4,7.3-13,14.5C228.7,239.3,234.1,233.5,234.8,226.2z"/>
	<path fill="#CDCCCC" d="M177.3,229c0.4,5,3.7,10.2,9.7,11.5V229H177.3z"/>
	<path fill="#FFFFFF" d="M185.2,197H173v25h21.1c0.7-11,8.9-19.9,19.9-21.4V181h-25v12.7C189,195.6,187.2,197,185.2,197z"/>
	<polygon fill="#FFFFFF" points="217,174 217,168 214.2,168 188.7,168 185,168 185,174 	"/>
	<path fill="#CDCCCC" d="M201.1,222.2c7-1.4,12.4-7.3,13-14.5C207.2,209.1,201.8,215,201.1,222.2z"/>
	<path fill="#CDCCCC" d="M156.6,209.9c0,5.8,3.4,10.8,9.4,12.1v-24.3C160,199.1,156.6,204,156.6,209.9z"/>
	<path fill="#FFFFFF" d="M119.3,58.9C101.7,58.9,87.6,72,85.9,89h66.8C151,72,136.9,58.9,119.3,58.9z"/>
	<rect x="80" y="96" fill="#FFFFFF" width="78" height="9"/>
	<path fill="#CDCCCC" d="M206.7,133.6l3.9-2.7c0.7-0.5,1.6-0.8,2.5-0.8c0.9,0,1.8,0.3,2.6,0.8l3.9,2.8l-1.4-4
		c-0.6-1.8,0.1-4.2,1.7-5.2l3.3-2.5h-4.4c-1.9,0-3.5-0.9-4.1-2.6l-1.5-4.5l-1.5,4.4c-0.6,1.8-2.3,2.7-4.1,2.7h-4.4l3.3,2.5
		c1.6,1.1,2.3,3.3,1.7,5.1L206.7,133.6z"/>
	<g>
		<path fill="#5A81B8" d="M206.4,153h13.5c18.5,0,33.1-14.1,33.1-32.5V97.8c0-21.9-17.4-40.8-39.3-40.8h-1.1
			C190.7,57,173,75.9,173,97.8v22.7c0,1.1,0.1,2.2,0.2,3.2c2.8,0.5,5.1,0.9,7.2,1.3c-0.3-1.5-0.3-3-0.3-4.5V97.8
			c0-18,14.5-33.8,32.6-33.8h1.1c18,0,32.3,15.7,32.3,33.8v22.7c0,14.6-11.5,25.5-26.1,25.5h-13.5c-6.1,0-11.4-1.1-16.4-4.6v-11.5
			c0-1.6-1.1-3-2.6-3.4c-0.1,0-2.7-0.6-7.1-1.5c-2-0.4-4.5-0.8-7.2-1.3c-8.5-1.4-20.1-3.1-33-4.1c-6.9-0.8-14.2-1.3-21.8-1.3
			c-13.6,0-23.2,1.4-23.6,1.4c-0.2,0-0.3,0.1-0.5,0.1c-24.8,2.1-44.2,6.6-44.4,6.6c-1.6,0.4-2.8,1.8-2.8,3.4v34.2
			c0,1.9,1.7,2.9,3.6,2.9H73v3.6v50.7c0,1.9,1.6,3.5,3.6,3.5c9.7,0,16.4,2.2,19.8,6.5c3.8,4.8,2.4,10.9,2.4,11c-0.3,1,0,1.8,0.7,2.7
			c0.7,0.8,1.7,1,2.8,1h35.3c0,0,0,0,0,0c1.9,0,3.5-1.3,3.5-3.2c0-0.3,0-0.4-0.1-0.7c-0.2-1.3-0.6-7.2,3.1-11.6
			c2.6-3.1,6.9-4.9,12.6-5.5c0,0,0.1-0.2,0.1-0.2c3.4,2.8,7.7,4.2,12.3,4.2h0.4c0,0,0.1-0.1,0.1-0.1c0,0,0,0.1,0.1,0.1h0.6
			c0.5,10,9.1,18,19.5,18h0.4c0,0,0.3,0.1,0.3,0.1c0.3,0,0.6-0.1,0.9-0.1h25.7c-1.4,0-2-1.2-2-2.7c0,1.6,0.8,2.5,2.2,2.9
			c0.3,0.1,0.5-0.2,0.8-0.2h0.3c1.2,0,2.5,0.5,3.6,0.3c11.2-1.7,19.9-10.9,19.9-22.6v-2.3v-22.1c2-0.3,3-1.9,3-3.7v-12.8
			c0-1.9-1.6-3.8-3.5-3.8h-3.1h-14.8c-0.2,0-0.3,0.4-0.6,0.5c0.2-0.1,0.3-0.1,0.4-0.3c0.5-0.6,0.6-1.2,0.6-2.1v-12.8
			c0-1.9-1.2-4.3-3.2-4.3h-3.1H190v-11.3C195,152.4,200.5,153,206.4,153z M118.3,125.3c6.6,0,13,0.3,19,1c-1.1,4.4-5,11.9-18.1,11.9
			c-13,0-17.9-7.4-19.6-12C103.5,125.8,110.2,125.3,118.3,125.3z M166,222c-6-1.4-9.4-6.3-9.4-12.1s3.4-10.8,9.4-12.1V222z
			 M169.7,190c-0.1,0-0.1,0-0.2,0c0,0,0,0,0,0h-0.4c-0.1,0-0.3,0.3-0.4,0.3c-0.2,0-0.5,0.2-0.7,0.2c-0.1,0-0.1,0.1-0.2,0.1
			c-1.3,0.1-2.5,0.2-3.7,0.6c-0.2,0.1-0.4,0.1-0.6,0.2c-1.3,0.3-2.5,0.8-3.6,1.4c-0.4,0.2-0.7,0.3-1.1,0.6c-0.2,0.1-0.3,0.2-0.5,0.3
			c-0.5,0.3-0.9,0.6-1.3,0.9c-1.5,1.2-2.8,2.5-3.9,4.1c-0.1,0.1-0.1,0.2-0.2,0.3c-0.2,0.3-0.4,0.6-0.6,1c-0.1,0.2-0.3,0.5-0.4,0.7
			c-0.1,0.2-0.2,0.3-0.2,0.5c-1.4,2.6-2.1,5.6-2.1,8.8c0,0,0,0,0,0c0,3.2,0.8,6.2,2.1,8.8c-5.6,1.2-9.9,3.4-13,7.1
			c-3.8,4.6-4.7,10.3-4.8,13.3h-27.8c0-3-0.8-7.9-4.2-12.2c-4.3-5.5-11.9-8.3-21.9-8.9v-47.3v-6.5v-17.5c0-1.9-1.6-3.5-3.5-3.5
			s-3.5,1.6-3.5,3.5V160H54v-27.3c6-1.2,20.5-4,38.4-5.7c2.3,7.7,9.7,18.1,26.8,18.1c17.1,0,23.6-10.4,25.1-18.2
			c18.1,1.6,32.7,4.5,38.7,5.7V160h-19v-13.4c0-1.9-1.6-3.5-3.5-3.5s-3.5,1.6-3.5,3.5v17.5v6.5v23.9c1-0.3,0.9-0.7,1.4-0.9
			c0.2-0.1,0.3-0.2,0.5-0.3c0.3-0.2,0.6-0.4,1-0.6c1.3-0.7,3.1-1.3,4.1-1.7v-20.3V167h14v11.1c0,1.9,1.7,2.9,3.7,2.9h0.1h0.3v9
			H169.7z M187,240.5c-6-1.3-9.3-6.5-9.7-11.5h9.4h0.3V240.5z M221.7,240.8c0.7-7.2,6.1-13.1,13-14.5
			C234.1,233.5,228.7,239.3,221.7,240.8z M221,193.1V187h13.9h3.1v6h-17V193.1z M221,208.1v-1.9v-2.3V200h13.9h0.1v19
			c0,0-0.1,0-0.2,0c-10.9,1.5-19.2,10.7-19.9,21.8c0,0.5,0.2,0.7,0.2,1.1c0-0.5-0.4-1-0.4-2H194v-11h2.5c-0.3,0-0.6-0.1-0.8-0.3
			c0.3,0.2,0.5,0.2,0.8,0.3c0.3,0.1,0.6,0,1,0h0.3c1.2,0,2.3,0.2,3.5,0c0.2,0,0.3,0.1,0.5,0.1C212.6,227.8,221,219,221,208.1z
			 M201.1,222.2c0.7-7.2,6.1-13.1,13-14.5C213.5,214.9,208.1,220.8,201.1,222.2z M214.2,200.7c-10.9,1.5-19.4,10.5-20.1,21.7
			c0,0.5,0,0.6,0,1c0-0.5-0.1-1.5-0.1-1.5H173v0.4V197h12.2c1.9,0,3.8-1.4,3.8-3.3V181h25v19.6c1-0.1,2.3,0,3.4,0
			C216.3,200.6,215.3,200.6,214.2,200.7z M214.2,168h2.8v6h-32v-6h3.7H214.2z"/>
		<path fill="#5A81B8" d="M235.3,87.5c0-8.8-7.1-15.5-15.9-15.5h-12.6c-8.8,0-15.9,6.7-15.9,15.5c0,8.8,7.1,15.5,15.9,15.5h12.6
			C228.2,103,235.3,96.3,235.3,87.5z M219.4,96h-12.6c-4.9,0-8.9-3.6-8.9-8.5c0-4.9,4-8.5,8.9-8.5h12.6c4.9,0,8.9,3.6,8.9,8.5
			C228.3,92.4,224.3,96,219.4,96z"/>
		<path fill="#5A81B8" d="M141.5,169.4c0-7.6-6.1-13.7-13.6-13.7c-3.7,0-7.1,1.4-9.5,3.8c-2.5-2.5-5.9-4-9.6-4
			c-7.5,0-13.6,6-13.6,13.4c0,16.8,21.4,26.7,22.3,27.1c0.5,0.2,1,0.3,1.4,0.3c0.6,0,1.2-0.1,1.7-0.4c0.8-0.5,19.7-11.1,20.8-25
			c0.1-0.2,0.1-0.5,0.1-0.7c0-0.1,0-0.3,0-0.4L141.5,169.4z M134.5,169.6c0,7.8-10.2,15.8-15.7,19.2c-4.4-2.4-16.6-9.9-16.6-19.9
			c0-3.5,2.9-6.4,6.6-6.4c2.8,0,5.4,1.9,6.3,4.5c0.5,1.4,1.8,2.4,3.3,2.4s2.9-1,3.3-2.4c0.9-2.6,3.4-4.3,6.3-4.3
			c3.5,0,6.5,3,6.6,6.6C134.5,169.4,134.5,169.5,134.5,169.6z"/>
		<path fill="#5A81B8" d="M222.2,247.8c11.1-1,19.8-10.1,19.8-21.2v-1.9C242,236.4,233.4,246.1,222.2,247.8z"/>
		<path fill="#5A81B8" d="M149.6,209.8c0-3.2,0.8-6.2,2.1-8.8C150.4,203.7,149.6,206.6,149.6,209.8
			C149.6,209.8,149.6,209.8,149.6,209.8z"/>
		<path fill="#5A81B8" d="M76.7,112h85.2c1.9,0,3.1-0.9,3.1-2.8v-16c0-1.9-1.2-4.2-3.1-4.2h-2.2c-1.7-21-18.8-37.2-40.4-37.2
			C97.7,51.8,80.5,68,78.9,89h-2.2c-1.9,0-3.7,2.3-3.7,4.2v16C73,111.1,74.8,112,76.7,112z M119.3,58.9c17.6,0,31.7,13.1,33.4,30.1
			H85.9C87.6,72,101.7,58.9,119.3,58.9z M80,96h78v9H80V96z"/>
		<path fill="#5A81B8" d="M229.7,120.4c-0.6-1.8-2.2-3.4-4.2-3.4h-6.2l-2-5.7c-0.6-1.8-2.2-2.8-4.1-2.8s-3.5,0.9-4.1,2.7l-2,5.8
			h-6.2c-1.9,0-3.6,1.5-4.2,3.4c-0.5,1.8,0.2,3.9,1.7,4.9l4.8,3.3l-1.9,5.4c-0.5,1.3-0.3,2.7,0.5,3.9c0.8,1.2,2.2,1.9,3.6,1.9
			c0.9,0,1.8-0.3,2.5-0.8l5.2-3.6l5.2,3.7c0.8,0.5,1.6,0.8,2.5,0.8c1.4,0,2.8-0.7,3.6-1.8c0.8-1.1,1-2.5,0.6-3.8l-1.9-5.5l4.8-3.3
			C229.5,124.3,230.2,122.2,229.7,120.4z M219.9,124.5c-1.6,1.1-2.3,3.3-1.7,5.1l1.4,4.1l-3.9-2.8c-0.7-0.5-1.6-0.8-2.6-0.8
			c-0.9,0-1.8,0.3-2.5,0.8l-3.9,2.7l1.4-3.9c0.6-1.8-0.1-4.2-1.7-5.3l-3.3-2.5h4.4c1.9,0,3.5-0.9,4.1-2.6l1.5-4.5l1.5,4.4
			c0.6,1.8,2.3,2.7,4.1,2.7h4.4L219.9,124.5z"/>
	</g>
</g>
</svg>
