<?xml version="1.0" encoding="utf-8"?>
<!-- Generator: Adobe Illustrator 18.1.1, SVG Export Plug-In . SVG Version: 6.00 Build 0)  -->
<svg version="1.1" id="Layer_1" xmlns="http://www.w3.org/2000/svg" xmlns:xlink="http://www.w3.org/1999/xlink" x="0px" y="0px"
	 viewBox="0 0 300 300" enable-background="new 0 0 300 300" xml:space="preserve">
<g>
	<path fill="#CDCCCC" d="M112.8,234.7c0.1,0.3,0.2,0.6,0.2,0.9v1.4h15v-4.6c0,0-0.5,0.6-0.8,0.6h-13.9c0,0-0.1,0.7-0.3,1.2
		C113,234.5,112.9,234.4,112.8,234.7z"/>
	<path fill="#FFFFFF" d="M110.3,226.4c0.1,0.1,0.3,0.6,0.4,0.6h16.6c0.9,0,1.1-0.8,1.2-1c0.2-0.6-0.3-1.1-0.4-1.2l-6.4-4.4
		l-10.1,2.4c-0.2,0.1-0.5,0.1-0.7,0.1c-1.4,0-2.6-0.9-2.9-2.3c-0.4-1.6,0.6-3.2,2.2-3.6l4.8-1.3c-2.6-1.6-5.7-2.6-8.8-2.6H90v1.4
		c3,0.6,5.2,1.8,7.5,3.4L110.3,226.4z"/>
	<path fill="#FFFFFF" d="M189.4,116.2c5.4,0,10.3-5.2,11.9-10.2h-26.9C175.7,112,180.4,116.2,189.4,116.2z"/>
	<path fill="#FFFFFF" d="M123.4,113.1l17.5-10.5L122.4,87h-7c-2.2,6-9.9,9.7-20,9.7c-5.1,0-17.8,0.3-20.2-9.7h-6.8l-16.3,15.5
		l18.3,11.1c1,0.6,1.7,1.7,1.7,2.9V139h50v-18.9l-0.3-0.2c-0.6-0.8-0.8-1.8-0.6-2.8c0.1-0.5,0.3-1,0.7-1.5
		C121.9,114.6,122.5,113.7,123.4,113.1z M109.4,121.6c0.4,1,0.7,2.1,0.7,3.2c0,4.4-3.6,7.9-8.1,7.9c-2,0-3.9-0.7-5.3-1.9
		c-1.4,1.2-3.3,1.9-5.3,1.9c-4.5,0-8.1-3.5-8.1-7.9c0-1.1,0.2-2.2,0.7-3.2c-2.4-1.4-3.9-3.9-3.9-6.8c0-4.4,3.6-7.9,8.1-7.9
		c0.2,0,0.4,0,0.6,0c0.7-3.7,4-6.5,8-6.5c4,0,7.3,2.8,8,6.5c0.2,0,0.4,0,0.6,0c4.5,0,8.1,3.5,8.1,7.9
		C113.3,117.7,111.7,120.2,109.4,121.6z"/>
	<path fill="#FFFFFF" d="M112.7,163.7c1.6-0.4,3.2,0.3,4,1.8l15.3,29.2c0,0,0,0.3,0.1,0.3h7c-0.9-27-12.1-44-15.5-49H70.3
		c-3.4,5-15.1,23-16.1,49h7.5l14.7-29.2c0.7-1.4,2.3-2.3,3.9-1.9c1.6,0.4,2.6,1.7,2.6,3.3V195h27v-27.9
		C110,165.5,111.2,164.1,112.7,163.7z"/>
	<path fill="#CDCCCC" d="M113.8,70.8c0.1,0,0.2-0.1,0.2-0.5V56.9c0-0.3,0-0.5-0.2-0.5c-0.1,0,0,0-0.1,0.1l-6.6,4
		c0.6,1.3,0.9,2.7,0.9,4.3c0,1-0.1,2-0.4,2.9L113.8,70.8C113.9,70.7,113.8,70.8,113.8,70.8z"/>
	<path fill="#CDCCCC" d="M86.7,61.3l-8.1-4.8c-0.1,0-0.1-0.1-0.2-0.1c-0.1,0-0.4,0.1-0.4,0.5v13.4c0,0.3,0.3,0.5,0.4,0.5
		c0.1,0,0.1,0,0.2-0.1l7.8-3.8c-0.1-0.7-0.2-1.4-0.2-2.1C86.2,63.6,86.4,62.4,86.7,61.3z"/>
	<path fill="#CDCCCC" d="M92.2,64.7c0,2.7,2.2,4.9,4.9,4.9s4.9-2.2,4.9-4.9s-2.2-4.9-4.9-4.9S92.2,62,92.2,64.7z"/>
	<path fill="#FFFFFF" d="M195.3,177H222v-42.7c0-1.3,1-2.6,2.2-3.2c1.2-0.6,2.8-0.4,3.8,0.4l6.6,5.3l13.8-17.9L223,106h-14.6
		c-1.7,9-9.5,16.9-19.1,16.9c-13,0-20.5-7.9-22.1-16.9h-15.3l-22.4,12.9l12.9,18.2l8.7-5.4c1.1-0.7,2.2-0.7,3.3-0.1
		c1.1,0.6,1.5,1.8,1.5,3.1V177h25.9l6.9-0.1L195.3,177z M184.1,165.3c-2.3-0.6-4.5-1.6-6.3-3c-0.1-0.1-0.2-0.1-0.4-0.2c0,0,0,0,0,0
		c-2-1.5-3.6-3.4-4.8-5.6c-2.2-4-2.7-8.5-1.5-12.9c1-3.7,3.3-6.9,6.2-9.2c0.1-0.1,0.1-0.1,0.2-0.2c3.1-2.4,7.1-3.8,11.3-3.8
		c1.6,0,3.1,0.2,4.7,0.6c2.9,0.7,5.5,2.2,7.7,4.1c0,0,0.1,0.1,0.1,0.1c0.1,0.1,0.1,0.1,0.2,0.2c1.4,1.3,2.6,2.8,3.5,4.5
		c2.2,4,2.7,8.5,1.5,12.9c-0.6,2-1.5,3.9-2.7,5.5c-0.1,0.1-0.2,0.3-0.3,0.4c-3.4,4.4-8.8,7.2-14.7,7.2
		C187.2,165.9,185.7,165.7,184.1,165.3z"/>
	<path fill="#FFFFFF" d="M177.6,142.5c-0.5-1.1,0-2.3,1-2.8l0-0.9c0,0,0,0,0,0c-1.7,1.6-3,3.7-3.7,6.1c-0.9,3.2-0.5,6.6,1.1,9.5
		c0.6,1.1,1.4,2.2,2.3,3.1c0.1-0.2,0.2-0.3,0.3-0.5l-0.1-13.5C178.2,143.3,177.8,142.9,177.6,142.5z"/>
	<path fill="#FFFFFF" d="M198.5,156.3c-0.3,0.1-0.5,0.2-0.8,0.2c-0.8,0-1.5-0.5-1.8-1.3c-0.4-1.1,0-2.3,1.1-2.8l0.6-0.3
		c-0.5-1.3-0.8-2.6-1-3.8l-0.4-0.1c-1.1-0.1-1.9-1.2-1.7-2.4c0.1-1,0.9-1.7,1.8-1.8c0-1.4,0.2-2.6,0.4-3.6l-0.7-0.3
		c-1-0.5-1.5-1.7-1-2.8c0.2-0.4,0.5-0.7,0.8-0.9c-1-0.5-2-0.9-3.1-1.2c-1.2-0.3-2.5-0.5-3.7-0.5c-2.4,0-4.8,0.6-6.8,1.6
		c0.3,0.4,0.6,0.8,1,1.2l0.6-0.3c1-0.5,2.2,0,2.7,1c0.5,1.1,0,2.3-1,2.8l-0.2,0.1c0.4,1,0.7,2.2,0.9,3.4c0,0,0,0,0,0
		c1,0,1.9,0.8,2,1.8c0.1,1.2-0.6,2.2-1.7,2.4l-0.2,0c-0.2,1.4-0.5,2.9-1,4.4c0.6,0.5,0.8,1.4,0.6,2.2c-0.3,0.9-1.1,1.5-1.9,1.5
		c-0.1,0-0.2,0-0.3-0.1c-0.5,1-1.1,1.9-1.8,2.9c1.1,0.6,2.2,1.1,3.4,1.4c1.2,0.3,2.5,0.5,3.7,0.5c4.3,0,8.3-1.8,10.9-4.8
		c-0.2-0.3-0.3-0.6-0.5-0.9L198.5,156.3z"/>
	<path fill="#FFFFFF" d="M200.6,142.3l0.3,3c0.4,0.4,0.6,1,0.5,1.7c0,0.3-0.1,0.5-0.2,0.8l0.3,3c0.5,0.1,0.9,0.3,1.2,0.6
		c0.8-3.1,0.4-6.4-1.2-9.3c-0.2,0.1-0.5,0.2-0.8,0.2C200.7,142.3,200.7,142.3,200.6,142.3z"/>
	<path fill="#FFFFFF" d="M178.6,139.7l0.6-0.3c-0.2-0.2-0.4-0.4-0.6-0.6L178.6,139.7C178.6,139.7,178.6,139.7,178.6,139.7z"/>
	<path fill="#FFFFFF" d="M179,153.3c0.3-1,1.3-1.6,2.2-1.4c0.3-0.8,0.5-1.6,0.6-2.4c-0.1,0-0.2,0-0.3,0c-1,0-1.8-0.8-2-1.8
		c-0.1-1.2,0.6-2.2,1.7-2.4l0.6-0.1c-0.1-0.8-0.3-1.5-0.6-2.2l-1.1,0.5c-0.3,0.1-0.6,0.2-0.8,0.2c-0.3,0-0.6-0.1-0.8-0.2l0.1,13.5
		c0.3-0.5,0.6-1,0.9-1.5C179,155,178.8,154.1,179,153.3z"/>
	<path fill="#FFFFFF" d="M200.7,148.3c0.2,0.8,0.4,1.6,0.7,2.4c0,0,0.1,0,0.1,0l-0.3-3C201.1,147.9,200.9,148.1,200.7,148.3z"/>
	<path fill="#FFFFFF" d="M200.2,144.7c0.3,0.1,0.5,0.3,0.7,0.6l-0.3-3c-0.1,0-0.2,0-0.3,0C200.2,142.9,200.2,143.8,200.2,144.7z"/>
	<path fill="#FFFFFF" d="M188.9,183.3l-16.4,0.2c-1.9,5.8-7.1,17.8-19,18.4l-4.6,23.2h30.8l5.9-17.6c0.5-1.4,1.8-2.4,3.3-2.4
		c0,0,0,0,0,0c1.5,0,2.8,0.9,3.3,2.3l6.4,17.7h31.1l-4.7-22.9c-11.5-0.9-16.7-12.9-18.5-18.6L188.9,183.3z"/>
	<path fill="#FFFFFF" d="M214,183.6c1.6,4,4.6,9.6,9.7,11.1l-1.8-10.7L214,183.6z"/>
	<path fill="#FFFFFF" d="M157.1,184l-1.8,10.7c5.1-1.5,8.1-7.1,9.7-11.1L157.1,184z"/>
	<path fill="#FFFFFF" d="M105.2,112c-0.7,0-1.4,0.2-2,0.6c-0.9,0.7-2.2,0.7-3.1-0.1c-0.9-0.7-1.2-2-0.6-3c0.2-0.4,0.3-0.8,0.3-1.2
		c0-1.6-1.4-2.9-3.1-2.9c-1.7,0-3.1,1.3-3.1,2.9c0,0.4,0.1,0.8,0.3,1.2c0.5,1,0.2,2.3-0.6,3c-0.9,0.7-2.2,0.8-3.1,0.1
		c-0.6-0.4-1.3-0.7-2-0.7c-1.7,0-3.1,1.3-3.1,2.9s1.4,2.9,3.1,2.9c0,0,0.1,0,0.1,0c1.1-0.1,2.2,0.7,2.5,1.8s-0.1,2.3-1.1,2.9
		c-0.9,0.5-1.4,1.4-1.4,2.4c0,1.6,1.4,2.9,3.1,2.9c1.4,0,2.5-0.8,3-2c0.4-1,1.3-1.7,2.4-1.7c0,0,0,0,0,0c1.1,0,2,0.7,2.4,1.7
		c0.4,1.2,1.6,2,3,2c1.7,0,3.1-1.3,3.1-2.9c0-1-0.5-1.9-1.4-2.4c-1-0.6-1.4-1.8-1.1-2.9c0.3-1.1,1.4-1.7,2.5-1.6
		c0,0,0.1,0.1,0.2,0.1c0,0,0,0,0,0c1.7,0,3.1-1.4,3.1-3C108.3,113.4,106.9,112,105.2,112z M96.6,120.5c-1.9,0-3.4-1.5-3.4-3.3
		c0-1.8,1.5-3.3,3.4-3.3c1.9,0,3.4,1.5,3.4,3.3C100,119,98.5,120.5,96.6,120.5z"/>
	<path fill="#CDCCCC" d="M69,239v5h38v-5.1c0,0-0.6,0.1-0.8,0.1H69z"/>
	<path fill="#FFFFFF" d="M90.4,229.8c-0.2,0.1-0.5,0.1-0.7,0.1c-1.4,0-2.6-0.9-2.9-2.3c-0.4-1.6,0.6-3.2,2.2-3.6l5.4-1.3l-0.1,0.1
		c-2.8-1.9-6-2.7-9.4-2.7H69v13h37.2c0.9,0,1.1-0.6,1.2-0.8c0.2-0.6-0.3-1-0.4-1.1l-5.9-4c-0.2,0.1-0.3,0.1-0.5,0.2L90.4,229.8z"/>
	<path fill="#FFFFFF" d="M195.4,61.3c2.9,6.5,4.4,15.7,4.7,24.7h12C210.9,75,204.3,65.5,195.4,61.3z"/>
	<path fill="#FFFFFF" d="M157.6,86h12c0.3-9,1.8-18.2,4.7-24.7C165.3,65.5,158.7,75,157.6,86z"/>
	<path fill="#CDCCCC" d="M176.6,86h16.5c-0.6-18-5.9-27.1-8.2-27.1C182.5,58.9,177.2,68,176.6,86z"/>
	<polygon fill="#CDCCCC" points="117,181.3 117,193 123.2,193 	"/>
	<polygon fill="#CDCCCC" points="76,181.7 70.5,193 76,193 	"/>
	<rect x="200" y="232" fill="#CDCCCC" width="35" height="5"/>
	<rect x="145" y="232" fill="#CDCCCC" width="35" height="5"/>
	<g>
		<path fill="#5A81B8" d="M131.4,219.7l-12.6-8.7c-3.7-2.5-8.2-4-12.7-4H87.3c-1.7,0-3.3,1.6-3.3,3.2v3.8H66.3
			c-1.7,0-3.3,1.1-3.3,2.7v18.9v0.4v10.6c0,1.7,1.6,3.4,3.3,3.4H110c1.7,0,3-1.7,3-3.4V243h18c1.7,0,3-1.8,3-3.5v-11
			c0-0.2,0-0.4,0-0.6c-0.6,1.6-1.6,2.8-3,3.6c1.3-0.8,2.4-2.1,3-3.5c0.1-0.2,0.1-0.3,0.2-0.5C135.1,224.5,134,221.4,131.4,219.7z
			 M90,213h16c3.2,0,6.2,1,8.8,2.6l5.5-1.2c1.6-0.4,3.2,0.6,3.6,2.3c0.1,0.2,0.1,0.4,0.1,0.6c0-0.2,0-0.4-0.1-0.6
			c-0.4-1.6-2-2.6-3.6-2.2l-5.5,1.3l-4.8,1.1c-1.6,0.4-2.6,2-2.2,3.6c0.3,1.4,1.6,2.3,2.9,2.3c0.2,0,0.5,0,0.7-0.1l10.1-2.4l0,0
			l6.4,4.3c0.2,0.1,0.6,0.7,0.4,1.3c-0.1,0.2-0.3,1-1.2,1h-16.2c-0.1,0-0.3-0.3-0.4-0.4c-0.1-0.1-0.3-0.3-0.4-0.4l-12.6-8.6
			c-2.2-1.5-4.7-2.6-7.3-3.2c-0.4-0.1-0.8-0.2-1.2-0.2c0.3,0.1,0.8,0.1,0.8,0.2V213z M113.3,230.8c-0.2-1-0.5-1.9-1.1-2.8
			C112.8,228.8,113.1,229.7,113.3,230.8z M88.9,214.1c-1.3-0.2-2.6-0.3-3.9-0.3C86.3,213.8,87.5,213.9,88.9,214.1z M69,220h15.9
			c3.4,0,6.6,0.9,9.4,2.7l0.1,0L89,224c-1.6,0.4-2.6,2-2.2,3.6c0.3,1.4,1.6,2.3,2.9,2.3c0.2,0,0.5,0,0.7-0.1l10.2-2.4
			c0.2,0,0.3-0.1,0.5-0.2l5.9,4c0.2,0.1,0.6,0.4,0.4,1.1c-0.1,0.2-0.3,0.8-1.2,0.8H69V220z M128,237h-15v-0.5v-0.9
			c0-0.3-0.1-0.6-0.2-0.9c-1,2.4-3.8,4-5.8,4.3v5.1H69v-5h0.3h36.9c0.3,0,0.5,0,0.8-0.1c2.6-0.3,4.8-1.9,5.8-4.3
			c0.1-0.2,0.2-0.5,0.3-0.7c0.2-0.5,0.2-1,0.3-1.5c0-0.3,0-0.4,0-0.7c0,0.4,0,1.2,0,1.2h13.9c0.3,0,0.5-0.3,0.7-0.3c0,0,0-0.1,0-0.1
			V237z"/>
		<path fill="#5A81B8" d="M78.4,76.8c1,0,1.9-0.2,2.8-0.7l7.9-3.9c2,2.1,4.8,3.5,8,3.5c2.8,0,5.4-1.1,7.4-2.9l6.8,3.3
			c0.9,0.4,1.6,0.7,2.5,0.7c3.6,0,6.2-2.9,6.2-6.5V56.9c0-3.6-2.6-6.5-6.2-6.5c-1.2,0-2.1,0.3-3.1,0.9l-7.3,4.4
			c-1.8-1.2-3.9-2-6.2-2c-2.7,0-5.1,1-7,2.6l-8.4-5c-1-0.6-2.1-0.9-3.3-0.9c-3.6,0-6.4,2.9-6.4,6.5v13.4
			C72,73.9,74.9,76.8,78.4,76.8z M113.9,56.5C114,56.5,113.8,56.4,113.9,56.5c0.1-0.1,0.1,0,0.1,0.4v13.4c0,0.3,0,0.5-0.2,0.5
			c-0.1,0,0,0-0.1-0.1l-6.1-3c0,0,0,0,0,0c0.3-0.9,0.4-1.9,0.4-2.9c0-1.5-0.3-2.9-0.9-4.3L113.9,56.5z M97.1,59.8
			c2.7,0,4.9,2.2,4.9,4.9s-2.2,4.9-4.9,4.9s-4.9-2.2-4.9-4.9S94.4,59.8,97.1,59.8z M78,56.9c0-0.3,0.3-0.5,0.4-0.5
			c0.1,0,0.1,0,0.2,0.1l8.1,4.8c0,0,0,0,0,0c-0.4,1.1-0.5,2.2-0.5,3.4c0,0.7,0.1,1.4,0.2,2.1c0,0,0,0,0,0l-7.8,3.8
			c-0.1,0-0.1,0.1-0.2,0.1c-0.1,0-0.4-0.1-0.4-0.5V56.9z"/>
		<path fill="#5A81B8" d="M229,141.6l3.8,2.9c0.7,0.6,1.8,0.9,2.7,0.8c0.9-0.1,1.8-0.6,2.4-1.3l18.5-24c0.6-0.8,0.9-1.9,0.7-2.9
			c-0.2-1-0.9-1.9-1.8-2.4l-29.8-15.3c-0.5-0.3-1-0.4-1.6-0.4h-5.2h-1.4h-12h-34.8h-9.2c-0.5,0-0.9,0-1.4,0H151
			c-0.6,0-1.2,0.2-1.7,0.5l-0.5,0.3l-0.1,0l-22.7-19.2c-0.6-0.5-1.4-0.7-2.3-0.7h-11.1c-1.9,0-3.5,1.4-3.5,3.4
			c0,3.4-6.1,6.2-13.6,6.2c-12.6,0-13.6-3-13.6-6.1c0-1.9-1.6-3.4-3.5-3.4H67c-0.9,0-1.8,0.2-2.4,0.8l-20.6,19.6
			c-0.8,0.8-1.2,1.8-1.1,2.9s0.7,2,1.6,2.6L65,118.4v23c0,0,0,0.1,0,0.1c-3.6,4.8-17.9,25.9-17.9,56.7c0,1.9,1.6,3.8,3.5,3.8h91.9
			c0,0,0,0,0,0c1.9,0,3.5-1.8,3.5-3.8c0-0.1,0-0.4,0-0.5c-0.1-32.1-13.6-51.4-17.3-56.1c-0.5-0.7-0.9-1.3-0.9-1.4
			c-0.7-0.7-1.6-1.4-2.6-1.4c1,0,2.1,0.6,2.7,1.4c0.1,0.1,0.1,0.7,1.1,1.3v-11.1l9.6,13.4c1.1,1.5,2.9,1.9,4.5,0.9l5.9-3.8v38.9
			c0,0.8,0.5,1.5,1,2.1l0.4-1.4l0.2-0.5c0-0.1,0.1-0.2,0.1-0.3l0.1-0.3c0.3-1.6,1.7-2.8,3.3-2.8l1.9,0v-42c0-1.3-0.4-2.4-1.5-3.1
			c-1.1-0.6-2.3-0.6-3.4,0.1l-8.6,5.4l-12.9-18.2l22.4-12.9h15.3c1.6,9,9.1,16.9,22.1,16.9c9.6,0,17.3-7.9,19.1-16.9H223l25.3,13
			l-13.7,17.8l-6.5-5.2c-1-0.8-2.7-1-3.9-0.4c-1.2,0.6-2.2,1.8-2.2,3.2v42.3l-8.8-0.1l-3.9-0.2c-0.4,0-0.7,0-1.1,0.1l-13-0.1
			l-6.4-0.1l-6.9,0.1l-11.3,0.4c-0.3-0.1-0.7,0.2-1,0.2h0.3v-0.4l-3.5,0l-10.5,0v0l-1.9,0c-1.7,0-3,1.2-3.4,2.8l0,0.3
			c0,0.1-0.1,0.2-0.1,0.3l-0.1,0.5l-0.3,1.5l-8.5,43h-0.5c-1.9,0-3.3,1.5-3.3,3.4v12.2c0,1.9,1.3,3.4,3.3,3.4h42.3
			c1.9,0,3.4-1.4,3.4-3.4v-12.2c0-0.7-0.2-1.3-0.5-1.9c0,0,0,0,0,0l2.7-7.5l3.8,10v11.5c0,1.9,1.2,3.4,3.2,3.4h42.3
			c1.9,0,3.5-1.4,3.5-3.4v-12.2c0-1.9-1.6-3.4-3.5-3.4h-1.6l-5.6-27c0,0.2,0,0.4,0,0.7c0-0.2,0-0.5,0-0.7c0,0,0,0,0,0l-2.6-16
			l-0.1-0.1c0.4-0.6,0.4-1.2,0.4-2V141.6z M61.3,196.5c0,0.6,0.2,1.1,0.5,1.7C61.4,197.6,61.3,197.1,61.3,196.5z M70.5,193l5.5-11.3
			V193H70.5z M117,193v-11.7l6.2,11.7H117z M129.1,199.8c1.9,0,3.5-1.5,3.5-3.5c0,0,0,0.1,0,0.1C132.6,198.5,131,199.8,129.1,199.8z
			 M139,195h-6.8c-0.1,0-0.1-0.3-0.2-0.4c0,0,0-0.1,0-0.1l-15.2-28.9c-0.8-1.4-2.4-2.2-4-1.8c-1.6,0.4-2.7,1.8-2.7,3.4v27.4v0.5H83
			v-0.5v-27.4c0-1.6-1-3-2.6-3.4c-1.6-0.4-3.2,0.4-3.9,1.8l-14.7,28.9l-0.1,0.4c0,0,0,0.2,0,0.2h-7.4c1-26,12.6-44,16.1-49h53.2
			C126.9,151,138.1,168,139,195z M65.2,141.3c0.1-0.3,0.4-0.6,0.6-0.8C65.7,140.6,65.5,140.9,65.2,141.3z M121.7,139H72v-22.6
			c0-1.2-0.6-2.4-1.7-3l-18.3-11L68.4,87h6.8c2.4,10,15.1,9.7,20.2,9.7c10,0,17.8-3.7,20-9.7h7l18.5,15.6l-17.5,10.6
			c-0.9,0.5-1.5,1.4-1.6,2.5c0,0,0,0,0,0c-0.3,0.4-0.6,0.9-0.7,1.5c-0.2,1,0,2,0.6,2.8l0,0.2l0.3,0.6V139H121.7z M189.4,116.2
			c-8.9,0-13.7-4.2-15-10.2h26.9C199.7,111,194.8,116.2,189.4,116.2z M223.7,194.7c-5.1-1.5-8.1-7.1-9.7-11.1l7.9,0.4L223.7,194.7z
			 M157.1,184l7.9-0.4c-1.6,4-4.6,9.6-9.7,11.1L157.1,184z M180,237h-35v-5h35V237z M235,237h-35v-5h35V237z M198.6,225l-6.4-17.7
			c-0.5-1.4-1.8-2.3-3.3-2.3c0,0,0,0,0,0c-1.5,0-2.8,1-3.3,2.4l-5.9,17.6h-30.8l4.6-23c0,0,0,0,0,0c11.8-1,17.1-12.7,19-18.4
			l16.4-0.2l17.6,0.2c1.8,5.7,6.9,17.5,18.5,18.5c0,0,0,0,0,0l4.7,23H198.6z"/>
		<path fill="#5A81B8" d="M177.4,162.1C177.4,162.1,177.4,162.1,177.4,162.1c0.1,0.1,0.3,0.2,0.4,0.3c1.9,1.4,4,2.4,6.3,3
			c1.5,0.4,3.1,0.6,4.7,0.6c5.9,0,11.4-2.8,14.7-7.2c0.1-0.1,0.2-0.3,0.3-0.4c1.2-1.6,2.1-3.5,2.7-5.5c1.2-4.3,0.7-8.9-1.5-12.9
			c-0.9-1.7-2.1-3.2-3.5-4.5c-0.1-0.1-0.1-0.1-0.2-0.2c0,0-0.1-0.1-0.1-0.1c-2.2-1.9-4.8-3.4-7.7-4.1c-1.5-0.4-3.1-0.6-4.7-0.6
			c-4.2,0-8.1,1.4-11.3,3.8c-0.1,0.1-0.2,0.1-0.2,0.2c-2.9,2.3-5.2,5.5-6.2,9.2c-1.2,4.3-0.7,8.9,1.5,12.9
			C173.8,158.7,175.4,160.6,177.4,162.1z M202.7,151.4c-0.3-0.4-0.8-0.6-1.2-0.6c0,0-0.1,0-0.1,0c-0.3-0.8-0.5-1.6-0.7-2.4
			c0.2-0.2,0.4-0.4,0.5-0.6c0.1-0.2,0.2-0.5,0.2-0.8c0.1-0.6-0.1-1.2-0.5-1.7c-0.2-0.2-0.5-0.4-0.7-0.6c0-0.9,0-1.7,0.1-2.5
			c0.1,0,0.2,0,0.3,0c0,0,0.1,0,0.1,0c0.3,0,0.5-0.1,0.8-0.2C203.1,144.9,203.5,148.2,202.7,151.4z M174.9,144.8
			c0.7-2.4,2-4.4,3.7-6.1c0,0,0,0,0,0c0.2,0.2,0.4,0.4,0.6,0.6l-0.6,0.3c0,0,0,0,0,0c-1,0.5-1.4,1.7-1,2.8c0.2,0.5,0.6,0.8,1,1
			c0.3,0.1,0.5,0.2,0.8,0.2c0.3,0,0.6-0.1,0.8-0.2l1.1-0.5c0.3,0.7,0.5,1.4,0.6,2.2l3.7-0.5c0.1,0,0.2,0,0.2,0c0,0,0,0,0,0
			c-0.2-1.2-0.5-2.4-0.9-3.4l0.2-0.1c1-0.5,1.4-1.7,1-2.8c-0.5-1.1-1.6-1.5-2.7-1l-0.6,0.3c-0.3-0.4-0.7-0.8-1-1.2
			c2-1,4.4-1.6,6.8-1.6c1.3,0,2.5,0.2,3.7,0.5c1.1,0.3,2.2,0.7,3.1,1.2c-0.3,0.2-0.6,0.5-0.8,0.9c-0.5,1.1,0,2.3,1,2.8l0.7,0.3
			c-0.2,1.1-0.4,2.3-0.4,3.6c-0.9,0.1-1.6,0.8-1.8,1.8c-0.1,1.2,0.6,2.2,1.7,2.4l0.4,0.1c0.2,1.2,0.5,2.4,1,3.8l-0.6,0.3
			c-1,0.5-1.5,1.7-1.1,2.8c0.3,0.8,1.1,1.3,1.8,1.3c0.3,0,0.5-0.1,0.8-0.2l0.7-0.3c0.2,0.3,0.3,0.6,0.5,0.9
			c-2.7,2.9-6.6,4.8-10.9,4.8c-1.3,0-2.5-0.2-3.7-0.5c-1.2-0.3-2.4-0.8-3.4-1.4c0.7-1,1.2-2,1.8-2.9c0.1,0,0.2,0.1,0.3,0.1
			c0.8,0,1.6-0.6,1.9-1.5c0.2-0.8,0-1.7-0.6-2.2c0.5-1.5,0.9-2.8,1-4.2l-4.1,0.8l4.1-0.8l0.2-0.1c1.1-0.2,1.9-1.3,1.7-2.4
			c-0.1-1.1-1-1.9-2-1.9c-0.1,0-0.2,0-0.2,0l-3.7,0.5l-0.6,0.1c-1.1,0.2-1.9,1.2-1.7,2.4c0.1,1.1,1,2,2,2c0.1,0,0.2,0.2,0.3,0.2
			c-0.1,0-0.3,1.2-0.6,2c0,0,0,0-0.1,0c-1-0.2-1.9,0.4-2.2,1.4c-0.2,0.8,0,1.7,0.6,2.2c-0.3,0.5-0.6,1-0.9,1.5
			c-0.1,0.2-0.2,0.3-0.3,0.5c-0.9-0.9-1.7-1.9-2.3-3.1C174.4,151.4,174,148,174.9,144.8z"/>
		<path fill="#5A81B8" d="M105.2,107c-0.2,0-0.4,0-0.6,0c-0.7-3.7-4-6.5-8-6.5c-4,0-7.3,2.8-8,6.5c-0.2,0-0.4,0-0.6,0
			c-4.5,0-8.1,3.5-8.1,7.9c0,2.9,1.6,5.4,3.9,6.8c-0.4,1-0.7,2.1-0.7,3.2c0,4.4,3.6,7.9,8.1,7.9c2,0,3.9-0.7,5.3-1.9
			c1.4,1.2,3.3,1.9,5.3,1.9c4.5,0,8.1-3.5,8.1-7.9c0-1.1-0.2-2.2-0.7-3.2c2.4-1.4,3.9-3.9,3.9-6.8C113.3,110.5,109.7,107,105.2,107z
			 M105.2,118C105.2,118,105.2,118,105.2,118c0,0-0.1-0.1-0.2-0.1c-1.1-0.1-2.2,0.6-2.5,1.7c-0.3,1.1,0.1,2.2,1.1,2.8
			c0.9,0.5,1.4,1.4,1.4,2.4c0,1.6-1.4,2.9-3.1,2.9c-1.4,0-2.4-0.8-2.8-2c-0.4-1-1.2-1.7-2.2-1.7v0c-1,0-2.2,0.7-2.5,1.7
			c-0.4,1.2-1.7,2-3.1,2c-1.7,0-3.2-1.3-3.2-2.9c0-1,0.5-1.9,1.4-2.4c1-0.6,1.4-1.8,1.1-2.9s-1.4-1.8-2.5-1.8c0,0-0.1,0-0.1,0
			c-1.7,0-3.1-1.3-3.1-2.9s1.4-2.9,3.1-2.9c0.7,0,1.4,0.2,2,0.7c0.9,0.7,2.2,0.7,3.1-0.1c0.9-0.7,1.2-2,0.6-3
			c-0.2-0.4-0.3-0.8-0.3-1.2c0-1.6,1.4-2.9,3.1-2.9c1.7,0,3.1,1.3,3.1,2.9c0,0.4-0.1,0.8-0.3,1.2c-0.5,1-0.2,2.3,0.6,3
			c0.9,0.7,2.2,0.8,3.1,0.1c0.6-0.4,1.3-0.6,2-0.6c1.7,0,3.1,1.4,3.1,3C108.3,116.6,106.9,118,105.2,118z"/>
		<ellipse fill="#5A81B8" cx="96.6" cy="117.2" rx="3.4" ry="3.3"/>
		<path fill="#5A81B8" d="M153.9,93H173h23.6h19.1c0.1,0,0.1,0,0.2,0c0.1,0,0.1,0,0.2,0h15c1.9,0,3.5-1.6,3.5-3.5s-1.6-3.5-3.5-3.5
			h-12.1c-1.6-19-16.4-34.1-34.3-34.1c-19,0-34.4,16.9-34.4,37.6C150.4,91.4,152,93,153.9,93z M212.1,86h-12
			c-0.3-9-1.8-18.2-4.7-24.7C204.3,65.5,210.9,75,212.1,86z M193.1,86h-16.5c0.6-18,5.9-27.1,8.2-27.1C187.2,58.9,192.4,68,193.1,86
			z M174.3,61.3c-2.9,6.5-4.4,15.7-4.7,24.7h-12C158.7,75,165.3,65.5,174.3,61.3z"/>
	</g>
</g>
</svg>
