<?xml version="1.0" encoding="utf-8"?>
<!-- Generator: Adobe Illustrator 18.1.1, SVG Export Plug-In . SVG Version: 6.00 Build 0)  -->
<svg version="1.1" id="Layer_1" xmlns="http://www.w3.org/2000/svg" xmlns:xlink="http://www.w3.org/1999/xlink" x="0px" y="0px"
	 viewBox="0 0 300 300" enable-background="new 0 0 300 300" xml:space="preserve">
<g>
	<path fill="none" d="M180.2,163.6c0.8,0.3,3,0.9,8.3,1.8c2.9,0.5,5.6,1,8,1.5c-0.9-2.8-4.6-4.2-11.1-4.2
		C182,162.7,180.7,163.3,180.2,163.6z"/>
	<path fill="none" d="M183,195.1c2.2,1.5,4.8,2.2,8.2,2.2c2.8,0,4.9-0.4,6.2-1.3c1.1-0.7,1.1-1.1,1.1-1.4c0-0.1,0-0.3-0.6-0.6
		c-0.8-0.4-3.1-1.3-9.6-2.4c-2.9-0.5-5.6-1-8.1-1.6c0,0.2,0.1,0.4,0.1,0.6C180.5,192.6,181.3,194,183,195.1z"/>
	<path fill="#FFFFFF" d="M112.5,135.4c-5.4-2.7-8.2-7.3-8.2-13.1c0-5.7,2.5-10.6,7.6-14.5c4.7-3.6,10.3-5.4,16.8-5.4
		c6.7,0,13.6,1.3,20.4,4c0.1,0,0.1,0,0.2,0.1c3.9,1.7,7,2.6,9.4,2.6c2,0,3.6-0.8,5-2.5c1.6-1.9,2.4-3.7,2.4-5.4
		c0-4.1-1.5-6.6-4.8-8.1c-9.1-4.4-19.9-6.6-32.2-6.6c-12.2,0-22.4,3.7-31.1,11.2c-8.5,7.4-12.7,16.1-12.7,26.8
		c0,9,3.2,15.7,9.6,20.3c7.1,5,17.1,8.8,29.9,11.3c7.8,1.5,13.8,3.6,18.4,6.4c5.3,3.2,8.1,8.1,8.1,14.1c0,6.2-2.7,11.5-7.7,15.2
		c-4.7,3.5-10.7,5.3-17.7,5.3c-7.3,0-16-2.1-25.8-6.4c-3.6-1.4-6.6-2.2-9.1-2.2c-2,0-3.5,0.8-5,2.6c-1.6,2-2.4,4.3-2.4,7.1
		c0,2.7,0.7,6.1,6.5,8.7c0,0,0.1,0,0.1,0.1c9.6,4.8,21.4,7.2,34.9,7.2l0.8,0c12-0.2,21.9-3.3,29.9-9.1v-13.8c0-2.2,2.2-3.8,4.4-3.8
		h8.7c0,0,0.1-0.3,0.1-0.5c-2.5-1.1-4.6-2.4-6.4-3.7c-5.9-4.4-9-10.4-9-17.7c0-5.2,1.6-9.9,4.8-13.8c-6.6-4.3-15.8-7.8-27.3-10.1
		C123,139.5,116.8,137.6,112.5,135.4z"/>
	<path fill="#CDCCCC" d="M213.5,183.4c-2-2.7-4.7-4.6-8.2-5.8c-4-1.4-10.1-2.8-18.3-4.2c-7.6-1.3-9.9-2.2-11.1-2.8
		c-2.6-1.4-4.1-3.8-4.1-6.6c0-3.5,1.8-9.2,13.5-9.2c8.9,0,14.8,2.2,17.6,7.2h9v-12h-8c-0.3,1-0.8,1.3-1.4,1.7
		c-1.1,0.7-2.5,0.9-3.8,0.4c-4.8-2.1-10.1-3.1-15.7-3.1c-6.6,0-11.9,1.6-15.8,4.9c-3.7,3.1-5.5,6.8-5.5,11.2c0,4.7,1.9,8.4,5.7,11.3
		c4.3,3.2,11.8,5.7,22.2,7.4c6,1,9.8,2,12.1,3.3c3.1,1.7,4.9,4.4,4.9,7.7c0,2.3-0.8,5.7-4.9,8.2c-2.7,1.7-6.1,2.5-10.5,2.5
		c-4.9,0-9.2-1.1-12.7-3.5c-2.7-1.8-4.6-3.9-5.5-6.9h-9v15h8.4c0.2-1,1.2-2.5,2.5-3c0.5-0.2,1-0.2,1.4-0.2c1.1,0,2.2,0.5,3,1.4
		c2.2,2.4,6.9,3.7,13.7,3.7c7.7,0,13.6-1.8,17.6-5.4c3.9-3.5,5.8-7.9,5.8-13.4C216.5,189.2,215.5,186.1,213.5,183.4z"/>
	<path fill="#5A81B8" d="M220,178.6c-3-4-7-6.8-12-8.6c-0.1,0-0.2,0-0.2,0h8.2c2.2,0,4.1-1.9,4.1-4.2V146c0-2.2-1.8-4-4.1-4h-15.6
		c-1.1,0-2,0.4-2.8,1.1c-4.6-1.4-9.5-2.2-14.5-2.2c-7.1,0-13.1,1.6-18,4.7c0,0,0,0,0,0c-7.7-5.6-18.4-9.8-32-12.6
		c-7.5-1.5-13.1-3.2-16.7-5c-2.6-1.3-3.7-3-3.7-5.8c0-3.1,1.4-5.6,4.3-7.9c3.2-2.5,7.1-3.7,11.8-3.7c5.7,0,11.5,1.1,17.3,3.4
		c5,2.2,9.1,3.2,12.7,3.2c4.5,0,8.4-1.9,11.4-5.5c2.8-3.4,4.3-7,4.3-10.7c0-7.3-3.3-12.8-9.5-15.6c-10.1-4.9-22.1-7.4-35.7-7.4
		c-14.1,0-26.4,4.4-36.5,13.2c-10.3,8.9-15.6,20-15.6,33c0,11.8,4.4,20.9,13.1,27c8,5.7,19.2,10,33.1,12.7c6.8,1.3,12,3.1,15.7,5.3
		c2.9,1.7,4.1,3.9,4.1,7c0,3.6-1.4,6.3-4.4,8.6c-3.3,2.5-7.5,3.7-12.7,3.7c-6.2,0-13.7-1.9-22.6-5.7c-4.7-1.9-8.7-2.8-12.3-2.8
		c-4.5,0-8.4,1.9-11.4,5.6c-2.8,3.5-4.2,7.6-4.2,12.3c0,5,2,11.9,11.3,16.2c10.8,5.3,23.7,8,38.5,8l1.1,0
		c11.5-0.2,21.5-2.8,29.9-7.6c0,0-0.1-0.1-0.1-0.1c0,0,0.1-0.1,0.1,0c0.1,2.2,1.9,3.7,4.1,3.7h15.9c0.9,0,1.8-0.2,2.5-0.7
		c3.6,1.6,8.4,2.5,14.2,2.5c9.7,0,17.5-2.4,23-7.4c5.6-5,8.5-11.5,8.5-19.4C224.5,187.5,223,182.6,220,178.6z M156,190.8v13.8
		c-8,5.8-17.9,8.9-29.9,9.1l-0.9,0c-13.5,0-25.2-2.4-34.8-7.2c0,0-0.1,0-0.1-0.1c-5.8-2.6-6.5-6-6.5-8.7c0-2.8,0.8-5.1,2.4-7.1
		c1.4-1.8,3-2.6,5-2.6c2.4,0,5.5,0.7,9.1,2.2c9.8,4.2,18.5,6.4,25.8,6.4c7,0,12.9-1.8,17.7-5.3c5-3.7,7.7-9,7.7-15.2
		c0-6-2.8-10.9-8.1-14.1c-4.5-2.7-10.6-4.8-18.4-6.4c-12.7-2.5-22.8-6.3-29.9-11.3c-6.5-4.6-9.6-11.2-9.6-20.3
		c0-10.7,4.1-19.4,12.7-26.8c8.7-7.5,18.9-11.2,31.1-11.2c12.3,0,23.1,2.2,32.2,6.6c3.3,1.5,4.8,4,4.8,8.1c0,1.7-0.8,3.5-2.4,5.4
		c-1.4,1.7-3,2.5-5,2.5c-2.4,0-5.6-0.9-9.4-2.6c-0.1,0-0.1,0-0.2-0.1c-6.8-2.6-13.7-4-20.4-4c-6.5,0-12.2,1.8-16.8,5.4
		c-5,3.9-7.6,8.7-7.6,14.5c0,5.9,2.8,10.4,8.2,13.1c4.3,2.2,10.5,4.1,18.9,5.7c11.5,2.4,20.7,5.8,27.3,10.1c-3.2,4-4.8,8.6-4.8,13.8
		c0,7.3,3,13.3,9,17.7c1.8,1.3,4,2.7,6.4,3.8c0,0.1-0.1,0.4-0.1,0.4h0.6c0.1,0,0.2,0,0.3,0h-0.9h-8.7C158.2,187,156,188.6,156,190.8
		z M210.7,206.5c-4,3.6-9.9,5.4-17.6,5.4c-6.8,0-11.6-1.3-13.7-3.7c-0.8-0.9-1.9-1.3-3-1.3c-0.5,0-1-0.1-1.4,0.1
		c-1.4,0.5-2.3,2-2.5,3H164v-15h9c0.9,3,2.8,5.1,5.5,6.9c3.5,2.4,7.8,3.5,12.7,3.5c4.4,0,7.8-0.8,10.5-2.5c4-2.5,4.9-5.8,4.9-8.2
		c0-3.3-1.7-6-4.9-7.7c-2.3-1.2-6.1-2.3-12.1-3.3c-10.4-1.7-17.8-4.2-22.2-7.4c-3.8-2.9-5.7-6.6-5.7-11.3c0-4.4,1.8-8.1,5.5-11.2
		c3.8-3.2,9.1-4.9,15.8-4.9c5.6,0,10.9,1,15.7,3.1c1.2,0.5,2.7,0.4,3.8-0.4c0.6-0.4,1.1-0.7,1.4-1.7h8v12h-9
		c-2.8-5-8.7-7.2-17.6-7.2c-11.7,0-13.5,5.7-13.5,9.2c0,2.8,1.5,5.2,4.1,6.5c1.2,0.7,3.5,1.5,11.1,2.8c8.2,1.4,14.3,2.8,18.3,4.2
		c3.4,1.2,6.1,3.1,8.2,5.8c2,2.7,3,5.8,3,9.7C216.5,198.6,214.6,203,210.7,206.5z M180.3,190.1c2.5,0.6,5.2,1.1,8.1,1.6
		c6.4,1.1,8.7,2,9.6,2.4c0.6,0.3,0.6,0.5,0.6,0.6c0,0.2,0,0.7-1.1,1.4c-1.3,0.8-3.5,1.3-6.2,1.3c-3.4,0-6-0.7-8.2-2.2
		c-1.8-1.2-2.6-2.6-2.7-4.5C180.4,190.4,180.3,190.3,180.3,190.1z M196.5,166.9c-2.4-0.5-5.1-1-8-1.5c-5.3-0.9-7.5-1.6-8.3-1.8
		c0.5-0.3,1.9-0.8,5.2-0.8C191.9,162.7,195.6,164.1,196.5,166.9z"/>
</g>
</svg>
