<?xml version="1.0" encoding="utf-8"?>
<!-- Generator: Adobe Illustrator 18.1.1, SVG Export Plug-In . SVG Version: 6.00 Build 0)  -->
<svg version="1.1" id="Layer_1" xmlns="http://www.w3.org/2000/svg" xmlns:xlink="http://www.w3.org/1999/xlink" x="0px" y="0px"
	 viewBox="0 0 300 300" enable-background="new 0 0 300 300" xml:space="preserve">
<g>
	<path fill="none" d="M94.8,114.8c0.9-0.1,1.9-0.2,2.8-0.3C96.7,114.6,95.8,114.7,94.8,114.8z"/>
	<path fill="none" d="M130.2,105.3c-3.2,1.3-6.9,2.8-10.9,4.1c0,0,0,0-0.1,0c7.2,2.5,12.4,8.9,12.4,16.9c0,4.6-1.7,8.7-4.5,11.7
		h25.1c1.1,0,2.2,0.8,3.2,1.4c0,0,0,0.2,0,0.2c1-4.7,1.5-10.2,0.8-16.6c-1.4,0.3-2.2,0.6-2.2,0.6c-1.7,0.7-3.8,0.5-5.3-0.5
		c-1.5-1-2.6-2.7-2.6-4.5v-17.1c-1,0-2.3-0.1-3.3-0.1C139.8,101.4,135.5,103.2,130.2,105.3z"/>
	<path fill="none" d="M94.2,114.6c-2.8,0.2-5.7,0.4-8.8,0.4c0,0,0,0,0,0C88.5,115,91.5,114.9,94.2,114.6z"/>
	<path fill="none" d="M84.5,115.2c0.2,0,0.6,0,0.9,0C85.1,115.2,84.8,115.2,84.5,115.2z"/>
	<path fill="none" d="M77.9,114.9c-0.5,0-1-0.1-1.4-0.2C76.9,114.8,77.4,114.8,77.9,114.9z"/>
	<path fill="none" d="M80.4,115.1c-0.4,0-0.9-0.1-1.3-0.1C79.6,115,80,115,80.4,115.1z"/>
	<path fill="none" d="M83.4,115.2c-0.4,0-0.9,0-1.3,0C82.6,115.2,83,115.2,83.4,115.2z"/>
	<path fill="#CCCCCC" d="M120.1,126.8c0-3.9-3.1-7.2-7.1-7.3V134C117,133.9,120.1,130.7,120.1,126.8z"/>
	<path fill="#FFFFFF" d="M97.4,114.5c-0.9,0.1-1.7,0.2-2.7,0.3c-0.2,0-0.3-0.1-0.5-0.1c-2.8,0.2-5.6,0.3-8.7,0.3c0,0,0,0,0,0
		c0,0,0,0,0,0c0,0,0,0,0,0c-0.3,0-0.9,0.1-1.1,0.1c0,0-0.3,0.1-0.3,0.1V138h18v-24.2C101,114.1,99,114.3,97.4,114.5z"/>
	<path fill="#FFFFFF" d="M157,42.9v48c5,0.2,8.7,0.1,12.2,0.1h2.8V41.9C169,42.2,163,42.6,157,42.9z"/>
	<path fill="#FFFFFF" d="M46.9,67.9c0,9.1,2.1,19.2,9.1,26.5V42.8C51,49.5,46.9,58.2,46.9,67.9z"/>
	<path fill="#FFFFFF" d="M139.8,43.4c-8.1,0-14.9-3-22.1-6.1c-8.8-3.8-18-7.7-31.5-7.7c-7,0-13.2,1.6-19.2,4.5v67.2
		c5,1.8,11,2.9,18.2,2.9c18,0,30.7-5.1,40.8-9.1c6.6-2.6,11.6-4.7,16.6-4.7c1.1,0,2.4,0,3.4,0.1V43.3
		C144,43.4,141.9,43.4,139.8,43.4z M99.9,90.3c-12.8,0-23.2-10.4-23.2-23.2s10.4-23.2,23.2-23.2s23.2,10.4,23.2,23.2
		S112.7,90.3,99.9,90.3z"/>
	<path fill="#CCCCCC" d="M99.9,54.9c-6.7,0-12.2,5.5-12.2,12.2s5.5,12.2,12.2,12.2s12.2-5.5,12.2-12.2S106.6,54.9,99.9,54.9z"/>
	<polygon fill="#FFFFFF" points="247.5,187 219.7,149 196.6,149 171,187 	"/>
	<path fill="#FFFFFF" d="M247.8,107.3c-3.3-3.3-8.3-5.3-14.8-5.3h-76v9.8c1-0.1,2.2-0.5,3.3-0.5c8.8,0,25.2,3.7,36.8,26.7h21.1
		c3.5-10,13.3-23.6,33.5-24.1C251,111.7,249.8,109.4,247.8,107.3z"/>
	<path fill="#CCCCCC" d="M167.4,125.1c0.7,11.4-1.5,20.4-4.7,27.4c8.1-6,13.8-13.3,16.5-17.2C175,128.9,170.7,126.2,167.4,125.1z"/>
	<polygon fill="#CCCCCC" points="178.2,270 244.7,270 251.7,198 168,198 	"/>
	<rect x="74" y="256" fill="#FFFFFF" width="57" height="12"/>
	<path fill="#FFFFFF" d="M73.1,245h59.1l11.7-82H58.7L73.1,245z M98.6,177.9c1.1-1.3,2.7-2.1,4.4-2c1.7,0,3.3,0.9,4.3,2.3
		c3.5,4.9,20.8,30,13.4,44.3c-2,4-6.8,8.8-17.9,8.8c-10.2,0-16.9-3.2-19.9-9.6C76,207,94.8,182.6,98.6,177.9z"/>
	<polygon fill="#FFFFFF" points="145.9,149 56.2,149 56.7,152 145.5,152 	"/>
	<path fill="#CCCCCC" d="M102.9,220.2c3,0,6.9-0.5,8.1-2.8c2.5-4.9-2.6-16.9-8.4-26.5c-6.3,9.2-12.1,21-9.7,26
		C94.3,219.8,99.7,220.2,102.9,220.2z"/>
	<g>
		<path fill="#5980B7" d="M123.1,67.1c0-12.8-10.4-23.2-23.2-23.2S76.7,54.3,76.7,67.1s10.4,23.2,23.2,23.2S123.1,79.9,123.1,67.1z
			 M87.7,67.1c0-6.7,5.5-12.2,12.2-12.2s12.2,5.5,12.2,12.2s-5.5,12.2-12.2,12.2S87.7,73.8,87.7,67.1z"/>
		<path fill="#5980B7" d="M253,125.4c1.5,0,3,0.1,4.6,0.3c1.5,0.2,3.1-0.3,4.2-1.3c1.2-1,1.8-2.5,1.9-4c0-0.5,0.2-12.2-8-20.6
			c-5.5-5.6-13.1-8.7-22.7-8.7h-50V36c0-1.5-0.5-3-1.6-4.1c-1.1-1-2.6-1.6-4.1-1.4c-0.2,0-12.6,1.1-25.3,1.6c0,0-0.1,0-0.1,0
			c-0.2,0-0.4,0-0.6,0c-3.8,0.2-7.7,0.3-11.2,0.3c-5.9,0-11.4-2.4-17.9-5.2c-8.9-3.8-19.9-8.6-35.7-8.6c-28.6,0-50.2,21.2-50.2,49.3
			c0,14,4.2,25.8,12,33.9c6.2,6.5,14.4,10.6,24.7,12.4c0.1,0,0.1,0,0.1,0V138h0.1H49.7c-1.6,0-3.2,1.1-4.2,2.4
			c-1,1.2-1.5,3.1-1.2,4.7L63,251.3l-0.1,0.7c0.1,0.4,0.1,0.8,0.1,1.2v21c0,3,2.4,4.9,5.5,4.9H137c3,0,5-1.9,5-4.9v-22.2
			c0,0,0.2-0.1,0.2-0.1l0.2-0.5l11.7-81.6l0,0c16.3-6.1,27.7-19.3,33-26.5c0.1,0.1,0.2,0.3,0.2,0.5l-30.7,45.6
			c-0.8,1.1-1.1,2.5-0.9,3.9l8.8,59.1l3.5,24.3c0.4,2.7,2.7,4.4,5.4,4.4h76.2c2.8,0,5.2-1.8,5.5-4.7l4.9-50.6l3.6-32.2
			c0.2-1.4-0.2-2.7-1-3.8l-34.2-46.8C230,137.8,235.7,125.4,253,125.4z M172,91h-2.8c-3.5,0-7.2,0.1-12.2-0.1v-48c6-0.3,12-0.7,15-1
			V91z M46.9,67.9c0-9.8,4.1-18.5,9.1-25.1v51.6C49,87.2,46.9,77.1,46.9,67.9z M67,101.4V34.2c6-2.9,12.2-4.5,19.3-4.5
			c13.5,0,22.7,3.9,31.4,7.7c7.3,3.1,14,6.1,22.1,6.1c2,0,4.2,0,6.2-0.1v47.1c-1,0-2.3-0.1-3.3-0.1c-5,0-10.1,2.1-16.7,4.7
			c-10.1,4.1-22.8,9.1-40.8,9.1C77.9,104.2,72,103.2,67,101.4z M84,115.2c0,0,0.3-0.1,0.3-0.1c0.3,0,0.8-0.1,1.1-0.1c0,0,0,0,0,0
			c0,0,0,0,0,0c3.1,0,6,0,8.8-0.3c0.2,0,0.4,0,0.6,0c0.9-0.1,1.7-0.2,2.6-0.3c1.6-0.2,3.6-0.4,4.6-0.6V138H84V115.2z M113,134v-14.5
			c4,0.1,7.1,3.3,7.1,7.3C120.1,130.7,117,133.9,113,134z M145.9,149l-0.4,3H56.7l-0.5-3H145.9z M131,268H74v-12h57V268z M132.2,245
			H73.1l-14.4-82h85.2L132.2,245z M152.2,138h-25.1c2.8-3,4.5-7,4.5-11.7c0-8-5.2-14.6-12.4-17c0,0,0,0.1,0.1,0.1
			c4.1-1.4,7.7-2.8,10.9-4.1c5.2-2.1,9.6-3.9,12.5-3.9c1,0,2.3,0,3.3,0.1v17.1c0,1.8,1.1,3.5,2.6,4.6c1.5,1,3.5,1.2,5.2,0.5
			c0,0,0.9-0.3,2.3-0.6c0.7,6.4,0.3,12-0.8,16.7c0,0,0-0.3,0-0.3C154.4,138.8,153.4,138,152.2,138z M162.7,152.5
			c3.2-7,5.4-16,4.7-27.4c3.3,1.1,7.6,3.8,11.8,10.2C176.5,139.2,170.8,146.6,162.7,152.5z M244.7,270h-66.5L168,198h83.6L244.7,270
			z M247.5,187H171l25.6-38h23.1L247.5,187z M218.3,138h-21.1c-11.6-23-28-26.7-36.8-26.7c-1.1,0-2.3,0.4-3.3,0.5V102h76
			c6.5,0,11.5,2,14.8,5.3c2,2.1,3.2,4.4,3.9,6.6C231.6,114.4,221.7,128,218.3,138z"/>
		<path fill="#5980B7" d="M193.9,61.9c0.6,0.2,1.3,0.3,1.9,0.3c2.2,0,4.3-1.4,5.1-3.6c0.2-0.6,2.6-6,9.6-6c3.1,0,3.7,0.8,5.5,2.8
			c2.3,2.7,5.7,6.7,13.9,6.7c14.7,0,20-12.4,20.3-12.9c1.2-2.8-0.2-6.1-3-7.2c-2.8-1.2-6,0.1-7.2,2.9c-0.3,0.6-3,6.2-10.1,6.2
			c-3.1,0-3.7-0.8-5.5-2.8c-2.3-2.7-5.7-6.7-13.9-6.7c-14.9,0-19.7,12.6-19.9,13.1C189.7,57.7,191.1,60.8,193.9,61.9z"/>
		<path fill="#5980B7" d="M193.9,85.1c0.6,0.2,1.3,0.3,1.9,0.3c2.2,0,4.3-1.4,5.1-3.6c0.2-0.6,2.6-6,9.6-6c3.1,0,3.7,0.8,5.5,2.8
			c2.3,2.7,5.7,6.7,13.9,6.7c14.7,0,20-12.4,20.3-12.9c1.2-2.8-0.2-6.1-3-7.2c-2.8-1.2-6,0.1-7.2,2.9c-0.3,0.6-3,6.2-10.1,6.2
			c-3.1,0-3.7-0.8-5.5-2.8c-2.3-2.7-5.7-6.7-13.9-6.7c-14.9,0-19.7,12.6-19.9,13.1C189.7,80.9,191.1,84.1,193.9,85.1z"/>
		<path fill="#5980B7" d="M102.9,231.2c11.1,0,15.9-4.8,17.9-8.8c7.3-14.3-9.9-39.4-13.4-44.3c-1-1.4-2.6-2.2-4.3-2.3
			c-1.7-0.1-3.3,0.7-4.4,2C94.8,182.6,76,207,83,221.6C86,228,92.7,231.2,102.9,231.2z M102.6,190.9c5.7,9.5,10.9,21.5,8.4,26.5
			c-1.2,2.3-5.1,2.8-8.1,2.8c-3.1,0-8.6-0.4-10-3.3C90.5,211.9,96.3,200.2,102.6,190.9z"/>
	</g>
</g>
</svg>
