<?xml version="1.0" encoding="utf-8"?>
<!-- Generator: Adobe Illustrator 18.1.1, SVG Export Plug-In . SVG Version: 6.00 Build 0)  -->
<svg version="1.1" id="Layer_1" xmlns="http://www.w3.org/2000/svg" xmlns:xlink="http://www.w3.org/1999/xlink" x="0px" y="0px"
	 viewBox="0 0 300 300" enable-background="new 0 0 300 300" xml:space="preserve">
<g>
	<path fill="none" d="M172,217.5c0.2-1.4,0.2-3.6-2.6-6.3c-3.2-3.1-8.4-4.1-13.4-4.8v29.2C163,230.7,171.2,223.5,172,217.5z"/>
	<path fill="none" d="M135.3,211c-2.7,2.8-2.7,5.1-2.5,6.6c0.7,5.4,6.2,11.4,12.2,15.7v-26.6C141,207.5,137.7,208.6,135.3,211z"/>
	<path fill="#FFFFFF" d="M107.2,80H51.5c6.1,10,19.2,24,41.2,25.6c1.7,0.1,3.4,1,4.3,2.5c0.9,1.5,1.1,3.2,0.5,4.8
		c-0.1,0.5-0.8,3.6,1.4,7.1c2.6,4,9.5,9.3,27.5,11.7l2.1,0.3c6.7,0.9,11.4,1.6,16.4,2.1v-12.8C134,119.9,116.4,113,107.2,80z"/>
	<path fill="#FFFFFF" d="M168,132.6c1.8-0.2,3.6-0.5,5.7-0.8c18-2.4,24.8-7.7,27.4-11.7c2.3-3.5,1.5-6.6,1.4-7.1
		c-0.6-1.6-0.4-3.3,0.5-4.8c0.9-1.5,2.6-2.5,4.3-2.6C229.1,104,242.2,90,248.4,80h-55.7c-9,32-25.8,39.9-36.8,41.3v12.8
		C159,133.8,163.1,133.2,168,132.6z"/>
	<path fill="#CCCCCC" d="M151.7,86.2c6.6,0,12-5.4,12-12c0-6.6-5.4-12-12-12s-12,5.4-12,12C139.7,80.8,145.1,86.2,151.7,86.2z"/>
	<path fill="#5980B7" d="M262.4,71.6c-1-1.5-2.7-2.6-4.6-2.6h-69.3c-2.5,0-4.5,1.9-5.1,4.3c-6.8,27.6-19.4,35.2-27.4,36.8V96.9
		c10-1.9,18.8-11.3,18.8-22.6c0-12.7-10.4-23-23.1-23S129,61.6,129,74.2c0,10.2,6,18.8,16,21.8v14.1c-9-1.6-21.2-9.2-28-36.8
		c-0.6-2.5-3-4.3-5.6-4.3H42.2c-1.8,0-3.6,1.1-4.6,2.6c-1,1.5-1.2,3.6-0.5,5.3c0.6,1.4,14.6,33.6,49.3,39.1c0.2,2.7,1,6.1,3.1,9.6
		c5.5,8.9,17.4,14.7,35.5,17.1l2.1,0.3c7.4,1,12.9,1.8,17.9,2.2V194c-7-1-12.6-2.9-18-7.9c-4.4-4.1-4.2-7.1-4-8
		c0.6-5.6,7.9-11.2,10.4-12.7c2.6-1.6,3.4-4.9,1.9-7.5c-1.6-2.6-4.9-3.5-7.6-1.9c-1.5,0.9-14.4,8.9-15.7,20.9
		c-0.5,4.3,0.4,10.7,7.3,17.3c3.3,3.1,6.8,5.4,10.4,7c-0.9,0.7-1.7,1.4-2.5,2.2c-4.4,4.6-6.4,10-5.6,15.8
		c2.1,15.3,22.9,27.8,25.2,29.2c0.9,0.5,1.8,0.8,2.8,0.8c0.6,0,1.1-0.1,1.7-0.3c0.5,0.2,1.1,0.3,1.7,0.3c0.9,0,1.8-0.2,2.6-0.7
		c2.6-1.4,25.1-14,27.1-29.5c0.5-4-0.1-10-6.1-15.7c-1.2-1.1-2.4-2.1-3.7-2.9c2.9-1.6,5.7-3.6,8.4-6.3c6.5-6.6,7.2-13,6.8-17.3
		c-1.3-11.9-13.3-19.8-14.6-20.7c-2.6-1.6-6-0.9-7.6,1.7c-1.6,2.6-0.9,6,1.7,7.6c2.3,1.5,9,7,9.6,12.7c0.3,2.8-0.7,5.5-3.4,8.3
		c-5.3,5.4-11.6,7.1-17.6,8v-49.1c4-0.4,8-0.9,13.5-1.7c1.8-0.2,3.6-0.5,5.7-0.8c18.1-2.4,30-8.2,35.4-17.1c2.1-3.5,2.9-6.8,3-9.6
		c34.7-5.5,48.7-37.7,49.3-39.2C263.6,75.2,263.4,73.1,262.4,71.6z M128.6,132l-2-0.3c-18-2.4-24.9-7.7-27.5-11.7
		c-2.3-3.5-1.6-6.6-1.5-7.1c0.6-1.6,0.4-3.3-0.5-4.8c-0.9-1.5-2.6-2.5-4.3-2.6C70.7,104,57.7,90,51.5,80h55.7
		c9.2,33,26.8,39.9,37.8,41.3v12.8C140,133.6,135.3,132.9,128.6,132z M132.7,217.7c-0.2-1.5,0-3.8,2.7-6.6c2.4-2.5,5.6-3.6,9.6-4.3
		v26.6C139,229,133.4,223.1,132.7,217.7z M172,217.5c-0.8,6-9,13.2-16,18.1v-29.2c5,0.7,10.1,1.7,13.4,4.8
		C172.2,213.9,172.2,216.1,172,217.5z M151.7,86.2c-6.6,0-12-5.4-12-12c0-6.6,5.4-12,12-12s12,5.4,12,12
		C163.6,80.8,158.3,86.2,151.7,86.2z M207.3,105.6c-1.8,0.1-3.4,1-4.3,2.5c-0.9,1.5-1.1,3.2-0.5,4.8c0.1,0.5,0.8,3.6-1.4,7.1
		c-2.6,4-9.4,9.3-27.4,11.7c-2.1,0.3-3.8,0.6-5.6,0.8c-4.9,0.7-9,1.2-12,1.6v-12.8c11-1.4,27.8-9.3,36.8-41.3h55.7
		C242.2,90,229.1,104,207.3,105.6z"/>
</g>
</svg>
