<?xml version="1.0" encoding="utf-8"?>
<!-- Generator: Adobe Illustrator 18.1.1, SVG Export Plug-In . SVG Version: 6.00 Build 0)  -->
<svg version="1.1" id="Layer_1" xmlns="http://www.w3.org/2000/svg" xmlns:xlink="http://www.w3.org/1999/xlink" x="0px" y="0px"
	 viewBox="0 0 300 300" enable-background="new 0 0 300 300" xml:space="preserve">
<g>
	<path fill="#CCCCCC" d="M99.4,81H117v-8H89v40.2c1,0.6,1.7,1.3,2.3,2.1c0.8,1.2,1.7,2.3,2.7,3.4V86.5C94,83.5,96.4,81,99.4,81z"/>
	<path fill="#FFFFFF" d="M221,92h-12v6.7c0,3-2.2,5.3-5.3,5.3h-81c-3,0-5.7-2.2-5.7-5.3V92h-12v36.2c12,7.7,27.2,9.2,36.5,9.2
		c5.2,0,8.6-0.5,8.6-0.5c2.4-0.3,4.8,0.4,6.6,2.1c1.8,1.7,2.7,3.9,2.5,6.3c-0.4,4.6-1,9.7-1.8,13.7h45.9c3,0,5.5,2.5,5.5,5.5
		s-2.5,5.5-5.5,5.5H155c-2.3,9-5.4,18-9.3,26h57.5c3,0,5.5,2.5,5.5,5.5s-2.5,5.5-5.5,5.5h-63.2c-5.1,9-11.2,18-18.3,26.2
		c-0.5,0.6-1,0.8-1.5,1.8H221V92z M203.2,133h-81c-3,0-5.5-2.5-5.5-5.5s2.5-5.5,5.5-5.5h81c3,0,5.5,2.5,5.5,5.5S206.3,133,203.2,133
		z"/>
	<path fill="#CCCCCC" d="M147.8,68.5c0.8,1.7,0.6,3.6-0.4,5.1c-1,1.6-2.8,2.4-4.6,2.4H128v17h70V76h-14.8c-1.9,0-3.6-0.8-4.6-2.4
		c-1-1.6-1.2-3.5-0.4-5.2c1.1-2.5,1.6-4.5,1.6-6.7c0-8.4-7.6-15.2-16.8-15.2c-9.3,0-16.8,6.9-16.8,15.3
		C146.2,63.9,146.6,65.9,147.8,68.5z M155.5,61c0-3.9,3.4-7.1,7.7-7.1s7.7,3.2,7.7,7.1c0,3.9-3.4,7.1-7.7,7.1S155.5,64.9,155.5,61z"
		/>
	<path fill="#FFFFFF" d="M141.4,153.3c-14.5,0-39.9-3-57.5-21.7c-9.9,8.3-30.1,21.7-57.2,21.7c-0.3,0-0.6,0-0.9,0
		c-0.1,6.4,0.6,16.7,4.4,28.7c8.2,25.8,26.3,47.7,54,65.1c12.4-9.3,50.1-41.3,57.9-93.7C141.9,153.3,141.7,153.3,141.4,153.3z
		 M121.8,169.5l-31,39.2c-1.4,1.8-3.5,2.9-5.8,3c-0.2,0-0.3,0-0.5,0c-2.1,0-4.1-0.8-5.6-2.3l-23.5-23.2c-3.1-3.1-3.2-8.2-0.1-11.3
		c3.1-3.1,8.2-3.2,11.3-0.1l3.2,3.1l14,13.8l18.5-23.3l7-8.9c2.7-3.5,7.8-4,11.2-1.3C123.9,161,124.5,166.1,121.8,169.5z"/>
	<g>
		<path fill="#CCCCCC" d="M232,86.5v71.8l5-5V73h-28v8h18.1C230.1,81,232,83.5,232,86.5z"/>
		<path fill="#CCCCCC" d="M237,197.6l-5,5v38c0,3-1.9,5.4-4.9,5.4H109.9c-2.9,3-5.6,5-8.1,7H237V197.6z"/>
		<polygon fill="#FFFFFF" points="209.7,196.4 207,205.7 216.3,203 276.9,142.4 270.3,135.8 		"/>
		<g>
			<ellipse fill="#5980B7" cx="163.2" cy="61" rx="7.7" ry="7.1"/>
			<path fill="#5980B7" d="M122.2,133h81c3,0,5.5-2.5,5.5-5.5s-2.5-5.5-5.5-5.5h-81c-3,0-5.5,2.5-5.5,5.5S119.2,133,122.2,133z"/>
			<path fill="#5980B7" d="M120.5,158.3c-3.5-2.7-8.5-2.2-11.2,1.3l-7,8.9l-18.5,23.3l-14-13.8l-3.2-3.1c-3.1-3.1-8.2-3.1-11.3,0.1
				c-3.1,3.1-3.1,8.2,0.1,11.3l23.5,23.2c1.5,1.5,3.5,2.3,5.6,2.3c0.2,0,0.3,0,0.5,0c2.3-0.1,4.4-1.2,5.8-3l31-39.2
				C124.5,166.1,123.9,161,120.5,158.3z"/>
			<path fill="#5980B7" d="M288.6,138.5l-14.4-14.4c-1-1-2.4-1.6-3.9-1.6s-3,0.6-4,1.6L248,142.3V68.1c0-3-2-6.1-5.1-6.1h-52.1
				c0,0,0-0.2,0-0.4c0-14.5-12.5-26.2-27.8-26.2c-15.3,0-27.8,11.7-27.8,26.2c0,0.1,0,0.3,0,0.3H83.6c-3,0-5.6,3.1-5.6,6.1v47
				c0,0.1,0,0.1-0.1,0.2c-3.8,3.9-23.2,22-51.3,22c-2.5,0-4.9-0.1-7.4-0.4c-4.2-0.5-8,2.4-8.8,6.6c-0.1,0.8-3.1,18.7,4.1,42.5
				c6.6,21.6,23.3,52.5,65.4,77.4c0.1,0.1,0.3,0.2,0.4,0.2c0.9,0.5,1.9,0.9,2.9,1c0.4,0.1,0.8,0.1,1.2,0.1c0.4,0,0.7-0.1,1.1-0.2
				c0.4-0.1,0.8-0.4,1.2-0.4h156.1c3,0,5.1-2,5.1-5v-72.4l40.5-40.4C290.6,144.1,290.7,140.6,288.6,138.5z M237,153.3l-5,5V86.5
				c0-3-1.9-5.5-4.9-5.5H209v0v-7.4V73h28V153.3z M190.7,64.3c0,0.3-0.1,0.6-0.1,0.9C190.6,64.9,190.6,64.6,190.7,64.3z M142.8,76
				c1.9,0,3.6-0.8,4.6-2.4c1-1.6,1.2-3.5,0.4-5.2c-1.1-2.5-1.6-4.5-1.6-6.6c0-8.4,7.6-15.3,16.8-15.3c9.3,0,16.8,6.8,16.8,15.2
				c0,2.2-0.5,4.2-1.6,6.7c-0.8,1.7-0.6,3.6,0.4,5.1c1,1.6,2.8,2.4,4.6,2.4H198v17h-70V76H142.8z M135.4,65.2c0-0.3-0.1-0.6-0.1-0.9
				C135.3,64.6,135.4,64.9,135.4,65.2z M85.2,111.9c1.4,0.1,2.8,0.5,3.8,1.3V73h28v0.6V81v0H99.4c-3,0-5.4,2.5-5.4,5.5v32.3
				c3,3.9,7,6.9,11,9.4V92h12v6.7c0,3,2.7,5.3,5.7,5.3h81c3,0,5.3-2.2,5.3-5.3V92h12v77.3l-20.2,20.4c-0.7,0.7-1.1,1.4-1.3,2.3
				l-1.2,4.1h-52.6c3.9-8,7-17,9.3-26h48.2c3,0,5.5-2.5,5.5-5.5s-2.5-5.5-5.5-5.5h-45.9c0.8-4,1.4-9.1,1.8-13.7
				c0.2-2.4-0.7-4.7-2.5-6.4c-1.8-1.7-4.2-2.4-6.6-2.1c0,0-3.4,0.5-8.6,0.5c-9.3,0-24-1.4-36.5-9.1c-4-2.4-7.7-5.5-11-9.4
				c-0.9-1.1-1.8-2.2-2.6-3.4c-0.6-0.9-1.4-1.6-2.2-2.1C87.9,112.5,86.6,112,85.2,111.9c-0.2,0-0.6,0-0.9,0
				C84.6,111.9,84.9,111.9,85.2,111.9z M78.6,114.7c-0.1,0.1-0.2,0.2-0.3,0.3C78.4,114.9,78.5,114.8,78.6,114.7z M84.2,247
				c-27.7-17.3-45.8-39.2-54-65.1c-3.8-12-4.5-22.3-4.4-28.7c0.3,0,0.6,0,0.9,0c27.1,0,47.3-13.4,57.2-21.7
				c17.6,18.7,43,21.7,57.5,21.7c0.2,0,0.5,0,0.7,0C134.3,205.7,96.6,237.8,84.2,247z M96.9,257.5c-1.3,1-2.4,1.9-3.4,2.6
				C94.4,259.4,95.6,258.5,96.9,257.5z M237,253H102.1c2.4-2,5-4.3,7.8-7c3.3-3.2,6.9-6.8,10.4-10.9c0.5-0.6,1-1.2,1.5-1.8
				c7-8.3,13.2-17.3,18.3-26.3h55l-1.4,5.1c-0.6,1.9,0,4.1,1.4,5.5c1,1,2.5,1.6,3.9,1.6c0.5,0,1-0.1,1.5-0.2l20.1-5.8
				c0.2-0.1,0.4-0.1,0.4-0.2v22H120.3c-3.6,4-7.1,8-10.4,11h117.2c3,0,4.9-2.3,4.9-5.4v-38l5-5V253z M216.3,203l-9.2,2.7
				c1.1-1,1.7-2.4,1.7-4c0-0.5-0.1-1-0.2-1.4l1.1-3.9l60.7-60.7l6.6,6.6L216.3,203z"/>
		</g>
	</g>
</g>
</svg>
