<?xml version="1.0" encoding="utf-8"?>
<!-- Generator: Adobe Illustrator 18.1.1, SVG Export Plug-In . SVG Version: 6.00 Build 0)  -->
<svg version="1.1" id="Layer_1" xmlns="http://www.w3.org/2000/svg" xmlns:xlink="http://www.w3.org/1999/xlink" x="0px" y="0px"
	 viewBox="0 0 300 300" enable-background="new 0 0 300 300" xml:space="preserve">
<g>
	<path fill="none" d="M187,199.1c23.3-28.7,33.4-62,30.2-99.1c-11.4-1.3-42.3-6.4-63.3-25.4v23.4l10.8,33.1h33.9
		c1.5,0,2.9,1.1,3.4,2.5s-0.1,3.1-1.4,3.9l-27.3,18.1l10.4,31.2c0.5,1.4,0,3-1.3,3.9c-0.6,0.4-1.3,0.7-2.1,0.7
		c-0.7,0-1.5-0.2-2.1-0.7l-0.1,0c-0.1,0-0.3-0.1-0.4-0.1l-24-17.1v55.7C161,224.4,174.5,214.4,187,199.1z"/>
	<path fill="#CCCCCC" d="M214.4,222.2c-8.9,0-17.1,4.5-21.9,7.9c4.2,1.8,8.4,2.8,12.5,2.8c9.3,0,16.5-4.7,20.4-8.1
		C222,223.1,218.3,222.2,214.4,222.2z"/>
	<path fill="#CCCCCC" d="M246.2,183.6c-0.6,0-1.2-0.1-1.8-0.1c-13.3,0-22.4,10.9-26.6,17.5c0.3,0,0.5,0,0.8,0
		C234.8,201.1,242.9,189.9,246.2,183.6z"/>
	<path fill="#CCCCCC" d="M255.7,137.4c-14.2,3.2-20.1,16.9-22.3,24.9C249.8,157.7,254.4,144.5,255.7,137.4z"/>
	<path fill="#FFFFFF" d="M74.5,224.8c3.9,3.3,11.1,8.1,20.4,8.1c4.1,0,8.3-0.9,12.5-2.8c-4.8-3.4-13-7.9-21.9-7.9
		C81.7,222.2,78,223.1,74.5,224.8z"/>
	<path fill="#FFFFFF" d="M81.5,201C81.5,201,81.5,201,81.5,201c0.3,0,0.5,0,0.8,0c-4.3-6.6-13.3-17.5-26.6-17.5c-0.6,0-1.2,0-1.8,0
		C57,189.9,65,201,81.5,201z"/>
	<path fill="#FFFFFF" d="M66.6,162.2c-2.2-7.9-8.1-21.7-22.3-24.9C45.6,144.5,50.2,157.7,66.6,162.2z"/>
	<path fill="#CCCCCC" d="M123.3,190.1c-1.2,0.9-2.8,0.9-4,0c-1.2-0.9-1.7-2.5-1.2-3.9l10.4-30.4l-27.3-18.2c-1.3-0.9-1.8-2.5-1.4-4
		c0.4-1.5,1.8-2.5,3.4-2.5h33.9l9.9-31.2V74.8C127,93.8,95.6,98.7,84.3,100c-3.3,37.7,6.9,71.2,30.6,99.6c12,14.5,25.1,24,32.1,28.9
		V173L123.3,190.1z"/>
	<path fill="#FFFFFF" d="M143,135.6c-0.5,1.4-1.8,2.4-3.3,2.4h-24.9l19.9,13.3c1.3,0.9,1.9,2.6,1.4,4.1l-7.7,22.6l18.6-13.3
		l0.4-42.1L143,135.6z"/>
	<path fill="#CCCCCC" d="M165.9,155.3c-0.5-1.5,0.1-3.2,1.4-4l19.9-13.2h-24.9c-1.5,0-3-0.9-3.5-2.4l-4.7-14.4V165l19.4,13.8
		L165.9,155.3z"/>
	<g>
		<path fill="#5980B7" d="M234.3,220.8c-6-4.4-12.7-6.6-19.8-6.6c-17.3,0-31.4,13.1-31.9,13.7c-0.9,0.9-1.4,2.1-1.2,3.3
			c0.1,1.2,0.8,2.3,1.9,3c7.2,4.4,14.6,6.7,21.9,6.7c18.2,0,29.5-13.7,30-14.3c0.7-0.9,1-1.9,0.9-3S235.2,221.5,234.3,220.8z
			 M205.1,232.9c-4.1,0-8.3-0.9-12.5-2.8c4.8-3.4,13-7.9,21.9-7.9c3.9,0,7.6,0.9,11,2.6C221.5,228.1,214.3,232.9,205.1,232.9z"/>
		<path fill="#5980B7" d="M252.8,176.6c-2.8-0.7-5.7-1.1-8.4-1.1c-24.3,0-36.3,26.2-36.8,27.3c-0.5,1.1-0.5,2.4,0.1,3.5
			s1.7,1.9,2.9,2c2.7,0.4,5.4,0.7,7.9,0.7c22.9,0,34.3-18,37.1-27.4c0.3-1,0.2-2.2-0.4-3.1S253.8,176.9,252.8,176.6z M218.5,201.1
			c-0.3,0-0.5,0-0.8,0c4.3-6.6,13.3-17.5,26.6-17.5c0.6,0,1.2,0,1.8,0.1C242.9,189.9,234.8,201.1,218.5,201.1z"/>
		<path fill="#5980B7" d="M225.3,170.2c0.8,0.8,1.8,1.2,2.8,1.2c0.2,0,0.3,0,0.5,0c35.1-4.6,35.5-38.2,35.5-38.6
			c0-1.1-0.4-2.1-1.2-2.9c-0.8-0.8-1.9-1.2-3-1.1c-24.5,1.2-34.1,25.4-35.8,38.1C224,168.1,224.5,169.3,225.3,170.2z M255.7,137.4
			c-1.3,7.1-5.9,20.3-22.3,24.9C235.6,154.3,241.5,140.6,255.7,137.4z"/>
		<path fill="#5980B7" d="M85.6,214.2c-7.2,0-13.8,2.2-19.8,6.6c-0.9,0.6-1.5,1.6-1.6,2.7s0.2,2.2,0.9,3c0.5,0.6,11.8,14.3,30,14.3
			c0,0,0,0,0,0c7.3,0,14.7-2.2,21.9-6.7c1.1-0.6,1.8-1.8,1.9-3c0.1-1.2-0.3-2.5-1.2-3.3C116.9,227.3,102.9,214.2,85.6,214.2z
			 M94.9,232.9c-9.3,0-16.5-4.7-20.4-8.1c3.5-1.7,7.2-2.6,11-2.6c8.9,0,17.1,4.5,21.9,7.9C103.2,231.9,99,232.9,94.9,232.9z"/>
		<path fill="#5980B7" d="M81.5,209c2.5,0,5.2-0.2,7.9-0.6c1.2-0.2,2.3-0.9,2.9-2s0.6-2.4,0.1-3.5c-0.5-1.1-12.5-27.3-36.8-27.3
			c-2.8,0-5.6,0.4-8.4,1.1c-1.1,0.3-2,1-2.5,1.9s-0.7,2-0.4,3.1C47.2,191.1,58.6,209,81.5,209C81.5,209,81.5,209,81.5,209z
			 M53.8,183.6c0.6,0,1.2,0,1.8,0c13.3,0,22.3,10.8,26.6,17.5c-0.3,0-0.5,0-0.8,0c0,0,0,0,0,0C65,201,57,189.9,53.8,183.6z"/>
		<path fill="#5980B7" d="M71.3,171.3c0.2,0,0.3,0,0.5,0c1.1,0,2.1-0.4,2.8-1.2c0.9-0.9,1.3-2.1,1.1-3.4
			C74.1,154.2,64.5,130,40,128.8c-1.1-0.1-2.2,0.3-3,1.1c-0.8,0.8-1.2,1.8-1.2,2.9C35.8,133.1,36.2,166.7,71.3,171.3z M66.6,162.2
			c-16.4-4.5-21-17.8-22.3-24.9C58.5,140.6,64.4,154.3,66.6,162.2z"/>
		<path fill="#5980B7" d="M194.7,205.7c17.9-21.9,38.1-59,32.3-110.9c-0.3-2.4-2.2-4.3-4.7-4.5c-0.5,0-47.6-3.3-67.4-30.1
			c-0.9-1.3-2.4-2.2-4-2.2c0,0,0,0,0,0c-1.6,0-3.1,0.9-4,2.2c-20.1,27.1-66.9,30.1-67.4,30.1c-2.4,0.1-4.4,2-4.7,4.4
			c-5.9,52.7,14.6,89.7,32.8,111.5c19.7,23.6,40.6,34.6,41.5,35c0.7,0.4,1.5,0.6,2.3,0.6c0.8,0,1.6-0.2,2.4-0.6
			C154.7,240.8,175.3,229.4,194.7,205.7z M165.9,155.3l7.5,23.6L154,165v-43.9l4.7,14.4c0.5,1.5,2,2.4,3.5,2.4h24.9l-19.9,13.2
			C166,152.1,165.4,153.8,165.9,155.3z M134.7,151.3L114.7,138h24.9c1.5,0,2.9-0.9,3.3-2.4l4.2-13l-0.4,42L128.3,178l7.7-22.6
			C136.5,153.9,136,152.2,134.7,151.3z M114.9,199.6c-23.7-28.4-34.1-61.9-30.8-99.6c11.4-1.2,42.8-6.2,62.8-25.1v24.9l-9.9,31.2
			h-33.9c-1.5,0-2.9,1-3.3,2.5c-0.4,1.5,0.1,3.1,1.4,3.9l27.3,18.2l-10.4,30.4c-0.5,1.4,0,3,1.2,3.9c1.2,0.9,2.7,0.9,4,0L147,173
			v55.5C140,223.6,127,214,114.9,199.6z M154,229.2v-55.7l24,17.1c0.1,0,0.2,0.1,0.3,0.1l0.1,0c0.6,0.5,1.4,0.7,2.1,0.7
			c0.7,0,1.5-0.2,2.1-0.7c1.2-0.9,1.8-2.5,1.3-3.9l-10.4-31.2l27.3-18.1c1.3-0.9,1.9-2.5,1.4-4s-1.8-2.5-3.3-2.5h-33.9L154,97.9
			V74.6c21,18.9,51.9,24.1,63.3,25.4c3.2,37.1-7.1,70.5-30.4,99.1C174.5,214.4,161,224.4,154,229.2z"/>
	</g>
</g>
</svg>
