<?xml version="1.0" encoding="utf-8"?>
<!-- Generator: Adobe Illustrator 18.1.1, SVG Export Plug-In . SVG Version: 6.00 Build 0)  -->
<svg version="1.1" id="Layer_1" xmlns="http://www.w3.org/2000/svg" xmlns:xlink="http://www.w3.org/1999/xlink" x="0px" y="0px"
	 viewBox="0 0 300 300" enable-background="new 0 0 300 300" xml:space="preserve">
<g>
	<path fill="none" d="M94,124h39c2.1,0,3.9,1.7,4.4,3.7c0.4-0.3,0.8-0.5,1.2-1c4.5-5.1,5.9-17.6,6-30c-4.3-7.7-12.1-14.3-24.5-14.3
		c-28.5,0-34.1,26-35.1,29.4v29.6c2-0.8,3-1.5,4-2.2V129C89,126.5,91.5,124,94,124z"/>
	<path fill="#CDCCCC" d="M65,116.8v27.5c0,2.1,1.8,3.7,3.9,3.7H75v-35h-6.1C66.8,113,65,114.7,65,116.8z"/>
	<path fill="#FFFFFF" d="M120.5,72.5c7.6,0,14.2,1.8,19.9,5.4c-5.4-5.6-12.6-8.4-22.1-8.4c-11.1,0-19.5,3.2-24.9,9.5
		c-1.3,1.5-2.4,3.1-3.3,4.8C97.1,77.3,107,72.5,120.5,72.5z"/>
	<path fill="#CDCCCC" d="M188.8,120.3c4.5-20,11.8-37.3,15.7-46.3h-31.4C177.1,83,184.3,100.3,188.8,120.3z"/>
	<path fill="#FFFFFF" d="M209.1,187c5,0,9.5,2,12.3,6H239v-21h-47v15H209.1z"/>
	<path fill="#FFFFFF" d="M239,144v-7.8c-2-0.7-4.3-2.3-6-4.3c-10.3-11.7-8.1-44.9-6.9-57.9h-11.4h-1.4c-3.9,8-17.6,39-20.1,70H239z"
		/>
	<polygon fill="#CDCCCC" points="192,164 239,164 239,152 192,152 192,153.5 	"/>
	<path fill="#FFFFFF" d="M184.4,144c-2.5-31-16.2-62-20.1-70h-5.7h-7c1.2,13,3.1,46.2-7.2,57.9c-1.8,2-4.4,3.6-6.4,4.3v2.5
		c3,1.6,6.3,3.3,9,5.3H184.4z"/>
	<path fill="#FFFFFF" d="M165.8,172c1.5,4,2.4,9,2.7,15H184v-15H165.8z"/>
	<path fill="#CDCCCC" d="M162.6,164H184v-10.5V152h-28.9C158,155,160.5,159,162.6,164z"/>
	<path fill="#FFFFFF" d="M137,148.5v10c0,2.5-1.8,4.3-4.3,4.3s-4.3-1.7-4.3-4.7H118v13.5c0,2.5-2,4.5-4.5,4.5s-4.5-2-4.5-4.5V158
		H98.5c0,3-2.2,4.7-4.7,4.7S89,161,89,158.5v-8.6c-12,8.7-19.9,23.6-19.9,40.4c0,2.1,0.5,6.3,0.7,7.7c0.2,2-0.8,3.8-2.6,4.6
		l-5.5,2.4l-0.2,4.9c7.2,1.8,25.5,6,47.5,6.6V207H82.5c-2.5,0-4.5-2-4.5-4.5s2-4.5,4.5-4.5h27.8c0.6,0,1.6-1,2.6-1h8.7
		c2.3-6,7.8-10,14.1-10h23.8C158.4,170,150,156.5,137,148.5z"/>
	<path fill="#FFFFFF" d="M128,133h-9.7c0.1,1-0.3,1.1-0.3,1.5V158h10V133z"/>
	<path fill="#FFFFFF" d="M109,134.5c0-0.3,0.5-0.5,0.6-1.5H98v25h11V134.5z"/>
	<path fill="#FFFFFF" d="M138.9,231h11.7c4.3,0,8.1-3.3,9.2-8.2l2.3-9.7c1.1-4.8,5.1-8.1,9.7-8.1c4.4,0,8.2,3,9.6,7.4l3.5,11.2
		c1.4,4.5,5,7.4,9,7.4h11.9c5.3,0,9.2-4.8,9.2-11.1v-16.2c0-4.2-2.4-7.7-5.9-7.7h-73.5c-3.5,0-6.6,3.4-6.6,7.7v16.2
		C129,226.2,133.7,231,138.9,231z"/>
	<rect x="223" y="204" fill="#CDCCCC" width="5" height="14"/>
	<rect x="116" y="204" fill="#CDCCCC" width="5" height="14"/>
	<path fill="#5A81B8" d="M245.9,129.8c-0.8-0.8-1.8-1.2-2.9-1.1l-0.2,0c-1.5,0-2.7-0.6-3.8-1.9c-8.3-9.3-6.1-43.5-4.6-55.8
		c0.1-1.1-0.2-2.5-1-3.4c-0.8-0.9-1.8-1.6-3-1.6h-11.8h-7.9h-44h-12.2h-3h-4.5c-1.1,0-2.2,0.7-2.9,1.5c0,0,0,0.1,0,0.1
		c-6.8-5.5-15.5-8.2-25.8-8.2c-14.1,0-25.1,4.4-32.5,13.1c-8.2,9.6-10.1,21.9-10.3,30.3c0,0.1,0,0.2,0,0.2h-6.6H68v0.5
		c-7,0.2-13,5.9-13,13.3v27.5c0,7.6,6.3,13.7,13.9,13.7h0.4c-5.6,10-8.9,20.3-8.9,31.9c0,1.5,0.1,3.8,0.3,5.5l-5.2,2.4
		c-1.6,0.7-2.7,2.4-2.7,4.2l0,11.3c0,2,1.3,3.8,3.2,4.3c1.1,0.3,26.8,7.9,58.6,7.9c2.2,0,4.4,0,6.6-0.1c0,0,0-0.2,0-0.2
		c2.2,8.6,9.4,14.7,17.9,14.7h11.7c8.5,0,15.9-6.1,18-15.1l1.6-6.6l0,0c1.4-0.4,1.9-0.6,2.1-0.6c0.3-0.1,0.7-0.2,0.7-0.4v0l3.1,9
		c2.5,8.3,9.9,13.7,17.9,13.7h11.9c8.5,0,15.6-6,17.9-15h8.3c1.9,0,3.1-1.1,3.1-3v-20.2V201h8.3c2.2,0,3.7-1.1,3.7-3.3V168v-19.7
		v-15.6C247,131.6,246.7,130.6,245.9,129.8z M204.5,74L204.5,74c0,0,0,0.3,0,0.3c-3.9,8.7-11.2,26.5-15.7,46.5c0,0,0,0,0,0
		c-4.5-20-11.8-37.8-15.7-46.5c0,0,0-0.3,0-0.3h0H204.5z M192.5,147.3c-0.4-1.4-1.5-2.5-2.9-2.7c1.3,0.2,2.4,1.1,2.9,2.2
		C192.5,146.9,192.5,147.1,192.5,147.3z M189.5,144.5c-0.2,0-0.4-0.1-0.6-0.1C189,144.5,189.3,144.5,189.5,144.5z M162.8,164
		c-0.1,0-0.1-0.3-0.2-0.4c-2-4.2-4.5-7.6-7.4-11.6H184v1.5V164H162.8z M184,172v15h-15.5c-0.3-5-1.2-10-2.7-15H184z M151.5,74h7h5.7
		c3.9,8,17.6,39,20.1,70h-37.3c-0.1,0-0.1,0.1-0.2,0.1c-2.7-2.2-5.6-3.9-8.6-5.5c-0.3-0.2-0.9-0.3-1.2-0.4c0.3,0.2,0.8,0.4,0.8,0.5
		v-2.5c2-0.7,4.6-2.3,6.4-4.3C154.7,120.2,152.8,87,151.5,74z M151.6,148.5c-0.9-0.9-1.8-1.8-2.8-2.6
		C149.8,146.7,150.7,147.6,151.6,148.5z M93.4,79c5.5-6.3,13.8-9.5,24.9-9.5c9.5,0,16.7,2.7,22.1,8.4c-5.7-3.6-12.3-5.4-19.9-5.4
		c-13.6,0-23.4,4.8-30.4,11.3C91,82.1,92.1,80.5,93.4,79z M85,141.4v-28.1c0-0.4,0.5-0.8,0.6-1.2c0-0.1,0.1-0.2,0.2-0.3
		c0.6-3.3,6.2-29.3,34.7-29.3c12.4,0,19.7,6.6,24,14.3c-0.1,12.3-1.5,24.9-6,30c-0.4,0.5-0.8,0.6-1.2,0.9c-0.5-2-2.2-3.7-4.4-3.7H94
		c-2.5,0-5,2.5-5,5v10.3c-1,0.7-2.4,1.4-3.6,2.2c-0.1,0.1-0.4,0.2-0.4,0.3V141.4z M68.9,148c-2.1,0-3.9-1.6-3.9-3.7v-27.5
		c0-2.1,1.8-3.8,3.9-3.8H75v35H68.9z M121,218h-5v-14h5V218z M121.5,197h-8.7c-1,0-1.9,0.4-2.5,1.1c-0.6,0.6-0.6,0.9-0.1-0.1H82.5
		c-2.5,0-4.5,2-4.5,4.5s2,4.5,4.5,4.5H109v9.5c-22-0.6-40.3-4.8-47.5-6.6l0.1-4.9l5.6-2.4c1.8-0.8,2.9-2.7,2.7-4.6
		c-0.2-1.4-0.8-5.6-0.8-7.7c0-16.8,7.9-31.7,19.9-40.4v8.6c0,2.5,2,4.5,4.5,4.5s4.5-2,4.5-4.5V133h11.6c-0.1,1-0.6,1.1-0.6,1.5v24
		v13c0,2.5,2,4.5,4.5,4.5s4.5-2,4.5-4.5v-13v-24c0-0.3,0.4-0.5,0.3-1.5h9.7v25.5c0,2.5,2,4.5,4.5,4.5s4.5-2,4.5-4.5v-10
		c13,7.9,21.4,21.5,22.5,38.5h-23.8C129.3,187,123.8,191,121.5,197z M215,219.9c0,6.3-3.9,11.1-9.2,11.1h-11.9c-4,0-7.6-2.9-9-7.4
		l-3.5-11.3c-1.4-4.4-5.2-7.4-9.6-7.4c-4.6,0-8.6,3.4-9.7,8.2l-2.3,9.6c-1.2,4.9-5,8.2-9.2,8.2h-11.7c-5.3,0-9.9-4.8-9.9-11.1v-16.2
		c0-4.2,3.2-7.7,6.6-7.7h73.5c3.5,0,5.9,3.4,5.9,7.7V219.9z M228,218h-5v-14h5V218z M239,193h-17.6c0.7,1,1.4,3.2,1.9,4.2
		c-0.5-1-1.1-2.4-1.9-3.5c-2.8-4.1-7.2-6.7-12.3-6.7h-16.3H192v-15h47.3H239V193z M239,164h-47v0v-10.5V152h47V164z M239,144h0.3
		h-46c2.5-31,16.2-62,20.1-70h1.4h11.4c-1.2,13-3.5,46.2,6.9,57.9c1.8,2,4,3.6,6,4.3V144z"/>
</g>
</svg>
