<?xml version="1.0" encoding="utf-8"?>
<!-- Generator: Adobe Illustrator 18.1.1, SVG Export Plug-In . SVG Version: 6.00 Build 0)  -->
<svg version="1.1" id="Layer_1" xmlns="http://www.w3.org/2000/svg" xmlns:xlink="http://www.w3.org/1999/xlink" x="0px" y="0px"
	 viewBox="0 0 300 300" enable-background="new 0 0 300 300" xml:space="preserve">
<g>
	<path fill="none" d="M221.5,83.4c-4,0-7.5,3.3-7.5,7.3V92h15v-1.3C229,86.7,225.5,83.4,221.5,83.4z"/>
	<path fill="#FFFFFF" d="M66.1,106.8c0,1.4,1.1,2.5,2.5,2.5c1.4,0,2.5-1.1,2.5-2.5c0-1.4-1.1-2.5-2.5-2.5
		C67.2,104.3,66.1,105.4,66.1,106.8z"/>
	<circle fill="#FFFFFF" cx="128.2" cy="86" r="2.5"/>
	<path fill="#FFFFFF" d="M59.6,148.4c0-1.4-1.1-2.5-2.5-2.5c-1.4,0-2.5,1.1-2.5,2.5s1.1,2.5,2.5,2.5
		C58.5,150.9,59.6,149.8,59.6,148.4z"/>
	<circle fill="#FFFFFF" cx="94.2" cy="79" r="2.5"/>
	<path fill="#FFFFFF" d="M218,138v58.3c0,2.5-1.3,3.7-3.8,3.7H112.5c-2.5,0-4.5-1.2-4.5-3.7v-72.7c0-2.5,2.1-4.6,4.5-4.6H194v-8h-94
		v97h126v-70H218z"/>
	<path fill="#FFFFFF" d="M117,191h92v-53h-10.3c-2.5,0-4.7-1.5-4.7-4v-6h-77V191z M126.5,159c0.6-0.8,14.4-20.2,36.3-20.2
		c12.8,0,25.5,6.7,37.7,19.9c1.2,1.3,1.2,3.2,0.2,4.5c-0.6,0.8-14.7,18.8-36.5,18.8c-12.8,0-25.3-6.2-37.3-18.5
		C125.7,162.3,125.5,160.4,126.5,159z"/>
	<path fill="#FFFFFF" d="M95.8,217H80v3.1c0,2.2,1.8,3.9,4,3.9h158.8c2.2,0,3.2-1.7,3.2-3.9V217h-15H95.8z"/>
	<path fill="#CDCCCC" d="M203,129h37v-28h-37V129z M226,118.5c0,2.5-2,4.5-4.5,4.5s-4.5-2-4.5-4.5v-4c0-2.5,2-4.5,4.5-4.5
		s4.5,2,4.5,4.5V118.5z"/>
	<path fill="#FFFFFF" d="M147.3,149.9c-6.3,3.4-10.9,8.1-13.2,10.8c4.3,4.1,8.7,7.3,13.1,9.7c-1.8-2.9-2.9-6.4-2.9-10.1
		C144.2,156.5,145.3,152.9,147.3,149.9z"/>
	<path fill="#FFFFFF" d="M179.1,171.4c6.6-3.1,11.5-7.6,14.1-10.3c-4.3-4.4-8.7-7.8-13-10.3c1.6,2.8,2.5,6,2.5,9.5
		C182.6,164.4,181.3,168.3,179.1,171.4z"/>
	<path fill="#CDCCCC" d="M163.4,148.1c-6.7,0-12.2,5.5-12.2,12.2s5.5,12.2,12.2,12.2c6.7,0,12.2-5.5,12.2-12.2
		S170.1,148.1,163.4,148.1z M169.2,159.9C169.2,159.9,169.2,159.9,169.2,159.9c0,3.3-2.6,5.9-5.8,5.9s-5.8-2.6-5.8-5.8
		c0-3.2,2.6-5.8,5.8-5.8c0.4,0,0.8,0,1.1,0.1c0.7-0.8,1.7-1.3,2.8-1.3c2,0,3.7,1.7,3.7,3.7C171,158,170.3,159.2,169.2,159.9z"/>
	<g>
		<path fill="#5A81B8" d="M251.2,208H235v-70h10.5c2.5,0,3.5-1.5,3.5-4V97.4c0-2.5-1-5.4-3.5-5.4H238v-1.3c0-9-7.5-16.3-16.5-16.3
			c-9,0-16.5,7.3-16.5,16.3V92h-6.3c-2.5,0-4.7,2.9-4.7,5.4v5V102h-61v-4.7c4-2,7.4-6.3,7.4-11.3c0-6.9-5.5-12.5-12.4-12.5
			c-6.9,0-12.7,5.6-12.7,12.5c0,5.2,3.6,9.7,7.6,11.6v4.4H99V90.3c4-2,7.4-6.3,7.4-11.3c0-6.9-5.5-12.5-12.4-12.5S81.4,72.1,81.4,79
			c0,5.2,3.6,9.7,7.6,11.6v50.3l-16-11.5v-11.1c5-1.9,7.8-6.3,7.8-11.5c0-6.9-5.5-12.5-12.4-12.5s-12.7,5.6-12.7,12.5
			c0,5.1,3.2,9.5,7.2,11.4v13.7c0,1.6,0.8,3.1,2.1,4.1L89,153.2v36.4l-28-20.5v-9c5-1.8,8.4-6.3,8.4-11.7c0-6.9-5.5-12.5-12.3-12.5
			s-12.7,5.6-12.7,12.5c0,4.8,2.6,9,6.6,11.1v12.1c0,1.6,0.9,3.1,2.1,4L91,203.3v4.7h0.3H75.6c-2.5,0-4.6,2.5-4.6,5v7.1
			c0,7.1,5.9,12.9,13,12.9h158.8c7.1,0,12.2-5.7,12.2-12.9V213C255,210.5,253.7,208,251.2,208z M128.2,83.5c1.4,0,2.5,1.1,2.5,2.5
			c0,1.4-1.1,2.5-2.5,2.5s-2.5-1.1-2.5-2.5C125.7,84.6,126.8,83.5,128.2,83.5z M68.6,104.3c1.4,0,2.5,1.1,2.5,2.5
			c0,1.4-1.1,2.5-2.5,2.5c-1.4,0-2.5-1.1-2.5-2.5C66.1,105.4,67.2,104.3,68.6,104.3z M57.2,145.9c1.4,0,2.5,1.1,2.5,2.5
			s-1.1,2.5-2.5,2.5c-1.4,0-2.5-1.1-2.5-2.5S55.8,145.9,57.2,145.9z M214,90.7c0-4,3.5-7.3,7.5-7.3c4,0,7.5,3.3,7.5,7.3V92h0.4
			h-14.6H214V90.7z M203,101h37v28h-37V101z M198.7,138H209v53h-92v-63h77v6C194,136.5,196.2,138,198.7,138z M100,111h94v8.1V119
			h-81.5c-2.5,0-4.5,2.1-4.5,4.6v72.7c0,2.5,2.1,3.7,4.5,3.7h101.7c2.5,0,3.8-1.2,3.8-3.7V138h0.7h7.7H226v70h0.5H100V111z
			 M94.2,76.5c1.4,0,2.5,1.1,2.5,2.5c0,1.4-1.1,2.5-2.5,2.5s-2.5-1.1-2.5-2.5C91.7,77.6,92.8,76.5,94.2,76.5z M246,220.1
			c0,2.2-1.1,3.9-3.2,3.9H84c-2.2,0-4-1.7-4-3.9V217h15.8H231h15V220.1z"/>
		<path fill="#5A81B8" d="M221.5,110c-2.5,0-4.5,2-4.5,4.5v4c0,2.5,2,4.5,4.5,4.5s4.5-2,4.5-4.5v-4C226,112,224,110,221.5,110z"/>
		<path fill="#5A81B8" d="M126.5,159c-1,1.4-0.8,3.2,0.4,4.4c12,12.3,24.5,18.5,37.3,18.5c21.8,0,35.9-18,36.5-18.8
			c1-1.4,1-3.3-0.2-4.5c-12.2-13.2-24.9-19.9-37.7-19.9C140.8,138.8,127,158.2,126.5,159z M175.6,160.3c0,6.7-5.5,12.2-12.2,12.2
			c-6.7,0-12.2-5.5-12.2-12.2s5.5-12.2,12.2-12.2C170.1,148.1,175.6,153.6,175.6,160.3z M134,160.7c2.4-2.8,7-7.4,13.2-10.8
			c-1.9,3-3.1,6.6-3.1,10.4c0,3.7,1.1,7.2,2.9,10.1C142.7,168.1,138.4,164.9,134,160.7z M193.1,161.1c-2.6,2.7-7.5,7.2-14.1,10.3
			c2.2-3.1,3.6-7,3.6-11.1c0-3.4-0.9-6.7-2.5-9.5C184.4,153.3,188.8,156.8,193.1,161.1z"/>
		<path fill="#5A81B8" d="M157.6,159.9c0,3.2,2.6,5.8,5.8,5.8s5.8-2.6,5.8-5.8c0,0,0-0.1,0-0.1c-0.6,0.3-1.2,0.5-1.9,0.5
			c-2,0-3.7-1.7-3.7-3.7c0-0.9,0.4-1.8,0.9-2.4c-0.4-0.1-0.7-0.1-1.1-0.1C160.2,154.1,157.6,156.7,157.6,159.9z"/>
	</g>
	<path fill="#CDCCCC" d="M167.3,153c-1.1,0-2.1,0.5-2.8,1.3c-0.6,0.7-0.9,1.5-0.9,2.4c0,2,1.7,3.7,3.7,3.7c0.7,0,1.4-0.2,1.9-0.5
		c1.1-0.7,1.8-1.8,1.8-3.2C171,154.7,169.3,153,167.3,153z"/>
</g>
</svg>
