<?xml version="1.0" encoding="utf-8"?>
<!-- Generator: Adobe Illustrator 18.1.1, SVG Export Plug-In . SVG Version: 6.00 Build 0)  -->
<svg version="1.1" id="Layer_1" xmlns="http://www.w3.org/2000/svg" xmlns:xlink="http://www.w3.org/1999/xlink" x="0px" y="0px"
	 viewBox="0 0 300 300" enable-background="new 0 0 300 300" xml:space="preserve">
<g>
	<path fill="#FFFFFF" d="M143.8,101l5.8-7.5c1.1-1.4,2.9-2.1,4.7-1.8c0.8,0.1,1.6,0.2,2.4,0.2c5.2,0,10-2.4,13.1-6.3
		c2.4-3.1,3.5-7,3.3-10.8l-7.4,9.7c-1.7,2.2-4.8,2.6-7,0.9L147,76.7c-1.1-0.8-1.7-2-1.9-3.3c-0.2-1.3,0.2-2.6,1-3.7l7.4-9.7
		c-3.8,0.8-7.1,2.9-9.5,6c-3.6,4.7-4.3,11-1.9,16.5c0.7,1.7,0.5,3.6-0.6,5l-8.2,10.8c-0.5,0.9-1.1,1.8-1.9,2.5l0-0.1L131,101H143.8z
		"/>
	<path fill="#FFFFFF" d="M142,111c0.3,1,0.4,1.7,0.4,2.8l-0.1,5.2h77.3c2.8,0,5.4,3.1,5.4,5.8v84.4c0,2.8-2.6,4.7-5.4,4.7H97
		c-2.8,0-5-1.9-5-4.7v-36l-8-0.2V222h149V111H142z"/>
	<path fill="#FFFFFF" d="M215,204v-75h-73.4c-0.5,2-1.4,3.3-2.6,4.4c-1.9,1.8-4.3,3-6.9,3c-0.1,0-0.2,0.1-0.2,0.1l-4.3-0.1
		c0,0.1-0.1,0.2-0.1,0.3l3,3.2c1.8,1.9,2.8,4.5,2.8,7.1c-0.1,2.7-1.2,5.2-3.1,7l-9.1,8.6c-1.9,1.8-4.3,2.8-6.9,2.8
		c-0.1,0-0.2,0-0.2,0c-2.7-0.1-5.2-1.2-7-3.1l-3.1-3.3c0,0-0.1,0-0.1,0l-0.1,4.6c0,1.8-0.5,3.5-1.5,5V204H215z M160.6,195.1
		c-3.7,0-6.7-3-6.7-6.7s3-6.7,6.7-6.7s6.7,3,6.7,6.7S164.3,195.1,160.6,195.1z M183.1,183c-0.8,0.5-1.7,0.7-2.6,0.7
		c-1.7,0-3.3-0.8-4.3-2.4c0-0.1-5.9-9.2-15.4-9.2c-9.6,0-15.9,9.3-16,9.4c-1.5,2.3-4.6,2.9-6.9,1.4c-2.3-1.5-2.9-4.6-1.4-6.9
		c0.4-0.6,9.2-13.9,24.3-13.9c15.2,0,23.6,13.4,23.9,14C186.2,178.5,185.5,181.6,183.1,183z M125.3,164.4
		c0.5-0.7,13.7-17.9,35.6-17.9c22.1,0,34.5,17.3,35,18c1.6,2.3,1,5.4-1.2,7c-0.9,0.6-1.9,0.9-2.9,0.9c-1.6,0-3.1-0.7-4.1-2.1
		c-0.1-0.1-10-13.8-26.8-13.8c-17,0-27.5,13.7-27.6,13.9c-1.7,2.2-4.8,2.7-7,1C124.1,169.8,123.7,166.6,125.3,164.4z"/>
	<path fill="#FFFFFF" d="M78.5,232H61v4.6c0,1.9,1.6,3.4,3.5,3.4h187.6c1.9,0,3.9-1.5,3.9-3.4V232h-17.9H78.5z"/>
	<path fill="#FFFFFF" d="M97.8,110.3c-2.4-2.5-5.6-3.9-9-3.9c-3.3,0-6.4,1.3-8.8,3.5c-2.5,2.4-3.9,5.5-4,8.9
		c-0.1,3.4,1.1,6.5,3.4,8.9c2.4,2.5,5.6,3.9,9,3.9c3.3,0,6.4-1.3,8.8-3.5C102.3,123.3,102.5,115.3,97.8,110.3z"/>
	<path fill="#CCCCCC" d="M69.6,145.7c3.6,2.5,7.6,4.3,11.7,5.2L81,163l12.5,0.3l0.3-12c4.2-0.7,8.3-2.2,12.1-4.6l8.2,8.6l9.1-8.6
		l-8.1-8.6c2.6-3.6,4.4-7.7,5.4-11.9l11.7,0.3l0.3-12.5l-11.6-0.3c-0.7-4.3-2.3-8.5-4.7-12.3l8.4-8l-8.6-9.1l-8.4,8
		c-3.7-2.6-7.8-4.4-12.1-5.3l0.3-11.6l-12.5-0.3l-0.3,11.7c-4.3,0.7-8.4,2.3-12.2,4.8l-8.1-8.6l-9.1,8.6l8.2,8.6
		c-2.5,3.6-4.3,7.7-5.1,11.9l-12-0.3l-0.3,12.5l12.1,0.3c0.7,4.2,2.3,8.2,4.6,11.9l-8.8,8.4l8.6,9.1L69.6,145.7z M73,102.7
		c4.4-4.2,10.1-6.3,15.7-6.3c5.9,0,11.9,2.3,16.3,7c8.6,9,8.2,23.3-0.9,32c-4.4,4.2-10.1,6.3-15.7,6.3c-5.9,0-11.9-2.3-16.3-7
		C63.5,125.7,63.9,111.4,73,102.7z"/>
	<g>
		<path fill="#5980B7" d="M260.5,222h-17.4H243V106.3c0-2.8-2.1-5.3-4.9-5.3h-75.6c6-1,11.4-4.6,15.2-9.5c6.6-8.7,7.1-20.7,1.2-29.9
			c-0.9-1.4-2.4-2.2-4-2.3c-1.6-0.1-3.2,0.7-4.2,2l-10.1,13.2l-3.6-2.8l10.1-13.2c1-1.3,1.3-3,0.8-4.6c-0.5-1.6-1.7-2.8-3.3-3.3
			c-2.5-0.8-5.1-1.2-7.7-1.2c-8.3,0-15.9,3.8-20.9,10.3c-5.2,6.8-6.7,15.6-4.2,23.7l-1.3,1.8l-7.4-7.8c-2-2.1-4.6-3.1-7.2-3.1
			c-2.5,0-5,0.9-6.9,2.8l-3,2.9c-0.1-0.1-0.2-0.1-0.4-0.2l0.1-4.2c0.1-2.7-0.9-5.2-2.8-7.1c-1.8-1.9-4.3-3-7-3.1l-12.5-0.3
			c-0.1,0-0.2,0-0.3,0c-5.4,0-9.9,4.3-10,9.8l-0.1,4.3c-0.1,0-0.2,0.1-0.2,0.1l-3-3.1c-2-2.1-4.6-3.1-7.2-3.1c-2.5,0-5,0.9-6.9,2.8
			l-9.1,8.6c-4,3.8-4.2,10.1-0.4,14.1l3.1,3.3c0,0,0,0.1,0,0.1l-4.6-0.1c-0.1,0-0.2,0-0.2,0c-2.6,0-5,1-6.9,2.8
			c-1.9,1.8-3,4.3-3.1,7l-0.3,12.5c-0.1,2.7,0.9,5.2,2.8,7.1c1.8,1.9,4.3,3,7,3.1l4.7,0.1l-3.4,3.2c-4,3.8-4.2,10.1-0.4,14.1
			l8.6,9.1c2,2.1,4.6,3.1,7.2,3.1c2.5,0,5-0.9,6.9-2.8l3.4-3.2l-0.1,4.7c-0.1,2.6,1,5,2.6,6.8c0.1,0.1,0.4,0.2,0.4,0.2V222h-0.5
			H56.1c-2.8,0-5.1,3.1-5.1,5.8v8.8c0,7.4,6.1,13.4,13.5,13.4h187.6c7.4,0,13.9-6,13.9-13.4v-8.8C266,225.1,263.3,222,260.5,222z
			 M233,111v111H84v-48.9l8.1,0.2l1.2-0.1c0.1,0,0.1-0.2,0.1-0.2c0,0,0,0,0,0c-0.1,0-0.1,0.2-0.2,0.2l-1.2,0.1v36
			c0,2.8,2.2,4.7,5,4.7h122.6c2.8,0,5.4-1.9,5.4-4.7v-84.4c0-2.8-2.6-5.8-5.4-5.8h-77.3l0.1-5c0-1-0.1-2-0.4-3H233z M130.4,139.9
			l-3-3.1c0-0.1,0.1-0.2,0.1-0.2l4.3,0.1c0.1,0,0.2,0,0.2,0c2.6,0,5-1,6.9-2.8c1.2-1.1,2-2.7,2.6-4.2c0.1-0.2,0.1-0.7,0.1-0.7H215
			v75H102v-35c0-0.1,0.1-0.3,0.1-0.4c0.9-1.5,1.4-3.2,1.4-5l0.1-4.6c0,0,0,0,0.1,0l3.1,3.3c1.8,1.9,4.3,3,7,3.1c0.1,0,0.2,0,0.2,0
			c2.6,0,5-1,6.9-2.8l9.1-8.6c1.9-1.8,3-4.3,3.1-7C133.2,144.4,132.2,141.8,130.4,139.9z M139.9,107.5c1,1,1.7,2,2.1,3.7
			C141.6,109.8,140.9,108.6,139.9,107.5z M130.8,101h0.2l0.4-0.4l0,0.1c0.8-0.7,1.4-1.5,1.9-2.5l8.2-10.7c1.1-1.4,1.3-3.4,0.6-5
			c-2.4-5.5-1.7-11.8,1.9-16.5c2.4-3.1,5.7-5.2,9.5-6l-7.4,9.7c-0.8,1.1-1.2,2.4-1,3.7c0.2,1.3,0.9,2.5,1.9,3.3l11.6,8.8
			c2.2,1.7,5.3,1.3,7-0.9l7.4-9.7c0.2,3.8-0.9,7.7-3.3,10.8c-3,4-7.9,6.4-13.1,6.4c-0.8,0-1.6-0.1-2.4-0.2c-1.8-0.3-3.6,0.3-4.7,1.8
			l-5.8,7.5H131H130.8l-2.4,2.5c0,0,0-0.1,0-0.1L130.8,101z M69.6,145.7l-8.8,8.4l-8.6-9.1l8.8-8.4c-2.4-3.7-3.9-7.8-4.6-11.9
			l-12.1-0.3l0.3-12.5l12,0.3c0.9-4.2,2.6-8.2,5.1-11.9l-8.2-8.6l9.1-8.6l8.1,8.6c3.8-2.4,7.9-4.1,12.2-4.8l0.3-11.7l12.5,0.3
			l-0.3,11.6c4.3,0.9,8.4,2.7,12.1,5.3l8.4-8l8.6,9.1l-8.4,8c2.4,3.8,4,8,4.7,12.3l11.6,0.3l-0.3,12.5l-11.7-0.3
			c-1,4.2-2.8,8.3-5.4,11.9l8.1,8.6l-9.1,8.6l-8.2-8.6c-3.8,2.4-7.9,3.9-12.1,4.6l-0.3,12L81,163l0.3-12.1
			C77.2,150,73.2,148.3,69.6,145.7z M256,236.6c0,1.9-2,3.4-3.9,3.4H64.5c-1.9,0-3.5-1.5-3.5-3.4V232h17.5h159.6H256V236.6z"/>
		<path fill="#5980B7" d="M104.1,135.4c9.1-8.7,9.5-23,0.9-32c-4.4-4.6-10.3-7-16.3-7c-5.6,0-11.3,2.1-15.7,6.3
			c-9.1,8.7-9.5,23-0.9,32c4.4,4.6,10.3,7,16.3,7C94,141.7,99.7,139.6,104.1,135.4z M75.9,118.9c0.1-3.4,1.5-6.5,4-8.9
			c2.4-2.3,5.5-3.5,8.8-3.5c3.5,0,6.7,1.4,9,3.9c4.8,5,4.5,13-0.6,17.9c-2.4,2.3-5.5,3.5-8.8,3.5c-3.5,0-6.7-1.4-9-3.9
			C77,125.4,75.8,122.2,75.9,118.9z"/>
		<path fill="#5980B7" d="M160.8,162.2c-15.1,0-23.9,13.3-24.3,13.9c-1.5,2.3-0.9,5.4,1.4,6.9c2.3,1.5,5.4,0.9,6.9-1.4
			c0.1-0.1,6.3-9.4,16-9.4c9.5,0,15.3,9.1,15.4,9.2c0.9,1.5,2.6,2.4,4.3,2.4c0.9,0,1.8-0.2,2.6-0.7c2.4-1.4,3.1-4.5,1.7-6.9
			C184.4,175.6,176,162.2,160.8,162.2z"/>
		<path fill="#5980B7" d="M125.3,164.4c-1.7,2.2-1.2,5.3,1,7c2.2,1.7,5.3,1.2,7-1c0.1-0.1,10.6-13.9,27.6-13.9
			c16.8,0,26.7,13.6,26.8,13.8c1,1.4,2.5,2.1,4.1,2.1c1,0,2-0.3,2.9-0.9c2.3-1.6,2.8-4.7,1.2-7c-0.5-0.7-12.9-18-35-18
			C139,146.5,125.9,163.7,125.3,164.4z"/>
		<circle fill="#5980B7" cx="160.6" cy="188.4" r="6.7"/>
	</g>
</g>
</svg>
