<?xml version="1.0" encoding="utf-8"?>
<!-- Generator: Adobe Illustrator 18.1.1, SVG Export Plug-In . SVG Version: 6.00 Build 0)  -->
<svg version="1.1" id="Layer_1" xmlns="http://www.w3.org/2000/svg" xmlns:xlink="http://www.w3.org/1999/xlink" x="0px" y="0px"
	 viewBox="0 0 300 300" enable-background="new 0 0 300 300" xml:space="preserve">
<g>
	<g>
		<path fill="#CDCCCC" d="M229.3,123.3c-1.5,2.1-3.1,4.3-4.6,7c-2.1,3.9-2.9,7.5-3.2,10.8c2.1,0.3,4.1,1,6,1.9
			c0.6-3,1.6-6.2,3.5-9.5c1.8-3.1,3.6-5.6,5.3-7.7c3.5-4.7,5.9-7.8,5.5-14c-0.1-1.7-2.2-4.1-5.4-6.5
			C236.3,113.6,232.9,118.3,229.3,123.3z"/>
		<path fill="#FFFFFF" d="M222.8,118.7c3.4-4.8,5.7-8,5.5-14.2c-0.1-3.5-8.6-10.3-18.4-12.7c0.3,0.4,0.5,1,0.6,1.5
			c0.4,2.4-1.1,4.8-3.4,5.4c-2.3,0.6-4.6-0.8-5-3.2c-0.3-1.8,0.4-3.5,1.8-4.6c-0.2,0-0.5,0-0.7,0c-4.9,0-8.5,1.6-10.6,4.7
			c-3.1,4.6-2.9,6.4-2.7,9.2c0.3,3.1,0.7,7-2.5,13.6c-0.8,1.7-1.7,3.3-2.5,4.7c0.9-0.1,1.9-0.1,2.8-0.1c3,0,5.8,0.5,8.5,1.3
			c0.3-2.2,1.8-4.1,4-4.6c2.7-0.7,5.3,1,5.8,3.7c0.3,1.9-0.4,3.7-1.7,5c4.2,3,7.5,7.2,9.3,12c0.4-4,1.4-8.7,4.2-13.7
			C219.5,123.4,221.3,120.9,222.8,118.7z M198.4,111.2c-1.8,0.5-3.5-0.6-3.9-2.5c-0.3-1.8,0.8-3.7,2.6-4.2c1.8-0.5,3.5,0.6,3.9,2.5
			S200.2,110.7,198.4,111.2z M214.2,123c-1.5,0.4-2.9-0.5-3.2-2s0.7-3,2.2-3.4c1.5-0.4,2.9,0.5,3.2,2S215.7,122.7,214.2,123z
			 M213.3,107.2c-0.5-2.4,1.1-4.9,3.5-5.6c2.4-0.6,4.7,0.9,5.2,3.3c0.5,2.4-1.1,4.9-3.5,5.6C216.1,111.1,213.7,109.7,213.3,107.2z"
			/>
		<path fill="#FFFFFF" d="M187.8,130.9c-6.4,0-12.1,3-15.7,7.5c3.4,1.9,6.2,4.6,8.1,7.9c3-1.7,6.4-2.7,10.1-2.7
			c4.8,0,9.2,1.7,12.7,4.4c1.1-1.3,2.3-2.4,3.7-3.4C204.4,136.7,196.8,130.9,187.8,130.9z"/>
		<path fill="#FFFFFF" d="M172.2,156c0.5-2,1.1-2.7,1.9-3.7c-2.2-4.9-7.3-8-13.2-8c-7.1,0-13,4.7-14.1,11.7H172.2z"/>
		<path fill="#FFFFFF" d="M190.3,182.5c-9.8,0-18-6.5-19.5-15.5H146v14h17.8c2.2,0,4.1,1.3,4.4,3.5l2.9,17.4
			c0.2,0.4,0.3,1.1,0.4,1.5l4.2,25.7h38.9l5.2-30.3c-5.4-1.9-9.3-7.2-9.3-13.1c0-2.5,0.7-5,1.9-7c-2.5-0.8-4.8-1.8-6.8-3.4
			C202.1,179.5,196.5,182.5,190.3,182.5z"/>
		<path fill="#FFFFFF" d="M210.1,162.8c0,1.6-0.2,3.2-0.6,4.7c2.2,2.3,5.3,3.8,8.9,3.8c6.5,0,11.8-5,11.8-11.2
			c0-6.2-5.3-11.2-11.8-11.2c-4.4,0-8.2,2.3-10.2,5.6C209.4,157,210.1,159.8,210.1,162.8z"/>
		<path fill="#FFFFFF" d="M190.3,151.6c-6.5,0-11.8,5-11.8,11.2c0,6.2,5.3,11.2,11.8,11.2s11.8-5,11.8-11.2
			C202.1,156.6,196.8,151.6,190.3,151.6z"/>
		<path fill="#FFFFFF" d="M224.6,191.1c3.4,0,6.1-2.6,6.1-5.7c0-3.1-2.7-5.7-6.1-5.7s-6.1,2.6-6.1,5.7
			C218.5,188.5,221.3,191.1,224.6,191.1z"/>
		<path fill="#FFFFFF" d="M119,175h-15.3c-2.5,0-4.7-2.6-4.7-5V88.1c0-2.5-1.9-4.4-4.5-4.4S90,85.6,90,88.1V170c0,2.5-1.8,5-4.3,5
			H69l-4.5,26.2l9.8-19.7c0.8-1.5,2.3-2.5,4-2.5h34.5c1.4,0,2.6,1,3.5,2h2.7V175z"/>
		<path fill="#FFFFFF" d="M81.1,188l-19.2,39h29.5l3.9-23.8c0.1-0.4,0.2-0.8,0.4-1.2l2.3-14H81.1z"/>
		<path fill="#FFFFFF" d="M141.7,190c-2.5,0-4.7-2.6-4.7-5v-81.2c0-2.5-1.9-4.4-4.5-4.4s-4.5,1.9-4.5,4.4V185c0,2.5-1.8,5-4.3,5
			h-16.7l-1.6,10h56.3l-1.6-10H141.7z"/>
		<path fill="#CDCCCC" d="M143,225c-0.2-2.5,1.7-4.8,4.1-5c2.5-0.2,4.6,1.9,4.8,4.4l1.4,18.7H169l-5.7-34h-59.7l-5.7,34h14.9
			l0.7-12.7c0.1-2.5,2.3-4.5,4.7-4.4c2.5,0.1,4.4,2.5,4.2,5l-0.7,12.1h22.6L143,225z"/>
		<path fill="#FFFFFF" d="M139.3,79.7c0-11.6,13.6-13.1,13.6-13.1s-13.6-0.2-13.6-13.1c0,12.1-13.6,13.1-13.6,13.1
			S139.3,68.1,139.3,79.7z"/>
		<path fill="#FFFFFF" d="M165.4,99.1c0-7,8.2-7.9,8.2-7.9s-8.2-0.1-8.2-7.9c0,7.3-8.2,7.9-8.2,7.9S165.4,92.2,165.4,99.1z"/>
		<path fill="#FFFFFF" d="M174.7,66.6c0-5.1,6-5.7,6-5.7s-6-0.1-6-5.7c0,5.3-6,5.7-6,5.7S174.7,61.5,174.7,66.6z"/>
		<g>
			<path fill="#5A81B8" d="M214.2,123c1.5-0.4,2.5-1.9,2.2-3.4s-1.7-2.4-3.2-2c-1.5,0.4-2.5,1.9-2.2,3.4S212.7,123.4,214.2,123z"/>
			<path fill="#5A81B8" d="M197.1,104.6c-1.8,0.5-3,2.3-2.6,4.2c0.3,1.8,2.1,2.9,3.9,2.5c1.8-0.5,3-2.3,2.6-4.2
				S198.9,104.1,197.1,104.6z"/>
			<path fill="#5A81B8" d="M218.5,110.5c2.4-0.6,4-3.1,3.5-5.6c-0.5-2.4-2.8-3.9-5.2-3.3c-2.4,0.6-4,3.1-3.5,5.6
				C213.7,109.7,216.1,111.1,218.5,110.5z"/>
			<path fill="#5A81B8" d="M125,72.5c0.8,0.1,8.3,1.2,8.3,7.1c0,3.3,2.7,6,6,6s6-2.7,6-6c0-5.9,7.5-7,8.3-7.1
				c3.1-0.3,5.5-3.1,5.3-6.2c-0.1-3.1-2.7-5.6-5.9-5.7c-0.1,0-2.5-0.1-4.6-1.2c-2.3-1.2-3.2-2.9-3.2-5.9c0-3.3-2.7-6-6-6s-6,2.7-6,6
				c0,2.7-1.1,4.5-3.6,5.8c-2.2,1.1-4.5,1.4-4.5,1.4c-3.1,0.2-5.5,2.8-5.6,5.9S121.9,72.2,125,72.5z M139.3,53.5
				c0,12.8,13.6,13.1,13.6,13.1s-13.6,1.5-13.6,13.1c0-11.5-13.6-13.1-13.6-13.1S139.3,65.6,139.3,53.5z"/>
			<path fill="#5A81B8" d="M156.8,85.3c-3.1,0.2-5.6,2.8-5.6,5.9c0,3.1,2.3,5.7,5.4,6c0.4,0.1,1.3,0.3,2.1,0.7
				c0.8,0.5,0.8,0.7,0.8,1.2c0,3.3,2.7,6,6,6s6-2.7,6-6c0-0.4,0-0.7,0.8-1.2c0.8-0.5,1.7-0.7,2.1-0.7c3.2-0.3,5.6-2.7,5.5-5.9
				c-0.2-3.2-2.8-5.3-6-5.3c0,0,0,0-0.1,0c-0.3,0-1.1-0.5-1.8-0.9c-0.3-0.2-0.6-0.5-0.6-1.6c0-3.3-2.7-6.1-6-6.1s-6,2.6-6,6
				c0,0.7-0.1,0.9-0.9,1.3C157.8,85.2,156.8,85.3,156.8,85.3z M165.4,83.4c0,7.7,8.2,7.9,8.2,7.9s-8.2,0.9-8.2,7.9
				c0-6.9-8.2-7.9-8.2-7.9S165.4,90.7,165.4,83.4z"/>
			<path fill="#5A81B8" d="M168,66.8c0.2,0,0.5,0.1,0.7,0.2c0.2,3.1,2.8,5.5,6,5.5c3.2,0,5.8-2.4,6-5.6c0.3-0.1,0.6-0.2,0.6-0.2
				c3.2-0.4,5.7-3.2,5.5-6.4c-0.2-3.1-2.7-5.6-5.8-5.6c0,0-0.1,0-0.1,0c0,0-0.1,0-0.2,0c-0.2-3.2-2.8-5.7-6-5.7
				c-3.2,0-5.8,2.5-6,5.6c-0.2,0.1-0.3,0.1-0.5,0.1c-3.2,0.1-5.7,2.7-5.8,5.8C162.4,63.9,164.9,66.5,168,66.8z M174.7,55.1
				c0,5.6,6,5.7,6,5.7s-6,0.7-6,5.7c0-5-6-5.7-6-5.7S174.7,60.4,174.7,55.1z"/>
		</g>
	</g>
	<path fill="#5A81B8" d="M242.7,130.6c3.9-5.2,7.6-10.2,7.1-19.4c-0.5-7.4-10.1-14.8-20.9-19c-6.9-5.5-17.2-9.4-25.7-9.4
		c-7.6,0-13.6,2.8-17.2,8.2c-4.4,6.4-4.4,10.2-4,14.5c0.2,2.6,0.5,4.8-1.8,9.4c-2.8,5.7-5.5,9.5-7.7,12.5c-3.4,2.2-6.2,5-8.3,8.4
		c0.5,0.1,0.9,0.2,1.4,0.3c-0.5-0.1-0.9-0.2-1.4-0.3c-1.1-0.2-2.2-0.2-3.4-0.2c-5.6,0-10.8,2-14.8,5.4v-37.2
		c0-7.5-5.9-13.4-13.5-13.4S119,96.2,119,103.7V166h-11V88.1c0-7.5-5.9-13.4-13.5-13.4S81,80.6,81,88.1V166H65.2
		c-2.2,0-4.1,1.3-4.4,3.5l-10.1,59.6c0,0,0-0.1,0,0c-0.4,0.8-0.5,1.6-0.4,2.5c0.1,0.6,0.3,1.2,0.6,1.8c0.8,1.3,2.3,2.1,3.8,2.1
		c-1.6,0-3-0.8-3.8-2.1c-0.3-0.6-0.5-1.2-0.6-1.8c-0.1,1.2,0.2,2.7,1,3.6c0.9,1,2.1,1.9,3.4,1.9h35.1l0.1-0.8l-0.1,0.4l-1.6,9.7
		c-0.1,0.4-0.1,0.8,0,1.2c0.1,0.6,0.3,1.2,0.6,1.8c-0.3-0.6-0.5-1.2-0.6-1.8c-0.1,1.2,0.2,2.7,1,3.7c0.9,1,2.1,1.9,3.4,1.9h81.7
		c1.3,0,2.6-0.9,3.4-1.9c0.8-0.9,1.1-2.2,1-3.4c0-0.2,0.1-0.5,0.1-0.7c0-0.4-0.1-0.6-0.2-0.9l-1.1-6.1h41.6c2.7,0,5-2.3,5.4-5
		l6.4-37.3c-2,1-4.2,1.4-6.5,1.4c-1.7,0-3.3,0.1-4.8-0.4l-5.2,30.3h-38.9l0-0.5l-4.2-25.5c-0.1-0.4-0.2-0.7-0.4-1l-2.9-17.4
		c-0.4-2.2-2.2-3.6-4.4-3.6H146v-14h24.7c-0.2-2-0.3-2.3-0.3-3.4c0-0.1,0-0.4,0-0.5c0,1,0.1,1.9,0.3,2.9c1.6,9.1,9.7,16,19.5,16
		c6.2,0,11.8-2.8,15.4-7.2c2,1.6,4.3,2.8,6.8,3.6c-1.2,2-1.9,4.4-1.9,6.9c0,5.9,3.9,11,9.3,12.9c1.5,0.5,3.1,0.8,4.8,0.8
		c2.4,0,4.6-0.6,6.5-1.6c4.5-2.3,7.6-6.9,7.6-12.1c0-3.6-1.5-6.9-3.8-9.4l1.3-7.5c1.3-2.5,2-5.4,2-8.4c0-4-1.3-7.7-3.4-10.7
		c0.2-3.7,0.8-7.6,3.2-11.9C239.5,134.9,241.1,132.7,242.7,130.6z M69,175h16.7c2.5,0,4.3-2.6,4.3-5V88.1c0-2.5,1.9-4.4,4.5-4.4
		s4.5,1.9,4.5,4.4V170c0,2.5,2.2,5,4.7,5H119v6h-2.7c-0.8-1-2.1-2-3.5-2H78.3c-1.7,0-3.3,0.9-4,2.4l-9.7,19.9L69,175z M101.8,180.7
		L101.8,180.7c0.4-0.1,0.8-0.2,1.3-0.2C102.7,180.5,102.3,180.5,101.8,180.7z M95.4,202.9l-3.9,23.5l-0.8,5.3l0.8-4.8H61.9l19.2-39
		h17h0.1l-0.1,0.1l-2.3,14C95.6,202.4,95.5,202.5,95.4,202.9z M154,245.9c0,2.5-1.7,4.6-4.1,4.8C152.3,250.5,154,248.3,154,245.9
		L154,245.9z M169,243h-15.6l0-0.3l-1.4-18.6c-0.2-2.5-2.4-4.4-4.8-4.2c-2.5,0.2-4.3,2.3-4.1,4.8l1.4,17.7l0.3,4.1
		c0.2,2.4,2.2,4.1,4.5,4.1c-2.3,0-4.3-1.5-4.5-3.9l-0.3-3.8h-22.6l-0.3,4.4c-0.1,2.4-2.1,4.1-4.5,4.1c-0.1,0-0.4-0.1-0.5-0.1
		c-2.5-0.1-4.5-2.3-4.5-4.8v0c0,2.5,2,4.6,4.5,4.7c0.1,0,0.3,0,0.4,0c2.4,0,4.4-1.9,4.6-4.3l0.3-4.7l0.7-11.9
		c0.1-2.5-1.8-4.6-4.2-4.7c-2.5-0.1-4.5,1.8-4.6,4.2l-0.6,12.4v0.6H97.9l5.7-34h59.7L169,243z M160,190l1.6,10h-56.3l1.6-10h16.7
		c2.5,0,4.3-2.6,4.3-5v-81.2c0-2.5,1.9-4.4,4.5-4.4s4.5,1.9,4.5,4.4V185c0,2.5,2.2,5,4.7,5H160z M172.2,155.2
		c-0.1,0.2-0.1,0.8-0.2,0.8h-25.2c1.1-7,7-12,14.1-12c5.9,0,10.9,3.3,13.1,8.1C173.3,153.1,172.7,154.1,172.2,155.2z M190.3,174
		c-6.5,0-11.8-5-11.8-11.2c0-6.2,5.3-11.2,11.8-11.2s11.8,5,11.8,11.2C202.1,169,196.8,174,190.3,174z M203,148
		c-3.4-2.8-7.9-4.4-12.7-4.4c-3.7,0-7.1,1-10.1,2.7c0,0,0,0,0,0c-1.9-3.2-4.7-6-8.1-7.9c0,0-0.1,0-0.1,0c3.6-4.4,9.5-7.5,15.8-7.5
		c9,0,16.6,5.8,18.9,13.7C205.3,145.6,204,146.8,203,148z M204.3,128.2c1.3-1.2,2.1-3.1,1.7-5c-0.5-2.7-3.1-4.4-5.8-3.7
		c-2.2,0.6-3.7,2.5-4,4.6c-2.7-0.8-5.5-1.3-8.5-1.3c-1,0-1.9,0-2.8,0.1c0.8-1.4,1.6-3,2.5-4.7c3.2-6.6,2.8-10.5,2.5-13.6
		c-0.3-2.8-0.4-4.6,2.7-9.2c2.1-3.1,5.7-4.7,10.6-4.7c0.2,0,0.5,0,0.7,0c-1.3,1.1-2.1,2.8-1.8,4.6c0.4,2.4,2.7,3.8,5,3.2
		c2.3-0.6,3.9-3,3.4-5.4c-0.1-0.6-0.3-1.1-0.6-1.5c9.8,2.4,18.3,9.3,18.4,12.7c0.2,6.3-2.1,9.4-5.5,14.2c-1.6,2.2-3.4,4.7-5.1,7.8
		c-2.8,5-3.8,9.7-4.2,13.7C211.7,135.4,208.4,131.2,204.3,128.2z M209.5,167.5c0.4-1.5,0.6-3.1,0.6-4.7c0-3-0.7-5.8-2-8.3
		c2.1-3.3,5.9-5.6,10.2-5.6c6.5,0,11.8,5,11.8,11.2c0,6.2-5.3,11.2-11.8,11.2C214.8,171.3,211.7,169.8,209.5,167.5z M224.6,191.1
		c-3.4,0-6.1-2.6-6.1-5.7c0-3.1,2.7-5.7,6.1-5.7s6.1,2.6,6.1,5.7C230.7,188.5,228,191.1,224.6,191.1z M231,133.5
		c-1.9,3.3-3,6.6-3.5,9.5c-1.8-0.9-3.8-1.6-6-1.9c0.3-3.3,1.1-7,3.2-10.8c1.5-2.7,3.1-4.9,4.6-7c3.6-5,7-9.8,7-18.1
		c3.2,2.4,5.3,4.8,5.4,6.5c0.4,6.2-1.9,9.3-5.5,14C234.7,128,232.8,130.4,231,133.5z"/>
</g>
</svg>
