<?xml version="1.0" encoding="utf-8"?>
<!-- Generator: Adobe Illustrator 18.1.1, SVG Export Plug-In . SVG Version: 6.00 Build 0)  -->
<svg version="1.1" id="Layer_1" xmlns="http://www.w3.org/2000/svg" xmlns:xlink="http://www.w3.org/1999/xlink" x="0px" y="0px"
	 viewBox="0 0 300 300" enable-background="new 0 0 300 300" xml:space="preserve">
<g>
	<path fill="none" d="M181.9,114.6c0.1-4.4-1.5-8.5-4.5-11.7c-3.1-3.3-7.5-5.1-12-5.1c-0.4,0-0.4,0-1.4,0.1v30.4
		c2,0.5,3.8,1,5.6,1.7c2.6-0.7,5.1-2,7.2-3.9C179.9,123.1,181.7,119,181.9,114.6z"/>
	<path fill="#CCCCCC" d="M198.1,137.8c3.2-4.5,5.5-9.5,6.6-14.6l14.4,0.4l0.4-15.4l-14.3-0.4c-0.9-5.3-2.8-10.5-5.8-15.2l10.3-9.8
		l-10.6-11.1l-10.3,9.8c-4.5-3.2-9.6-5.4-14.8-6.5l0.4-14.3l-15.4-0.4l-0.4,14.4c-5.2,0.9-10.3,2.9-15,5.9l-10-10.5l-11.1,10.6
		l3.5,3.6l33.9,3.7c0.4,0,0.8,0.2,1.2,0.3c1.5-0.2,3-0.4,4.4-0.4c7,0,13.9,2.7,19.1,8.2c10,10.5,9.6,27.2-0.9,37.2
		c-0.8,0.8-1.7,1.5-2.6,2.2c7.9,4.9,14.8,11.5,19.9,19.6l7.2-6.8L198.1,137.8z"/>
	<polygon fill="#CCCCCC" points="48,219.7 67,228.2 67,91.1 48,99.6 	"/>
	<path fill="#FFFFFF" d="M154,97.4L77,89v141.2l24-2.8c-2.7-3.2-4.9-6.7-6.9-10.5c-15.9-30.1-4.3-67.5,25.7-83.4
		c8.9-4.7,18.7-7.2,28.7-7.2c1.9,0,3.4,0.1,5.4,0.3V97.4z M134.9,121.8c-0.1,0-0.2,0-0.4,0l-33.2-2.3c-2.8-0.2-4.8-2.6-4.6-5.3
		c0.2-2.8,2.6-4.8,5.3-4.6l33.2,2.3c2.8,0.2,4.8,2.6,4.6,5.3C139.7,119.8,137.5,121.8,134.9,121.8z"/>
	<path fill="#FFFFFF" d="M231.6,199.3c0,1.8,1.5,3.3,3.3,3.3c1.8,0,3.3-1.5,3.3-3.3c0-1.8-1.5-3.3-3.3-3.3
		C233,196,231.6,197.5,231.6,199.3z"/>
	<path fill="#FFFFFF" d="M220.5,225.9c0,1.8,1.5,3.3,3.3,3.3c1.8,0,3.3-1.5,3.3-3.3c0-1.8-1.5-3.3-3.3-3.3
		C221.9,222.7,220.5,224.1,220.5,225.9z"/>
	<path fill="#FFFFFF" d="M248.6,167.7c-1.8,0-3.3,1.5-3.3,3.3c0,1.8,1.5,3.3,3.3,3.3c1.8,0,3.3-1.5,3.3-3.3
		C251.9,169.1,250.4,167.7,248.6,167.7z"/>
	<path fill="#FFFFFF" d="M194.5,163.9c-9-17-26.5-27.5-45.7-27.5c-8.4,0-16.7,2.1-24.1,6c-25.2,13.3-34.8,44.7-21.5,69.9
		c9,17,26.5,27.5,45.7,27.5c8.4,0,16.7-2.1,24.1-6c12.2-6.5,21.2-17.3,25.2-30.5S200.9,176.1,194.5,163.9z M195.1,175.1l-17.2,4.4
		c-1.4-7.4-5-11.2-5-11.2l13-11.3C193.1,163.5,195.1,175.1,195.1,175.1z M171.7,144.4c2.4,1.3,3.3,4.3,2,6.8l-4.7,8.8
		c-0.9,1.7-2.6,2.6-4.4,2.6c-0.8,0-1.6-0.2-2.4-0.6c-2.4-1.3-3.3-4.3-2-6.8l4.7-8.8C166.2,143.9,169.2,143,171.7,144.4z
		 M112.6,218.8c-7.3-6.6-9.3-18.1-9.3-18.1l17.2-4.4c1.4,7.4,5,11.2,5,11.2L112.6,218.8z M124,224.9l4.7-8.8c1.3-2.4,4.3-3.3,6.8-2
		c2.4,1.3,3.3,4.3,2,6.8l-4.7,8.8c-0.9,1.7-2.6,2.6-4.4,2.6c-0.8,0-1.6-0.2-2.4-0.6C123.6,230.4,122.7,227.3,124,224.9z
		 M161.2,211.5c-3.8,2-8.1,3.1-12.4,3.1c-9.9,0-18.9-5.4-23.5-14.1c-3.3-6.3-4-13.4-1.9-20.2c2.1-6.8,6.7-12.3,12.9-15.7
		c3.8-2,8.1-3.1,12.4-3.1c9.9,0,18.9,5.4,23.5,14.1C179.1,188.6,174.2,204.7,161.2,211.5z"/>
	<path fill="#FFFFFF" d="M163.4,180.3c-2.9-5.4-8.5-8.8-14.6-8.8c-2.7,0-5.3,0.6-7.7,1.9c-3.9,2.1-6.8,5.5-8.1,9.8
		c-1.3,4.2-0.9,8.7,1.2,12.6c2.9,5.4,8.5,8.8,14.6,8.8c2.7,0,5.3-0.6,7.7-1.9C164.6,198.4,167.7,188.4,163.4,180.3z M151.8,193.6
		c-3.1,1.6-6.9,0.5-8.5-2.6c-1.6-3.1-0.5-6.9,2.6-8.5s6.9-0.5,8.5,2.6C156,188.2,154.8,192,151.8,193.6z"/>
	<g>
		<path fill="#5980B7" d="M134.5,121.8c0.1,0,0.2,0,0.4,0c2.6,0,4.8-2,5-4.6c0.2-2.8-1.9-5.1-4.6-5.3l-33.2-2.3
			c-2.8-0.2-5.1,1.9-5.3,4.6c-0.2,2.8,1.9,5.1,4.6,5.3L134.5,121.8z"/>
		<path fill="#5980B7" d="M248.6,157.8c-5.5,0-10.2,3.2-12.2,8.2h-30.1c-0.2-1-0.4-1.1-0.6-1.5l9.2-8.9c4-3.8,4.2-10.2,0.4-14.2
			l-4.8-5c0.5-1,1-2,1.4-3.1l6.9,0.2c0.1,0,0.2,0,0.3,0c5.4,0,9.9-4.3,10-9.8l0.4-15.4c0.1-2.7-0.9-5.2-2.8-7.1s-4.3-3-7-3.1
			l-6.7-0.2c-0.4-1.1-0.8-2.2-1.3-3.3l4.9-4.6c4-3.8,4.2-10.1,0.4-14.1l-10.6-11.1c-1.8-1.9-4.3-3-7-3.1c-0.1,0-0.2,0-0.2,0
			c-2.6,0-5,1-6.9,2.8l-4.9,4.6c-1.1-0.5-2.1-1-3.2-1.4l0.2-6.7c0.1-2.7-0.9-5.2-2.8-7.1s-4.3-3-7-3.1l-15.4-0.4c-0.1,0-0.2,0-0.3,0
			c-5.4,0-9.9,4.3-10,9.8l-0.2,6.9c-1.1,0.4-2.1,0.8-3.1,1.2l-4.8-5c-2-2.1-4.6-3.1-7.2-3.1c-2.5,0-5,0.9-6.9,2.8l-11.1,10.6
			c-1.9,1.8-3,4.3-3.1,7c0,0.8,0.1,1.6,0.3,2.4l13.2,1.4l-3.5-3.6L133.6,70l10,10.5c4.6-3,9.7-5,15-5.9l0.4-14.4l15.4,0.4L174,74.9
			c5.3,1.1,10.3,3.3,14.8,6.5l10.3-9.8l10.6,11.1l-10.3,9.8c3,4.7,4.9,9.9,5.8,15.2l14.3,0.4l-0.4,15.4l-14.4-0.4
			c-1.2,5.2-3.4,10.2-6.6,14.6l10,10.5l-7.2,7.1c-5.1-8.1-11.9-14.4-19.9-19.4c0,0,0,0,0,0c0.9-1,1.8-1.6,2.6-2.4
			c10.5-10,11-26.8,0.9-37.4c-5.2-5.4-12.1-8.3-19.1-8.2c-1.5,0-3.1,0.1-4.5,0.3c-0.4-0.1-0.8-0.3-1.2-0.3l-33.9-3.7l-13.2-1.4
			l-39.6-4.3c0,0,0,0-0.1,0c-0.1,0-0.1,0-0.2,0c-0.1,0-0.3,0-0.4,0c-0.1,0-0.1,0-0.2,0c-0.1,0-0.3,0-0.4,0c-0.1,0-0.1,0-0.2,0
			c-0.1,0-0.3,0.1-0.4,0.1c0,0-0.1,0-0.1,0c-0.2,0.1-0.4,0.1-0.6,0.2c-0.5,0.2-1.1,0.5-1.5,0.8c0.4-0.4,1-0.6,1.4-0.8L41,91.8
			c-1.8,0.8-3,2.6-3,4.6V223c0,2,1.2,3.8,3.1,4.6l28.6,12.5c0.3,0.2,0.6,0.3,0.9,0.4c0.2,0.1,0.5,0.1,0.7,0.2c0.1,0,0.2,0.1,0.3,0.1
			c0.3,0.1,0.7,0.1,1,0.1c0.2,0,0.4,0,0.6,0l37.2-4.4c-3.3-2.6-6.6-5.7-9.4-9l-24,2.8V89l77,8.4v29.2c-2-0.2-3.5-0.2-5.3-0.2
			c-10,0-19.9,2.5-28.8,7.2c-30.1,15.9-41.5,53.3-25.6,83.4c2,3.8,4.4,7.3,7,10.5c2.8,3.3,5.8,6.3,9.2,9
			c10.7,8.5,24.1,13.3,38.4,13.3c10,0,19.9-2.5,28.8-7.2c6.3-3.3,11.9-7.5,16.6-12.7c0.9,1.2,2.4,2.1,4,2.1h13.6
			c2.2,4,6.7,7.3,11.9,7.3c7.3,0,13.3-6,13.3-13.3s-6-13.2-13.3-13.2c-5.9,0-10.8,4.2-12.6,9.2h-10.3l-0.2-0.4
			c3-4.7,5.4-9.9,7.1-15.3c0.5-1.6,0.9-3.3,1.3-4.9l0.7,1.2c0.9,1.4,2.5,2.4,4.2,2.4h8.8c2.1,5,6.7,7.7,12.1,7.7
			c7.3,0,13.3-6,13.3-13.3s-6-13.2-13.3-13.2c-5.7,0-10.6,3.8-12.5,8.8h-5.7l-6.3-9.8c-0.2-3.1-0.5-6.2-1.2-9.2h27
			c1.9,5,6.7,8.4,12.4,8.4c7.3,0,13.3-6,13.3-13.3S255.9,157.8,248.6,157.8z M48,99.6l19-8.5v137.1l-19-8.5V99.6z M223.7,222.7
			c1.8,0,3.3,1.5,3.3,3.3c0,1.8-1.5,3.3-3.3,3.3c-1.8,0-3.3-1.5-3.3-3.3C220.5,224.1,221.9,222.7,223.7,222.7z M177.3,103
			c3,3.2,4.6,7.3,4.5,11.7c-0.1,4.4-1.9,8.4-5.1,11.4c-2,1.9-4.4,3.2-7.1,3.9c-1.8-0.6-3.6-1.2-5.5-1.7c-0.1,0-0.2,0-0.2,0V97.9
			c1,0,1-0.1,1.4-0.1C169.9,97.9,174.2,99.7,177.3,103z M162.1,127.8c-2.3-0.5-4.7-0.9-7.1-1.1C157.7,126.9,160,127.3,162.1,127.8z
			 M173,233.7c-7.4,3.9-15.8,6-24.1,6c-19.2,0-36.7-10.5-45.7-27.5c-13.3-25.2-3.7-56.5,21.5-69.9c7.4-3.9,15.8-6,24.1-6
			c19.2,0,36.7,10.5,45.7,27.5c6.5,12.2,7.8,26.2,3.7,39.4S185.2,227.3,173,233.7z M234.8,196c1.8,0,3.3,1.5,3.3,3.3
			c0,1.8-1.5,3.3-3.3,3.3c-1.8,0-3.3-1.5-3.3-3.3C231.6,197.5,233,196,234.8,196z M248.6,174.2c-1.8,0-3.3-1.5-3.3-3.3
			c0-1.8,1.5-3.3,3.3-3.3c1.8,0,3.3,1.5,3.3,3.3C251.9,172.8,250.4,174.2,248.6,174.2z"/>
		<path fill="#5980B7" d="M148.8,161.5c-4.3,0-8.6,1.1-12.4,3.1c-6.3,3.3-10.9,8.9-12.9,15.7c-2.1,6.8-1.4,14,1.9,20.2
			c4.6,8.7,13.6,14.1,23.5,14.1c4.3,0,8.6-1.1,12.4-3.1c12.9-6.8,17.9-22.9,11-35.9C167.6,166.9,158.6,161.5,148.8,161.5z
			 M156.5,202.7c-2.4,1.3-5,1.9-7.7,1.9c-6.2,0-11.8-3.4-14.6-8.8c-2.1-3.9-2.5-8.4-1.2-12.6c1.3-4.2,4.2-7.7,8.1-9.8
			c2.4-1.3,5-1.9,7.7-1.9c6.2,0,11.8,3.4,14.6,8.8C167.7,188.4,164.6,198.4,156.5,202.7z"/>
		<circle fill="#5980B7" cx="148.8" cy="188.1" r="6.3"/>
		<path fill="#5980B7" d="M185.8,156.9l-13,11.3c0,0,3.6,3.8,5,11.2l17.2-4.4C195.1,175.1,193.1,163.5,185.8,156.9z"/>
		<path fill="#5980B7" d="M120.5,196.2l-17.2,4.4c0,0,2,11.6,9.3,18.1l13-11.3C125.6,207.4,121.9,203.7,120.5,196.2z"/>
		<path fill="#5980B7" d="M162.2,161.9c0.8,0.4,1.6,0.6,2.4,0.6c1.8,0,3.5-1,4.4-2.6l4.7-8.8c1.3-2.4,0.4-5.5-2-6.8
			c-2.4-1.3-5.5-0.4-6.8,2l-4.7,8.8C158.8,157.6,159.7,160.6,162.2,161.9z"/>
		<path fill="#5980B7" d="M135.5,214.1c-2.4-1.3-5.5-0.4-6.8,2l-4.7,8.8c-1.3,2.4-0.4,5.5,2,6.8c0.8,0.4,1.6,0.6,2.4,0.6
			c1.8,0,3.5-1,4.4-2.6l4.7-8.8C138.8,218.5,137.9,215.4,135.5,214.1z"/>
	</g>
</g>
</svg>
