<?xml version="1.0" encoding="utf-8"?>
<!-- Generator: Adobe Illustrator 18.1.1, SVG Export Plug-In . SVG Version: 6.00 Build 0)  -->
<svg version="1.1" id="Layer_1" xmlns="http://www.w3.org/2000/svg" xmlns:xlink="http://www.w3.org/1999/xlink" x="0px" y="0px"
	 viewBox="0 0 300 300" enable-background="new 0 0 300 300" xml:space="preserve">
<g>
	<rect x="115" y="33" fill="#FFFFFF" width="26" height="51"/>
	<path fill="#FFFFFF" d="M117.5,95c-0.2,2-0.8,2.4-1.8,3.2c-0.2,0.2-0.7,0.3-0.7,0.5v54c4-0.6,8.2-0.9,12.6-0.9
		c4.7,0,9.4,0.4,13.4,1V95H117.5z"/>
	<path fill="#CCCCCC" d="M67.5,46.9c2.5,9.6,10.3,25.9,34.9,37.5C98.5,73.5,89.2,56.2,67.5,46.9z"/>
	<path fill="#CCCCCC" d="M73.6,104.3c1,0.1,2.1,0.2,3.2,0.2c7.2,0,14.7-2.4,22.1-7.1c-0.6,0-1.3,0-2,0
		C88.3,97.3,80.5,99.7,73.6,104.3z"/>
	<rect x="175" y="80" fill="#FFFFFF" width="26" height="41"/>
	<rect x="175" y="132" fill="#FFFFFF" width="26" height="53"/>
	<path fill="#CCCCCC" d="M250.1,79.4c-21.6,9.3-31,26.5-34.8,37.4C239.7,105.3,247.6,89.1,250.1,79.4z"/>
	<path fill="#CCCCCC" d="M67,224.2c-16.5,4.8-26.8,12.1-26.8,18.9c0,11.5,29.2,24.3,68.4,24.3c13.8,0,26.4-1.6,36.9-4.2
		c-7.3-8.2-12.3-17.9-14.9-28.9c-4.6,0.4-9.2,0.7-13.9,0.7C97.6,234.9,78.5,231.3,67,224.2z"/>
	<path fill="#CCCCCC" d="M105.2,193c-23.3,2-38.2,9.8-38.2,15.2c0,2.3,3.2,6.3,12.3,9.9c9.6,3.8,22.9,5.8,37.3,5.8
		c4.2,0,8.2-0.2,12.1-0.5c0-0.2,0-0.3,0-0.5c-10.1-0.4-18.2-8.7-18.2-18.8c0-3.3,0.9-6.5,2.4-9.2C110.2,194.4,107.6,193.8,105.2,193
		z"/>
	<path fill="#CCCCCC" d="M159,174c0-4.5-12.5-11.2-31.3-11.2s-31.3,6.7-31.3,11.2s12.5,11.2,31.3,11.2S159,178.5,159,174z"/>
	<path fill="#FFFFFF" d="M165.4,266h48.5c5.1-4,22.9-21,27.5-43H218c-1.2,0-2.5,0.2-3.8,0.2c-1.4,0-2.9-0.2-4.3-0.2h-70.2
		C140.9,236,146.4,254,165.4,266z"/>
	<path fill="#FFFFFF" d="M255.7,165c2.9-2.5,4.4-5.6,4.1-8.6c-0.4-3.6-3.2-7-8-9.7c-1.5-0.8-2.8-1.2-3.9-1.2
		c-2.3,0-5.8,2.4-9.1,14.2c-1.2,4.2-8,14.3-15.9,25.3h15.6C244.5,177,250.9,169,255.7,165z"/>
	<path fill="#FFFFFF" d="M247.4,196h-118c-4.3,0-7.9,3.7-7.9,8c0,4.3,3.5,8,7.9,8h118c4.3,0,7.9-3.7,7.9-8
		C255.2,199.7,251.7,196,247.4,196z"/>
	<path fill="#5980B7" d="M251.7,185.6c4-5.2,8-9.6,11-12.2c5.7-4.8,8.6-11.4,8-18.1c-0.7-7.3-5.6-13.8-13.7-18.2
		c-3.1-1.7-6.2-2.6-9.2-2.6c-13.5,0-18.1,16.8-19.7,22.4c-0.8,2.7-7.3,12.3-16.1,24.3c0,0,0,0,0,0.1v-51c0,0,0,0,0,0
		c51.1-19.6,50.3-57.6,50.3-59.2c-0.1-1.7-0.9-3.3-2.3-4.3c-1.4-1-3.1-1.3-4.8-0.8c-22.5,6.6-35.6,20-43.2,32.4l0-24.1
		c0-3-2.4-5.2-5.5-5.2h-36.9c-3,0-5.6,2.1-5.6,5.2v88c-3-2.7-7.1-4.9-12-6.6c0,0,0,0,0,0V27.5c0-3-2.4-5.5-5.5-5.5h-36.9
		c-3,0-5.6,2.4-5.6,5.5v35.9c-8-11.7-20.7-23.7-41.6-29.9c-1.6-0.5-3.4-0.2-4.8,0.8c-1.4,1-2.2,2.6-2.3,4.3
		c-0.1,1.4-0.6,28.7,30.1,49c-8.5,1.8-18.3,6.2-27.2,15.4c-1.2,1.2-1.7,2.9-1.5,4.6c0.2,1.7,1.2,3.2,2.7,4c0.7,0.4,7.2,4,17.4,4
		c6.8,0,16.2-1.7,27.2-8.3v48.3c-11,3.9-18.5,10.6-18.5,18.6c0,3.7,1.5,7.1,4.3,10.1c0,0,0.1,0.1,0.1,0.1c0,0-0.1-0.1-0.1-0.1
		c-19,3.8-33.7,12-33.7,24.1c0,2.6,0.7,5,1.9,7.2c-17.8,6.4-28.8,16.2-28.8,27.6c0,20.1,34.1,35.3,79.4,35.3
		c17.6,0,33.5-2.3,46.4-6.3c1.8,1.4,3.8,2.8,5.9,4c0.9,0.5,1.9,0.9,3,0.9h52.1c1.2,0,2.4-0.5,3.3-1.2c1.4-1.1,28.7-22.4,33.6-53.6
		c7.8-2.3,13.4-9.6,13.4-18.1C266.2,195.1,260,187.6,251.7,185.6z M250.1,79.4c-2.5,9.6-10.4,25.9-34.8,37.4
		C219.2,105.9,228.5,88.7,250.1,79.4z M76.8,104.5c-1.2,0-2.2-0.1-3.2-0.2c6.9-4.6,14.7-7,23.3-7c0.7,0,1.3,0,2,0
		C91.6,102,84.1,104.5,76.8,104.5z M67.5,46.9c21.7,9.3,31,26.5,34.9,37.5C77.8,72.8,69.9,56.6,67.5,46.9z M238.8,159.7
		c3.3-11.8,6.8-14.3,9.1-14.3c1.1,0,2.4,0.4,3.9,1.3c4.8,2.7,7.7,6.1,8,9.7c0.3,3-1.2,6.1-4.1,8.6c-4.7,4-11.2,12-17.2,20h-15.6
		C230.7,174,237.6,163.9,238.8,159.7z M175,80h26v41h-25.9H175V80z M175,132h0.1H201v53h-25.9H175V132z M115,33h26v51h-25.9H115V33z
		 M115,152.8V98.9c0,0,0.1-0.1,0.1-0.1c0.2-0.2,0.4-0.3,0.6-0.5c1-0.9,1.5-1.2,1.7-3.2H141v57.8c-4-0.7-8.6-1-13.3-1
		c-4.4,0-8.7,0.3-12.6,0.9C114.4,152.9,114,152.9,115,152.8z M127.7,162.8c18.8,0,31.3,6.8,31.3,11.2c0,3.9-9.6,9.9-24.6,10.9h-5
		c-1.1,0-2.1,0.1-3.1,0.2c-18-0.3-29.8-6.9-29.8-11.2C96.5,169.6,108.9,162.8,127.7,162.8z M105,193c0.1,0,0.1,0,0.2,0.1
		c2.4,0.8,4.9,1.3,7.6,1.8c-1.5,2.7-2.3,5.8-2.3,9.1c0,10.2,8.1,18.8,18.2,19.1c0,0,0,0,0,0c0,0.1,0,0.1,0,0.3c0,0-0.1,0-0.1,0
		c-3.9,0.3-7.9,0.5-12.1,0.5c-14.4,0-27.6-2.1-37.3-5.8c-9-3.5-12.3-7.5-12.3-9.9C67.1,202.8,81.8,195.1,105,193z M108.6,267.4
		c-39.1,0-68.4-12.8-68.4-24.3c0-6.8,10.3-14.1,26.8-18.9c24.4,14.5,63,10.1,63,10.1c3,11,7.9,20.8,15.2,28.9c0,0,0,0,0,0
		C134.8,265.8,122.3,267.4,108.6,267.4z M213.9,266h-48.5c-18.9-12-24.5-30-25.7-43h70.2c1.4,0,2.9,0.2,4.3,0.2
		c1.4,0,2.6-0.2,3.8-0.2h23.4C236.8,245,219,262,213.9,266z M247.4,212h-118c-4.3,0-7.9-3.7-7.9-8c0-4.3,3.5-8,7.9-8h118
		c4.3,0,7.9,3.7,7.9,8C255.2,208.3,251.7,212,247.4,212z"/>
</g>
</svg>
