<?xml version="1.0" encoding="utf-8"?>
<!-- Generator: Adobe Illustrator 18.1.1, SVG Export Plug-In . SVG Version: 6.00 Build 0)  -->
<svg version="1.1" id="Layer_1" xmlns="http://www.w3.org/2000/svg" xmlns:xlink="http://www.w3.org/1999/xlink" x="0px" y="0px"
	 viewBox="0 0 300 300" enable-background="new 0 0 300 300" xml:space="preserve">
<g>
	<path fill="#FFFFFF" d="M182.9,111c0,0,0,0.4,0,0.5c0.1,2.8,0.1,5.5-0.1,8.5H216c2.8,0,5,1.6,5,4.4v84.4c0,2.8-2.2,5.2-5,5.2h-5.4
		c0.3,2,0.4,3.3,0.4,4.9c0,1.4-0.1,3.1-0.3,4.1H230V111H182.9z"/>
	<path fill="#FFFFFF" d="M89.5,214H84c-2.8,0-5-2.4-5-5.2v-84.4c0-2.8,2.3-4.4,5-4.4h31.9c-0.3-3-0.4-6-0.3-9H69v112h20.4
		c-0.2-1-0.3-2.7-0.3-4.1C89.1,217.3,89.2,216,89.5,214z"/>
	<path fill="#FFFFFF" d="M143.1,179.7c1.6-0.3,3.2-0.6,4.8-0.6c1.3,0,2.6,0.3,3.9,0.5c-1.7-6.3-1.8-11.6-1.6-15.6h-5.8
		C144.5,168,144.4,173.5,143.1,179.7z"/>
	<path fill="#FFFFFF" d="M115.2,171.3c-0.2,1.7-1.5,3.1-3.2,3.4c-0.2,0-0.5,0-0.7,0c-1.4,0-2.8-0.8-3.5-2.1c-5.7-10.3-7-19.6-4-28
		c2.7-7.5,8.2-11.7,12.3-14.7H89v74h4.2c4.8-8,13.5-13.6,23.1-13.6c3.6,0,7.2,0.7,10.5,2.1c1.6-3.5,4-6.2,7-8.4
		c2.6-7.3,2.8-16,2.7-20h-2.7c-1.4,0-2.6-1-3.4-2.1c-0.2-0.3-1.4-2.3-3-5.5C117.1,157.9,115.2,171.2,115.2,171.3z"/>
	<path fill="#FFFFFF" d="M162,183.9c3.5,2.6,6.2,6,7.8,10.1c0.1,0.1,0.1,0.1,0.2,0.1c4.1-2.5,8.9-3.7,13.9-3.7
		c9.6,0,18.2,5.6,23.1,13.6h4.1v-74h-27c4.1,3,9.7,7.2,12.3,14.7c3,8.4,1.7,17.8-4,28.1c-0.7,1.3-2.1,2-3.5,2
		c-0.2,0-0.5-0.1-0.7-0.1c-1.7-0.3-3-1.7-3.2-3.4c-0.1-0.6-2.1-13.6-12-15.2c-1.6,3.2-2.8,5.4-2.9,5.7c-0.7,1.2-2,2.2-3.4,2.2h-8.4
		C157.9,168,158.1,176,162,183.9z"/>
	<path fill="#CCCCCC" d="M189.2,159.4c1.1-4.5,1-8.6-0.3-12.2c-1.8-5.1-5.6-8.6-8.7-10.7c-1.2,4.6-2.6,8.7-3.9,12.2
		C182.4,150.3,186.5,154.6,189.2,159.4z"/>
	<path fill="#CCCCCC" d="M111.2,147.1c-1.3,3.7-1.4,7.8-0.3,12.2c2.6-4.7,6.7-9,12.8-10.7c-1.5-3.4-3-7.4-4.3-11.8
		C116.4,138.9,112.9,142.3,111.2,147.1z"/>
	<path fill="#FFFFFF" d="M123.6,111.1c-0.8,20,9,38.9,12.3,44.9h28.3c3.1-6,11.6-23.5,10.7-44c-0.3-7.6-2.2-16-5.2-23h-41.6
		C125.5,96,123.9,103.4,123.6,111.1z M168.1,111.9c0,10.4-8.4,18.8-18.8,18.8c-10.4,0-18.8-8.4-18.8-18.8s8.4-18.8,18.8-18.8
		C159.7,93.1,168.1,101.6,168.1,111.9z"/>
	<path fill="#FFFFFF" d="M135.5,111.9c0,7.6,6.2,13.8,13.8,13.8c7.6,0,13.8-6.2,13.8-13.8s-6.2-13.8-13.8-13.8
		C141.7,98.1,135.5,104.3,135.5,111.9z M155.2,106.1c0,0.3-0.1,0.5-0.4,0.8s-0.6,0.4-0.9,0.4c-0.3,0-0.7-0.1-1.3-0.3
		c-0.6-0.2-1.2-0.4-1.8-0.5l0,4.4c1.4,0.3,2.6,0.8,3.4,1.3c1,0.6,1.5,1.6,1.5,2.9c0,1.4-0.6,2.6-1.8,3.4c-0.9,0.6-1.9,1-3.1,1.2
		l0,1.5c0,0.8-0.7,1.7-1.5,1.7c0,0,0,0,0,0c-0.8,0-1.5-0.9-1.5-1.7l0-1.4c-1.4-0.1-2.6-0.5-3.7-0.9c-0.7-0.3-1.1-0.7-1.1-1.3
		c0-0.3,0.1-0.6,0.4-0.9c0.3-0.3,0.6-0.4,0.9-0.4c0.3,0,0.7,0.1,1.2,0.3c0.8,0.3,1.5,0.6,2.3,0.7l0-4.7c-0.4-0.1-0.7-0.2-1-0.3
		c-0.6-0.2-1.2-0.4-1.8-0.7c-0.6-0.3-1-0.7-1.3-1.2c-0.3-0.5-0.5-1-0.5-1.6c0-1.3,0.7-2.4,1.9-3.3c0.8-0.6,1.7-0.9,2.7-1.1l0-1.3
		c0-0.8,0.7-1,1.5-1c0,0,0,0,0,0c0.8,0,1.5,0.2,1.5,1l0,1.4c1.3,0.1,2.4,0.2,3.5,0.7C154.9,105.4,155.2,105.6,155.2,106.1z"/>
	<path fill="#FFFFFF" d="M152.7,115.2c0-0.7-0.3-1.2-1-1.5c-0.3-0.1-0.6-0.3-0.9-0.4l0,4c0.3-0.1,0.7-0.2,0.9-0.4
		C152.4,116.5,152.7,115.9,152.7,115.2z"/>
	<path fill="#FFFFFF" d="M146.2,108.7c0,0.3,0.1,0.5,0.2,0.7s0.3,0.4,0.5,0.5c0.2,0.1,0.5,0.2,0.9,0.4c0,0,0,0,0,0l0-3.5
		c-0.2,0.1-0.4,0.2-0.6,0.3C146.5,107.5,146.2,108,146.2,108.7z"/>
	<path fill="#CCCCCC" d="M150.2,61.1c-3.6,2.7-11.1,8.9-17.6,19.9h32.8C162.1,75,156.4,66.2,150.2,61.1z"/>
	<path fill="#FFFFFF" d="M183.9,198.2c-5.2,0-10,2-13.7,5.7c-1.1,1.1-2.8,1.5-4.3,0.9c-1.5-0.6-2.5-1.9-2.6-3.5
		c-0.5-8.1-7.3-14.5-15.4-14.5c-7.2,0-13.5,5.1-15.1,12.1c-0.3,1.3-1.2,2.3-2.4,2.8c-1.2,0.5-2.6,0.4-3.7-0.4
		c-3.1-2.1-6.8-3.2-10.6-3.2c-10.4,0-19.2,9.6-19.2,20.6c0,1.7,0.1,3.2,0.6,4.2h104.7c0.4-1,0.7-2.2,0.7-4.2
		C203,207.8,194.2,198.2,183.9,198.2z"/>
	<path fill="#FFFFFF" d="M64.1,233H44v3.1c0,1.9,2.5,3.9,4.4,3.9h203.3c1.9,0,3.3-2,3.3-3.9V233h-19H64.1z"/>
	<g>
		<path fill="#5980B7" d="M149.3,93.1c-10.4,0-18.8,8.4-18.8,18.8s8.4,18.8,18.8,18.8c10.4,0,18.8-8.4,18.8-18.8
			S159.7,93.1,149.3,93.1z M149.3,125.7c-7.6,0-13.8-6.2-13.8-13.8s6.2-13.8,13.8-13.8c7.6,0,13.8,6.2,13.8,13.8
			S156.9,125.7,149.3,125.7z"/>
		<path fill="#5980B7" d="M147.8,117.4c-0.7-0.1-1.5-0.4-2.3-0.7c-0.6-0.2-1-0.3-1.2-0.3c-0.4,0-0.7,0.1-0.9,0.4
			c-0.3,0.3-0.4,0.5-0.4,0.9c0,0.5,0.4,0.9,1.1,1.2c1.1,0.5,2.3,0.7,3.7,0.9L147.8,117.4z"/>
		<path fill="#5980B7" d="M154.2,112.2c-0.8-0.5-2-0.9-3.4-1.3l0,2.4c0.4,0.1,0.7,0.2,0.9,0.4c0.7,0.3,1,0.8,1,1.5
			c0,0.7-0.3,1.3-1,1.7c-0.3,0.2-0.6,0.3-0.9,0.4l0,2.4c1.2-0.2,2.3-0.6,3.1-1.2c1.2-0.9,1.8-2,1.8-3.4
			C155.7,113.8,155.2,112.8,154.2,112.2z"/>
		<path fill="#5980B7" d="M152.6,107c0.6,0.2,1,0.3,1.3,0.3c0.4,0,0.7-0.1,0.9-0.4s0.4-0.5,0.4-0.8c0-0.5-0.3-0.9-0.9-1.1
			c-1-0.4-2.2-0.7-3.5-0.8l0,2.3C151.4,106.6,152,106.8,152.6,107z"/>
		<path fill="#5980B7" d="M145,111.7c0.6,0.3,1.2,0.5,1.8,0.7c0.3,0.1,0.7,0.2,1,0.3l0-2.4c0,0,0,0,0,0c-0.4-0.1-0.7-0.2-0.9-0.4
			c-0.2-0.1-0.3-0.3-0.5-0.5s-0.2-0.4-0.2-0.7c0-0.6,0.3-1.2,1-1.6c0.2-0.1,0.4-0.2,0.6-0.3l0-2.4c-1,0.2-1.9,0.6-2.7,1.1
			c-1.3,0.9-1.9,2-1.9,3.3c0,0.6,0.1,1.2,0.5,1.6C143.9,111,144.4,111.4,145,111.7z"/>
		<path fill="#5980B7" d="M150.8,117.3l0-4l0-2.4l0-4.4l0-2.3l0-1.2c0-0.8-0.7-1-1.5-1c0,0,0,0,0,0c-0.8,0-1.5,0.2-1.5,1l0,1.6
			l0,2.3l0,3.5l0,2.4l0,4.7l0,2.4l0,1.5c0,0.8,0.7,1.7,1.5,1.7c0,0,0,0,0,0c0.8,0,1.5-0.9,1.5-1.7l0-1.4L150.8,117.3z"/>
	</g>
	<path fill="#5980B7" d="M260.1,223H241h-1V105.8c0-2.8-1.3-4.8-4-4.8h-24.1h-30.2h-0.1c-3.6-19-14.3-37.5-28.9-49.4
		c-1.4-1.1-3.3-1.1-4.8-0.1C131.3,62.8,120,81,116.7,101h-0.1H84.2H64.1c-2.8,0-5.1,2.1-5.1,4.8V223h0.1H40c-2.8,0-6,1.6-6,4.4v8.8
		c0,7.4,7,13.9,14.4,13.9h203.3c7.4,0,13.3-6.5,13.3-13.9v-8.8C265,224.6,262.9,223,260.1,223z M182.9,119.6
		c0.2-2.7,0.2-5.6,0.1-8.4c0-0.1,0,0.1,0,0c0-0.2,0-0.3,0-0.3h0c0,0,0,0,0,0H230v112h-19.3c0.2-1,0.3-2.8,0.3-4.2
		c0-1.6-0.1-3.3-0.4-4.9c-0.6-3.6-1.9-7-3.7-10.1c-4.8-8.1-13.5-13.6-23.1-13.6c-5,0-9.7,1.3-13.9,3.8c-0.1-0.1-0.1-0.1-0.2-0.2
		c-1.6-4.1-4.3-7.4-7.8-10c-3.9-7.9-4-15.9-3.7-19.9h0h5.9h2.5c1.4,0,2.7-1,3.4-2.2c0.2-0.3,1.3-2.3,2.9-5.6c0,0,0-0.1,0-0.1
		c9.9,1.6,11.9,14.5,12,15.1c0.2,1.7,1.5,3.1,3.2,3.4c0.2,0,0.5,0.1,0.7,0.1c1.4,0,2.8-0.8,3.5-2.1c5.7-10.3,7-19.6,4-28
		c-2.7-7.4-8.1-11.6-12.2-14.6H211v74h-4.1c1.8,3,3.1,7,3.7,10h5.4c2.8,0,5-2.4,5-5.2v-84.4c0-2.8-2.2-4.4-5-4.4h-33.2h0
		C182.9,120,182.9,119.7,182.9,119.6z M150.2,164c-0.2,4-0.1,9.2,1.6,15.5c-1.3-0.2-2.6-0.5-3.9-0.5c-1.6,0-3.3,0.4-4.8,0.7
		c1.2-6.2,1.4-11.8,1.2-15.8H150.2z M148,186.9c8.1,0,14.9,6.4,15.4,14.5c0.1,1.6,1.1,2.9,2.6,3.5c1.5,0.6,3.1,0.2,4.3-0.9
		c3.6-3.7,8.5-5.7,13.7-5.7c10.4,0,19.2,9.6,19.2,20.5c0,2-0.3,3.2-0.7,4.2H97.6c-0.4-1-0.6-2.5-0.6-4.2c0-11,8.8-20.4,19.2-20.4
		c3.8,0,7.4,1,10.6,3.1c1.1,0.7,2.5,0.8,3.7,0.3c1.2-0.5,2.1-1.6,2.4-2.9C134.5,192,140.8,186.9,148,186.9z M180,136.4
		C180,136.4,180,136.4,180,136.4c3,2.1,6.9,5.6,8.8,10.7c1.3,3.7,1.5,7.8,0.4,12.2c-2.6-4.7-6.9-9.1-13-10.7
		C177.5,145.1,179,141,180,136.4z M150.2,61.1c6.2,5,11.9,13.9,15.3,19.9h-32.8C139.1,70,146.6,63.8,150.2,61.1z M123.6,111.1
		c0.3-7.7,1.9-15.1,4.6-22.1h41.6c3,7,4.9,15.4,5.2,23c0.9,20.4-7.6,38-10.7,44H136C132.6,150,122.9,131.1,123.6,111.1z
		 M119.4,136.8c1.3,4.4,2.8,8.4,4.3,11.8c-6.1,1.7-10.2,6-12.8,10.7c-1.1-4.5-1-8.6,0.3-12.2C112.9,142.3,116.4,138.9,119.4,136.8z
		 M69,111h46.6c0,0,0,0,0,0h0c0,0,0,0,0,0.2c-0.1,2.9,0,5.8,0.3,8.6c0,0,0,0.2,0,0.2h0H84c-2.8,0-5,1.6-5,4.4v84.4
		c0,2.8,2.3,5.2,5,5.2h5.4c0.6-3,1.9-7,3.7-10H89v-74h26.9c-4.1,3-9.6,7.2-12.2,14.6c-3,8.4-1.7,17.8,4,28.1c0.7,1.3,2.1,2,3.5,2
		c0.2,0,0.5,0,0.7-0.1c1.7-0.3,3-1.7,3.2-3.4c0-0.1,2-13.6,12.1-15.1c1.7,3.2,2.9,5.4,3,5.7c0.7,1.1,2,2.1,3.4,2.1h1.2h1.2v-0.5
		c1,4.5,0.2,12.9-2.5,20.2c-3,2.3-5.3,5.2-6.9,8.7c-3.3-1.4-6.8-2.1-10.5-2.1c-9.6,0-18.2,5.5-23,13.6c-1.8,3-3.1,6.4-3.7,10
		c-0.3,1.5-0.4,3.4-0.4,5c0,1.4,0.1,3.2,0.3,4.2H69V111z M255,236.1c0,1.9-1.4,3.9-3.3,3.9H48.4c-1.9,0-4.4-2-4.4-3.9V233h20.1H236
		h19V236.1z"/>
</g>
</svg>
