<?xml version="1.0" encoding="utf-8"?>
<!-- Generator: Adobe Illustrator 18.1.1, SVG Export Plug-In . SVG Version: 6.00 Build 0)  -->
<svg version="1.1" id="Layer_1" xmlns="http://www.w3.org/2000/svg" xmlns:xlink="http://www.w3.org/1999/xlink" x="0px" y="0px"
	 viewBox="0 0 300 300" enable-background="new 0 0 300 300" xml:space="preserve">
<g>
	<path fill="#FFFFFF" d="M152,107.4c0-1.1,0.4-2.2,1.2-2.9c0.8-0.8,1.9-1.2,2.9-1.2l29.2,0.2c4.4,0,7.3-1.5,7.3-8.9
		c0-5.2-1.9-7.2-7.2-7.2c-4,0-11.7-0.4-22.7-0.2c-15.1,0.3-17.6-0.2-18.2-0.2h-24.9c-6.9,0-11.7,0.5-14.7,0.4
		c-2.9-0.1-4.7,0.2-5.4,0.2c-5.3,0.1-7.4,2.3-7.4,7.9c0,6.8,2.6,8.2,6.8,8.2c15.3,0,25.6,0,30.5-0.2c0,0,0.1,0,0.1,0
		c1.1,0,2.1,0.4,2.9,1.2c0.8,0.8,1.3,1.9,1.3,3c0,3.5,0,7.9,0.1,13.3c0.1,5.4,0.1,9.7,0.1,13l-0.4,70.1c0,3.1,0.6,5.2,1.8,6.5
		c1.3,1.3,3.5,2,6.7,2c3.6,0,6.4-0.8,8.2-2.3c0.6-0.5,2.4-2,2.2-6.9c-0.5-46-1.6-75.7-0.6-88.2V107.4z"/>
	<path fill="#5A81B8" d="M160,115.2v-3.6l25.2,0.2c9.9,0,15.7-6.3,15.7-17.2c0-9.8-5.6-15.4-15.4-15.4c-4.1,0-11.7-0.3-22.8-0.1
		c-11.1,0.2-17.2-0.1-18-0.1h-24.9c-6.7,0-11.6,0.1-14.5,0c-3-0.1-4.8,0-5.6,0c0,0,0,0,0,0C89.7,79,84,85.3,84,95.3
		c0,10.4,5.5,16.5,15,16.5c11.9,0,20.7,0,26.5-0.1c0,2.7,0,5.8,0.1,9.2c0.1,5.3,0.1,9.7,0.1,12.9l-0.4,70.1
		c-0.1,5.3,1.3,9.5,4.2,12.4c2.9,3,7.1,4.5,12.6,4.5c5.7,0,10.2-1.4,13.6-4.3c3.6-3.1,5.2-7.6,5-13.3
		C160.2,157.3,160,127.7,160,115.2z M152.6,203.4c0.1,4.8-1.7,6.4-2.2,6.9c-1.8,1.5-4.6,2.3-8.2,2.3c-3.1,0-5.4-0.7-6.7-2
		c-1.3-1.3-1.9-3.5-1.8-6.5l0.4-70.1c0-3.3,0-7.6-0.1-13c-0.1-5.3-0.1-9.8-0.1-13.3c0-1.1-0.5-2.2-1.3-3c-0.8-0.8-1.8-1.2-2.9-1.2
		c0,0-0.1,0-0.1,0c-4.9,0.1-15.1,0.2-30.5,0.2c-4.2,0-6.8-1.4-6.8-8.1c0-5.6,2-7.7,7.4-7.7c0.6,0,2.4-0.5,5.4-0.4
		c3,0.1,7.8-0.4,14.7-0.4h24.9c0.6,0,3.1,0.5,18.2,0.2c11.1-0.2,18.7,0,22.7,0c5.2,0,7.2,2.1,7.2,7.3c0,7.4-2.9,9-7.3,9l-29.2-0.2
		c-1.1,0-2.2,0.4-3,1.2c-0.8,0.8-1.2,1.8-1.2,3v7.7C151,127.7,152.1,157.4,152.6,203.4z"/>
	<path fill="#CDCCCC" d="M197.9,200.8c-1.3-1.7-1.9-4.1-1.9-7.8v-29.6c0-2.2,1.9-4.3,4.1-4.3h7.9v-8h-7.9c-2.2,0-4.1-1.2-4.1-3.4
		V129l-14,9.9v8.7c0,2.2-1.5,3.4-3.7,3.4H173v8h5.3c2.2,0,3.7,2.1,3.7,4.3v35.8c0,9.7,4,13.8,13.7,13.8c4,0,8.3-0.7,12.3-2.2v-7.1
		c-1,0.1-1.6,0.2-2.5,0.2C204.1,203.8,200.1,203.8,197.9,200.8z"/>
	<path fill="#5A81B8" d="M212.7,167c2.2,0,3.3-1.4,3.3-3.7v-15.7c0-2.2-1.1-4.6-3.3-4.6H204v-21.8c0-1.5-0.8-2.9-2.1-3.6
		c-1.3-0.7-2.9-0.6-4.1,0.3l-21.9,15.7c-1.1,0.8-1.8,2-1.8,3.3v6.1h-4.4c-2.2,0-4.6,2.4-4.6,4.6v15.7c0,2.2,2.4,3.7,4.6,3.7h4.4
		v32.1c0,14.1,7.9,21.8,22.1,21.8c5.9,0,11.6-1.3,17.7-3.8c1.5-0.6,2.2-2.1,2.2-3.7v-15.1c0-1.3-0.3-2.5-1.4-3.3
		c-1.1-0.8-2.3-0.9-3.5-0.5c-2.1,0.8-3.8,1.2-5.4,1.2c-0.7,0-1.2,0-1.5-0.1c-0.1-0.5-0.2-1.3-0.2-2.7v-26H212.7z M208,203.5v7.1
		c-4,1.5-8.2,2.2-12.3,2.2c-9.7,0-13.7-4.1-13.7-13.8v-35.8c0-2.2-1.5-4.3-3.7-4.3H173v-8h5.3c2.2,0,3.7-1.2,3.7-3.4v-8.7l14-9.9
		v18.6c0,2.2,1.9,3.4,4.1,3.4h7.9v8h-7.9c-2.2,0-4.1,2.1-4.1,4.3V193c0,3.7,0.6,6.1,1.9,7.8c2.2,3,6.2,3,7.6,3
		C206.4,203.8,207,203.7,208,203.5z"/>
</g>
</svg>
