<?xml version="1.0" encoding="utf-8"?>
<!-- Generator: Adobe Illustrator 18.1.1, SVG Export Plug-In . SVG Version: 6.00 Build 0)  -->
<svg version="1.1" id="Layer_1" xmlns="http://www.w3.org/2000/svg" xmlns:xlink="http://www.w3.org/1999/xlink" x="0px" y="0px"
	 viewBox="0 0 300 300" enable-background="new 0 0 300 300" xml:space="preserve">
<g>
	<path fill="#CCCCCC" d="M91.4,142.1l0.7-1.3c-6.6-7.2-9.1-17.7-5.6-27.6c4-11.2,14.5-18.2,25.8-18.2c3,0,6.1,0.5,9.1,1.5
		c8,2.8,13.9,9.4,16.6,16.4h14.9c-0.1,0-0.1-0.6-0.2-0.9l13.5-6.4l-6.9-14.4l-13.4,6.4c-3.3-4.5-7.5-8.4-12.5-11.3l4.9-13.9l-15-5.3
		l-4.9,13.9c-2-0.3-4.1-0.5-6.1-0.5c-3.6,0-7.2,0.5-10.7,1.4l-6.4-13.4l-14.4,6.9l6.4,13.5c-4.4,3.3-8.2,7.5-11,12.5l-14.2-5
		l-5.3,15l14.3,5c-0.8,5.6-0.4,11.2,1,16.5l-13.8,6.6l6.9,14.4l10.7-5.1c0.4-0.4,0.9-0.7,1.5-0.9L91.4,142.1z"/>
	<path fill="#FFFFFF" d="M111.7,161.1c10.5,0,19.4,7.9,21.9,16.9h47.2c2.5-9,11.4-16.9,21.9-16.9s19.4,7.9,21.9,16.9h11.5l-1.6-10
		h-9.7c-3,0-5.5-2.5-5.5-5.5s2.5-5.5,5.5-5.5h7.9l-0.8-5h-23.5c-1.5,0-2.9-0.6-3.9-1.6L178.1,124h-63.8L100,149.2
		c-0.6,1.1-1.5,1.9-2.6,2.4L85,156.8V178h4.8C92.4,169,101.2,161.1,111.7,161.1z M157.9,168h-14c-3,0-5.5-2.5-5.5-5.5
		s2.5-5.5,5.5-5.5h14c3,0,5.5,2.5,5.5,5.5S160.9,168,157.9,168z M154.7,126h18.2c1.5,0,2.9,0.6,3.9,1.6l15,15c1.6,1.6,2,3.9,1.2,6
		c-0.9,2.1-2.9,3.4-5.1,3.4h-34.6c-1.6,0-3-0.6-4.1-1.8c-1-1.1-1.6-2.7-1.4-4.2l1.4-15C149.5,128.2,151.9,126,154.7,126z
		 M115.2,129.4c0.9-2,2.9-3.4,5.1-3.4h19.1c1.6,0,3.1,0.7,4.1,1.9c1,1.2,1.5,2.8,1.3,4.4l-2,15c-0.4,2.7-2.7,4.7-5.5,4.7H114
		c-1.8,0-3.6-0.9-4.6-2.4c-1-1.5-1.2-3.5-0.5-5.2L115.2,129.4z"/>
	<path fill="#FFFFFF" d="M214.4,183.7c0-6.4-5.2-11.6-11.6-11.6s-11.6,5.2-11.6,11.6s5.2,11.6,11.6,11.6S214.4,190.1,214.4,183.7z"
		/>
	<path fill="#FFFFFF" d="M123.4,183.7c0-6.4-5.2-11.6-11.6-11.6s-11.6,5.2-11.6,11.6s5.2,11.6,11.6,11.6S123.4,190.1,123.4,183.7z"
		/>
	<polygon fill="#CCCCCC" points="133.1,137 123.9,137 122.2,141 132.6,141 	"/>
	<polygon fill="#CCCCCC" points="170.7,137 159.7,137 159.3,141 174.7,141 	"/>
	<g>
		<path fill="#5980B7" d="M69.8,164l4.2-2v21.5c0,3,2.3,5.5,5.4,5.5h10.4c2.4,10,11.3,17.3,22,17.3s19.6-7.3,22-17.3h47
			c2.4,10,11.3,17.3,22,17.3s19.6-7.3,22-17.3h17.9c1.6,0,3.1-0.7,4.2-1.9c1-1.2,1.5-2.8,1.3-4.4l-5.9-37c-0.4-2.7-2.7-4.7-5.4-4.7
			h-25.9l-26.5-26.4c-1-1-2.4-1.6-3.9-1.6h-6.1c2.9-3,3.7-7.9,1.7-12l-6.9-14.4c-1.3-2.6-3.5-4.6-6.3-5.6c-1.2-0.4-2.4-0.6-3.7-0.6
			c-1.6,0-3.3,0.4-4.8,1.1l-5.9,2.8c-0.7-0.7-1.4-1.3-2.1-1.9l2.2-6.2c1-2.8,0.8-5.8-0.5-8.4c-1.3-2.6-3.5-4.7-6.3-5.6l-15-5.3
			c-1.2-0.4-2.4-0.6-3.7-0.6c-1.6,0-3.3,0.4-4.8,1.1c-2.6,1.3-4.7,3.5-5.6,6.3l-2.2,6.2c-0.9,0-1.9,0.1-2.8,0.2l-2.8-5.9
			c-1.3-2.6-3.5-4.7-6.3-5.6c-1.2-0.4-2.4-0.6-3.7-0.6c-1.6,0-3.3,0.4-4.8,1.1L76,65.7c-5.5,2.6-7.8,9.2-5.2,14.7l2.9,6.1
			c-0.6,0.7-1.2,1.3-1.8,2l-6.4-2.2c-1.2-0.4-2.4-0.6-3.7-0.6c-4.5,0-8.8,2.8-10.4,7.3l-5.3,15c-1,2.8-0.8,5.8,0.5,8.4
			s3.5,4.7,6.3,5.6l6.6,2.3c0,0.8,0.1,1.6,0.1,2.5l-6.3,3c-2.6,1.3-4.7,3.5-5.6,6.3c-1,2.8-0.8,5.8,0.5,8.4l6.9,14.4
			c1.9,3.9,5.9,6.3,10,6.3C66.7,165.1,68.3,164.8,69.8,164z M111.7,195.4c-6.4,0-11.6-5.2-11.6-11.6s5.2-11.6,11.6-11.6
			s11.6,5.2,11.6,11.6S118.1,195.4,111.7,195.4z M202.7,195.4c-6.4,0-11.6-5.2-11.6-11.6s5.2-11.6,11.6-11.6s11.6,5.2,11.6,11.6
			S209.1,195.4,202.7,195.4z M178.1,124l26.5,26.4c1,1,2.4,1.6,3.9,1.6H232l0.8,5h-7.9c-3,0-5.5,2.5-5.5,5.5s2.5,5.5,5.5,5.5h9.7
			l1.6,10h-11.5c-2.5-9-11.4-16.9-21.9-16.9s-19.4,7.9-21.9,16.9h-47.2c-2.5-9-11.4-16.9-21.9-16.9S92.4,169,89.8,178H85v-21.2
			l12.4-5.2c1.1-0.5,2-1.3,2.6-2.4l14.3-25.2H178.1z M97.5,129.5c-1.9-3.9-2.1-8.4-0.7-12.5c2.3-6.5,8.5-10.9,15.4-10.9
			c1.8,0,3.7,0.3,5.4,0.9c3.3,1.2,6,4,7.9,6h-14.5c-2,0-3.8,1.1-4.8,2.8l-8.3,14.6C97.9,130.1,97.7,129.8,97.5,129.5z M58.1,139.7
			l13.8-6.6c-1.4-5.3-1.8-10.9-1-16.5l-14.3-5l5.3-15l14.2,5c2.9-5,6.6-9.2,11-12.5l-6.4-13.5l14.4-6.9l6.4,13.4
			c3.5-0.9,7-1.4,10.7-1.4c2,0,4.1,0.1,6.1,0.5l4.9-13.9l15,5.3l-4.9,13.9c5,2.9,9.2,6.8,12.5,11.3l13.4-6.4l6.9,14.4l-13.5,6.4
			c0.1,0.3,0.1,0.9,0.2,0.9h-14.9c-2.7-7-8.6-13.6-16.6-16.4c-3-1.1-6.1-1.5-9.1-1.5c-11.3,0-21.8,7-25.8,18.3
			c-3.5,9.8-1,20.4,5.6,27.6l-0.7,1.3l-14.1,5.9c-0.6,0.2-1.1,0.6-1.5,0.9L65,154.1L58.1,139.7z"/>
		<path fill="#5980B7" d="M109.4,149.6c1,1.5,2.7,2.4,4.6,2.4h23.5c2.8,0,5.1-2,5.5-4.7l2-15c0.2-1.6-0.3-3.2-1.3-4.4
			c-1-1.2-2.6-1.9-4.1-1.9h-19.1c-2.2,0-4.2,1.3-5.1,3.4l-6.3,15C108.2,146.1,108.4,148,109.4,149.6z M123.9,137h9.2l-0.5,4h-10.4
			L123.9,137z"/>
		<path fill="#5980B7" d="M153.3,152h34.6c2.2,0,4.2-1.3,5.1-3.4c0.9-2.1,0.4-4.4-1.2-6l-15-15c-1-1-2.4-1.6-3.9-1.6h-18.2
			c-2.8,0-5.2,2.2-5.5,5l-1.4,15c-0.1,1.5,0.4,3.1,1.4,4.2C150.3,151.4,151.7,152,153.3,152z M159.7,137h10.9l4,4h-15.3L159.7,137z"
			/>
		<path fill="#5980B7" d="M157.9,157h-14c-3,0-5.5,2.5-5.5,5.5s2.5,5.5,5.5,5.5h14c3,0,5.5-2.5,5.5-5.5S160.9,157,157.9,157z"/>
		<path fill="#5980B7" d="M248.9,233H161v-28h11.9c3,0,5.5-2.5,5.5-5.5s-2.5-5.5-5.5-5.5h-35c-3,0-5.5,2.5-5.5,5.5s2.5,5.5,5.5,5.5
			H150v28H65.9c-3,0-5.5,2.5-5.5,5.5s2.5,5.5,5.5,5.5h183c3,0,5.5-2.5,5.5-5.5S251.9,233,248.9,233z"/>
	</g>
</g>
</svg>
