<?xml version="1.0" encoding="utf-8"?>
<!-- Generator: Adobe Illustrator 18.1.1, SVG Export Plug-In . SVG Version: 6.00 Build 0)  -->
<svg version="1.1" id="Layer_1" xmlns="http://www.w3.org/2000/svg" xmlns:xlink="http://www.w3.org/1999/xlink" x="0px" y="0px"
	 viewBox="0 0 300 300" enable-background="new 0 0 300 300" xml:space="preserve">
<g>
	<polygon fill="none" points="196.6,85.9 208,94.9 218.8,82 	"/>
	<polygon fill="none" points="215.8,101.2 226.2,109.5 225.2,89.9 	"/>
	<path fill="none" d="M153.3,133c-0.7-1.2-1.4-2.5-2-3.7c-0.8,1.2-1.6,2.4-2.4,3.4C150.5,132.7,151.9,132.8,153.3,133z"/>
	<path fill="none" d="M88.7,178c-1.8,6-3.7,12-5.5,17h3.4c2-1,4.2-1,6.4-1h19.7c-1.7-5-3.4-10-5.1-16H88.7z"/>
	<path fill="none" d="M98.1,137.9C96.1,149,93.8,159,91.5,168h13.4C102.5,159,100.2,149,98.1,137.9z"/>
	<polygon fill="#FFFFFF" points="186.7,170.9 178.2,194 194.5,194 	"/>
	<path fill="#CCCCCC" d="M194,215.5v4.5h28v-16h-31.6C192.6,207,194,211.1,194,215.5z"/>
	<path fill="#CCCCCC" d="M98.4,112c5.2,0,9.4-4.2,9.4-9.4c0-5.2-4.2-9.4-9.4-9.4c-5.2,0-9.4,4.2-9.4,9.4C89,107.8,93.2,112,98.4,112
		z"/>
	<path fill="#FFFFFF" d="M184,219.7v-4.3c0-6.5-5.5-11.5-12-11.5h-11.7H93c-6.5,0-12,4.9-12,11.5v4.3c0,6.5,5.4,12.3,12,12.3h79
		C178.5,232,184,226.3,184,219.7z M97,227.4c-5.4,0-9.8-4.4-9.8-9.8c0-5.4,4.4-9.8,9.8-9.8s9.8,4.4,9.8,9.8
		C106.8,223,102.4,227.4,97,227.4z"/>
	<path fill="#CCCCCC" d="M97,213.8c-2.1,0-3.8,1.7-3.8,3.8s1.7,3.8,3.8,3.8s3.8-1.7,3.8-3.8S99.1,213.8,97,213.8z"/>
	<path fill="#FFFFFF" d="M176.1,144.4c10.3,8.2,22.5,12.5,35.1,12.5c14.5,0,27.9-5.7,38.5-16l-86.8-69
		C148.2,96,153.4,126.4,176.1,144.4z"/>
	<g>
		<path fill="#5980B7" d="M118.8,82.2c0.1,0.1,11.7,7.9,11.7,20c0,12-11.5,19.3-11.6,19.4c-2.4,1.4-3.1,4.5-1.7,6.9
			c0.9,1.5,2.6,2.4,4.3,2.4c0.9,0,1.8-0.2,2.6-0.7c0.7-0.4,16.4-10.2,16.4-27.9c0-17.6-15.6-28-16.2-28.4c-2.3-1.5-5.4-0.9-6.9,1.4
			C115.9,77.6,116.5,80.7,118.8,82.2z"/>
		<path fill="#5980B7" d="M56.8,101.7c0,17.6,15.6,28,16.2,28.4c0.8,0.5,1.8,0.8,2.7,0.8c1.6,0,3.2-0.8,4.2-2.3
			c1.5-2.3,0.9-5.4-1.4-6.9c-0.1-0.1-11.7-7.9-11.7-20c0-12,11.5-19.3,11.6-19.4c2.4-1.4,3.1-4.5,1.7-6.9c-1.4-2.4-4.5-3.1-6.9-1.7
			C72.5,74.2,56.8,84,56.8,101.7z"/>
		<path fill="#5980B7" d="M62.1,144.6c1.5,0,3-0.7,4-2c1.7-2.2,1.2-5.3-1-7c-0.2-0.1-17.1-13.2-17.1-34.1c0-20.7,16.8-33,17-33.1
			c2.3-1.6,2.8-4.7,1.2-7c-1.6-2.3-4.7-2.8-7-1.2C58.3,60.9,38,75.5,38,101.5c0,25.9,20.3,41.4,21.1,42.1
			C60,144.3,61,144.6,62.1,144.6z"/>
		<path fill="#5980B7" d="M147.9,160.9c5,0,7.5,1.8,8.7,3.4c1.1,1.4,2.8,2.2,4.6,1.9c0.1,0,0.2,0,0.4-0.1c3.5-0.6,5.3-4.7,3.2-7.6
			c-2.9-4-8.2-7.6-16.9-7.6c-9.1,0-14.8,3.6-18,7.5c-2.3,2.8-0.8,7,2.7,7.8h0c1.9,0.4,3.9-0.2,5.2-1.6
			C139.4,162.9,142.4,160.9,147.9,160.9z"/>
		<path fill="#5980B7" d="M97,207.8c-5.4,0-9.8,4.4-9.8,9.8c0,5.4,4.4,9.8,9.8,9.8s9.8-4.4,9.8-9.8
			C106.8,212.2,102.4,207.8,97,207.8z M97,221.4c-2.1,0-3.8-1.7-3.8-3.8s1.7-3.8,3.8-3.8s3.8,1.7,3.8,3.8S99.1,221.4,97,221.4z"/>
		<path fill="#5980B7" d="M260.1,136.4l-23.5-18.6l-2-39.2l10-12c1.8-2.1,1.5-5.3-0.6-7c-2.1-1.8-5.3-1.5-7,0.6l-8.3,9.9
			c0,0-0.1,0-0.1,0l-42.5,7.5l-21.2-16.9c-1.1-0.8-2.4-1.2-3.8-1.1c-1.3,0.2-2.6,0.9-3.4,1.9c-2.9,4-5.3,8.1-7.2,12.3
			c-5.6-8.5-11.8-13.2-12.3-13.6c-2.2-1.7-5.3-1.2-7,1c-1.7,2.2-1.2,5.3,1,7c0.1,0.1,9,7,13.9,18.6c-2.2,9.9-2,20,0.5,29.7
			c-4.8,12-14.1,18.8-14.2,18.9c-0.2,0.1-0.3,0.3-0.5,0.4c-10.2,4.5-14.9,12.6-16,17.6c-0.6,2.7,1.1,5.4,3.8,6
			c0.4,0.1,0.7,0.1,1.1,0.1c2.3,0,4.3-1.6,4.9-3.9c0-0.1,3.2-13,22.9-13c17.2,0,19.8,11.4,20,12.7c0.4,2.7,3,4.6,5.7,4.1
			c1.4-0.2,2.6-1.1,3.4-2.2c0.9,0.5,1.8,1.2,2.7,1.7L167.6,194h-12.4H152v-20.5c0-2.8-2.2-5-5-5s-5,2.2-5,5V194h-18.6
			c-6.1-17-13-40.9-18-73.1c7.2-2.8,12.3-9.9,12.3-18.1c0-10.7-8.7-19.4-19.4-19.4S79,92,79,102.7c0,8,4.9,14.9,11.9,17.8
			c-11.3,73.1-32.1,103.6-32.5,104.1c-1.6,2.3-1.1,5.4,1.2,7c0.9,0.6,1.9,0.9,2.9,0.9c1.6,0,3.1-0.7,4.1-2.1c0.3-0.4,2.1-2.9,4.7-8
			c-0.1-0.9-0.1-1.8-0.1-2.7c0,0.9,0,2,0.1,2.9C72.7,233.4,81.8,242,93,242h79c8.5,0,16.1-5,19.7-12h35.8c2.8,0,4.5-2.8,4.5-5.6
			v-25.8c0-2.8-1.8-4.6-4.5-4.6H205l-9.8-29c5.2,1.3,10.6,2,16,2c0,0,0,0,0,0c19.1,0,36.7-8.3,49.6-23.4c0.9-1,1.3-2.3,1.2-3.7
			C261.9,138.6,261.2,137.3,260.1,136.4z M226.2,109.5l-10.5-8.3l9.4-11.3L226.2,109.5z M218.8,82l-10.8,13l-11.4-9L218.8,82z
			 M148.9,132.7c0.8-1.1,1.6-2.2,2.4-3.4c0.6,1.3,1.3,2.5,2,3.7C151.9,132.8,150.5,132.7,148.9,132.7z M86.5,195h-3.3
			c1.8-5,3.6-11,5.5-17h18.9c1.7,6,3.4,11,5.1,16H93C90.8,194,88.6,194.4,86.5,195C86.6,195,86.6,195,86.5,195z M104.8,168H91.5
			c2.3-9,4.6-19,6.7-30.1C100.2,149,102.5,159,104.8,168z M89,102.7c0-5.2,4.2-9.4,9.4-9.4c5.2,0,9.4,4.2,9.4,9.4
			c0,5.2-4.2,9.4-9.4,9.4C93.2,112,89,107.8,89,102.7z M184,219.7c0,6.5-5.5,12.3-12,12.3H93c-6.5,0-12-5.7-12-12.3v-4.3
			c0-6.5,5.4-11.5,12-11.5h67.3H172c6.5,0,12,4.9,12,11.5V219.7z M172,193.5c0.5,0,1,0,1.4,0C173,193.6,172.5,193.5,172,193.5z
			 M222,204v16h-28v-0.6v-4c0-4.4-1.4-8.3-3.6-11.7c0,0,0.1,0.2,0.1,0.2H222z M178.2,194l8.4-23.1l7.8,23.1H178.2z M211.2,156.9
			c-12.7,0-24.8-4.3-35.1-12.5c-22.7-18-27.9-48.4-13.2-72.5l86.8,69C239.2,151.3,225.7,156.9,211.2,156.9z"/>
	</g>
</g>
</svg>
