<?xml version="1.0" encoding="utf-8"?>
<!-- Generator: Adobe Illustrator 18.1.1, SVG Export Plug-In . SVG Version: 6.00 Build 0)  -->
<svg version="1.1" id="Layer_1" xmlns="http://www.w3.org/2000/svg" xmlns:xlink="http://www.w3.org/1999/xlink" x="0px" y="0px"
	 viewBox="0 0 300 300" enable-background="new 0 0 300 300" xml:space="preserve">
<g>
	<polygon fill="none" points="245.1,196 253.1,169 241.7,169 237.7,196 	"/>
	<path fill="#FFFFFF" d="M46.6,210.4c0-23.7,19.2-42.9,42.9-42.9c17.3,0,32.2,10.3,39,25c1.8-0.7,3.5-1.3,5.5-1.9V164H45v92h42.7
		c-0.1,0-0.7-0.5-0.7-1v-1.1c0-0.2,0.3-0.4,0.3-0.7C64.5,252.3,46.6,233.4,46.6,210.4z"/>
	<path fill="#FFFFFF" d="M70,136H45v17h25V136z M58.1,150.9c-3,0-5.5-2.4-5.5-5.5c0-3,2.4-5.5,5.5-5.5c3,0,5.5,2.4,5.5,5.5
		C63.6,148.4,61.1,150.9,58.1,150.9z"/>
	<path fill="#FFFFFF" d="M134,153v-17H81v17H134z M123.1,139.9c3,0,5.5,2.4,5.5,5.5c0,3-2.4,5.5-5.5,5.5c-3,0-5.5-2.4-5.5-5.5
		C117.6,142.4,120.1,139.9,123.1,139.9z M108.1,139.9c3,0,5.5,2.4,5.5,5.5c0,3-2.4,5.5-5.5,5.5c-3,0-5.5-2.4-5.5-5.5
		C102.6,142.4,105.1,139.9,108.1,139.9z M93.1,139.9c3,0,5.5,2.4,5.5,5.5c0,3-2.4,5.5-5.5,5.5c-3,0-5.5-2.4-5.5-5.5
		C87.6,142.4,90.1,139.9,93.1,139.9z"/>
	<path fill="#FFFFFF" d="M89.5,178.5c-17.6,0-31.9,14.3-31.9,31.9s14.3,31.9,31.9,31.9c0.3,0,0.6,0,0.9,0c0.1-1.2,0.2-2.5,0.3-3.9
		c-0.4,0-0.8,0-1.3,0c-15.5,0-28-12.6-28-28s12.6-28,28-28c11.5,0,21.4,7,25.7,16.9c1.1-0.7,2.2-1.4,3.3-2
		C113.5,186.2,102.4,178.5,89.5,178.5z"/>
	<path fill="#CCCCCC" d="M89.5,193.4c-9.4,0-17,7.6-17,17s7.6,17,17,17c1.3,0,2.7-0.2,3.9-0.5c2-5.7,5.2-11.9,10.3-17.7
		c0.8-0.9,1.6-1.7,2.4-2.6C104.4,199.1,97.6,193.4,89.5,193.4z"/>
	<path fill="#FFFFFF" d="M61,89c0,5.5,5.1,10,10.7,10H77v-9.3c0-3,2.7-5.7,5.7-5.7h115c3,0,5.3,2.7,5.3,5.7V99h8c5.5,0,10-4.5,10-10
		v-8H61V89z"/>
	<path fill="#FFFFFF" d="M221,54.4c0-5.5-4.5-10.4-10-10.4H71.7C66.1,44,61,48.8,61,54.4V70h160V54.4z M165.2,63h-48
		c-3,0-5.5-2.5-5.5-5.5s2.5-5.5,5.5-5.5h48c3,0,5.5,2.5,5.5,5.5S168.2,63,165.2,63z"/>
	<rect x="88" y="95" fill="#CCCCCC" width="104" height="3"/>
	<path fill="#FFFFFF" d="M195,253.9v1.1c0,0.4,0.5,1,0.5,1h37.8l-9.3-23h-33v11.4C194,246.7,195,250.1,195,253.9z M203.1,237.8
		c3.9,0,7.1,3,7.1,6.7s-3.2,6.7-7.1,6.7c-3.9,0-7.1-3-7.1-6.7S199.2,237.8,203.1,237.8z"/>
	<path fill="#FFFFFF" d="M180.4,185.5c1.9,0.1,3.7,0.3,5.6,0.4c2.9,0.2,5,2.7,5,5.6v29.9l31.8-0.2L233,152h-57.9L180.4,185.5z"/>
	<path fill="#CCCCCC" d="M168.9,140c0,0.6,0.5,1,1.1,1h68.1c0.6,0,1.1-0.4,1.1-1s-0.5-1-1.1-1h-68.1
		C169.4,139,168.9,139.4,168.9,140z"/>
	<path fill="#CCCCCC" d="M98,254v1c0,0.9,1.3,1,2.2,1h82.7c0.9,0,1.1-0.1,1.1-1v-1H98z"/>
	<path fill="#FFFFFF" d="M171.8,196.6c-28.2,0-48.4,6.6-60,19.8c-8.5,9.7-10.2,20.6-10.5,26.6H180v-46.2
		C177,196.6,174.5,196.6,171.8,196.6z M124.4,223c0.1-0.8,2.7-20.6,38.3-20.1c3,0,5.3,2.5,5.3,5.5v15.2c0,3-2.3,5.3-5.3,5.3h-32.9
		c-1.6,0-3.1-0.6-4.1-1.8C124.7,226.1,124.2,224.6,124.4,223z M157.2,242c-3,0-5.5-2.5-5.5-5.5s2.5-5.5,5.5-5.5h6
		c3,0,5.5,2.5,5.5,5.5s-2.5,5.5-5.5,5.5H157.2z"/>
	<path fill="#FFFFFF" d="M140.8,218H157v-3.9C149,214.5,144,216,140.8,218z"/>
	<g>
		<circle fill="#5980B7" cx="58.1" cy="145.4" r="5.5"/>
		<circle fill="#5980B7" cx="93.1" cy="145.4" r="5.5"/>
		<circle fill="#5980B7" cx="108.1" cy="145.4" r="5.5"/>
		<circle fill="#5980B7" cx="123.1" cy="145.4" r="5.5"/>
		<path fill="#5980B7" d="M71.2,110h139c11.6,0,20.8-9.2,20.8-20.8V78c0-0.7,0.1-23.9,0.1-23.9c0-11.6-9.3-21.1-20.9-21.1h-139
			C59.6,33,50,42.6,50,54.2v35C50,100.8,59.6,110,71.2,110z M88,98v-3h104v3H88z M221,89c0,5.5-4.5,10-10,10h-8v0v-9.3
			c0-3-2.3-5.7-5.3-5.7h-115c-3,0-5.7,2.7-5.7,5.7V99v0h-5.3C66.1,99,61,94.5,61,89v-8h0.7H221h0V89z M61,54.4
			C61,48.8,66.1,44,71.7,44H211c5.5,0,10,4.8,10,10.4V70h0H61.7H61V54.4z"/>
		<path fill="#5980B7" d="M117.2,63h48c3,0,5.5-2.5,5.5-5.5s-2.5-5.5-5.5-5.5h-48c-3,0-5.5,2.5-5.5,5.5S114.2,63,117.2,63z"/>
		<ellipse fill="#5980B7" cx="203.1" cy="244.6" rx="7.1" ry="6.7"/>
		<path fill="#5980B7" d="M264.8,160.3c-1-1.4-2.7-2.3-4.4-2.3h-17.1l1.1-7.5c3.5-2.1,5.8-6,5.8-10.3c0-6.7-5.4-12.1-12.1-12.1
			h-25.9c0-5-4.5-10-10-10s-10,5-10,10h-22.3c-6.7,0-12.1,5.6-12.1,12.3c0,4.4,2.3,8.1,5.8,10.2c1.8,1.1,4,1.7,6.3,1.7
			c-2.3,0-4.4-0.5-6.3-1.6l5.3,35c-8.6,0.1-17,0.9-24,2.2v-57.2c0-3-2.5-5.7-5.6-5.7H39.5c-3,0-5.5,2.7-5.5,5.7v131.4
			c0,3,2.5,4.9,5.5,4.9h58.2c0.4,0,0.8,0.1,1.1,0.2c0.4,0,0.9-0.2,1.4-0.2h82.7c1.2,0,2.2,0.2,3.2-0.1c5-1.4,8.6-5.4,9.1-10.7
			c0-0.4-0.2-0.7-0.2-1.1v-1.1c0-3.8-1-7.2-4-9.5V233h33l9.3,23h-37.8c-0.5,6-4.3,10-9.2,11h55.1c1.8,0,3.5-0.8,4.6-2.3
			s1.2-3.4,0.5-5.1l-13.2-32.9l2.9-19.7h13.1c2.4,0,4.6-1.5,5.3-3.9l11.2-38C266.2,163.5,265.9,161.7,264.8,160.3z M171.8,196.6
			c2.7,0,5.2,0.1,8.2,0.2V243h-78.6c0.3-6,2-16.9,10.5-26.6C123.5,203.2,143.6,196.6,171.8,196.6z M81,136.2V136h53v17h-0.1H81
			V136.2z M45,136h25v0.2V153H45V136z M87.3,253.2c0,0.2-0.3,0.4-0.3,0.7v1.1c0,0.4,0.3,1,0.4,1H45v-92h88.9h0.1v26.6
			c0,0-0.1,0.1-0.2,0.1c-1.9,0.6-3.6,1.2-5.4,1.9c-6.8-14.8-21.7-25-39-25c-23.7,0-42.9,19.2-42.9,42.9
			C46.6,233.4,64.7,252.2,87.3,253.2C87.4,253.2,87.3,253.2,87.3,253.2z M90.4,242.3c-0.3,0-0.6,0-0.9,0
			c-17.6,0-31.9-14.3-31.9-31.9s14.3-31.9,31.9-31.9c12.9,0,24,7.7,29.1,18.7c-1.1,0.7-2.3,1.3-3.3,2c-4.3-9.9-14.2-16.9-25.7-16.9
			c-15.5,0-28,12.6-28,28s12.6,28,28,28c0.4,0,0.8,0,1.3,0C90.6,239.8,90.5,241.1,90.4,242.3z M93.2,265.4c0.9,0.6,1.9,1,2.9,1.3
			C95.1,266.5,94.1,266,93.2,265.4z M93.4,226.9c-1.3,0.3-2.6,0.5-3.9,0.5c-9.4,0-17-7.6-17-17s7.6-17,17-17
			c8.1,0,14.9,5.7,16.6,13.3c-0.8,0.8-1.6,1.7-2.4,2.6C98.5,215.1,95.4,221.2,93.4,226.9z M184,255c0,0.9-0.2,1-1.1,1h-82.7
			c-0.9,0-2.2-0.1-2.2-1v-1h0.6H184V255z M222.8,221.3l-31.8,0.2v-29.9c0-2.9-2.1-5.3-5-5.5c-1.8-0.1-3.4-0.3-5.2-0.4l-5.7-33.7H233
			L222.8,221.3z M169.9,141c-0.6,0-1.1-0.4-1.1-1s0.5-1,1.1-1h68.1c0.6,0,1.1,0.4,1.1,1s-0.5,1-1.1,1H169.9z M245.1,196h-7.4l3.9-27
			h11.4L245.1,196z"/>
		<path fill="#5980B7" d="M129.8,229h32.9c3,0,5.3-2.3,5.3-5.3v-15.2c0-3-2.3-5.5-5.3-5.5c-35.6-0.5-38.3,19.2-38.4,20.1
			c-0.2,1.6,0.3,3,1.4,4.2C126.7,228.4,128.2,229,129.8,229z M157,214.1v3.9h-16.2C144,216,149,214.5,157,214.1z"/>
		<path fill="#5980B7" d="M163.2,231h-6c-3,0-5.5,2.5-5.5,5.5s2.5,5.5,5.5,5.5h6c3,0,5.5-2.5,5.5-5.5S166.2,231,163.2,231z"/>
	</g>
</g>
</svg>
