<?xml version="1.0" encoding="utf-8"?>
<!-- Generator: Adobe Illustrator 18.1.1, SVG Export Plug-In . SVG Version: 6.00 Build 0)  -->
<svg version="1.1" id="Layer_1" xmlns="http://www.w3.org/2000/svg" xmlns:xlink="http://www.w3.org/1999/xlink" x="0px" y="0px"
	 viewBox="0 0 300 300" enable-background="new 0 0 300 300" xml:space="preserve">
<g>
	<polygon fill="#FFFFFF" points="171,161 182.7,161 186.6,147 171,147 	"/>
	<path fill="#FFFFFF" d="M58.4,86C52.8,86,48,90.3,48,95.9v107.6c0,5.7,4.8,10.4,10.4,10.4H65V86H58.4z M56.5,167.4
		c-1.9,0-3.5-1.6-3.5-3.5v-27c0-1.9,1.6-3.5,3.5-3.5s3.5,1.6,3.5,3.5v27C60,165.9,58.4,167.4,56.5,167.4z"/>
	<rect x="142" y="121" fill="#FFFFFF" width="20" height="17"/>
	<rect x="142" y="147" fill="#FFFFFF" width="20" height="14"/>
	<polygon fill="#FFFFFF" points="133,138 133,121 114.8,121 120.3,138 	"/>
	<polygon fill="#FFFFFF" points="193.7,121 171,121 171,138 189,138 	"/>
	<polygon fill="#FFFFFF" points="123.2,147 127.7,161 133,161 133,147 	"/>
	<path fill="#FFFFFF" d="M240.5,214c5.7,0,9.5-4.8,9.5-10.4V95.9c0-5.7-3.8-9.9-9.5-9.9H229v128H240.5z M238.8,143.6
		c3.4,0,6.2,2.8,6.2,6.2s-2.8,6.2-6.2,6.2c-3.4,0-6.2-2.8-6.2-6.2S235.4,143.6,238.8,143.6z"/>
	<path fill="#FFFFFF" d="M75,86v128h144V86H75z M134,173.1c6.1,0,11.3,3.9,12.8,9.9h18.7c1.5-6,6.6-9.9,12.8-9.9
		c7.3,0,13.2,5.9,13.2,13.2s-5.9,13.2-13.2,13.2c-5.2,0-9.7-3.4-11.9-7.4h-20.5c-2.1,4-6.6,7.4-11.9,7.4c-7.3,0-13.2-5.9-13.2-13.2
		c0-3.1,1.1-6,2.9-8.3l-3.3-10.2c-0.2-0.3-0.3-0.6-0.4-0.9l-15.8-49c-0.1-0.4-0.2-0.7-0.2-1.1l-2.5-7.7h-15c-2.5,0-4.5-2-4.5-4.5
		s2-4.5,4.5-4.5h18.3c2,0,3.7,1.3,4.3,3.1l2.9,8.9h24c0.6,0,1.3-0.5,2-0.5s1.4,0.5,2,0.5h25c0.6,0,1.3-0.5,2-0.5s1.4,0.5,2,0.5h30.6
		c1.4,0,2.7,0.6,3.6,1.7c0.9,1.1,1.1,2.6,0.8,3.9l-7.1,25.6c0,0.2-0.1,0.4-0.1,0.5l-6.3,22.9c-0.5,2-2.3,3.3-4.3,3.3h-55.5l1.1,3.3
		C132.4,173.2,133.2,173.1,134,173.1z"/>
	<path fill="#CCCCCC" d="M129.8,186.2c0,2.3,1.9,4.2,4.2,4.2s4.2-1.9,4.2-4.2s-1.9-4.2-4.2-4.2S129.8,183.9,129.8,186.2z"/>
	<path fill="#CCCCCC" d="M174,186.2c0,2.3,1.9,4.2,4.2,4.2s4.2-1.9,4.2-4.2s-1.9-4.2-4.2-4.2S174,183.9,174,186.2z"/>
	<g>
		<path fill="#5980B7" d="M261,96.3c0-11.2-9.1-20.3-20.3-20.3H58.3C47.1,76,38,85.1,38,96.3v107.4c0,11.2,9.1,20.3,20.3,20.3h182.4
			c11.2,0,20.3-9.1,20.3-20.3V96.3z M58.4,214c-5.7,0-10.4-4.8-10.4-10.4V95.9c0-5.7,4.8-9.9,10.4-9.9H65v127.9v0.1H58.4z M75,213.9
			V86h144v127.9v0.1H75V213.9z M250,203.6c0,5.7-3.8,10.4-9.5,10.4H229v-0.1V86h11.5c5.7,0,9.5,4.3,9.5,9.9V203.6z"/>
		<circle fill="#5980B7" cx="238.8" cy="149.7" r="6.2"/>
		<path fill="#5980B7" d="M199.6,112H169c-0.6,0-1.3-0.5-2-0.5s-1.4,0.5-2,0.5h-25c-0.6,0-1.3-0.5-2-0.5s-1.4,0.5-2,0.5h-24
			l-2.9-8.9c-0.6-1.9-2.3-3.1-4.3-3.1H86.5c-2.5,0-4.5,2-4.5,4.5s2,4.5,4.5,4.5h15l2.5,7.7c0,0.4,0.1,0.7,0.2,1.1l15.8,49
			c0.1,0.3,0.3,0.6,0.4,0.9l3.3,10.2c-1.8,2.3-2.9,5.1-2.9,8.3c0,7.3,5.9,13.2,13.2,13.2c5.2,0,9.7-3.4,11.9-7.4h20.5
			c2.1,4,6.6,7.4,11.9,7.4c7.3,0,13.2-5.9,13.2-13.2s-5.9-13.2-13.2-13.2c-6.1,0-11.3,3.9-12.8,9.9h-18.7c-1.5-6-6.6-9.9-12.8-9.9
			c-0.8,0-1.6,0.1-2.3,0.2l-1.1-3.3h55.5c2,0,3.8-1.4,4.3-3.3l6.3-22.9c0.1-0.2,0.1-0.4,0.1-0.6l7.1-25.6c0.4-1.4,0.1-2.8-0.8-3.9
			C202.4,112.6,201,112,199.6,112z M178.2,182c2.3,0,4.2,1.9,4.2,4.2s-1.9,4.2-4.2,4.2s-4.2-1.9-4.2-4.2S175.9,182,178.2,182z
			 M189,138h-18v-17h22.7L189,138z M162,138h-20v-17h20V138z M133,121v17h-12.7l-5.5-17H133z M134,182c2.3,0,4.2,1.9,4.2,4.2
			s-1.9,4.2-4.2,4.2s-4.2-1.9-4.2-4.2S131.7,182,134,182z M127.7,161l-4.5-14h9.8v14H127.7z M142,147h20v14h-20V147z M182.7,161H171
			v-14h15.6L182.7,161z"/>
		<path fill="#5980B7" d="M56.5,133.4c-1.9,0-3.5,1.6-3.5,3.5v27c0,1.9,1.6,3.5,3.5,3.5s3.5-1.6,3.5-3.5v-27
			C60,135,58.4,133.4,56.5,133.4z"/>
	</g>
</g>
</svg>
