<?xml version="1.0" encoding="utf-8"?>
<!-- Generator: Adobe Illustrator 18.1.1, SVG Export Plug-In . SVG Version: 6.00 Build 0)  -->
<svg version="1.1" id="Layer_1" xmlns="http://www.w3.org/2000/svg" xmlns:xlink="http://www.w3.org/1999/xlink" x="0px" y="0px"
	 viewBox="0 0 300 300" enable-background="new 0 0 300 300" xml:space="preserve">
<g>
	<path fill="#FFFFFF" d="M116.8,204.1l1.9,6.1c0.9,2.9-0.7,6-3.6,6.9c-0.5,0.2-1.1,0.3-1.6,0.3c-2.3,0-4.5-1.5-5.2-3.9l-3.1-9.4
		l-5.1,0v17.4c0,3-2.5,5.5-5.5,5.5s-5.5-2.5-5.5-5.5v-17.4l-5.1,0l-2.9,9.6c-0.7,2.4-2.9,3.9-5.2,3.9c-0.5,0-1.1-0.1-1.6-0.3
		c-2.9-0.9-4.5-4-3.6-6.9l2-6.3l-8.5-0.2L48.3,240h62.3l15.7-32.3l-1.8-3.7L116.8,204.1z"/>
	<polygon fill="#FFFFFF" points="123,181 65.8,181 65.9,192 123,192 	"/>
	<path fill="#CCCCCC" d="M94.6,152h3.8c3.3-7,10.5-15.4,23-18.8l-53.9,0.1C75.3,135.1,89.8,140,94.6,152z"/>
	<path fill="#FFFFFF" d="M86.2,96.3c0-3.8-10.6-9.7-17.4-9.7c-0.5,0-0.8,0-1,0.1c-0.3,1.1-0.2,4-0.2,6c0,1.2,0.1,2.4,0.1,3.6
		c0,5.3,4.2,9.7,9.3,9.7S86.2,101.6,86.2,96.3z"/>
	<path fill="#FFFFFF" d="M124.3,96.3c0-1.2,0-2.5,0.1-3.6c0.1-2,0.1-4.8-0.2-6c-0.2,0-0.5-0.1-1-0.1c-6.8,0-17.4,5.9-17.4,9.7
		c0,5.3,4.2,9.7,9.3,9.7C120.1,106,124.3,101.6,124.3,96.3z"/>
	<polygon fill="#FFFFFF" points="122.9,240 141.7,240 242.2,240 194.5,156 163.5,156 	"/>
	<path fill="#FFFFFF" d="M197.8,96.1c-7.7,0-13.8,7.9-13.9,7.9c-1,1.3-2.4,2.1-4,2.2c-1.6,0.1-3.2-0.5-4.3-1.6
		c-6.2-6.4-11.9-9.7-16.6-9.7c-5.1,0-8.6,3.8-10.1,6.2l9.6,26.9H199l9.3-27.1c-0.1-0.1-0.1-0.1-0.2-0.2
		C204.7,97.5,201.2,96.1,197.8,96.1z"/>
	<path fill="#FFFFFF" d="M235.2,166.1l17.8-8l-8.5-22.2l-12-5.1l-5.7,13.6L235.2,166.1z M236,138.2c1.9-0.9,4.2,0.2,5,2.3
		c0.8,2.2-0.1,4.6-2.1,5.5c-1.9,0.9-4.2-0.2-5-2.3C233.1,141.6,234,139.1,236,138.2z"/>
	<polygon fill="#CCCCCC" points="193.5,144 195.3,139 162.6,139 164.3,144 	"/>
	<g>
		<path fill="#5980B7" d="M61.1,143.8c0.2,0,21.8,2.4,23.9,14.9c0.5,2.6,2.8,4.4,5.5,4.4h11.7c2.5,0,4.6-1.4,5.3-3.8
			c0-0.2,4.6-15.6,23.4-16.2c3-0.1,5.2-2.4,5.2-5.4v-9.7c0-1.5-0.4-3.1-1.5-4.1c-1-1-2.3-1.8-3.7-1.8c0,0,0,0,0,0l-69.1,0.5
			c-3,0-5.6,2.7-5.6,5.7v10.1C56,141.1,58.3,143.5,61.1,143.8z M121.4,133.2c-12.4,3.4-19.7,11.8-23,18.8h-3.8
			c-4.8-12-19.3-16.9-27.1-18.6L121.4,133.2z"/>
		<path fill="#5980B7" d="M265.2,159l-11.1-29.2c-0.5-1.4-1.6-2.5-3-3.1l-18.6-7.9c-3.5-13.3-14.4-26.5-24.4-31.1V54.4
			c0-3-2.5-5.5-5.5-5.5s-5.5,2.5-5.5,5.5v30.7c-8,0.2-14.1,4.4-18,7.9c-6.5-5.6-13-8.7-19-9.1V54.4c0-3-2.5-5.5-5.5-5.5
			s-5.5,2.5-5.5,5.5v31.9c-4,2.2-6.9,5.3-8.8,7.9c0,0,0.1-0.2,0.1-0.2h-5c0,0-0.1-0.8-0.1-1.2c0.1-3.6-0.2-7.1-1.2-10.3V59.4
			c0-3-2.5-5.5-5.5-5.5s-5.5,2.5-5.5,5.5v16.3c0,0,0.1,0,0,0c-8.2,0-22.8,5.7-27.1,15.1c-4.3-9.4-19.1-15.1-27.3-15.1
			c-0.5,0-0.6,0-1.6,0.1V59.4c0-3-2.5-5.5-5.5-5.5S56,56.3,56,59.4v27c0,0.6,0.2,1.2,0.4,1.7c-0.1,1.6,0,3.1,0.1,4.7
			c0,0.5,0.1,1.2,0.1,1.2h-6.3c-3,0-5.5,2.5-5.5,5.5s2.5,5.5,5.5,5.5h8.4c3.3,7,10.2,11.6,18.2,11.6S91.8,112,95.1,105h1.7
			c3.3,7,10.2,11.6,18.2,11.6c8,0,14.9-4.6,18.2-11.6h5.3l15.6,44.9L134,191.5v-15.6c0-3-2.2-5.9-5.2-5.9H60.3
			c-1.5,0-2.9,0.8-3.9,1.8s-1.6,2.6-1.6,4l0.2,20.9l-20.1,46.9c-0.7,1.7-0.6,3.5,0.5,5c1,1.5,2.7,2.3,4.6,2.3h211.7
			c2,0,3.8-0.8,4.8-2.5c1-1.7,1-3.7,0-5.4l-52.9-93.3L217,110c0,0,0,0,0,0c2,3,4,7.2,5.3,13c0.2,0.7,0.4,1.3,0.8,1.8l-7.2,17.3
			c-0.5,1.3-0.6,2.7-0.1,4.1l11.1,29.2c0.5,1.4,1.6,2.5,3,3.1c0.7,0.3,1.4,0.4,2.1,0.4c0.8,0,1.5-0.2,2.3-0.5l27.9-12.6
			C264.9,164.7,266.2,161.7,265.2,159z M76.9,106c-5.1,0-9.3-4.3-9.3-9.7c0-1.2,0-2.5-0.1-3.6c-0.1-2-0.1-4.8,0.2-6
			c0.2,0,0.5-0.1,1-0.1c6.8,0,17.4,5.9,17.4,9.7C86.2,101.6,82,106,76.9,106z M124.3,92.7c0,1.2-0.1,2.4-0.1,3.6
			c0,5.3-4.2,9.7-9.3,9.7c-5.1,0-9.3-4.3-9.3-9.7c0-3.8,10.6-9.7,17.4-9.7c0.5,0,0.8,0,1,0.1C124.5,87.8,124.4,90.7,124.3,92.7z
			 M159,94.8c4.7,0,10.4,3.4,16.6,9.8c1.1,1.2,2.7,1.8,4.3,1.7c1.6-0.1,3.1-0.9,4-2.2c0.1-0.1,6.1-7.9,13.9-7.9
			c3.4,0,6.9,1.6,10.4,4.7c0,0,0,0,0,0c0.1,0.1,0.1,0,0.2,0.2l-9.3,27h-40.6l-9.6-26.9C150.4,98.7,153.9,94.8,159,94.8z M162.6,139
			h32.7l-1.8,5h-29.2L162.6,139z M123,181v11H65.9l-0.1-11H123z M110.7,240H48.3L64,203.6l8.5,0.1l-2,6.4c-0.9,2.9,0.7,6,3.6,6.9
			c0.5,0.2,1.1,0.3,1.6,0.3c2.3,0,4.5-1.5,5.2-3.9l2.8-9.6l5.1,0v17.4c0,3,2.5,5.5,5.5,5.5s5.5-2.5,5.5-5.5V204l5.1,0l3,9.4
			c0.7,2.4,2.9,3.9,5.3,3.9c0.5,0,1.1-0.1,1.7-0.3c2.9-0.9,4.5-4,3.6-6.9l-1.9-6.1l7.8,0l1.8,3.6L110.7,240z M242.2,240H122.9
			l40.6-84h31L242.2,240z M235.2,166.1l-8.3-21.7l5.7-13.6l12,5.1l8.5,22.2L235.2,166.1z"/>
		<path fill="#5980B7" d="M236,138.2c-1.9,0.9-2.9,3.3-2.1,5.5c0.8,2.2,3,3.2,5,2.3c1.9-0.9,2.9-3.3,2.1-5.5
			C240.1,138.4,237.9,137.3,236,138.2z"/>
	</g>
</g>
</svg>
