<?xml version="1.0" encoding="utf-8"?>
<!-- Generator: Adobe Illustrator 18.1.1, SVG Export Plug-In . SVG Version: 6.00 Build 0)  -->
<svg version="1.1" id="Layer_1" xmlns="http://www.w3.org/2000/svg" xmlns:xlink="http://www.w3.org/1999/xlink" x="0px" y="0px"
	 viewBox="0 0 300 300" enable-background="new 0 0 300 300" xml:space="preserve">
<g>
	<path fill="#FFFFFF" d="M82,102v95h79v-95H82z M146.6,131.6l-20.8,34.9c-0.8,1.3-2.2,2.2-3.7,2.4c-0.2,0-0.4,0-0.6,0
		c-1.3,0-2.6-0.5-3.6-1.5l-14.8-14.9c-1.9-2-1.9-5.1,0-7.1c2-1.9,5.1-1.9,7.1,0l1,1l9.3,9.4l13-21.9l4.5-7.5
		c1.4-2.4,4.5-3.2,6.9-1.7C147.3,126.2,148.1,129.2,146.6,131.6z"/>
	<path fill="none" d="M245.2,149.6c0.7,0.9,1.1,2,1.1,3.1C246.3,151.6,246,150.5,245.2,149.6z"/>
	<path fill="#CCCCCC" d="M171,103v6v1h33.4c2.8,0,4.6,1.2,4.6,4v13h7v-24H171z"/>
	<path fill="#5980B7" d="M171,103h45v24h1h9V97.4c0-2.8-1.3-4.4-4-4.4h-51v9.4V103z"/>
	<polygon fill="#FFFFFF" points="174,120 174,127 199.4,127 199,127 199,120 	"/>
	<path fill="#5980B7" d="M204.4,110H171v16v1h3.3H174v-7h25v7h10.4H209v-13C209,111.2,207.2,110,204.4,110z"/>
	<polygon fill="#CCCCCC" points="241.3,148 248,148 248,137 171,137 171,148 	"/>
	<path fill="#5980B7" d="M253.1,127H227h-0.5H217h-0.5h-7h-0.1h-9.9h-0.1h-24.9h-0.2H171v9v1h77v11h-6.7c1.5,0,3,0.7,3.9,1.9
		c0.7,0.9,1.1,1.9,1.1,3c0,0.4,0,1.1-0.1,1.5l-0.8,3.7h7.7c2.8,0,4.9-2.3,4.9-5.1v-22C258,128.2,255.9,127,253.1,127z"/>
	<path fill="#CCCCCC" d="M171,212.4v0.6h51.3l12.7-55h-64v-0.1V212.4z M202,196.3l7.7-27.6c0.7-2.7,3.5-4.2,6.2-3.5
		c2.7,0.7,4.2,3.5,3.5,6.2l-7.7,27.6c-0.6,2.2-2.6,3.7-4.8,3.7c-0.4,0-0.9-0.1-1.3-0.2C202.8,201.7,201.3,199,202,196.3z M182,170.4
		c0-2.8,2.2-5,5-5s5,2.2,5,5v27c0,2.8-2.2,5-5,5s-5-2.2-5-5V170.4z"/>
	<path fill="#5980B7" d="M246.3,152.7c0-1.1-0.4-2-1.1-2.8c-0.9-1.2-2.4-1.9-3.9-1.9H171v-0.1V158h64l-12.7,55H171v7.5
		c0,0.6,0.6,1.5,0.5,2.5h54.8c2.3,0,4.3-1.9,4.9-4.2l14.1-60.8l0.1-0.6l0.8-3.5C246.3,153.6,246.3,153.1,246.3,152.7z"/>
	<path fill="#5980B7" d="M187,202.4c2.8,0,5-2.2,5-5v-27c0-2.8-2.2-5-5-5s-5,2.2-5,5v27C182,200.2,184.2,202.4,187,202.4z"/>
	<path fill="#5980B7" d="M205.5,202.5c0.4,0.1,0.9,0.2,1.3,0.2c2.2,0,4.2-1.5,4.8-3.7l7.7-27.6c0.7-2.7-0.8-5.4-3.5-6.2
		c-2.7-0.7-5.4,0.8-6.2,3.5l-7.7,27.6C201.3,199,202.8,201.7,205.5,202.5z"/>
	<path fill="#FFFFFF" d="M161,79.2c0-4.3-2.9-7.2-7.2-7.2H90.1c-4.3,0-8.1,2.9-8.1,7.2V92h79V79.2z M133.5,87h-23c-2.8,0-5-2.2-5-5
		s2.2-5,5-5h23c2.8,0,5,2.2,5,5S136.3,87,133.5,87z"/>
	<path fill="#FFFFFF" d="M82,220.5c0,4.3,3.9,8.5,8.1,8.5h63.7c4.3,0,7.2-4.2,7.2-8.5V207H82V220.5z M122,210.6c3.8,0,6.8,3,6.8,6.8
		c0,3.8-3,6.8-6.8,6.8c-3.8,0-6.8-3-6.8-6.8C115.2,213.7,118.2,210.6,122,210.6z"/>
	<path fill="#5980B7" d="M171,212.4v-54.5v-0.5v-9.5v-0.5v-11V136v-9.5V126v-16.5V109v-6.6v0v-10v0V79.2c0-9.8-7.4-17.2-17.2-17.2
		H90.1C80.4,62,72,69.4,72,79.2v141.3c0,9.8,8.4,18.5,18.1,18.5h63.7c9.1,0,16.4-7.3,17.3-16.2c0.1-0.6-0.2-1.6-0.2-2.3V212.4
		L171,212.4z M161.6,197h1.9c2.8,0,5,2.2,5,5s-2.2,5-5,5h-1.9H161v13.5c0,4.3-2.9,8.5-7.2,8.5H90.1c-4.3,0-8.1-4.2-8.1-8.5V207h0.4
		h-2.9c-2.8,0-5-2.2-5-5s2.2-5,5-5h2.9H82v-95h0.4h-2.9c-2.8,0-5-2.2-5-5s2.2-5,5-5h2.9H82V79.2c0-4.3,3.9-7.2,8.1-7.2h63.7
		c4.3,0,7.2,2.9,7.2,7.2V92h0.6h1.9c2.8,0,5,2.2,5,5s-2.2,5-5,5h-1.9H161v95H161.6z"/>
	<path fill="#5980B7" d="M82.4,197h-2.9c-2.8,0-5,2.2-5,5s2.2,5,5,5h2.9h0.1h79h0.1h1.9c2.8,0,5-2.2,5-5s-2.2-5-5-5h-1.9h-0.1H82.4
		L82.4,197z"/>
	<path fill="#5980B7" d="M161.6,102h1.9c2.8,0,5-2.2,5-5s-2.2-5-5-5h-1.9h-0.1h-79h-0.1h-2.9c-2.8,0-5,2.2-5,5s2.2,5,5,5h2.9h0.1
		H161.6L161.6,102z"/>
	<path fill="#5980B7" d="M133.5,77h-23c-2.8,0-5,2.2-5,5s2.2,5,5,5h23c2.8,0,5-2.2,5-5S136.3,77,133.5,77z"/>
	<circle fill="#5980B7" cx="122" cy="217.4" r="6.8"/>
	<path fill="#5980B7" d="M60.5,114.9c-2.5,0-4.5,2-4.5,4.5v60c0,2.5,2,4.5,4.5,4.5s4.5-2,4.5-4.5v-60C65,117,63,114.9,60.5,114.9z"
		/>
	<path fill="#5980B7" d="M45.5,132.9c-2.5,0-4.5,2-4.5,4.5v23c0,2.5,2,4.5,4.5,4.5s4.5-2,4.5-4.5v-23C50,135,48,132.9,45.5,132.9z"
		/>
	<path fill="#5980B7" d="M144.9,124.7c-2.4-1.4-5.4-0.6-6.9,1.7l-4.5,7.5l-13,21.9l-9.3-9.4l-1-1c-1.9-2-5.1-2-7.1,0
		c-2,1.9-2,5.1,0,7.1l14.8,14.9c0.9,1,2.2,1.5,3.6,1.5c0.2,0,0.4,0,0.6,0c1.5-0.2,2.9-1.1,3.7-2.4l20.8-34.9
		C148.1,129.2,147.3,126.2,144.9,124.7z"/>
</g>
</svg>
