<?xml version="1.0" encoding="utf-8"?>
<!-- Generator: Adobe Illustrator 18.1.1, SVG Export Plug-In . SVG Version: 6.00 Build 0)  -->
<svg version="1.1" id="Layer_1" xmlns="http://www.w3.org/2000/svg" xmlns:xlink="http://www.w3.org/1999/xlink" x="0px" y="0px"
	 viewBox="0 0 300 300" enable-background="new 0 0 300 300" xml:space="preserve">
<g>
	<polygon fill="none" points="220,101.2 220.7,100 220,99.7 	"/>
	<path fill="#CCCCCC" d="M51.3,126c2.5-0.8,5.5-1.6,8.7-1.6c-0.7-2.7-1.3-5.5-1.9-8.4c-1.4-6.8-2.5-13.5-3.2-18.9
		c-3.2,2.1-6.3,4.4-8.9,6.5C47.4,111.4,49.1,119.2,51.3,126z"/>
	<path fill="#CCCCCC" d="M55.2,136.2c2.1,4.4,4.4,7.6,6.9,8.8c1.9,0.9,4,1.7,6.4,2.3c-1.8-3.2-3.5-7-5.1-11.5
		C60.7,134.9,57.6,135.4,55.2,136.2z"/>
	<path fill="#CCCCCC" d="M44,91.1c2.6-1.9,5.9-4.1,9.4-6.2c-0.1-0.9-0.1-1.5-0.1-1.6c-0.2-1.9,0.7-3.7,2.2-4.9
		c2.6-1.9,5.5-3.8,8.5-5.4c-5.5,1.2-14,4.7-20.9,9.3C43.3,85.1,43.6,88.1,44,91.1z"/>
	<path fill="#FFFFFF" d="M85.8,139.3c-2.9-1.3-6.4-0.8-9.1,0.1c2.1,4.4,4.4,7.6,6.9,8.8c2.6,1.3,6,2.2,9.7,2.6
		C91.9,145.9,89.6,141.1,85.8,139.3z"/>
	<path fill="#FFFFFF" d="M67.4,106.9c1.4,7.8,3.2,15.6,5.3,22.2c4.6-1.6,11.2-2.7,17.6,0.2c7.1,3.2,11.9,10.5,14.2,21.5
		c12.9-1.4,25.3-7.4,25.9-16.4c0.1-2.3-0.2-3.9-1-4.8c-2-2.2-8.4-2.2-11.1-2.2c-1.1,0-2.1,0-3.2,0c-1.1,0-2.1,0-3.2,0
		c-5.2,0-9.3-0.4-12.7-2.1c-6.4-3.3-8.2-12.8-9.5-28C83,98.8,73.5,103.3,67.4,106.9z"/>
	<path fill="#FFFFFF" d="M88.9,86.5c-0.3-4-0.7-8.3-1.3-10.7c-5.3,0.5-15.2,4.4-23.2,9.7c0.3,3.1,0.7,6.4,1.1,9.8
		C71.4,92.2,80.7,87.8,88.9,86.5z"/>
	<path fill="#CCCCCC" d="M157.8,241l15.3-58.3c0.6-2.3,2.7-4.1,5.1-4.2c2.4-0.1,4.6,1.5,5.4,3.8l19.2,56.6h11.9l-4.4-72h-65.6
		l-1.7,74H157.8z"/>
	<path fill="#FFFFFF" d="M240.2,169.2l15.7-7.7l-7.9-22.4l-10.3-4.8l-5.1,13.4L240.2,169.2z M240.6,141.6c1.8-0.9,3.8,0.2,4.6,2.3
		c0.7,2.2-0.1,4.6-1.9,5.5s-3.8-0.2-4.6-2.3C237.9,144.9,238.8,142.5,240.6,141.6z"/>
	<polygon fill="#FFFFFF" points="168.2,78.4 161.8,72 163.7,81.9 	"/>
	<path fill="#FFFFFF" d="M199.5,92.8c-0.4,1.8-1.6,3.4-3.4,4.1c-1.7,0.7-3.7,0.4-5.2-0.7l-14.3-10.4l-13.3,10.3
		c-1,0.8-2.2,1.2-3.4,1.2c-0.7,0-1.3-0.1-1.9-0.4c-1.8-0.7-3.1-2.1-3.5-4L148.2,60h-4.8l-28.1,11l8.6,21.9l13.5-6.2
		c1.7-0.8,3.7-0.6,5.2,0.4c1.6,1,2.5,2.7,2.5,4.6V156h64V91.7c0-1.8,0.9-3.5,2.4-4.5c1.5-1,3.4-1.3,5.1-0.6l16.2,6.2l10-21.9
		L215.2,60h-7.9l-1.5,1.2L199.5,92.8z M199,119h-12c-3,0-5.5-2.5-5.5-5.5s2.5-5.5,5.5-5.5h12c3,0,5.5,2.5,5.5,5.5S202.1,119,199,119
		z"/>
	<polygon fill="#FFFFFF" points="190.4,60 165.1,60 176.8,71.7 	"/>
	<polygon fill="#FFFFFF" points="192.3,72.6 185.4,78.6 190.4,82.2 	"/>
	<rect x="55" y="184" fill="#FFFFFF" width="76" height="7"/>
	<path fill="#FFFFFF" d="M55,207.3c12,1.6,28.1,8.7,30.8,26.7h17.4c2.6-17,16.8-24.5,27.8-26.5V202H55V207.3z"/>
	<g>
		<path fill="#5980B7" d="M268,162.5l-10.3-29.2c-0.5-1.4-1.5-2.5-2.9-3.2l-16.9-7.8c-2.2-9.1-5.8-15.2-9-19.1l4.7,1.8
			c2.7,1,5.8-0.2,7-2.9l14.5-32c0.6-1.4,0.7-2.9,0.1-4.3c-0.6-1.4-1.7-2.5-3.1-3.1l-33.8-13.4c-0.7-0.3-1.3-0.3-2-0.3h-74
			c-0.7,0-1.4,0-2,0.3l-34.2,13.5c-2.8,1.1-4.2,4.3-3.1,7.1l12.7,32.4c0.5,1.4,1.7,2.5,3.1,3.1c1.4,0.6,3,0.5,4.3-0.1l10.9-5v19.2
			c-5-3-12.3-3-19-2.9c-1,0-2,0-3,0c-1.6,0-5.8,0-7.6-0.8c-2.5-2.6-3.3-16.8-4.3-24.5c0,0,0,0,0,0c0-0.3,0.1-0.6,0.1-0.9
			C99,75,98.4,66.5,91.6,65.1c-0.9-0.2-1.9-0.3-2.9-0.3c-3.4,0-7.9,1-12.6,2.7c-1.2-3.1-2.9-5-5.8-5.6c-0.9-0.2-1.9-0.3-3-0.3
			c-8.4,0-23,6-33.3,13.6c-1.5,1.1-2.4,3-2.2,4.9c0.1,0.6,1.3,16,4.8,32.6c5,24,11.7,37.8,20.7,42.2c6.5,3.2,15.1,5,24.2,5
			c0,0,0,0,0,0c0.5,0,1.1,0,1.6,0c4.6,1.5,10,2.3,15.8,2.3c13.1,0,27-4,35.2-11.9l-0.4,22.7H49.6c-3,0-5.6,2.5-5.6,5.5v33.9
			c0,3,2.5,5.5,5.6,5.5c1,0,25.6,0.3,25.6,21.5c0,3,2.5,5.6,5.5,5.6h27.6c3,0,5.5-2.5,5.5-5.6c0-8.4,3.6-14.4,11-18.1
			c2.7-1.3,5.4-2.2,7.6-2.7l-0.6,27.5c0,1.5,0.6,3,1.6,4.1c1,1.1,2.5,1.8,4,1.8h24.6c2.5,0,4.7-1.8,5.3-4.2l11.7-44.6l14.6,43
			c0.8,2.2,2.9,3.8,5.2,3.8h21.7c1.5,0,3-0.7,4-1.8c1-1.1,1.6-2.6,1.5-4.2l-5.1-83.1c-0.1-1,0-2-1-2.8v-48.4c3,2.8,5.7,8,7.5,16.6
			c0.1,0.7,0.4,1.3,0.8,1.9l-6.7,17.5c-0.5,1.2-0.5,2.6-0.1,3.8l10.3,29.2c0.5,1.5,1.7,2.7,3.1,3.3c0.7,0.3,1.4,0.4,2.1,0.4
			c0.8,0,1.7-0.2,2.4-0.6l25.7-12.6C267.7,168,268.9,165.1,268,162.5z M87.6,75.9c0.6,2.4,1,6.6,1.3,10.7
			c-8.3,1.2-17.5,5.7-23.3,8.8c-0.5-3.4-0.8-6.7-1.1-9.8C72.4,80.2,82.4,76.4,87.6,75.9z M45.9,103.5c2.6-2.1,5.6-4.4,8.9-6.5
			c0.8,5.5,1.8,12.1,3.2,18.9c0.6,3,1.3,5.8,1.9,8.4c-3.2,0.1-6.2,0.8-8.7,1.6C49.1,119.2,47.4,111.4,45.9,103.5z M63.9,73
			c-3,1.7-5.9,3.5-8.5,5.4c-1.5,1.1-2.4,3-2.2,4.9c0,0.1,0.1,0.7,0.1,1.6c-3.5,2-6.7,4.2-9.4,6.2c-0.4-3-0.7-5.9-1-8.7
			C49.9,77.7,58.4,74.2,63.9,73z M62.1,145c-2.5-1.2-4.8-4.4-6.9-8.8c2.5-0.8,5.5-1.3,8.2-0.5c1.6,4.5,3.3,8.3,5.1,11.5
			C66.1,146.7,63.9,145.9,62.1,145z M83.5,148.2c-2.5-1.2-4.8-4.4-6.9-8.8c2.8-0.9,6.3-1.4,9.1-0.1c3.9,1.8,6.1,6.5,7.4,11.5
			C89.5,150.4,86.2,149.5,83.5,148.2z M130.4,134.5c-0.6,9-13,15-25.9,16.4c-2.4-11.1-7.1-18.3-14.2-21.5c-6.4-2.9-13-1.8-17.6-0.2
			c-2.1-6.7-3.9-14.4-5.3-22.2c6.1-3.6,15.5-8.2,22.3-9.4c1.3,15.1,3.1,24.6,9.5,28c3.4,1.8,7.5,2.1,12.7,2.1c1,0,2.1,0,3.2,0
			c1,0,2.1,0,3.2,0c2.7,0,9.1,0,11.1,2.2C130.2,130.6,130.6,132.2,130.4,134.5z M190.4,60l-13.6,11.7L165.1,60H190.4z M192.3,72.6
			l-1.9,9.6l-5-3.7L192.3,72.6z M168.2,78.4l-4.5,3.5l-1.9-9.9L168.2,78.4z M55,184h76v7H55.1H55V184z M131,207.5
			c-11,2-25.2,9.5-27.8,26.5H85.8C83.1,216,67,208.9,55,207.3V202h0.1H131V207.5z M202.8,239l-19.2-56.6c-0.8-2.3-3-3.9-5.4-3.8
			c-2.4,0.1-4.5,1.8-5.1,4.2L157.8,241h-14.7l1.7-74h65.6l4.4,72H202.8z M216.5,86.6c-1.7-0.7-3.6-0.4-5.1,0.6
			c-1.5,1-2.4,2.7-2.4,4.5V156h-64V91.7c0-1.9-0.9-3.6-2.5-4.6c-1.6-1-3.5-1.2-5.2-0.4l-13.5,6.1L115.2,71l28.1-11h4.8l6.4,32.9
			c0.4,1.9,1.7,3.4,3.5,4.1c0.6,0.2,1.3,0.3,1.9,0.3c1.2,0,2.4-0.4,3.4-1.2l13.3-10.3l14.3,10.4c1.5,1.1,3.5,1.4,5.2,0.7
			c1.7-0.7,3-2.2,3.4-4.1l6.3-31.6l1.5-1.2h7.9l27.5,10.9l-10,22L216.5,86.6z M240.2,169.2l-7.5-21.5l5.1-13.4l10.3,4.8l7.9,22.4
			L240.2,169.2z"/>
		<path fill="#5980B7" d="M240.6,141.6c-1.8,0.9-2.7,3.3-1.9,5.5c0.7,2.2,2.8,3.2,4.6,2.3s2.7-3.3,1.9-5.5
			C244.4,141.8,242.4,140.7,240.6,141.6z"/>
		<path fill="#5980B7" d="M199,108h-12c-3,0-5.5,2.5-5.5,5.5s2.5,5.5,5.5,5.5h12c3,0,5.5-2.5,5.5-5.5S202.1,108,199,108z"/>
	</g>
</g>
</svg>
