<?xml version="1.0" encoding="utf-8"?>
<!-- Generator: Adobe Illustrator 18.1.1, SVG Export Plug-In . SVG Version: 6.00 Build 0)  -->
<svg version="1.1" id="Layer_1" xmlns="http://www.w3.org/2000/svg" xmlns:xlink="http://www.w3.org/1999/xlink" x="0px" y="0px"
	 viewBox="0 0 300 300" enable-background="new 0 0 300 300" xml:space="preserve">
<g>
	<path fill="none" d="M246.9,131c1.6,0,3,0.8,4,1.9l0,0C249.9,131.8,248.5,131,246.9,131z"/>
	<path fill="none" d="M96.7,161.1c-2.7,2.4-6.3,4-10.2,4c3.9,0,7.4-1.5,10.2-3.8c2.7,2.4,6.3,3.8,10.2,3.8
		C102.9,165,99.4,163.4,96.7,161.1C96.7,161.1,96.7,161.1,96.7,161.1z"/>
	<path fill="none" d="M198.4,75.2c1.1,3.4,1.9,6.8,2.3,10.3c0.1,0.9,0.2,1.9,0.2,2.8c-0.1-1-0.1-2.1-0.2-3.4c-0.4-3-1.2-7-2.3-10h0
		C198.3,75,198.3,75.1,198.4,75.2z"/>
	<path fill="none" d="M129.4,165c3.9,0,7.4-1.5,10.2-3.8c2.7,2.4,6.3,3.8,10.2,3.8c-3.9,0-7.4-1.6-10.1-3.9
		C136.9,163.5,133.3,165,129.4,165z"/>
	<path fill="none" d="M102,149.3c0,0,0,0.1,0,0.1c0,0.9,0.3,1.8,0.8,2.5C102.3,151.2,102,150.3,102,149.3z"/>
	<path fill="none" d="M225.4,161.2c1.2,1,2.3,1.8,4,2.4c-1.4-0.6-2.7-1.5-3.8-2.5C225.6,161.1,225.6,161.1,225.4,161.2
		C225.5,161.1,225.5,161.1,225.4,161.2z"/>
	<path fill="none" d="M231,149.3c0,0.4,0,0.8-0.1,1.2c0.5,1.8,1.9,3.1,3.7,3.5C232.5,153.5,231,151.6,231,149.3z"/>
	<path fill="none" d="M145,149.3c0,0.2,0,0.4,0,0.6c0.2,1.7,1.3,3.2,2.9,3.8C146.2,153,145,151.3,145,149.3z"/>
	<path fill="none" d="M201,89.1c0,1,0.1,1.9,0.1,2.9c0,0.4,0,0.8,0,1.2c0,0,0,0,0,0c0-0.4,0-1.1,0-1.1C201,91.1,201,90.1,201,89.1z"
		/>
	<path fill="none" d="M188,149.3c0,0.3,0,0.6-0.1,1c0.4,1.9,1.9,3.3,3.8,3.7C189.5,153.5,188,151.6,188,149.3z"/>
	<path fill="none" d="M209.2,135.8C209.2,135.8,209.2,135.8,209.2,135.8c0,0,0-0.1,0-0.1l-0.7-4.6l-1.7-10.3l1.7,10.5L209.2,135.8z"
		/>
	<path fill="none" d="M150.5,142.1c0.5,0,1.1,0,1.6,0c3.8,0,7.7-0.7,11.1-1.7c-3.6,0.9-7.3,1.5-11.1,1.6
		C151.6,142,151,142,150.5,142.1c-0.4-0.1-0.8-0.1-1.1-0.1c-1.4,0-2.8-0.1-4.3-0.3c1,0.2,2.8,0.3,4.3,0.3
		C149.8,142,150.1,142.1,150.5,142.1z"/>
	<path fill="none" d="M172.3,165c3.9,0,7.4-1.5,10.2-3.8c2.7,2.4,6.3,3.8,10.2,3.8c-3.9,0-7.4-1.6-10.1-3.9
		C179.8,163.5,176.2,165,172.3,165z"/>
	<path fill="none" d="M85.3,154c-2.7,0-4.3-2.1-4.3-4.8c0,0.6,0,1.2-0.1,1.8C81.6,152.8,83.3,154,85.3,154z"/>
	<path fill="none" d="M75.3,161.1c0,0-0.1,0.1-0.1,0.1c2.7,2.3,6.4,3.8,10.2,3.8C81.5,165,78,163.5,75.3,161.1z"/>
	<path fill="#FFFFFF" d="M215.3,165h-1.1c-3.9,0-7.4-1.5-10.2-3.8c-2.7,2.4-6.3,3.8-10.2,3.8h-1.1c-3.9,0-7.4-1.5-10.2-3.8
		c-2.7,2.4-6.3,3.8-10.2,3.8h-1.1c-3.9,0-7.4-1.5-10.2-3.8c-2.7,2.4-6.3,3.8-10.2,3.8h-1.1c-3.9,0-7.4-1.5-10.2-3.8
		c-2.7,2.4-6.3,3.8-10.2,3.8h-1.1c-3.9,0-7.4-1.5-10.2-3.8c-2.7,2.4-6.3,3.8-10.2,3.8h-1.1c-3.9,0-7.4-1.5-10.2-3.8
		c-2.7,2.4-6.3,3.8-10.2,3.8h-1.1c-3.8,0-7.5-1.5-10.2-3.8c-1.3,1.1-3,2.1-4.7,2.7c-0.1,0.1-0.3,0.1-0.5,0.2V248h10v-70.3
		c0-2.9,2.1-5.7,5-5.7h57.2c2.9,0,5.8,2.8,5.8,5.7V248h82v-84.2c-0.2-0.1-0.4-0.2-0.6-0.3c-1.6-0.6-2.8-1.4-4-2.4
		C222.7,163.5,219.1,165,215.3,165z M223,230.7c0,2.9-2.4,5.3-5.3,5.3h-58.3c-2.9,0-5.3-2.4-5.3-5.3v-53.3c0-2.9,2.4-5.3,5.3-5.3
		h58.3c2.9,0,5.3,2.4,5.3,5.3V230.7z"/>
	<path fill="#FFFFFF" d="M197.7,131l-2.5-15.9c-3.2,6.1-7.7,11.9-13.2,15.9h0.6H197.7z"/>
	<polygon fill="#FFFFFF" points="94.5,120.7 98.3,103 82.3,103 64,131 65.1,131 75.2,131 92.3,131 	"/>
	<polygon fill="#FFFFFF" points="204,103 206.8,120.7 208.5,131 225.4,131 235.5,131 237.6,131 220.8,103 	"/>
	<path fill="#FFFFFF" d="M118.8,131c-1.1-1-2.1-1.7-3-2.6c-1.2-1.1-2.4-2.4-3.4-3.7c-1.5-1.9-2.9-3.7-4-5.5c-0.7-1-1.3-2-1.9-3.1
		l-3.1,14.8h14.8H118.8z"/>
	<path fill="none" stroke="#5980B7" stroke-width="0" stroke-linecap="round" stroke-linejoin="round" d="M252.1,135.4
		c-0.1-0.3-0.2-0.6-0.3-0.9"/>
	<path fill="#FFFFFF" d="M234.6,153.9c0.3,0.1,0.6,0.1,1,0.1h1.1c2.7,0,5.3-2.1,5.3-4.7V142h-11v7.3
		C231,151.6,232.5,153.5,234.6,153.9z"/>
	<path fill="#FFFFFF" d="M209.2,150.6c0-0.5,0.1-0.9,0.1-1.4c0,2.7,2.2,4.8,4.8,4.8h1.1c2.7,0,4.7-2.1,4.7-4.7V142h-11v7.3
		C209,149.8,209.1,150.2,209.2,150.6z"/>
	<path fill="#FFFFFF" d="M191.7,153.9c0.3,0.1,0.6,0.1,1,0.1h1.1c2.7,0,5.2-2.1,5.2-4.7V142h-11v7.3
		C188,151.6,189.5,153.5,191.7,153.9z"/>
	<path fill="#FFFFFF" d="M166.3,150.8c0.1-0.5,0.1-1,0.1-1.6c0,2.7,2.2,4.8,4.8,4.8h1.1c2.7,0,4.7-2.1,4.7-4.7V142h-11v7.3
		C166,149.8,166.1,150.3,166.3,150.8z"/>
	<path fill="#FFFFFF" d="M149.4,142H145v7.3c0,2,1.2,3.7,2.9,4.4c0.6,0.2,1.2,0.4,1.9,0.4h1.1c2.7,0,5.1-2.1,5.1-4.7V142
		C156,142,149.8,142,149.4,142z"/>
	<path fill="#FFFFFF" d="M123.4,150.9c0.1-0.6,0.1-1.1,0.1-1.7c0,2.7,2.2,4.8,4.8,4.8h1.1c2.7,0,4.6-2.1,4.6-4.7V142h-11v7.3
		C123,149.9,123.1,150.4,123.4,150.9z"/>
	<path fill="#FFFFFF" d="M106.8,154h1.1c2.7,0,5.1-2.1,5.1-4.7V142h-11v7.3c0,1,0.3,1.9,0.8,2.6C103.7,153.2,105.1,154,106.8,154z"
		/>
	<path fill="#FFFFFF" d="M85.3,154h1.1c2.7,0,4.5-2.1,4.5-4.7V142H81v7.3C81,151.9,82.7,154,85.3,154z"/>
	<path fill="#FFFFFF" d="M63.9,154H65c2.7,0,5-2.1,5-4.7V142H59v7.3C59,151.9,61.2,154,63.9,154z"/>
	<path fill="#FFFFFF" d="M90,248h47v-65H90V248z M132,210c0,2.2-1.8,4-4,4H99c-2.2,0-4-1.8-4-4v-17c0-2.2,1.8-4,4-4h29
		c2.2,0,4,1.8,4,4V210z M132,240c0,2.2-1.8,4-4,4H99c-2.2,0-4-1.8-4-4v-17c0-2.2,1.8-4,4-4h29c2.2,0,4,1.8,4,4V240z"/>
	<path fill="#FFFFFF" d="M100,92L100,92c0-1,0-1.9,0-2.9c0-0.2,0-0.5,0-0.7c0.1-1,0.1-2.4,0.2-3.4H84v7H100L100,92L100,92z"/>
	<path fill="#FFFFFF" d="M201,92h18v-7h-18.3c0.1,1,0.2,2.4,0.2,3.4c0,0.2,0,0.5,0,0.7C201,90.1,201,91,201,92z"/>
	<path fill="#CCCCCC" d="M164.4,109.5c-3.9,3-8.7,4.7-13.6,4.7c-2.3,0-4.5-0.3-6.6-1l-11.5,14.8c5.5,2.7,11.6,4.1,17.9,4.1
		c9,0,17.6-2.9,24.7-8.5c8.6-6.6,14.1-16.2,15.4-26.9c0.6-4.4,0.4-8.8-0.4-13.1L173,91c0,1.2,0,2.4-0.1,3.6
		C172.1,100.5,169.1,105.8,164.4,109.5z"/>
	<path fill="#CCCCCC" d="M137.1,74.1c3.9-3,8.7-4.7,13.6-4.7c2.9,0,5.8,0.6,8.4,1.6l12.3-14.3c-6.2-3.8-13.4-5.8-21-5.8
		c-9,0-17.6,2.9-24.7,8.5c-8.6,6.6-14.1,16.2-15.4,26.9c-0.7,5.2-0.3,10.3,0.9,15.3l17.3-8.2C127.9,86.1,130.9,78.8,137.1,74.1z"/>
	<path fill="#FFFFFF" d="M170.4,81.2l16.7-7.2c-1.4-2.8-3.8-6.8-7.9-11l-11.9,13.8c0.4,0.4,0.7,0.8,1.1,1.3
		C169.2,79.1,169.8,80.1,170.4,81.2z"/>
	<path fill="#FFFFFF" d="M143.2,82c-5.4,4.2-6.4,11.9-2.2,17.3c2.4,3.1,5.9,4.8,9.8,4.8c2.7,0,5.4-0.9,7.5-2.6
		c2.6-2,4.3-4.9,4.7-8.2s-0.5-6.5-2.5-9.1c-2.4-3.1-5.9-4.8-9.8-4.8C148,79.4,145.4,80.3,143.2,82z M154.7,88.7
		c1.7,2.2,1.3,5.4-0.9,7.1c-2.2,1.7-5.4,1.3-7.1-0.9c-1.7-2.2-1.3-5.4,0.9-7.1C149.9,86.1,153,86.5,154.7,88.7z"/>
	<rect x="103" y="197" fill="#CCCCCC" width="20" height="10"/>
	<rect x="103" y="227" fill="#CCCCCC" width="20" height="9"/>
	<path fill="#FFFFFF" d="M164,226h48v-43h-48V226z M170.2,216.4c0.8-1.7,2.6-3,4.8-3.7c0.9-0.3,1.9-0.4,2.8-0.4c0.1,0,0.1,0,0.1,0
		v-19.1c0-1.4,1-2.6,2.4-2.9l19-4.2c0.9-0.2,1.8,0,2.5,0.6c0.7,0.6,1.1,1.4,1.1,2.3v8.6V211c0,0.1,0,0.1,0,0.2
		c0.2,0.9,0.1,1.8-0.3,2.7c-0.8,1.7-2.6,3-4.8,3.7c-0.9,0.3-1.9,0.4-2.8,0.4c-2.9,0-5.3-1.3-6.1-3.2c-0.5-1.1-0.4-2.3,0.1-3.4
		c0.8-1.7,2.6-3,4.8-3.7c0.9-0.3,1.9-0.4,2.8-0.4c0.1,0,0.3,0,0.4,0v-7.6l-12.8,2.6c-0.1,0-0.1,0-0.2,0v13.2
		c0.5,1.1,0.4,2.3-0.1,3.4c-0.8,1.7-2.6,3-4.8,3.7c-0.9,0.3-1.9,0.4-2.8,0.4c-2.9,0-5.3-1.3-6.1-3.2
		C169.6,218.8,169.7,217.6,170.2,216.4z"/>
	<g>
		<path fill="#5980B7" d="M252.1,135.7c0.1,0.3,0.1,0.6,0.1,0.9C252.2,136.3,252.2,136,252.1,135.7z"/>
		<path fill="#5980B7" d="M252,135.7c0-0.1,0-0.2,0-0.2c-0.1-0.3-0.1-0.6-0.2-0.9c0,0,0-0.2,0-0.2c0,0,0-0.1,0-0.1c0,0,0,0,0.1,0.1
			c-0.2-0.5-22.8-38.5-22.8-38.5V80.2c0-2.9-2.2-5.2-5.1-5.2h-25.5c0.2,1,0,0,0,0h0c0,0,0,0,0,0c0-0.1,0,0-0.1,0c0-0.1,0-0.1,0-0.1
			c-0.4-1.4-1.7-4.9-4.4-9.4c-1-1.7-2.1-3.3-3.3-4.9c-9.6-12.5-24.2-19.7-40-19.7c-11.3,0-21.9,3.6-30.9,10.5
			c-7.9,6.1-13.7,14.2-16.9,23.4c0,0.1,0,0.2-0.1,0.2H78.5c-2.9,0-5.5,2.2-5.5,5.2v16.9c0,0-25,37.7-25,39.5v12.7
			c0,7.1,5,13.3,11.6,15.1c0.1,0,0.3,0.1,0.4,0.1v89.2c0,2.9,2.2,5.4,5.1,5.4H85h57.2h93.3c2.9,0,5.5-2.4,5.5-5.4v-89.4
			c6.4-1.9,11-7.9,11-15v-12.7c0,0,0,0,0,0C252,136.3,252.1,136,252,135.7z M237.6,131h-2.1h-10.1H209v0.3l-1.9-10.6L204,103h16.8
			L237.6,131z M220,142v7.3c0,2.7-2.1,4.7-4.7,4.7h-1.1c-2.7,0-5.1-3.2-5.1-5.9V142H220z M219,85v7h-18c0,0,0,0,0,0c0,0,0-0.1,0-0.1
			c0-1,0-1.9-0.1-2.9c0-0.2,0-0.5,0-0.7c-0.1-1-0.1-1.9-0.2-2.9c0-0.2,0-0.5-0.1-0.5H219z M199,142v7.3c0,2.7-2.5,4.7-5.2,4.7h-1.1
			c-0.3,0-0.7,0-1-0.1c-1.9-0.4-3.4-1.8-3.8-3.7c0-0.3,0.1-0.6,0.1-1V142H199z M195.1,115.1l2.5,15.9h-15.2h-0.6
			C187.4,127,191.9,121.2,195.1,115.1z M190.7,96.6c-1.4,10.7-6.9,20.3-15.4,26.9c-7.2,5.5-15.7,8.5-24.7,8.5
			c-6.3,0-12.4-1.4-17.9-4.1l11.5-14.8c2.1,0.6,4.3,1,6.6,1c5,0,9.7-1.6,13.6-4.7c4.7-3.6,7.7-8.9,8.5-14.8c0.2-1.2,0.2-2.4,0.1-3.6
			l17.2-7.4C191.1,87.8,191.3,92.2,190.7,96.6z M177,142v7.3c0,2.7-2,4.7-4.7,4.7h-1.1c-2.7,0-5.2-2.7-5.2-5.4V142H177z M156,142
			v7.3c0,2.7-2.5,4.7-5.1,4.7h-1.1c-0.7,0-1.3-0.1-1.9-0.4c-1.6-0.6-2.7-2.1-2.9-3.8c0-0.2,0-0.4,0-0.6V142H156z M123,142h11v7.3
			c0,2.7-1.9,4.7-4.6,4.7h-1.1c-2.7,0-5.3-2.6-5.3-5.3V142z M114.9,110.8l16.5-7.8c0.5,0.8,1,1.6,1.6,2.4c0.7,0.9,1.5,1.8,2.4,2.6
			l-11.3,14.5C119.8,119,116.8,114.2,114.9,110.8z M143.2,82c2.2-1.7,4.8-2.6,7.5-2.6c3.9,0,7.4,1.8,9.8,4.8c2,2.6,2.9,5.9,2.5,9.1
			s-2.1,6.2-4.7,8.2c-2.2,1.7-4.8,2.6-7.5,2.6c-3.9,0-7.4-1.8-9.8-4.8C136.8,93.9,137.8,86.1,143.2,82z M187.2,74l-16.7,7.2
			c-0.6-1.1-1.2-2.1-2-3.1c-0.3-0.4-0.7-0.9-1.1-1.3L179.3,63C183.3,67.2,185.8,71.2,187.2,74z M110.3,86.3
			c1.4-10.7,6.9-20.3,15.4-26.9c7.2-5.5,15.7-8.5,24.7-8.5c7.6,0,14.8,2.1,21,5.8L159.1,71c-2.6-1.1-5.5-1.6-8.4-1.6
			c-5,0-9.7,1.6-13.6,4.7c-6.1,4.7-9.1,12.1-8.6,19.3l-17.3,8.2C109.9,96.6,109.6,91.5,110.3,86.3z M106,116.2L106,116.2
			c1,1,1.4,2,2.1,3c1.1,1.8,2.6,3.6,4.1,5.5c1.1,1.3,2.2,2.5,3.5,3.7c1,0.9,2,1.8,3.1,2.6c0.1,0.1,0.2,0.1,0.3,0.2
			c-0.3-0.1-0.6-0.3-1-0.3h-14.8L106,116.2z M102,149.3V142h11v7.3c0,2.7-2.4,4.7-5.1,4.7h-1.1c-1.7,0-3.1-0.8-4-2.1
			c-0.5-0.7-0.8-1.6-0.8-2.5C102,149.3,102,149.3,102,149.3z M84,85h16.3c0,0,0,0,0.1-0.2c0.3-2.4,0.3-2.3,0,0.2
			c0,0.2,0,0.4-0.1,0.5c-0.1,1-0.2,1.9-0.2,2.9c0,0.2,0,0.5,0,0.7c0,0.9-0.1,1.9-0.1,2.8c0,0,0,0,0,0s0,0,0,0c0,0.1,0,0.1,0,0.2
			c0-0.1,0-0.2,0-0.2H84V85z M82.3,103h16l-3.9,17.7L92.3,131H75.2H65.1H64L82.3,103z M91,142v7.3c0,2.7-1.9,4.7-4.5,4.7h-1.1
			c-2,0-3.7-1.2-4.5-2.9c0.1-0.6,0.1-1.2,0.1-1.8V142H91z M65,154h-1.1c-2.7,0-4.9-2.1-4.9-4.7V142h11v7.3C70,151.9,67.7,154,65,154
			z M137,248H90v-65h47V248z M230,248h-82v-70.3c0-2.9-2.9-5.7-5.8-5.7H85c-2.9,0-5,2.8-5,5.7V248H70v-83.9c0.2-0.1,0.3-0.1,0.5-0.2
			c1.6-0.6,3.3-1.6,4.7-2.7c0,0,0.1-0.1,0.1-0.1c2.7,2.3,6.2,3.9,10.1,3.9h1.1c3.9,0,7.4-1.6,10.2-3.9c0,0,0,0,0,0
			c2.7,2.4,6.3,4,10.1,4h1.1c3.9,0,7.2-1.6,9.9-3.9c0,0,0-0.1,0.1-0.1c2.7,2.3,6.5,4,10.3,4h1.1c3.9,0,7.5-1.6,10.2-3.9
			c2.7,2.4,6.3,3.9,10.1,3.9h1.1c3.9,0,7.3-1.6,10-3.9c0,0,0,0,0-0.1c2.7,2.3,6.5,4,10.3,4h1.1c3.9,0,7.5-1.6,10.2-3.9
			c2.7,2.4,6.2,3.9,10.1,3.9h1.1c3.8,0,7.2-1.5,9.9-3.9c2.7,2.3,6.6,3.9,10.4,3.9h1.1c3.8,0,7.5-1.5,10.2-3.9c0,0,0.1,0,0.1-0.1
			c0,0,0,0,0,0c1.1,1,2.4,1.9,3.8,2.5c0.2,0.1,0.4,0.2,0.6,0.3V248z M242,149.3c0,2.7-2.6,4.7-5.3,4.7h-1.1c-0.3,0-0.7,0-1-0.1
			c-1.8-0.4-3.2-1.7-3.7-3.5c0-0.4,0.1-0.8,0.1-1.1V142h11V149.3z"/>
		<circle fill="#5980B7" cx="150.7" cy="91.8" r="5"/>
		<path fill="#5980B7" d="M132,193c0-2.2-1.8-4-4-4H99c-2.2,0-4,1.8-4,4v17c0,2.2,1.8,4,4,4h29c2.2,0,4-1.8,4-4V193z M103,197h20v10
			h-20V197z"/>
		<path fill="#5980B7" d="M132,223c0-2.2-1.8-4-4-4H99c-2.2,0-4,1.8-4,4v17c0,2.2,1.8,4,4,4h29c2.2,0,4-1.8,4-4V223z M103,227h20v9
			h-20V227z"/>
		<path fill="#5980B7" d="M223,177.3c0-2.9-2.4-5.3-5.3-5.3h-58.3c-2.9,0-5.3,2.4-5.3,5.3v53.3c0,2.9,2.4,5.3,5.3,5.3h58.3
			c2.9,0,5.3-2.4,5.3-5.3V177.3z M212,226h-48v-43h48V226z"/>
		<path fill="#5980B7" d="M176.3,223.1c1,0,1.9-0.1,2.8-0.4c2.2-0.7,4-2,4.8-3.7c0.5-1.1,0.6-2.3,0.1-3.4v-13.2c0.1,0,0.1,0,0.2,0
			l12.8-2.6v7.6c-0.1,0-0.3,0-0.4,0c-1,0-1.9,0.1-2.8,0.4c-2.2,0.7-4,2-4.8,3.7c-0.5,1.1-0.6,2.3-0.1,3.4c0.9,2,3.3,3.2,6.1,3.2
			c1,0,1.9-0.1,2.8-0.4c2.2-0.7,4-2,4.8-3.7c0.4-0.9,0.5-1.8,0.3-2.7c0-0.1,0-0.1,0-0.2v-13.4v-8.6c0-0.9-0.4-1.8-1.1-2.3
			c-0.7-0.6-1.6-0.8-2.5-0.6l-19,4.2c-1.4,0.3-2.4,1.5-2.4,2.9v19.1c-0.1,0-0.1,0-0.1,0c-1,0-1.9,0.1-2.8,0.4c-2.2,0.7-4,2-4.8,3.7
			c-0.5,1.1-0.6,2.3-0.1,3.4C171,221.8,173.4,223.1,176.3,223.1z"/>
	</g>
</g>
</svg>
