<?xml version="1.0" encoding="utf-8"?>
<!-- Generator: Adobe Illustrator 18.1.1, SVG Export Plug-In . SVG Version: 6.00 Build 0)  -->
<svg version="1.1" id="Layer_1" xmlns="http://www.w3.org/2000/svg" xmlns:xlink="http://www.w3.org/1999/xlink" x="0px" y="0px"
	 viewBox="0 0 300 300" enable-background="new 0 0 300 300" xml:space="preserve">
<g>
	<path fill="none" d="M146.8,213.6c-0.1-0.6-0.2-1.2-0.3-1.9c-4.1,1.4-11.1,2.9-21.7,2.1c0,0.8,0.1,1.7,0.2,2.5
		C131.1,216.9,139.3,216.8,146.8,213.6z"/>
	<path fill="none" d="M127.4,223.5c0.9,1.1,2,1.9,3.3,2.3c6,1.8,10.9,1.2,13.6-1.6c0.8-0.8,1.3-1.7,1.8-2.8
		c-5.1,1.7-10.4,2.3-15.1,2.3C129.8,223.6,128.5,223.5,127.4,223.5z"/>
	<path fill="none" d="M120.4,225.9c-0.5-1-0.9-2.2-1.3-3.3c-0.5-0.1-0.9,0-1.3,0c-1.3,2.9-3.1,5.5-5.6,8.5h12.4
		C122.9,230,121.5,227.9,120.4,225.9z"/>
	<path fill="none" d="M119.7,195.6c-2.4,3-2.2,4.7-1.3,7.5c0.4-2.8,0.9-5.4,1.4-7.7C119.8,195.5,119.8,195.5,119.7,195.6z"/>
	<path fill="#FFFFFF" d="M99.9,77.1l6.8,7.1l19.6-19.7c-5.4-4.3-12.2-7-19.5-7.1C107,62.4,106.2,70.3,99.9,77.1z"/>
	<path fill="#FFFFFF" d="M119,97.2c7.4-5.1,14.6-6.6,19.3-6.8c0-0.2,0-0.4,0-0.6c0-7.7-2.7-14.7-7.2-20.3l-19.8,19.8L119,97.2z"/>
	<path fill="#FFFFFF" d="M99.7,57.9c-4.7,0.9-9.1,2.9-12.8,5.6l8.1,8.5C99.3,67.1,99.9,61.5,99.7,57.9z"/>
	<path fill="#FFFFFF" d="M113.7,121.1c4.7-1.1,8.9-3.3,12.6-6.2l-7.7-8.1C114.1,111.8,113.5,117.5,113.7,121.1z"/>
	<path fill="#FFFFFF" d="M131.2,109.9c2.9-3.6,5-7.9,6.2-12.5c-3.5,0.4-8.4,1.6-13.5,4.9L131.2,109.9z"/>
	<path fill="#FFFFFF" d="M94.5,81.7c-8.2,5.8-16.3,6.9-20.9,7c0,0.3,0,0.7,0,1c0,7.7,2.7,14.8,7.2,20.4l20.8-20.9L94.5,81.7z"/>
	<path fill="#FFFFFF" d="M113.7,101.7l-7.2-7.5L85.8,115c5.5,4.4,12.6,7.1,20.2,7.1c0.3,0,0.5,0,0.8,0
		C106.4,117,107,108.8,113.7,101.7z"/>
	<path fill="#FFFFFF" d="M81.7,68.3c-3.3,3.8-5.8,8.3-7.1,13.4c3.5-0.2,9.1-1.2,15-5.1L81.7,68.3z"/>
	<path fill="#FFFFFF" d="M188.7,101.9c-2.6,4.3-4.1,9-4.9,12.2c5.7,4.4,12.9,7.1,20.7,7.1c6.2,0,11.9-1.6,16.9-4.5
		C212.8,116.2,199.8,113.3,188.7,101.9z"/>
	<path fill="#FFFFFF" d="M204.1,91.2c-4.6,0.3-8.2,2.4-11.1,5.2c15.4,16.5,35.7,13.2,36.6,13.1c0.2,0,0.4-0.1,0.7,0
		c2.7-3.1,4.9-6.8,6.3-10.7c-3.1,0.7-6.9,1.2-10.9,1.2C218.2,99.8,210,97.9,204.1,91.2z"/>
	<path fill="#FFFFFF" d="M225,92.8c5.2,0.1,10.2-0.9,13.4-1.8c0.1-1.3,0.2-2.5,0.2-3.9c0-12.4-6.6-23.2-16.5-29.2
		C225.8,65.7,229.2,78.1,225,92.8z"/>
	<path fill="#FFFFFF" d="M201.6,84.4c1.1-5.4,0.7-9.9-0.5-13.8c-22.2,6.4-28.4,27-28.5,27.2c-0.1,0.2-0.2,0.5-0.3,0.7
		c1.3,3.7,3.3,7.1,5.7,10.1C181,99.6,187.6,86.5,201.6,84.4z"/>
	<path fill="#FFFFFF" d="M208.6,85.5c2.5,3.3,5.8,5.3,9.4,6.3c6.4-20.3-4.7-35.8-6.4-38c-2.3-0.5-4.6-0.7-7-0.7
		c-2.2,0-4.4,0.2-6.5,0.6C204.3,59.4,211.7,69.8,208.6,85.5z"/>
	<path fill="#FFFFFF" d="M198.1,64.2c-2.5-3.8-5.7-6.5-7.9-8c-11.3,5.3-19.3,16.6-19.7,29.9C175,78.6,183.4,68.8,198.1,64.2z"/>
	<path fill="#CCCCCC" d="M111.1,210.8c-0.1-1.2-0.5-2.5-1-4c-1.3-3.9-3.2-9.9,2.6-17c5-6.1,13.3-6.1,18.8-6.1c0.2,0,0.5,0,0.7,0
		c-3.7-12.4-14.2-21.9-27.2-23.9c-1.8-0.3-3.6-0.4-5.4-0.4c-16.7,0-30.8,12-33.5,28.6c-1.6,9.8,3.5,25.9,8.7,32.8
		c4,5.3,9.8,8,17.3,8c0.9,0,1.9,0,2.9-0.1C108.9,227.4,111.3,215.3,111.1,210.8z M92.4,225c-0.8,0-1.5-0.1-2.3-0.2
		c-3.7-0.6-7-2.6-9.3-5.7c-2.2-3.1-3.1-6.8-2.5-10.6c1.1-6.9,7-12,14-12c0.8,0,1.5,0.1,2.3,0.2c3.7,0.6,7,2.6,9.3,5.7
		c2.2,3.1,3.1,6.8,2.5,10.6C105.3,220,99.4,225,92.4,225z"/>
	<path fill="#FFFFFF" d="M99.5,212c0.3-1.9-0.1-3.8-1.3-5.4s-2.8-2.6-4.7-2.9c-0.4-0.1-0.8-0.1-1.2-0.1c-3.6,0-6.5,2.6-7.1,6.1
		c-0.3,1.9,0.1,3.8,1.3,5.4c1.1,1.6,2.8,2.6,4.7,2.9c0.4,0.1,0.8,0.1,1.2,0.1C95.9,218,98.9,215.5,99.5,212z"/>
	<path fill="#FFFFFF" d="M240.3,208.4c-0.5-0.4-0.9-0.9-1.4-1.4c-5.9,8.6-17.2,16.6-18.7,17.7c-0.6,0.4-1.3,0.6-2,0.6
		c-0.8,0-1.6-0.3-2.2-0.8l-11.7-9.6c-0.9-0.7-1.4-1.8-1.3-3s0.7-2.2,1.7-2.7c11.3-6.6,18.2-16.5,21-21.1c-0.2-0.5-0.5-0.9-0.7-1.4
		c-8.7-16.9-23.2-30.7-32.3-30.7c-0.9,0-1.7,0.2-2.5,0.5c-7.2,3.1-19.5,12.5-22.8,21.6c-1,2.9-1,5.3,0.1,7.3c1.8,3.4,4,5.5,4.8,6.3
		c16.8,8.4,14.1,16.7,13.4,18.3c-0.7,1.7-2.4,2.7-4.1,2.7c-0.6,0-1.2-0.1-1.8-0.4c-2.1-0.9-3.1-3.2-2.5-5.3c-0.1-0.5-1-2.7-6.5-6
		c-1,1.3-1.9,3.1-1.8,4.8c0.2,2.8,3.1,5.3,5.6,6.9c5.3,3.4,10.4,4.3,15.8,5.2c3.9,0.7,7.9,1.6,12,3.3c5.6,2.2,10.7,6.8,13.9,9.8h1.9
		C222,228,229.3,221.3,240.3,208.4z"/>
	<path fill="#CCCCCC" d="M212.4,212.5l5.8,4.8c5-3.8,13.3-11,16.2-16.8c-1.5-1.9-3-4.3-4.3-6.4C226.9,199.1,221,206.5,212.4,212.5z"
		/>
	<rect x="54" y="133" fill="#CCCCCC" width="192" height="6"/>
	<rect x="54" y="241" fill="#CCCCCC" width="192" height="6"/>
	<g>
		<path fill="#5980B7" d="M90.1,224.9c0.7,0.1,1.5,0.2,2.3,0.2c7,0,12.9-5,14-12c0.6-3.7-0.3-7.5-2.5-10.6c-2.2-3.1-5.5-5.1-9.3-5.7
			c-0.7-0.1-1.5-0.2-2.3-0.2c-7,0-12.9,5-14,12c-0.6,3.7,0.3,7.5,2.5,10.6C83.1,222.2,86.4,224.3,90.1,224.9z M85.2,209.7
			c0.6-3.5,3.5-6.1,7.1-6.1c0.4,0,0.8,0,1.2,0.1c1.9,0.3,3.6,1.3,4.7,2.9s1.6,3.5,1.3,5.4c-0.6,3.5-3.5,6.1-7.1,6.1
			c-0.4,0-0.8,0-1.2-0.1c-1.9-0.3-3.6-1.3-4.7-2.9C85.4,213.5,84.9,211.6,85.2,209.7z"/>
		<path fill="#5980B7" d="M256,143.8v-16.4c0-2.8-2.2-4.5-5-4.5h-20.2c10.8-8,17.8-21.2,17.8-35.6c0-24.3-19.8-44.2-44.1-44.2
			c-24.3,0-44.1,20-44.1,44.3c0,14.4,7,27.5,17.8,35.5h-45.3c9.5-8,15.5-19.8,15.5-33c0-23.4-19-42.5-42.4-42.5S63.6,66.7,63.6,90
			c0,13.2,6,25,15.5,33H48.6c-2.8,0-4.6,1.7-4.6,4.5v16.4c0,2.8,1.9,5.2,4.6,5.2h136.6c-8.7,5-22.2,14.6-26.4,26.1
			c-1.9,5.2-1.7,10.2,0.5,14.5c1.3,2.4,2.7,4.4,4,5.9c-1.9,2.5-3.9,6.3-3.6,10.7c0.3,5.3,3.6,10,9.7,14c6.8,4.4,13.4,5.5,19.2,6.5
			c3.6,0.6,7,1.5,10.3,2.8c0.8,0.3,1.6,1.4,2.4,1.4h-53.6c0.5,0,1.1-1.2,1.5-1.7c5-5.1,6-13.6,2.8-23.5c-0.3-1.1-1.2-2-2.2-2.3
			c-1.1-0.4-2.2-0.2-3.1,0.4c-0.1,0-6.5,4.1-21.8,2.8c0.6-5.3,1.7-10.4,2.7-13.9c-1.7,0.1-3.5,0.3-5,0.8c1.5-0.5,3.2-0.7,5-0.8
			c1.3-0.1,2.7-0.1,3.9-0.1c4,0,7.2,0,9.3-2.5c1.1-1.3,1.5-2.9,1.2-4.6c-3.2-17.9-17.5-31.9-35.5-34.8c-2.3-0.4-4.6-0.5-6.8-0.5
			c-21.2,0-39,15.2-42.4,36.2c-2,12.6,3.9,31.3,10.4,39.9c1.2,1.5,2.5,3.5,3.9,4.5H48.6c-2.8,0-4.6,1.6-4.6,4.4v16.4
			c0,2.8,1.9,5.2,4.6,5.2H251c2.8,0,5-2.4,5-5.2v-16.4c0-2.8-2.2-4.4-5-4.4h-19.3c4.9-5,11.1-11.5,18.7-20.8c1-1.3,1.6-3.1,1-4.6
			c-0.6-1.5-1.7-2.6-3.2-2.8c-0.9-0.4-7-3.8-15.3-20c-7.3-14.3-19.7-28.7-31.9-33.7h50C253.8,149,256,146.6,256,143.8z M188.7,101.9
			c11.1,11.4,24.1,14.3,32.7,14.8c-5,2.9-10.8,4.5-16.9,4.5c-7.8,0-15-2.6-20.7-7.1C184.6,110.9,186.1,106.2,188.7,101.9z
			 M230.3,109.4c-0.2,0-0.4,0-0.7,0c-0.9,0.2-21.2,3.4-36.6-13.1c2.9-2.8,6.5-4.8,11.1-5.2c5.9,6.7,14.1,8.7,21.5,8.7
			c4,0,7.8-0.6,10.9-1.2C235.1,102.6,233,106.2,230.3,109.4z M238.6,87.1c0,1.3-0.1,2.6-0.2,3.9c-3.2,0.9-8.2,2-13.4,1.8
			c4.3-14.7,0.8-27-2.9-34.9C232,63.9,238.6,74.8,238.6,87.1z M204.5,53c2.4,0,4.8,0.3,7,0.7c1.7,2.3,12.8,17.7,6.4,38
			c-3.6-1-6.9-3-9.4-6.3c3.1-15.7-4.3-26.1-10.6-31.8C200.1,53.2,202.3,53,204.5,53z M190.1,56.2c2.3,1.6,5.4,4.2,7.9,8
			c-14.7,4.6-23.1,14.3-27.6,21.8C170.8,72.9,178.8,61.5,190.1,56.2z M172.4,98.5c0.1-0.2,0.2-0.4,0.3-0.7
			c0.1-0.2,6.3-20.8,28.5-27.2c1.2,3.8,1.6,8.4,0.5,13.8c-14,2.1-20.6,15.2-23.6,24.2C175.6,105.6,173.7,102.2,172.4,98.5z
			 M118.7,204c0.6,1.8,1.3,3.9,1.4,6.3c0,0.4,0,0.8,0,1.2c0-0.4,0-0.8,0-1.2C120,208,119.3,205.9,118.7,204c-0.1-0.3-0.2-0.6-0.3-1
			c-0.9-2.9-1.1-4.6,1.3-7.5c0-0.1,0.1-0.1,0.1-0.1c-0.5,2.2-1,4.9-1.4,7.7C118.5,203.4,118.6,203.7,118.7,204z M127.4,223.5
			c1.2,0.1,2.4,0.1,3.6,0.1c4.7,0,9.9-0.6,15.1-2.3c-0.4,1.1-1,2.1-1.8,2.8c-2.7,2.8-7.6,3.4-13.6,1.6
			C129.3,225.4,128.2,224.6,127.4,223.5z M146.5,211.7c0.1,0.6,0.2,1.3,0.3,1.9c-7.5,3.3-15.7,3.3-21.9,2.7
			c-0.1-0.8-0.1-1.6-0.2-2.5C135.4,214.6,142.4,213.1,146.5,211.7z M66.3,188c2.7-16.6,16.7-28.6,33.5-28.6c1.8,0,3.6,0.1,5.4,0.4
			c13,2.1,23.6,11.5,27.2,23.9c-0.3,0-0.5,0-0.7,0c-5.5,0-13.9,0-18.8,6.1c-5.8,7.1-3.9,13-2.6,17c0.5,1.5,0.9,2.8,1,4
			c0.2,4.5-2.3,16.6-16,17.8c-1,0.1-2,0.1-2.9,0.1c-7.4,0-13.2-2.7-17.3-8C69.8,213.9,64.7,197.7,66.3,188z M117.8,222.5
			c0,0,0-0.2,0-0.2c0.4,0.1,0.9,0.1,1.3,0.2c0.4,1.1,0.8,2.4,1.3,3.4c1.1,2,2.5,4.1,4.1,5.1h-12.4
			C114.7,228,116.5,225.4,117.8,222.5z M246,241v6H54v-6H246z M234.5,200.6c-2.9,5.8-11.3,13-16.2,16.8l-5.8-4.8
			c8.6-6,14.5-13.5,17.8-18.4C231.4,196.3,233,198.7,234.5,200.6z M224.9,186.7c0.2,0.5,0.5,0.9,0.7,1.4c-2.8,4.6-9.7,14.5-21,21.1
			c-1,0.6-1.6,1.6-1.7,2.7s0.4,2.3,1.3,3l11.7,9.6c0.6,0.5,1.4,0.8,2.2,0.8c0.7,0,1.4-0.2,2-0.7c1.5-1.1,12.8-9.2,18.7-17.8
			c0.5,0.5,1,1.2,1.4,1.6c-11,13-18.3,19.6-22.3,22.6h-1.9c-3.2-3-8.3-7.7-13.9-9.8c-4.2-1.6-8.2-2.4-12-3.1
			c-5.4-0.9-10.6-1.9-15.8-5.3c-2.5-1.6-5.4-4.1-5.6-6.9c-0.1-1.7,0.8-3.5,1.8-4.8c-0.8-0.5-1.8-1-2.9-1.5c-1.7-0.8-2.6-2.5-2.5-4.3
			c-0.1,1.8,0.8,3.5,2.5,4.3c1.1,0.5,2,1,2.9,1.5c5.6,3.2,6.4,5.5,6.5,6c-0.6,2.1,0.4,4.4,2.5,5.3c0.6,0.3,1.2,0.4,1.8,0.4
			c1.7,0,3.4-1,4.1-2.7c0.7-1.6,3.4-9.9-13.4-18.3c0,0,0,0,0,0c-0.8-0.7-3-2.9-4.8-6.3c-1.1-2.1-1.1-4.5-0.1-7.3
			c3.3-9.1,15.6-18.6,22.8-21.6c0.7-0.3,1.5-0.5,2.5-0.5C201.8,156,216.3,169.8,224.9,186.7z M118.6,106.8l7.7,8.1
			c-3.6,2.9-7.9,5.1-12.6,6.3C113.5,117.5,114.1,111.8,118.6,106.8z M131.2,109.9l-7.3-7.6c5.1-3.3,10-4.5,13.5-4.9
			C136.3,102.1,134.1,106.3,131.2,109.9z M138.4,89.7c0,0.2,0,0.4,0,0.6c-4.7,0.3-11.9,1.7-19.3,6.8l-7.6-7.9l19.8-19.8
			C135.7,75,138.4,82,138.4,89.7z M126.3,64.5l-19.6,19.7l-6.8-7.1c6.4-6.9,7.2-14.7,6.8-19.8C114.1,57.5,120.9,60.1,126.3,64.5z
			 M99.7,57.9c0.2,3.6-0.4,9.2-4.7,14.1l-8.1-8.5C90.6,60.8,95,58.9,99.7,57.9z M81.7,68.3l7.9,8.3c-5.9,3.9-11.5,4.9-15,5.1
			C75.9,76.6,78.4,72.1,81.7,68.3z M73.6,89.7c0-0.3,0-0.7,0-1c4.6-0.1,12.7-1.2,20.9-7l7.1,7.5l-20.8,20.9l0,0
			C76.3,104.5,73.6,97.4,73.6,89.7z M78.8,117.1c-0.7-0.7-1-1.6-1-2.5C77.8,115.5,78.1,116.4,78.8,117.1c0.7,0.7,1.6,1,2.5,1
			c0.9,0,1.8-0.3,2.5-1l2.1-2.1l20.7-20.8l7.2,7.5c-6.7,7.1-7.3,15.3-6.9,20.3c-0.3,0-0.5,0-0.8,0c-7.6,0-14.6-2.7-20.2-7.1
			l-2.1,2.1c-0.7,0.7-1.6,1-2.5,1C80.4,118.1,79.5,117.8,78.8,117.1z M246,139H54v-6h192V139z"/>
	</g>
</g>
</svg>
