<?xml version="1.0" encoding="utf-8"?>
<!-- Generator: Adobe Illustrator 18.1.1, SVG Export Plug-In . SVG Version: 6.00 Build 0)  -->
<svg version="1.1" id="Layer_1" xmlns="http://www.w3.org/2000/svg" xmlns:xlink="http://www.w3.org/1999/xlink" x="0px" y="0px"
	 viewBox="0 0 300 300" enable-background="new 0 0 300 300" xml:space="preserve">
<g>
	<path fill="#FFFFFF" d="M222.9,147c-4.5,0-8.6-1.8-11.7-4.7c-3,2.9-7.2,4.7-11.7,4.7h-1.3c-4.5,0-8.6-1.8-11.7-4.7
		c-3,2.9-7.2,4.7-11.7,4.7h-1.3c-4.5,0-8.6-1.8-11.7-4.7c-3,2.9-7.2,4.7-11.7,4.7H149c-4.5,0-8.6-1.8-11.7-4.7
		c-3,2.9-7.2,4.7-11.7,4.7h-1.3c-4.5,0-8.6-1.8-11.7-4.7c-3,2.9-7.2,4.7-11.7,4.7h-1.3c-4.5,0-8.6-1.8-11.7-4.7
		c-3,2.9-7.2,4.7-11.7,4.7H75c-4.5,0-8.7-1.4-11.7-4.3c-1.8,1.7-4.3,3.3-6.3,4.1V245h112v-74.4c0-2.9,2.3-5.6,5.3-5.6h49.3
		c2.9,0,5.4,2.6,5.4,5.6V245h13v-98.2c-2-0.8-4.4-2.5-6.2-4.1c-3,2.9-7.1,4.3-11.6,4.3H222.9z M154,217.7c0,2.9-2.4,5.3-5.3,5.3
		H76.3c-2.9,0-5.3-2.4-5.3-5.3v-47.3c0-2.9,2.4-5.3,5.3-5.3h72.3c2.9,0,5.3,2.4,5.3,5.3V217.7z"/>
	<path fill="#CCCCCC" d="M112.7,111H123c-7.3-7-11.8-17-11.8-27.9c0-2.3,0.2-5.1,0.6-7.1H68.2L48,111h3.8h11.5H88H112.7z"/>
	<path fill="#CCCCCC" d="M187.5,76c0.4,2,0.6,4.8,0.6,7.1c0,10.9-4.5,20.9-11.8,27.9h10.3h24.6h24.7h11.5h2.8l-22-35H187.5z"/>
	<path fill="#FFFFFF" d="M57.2,121H44v9.8c0,3.5,2.9,6.2,6.4,6.2h1.3c3.5,0,6.3-2.8,6.3-6.2V121H57.2z"/>
	<path fill="#FFFFFF" d="M69,121v9.8c0,3.5,2.5,6.2,6,6.2h1.3c3.5,0,6.7-2.8,6.7-6.2V121H69z"/>
	<path fill="#FFFFFF" d="M93,130.8c0,3.5,3.2,6.2,6.7,6.2h1.3c3.5,0,6-2.8,6-6.2V121H93V130.8z"/>
	<path fill="#FFFFFF" d="M118,121v9.8c0,3.5,2.8,6.2,6.3,6.2h1.3c3.5,0,6.4-2.8,6.4-6.2V121H118z"/>
	<path fill="#FFFFFF" d="M143,130.8c0,3.5,2.5,6.2,6,6.2h1.3c3.5,0,6.7-2.8,6.7-6.2V121h-4.4c-1,0-2,0.1-3,0.1s-2-0.1-3-0.1H143
		V130.8z"/>
	<path fill="#FFFFFF" d="M167,121v9.8c0,3.5,3.1,6.2,6.6,6.2h1.3c3.5,0,6.1-2.8,6.1-6.2V121H167z"/>
	<path fill="#FFFFFF" d="M192,130.8c0,3.5,2.8,6.2,6.3,6.2h1.3c3.5,0,6.4-2.8,6.4-6.2V121h-14V130.8z"/>
	<path fill="#FFFFFF" d="M217,130.8c0,3.5,2.4,6.2,5.9,6.2h1.3c3.5,0,6.8-2.8,6.8-6.2V121h-14V130.8z"/>
	<path fill="#FFFFFF" d="M242.1,121H241v9.8c0,3.5,3.1,6.2,6.6,6.2h1.3c3.5,0,6.1-2.8,6.1-6.2V121H242.1z"/>
	<rect x="180" y="176" fill="#FFFFFF" width="38" height="69"/>
	<rect x="82" y="176" fill="#FFFFFF" width="62" height="36"/>
	<path fill="#FFFFFF" d="M71,56v9h44.4c1.7-3,3.8-6,6.4-9H71z"/>
	<path fill="#FFFFFF" d="M227,56h-49.5c2.5,3,4.7,6,6.4,9H227V56z"/>
	<path fill="#FFFFFF" d="M121.9,83.2c0,15.3,12.5,27.8,27.8,27.8s27.8-12.5,27.8-27.8S165,55.4,149.6,55.4S121.9,67.9,121.9,83.2z
		 M140.1,62.5c2.8-0.7,5.9,2.2,6.9,6.4s-0.5,8.1-3.3,8.8c-2.8,0.7-5.9-2.2-6.9-6.4C135.8,67.2,137.3,63.2,140.1,62.5z M127.7,83.7
		c-2.1-3.3-1.9-7.2,0.4-8.6c2.3-1.4,5.9,0.1,7.9,3.4c2.1,3.3,1.9,7.2-0.4,8.6C133.4,88.6,129.8,87,127.7,83.7z M164.3,98.6
		c-2.1,5.5-5.2,5.1-7.9,5s-4.9-1.5-7.7-0.9c-2.8,0.6-6.3,2.4-10.1,0.6s-4.9-5.7-3.7-8.7c1.9-4.6,5.5-4.6,6.5-6.6
		c1-2,3.1-6.2,7.9-6.2c5.8,0,6,5.1,9,6.6C161.3,89.8,166.5,93,164.3,98.6z M171.2,83.9c-2.3,3.2-5.9,4.5-8.1,3s-2.2-5.4,0.1-8.7
		s5.9-4.5,8.1-3S173.4,80.7,171.2,83.9z M159.2,62.7c2.8,0.8,4.1,4.9,2.9,9c-1.2,4.1-4.5,6.8-7.3,6c-2.8-0.8-4.1-4.9-2.9-9
		C153.1,64.6,156.3,61.9,159.2,62.7z"/>
	<g>
		<path fill="#5980B7" d="M237,71V51.4c0-2.9-1.9-5.4-4.9-5.4h-71.9c-0.2,0-0.4,0-0.7-0.1c-3.2-0.8-6.5-1.2-9.9-1.2
			s-6.8,0.4-9.9,1.2c-0.2,0.1-0.4,0.1-0.7,0.1H65.2c-2.9,0-5.2,2.5-5.2,5.4v18.2c0,0-27,46.3-27,46.6c0,0,0,0,0,0v14.5
			c0,8,5.8,14.5,13.3,16.3c0,0,0,0,0.1,0L46,250.6c0,2.9,2.9,5.4,5.8,5.4h122.5h49.3h23.9c2.9,0,5.5-2.4,5.5-5.4V147
			c7.4-1.8,13-8.3,13-16.3v-14.5C266,114.3,237,71,237,71z M250.2,111h-2.8h-11.5h-24.7h-24.6h-10.2c7.2-7,11.7-17,11.7-27.8
			c0-2.3-0.2-4.6-0.6-6.9c-0.1-0.8-0.3-1.5-0.5-2.3c0.2,0.6,0.4,1.2,0.5,1.9h40.7L250.2,111z M231,121.6v7.9c0,3.5-3.3,7.5-6.8,7.5
			h-1.3c-3.5,0-5.9-2.8-5.9-6.2V121h14V121.6z M235,141.9c-0.4-0.5-0.8-1-1.1-1.5C234.2,140.9,234.5,141.4,235,141.9z M205.9,130.5
			c0,3.5-2.8,6.5-6.3,6.5h-1.3c-3.5,0-6.3-2.8-6.3-6.2V121h14v0.6C206,121.6,205.9,132.4,205.9,130.5z M181,121v0.6v9.2
			c0,0.5,0,0.9,0.1,1.4c-0.7,2.8-3.2,4.9-6.1,4.9h-1.3c-3.5,0-6.6-2.8-6.6-6.2V121H181z M176.8,56H227v9h-43.5c-1.6-3-3.6-5.8-6-8.3
			C177.2,56.5,177,56.2,176.8,56C176.7,56,176.7,56,176.8,56z M149.6,55.4c15.3,0,27.8,12.5,27.8,27.8S165,111,149.6,111
			s-27.8-12.5-27.8-27.8S134.3,55.4,149.6,55.4z M150.3,137H149c-3.5,0-6-2.8-6-6.2V121c0,0,2.9,0.4,3.7,0.4c1,0.1,2,0.2,3,0.2
			s2-0.2,3-0.2c0.8-0.1,1.6-0.4,2.4-0.4h2v0.6v8C157,133.1,153.8,137,150.3,137z M132.1,132.4c-0.1-0.6-0.1-1.2-0.1-1.9
			c0,3.5-2.8,6.5-6.3,6.5h-1.3c-3.5,0-6.3-2.8-6.3-6.2V121h14v0.6v9.2C132,131.3,132,131.9,132.1,132.4z M71,56h51.5
			c-0.2,0.2-0.5,0.4-0.7,0.7c-2.4,2.5-4.4,5.3-6,8.3H71V56z M68.2,76h43.6c0.1-0.7,0.3-1.4,0.5-2c-0.2,0.8-0.4,1.6-0.5,2.4
			c-0.4,2.2-0.6,4.5-0.6,6.9c0,10.9,4.9,21.8,11.8,27.8h-10.3H88H63.4H51.8H48L68.2,76z M107.1,132.4c-0.7,2.7-3.2,4.6-6.1,4.6h-1.3
			c-3.5,0-6.7-2.8-6.7-6.2V121h14v0.6v9.2C107,131.4,107,131.8,107.1,132.4z M83,121v0.6v7.4c0,3.5-3.2,8-6.7,8H75
			c-3.5,0-6-2.8-6-6.2V121H83z M51.7,137h-1.3c-3.5,0-6.4-2.8-6.4-6.2V121h13.2H58v0.6v9.2c0,0.1,0,0.1,0,0.2
			C57.9,134.3,55.1,137,51.7,137z M218,245h-38v-69h38V245z M242,245h-13v-74.4c0-2.9-2.5-5.6-5.4-5.6h-49.3c-2.9,0-5.3,2.6-5.3,5.6
			V245H57v-98.2c2.2-0.8,4.9-2.3,6.6-3.9c3,2.7,7,4.1,11.4,4.1h1.3c4.5,0,8.6-1.4,11.7-4.3c-0.7-0.6-1.3-1.4-1.8-2.3
			c0.6,0.8,1.3,1.6,2,2.3c3,2.9,7,4.3,11.5,4.3h1.3c4.5,0,8.6-1.5,11.6-4.3c3,2.8,7.3,4.3,11.7,4.3h1.3c4.5,0,8.6-1.4,11.7-4.3
			c-0.5-0.4-0.9-0.9-1.3-1.4c0.4,0.5,0.9,1,1.3,1.4c3,2.9,7.1,4.3,11.7,4.3h1.3c4.4,0,8.7-1.7,11.8-4.4c0,0,0,0.1,0.1,0.1
			c3,2.9,7,4.3,11.5,4.3h1.3c4.5,0,8.6-1.5,11.6-4.4c3,2.8,7.3,4.4,11.7,4.4h1.3c4.5,0,9.4-1.5,11.7-4.3c3,2.9,7.1,4.3,11.6,4.3h1.3
			c4.5,0,8.6-1.4,11.7-4.3c0.1,0.1,0.1,0.2,0.2,0.3c1.7,1.6,3.7,3,5.9,3.8c0,0,0,0,0,0V245z M255,130.8c0,3.5-2.6,6.2-6.1,6.2h-1.3
			c-3.5,0-6.6-2.8-6.6-6.2V121h1.1H255V130.8z"/>
		<path fill="#5980B7" d="M154,170.3c0-2.9-2.4-5.3-5.3-5.3H76.3c-2.9,0-5.3,2.4-5.3,5.3v47.3c0,2.9,2.4,5.3,5.3,5.3h72.3
			c2.9,0,5.3-2.4,5.3-5.3V170.3z M144,212H82v-36h62V212z"/>
		<path fill="#5980B7" d="M141.5,88c-1,2-4.6,2.1-6.5,6.6c-1.2,2.9-0.2,6.9,3.7,8.7s7.3-0.1,10.1-0.6c2.8-0.6,5,0.8,7.7,0.9
			s5.8,0.6,7.9-5c2.1-5.5-3-8.7-6-10.2c-3-1.5-3.1-6.6-9-6.6C144.6,81.8,142.5,85.9,141.5,88z"/>
		
			<ellipse transform="matrix(-0.2848 0.9586 -0.9586 -0.2848 268.9394 -60.2263)" fill="#5980B7" cx="156.9" cy="70.2" rx="7.8" ry="5.3"/>
		
			<ellipse transform="matrix(-0.5783 0.8158 -0.8158 -0.5783 329.9294 -8.4621)" fill="#5980B7" cx="167.2" cy="81" rx="7.1" ry="4.9"/>
		
			<ellipse transform="matrix(0.2312 0.9729 -0.9729 0.2312 177.3071 -84.1206)" fill="#5980B7" cx="141.9" cy="70.1" rx="7.8" ry="5.3"/>
		
			<ellipse transform="matrix(-0.8467 0.5321 -0.5321 -0.8467 286.6918 79.5384)" fill="#5980B7" cx="131.9" cy="81.1" rx="4.9" ry="7.1"/>
	</g>
</g>
</svg>
