<?xml version="1.0" encoding="utf-8"?>
<!-- Generator: Adobe Illustrator 18.1.1, SVG Export Plug-In . SVG Version: 6.00 Build 0)  -->
<svg version="1.1" id="Layer_1" xmlns="http://www.w3.org/2000/svg" xmlns:xlink="http://www.w3.org/1999/xlink" x="0px" y="0px"
	 viewBox="0 0 300 300" enable-background="new 0 0 300 300" xml:space="preserve">
<g>
	<polygon fill="none" points="56.4,252 134,252 134,244 56.7,244 	"/>
	<path fill="none" d="M206.6,207.5c1.2,1,2.8,1.5,4.4,1.3c0,0,4.6-0.6,9.3,0.3c7.5,1.4,8,5.4,8.2,6.8c-0.2-1.5-0.7-5.5-8.2-6.9
		c-4.6-0.9-9.2-0.3-9.3-0.3C209.4,209,207.8,208.5,206.6,207.5c-1.2-1.1-1.9-2.6-1.9-4.2C204.8,204.9,205.4,206.4,206.6,207.5z"/>
	<path fill="#FFFFFF" d="M156.8,180.6c5.3,0,5.6-1.9,6-4.5c0.1-0.4,0.1-0.9,0.2-1.2c0.9-4.1,4.1-6.5,6.9-8.7c1.3-1,2.4-1.9,3.4-2.8
		c3.7-3.9,7.8-9.5,6.4-14c-1.2-3.9-6.8-7.3-15.2-9.1c-3.7-0.8-6.4-1-8.8-0.6c-2,0.4-4,1.2-6.1,2.1c-1.2,0.5-2.4,1.1-3.7,1.5
		c-0.6,0.2-1.8,0.4-1.8,0.6v5.1c0-0.2,1.3-0.7,2-1c2.5-1,5.1-2.1,8.2-2.1h0.2c2.5,0,4.8,0.8,7,1.6c5,1.8,7.6,4.5,7.8,7.8
		c0.2,3.7-2.6,6.1-4.7,7.7c-0.6,0.5-1.2,1-1.6,1.4c-0.3,0.3-0.6,1.4-0.9,2.2c-1.4,3.1-4,8.2-10,8.2v0c-1,0-1.6-0.1-2.4-0.2
		c-2-0.3-4.6-0.7-5.6-1.3v5.6c3,0.8,6.6,1.2,11.6,1.5C156,180.6,156.3,180.6,156.8,180.6z"/>
	<path fill="#FFFFFF" d="M151.6,169C151.6,169,151.6,169,151.6,169c2.4,0,3.3-1.4,4.7-4.6c0.7-1.5,1.3-3,2.4-4.1
		c0.7-0.7,1.4-1.2,2.1-1.8c1.1-0.9,2.5-2.1,2.5-2.7c0-0.4-0.9-1.5-3.9-2.6c-1.7-0.6-3.4-1.2-5-1.2c0,0,0,0,0,0c-2,0-3.9,0.8-6.1,1.7
		c-1.4,0.6-3.3,1.3-4.3,1.7v11.9c2,0.7,4,1.2,6.4,1.7C150.8,169,151.2,169,151.6,169z"/>
	<path fill="#FFFFFF" d="M145.4,124.9c2.4-0.4,4.7-0.6,7-0.7c0.6,0,1.1-0.1,1.7-0.1c1.3-0.1,2.5-0.2,3.7-0.2
		c-0.1-0.1-0.2-0.2-0.2-0.3c-0.2-0.3-1.5-1.7-3.4-4.1c-2.5,0.4-4.8,0.9-6.9,1.3c-2.3,0.5-4.3,0.8-5.9,1c-1.4,0.2-3,0.2-4.7,0.2
		c0,0,0,0,0,0c-3.7,0-7.6-0.4-11.5-0.8c-0.1,0-0.1,0.2-0.1,0.2v3.6h13.3c0.8,0,1.6,0.4,2.3,0.7c0.4-0.1,0.9-0.1,1.3-0.2
		C143,125.3,144.2,125.1,145.4,124.9z"/>
	<path fill="#FFFFFF" d="M176.2,199.4c1.2-0.3,2-0.8,2.5-1.3c0.9-0.9,1.1-2.5,1.4-4.3c0.1-0.7,0.2-1.4,0.4-2
		c1.2-5.5,6.1-9.6,10.3-13.3c2.1-1.8,4.2-3.5,5.6-5.2c4-4.8,6.5-9.6,8.5-14.3v-17.8c-4-10.4-13.1-16.7-14.2-17.5
		c-5.4-3.6-12.2-5.4-20.3-5.6c-2.6,3.2-4.4,5.2-4.7,5.5c0,0-0.1,0.1-0.1,0.1c17,0.5,27.8,5.7,32,15.5c5.2,12.1-2,27.4-6.8,32.5
		c-1.8,2-4,3.6-6,5.2c-3.4,2.7-6.7,5.2-7.9,8.7c-0.2,0.7-0.4,1.4-0.6,2.2c-0.6,2.2-1.3,5-3.6,7c-2.2,1.8-4.9,2.2-7.5,2.4
		c-2,0.1-3.9,0.2-6,0.2c-5.2,0-10.3-0.4-15.3-1.3v6.8c2,0.2,4.2,0.3,6.5,0.3C158.8,203.2,167.4,201.9,176.2,199.4z"/>
	<path fill="#FFFFFF" d="M228.5,215.7c-0.2-1.5-0.7-5.3-8.2-6.7c-4.6-0.9-9.2-0.3-9.3-0.3c-1.6,0.2-3-0.2-4.2-1.3
		c-1.2-1-1.8-2.6-1.8-4.1v-31.1c-1,1.7-2.5,3.3-3.9,5c-1.7,2.1-4.1,4-6.3,5.9c-3.7,3.2-7.6,6.5-8.4,10c-0.1,0.6-0.2,1.1-0.3,1.7
		c-0.4,2.4-0.9,5.3-3.1,7.5c-1.2,1.2-2.9,2.2-5.1,2.8c-9.4,2.7-18.5,4.1-27.4,4.1c-2.3,0-4.5-0.1-6.5-0.3v12h84.4
		C228.7,219,228.8,218,228.5,215.7z"/>
	<path fill="#FFFFFF" d="M226.4,84.8c-2.1-2.2-5.4-3.5-10.4-3.7v42.1v74.4c2,0,4.3,0.2,6.6,0.7c2.4,0.5,4.4,1.1,6.4,2v-12.6V93.7
		c0-0.3,0-0.5,0-0.8C229,92.9,229.5,88.1,226.4,84.8z"/>
	<path fill="#FFFFFF" d="M164.8,191.2c1.5-0.1,3.1-0.3,4-1c0.9-0.7,1.2-2.2,1.7-3.9c0.2-0.9,0.5-1.8,0.8-2.8
		c1.9-5.1,5.9-8.3,9.9-11.4c2-1.5,3.8-3,5.3-4.6c3.3-3.5,9.8-16.4,5.7-26c-3.9-9.1-17.1-13.2-37.6-11.6c-0.6,0-1.1,0.1-1.7,0.1
		c-2.2,0.2-4.2,0.3-6.2,0.7c-0.9,0.2-1.6,0.4-2.6,0.6v6.3c0,0-0.1,0-0.1,0c1.1-0.4,2.2-0.9,3.4-1.4c2.3-1,4.7-2,7.3-2.4
		c3.2-0.6,6.5-0.4,11.1,0.6c7.6,1.7,17.2,5.3,19.7,13.2c1.8,5.8-0.8,12.5-7.7,19.9c-1.3,1.4-2.7,2.4-4.1,3.5
		c-2.3,1.7-4.3,3.2-4.7,5.2c-0.1,0.3-0.1,0.6-0.2,0.9c-0.5,2.8-1.6,9.5-11.9,9.5c-0.5,0-0.9,0-1.5,0c-4.6-0.3-8.3-0.7-11.3-1.3v4.7
		c5,0.9,10.1,1.4,15.3,1.4C161.2,191.4,163,191.3,164.8,191.2z"/>
	<path fill="#FFFFFF" d="M205,129V98h-21c-3,5-6.3,10.2-9.3,14.2c7.4,0.7,14,2.9,19.3,6.4C195.6,119.7,200,123.2,205,129z"/>
	<path fill="#FFFFFF" d="M136.7,116C136.7,116,136.7,116,136.7,116c1.5,0,2.8,0,3.9-0.2c1.4-0.2,3.3-0.5,5.5-1
		c1.2-0.2,2.6-0.7,4-0.9c-3.2-4.3-7-9.9-10.5-15.9H76v11h43.3c3,0,5.7,2.9,5.7,5.9v0.5c0,0,0.4-0.1,0.7-0.1
		C129.7,115.7,133.3,116,136.7,116z"/>
	<path fill="#CCCCCC" d="M183.1,68.6c0-11.4-9.6-20.7-21.4-20.7c-11.8,0-21.4,9.3-21.4,20.7c0,12.6,13.1,32,21.5,42.7
		C170.1,101,183.1,82,183.1,68.6z M144.9,67.9c0-9.1,7.5-16.4,16.7-16.4s16.7,7.4,16.7,16.4s-7.5,16.4-16.7,16.4
		S144.9,77,144.9,67.9z"/>
	<path fill="#FFFFFF" d="M161.7,62.5c-3.2,0-5.7,2.4-5.7,5.4s2.6,5.4,5.7,5.4s5.7-2.4,5.7-5.4S164.8,62.5,161.7,62.5z"/>
	<path fill="#FFFFFF" d="M95,143.3c17.9,0,33,11.6,38,27.5V136h-13.7c-3,0-5.3-2.1-5.3-5.1V120H77v10.9c0,3-2.7,5.1-5.7,5.1H57v35.1
		C62,155,77.1,143.3,95,143.3z"/>
	<path fill="#FFFFFF" d="M95,221c-17.9,0-33-11.7-38-27.7V233h13.3H133v-39.5C128,209.4,112.9,221,95,221z"/>
	<path fill="#FFFFFF" d="M94.8,210c15.8,0,28.7-12.5,28.7-27.8s-12.9-27.8-28.7-27.8s-28.7,12.5-28.7,27.8S79,210,94.8,210z
		 M94.8,159.7c12.6,0,22.9,10.1,22.9,22.5c0,12.4-10.3,22.5-22.9,22.5s-22.9-10.1-22.9-22.5C71.9,169.8,82.1,159.7,94.8,159.7z"/>
	<path fill="#CCCCCC" d="M94.8,193.6c6.6,0,11.9-5.2,11.9-11.5c0-6.3-5.3-11.5-11.9-11.5s-11.9,5.2-11.9,11.5
		C82.9,188.5,88.2,193.6,94.8,193.6z"/>
	<path fill="#FFFFFF" d="M224,238.4c0,3-2.5,5.5-5.5,5.5s-5.5-2.5-5.5-5.5V232h-17v6.4c0,3-2.5,5.5-5.5,5.5s-5.5-2.5-5.5-5.5V232
		h-18v6.4c0,3-2.5,5.5-5.5,5.5s-5.5-2.5-5.5-5.5V232h-11v20h99v-20h-20V238.4z"/>
	<g>
		<path fill="#5980B7" d="M178.4,67.9c0-9.1-7.5-16.4-16.7-16.4s-16.7,7.4-16.7,16.4s7.5,16.4,16.7,16.4S178.4,77,178.4,67.9z
			 M161.7,73.3c-3.2,0-5.7-2.4-5.7-5.4s2.6-5.4,5.7-5.4s5.7,2.4,5.7,5.4S164.8,73.3,161.7,73.3z"/>
		<path fill="#5980B7" d="M94.8,204.6c12.6,0,22.9-10.1,22.9-22.5c0-12.4-10.3-22.5-22.9-22.5s-22.9,10.1-22.9,22.5
			C71.9,194.6,82.1,204.6,94.8,204.6z M94.8,170.7c6.6,0,11.9,5.2,11.9,11.5c0,6.3-5.3,11.5-11.9,11.5s-11.9-5.2-11.9-11.5
			C82.9,175.8,88.2,170.7,94.8,170.7z"/>
		<path fill="#5980B7" d="M249.7,221h-10.2c0.2-2,0.3-4.2,0-6.7c0.2-0.6,0.5-1.2,0.5-1.9V94.1c0-2.2,0.5-10.3-5.5-16.7
			c-5.2-5.6-13.4-8-24.5-7.2c-2.9,0.2-5,2.6-5,5.5V87h-15.4c2.7-6,4.5-12.6,4.5-18.6c0-17.5-14.5-31.6-32.4-31.6
			c-17.9,0-32.4,14.1-32.4,31.6c0,5.9,1.9,12.6,4.7,18.6H70.3c-3,0-5.3,2.9-5.3,5.9V125H51.3c-3,0-5.3,2.9-5.3,5.9v108
			c0,0.4-0.1,0.7,0,1.1l-0.7,17.7c-0.1,1.5,0.5,2.7,1.5,3.8c1,1.1,2.4,1.5,3.9,1.5h87.1c-0.9,0-1.7-0.6-2.3-1.2
			c0.6,0.6,1.4,0.9,2.2,1.1c0.5,0.2,1.3,0,1.9,0h110.2c3,0,5.3-1.8,5.3-4.8v-31.6C255,223.6,252.8,221,249.7,221z M216,123.2V81.1
			c5,0.2,8.3,1.5,10.4,3.7c3.1,3.3,2.6,8.1,2.6,8.1c0,0.3,0,0.5,0,0.8v93.9v12.6c-2-0.9-4-1.6-6.4-2c-2.3-0.4-4.6-0.6-6.6-0.7V123.2
			z M57,233v-39.8c5,16,20.1,27.7,38,27.7c17.9,0,33-11.6,38-27.5V233H70.3H57z M66.1,182.2c0-15.3,12.9-27.8,28.7-27.8
			s28.7,12.5,28.7,27.8S110.6,210,94.8,210S66.1,197.5,66.1,182.2z M125,125v-3.6c0,0,0-0.2,0.1-0.2c3.9,0.4,7.9,0.8,11.5,0.8
			c0,0,0,0,0,0c1.7,0,3.3-0.1,4.7-0.2c1.6-0.2,3.6-0.7,5.9-1.1c2-0.4,4.4-0.8,6.9-1.2c1.9,2.3,3.1,3.8,3.4,4.1
			c0.1,0.1,0.2,0.2,0.2,0.3c-1.2,0.1-2.4,0.1-3.7,0.2c-0.6,0-1.1,0.1-1.7,0.1c-2.3,0.2-4.6,0.3-7,0.7c-1.2,0.2-2.4,0.5-3.6,0.8
			c-0.4,0.1-0.9,0-1.3,0.1c-0.7-0.3-1.5-0.7-2.3-0.7H125z M149.4,174.8c0.8,0.1,1.5,0.2,2.2,0.2c0,0,0,0,0,0c6.5,0,8.8-5.1,10.2-8.2
			c0.4-0.8,0.9-1.9,1.2-2.2c0.5-0.4,1-0.9,1.6-1.4c2.1-1.7,4.9-3.9,4.7-7.7c-0.2-3.4-2.9-6.1-7.9-7.9c-2.1-0.8-4.4-1.6-7-1.6h-0.2
			c-3.1,0-5.8,1.1-8.2,2.1c-0.7,0.3-2,0.7-2,1V144c0-0.2,1.2-0.4,1.8-0.6c1.3-0.5,2.6-1,3.8-1.5c2.1-0.9,4.1-1.7,6.1-2.1
			c2.4-0.4,5-0.3,8.8,0.6c8.5,1.9,14,5.2,15.2,9.1c1.4,4.5-2.7,10.1-6.4,14c-0.9,1-2.1,1.9-3.4,2.8c-2.8,2.1-6,4.6-6.9,8.7
			c-0.1,0.4-0.2,0.8-0.2,1.2c-0.4,2.6-0.7,4.5-6,4.5c-0.4,0-0.7,0-1.1,0c-5-0.3-8.6-0.7-11.6-1.5v-5.6
			C145,174,147.4,174.5,149.4,174.8z M144,167.2v-11.9c1-0.4,2.9-1.1,4.3-1.7c2.1-0.9,4-1.7,6.1-1.7c0,0,0,0,0,0
			c1.6,0,3.3,0.6,5,1.2c3,1.1,3.9,2,3.9,2.5c0,0.7-1.4,1.9-2.5,2.8c-0.7,0.6-1.4,1.2-2.1,1.8c-1.1,1.1-1.5,2.5-2.2,4.1
			c-1.4,3.2-2.5,4.7-4.5,4.7v0c-1,0-0.9,0-1.4-0.1C148.2,168.5,146,167.9,144,167.2z M155.3,186.6c0.6,0,1,0,1.6,0
			c10.4,0,11.5-6.6,11.9-9.5c0.1-0.3,0.1-0.6,0.1-0.9c0.4-2,2.4-3.5,4.7-5.2c1.4-1.1,2.8-2.2,4.1-3.5c6.9-7.4,9.5-14.1,7.7-19.9
			c-2.4-7.9-12-11.5-19.7-13.2c-4.6-1-7.9-1.2-11.1-0.6c-2.7,0.5-5.1,1.5-7.4,2.4c-1.2,0.5-2.2,1-3.4,1.4c0,0,0.1,0,0.1,0v-6.3
			c1-0.2,1.7-0.4,2.6-0.6c2.1-0.4,4.1-0.5,6.3-0.7c0.6,0,1.1-0.1,1.7-0.1c20.6-1.6,33.7,2.5,37.6,11.6c4.2,9.6-2.4,22.5-5.7,26
			c-1.5,1.6-3.4,3.1-5.3,4.6c-3.9,3.1-8,6.3-9.9,11.4c-0.3,0.9-0.6,1.9-0.8,2.8c-0.4,1.7-0.8,3.2-1.7,3.9c-0.9,0.7-2.5,0.9-4,1
			c-1.9,0.1-3.7,0.2-5.6,0.2c-5.2,0-10.3-0.5-15.3-1.4v-4.7C147,185.9,150.6,186.3,155.3,186.6z M144,196.1c5,0.8,10.1,1.3,15.3,1.3
			c2,0,4-0.1,6-0.2c2.6-0.2,5.3-0.6,7.4-2.4c2.3-2,3-4.7,3.6-7c0.2-0.8,0.4-1.5,0.6-2.2c1.3-3.5,4.5-6,7.9-8.7c2-1.6,4.2-3.3,6-5.2
			c4.8-5.1,12-20.4,6.8-32.5c-4.2-9.8-15-15-32-15.5c0,0,0.1-0.1,0.1-0.1c0.3-0.3,2.1-2.3,4.6-5.5c8.2,0.2,15,2.1,20.4,5.6
			c1.2,0.8,10.2,7.1,14.2,17.5V159c-2,4.7-4.5,9.5-8.5,14.3c-1.4,1.7-3.5,3.4-5.6,5.2c-4.2,3.6-9.1,7.8-10.3,13.3
			c-0.1,0.7-0.3,1.3-0.4,2c-0.3,1.8-0.6,3.4-1.5,4.3c-0.5,0.5-1.3,0.9-2.5,1.3c-8.9,2.6-17.4,3.9-25.7,3.9c-2.3,0-4.5-0.1-6.5-0.3
			V196.1z M205,98v31c-5-5.7-9.4-9.2-10.9-10.2c-5.3-3.5-11.8-5.8-19.2-6.5c3-4,6.2-9.2,9.2-14.2H205z M161.7,47.9
			c11.8,0,21.4,9.3,21.4,20.7c0,13.4-13,32.3-21.3,42.7c-8.4-10.7-21.5-30.1-21.5-42.7C140.3,57.2,149.9,47.9,161.7,47.9z M76,98
			h63.6c3.5,6,7.3,11.6,10.5,16c-1.4,0.3-2.7,0.6-4,0.9c-2.2,0.4-4.1,0.7-5.5,0.9c-1.2,0.1-2.5,0.2-3.9,0.2c0,0,0,0,0,0
			c-3.4,0-7-0.3-11-0.7c-0.3,0-0.7,0.1-0.7,0.1v-0.5c0-3-2.7-5.9-5.7-5.9H76V98z M57,136h14.3c3,0,5.7-2.1,5.7-5.1V120h37v10.9
			c0,3,2.2,5.1,5.3,5.1H133v34.9c-5-15.9-20.1-27.5-38-27.5c-17.9,0-33,11.7-38,27.7V136z M56.7,244H134v8H56.4L56.7,244z M144,209
			c2,0.2,4.2,0.3,6.5,0.3c8.9,0,18.1-1.4,27.5-4.1c2.2-0.6,3.8-1.5,5.1-2.8c2.2-2.2,2.7-5.1,3.1-7.5c0.1-0.6,0.2-1.2,0.3-1.7
			c0.8-3.6,4.6-6.8,8.3-10c2.2-1.9,4.6-3.8,6.3-5.9c1.4-1.7,2.9-3.3,3.9-5v31.1c0,1.6,0.6,3.1,1.8,4.1c1.2,1,2.7,1.5,4.3,1.3
			c0,0,4.6-0.6,9.2,0.3c7.5,1.4,8,5.3,8.2,6.7c0.3,2.3,0.3,3.3-0.1,5.3H144V209z M244,252h-99v-20h11v6.4c0,3,2.5,5.5,5.5,5.5
			s5.5-2.5,5.5-5.5V232h18v6.4c0,3,2.5,5.5,5.5,5.5s5.5-2.5,5.5-5.5V232h17v6.4c0,3,2.5,5.5,5.5,5.5s5.5-2.5,5.5-5.5V232h20V252z"/>
	</g>
</g>
</svg>
