<?xml version="1.0" encoding="utf-8"?>
<!-- Generator: Adobe Illustrator 18.1.1, SVG Export Plug-In . SVG Version: 6.00 Build 0)  -->
<svg version="1.1" id="Layer_1" xmlns="http://www.w3.org/2000/svg" xmlns:xlink="http://www.w3.org/1999/xlink" x="0px" y="0px"
	 viewBox="0 0 300 300" enable-background="new 0 0 300 300" xml:space="preserve">
<g>
	<path fill="none" d="M75.4,197.8c-0.3,0-0.5,0.1-0.8,0.2c-0.7,0.4-1.3,1.2-1.5,2.2l-3.4,14.2c-0.1,0.5-0.1,0.9-0.1,1.4
		c0.1,1.9,1.4,3.2,2.4,3.2l51.7,0.4l-3.3-1.5c0,0,0,0,0,0l-32.9-14.8c0,0,0,0,0,0l-11.5-5.2C75.9,197.8,75.7,197.8,75.4,197.8z"/>
	<polygon fill="none" points="202.7,203.9 195.5,208 210,208 	"/>
	<rect x="216" y="107" fill="none" width="20" height="10"/>
	<rect x="56" y="118" fill="none" width="46" height="13"/>
	<rect x="56" y="139" fill="none" width="46" height="11"/>
	<rect x="110" y="118" fill="none" width="46" height="13"/>
	<polygon fill="none" points="202.7,167.8 178.3,180.8 202.7,194.8 227.2,180.8 	"/>
	<rect x="216" y="125" fill="none" width="20" height="8"/>
	<rect x="190" y="107" fill="none" width="18" height="10"/>
	<rect x="190" y="125" fill="none" width="18" height="8"/>
	<rect x="110" y="139" fill="none" width="46" height="11"/>
	<path fill="none" d="M149,90H64c-0.6,7-3,14.2-8,16.8v3.2h100v-3C152,104.5,149.6,97,149,90z"/>
	<polygon fill="none" points="202.7,158.3 209,155 196.5,155 	"/>
	<rect x="164" y="125" fill="none" width="18" height="8"/>
	<rect x="164" y="107" fill="none" width="18" height="10"/>
	<path fill="#FFFFFF" d="M130.7,214.5c1,1.3,1.7,2.9,1.8,4.6c0,0.8,0,1.5-0.2,2.3c-0.8,3.4-3.6,5.5-6.7,5.5c0,0,0,0-0.1,0L72,226.8
		c-5.4,0-10-4.7-10.3-10.6c-0.1-1.2,0-2.4,0.3-3.6l3.4-14.2c0.8-3.2,2.7-5.9,5.4-7.3c1.5-0.8,3.1-1.2,4.6-1.2c1.3,0,2.7,0.3,3.9,0.9
		l4.1,1.8l1.6-6.5c0.1-0.5,0.3-0.9,0.5-1.4l-3.4-1.5c-2.2-1-4.4-1.5-6.7-1.5c-2.7,0-5.5,0.7-7.9,2.1c-4.6,2.5-8,7.1-9.3,12.6
		l-3.4,14.2c-0.5,2.1-0.7,4.2-0.6,6.3c0.6,10.2,8.4,18,17.7,18.1l53.4,0.2c0,0,0.1,0,0.1,0c6.5,0,12.2-4.6,13.9-11.5
		c0.4-1.7,0.6-3.3,0.5-5c-0.3-4.9-2.7-9.3-6.3-12l-2.2,6.6C131.1,213.6,130.9,214.1,130.7,214.5z"/>
	<polygon fill="#CDCCCC" points="126.3,202.9 92.8,187.8 90.9,195.8 123.7,210.6 	"/>
	<rect x="164" y="141" fill="#CDCCCC" width="72" height="6"/>
	<path fill="#FFFFFF" d="M225.1,216C225.1,216,225.1,216,225.1,216C225,216,225,216,225.1,216h-44.6c0,0,0,0,0,0c0,0,0,0,0,0H164
		v5.2c6,1,11.1,3.8,13.7,8.8h46.5c2.4-4,5.9-7.3,11.9-8.6V216H225.1z"/>
	<path fill="#CDCCCC" d="M161.2,228.9c-5.8,0-10.4,4.4-10.4,9.9c0,5.5,4.7,9.9,10.4,9.9s10.4-4.4,10.4-9.9
		C171.6,233.3,167,228.9,161.2,228.9z"/>
	<path fill="#CDCCCC" d="M251,238.8c0-5.5-4.7-9.9-10.4-9.9s-10.4,4.4-10.4,9.9c0,5.5,4.7,9.9,10.4,9.9S251,244.2,251,238.8z"/>
	<polygon fill="#CDCCCC" points="51,158 51,164 161,164 161,158 160.4,158 52.8,158 	"/>
	<path fill="#CDCCCC" d="M156.8,86.3c0,7.8,2.2,12.4,3.4,13.6c1.2-1.1,3.4-5.7,3.4-13.6s-2.2-12.4-3.4-13.6
		C159,73.8,156.8,78.4,156.8,86.3z"/>
	<path fill="#CDCCCC" d="M49.4,86.3c0,7.8,2.2,12.5,3.4,13.6c1.2-1.1,3.4-5.7,3.4-13.6S54,73.8,52.8,72.7
		C51.6,73.8,49.4,78.4,49.4,86.3z"/>
	<g>
		<path fill="#5A81B8" d="M147.8,218.2c-0.5-9-5.9-17-13.7-20.5l-23.4-10.5l-14.6-6.6c0,0,0,0,0,0c0,0,0,0,0,0c0,0,0,0,0,0
			l-10.7-4.8c-3.2-1.4-6.5-2.2-10-2.2l0,0c-4.1,0-8.2,1.1-11.8,3.1c-6.6,3.6-11.4,10.1-13.2,17.7l-3.4,14.2
			c-0.7,2.8-0.9,5.7-0.8,8.6c0.8,14.4,12.1,25.5,25.6,25.6l53.4,0.2h0.2c7.3,0,14-3.5,18.1-9.6c0.6-2,1.5-3.6,2.8-5.3
			c0.3-0.9,0.6-1.7,0.8-2.6C147.7,223.2,147.9,220.7,147.8,218.2z M126.3,202.9l-2.6,7.7l-32.9-14.8l2-7.9L126.3,202.9z M87.6,203.1
			C87.6,203.1,87.6,203.1,87.6,203.1l32.9,14.8c0,0,0,0,0,0c0,0,0,0,0,0l3.3,1.5l-51.7-0.4c-1,0-2.3-1.3-2.4-3.2
			c0-0.4,0-0.9,0.1-1.4l3.4-14.2c0.2-1,0.8-1.8,1.5-2.2c0.3-0.1,0.5-0.2,0.8-0.2c0.2,0,0.4,0,0.7,0.1L87.6,203.1z M139.3,223.5
			c-1.7,6.9-7.4,11.5-13.9,11.5c0,0-0.1,0-0.1,0L72,234.8c-9.3-0.1-17.1-8-17.7-18.2c-0.1-2.1,0.1-4.2,0.6-6.2l3.4-14.2
			c1.3-5.5,4.7-10,9.3-12.5c2.5-1.4,5.2-2.1,7.9-2.1c2.3,0,4.6,0.5,6.7,1.5l3.4,1.5c0,0,0,0,0,0c0,0,0,0,0,0
			c-0.2,0.4-0.4,0.9-0.5,1.4l-1.6,6.5l-4.1-1.8c-1.3-0.6-2.6-0.8-3.9-0.8c-1.6,0-3.2,0.4-4.6,1.2c-2.7,1.5-4.6,4.2-5.4,7.3L62,212.5
			c-0.3,1.2-0.4,2.5-0.3,3.7c0.4,6,4.9,10.5,10.3,10.5l53.4,0.2c0,0,0,0,0.1,0c3.2,0,5.9-2.2,6.7-5.5c0.2-0.8,0.3-1.6,0.2-2.4
			c-0.1-1.7-0.7-3.3-1.8-4.6c0.3-0.5,0.5-0.9,0.7-1.4l2.2-6.6c3.6,2.7,6,7.1,6.3,12C139.9,220.3,139.7,221.8,139.3,223.5z"/>
		<path fill="#5A81B8" d="M210,208h-14.5l-13.1,7.5c-0.6,0.4-1.3,0.5-2,0.5H225c-0.7,0-1.3-0.2-2-0.5L210,208z"/>
	</g>
	<path fill="#5A81B8" d="M244,221.3L244,221.3v-2.5v-6.6c0-2.2-1.6-4.2-3.8-4.2h-10h-3.8l-0.3,0l-15.3-8.7l26.7-15.2
		c1.3-0.7,2-2,2-3.5c0-1.5-0.8-2.8-2.1-3.5l-26.1-13.9l14.8-8l0.1-0.2h10.9h3.1c2.2,0,3.8-1.4,3.8-3.6v-14v-34.5
		c0-2.2-1.6-3.9-3.8-3.9h-70.5c-0.4,1-0.4,1,0-0.3c1.3-3.8,1.7-8.2,1.7-12.6c0-9.4-2.3-19.3-9.3-21.3V47.3c0-2.2-1.8-4-4-4
		s-4,1.8-4,4v19.8c-3,3.2-4.7,8.9-5.2,15c0,0,0.2-0.1,0.2-0.1H64c0,0-0.2,0.1-0.2,0.1C63.1,74.7,61,67.9,56,65.5V47.3
		c0-2.2-1.8-4-4-4s-4,1.8-4,4v18.6c-4,3.3-7,12.1-7,20.3c0,8.2,2,17,7,20.3v15.8l0,0V150h-0.4c-2.2,0-4.6,2.2-4.6,4.4v14
		c0,2.2,2.4,3.6,4.6,3.6h117.8c2.2,0,3.6-1.4,3.6-3.6v-13V155h10.3l0.1,0.2l14.8,8l-26.1,14c-1.3,0.7-2.1,2-2.1,3.5
		c0,1.5,0.8,2.8,2,3.5l26.7,15.2l0.5,0.3l-0.5-0.3l-15.3,8.6l-0.3,0h-1.6h-17c-2.2,0-4.5,2-4.5,4.2v9.3c0,0,0.4,0,0.5-0.1
		c-0.1,0-0.1,0-0.1,0.1c-4.2,1.1-7.7,3.5-10.1,6.8c-1.2,1.6-2.1,3.4-2.7,5.4c-0.5,1.6-0.8,3.3-0.8,5.1c0,9.9,8,17.9,18.1,17.9
		s18.1-8,18.1-17.9c0,0,0,0,0,0c0-0.1,0.4-0.8,0.4-0.8h43c0,0-0.4,0.6-0.4,0.8c0,0,0,0,0,0c0,9.9,8.4,17.9,18.5,17.9
		s18.3-8,18.3-17.9C258.8,230.2,253,223,244,221.3z M216,107h20v10h0.2H216V107z M216,125h20.2H236v8h-20V125z M190,107h18v10h-18
		V107z M190,125h18v8h-18V125z M164,114.5V107h18v10h-17.5H164V114.5z M164,125h0.5H182v8h-18V125z M64.4,86.3 M64,82.5 M56.6,106.7
		c4.2-2.6,6.9-9.7,7.5-16.7h84.7c0.6,7,2.9,14.5,7.3,17c0,0-0.1,0.2-0.1,0.2v2.8H56.8H56v-3C56,107,56.5,106.7,56.6,106.7z M110,131
		v-12.5V118h46v13H110z M156,139v11h-46v-11H156z M52.8,72.7c1.2,1.1,3.4,5.7,3.4,13.6S54,98.7,52.8,99.8c-1.2-1.1-3.4-5.7-3.4-13.6
		S51.6,73.8,52.8,72.7z M56,118h46v0.5V131H56.8H56v-9.2V118z M102,139v11H56v-11h0.8H102z M161,164H51v-6h1.8h107.6h0.6V164z
		 M160.2,99.8c-1.2-1.1-3.4-5.7-3.4-13.6s2.2-12.4,3.4-13.6c1.2,1.1,3.4,5.7,3.4,13.6S161.4,98.7,160.2,99.8z M166.1,147H164v-6h0.4
		h0.1h71.7H236v6H166.1z M209.1,155l-0.1,0.2l-6.3,3.4l-6.3-3.5l-0.1-0.2h0.1H209H209.1z M178.3,180.4l24.5-13.4h0l24.5,13.4
		l-24.6,14.2L178.3,180.4z M210.3,208h-15l0.2,0l7.1-4l7.4,3.9L210.3,208z M160.3,220.9L160.3,220.9c-0.1,0-0.1,0-0.2,0
		C160.1,220.9,160.2,220.9,160.3,220.9z M161.2,248.7c-5.8,0-10.4-4.4-10.4-9.9c0-5.5,4.7-9.9,10.4-9.9s10.4,4.4,10.4,9.9
		C171.6,244.2,167,248.7,161.2,248.7z M224.5,230h-47.2c-2.6-5-7.3-8-12.8-9c0,0-0.4,0-0.4,0v-2.3V216h13.5h3c0,0,0,0,0,0
		c0,0,0,0,0,0H225c0,0,0,0,0,0c0,0,0,0,0,0h5.1h5.8v5.4c0,0,0-0.1-0.1-0.1C230.8,222.5,226.9,226,224.5,230z M240.6,248.7
		c-5.8,0-10.4-4.4-10.4-9.9c0-5.5,4.7-9.9,10.4-9.9s10.4,4.4,10.4,9.9C251,244.2,246.4,248.7,240.6,248.7z"/>
</g>
</svg>
