<?xml version="1.0" encoding="utf-8"?>
<!-- Generator: Adobe Illustrator 18.1.1, SVG Export Plug-In . SVG Version: 6.00 Build 0)  -->
<svg version="1.1" id="Layer_1" xmlns="http://www.w3.org/2000/svg" xmlns:xlink="http://www.w3.org/1999/xlink" x="0px" y="0px"
	 viewBox="0 0 300 300" enable-background="new 0 0 300 300" xml:space="preserve">
<g>
	<rect x="253" y="166" fill="#FFFFFF" width="9" height="4"/>
	<path fill="#FFFFFF" d="M78,150v37h18.5c4.8-8,13.9-14.3,24.4-14.3s19.6,6.3,24.4,14.3H168v-37H78z"/>
	<path fill="#FFFFFF" d="M247.6,181c-3,0-5.6-2.2-5.6-5.2v-15c0-3,2.6-5.8,5.6-5.8H262v-5h-25.9h-0.2H179v37h13.7
		c4.8-8,13.9-14.3,24.4-14.3s19.6,6.3,24.4,14.3H262v-6H247.6z"/>
	<path fill="#FFFFFF" d="M168,82H78v57h90V99.8V82z M104,125.3c0,3-2.5,5.5-5.5,5.5s-5.5-2.5-5.5-5.5v-31c0-3,2.5-5.5,5.5-5.5
		s5.5,2.5,5.5,5.5V125.3z M128,125.3c0,3-2.5,5.5-5.5,5.5s-5.5-2.5-5.5-5.5v-31c0-3,2.5-5.5,5.5-5.5s5.5,2.5,5.5,5.5V125.3z
		 M152,125.3c0,3-2.5,5.5-5.5,5.5s-5.5-2.5-5.5-5.5v-31c0-3,2.5-5.5,5.5-5.5s5.5,2.5,5.5,5.5V125.3z"/>
	<path fill="#FFFFFF" d="M204.7,113.8L219,139h7.4l-19.6-34H179v6h20.9C201.9,111,203.7,112.1,204.7,113.8z"/>
	<path fill="#FFFFFF" d="M217.1,184c-9.4,0-17,7.6-17,17s7.6,17,17,17s17-7.6,17-17S226.4,184,217.1,184z M224.3,200.9
		c0,4-3.2,7.2-7.2,7.2s-7.2-3.2-7.2-7.2c0-4,3.2-7.2,7.2-7.2S224.3,196.9,224.3,200.9z"/>
	<path fill="#FFFFFF" d="M120.9,184c-9.4,0-17,7.6-17,17s7.6,17,17,17s17-7.6,17-17S130.3,184,120.9,184z M128.1,200.9
		c0,4-3.2,7.2-7.2,7.2s-7.2-3.2-7.2-7.2c0-4,3.2-7.2,7.2-7.2S128.1,196.9,128.1,200.9z"/>
	<polygon fill="#CCCCCC" points="196.7,122 180,122 180,138 205.5,137.7 	"/>
	<g>
		<path fill="#5980B7" d="M273,188.2v-43.4c0-3-2.3-5.8-5.4-5.8h-28.6l-24.4-42.2c-1-1.7-2.8-2.8-4.8-2.8H179V77.3v-0.5
			c0-3-2.3-5.8-5.4-5.8H77.1h-4.5H43.1c-3,0-5.5,2.5-5.5,5.5s2.5,5.5,5.5,5.5H67v57H51.1c-3,0-5.5,2.5-5.5,5.5s2.5,5.5,5.5,5.5H67
			v37h-2.9c-3,0-5.5,2.5-5.5,5.5s2.5,5.5,5.5,5.5h8.5h20.5c-0.1,1-0.1,1.9-0.1,2.8c0,15.4,12.5,28,28,28s28-12.6,28-28.1
			c0-0.9,0-1.7-0.1-2.7h40.5c-0.1,1-0.1,1.9-0.1,2.8c0,15.4,12.5,28,28,28s28-12.6,28-28.1c0-0.9,0-1.7-0.1-2.7h22.7h2.5
			c3,0,5.4-2.3,5.4-5.4C275.6,190.7,275,189.1,273,188.2z M262,170h-9v-4h9V170z M206.7,105l19.6,34H219l-14.3-25.2
			c-1-1.7-2.8-2.8-4.8-2.8H179v-6H206.7z M180,138v-16h16.7l8.7,15.7L180,138z M78,82h90v17.8V139H78V82z M120.9,217.9
			c-9.4,0-17-7.6-17-17s7.6-17,17-17s17,7.6,17,17S130.3,217.9,120.9,217.9z M145.3,187c-4.8-8-13.9-14.3-24.4-14.3
			S101.3,179,96.5,187H78v-37h90v37H145.3z M217.1,217.9c-9.4,0-17-7.6-17-17s7.6-17,17-17s17,7.6,17,17S226.4,217.9,217.1,217.9z
			 M241.5,187c-4.8-8-13.9-14.3-24.4-14.3s-19.6,6.3-24.4,14.3H179v-37h56.9h0.2H262v5h-14.4c-3,0-5.6,2.7-5.6,5.8v15
			c0,3,2.6,5.2,5.6,5.2H262v6H241.5z"/>
		<circle fill="#5980B7" cx="217.1" cy="200.9" r="7.2"/>
		<circle fill="#5980B7" cx="120.9" cy="200.9" r="7.2"/>
		<path fill="#5980B7" d="M98.5,88.8c-3,0-5.5,2.5-5.5,5.5v31c0,3,2.5,5.5,5.5,5.5s5.5-2.5,5.5-5.5v-31
			C104,91.2,101.5,88.8,98.5,88.8z"/>
		<path fill="#5980B7" d="M122.5,88.8c-3,0-5.5,2.5-5.5,5.5v31c0,3,2.5,5.5,5.5,5.5s5.5-2.5,5.5-5.5v-31
			C128,91.2,125.5,88.8,122.5,88.8z"/>
		<path fill="#5980B7" d="M146.5,88.8c-3,0-5.5,2.5-5.5,5.5v31c0,3,2.5,5.5,5.5,5.5s5.5-2.5,5.5-5.5v-31
			C152,91.2,149.5,88.8,146.5,88.8z"/>
		<path fill="#5980B7" d="M57.1,105c3,0,5.5-2.5,5.5-5.5S60.2,94,57.1,94h-5c-3,0-5.5,2.5-5.5,5.5s2.5,5.5,5.5,5.5H57.1z"/>
		<path fill="#5980B7" d="M56.6,124.5c0-3-2.5-5.5-5.5-5.5h-22c-3,0-5.5,2.5-5.5,5.5s2.5,5.5,5.5,5.5h22
			C54.2,130,56.6,127.5,56.6,124.5z"/>
	</g>
</g>
</svg>
