<?xml version="1.0" encoding="utf-8"?>
<!-- Generator: Adobe Illustrator 18.1.1, SVG Export Plug-In . SVG Version: 6.00 Build 0)  -->
<svg version="1.1" id="Layer_1" xmlns="http://www.w3.org/2000/svg" xmlns:xlink="http://www.w3.org/1999/xlink" x="0px" y="0px"
	 viewBox="0 0 300 300" enable-background="new 0 0 300 300" xml:space="preserve">
<g>
	<path fill="none" d="M148,110.6l-9.3,4.1l-0.6,5.4c3.3-0.2,6.8-0.4,9.8-0.5V110.6z"/>
	<path fill="none" d="M148,204.8c-6-0.1-12.4-0.3-17.9-0.7c4.5,6.6,10.3,12.8,17.3,18.7c0.2,0,0.6,0,0.6,0V204.8z"/>
	<path fill="none" d="M159,130.6v25.1l19.5-14.5c0.6-0.5,1.3-0.8,2-0.9c-1.1-3.1-2.1-6.1-3.4-9C171.5,131,166,130.7,159,130.6z"/>
	<path fill="none" d="M189.4,132.5c0.9,2.5,1.8,5.5,2.6,7.5h18.9c-0.5-1-1.1-2.9-1.8-4.3C205.8,135,198.9,133.7,189.4,132.5z"/>
	<path fill="none" d="M118.1,170.9c0.5,7.4,2.4,14.6,5.4,21.4c7.1,0.7,15.5,1.3,24.5,1.4V167h-30C118,169,118.1,169.6,118.1,170.9z"
		/>
	<path fill="none" d="M81.4,146.9c-2.1-0.1-4.2-0.7-6-1.9c-2.9-2-4.6-5.2-4.7-8.7c-7.6,5.9-14.7,14.8-13,26.5
		c2,13.9,16.4,19.5,26.1,21.8c-2.5-7.3-3.8-15.1-3.8-23.3C80,156.3,80.5,151.5,81.4,146.9z"/>
	<path fill="none" d="M107.6,156c0.1,0,0.2-1,0.2-1.6c-1.7-1.7-2.8-3.8-3.2-6.3l-1.6-11.8c-1.7,0.4-3.4,0.8-5.2,1.3
		c-0.9,1.8-2.2,3.2-3.9,4.3c-1.5,4.5-2.4,9.1-2.8,14.1H107.6z"/>
	<path fill="none" d="M111,190.8c-2.1-6.2-3.4-12.7-3.8-19.3c-0.1-1.5-0.1-2.5-0.2-4.5H91.3c0.7,8,2.8,14.8,6,21.2
		C99.8,188.8,104.5,189.9,111,190.8z"/>
	<path fill="none" d="M148,130.8c-4,0.1-7.5,0.3-11.3,0.6l-1.6,12.5c-0.4,3.7-2.8,6.8-6.1,8.4l-7.9,3.7H148V130.8z"/>
	<path fill="none" d="M125.6,216.6c-3.7-4.5-6.8-9.2-9.4-14c-3.9-0.5-7.4-1-10.4-1.5C111.2,207.6,118,212.9,125.6,216.6z"/>
	<path fill="none" d="M201.5,123.2c-7.2-9.2-17-16.4-28.3-20.3c3.4,4.7,7.3,10.9,11,18C190.9,121.6,196.8,122.4,201.5,123.2z"/>
	<path fill="none" d="M171.2,119.9c-4.1-7-8.1-12.6-10.9-16.1c-0.4,0.4-0.3,0.9-1.3,1.2v14.5C163,119.6,167.3,119.7,171.2,119.9z"/>
	<path fill="#FFFFFF" d="M71,110.1l12.1,9.6l-1.4,16.2l6.3-3l4.8-12.4l18.5-5.8l4.3,32.1l8.5-4.2l4.3-35.3l22.3-10.1
		c2.8-1.3,4-4.5,2.8-7.3c-0.9-2.1-3-3.4-5.1-3.4c-0.7,0-1.4,0.1-2.1,0.4l-22.1,9.3L93.4,74.1L86,77.7l21.4,25l-17.8,10l-14.3-5.1
		L71,110.1z"/>
	<polygon fill="#FFFFFF" points="228,220.8 243,206.7 243,158.1 228,169 	"/>
	<path fill="#FFFFFF" d="M217,173h-17v25.9c0,3-2.9,5.1-6,5.1h-17.8c-3,0-5.3-2.1-5.3-5.1V173h-11v50.7l57,1.7V173z"/>
	<path fill="#FFFFFF" d="M176.3,162H194c0.5,0,1,0,1.5,0h22.7c0.1,0,0.2-0.2,0.3-0.3l14.7-10.7h-49.9l-15,11h6.3
		C175.2,162,175.7,162,176.3,162z"/>
	<rect x="182" y="173" fill="#CCCCCC" width="7" height="20"/>
	<path fill="#5980B7" d="M248.2,140h-25.7c-7.9-26-30.3-46.2-57.8-50.7c-0.2-1.3-0.6-2.6-1.2-3.9c-2.6-6-8.6-9.9-15.2-9.9
		c-2.2,0-4.3,0.4-6.3,1.3c0,0-0.1,0-0.1,0l-16.4,6.9L99.8,65.1c-1.9-1.4-4.2-2.1-6.4-2.1c-1.6,0-3.3,0.4-4.8,1.1l-7.4,3.6
		c-3.1,1.5-5.3,4.3-6,7.7c-0.7,3.3,0.2,6.8,2.4,9.4l12.7,14.8l-1.7,1L79,97.1c-1.2-0.4-2.5-0.6-3.7-0.6c-2,0-4,0.6-5.8,1.6l-4.2,2.6
		c-3.1,1.9-5,5.1-5.2,8.7c-0.2,3.6,1.3,7,4.2,9.3l5.8,4.6c-11.5,7.2-26.1,20.5-23.2,41c3.7,25.5,32.6,31.1,42.4,32.3
		c10.9,19.6,30.6,33.6,53.7,36.7c0.7,0.3,1.5,0.5,2.2,0.5c0.4,0,0.7,0,1.1-0.1c1.8,0.2,3.6,0.2,5.4,0.3c0.7,0.4,1.5,0.6,2.3,0.6
		l70.5,2.1c0.1,0,0.1,0,0.2,0c1.4,0,2.7-0.5,3.8-1.5l23.7-22.1c1.1-1,1.9-2.5,1.9-4v-63.3C254,142.7,251.2,140,248.2,140z
		 M233.3,151l-14.7,10.7c-0.1,0.1-0.2,0.3-0.3,0.3h-22.7c1.4,1,2.7,1.5,3.4,2.8c-0.7-1.2-1.9-2.2-3.4-2.7c-0.5-0.1-1.1-0.2-1.6-0.2
		h-17.8c-0.5,0-1.1,0.1-1.6,0.2c-1.4,0.4-2.6,1.3-3.4,2.5c0.7-1.3,2-1.8,3.4-2.8h-6.3l15-11H233.3z M189,173v20h-7v-20H189z
		 M103.1,136.4l1.6,11.8c0.3,2.4,1.5,4.5,3.2,6.2c-0.1,0.6-0.2,1.6-0.2,1.6H91.2c0.4-5,1.4-9.5,2.8-14.1c1.7-1.1,3-2.6,3.9-4.4
		C99.7,137.1,101.4,136.8,103.1,136.4z M180.5,140.4c-0.8,0.2-1.3,0.5-1.9,0.9L159,155.8v-25.1c7,0.1,12.5,0.4,18.1,0.8
		C178.4,134.3,179.4,137.3,180.5,140.4z M148,119.7c-3,0.1-6.6,0.3-9.9,0.5l0.7-5.4l9.2-4.1V119.7z M148,130.8V156h-26.9l7.8-3.7
		c3.4-1.6,5.6-4.8,6.1-8.5l1.7-12.5C140.5,131,144,130.9,148,130.8z M97.3,188.2c-3.2-6.5-5.3-13.2-6-21.2H107c0,2,0.1,3.1,0.2,4.5
		c0.4,6.6,1.7,13,3.8,19.1C104.5,189.7,99.8,188.8,97.3,188.2z M118.1,170.9c-0.1-1.2-0.1-1.9-0.1-3.9h30v26.7
		c-9-0.1-17.3-0.7-24.5-1.4C120.6,185.4,118.6,178.2,118.1,170.9z M192,140c-0.8-2-1.7-5-2.6-7.5c9.5,1.2,16.4,2.4,19.7,3.2
		c0.7,1.4,1.3,3.3,1.8,4.3H192z M201.5,123.2c-4.7-0.8-10.5-1.6-17.3-2.3c-3.7-7.2-7.6-13.3-11-18
		C184.5,106.8,194.2,114,201.5,123.2z M160.2,103.8c2.8,3.5,7,9.1,11,16.1c-3.9-0.2-8.3-0.3-12.3-0.4v-14.5
		C160,104.7,159.8,104.3,160.2,103.8z M75.2,107.5l14.3,5.1l17.8-10L86,77.7l7.4-3.6l30.7,22.2l22.1-9.3c0.7-0.3,1.4-0.4,2.1-0.4
		c2.2,0,4.2,1.3,5.1,3.4c1.2,2.8,0,6.1-2.8,7.3l-22.3,10.1l-4.3,35.3l-8.5,4.2l-4.3-32.1l-18.5,5.8L88,132.9l-6.3,3l1.4-16.2
		L71,110.1L75.2,107.5z M57.7,162.7c-1.7-11.7,5.4-20.5,13-26.5c0.1,3.5,1.8,6.7,4.7,8.7c1.8,1.2,3.9,1.9,6,1.9
		c-0.9,4.6-1.4,9.4-1.4,14.3c0,8.1,1.4,16,3.8,23.3C74.1,182.2,59.7,176.6,57.7,162.7z M105.8,201.2c3,0.5,6.5,1,10.4,1.5
		c2.6,4.8,5.7,9.5,9.4,14C118,212.9,111.2,207.6,105.8,201.2z M130.1,204c5.5,0.4,11.9,0.7,17.9,0.7v18c0,0-0.5,0-0.6,0
		C140.4,216.8,134.6,210.6,130.1,204z M160,173h11v25.9c0,3,2.2,5.1,5.3,5.1H194c3,0,6-2.1,6-5.1V173h17v52.4l-57-1.7V173z
		 M243,206.7l-15,14.1V169l15-10.9V206.7z"/>
</g>
</svg>
