<?xml version="1.0" encoding="utf-8"?>
<!-- Generator: Adobe Illustrator 18.1.1, SVG Export Plug-In . SVG Version: 6.00 Build 0)  -->
<svg version="1.1" id="Layer_1" xmlns="http://www.w3.org/2000/svg" xmlns:xlink="http://www.w3.org/1999/xlink" x="0px" y="0px"
	 viewBox="0 0 300 300" enable-background="new 0 0 300 300" xml:space="preserve">
<g>
	<path fill="none" d="M170.2,144.7C170.2,144.7,170.2,144.7,170.2,144.7c0.7-0.8,1.6-1.4,2.8-1.4c-1.1,0-2,0.5-2.8,1.2
		C170.2,144.5,170.2,144.6,170.2,144.7z"/>
	<path fill="none" d="M172.3,167.2c-1.3-0.2-2.2-1.2-2.8-2.3c0,0.1,0,0.1,0,0.2C170.1,166.2,171.1,167,172.3,167.2z"/>
	<path fill="none" d="M168.4,190.5c0-0.2,0-0.4,0-0.6C168.4,190.1,168.4,190.3,168.4,190.5z"/>
	<path fill="none" d="M172.3,167.2c0.2,0,0.4,0,0.6,0C172.7,167.3,172.5,167.3,172.3,167.2z"/>
	<path fill="none" d="M186.5,89.5c-1.4-1.5-3.8-2.5-7.2-2.5c0,0,0,0,0,0c-8,0-10.2,3.8-10.2,9c0,0,0,0,0,0c0-5.2,1.9-8.7,10-8.7
		c3.4,0,6,0.8,7.4,2.3c1.5,1.7,2.3,4.7,2.3,8.9l0.2,44.7l-0.1-44.8C188.7,94.3,188,91.1,186.5,89.5z"/>
	<path fill="none" d="M171.4,202.7C171.4,202.7,171.4,202.7,171.4,202.7c-3.9,0-6.8-1.1-8.6-3.3c-1.7-2-2.4-5.1-2.4-9.5
		c0,4.5,0.7,7.5,2.3,9.5C164.6,201.6,167.4,202.7,171.4,202.7z"/>
	<path fill="none" d="M146.5,197.5c0-0.7-0.1-1.3-0.1-2.1C146.4,196.2,146.4,196.8,146.5,197.5z"/>
	<path fill="#FFFFFF" d="M115.6,186.5c-5.5-6.1-8.3-15-8.3-26.5c0-35.4,0.1-56.5,0.2-62.6c0-3.7-0.7-6.4-2-7.8c-1.2-1.3-4-2-7.9-2
		c-3,0-5.3,0.7-6.8,2.1c-1.4,1.3-2.1,3.4-2.1,6.2c0,12.9-0.1,34.7-0.4,64.7c0,16.5,4.5,29.5,13.4,38.5c9,9.1,20.9,13.6,36.4,13.6
		c2,0,3.9-0.1,5.7-0.2c0,0,0,0,0,0c-3.5-4.2-5.4-9.8-5.4-16.6C128.7,195.7,121.1,192.6,115.6,186.5z"/>
	<path fill="#FFFFFF" d="M169.3,165.1c-0.3,1.9-1.3,3.8-1.3,5.6v19.2c0,0.2,0.2,0.4,0.2,0.6c0.1,2.9,0.6,3.4,0.6,3.4
		c0,0,0.6,0.1,2.5,0.1c0,0,0,0,0,0c2.3,0,4.6-0.3,7.6-2.2V167h-6.1c-0.2,0-0.4,0.1-0.6,0.1c0,0-0.1,0.1-0.2,0.1
		C171,166.9,169.9,166.2,169.3,165.1z"/>
	<path fill="#FFFFFF" d="M186.5,89.7c-1.4-1.5-3.8-2.3-7.2-2.3c-8,0-9.7,3.5-9.7,8.7c0,4.4,0.1,11,0.2,19.5
		c0.1,8.6,0.3,16.7,0.3,23.9c0,1.7,0.1,3.2,0.1,4.8c0.7-0.7,1.7-1.3,2.8-1.3h16l-0.2-44.6C188.7,94.2,188,91.3,186.5,89.7z"/>
	<path fill="#CDCCCC" d="M201,199.9V151h-24v8h6.4c2.2,0,3.6,1.9,3.6,4.1v30.8c0,1.3-0.3,2.5-1.4,3.2c-5.1,3.8-9.8,5.7-14.3,5.7
		c0,0,0,0,0,0c0,0,0,0,0,0c-4,0-7-1.1-8.8-3.3c-1.7-2-2.5-5.1-2.5-9.5V151h-24v8h6.4c2.2,0,3.6,1.9,3.6,4.1v32.4
		c0,0.7,0.2,1.4,0.3,2.1c0.3,4.6,1.9,8.1,4.5,10.6c1.2,1.2,2.6,1.8,4.1,2.5c2.4,1.1,5.3,1.3,8.7,1.3c0,0,0,0,0,0
		c2.9,0,5.8-0.2,8.7-1.2c2.5-0.8,4.9-1.9,7.4-3.4c0.5-0.3,1-0.6,1.5-1c0.6-0.4,1.3-0.6,2-0.7c0.2,0,0.3,0,0.5,0
		c0.5,0,0.9,0.2,1.4,0.5c1.3,0.7,1.9,2.1,1.9,3.6v1.2h25v-7h-6.8C203,204,201,202.1,201,199.9z"/>
	<path fill="#5A81B8" d="M216.3,196H209v-48.7c0-2.2-1.5-4.3-3.8-4.3h-8.1L197,98.4c0-6.4-1.4-11.1-4.4-14.4c-3-3.4-7.5-5-13.4-5
		c-11.4,0-18,6.2-18,17c0,4.4,0.1,11.1,0.2,19.6c0.1,8.6,0.2,16.4,0.2,23.6c0,1.3,0,2.7,0,3.7h-29.4c-2.2,0-4.2,2.1-4.2,4.3v15.7
		c0,2.2,2,3.9,4.2,3.9h5.8v20.5c-7-0.1-12.6-2.3-16.5-6.6c-4.1-4.5-6-11.6-6-21c0-35.4,0.1-56.4,0.2-62.5c0-6.1-1.4-10.5-4.2-13.5
		c-2.9-3.1-7.5-4.6-13.9-4.6c-5.2,0-9.4,1.5-12.5,4.3c-3.1,2.9-4.7,7.1-4.7,12.3c0,12.9-0.1,34.7-0.4,64.7
		c0,18.8,5.3,33.8,15.8,44.4c10.5,10.6,24.7,16,42.3,16c5.7,0,11-0.6,15.9-1.7c2.9,0.9,6,1.4,9.5,1.4c5.4,0,10.8-1.6,16-4.2
		c0.5,1.7,2,2.6,3.9,2.6h32.8c2.2,0,3.7-1.1,3.7-3.3v-15.7C220,197.7,218.5,196,216.3,196z M169,96c0-5.2,2.2-9,10.2-9c0,0,0,0,0,0
		c3.4,0,5.9,1,7.2,2.5c1.5,1.7,2.3,4.7,2.3,8.9l0.1,44.6h-16c-1.2,0-1.9,0.7-2.9,1.5c0,0,0,0.1,0,0.1c0-0.1,0.1-0.1,0.1-0.2
		c0-1.6-0.1-3.3-0.1-4.9c0-7.2-0.4-15.3-0.5-23.9C169.4,107,169,100.5,169,96C169,96.1,169,96,169,96z M168,170.7
		c0-1.8,1-3.7,1.3-5.6c0-0.1,0.1-0.1,0.1-0.2c0.5,1.2,1.5,2.1,2.8,2.3c0,0,0.1-0.1,0.1-0.1c0.2,0,0.4-0.1,0.6-0.1h6.1v24.8
		c-3,1.9-5.3,2.2-7.6,2.2c0,0,0,0,0,0c-2,0-2.4-0.1-2.4-0.1c0,0-0.7-0.6-0.7-3.5c0-0.2-0.2-0.3-0.2-0.5V170.7z M138.1,212.7
		c-15.5,0-27.4-4.4-36.4-13.6c-8.9-9-13.4-22-13.4-38.5c0.3-30,0.4-51.8,0.4-64.7c0-2.9,0.7-4.9,2.1-6.2c1.5-1.4,3.8-2.1,6.8-2.1
		c3.9,0,6.7,0.7,7.9,2c1.3,1.4,2,4.1,2,7.8c-0.1,6.1-0.2,27.2-0.2,62.6c0,11.5,2.8,20.5,8.3,26.5c5.5,6.1,13.1,9.2,22.8,9.3
		c0.1,6.8,1.9,12.4,5.4,16.6c0,0,0,0,0,0C142,212.6,140.1,212.7,138.1,212.7z M212,211h-25v-1.2c0-1.5-0.6-2.9-1.9-3.6
		c-0.5-0.3-1-0.4-1.5-0.4c-0.2,0-0.3,0-0.5,0c-0.7,0-1.4,0.3-2,0.7c-0.5,0.4-1,0.7-1.5,1c-2.5,1.5-4.9,2.4-7.4,3.3
		c-2.9,1-5.8,1.2-8.7,1.2c0,0,0,0,0,0c-3.4,0-6.2-0.2-8.6-1.3c-1.5-0.7-2.9-1.5-4.1-2.6c-2.6-2.6-4.3-6-4.6-10.6
		c0-0.7-0.3-1.3-0.3-2v-32.4c0-2.2-1.3-4.1-3.6-4.1H136v-8h24v38.9c0,4.5,0.9,7.5,2.6,9.5c1.8,2.2,4.8,3.3,8.7,3.3c0,0,0.1,0,0.1,0
		c4.5,0,9.2-1.9,14.2-5.7c1-0.8,1.4-2,1.4-3.2v-30.8c0-2.2-1.3-4.1-3.6-4.1H177v-8h24v48.9c0,2.2,2,4.1,4.2,4.1h6.8V211z"/>
</g>
</svg>
