<?xml version="1.0" encoding="utf-8"?>
<!-- Generator: Adobe Illustrator 18.1.1, SVG Export Plug-In . SVG Version: 6.00 Build 0)  -->
<svg version="1.1" id="Layer_1" xmlns="http://www.w3.org/2000/svg" xmlns:xlink="http://www.w3.org/1999/xlink" x="0px" y="0px"
	 viewBox="0 0 300 300" enable-background="new 0 0 300 300" xml:space="preserve">
<g>
	<path fill="none" d="M200.2,160c1.3,0,2.6,0.6,3.3,1.7c0.1,0.1,0.1,0.2,0.2,0.3c-0.1-0.1-0.1-0.2-0.2-0.3
		C202.8,160.6,201.5,160,200.2,160z"/>
	<path fill="none" d="M194.2,168h-3c-1.1,0-2.2-0.5-2.9-1.2c-0.7,0.8-1.8,1.2-2.9,1.2h-2.9l5.4,15.6L194.2,168z"/>
	<path fill="none" d="M173.5,161.9c-0.4,0.6-0.5,1.2-0.6,1.9C172.9,163.1,173.1,162.5,173.5,161.9z"/>
	<path fill="none" d="M138.4,181.6c0.7-1.6,1.7-4.3,3.1-8.1c1-2.7,1.6-4.4,2.1-5.6c0,0,0,0,0,0c0,0,0,0,0,0c-0.4,1.1-1.1,2.9-2,5.5
		C140.1,177.3,139.1,180,138.4,181.6z"/>
	<path fill="none" d="M188.1,105.3c2.6-7.6,2.9-9.4,2.9-9.7c0,0,0,0,0,0c0-2.2-1-3.8-3.2-5.4c-2.5-1.8-5-2.7-7.5-2.7
		c-5.8,0-7.7,2.8-8.6,5.2c1-2.4,2.8-5.2,8.6-5.2c2.5,0,4.9,0.9,7.4,2.7c2.1,1.6,3.1,3.2,3.1,5.4C190.8,95.9,190.6,97.7,188.1,105.3
		c-1.6,4-6.7,16.5-15.2,37.1c-0.2,0.4-0.5,0.6-0.7,1.6c0.3-1,0.6-1.2,0.8-1.6C181.4,121.8,186.5,109.4,188.1,105.3z"/>
	<path fill="none" d="M191.4,196.5l12.6-31.1c0.2-0.5,0.3-1,0.3-1.4c0,0.5-0.1,0.9-0.3,1.4L191.4,196.5c-0.6,1.5-2.2,2.5-3.8,2.5
		C189.2,199,190.7,198,191.4,196.5z"/>
	<path fill="#FFFFFF" d="M138.4,181.6c-0.7,1.6-2.2,2.6-3.9,2.5c-1.7,0-3.2-1.1-3.8-2.7l-26.1-69.3c0-0.1,0-0.1-0.1-0.2
		c-1.8-5.5-4.1-11.9-6.9-19.1c-1.5-4.1-4-5.7-8.2-5.7c-3,0-5.8,0.9-8.4,2.8c-2.9,2.1-3.3,4.3-3.3,5.7c0,0.2,0.3,2,3.2,10l40.3,96.9
		c1.7,3.8,3.4,6.7,5.2,8.4c1.3,1.3,3.7,1.9,7,1.9c6.5,0,10.6-2.6,12.9-8.2l10.4-24l-5.5-12.7H144c-0.1,0-0.3-0.1-0.4-0.1
		c-0.4,1.1-1.1,2.8-2.1,5.6C140.1,177.3,139.1,180,138.4,181.6z"/>
	<path fill="#FFFFFF" d="M188,105.3c2.6-7.6,2.8-9.4,2.9-9.7c0-2.2-1-3.8-3.1-5.4c-2.5-1.8-4.9-2.7-7.4-2.7c-5.8,0-7.7,2.7-8.6,5.1
		L152.5,144h19.6c0.3-1,0.5-1.1,0.7-1.6C181.3,121.8,186.4,109.4,188,105.3z"/>
	<path fill="#CDCCCC" d="M195,160h5.2c1.3,0,2.6,0.6,3.3,1.7c0.1,0.1,0.1,0.2,0.2,0.3c0.3,0.6,0.5,1.3,0.5,1.9c0,0.5-0.1,1-0.3,1.4
		l-12.6,31.1c-0.6,1.6-2.2,2.5-3.8,2.5c-1.7,0-3.2-1.1-3.7-2.7l-10.7-31.1c-0.2-0.5-0.2-0.9-0.2-1.4c0-0.7,0.2-1.3,0.6-1.9
		c0.1-0.1,0.1-0.2,0.2-0.3c0.8-1.1,2-1.6,3.3-1.6h4.1v-8h-33v8h5.9c1.6,0,3.1,0.7,3.7,2.1l22,50.9h13.2l21.1-50.8
		c0.6-1.5,2.1-2.2,3.7-2.2h5.3v-8h-28V160z"/>
	<path fill="#5A81B8" d="M227.4,144h-36.2c-1.1,0-2.2,0.5-2.9,1.2c-0.7-0.8-1.8-1.2-2.9-1.2h-4.3c8.2-20,13-31.8,14.6-35.8
		c0,0,0-0.1,0-0.1c2.9-8.5,3.3-11,3.3-12.5c0-4.8-2.2-9-6.5-12.1c-3.9-2.9-8-4.3-12.3-4.3c-10,0-14.4,5.7-16.3,10.5l-20.3,54.4
		c0,0,0,0,0,0c-2.1,0.2-3.7,1.9-3.7,4v5.9l-3.4,9c-0.4,1-1.1,2.7-2,5.2l-22.2-58.9c-1.8-5.6-4.2-12.1-7-19.4
		c-2.7-7.2-8.2-11.1-16-11.1c-4.8,0-9.2,1.5-13.2,4.4c-4.4,3.2-6.7,7.5-6.7,12.4c0,1.3,0.3,3.5,3.8,12.9c0,0.1,0,0.1,0.1,0.2
		l40.4,97.1c2.2,5,4.5,8.6,7,11c2.9,2.8,7.2,4.3,12.7,4.3c9.8,0,16.9-4.6,20.6-13.2l7.3-16.8l0,0l12,27.7c0.6,1.5,2.1,2.2,3.7,2.2
		h18.6c1.6,0,3.1-0.7,3.7-2.2l21.1-50.8h7.1c2.2,0,3.6-1.9,3.6-4.2v-15.7C231,145.9,229.6,144,227.4,144z M185.4,168
		c1.1,0,2.2-0.5,2.9-1.2c0.7,0.8,1.8,1.2,2.9,1.2h3l-6.3,15.6l-5.4-15.6H185.4z M171.7,92.7c1-2.4,2.8-5.2,8.6-5.2
		c2.5,0,5,0.9,7.5,2.7c2.1,1.6,3.2,3.2,3.2,5.4c0,0,0,0,0,0c0,0.3-0.3,2.1-2.9,9.7c-1.6,4-6.7,16.5-15.1,37.1
		c-0.2,0.4-0.5,0.6-0.8,1.6h-19.6L171.7,92.7z M146.4,204.7c-2.3,5.6-6.4,8.2-12.9,8.2c-3.3,0-5.6-0.7-7-1.9
		c-1.7-1.7-3.5-4.5-5.2-8.4L81,105.6c-2.9-8-3.2-9.8-3.2-10c0-1.4,0.3-3.6,3.3-5.7c2.6-1.9,5.4-2.8,8.4-2.8c4.3,0,6.7,1.7,8.2,5.7
		c2.8,7.2,5.1,13.6,6.9,19.1c0,0.1,0,0.1,0.1,0.2l26.1,69.3c0.6,1.6,2.1,2.7,3.8,2.7c1.7,0.1,3.2-1,3.9-2.5c0.7-1.6,1.7-4.3,3.1-8.2
		c1-2.7,1.6-4.4,2-5.5c0,0,0,0,0,0c0,0,0,0,0,0c0.1,0,0.3,0.1,0.4,0.1h7.2l5.5,12.7L146.4,204.7z M223,160h-5.3
		c-1.6,0-3.1,0.7-3.7,2.2L192.8,213h-13.2l-22-50.9c-0.6-1.5-2.1-2.1-3.7-2.1H148v-8h33v8h-4.1c-1.3,0-2.5,0.5-3.3,1.6
		c-0.1,0.1-0.1,0.2-0.2,0.3c-0.3,0.6-0.5,1.2-0.6,1.9c0,0.5,0.1,0.9,0.2,1.4l10.7,31.1c0.5,1.6,2,2.7,3.7,2.7c1.6,0,3.2-1,3.8-2.5
		l12.6-31.1c0.2-0.5,0.3-0.9,0.3-1.4c0-0.7-0.2-1.3-0.5-1.9c-0.1-0.1-0.1-0.2-0.2-0.3c-0.7-1.1-2-1.7-3.3-1.7H195v-8h28V160z"/>
</g>
</svg>
