<?xml version="1.0" encoding="utf-8"?>
<!-- Generator: Adobe Illustrator 18.1.1, SVG Export Plug-In . SVG Version: 6.00 Build 0)  -->
<svg version="1.1" id="Layer_1" xmlns="http://www.w3.org/2000/svg" xmlns:xlink="http://www.w3.org/1999/xlink" x="0px" y="0px"
	 viewBox="0 0 300 300" enable-background="new 0 0 300 300" xml:space="preserve">
<g>
	<path fill="none" d="M98.9,136c1.3-2.8,4.5-4,7.3-2.7l15.5,7.1c-11.5-15.9-26.4-32.4-36.4-33.7c-2.3-0.3-4.1,0.3-5.8,1.9
		c-2.4,2.3-3.3,4.9-3.1,8.1c1.1,13.9,23.7,33,32.3,39.2c0.5,0.4,1,0.9,1.3,1.4c4.6-1.4,9.1-2.7,13.5-4l-21.9-9.9
		C98.8,142,97.6,138.7,98.9,136z"/>
	<path fill="none" d="M62.9,162.4c1.4,1.8,1.5,4.3,0.3,6.2l-4.2,6.8c8.9-3.7,19.1-7.6,29.7-11.3l-31.6-9.4L62.9,162.4z"/>
	<path fill="none" d="M132.4,131c-1,0.1-1.9,0.3-2.8,0.5c0,0,0,0,0,0c-0.2,0-0.3,0.1-0.5,0.1c5.5,7.4,9.6,13.9,11.6,17.1
		c0.7-0.2,1.5-0.3,2.2-0.5c1.6-0.4,3.4-0.5,5.2-0.5c1.5,0,3,0.1,4.5,0.3C148.3,135.8,141.5,130.1,132.4,131z"/>
	<path fill="none" d="M160.2,138c-0.8-15.5-3.4-29.4-7.5-32.7c-1.7-1.3-4.9-3.2-7.7-1.4c-3,2-5.1,8-2.9,17.1
		C148.4,122.9,155.1,127.6,160.2,138z"/>
	<path fill="#FFFFFF" d="M201,108.3c-0.5,1.2-0.5,2.3,0.1,3.2c0.3,0.4,0.6,0.7,1,0.8s0.8,0.2,1.1,0.2c0.3,0,0.6,0,1.1-0.1l-3-4.6
		C201.2,107.9,201.1,108.1,201,108.3z"/>
	<path fill="#FFFFFF" d="M204,140.4l29.8-18.5l-24.8-40l-15.5-1.8c2.4,2.8,3.9,4.7,4,4.9c1.8,2.5,1.2,5.9-1.3,7.7s-5.9,1.2-7.7-1.3
		c-0.2-0.3-1.8-2.4-4.3-5.2l-5.1,14.2L204,140.4z M196.6,108c0.6-1.4,1.3-2.6,2.4-3.7l-1.7-2.6c-0.9-1.4-0.5-3.2,0.9-4.1
		c1.4-0.9,3.2-0.5,4.1,0.9l1.5,2.3c1.8-0.9,3.5-1.6,5.3-1.9c1.1-0.2,1.8,0.1,2.3,0.8c0.3,0.4,0.3,0.9,0.2,1.5s-0.4,1-1,1.4
		c-0.4,0.2-1.1,0.5-2.1,0.8c-0.9,0.2-1.7,0.5-2.6,0.8l4.1,6.3c2.2-0.8,4-1.2,5.6-1.2c2,0,3.6,0.9,4.8,2.7c1.3,2,1.5,4.2,0.6,6.6
		c-0.6,1.5-1.6,3-3,4.3l1.2,1.9c0.9,1.4,0.5,3.2-0.9,4.1c-0.5,0.3-1.1,0.5-1.6,0.5c-1,0-1.9-0.5-2.5-1.4l-1.2-1.8
		c-1.9,1-3.8,1.6-5.6,2c-1.3,0.2-2.2,0-2.7-0.7c-0.3-0.5-0.4-1-0.3-1.6c0.1-0.6,0.4-1.1,1-1.4c0.4-0.2,1-0.5,1.9-0.8
		c1.2-0.2,2.4-0.5,3.4-0.9l-4.4-6.7c-0.4,0.1-0.8,0.3-1.2,0.4c-1.1,0.3-2.1,0.5-3.2,0.6c-1.1,0.1-2.1,0-2.9-0.4
		c-0.9-0.4-1.6-1-2.2-1.9C195.8,112.6,195.7,110.4,196.6,108z"/>
	<path fill="#FFFFFF" d="M216.3,114.7c-0.6-0.9-1.5-1.3-2.8-1.2c-0.4,0-0.8,0.1-1.2,0.2l3.5,5.4c0.3-0.3,0.5-0.7,0.7-1.1
		C217,116.8,217,115.7,216.3,114.7z"/>
	<path fill="#FFFFFF" d="M148,158.7c-1,0-2,0.1-2.8,0.3c-29.8,6.6-81.5,24.2-100.8,35.5l6.3,30.5H58c-0.8-2-1.2-4.8-1.2-7.4
		c0-13.1,10.7-23.8,23.8-23.8c13.1,0,23.8,10.7,23.8,23.8c0,2.6-0.4,5.4-1.2,7.4H180c-0.8-2-1.2-4.8-1.2-7.4
		c0-13.1,10.7-23.8,23.8-23.8c13.1,0,23.8,10.7,23.8,23.8c0,2.6-0.4,5.4-1.2,7.4h10.9c4.4-5,9.9-12,13.4-17h-12.3
		c-3,0-5.5-2.5-5.5-5.5s2.5-5.5,5.5-5.5h17.5c-1.1,0-2.9-1.7-5.9-2.9c-22.1-9.1-50.5-9.6-50.8-9.6c-1.3,0-2.5-0.5-3.5-1.3
		c-5.6-4.7-18.7-14.5-31.1-20.1c-0.1,0-0.1-0.1-0.2-0.1C157.9,160.4,152.5,158.7,148,158.7z M131.3,209h-14c-3,0-5.5-2.5-5.5-5.5
		s2.5-5.5,5.5-5.5h14c3,0,5.5,2.5,5.5,5.5S134.3,209,131.3,209z M186.3,187.2c-0.7,2.3-2.8,3.8-5.2,3.8H92.7c-2.7,0-5-1.9-5.4-4.6
		c-0.4-2.7,1.1-5.2,3.6-6.1c16-5.5,53.8-18.2,60.4-18.2c0.4,0,0.7,0,0.9,0.1c5.2,0.6,20.3,10.6,32,18.8
		C186.2,182.4,187.1,184.9,186.3,187.2z"/>
	<path fill="#CCCCCC" d="M126.9,180H163c-5.5-3-10.1-6.2-12-6.9C148.2,173.5,138.8,176,126.9,180z"/>
	<path fill="#FFFFFF" d="M202.6,230.5c7.1,0,12.8-5.8,12.8-12.8s-5.8-12.8-12.8-12.8c-7.1,0-12.8,5.8-12.8,12.8
		S195.5,230.5,202.6,230.5z"/>
	<path fill="#FFFFFF" d="M80.6,230.5c7.1,0,12.8-5.8,12.8-12.8s-5.8-12.8-12.8-12.8c-7.1,0-12.8,5.8-12.8,12.8
		S73.5,230.5,80.6,230.5z"/>
	<g>
		<path fill="#5980B7" d="M197.3,101.6l1.7,2.6c-1,1.1-1.8,2.4-2.4,3.7c-1,2.5-0.9,4.6,0.4,6.5c0.6,0.9,1.3,1.5,2.2,1.9
			c0.9,0.4,1.8,0.5,2.9,0.4c1.1-0.1,2.2-0.3,3.2-0.6c0.4-0.1,0.8-0.3,1.2-0.4l4.4,6.7c-1,0.4-2.2,0.7-3.4,0.9
			c-0.9,0.3-1.6,0.5-1.9,0.8c-0.5,0.3-0.9,0.8-1,1.4c-0.1,0.6,0,1.1,0.3,1.6c0.5,0.7,1.4,1,2.7,0.7c1.8-0.3,3.7-1,5.6-2l1.2,1.8
			c0.6,0.9,1.5,1.4,2.5,1.4c0.6,0,1.1-0.2,1.6-0.5c1.4-0.9,1.8-2.8,0.9-4.1l-1.2-1.9c1.4-1.3,2.4-2.7,3-4.3c0.9-2.4,0.7-4.5-0.6-6.6
			c-1.2-1.9-2.8-2.8-4.8-2.7c-1.6,0-3.4,0.4-5.6,1.2L206,104c0.8-0.4,1.7-0.6,2.6-0.8c1-0.3,1.7-0.5,2.1-0.8c0.5-0.3,0.8-0.8,1-1.4
			s0.1-1.1-0.2-1.5c-0.5-0.7-1.2-1-2.3-0.8c-1.7,0.3-3.5,1-5.3,1.9l-1.5-2.3c-0.9-1.4-2.8-1.8-4.1-0.9
			C196.8,98.4,196.4,100.2,197.3,101.6z M213.5,113.5c1.2-0.1,2.2,0.3,2.8,1.2c0.7,1,0.7,2.1,0.2,3.3c-0.2,0.4-0.4,0.7-0.7,1.1
			l-3.5-5.4C212.8,113.6,213.2,113.5,213.5,113.5z M204.3,112.4c-0.5,0.1-0.8,0.2-1.1,0.1c-0.4,0-0.7-0.1-1.1-0.2s-0.7-0.4-1-0.8
			c-0.6-0.9-0.6-2-0.1-3.2c0.1-0.2,0.2-0.4,0.3-0.5L204.3,112.4z"/>
		<path fill="#5980B7" d="M266.8,194.8c-1.4-4.2-5.5-7.4-13.7-10.8c-20.9-8.6-45.7-10.1-52.8-10.4c-4.3-3.5-16-12.6-28.8-19
			c0.3-13.3,0-48.6-12.1-57.9c-6.7-5.2-14.4-5.9-20.4-1.9c-6.3,4.1-9.3,12.2-8.6,21.9c-1.1-3.2-2.1-7.3-2.6-11.8
			c-1.4-13.2,2.9-23.5,12.8-30.6c12.8-9.1,25.7-3.4,34.9,3.7l-7.6,21.1c-0.6,1.6-0.4,3.3,0.5,4.8l29.1,46.9c1,1.7,2.8,2.6,4.7,2.6
			c1,0,2-0.3,2.9-0.8l39.1-24.3c1.2-0.8,2.1-2,2.5-3.4c0.3-1.4,0.1-2.9-0.7-4.2l-29.1-46.9c-0.9-1.4-2.4-2.4-4-2.6l-29.2-3.4
			c-1-0.1-2,0.1-2.9,0.5c-0.6-0.5-1.3-0.9-1.9-1.4c-15.7-10.7-31.1-11.3-44.6-1.6c-20.8,14.8-19.6,38.6-14.4,54.4
			c-10.1-11.8-22.1-22.7-33-24.1c-5.6-0.7-10.8,1-14.9,5c-4.7,4.6-6.9,10.4-6.4,16.8c1,12.4,12,25.5,21.8,34.8l-43.1-12.8
			c-2.3-0.7-4.7,0.2-6.1,2.1c-1.4,2-1.3,4.6,0.1,6.5L51.9,166l-11,17.9c-2.2,1.2-4.1,2.3-5.7,3.4c-1.8,1.2-2.7,3.5-2.3,5.7l8,38.6
			c0.5,2.6,2.8,4.3,5.4,4.3h19.3c0,0,0,0.1,0.1,0.1c4.1,3.4,9.4,5.4,15.1,5.4c5.7,0,11-2,15.1-5.4c0,0,0-0.1,0.1-0.1h91.6
			c0,0,0,0.1,0.1,0.1c4.1,3.4,9.4,5.4,15.1,5.4c5.7,0,11-2,15.1-5.4c0,0,0-0.1,0.1-0.1h21c1.7,0,3.3-0.7,4.3-2
			c19-24,19.1-24.3,19.5-25.2c0.4-1,1-2,1.7-3C266,203,268.3,199.3,266.8,194.8z M208.9,81.9l24.8,40L204,140.4l-24.8-40l5.1-14.2
			c2.5,2.8,4,4.8,4.3,5.2c1.8,2.5,5.2,3,7.7,1.3s3-5.2,1.3-7.7c-0.1-0.2-1.5-2.1-4-4.9L208.9,81.9z M145,104c2.8-1.8,6,0.1,7.7,1.4
			c4.2,3.2,6.7,17.1,7.5,32.7c-5.1-10.4-11.9-15.1-18.1-17C140,112,142,106,145,104z M129.6,131.5c0.9-0.2,1.8-0.4,2.8-0.5
			c9.1-1,15.9,4.8,20.1,17.1c-1.5-0.2-3-0.3-4.5-0.3c-1.8,0-3.6,0.2-5.2,0.5c-0.7,0.2-1.4,0.3-2.2,0.5c0.1,0.2,0.2,0.3,0.3,0.5
			c-0.1-0.2-0.2-0.3-0.3-0.5c-2-3.2-6.1-9.7-11.6-17.1C129.2,131.6,129.4,131.6,129.6,131.5C129.6,131.5,129.6,131.5,129.6,131.5z
			 M76.4,116.6c-0.2-3.2,0.7-5.7,3.1-8.1c1.7-1.6,3.5-2.2,5.8-1.9c10,1.3,24.9,17.8,36.4,33.7l-15.5-7.1c-2.8-1.3-6,0-7.3,2.7
			c-1.3,2.8,0,6,2.7,7.3l21.9,9.9c-4.4,1.2-8.9,2.6-13.5,4c-0.4-0.5-0.8-1-1.3-1.4C100.1,149.6,77.5,130.5,76.4,116.6z M62.9,162.4
			l-5.8-7.7l31.6,9.4c-10.6,3.7-20.8,7.5-29.7,11.3l4.2-6.8C64.4,166.7,64.3,164.2,62.9,162.4z M80.6,230.5
			c-7.1,0-12.8-5.8-12.8-12.8s5.8-12.8,12.8-12.8c7.1,0,12.8,5.8,12.8,12.8S87.7,230.5,80.6,230.5z M202.6,230.5
			c-7.1,0-12.8-5.8-12.8-12.8s5.8-12.8,12.8-12.8c7.1,0,12.8,5.8,12.8,12.8S209.7,230.5,202.6,230.5z M236.2,225h-10.9
			c0.8-2,1.2-4.8,1.2-7.3c0-13.1-10.7-23.8-23.8-23.8c-13.1,0-23.8,10.7-23.8,23.8c0,2.6,0.4,5.3,1.2,7.3h-76.7
			c0.8-2,1.2-4.8,1.2-7.3c0-13.1-10.7-23.8-23.8-23.8c-13.1,0-23.8,10.7-23.8,23.8c0,2.6,0.4,5.3,1.2,7.3h-7.3l-6.3-30.5
			c19.3-11.3,71-28.9,100.8-35.5c0.9-0.2,1.8-0.3,2.8-0.3c4.5,0,9.8,1.7,15.4,4.2c0,0,0,0,0,0c0.1,0,0.1,0.1,0.2,0.1
			c12.4,5.7,25.5,15.5,31.1,20.1c1,0.8,2.2,1.3,3.5,1.3c0.3,0,28.6,0.5,50.8,9.6c3,1.2,4.8,2.9,5.9,2.9h-17.5c-3,0-5.5,2.5-5.5,5.5
			s2.5,5.5,5.5,5.5h12.3C246.1,213,240.6,220,236.2,225z"/>
		<path fill="#5980B7" d="M184.3,181c-11.8-8.2-26.9-18.2-32-18.8c-0.3,0-0.6-0.1-0.9-0.1c-6.5,0-44.4,12.7-60.4,18.2
			c-2.5,0.9-4.1,3.4-3.6,6.1c0.4,2.7,2.7,4.6,5.4,4.6h88.4c2.4,0,4.5-1.5,5.2-3.8S186.2,182.4,184.3,181z M126.9,180
			c11.9-4,21.3-6.5,24.1-6.9c1.9,0.7,6.5,3.9,12,6.9H126.9z"/>
		<path fill="#5980B7" d="M131.3,198h-14c-3,0-5.5,2.5-5.5,5.5s2.5,5.5,5.5,5.5h14c3,0,5.5-2.5,5.5-5.5S134.3,198,131.3,198z"/>
	</g>
</g>
</svg>
