<?xml version="1.0" encoding="utf-8"?>
<!-- Generator: Adobe Illustrator 18.1.1, SVG Export Plug-In . SVG Version: 6.00 Build 0)  -->
<svg version="1.1" id="Layer_1" xmlns="http://www.w3.org/2000/svg" xmlns:xlink="http://www.w3.org/1999/xlink" x="0px" y="0px"
	 viewBox="0 0 300 300" enable-background="new 0 0 300 300" xml:space="preserve">
<g>
	<path fill="#FFFFFF" d="M237.5,134.9c-6.8,7.6-14.8,15.1-24,22.2c0.8,1,1.5,2,2.1,3.1l5.1,1l3.7-9.1c0.8-2,2.6-3.4,4.7-3.7
		c2.1-0.3,4.2,0.6,5.6,2.2l8.8,11.2l18.9-2c2.3-0.2,4.5,0.9,5.7,2.8c1.2,2,1.2,4.4,0,6.4l-2.7,4.3c2.4,1.2,4.6,2.6,6.8,4
		c0.7-2.9,1-6,1-9.1C272.9,146,255.6,136.6,237.5,134.9z"/>
	<path fill="#FFFFFF" d="M268.2,195.4c-1,2-3.1,3.6-5.4,3.6h-11.6l-10.3,14c-1.1,1.6-2.9,2.4-4.9,2.4c0,0-0.1-0.1-0.1-0.1
		c-2,0-3.8-1.1-4.9-2.7l-9.7-14.8l-5.6,0.6l-7.5,61.4c6.9,3.8,14.9,6,23.3,6c26.7,0,48.4-21.7,48.4-48.4c0-12.6-4.7-21.5-12-27.7
		C269,191.3,269.1,193.6,268.2,195.4z"/>
	<path fill="#CCCCCC" d="M224.3,185.4c2,0,3.9,1,5,2.7l7,10.6l7-9.4c1.1-1.6,2.9-2.2,4.9-2.2h2.5l-1.9-2.7c-1.5-2-1.7-4.9-0.3-7
		l2.6-4.2l-9.8,1c-2,0.2-4.1-0.7-5.3-2.3l-4.4-5.7l-1.7,4.2c-1.1,2.7-3.9,4.2-6.7,3.6l-1-0.2c0.6,0.8,0.9,1.8,1,2.8
		c0.1,1.7-0.4,3.3-1.6,4.6l-4.2,4.5l0,0.4l6.5-0.7C223.9,185.4,224.1,185.4,224.3,185.4z"/>
	<path fill="#FFFFFF" d="M121,123.3v-7.4c0-2.5,0.9-5,1.8-7.2l-16.5,8.6c-2.5,1.3-5.5,0.7-7.3-1.5L89,103.6l-5.4,2
		c-2.3,12.7-7.2,34.1-16.7,52.1C62,166.9,54,175.2,45.4,184c-22.5,23.3-34.9,39-16.2,61.2c6.7,8,14.6,12,23.5,12
		c8.2,0,16.8-3.3,24.8-8.6l-9-73.3c-0.8-6.5,1-12.9,5-18.1c4-5.2,9.9-8.4,16.4-9.2l10.3-1.3C101.6,135,110,125.6,121,123.3z"/>
	<path fill="#CCCCCC" d="M137.1,96.9c-1.9-9.1-6.8-18.9-18.5-22.9c-1.6-0.6-3-1.8-3.6-3.4s-0.6-3.4,0.2-5
		c4.8-9.3,11.3-15.1,15.8-18.3l-1.1-2.7c-10.2,6.2-15.5,15.9-18.3,23.4c-0.9,2.4-3.2,4-5.7,3.9c-8.8-0.1-15.7,2.3-20.7,7.3
		c-4.7,4.7-7.1,11-8.3,16.1l12-4.4c2.4-0.9,5.1-0.1,6.7,1.8l9.6,11.7l16.9-8.8c0.9-0.5,1.8-0.7,2.8-0.7c1.4,0,2.8,0.5,4,1.5l2.8,2.5
		C133.4,98,135.2,97.3,137.1,96.9z"/>
	<path fill="#CCCCCC" d="M256.2,85.6c2.9-5.8,5-11,6.6-15.2c-5.4,1.7-10.5,3.7-15.4,5.8C251.3,78.2,254.5,81.5,256.2,85.6z"/>
	<path fill="#CCCCCC" d="M222.2,94.1c-0.2-1.4-0.1-2.9,0.1-4.2c-2,1.4-4.1,2.8-6,4.3c2.1,0,4.1,0.4,6.1,0.9
		C222.3,94.8,222.3,94.4,222.2,94.1z"/>
	<path fill="#CCCCCC" d="M239.8,109.9c-0.8,0-1.5-0.1-2.3-0.2c0.5,1.5,0.9,3.1,1.1,4.8c0,0,0,0,0,0c1.2-1.6,2.3-3.2,3.5-4.9
		c-0.1,0-0.2,0-0.4,0.1C241.1,109.8,240.4,109.9,239.8,109.9z"/>
	<path fill="#CCCCCC" d="M210.3,139.8c0.2,1.6,0.1,3.2-0.1,4.8c1.9-1.5,3.7-3.1,5.5-4.7c-1.9,0-3.7-0.3-5.4-0.7
		C210.3,139.4,210.3,139.6,210.3,139.8z"/>
	<path fill="#FFFFFF" d="M216.8,126.2c5-0.5,8.7-5.1,8.1-10.1c-0.5-4.7-4.4-8.2-9.1-8.2c-0.3,0-0.7,0-1,0.1c-5,0.5-8.7,5.1-8.1,10.1
		c0.5,4.7,4.4,8.2,9.1,8.2C216.2,126.2,216.5,126.2,216.8,126.2z"/>
	<path fill="#FFFFFF" d="M234.3,87.8c-1.2,1.5-1.7,3.3-1.5,5.2c0.4,3.6,3.4,6.3,7,6.3c0.3,0,0.5,0,0.8,0c1.9-0.2,3.6-1.1,4.8-2.6
		c1.2-1.5,1.7-3.3,1.5-5.2c-0.4-3.6-3.4-6.3-7-6.3c-0.3,0-0.5,0-0.8,0C237.1,85.4,235.4,86.3,234.3,87.8z"/>
	<path fill="#FFFFFF" d="M198.3,146.2c1.2-1.5,1.7-3.3,1.5-5.2c-0.4-3.5-3.3-6.2-6.8-6.3c-1.7,3.9-3.5,7.8-5.6,11.8
		c0.1,0.1,0.2,0.3,0.4,0.4l8.6,1.1C197.1,147.4,197.8,146.8,198.3,146.2z"/>
	<path fill="#FFFFFF" d="M171,102.5v18c0,2.2-0.8,4.1-2.5,5.1c4.5,2.3,8.4,5.7,11,10c9.2-19.1,14.3-40.5,15.2-63.8
		c0.7-17.1-1.2-31.4-2.8-40.6C174.2,51.5,162.9,74,158,97h7.6C169,97,171,99.2,171,102.5z"/>
	<path fill="#FFFFFF" d="M112.4,145.1l8.6-1v-8.3C117,137.4,113.8,140.8,112.4,145.1z"/>
	<path fill="#FFFFFF" d="M156.7,135H152v9.9c3-0.8,5.4-1.3,8.2-1.3c1,0,2.2,0.1,3.2,0.2l7.3,1C168.6,139,163.2,135,156.7,135z"/>
	<path fill="#FFFFFF" d="M183,172.9v64.8v23.4c0,3.2-0.3,6.2-1.3,9l0.4,0c0.5,0.1,1.1,0.1,1.6,0.1c6.3,0,11.7-4.7,12.5-11l10.4-85.4
		c0.4-3.3-0.5-6.6-2.6-9.3s-5-4.3-8.4-4.7l-17.1-2.1C181.5,162.1,183,167.3,183,172.9z"/>
	<path fill="#FFFFFF" d="M91.5,159.8c-3.3,0.4-6.3,2.1-8.4,4.7c-2.1,2.6-3,5.9-2.6,9.3L91,259.2c0.7,5.9,5.1,10.4,10.9,11
		c-1-2.8-1.8-5.9-1.8-9.1v-23.4v-64.8c0-5.4,1.9-10.5,4.7-14.7L91.5,159.8z"/>
	<path fill="#FFFFFF" d="M112,172.9v64.8v23.4c0,8.2,7.2,14.9,15.4,14.9h29.3c8.2,0,14.3-6.7,14.3-14.9v-23.4v-64.8
		c0-8.2-6.1-13.9-14.3-13.9h-29.3C119.2,159,112,164.7,112,172.9z"/>
	<path fill="#CCCCCC" d="M133,115.9V146h7v-20.7c0-6,5.6-10.3,11.6-10.3h7.4v-6h-17.8C137.1,109,133,111.8,133,115.9z"/>
	<path fill="#5980B7" d="M281.7,186.5c2.1-5.7,3.2-11.8,3.2-18.3c0-14.3-5.6-26.2-16.3-34.4c-6.1-4.7-13.7-8-22.2-9.7
		c2.9-3.8,5.5-7.4,7.8-11C271.6,86.9,277.7,64,278,63c0.5-2.1,0-4.3-1.6-5.8c-1.5-1.5-3.7-2.1-5.8-1.6c-28,7.3-49.2,19-65.2,31.8
		c0.7-5.6,1.1-10.9,1.2-15.8c1.1-31.5-5.5-54.2-5.8-55.2c-0.6-2-2.3-3.6-4.3-4.1c-2.1-0.5-4.3,0.1-5.7,1.7
		c-25.2,26-37.7,52.4-43.4,75.4c-2.9-9.3-8.5-18.2-18.2-23.8c5.5-7.4,11.8-10.6,11.8-10.6c2.9-1.4,4.2-4.8,3-7.8L138.5,34
		c-0.6-1.5-1.8-2.6-3.3-3.2c-1.5-0.6-3.1-0.6-4.6,0c-15.7,6.6-24.2,18.9-28.7,29.2c-10.3,0.6-18.7,4.2-25.2,10.8
		c-12.9,13-12.9,32.8-12.9,33.6c0,2,1,3.8,2.6,4.9c1.2,0.8,2.7,1.2,4.1,1c-2.5,11.9-6.9,28.2-14.2,41.9c-4,7.6-11.5,15.4-19.5,23.6
		c-19.5,20.1-43.8,45.5-16.8,77.6c9.1,10.8,20.1,16.7,32.7,16.7c0,0,0,0,0,0c9,0,17.8-3.1,26.3-7.9c2,11.7,11.9,20.2,23.9,20.2v0
		c1,0,4.4,0.2,6.8-0.6c4.7,3.9,11,6.4,17.5,6.4h29.3c6.6,0,12.6-2.5,17.3-6.4l6.8,0.6c1,0.1,1.9,0.1,2.9,0.1
		c8.5,0,16.4-4.4,20.4-11.1c0,0,0,0,0,0c8,4.2,17.6,6.5,27.4,6.5c33.3,0,60.5-27.1,60.5-60.4C291.9,205.3,288.4,194.9,281.7,186.5z
		 M262.8,70.5c-1.6,4.2-3.8,9.4-6.6,15.2c-1.7-4.2-4.8-7.5-8.8-9.4C252.3,74.1,257.5,72.2,262.8,70.5z M234.3,87.8
		c1.2-1.5,2.9-2.4,4.8-2.6c0.3,0,0.5,0,0.8,0c3.6,0,6.7,2.7,7,6.3c0.2,1.9-0.3,3.7-1.5,5.2c-1.2,1.5-2.9,2.4-4.8,2.6
		c-0.3,0-0.5,0-0.8,0c-3.6,0-6.7-2.7-7-6.3C232.5,91.1,233.1,89.2,234.3,87.8z M242.1,109.7c-1.1,1.7-2.3,3.3-3.5,4.9c0,0,0,0,0,0
		c-0.2-1.7-0.6-3.3-1.1-4.8c0.7,0.1,1.5,0.2,2.3,0.2c0.6,0,1.3,0,1.9-0.1C241.8,109.8,241.9,109.7,242.1,109.7z M237.5,134.9
		c18.1,1.7,35.5,11,35.5,33.3c0,3.1-0.4,6.2-1,9.1c-2.1-1.5-4.4-2.8-6.8-4l2.7-4.3c1.2-1.9,1.2-4.4,0-6.4c-1.2-2-3.4-3-5.7-2.8
		l-18.9,2l-8.8-11.2c-1.3-1.7-3.4-2.5-5.6-2.2c-2.1,0.3-3.9,1.7-4.7,3.7l-3.7,9.1l-5.1-1c-0.6-1.1-1.3-2.1-2.1-3.1
		C222.7,150.1,230.7,142.5,237.5,134.9z M248.8,184.3l1.9,2.7h-2.5c-1.9,0-3.7,0.7-4.9,2.2l-7,9.6l-7-10.7c-1.1-1.7-3-2.7-5-2.7
		c-0.2,0-0.4,0-0.6,0l-6.5,0.6l0-0.4l4.2-4.5c1.1-1.2,1.7-2.9,1.6-4.6c-0.1-1-0.4-2-1-2.8l1,0.2c2.8,0.6,5.6-1,6.7-3.6l1.7-4.2
		l4.4,5.6c1.3,1.6,3.3,2.5,5.3,2.3l9.8-1l-2.6,4.3C247.1,179.4,247.3,182.3,248.8,184.3z M210.3,139.8c0-0.2-0.1-0.4-0.1-0.6
		c1.7,0.4,3.6,0.7,5.4,0.7c-1.8,1.6-3.6,3.2-5.5,4.7C210.5,143,210.5,141.4,210.3,139.8z M222.3,89.9c-0.2,1.4-0.2,2.8-0.1,4.2
		c0,0.3,0.1,0.6,0.1,1c-1.9-0.6-4-0.9-6.1-0.9C218.2,92.7,220.2,91.3,222.3,89.9z M214.9,107.9c0.3,0,0.7-0.1,1-0.1
		c4.7,0,8.6,3.5,9.1,8.2c0.5,5-3.1,9.6-8.1,10.1c-0.3,0-0.7,0.1-1,0.1c-4.7,0-8.6-3.5-9.1-8.2C206.2,113,209.8,108.4,214.9,107.9z
		 M199.8,140.9c0.2,1.9-0.3,3.7-1.5,5.2c-0.5,0.7-1.2,1.2-1.9,1.7l-8.6-1.1c-0.1-0.1-0.2-0.2-0.4-0.4c2.1-3.9,3.9-7.8,5.6-11.8
		c0,0,0,0,0,0C196.6,134.7,199.5,137.4,199.8,140.9z M191.9,31.1c1.7,9.3,3.5,23.7,2.9,40.8c-0.9,23.4-6,44.6-15.2,63.8c0,0,0,0,0,0
		c-2.6-4.2-6.3-7.7-10.8-10c-0.9,0.6-2,0.9-3.1,0.9c1.2,0,1.9-0.4,2.8-0.9c1.7-1.1,2.5-3,2.5-5.1v-18c0-3.3-2-5.5-5.4-5.5H158
		C162.9,74,174.3,51.5,191.9,31.1z M183.3,146.2l-12.6-1.5l-7.2-0.9c-1-0.1-2.4-0.2-3.4-0.2c-2.7,0-5.2,0.5-8.2,1.3v-10.2v0.3h4.7
		c6.5,0,12,4,14,9.8L183.3,146.2C183.3,146.3,183.3,146.2,183.3,146.2z M141.2,109H159v6h-7.4c-6,0-11.6,4.3-11.6,10.3V146h-7v-30.1
		C133,111.8,137.1,109,141.2,109z M85.2,79.2c5-5,11.9-7.4,20.7-7.3c2.5,0.1,4.9-1.5,5.7-3.9c2.8-7.5,8.1-17.1,18.3-23.4l1.1,2.7
		c-4.4,3.2-11,9-15.8,18.3c-0.8,1.5-0.9,3.4-0.2,5s2,2.9,3.6,3.4c11.7,4.1,16.6,13.8,18.5,23c-1.9,0.4-3.7,1.1-5.4,2
		c-0.6,0.4-1.2,0.8-1.8,1.2c0.6-0.4,1.2-0.8,1.8-1.2l-2.8-2.5c-1.1-1-2.5-1.5-4-1.5c-0.9,0-1.9,0.2-2.8,0.7l-16.9,8.8l-9.6-11.7
		c-1.6-2-4.3-2.7-6.7-1.8l-12,4.4C78.1,90.2,80.5,83.9,85.2,79.2z M100,172.9v64.8v23.4c0,3.2,0.8,6.2,1.8,9
		c-5.7-0.6-10.3-5.1-11-10.9l-10.4-85.4c-0.4-3.3,0.5-6.6,2.6-9.3c2.1-2.6,5-4.3,8.4-4.7l13-1.6C101.7,162.4,100,167.5,100,172.9z
		 M100.6,146.6l-10.6,1.3c-6.5,0.8-12.3,4.1-16.3,9.2c-4,5.2-6.1,11.6-5.3,18.1l8.7,73.3v0c-8,5.3-16.3,8.6-24.5,8.6
		c-8.9,0-16.6-4.1-23.4-12C10.4,223,22.8,207.3,45.4,184c8.5-8.8,16.6-17.1,21.5-26.3c9.6-18,14.5-39.5,16.8-52.1l5.5-2l10,12.2
		c1.8,2.2,4.9,2.8,7.4,1.5l16.3-8.5c-0.9,2.2-1.7,4.6-1.7,7v7.4c-11,2.4-19.4,11.8-20.7,23.3l12.3-1.5c1.3-4.2,4.4-7.6,8.4-9.3v8.3
		l-8.2,1L100.6,146.6z M171,237.7v23.4c0,8.2-6.1,14.9-14.3,14.9h-29.3c-8.2,0-15.4-6.7-15.4-14.9v-23.4v-64.8
		c0-8.2,7.2-13.9,15.4-13.9h29.3c8.2,0,14.3,5.7,14.3,13.9V237.7z M206.6,173.8l-10.4,85.4c-0.8,6.3-6.1,11-12.4,11
		c-0.5,0-1,0-1.5-0.1l-0.4,0c0.4-1.1,1.2-5.8,1.2-9v-23.4v-64.8c0-5.6-1.5-10.6-4.4-14.9c-4.8-7.1-12.8-11.5-22-11.5
		c9.2,0,17.3,4.4,22.2,11.5l16.9,1.9c3.3,0.4,6.3,2,8.4,4.7S207,170.5,206.6,173.8z M231.6,265.7c-8.5,0-16.4-2.2-23.3-6l7.5-61.4
		l5.6-0.6l9.7,14.8c1.1,1.6,2.9,2.7,4.9,2.7c0,0,0.1,0,0.1,0c1.9,0,3.7-0.7,4.9-2.2l10.3-14h11.6c2.3,0,4.4-1.5,5.4-3.6
		c0.9-1.8,0.8-4.1-0.2-5.9c7.2,6.2,12,15.2,12,27.8C279.9,244,258.2,265.7,231.6,265.7z"/>
</g>
</svg>
