<?xml version="1.0" encoding="utf-8"?>
<!-- Generator: Adobe Illustrator 18.1.1, SVG Export Plug-In . SVG Version: 6.00 Build 0)  -->
<svg version="1.1" id="Layer_1" xmlns="http://www.w3.org/2000/svg" xmlns:xlink="http://www.w3.org/1999/xlink" x="0px" y="0px"
	 viewBox="0 0 300 300" enable-background="new 0 0 300 300" xml:space="preserve">
<g>
	<path fill="#CCCCCC" d="M94.2,150.6C94.2,150.6,94.2,150.6,94.2,150.6c-0.3,0-0.6,0-0.8,0c-5.6-0.3-10.7-3.7-14.1-9.2
		c-1.5-2.4-2.3-5.2-3.3-8.2v24.5c0-0.1,0.3-0.2,0.4-0.3c7.1-4.4,13.2-4.9,17.2-4.9c1.6,0,3.2,0.2,4.5,0.3c1.1,0.1,2.1,0.3,3,0.3
		c0,0,0,0,0,0c1.2,0,2-0.2,2.4-0.5c3.6-2,11.1-6.1,19.8-6.1c5.5,0,10.7,1.6,15.3,4.8c11.2,7.8,11.1,17.6,11,24.7
		c0,3.3-0.1,6.3,1,8.2c12.6,23.4,3.6,35.9-3.6,40.9h21.7c4.6,0,7.4-5.4,7.4-10.3v-10.3c0,0-1,0-1.5,0c-9.8,0-17.4-4.5-20-11.8
		c-1.9-5.2-0.7-11.3,3.1-16.5c3.4-4.7,8.8-8.6,15.1-10.8c3.7-1.3,7.5-2,11.3-2c9.8,0,17.4,4.6,20,12c0.1,0.2,0.1,0.7,0.2,0.7h13.5
		c4.5,0,7.3-5.4,7.3-10.3V132c0-6-4-7-7.3-7h-21.4c5.8,10,1.6,23-10.2,32.3c-6.1,4.8-13.5,7.5-20.2,7.5c-6.3,0-11.5-2.4-14.9-6.6
		c-3.6-4.6-4.5-11.1-2.5-17.7c1.9-6,6-11.7,11.6-16.2c4.8-3.8,10.9-6.3,15.9-7.2V83c0-5.9-4-7-7.4-7h-33.7c-4.9,0-9.9,2.5-9.9,7
		v13.1c5-5.2,10.8-8.3,16.7-8.3c2.1,0,4.1,0.4,6,1.2c5.4,2.2,9.4,7.3,10.8,14.1c1.3,6.1,0.6,13.1-2.1,19.8
		c-4.7,11.7-14.2,19.6-23.7,19.6c-2.1,0-4.1-0.3-6-1c-6.3-2.5-10.3-8.3-11.2-16.3h-1c0,0,0,0.3,0,0.5
		C113.7,139.6,104.8,150.6,94.2,150.6z"/>
	<path fill="#FFFFFF" d="M113.3,209.8c1.8,2.1,3.5,4.1,5.6,5.7l0.9,0.7c3.2,2.5,6,4.7,9.5,4.7c2.9,0,6.5-1.4,10.6-4.2
		c5.1-3.4,10.7-10,1.3-27.6c-2.3-4.3-2.3-9.1-2.2-13.3c0.1-6.3,0.1-11.3-6.4-15.9c-2.8-2-5.8-2.9-9.1-2.9c-6,0-11.6,3.4-14.7,5
		c-2.8,1.5-5.6,2-7.5,2c0,0,0,0,0,0c-1.2,0-2.4-0.4-3.7-0.4c-1.2-0.1-2.5-0.4-3.8-0.4c-3.1,0-6.9,0.4-11.6,3.3
		c-5.7,3.5-8.7,11.8-4.1,19.7c3.9,6.6,10.6,8.9,17,11.2c2.1,0.7,4,1.4,5.9,2.2C106.6,202.1,110.2,206.2,113.3,209.8z"/>
	<path fill="#FFFFFF" d="M159.4,151.6c1.7,2.1,4.5,2.5,6.5,2.5c4.4,0,9.3-1.9,13.6-5.3c8.1-6.4,10.4-15.1,7.4-18.9
		c-1.7-2.1-4.5-2.5-6.5-2.5c-4.4,0-9.3,1.9-13.6,5.3c-3.9,3.1-6.8,7.1-8.1,11C158.1,145.5,157.4,149.1,159.4,151.6z"/>
	<path fill="#FFFFFF" d="M193.9,178.7c-1-2.9-4.9-4.7-9.9-4.7c-2.5,0-5.2,0.5-7.7,1.4c-4.2,1.5-7.8,4-10,7c-1,1.4-2.6,4.1-1.7,6.7
		c1,2.9,4.9,4.7,9.9,4.7c2.5,0,5.2-0.5,7.7-1.4c4.2-1.5,7.8-4,10-7C193.2,184,194.8,181.3,193.9,178.7z"/>
	<path fill="#FFFFFF" d="M130.7,131.3c0.6,0.3,1.3,0.4,2,0.4c4.2,0,10.4-4.5,13.8-12.9c1.9-4.6,2.4-9.6,1.6-13.6
		c-0.4-1.9-1.5-5.3-4.4-6.4c-0.6-0.3-1.3-0.4-2-0.4c-4.2,0-10.4,4.5-13.8,12.9C124.1,120.9,126.3,129.5,130.7,131.3z"/>
	<path fill="#FFFFFF" d="M85.8,123.9c-0.2,4.4,0.7,8.8,2.6,11.9c0.9,1.5,2.8,4,5.5,4.1c0.1,0,0.2,0,0.3,0c4.2,0,9.1-6.2,9.6-15
		c0.5-9.2-3.9-15.8-8.2-16c-0.1,0-0.2,0-0.3,0C91.3,108.8,86.3,115,85.8,123.9z"/>
	<path fill="#5980B7" d="M217.7,115H186V83c0-10.3-7-17-17.4-17h-33.7c-9.8,0-19.9,6.2-19.9,17v32h-1.5c-2.5-9-9-16.3-17.2-16.7
		c-0.3,0-0.6-0.1-0.8-0.1c-9,0-16.7,7.9-19.4,18.8C70.3,119.8,66,125,66,132v33.7c0,1.3,0.2,2.7,0.5,4c-2.4,6.5-2.1,14.3,2.3,21.8
		c5.9,10,15.2,13.2,22.6,15.8c1.9,0.7,3.6,1.3,5.2,1.9c3.6,1.6,5.9,4.3,8.7,7.5c2.1,2.4,4.2,4.9,7.1,7.1l0.8,0.7
		c2.8,2.2,6.1,4.9,10.3,6.2c3.3,2.6,7.4,4.2,11.5,4.2h33.7c10.9,0,17.4-10.4,17.4-20.3v-12.4c6-2.2,11.4-5.9,14.8-10.6
		c1.4-1.9,2.4-3.8,3.1-5.8h13.7c10.9,0,17.3-10.4,17.3-20.3V132C235,121.7,228,115,217.7,115z M179.5,148.8
		c-4.3,3.4-9.2,5.3-13.6,5.3c-2.1,0-4.9-0.4-6.5-2.5c-2-2.5-1.3-6-0.7-7.9c1.2-3.9,4.2-7.9,8.1-11c4.3-3.4,9.2-5.3,13.6-5.3
		c2.1,0,4.9,0.4,6.5,2.5C189.8,133.7,187.6,142.4,179.5,148.8z M85.8,123.9c0.5-8.9,5.4-15,9.6-15c0.1,0,0.2,0,0.3,0
		c4.3,0.2,8.7,6.9,8.2,16c-0.5,8.9-5.4,15-9.6,15c-0.1,0-0.2,0-0.3,0c-2.7-0.1-4.6-2.6-5.5-4.1C86.5,132.6,85.6,128.3,85.8,123.9z
		 M119.8,216.2l-0.9-0.7c-2.1-1.6-3.8-3.6-5.6-5.7c-3.1-3.6-6.7-7.7-12.5-10.2c-1.9-0.8-3.8-1.5-5.9-2.2c-6.4-2.3-13.1-4.6-17-11.2
		c-4.6-7.9-1.6-16.2,4.1-19.7c4.7-2.9,8.5-3.3,11.6-3.3c1.3,0,2.6,0.4,3.8,0.5c1.3,0.1,2.4,0.4,3.7,0.4c0,0,0,0,0,0
		c1.9,0,4.8-0.5,7.5-2c3.1-1.7,8.7-5,14.7-5c3.3,0,6.3,0.9,9.1,2.9c6.6,4.6,6.5,9.6,6.4,15.9c-0.1,4.2-0.1,8.9,2.2,13.3
		c9.5,17.6,3.8,24.2-1.3,27.6c-4.1,2.8-7.7,4.2-10.6,4.2C125.7,220.9,123,218.7,119.8,216.2z M192.2,185.4c-2.2,3-5.8,5.5-10,7
		c-2.6,0.9-5.2,1.4-7.7,1.4c-5,0-8.9-1.9-9.9-4.7c-0.9-2.6,0.7-5.3,1.7-6.7c2.2-3,5.8-5.5,10-7c2.6-0.9,5.2-1.4,7.7-1.4
		c5,0,8.9,1.9,9.9,4.7C194.8,181.3,193.2,184,192.2,185.4z M225,165.7c0,4.8-2.8,10.3-7.3,10.3h-13.5c-0.1,0-0.1-0.5-0.2-0.7
		c-2.6-7.3-10.2-11.9-20-11.9c-3.7,0-7.5,0.6-11.3,2c-6.3,2.2-11.6,6-15.1,10.8c-3.8,5.3-5,11.3-3.1,16.5c2.6,7.3,10.2,11.8,20,11.8
		c0.5,0,1.5,0,1.5,0v10.3c0,4.8-2.8,10.3-7.4,10.3h-21.7c7.3-5,16.2-17.5,3.6-40.9c-1-1.9-1-4.8-1-8.2c0.1-7.1,0.2-16.9-11-24.8
		c-4.6-3.2-9.7-4.9-15.3-4.9c-8.7,0-16.3,4.1-19.9,6.1c-0.5,0.3-1.5,0.4-2.5,0.4v0c-1,0-1.8-0.1-2.9-0.1c-1.3-0.1-2.8-0.2-4.5-0.2
		c-4,0-10.1,0.5-17.2,4.9c-0.1,0.1-0.4,0.2-0.4,0.3v-24.5c1,3,1.8,5.8,3.3,8.2c3.4,5.5,8.5,9.1,14.1,9.4c0.3,0,0.6,0.2,0.8,0.2
		c0,0,0,0,0,0c10.6,0,19.5-11.2,20.3-25.3c0-0.2,0-0.7,0-0.7h1c1,8,4.9,13.8,11.2,16.3c1.9,0.8,3.9,1.1,6,1.1
		c9.5,0,19-7.9,23.7-19.6c2.7-6.6,3.4-13.7,2.1-19.8c-1.5-6.8-5.4-11.9-10.8-14.1c-1.9-0.8-3.9-1.2-6-1.2c-5.9,0-11.7,3.1-16.7,8.3
		V83c0-4.5,5.1-7,9.9-7h33.7c3.4,0,7.4,1,7.4,7v34.1c-5,0.9-11,3.4-15.9,7.2c-5.6,4.4-9.8,10.2-11.6,16.2
		c-2.1,6.6-1.2,13.1,2.5,17.7c3.4,4.3,8.7,6.6,14.9,6.6c6.7,0,14.1-2.7,20.2-7.5c11.8-9.3,16-22.3,10.2-32.3h21.4c3.4,0,7.3,1,7.3,7
		V165.7z M127.9,111.3c3.4-8.4,9.6-12.9,13.8-12.9c0.7,0,1.4,0.1,2,0.4c2.9,1.1,4,4.5,4.4,6.4c0.9,4,0.3,8.9-1.6,13.6
		c-3.4,8.4-9.6,12.9-13.8,12.9c-0.7,0-1.4-0.1-2-0.4C126.3,129.5,124.1,120.9,127.9,111.3z"/>
</g>
</svg>
