<?xml version="1.0" encoding="utf-8"?>
<!-- Generator: Adobe Illustrator 18.1.1, SVG Export Plug-In . SVG Version: 6.00 Build 0)  -->
<svg version="1.1" id="Layer_1" xmlns="http://www.w3.org/2000/svg" xmlns:xlink="http://www.w3.org/1999/xlink" x="0px" y="0px"
	 viewBox="0 0 300 300" enable-background="new 0 0 300 300" xml:space="preserve">
<g>
	<path fill="#CDCCCC" d="M139.8,63c1.5,1,3.7,2,5.1,3h77.7c2.5,0,4.4,1.9,4.4,4.3V154h5V63H139.8z"/>
	<path fill="#FFFFFF" d="M155.1,75c8.2,9,13.9,21,15.8,33h35.5c2.5,0,4.6,1.9,4.6,4.3V154h7V75H155.1z"/>
	<path fill="#CDCCCC" d="M108.8,62.4C78.5,62.4,54,87,54,117.3V237h71v-3h-14.2c-0.7,0-4,0-4.7,0H62.5c-2.5,0-4.5-2.6-4.5-5.1V118.2
		c0-27.7,22.5-50.1,50.2-50.1c24.1,0,44.3,17.9,49.1,39.9h5.4C158.3,82,135.9,62.4,108.8,62.4z"/>
	<rect x="67" y="132" fill="#FFFFFF" width="37" height="25"/>
	<path fill="#FFFFFF" d="M124.1,80.2c-4.9-2-10.2-3.2-15.8-3.2c-5.6,0-10.9,1.1-15.7,3.1l15.7,34.7L124.1,80.2z"/>
	<rect x="67" y="199" fill="#FFFFFF" width="37" height="26"/>
	<path fill="#FFFFFF" d="M84.6,84.7C74,92.2,67,104.3,67,118.2v4.8h34.8L84.6,84.7z"/>
	<rect x="67" y="166" fill="#FFFFFF" width="37" height="24"/>
	<rect x="113" y="199" fill="#FFFFFF" width="12" height="26"/>
	<rect x="113" y="132" fill="#FFFFFF" width="12" height="25"/>
	<rect x="113" y="166" fill="#FFFFFF" width="12" height="24"/>
	<path fill="#FFFFFF" d="M132,84.8L114.7,123H125v-10.7c0-2.5,1.5-4.3,4-4.3h19.1C145.6,99,139.8,90.4,132,84.8z"/>
	<path fill="#FFFFFF" d="M134,117v120h51v-79c0-2.5,1.5-4,4-4h13v-37H134z M182,133.9c1.7,1.4,2,3.9,0.6,5.6L150.8,179
		c-0.8,1-2,1.5-3.1,1.5c-0.9,0-1.8-0.3-2.5-0.9c-1.7-1.4-2-3.9-0.6-5.6l31.8-39.5C177.8,132.7,180.3,132.5,182,133.9z M164.5,192.5
		c-0.8,1-2,1.6-3.2,1.6c-0.8,0-1.7-0.3-2.4-0.8c-1.8-1.3-2.1-3.8-0.8-5.6l16.4-21.7c1.3-1.8,3.8-2.1,5.6-0.8
		c1.8,1.3,2.1,3.8,0.8,5.6L164.5,192.5z"/>
	<path fill="#FFFFFF" d="M211,193.3l15.5-16.8c1.5-1.6,3.9-1.7,5.5-0.2c1.6,1.5,1.9,4,0.4,5.7L211,205v32h34v-74h-34V193.3z
		 M237.4,202.4l-12,10.1c-0.8,0.6-1.7,0.9-2.6,0.9c-1.1,0-2.3-0.5-3.1-1.4c-1.4-1.7-1.2-4.2,0.5-5.6l12-10.1
		c1.7-1.4,4.2-1.2,5.6,0.5C239.3,198.5,239.1,201,237.4,202.4z"/>
	<path fill="#CDCCCC" d="M201.1,213.5c-1,0-2.1-0.4-2.8-1.1c-1.6-1.5-1.5-4,0-5.7l4.7-4.9V162h-10v75h10v-24.1
		C202,213.1,201.7,213.5,201.1,213.5z"/>
	<g>
		<path fill="#5A81B8" d="M182,133.9c-1.7-1.4-4.2-1.1-5.6,0.6L144.6,174c-1.4,1.7-1.1,4.2,0.6,5.6c0.7,0.6,1.6,0.9,2.5,0.9
			c1.2,0,2.3-0.5,3.1-1.5l31.8-39.5C184,137.8,183.7,135.2,182,133.9z"/>
		<path fill="#5A81B8" d="M180.1,165.1c-1.8-1.3-4.3-1-5.6,0.8l-16.4,21.7c-1.3,1.8-1,4.3,0.8,5.6c0.7,0.5,1.6,0.8,2.4,0.8
			c1.2,0,2.4-0.6,3.2-1.6l16.4-21.7C182.2,168.9,181.9,166.4,180.1,165.1z"/>
		<path fill="#5A81B8" d="M220.2,206.4c-1.7,1.4-1.9,3.9-0.5,5.6c0.8,0.9,1.9,1.4,3.1,1.4c0.9,0,1.8-0.3,2.6-0.9l12-10.1
			c1.7-1.4,1.9-3.9,0.5-5.6c-1.4-1.7-3.9-1.9-5.6-0.5L220.2,206.4z"/>
	</g>
	<path fill="#5A81B8" d="M249.4,154h-8.9H240V59.1c0-2.2-1.3-4.1-3.5-4.1H121.1c-0.2,0-0.4,0-0.6,0H115c-2,0-4.1-0.5-6.2-0.5
		C74.1,54.5,46,82.6,46,117.3v123.4c0,2.2,1.5,4.3,3.7,4.3h77.1c0.2,0,0.4,0.2,0.6,0.3c0.6,0.3,1,0.7,1.7,0.7h60h17.4h43
		c2.5,0,4.6-2.9,4.6-5.3V158C254,155.5,251.9,154,249.4,154z M140.6,63h11.8H232v91h-4.9H227V70.3c0-2.5-2-4.3-4.4-4.3h-77.7
		c0,0-2.2-1.6-4.3-2.6c-0.3-0.1-0.5-0.4-0.8-0.4H140.6z M54,117.3c0-30.3,24.5-54.9,54.8-54.9c27.1,0,49.5,19.6,54,45.6h-5.4
		c-4.8-22-25-39.9-49.1-39.9C80.5,68.1,58,90.6,58,118.2v110.7c0,2.5,2,5.1,4.5,5.1h37.9h5.7h0.3c0.6,0,1.3,0.5,2,0.5s1.4-0.5,2-0.5
		h0.3h10.8h3.4v3H54V117.3z M82.6,80.1c-1-2.3,0-5,2.3-6c0.6-0.3,1.2-0.4,1.7-0.4c-0.6,0-1.2,0.1-1.7,0.4
		C82.6,75.1,81.6,77.8,82.6,80.1l2,4.6l17.2,38.3H67h0v-4.8c0-13.9,7-26.3,17.6-33.7L82.6,80.1z M67,132h37v25H67h0L67,132L67,132z
		 M67,166h37v24H67h0L67,166L67,166z M67,199h37v25.4v0.6H67L67,199L67,199z M113,225v-0.6V199h12v25.4v0.6H113z M113,190v-24h12v24
		H113z M113,157v-25h12v25H113z M108.2,114.9L92.5,80.1l0,0c4.8-2,10.2-3.1,15.7-3.1c5.6,0,10.9,1.1,15.8,3.2l1.8-3.9
		c0.5-1.1,1.3-1.8,2.3-2.3c-1,0.4-1.8,1.2-2.3,2.3l-1.8,3.9L108.2,114.9z M125,112.3V123h-10.3L132,84.8l0,0
		c7.8,5.5,13.6,14.2,16.1,23.2H129C126.5,108,125,109.9,125,112.3z M185,158v78.1v0.8h-51V117h68v37h-0.1H189
		C186.5,154,185,155.5,185,158z M203,198.7v2.7l-0.5,0.5l-4.5,4.9c-1.5,1.6-1.4,4.1,0.2,5.7c0.8,0.7,1.8,1.1,2.7,1.1
		c0.6,0,1.1-0.1,1.6-0.3c0.2-0.1,0.3-0.2,0.5-0.3v0.3v6.2V237h-10v-75h10V198.7z M206.4,108h-35.5c-1.9-12-5.8-20-15.8-33H218v79h-7
		v-41.7C211,109.9,208.9,108,206.4,108z M245,237h-34v-0.8v-16.8V205v-0.5l21.1-22.6c1.5-1.6,1.4-4.1-0.2-5.7
		c-1.6-1.5-4.1-1.4-5.7,0.2L211,192.8V163h34V237z"/>
</g>
</svg>
