<?xml version="1.0" encoding="utf-8"?>
<!-- Generator: Adobe Illustrator 18.1.1, SVG Export Plug-In . SVG Version: 6.00 Build 0)  -->
<svg version="1.1" id="Layer_1" xmlns="http://www.w3.org/2000/svg" xmlns:xlink="http://www.w3.org/1999/xlink" x="0px" y="0px"
	 viewBox="0 0 300 300" enable-background="new 0 0 300 300" xml:space="preserve">
<g>
	<path fill="none" d="M200.5,87.4c3.1,0,5.7,0.9,7.9,2.8c0.8,0.7,1.4,1.5,1.7,2.3c-0.4-0.9-0.9-1.6-1.7-2.3
		C206.2,88.4,203.7,87.4,200.5,87.4c-3.2,0-5.3,0.7-6.6,2.2c-1.1,1.3-2.6,4.3-3.8,11.2c1.1-7,2.7-9.9,3.8-11.2
		C195.2,88.2,197.4,87.4,200.5,87.4z"/>
	<path fill="none" d="M212.4,189.3l8.4-25.3c0.2-0.5,0.2-0.9,0.2-1.4c0,0.4-0.1,0.9-0.2,1.3L212.4,189.3c-0.5,1.6-2.1,2.6-3.8,2.6
		C210.4,191.9,211.9,191,212.4,189.3z"/>
	<path fill="none" d="M199.8,148.4l10.7-51.9c0.1-0.7,0.1-1.3,0.1-1.9c0,0.6,0,1.2-0.1,1.9L199.8,148.4l-0.9-2.7
		c-0.5-1.7-2.1-2.8-3.8-2.8c1.7,0,3.3,1.2,3.8,2.8L199.8,148.4l5.2,15.9l3.6,11.1l2.8-8.4h-2.1c-2.2,0-4.1-1.9-4.1-4.1c0,0,0,0,0,0
		l-0.2,1.4L199.8,148.4z"/>
	<path fill="none" d="M103.9,210.7c-2,1.5-4.4,2.3-7.1,2.3c-0.2,0-0.3,0-0.5,0c-4.6-0.2-7.6-1.4-9.2-3.8c-1.4-2.1-3.4-6.5-5.2-15.9
		c-9.2-44.6-15.6-77.1-19.1-96.5c-0.2-1-0.2-1.8-0.2-2.6c0,0.7,0,1.6,0.2,2.6c3.5,19.5,9.9,51.9,19.1,96.5
		c1.8,9.4,3.8,13.8,5.2,15.9c1.6,2.4,4.6,3.6,9.2,3.8c0.1,0,0.3,0,0.5,0C99.5,213,101.8,212.2,103.9,210.7c2.3-1.7,3.7-3.6,4.5-6
		c1.3-4,2.6-7.8,3.8-11.5c-1.2,3.7-2.5,7.5-3.8,11.5C107.6,207,106.1,209,103.9,210.7z"/>
	<path fill="none" d="M124.9,166.9c-1.5,0-2.6-0.9-3.3-2.1c0,0,0,0,0,0c0,0,0,0.1,0,0.1C122.3,166.1,123.5,166.9,124.9,166.9z"/>
	<path fill="none" d="M151.4,160.5c-0.5,0.7-0.7,1.4-0.8,2.2C150.7,161.9,150.9,161.1,151.4,160.5c0.8-1,2-1.5,3.3-1.5
		C153.4,158.9,152.2,159.4,151.4,160.5z"/>
	<path fill="#FFFFFF" d="M143,96.7c-1.8-1.3-3.8-1.9-6.1-1.9c-6.4,0-9.9,2.5-11.6,8.1c-18.4,59.7-21,67.8-21.3,68.8
		c-0.6,1.8-2.4,2.9-4.2,2.7c-1.9-0.2-3.4-1.5-3.7-3.4L81.4,93.8c-0.6-3.3-2.2-6.8-9.2-6.8c-3.4,0-5.9,0.9-7.7,2.8
		c-0.8,0.8-1.7,2.1-1.8,4.3c0,0.7,0,1.6,0.2,2.6c3.5,19.5,9.9,51.9,19.1,96.5c1.8,9.4,3.8,13.8,5.2,15.9c1.6,2.4,4.6,3.6,9.2,3.8
		c0.1,0,0.3,0,0.5,0c2.7,0,5-0.7,7.1-2.3c2.3-1.7,3.7-3.7,4.5-6c1.3-4,2.6-7.8,3.8-11.5c3.6-10.8,6.7-20.2,9.3-28.3c0,0,0,0,0,0.1
		c0,0,0-0.1,0-0.1c-0.3-0.6-0.5-1.4-0.5-2.1V147c0-2.2,1.7-4,3.9-4h3.7c2-6,3.3-10,3.9-12.2c0.5-1.7,2.1-2.8,3.9-2.8
		c0,0,0.1,0,0.1,0c1.8,0,3.3,0.9,3.9,2.6l4.4,12.4h15.5l-13.6-41.3C145.9,99.5,144.7,97.9,143,96.7z"/>
	<path fill="#FFFFFF" d="M185,210.6c1.4-1.6,2.6-4.2,3.6-7.6l-4.7-14.1l-7.9,24c0.4,0,0.8,0,1.2,0C181,212.9,183.7,212.1,185,210.6z
		"/>
	<path fill="#FFFFFF" d="M162.1,167h-1.9l2.9,8.6l1.1-3.4l2.7-8.3l-1-2.8v1.7C166,165,164.3,167,162.1,167z"/>
	<path fill="#FFFFFF" d="M198.9,145.8l0.9,2.7l10.7-51.9c0.1-0.7,0.1-1.3,0.1-1.9c0-0.7-0.2-1.4-0.5-2.1c-0.4-0.9-0.9-1.6-1.7-2.3
		c-2.2-1.9-4.7-2.9-7.9-2.9c-3.2,0-5.3,0.7-6.6,2.2c-1.1,1.3-2.6,4.3-3.8,11.3c-2.4,14.1-5,28.1-7.6,42.1h12.5
		C196.9,143,198.4,144.1,198.9,145.8z"/>
	<path fill="#CDCCCC" d="M213,159h4c1.3,0,2.5,0.5,3.3,1.5c0.5,0.7,0.7,1.4,0.8,2.2c0,0.5,0,0.9-0.2,1.4l-8.4,25.3
		c-0.5,1.6-2.1,2.6-3.8,2.6c0,0,0,0,0,0c-1.7,0-3.3-1.1-3.8-2.7L192.2,151h-12.3l-13,38.3c-0.6,1.6-2.1,2.7-3.8,2.7c0,0,0,0,0,0
		c-1.7,0-3.3-1-3.8-2.7l-8.4-25.2c-0.2-0.5-0.2-0.9-0.2-1.4c0-0.8,0.3-1.5,0.8-2.2c0.8-1,2-1.5,3.3-1.5h3.3v-8h-29v8h4.6
		c1.7,0,3.3,0.8,3.8,2.5l17,50.5h13.2l12.3-37.3c0.5-1.6,2.1-2.7,3.8-2.7c0,0,0,0,0,0c1.7,0,3.3,1,3.8,2.7l12.5,37.3h13.1l16.8-50.5
		c0.5-1.6,2.1-2.5,3.8-2.5h4.2v-8h-25V159z"/>
	<path fill="#5A81B8" d="M242.4,143h-33l9.2-44.9c0-0.1,0-0.1,0-0.2c0.9-5.5-0.8-10.3-4.7-13.9c-3.7-3.3-8.2-4.9-13.4-4.9
		c-5.7,0-10,1.7-12.9,5.2c-2.6,3.1-4.4,8.1-5.6,15.2c-2.6,15.1-5.3,30.1-8.2,45c0.7-0.9,1.9-1.6,3.1-1.6c-1.2,0-2.4,0.6-3.1,1.6
		c-0.3,0.4-0.5,0.8-0.7,1.2l-1.7,5.1l-4.4,13l-2.8,8.3l-1.1,3.4l-2.9-8.6h1.9c2.2,0,3.9-2,3.9-4.3V161l1,2.8l4.5-13l-17-51.6
		c-1.2-3.9-3.4-7-6.8-9.3c-3.2-2.2-6.9-3.4-10.8-3.4c-10,0-16.8,4.9-19.5,14c-8,26-13.1,42.5-16.3,52.8L89.5,92.2
		c-1.7-8.7-7.8-13.5-17.3-13.5c-5.7,0-10.3,1.8-13.7,5.4c-3.5,3.7-4.8,8.6-3.8,14.1c3.5,19.5,9.9,52.1,19.1,96.7
		c1.7,8.7,3.8,14.8,6.5,18.8c3.1,4.6,8.4,7.2,15.8,7.5c0.3,0,0.5,0,0.8,0c4.5,0,8.6-1.3,12.1-4c3.6-2.7,6.1-6,7.4-9.9
		c5.3-16,9.7-29.4,13.3-40.4h1.2l17,50.5c0.5,1.6,2.1,2.5,3.8,2.5h18.6c0.2,0,0.4,0.1,0.6,0.1c0,0,0,0,0,0c0,0,0,0,0.1,0
		c1.9,0.5,4.4,1.1,6.4,1.1c0,0,0.1,0,0.1,0c6.4-0.2,11-1.9,13.9-5.1c0.4-0.4,0.8-1.1,1.2-1.6l0,0l1,2.8c0.5,1.6,2.1,2.6,3.8,2.6
		h18.9c1.7,0,3.3-0.8,3.8-2.5l16.8-50.5h5.6c2.2,0,3.6-2,3.6-4.3V147C246,144.8,244.6,143,242.4,143z M190.2,100.9
		c1.1-7,2.7-10,3.8-11.2c1.3-1.5,3.4-2.2,6.6-2.2c3.1,0,5.7,0.9,7.9,2.8c0.8,0.7,1.4,1.5,1.7,2.3c0.3,0.6,0.4,1.3,0.5,2.1
		c0,0.6,0,1.2-0.1,1.9l-10.7,51.9l5.2,15.8l0.2-1.4c0,0,0,0,0,0c0,2.2,1.9,4.1,4.1,4.1h2.1l-2.8,8.4l-3.6-11.1l-5.2-15.9l-0.9-2.7
		c-0.5-1.7-2.1-2.8-3.8-2.8h-12.5C185.2,129,187.8,115,190.2,100.9z M124.9,143c-2.2,0-3.9,1.8-3.9,4v15.7c0,0.7,0.2,1.5,0.5,2.1
		c0,0,0,0,0,0c0.7,1.2,1.9,2.1,3.4,2.1c-1.4,0-2.7-0.8-3.4-2c0,0,0,0,0-0.1c-2.7,8.1-5.8,17.5-9.3,28.3c-1.2,3.7-2.5,7.5-3.8,11.5
		c-0.8,2.3-2.3,4.3-4.5,6c-2,1.5-4.4,2.3-7.1,2.3c-0.2,0-0.3,0-0.5,0c-4.6-0.2-7.6-1.4-9.2-3.8c-1.4-2.1-3.4-6.5-5.2-15.9
		c-9.2-44.6-15.6-77.1-19.1-96.5c-0.2-1-0.2-1.8-0.2-2.6c0.1-2.2,1.1-3.5,1.8-4.3c1.8-1.9,4.3-2.8,7.7-2.8c6.9,0,8.5,3.4,9.2,6.8
		L96,171.1c0.3,1.8,1.9,3.2,3.7,3.4c1.9,0.1,3.6-1,4.2-2.7c0.3-1,2.9-9.1,21.3-68.8c1.7-5.6,5.3-8.1,11.6-8.1c2.3,0,4.3,0.6,6.1,1.9
		c1.8,1.2,2.9,2.8,3.6,5l13.6,41.3h-15.5l-4.4-12.4c-0.6-1.7-2.2-2.6-3.9-2.6c0,0-0.1,0-0.1,0c-1.8,0-3.4,1.1-3.9,2.8
		c-0.6,2.1-1.9,6.2-3.9,12.2H124.9z M185,210.6c-1.3,1.4-4,2.2-7.9,2.3c-0.3,0-0.8,0-1.2-0.1l0,0l7.9-23.9l4.7,14.1l0,0.1
		C187.6,206.4,186.3,209.1,185,210.6z M238,159h-4.2c-1.7,0-3.3,0.8-3.8,2.5L213.2,212h-13.1l-12.5-37.3c-0.5-1.6-2.1-2.7-3.8-2.7
		c0,0,0,0,0,0c-1.7,0-3.3,1-3.8,2.7L167.7,212h-13.2l-17-50.5c-0.5-1.6-2.1-2.5-3.8-2.5H129v-8h29v8h-3.3c-1.3,0-2.5,0.5-3.3,1.5
		c-0.5,0.7-0.7,1.4-0.8,2.1c0,0.5,0,0.9,0.2,1.4l8.4,25.3c0.5,1.6,2.1,2.7,3.8,2.7c0,0,0,0,0,0c1.7,0,3.3-1.1,3.8-2.7l13-38.3h12.3
		l12.6,38.3c0.5,1.6,2.1,2.7,3.8,2.7c0,0,0,0,0,0c1.7,0,3.3-1,3.8-2.7l8.4-25.4c0.1-0.4,0.2-0.9,0.2-1.3c0-0.8-0.3-1.5-0.8-2.2
		c-0.8-1-2-1.5-3.3-1.5h-4v-8h25V159z"/>
</g>
</svg>
