<?xml version="1.0" encoding="utf-8"?>
<!-- Generator: Adobe Illustrator 18.1.1, SVG Export Plug-In . SVG Version: 6.00 Build 0)  -->
<svg version="1.1" id="Layer_1" xmlns="http://www.w3.org/2000/svg" xmlns:xlink="http://www.w3.org/1999/xlink" x="0px" y="0px"
	 viewBox="0 0 300 300" enable-background="new 0 0 300 300" xml:space="preserve">
<g>
	<path fill="none" d="M205.8,199.3l-13.1-16.7c-0.6-0.7-0.9-1.6-0.9-2.5c0,0.9,0.3,1.8,0.9,2.6L205.8,199.3z"/>
	<path fill="none" d="M192.1,178.8c0.2-0.4,0.4-0.8,0.7-1.2l4.7-5.6l-4.7,5.6C192.4,177.9,192.2,178.3,192.1,178.8z"/>
	<path fill="none" d="M102.3,208.5c-2.2,3-4.7,4.4-8,4.4c-2.6,0-5-0.9-7.4-2.8c-2.8-2.2-3.1-4.2-3.1-5.5c0-2.1,0.7-4.1,2.3-6.3
		l37.3-47.5c0.6-0.7,0.9-1.6,0.9-2.4c0-0.9-0.2-1.7-0.7-2.5c-0.6-0.9-4.9-6.4-35.1-43.7c-1.7-2.1-2.6-4.1-2.6-5.9
		c0-1.9,1.1-3.8,3.2-5.8c2.3-2.1,4.6-3.1,7.2-3.1c0,0,0,0,0,0c-2.6,0-5.4,1-7.7,3.1c-2.2,2-3.7,3.9-3.7,5.8c0,0,0,0,0,0
		c0,1.9,1.4,3.9,3.1,5.9c30.1,37.3,34.7,42.8,35.4,43.7c0.5,0.7,0.9,1.6,0.8,2.5c0,0.9-0.3,1.7-0.8,2.4l-37.8,47.5
		c-1.5,2.1-2.7,4.2-2.7,6.3c0,0,0,0,0,0c0,1.3,0.8,3.3,3.5,5.5c2.4,1.9,5,2.8,7.6,2.8c3.2,0,5.9-1.4,8.1-4.3l26.5-36.5l5.1-6.7
		l-5.1,6.6L102.3,208.5z"/>
	<path fill="none" d="M188,168.9l12.3-17.1L188,168.9c-0.8,1.1-2,1.7-3.3,1.7C186,170.7,187.2,170,188,168.9z"/>
	<path fill="none" d="M174.9,183c0-0.4-0.1-0.9-0.2-1.3C174.8,182.1,174.9,182.5,174.9,183z"/>
	<path fill="none" d="M137.2,163.8c1.3,0,2.5,0.4,3.3,1.4l1.5,1.9l-1.5-1.9C139.7,164.2,138.5,163.8,137.2,163.8z"/>
	<path fill="none" d="M162.7,131.1c5.1-6.3,9.7-11.9,13.5-16.8c3.9-4.9,7.5-9.5,10.7-13.8c0,0-0.3-0.1-0.3-0.1
		c1.1-1.3,1.3-2.8,1.3-4.6c0,0,0,0,0,0c0-2-0.7-3.8-2.7-5.8c-2.1-2-4.2-3-6.8-3c-3.4,0-5.9,1.3-8.1,4.2l-29.7,40l29.8-39.9
		c2.2-2.9,4.8-4.2,8.2-4.2c2.6,0,4.8,1,6.9,2.9c2,1.9,3,3.8,3,5.8c0,1.8-0.5,3.2-1.6,4.6c0,0-0.1,0.1-0.1,0.1
		c-3.2,4.2-6.8,8.9-10.7,13.8C172.4,119.2,167.8,124.8,162.7,131.1c-3.8,4.6-6.9,8.6-9.4,11.6c-0.4,0.4-0.7,0.8-1,1.2
		c0.3-0.4,0.7-0.8,1-1.2C155.9,139.7,159,135.7,162.7,131.1z"/>
	<path fill="none" d="M146.2,172.6C146.2,172.6,146.2,172.6,146.2,172.6C146.2,172.6,146.2,172.6,146.2,172.6l12.9,18.2l-4.9,6.1
		l4.9-6.1l6.1-7.4l-6.1,7.2L146.2,172.6z"/>
	<polygon fill="none" points="165.7,182.8 154.1,167.8 165.7,182.8 	"/>
	<path fill="none" d="M159.2,203.2l2.8-3.3L159.2,203.2c-0.8,0.9-1.9,1.6-3.1,1.6C157.3,204.8,158.4,204.2,159.2,203.2z"/>
	<path fill="none" d="M181.7,192.9c1.3,0,2.5,0.6,3.2,1.6l12.1,17.3L185,194.5C184.2,193.4,183,192.9,181.7,192.9z"/>
	<path fill="none" d="M156.1,159.8c1.2,0,2.4,0.5,3.2,1.5l9.7,12.6l-9.7-12.6C158.5,160.3,157.3,159.8,156.1,159.8z"/>
	<path fill="#FFFFFF" d="M162.7,131.1c5.1-6.3,9.6-11.9,13.5-16.8c3.9-4.9,7.5-9.5,10.7-13.8c0,0,0.1-0.1,0.1-0.1
		c1.1-1.3,1.6-2.8,1.6-4.6c0-2-1-3.8-3-5.8c-2.1-2-4.3-2.9-6.9-2.9c-3.4,0-6,1.3-8.2,4.2l-29.8,40c-0.8,1-2,1.6-3.3,1.6c0,0,0,0,0,0
		c-1.3,0-2.5-0.6-3.3-1.6l-29.8-39.6c-2.3-3-4.8-4.4-7.8-4.4c-2.6,0-4.9,1-7.2,3.1c-2.2,2-3.2,3.9-3.2,5.8c0,1.9,0.9,3.9,2.6,5.9
		c30.1,37.3,34.4,42.8,35.1,43.7c0.5,0.7,0.8,1.6,0.7,2.5c0,0.9-0.3,1.7-0.9,2.4l-37.3,47.5c-1.5,2.1-2.3,4.2-2.3,6.3
		c0,1.3,0.3,3.3,3.1,5.5c2.4,1.9,4.8,2.8,7.4,2.8c3.2,0,5.8-1.4,8-4.4l26.5-36.6l5.1-6.6c0.8-1,2-1.4,3.3-1.4c0,0,0,0,0,0
		c1.3,0,2.5,0.3,3.3,1.3l1.5,1.9l4.2,5.3c0,0,0,0,0,0.1c0,0,0,0,0,0l12.9,18l6.1-7.2l0.4-0.4L154.1,168h-7.9c-2.2,0-5.2-2.1-5.2-4.3
		v-15.7c0-2.2,3-3.9,5.2-3.9h6.1c0.3,0,0.7-0.9,1-1.3C155.8,139.8,159,135.7,162.7,131.1z"/>
	<path fill="#FFFFFF" d="M186.3,210.8l-4.7-6.8l-5.8,7.8c1.3,0.8,2.7,1.2,4.1,1.2C182.1,212.9,184.2,212.2,186.3,210.8z"/>
	<path fill="#CDCCCC" d="M208.8,203.2l-3-3.9l-13.1-16.7c-0.6-0.8-0.9-1.7-0.9-2.6c0-0.4,0.1-0.9,0.2-1.3c0.2-0.4,0.4-0.8,0.7-1.2
		l4.7-5.6l9.1-10.7c0.8-0.9,1.9-1.2,3.1-1.2h4.3v-8h-13.7L188,169c-0.8,1.1-2,1.7-3.3,1.7c-1.3,0-2.5-0.7-3.3-1.8L170.3,152H149v8
		h7.1c1.2,0,2.4,0.4,3.2,1.4L169,174l5,6.5c0.3,0.4,0.5,0.8,0.6,1.2c0.1,0.4,0.2,0.9,0.2,1.3c0,0.9-0.3,1.8-0.9,2.5l-12,14.4
		l-2.8,3.4c-0.8,0.9-1.9,1.7-3.1,1.7H149v7h16.4l13.1-17.5c0.8-1,2-1.5,3.3-1.5c1.3,0,2.5,0.6,3.2,1.7L197,212h19v-7h-4.1
		C210.7,205,209.5,204.2,208.8,203.2z"/>
	<path fill="#5A81B8" d="M221.1,197h-7.2L201,180.6l10.5-12.6h7.3c2.2,0,3.2-2.1,3.2-4.3v-15.7c0-2.2-0.9-3.9-3.2-3.9h-20.6
		c-1.3,0-2.5,0.6-3.3,1.6l-10.1,13.9l-9.1-13.8c-0.7-1.1-2-1.8-3.4-1.8H163c1.8-2,3.8-4.8,6.1-7.6c5.1-6.3,9.7-12,13.6-16.9
		c3.9-4.9,7.5-9.6,10.7-13.9c2.3-2.8,3.4-6.1,3.4-9.8c0-4.3-1.9-8.2-5.6-11.8c-3.6-3.5-7.9-5.2-12.6-5.2c-5.9,0-11,2.6-14.8,7.5
		L137.4,122l-26.5-35.3c-3.9-5.1-8.8-7.6-14.4-7.6c-4.7,0-9,1.8-12.8,5.3c-3.9,3.6-5.9,7.6-5.9,11.9c0,3.8,1.5,7.6,4.4,11.2
		c20.6,25.5,29.4,36.5,32.8,40.8l-35.4,45c0,0-0.1,0.1-0.1,0.1c-2.6,3.6-3.9,7.3-3.9,11.2c0,3.2,1.1,7.9,6.2,12
		c3.9,3,8.1,4.6,12.5,4.6c5.8,0,10.9-2.7,14.7-7.8l26.5-36.6l1.8-2.4l2.3,3.2l13.7,19.3h-7c-2.2,0-5.2,1.3-5.2,3.5v15.7
		c0,2.2,3,3.8,5.2,3.8h21.2c1.3,0,2.5-0.5,3.2-1.5l0.1-0.1c2.8,1.8,6,2.8,9.2,2.8c3.9,0,7.7-1.3,11.1-3.6l0,0l0.6,0.8
		c0.8,1.1,2,1.6,3.3,1.6h26.2c2.2,0,2.9-1.6,2.9-3.8v-15.7C224,198.3,223.3,197,221.1,197z M145.6,172.6c0,0,0.3,0,0.3-0.1
		c0,0,0.1-0.1,0.1-0.1l-4.1-5.3l-1.4-1.8c-0.8-1-2-1.3-3.3-1.3c0,0,0,0,0,0c-1.3,0-2.5,0.3-3.3,1.4l-5.1,6.7l-26.5,36.5
		c-2.2,3-4.7,4.3-8,4.3c-2.6,0-5.4-0.9-7.8-2.8c-2.8-2.2-3.5-4.2-3.5-5.5c0,0,0,0,0,0c0-2.1,1.2-4.1,2.7-6.3l37.6-47.5
		c0.6-0.7,1-1.6,1-2.4c0-0.9-0.2-1.7-0.7-2.5c-0.6-0.9-5.4-6.4-35.5-43.7c-1.7-2.1-3.1-4.1-3.1-5.9c0,0,0,0,0,0
		c0-1.9,1.6-3.8,3.7-5.8c2.3-2.1,4.9-3.1,7.5-3.1c0,0,0.1,0,0.1,0c3,0,5.5,1.4,7.8,4.4l29.8,39.7c0.8,1,2,1.6,3.3,1.6c0,0,0,0,0,0
		c1.3,0,2.5-0.6,3.3-1.6l29.8-40c2.2-2.9,4.8-4.2,8.2-4.2c2.6,0,4.5,1,6.6,3c2,1.9,2.7,3.8,2.7,5.8c0,0,0,0,0,0
		c0,1.8-0.2,3.2-1.3,4.6c0,0,0.1,0.1,0.1,0.1c-3.2,4.2-6.7,8.9-10.6,13.8c-3.9,4.9-8.4,10.5-13.5,16.8c-3.8,4.6-6.9,8.7-9.3,11.6
		c-0.4,0.4-0.7,1.3-1,1.3h-6.1c-2.2,0-5.2,1.7-5.2,3.9v15.7c0,2.2,3,4.3,5.2,4.3h7.9l11.6,14.9l0,0l-1,0.5l-6.7,7.4v0L145.6,172.6z
		 M179.9,212.9c-1.4,0-2.7-0.6-4-1.3l5.7-7.6l4.7,6.8l0,0C184.3,212.1,182,212.9,179.9,212.9z M216,212h-19L185,194.6
		c-0.7-1.1-1.9-1.7-3.2-1.7c-1.3,0-2.5,0.5-3.3,1.5L165.4,212H149v-7h7.1c1.2,0,2.3-0.8,3.1-1.7l2.8-3.3l12-14.4
		c0.6-0.7,0.9-1.6,0.9-2.5c0-0.4-0.1-0.9-0.2-1.3c-0.1-0.4-0.4-0.9-0.6-1.2l-5-6.5l-9.7-12.5c-0.8-1-1.9-1.4-3.2-1.4H149v-8h21.3
		l11.1,16.9c0.7,1.1,2,1.8,3.3,1.8c1.3,0,2.6-0.6,3.3-1.6l12.3-17H214v8h-4.3c-1.2,0-2.3,0.3-3.1,1.2l-9.1,10.8l-4.7,5.6
		c-0.3,0.4-0.5,0.8-0.7,1.2c-0.2,0.4-0.2,0.9-0.2,1.3c0,0.9,0.3,1.8,0.9,2.5l13.1,16.7l3,3.9c0.8,1,1.9,1.8,3.2,1.8h4.1V212z"/>
</g>
</svg>
