<?xml version="1.0" encoding="utf-8"?>
<!-- Generator: Adobe Illustrator 18.1.1, SVG Export Plug-In . SVG Version: 6.00 Build 0)  -->
<svg version="1.1" id="Layer_1" xmlns="http://www.w3.org/2000/svg" xmlns:xlink="http://www.w3.org/1999/xlink" x="0px" y="0px"
	 viewBox="0 0 300 300" enable-background="new 0 0 300 300" xml:space="preserve">
<g>
	<path fill="none" d="M176.5,214.3l4.5-11c0.2-0.5,0.3-1.1,0.3-1.6c0,0.5-0.1,1-0.3,1.5L176.5,214.3c-0.6,1.4-2,2.3-3.6,2.3
		C174.5,216.6,175.9,215.7,176.5,214.3z"/>
	<path fill="none" d="M181.8,91.1c1.6-2.2,2.2-4.2,2.2-6.3c0,0,0,0,0,0C184,86.9,183.4,89,181.8,91.1
		C181.8,91.2,181.9,91.1,181.8,91.1l-27.3,41.4L181.8,91.1C181.8,91.1,181.8,91.2,181.8,91.1z"/>
	<path fill="none" d="M190.5,180.5l12.1-27.8c0.2-0.5,0.3-1,0.3-1.5c0,0.4-0.1,0.9-0.3,1.3L190.5,180.5c-0.6,1.4-2,2.1-3.5,2.1
		C188.5,182.6,189.9,181.9,190.5,180.5z"/>
	<path fill="none" d="M172.5,149c-0.5,0.7-0.7,1.4-0.7,2.1C171.8,150.4,172,149.7,172.5,149c0.7-1,1.9-1.5,3.2-1.5
		C174.4,147.6,173.2,148,172.5,149z"/>
	<path fill="none" d="M140.7,154.4c0,0.2,0,0.2,0,0.3c0-0.2,0.1-0.8,0.2-0.8c0,0,0,0,0,0c-1.2-1-2.2-1.6-2.2-3.1
		C138.7,152.4,139.5,153.8,140.7,154.4z"/>
	<path fill="none" d="M138.5,200.3c-0.7,0.5-1.4,0.9-2.2,1.2C137,201.2,137.8,200.8,138.5,200.3c1.6-1.2,2.2-2.7,2.2-4.8
		C140.7,197.6,140.1,199.1,138.5,200.3z"/>
	<path fill="none" d="M131.2,202C131.2,202,131.2,202,131.2,202c-1.6,0-3.1-0.3-4.3-0.7C128.1,201.7,129.5,202,131.2,202z"/>
	<path fill="none" d="M121.7,178.9c0,1.7,0.2,4.4,0,7.8c0,0.5,0,1,0,1.5c0-0.5,0-1,0-1.5C121.8,183.2,121.7,180.6,121.7,178.9z"/>
	<path fill="none" d="M118.5,148.1l-37-56c-2.1-3.5-2.5-5.4-2.5-6.1c0-2.3,0.9-4.2,3-5.9c2.2-1.9,4.6-2.8,7.3-2.8
		c1.8,0,4.4,0.5,6.8,4.1l31.6,50.9l-31.6-51c-2.4-3.7-5-4.1-6.8-4.1c-2.8,0-5.2,0.9-7.3,2.8c-2,1.7-3,3.6-3,5.9
		c0,0.8,0.3,2.6,2.5,6.2L118.5,148.1C118.5,148.2,118.4,148.2,118.5,148.1l2.7,4.7L118.5,148.1C118.5,148.2,118.5,148.2,118.5,148.1
		z"/>
	<path fill="#FFFFFF" d="M182,91.1c1.6-2.1,2.3-4.2,2.3-6.3c0-1.2-0.3-3-2.8-5.1c-2.1-1.8-4.2-2.6-6.5-2.6c-3.4,0-5.9,1.6-8,4.9
		c-31.2,50.9-31.5,51.1-31.6,51.3c-0.8,1.2-2.1,1.7-3.4,1.7c0,0,0,0-0.1,0c-1.4,0-2.7-0.6-3.5-1.8l-0.7-1L96.2,81.3
		c-2.4-3.7-5-4.1-6.8-4.1c-2.8,0-5.2,0.9-7.3,2.8c-2,1.7-3,3.6-3,5.9c0,0.8,0.3,2.6,2.5,6.2l37,56c0,0,0,0.1,0.1,0.1l2.7,4.7l-0.3,0
		c0.4,0.7,0.1,1.4,0.1,2.2v23.8c0,1.7,0.5,4.4,0.4,7.8c0,0.5,0.1,1,0.1,1.5c0,2.5,0.2,4.5,0.2,5.7c0,2.6,0.8,4.6,2.5,6.1
		c0.8,0.7,1.7,1.3,2.7,1.7c1.3,0.5,2.7,0.7,4.4,0.7c1.9,0,3.6-0.3,5.1-0.9c0.8-0.3,1.2-0.7,1.9-1.2c1.6-1.2,1.9-2.7,1.9-4.8v-40.5
		c0-0.2,0-0.3,0-0.5c-1.2-0.6-2-1.9-2-3.4v-14.4c0-2.1,2.6-4.7,4.8-4.7h11.8l27.3-41.2C181.9,90.8,182,91.2,182,91.1z"/>
	<path fill="#CDCCCC" d="M193,147h6.1c1.3,0,2.5,0.7,3.2,1.8c0.5,0.7,0.7,1.5,0.6,2.3c0,0.5-0.1,1.1-0.3,1.5l-12.1,27.6
		c-0.6,1.4-2,1.8-3.5,1.8c0,0,0,0,0,0c-1.5,0-2.9-0.4-3.5-1.9l-11.4-27.7c-0.2-0.5-0.3-0.9-0.3-1.4c0-0.7,0.2-1.7,0.7-2.4
		c0.7-1.1,1.9-1.7,3.2-1.7h3.4v-7h-33v7h6.6c1.5,0,2.8,0.9,3.4,2.3l24.9,50.7c0.3,0.5,0.4,1.1,0.4,1.7c0,0.5-0.1,1.1-0.3,1.6
		l-4.5,10.7c-0.6,1.4-2,2-3.6,2h-10v7h18.2l31.7-73.8c0.6-1.4,2-2.2,3.5-2.2h5.6v-7h-29V147z"/>
	<path fill="#5A81B8" d="M226.2,132h-35.9c-1.4,0-2.6,0.7-3.3,1.8c-0.7-1.1-1.9-1.8-3.3-1.8h-19.2l24.3-36.5
		c2.6-3.5,3.8-7.1,3.8-10.9c0-4.4-1.9-8.1-5.8-11.3c-3.6-3-7.6-4.5-11.8-4.5c-6.2,0-11.4,3.1-15,8.8c-14,22.8-23.4,38.1-28,45.7
		l-28.8-46.4C99.8,71.7,95,69,89.3,69c-4.8,0-9.1,1.6-12.7,4.8c-3.9,3.3-5.8,7.4-5.8,12.2c0,3,1.2,6.5,3.7,10.5c0,0,0,0.1,0.1,0.1
		l36.6,56.1l1.8,3.6v22.6c0,1.6,0.4,4.1,0.2,7.4c-0.1,3.5,0,5.9,0,7.6c0,5,1.8,9.1,5.2,12.2c3.3,3.1,7.6,4.6,12.7,4.6
		c4.8,0,8.8-1.3,12.2-3.7c3.7-2.7,5.6-6.7,5.6-11.5v-39.3l1-2.1h0.2l23.1,46.9l-2.9,7.1h-10.5c-2.1,0-4.8,2.8-4.8,4.9v14.4
		c0,2.1,2.7,3.8,4.8,3.8h23.9c1.5,0,2.9-1.3,3.5-2.7L219,154h7.2c2.1,0,2.8-0.8,2.8-2.9v-14.4C229,134.6,228.3,132,226.2,132z
		 M183.7,154c1.4,0,2.6-0.7,3.3-1.8c0.7,1.1,1.9,1.8,3.3,1.8h3l-6.2,14.3l-5.8-14.3H183.7z M140,195.4c0,2.2-0.3,3.7-1.8,4.8
		c-0.7,0.5-1.3,0.7-2.1,1c-1.5,0.6-3,0.7-4.9,0.7c0,0,0,0,0,0c-1.6,0-3.1-0.1-4.3-0.6c-1-0.4-1.9-0.8-2.7-1.6
		c-1.7-1.6-2.5-3.4-2.5-6.1c0-1.3-0.1-3.2-0.1-5.7c0-0.5-0.3-1-0.3-1.5c0.1-3.4-0.4-6-0.4-7.7v-23.8c0-0.8,0.3-1.5-0.1-2.2l0.2,0
		l-2.7-4.7c0,0,0.1-0.1,0-0.1l-36.9-56C79.3,88.6,79,86.7,79,86c0-2.3,1-4.2,3-5.9c2.2-1.9,4.6-2.8,7.3-2.8c1.8,0,4.5,0.4,6.8,4.1
		l31.6,51l0.7,0.9c0.7,1.2,2,1.8,3.5,1.8c0,0,0,0,0.1,0c1.4,0,2.7-0.6,3.4-1.7c0.1-0.2,0.4-0.6,31.6-51.4c2.1-3.3,4.6-4.8,8-4.8
		c2.3,0,4.2,0.9,6.3,2.6c2.5,2.1,2.6,4,2.6,5.1c0,0,0,0,0,0c0,2.1-0.6,4.2-2.2,6.3c0,0.1,0-0.3,0-0.3L154.6,132h-11.8
		c-2.1,0-4.8,2.6-4.8,4.7v14.4c0,1.4,0.9,2.4,2.1,3.4c0,0.1-0.1,0.3-0.1,0.4V195.4z M222,147h-5.6c-1.5,0-2.9,0.8-3.5,2.2L181.2,223
		H163v-7h10c1.6,0,3-0.6,3.6-2l4.5-10.9c0.2-0.5,0.3-0.9,0.3-1.4c0-0.6-0.1-1.1-0.4-1.6l-24.9-50.8c-0.6-1.3-2-2.2-3.4-2.2H146v-7
		h33v7h-3.4c-1.3,0-2.5,0.8-3.2,1.8c-0.4,0.6-0.6,1.5-0.7,2.2c0,0.5,0.1,1,0.3,1.5l11.4,27.6c0.6,1.4,2,1.9,3.5,1.9c0,0,0,0,0,0
		c1.5,0,2.9-0.4,3.5-1.8l12.1-27.8c0.2-0.4,0.3-0.8,0.3-1.2c0-0.7-0.2-1.7-0.6-2.4c-0.7-1.1-1.9-1.8-3.2-1.8H193v-7h29V147z"/>
</g>
</svg>
