<?xml version="1.0" encoding="utf-8"?>
<!-- Generator: Adobe Illustrator 18.1.1, SVG Export Plug-In . SVG Version: 6.00 Build 0)  -->
<svg version="1.1" id="Layer_1" xmlns="http://www.w3.org/2000/svg" xmlns:xlink="http://www.w3.org/1999/xlink" x="0px" y="0px"
	 viewBox="0 0 300 300" enable-background="new 0 0 300 300" xml:space="preserve">
<g>
	<rect x="152" y="90" fill="#FFFFFF" width="12" height="6"/>
	<rect x="77" y="152" fill="#FFFFFF" width="8" height="8"/>
	<rect x="77" y="184" fill="#FFFFFF" width="8" height="8"/>
	<rect x="152" y="104" fill="#FFFFFF" width="12" height="8"/>
	<rect x="77" y="168" fill="#FFFFFF" width="8" height="8"/>
	<rect x="77" y="120" fill="#FFFFFF" width="8" height="8"/>
	<path fill="#FFFFFF" d="M93,164.3v16v16V208h34.9c-13-10-21.6-24.9-21.6-42.2c0-4.7,0.7-8.8,1.8-13.8H93V164.3z"/>
	<rect x="77" y="104" fill="#FFFFFF" width="8" height="8"/>
	<rect x="77" y="136" fill="#FFFFFF" width="8" height="8"/>
	<rect x="77" y="90" fill="#FFFFFF" width="8" height="6"/>
	<rect x="77" y="200" fill="#FFFFFF" width="8" height="8"/>
	<path fill="#FFFFFF" d="M93,90v10.3v16v16V144h18.1c6.3-13,17.9-23.9,32.9-28.1V90H93z"/>
	<path fill="#CDCCCC" d="M158.3,123c-23.7,0-43,19.3-43,43c0,23.7,19.3,43,43,43s43-19.3,43-43C201.4,142.3,182.1,123,158.3,123z
		 M182.4,173.6l-30.1,18.7c-1.4,0.9-3.1,1.3-4.7,1.3c-1.5,0-3.3-0.4-4.6-1.1c-2.9-1.6-4.9-4.6-4.9-7.9v-37.3c0-3.3,2-6.3,4.9-7.9
		c1.4-0.8,3-1.1,4.5-1.1c1.6,0,3.4,0.5,4.8,1.3l30.2,18.7c2.7,1.6,4.3,4.5,4.3,7.7C186.6,169.1,185,172,182.4,173.6z"/>
	<polygon fill="#FFFFFF" points="177.1,166 147,147.3 147,184.7 	"/>
	<g>
		<path fill="#5A81B8" d="M227.3,115.9c-1.4-2.1-4.2-2.6-6.3-1.2l-13.8,9.4c-2.1,1.4-2.6,4.2-1.2,6.3c0.9,1.3,2.3,2,3.7,2
			c0.9,0,1.8-0.3,2.5-0.8l13.8-9.4C228.2,120.8,228.7,118,227.3,115.9z"/>
		<path fill="#5A81B8" d="M226.9,141.8l-8.8-0.9c-2.5-0.3-4.7,1.6-4.9,4c-0.2,2.5,1.6,4.7,4,4.9l8.8,0.9c0.2,0,0.3,0,0.5,0
			c2.3,0,4.2-1.7,4.5-4C231.2,144.2,229.4,142,226.9,141.8z"/>
		<path fill="#5A81B8" d="M194.8,118.7c0.6,0.3,1.2,0.4,1.9,0.4c1.7,0,3.3-1,4.1-2.6l3.2-7c1-2.3,0-4.9-2.2-6c-2.3-1-4.9,0-6,2.2
			l-3.2,7C191.5,115,192.5,117.7,194.8,118.7z"/>
		<path fill="#5A81B8" d="M172.3,115.9c-0.1,0-0.3,0-0.3-0.1V86c0-2.2-1.4-4-3.6-4H72.9c-2.2,0-3.9,1.8-3.9,4v126.1
			c0,2.2,1.7,3.9,3.9,3.9h71.5c-1.1,0-2.2-0.6-3.2-1c1.1,0.4,2.1,0.8,3.2,1.1c4.4,1.2,9.1,1.9,13.9,1.9c28.7,0,52-23.3,52-52
			C210.3,142.1,194.2,122,172.3,115.9z M164,112h-12v-8h12V112z M164,96h-12v-6h12V96z M144,115.9c-15,4.2-26.6,15.1-32.9,28.1H93
			v-11.7v-16v-16V90h51V115.9z M85,176h-8v-8h8V176z M77,120h8v8h-8V120z M85,112h-8v-8h8V112z M77,184h8v8h-8V184z M85,160h-8v-8h8
			V160z M77,144v-8h8v8H77z M77,90h8v6h-8V90z M77,200h8v8.1V208h-8V200z M127.9,208H93v0.1v-11.8v-16v-16V152h15.2
			c-1.2,5-1.8,9.1-1.8,13.8C106.3,183.2,114.8,198.6,127.9,208c0.6,0.5,1.1,0.7,1.7,1.1C129,208.8,128.4,209,127.9,208z M158.3,209
			c-23.7,0-43-19.3-43-43c0-23.7,19.3-43,43-43s43,19.3,43,43C201.4,189.7,182.1,209,158.3,209z"/>
		<path fill="#5A81B8" d="M182.4,158.3l-30.1-18.7c-1.4-0.9-3.1-1.3-4.7-1.3c-1.5,0-3.3,0.4-4.6,1.1c-2.9,1.6-4.9,4.6-4.9,7.9v37.3
			c0,3.3,2,6.3,4.9,7.9c1.4,0.8,3,1.1,4.5,1.1c1.6,0,3.4-0.5,4.8-1.3l30.2-18.7c2.7-1.6,4.3-4.5,4.3-7.7
			C186.6,162.9,185,160,182.4,158.3z M147,184.7v-37.3l30.1,18.7L147,184.7z"/>
	</g>
</g>
</svg>
