<?xml version="1.0" encoding="utf-8"?>
<!-- Generator: Adobe Illustrator 18.1.1, SVG Export Plug-In . SVG Version: 6.00 Build 0)  -->
<svg version="1.1" id="Layer_1" xmlns="http://www.w3.org/2000/svg" xmlns:xlink="http://www.w3.org/1999/xlink" x="0px" y="0px"
	 viewBox="0 0 300 300" enable-background="new 0 0 300 300" xml:space="preserve">
<g>
	<path fill="none" d="M115.4,104.7c-13.1,0.1-21.1,0.1-24.1,0.1l0,0C94.2,104.8,102.3,104.7,115.4,104.7c13-0.1,22-0.1,26.9-0.1l0,0
		C137.4,104.6,128.4,104.6,115.4,104.7z"/>
	<path fill="none" d="M177,172.3c0,1.1-0.2,2.2-0.9,3l9.6-9.2H177V172.3z"/>
	<path fill="none" d="M199.1,163.6c-0.2,0.3-0.4,0.7-0.7,1l-38.8,39l38.8-39C198.7,164.3,198.9,163.9,199.1,163.6z"/>
	<path fill="none" d="M113.3,196.4c9.8,0,20.9-0.2,32.9-0.5c3.8-0.1,7-0.2,9.5-0.3l0,0c-2.5,0.1-5.7,0.1-9.6,0.3
		C134.2,196.2,123.1,196.4,113.3,196.4z"/>
	<path fill="none" d="M177.6,204.2c0.6,1.5,2.1,2.7,3.7,2.7C179.7,206.8,178.3,205.7,177.6,204.2c-0.3-0.8-0.3-1.8-0.1-2.7
		C177.3,202.4,177.3,203.3,177.6,204.2z"/>
	<path fill="#FFFFFF" d="M113.3,196.4c-1.4,0-2.8-0.7-3.5-2c-0.8-1.2-0.8-2.7-0.2-4c0.4-0.8,1.4-2.6,5.7-9c0,0,0-0.1,0.1-0.1
		l47.9-68l4.4-6.6c4.5-6.6,5.1-9.8,5.1-11.1c0-3.4-1.2-4.8-2.2-5.6c-1.6-1.4-4-2.1-7.1-2.1c-3.4,0-8.7,0-15.7,0.1
		c-7.3,0.1-12.2,0.1-15,0.1l-40.7,0.2c-2.9,0-4.9,0.7-6.1,2.1c-1.4,1.5-2,3.6-2,6.5c0,0.7,0,1.3,0.1,1.9c0.2,1.8,0.8,3.1,1.8,4.1
		c1.2,1.3,3,1.9,5.5,1.9c3,0,11,0,24.1-0.1c13-0.1,22-0.1,26.9-0.1l0,0c0,0,0,0,0,0c1.5,0,2.9,0.9,3.7,2.2c0.7,1.4,0.6,3-0.2,4.3
		l-4.7,6.8l-37.3,51.7l-12.7,17.4c-4.8,6.4-7.5,12.1-8,16.8c0,1.4,0.3,2.6,0.7,3.8c0,0.1,0.1,0.1,0.1,0.2c0.4,1.2,1.2,4.3,8.7,4.3
		c23.5,0,42.3-0.1,58.3-0.2v-10c0-1.1,0.5-2.1,1.3-2.9l3.2-3.3c-2.5,0.1-5.6,0.1-9.4,0.3C134.1,196.2,123.1,196.4,113.3,196.4z"/>
	<path fill="#CDCCCC" d="M162,168h7v-6.3c0-2.2,2.2-3.7,4.4-3.7h21.9c1.6,0,3.2,0.8,3.8,2.3c0.5,1.1,0.4,2.3-0.1,3.3
		c-0.2,0.4-0.7,0.7-1,1L159,203.5v8.5h58v-17h-7v7.5c0,2.2-0.7,4.5-2.9,4.5h-25.7c-1.6,0-3.1-1.2-3.7-2.7c-0.4-0.9-0.4-1.9-0.1-2.7
		c0.2-0.7,0.2-1.4,0.7-1.9l38.7-39.1V152h-55V168z"/>
	<path fill="#5A81B8" d="M225,162.2v-14.3c0-2.2-1.3-3.9-3.5-3.9h-62.9c-2.2,0-4.5,1.7-4.5,3.9v24.3c0,2.2,2.3,3.7,4.5,3.7h14.9
		c1.1,0,2.1-0.3,2.8-1l-12,12.1l-0.1,0.1c-2.6,0.1-8.6,0.2-18.2,0.5c-8.9,0.2-17.3,0.4-25.1,0.4c0.4-0.6,0.9-1.3,1.4-2.1l47.9-68
		l4.5-6.6c4.4-6.5,6.6-11.6,6.6-15.8c0-5-1.7-9-5-11.9c-3.2-2.7-7.4-4.1-12.5-4.1c-3.4,0-8.7,0-15.8,0.1c-7.3,0.1-12.2,0.1-15,0.1
		L92,80c-5.2,0-9.3,1.6-12.2,4.8c-2.8,3-4.2,7.1-4.2,12c0,4.8,1.4,8.8,4.1,11.7c2.8,3,6.7,4.5,11.5,4.5c3,0,11,0,24.2-0.1
		c7.8,0,14.1-0.1,19-0.1l-37.4,51.8L84.4,182c-5.8,7.8-9,14.8-9.6,21.2c0,0.1,0,0.3,0,0.4c0,2.4,0.4,4.7,1.2,6.8
		c1.5,4.6,5.7,10,16.8,10c25.1,0,45.9-0.1,61.6-0.3c-1.7-0.4-2.8-2-2.8-3.9c0,1.9,1.1,3.3,2.8,3.8c0.3,0.1,0.4,0,0.8,0h66.3
		c2.2,0,3.5-1.6,3.5-3.8v-25.5c0-2.2-1.3-3.7-3.5-3.7h-14.4c-2.2,0-5.1,1.5-5.1,3.7v8.3h-11l33-33.7
		C224.8,164.6,225,163.3,225,162.2z M155.7,195.7l-3.4,3.3c-0.8,0.8-1.3,1.8-1.3,2.9v10c-16,0.2-34.7,0.2-58.3,0.2
		c-7.5,0-8.5-3.2-8.9-4.3c0-0.1,0-0.1-0.1-0.2c-0.4-1.2-0.7-2.4-0.7-3.8c0.5-4.7,3.2-10.4,8-16.8l12.7-17.4l37.3-51.7l4.7-6.8
		c0.9-1.3,1-2.9,0.2-4.3c-0.7-1.4-2.1-2.2-3.7-2.2c0,0,0,0,0,0c-4.9,0-13.9,0-26.9,0.1c-13.1,0.1-21.1,0.1-24.1,0.1
		c-2.5,0-4.2-0.6-5.5-1.9c-1-1-1.5-2.4-1.8-4.1c-0.1-0.6-0.1-1.2-0.1-1.9c0-2.9,0.7-5,2-6.5c1.3-1.4,3.3-2.1,6.1-2.1l40.7-0.2
		c2.8,0,7.7,0,15-0.1c7.1-0.1,12.4-0.1,15.7-0.1c3.1,0,5.5,0.7,7.1,2.1c0.9,0.8,2.2,2.3,2.2,5.6c0,1.3-0.7,4.6-5.1,11.1l-4.4,6.6
		l-47.9,68c0,0,0,0.1-0.1,0.1c-4.3,6.4-5.3,8.2-5.7,9c-0.6,1.3-0.6,2.8,0.2,4c0.8,1.2,2.1,2,3.5,2c9.8,0,20.9-0.2,32.8-0.5
		C150,195.8,153.1,195.7,155.7,195.7L155.7,195.7z M217,160.5l-38.7,39.1c-0.5,0.5-0.7,1.2-0.9,1.8c-0.2,0.9-0.1,1.9,0.2,2.8
		c0.6,1.5,2.1,2.7,3.8,2.7h25.7c2.2,0,2.9-2.3,2.9-4.5V195h7v17h-58v-8.5l39.1-39c0.3-0.3,0.7-0.6,0.8-1c0.5-1,0.6-2.1,0.2-3.2
		c-0.6-1.5-2.1-2.3-3.7-2.3h-21.9c-2.2,0-4.4,1.5-4.4,3.7v6.3h-7v-16h55V160.5z M176.1,175.2c0.7-0.7,0.9-1.9,0.9-3V166h8.7
		L176.1,175.2z"/>
</g>
</svg>
