<svg xmlns="http://www.w3.org/2000/svg" viewBox="0 0 23.43 23.43"><defs><style>.cls-1{fill:#ccc;}</style></defs><title>edit_new</title><g id="Layer_2" data-name="Layer 2"><g id="Layer_1-2" data-name="Layer 1"><path class="cls-1" d="M14.06,2.88l6.49,6.49L9,20.92l-6.85.36.36-6.85L14.06,2.88m0-2.88L12.61,1.44,1.07,13l-.55.55,0,.78L.12,21.17,0,23.43l2.26-.12L9.12,23l.78,0,.55-.55L22,10.82l1.44-1.44L22,7.93,15.5,1.44,14.06,0Z"/><polygon class="cls-1" points="1.44 17.67 5.76 22 1.44 22 1.44 17.67"/><rect class="cls-1" x="13.13" y="3.14" width="2.04" height="11.22" transform="translate(-2.04 12.56) rotate(-45)"/><rect class="cls-1" x="4.93" y="12.05" width="11.22" height="2.04" transform="translate(-6.16 11.29) rotate(-45.04)"/></g></g></svg>