<svg xmlns="http://www.w3.org/2000/svg" viewBox="0 0 45.52 45.52"><defs><style>.cls-1{fill:#fff;stroke:#000;stroke-miterlimit:10;stroke-width:2.23px;}.cls-2{fill:#040006;}</style></defs><title>instagram_black</title><g id="Layer_2" data-name="Layer 2"><g id="Layer_1-2" data-name="Layer 1"><circle id="_Path_" data-name="&lt;Path&gt;" class="cls-1" cx="22.76" cy="22.76" r="21.65"/><g id="_Group_" data-name="&lt;Group&gt;"><g id="_Group_2" data-name="&lt;Group&gt;"><path class="cls-2" d="M29.78,34.85H15.27A4.84,4.84,0,0,1,10.43,30V15.5a4.84,4.84,0,0,1,4.83-4.83H29.78a4.84,4.84,0,0,1,4.83,4.83V30A4.84,4.84,0,0,1,29.78,34.85ZM15.27,12.95a2.56,2.56,0,0,0-2.56,2.56V30a2.56,2.56,0,0,0,2.56,2.56H29.78A2.56,2.56,0,0,0,32.34,30V15.5a2.56,2.56,0,0,0-2.56-2.56Z"/></g><g id="_Group_3" data-name="&lt;Group&gt;"><path class="cls-2" d="M22.53,28.43a5.67,5.67,0,1,1,5.67-5.67A5.68,5.68,0,0,1,22.53,28.43Zm0-9.07a3.4,3.4,0,1,0,3.4,3.4A3.4,3.4,0,0,0,22.53,19.37Z"/></g><path id="_Path_2" data-name="&lt;Path&gt;" class="cls-2" d="M29.06,14.45a1.63,1.63,0,1,1-1.63,1.63,1.63,1.63,0,0,1,1.63-1.63Z"/></g></g></g></svg>