<svg xmlns="http://www.w3.org/2000/svg" viewBox="0 0 78.83 122.06"><defs><style>.cls-1{fill:#fff;}.cls-1,.cls-2{stroke:#040006;stroke-linecap:round;stroke-linejoin:round;stroke-width:3.37px;}.cls-2{fill:none;}</style></defs><title>keys</title><g id="Layer_2" data-name="Layer 2"><g id="Layer_1-2" data-name="Layer 1"><path class="cls-1" d="M54.24,24.24A23.73,23.73,0,0,0,23.55,59.1L1.68,97.77l4.67,11.17,12-1.75L17,100.66l6.63-2.85-1.76-6.45L28.6,89l-1.84-6.32L32.58,82,40.2,68.52a23.73,23.73,0,0,0,14-44.27Z"/><line class="cls-1" x1="27.03" y1="64.74" x2="12.81" y2="89.89"/><path class="cls-1" d="M53.42,23.08a23.73,23.73,0,0,0-9.56,45.45V113l9.56,7.42L63,113l-4.36-5L63,102.18l-4.71-4.75L63,92.1,58.27,87.5,63,84V68.53a23.73,23.73,0,0,0-9.56-45.45Zm0,21.56a7,7,0,1,1,7-7A7,7,0,0,1,53.42,44.64Z"/><line class="cls-1" x1="49.66" y1="71.73" x2="49.66" y2="100.62"/><path class="cls-2" d="M36.84,21.4S33.42.85,54,1.71c25.79,1.07,18,48-6.85,34.25"/></g></g></svg>