<svg xmlns="http://www.w3.org/2000/svg" viewBox="0 0 45.52 45.52"><defs><style>.cls-1{fill:#fff;stroke:#000;stroke-miterlimit:10;stroke-width:2.23px;}.cls-2{fill:#040006;fill-rule:evenodd;}</style></defs><title>linkedin_black</title><g id="Layer_2" data-name="Layer 2"><g id="Layer_1-2" data-name="Layer 1"><g id="_Group_" data-name="&lt;Group&gt;"><circle id="_Path_" data-name="&lt;Path&gt;" class="cls-1" cx="22.76" cy="22.76" r="21.65"/><g id="_Group_2" data-name="&lt;Group&gt;"><path id="_Compound_Path_" data-name="&lt;Compound Path&gt;" class="cls-2" d="M16.85,31.68V17.36H12.09V31.68ZM14.47,15.41a2.48,2.48,0,1,0,0-4.95,2.48,2.48,0,1,0-.06,4.95Z"/><path id="_Path_2" data-name="&lt;Path&gt;" class="cls-2" d="M19.48,31.68h4.76v-8a3.24,3.24,0,0,1,.16-1.16,2.6,2.6,0,0,1,2.44-1.74c1.72,0,2.41,1.31,2.41,3.24v7.66H34V23.47c0-4.4-2.35-6.44-5.48-6.44a4.74,4.74,0,0,0-4.32,2.41h0V17.36H19.48c.06,1.34,0,14.31,0,14.31Z"/></g></g></g></g></svg>