<svg xmlns="http://www.w3.org/2000/svg" viewBox="0 0 23.66 25.63"><title>logout</title><g id="Layer_2" data-name="Layer 2"><g id="Layer_1-2" data-name="Layer 1"><path d="M11.83,13.8a2,2,0,0,0,2-2V2A1.89,1.89,0,0,0,13.22.59a1.93,1.93,0,0,0-2.77,0A1.9,1.9,0,0,0,9.86,2v9.86a2,2,0,0,0,2,2Zm0,0"/><path d="M22.42,8.52a11.6,11.6,0,0,0-3.49-4.16A1.91,1.91,0,0,0,17.47,4a1.83,1.83,0,0,0-1.29.77A1.87,1.87,0,0,0,15.8,6.2a1.91,1.91,0,0,0,.76,1.3,7.86,7.86,0,0,1,2.33,2.79,7.85,7.85,0,0,1,.2,6.57,7.81,7.81,0,0,1-4.21,4.21,7.8,7.8,0,0,1-6.12,0,7.81,7.81,0,0,1-4.21-4.21,7.68,7.68,0,0,1-.62-3.06,7.75,7.75,0,0,1,.82-3.51A7.87,7.87,0,0,1,7.1,7.5a1.92,1.92,0,0,0,.76-1.3,1.87,1.87,0,0,0-.38-1.46A1.82,1.82,0,0,0,6.2,4a1.94,1.94,0,0,0-1.47.38A11.71,11.71,0,0,0,0,13.8a11.5,11.5,0,0,0,.94,4.59,11.68,11.68,0,0,0,6.3,6.3,11.68,11.68,0,0,0,9.18,0,11.69,11.69,0,0,0,6.3-6.3,11.51,11.51,0,0,0,.94-4.59,11.65,11.65,0,0,0-1.24-5.28Zm0,0"/></g></g></svg>