<svg xmlns="http://www.w3.org/2000/svg" viewBox="0 0 29.53 29.53"><defs><style>.cls-1{fill:#fff;stroke:#040006;stroke-miterlimit:10;stroke-width:3px;}</style></defs><title>more </title><g id="Layer_2" data-name="Layer 2"><g id="Layer_1-2" data-name="Layer 1"><circle class="cls-1" cx="14.77" cy="14.77" r="13.27"/><path d="M9.32,15.21a1.27,1.27,0,0,1-.24-.94q0-1,1.35-1h3.22V9.35A1,1,0,0,1,14,8.52a1.25,1.25,0,0,1,.84-.29q1.12,0,1.12,1.27V13.3h3.4a1,1,0,0,1,1.12,1.12q0,1.12-1.22,1.15H15.92V17c0,.43,0,.92,0,1.46s0,.87,0,1q0,1.07-1.25,1-1,0-1-1.2v-3.7H10.18A1,1,0,0,1,9.32,15.21Z"/></g></g></svg>