<svg xmlns="http://www.w3.org/2000/svg" viewBox="0 0 370.52 18.52"><defs><style>.cls-1{fill:#004a97;}.cls-2,.cls-4,.cls-5,.cls-6,.cls-9{fill:#fff;}.cls-3{fill:#5980b7;}.cls-4,.cls-8{opacity:0.8;}.cls-5{opacity:0.55;}.cls-6{fill-rule:evenodd;}.cls-7,.cls-9{opacity:0.6;}</style></defs><title>payment_white</title><g id="Layer_2" data-name="Layer 2"><g id="Layer_1-2" data-name="Layer 1"><path class="cls-1" d="M192.58,17.65c4.43,0,8.47-3.61,8.47-8a8.28,8.28,0,0,0-8.47-8.17h-3.81a8,8,0,0,0-8.17,8.17,8.12,8.12,0,0,0,8.17,8Z"/><path class="cls-2" d="M190.47,13.92V5.14a4.7,4.7,0,0,1,0,8.78m-6.38-4.39a4.71,4.71,0,0,1,3-4.39v8.77a4.71,4.71,0,0,1-3-4.39m4.7-7.42a7.42,7.42,0,1,0,7.42,7.42,7.42,7.42,0,0,0-7.42-7.42"/><path class="cls-2" d="M192.58,17.65c4.43,0,8.47-3.61,8.47-8a8.28,8.28,0,0,0-8.47-8.17h-3.81a8,8,0,0,0-8.17,8.17,8.12,8.12,0,0,0,8.17,8Z"/><path class="cls-3" d="M190.47,13.92V5.14a4.7,4.7,0,0,1,0,8.78m-6.38-4.39a4.71,4.71,0,0,1,3-4.39v8.77a4.71,4.71,0,0,1-3-4.39m4.7-7.42a7.42,7.42,0,1,0,7.42,7.42,7.42,7.42,0,0,0-7.42-7.42"/><polygon class="cls-2" points="18.53 17.64 21.19 2.02 25.45 2.02 22.79 17.64 18.53 17.64"/><path class="cls-2" d="M38.23,2.4a11,11,0,0,0-3.82-.66c-4.21,0-7.17,2.12-7.2,5.16,0,2.24,2.12,3.5,3.73,4.24s2.21,1.25,2.21,1.94c0,1-1.32,1.53-2.55,1.53a8.93,8.93,0,0,1-4-.82l-.55-.25-.6,3.5a13.48,13.48,0,0,0,4.74.83c4.48,0,7.38-2.09,7.42-5.34,0-1.78-1.12-3.13-3.58-4.25-1.49-.72-2.4-1.21-2.39-1.94S32.42,5,34.09,5a7.86,7.86,0,0,1,3.19.6l.38.18.58-3.39"/><path class="cls-2" d="M49.15,2H45.86a2.12,2.12,0,0,0-2.23,1.3L37.31,17.65h4.47s.73-1.93.9-2.35h5.45c.13.55.52,2.34.52,2.34h4L49.15,2M43.9,12.1l1.7-4.37s.35-.9.56-1.49l.29,1.35,1,4.51Z"/><path class="cls-2" d="M15,2,10.79,12.68l-.44-2.17A12.19,12.19,0,0,0,4.45,4L8.26,17.63h4.51L19.47,2H15"/><path class="cls-2" d="M6.92,2H.05L0,2.34c5.34,1.29,8.88,4.42,10.35,8.17L8.85,3.34A1.78,1.78,0,0,0,6.92,2"/><path class="cls-2" d="M74.42,10a8.52,8.52,0,0,1,3.24-6.7,8.54,8.54,0,1,0,0,13.39A8.52,8.52,0,0,1,74.42,10Z"/><path class="cls-4" d="M80.91,10a8.52,8.52,0,0,0-3.24-6.7,8.53,8.53,0,0,0,0,13.39A8.52,8.52,0,0,0,80.91,10Z"/><polygon class="cls-2" points="91.42 14.28 91.34 14.49 91.27 14.28 91.16 14.28 91.16 14.6 91.23 14.6 91.23 14.38 91.31 14.57 91.39 14.57 91.46 14.38 91.46 14.6 91.53 14.6 91.53 14.28 91.42 14.28"/><polygon class="cls-2" points="90.82 14.35 90.92 14.35 90.92 14.6 91 14.6 91 14.35 91.1 14.35 91.1 14.28 90.82 14.28 90.82 14.35"/><path class="cls-5" d="M83,1.44a8.5,8.5,0,0,0-5.3,1.84,8.53,8.53,0,0,1,0,13.39A8.54,8.54,0,1,0,83,1.44Z"/><rect class="cls-2" x="135.98" y="2.5" width="1.6" height="6.58"/><path class="cls-2" d="M110.47,9.08h3.2V3.92L116,9.08h1.38l2.28-5.15V9.08h1.61V2.5h-2.62L116.72,7,114.67,2.5H112.1V8.73L109.42,2.5h-2.34l-2.81,6.58H106l.61-1.47h3.28Zm-3.32-2.84,1.07-2.62,1.08,2.62Z"/><polygon class="cls-2" points="127.66 7.72 123.98 7.72 123.98 6.4 127.57 6.41 127.57 5.06 123.98 5.06 123.98 3.88 127.66 3.88 127.66 2.5 122.41 2.5 122.41 9.08 127.66 9.08 127.66 7.72"/><path class="cls-2" d="M141.48,9.08h1.84l.59-1.47h3.27l.61,1.47H151V4.15l3,4.93h2.23V2.5H154.6V7.08L151.83,2.5h-2.4V8.72L146.77,2.5h-2.36L142.2,7.68h-.71a1.51,1.51,0,0,1-1.09-.34A2.25,2.25,0,0,1,140,5.79a2.2,2.2,0,0,1,.45-1.49,1.53,1.53,0,0,1,1.22-.39h1.49V2.5h-1.52a3.19,3.19,0,0,0-2.39.77,3.5,3.5,0,0,0-.85,2.57,3.3,3.3,0,0,0,.84,2.52A3.31,3.31,0,0,0,141.48,9.08Zm4.07-5.46,1.09,2.62h-2.17Z"/><path class="cls-2" d="M130.32,6.69H132c.57,0,.91,0,1.14.28a1.93,1.93,0,0,1,.25,1.28v.83H135V7.79a1.87,1.87,0,0,0-.26-1.2A1.77,1.77,0,0,0,134,6a1.86,1.86,0,0,0,1.11-1.75,1.53,1.53,0,0,0-.8-1.46,3.72,3.72,0,0,0-1.9-.32h-3.62V9.08h1.57Zm0-2.82h1.94A1.67,1.67,0,0,1,133,4a.61.61,0,0,1,.33.58.7.7,0,0,1-.32.63,1.55,1.55,0,0,1-.78.13h-1.91Z"/><path class="cls-2" d="M141.81,12.31a1.54,1.54,0,0,0-.81-1.46,3.83,3.83,0,0,0-1.89-.31h-3.63v6.58h1.58V14.71h1.68c.57,0,.92.05,1.15.3s.26.89.26,1.29v.83h1.58v-1.3a1.9,1.9,0,0,0-.26-1.2,1.68,1.68,0,0,0-.77-.55A1.84,1.84,0,0,0,141.81,12.31Zm-2.06.93a1.52,1.52,0,0,1-.77.13h-1.91V11.9H139a1.57,1.57,0,0,1,.75.12.63.63,0,0,1,.33.59A.72.72,0,0,1,139.74,13.24Z"/><path class="cls-2" d="M152.14,13.12l-.85,0a1.85,1.85,0,0,1-.61-.08.55.55,0,0,1-.11-1,1.08,1.08,0,0,1,.63-.12h2.88v-1.4h-3.15c-1.65,0-2.25,1-2.25,2,0,2.08,1.84,2,3.31,2a.81.81,0,0,1,.56.15.55.55,0,0,1,.19.44.57.57,0,0,1-.19.43.91.91,0,0,1-.64.16h-3.05v1.41h3.07c1.58,0,2.47-.66,2.47-2.08a1.83,1.83,0,0,0-.47-1.39A2.57,2.57,0,0,0,152.14,13.12Z"/><polygon class="cls-2" points="142.68 17.12 147.94 17.12 147.94 15.75 144.25 15.75 144.25 14.44 147.84 14.44 147.84 13.09 144.25 13.09 144.25 11.9 147.94 11.9 147.94 10.54 142.68 10.54 142.68 17.12"/><path class="cls-2" d="M132.09,10.54h-5l-2,2.16-1.93-2.16H116.8v6.58H123l2-2.18L127,17.12H130V14.91h2c1.38,0,2.74-.38,2.74-2.2S133.34,10.54,132.09,10.54Zm-9.85,5.21h-3.87V14.44h3.45V13.09h-3.45V11.9h3.94L124,13.82Zm6.23.78-2.41-2.68,2.41-2.59Zm3.6-3h-2V11.9h2.05c.57,0,1,.23,1,.81S132.68,13.57,132.07,13.57Z"/><path class="cls-2" d="M154.83,12.49c0,2.08,1.84,2,3.32,2a.81.81,0,0,1,.55.15.55.55,0,0,1,.19.44.57.57,0,0,1-.19.43.89.89,0,0,1-.64.16h-3v1.41h3a2.45,2.45,0,0,0,2.14-.84V13.81a1.47,1.47,0,0,0-.15-.17,2.54,2.54,0,0,0-1.79-.53l-.85,0a1.83,1.83,0,0,1-.61-.08.5.5,0,0,1-.35-.49.52.52,0,0,1,.23-.48,1.08,1.08,0,0,1,.63-.12h2.87v-1.4h-3.14C155.43,10.54,154.83,11.54,154.83,12.49Z"/><path class="cls-6" d="M216.76,1.45c0-.28,0-.38.35-.37,1.6,0,3.2,0,4.8,0a9.08,9.08,0,0,1,6.24,2.42A7.5,7.5,0,0,1,230.4,7.7a8.31,8.31,0,0,1-2.79,8.18,7.88,7.88,0,0,1-4.74,1.94c-2,.16-3.93,0-5.9.08-.24,0-.21-.12-.21-.27C216.77,16,216.77,4.13,216.76,1.45ZM220,14.74c0,.23,0,.3.29.3.66,0,1.31,0,2-.07a5.09,5.09,0,0,0,3.18-1.35,5.53,5.53,0,0,0,1.6-5.26,5,5,0,0,0-3.6-4.09,10.57,10.57,0,0,0-3-.3c-.29,0-.39.05-.39.37C220.05,6.06,220,13,220,14.74Z"/><path class="cls-6" d="M316.09,10.85l5.27,7h-.71c-1,0-2,0-3,0a.62.62,0,0,1-.61-.34q-2.06-3.08-4.14-6.16a.5.5,0,0,1-.05-.08c-.08-.2-.26-.19-.42-.16s-.09.2-.09.3c0,2,0,4,0,6,0,.33-.1.4-.41.39-.87,0-1.73,0-2.6,0-.22,0-.31,0-.31-.29q0-8.12,0-16.25c0-.18,0-.28.25-.28,1.87,0,3.74-.07,5.6.07a5.76,5.76,0,0,1,3.51,1.33,4.65,4.65,0,0,1,1.45,4,4.35,4.35,0,0,1-3.53,4.29ZM312.37,6.3c0,.74,0,1.49,0,2.23,0,.26.08.31.31.3.49,0,1,0,1.46-.06a2.39,2.39,0,0,0,2.34-2.4A2.19,2.19,0,0,0,314.89,4a7.39,7.39,0,0,0-2.2-.22c-.24,0-.32,0-.32.31C312.38,4.81,312.37,5.55,312.37,6.3Z"/><path class="cls-6" d="M297.63,1.42c0-.25.05-.33.32-.33q4.34,0,8.67,0c.23,0,.31,0,.3.29q0,1.17,0,2.33c0,.23-.08.27-.28.27-1.79,0-3.58,0-5.37,0-.3,0-.36.09-.36.37,0,1,0,2,0,3,0,.25.07.31.32.31h5.17c.27,0,.32.08.32.33q0,1.12,0,2.23c0,.24-.06.29-.29.29-1.71,0-3.42,0-5.14,0-.32,0-.38.1-.37.39,0,1.27,0,2.54,0,3.8,0,.25,0,.34.32.33h5.37c.27,0,.33.07.32.33,0,.77,0,1.53,0,2.3,0,.18,0,.25-.24.25q-4.4,0-8.81,0c-.27,0-.25-.13-.25-.3C297.64,14.88,297.64,4.1,297.63,1.42Z"/><path class="cls-6" d="M238.69,13a4,4,0,0,0,1.88,1.88,3.36,3.36,0,0,0,2.83.12,2.19,2.19,0,0,0,1.38-2,2,2,0,0,0-1.28-2c-.93-.47-1.94-.74-2.89-1.16a5.92,5.92,0,0,1-2.46-1.7,3.41,3.41,0,0,1-.69-1.7,4.69,4.69,0,0,1,3.46-5.38,7,7,0,0,1,6.48,1.44c.14.11.19.19.05.36q-.74.92-1.44,1.88c-.14.19-.2.14-.33,0a3.27,3.27,0,0,0-1.91-1.13,2.66,2.66,0,0,0-2.61.8,1.44,1.44,0,0,0,.3,2.2,10.06,10.06,0,0,0,2.29,1,16,16,0,0,1,2.14,1,4.18,4.18,0,0,1,2.27,3.59,5.3,5.3,0,0,1-4,5.77,6.65,6.65,0,0,1-7.53-2.8c-.08-.11-.08-.18,0-.28Z"/><path class="cls-6" d="M280,1.09c1.14,0,2.23,0,3.32,0a.34.34,0,0,1,.38.27c1,2.54,3.89,9.8,4.33,10.93.2-.22,3.09-7.54,4.45-10.94.05-.14.09-.25.29-.25h3.38l-7.14,17a.34.34,0,0,1-.39.26c-.42,0-.84,0-1.27,0a.31.31,0,0,1-.34-.23l-6.86-16.6Z"/><path class="cls-6" d="M262.16,5.63a7.2,7.2,0,0,0-1.92-1.42A5.34,5.34,0,0,0,253,7.27a5.87,5.87,0,0,0,1.11,6.3,5.31,5.31,0,0,0,4.23,1.67,5,5,0,0,0,3.33-1.38l.41-.38c.12.06.07.16.07.24,0,1.1,0,2.2,0,3.3a.32.32,0,0,1-.21.36,9.07,9.07,0,0,1-10.27-1.72,8.57,8.57,0,0,1-2.49-6,8.74,8.74,0,0,1,6.21-8.5,8.59,8.59,0,0,1,6.56.51c.11.06.2.11.2.26C262.16,3.13,262.16,4.34,262.16,5.63Z"/><path class="cls-6" d="M235.36,17.53c0,.28,0,.38-.36.38-.89,0-1.78,0-2.67,0-.22,0-.28-.05-.28-.28q0-8.12,0-16.25c0-.24.08-.29.3-.29.88,0,1.76,0,2.64,0,.29,0,.37.06.37.36C235.35,4.14,235.35,14.86,235.36,17.53Z"/><path class="cls-6" d="M322,1a1.3,1.3,0,1,0,1.29,1.3A1.29,1.29,0,0,0,322,1Zm0,2.35a1,1,0,0,1-1-1.06,1,1,0,1,1,2,0A1,1,0,0,1,322,3.33Z"/><path class="cls-6" d="M322.09,2.41l.48.64h-.33a.06.06,0,0,1-.05,0l-.37-.56h0s0,0,0,0,0,0,0,0c0,.18,0,.36,0,.55,0,0,0,0,0,0h-.23s0,0,0,0q0-.73,0-1.47s0,0,0,0,.34,0,.51,0a.52.52,0,0,1,.32.12.42.42,0,0,1,.13.36.39.39,0,0,1-.32.39ZM321.75,2c0,.07,0,.13,0,.2s0,0,0,0h.13a.22.22,0,0,0,.21-.22.2.2,0,0,0-.14-.21.67.67,0,0,0-.2,0s0,0,0,0S321.75,1.93,321.75,2Z"/><g class="cls-7"><ellipse class="cls-2" cx="272.08" cy="9.5" rx="8.88" ry="8.91"/></g><path class="cls-2" d="M348.93,0a3.08,3.08,0,0,0-3,3c0,.87,0,4.29,0,7.69a8.39,8.39,0,0,0,2.21.66c1.21.09,2-.31,2.07-1.32V6.27h2.67V9.92c-.14,2.09-2,2.52-4.77,2.38A12.92,12.92,0,0,1,346,12c0,3.41,0,6.46,0,6.46h4.64a3.08,3.08,0,0,0,2.92-3V0Z"/><path class="cls-2" d="M346,10.66v1.29h0V10.67Z"/><g class="cls-8"><path class="cls-2" d="M357.46,0a3.08,3.08,0,0,0-3,3c0,.55,0,2.12,0,4.07a6.31,6.31,0,0,1,4.35-.94,12.21,12.21,0,0,1,2.33.37V7.76a6.84,6.84,0,0,0-2.23-.66c-1.8-.13-2.75.72-2.75,2.08s.73,2.28,2.74,2.14a8.09,8.09,0,0,0,2.24-.66v1.25a11.66,11.66,0,0,1-2.85.41,6.14,6.14,0,0,1-3.83-1v7.05h4.64a3.08,3.08,0,0,0,2.92-3V0Z"/></g><path class="cls-9" d="M366.27,9.58h-1.82V11.2h1.82a.83.83,0,0,0,.8-.83A.8.8,0,0,0,366.27,9.58Z"/><path class="cls-9" d="M366.84,7.95a.74.74,0,0,0-.72-.77c-.52,0-1.47,0-1.68,0V8.66h1.72A.73.73,0,0,0,366.84,7.95Z"/><path class="cls-9" d="M365.94,0a3.08,3.08,0,0,0-3,3c0,.47,0,1.7,0,3.27h4.42c.88,0,1.91.38,1.91,1.44,0,.57-.3,1.22-1.4,1.43v0a1.63,1.63,0,0,1,1.75,1.51c0,1.17-1.2,1.49-1.85,1.49H363c0,3.32,0,6.25,0,6.25h4.64a3.08,3.08,0,0,0,2.92-3V0Z"/></g></g></svg>