<svg xmlns="http://www.w3.org/2000/svg" viewBox="0 0 105.63 28.15"><defs><style>.cls-1{fill:#fff;}</style></defs><title>paypal_white</title><g id="Layer_2" data-name="Layer 2"><g id="Layer_1-2" data-name="Layer 1"><path class="cls-1" d="M71.28,0H63.06a1.14,1.14,0,0,0-1.13,1L58.61,22a.68.68,0,0,0,.68.79H63.5a.8.8,0,0,0,.79-.67l.94-6a1.14,1.14,0,0,1,1.13-1H69c5.41,0,8.54-2.62,9.35-7.81.37-2.27,0-4.05-1-5.3S74,0,71.28,0Zm.95,7.69c-.45,2.95-2.7,2.95-4.88,2.95H66.11L67,5.14a.69.69,0,0,1,.68-.58h.57c1.48,0,2.88,0,3.61.84A2.74,2.74,0,0,1,72.23,7.69Z"/><path class="cls-1" d="M12.68,0H4.46A1.14,1.14,0,0,0,3.33,1L0,22a.68.68,0,0,0,.68.79H4.61a1.14,1.14,0,0,0,1.13-1l.9-5.68a1.14,1.14,0,0,1,1.13-1h2.6c5.41,0,8.54-2.62,9.35-7.81.37-2.27,0-4.05-1-5.3S15.42,0,12.68,0Zm.95,7.69c-.45,2.95-2.7,2.95-4.88,2.95H7.5l.87-5.51A.68.68,0,0,1,9,4.56h.57c1.48,0,2.88,0,3.61.84A2.74,2.74,0,0,1,13.62,7.69Z"/><path class="cls-1" d="M37.23,7.6H33.3a.68.68,0,0,0-.68.58l-.17,1.1-.28-.4c-.85-1.24-2.75-1.65-4.65-1.65a9,9,0,0,0-8.78,7.91,7.43,7.43,0,0,0,1.46,6,6.16,6.16,0,0,0,5,2,7.53,7.53,0,0,0,5.45-2.25L30.44,22a.68.68,0,0,0,.68.79h3.54a1.14,1.14,0,0,0,1.13-1L37.91,8.39A.68.68,0,0,0,37.23,7.6Zm-5.48,7.66A4.39,4.39,0,0,1,27.31,19,3.32,3.32,0,0,1,24.67,18a3.34,3.34,0,0,1-.62-2.76,4.4,4.4,0,0,1,4.41-3.79,3.31,3.31,0,0,1,2.62,1.07A3.39,3.39,0,0,1,31.75,15.26Z"/><path class="cls-1" d="M95.84,7.6H91.9a.68.68,0,0,0-.68.58l-.17,1.1-.28-.4C89.93,7.64,88,7.23,86.13,7.23a9,9,0,0,0-8.78,7.91,7.43,7.43,0,0,0,1.46,6,6.16,6.16,0,0,0,5,2,7.53,7.53,0,0,0,5.45-2.25L89,22a.68.68,0,0,0,.68.79h3.54a1.14,1.14,0,0,0,1.13-1L96.51,8.39A.68.68,0,0,0,95.84,7.6Zm-5.48,7.66A4.39,4.39,0,0,1,85.91,19,3.32,3.32,0,0,1,83.27,18a3.34,3.34,0,0,1-.62-2.76,4.4,4.4,0,0,1,4.41-3.79,3.31,3.31,0,0,1,2.62,1.07A3.39,3.39,0,0,1,90.35,15.26Z"/><path class="cls-1" d="M58.19,7.6h-4a1.14,1.14,0,0,0-.94.5l-5.46,8L45.52,8.41a1.14,1.14,0,0,0-1.09-.81H40.54a.69.69,0,0,0-.65.91l4.35,12.78-4.1,5.78a.68.68,0,0,0,.56,1.08h4a1.14,1.14,0,0,0,.94-.49l13.15-19A.69.69,0,0,0,58.19,7.6Z"/><path class="cls-1" d="M100.47.58,97.1,22a.68.68,0,0,0,.68.79h3.39a1.14,1.14,0,0,0,1.13-1L105.62.79a.68.68,0,0,0-.68-.79h-3.8A.68.68,0,0,0,100.47.58Z"/></g></g></svg>