<svg xmlns="http://www.w3.org/2000/svg" viewBox="0 0 90.29 24.06"><defs><style>.cls-1{fill:#009bde;}.cls-2{fill:#002f87;}</style></defs><title>paypal_color</title><g id="Layer_2" data-name="Layer 2"><g id="Layer_1-2" data-name="Layer 1"><path class="cls-1" d="M60.92,0h-7a1,1,0,0,0-1,.82l-2.84,18a.59.59,0,0,0,.58.68h3.6a.68.68,0,0,0,.67-.58l.81-5.11a1,1,0,0,1,1-.82h2.22c4.63,0,7.3-2.24,8-6.68A5.41,5.41,0,0,0,66,1.79C65,.62,63.27,0,60.92,0Zm.81,6.58C61.35,9.1,59.43,9.1,57.56,9.1H56.5l.74-4.71a.59.59,0,0,1,.58-.49h.49c1.27,0,2.47,0,3.08.72A2.34,2.34,0,0,1,61.74,6.58Z"/><path class="cls-2" d="M10.83,0h-7a1,1,0,0,0-1,.82L0,18.83a.59.59,0,0,0,.58.68H3.94a1,1,0,0,0,1-.82l.77-4.86a1,1,0,0,1,1-.82H8.86c4.63,0,7.3-2.24,8-6.68A5.41,5.41,0,0,0,16,1.79C15,.62,13.18,0,10.83,0Zm.81,6.58C11.26,9.1,9.34,9.1,7.47,9.1H6.41l.74-4.71a.59.59,0,0,1,.58-.49h.49c1.27,0,2.47,0,3.08.72A2.34,2.34,0,0,1,11.64,6.58Z"/><path class="cls-2" d="M31.83,6.5H28.46a.59.59,0,0,0-.58.49l-.15.94-.24-.34c-.73-1.06-2.35-1.41-4-1.41A7.73,7.73,0,0,0,16,12.94a6.35,6.35,0,0,0,1.25,5.17,5.26,5.26,0,0,0,4.24,1.71,6.44,6.44,0,0,0,4.66-1.92l-.15.93a.59.59,0,0,0,.58.68h3a1,1,0,0,0,1-.82L32.4,7.17A.59.59,0,0,0,31.83,6.5ZM27.14,13a3.75,3.75,0,0,1-3.8,3.21,2.84,2.84,0,0,1-2.26-.91A2.86,2.86,0,0,1,20.56,13a3.76,3.76,0,0,1,3.77-3.24,2.83,2.83,0,0,1,2.24.92A2.9,2.9,0,0,1,27.14,13Z"/><path class="cls-1" d="M81.92,6.5H78.55A.59.59,0,0,0,78,7l-.15.94-.24-.34c-.73-1.06-2.35-1.41-4-1.41a7.73,7.73,0,0,0-7.51,6.76,6.35,6.35,0,0,0,1.25,5.17,5.26,5.26,0,0,0,4.24,1.71,6.44,6.44,0,0,0,4.66-1.92l-.15.93a.59.59,0,0,0,.58.68h3a1,1,0,0,0,1-.82L82.49,7.17A.59.59,0,0,0,81.92,6.5ZM77.23,13a3.75,3.75,0,0,1-3.8,3.21,2.84,2.84,0,0,1-2.26-.91A2.86,2.86,0,0,1,70.65,13a3.76,3.76,0,0,1,3.77-3.24,2.83,2.83,0,0,1,2.24.92A2.9,2.9,0,0,1,77.23,13Z"/><path class="cls-2" d="M49.74,6.5H46.36a1,1,0,0,0-.81.43l-4.66,6.87-2-6.6A1,1,0,0,0,38,6.5H34.65a.59.59,0,0,0-.55.77L37.82,18.2l-3.5,4.94a.59.59,0,0,0,.48.92h3.38a1,1,0,0,0,.8-.42L50.22,7.42A.59.59,0,0,0,49.74,6.5Z"/><path class="cls-1" d="M85.88.49,83,18.83a.59.59,0,0,0,.58.68h2.9a1,1,0,0,0,1-.82l2.84-18A.59.59,0,0,0,89.7,0H86.46A.59.59,0,0,0,85.88.49Z"/></g></g></svg>