<svg xmlns="http://www.w3.org/2000/svg" viewBox="0 0 45.52 45.52"><defs><style>.cls-1{fill:#fff;stroke:#000;stroke-miterlimit:10;stroke-width:2.23px;}.cls-2{fill:#040006;}</style></defs><title>printerest_black</title><g id="Layer_2" data-name="Layer 2"><g id="Layer_1-2" data-name="Layer 1"><g id="_Group_" data-name="&lt;Group&gt;"><circle id="_Path_" data-name="&lt;Path&gt;" class="cls-1" cx="22.76" cy="22.76" r="21.65"/><g id="_Group_2" data-name="&lt;Group&gt;"><path id="_Compound_Path_" data-name="&lt;Compound Path&gt;" class="cls-2" d="M24.85,29.43a5.84,5.84,0,0,1-3.44-1.63h0c-.67,3.54-2.81,11.27-5.25,13-.76-5.35,2.42-13.71,3.28-18-1.47-2.48.18-7.48,3.29-6.25,3.83,1.51-3.31,9.23,1.48,10.19,5,1,7-8.68,3.94-11.83-4.48-4.55-13.05-.1-12,6.41.26,1.59,1.9,2.08.66,4.27h0c-2.65-.71-3.72-3.45-3.6-5.91.23-4.94,4.44-8.4,8.71-8.88,5.4-.6,10.48,2,11.18,7.07.79,5.74-2.44,12-8.22,11.5Zm0,0"/></g></g></g></g></svg>