<?xml version="1.0" encoding="utf-8"?>
<!-- Generator: Adobe Illustrator 21.0.0, SVG Export Plug-In . SVG Version: 6.00 Build 0)  -->
<svg version="1.1" id="Layer_1" xmlns="http://www.w3.org/2000/svg" xmlns:xlink="http://www.w3.org/1999/xlink" x="0px" y="0px"
	 viewBox="0 0 31.7 28.2" style="enable-background:new 0 0 31.7 28.2;" xml:space="preserve">
<style type="text/css">
	.st0{opacity:0.1;}
	.st1{fill:#FFFFFF;}
</style>
<g transform="translate(0,-952.36218)">
	<path class="st0" d="M15.8,980.5c-0.6,0-1.1-0.2-1.5-0.6c-1.2-1.3-2.5-2.6-3.7-3.9c-2.6-2.7-5.3-5.4-8-8.3c-3.4-3.5-3.4-9.2,0-12.7
		c1.7-1.7,3.9-2.7,6.2-2.7c0,0,0,0,0,0c2.4,0,4.7,1,6.2,2.7l0.7,0.7l0.7-0.7c1.7-1.7,3.9-2.7,6.2-2.7c2.4,0,4.6,0.9,6.2,2.7
		c3.4,3.5,3.4,9.2,0,12.7c-1.9,2-9.7,10.1-11.7,12.2C16.9,980.3,16.4,980.5,15.8,980.5z M8.9,956.4c-1.2,0-2.4,0.5-3.3,1.5
		c-1.9,1.9-1.9,5.1,0,7.1l10.3,10.6c0,0,8.4-8.7,10.3-10.6c1.9-2,1.9-5.1,0-7.1c-0.9-0.9-2.1-1.5-3.3-1.5s-2.4,0.5-3.3,1.5l-2.2,2.2
		c-0.4,0.4-0.9,0.6-1.5,0.6c-0.6,0-1.1-0.2-1.5-0.6l-2.2-2.2C11.3,956.9,10.1,956.4,8.9,956.4z"/>
	<path class="st1" d="M8.9,953.3c-2,0-4,0.8-5.6,2.4c-3.1,3.2-3,8.2,0,11.4c4,4.3,7.8,8.1,11.7,12.2c0.4,0.4,1.2,0.4,1.6,0
		c3.9-4,7.8-8.1,11.7-12.2c3.1-3.2,3.1-8.2,0-11.4c-3.1-3.2-8.1-3.2-11.1,0l-1.4,1.4l-1.4-1.4C13,954.1,10.8,953.3,8.9,953.3
		L8.9,953.3z M8.9,955.5c1.4,0,2.9,0.6,4,1.7l2.2,2.2c0.4,0.4,1.2,0.4,1.6,0l2.2-2.2c2.2-2.3,5.7-2.3,8,0s2.2,6.1,0,8.4
		c-3.6,3.8-7.3,7.6-10.9,11.3L4.9,965.6c-2.2-2.3-2.2-6.1,0-8.4C6,956,7.5,955.5,8.9,955.5z"/>
</g>
</svg>
