<?xml version="1.0" encoding="utf-8"?>
<!-- Generator: Adobe Illustrator 21.0.0, SVG Export Plug-In . SVG Version: 6.00 Build 0)  -->
<svg version="1.1" id="Layer_1" xmlns="http://www.w3.org/2000/svg" xmlns:xlink="http://www.w3.org/1999/xlink" x="0px" y="0px"
	 viewBox="0 0 31.7 28.2" style="enable-background:new 0 0 31.7 28.2;" xml:space="preserve">
<style type="text/css">
	.st0{fill:#F5C442;}
</style>
<g transform="translate(0,-952.36218)">
	<path class="st0" d="M8.4,952.4c-2.2,0-4.3,0.9-6,2.5c-3.3,3.4-3.3,8.8,0,12.2c4.2,4.6,8.4,8.7,12.5,13c0.4,0.5,1.3,0.5,1.7,0
		c4.2-4.3,8.4-8.7,12.5-13c3.3-3.4,3.3-8.8,0-12.2c-3.3-3.4-8.6-3.4-11.9,0l-1.5,1.5l-1.5-1.5C12.8,953.2,10.4,952.3,8.4,952.4
		L8.4,952.4z M8.4,954.7c1.5,0,3.1,0.6,4.3,1.9l2.3,2.4c0.4,0.5,1.3,0.5,1.7,0l2.3-2.4c2.4-2.5,6.2-2.5,8.5,0s2.4,6.5,0,9
		c-3.9,4-7.8,8.1-11.7,12.1L4.1,965.5c-2.4-2.5-2.4-6.5,0-9C5.3,955.3,6.9,954.7,8.4,954.7z"/>
	<g transform="translate(0,-952.36218)">
		<path class="st0" d="M5.2,1916.8c-1.8-1.9-1.8-5,0-6.9c0.9-0.9,2-1.4,3.2-1.4c1.2,0,2.3,0.5,3.2,1.4l2.3,2.4
			c0.5,0.5,1.2,0.8,1.9,0.8c0.7,0,1.4-0.3,1.9-0.8l2.3-2.4c0.9-0.9,2-1.4,3.2-1.4c1.2,0,2.3,0.5,3.2,1.4c1.8,1.9,1.8,5,0,6.9
			c-2,2.1-10.6,11-10.6,11L5.2,1916.8z"/>
	</g>
</g>
</svg>
