<svg xmlns="http://www.w3.org/2000/svg" viewBox="0 0 45.52 45.52"><defs><style>.cls-1{fill:#fff;stroke:#000;stroke-miterlimit:10;stroke-width:2.23px;}.cls-2{fill:#040006;}</style></defs><title>twitter_black</title><g id="Layer_2" data-name="Layer 2"><g id="Layer_1-2" data-name="Layer 1"><g id="_Group_" data-name="&lt;Group&gt;"><circle id="_Path_" data-name="&lt;Path&gt;" class="cls-1" cx="22.76" cy="22.76" r="21.65"/><path id="_Path_2" data-name="&lt;Path&gt;" class="cls-2" d="M35.3,14.33a8.5,8.5,0,0,1-2.71.7,5.22,5.22,0,0,0,2.29-2.88,10.41,10.41,0,0,1-3.3,1.26,5.21,5.21,0,0,0-8.87,4.75A14.77,14.77,0,0,1,12,12.73a5.21,5.21,0,0,0,1.61,6.95A5.18,5.18,0,0,1,11.24,19s0,0,0,.07a5.21,5.21,0,0,0,4.17,5.1,5.2,5.2,0,0,1-2.35.09,5.21,5.21,0,0,0,4.86,3.61,10.44,10.44,0,0,1-6.46,2.23,10.55,10.55,0,0,1-1.24-.07s1.92,2.65,8.62,3.58S37.07,30,33,16.91A9.08,9.08,0,0,0,35.3,14.33Z"/></g></g></g></svg>